<svg version="1.0" xmlns="http://www.w3.org/2000/svg" width="332.000000" height="100.000000" viewBox="0 0 332.000000 100.000000" preserveAspectRatio="xMidYMid meet"><rect x="89" y="14" width="19" height="6" fill="rgb(138,127,103)" /><rect x="71" y="24" width="19" height="6" fill="rgb(187,147,99)" /><g transform="translate(0.000000,100.000000) scale(0.100000,-0.100000)" fill="#C59966" stroke="none"><path d="M857 843 c-4 -3 -7 -26 -7 -49 l0 -43 -72 -3 -73 -3 -5 -42 c-4 -30 -13 -47 -33 -63 -46 -36 -56 -68 -56 -172 0 -112 14 -142 84 -183 55 -33 117 -36 193 -11 39 13 52 23 52 37 0 23 -5 23 -60 4 -50 -18 -113 -19 -143 -4 -32 17 -77 61 -77 76 0 17 6 16 34 -2 62 -41 237 -17 244 34 3 19 0 22 -17 16 -21 -6 -21 -4 -21 184 0 184 1 191 20 191 13 0 20 7 20 20 0 17 -7 20 -38 20 -21 0 -42 -3 -45 -7z m-7 -282 l0 -149 -34 -6 c-65 -12 -66 -10 -66 155 l0 149 50 0 50 0 0 -149z m-150 -43 l-1 -83 -19 24 c-24 28 -26 88 -4 119 8 12 17 22 20 22 2 0 4 -37 4 -82z"/></g><g transform="translate(0.000000,100.000000) scale(0.100000,-0.100000)" fill="#C59F66" stroke="none"><path d="M897 863 c18 -2 50 -2 70 0 21 2 7 4 -32 4 -38 0 -55 -2 -38 -4z"/><path d="M842 848 c-7 -7 -12 -26 -11 -42 l1 -31 7 31 c4 17 11 36 15 42 9 15 3 15 -12 0z"/><path d="M904 615 c0 -99 2 -138 3 -87 2 51 2 132 0 180 -1 48 -3 6 -3 -93z"/><path d="M695 749 c-11 -16 -1 -19 13 -3 7 8 8 14 3 14 -5 0 -13 -5 -16 -11z"/><path d="M757 703 c-4 -3 -7 -71 -7 -150 l0 -143 48 2 47 1 -42 4 -43 4 0 139 0 139 43 4 42 4 -41 1 c-22 1 -44 -1 -47 -5z"/><path d="M834 560 c0 -74 1 -105 3 -67 2 37 2 97 0 135 -2 37 -3 6 -3 -68z"/><path d="M674 658 l-19 -23 23 19 c21 18 27 26 19 26 -2 0 -12 -10 -23 -22z"/><path d="M625 610 c-10 -11 -16 -22 -14 -24 2 -2 12 7 22 20 22 29 17 32 -8 4z"/><path d="M662 520 c0 -19 2 -27 5 -17 2 9 2 25 0 35 -3 9 -5 1 -5 -18z"/><path d="M685 350 c10 -11 20 -20 23 -20 3 0 -3 9 -13 20 -10 11 -20 20 -23 20 -3 0 3 -9 13 -20z"/><path d="M858 363 c7 -3 16 -2 19 1 4 3 -2 6 -13 5 -11 0 -14 -3 -6 -6z"/><path d="M610 354 c0 -6 17 -26 38 -45 l37 -34 -35 40 c-19 22 -36 42 -37 44 -2 2 -3 0 -3 -5z"/><path d="M763 353 c15 -2 39 -2 55 0 15 2 2 4 -28 4 -30 0 -43 -2 -27 -4z"/><path d="M727 319 c7 -7 15 -10 18 -7 3 3 -2 9 -12 12 -14 6 -15 5 -6 -5z"/><path d="M783 303 c9 -2 25 -2 35 0 9 3 1 5 -18 5 -19 0 -27 -2 -17 -5z"/><path d="M697 269 c7 -7 15 -10 18 -7 3 3 -2 9 -12 12 -14 6 -15 5 -6 -5z"/><path d="M738 253 c7 -3 16 -2 19 1 4 3 -2 6 -13 5 -11 0 -14 -3 -6 -6z"/><path d="M848 253 c7 -3 16 -2 19 1 4 3 -2 6 -13 5 -11 0 -14 -3 -6 -6z"/><path d="M931 226 c-9 -11 -9 -16 1 -22 7 -4 10 -4 6 1 -4 4 -3 14 3 22 6 7 9 13 6 13 -2 0 -10 -6 -16 -14z"/><path d="M958 183 c7 -3 16 -2 19 1 4 3 -2 6 -13 5 -11 0 -14 -3 -6 -6z"/></g><g transform="translate(0.000000,100.000000) scale(0.100000,-0.100000)" fill="#466C6C" stroke="none"><path d="M1224 765 c0 -126 2 -177 3 -112 2 65 2 168 0 230 -1 62 -3 9 -3 -118z"/><path d="M1072 728 l3 -223 2 218 3 217 40 0 40 0 3 -210 3 -210 -1 212 0 213 -47 3 -48 3 2 -223z"/><path d="M1287 603 c-4 -3 -7 -11 -7 -17 0 -7 3 -7 8 1 4 6 23 13 42 16 l35 4 -36 1 c-20 1 -39 -1 -42 -5z"/><path d="M1378 593 c6 -2 18 -2 25 0 6 3 1 5 -13 5 -14 0 -19 -2 -12 -5z"/><path d="M1379 513 l-34 -38 38 34 c20 19 37 36 37 38 0 8 -8 0 -41 -34z"/><path d="M1105 510 c-13 -5 -14 -9 -5 -9 8 0 24 4 35 9 13 5 14 9 5 9 -8 0 -24 -4 -35 -9z"/><path d="M1200 410 c12 -12 18 -25 15 -30 -4 -6 -1 -10 4 -10 14 0 14 3 -1 35 -6 14 -17 25 -25 25 -9 0 -6 -7 7 -20z"/><path d="M1290 395 c-19 -22 -8 -25 13 -3 9 10 13 18 8 18 -5 0 -14 -7 -21 -15z"/><path d="M1358 393 c6 -2 18 -2 25 0 6 3 1 5 -13 5 -14 0 -19 -2 -12 -5z"/><path d="M1883 330 c0 -36 2 -50 4 -32 2 17 2 47 0 65 -2 17 -4 3 -4 -33z"/><path d="M1150 355 c-19 -7 -28 -14 -20 -14 8 0 29 6 45 14 39 17 21 18 -25 0z"/><path d="M1394 328 l-29 -33 33 29 c30 28 37 36 29 36 -2 0 -16 -15 -33 -32z"/><path d="M1300 296 c0 -2 7 -7 16 -10 8 -3 12 -2 9 4 -6 10 -25 14 -25 6z"/><path d="M1215 269 c-27 -10 -37 -17 -21 -14 31 7 97 33 81 33 -5 0 -32 -8 -60 -19z"/><path d="M913 65 c0 -22 2 -30 4 -17 2 12 2 30 0 40 -3 9 -5 -1 -4 -23z"/><path d="M1082 70 c0 -19 2 -27 5 -17 2 9 2 25 0 35 -3 9 -5 1 -5 -18z"/><path d="M2392 50 c0 -14 2 -19 5 -12 2 6 2 18 0 25 -3 6 -5 1 -5 -13z"/><path d="M2995 49 c-4 -6 -5 -12 -2 -15 2 -3 7 2 10 11 7 17 1 20 -8 4z"/></g><g transform="translate(0.000000,100.000000) scale(0.100000,-0.100000)" fill="#79796C" stroke="none"><path d="M1017 983 c-4 -3 -7 -35 -7 -70 l0 -63 -35 0 c-28 0 -35 -4 -35 -20 0 -16 7 -20 35 -20 l35 0 0 -174 0 -173 -32 -9 c-23 -7 -34 -17 -36 -33 -4 -27 -12 -28 150 27 l108 37 0 253 0 252 -88 0 c-49 0 -92 -3 -95 -7z m153 -248 l0 -215 -27 -11 c-16 -6 -40 -13 -55 -16 l-28 -6 0 232 0 231 55 0 55 0 0 -215z"/><path d="M1068 377 c-114 -36 -128 -43 -128 -63 l0 -22 83 25 c153 47 193 67 179 89 -5 7 -48 -2 -134 -29z"/><path d="M1063 269 c-79 -26 -123 -45 -123 -54 0 -25 16 -25 101 1 131 41 159 54 159 75 0 10 -3 19 -7 19 -5 0 -63 -19 -130 -41z"/></g><g transform="translate(0.000000,100.000000) scale(0.100000,-0.100000)" fill="#9F8C6C" stroke="none"><path d="M1064 720 c0 -129 2 -182 3 -117 2 64 2 170 0 235 -1 64 -3 11 -3 -118z"/><path d="M857 853 c-3 -5 20 -7 51 -5 98 5 110 9 30 11 -42 0 -79 -2 -81 -6z"/><path d="M840 795 l0 -34 -62 -4 -63 -3 68 -2 67 -2 0 40 c0 22 -2 40 -5 40 -3 0 -5 -16 -5 -35z"/><path d="M928 803 c18 -2 45 -2 60 0 15 2 0 4 -33 4 -33 0 -45 -2 -27 -4z"/><path d="M692 705 c0 -16 2 -22 5 -12 2 9 2 23 0 30 -3 6 -5 -1 -5 -18z"/><path d="M844 560 c0 -85 2 -120 3 -77 2 42 2 112 0 155 -1 42 -3 7 -3 -78z"/><path d="M693 520 c0 -36 2 -50 4 -32 2 17 2 47 0 65 -2 17 -4 3 -4 -33z"/><path d="M778 403 c6 -2 18 -2 25 0 6 3 1 5 -13 5 -14 0 -19 -2 -12 -5z"/><path d="M968 403 c7 -3 16 -2 19 1 4 3 -2 6 -13 5 -11 0 -14 -3 -6 -6z"/><path d="M660 396 c0 -2 7 -7 16 -10 8 -3 12 -2 9 4 -6 10 -25 14 -25 6z"/><path d="M965 300 c-13 -5 -14 -9 -5 -9 8 0 24 4 35 9 13 5 14 9 5 9 -8 0 -24 -4 -35 -9z"/><path d="M818 253 c7 -3 16 -2 19 1 4 3 -2 6 -13 5 -11 0 -14 -3 -6 -6z"/><path d="M985 200 c-13 -5 -14 -9 -5 -9 8 0 24 4 35 9 13 5 14 9 5 9 -8 0 -24 -4 -35 -9z"/></g><g transform="translate(0.000000,100.000000) scale(0.100000,-0.100000)" fill="#2C6679" stroke="none"><path d="M1202 741 c-2 -213 0 -252 12 -248 8 3 33 11 56 18 38 12 44 11 56 -6 13 -18 16 -17 49 15 53 51 49 60 -37 75 -34 5 -38 4 -38 -15 0 -21 -33 -40 -70 -40 -19 0 -20 11 -23 228 l-2 227 -3 -254z"/><path d="M1754 893 c-4 -16 -8 -30 -9 -33 0 -3 -8 -19 -17 -35 -9 -17 -18 -39 -20 -50 -1 -11 -6 -22 -9 -25 -3 -3 -27 -57 -53 -120 -26 -63 -55 -123 -64 -132 -14 -17 -13 -18 16 -18 24 0 32 5 32 17 0 10 12 48 26 85 l26 68 78 0 c50 0 81 -4 87 -12 5 -7 23 -46 39 -85 28 -70 30 -73 62 -73 l33 0 -18 23 c-10 13 -56 112 -103 220 -46 108 -88 197 -91 197 -4 0 -10 -12 -15 -27z m45 -130 c17 -43 31 -84 31 -90 0 -9 -21 -13 -70 -13 -38 0 -70 3 -70 7 0 17 63 173 70 173 4 0 22 -35 39 -77z"/><path d="M2146 728 c-43 -106 -87 -205 -97 -220 l-20 -28 31 0 c17 0 29 4 25 9 -3 5 8 43 24 83 l29 73 82 0 83 0 36 -82 c34 -80 36 -83 68 -83 l33 0 -24 38 c-13 20 -59 119 -102 219 -44 101 -81 183 -84 183 -3 0 -41 -87 -84 -192z m113 29 c17 -46 31 -86 31 -90 0 -4 -31 -7 -70 -7 -38 0 -70 4 -70 8 0 9 28 93 49 145 6 15 15 27 19 27 5 0 23 -37 41 -83z"/><path d="M2571 904 c10 -12 14 -398 4 -414 -7 -12 175 -24 232 -15 105 15 179 71 208 154 40 119 -15 228 -135 266 -67 21 -326 29 -309 9z m271 -26 c99 -42 151 -142 128 -245 -24 -104 -89 -148 -221 -148 -58 0 -91 4 -102 14 -15 12 -17 39 -17 206 0 176 2 194 18 199 33 10 146 -5 194 -26z"/><path d="M1302 370 c3 -20 -4 -26 -47 -40 -37 -12 -51 -22 -53 -38 l-3 -21 57 19 c44 15 60 17 71 8 11 -9 22 -3 53 27 22 22 37 42 32 46 -4 4 -31 11 -60 15 -52 7 -54 6 -50 -16z"/><path d="M1557 362 c-22 -24 -21 -65 1 -85 19 -17 77 -23 86 -9 2 4 -13 6 -34 4 -31 -3 -40 0 -50 18 -17 31 -9 63 20 77 16 8 19 13 9 13 -9 0 -23 -8 -32 -18z"/><path d="M1610 376 c0 -2 9 -6 20 -9 11 -3 18 -1 14 4 -5 9 -34 13 -34 5z"/><path d="M1720 360 c-11 -11 -20 -29 -20 -40 0 -29 36 -60 70 -60 34 0 70 31 70 60 0 23 -33 60 -52 59 -7 0 -3 -5 10 -11 52 -25 30 -98 -29 -98 -58 0 -72 70 -21 99 9 6 11 11 5 11 -7 0 -22 -9 -33 -20z"/><path d="M1902 320 c1 -55 2 -58 5 -17 2 26 8 47 12 47 4 0 22 -20 41 -45 19 -25 37 -45 42 -45 4 0 7 28 6 63 -1 56 -2 57 -5 15 -2 -27 -7 -48 -11 -48 -4 0 -26 21 -49 47 l-42 48 1 -65z"/><path d="M2074 365 c-8 -19 13 -45 36 -45 22 0 44 -25 35 -41 -4 -6 -22 -9 -40 -7 -19 2 -31 0 -29 -4 8 -12 59 -9 72 4 21 21 13 39 -25 55 -48 19 -48 20 -33 38 9 11 9 15 1 15 -6 0 -14 -7 -17 -15z"/><path d="M2222 334 c-2 -56 10 -74 48 -74 38 0 50 18 48 74 l-1 51 -6 -55 -6 -55 -35 0 -35 0 -6 55 -6 55 -1 -51z"/><path d="M2392 323 l-2 -63 43 2 42 1 -37 4 -37 4 -4 57 -3 57 -2 -62z"/><path d="M2483 374 c7 -7 107 -7 115 0 3 3 -23 6 -58 6 -35 0 -61 -3 -57 -6z"/><path d="M2653 320 c0 -36 2 -50 4 -32 2 17 2 47 0 65 -2 17 -4 3 -4 -33z"/><path d="M2724 323 c0 -41 0 -46 3 -15 3 28 9 42 19 42 7 0 14 -3 14 -7 0 -5 16 -26 35 -48 l34 -40 -1 65 c-1 55 -2 58 -5 18 -2 -27 -7 -48 -11 -48 -4 1 -22 21 -40 45 -18 25 -36 45 -40 45 -4 0 -8 -26 -8 -57z"/><path d="M2910 360 c-43 -43 -7 -104 58 -98 32 3 37 7 40 31 3 23 0 27 -20 26 -17 -1 -18 -3 -5 -6 9 -2 17 -13 17 -24 0 -15 -7 -19 -35 -19 -63 0 -82 67 -27 99 9 6 11 11 5 11 -7 0 -22 -9 -33 -20z"/><path d="M2980 370 c8 -5 20 -10 25 -10 6 0 3 5 -5 10 -8 5 -19 10 -25 10 -5 0 -3 -5 5 -10z"/><path d="M2533 310 c0 -25 2 -35 4 -22 2 12 2 32 0 45 -2 12 -4 2 -4 -23z"/><path d="M1623 109 c9 -5 18 -22 18 -37 2 -24 2 -25 6 -4 5 24 -12 52 -31 52 -6 0 -3 -5 7 -11z"/><path d="M1763 80 c0 -25 2 -35 4 -22 2 12 2 32 0 45 -2 12 -4 2 -4 -23z"/><path d="M2911 83 c-1 -24 1 -43 3 -43 8 0 12 48 5 66 -5 13 -8 7 -8 -23z"/><path d="M2863 75 c0 -22 2 -30 4 -17 2 12 2 30 0 40 -3 9 -5 -1 -4 -23z"/><path d="M670 76 c0 -8 4 -17 9 -20 5 -4 7 3 4 14 -6 23 -13 26 -13 6z"/><path d="M772 65 c0 -16 2 -22 5 -12 2 9 2 23 0 30 -3 6 -5 -1 -5 -18z"/><path d="M803 74 c-3 -8 -2 -19 3 -24 5 -5 9 1 9 16 0 28 -3 30 -12 8z"/><path d="M892 65 c0 -16 2 -22 5 -12 2 9 2 23 0 30 -3 6 -5 -1 -5 -18z"/><path d="M978 63 c5 -21 7 -23 10 -9 2 10 0 22 -6 28 -6 6 -7 0 -4 -19z"/><path d="M1013 75 c-3 -9 -3 -18 -1 -21 3 -3 8 4 11 16 6 23 -1 27 -10 5z"/><path d="M1063 55 c0 -22 2 -30 4 -17 2 12 2 30 0 40 -3 9 -5 -1 -4 -23z"/><path d="M1673 74 c-3 -8 -2 -19 3 -24 5 -5 9 1 9 16 0 28 -3 30 -12 8z"/><path d="M1990 75 c0 -8 2 -15 4 -15 2 0 6 7 10 15 3 8 1 15 -4 15 -6 0 -10 -7 -10 -15z"/><path d="M2220 53 c-3 -23 -2 -39 3 -34 5 5 7 24 5 42 -3 33 -4 33 -8 -8z"/><path d="M2283 74 c-3 -8 -2 -19 3 -24 5 -5 9 1 9 16 0 28 -3 30 -12 8z"/><path d="M2335 65 c0 -13 3 -21 8 -18 4 2 7 10 7 18 0 8 -3 16 -7 18 -5 3 -8 -5 -8 -18z"/><path d="M2370 65 c0 -32 6 -32 12 0 3 14 1 25 -3 25 -5 0 -9 -11 -9 -25z"/><path d="M626 63 c-6 -14 -5 -15 5 -6 7 7 10 15 7 18 -3 3 -9 -2 -12 -12z"/><path d="M1411 64 c0 -11 3 -14 6 -6 3 7 2 16 -1 19 -3 4 -6 -2 -5 -13z"/></g><g transform="translate(0.000000,100.000000) scale(0.100000,-0.100000)" fill="#1F6C79" stroke="none"><path d="M1767 932 c7 -4 26 -37 42 -72 38 -81 40 -72 4 15 -17 41 -32 65 -42 65 -12 0 -13 -3 -4 -8z"/><path d="M2183 858 c-18 -45 -31 -83 -29 -85 2 -2 18 32 36 76 17 44 37 82 43 85 7 2 6 5 -3 5 -10 1 -26 -28 -47 -81z"/><path d="M2512 918 c3 -7 16 -15 31 -19 16 -4 25 -3 21 2 -3 5 -15 10 -27 11 -12 1 46 5 128 8 l150 6 -153 2 c-116 1 -153 -1 -150 -10z"/><path d="M2848 913 c7 -3 16 -2 19 1 4 3 -2 6 -13 5 -11 0 -14 -3 -6 -6z"/><path d="M2683 893 c15 -2 39 -2 55 0 15 2 2 4 -28 4 -30 0 -43 -2 -27 -4z"/><path d="M2788 883 c7 -3 16 -2 19 1 4 3 -2 6 -13 5 -11 0 -14 -3 -6 -6z"/><path d="M1750 819 c0 -5 5 -7 10 -4 6 3 10 8 10 11 0 2 -4 4 -10 4 -5 0 -10 -5 -10 -11z"/><path d="M2222 805 c6 -14 13 -24 14 -22 6 6 -9 47 -17 47 -5 0 -3 -11 3 -25z"/><path d="M2937 772 c17 -33 23 -59 21 -89 -2 -24 0 -43 4 -43 26 0 -9 155 -39 173 -6 4 1 -15 14 -41z"/><path d="M1721 739 c-14 -42 -7 -49 9 -9 7 17 10 33 8 36 -3 3 -11 -9 -17 -27z"/><path d="M1851 765 c0 -5 6 -21 14 -35 8 -14 14 -20 14 -15 0 6 -6 21 -14 35 -8 14 -14 21 -14 15z"/><path d="M2136 745 c-9 -26 -7 -32 5 -12 6 10 9 21 6 23 -2 3 -7 -2 -11 -11z"/><path d="M2263 702 c5 -23 4 -24 -49 -20 -30 1 -54 0 -54 -4 0 -5 27 -8 60 -8 62 0 72 8 49 40 -9 12 -10 10 -6 -8z"/><path d="M2112 685 c-17 -37 -14 -45 4 -12 9 16 14 31 11 33 -2 2 -9 -7 -15 -21z"/><path d="M1880 695 c0 -5 5 -17 10 -25 5 -8 10 -10 10 -5 0 6 -5 17 -10 25 -5 8 -10 11 -10 5z"/><path d="M1700 678 c0 -5 28 -7 63 -7 67 1 60 6 -15 11 -27 2 -48 0 -48 -4z"/><path d="M2367 630 c3 -11 9 -20 15 -20 5 0 4 9 -2 20 -6 11 -12 20 -14 20 -2 0 -2 -9 1 -20z"/><path d="M2076 600 c-22 -56 -19 -65 5 -11 11 24 18 46 15 48 -2 2 -11 -14 -20 -37z"/><path d="M1625 619 c-4 -6 -5 -12 -2 -15 2 -3 7 2 10 11 7 17 1 20 -8 4z"/><path d="M2946 605 c-9 -26 -7 -32 5 -12 6 10 9 21 6 23 -2 3 -7 -2 -11 -11z"/><path d="M1921 605 c0 -5 6 -21 14 -35 8 -14 14 -20 14 -15 0 6 -6 21 -14 35 -8 14 -14 21 -14 15z"/><path d="M2310 591 c0 -6 4 -13 10 -16 6 -3 7 1 4 9 -7 18 -14 21 -14 7z"/><path d="M2391 580 c14 -31 19 -36 19 -24 0 6 -7 19 -16 30 -14 18 -14 18 -3 -6z"/><path d="M1605 580 c-3 -5 -1 -10 4 -10 6 0 11 5 11 10 0 6 -2 10 -4 10 -3 0 -8 -4 -11 -10z"/><path d="M2914 548 l-19 -23 23 19 c12 11 22 21 22 23 0 8 -8 2 -26 -19z"/><path d="M2959 533 l-24 -28 28 24 c15 14 27 26 27 28 0 8 -8 1 -31 -24z"/><path d="M1587 533 c-4 -3 -7 -11 -7 -17 0 -6 5 -5 12 2 6 6 9 14 7 17 -3 3 -9 2 -12 -2z"/><path d="M2640 526 c0 -8 4 -17 9 -20 5 -4 7 3 4 14 -6 23 -13 26 -13 6z"/><path d="M2870 520 c-9 -6 -10 -10 -3 -10 6 0 15 5 18 10 8 12 4 12 -15 0z"/><path d="M1960 516 c0 -2 8 -10 18 -17 15 -13 16 -12 3 4 -13 16 -21 21 -21 13z"/><path d="M2029 503 c-13 -16 -12 -17 4 -4 16 13 21 21 13 21 -2 0 -10 -8 -17 -17z"/><path d="M2420 516 c0 -2 8 -10 18 -17 15 -13 16 -12 3 4 -13 16 -21 21 -21 13z"/><path d="M2090 494 c0 -2 10 -9 23 -14 15 -6 -15 -9 -95 -9 -84 -1 -118 2 -121 12 -3 7 -6 5 -6 -6 -1 -16 9 -17 122 -15 116 3 146 12 98 30 -12 4 -21 5 -21 2z"/><path d="M2683 493 c9 -2 23 -2 30 0 6 3 -1 5 -18 5 -16 0 -22 -2 -12 -5z"/><path d="M2788 493 c6 -2 18 -2 25 0 6 3 1 5 -13 5 -14 0 -19 -2 -12 -5z"/><path d="M1517 484 c-16 -17 10 -24 84 -24 64 0 79 3 79 15 0 9 -9 15 -22 14 -22 0 -22 -1 -3 -9 13 -6 -7 -9 -60 -9 -53 0 -73 3 -60 9 15 6 16 9 4 9 -9 1 -19 -2 -22 -5z"/><path d="M2351 478 c-1 -16 9 -18 74 -18 60 0 75 3 75 15 0 9 -9 15 -22 14 -22 0 -22 -1 -3 -9 14 -6 0 -9 -47 -9 -44 -1 -68 3 -71 12 -3 7 -6 5 -6 -5z"/><path d="M2525 480 c-10 -16 17 -21 96 -17 l74 3 -85 2 c-59 2 -80 5 -70 12 9 6 10 10 3 10 -6 0 -15 -5 -18 -10z"/><path d="M2808 463 c7 -3 16 -2 19 1 4 3 -2 6 -13 5 -11 0 -14 -3 -6 -6z"/><path d="M1598 393 c7 -3 16 -2 19 1 4 3 -2 6 -13 5 -11 0 -14 -3 -6 -6z"/><path d="M1768 393 c7 -3 16 -2 19 1 4 3 -2 6 -13 5 -11 0 -14 -3 -6 -6z"/><path d="M1544 368 l-19 -23 23 19 c21 18 27 26 19 26 -2 0 -12 -10 -23 -22z"/><path d="M1925 370 c10 -11 20 -20 23 -20 3 0 -3 9 -13 20 -10 11 -20 20 -23 20 -3 0 3 -9 13 -20z"/><path d="M1980 353 c0 -28 -3 -34 -10 -23 -5 8 -10 10 -10 4 0 -6 7 -17 15 -24 13 -11 15 -6 15 34 0 25 -2 46 -5 46 -3 0 -5 -17 -5 -37z"/><path d="M2207 383 c-4 -3 -7 -27 -7 -53 0 -33 6 -52 18 -63 27 -24 36 -21 11 4 -17 17 -20 31 -17 70 1 27 3 49 2 49 0 0 -4 -3 -7 -7z"/><path d="M2298 384 c-5 -4 -8 -30 -8 -58 1 -40 3 -47 11 -33 11 19 8 103 -3 91z"/><path d="M2400 335 c0 -35 4 -54 10 -50 6 3 10 26 10 50 0 24 -4 47 -10 50 -6 4 -10 -15 -10 -50z"/><path d="M2600 380 c0 -5 -9 -10 -19 -10 -11 0 -22 -4 -25 -8 -3 -5 8 -6 25 -4 16 2 29 10 29 18 0 8 -2 14 -5 14 -3 0 -5 -4 -5 -10z"/><path d="M2712 323 c-2 -67 0 -73 18 -73 17 0 20 6 18 48 l-1 47 -4 -42 c-6 -66 -22 -51 -26 25 l-3 67 -2 -72z"/><path d="M2813 345 c0 -27 2 -38 4 -22 2 15 2 37 0 50 -2 12 -4 0 -4 -28z"/><path d="M2840 325 c0 -66 -9 -79 -38 -55 -7 5 -6 3 2 -6 29 -33 46 -10 46 61 0 36 -2 65 -5 65 -3 0 -5 -29 -5 -65z"/><path d="M1656 367 c3 -10 9 -15 12 -12 3 3 0 11 -7 18 -10 9 -11 8 -5 -6z"/><path d="M1569 353 c-12 -16 -12 -17 1 -7 8 7 24 14 35 17 19 4 19 5 -1 6 -12 0 -28 -7 -35 -16z"/><path d="M1751 366 c2 -2 18 -6 34 -10 22 -5 26 -4 15 4 -14 9 -59 15 -49 6z"/><path d="M2108 363 c7 -3 16 -2 19 1 4 3 -2 6 -13 5 -11 0 -14 -3 -6 -6z"/><path d="M2498 363 c20 -4 22 -10 22 -59 0 -47 2 -54 20 -54 17 0 20 6 18 48 l-1 47 -4 -42 c-6 -60 -21 -54 -25 10 -3 48 -5 52 -28 53 -22 1 -22 0 -2 -3z"/><path d="M2887 363 c-13 -12 -7 -69 9 -89 14 -18 15 -18 3 5 -6 13 -9 39 -6 57 6 35 5 39 -6 27z"/><path d="M2948 363 c6 -2 18 -2 25 0 6 3 1 5 -13 5 -14 0 -19 -2 -12 -5z"/><path d="M1522 320 c0 -14 2 -19 5 -12 2 6 2 18 0 25 -3 6 -5 1 -5 -13z"/><path d="M1722 320 c0 -14 2 -19 5 -12 2 6 2 18 0 25 -3 6 -5 1 -5 -13z"/><path d="M2110 336 c0 -2 9 -6 20 -9 11 -3 18 -1 14 4 -5 9 -34 13 -34 5z"/><path d="M2912 320 c0 -14 2 -19 5 -12 2 6 2 18 0 25 -3 6 -5 1 -5 -13z"/><path d="M2973 323 c9 -2 25 -2 35 0 9 3 1 5 -18 5 -19 0 -27 -2 -17 -5z"/><path d="M2760 316 c0 -2 8 -10 18 -17 15 -13 16 -12 3 4 -13 16 -21 21 -21 13z"/><path d="M1831 284 c-12 -27 -11 -28 4 -12 10 9 16 21 13 28 -2 7 -10 -1 -17 -16z"/><path d="M1940 306 c0 -2 8 -10 18 -17 15 -13 16 -12 3 4 -13 16 -21 21 -21 13z"/><path d="M2125 298 c4 -11 0 -18 -12 -21 -15 -4 -16 -5 -1 -6 22 -1 33 18 19 32 -9 9 -11 8 -6 -5z"/><path d="M1530 286 c0 -2 8 -10 18 -17 15 -13 16 -12 3 4 -13 16 -21 21 -21 13z"/><path d="M1598 273 c7 -3 16 -2 19 1 4 3 -2 6 -13 5 -11 0 -14 -3 -6 -6z"/><path d="M2306 265 c-11 -8 -15 -15 -9 -15 6 0 16 7 23 15 16 19 11 19 -14 0z"/><path d="M2474 272 c4 -7 -11 -12 -46 -15 l-53 -3 58 -2 c54 -2 72 8 45 24 -6 4 -8 3 -4 -4z"/><path d="M2958 273 c7 -3 16 -2 19 1 4 3 -2 6 -13 5 -11 0 -14 -3 -6 -6z"/><path d="M1888 258 c5 -5 16 -8 23 -6 8 3 3 7 -10 11 -17 4 -21 3 -13 -5z"/><path d="M1988 253 c6 -2 18 -2 25 0 6 3 1 5 -13 5 -14 0 -19 -2 -12 -5z"/><path d="M2648 253 c7 -3 16 -2 19 1 4 3 -2 6 -13 5 -11 0 -14 -3 -6 -6z"/><path d="M761 114 c0 -11 3 -14 6 -6 3 7 2 16 -1 19 -3 4 -6 -2 -5 -13z"/><path d="M840 115 c0 -8 2 -15 4 -15 2 0 6 7 10 15 3 8 1 15 -4 15 -6 0 -10 -7 -10 -15z"/><path d="M882 80 c2 -32 8 -55 16 -58 6 -2 12 1 12 8 0 6 -4 8 -10 5 -6 -4 -10 8 -10 30 0 22 4 34 10 30 15 -10 12 5 -6 22 -14 14 -15 11 -12 -37z"/><path d="M1136 117 c3 -10 9 -15 12 -12 3 3 0 11 -7 18 -10 9 -11 8 -5 -6z"/><path d="M1282 112 c-1 -13 -5 -21 -9 -19 -5 3 -8 -12 -8 -33 0 -33 3 -37 24 -38 13 0 18 3 13 7 -6 3 -12 29 -15 56 -2 28 -4 40 -5 27z"/><path d="M1554 116 c-3 -8 -4 -29 -2 -48 3 -29 4 -27 8 15 5 48 3 58 -6 33z"/><path d="M1770 79 c0 -31 -4 -48 -10 -44 -5 3 -10 1 -10 -4 0 -6 4 -11 9 -11 18 0 32 30 29 61 -2 22 2 34 12 36 12 4 12 2 2 -5 -10 -7 -10 -11 1 -21 12 -9 15 -7 15 14 0 20 -6 25 -24 25 -22 0 -24 -4 -24 -51z"/><path d="M2048 121 c11 -7 11 -9 -2 -14 -9 -4 -16 -12 -16 -18 0 -8 5 -7 16 2 15 12 16 10 13 -26 -4 -37 -2 -40 21 -41 14 -1 19 1 13 3 -7 3 -13 17 -13 31 0 44 -11 72 -29 72 -12 0 -13 -2 -3 -9z"/><path d="M2566 117 c5 -13 1 -20 -15 -24 -11 -3 -21 -13 -20 -22 0 -10 2 -11 6 -3 2 6 11 12 18 12 18 0 28 31 15 44 -8 8 -9 6 -4 -7z"/><path d="M2900 115 c-2 -11 -2 -34 -1 -52 2 -23 -2 -33 -16 -36 -13 -3 -11 -5 7 -6 24 -1 25 2 22 42 -4 57 -9 77 -12 52z"/><path d="M1588 103 c6 -2 18 -2 25 0 6 3 1 5 -13 5 -14 0 -19 -2 -12 -5z"/><path d="M2507 103 c-9 -9 -9 -41 1 -46 4 -3 7 8 7 24 0 16 0 29 -1 29 0 0 -4 -3 -7 -7z"/><path d="M705 80 c-10 -11 -14 -20 -9 -20 5 0 15 9 22 20 7 11 11 20 9 20 -2 0 -12 -9 -22 -20z"/><path d="M778 60 c-2 -22 0 -40 4 -40 5 0 8 5 8 11 0 5 4 8 8 5 5 -3 6 8 4 25 -7 44 -19 44 -24 -1z"/><path d="M987 83 c6 -16 8 -16 21 0 8 10 6 13 -7 13 -11 0 -17 -6 -14 -13z"/><path d="M1342 75 c0 -16 2 -22 5 -12 2 9 2 23 0 30 -3 6 -5 -1 -5 -18z"/><path d="M1388 59 c-2 -27 0 -35 8 -28 6 5 14 5 19 1 4 -4 2 3 -6 15 -10 16 -10 25 -1 36 9 11 9 14 -2 14 -9 0 -16 -14 -18 -38z"/><path d="M1865 89 c-4 -6 -5 -12 -2 -15 2 -3 7 2 10 11 7 17 1 20 -8 4z"/><path d="M1887 80 c-3 -11 -1 -23 4 -26 5 -3 9 6 9 20 0 31 -6 34 -13 6z"/><path d="M1975 80 c-4 -13 -15 -20 -33 -20 -18 0 -23 -3 -16 -10 16 -16 64 9 64 32 0 24 -7 23 -15 -2z"/><path d="M2233 60 c0 -25 2 -35 4 -22 2 12 2 32 0 45 -2 12 -4 2 -4 -23z"/><path d="M2362 93 c-1 -7 -1 -14 0 -15 1 -2 -4 -14 -11 -27 -7 -13 -8 -21 -3 -17 6 3 13 2 17 -4 8 -13 25 -13 25 1 0 5 -4 8 -9 4 -6 -3 -12 12 -14 32 -2 21 -4 32 -5 26z"/><path d="M2436 70 c8 -43 14 -51 14 -19 0 13 -5 31 -10 39 -7 11 -8 5 -4 -20z"/><path d="M2723 84 c3 -12 0 -29 -5 -38 -5 -9 -7 -16 -4 -16 13 0 23 37 15 55 -9 19 -9 19 -6 -1z"/><path d="M2763 93 c-15 -5 -17 -23 -4 -23 5 0 11 7 15 15 3 8 4 15 3 14 -1 0 -8 -3 -14 -6z"/><path d="M2806 85 c-9 -26 -7 -32 5 -12 6 10 9 21 6 23 -2 3 -7 -2 -11 -11z"/><path d="M1150 81 c0 -6 4 -13 10 -16 6 -3 7 1 4 9 -7 18 -14 21 -14 7z"/><path d="M1220 80 c-12 -8 -11 -10 8 -10 12 0 22 5 22 10 0 13 -11 13 -30 0z"/><path d="M1435 80 c-3 -5 1 -10 10 -10 9 0 13 5 10 10 -3 6 -8 10 -10 10 -2 0 -7 -4 -10 -10z"/><path d="M1627 71 c-4 -17 -3 -21 5 -13 5 5 8 16 6 23 -3 8 -7 3 -11 -10z"/><path d="M1695 80 c-3 -5 1 -10 10 -10 9 0 13 5 10 10 -3 6 -8 10 -10 10 -2 0 -7 -4 -10 -10z"/><path d="M1925 80 c-3 -5 1 -10 10 -10 9 0 13 5 10 10 -3 6 -8 10 -10 10 -2 0 -7 -4 -10 -10z"/><path d="M2266 73 c-6 -14 -5 -15 5 -6 7 7 10 15 7 18 -3 3 -9 -2 -12 -12z"/><path d="M1187 66 c-4 -10 -3 -15 3 -11 6 3 10 1 10 -6 0 -7 3 -10 6 -6 3 3 2 13 -4 22 -8 16 -9 16 -15 1z"/><path d="M1740 70 c0 -5 -12 -10 -27 -10 -20 0 -24 -3 -16 -11 8 -8 17 -8 32 0 19 10 29 31 16 31 -3 0 -5 -4 -5 -10z"/><path d="M2121 53 c-1 -25 3 -33 17 -33 11 0 13 3 6 8 -7 4 -14 18 -17 32 -4 21 -4 20 -6 -7z"/><path d="M2871 64 c0 -11 3 -14 6 -6 3 7 2 16 -1 19 -3 4 -6 -2 -5 -13z"/><path d="M2953 56 c1 -17 9 -31 17 -33 10 -3 11 -2 4 4 -7 4 -14 19 -17 33 -4 22 -5 21 -4 -4z"/><path d="M1644 49 c-19 -22 -19 -22 4 -8 12 8 22 17 22 21 0 12 -6 9 -26 -13z"/><path d="M1810 51 c0 -11 -5 -22 -10 -24 -6 -3 -5 -4 1 -3 15 3 32 46 19 46 -6 0 -10 -9 -10 -19z"/><path d="M2610 51 c0 -11 -6 -22 -12 -24 -8 -3 -6 -6 5 -6 12 -1 17 7 17 24 0 14 -2 25 -5 25 -3 0 -5 -9 -5 -19z"/><path d="M1435 50 c3 -5 12 -7 19 -4 7 3 16 -2 19 -10 8 -20 47 -21 47 -2 0 8 -4 18 -10 21 -6 3 -7 -1 -4 -9 3 -9 1 -16 -5 -16 -7 0 -14 7 -17 15 -4 8 -17 15 -31 15 -13 0 -22 -4 -18 -10z"/><path d="M2777 53 c-3 -5 4 -15 16 -23 21 -12 21 -12 7 6 -8 10 -15 20 -16 22 -1 2 -4 -1 -7 -5z"/><path d="M3015 51 c4 -8 2 -17 -6 -22 -9 -6 -10 -9 -2 -9 19 0 27 21 13 33 -10 9 -11 9 -5 -2z"/><path d="M696 35 c-3 -8 -1 -15 4 -15 6 0 10 7 10 15 0 8 -2 15 -4 15 -2 0 -6 -7 -10 -15z"/><path d="M982 35 c-11 -12 -10 -15 3 -15 8 0 15 5 15 11 0 5 5 7 12 3 7 -4 8 -3 4 4 -9 16 -18 15 -34 -3z"/><path d="M2649 38 c7 -10 23 -17 35 -17 20 1 20 2 1 6 -11 3 -27 10 -35 17 -13 10 -13 9 -1 -6z"/><path d="M1071 17 c-13 -21 -12 -21 5 -5 10 10 16 20 13 22 -3 3 -11 -5 -18 -17z"/><path d="M1160 30 c-9 -6 -10 -10 -3 -10 6 0 15 5 18 10 8 12 4 12 -15 0z"/><path d="M1980 30 c0 -5 5 -10 11 -10 5 0 7 5 4 10 -3 6 -8 10 -11 10 -2 0 -4 -4 -4 -10z"/><path d="M2747 29 c7 -7 15 -10 18 -7 3 3 -2 9 -12 12 -14 6 -15 5 -6 -5z"/><path d="M738 23 c7 -3 16 -2 19 1 4 3 -2 6 -13 5 -11 0 -14 -3 -6 -6z"/><path d="M828 23 c7 -3 16 -2 19 1 4 3 -2 6 -13 5 -11 0 -14 -3 -6 -6z"/><path d="M1038 23 c7 -3 16 -2 19 1 4 3 -2 6 -13 5 -11 0 -14 -3 -6 -6z"/><path d="M1228 23 c7 -3 16 -2 19 1 4 3 -2 6 -13 5 -11 0 -14 -3 -6 -6z"/><path d="M1438 23 c7 -3 16 -2 19 1 4 3 -2 6 -13 5 -11 0 -14 -3 -6 -6z"/><path d="M1573 23 c9 -2 25 -2 35 0 9 3 1 5 -18 5 -19 0 -27 -2 -17 -5z"/><path d="M1698 23 c6 -2 18 -2 25 0 6 3 1 5 -13 5 -14 0 -19 -2 -12 -5z"/><path d="M1928 23 c6 -2 18 -2 25 0 6 3 1 5 -13 5 -14 0 -19 -2 -12 -5z"/><path d="M2308 23 c7 -3 16 -2 19 1 4 3 -2 6 -13 5 -11 0 -14 -3 -6 -6z"/><path d="M2523 23 c9 -2 23 -2 30 0 6 3 -1 5 -18 5 -16 0 -22 -2 -12 -5z"/></g><g transform="translate(0.000000,100.000000) scale(0.100000,-0.100000)" fill="#266C79" stroke="none"><path d="M1214 765 c0 -126 2 -177 3 -112 2 65 2 168 0 230 -1 62 -3 9 -3 -118z"/><path d="M2540 910 l25 -6 3 -205 c2 -205 2 -206 -20 -217 -19 -9 -10 -10 47 -10 61 1 64 2 25 7 l-45 6 0 210 0 210 35 6 c25 4 16 6 -30 6 -38 0 -55 -3 -40 -7z"/><path d="M2818 909 c29 -5 68 -16 88 -24 19 -8 32 -10 29 -5 -9 14 -104 40 -139 39 -21 -1 -15 -4 22 -10z"/><path d="M1746 895 c-9 -26 -7 -32 5 -12 6 10 9 21 6 23 -2 3 -7 -2 -11 -11z"/><path d="M2678 903 c12 -2 32 -2 45 0 12 2 2 4 -23 4 -25 0 -35 -2 -22 -4z"/><path d="M2630 707 c0 -190 4 -217 34 -217 5 0 2 6 -8 13 -15 11 -17 32 -14 205 2 105 0 192 -4 192 -5 0 -8 -87 -8 -193z"/><path d="M2768 893 c6 -2 18 -2 25 0 6 3 1 5 -13 5 -14 0 -19 -2 -12 -5z"/><path d="M1791 885 c0 -5 6 -21 14 -35 8 -14 14 -20 14 -15 0 6 -6 21 -14 35 -8 14 -14 21 -14 15z"/><path d="M2250 885 c0 -5 5 -17 10 -25 5 -8 10 -10 10 -5 0 6 -5 17 -10 25 -5 8 -10 11 -10 5z"/><path d="M2970 845 c13 -14 26 -25 28 -25 3 0 -5 11 -18 25 -13 14 -26 25 -28 25 -3 0 5 -11 18 -25z"/><path d="M1726 845 c-9 -26 -7 -32 5 -12 6 10 9 21 6 23 -2 3 -7 -2 -11 -11z"/><path d="M2880 857 c0 -2 15 -16 33 -33 l32 -29 -29 33 c-28 30 -36 37 -36 29z"/><path d="M2199 813 c-21 -52 -49 -136 -49 -145 0 -4 32 -8 70 -8 60 0 70 2 69 18 0 10 -3 12 -6 5 -4 -12 -123 -20 -123 -9 0 17 55 152 64 158 8 6 7 8 -2 8 -7 0 -17 -12 -23 -27z"/><path d="M1770 816 c0 -3 11 -34 25 -68 14 -34 25 -65 25 -70 0 -4 -27 -8 -61 -8 -58 0 -60 1 -54 23 5 17 4 19 -4 7 -23 -33 -13 -40 59 -40 52 0 70 4 70 13 0 8 -12 42 -26 78 -25 63 -34 79 -34 65z"/><path d="M1821 815 c0 -5 6 -21 14 -35 8 -14 14 -20 14 -15 0 6 -6 21 -14 35 -8 14 -14 21 -14 15z"/><path d="M2281 815 c0 -5 6 -21 14 -35 8 -14 14 -20 14 -15 0 6 -6 21 -14 35 -8 14 -14 21 -14 15z"/><path d="M1696 775 c-9 -26 -7 -32 5 -12 6 10 9 21 6 23 -2 3 -7 -2 -11 -11z"/><path d="M1726 775 c-9 -26 -7 -32 5 -12 6 10 9 21 6 23 -2 3 -7 -2 -11 -11z"/><path d="M2156 775 c-9 -26 -7 -32 5 -12 6 10 9 21 6 23 -2 3 -7 -2 -11 -11z"/><path d="M2240 785 c0 -5 5 -17 10 -25 5 -8 10 -10 10 -5 0 6 -5 17 -10 25 -5 8 -10 11 -10 5z"/><path d="M2946 777 c3 -10 9 -15 12 -12 3 3 0 11 -7 18 -10 9 -11 8 -5 -6z"/><path d="M3021 754 c0 -11 3 -14 6 -6 3 7 2 16 -1 19 -3 4 -6 -2 -5 -13z"/><path d="M2310 745 c0 -5 5 -17 10 -25 5 -8 10 -10 10 -5 0 6 -5 17 -10 25 -5 8 -10 11 -10 5z"/><path d="M1676 725 c-9 -26 -7 -32 5 -12 6 10 9 21 6 23 -2 3 -7 -2 -11 -11z"/><path d="M1860 725 c0 -5 5 -17 10 -25 5 -8 10 -10 10 -5 0 6 -5 17 -10 25 -5 8 -10 11 -10 5z"/><path d="M2972 680 c0 -14 2 -19 5 -12 2 6 2 18 0 25 -3 6 -5 1 -5 -13z"/><path d="M2106 655 c-9 -26 -7 -32 5 -12 6 10 9 21 6 23 -2 3 -7 -2 -11 -11z"/><path d="M1891 655 c0 -5 6 -21 14 -35 8 -14 14 -20 14 -15 0 6 -6 21 -14 35 -8 14 -14 21 -14 15z"/><path d="M2350 655 c0 -5 5 -17 10 -25 5 -8 10 -10 10 -5 0 6 -5 17 -10 25 -5 8 -10 11 -10 5z"/><path d="M1758 641 l83 -6 30 -70 c16 -38 29 -75 29 -82 0 -10 28 -13 118 -12 78 0 110 3 95 9 -24 10 -23 17 13 113 l19 48 82 -3 c45 -2 78 1 74 5 -4 4 -43 7 -86 5 l-77 -3 -29 -73 c-16 -40 -27 -78 -24 -83 4 -5 -8 -9 -25 -9 l-31 0 20 26 c12 15 21 32 21 38 -1 6 -7 -1 -16 -16 -33 -61 -75 -53 -109 21 -10 23 -20 39 -22 37 -6 -5 25 -66 45 -88 14 -17 13 -18 -19 -18 -33 0 -35 2 -63 73 -16 39 -34 78 -39 85 -6 8 -36 11 -91 10 l-81 -2 83 -5z"/><path d="M2961 624 c0 -11 3 -14 6 -6 3 7 2 16 -1 19 -3 4 -6 -2 -5 -13z"/><path d="M1626 605 c-9 -26 -7 -32 5 -12 6 10 9 21 6 23 -2 3 -7 -2 -11 -11z"/><path d="M2086 605 c-9 -26 -7 -32 5 -12 6 10 9 21 6 23 -2 3 -7 -2 -11 -11z"/><path d="M1291 584 c-1 -14 -11 -25 -33 -32 -33 -11 -33 -12 -3 -6 38 7 48 17 42 40 -4 17 -5 16 -6 -2z"/><path d="M1338 593 c6 -2 18 -2 25 0 6 3 1 5 -13 5 -14 0 -19 -2 -12 -5z"/><path d="M2946 583 c-6 -14 -5 -15 5 -6 7 7 10 15 7 18 -3 3 -9 -2 -12 -12z"/><path d="M1398 583 c20 -8 14 -25 -25 -68 l-38 -40 44 42 c29 27 42 46 38 57 -4 9 -12 16 -19 15 -10 0 -10 -2 0 -6z"/><path d="M2974 558 l-19 -23 23 19 c12 11 22 21 22 23 0 8 -8 2 -26 -19z"/><path d="M2390 564 c0 -6 7 -19 16 -30 14 -18 14 -18 3 6 -14 31 -19 36 -19 24z"/><path d="M2905 534 c-18 -16 -22 -22 -9 -15 18 9 53 42 43 41 -2 -1 -17 -12 -34 -26z"/><path d="M2340 545 c0 -5 5 -17 10 -25 5 -8 10 -10 10 -5 0 6 -5 17 -10 25 -5 8 -10 11 -10 5z"/><path d="M1631 508 c-1 -24 -5 -28 -33 -28 l-31 0 19 23 c19 22 19 22 -1 5 -11 -9 -32 -21 -45 -27 -20 -8 -7 -10 55 -9 44 0 72 2 63 5 -9 2 -19 16 -21 31 l-4 27 -2 -27z"/><path d="M1242 503 c-24 -8 -41 -17 -39 -19 4 -5 97 26 97 32 0 6 -11 4 -58 -13z"/><path d="M1316 507 c3 -10 9 -15 12 -12 3 3 0 11 -7 18 -10 9 -11 8 -5 -6z"/><path d="M2429 498 c12 -16 10 -18 -22 -18 -19 0 -38 6 -40 13 -3 7 -6 5 -6 -5 -1 -16 8 -18 67 -17 54 0 62 2 43 10 -14 5 -32 15 -40 22 -14 11 -14 10 -2 -5z"/><path d="M2835 500 c-13 -6 -15 -9 -5 -9 8 0 22 4 30 9 18 12 2 12 -25 0z"/><path d="M2885 495 c-20 -9 -58 -12 -115 -10 l-85 4 80 -9 c78 -9 137 -1 150 21 7 11 8 11 -30 -6z"/><path d="M2718 463 c18 -2 45 -2 60 0 15 2 0 4 -33 4 -33 0 -45 -2 -27 -4z"/><path d="M1294 385 c-3 -8 -3 -18 0 -24 3 -5 1 -12 -4 -14 -6 -3 -5 -4 2 -3 7 2 12 12 10 24 -2 16 3 22 25 25 l28 4 -28 2 c-16 0 -30 -5 -33 -14z"/><path d="M1200 380 c-9 -6 -10 -10 -3 -10 6 0 15 5 18 10 8 12 4 12 -15 0z"/><path d="M1360 386 c0 -2 13 -6 29 -8 17 -2 28 -1 25 4 -5 8 -54 12 -54 4z"/><path d="M1552 367 c-12 -13 -22 -35 -22 -49 0 -32 30 -61 50 -48 15 10 14 10 -22 14 -8 0 -14 16 -15 36 l-1 35 8 -30 8 -30 1 27 c0 15 6 30 11 33 6 4 7 11 4 17 -5 7 0 9 13 6 12 -3 27 -2 34 3 10 6 4 9 -17 9 -19 0 -39 -9 -52 -23z"/><path d="M1722 374 c-12 -8 -22 -20 -22 -26 0 -7 6 -4 13 7 9 11 19 15 27 10 8 -5 11 -4 7 2 -4 5 6 10 23 10 16 0 27 -4 24 -9 -3 -4 1 -6 8 -3 9 4 14 -6 15 -29 2 -26 -3 -39 -17 -49 -19 -13 -19 -15 -4 -21 10 -4 22 -2 28 4 8 8 5 9 -9 4 -18 -7 -18 -6 -6 9 7 9 16 15 20 13 3 -2 6 12 6 31 0 57 -62 83 -113 47z"/><path d="M1892 323 l1 -68 6 64 c5 56 8 62 20 48 9 -11 10 -17 2 -17 -6 0 0 -13 14 -28 14 -16 32 -37 40 -48 13 -16 14 -16 9 -1 -3 9 -1 17 5 17 6 0 12 20 13 48 1 44 2 43 8 -18 l7 -65 -1 64 c-1 42 -5 66 -13 69 -9 2 -13 -10 -13 -45 l0 -48 -41 48 c-22 26 -45 47 -50 47 -5 0 -8 -30 -7 -67z m68 -5 c15 -21 17 -28 6 -19 -16 13 -41 51 -33 51 2 0 14 -15 27 -32z"/><path d="M2092 383 c0 -5 -2 -16 -7 -26 -6 -15 -10 -16 -16 -5 -5 8 -9 9 -9 2 0 -6 8 -18 17 -25 10 -9 14 -9 10 -2 -5 7 1 21 13 33 20 20 46 28 35 10 -3 -5 1 -10 9 -10 21 0 21 16 0 24 -22 8 -54 8 -52 -1z"/><path d="M2216 383 c-3 -3 -5 -27 -4 -52 l1 -46 7 50 8 50 -1 -60 c-1 -33 2 -59 6 -58 4 1 13 4 20 6 9 4 9 6 0 6 -9 1 -13 18 -13 50 0 47 -9 68 -24 54z"/><path d="M2318 333 c2 -32 -1 -53 -5 -47 -6 9 -11 8 -20 -1 -16 -17 9 -29 26 -12 12 12 15 117 4 117 -5 0 -7 -26 -5 -57z"/><path d="M2381 323 c2 -70 6 -63 11 20 2 26 0 47 -4 47 -5 0 -7 -30 -7 -67z"/><path d="M2477 383 c-3 -5 16 -7 41 -5 80 5 90 9 25 11 -34 0 -64 -2 -66 -6z"/><path d="M2644 377 c-3 -8 -3 -39 -1 -68 l3 -54 4 65 3 65 7 -65 7 -65 1 62 c2 58 -11 92 -24 60z"/><path d="M2741 370 c20 -16 21 -19 7 -20 -10 0 -18 5 -18 12 0 6 -2 9 -3 7 -2 -2 -1 -29 3 -59 l7 -55 2 44 1 44 23 -21 c13 -12 27 -19 32 -15 4 5 5 0 2 -9 -3 -10 1 -22 11 -30 15 -12 16 -11 3 5 -10 12 -10 17 -1 17 6 0 -7 23 -30 50 -23 28 -46 50 -52 50 -6 0 0 -9 13 -20z m39 -45 c14 -19 14 -19 -2 -6 -10 7 -18 18 -18 24 0 6 1 8 3 6 1 -2 9 -13 17 -24z"/><path d="M2828 343 c5 -83 9 -90 11 -20 0 37 -2 67 -7 67 -4 0 -6 -21 -4 -47z"/><path d="M2914 375 c-19 -15 -19 -15 1 -8 18 6 19 5 5 -13 -14 -18 -14 -18 2 -5 10 7 16 17 13 20 -2 4 9 8 25 8 16 0 27 -4 24 -9 -3 -4 3 -5 12 -1 13 5 15 3 9 -7 -6 -9 -4 -11 5 -5 10 6 9 11 -5 22 -25 17 -66 17 -91 -2z"/><path d="M1632 371 c-11 -6 -10 -10 4 -15 20 -8 32 0 18 14 -5 5 -15 5 -22 1z"/><path d="M2532 353 c5 -7 8 -31 6 -53 -2 -22 0 -40 3 -40 4 0 9 24 11 54 2 46 0 54 -14 53 -13 -1 -14 -4 -6 -14z"/><path d="M1378 323 c-30 -29 -40 -35 -50 -25 -7 7 -17 12 -22 12 -6 0 0 -7 13 -16 22 -16 24 -15 64 25 23 22 39 41 37 41 -3 0 -22 -17 -42 -37z"/><path d="M1913 295 c0 -22 2 -30 4 -17 2 12 2 30 0 40 -3 9 -5 -1 -4 -23z"/><path d="M2116 321 c-19 -7 -19 -8 3 -14 16 -4 22 -11 18 -21 -3 -8 -2 -18 2 -21 11 -6 36 23 27 32 -3 3 -6 0 -6 -7 0 -9 -5 -7 -14 5 -8 11 -12 23 -10 27 6 9 5 9 -20 -1z"/><path d="M2968 308 c5 -5 16 -8 23 -6 8 3 3 7 -10 11 -17 4 -21 3 -13 -5z"/><path d="M3011 298 c-1 -21 -5 -26 -18 -22 -15 5 -16 4 -3 -5 20 -14 33 1 27 30 -4 22 -4 22 -6 -3z"/><path d="M1700 294 c0 -19 28 -36 44 -27 13 7 12 11 -7 22 -20 13 -21 13 -8 -2 8 -10 9 -17 3 -17 -6 0 -16 8 -21 18 -6 9 -11 12 -11 6z"/><path d="M2920 285 c14 -17 13 -18 -5 -11 -15 5 -17 4 -8 -4 7 -8 17 -9 27 -3 13 7 12 10 -7 22 -21 13 -21 13 -7 -4z"/><path d="M1632 281 c-11 -7 -11 -9 1 -14 16 -6 27 0 27 15 0 10 -11 10 -28 -1z"/><path d="M2060 282 c0 -15 11 -21 27 -15 12 5 12 7 1 14 -17 11 -28 11 -28 1z"/><path d="M2400 276 c0 -2 18 -6 39 -8 22 -2 37 0 35 4 -5 8 -74 11 -74 4z"/><path d="M1588 253 c6 -2 18 -2 25 0 6 3 1 5 -13 5 -14 0 -19 -2 -12 -5z"/><path d="M1758 253 c6 -2 18 -2 25 0 6 3 1 5 -13 5 -14 0 -19 -2 -12 -5z"/><path d="M2098 253 c6 -2 18 -2 25 0 6 3 1 5 -13 5 -14 0 -19 -2 -12 -5z"/><path d="M2258 253 c6 -2 18 -2 25 0 6 3 1 5 -13 5 -14 0 -19 -2 -12 -5z"/><path d="M2953 253 c9 -2 23 -2 30 0 6 3 -1 5 -18 5 -16 0 -22 -2 -12 -5z"/><path d="M631 92 c-24 -46 -26 -62 -10 -62 6 0 9 6 6 13 -3 8 -1 20 5 28 8 11 9 10 4 -4 -4 -13 0 -17 17 -17 18 0 22 6 22 30 0 16 -5 34 -12 41 -9 9 -16 2 -32 -29z"/><path d="M775 118 c5 -13 0 -17 -21 -20 -55 -6 -60 -68 -5 -68 22 0 29 4 25 14 -4 11 -12 12 -28 6 -18 -6 -22 -4 -22 11 0 13 7 19 22 19 30 0 51 27 35 43 -10 9 -11 8 -6 -5z"/><path d="M854 115 c-4 -8 -12 -15 -20 -15 -8 0 -14 -5 -14 -11 0 -5 -4 -8 -8 -5 -4 2 -7 -8 -6 -22 0 -23 5 -27 35 -29 l34 -2 -27 12 c-30 12 -38 37 -13 37 8 0 15 -7 15 -15 0 -8 5 -15 10 -15 6 0 9 18 8 40 -3 44 -6 48 -14 25z"/><path d="M1116 122 c-2 -4 1 -18 8 -31 8 -15 16 -20 20 -13 4 7 2 21 -4 32 -12 22 -16 24 -24 12z"/><path d="M1179 96 c-7 -19 -16 -33 -20 -30 -4 2 -10 0 -14 -6 -3 -5 2 -10 12 -10 15 0 16 -2 3 -10 -10 -6 -11 -10 -3 -10 12 0 53 69 53 90 0 23 -20 8 -31 -24z"/><path d="M1291 81 c2 -28 6 -51 11 -51 12 0 10 88 -3 95 -6 5 -9 -10 -8 -44z"/><path d="M1567 123 c-4 -3 -7 -26 -7 -50 l0 -44 37 3 c22 2 38 9 40 18 3 9 1 11 -4 5 -4 -5 -19 -10 -33 -10 -22 0 -25 4 -25 36 -1 29 2 35 16 32 9 -3 20 0 23 6 8 12 -36 16 -47 4z"/><path d="M1757 123 c-9 -9 -9 -81 1 -86 4 -3 7 17 7 44 0 27 0 49 -1 49 0 0 -4 -3 -7 -7z"/><path d="M2501 121 c-9 -6 -10 -11 -2 -15 6 -4 11 -3 11 3 0 7 8 7 26 0 29 -10 40 -7 29 10 -7 13 -45 14 -64 2z"/><path d="M2919 110 c4 -14 5 -37 0 -52 -4 -16 -4 -28 2 -28 5 0 9 11 9 24 0 16 7 26 23 31 21 7 21 7 2 12 -11 3 -25 13 -32 22 -11 14 -12 12 -4 -9z"/><path d="M1626 111 c-4 -5 -2 -12 3 -15 5 -4 12 -2 15 3 4 5 2 12 -3 15 -5 4 -12 2 -15 -3z"/><path d="M2850 110 c0 -5 -6 -10 -14 -10 -8 0 -18 -10 -22 -22 l-7 -23 -9 25 c-9 23 -10 24 -22 8 -16 -22 -26 -23 -26 -3 0 8 -4 15 -10 15 -13 0 -13 -12 0 -44 5 -14 15 -26 22 -26 10 0 9 3 -1 9 -11 7 -10 10 5 13 10 2 25 -3 31 -12 11 -13 14 -13 23 0 5 8 8 20 6 27 -3 6 1 14 9 17 9 3 15 -4 17 -22 2 -19 10 -28 26 -30 12 -2 22 2 22 8 0 8 -8 10 -21 7 -19 -5 -21 -2 -17 34 2 21 0 39 -4 39 -5 0 -8 -4 -8 -10z"/><path d="M895 65 c0 -18 3 -31 8 -28 4 2 7 15 7 28 0 13 -3 26 -7 28 -5 3 -8 -10 -8 -28z"/><path d="M920 66 c0 -20 5 -36 11 -36 7 0 9 11 6 29 -5 25 -3 28 13 24 13 -3 20 -14 20 -29 0 -13 3 -24 8 -24 4 0 7 15 6 32 -1 29 -4 33 -32 36 -31 3 -32 2 -32 -32z"/><path d="M1010 85 c-10 -12 -11 -21 -3 -33 11 -19 53 -29 53 -13 0 6 -12 11 -26 11 -36 0 -29 33 9 34 24 2 27 -2 27 -31 0 -30 -3 -33 -30 -33 -16 0 -30 -4 -30 -10 0 -15 46 -12 59 4 7 8 11 30 9 48 -2 27 -8 34 -29 36 -15 2 -31 -4 -39 -13z"/><path d="M1215 90 c-5 -9 -1 -10 14 -5 12 4 21 2 21 -4 0 -6 -8 -11 -18 -11 -11 0 -18 -7 -18 -20 0 -15 7 -20 27 -20 23 0 26 4 25 33 -1 25 -6 33 -23 35 -11 2 -24 -2 -28 -8z m35 -34 c0 -3 -4 -8 -10 -11 -5 -3 -10 -1 -10 4 0 6 5 11 10 11 6 0 10 -2 10 -4z"/><path d="M1322 68 c3 -29 7 -33 36 -36 32 -3 33 -2 30 32 -1 20 -6 36 -11 36 -5 0 -7 -12 -5 -27 3 -23 0 -28 -17 -28 -17 0 -20 5 -17 28 3 16 0 27 -7 27 -8 0 -11 -12 -9 -32z"/><path d="M1409 84 c-9 -11 -10 -20 -2 -32 12 -20 63 -29 63 -12 0 7 -7 10 -15 7 -8 -4 -17 -2 -20 3 -4 6 5 10 19 10 28 0 33 9 14 28 -17 17 -43 15 -59 -4z m46 -4 c3 -5 -1 -10 -10 -10 -9 0 -13 5 -10 10 3 6 8 10 10 10 2 0 7 -4 10 -10z m-38 -22 c-3 -8 -6 -5 -6 6 -1 11 2 17 5 13 3 -3 4 -12 1 -19z"/><path d="M1690 90 c0 -6 -4 -9 -8 -6 -4 2 -7 -8 -6 -22 0 -23 6 -28 32 -30 18 -2 32 1 32 7 0 5 -14 8 -30 6 -17 -2 -28 0 -25 6 4 5 17 9 30 9 16 0 22 5 21 18 -3 19 -46 30 -46 12z m34 -12 c-3 -4 -12 -8 -20 -8 -8 0 -13 4 -10 8 3 5 12 9 20 9 8 0 13 -4 10 -9z"/><path d="M1794 65 c1 -19 4 -35 9 -35 10 0 9 58 -1 64 -5 3 -8 -11 -8 -29z"/><path d="M1820 92 c0 -21 23 -62 35 -62 6 0 17 11 23 25 15 32 15 48 2 40 -6 -4 -8 -10 -5 -15 3 -4 -2 -11 -11 -14 -8 -3 -12 -11 -8 -17 4 -8 3 -9 -4 -5 -6 4 -9 13 -6 20 3 7 -2 19 -11 26 -9 8 -15 8 -15 2z"/><path d="M1912 91 c-8 -4 -12 -19 -10 -32 2 -19 10 -25 36 -27 19 -2 32 1 32 8 0 7 -8 9 -19 5 -11 -3 -22 -1 -26 5 -4 6 4 10 20 10 20 0 26 4 23 18 -4 19 -36 27 -56 13z m33 -11 c3 -5 -1 -10 -10 -10 -9 0 -13 5 -10 10 3 6 8 10 10 10 2 0 7 -4 10 -10z"/><path d="M1998 91 c11 -6 10 -11 -3 -24 -9 -9 -13 -21 -10 -27 11 -18 25 -10 25 15 0 14 5 25 10 25 6 0 10 5 10 10 0 6 -10 10 -22 10 -17 0 -19 -3 -10 -9z"/><path d="M2047 93 c-10 -9 -9 -63 1 -63 5 0 9 16 9 35 0 38 0 38 -10 28z"/><path d="M2080 66 c0 -20 5 -36 11 -36 7 0 10 12 7 28 -3 22 0 27 17 27 17 0 20 -5 17 -27 -3 -17 0 -28 7 -28 8 0 11 12 9 33 -3 28 -7 32 -35 35 -32 3 -33 2 -33 -32z"/><path d="M2170 85 c-17 -20 -9 -49 15 -53 11 -2 24 -7 28 -12 5 -4 -3 -5 -17 -3 -15 3 -26 1 -26 -6 0 -11 42 -16 52 -6 3 3 3 16 1 30 -4 20 -9 22 -27 15 -18 -6 -22 -4 -22 11 0 13 7 19 23 19 12 0 25 5 28 10 10 16 -41 12 -55 -5z"/><path d="M2285 91 c-3 -5 -1 -12 4 -15 5 -4 13 -2 16 4 5 8 11 8 19 1 14 -12 29 -4 20 10 -7 12 -51 11 -59 0z"/><path d="M2390 97 c0 -1 -4 -17 -9 -35 -6 -20 -6 -30 0 -27 5 4 9 15 9 26 0 10 6 19 14 19 8 0 18 5 21 10 3 6 -3 10 -14 10 -12 0 -21 -1 -21 -3z"/><path d="M2483 75 c0 -33 19 -47 59 -43 27 2 34 8 36 28 2 19 1 22 -7 10 -5 -8 -8 -17 -6 -20 2 -4 -10 -4 -26 -2 -20 3 -33 12 -39 28 -12 31 -17 30 -17 -1z"/><path d="M2590 65 c0 -19 4 -35 9 -35 5 0 8 15 6 32 -2 18 -1 28 2 21 2 -7 10 -10 16 -7 7 2 17 -6 22 -18 13 -30 72 -34 67 -4 -2 10 1 15 7 11 7 -3 8 0 5 9 -3 9 -10 13 -15 10 -5 -3 -9 0 -9 5 0 15 -33 14 -48 -1 -9 -9 -12 -9 -12 0 0 7 -11 12 -25 12 -22 0 -25 -4 -25 -35z m108 2 c3 -13 -3 -16 -21 -15 -21 2 -27 15 -18 35 5 9 37 -8 39 -20z"/><path d="M2870 90 c0 -5 5 -10 10 -10 6 0 10 5 10 10 0 6 -4 10 -10 10 -5 0 -10 -4 -10 -10z"/><path d="M1651 74 c0 -11 3 -14 6 -6 3 7 2 16 -1 19 -3 4 -6 -2 -5 -13z"/><path d="M683 56 c0 -14 3 -26 8 -26 11 0 11 21 0 39 -6 9 -8 5 -8 -13z"/><path d="M2428 55 c-3 -14 -1 -25 3 -25 5 0 9 11 9 25 0 14 -2 25 -4 25 -2 0 -6 -11 -8 -25z"/><path d="M2540 70 c0 -5 5 -10 10 -10 6 0 10 5 10 10 0 6 -4 10 -10 10 -5 0 -10 -4 -10 -10z"/><path d="M2960 55 c0 -14 5 -25 10 -25 6 0 10 11 10 25 0 14 -4 25 -10 25 -5 0 -10 -11 -10 -25z"/><path d="M2270 64 c0 -19 27 -36 52 -32 32 4 24 22 -9 22 -16 0 -31 4 -35 10 -5 8 -8 8 -8 0z"/><path d="M1490 40 c0 -5 5 -10 10 -10 6 0 10 5 10 10 0 6 -4 10 -10 10 -5 0 -10 -4 -10 -10z"/><path d="M3000 40 c0 -5 5 -10 10 -10 6 0 10 5 10 10 0 6 -4 10 -10 10 -5 0 -10 -4 -10 -10z"/></g></svg>