<svg version="1.0" xmlns="http://www.w3.org/2000/svg" width="100.000000" height="100.000000" viewBox="0 0 100.000000 100.000000" preserveAspectRatio="xMidYMid meet"><rect x="0" y="0" width="11" height="11" fill="rgb(254,176,20)" /><rect x="9" y="0" width="11" height="11" fill="rgb(254,176,20)" /><rect x="19" y="0" width="11" height="11" fill="rgb(254,176,20)" /><rect x="29" y="0" width="11" height="11" fill="rgb(254,176,20)" /><rect x="39" y="0" width="11" height="11" fill="rgb(254,176,20)" /><rect x="49" y="0" width="11" height="11" fill="rgb(254,176,20)" /><rect x="59" y="0" width="11" height="11" fill="rgb(254,176,20)" /><rect x="69" y="0" width="11" height="11" fill="rgb(254,176,20)" /><rect x="79" y="0" width="11" height="11" fill="rgb(254,176,20)" /><rect x="89" y="0" width="11" height="11" fill="rgb(254,176,20)" /><rect x="0" y="9" width="11" height="11" fill="rgb(254,176,20)" /><rect x="9" y="9" width="11" height="11" fill="rgb(254,176,20)" /><rect x="19" y="9" width="11" height="11" fill="rgb(254,176,20)" /><rect x="29" y="9" width="11" height="11" fill="rgb(254,176,20)" /><rect x="39" y="9" width="11" height="11" fill="rgb(254,176,20)" /><rect x="49" y="9" width="11" height="11" fill="rgb(254,176,20)" /><rect x="59" y="9" width="11" height="11" fill="rgb(254,176,20)" /><rect x="69" y="9" width="11" height="11" fill="rgb(254,176,20)" /><rect x="79" y="9" width="11" height="11" fill="rgb(254,176,20)" /><rect x="89" y="9" width="11" height="11" fill="rgb(254,176,20)" /><rect x="0" y="19" width="11" height="11" fill="rgb(254,176,20)" /><rect x="9" y="19" width="11" height="11" fill="rgb(254,176,20)" /><rect x="19" y="19" width="11" height="11" fill="rgb(254,176,20)" /><rect x="29" y="19" width="11" height="11" fill="rgb(254,176,20)" /><rect x="39" y="19" width="11" height="11" fill="rgb(254,176,20)" /><rect x="49" y="19" width="11" height="11" fill="rgb(254,176,20)" /><rect x="59" y="19" width="11" height="11" fill="rgb(254,176,20)" /><rect x="69" y="19" width="11" height="11" fill="rgb(254,176,20)" /><rect x="79" y="19" width="11" height="11" fill="rgb(254,176,20)" /><rect x="89" y="19" width="11" height="11" fill="rgb(254,176,20)" /><rect x="0" y="29" width="11" height="11" fill="rgb(254,176,20)" /><rect x="9" y="29" width="11" height="11" fill="rgb(254,176,20)" /><rect x="19" y="29" width="11" height="11" fill="rgb(254,176,20)" /><rect x="29" y="29" width="11" height="11" fill="rgb(254,176,20)" /><rect x="39" y="29" width="11" height="11" fill="rgb(254,176,20)" /><rect x="49" y="29" width="11" height="11" fill="rgb(254,176,20)" /><rect x="59" y="29" width="11" height="11" fill="rgb(254,176,20)" /><rect x="69" y="29" width="11" height="11" fill="rgb(254,176,20)" /><rect x="79" y="29" width="11" height="11" fill="rgb(254,176,20)" /><rect x="89" y="29" width="11" height="11" fill="rgb(254,176,20)" /><rect x="0" y="39" width="11" height="11" fill="rgb(254,176,20)" /><rect x="9" y="39" width="11" height="11" fill="rgb(254,176,20)" /><rect x="19" y="39" width="11" height="11" fill="rgb(254,176,20)" /><rect x="29" y="39" width="11" height="11" fill="rgb(254,176,20)" /><rect x="39" y="39" width="11" height="11" fill="rgb(254,176,20)" /><rect x="49" y="39" width="11" height="11" fill="rgb(254,176,20)" /><rect x="59" y="39" width="11" height="11" fill="rgb(254,176,20)" /><rect x="69" y="39" width="11" height="11" fill="rgb(254,176,20)" /><rect x="79" y="39" width="11" height="11" fill="rgb(254,176,20)" /><rect x="89" y="39" width="11" height="11" fill="rgb(254,176,20)" /><rect x="0" y="49" width="11" height="11" fill="rgb(254,176,20)" /><rect x="9" y="49" width="11" height="11" fill="rgb(254,176,20)" /><rect x="19" y="49" width="11" height="11" fill="rgb(254,176,20)" /><rect x="29" y="49" width="11" height="11" fill="rgb(254,176,20)" /><rect x="39" y="49" width="11" height="11" fill="rgb(254,176,20)" /><rect x="49" y="49" width="11" height="11" fill="rgb(254,176,20)" /><rect x="59" y="49" width="11" height="11" fill="rgb(254,176,20)" /><rect x="69" y="49" width="11" height="11" fill="rgb(254,176,20)" /><rect x="79" y="49" width="11" height="11" fill="rgb(254,176,20)" /><rect x="89" y="49" width="11" height="11" fill="rgb(254,176,20)" /><rect x="0" y="59" width="11" height="11" fill="rgb(254,176,20)" /><rect x="9" y="59" width="11" height="11" fill="rgb(254,176,20)" /><rect x="19" y="59" width="11" height="11" fill="rgb(254,176,20)" /><rect x="29" y="59" width="11" height="11" fill="rgb(254,176,20)" /><rect x="39" y="59" width="11" height="11" fill="rgb(254,176,20)" /><rect x="49" y="59" width="11" height="11" fill="rgb(254,176,20)" /><rect x="59" y="59" width="11" height="11" fill="rgb(254,176,20)" /><rect x="69" y="59" width="11" height="11" fill="rgb(254,176,20)" /><rect x="79" y="59" width="11" height="11" fill="rgb(254,176,20)" /><rect x="89" y="59" width="11" height="11" fill="rgb(254,176,20)" /><rect x="0" y="69" width="11" height="11" fill="rgb(254,176,20)" /><rect x="9" y="69" width="11" height="11" fill="rgb(254,176,20)" /><rect x="19" y="69" width="11" height="11" fill="rgb(254,195,78)" /><rect x="29" y="69" width="11" height="11" fill="rgb(254,178,26)" /><rect x="39" y="69" width="11" height="11" fill="rgb(254,180,31)" /><rect x="49" y="69" width="11" height="11" fill="rgb(254,178,26)" /><rect x="59" y="69" width="11" height="11" fill="rgb(254,176,21)" /><rect x="69" y="69" width="11" height="11" fill="rgb(254,196,80)" /><rect x="79" y="69" width="11" height="11" fill="rgb(254,176,20)" /><rect x="89" y="69" width="11" height="11" fill="rgb(254,176,20)" /><rect x="0" y="79" width="11" height="11" fill="rgb(254,176,20)" /><rect x="9" y="79" width="11" height="11" fill="rgb(254,186,50)" /><rect x="19" y="79" width="11" height="11" fill="rgb(254,210,121)" /><rect x="29" y="79" width="11" height="11" fill="rgb(254,201,95)" /><rect x="39" y="79" width="11" height="11" fill="rgb(254,188,56)" /><rect x="49" y="79" width="11" height="11" fill="rgb(254,190,63)" /><rect x="59" y="79" width="11" height="11" fill="rgb(254,196,79)" /><rect x="69" y="79" width="11" height="11" fill="rgb(254,211,124)" /><rect x="79" y="79" width="11" height="11" fill="rgb(254,190,63)" /><rect x="89" y="79" width="11" height="11" fill="rgb(254,176,20)" /><rect x="0" y="89" width="11" height="11" fill="rgb(254,176,20)" /><rect x="9" y="89" width="11" height="11" fill="rgb(254,182,39)" /><rect x="19" y="89" width="11" height="11" fill="rgb(254,176,20)" /><rect x="29" y="89" width="11" height="11" fill="rgb(254,182,39)" /><rect x="39" y="89" width="11" height="11" fill="rgb(254,176,20)" /><rect x="49" y="89" width="11" height="11" fill="rgb(254,176,20)" /><rect x="59" y="89" width="11" height="11" fill="rgb(254,182,39)" /><rect x="69" y="89" width="11" height="11" fill="rgb(254,176,20)" /><rect x="79" y="89" width="11" height="11" fill="rgb(254,182,39)" /><rect x="89" y="89" width="11" height="11" fill="rgb(254,176,20)" /><g transform="translate(0.000000,100.000000) scale(0.100000,-0.100000)" fill="#FFB219" stroke="none"><path d="M0 500 l0 -500 500 0 500 0 0 500 0 500 -500 0 -500 0 0 -500z m331 -321 c50 -78 57 -95 42 -98 -10 -2 -26 8 -38 23 -17 22 -29 26 -72 26 -43 0 -53 -4 -67 -25 -14 -21 -56 -36 -56 -21 0 10 123 196 127 193 2 -2 31 -46 64 -98z m483 -11 c53 -83 54 -88 32 -88 -14 0 -30 10 -40 25 -14 21 -24 25 -70 25 -46 0 -54 -3 -66 -25 -9 -16 -22 -25 -38 -25 l-24 0 21 33 c12 17 41 62 64 99 49 78 41 80 121 -44z m-317 36 l33 -25 0 25 c0 15 5 26 10 26 6 0 10 -21 10 -46 l0 -46 -34 26 c-42 31 -46 32 -46 6 0 -11 -4 -20 -10 -20 -5 0 -10 18 -10 40 0 22 3 40 7 40 3 0 21 -11 40 -26z m53 -84 c0 -5 -22 -10 -50 -10 -27 0 -50 5 -50 10 0 6 23 10 50 10 28 0 50 -4 50 -10z"/><path d="M250 190 c-9 -18 -8 -20 15 -20 23 0 24 2 15 20 -6 11 -13 20 -15 20 -2 0 -9 -9 -15 -20z"/><path d="M726 194 c-9 -23 -8 -24 14 -24 23 0 26 13 6 29 -11 9 -15 8 -20 -5z"/></g><g transform="translate(0.000000,100.000000) scale(0.100000,-0.100000)" fill="#FFBF39" stroke="none"><path d="M735 170 l-30 -8 33 -1 c17 0 32 4 32 9 0 6 -1 9 -2 9 -2 -1 -16 -5 -33 -9z"/><path d="M248 163 c12 -2 30 -2 40 0 9 3 -1 5 -23 4 -22 0 -30 -2 -17 -4z"/></g><g transform="translate(0.000000,100.000000) scale(0.100000,-0.100000)" fill="#FFCC59" stroke="none"><path d="M207 133 c-3 -5 16 -7 41 -5 73 5 82 10 20 11 -31 0 -59 -2 -61 -6z"/><path d="M713 133 c15 -2 39 -2 55 0 15 2 2 4 -28 4 -30 0 -43 -2 -27 -4z"/></g><g transform="translate(0.000000,100.000000) scale(0.100000,-0.100000)" fill="#FFD885" stroke="none"><path d="M540 187 c4 -41 5 -41 8 -8 2 18 0 37 -5 42 -5 5 -6 -11 -3 -34z"/><path d="M453 185 c0 -22 2 -30 4 -17 2 12 2 30 0 40 -3 9 -5 -1 -4 -23z"/></g><g transform="translate(0.000000,100.000000) scale(0.100000,-0.100000)" fill="#FFE5A5" stroke="none"><path d="M457 123 c-3 -5 17 -8 43 -8 26 0 46 3 43 8 -2 4 -22 7 -43 7 -21 0 -41 -3 -43 -7z"/></g><g transform="translate(0.000000,100.000000) scale(0.100000,-0.100000)" fill="#FFF2CC" stroke="none"><path d="M531 208 c0 -9 -4 -25 -7 -35 -5 -14 -4 -15 5 -7 7 7 11 22 8 35 -2 13 -5 16 -6 7z"/><path d="M462 175 c0 -16 2 -22 5 -12 2 9 2 23 0 30 -3 6 -5 -1 -5 -18z"/></g><g transform="translate(0.000000,100.000000) scale(0.100000,-0.100000)" fill="#FFF8EB" stroke="none"><path d="M478 113 c12 -2 32 -2 45 0 12 2 2 4 -23 4 -25 0 -35 -2 -22 -4z"/></g><g transform="translate(0.000000,100.000000) scale(0.100000,-0.100000)" fill="#FFFFFF" stroke="none"><path d="M218 193 c-25 -38 -50 -78 -57 -90 -18 -35 5 -28 26 7 16 28 21 30 78 30 56 0 61 -2 77 -30 9 -17 22 -30 29 -30 8 0 7 7 -3 23 -8 12 -34 52 -57 90 -24 37 -44 67 -45 67 -2 0 -23 -30 -48 -67z m72 -3 l21 -30 -45 0 -45 0 17 30 c9 16 20 30 24 30 4 0 16 -13 28 -30z"/><path d="M678 170 c-31 -50 -53 -90 -48 -90 5 0 18 14 30 30 20 28 26 30 80 30 55 0 60 -2 77 -30 16 -27 33 -40 33 -24 0 7 -108 174 -112 174 -2 0 -29 -41 -60 -90z m87 20 l16 -30 -41 0 c-45 0 -46 1 -24 35 21 32 30 31 49 -5z"/></g></svg>