<svg version="1.0" xmlns="http://www.w3.org/2000/svg" width="536.000000" height="307.000000" viewBox="0 0 536.000000 307.000000" preserveAspectRatio="xMidYMid meet"><rect x="0" y="0" width="14" height="8" fill="rgb(0,112,198)" /><rect x="12" y="0" width="14" height="8" fill="rgb(0,112,198)" /><rect x="25" y="0" width="14" height="8" fill="rgb(0,112,198)" /><rect x="38" y="0" width="14" height="8" fill="rgb(0,112,198)" /><rect x="51" y="0" width="14" height="8" fill="rgb(0,112,198)" /><rect x="64" y="0" width="14" height="8" fill="rgb(0,112,198)" /><rect x="77" y="0" width="14" height="8" fill="rgb(0,112,198)" /><rect x="90" y="0" width="14" height="8" fill="rgb(0,112,198)" /><rect x="103" y="0" width="14" height="8" fill="rgb(0,112,198)" /><rect x="116" y="0" width="14" height="8" fill="rgb(0,112,198)" /><rect x="129" y="0" width="14" height="8" fill="rgb(0,112,198)" /><rect x="142" y="0" width="14" height="8" fill="rgb(0,112,198)" /><rect x="155" y="0" width="14" height="8" fill="rgb(0,112,198)" /><rect x="168" y="0" width="14" height="8" fill="rgb(0,112,198)" /><rect x="0" y="6" width="14" height="8" fill="rgb(0,112,198)" /><rect x="12" y="6" width="14" height="8" fill="rgb(0,112,198)" /><rect x="25" y="6" width="14" height="8" fill="rgb(0,112,198)" /><rect x="38" y="6" width="14" height="8" fill="rgb(0,112,198)" /><rect x="51" y="6" width="14" height="8" fill="rgb(0,112,198)" /><rect x="64" y="6" width="14" height="8" fill="rgb(0,112,198)" /><rect x="77" y="6" width="14" height="8" fill="rgb(0,112,198)" /><rect x="90" y="6" width="14" height="8" fill="rgb(0,112,198)" /><rect x="103" y="6" width="14" height="8" fill="rgb(0,112,198)" /><rect x="116" y="6" width="14" height="8" fill="rgb(0,112,198)" /><rect x="129" y="6" width="14" height="8" fill="rgb(0,112,198)" /><rect x="142" y="6" width="14" height="8" fill="rgb(0,112,198)" /><rect x="155" y="6" width="14" height="8" fill="rgb(0,112,198)" /><rect x="168" y="6" width="14" height="8" fill="rgb(0,112,198)" /><rect x="0" y="13" width="14" height="8" fill="rgb(0,112,198)" /><rect x="12" y="13" width="14" height="8" fill="rgb(0,112,198)" /><rect x="25" y="13" width="14" height="8" fill="rgb(0,112,198)" /><rect x="38" y="13" width="14" height="8" fill="rgb(0,112,198)" /><rect x="51" y="13" width="14" height="8" fill="rgb(0,112,198)" /><rect x="64" y="13" width="14" height="8" fill="rgb(0,112,198)" /><rect x="77" y="13" width="14" height="8" fill="rgb(0,112,198)" /><rect x="90" y="13" width="14" height="8" fill="rgb(0,112,198)" /><rect x="103" y="13" width="14" height="8" fill="rgb(0,112,198)" /><rect x="116" y="13" width="14" height="8" fill="rgb(0,112,198)" /><rect x="129" y="13" width="14" height="8" fill="rgb(0,112,198)" /><rect x="142" y="13" width="14" height="8" fill="rgb(10,113,194)" /><rect x="155" y="13" width="14" height="8" fill="rgb(0,112,198)" /><rect x="168" y="13" width="14" height="8" fill="rgb(0,112,198)" /><rect x="0" y="20" width="14" height="8" fill="rgb(0,112,198)" /><rect x="12" y="20" width="14" height="8" fill="rgb(0,112,198)" /><rect x="25" y="20" width="14" height="8" fill="rgb(0,112,198)" /><rect x="38" y="20" width="14" height="8" fill="rgb(0,112,198)" /><rect x="51" y="20" width="14" height="8" fill="rgb(0,112,198)" /><rect x="64" y="20" width="14" height="8" fill="rgb(0,112,198)" /><rect x="77" y="20" width="14" height="8" fill="rgb(0,112,198)" /><rect x="90" y="20" width="14" height="8" fill="rgb(0,112,198)" /><rect x="103" y="20" width="14" height="8" fill="rgb(0,112,198)" /><rect x="116" y="20" width="14" height="8" fill="rgb(3,113,197)" /><rect x="129" y="20" width="14" height="8" fill="rgb(27,117,185)" /><rect x="142" y="20" width="14" height="8" fill="rgb(12,113,193)" /><rect x="155" y="20" width="14" height="8" fill="rgb(0,112,198)" /><rect x="168" y="20" width="14" height="8" fill="rgb(0,112,198)" /><rect x="0" y="27" width="14" height="8" fill="rgb(0,112,198)" /><rect x="12" y="27" width="14" height="8" fill="rgb(0,112,198)" /><rect x="25" y="27" width="14" height="8" fill="rgb(0,112,198)" /><rect x="38" y="27" width="14" height="8" fill="rgb(0,112,198)" /><rect x="51" y="27" width="14" height="8" fill="rgb(0,112,198)" /><rect x="64" y="27" width="14" height="8" fill="rgb(0,112,198)" /><rect x="77" y="27" width="14" height="8" fill="rgb(0,112,198)" /><rect x="90" y="27" width="14" height="8" fill="rgb(0,112,198)" /><rect x="103" y="27" width="14" height="8" fill="rgb(1,112,198)" /><rect x="116" y="27" width="14" height="8" fill="rgb(54,121,172)" /><rect x="129" y="27" width="14" height="8" fill="rgb(14,115,191)" /><rect x="142" y="27" width="14" height="8" fill="rgb(0,112,198)" /><rect x="155" y="27" width="14" height="8" fill="rgb(0,112,198)" /><rect x="168" y="27" width="14" height="8" fill="rgb(0,112,198)" /><rect x="0" y="34" width="14" height="8" fill="rgb(0,112,198)" /><rect x="12" y="34" width="14" height="8" fill="rgb(0,112,198)" /><rect x="25" y="34" width="14" height="8" fill="rgb(0,112,198)" /><rect x="38" y="34" width="14" height="8" fill="rgb(0,112,198)" /><rect x="51" y="34" width="14" height="8" fill="rgb(0,112,198)" /><rect x="64" y="34" width="14" height="8" fill="rgb(0,112,198)" /><rect x="77" y="34" width="14" height="8" fill="rgb(7,115,192)" /><rect x="90" y="34" width="14" height="8" fill="rgb(0,112,198)" /><rect x="103" y="34" width="14" height="8" fill="rgb(64,121,168)" /><rect x="116" y="34" width="14" height="8" fill="rgb(11,112,194)" /><rect x="129" y="34" width="14" height="8" fill="rgb(0,112,198)" /><rect x="142" y="34" width="14" height="8" fill="rgb(0,112,198)" /><rect x="155" y="34" width="14" height="8" fill="rgb(0,112,198)" /><rect x="168" y="34" width="14" height="8" fill="rgb(0,112,198)" /><rect x="0" y="41" width="14" height="8" fill="rgb(0,112,198)" /><rect x="12" y="41" width="14" height="8" fill="rgb(0,112,198)" /><rect x="25" y="41" width="14" height="8" fill="rgb(0,112,198)" /><rect x="38" y="41" width="14" height="8" fill="rgb(0,112,198)" /><rect x="51" y="41" width="14" height="8" fill="rgb(0,112,198)" /><rect x="64" y="41" width="14" height="8" fill="rgb(2,113,197)" /><rect x="77" y="41" width="14" height="8" fill="rgb(15,118,187)" /><rect x="90" y="41" width="14" height="8" fill="rgb(59,121,170)" /><rect x="103" y="41" width="14" height="8" fill="rgb(25,116,186)" /><rect x="116" y="41" width="14" height="8" fill="rgb(0,112,198)" /><rect x="129" y="41" width="14" height="8" fill="rgb(0,112,198)" /><rect x="142" y="41" width="14" height="8" fill="rgb(18,117,188)" /><rect x="155" y="41" width="14" height="8" fill="rgb(41,123,175)" /><rect x="168" y="41" width="14" height="8" fill="rgb(19,119,185)" /><rect x="0" y="48" width="14" height="8" fill="rgb(0,112,198)" /><rect x="12" y="48" width="14" height="8" fill="rgb(0,112,198)" /><rect x="25" y="48" width="14" height="8" fill="rgb(0,112,198)" /><rect x="38" y="48" width="14" height="8" fill="rgb(0,112,198)" /><rect x="51" y="48" width="14" height="8" fill="rgb(0,112,198)" /><rect x="64" y="48" width="14" height="8" fill="rgb(19,121,183)" /><rect x="77" y="48" width="14" height="8" fill="rgb(65,124,165)" /><rect x="90" y="48" width="14" height="8" fill="rgb(74,124,162)" /><rect x="103" y="48" width="14" height="8" fill="rgb(0,112,198)" /><rect x="116" y="48" width="14" height="8" fill="rgb(4,113,196)" /><rect x="129" y="48" width="14" height="8" fill="rgb(68,130,159)" /><rect x="142" y="48" width="14" height="8" fill="rgb(51,126,168)" /><rect x="155" y="48" width="14" height="8" fill="rgb(7,115,193)" /><rect x="168" y="48" width="14" height="8" fill="rgb(0,112,198)" /><rect x="0" y="55" width="14" height="8" fill="rgb(0,112,198)" /><rect x="12" y="55" width="14" height="8" fill="rgb(0,112,198)" /><rect x="25" y="55" width="14" height="8" fill="rgb(0,112,198)" /><rect x="38" y="55" width="14" height="8" fill="rgb(0,112,198)" /><rect x="51" y="55" width="14" height="8" fill="rgb(4,114,195)" /><rect x="64" y="55" width="14" height="8" fill="rgb(31,125,175)" /><rect x="77" y="55" width="14" height="8" fill="rgb(125,134,136)" /><rect x="90" y="55" width="14" height="8" fill="rgb(1,112,198)" /><rect x="103" y="55" width="14" height="8" fill="rgb(29,119,182)" /><rect x="116" y="55" width="14" height="8" fill="rgb(109,139,138)" /><rect x="129" y="55" width="14" height="8" fill="rgb(34,120,179)" /><rect x="142" y="55" width="14" height="8" fill="rgb(0,112,198)" /><rect x="155" y="55" width="14" height="8" fill="rgb(0,112,198)" /><rect x="168" y="55" width="14" height="8" fill="rgb(0,112,198)" /><rect x="0" y="62" width="14" height="8" fill="rgb(0,112,198)" /><rect x="12" y="62" width="14" height="8" fill="rgb(0,112,198)" /><rect x="25" y="62" width="14" height="8" fill="rgb(0,112,198)" /><rect x="38" y="62" width="14" height="8" fill="rgb(0,112,198)" /><rect x="51" y="62" width="14" height="8" fill="rgb(25,123,178)" /><rect x="64" y="62" width="14" height="8" fill="rgb(71,125,163)" /><rect x="77" y="62" width="14" height="8" fill="rgb(58,121,170)" /><rect x="90" y="62" width="14" height="8" fill="rgb(23,118,185)" /><rect x="103" y="62" width="14" height="8" fill="rgb(144,145,121)" /><rect x="116" y="62" width="14" height="8" fill="rgb(16,117,188)" /><rect x="129" y="62" width="14" height="8" fill="rgb(0,112,198)" /><rect x="142" y="62" width="14" height="8" fill="rgb(0,112,198)" /><rect x="155" y="62" width="14" height="8" fill="rgb(0,112,198)" /><rect x="168" y="62" width="14" height="8" fill="rgb(0,112,198)" /><rect x="0" y="69" width="14" height="8" fill="rgb(0,112,198)" /><rect x="12" y="69" width="14" height="8" fill="rgb(0,112,198)" /><rect x="25" y="69" width="14" height="8" fill="rgb(0,112,198)" /><rect x="38" y="69" width="14" height="8" fill="rgb(0,112,198)" /><rect x="51" y="69" width="14" height="8" fill="rgb(46,131,163)" /><rect x="64" y="69" width="14" height="8" fill="rgb(91,127,154)" /><rect x="77" y="69" width="14" height="8" fill="rgb(2,112,197)" /><rect x="90" y="69" width="14" height="8" fill="rgb(118,140,135)" /><rect x="103" y="69" width="14" height="8" fill="rgb(27,120,182)" /><rect x="116" y="69" width="14" height="8" fill="rgb(0,112,198)" /><rect x="129" y="69" width="14" height="8" fill="rgb(0,112,198)" /><rect x="142" y="69" width="14" height="8" fill="rgb(0,112,198)" /><rect x="155" y="69" width="14" height="8" fill="rgb(0,112,198)" /><rect x="168" y="69" width="14" height="8" fill="rgb(0,112,198)" /><rect x="0" y="76" width="14" height="8" fill="rgb(0,112,198)" /><rect x="12" y="76" width="14" height="8" fill="rgb(0,112,198)" /><rect x="25" y="76" width="14" height="8" fill="rgb(0,112,198)" /><rect x="38" y="76" width="14" height="8" fill="rgb(24,123,178)" /><rect x="51" y="76" width="14" height="8" fill="rgb(81,130,154)" /><rect x="64" y="76" width="14" height="8" fill="rgb(51,120,174)" /><rect x="77" y="76" width="14" height="8" fill="rgb(89,134,148)" /><rect x="90" y="76" width="14" height="8" fill="rgb(45,123,174)" /><rect x="103" y="76" width="14" height="8" fill="rgb(0,112,198)" /><rect x="116" y="76" width="14" height="8" fill="rgb(1,112,198)" /><rect x="129" y="76" width="14" height="8" fill="rgb(12,111,194)" /><rect x="142" y="76" width="14" height="8" fill="rgb(3,112,197)" /><rect x="155" y="76" width="14" height="8" fill="rgb(0,112,198)" /><rect x="168" y="76" width="14" height="8" fill="rgb(0,112,198)" /><rect x="0" y="83" width="14" height="8" fill="rgb(0,112,198)" /><rect x="12" y="83" width="14" height="8" fill="rgb(0,112,198)" /><rect x="25" y="83" width="14" height="8" fill="rgb(0,112,198)" /><rect x="38" y="83" width="14" height="8" fill="rgb(53,137,154)" /><rect x="51" y="83" width="14" height="8" fill="rgb(66,124,165)" /><rect x="64" y="83" width="14" height="8" fill="rgb(26,117,185)" /><rect x="77" y="83" width="14" height="8" fill="rgb(63,128,163)" /><rect x="90" y="83" width="14" height="8" fill="rgb(2,112,198)" /><rect x="103" y="83" width="14" height="8" fill="rgb(26,110,190)" /><rect x="116" y="83" width="14" height="8" fill="rgb(20,112,191)" /><rect x="129" y="83" width="14" height="8" fill="rgb(7,111,196)" /><rect x="142" y="83" width="14" height="8" fill="rgb(0,112,198)" /><rect x="155" y="83" width="14" height="8" fill="rgb(0,112,198)" /><rect x="168" y="83" width="14" height="8" fill="rgb(0,112,198)" /><rect x="0" y="90" width="14" height="8" fill="rgb(0,112,198)" /><rect x="12" y="90" width="14" height="8" fill="rgb(0,112,198)" /><rect x="25" y="90" width="14" height="8" fill="rgb(16,119,186)" /><rect x="38" y="90" width="14" height="8" fill="rgb(69,142,145)" /><rect x="51" y="90" width="14" height="8" fill="rgb(82,126,158)" /><rect x="64" y="90" width="14" height="8" fill="rgb(91,135,146)" /><rect x="77" y="90" width="14" height="8" fill="rgb(17,114,190)" /><rect x="90" y="90" width="14" height="8" fill="rgb(58,106,180)" /><rect x="103" y="90" width="14" height="8" fill="rgb(18,111,192)" /><rect x="116" y="90" width="14" height="8" fill="rgb(0,112,198)" /><rect x="129" y="90" width="14" height="8" fill="rgb(0,112,198)" /><rect x="142" y="90" width="14" height="8" fill="rgb(1,112,198)" /><rect x="155" y="90" width="14" height="8" fill="rgb(0,112,198)" /><rect x="168" y="90" width="14" height="8" fill="rgb(0,112,198)" /><rect x="0" y="97" width="14" height="8" fill="rgb(0,112,198)" /><rect x="12" y="97" width="14" height="8" fill="rgb(0,112,198)" /><rect x="25" y="97" width="14" height="8" fill="rgb(50,136,157)" /><rect x="38" y="97" width="14" height="8" fill="rgb(78,134,150)" /><rect x="51" y="97" width="14" height="8" fill="rgb(44,121,176)" /><rect x="64" y="97" width="14" height="8" fill="rgb(44,122,175)" /><rect x="77" y="97" width="14" height="8" fill="rgb(60,106,180)" /><rect x="90" y="97" width="14" height="8" fill="rgb(14,111,194)" /><rect x="103" y="97" width="14" height="8" fill="rgb(28,110,189)" /><rect x="116" y="97" width="14" height="8" fill="rgb(42,110,184)" /><rect x="129" y="97" width="14" height="8" fill="rgb(29,111,188)" /><rect x="142" y="97" width="14" height="8" fill="rgb(22,112,190)" /><rect x="155" y="97" width="14" height="8" fill="rgb(8,113,195)" /><rect x="168" y="97" width="14" height="8" fill="rgb(0,112,198)" /><rect x="0" y="104" width="14" height="8" fill="rgb(0,112,198)" /><rect x="12" y="104" width="14" height="8" fill="rgb(0,112,198)" /><rect x="25" y="104" width="14" height="8" fill="rgb(66,143,144)" /><rect x="38" y="104" width="14" height="8" fill="rgb(38,118,180)" /><rect x="51" y="104" width="14" height="8" fill="rgb(33,122,178)" /><rect x="64" y="104" width="14" height="8" fill="rgb(41,108,186)" /><rect x="77" y="104" width="14" height="8" fill="rgb(23,109,191)" /><rect x="90" y="104" width="14" height="8" fill="rgb(43,109,185)" /><rect x="103" y="104" width="14" height="8" fill="rgb(59,106,180)" /><rect x="116" y="104" width="14" height="8" fill="rgb(2,112,197)" /><rect x="129" y="104" width="14" height="8" fill="rgb(0,112,198)" /><rect x="142" y="104" width="14" height="8" fill="rgb(0,112,198)" /><rect x="155" y="104" width="14" height="8" fill="rgb(0,112,198)" /><rect x="168" y="104" width="14" height="8" fill="rgb(0,112,198)" /><rect x="0" y="111" width="14" height="8" fill="rgb(0,112,198)" /><rect x="12" y="111" width="14" height="8" fill="rgb(0,112,198)" /><rect x="25" y="111" width="14" height="8" fill="rgb(54,138,154)" /><rect x="38" y="111" width="14" height="8" fill="rgb(36,118,181)" /><rect x="51" y="111" width="14" height="8" fill="rgb(50,121,172)" /><rect x="64" y="111" width="14" height="8" fill="rgb(26,110,190)" /><rect x="77" y="111" width="14" height="8" fill="rgb(31,110,188)" /><rect x="90" y="111" width="14" height="8" fill="rgb(33,110,188)" /><rect x="103" y="111" width="14" height="8" fill="rgb(0,112,198)" /><rect x="116" y="111" width="14" height="8" fill="rgb(0,112,198)" /><rect x="129" y="111" width="14" height="8" fill="rgb(0,112,198)" /><rect x="142" y="111" width="14" height="8" fill="rgb(0,112,198)" /><rect x="155" y="111" width="14" height="8" fill="rgb(0,112,198)" /><rect x="168" y="111" width="14" height="8" fill="rgb(0,112,198)" /><rect x="0" y="118" width="14" height="8" fill="rgb(0,112,198)" /><rect x="12" y="118" width="14" height="8" fill="rgb(9,116,191)" /><rect x="25" y="118" width="14" height="8" fill="rgb(65,140,148)" /><rect x="38" y="118" width="14" height="8" fill="rgb(47,120,175)" /><rect x="51" y="118" width="14" height="8" fill="rgb(37,111,185)" /><rect x="64" y="118" width="14" height="8" fill="rgb(11,111,195)" /><rect x="77" y="118" width="14" height="8" fill="rgb(30,109,189)" /><rect x="90" y="118" width="14" height="8" fill="rgb(0,112,198)" /><rect x="103" y="118" width="14" height="8" fill="rgb(0,112,198)" /><rect x="116" y="118" width="14" height="8" fill="rgb(0,112,198)" /><rect x="129" y="118" width="14" height="8" fill="rgb(0,112,198)" /><rect x="142" y="118" width="14" height="8" fill="rgb(0,112,198)" /><rect x="155" y="118" width="14" height="8" fill="rgb(0,112,198)" /><rect x="168" y="118" width="14" height="8" fill="rgb(0,112,198)" /><rect x="0" y="125" width="14" height="8" fill="rgb(0,112,198)" /><rect x="12" y="125" width="14" height="8" fill="rgb(23,123,180)" /><rect x="25" y="125" width="14" height="8" fill="rgb(54,134,158)" /><rect x="38" y="125" width="14" height="8" fill="rgb(21,116,187)" /><rect x="51" y="125" width="14" height="8" fill="rgb(10,112,195)" /><rect x="64" y="125" width="14" height="8" fill="rgb(16,112,193)" /><rect x="77" y="125" width="14" height="8" fill="rgb(0,112,198)" /><rect x="90" y="125" width="14" height="8" fill="rgb(0,112,198)" /><rect x="103" y="125" width="14" height="8" fill="rgb(0,112,198)" /><rect x="116" y="125" width="14" height="8" fill="rgb(0,112,198)" /><rect x="129" y="125" width="14" height="8" fill="rgb(0,112,198)" /><rect x="142" y="125" width="14" height="8" fill="rgb(0,112,198)" /><rect x="155" y="125" width="14" height="8" fill="rgb(49,139,209)" /><rect x="168" y="125" width="14" height="8" fill="rgb(14,120,201)" /><rect x="0" y="132" width="14" height="8" fill="rgb(0,112,198)" /><rect x="12" y="132" width="14" height="8" fill="rgb(32,127,173)" /><rect x="25" y="132" width="14" height="8" fill="rgb(37,121,177)" /><rect x="38" y="132" width="14" height="8" fill="rgb(21,114,189)" /><rect x="51" y="132" width="14" height="8" fill="rgb(8,113,195)" /><rect x="64" y="132" width="14" height="8" fill="rgb(3,112,197)" /><rect x="77" y="132" width="14" height="8" fill="rgb(0,112,198)" /><rect x="90" y="132" width="14" height="8" fill="rgb(0,112,198)" /><rect x="103" y="132" width="14" height="8" fill="rgb(0,112,198)" /><rect x="116" y="132" width="14" height="8" fill="rgb(0,112,198)" /><rect x="129" y="132" width="14" height="8" fill="rgb(0,112,198)" /><rect x="142" y="132" width="14" height="8" fill="rgb(0,112,198)" /><rect x="155" y="132" width="14" height="8" fill="rgb(30,129,205)" /><rect x="168" y="132" width="14" height="8" fill="rgb(9,117,200)" /><rect x="0" y="139" width="14" height="8" fill="rgb(0,112,198)" /><rect x="12" y="139" width="14" height="8" fill="rgb(50,136,157)" /><rect x="25" y="139" width="14" height="8" fill="rgb(32,117,182)" /><rect x="38" y="139" width="14" height="8" fill="rgb(6,112,196)" /><rect x="51" y="139" width="14" height="8" fill="rgb(6,112,196)" /><rect x="64" y="139" width="14" height="8" fill="rgb(0,112,198)" /><rect x="77" y="139" width="14" height="8" fill="rgb(0,112,198)" /><rect x="90" y="139" width="14" height="8" fill="rgb(0,112,198)" /><rect x="103" y="139" width="14" height="8" fill="rgb(0,112,198)" /><rect x="116" y="139" width="14" height="8" fill="rgb(0,112,198)" /><rect x="129" y="139" width="14" height="8" fill="rgb(0,112,198)" /><rect x="142" y="139" width="14" height="8" fill="rgb(0,112,198)" /><rect x="155" y="139" width="14" height="8" fill="rgb(0,112,198)" /><rect x="168" y="139" width="14" height="8" fill="rgb(0,112,198)" /><rect x="0" y="146" width="14" height="8" fill="rgb(0,112,198)" /><rect x="12" y="146" width="14" height="8" fill="rgb(36,128,170)" /><rect x="25" y="146" width="14" height="8" fill="rgb(25,117,185)" /><rect x="38" y="146" width="14" height="8" fill="rgb(5,113,197)" /><rect x="51" y="146" width="14" height="8" fill="rgb(90,162,217)" /><rect x="64" y="146" width="14" height="8" fill="rgb(96,165,218)" /><rect x="77" y="146" width="14" height="8" fill="rgb(51,140,209)" /><rect x="90" y="146" width="14" height="8" fill="rgb(0,112,198)" /><rect x="103" y="146" width="14" height="8" fill="rgb(60,145,211)" /><rect x="116" y="146" width="14" height="8" fill="rgb(102,169,220)" /><rect x="129" y="146" width="14" height="8" fill="rgb(104,170,220)" /><rect x="142" y="146" width="14" height="8" fill="rgb(10,117,200)" /><rect x="155" y="146" width="14" height="8" fill="rgb(38,133,207)" /><rect x="168" y="146" width="14" height="8" fill="rgb(11,118,201)" /><rect x="0" y="153" width="14" height="8" fill="rgb(0,112,198)" /><rect x="12" y="153" width="14" height="8" fill="rgb(18,120,184)" /><rect x="25" y="153" width="14" height="8" fill="rgb(14,115,191)" /><rect x="38" y="153" width="14" height="8" fill="rgb(52,141,208)" /><rect x="51" y="153" width="14" height="8" fill="rgb(36,132,206)" /><rect x="64" y="153" width="14" height="8" fill="rgb(0,112,198)" /><rect x="77" y="153" width="14" height="8" fill="rgb(72,153,214)" /><rect x="90" y="153" width="14" height="8" fill="rgb(0,112,198)" /><rect x="103" y="153" width="14" height="8" fill="rgb(136,188,228)" /><rect x="116" y="153" width="14" height="8" fill="rgb(7,116,200)" /><rect x="129" y="153" width="14" height="8" fill="rgb(19,122,202)" /><rect x="142" y="153" width="14" height="8" fill="rgb(66,149,212)" /><rect x="155" y="153" width="14" height="8" fill="rgb(60,146,212)" /><rect x="168" y="153" width="14" height="8" fill="rgb(17,122,202)" /><rect x="0" y="160" width="14" height="8" fill="rgb(0,112,198)" /><rect x="12" y="160" width="14" height="8" fill="rgb(30,123,177)" /><rect x="25" y="160" width="14" height="8" fill="rgb(2,113,197)" /><rect x="38" y="160" width="14" height="8" fill="rgb(46,138,208)" /><rect x="51" y="160" width="14" height="8" fill="rgb(0,112,198)" /><rect x="64" y="160" width="14" height="8" fill="rgb(0,112,198)" /><rect x="77" y="160" width="14" height="8" fill="rgb(60,145,211)" /><rect x="90" y="160" width="14" height="8" fill="rgb(0,112,198)" /><rect x="103" y="160" width="14" height="8" fill="rgb(92,163,218)" /><rect x="116" y="160" width="14" height="8" fill="rgb(0,112,198)" /><rect x="129" y="160" width="14" height="8" fill="rgb(0,112,198)" /><rect x="142" y="160" width="14" height="8" fill="rgb(65,148,211)" /><rect x="155" y="160" width="14" height="8" fill="rgb(60,146,212)" /><rect x="168" y="160" width="14" height="8" fill="rgb(17,122,202)" /><rect x="0" y="167" width="14" height="8" fill="rgb(0,112,198)" /><rect x="12" y="167" width="14" height="8" fill="rgb(23,121,181)" /><rect x="25" y="167" width="14" height="8" fill="rgb(0,112,198)" /><rect x="38" y="167" width="14" height="8" fill="rgb(0,112,198)" /><rect x="51" y="167" width="14" height="8" fill="rgb(0,112,198)" /><rect x="64" y="167" width="14" height="8" fill="rgb(8,116,200)" /><rect x="77" y="167" width="14" height="8" fill="rgb(103,170,220)" /><rect x="90" y="167" width="14" height="8" fill="rgb(0,112,198)" /><rect x="103" y="167" width="14" height="8" fill="rgb(72,152,213)" /><rect x="116" y="167" width="14" height="8" fill="rgb(0,112,198)" /><rect x="129" y="167" width="14" height="8" fill="rgb(0,112,198)" /><rect x="142" y="167" width="14" height="8" fill="rgb(64,147,210)" /><rect x="155" y="167" width="14" height="8" fill="rgb(60,146,212)" /><rect x="168" y="167" width="14" height="8" fill="rgb(17,122,202)" /><rect x="0" y="174" width="14" height="8" fill="rgb(0,112,198)" /><rect x="12" y="174" width="14" height="8" fill="rgb(16,119,185)" /><rect x="25" y="174" width="14" height="8" fill="rgb(0,112,198)" /><rect x="38" y="174" width="14" height="8" fill="rgb(12,119,201)" /><rect x="51" y="174" width="14" height="8" fill="rgb(95,165,218)" /><rect x="64" y="174" width="14" height="8" fill="rgb(95,165,218)" /><rect x="77" y="174" width="14" height="8" fill="rgb(100,168,220)" /><rect x="90" y="174" width="14" height="8" fill="rgb(0,112,198)" /><rect x="103" y="174" width="14" height="8" fill="rgb(70,151,214)" /><rect x="116" y="174" width="14" height="8" fill="rgb(0,112,198)" /><rect x="129" y="174" width="14" height="8" fill="rgb(0,112,198)" /><rect x="142" y="174" width="14" height="8" fill="rgb(64,147,210)" /><rect x="155" y="174" width="14" height="8" fill="rgb(60,146,212)" /><rect x="168" y="174" width="14" height="8" fill="rgb(17,122,202)" /><rect x="0" y="181" width="14" height="8" fill="rgb(0,112,198)" /><rect x="12" y="181" width="14" height="8" fill="rgb(8,115,192)" /><rect x="25" y="181" width="14" height="8" fill="rgb(0,112,198)" /><rect x="38" y="181" width="14" height="8" fill="rgb(72,152,213)" /><rect x="51" y="181" width="14" height="8" fill="rgb(15,121,201)" /><rect x="64" y="181" width="14" height="8" fill="rgb(0,112,198)" /><rect x="77" y="181" width="14" height="8" fill="rgb(62,147,211)" /><rect x="90" y="181" width="14" height="8" fill="rgb(0,112,198)" /><rect x="103" y="181" width="14" height="8" fill="rgb(70,151,214)" /><rect x="116" y="181" width="14" height="8" fill="rgb(0,112,198)" /><rect x="129" y="181" width="14" height="8" fill="rgb(0,112,198)" /><rect x="142" y="181" width="14" height="8" fill="rgb(64,147,210)" /><rect x="155" y="181" width="14" height="8" fill="rgb(60,146,212)" /><rect x="168" y="181" width="14" height="8" fill="rgb(17,122,202)" /><rect x="0" y="188" width="14" height="8" fill="rgb(0,112,198)" /><rect x="12" y="188" width="14" height="8" fill="rgb(7,115,193)" /><rect x="25" y="188" width="14" height="8" fill="rgb(0,112,198)" /><rect x="38" y="188" width="14" height="8" fill="rgb(67,149,213)" /><rect x="51" y="188" width="14" height="8" fill="rgb(0,112,198)" /><rect x="64" y="188" width="14" height="8" fill="rgb(0,112,198)" /><rect x="77" y="188" width="14" height="8" fill="rgb(77,156,216)" /><rect x="90" y="188" width="14" height="8" fill="rgb(0,112,198)" /><rect x="103" y="188" width="14" height="8" fill="rgb(70,151,214)" /><rect x="116" y="188" width="14" height="8" fill="rgb(0,112,198)" /><rect x="129" y="188" width="14" height="8" fill="rgb(0,112,198)" /><rect x="142" y="188" width="14" height="8" fill="rgb(64,147,210)" /><rect x="155" y="188" width="14" height="8" fill="rgb(60,146,212)" /><rect x="168" y="188" width="14" height="8" fill="rgb(17,122,202)" /><rect x="0" y="195" width="14" height="8" fill="rgb(0,112,198)" /><rect x="12" y="195" width="14" height="8" fill="rgb(13,118,188)" /><rect x="25" y="195" width="14" height="8" fill="rgb(0,112,198)" /><rect x="38" y="195" width="14" height="8" fill="rgb(73,152,213)" /><rect x="51" y="195" width="14" height="8" fill="rgb(0,112,198)" /><rect x="64" y="195" width="14" height="8" fill="rgb(3,114,199)" /><rect x="77" y="195" width="14" height="8" fill="rgb(125,183,226)" /><rect x="90" y="195" width="14" height="8" fill="rgb(0,112,198)" /><rect x="103" y="195" width="14" height="8" fill="rgb(70,151,214)" /><rect x="116" y="195" width="14" height="8" fill="rgb(0,112,198)" /><rect x="129" y="195" width="14" height="8" fill="rgb(0,112,198)" /><rect x="142" y="195" width="14" height="8" fill="rgb(64,147,210)" /><rect x="155" y="195" width="14" height="8" fill="rgb(60,146,212)" /><rect x="168" y="195" width="14" height="8" fill="rgb(17,122,202)" /><rect x="0" y="202" width="14" height="8" fill="rgb(0,112,198)" /><rect x="12" y="202" width="14" height="8" fill="rgb(8,116,192)" /><rect x="25" y="202" width="14" height="8" fill="rgb(0,112,198)" /><rect x="38" y="202" width="14" height="8" fill="rgb(51,141,209)" /><rect x="51" y="202" width="14" height="8" fill="rgb(113,175,222)" /><rect x="64" y="202" width="14" height="8" fill="rgb(111,174,222)" /><rect x="77" y="202" width="14" height="8" fill="rgb(84,159,216)" /><rect x="90" y="202" width="14" height="8" fill="rgb(40,134,206)" /><rect x="103" y="202" width="14" height="8" fill="rgb(59,145,211)" /><rect x="116" y="202" width="14" height="8" fill="rgb(0,112,198)" /><rect x="129" y="202" width="14" height="8" fill="rgb(0,112,198)" /><rect x="142" y="202" width="14" height="8" fill="rgb(55,142,208)" /><rect x="155" y="202" width="14" height="8" fill="rgb(60,146,212)" /><rect x="168" y="202" width="14" height="8" fill="rgb(17,122,202)" /><rect x="0" y="209" width="14" height="8" fill="rgb(0,112,198)" /><rect x="12" y="209" width="14" height="8" fill="rgb(5,114,195)" /><rect x="25" y="209" width="14" height="8" fill="rgb(0,112,198)" /><rect x="38" y="209" width="14" height="8" fill="rgb(0,112,198)" /><rect x="51" y="209" width="14" height="8" fill="rgb(22,124,202)" /><rect x="64" y="209" width="14" height="8" fill="rgb(9,117,200)" /><rect x="77" y="209" width="14" height="8" fill="rgb(0,112,198)" /><rect x="90" y="209" width="14" height="8" fill="rgb(2,113,198)" /><rect x="103" y="209" width="14" height="8" fill="rgb(0,112,198)" /><rect x="116" y="209" width="14" height="8" fill="rgb(0,112,198)" /><rect x="129" y="209" width="14" height="8" fill="rgb(0,112,198)" /><rect x="142" y="209" width="14" height="8" fill="rgb(0,112,198)" /><rect x="155" y="209" width="14" height="8" fill="rgb(60,146,212)" /><rect x="168" y="209" width="14" height="8" fill="rgb(17,122,202)" /><rect x="0" y="216" width="14" height="8" fill="rgb(0,112,198)" /><rect x="12" y="216" width="14" height="8" fill="rgb(4,114,195)" /><rect x="25" y="216" width="14" height="8" fill="rgb(0,112,198)" /><rect x="38" y="216" width="14" height="8" fill="rgb(0,112,198)" /><rect x="51" y="216" width="14" height="8" fill="rgb(0,112,198)" /><rect x="64" y="216" width="14" height="8" fill="rgb(0,112,198)" /><rect x="77" y="216" width="14" height="8" fill="rgb(0,112,198)" /><rect x="90" y="216" width="14" height="8" fill="rgb(0,112,198)" /><rect x="103" y="216" width="14" height="8" fill="rgb(0,112,198)" /><rect x="116" y="216" width="14" height="8" fill="rgb(0,112,198)" /><rect x="129" y="216" width="14" height="8" fill="rgb(0,112,198)" /><rect x="142" y="216" width="14" height="8" fill="rgb(0,112,198)" /><rect x="155" y="216" width="14" height="8" fill="rgb(63,147,212)" /><rect x="168" y="216" width="14" height="8" fill="rgb(17,122,202)" /><rect x="0" y="223" width="14" height="8" fill="rgb(0,112,198)" /><rect x="12" y="223" width="14" height="8" fill="rgb(0,112,198)" /><rect x="25" y="223" width="14" height="8" fill="rgb(0,112,198)" /><rect x="38" y="223" width="14" height="8" fill="rgb(0,112,198)" /><rect x="51" y="223" width="14" height="8" fill="rgb(0,112,198)" /><rect x="64" y="223" width="14" height="8" fill="rgb(0,112,198)" /><rect x="77" y="223" width="14" height="8" fill="rgb(0,112,198)" /><rect x="90" y="223" width="14" height="8" fill="rgb(0,112,198)" /><rect x="103" y="223" width="14" height="8" fill="rgb(0,112,198)" /><rect x="116" y="223" width="14" height="8" fill="rgb(0,112,198)" /><rect x="129" y="223" width="14" height="8" fill="rgb(0,112,198)" /><rect x="142" y="223" width="14" height="8" fill="rgb(0,112,198)" /><rect x="155" y="223" width="14" height="8" fill="rgb(100,168,219)" /><rect x="168" y="223" width="14" height="8" fill="rgb(5,115,199)" /><rect x="0" y="230" width="14" height="8" fill="rgb(0,112,198)" /><rect x="12" y="230" width="14" height="8" fill="rgb(0,112,198)" /><rect x="25" y="230" width="14" height="8" fill="rgb(0,112,198)" /><rect x="38" y="230" width="14" height="8" fill="rgb(0,112,198)" /><rect x="51" y="230" width="14" height="8" fill="rgb(0,112,198)" /><rect x="64" y="230" width="14" height="8" fill="rgb(0,112,198)" /><rect x="77" y="230" width="14" height="8" fill="rgb(0,112,198)" /><rect x="90" y="230" width="14" height="8" fill="rgb(0,112,198)" /><rect x="103" y="230" width="14" height="8" fill="rgb(0,112,198)" /><rect x="116" y="230" width="14" height="8" fill="rgb(0,112,198)" /><rect x="129" y="230" width="14" height="8" fill="rgb(0,112,198)" /><rect x="142" y="230" width="14" height="8" fill="rgb(0,112,198)" /><rect x="155" y="230" width="14" height="8" fill="rgb(43,136,207)" /><rect x="168" y="230" width="14" height="8" fill="rgb(0,112,198)" /><g transform="translate(0.000000,307.000000) scale(0.100000,-0.100000)" fill="#B2CC33" stroke="none"><path d="M1855 2640 c3 -5 8 -10 11 -10 2 0 4 5 4 10 0 6 -5 10 -11 10 -5 0 -7 -4 -4 -10z"/><path d="M1630 2600 c-9 -6 -10 -10 -3 -10 6 0 15 5 18 10 8 12 4 12 -15 0z"/><path d="M1466 2567 c3 -10 9 -15 12 -12 3 3 0 11 -7 18 -10 9 -11 8 -5 -6z"/><path d="M707 2534 c-8 -8 1 -24 14 -24 5 0 9 7 9 15 0 15 -12 20 -23 9z"/><path d="M677 2504 c-8 -8 1 -24 14 -24 5 0 9 7 9 15 0 15 -12 20 -23 9z"/><path d="M640 2460 c0 -5 7 -10 15 -10 8 0 15 5 15 10 0 6 -7 10 -15 10 -8 0 -15 -4 -15 -10z"/><path d="M617 2434 c-8 -8 1 -24 14 -24 5 0 9 7 9 15 0 15 -12 20 -23 9z"/><path d="M590 2395 c0 -8 5 -15 10 -15 6 0 10 7 10 15 0 8 -4 15 -10 15 -5 0 -10 -7 -10 -15z"/><path d="M550 2350 c0 -23 25 -27 33 -6 7 16 -1 26 -20 26 -7 0 -13 -9 -13 -20z"/><path d="M527 2324 c-14 -14 -7 -35 11 -32 9 2 17 10 17 17 0 16 -18 25 -28 15z"/><path d="M484 2269 c-10 -17 13 -36 27 -22 12 12 4 33 -11 33 -5 0 -12 -5 -16 -11z"/><path d="M452 2227 c-15 -17 1 -42 23 -33 18 6 17 37 -1 43 -6 2 -16 -2 -22 -10z"/><path d="M410 2174 c-11 -12 -10 -18 3 -32 16 -15 18 -15 33 0 19 18 12 48 -9 48 -8 0 -20 -7 -27 -16z"/><path d="M743 2145 c0 -8 4 -12 9 -9 5 3 6 10 3 15 -9 13 -12 11 -12 -6z"/><path d="M370 2115 c-10 -12 -10 -18 0 -30 26 -32 68 -8 54 30 -4 8 -14 15 -24 15 -10 0 -23 -7 -30 -15z"/><path d="M708 2103 c7 -3 16 -2 19 1 4 3 -2 6 -13 5 -11 0 -14 -3 -6 -6z"/><path d="M340 2051 c-14 -28 13 -55 41 -41 22 12 25 30 7 48 -18 18 -36 15 -48 -7z"/><path d="M590 2011 c0 -6 4 -13 10 -16 6 -3 7 1 4 9 -7 18 -14 21 -14 7z"/><path d="M310 1975 c0 -31 26 -43 47 -22 21 21 9 47 -22 47 -20 0 -25 -5 -25 -25z"/><path d="M570 1960 c-9 -6 -10 -10 -3 -10 6 0 15 5 18 10 8 12 4 12 -15 0z"/><path d="M535 1939 c-4 -6 -5 -12 -2 -15 2 -3 7 2 10 11 7 17 1 20 -8 4z"/><path d="M276 1904 c-8 -20 11 -44 34 -44 20 0 32 23 24 45 -8 20 -50 19 -58 -1z"/><path d="M252 1838 c-16 -16 -15 -33 2 -47 22 -18 48 -2 44 28 -3 28 -27 38 -46 19z"/><path d="M235 1760 c-4 -7 -3 -16 3 -22 14 -14 45 -2 40 15 -6 16 -34 21 -43 7z"/><path d="M214 1689 c-10 -17 23 -46 37 -32 7 7 9 19 6 27 -7 18 -33 21 -43 5z"/><path d="M210 1640 c-18 -11 -4 -42 17 -38 10 2 19 10 21 19 4 19 -19 31 -38 19z"/><path d="M195 1580 c-4 -7 -3 -16 3 -22 14 -14 45 -2 40 15 -6 16 -34 21 -43 7z"/><path d="M190 1505 c0 -9 5 -15 11 -13 6 2 11 8 11 13 0 5 -5 11 -11 13 -6 2 -11 -4 -11 -13z"/><path d="M180 1460 c0 -5 7 -10 15 -10 8 0 15 5 15 10 0 6 -7 10 -15 10 -8 0 -15 -4 -15 -10z"/><path d="M177 1414 c-8 -8 1 -24 14 -24 5 0 9 7 9 15 0 15 -12 20 -23 9z"/><path d="M170 1360 c0 -5 7 -10 15 -10 8 0 15 5 15 10 0 6 -7 10 -15 10 -8 0 -15 -4 -15 -10z"/><path d="M172 1319 c2 -6 8 -10 13 -10 5 0 11 4 13 10 2 6 -4 11 -13 11 -9 0 -15 -5 -13 -11z"/><path d="M170 1069 c0 -5 5 -7 10 -4 6 3 10 8 10 11 0 2 -4 4 -10 4 -5 0 -10 -5 -10 -11z"/><path d="M175 1040 c3 -5 8 -10 11 -10 2 0 4 5 4 10 0 6 -5 10 -11 10 -5 0 -7 -4 -4 -10z"/><path d="M2380 450 c-13 -13 -20 -33 -20 -60 0 -36 -2 -40 -25 -40 -16 0 -25 -6 -25 -15 0 -9 9 -15 25 -15 l25 0 0 -105 c0 -87 3 -105 15 -105 12 0 15 18 15 105 l0 105 31 0 c38 0 35 24 -4 28 -23 3 -27 8 -27 36 0 37 21 61 45 52 10 -4 15 1 15 14 0 27 -43 27 -70 0z"/><path d="M1930 285 c0 -168 1 -175 20 -175 19 0 20 7 20 175 0 168 -1 175 -20 175 -19 0 -20 -7 -20 -175z"/><path d="M2132 438 c2 -13 10 -23 18 -23 8 0 16 10 18 23 3 17 -2 22 -18 22 -16 0 -21 -5 -18 -22z"/><path d="M2137 344 c-4 -4 -7 -58 -7 -121 0 -107 1 -113 20 -113 20 0 21 5 18 117 -3 108 -11 137 -31 117z"/><path d="M2617 339 c-28 -16 -47 -64 -47 -118 0 -66 35 -110 96 -118 45 -6 84 9 84 32 0 11 -5 12 -26 5 -58 -22 -107 -1 -120 53 l-6 27 86 0 c62 0 86 3 86 13 0 33 -23 88 -43 102 -24 17 -83 19 -110 4z m97 -41 c29 -41 21 -48 -49 -48 -36 0 -65 4 -65 9 0 4 9 20 21 35 26 33 71 35 93 4z"/></g><g transform="translate(0.000000,307.000000) scale(0.100000,-0.100000)" fill="#FFAC46" stroke="none"><path d="M1290 2790 c0 -5 7 -10 15 -10 8 0 15 5 15 10 0 6 -7 10 -15 10 -8 0 -15 -4 -15 -10z"/><path d="M1256 2782 c-3 -6 -1 -14 5 -17 15 -10 25 3 12 16 -7 7 -13 7 -17 1z"/><path d="M1210 2750 c0 -5 7 -10 15 -10 8 0 15 5 15 10 0 6 -7 10 -15 10 -8 0 -15 -4 -15 -10z"/><path d="M1180 2730 c0 -5 5 -10 10 -10 6 0 10 5 10 10 0 6 -4 10 -10 10 -5 0 -10 -4 -10 -10z"/><path d="M1140 2705 c0 -8 5 -15 10 -15 6 0 10 7 10 15 0 8 -4 15 -10 15 -5 0 -10 -7 -10 -15z"/><path d="M1090 2680 c0 -13 5 -20 13 -17 6 2 12 10 12 17 0 7 -6 15 -12 18 -8 2 -13 -5 -13 -18z"/><path d="M1050 2651 c0 -12 6 -21 16 -21 9 0 14 7 12 17 -5 25 -28 28 -28 4z"/><path d="M1001 2626 c-12 -14 -5 -26 16 -26 15 0 18 26 4 34 -5 3 -14 0 -20 -8z"/><path d="M1620 2610 c0 -5 5 -10 10 -10 6 0 10 5 10 10 0 6 -4 10 -10 10 -5 0 -10 -4 -10 -10z"/><path d="M943 2594 c-7 -18 17 -38 31 -24 11 11 1 40 -14 40 -6 0 -13 -7 -17 -16z"/><path d="M1580 2600 c0 -5 5 -10 10 -10 6 0 10 5 10 10 0 6 -4 10 -10 10 -5 0 -10 -4 -10 -10z"/><path d="M1535 2591 c-6 -11 9 -23 19 -14 9 9 7 23 -3 23 -6 0 -12 -4 -16 -9z"/><path d="M1496 2581 c-4 -5 -2 -12 3 -15 5 -4 12 -2 15 3 4 5 2 12 -3 15 -5 4 -12 2 -15 -3z"/><path d="M886 2561 c-11 -18 6 -42 28 -39 29 4 29 42 -1 46 -11 2 -24 -1 -27 -7z"/><path d="M1450 2560 c0 -5 5 -10 10 -10 6 0 10 5 10 10 0 6 -4 10 -10 10 -5 0 -10 -4 -10 -10z"/><path d="M1393 2548 c2 -7 10 -13 17 -13 7 0 15 6 18 13 2 7 -5 12 -18 12 -13 0 -20 -5 -17 -12z"/><path d="M1350 2525 c0 -8 7 -15 15 -15 8 0 15 7 15 15 0 8 -7 15 -15 15 -8 0 -15 -7 -15 -15z"/><path d="M834 2515 c-8 -21 2 -45 19 -45 20 0 40 27 33 45 -7 19 -45 20 -52 0z"/><path d="M1290 2505 c0 -8 7 -15 15 -15 8 0 15 7 15 15 0 8 -7 15 -15 15 -8 0 -15 -7 -15 -15z"/><path d="M1237 2504 c-14 -15 -6 -34 14 -34 14 0 19 5 17 17 -3 18 -20 27 -31 17z"/><path d="M1177 2484 c-4 -4 -7 -16 -7 -26 0 -14 6 -19 23 -16 14 2 22 10 22 23 0 20 -25 32 -38 19z"/><path d="M787 2473 c-13 -12 -7 -41 10 -47 21 -8 48 17 40 38 -6 16 -38 22 -50 9z"/><path d="M1104 2446 c-10 -26 4 -48 28 -44 17 2 23 10 23 28 0 18 -6 26 -23 28 -13 2 -25 -3 -28 -12z"/><path d="M737 2423 c-13 -12 -7 -41 10 -47 21 -8 48 17 40 38 -6 16 -38 22 -50 9z"/><path d="M1050 2415 c-17 -20 -5 -45 20 -45 11 0 23 7 26 15 6 15 -11 45 -26 45 -4 0 -13 -7 -20 -15z"/><path d="M990 2376 c-18 -22 -5 -48 22 -44 17 2 23 10 23 28 0 29 -26 38 -45 16z"/><path d="M680 2355 c-18 -21 -5 -47 22 -43 26 3 37 36 16 49 -18 12 -24 11 -38 -6z"/><path d="M922 2331 c-21 -13 -10 -46 16 -49 27 -4 40 22 22 43 -14 17 -20 18 -38 6z"/><path d="M621 2296 c-16 -20 -3 -46 24 -46 27 0 36 17 23 43 -10 20 -31 22 -47 3z"/><path d="M847 2283 c-13 -12 -7 -41 10 -47 21 -8 48 17 40 38 -6 16 -38 22 -50 9z"/><path d="M584 2229 c-9 -15 12 -33 30 -26 9 4 16 13 16 22 0 17 -35 21 -46 4z"/><path d="M800 2221 c0 -15 6 -21 21 -21 14 0 19 5 17 17 -5 26 -38 29 -38 4z"/><path d="M744 2179 c-3 -6 0 -17 8 -25 13 -13 16 -13 27 0 7 8 10 20 6 26 -8 13 -32 13 -41 -1z"/><path d="M545 2170 c-4 -7 -3 -16 3 -22 14 -14 45 -2 40 15 -6 16 -34 21 -43 7z"/><path d="M707 2143 c-14 -13 -7 -33 11 -33 24 0 32 8 25 26 -5 15 -25 19 -36 7z"/><path d="M521 2131 c-17 -11 -7 -41 13 -41 22 0 30 20 15 36 -9 8 -19 10 -28 5z"/><path d="M665 2100 c-4 -7 -3 -16 3 -22 14 -14 45 -2 40 15 -6 16 -34 21 -43 7z"/><path d="M484 2079 c-3 -6 0 -17 7 -25 18 -17 44 -2 36 20 -7 18 -33 21 -43 5z"/><path d="M630 2045 c0 -8 5 -15 10 -15 6 0 10 7 10 15 0 8 -4 15 -10 15 -5 0 -10 -7 -10 -15z"/><path d="M460 2010 c0 -5 5 -10 10 -10 6 0 10 5 10 10 0 6 -4 10 -10 10 -5 0 -10 -4 -10 -10z"/><path d="M600 2010 c0 -5 5 -10 10 -10 6 0 10 5 10 10 0 6 -4 10 -10 10 -5 0 -10 -4 -10 -10z"/><path d="M440 1970 c0 -5 5 -10 10 -10 6 0 10 5 10 10 0 6 -4 10 -10 10 -5 0 -10 -4 -10 -10z"/><path d="M560 1970 c0 -5 5 -10 10 -10 6 0 10 5 10 10 0 6 -4 10 -10 10 -5 0 -10 -4 -10 -10z"/><path d="M540 1930 c0 -5 5 -10 10 -10 6 0 10 5 10 10 0 6 -4 10 -10 10 -5 0 -10 -4 -10 -10z"/><path d="M410 1920 c0 -5 7 -10 15 -10 8 0 15 5 15 10 0 6 -7 10 -15 10 -8 0 -15 -4 -15 -10z"/><path d="M510 1895 c0 -8 5 -15 10 -15 6 0 10 7 10 15 0 8 -4 15 -10 15 -5 0 -10 -7 -10 -15z"/><path d="M400 1880 c0 -5 5 -10 10 -10 6 0 10 5 10 10 0 6 -4 10 -10 10 -5 0 -10 -4 -10 -10z"/><path d="M380 1840 c0 -5 5 -10 10 -10 6 0 10 5 10 10 0 6 -4 10 -10 10 -5 0 -10 -4 -10 -10z"/></g><g transform="translate(0.000000,307.000000) scale(0.100000,-0.100000)" fill="#9F598C" stroke="none"><path d="M1938 463 c6 -2 18 -2 25 0 6 3 1 5 -13 5 -14 0 -19 -2 -12 -5z"/><path d="M4153 463 c15 -4 17 -21 17 -179 0 -109 -4 -174 -10 -174 -5 0 -10 9 -10 20 0 20 -1 20 -24 3 -13 -10 -22 -20 -20 -22 2 -2 10 2 19 9 12 10 15 10 15 -5 0 -10 6 -15 18 -13 15 3 17 21 20 186 l2 182 -22 -1 c-17 -1 -19 -2 -5 -6z"/><path d="M3793 453 c9 -2 17 -11 17 -18 0 -7 -8 -16 -17 -18 -14 -4 -12 -5 5 -6 17 -1 22 4 22 24 0 20 -5 25 -22 24 -17 -1 -19 -2 -5 -6z"/><path d="M411 434 c0 -11 3 -14 6 -6 3 7 2 16 -1 19 -3 4 -6 -2 -5 -13z"/><path d="M5313 360 c0 -47 2 -66 4 -42 2 23 2 61 0 85 -2 23 -4 4 -4 -43z"/><path d="M5353 395 c0 -27 2 -38 4 -22 2 15 2 37 0 50 -2 12 -4 0 -4 -28z"/><path d="M2352 370 c0 -14 2 -19 5 -12 2 6 2 18 0 25 -3 6 -5 1 -5 -13z"/><path d="M914 230 c0 -69 1 -97 3 -63 2 35 2 91 0 125 -2 35 -3 7 -3 -62z"/><path d="M3780 225 c0 -118 1 -125 20 -125 19 0 20 7 20 125 0 118 -1 125 -20 125 -19 0 -20 -7 -20 -125z m30 0 c0 -70 -4 -115 -10 -115 -6 0 -10 45 -10 115 0 70 4 115 10 115 6 0 10 -45 10 -115z"/><path d="M3999 323 l-24 -28 30 25 c17 14 32 26 34 28 2 1 0 2 -6 2 -5 0 -20 -12 -34 -27z"/><path d="M4105 338 c11 -6 23 -16 27 -22 5 -8 8 -7 8 1 0 7 -9 17 -19 23 -27 14 -41 12 -16 -2z"/><path d="M4475 338 c11 -6 26 -19 33 -27 11 -14 11 -14 6 2 -4 10 -15 22 -25 27 -25 14 -38 12 -14 -2z"/><path d="M4803 327 c12 -13 24 -22 26 -20 6 4 -30 43 -40 43 -5 0 2 -10 14 -23z"/><path d="M5028 343 c7 -3 16 -2 19 1 4 3 -2 6 -13 5 -11 0 -14 -3 -6 -6z"/><path d="M5088 343 c6 -2 18 -2 25 0 6 3 1 5 -13 5 -14 0 -19 -2 -12 -5z"/><path d="M4359 323 c-13 -16 -12 -17 4 -4 9 7 17 15 17 17 0 8 -8 3 -21 -13z"/><path d="M4677 333 c-10 -9 -9 -33 1 -33 4 0 8 9 8 20 0 23 0 22 -9 13z"/><path d="M4428 323 c7 -3 16 -2 19 1 4 3 -2 6 -13 5 -11 0 -14 -3 -6 -6z"/><path d="M2354 215 c1 -90 4 -110 16 -111 8 0 10 1 3 3 -8 3 -13 39 -16 111 l-3 107 0 -110z"/><path d="M4025 310 c-3 -6 1 -7 9 -4 18 7 21 14 7 14 -6 0 -13 -4 -16 -10z"/><path d="M4100 316 c0 -2 8 -10 18 -17 15 -13 16 -12 3 4 -13 16 -21 21 -21 13z"/><path d="M4385 310 c-3 -6 1 -7 9 -4 18 7 21 14 7 14 -6 0 -13 -4 -16 -10z"/><path d="M4471 303 c7 -12 15 -20 18 -17 3 2 -3 12 -13 22 -17 16 -18 16 -5 -5z"/><path d="M4781 303 c7 -12 15 -20 18 -17 3 2 -3 12 -13 22 -17 16 -18 16 -5 -5z"/><path d="M4981 288 c-1 -28 4 -33 84 -84 22 -14 32 -18 23 -9 -9 10 -34 27 -55 39 -26 15 -40 31 -44 51 l-7 30 -1 -27z"/><path d="M4522 270 c0 -14 2 -19 5 -12 2 6 2 18 0 25 -3 6 -5 1 -5 -13z"/><path d="M4832 198 c-1 -51 -6 -88 -12 -88 -5 0 -10 7 -10 15 0 18 -12 19 -27 4 -7 -7 -29 -15 -50 -19 -35 -7 -36 -8 -8 -9 17 0 41 6 53 15 20 14 22 14 22 0 0 -19 29 -21 36 -3 3 8 3 49 1 93 l-3 79 -2 -87z"/><path d="M5035 264 c44 -33 99 -65 86 -51 -7 9 -34 28 -59 42 -26 13 -38 18 -27 9z"/><path d="M4003 230 c0 -25 2 -35 4 -22 2 12 2 32 0 45 -2 12 -4 2 -4 -23z"/><path d="M4361 258 c-1 -16 9 -18 69 -18 60 0 70 2 69 18 0 10 -3 12 -6 5 -3 -8 -26 -13 -63 -13 -37 0 -60 5 -63 13 -3 7 -6 5 -6 -5z"/><path d="M4748 253 c12 -2 30 -2 40 0 9 3 -1 5 -23 4 -22 0 -30 -2 -17 -4z"/><path d="M2562 230 c0 -14 2 -19 5 -12 2 6 2 18 0 25 -3 6 -5 1 -5 -13z"/><path d="M4665 220 c-10 -11 -16 -22 -14 -24 2 -2 12 7 22 20 22 29 17 32 -8 4z"/><path d="M4748 223 c12 -2 30 -2 40 0 9 3 -1 5 -23 4 -22 0 -30 -2 -17 -4z"/><path d="M4361 204 c-1 -12 7 -30 17 -41 9 -10 13 -13 9 -7 -5 7 -12 25 -17 41 -7 23 -8 24 -9 7z"/><path d="M4695 210 c-3 -6 1 -7 9 -4 18 7 21 14 7 14 -6 0 -13 -4 -16 -10z"/><path d="M4331 184 c0 -11 3 -14 6 -6 3 7 2 16 -1 19 -3 4 -6 -2 -5 -13z"/><path d="M4681 174 c0 -11 3 -14 6 -6 3 7 2 16 -1 19 -3 4 -6 -2 -5 -13z"/><path d="M5131 174 c0 -11 3 -14 6 -6 3 7 2 16 -1 19 -3 4 -6 -2 -5 -13z"/><path d="M4010 174 c0 -19 36 -44 62 -44 14 0 33 10 44 23 19 22 19 22 -2 5 -29 -25 -70 -23 -88 4 -9 12 -16 18 -16 12z"/><path d="M2610 166 c0 -2 8 -10 18 -17 15 -13 16 -12 3 4 -13 16 -21 21 -21 13z"/><path d="M5086 153 c-6 -14 -5 -15 5 -6 7 7 10 15 7 18 -3 3 -9 -2 -12 -12z"/><path d="M4346 147 c4 -10 16 -22 28 -29 18 -9 19 -8 6 3 -8 8 -20 21 -27 29 -11 13 -12 13 -7 -3z"/><path d="M5310 131 c0 -27 4 -31 26 -31 22 0 25 4 22 28 -2 19 -9 28 -25 30 -20 3 -23 -1 -23 -27z m40 -1 c0 -11 -7 -20 -15 -20 -8 0 -15 9 -15 20 0 11 7 20 15 20 8 0 15 -9 15 -20z"/><path d="M2580 146 c0 -2 8 -10 18 -17 15 -13 16 -12 3 4 -13 16 -21 21 -21 13z"/><path d="M4475 140 c-13 -6 -15 -9 -5 -9 8 0 22 4 30 9 18 12 2 12 -25 0z"/><path d="M4698 138 c5 -5 16 -8 23 -6 8 3 3 7 -10 11 -17 4 -21 3 -13 -5z"/><path d="M4980 130 c0 -11 4 -20 8 -20 4 0 8 9 8 20 0 11 -4 20 -8 20 -4 0 -8 -9 -8 -20z"/><path d="M5116 133 c-6 -14 -5 -15 5 -6 7 7 10 15 7 18 -3 3 -9 -2 -12 -12z"/><path d="M4002 124 c10 -10 20 -16 22 -13 3 3 -5 11 -17 18 -21 13 -21 12 -5 -5z"/><path d="M5023 133 c9 -2 25 -2 35 0 9 3 1 5 -18 5 -19 0 -27 -2 -17 -5z"/><path d="M1938 103 c6 -2 18 -2 25 0 6 3 1 5 -13 5 -14 0 -19 -2 -12 -5z"/><path d="M2138 103 c6 -2 18 -2 25 0 6 3 1 5 -13 5 -14 0 -19 -2 -12 -5z"/><path d="M4053 103 c9 -2 23 -2 30 0 6 3 -1 5 -18 5 -16 0 -22 -2 -12 -5z"/><path d="M4408 103 c6 -2 18 -2 25 0 6 3 1 5 -13 5 -14 0 -19 -2 -12 -5z"/><path d="M4458 103 c6 -2 18 -2 25 0 6 3 1 5 -13 5 -14 0 -19 -2 -12 -5z"/><path d="M5028 103 c12 -2 30 -2 40 0 9 3 -1 5 -23 4 -22 0 -30 -2 -17 -4z"/></g><g transform="translate(0.000000,307.000000) scale(0.100000,-0.100000)" fill="#AC5999" stroke="none"><path d="M1170 2731 c0 -10 19 -25 25 -20 1 2 -3 10 -11 17 -8 7 -14 8 -14 3z"/><path d="M1076 2673 c-6 -14 -5 -15 5 -6 7 7 10 15 7 18 -3 3 -9 -2 -12 -12z"/><path d="M975 2584 c0 -25 10 -23 17 4 3 10 0 19 -6 19 -6 0 -11 -10 -11 -23z"/><path d="M812 2494 c-7 -8 -8 -14 -3 -14 10 0 25 19 20 25 -2 1 -10 -3 -17 -11z"/><path d="M586 2241 c-4 -5 3 -7 14 -4 23 6 26 13 6 13 -8 0 -17 -4 -20 -9z"/><path d="M1330 2240 c0 -5 5 -10 10 -10 6 0 10 5 10 10 0 6 -4 10 -10 10 -5 0 -10 -4 -10 -10z"/><path d="M1155 2199 c-10 -15 3 -25 16 -12 7 7 7 13 1 17 -6 3 -14 1 -17 -5z"/><path d="M1115 2180 c-3 -5 1 -10 9 -10 9 0 16 5 16 10 0 6 -4 10 -9 10 -6 0 -13 -4 -16 -10z"/><path d="M1070 2165 c0 -8 5 -15 10 -15 6 0 10 7 10 15 0 8 -4 15 -10 15 -5 0 -10 -7 -10 -15z"/><path d="M1026 2163 c-11 -11 -6 -23 9 -23 8 0 15 4 15 9 0 13 -16 22 -24 14z"/><path d="M541 2143 c-1 -17 16 -25 25 -12 4 7 3 9 -4 5 -5 -3 -13 0 -15 6 -4 9 -6 10 -6 1z"/><path d="M972 2133 c2 -10 10 -18 18 -18 22 0 18 29 -3 33 -14 3 -18 -1 -15 -15z"/><path d="M920 2110 c0 -13 7 -20 20 -20 13 0 20 7 20 20 0 13 -7 20 -20 20 -13 0 -20 -7 -20 -20z"/><path d="M870 2080 c0 -13 7 -20 20 -20 13 0 20 7 20 20 0 13 -7 20 -20 20 -13 0 -20 -7 -20 -20z"/><path d="M1480 2079 c0 -5 5 -7 10 -4 6 3 10 8 10 11 0 2 -4 4 -10 4 -5 0 -10 -5 -10 -11z"/><path d="M1510 2079 c0 -5 5 -7 10 -4 6 3 10 8 10 11 0 2 -4 4 -10 4 -5 0 -10 -5 -10 -11z"/><path d="M1340 2070 c0 -5 7 -10 15 -10 8 0 15 5 15 10 0 6 -7 10 -15 10 -8 0 -15 -4 -15 -10z"/><path d="M822 2053 c4 -22 43 -25 43 -3 0 8 -11 16 -23 18 -19 3 -23 0 -20 -15z"/><path d="M1226 2063 c-11 -11 -6 -23 9 -23 8 0 15 4 15 9 0 13 -16 22 -24 14z"/><path d="M1270 2060 c0 -5 5 -10 10 -10 6 0 10 5 10 10 0 6 -4 10 -10 10 -5 0 -10 -4 -10 -10z"/><path d="M1310 2060 c0 -5 5 -10 10 -10 6 0 10 5 10 10 0 6 -4 10 -10 10 -5 0 -10 -4 -10 -10z"/><path d="M1176 2051 c-3 -5 -15 -7 -25 -4 -10 3 -22 0 -25 -6 -4 -6 -16 -11 -27 -11 -10 0 -19 -6 -19 -14 0 -22 22 -31 34 -14 6 8 17 13 25 10 8 -2 18 2 22 11 6 9 17 13 29 10 14 -4 20 0 20 11 0 17 -25 22 -34 7z"/><path d="M472 2016 c7 -8 15 -12 17 -11 5 6 -10 25 -20 25 -5 0 -4 -6 3 -14z"/><path d="M765 2020 c-4 -7 -3 -16 3 -22 14 -14 45 -2 40 15 -6 16 -34 21 -43 7z"/><path d="M1037 2014 c-14 -15 -6 -34 14 -34 14 0 19 5 17 17 -3 18 -20 27 -31 17z"/><path d="M710 1980 c0 -13 7 -20 20 -20 13 0 20 7 20 20 0 13 -7 20 -20 20 -13 0 -20 -7 -20 -20z"/><path d="M975 1980 c-8 -14 3 -30 21 -30 8 0 14 9 14 20 0 21 -24 28 -35 10z"/><path d="M437 1959 c7 -7 15 -10 18 -7 3 3 -2 9 -12 12 -14 6 -15 5 -6 -5z"/><path d="M920 1951 c0 -15 6 -21 21 -21 14 0 19 5 17 17 -5 26 -38 29 -38 4z"/><path d="M677 1953 c-12 -11 -8 -23 8 -23 8 0 15 7 15 15 0 16 -12 20 -23 8z"/><path d="M887 1934 c-8 -8 1 -24 14 -24 5 0 9 7 9 15 0 15 -12 20 -23 9z"/><path d="M630 1905 c0 -8 7 -15 15 -15 8 0 15 7 15 15 0 8 -7 15 -15 15 -8 0 -15 -7 -15 -15z"/><path d="M840 1894 c0 -17 22 -14 28 4 2 7 -3 12 -12 12 -9 0 -16 -7 -16 -16z"/><path d="M390 1881 c0 -6 4 -13 10 -16 6 -3 7 1 4 9 -7 18 -14 21 -14 7z"/><path d="M600 1876 c0 -9 7 -16 16 -16 17 0 14 22 -4 28 -7 2 -12 -3 -12 -12z"/><path d="M792 1876 c-23 -11 -25 -27 -4 -34 7 -2 12 3 12 12 0 10 6 13 15 10 9 -4 15 0 15 10 0 18 -5 18 -38 2z"/><path d="M565 1851 c-7 -12 12 -24 25 -16 11 7 4 25 -10 25 -5 0 -11 -4 -15 -9z"/><path d="M392 1834 c-7 -8 -8 -14 -3 -14 10 0 25 19 20 25 -2 1 -10 -3 -17 -11z"/><path d="M740 1829 c0 -5 5 -7 10 -4 6 3 10 8 10 11 0 2 -4 4 -10 4 -5 0 -10 -5 -10 -11z"/><path d="M480 1750 c0 -5 5 -10 11 -10 5 0 7 5 4 10 -3 6 -8 10 -11 10 -2 0 -4 -4 -4 -10z"/><path d="M4140 383 c0 -43 -4 -73 -8 -67 -10 16 -48 34 -71 34 -31 0 -80 -47 -87 -86 -21 -115 70 -196 150 -133 l26 20 0 -20 c0 -12 5 -21 10 -21 6 0 10 65 10 175 0 149 -2 175 -15 175 -12 0 -15 -15 -15 -77z m-17 -85 c11 -13 17 -37 17 -68 0 -121 -121 -140 -137 -21 -13 97 63 154 120 89z"/><path d="M3780 435 c0 -8 7 -15 15 -15 8 0 15 7 15 15 0 8 -7 15 -15 15 -8 0 -15 -7 -15 -15z"/><path d="M5320 314 c0 -96 3 -125 13 -122 8 3 13 40 15 126 2 104 0 122 -13 122 -13 0 -15 -20 -15 -126z"/><path d="M4390 337 c-38 -19 -63 -79 -56 -132 11 -73 64 -109 140 -95 52 9 42 28 -13 22 -43 -4 -53 -1 -75 21 -14 15 -26 35 -26 46 0 18 8 20 83 23 l82 3 -3 30 c-7 78 -67 115 -132 82z m78 -24 c12 -10 24 -30 28 -45 l6 -28 -71 0 c-43 0 -71 4 -71 10 0 22 30 69 47 73 33 9 41 7 61 -10z"/><path d="M4703 340 c-38 -15 -26 -28 22 -22 51 5 75 -8 75 -43 0 -20 -6 -23 -52 -27 -41 -4 -57 -11 -76 -33 -26 -31 -24 -70 5 -92 23 -17 75 -16 99 2 25 19 34 19 34 0 0 -8 5 -15 10 -15 6 0 10 38 10 95 0 88 -2 98 -25 120 -25 26 -62 31 -102 15z m97 -140 c0 -60 -84 -98 -110 -50 -24 44 10 78 78 79 29 1 32 -2 32 -29z"/><path d="M5035 343 c-32 -8 -45 -24 -45 -55 0 -22 7 -33 31 -46 53 -29 79 -53 79 -72 0 -26 -36 -43 -77 -37 -24 4 -33 2 -30 -6 2 -7 24 -13 50 -15 36 -2 51 2 66 17 42 42 24 78 -59 123 -23 13 -31 24 -28 40 3 20 9 23 51 23 31 0 47 4 47 13 0 6 -6 12 -12 12 -7 0 -22 2 -33 4 -11 2 -29 2 -40 -1z"/><path d="M3790 225 c0 -70 4 -115 10 -115 6 0 10 45 10 115 0 70 -4 115 -10 115 -6 0 -10 -45 -10 -115z"/><path d="M5320 130 c0 -11 7 -20 15 -20 8 0 15 9 15 20 0 11 -7 20 -15 20 -8 0 -15 -9 -15 -20z"/></g><g transform="translate(0.000000,307.000000) scale(0.100000,-0.100000)" fill="#397FB2" stroke="none"><path d="M1460 2849 c0 -5 5 -7 10 -4 6 3 10 8 10 11 0 2 -4 4 -10 4 -5 0 -10 -5 -10 -11z"/><path d="M1192 2736 c7 -8 15 -12 17 -11 5 6 -10 25 -20 25 -5 0 -4 -6 3 -14z"/><path d="M1136 2722 c-2 -4 4 -8 14 -8 10 0 16 4 14 8 -3 4 -9 8 -14 8 -5 0 -11 -4 -14 -8z"/><path d="M1081 2654 c0 -11 3 -14 6 -6 3 7 2 16 -1 19 -3 4 -6 -2 -5 -13z"/><path d="M1807 2629 c7 -7 15 -10 18 -7 3 3 -2 9 -12 12 -14 6 -15 5 -6 -5z"/><path d="M1615 2620 c-3 -5 -12 -7 -20 -4 -8 3 -18 -4 -25 -18 -11 -22 -11 -22 5 -3 13 17 17 18 25 5 8 -12 10 -12 16 3 4 10 13 16 21 13 8 -3 11 -1 8 4 -8 13 -22 13 -30 0z"/><path d="M1666 2621 c-4 -5 -2 -12 3 -15 5 -4 12 -2 15 3 4 5 2 12 -3 15 -5 4 -12 2 -15 -3z"/><path d="M1445 2570 c-8 -13 3 -30 18 -30 8 0 7 3 -2 9 -7 5 -10 14 -7 20 4 6 5 11 2 11 -3 0 -8 -4 -11 -10z"/><path d="M743 2555 c0 -8 4 -12 9 -9 5 3 6 10 3 15 -9 13 -12 11 -12 -6z"/><path d="M1378 2528 c4 -18 2 -20 -18 -15 -16 4 -20 3 -12 -5 6 -6 18 -8 26 -5 17 7 21 32 7 41 -5 4 -7 -4 -3 -16z"/><path d="M1280 2511 c-8 -16 -6 -21 11 -26 12 -4 26 -2 31 3 8 8 4 9 -12 5 -20 -5 -22 -3 -18 15 7 27 2 28 -12 3z"/><path d="M1220 2495 c-7 -9 -8 -15 -2 -15 5 0 12 7 16 15 3 8 4 15 2 15 -2 0 -9 -7 -16 -15z"/><path d="M660 2480 c-9 -6 -10 -10 -3 -10 6 0 15 5 18 10 8 12 4 12 -15 0z"/><path d="M1106 2461 c-3 -4 6 -6 20 -3 19 3 26 0 31 -17 3 -11 10 -18 15 -15 13 8 -21 44 -43 44 -10 0 -20 -4 -23 -9z"/><path d="M658 2453 c-10 -2 -18 -11 -18 -19 0 -11 4 -10 20 3 17 15 26 26 18 22 -2 -1 -11 -3 -20 -6z"/><path d="M721 2404 c0 -11 3 -14 6 -6 3 7 2 16 -1 19 -3 4 -6 -2 -5 -13z"/><path d="M1031 2394 c0 -11 3 -14 6 -6 3 7 2 16 -1 19 -3 4 -6 -2 -5 -13z"/><path d="M1101 2394 c0 -11 3 -14 6 -6 3 7 2 16 -1 19 -3 4 -6 -2 -5 -13z"/><path d="M583 2383 c1 -17 5 -20 19 -12 10 5 18 15 18 22 0 8 -4 6 -10 -3 -9 -13 -11 -13 -20 0 -7 12 -9 10 -7 -7z"/><path d="M1033 2345 c-6 -14 -7 -23 -2 -19 13 8 31 44 22 44 -4 0 -13 -11 -20 -25z"/><path d="M987 2329 c7 -7 15 -10 18 -7 3 3 -2 9 -12 12 -14 6 -15 5 -6 -5z"/><path d="M666 2311 c-4 -5 -2 -12 3 -15 5 -4 12 -2 15 3 4 5 2 12 -3 15 -5 4 -12 2 -15 -3z"/><path d="M901 2307 c-1 -11 -6 -15 -13 -11 -7 5 -8 3 -3 -5 10 -16 29 2 22 21 -4 8 -6 7 -6 -5z"/><path d="M540 2290 c-9 -6 -10 -10 -3 -10 6 0 15 5 18 10 8 12 4 12 -15 0z"/><path d="M514 2260 c0 -13 4 -16 10 -10 7 7 7 13 0 20 -6 6 -10 3 -10 -10z"/><path d="M830 2268 c0 -9 -6 -19 -12 -21 -10 -4 -10 -6 0 -6 14 -1 28 26 18 36 -3 4 -6 -1 -6 -9z"/><path d="M1295 2241 c-6 -11 13 -26 22 -17 4 3 1 6 -6 6 -7 0 -9 5 -6 10 3 6 4 10 1 10 -3 0 -7 -4 -11 -9z"/><path d="M837 2211 c-4 -17 -3 -21 5 -13 5 5 8 16 6 23 -3 8 -7 3 -11 -10z"/><path d="M1196 2211 c-4 -5 -2 -12 3 -15 5 -4 12 -2 15 3 4 5 2 12 -3 15 -5 4 -12 2 -15 -3z"/><path d="M1047 2154 c2 -7 -4 -14 -14 -17 -16 -4 -16 -5 -1 -6 10 0 22 7 27 17 7 14 6 19 -4 19 -7 0 -11 -6 -8 -13z"/><path d="M705 2150 c-3 -6 1 -7 9 -4 18 7 21 14 7 14 -6 0 -13 -4 -16 -10z"/><path d="M383 2132 c-10 -9 -14 -14 -8 -11 5 4 19 9 30 11 13 2 16 6 9 11 -7 4 -20 -1 -31 -11z"/><path d="M912 2095 c0 -16 2 -22 5 -12 2 9 2 23 0 30 -3 6 -5 -1 -5 -18z"/><path d="M960 2109 c0 -5 5 -7 10 -4 6 3 10 8 10 11 0 2 -4 4 -10 4 -5 0 -10 -5 -10 -11z"/><path d="M1470 2090 c-8 -5 -12 -12 -9 -15 4 -3 12 1 19 10 14 17 11 19 -10 5z"/><path d="M1499 2083 c-13 -16 -12 -17 4 -4 16 13 21 21 13 21 -2 0 -10 -8 -17 -17z"/><path d="M374 2073 c10 -13 23 -20 29 -16 7 4 6 8 -3 11 -8 3 -22 10 -30 16 -8 6 -7 1 4 -11z"/><path d="M846 2081 c-19 -7 -19 -8 2 -13 15 -4 22 -2 22 8 0 8 -1 14 -2 13 -2 0 -12 -4 -22 -8z"/><path d="M1348 2083 c7 -3 16 -2 19 1 4 3 -2 6 -13 5 -11 0 -14 -3 -6 -6z"/><path d="M1389 2081 c11 -7 11 -9 0 -14 -8 -3 1 -4 20 -2 36 4 48 11 37 22 -4 4 -11 1 -16 -7 -6 -8 -10 -10 -10 -5 0 6 -10 12 -22 12 -16 2 -19 0 -9 -6z"/><path d="M1540 2079 c0 -5 5 -7 10 -4 6 3 10 8 10 11 0 2 -4 4 -10 4 -5 0 -10 -5 -10 -11z"/><path d="M1626 2082 c-3 -5 1 -9 9 -9 8 0 12 4 9 9 -3 4 -7 8 -9 8 -2 0 -6 -4 -9 -8z"/><path d="M1265 2070 c-4 -6 -12 -8 -18 -4 -7 3 -3 -2 7 -10 11 -9 25 -16 30 -16 6 0 5 4 -3 9 -7 5 -10 14 -7 20 4 6 5 11 2 11 -3 0 -8 -5 -11 -10z"/><path d="M1304 2069 c-5 -8 -3 -9 6 -4 7 4 16 2 22 -6 8 -12 9 -12 6 0 -6 20 -24 25 -34 10z"/><path d="M335 2059 c-4 -6 -5 -12 -2 -15 2 -3 7 2 10 11 7 17 1 20 -8 4z"/><path d="M1173 2058 c-4 -7 -8 -22 -10 -33 -1 -11 0 -15 3 -9 3 7 15 10 27 8 19 -4 18 -3 -3 6 -24 11 -24 12 -6 26 11 8 15 14 9 14 -7 0 -15 -6 -20 -12z"/><path d="M1125 2050 c-3 -6 1 -7 9 -4 18 7 21 14 7 14 -6 0 -13 -4 -16 -10z"/><path d="M610 2030 c-12 -7 -12 -10 -1 -10 8 0 11 -6 7 -16 -3 -8 -2 -12 3 -9 7 4 13 47 6 45 0 0 -7 -5 -15 -10z"/><path d="M767 2033 c-3 -5 5 -8 18 -8 13 0 21 3 18 8 -2 4 -10 7 -18 7 -8 0 -16 -3 -18 -7z"/><path d="M1073 2029 c-6 -6 -9 -18 -6 -25 8 -21 22 -17 16 5 -3 13 1 21 14 24 13 3 14 5 3 6 -9 0 -21 -4 -27 -10z"/><path d="M452 2009 c3 -8 -2 -20 -11 -27 -9 -8 -10 -10 -2 -6 7 3 18 0 23 -7 8 -11 9 -10 5 3 -3 9 -2 18 3 20 4 2 1 9 -7 17 -14 12 -15 12 -11 0z"/><path d="M320 2006 c0 -7 50 -13 55 -7 2 4 -10 8 -26 9 -16 1 -29 1 -29 -2z"/><path d="M755 1989 c-4 -6 -5 -12 -2 -15 2 -3 7 2 10 11 7 17 1 20 -8 4z"/><path d="M975 1990 c-3 -6 1 -7 9 -4 18 7 21 14 7 14 -6 0 -13 -4 -16 -10z"/><path d="M1014 1985 c-3 -8 -4 -20 -2 -27 3 -7 7 -1 10 15 6 29 1 36 -8 12z"/><path d="M301 1974 c0 -11 3 -14 6 -6 3 7 2 16 -1 19 -3 4 -6 -2 -5 -13z"/><path d="M555 1979 c-4 -6 -4 -13 -1 -16 3 -4 6 -1 6 6 0 8 6 11 16 7 8 -3 12 -2 9 4 -8 13 -22 13 -30 -1z"/><path d="M948 1962 c9 -11 21 -17 25 -14 5 2 0 10 -10 18 -26 20 -36 17 -15 -4z"/><path d="M1048 1973 c7 -3 16 -2 19 1 4 3 -2 6 -13 5 -11 0 -14 -3 -6 -6z"/><path d="M700 1948 c0 -9 -6 -19 -12 -21 -10 -4 -10 -6 0 -6 14 -1 28 26 18 36 -3 4 -6 -1 -6 -9z"/><path d="M912 1935 c0 -16 2 -22 5 -12 2 9 2 23 0 30 -3 6 -5 -1 -5 -18z"/><path d="M298 1923 c7 -3 16 -2 19 1 4 3 -2 6 -13 5 -11 0 -14 -3 -6 -6z"/><path d="M535 1910 c-3 -6 1 -7 9 -4 18 7 21 14 7 14 -6 0 -13 -4 -16 -10z"/><path d="M820 1900 c-14 -11 -18 -18 -8 -14 10 3 18 -1 21 -13 3 -12 5 -10 6 9 0 14 7 29 14 31 6 3 8 6 2 6 -5 0 -21 -8 -35 -19z"/><path d="M405 1900 c-3 -5 -1 -10 5 -10 7 0 9 -7 6 -16 -3 -8 -2 -12 3 -9 11 6 10 45 -1 45 -4 0 -10 -4 -13 -10z"/><path d="M501 1894 c0 -11 3 -14 6 -6 3 7 2 16 -1 19 -3 4 -6 -2 -5 -13z"/><path d="M591 1873 c-1 -16 5 -23 17 -23 10 0 13 3 6 8 -6 4 -14 14 -17 22 -4 10 -6 8 -6 -7z"/><path d="M375 1849 c-11 -16 -1 -19 13 -3 7 8 8 14 3 14 -5 0 -13 -5 -16 -11z"/><path d="M570 1826 c7 -7 13 -7 20 0 6 6 3 10 -10 10 -13 0 -16 -4 -10 -10z"/><path d="M301 1814 c0 -11 3 -14 6 -6 3 7 2 16 -1 19 -3 4 -6 -2 -5 -13z"/><path d="M243 1793 c4 -3 3 -11 -2 -17 -6 -7 -2 -11 14 -11 22 0 22 1 8 18 -9 9 -18 17 -21 17 -3 0 -2 -3 1 -7z"/><path d="M668 1773 c6 -2 18 -2 25 0 6 3 1 5 -13 5 -14 0 -19 -2 -12 -5z"/><path d="M346 1758 c3 -5 10 -6 15 -3 13 9 11 12 -6 12 -8 0 -12 -4 -9 -9z"/><path d="M605 1722 c-20 -19 -34 -36 -31 -39 3 -4 16 6 29 20 12 15 28 27 36 27 7 0 19 6 27 14 12 13 12 15 -5 13 -10 0 -35 -16 -56 -35z"/><path d="M237 1728 c2 -5 10 -8 18 -8 8 0 16 3 18 8 3 4 -5 7 -18 7 -13 0 -21 -3 -18 -7z"/><path d="M248 1692 c9 -10 19 -17 21 -16 6 5 -20 34 -30 34 -5 0 -1 -8 9 -18z"/><path d="M370 1675 c0 -8 2 -15 4 -15 2 0 6 7 10 15 3 8 1 15 -4 15 -6 0 -10 -7 -10 -15z"/><path d="M213 1657 c0 -8 6 -14 14 -14 9 0 10 4 2 14 -6 7 -12 13 -14 13 -1 0 -2 -6 -2 -13z"/><path d="M525 1635 c-16 -14 -25 -25 -19 -25 6 0 21 11 34 25 30 32 24 31 -15 0z"/><path d="M197 1597 c-3 -7 5 -12 19 -12 29 0 29 1 5 14 -14 8 -20 7 -24 -2z"/><path d="M456 1563 c-6 -14 -5 -15 5 -6 7 7 10 15 7 18 -3 3 -9 -2 -12 -12z"/><path d="M197 1548 c2 -5 10 -8 18 -8 8 0 16 3 18 8 3 4 -5 7 -18 7 -13 0 -21 -3 -18 -7z"/><path d="M276 1552 c-3 -6 -1 -14 5 -17 15 -10 25 3 12 16 -7 7 -13 7 -17 1z"/><path d="M1288 1553 c7 -3 16 -2 19 1 4 3 -2 6 -13 5 -11 0 -14 -3 -6 -6z"/><path d="M188 1443 c7 -3 16 -2 19 1 4 3 -2 6 -13 5 -11 0 -14 -3 -6 -6z"/><path d="M245 1440 c-3 -5 -1 -10 4 -10 6 0 11 5 11 10 0 6 -2 10 -4 10 -3 0 -8 -4 -11 -10z"/><path d="M230 1401 c0 -6 4 -13 10 -16 6 -3 7 1 4 9 -7 18 -14 21 -14 7z"/><path d="M1454 1195 c0 -115 2 -161 3 -102 2 59 2 154 0 210 -1 56 -3 8 -3 -108z"/><path d="M180 1376 c0 -2 7 -7 16 -10 8 -3 12 -2 9 4 -6 10 -25 14 -25 6z"/><path d="M180 1339 c0 -5 5 -7 10 -4 6 3 10 8 10 11 0 2 -4 4 -10 4 -5 0 -10 -5 -10 -11z"/><path d="M166 1241 c-4 -5 -2 -12 3 -15 5 -4 12 -2 15 3 4 5 2 12 -3 15 -5 4 -12 2 -15 -3z"/><path d="M168 1203 c6 -2 9 -10 6 -15 -4 -7 -2 -8 5 -4 13 9 5 26 -12 25 -9 0 -8 -2 1 -6z"/></g><g transform="translate(0.000000,307.000000) scale(0.100000,-0.100000)" fill="#0072CC" stroke="none"><path d="M0 1880 l0 -1190 930 0 930 0 0 1190 0 1190 -930 0 -930 0 0 -1190z m1530 1001 c0 -6 -4 -13 -10 -16 -5 -3 -10 1 -10 9 0 9 5 16 10 16 6 0 10 -4 10 -9z m-40 -20 c0 -12 -30 -22 -43 -14 -7 4 -3 9 9 14 26 10 34 10 34 0z m-60 -21 c0 -5 -4 -10 -10 -10 -5 0 -10 5 -10 10 0 6 5 10 10 10 6 0 10 -4 10 -10z m-40 -15 c0 -8 -4 -15 -10 -15 -5 0 -10 7 -10 15 0 8 5 15 10 15 6 0 10 -7 10 -15z m-40 -15 c0 -5 -4 -10 -10 -10 -5 0 -10 5 -10 10 0 6 5 10 10 10 6 0 10 -4 10 -10z m-32 -17 c-5 -25 -28 -28 -28 -4 0 12 6 21 16 21 9 0 14 -7 12 -17z m-40 -20 c-4 -22 -22 -20 -26 1 -2 10 3 16 13 16 10 0 15 -7 13 -17z m-38 -24 c0 -24 -23 -21 -28 4 -2 10 3 17 12 17 10 0 16 -9 16 -21z m-34 -10 c10 -17 -13 -36 -27 -22 -12 12 -4 33 11 33 5 0 12 -5 16 -11z m-40 -20 c10 -17 -13 -36 -27 -22 -12 12 -4 33 11 33 5 0 12 -5 16 -11z m-38 -37 c2 -7 -5 -16 -16 -19 -11 -3 -23 -11 -26 -19 -3 -8 -15 -14 -26 -14 -26 0 -26 30 0 37 11 3 20 12 20 20 0 18 42 14 48 -5z m-228 -2 c0 -5 -4 -10 -10 -10 -5 0 -10 5 -10 10 0 6 5 10 10 10 6 0 10 -4 10 -10z m-30 -30 c0 -5 -4 -10 -10 -10 -5 0 -10 5 -10 10 0 6 5 10 10 10 6 0 10 -4 10 -10z m-20 -21 c0 -5 -4 -9 -10 -9 -5 0 -10 7 -10 16 0 8 5 12 10 9 6 -3 10 -10 10 -16z m980 7 c0 -8 -10 -13 -25 -13 -31 0 -33 14 -2 20 12 2 23 5 25 6 1 0 2 -5 2 -13z m-797 -10 c8 -20 -20 -43 -35 -28 -14 14 -3 42 16 42 7 0 16 -6 19 -14z m727 4 c0 -5 -4 -10 -10 -10 -5 0 -10 5 -10 10 0 6 5 10 10 10 6 0 10 -4 10 -10z m-112 -24 c3 -12 -2 -17 -15 -15 -10 2 -24 0 -31 -5 -17 -10 -37 8 -27 24 4 6 13 9 21 6 7 -3 16 -1 20 5 9 14 28 5 32 -15z m36 3 c-3 -5 -10 -7 -15 -3 -5 3 -7 10 -3 15 3 5 10 7 15 3 5 -3 7 -10 3 -15z m36 11 c0 -5 -4 -10 -10 -10 -5 0 -10 5 -10 10 0 6 5 10 10 10 6 0 10 -4 10 -10z m-900 -10 c0 -5 -7 -10 -16 -10 -8 0 -12 5 -9 10 3 6 10 10 16 10 5 0 9 -4 9 -10z m165 -25 c0 -13 -8 -21 -22 -23 -15 -2 -23 -10 -23 -23 0 -18 -4 -21 -32 -23 -7 -1 -15 -10 -18 -21 -3 -10 -17 -22 -30 -26 -14 -4 -21 -7 -17 -8 16 -2 -14 -41 -32 -41 -11 0 -18 -7 -17 -16 2 -24 -30 -41 -51 -28 -25 15 -22 47 4 59 12 5 24 18 27 28 2 10 13 21 23 23 10 3 23 15 28 27 6 12 20 23 31 25 12 2 24 12 27 24 5 16 12 19 31 16 21 -4 26 -1 26 14 0 14 6 19 23 16 14 -2 22 -10 22 -23z m579 -6 c-8 -14 -34 -11 -34 4 0 8 3 17 7 20 9 9 34 -13 27 -24z m-774 1 c0 -5 -4 -10 -9 -10 -6 0 -13 5 -16 10 -3 6 1 10 9 10 9 0 16 -4 16 -10z m728 -7 c-4 -22 -22 -20 -26 1 -2 10 3 16 13 16 10 0 15 -7 13 -17z m-38 -7 c0 -20 -19 -31 -32 -18 -6 6 -7 15 -4 21 10 16 36 13 36 -3z m-725 -5 c3 -5 1 -12 -5 -16 -5 -3 -10 1 -10 9 0 18 6 21 15 7z m673 -13 c-2 -13 -10 -23 -18 -23 -8 0 -20 -6 -26 -14 -15 -19 -47 -6 -42 16 2 11 12 18 26 17 12 0 22 5 22 13 0 7 9 13 21 13 15 0 20 -5 17 -22z m-695 -23 c1 -5 -6 -11 -15 -13 -11 -2 -18 3 -18 13 0 17 30 18 33 0z m592 -20 c0 -13 -7 -20 -20 -20 -11 0 -24 -6 -28 -12 -4 -7 -19 -13 -31 -13 -13 0 -26 -7 -30 -15 -3 -8 -14 -15 -23 -15 -10 0 -27 -9 -36 -21 -10 -11 -24 -18 -31 -16 -7 3 -18 -4 -24 -14 -7 -10 -20 -19 -30 -19 -9 0 -23 -9 -30 -20 -16 -26 -48 -26 -62 1 -13 24 2 49 29 49 9 0 22 9 29 20 7 11 21 20 32 20 10 0 24 9 30 21 7 13 19 19 33 17 12 -2 30 5 40 15 10 10 22 15 27 12 6 -3 20 1 32 9 15 11 25 12 34 5 8 -6 14 -5 18 6 8 23 41 14 41 -10z m-620 -6 c4 -6 -2 -13 -14 -16 -12 -3 -20 -10 -19 -17 3 -15 -33 -56 -49 -56 -7 0 -13 7 -13 15 0 8 7 15 15 15 8 0 15 7 15 15 0 9 7 18 15 21 8 4 15 12 15 20 0 16 26 19 35 3z m-89 -100 c10 -17 -13 -36 -27 -22 -12 12 -4 33 11 33 5 0 12 -5 16 -11z m-26 -44 c0 -7 -6 -18 -14 -22 -8 -4 -15 -17 -18 -28 -5 -27 -32 -25 -36 3 -2 15 2 22 13 22 9 0 13 5 10 10 -9 15 4 30 26 30 10 0 19 -7 19 -15z m141 -1 c9 -11 10 -20 2 -32 -15 -24 -44 -27 -59 -7 -28 38 27 75 57 39z m238 -28 c9 -11 10 -20 1 -35 -21 -40 -79 -15 -65 29 7 24 46 27 64 6z m-292 -32 c8 -22 -10 -49 -32 -49 -10 0 -22 7 -28 16 -15 24 -1 49 28 49 15 0 28 -7 32 -16z m223 -15 c23 -41 -38 -68 -63 -27 -8 12 -7 21 2 32 19 22 48 20 61 -5z m-375 -19 c0 -8 -10 -16 -22 -18 -18 -3 -23 2 -23 18 0 16 5 21 23 18 12 -2 22 -10 22 -18z m103 -34 c5 -24 -10 -38 -31 -30 -17 6 -23 35 -10 48 12 12 38 1 41 -18z m212 9 c17 -20 5 -45 -20 -45 -11 0 -23 7 -26 15 -6 15 11 45 26 45 4 0 13 -7 20 -15z m477 -11 c-9 -9 -28 6 -21 18 4 6 10 6 17 -1 6 -6 8 -13 4 -17z m33 16 c0 -5 -4 -10 -10 -10 -5 0 -10 5 -10 10 0 6 5 10 10 10 6 0 10 -4 10 -10z m-862 -28 c3 -16 -2 -22 -17 -22 -24 0 -35 15 -27 36 9 23 40 13 44 -14z m788 1 c-10 -10 -19 5 -10 18 6 11 8 11 12 0 2 -7 1 -15 -2 -18z m-26 2 c0 -8 -4 -15 -10 -15 -5 0 -10 7 -10 15 0 8 5 15 10 15 6 0 10 -7 10 -15z m-36 -16 c-3 -5 -10 -7 -15 -3 -5 3 -7 10 -3 15 3 5 10 7 15 3 5 -3 7 -10 3 -15z m-34 -4 c0 -8 -7 -15 -15 -15 -8 0 -15 7 -15 15 0 8 7 15 15 15 8 0 15 -7 15 -15z m-390 -27 c0 -11 -8 -22 -20 -25 -11 -3 -20 -12 -20 -20 0 -8 -9 -17 -19 -20 -11 -3 -21 -14 -24 -25 -7 -24 -40 -21 -45 5 -4 20 53 81 68 72 5 -3 10 3 10 14 0 10 6 21 13 24 20 7 37 -4 37 -25z m350 6 c0 -16 -16 -19 -25 -4 -8 13 4 32 16 25 5 -4 9 -13 9 -21z m-682 -12 c3 -16 -2 -25 -16 -28 -13 -4 -18 -12 -15 -28 3 -13 -2 -28 -11 -35 -9 -8 -16 -24 -16 -36 0 -13 -6 -25 -14 -28 -8 -3 -16 -18 -18 -34 -2 -22 -9 -29 -30 -31 -35 -4 -50 34 -22 57 11 10 18 26 16 39 -3 16 2 25 16 28 14 4 18 12 14 29 -3 16 2 28 17 37 12 7 21 20 21 29 0 38 53 39 58 1z m130 0 c2 -13 -3 -25 -12 -28 -9 -3 -16 -15 -16 -25 0 -10 -5 -19 -10 -19 -6 0 -15 -12 -20 -26 -7 -16 -16 -24 -28 -22 -18 3 -30 48 -12 48 6 0 15 11 20 25 5 14 14 25 20 25 5 0 10 8 10 18 0 39 43 43 48 4z m507 9 c7 -12 -12 -24 -25 -16 -11 7 -4 25 10 25 5 0 11 -4 15 -9z m-40 -21 c0 -8 -8 -16 -17 -18 -13 -2 -18 3 -18 18 0 15 5 20 18 18 9 -2 17 -10 17 -18z m-45 -21 c0 -12 -7 -19 -19 -19 -10 0 -24 -7 -31 -15 -7 -9 -18 -14 -25 -11 -6 2 -17 -5 -24 -16 -7 -11 -18 -17 -25 -15 -7 3 -18 -3 -24 -14 -14 -23 -42 -15 -42 12 0 11 10 23 24 29 13 5 27 14 31 20 4 6 13 9 20 6 7 -2 16 2 19 11 4 10 15 14 30 11 18 -4 26 0 29 14 7 24 37 13 37 -13z m517 -46 c2 -6 -10 -11 -29 -10 -18 0 -52 -3 -75 -6 -31 -4 -43 -2 -43 7 0 8 16 13 47 15 26 1 48 3 50 4 7 8 47 0 50 -10z m-159 -10 c-3 -19 -53 -26 -53 -8 0 6 6 9 13 9 6 -1 12 2 12 7 0 5 7 9 16 9 9 0 14 -7 12 -17z m192 13 c0 -3 -4 -8 -10 -11 -5 -3 -10 -1 -10 4 0 6 5 11 10 11 6 0 10 -2 10 -4z m100 -12 c0 -2 -9 -4 -21 -4 -11 0 -18 4 -14 10 5 8 35 3 35 -6z m-370 -20 c0 -11 -6 -13 -20 -9 -12 4 -20 2 -20 -5 0 -7 -8 -9 -20 -5 -12 4 -20 2 -20 -5 0 -7 -8 -10 -18 -8 -10 3 -23 -1 -30 -8 -7 -7 -19 -11 -27 -8 -8 4 -15 1 -15 -5 0 -6 -11 -11 -25 -11 -14 0 -25 -4 -25 -10 0 -13 -23 -13 -37 1 -16 16 -5 39 17 39 11 0 22 5 26 11 3 6 14 9 24 6 11 -3 21 2 24 10 4 9 13 13 22 9 9 -4 23 -1 30 5 11 9 18 8 29 -1 12 -10 15 -10 15 0 0 7 8 10 20 7 11 -3 23 -1 26 4 8 13 24 1 24 -17z m-632 -11 c2 -8 -5 -13 -17 -13 -12 0 -21 6 -21 16 0 18 31 15 38 -3z m150 -27 c4 -21 -14 -37 -35 -29 -14 5 -18 35 -6 47 12 12 38 1 41 -18z m-322 3 c10 -17 -13 -36 -27 -22 -12 12 -4 33 11 33 5 0 12 -5 16 -11z m139 -10 c0 -7 -8 -15 -17 -17 -18 -3 -25 18 -11 32 10 10 28 1 28 -15z m131 -20 c3 -6 -1 -18 -10 -27 -15 -15 -17 -15 -32 0 -19 19 -11 38 16 38 10 0 22 -5 26 -11z m248 5 c32 -12 17 -51 -18 -45 -5 1 -17 -6 -27 -15 -11 -10 -22 -14 -25 -11 -4 3 -13 -1 -22 -9 -18 -19 -38 -4 -28 22 4 9 9 14 12 11 4 -3 14 4 24 16 15 17 20 19 33 9 12 -10 15 -9 20 8 6 22 8 23 31 14z m-538 -15 c10 -17 -13 -36 -27 -22 -12 12 -4 33 11 33 5 0 12 -5 16 -11z m122 -12 c2 -10 -3 -17 -12 -17 -18 0 -29 16 -21 31 9 14 29 6 33 -14z m120 -24 c-2 -10 -10 -18 -18 -18 -8 0 -16 8 -18 18 -2 12 3 17 18 17 15 0 20 -5 18 -17z m-144 -1 c8 -13 -11 -35 -23 -28 -16 10 -14 36 3 36 8 0 17 -4 20 -8z m-124 -16 c0 -8 -4 -17 -10 -21 -5 -3 -7 -12 -4 -19 7 -19 -15 -31 -29 -17 -8 8 -8 14 1 23 7 7 12 20 12 30 0 10 7 18 15 18 8 0 15 -6 15 -14z m-112 -8 c30 -30 -4 -77 -41 -57 -29 17 -15 69 18 69 6 0 16 -5 23 -12z m335 -5 c4 -3 2 -12 -4 -20 -9 -10 -15 -10 -25 -2 -8 6 -11 15 -8 20 6 11 28 12 37 2z m205 -16 c2 -10 -3 -17 -12 -17 -9 0 -16 -4 -16 -10 0 -5 -6 -10 -14 -10 -7 0 -19 -7 -26 -15 -16 -20 -36 -4 -26 21 4 9 9 14 12 11 3 -2 17 6 31 19 29 27 46 27 51 1z m-328 -2 c0 -8 -9 -15 -20 -15 -11 0 -20 7 -20 15 0 8 9 15 20 15 11 0 20 -7 20 -15z m90 -17 c0 -19 -48 -61 -60 -53 -15 10 -12 35 5 35 8 0 15 7 15 15 0 8 9 15 20 15 11 0 20 -6 20 -12z m-129 -11 c-1 -12 -15 -9 -19 4 -3 6 1 10 8 8 6 -3 11 -8 11 -12z m-95 -18 c10 -17 -13 -36 -27 -22 -12 12 -4 33 11 33 5 0 12 -5 16 -11z m-102 -22 c9 -15 7 -22 -9 -35 -11 -9 -20 -28 -20 -42 0 -16 -6 -26 -18 -28 -20 -4 -32 21 -22 46 5 9 7 27 6 39 -1 13 1 27 4 33 10 16 46 8 59 -13z m176 8 c0 -8 -4 -15 -10 -15 -5 0 -10 7 -10 15 0 8 5 15 10 15 6 0 10 -7 10 -15z m280 -5 c0 -5 -4 -10 -10 -10 -5 0 -10 5 -10 10 0 6 5 10 10 10 6 0 10 -4 10 -10z m-380 -25 c0 -8 -4 -15 -10 -15 -5 0 -10 7 -10 15 0 8 5 15 10 15 6 0 10 -7 10 -15z m71 -8 c-13 -13 -26 -3 -16 12 3 6 11 8 17 5 6 -4 6 -10 -1 -17z m99 13 c0 -5 -4 -10 -10 -10 -5 0 -10 5 -10 10 0 6 5 10 10 10 6 0 10 -4 10 -10z m180 0 c0 -5 -4 -10 -10 -10 -5 0 -10 5 -10 10 0 6 5 10 10 10 6 0 10 -4 10 -10z m960 -50 c0 -43 -3 -50 -20 -50 -17 0 -20 7 -20 50 0 43 3 50 20 50 17 0 20 -7 20 -50z m-990 29 c0 -11 -24 -39 -34 -39 -10 0 -6 20 7 35 15 17 27 19 27 4z m-170 -9 c0 -5 -4 -10 -10 -10 -5 0 -10 5 -10 10 0 6 5 10 10 10 6 0 10 -4 10 -10z m-166 -21 c-3 -5 -10 -7 -15 -3 -5 3 -7 10 -3 15 3 5 10 7 15 3 5 -3 7 -10 3 -15z m66 1 c0 -5 -4 -10 -10 -10 -5 0 -10 5 -10 10 0 6 5 10 10 10 6 0 10 -4 10 -10z m70 -10 c0 -5 -4 -10 -10 -10 -5 0 -10 5 -10 10 0 6 5 10 10 10 6 0 10 -4 10 -10z m160 -11 c0 -5 -7 -9 -15 -9 -8 0 -26 -12 -40 -26 -14 -14 -29 -24 -31 -21 -3 3 12 21 33 40 35 33 53 38 53 16z m-310 -9 c0 -5 -4 -10 -10 -10 -5 0 -10 5 -10 10 0 6 5 10 10 10 6 0 10 -4 10 -10z m60 0 c0 -5 -4 -10 -10 -10 -5 0 -10 5 -10 10 0 6 5 10 10 10 6 0 10 -4 10 -10z m70 -10 c0 -5 -4 -10 -10 -10 -5 0 -10 5 -10 10 0 6 5 10 10 10 6 0 10 -4 10 -10z m-220 -25 c10 -12 10 -18 -1 -31 -8 -9 -12 -27 -11 -40 2 -13 0 -24 -5 -24 -5 0 -9 -12 -8 -27 0 -21 -5 -28 -20 -28 -17 0 -20 6 -18 40 2 22 6 47 9 55 4 8 6 23 5 34 -2 17 13 35 30 36 4 0 12 -7 19 -15z m130 6 c0 -21 -13 -41 -26 -41 -8 0 -14 5 -14 10 0 6 5 10 10 10 6 0 10 7 10 15 0 8 5 15 10 15 6 0 10 -4 10 -9z m-59 -24 c-13 -13 -26 -3 -16 12 3 6 11 8 17 5 6 -4 6 -10 -1 -17z m129 13 c0 -5 -4 -10 -9 -10 -6 0 -13 5 -16 10 -3 6 1 10 9 10 9 0 16 -4 16 -10z m75 -60 c-16 -16 -31 -28 -33 -25 -6 6 51 63 57 58 3 -2 -8 -17 -24 -33z m-215 20 c0 -5 -4 -10 -10 -10 -5 0 -10 5 -10 10 0 6 5 10 10 10 6 0 10 -4 10 -10z m35 -10 c3 -5 1 -10 -4 -10 -6 0 -11 5 -11 10 0 6 2 10 4 10 3 0 8 -4 11 -10z m-25 -32 c0 -4 -9 -8 -20 -8 -11 0 -20 4 -20 9 0 6 9 9 20 8 11 -1 20 -5 20 -9z m-10 -28 c0 -5 -9 -10 -20 -10 -11 0 -20 5 -20 10 0 6 9 10 20 10 11 0 20 -4 20 -10z m496 -16 c68 -50 69 -54 74 -302 3 -125 9 -233 13 -239 5 -7 19 -13 33 -13 19 0 25 -5 22 -17 -3 -14 -13 -18 -38 -16 -40 2 -70 32 -70 71 l0 26 -32 -32 c-50 -48 -117 -73 -196 -74 -77 0 -116 15 -155 62 -30 35 -42 85 -33 138 13 84 77 123 248 151 133 22 155 31 164 66 7 27 -2 89 -17 117 -29 54 -175 71 -256 29 -43 -21 -73 -63 -73 -101 0 -13 -7 -20 -20 -20 -39 0 -19 79 32 127 44 42 87 53 185 51 74 -3 97 -7 119 -24z m580 7 c49 -22 80 -62 93 -122 6 -24 11 -140 11 -257 l0 -213 -22 3 c-23 3 -23 3 -28 243 -6 266 -8 278 -72 311 -45 23 -167 16 -204 -12 -72 -53 -84 -105 -84 -360 0 -177 -1 -184 -20 -184 -20 0 -20 7 -20 300 0 293 0 300 20 300 17 0 20 -7 20 -42 l0 -42 33 32 c17 17 48 38 67 46 50 22 155 20 206 -3z m-935 -14 c-10 -9 -11 -8 -5 6 3 10 9 15 12 12 3 -3 0 -11 -7 -18z m1229 -366 l0 -390 -23 -26 c-15 -18 -36 -28 -65 -32 -37 -5 -42 -3 -42 15 0 15 9 21 35 26 19 4 39 15 45 26 6 12 10 160 10 394 0 369 0 376 20 376 20 0 20 -7 20 -389z m-1393 343 c-9 -9 -28 6 -21 18 4 6 10 6 17 -1 6 -6 8 -13 4 -17z m-77 -29 c0 -8 -6 -15 -14 -15 -17 0 -28 14 -19 24 12 12 33 6 33 -9z m60 3 c0 -22 -17 -41 -24 -29 -4 6 -3 11 3 11 6 0 8 7 5 15 -4 8 -1 15 5 15 6 0 11 -6 11 -12z m-70 -54 c0 -8 -7 -14 -15 -14 -15 0 -21 21 -9 33 10 9 24 -2 24 -19z m50 -14 c0 -5 -4 -10 -10 -10 -5 0 -10 5 -10 10 0 6 5 10 10 10 6 0 10 -4 10 -10z m-57 -35 c1 -5 -6 -11 -15 -13 -11 -2 -18 3 -18 13 0 17 30 18 33 0z m50 -6 c-4 -15 -9 -17 -17 -9 -8 8 -7 13 4 20 8 5 16 10 17 10 0 0 -1 -9 -4 -21z m-52 -40 c-2 -8 -3 -24 -3 -36 1 -14 -4 -23 -13 -23 -10 0 -13 10 -10 38 4 47 3 44 18 39 6 -2 10 -11 8 -18z m-11 -79 c0 -5 -4 -10 -10 -10 -5 0 -10 5 -10 10 0 6 5 10 10 10 6 0 10 -4 10 -10z m-6 -51 c-3 -5 -10 -7 -15 -3 -5 3 -7 10 -3 15 3 5 10 7 15 3 5 -3 7 -10 3 -15z m-3 -32 c-1 -12 -15 -9 -19 4 -3 6 1 10 8 8 6 -3 11 -8 11 -12z m4 -47 c3 -5 -1 -10 -9 -10 -9 0 -16 5 -16 10 0 6 4 10 9 10 6 0 13 -4 16 -10z m5 -40 c0 -5 -7 -10 -15 -10 -8 0 -15 5 -15 10 0 6 7 10 15 10 8 0 15 -4 15 -10z m0 -40 c0 -5 -4 -10 -10 -10 -5 0 -10 5 -10 10 0 6 5 10 10 10 6 0 10 -4 10 -10z m0 -30 c0 -5 -4 -10 -10 -10 -5 0 -10 5 -10 10 0 6 5 10 10 10 6 0 10 -4 10 -10z m0 -40 c0 -5 -2 -10 -4 -10 -3 0 -8 5 -11 10 -3 6 -1 10 4 10 6 0 11 -4 11 -10z m0 -30 c0 -5 -5 -10 -11 -10 -5 0 -7 5 -4 10 3 6 8 10 11 10 2 0 4 -4 4 -10z m5 -30 c3 -5 1 -10 -4 -10 -6 0 -11 5 -11 10 0 6 2 10 4 10 3 0 8 -4 11 -10z m5 -90 c0 -5 -2 -10 -4 -10 -3 0 -8 5 -11 10 -3 6 -1 10 4 10 6 0 11 -4 11 -10z"/><path d="M735 1293 c-129 -21 -189 -40 -224 -69 -53 -44 -51 -133 5 -185 50 -47 195 -35 269 22 39 32 53 68 61 162 5 71 4 87 -7 86 -8 -1 -54 -8 -104 -16z"/><path d="M370 435 c0 -18 5 -25 20 -25 15 0 20 7 20 25 0 18 -5 25 -20 25 -15 0 -20 -7 -20 -25z"/><path d="M872 438 c2 -15 11 -24 26 -26 18 -3 22 1 22 22 0 21 -5 26 -26 26 -21 0 -25 -4 -22 -22z"/><path d="M3073 413 c-7 -3 -13 -18 -13 -34 0 -24 -4 -29 -25 -29 -16 0 -25 -6 -25 -15 0 -9 9 -15 25 -15 25 0 25 0 25 -94 0 -106 10 -126 61 -126 22 0 29 5 29 20 0 15 -7 20 -25 20 -25 0 -25 1 -25 90 0 89 0 90 25 90 16 0 25 6 25 15 0 9 -9 15 -25 15 -21 0 -25 5 -25 29 0 32 -7 41 -27 34z"/><path d="M35 326 c-62 -62 -34 -204 42 -219 16 -3 43 1 60 8 32 13 33 13 33 -8 0 -13 -7 -33 -16 -46 -15 -21 -22 -23 -75 -18 -52 4 -59 3 -59 -13 0 -12 10 -20 31 -24 60 -12 88 -7 121 23 l33 29 3 146 c3 125 1 146 -12 146 -8 0 -18 -5 -21 -10 -4 -7 -12 -7 -25 0 -34 18 -89 12 -115 -14z m115 -26 c28 -28 28 -108 0 -138 -47 -50 -110 -11 -110 68 0 78 62 118 110 70z"/><path d="M374 337 c-2 -7 -3 -62 -2 -123 3 -94 5 -109 21 -112 15 -3 17 8 17 122 0 107 -2 126 -15 126 -9 0 -18 -6 -21 -13z"/><path d="M551 333 c0 -10 17 -65 37 -123 30 -85 41 -105 57 -105 16 0 27 20 57 105 54 148 52 140 31 140 -15 0 -24 -17 -42 -72 -44 -137 -39 -135 -76 -28 -21 64 -37 96 -48 98 -11 2 -17 -3 -16 -15z"/><path d="M880 225 c0 -104 2 -125 15 -125 13 0 15 21 15 125 0 104 -2 125 -15 125 -13 0 -15 -21 -15 -125z"/><path d="M1082 228 c3 -101 6 -123 18 -123 12 0 16 19 20 87 6 97 24 131 69 126 37 -4 51 -41 51 -136 0 -74 2 -83 18 -80 34 6 28 192 -9 229 -21 21 -78 26 -110 9 -13 -7 -19 -7 -19 0 0 5 -9 10 -20 10 -20 0 -20 -5 -18 -122z"/><path d="M1456 325 c-60 -64 -37 -190 38 -215 35 -11 60 -6 90 19 18 15 19 15 12 -18 -11 -60 -32 -74 -98 -68 -46 4 -58 2 -58 -9 0 -32 91 -45 139 -20 43 23 51 54 51 201 0 113 -2 135 -15 135 -8 0 -15 -7 -15 -16 0 -14 -2 -14 -22 0 -36 25 -95 21 -122 -9z m118 -27 c9 -12 16 -43 16 -68 0 -57 -22 -90 -59 -90 -42 0 -66 33 -66 90 0 33 6 54 19 69 25 28 70 27 90 -1z"/><path d="M3317 329 c-47 -36 -57 -129 -21 -185 30 -45 113 -58 156 -24 60 46 64 153 9 202 -40 35 -105 39 -144 7z m110 -5 c-3 -4 3 -18 13 -32 36 -45 21 -129 -26 -151 -26 -11 -62 -2 -81 20 -35 44 -17 144 29 153 13 3 32 7 43 9 11 3 22 5 24 6 2 0 1 -2 -2 -5z"/></g><g transform="translate(0.000000,307.000000) scale(0.100000,-0.100000)" fill="#72B8E5" stroke="none"><path d="M1654 1796 c-3 -8 -4 -31 -1 -52 3 -38 4 -37 5 8 2 35 6 48 20 51 16 4 16 5 -1 6 -10 0 -20 -5 -23 -13z"/><path d="M1655 1215 c0 -203 1 -285 2 -182 2 104 2 270 0 370 -1 100 -2 16 -2 -188z"/><path d="M1248 1553 c6 -2 18 -2 25 0 6 3 1 5 -13 5 -14 0 -19 -2 -12 -5z"/><path d="M1318 1553 c7 -3 16 -2 19 1 4 3 -2 6 -13 5 -11 0 -14 -3 -6 -6z"/><path d="M1435 1540 c10 -11 20 -20 23 -20 3 0 -3 9 -13 20 -10 11 -20 20 -23 20 -3 0 3 -9 13 -20z"/><path d="M504 1528 l-19 -23 23 19 c21 18 27 26 19 26 -2 0 -12 -10 -23 -22z"/><path d="M1400 1526 c0 -2 8 -10 18 -17 15 -13 16 -12 3 4 -13 16 -21 21 -21 13z"/><path d="M1139 1503 c-13 -16 -12 -17 4 -4 9 7 17 15 17 17 0 8 -8 3 -21 -13z"/><path d="M883 1365 c0 -44 2 -61 4 -37 2 23 2 59 0 80 -2 20 -4 1 -4 -43z"/><path d="M1451 1414 c0 -11 3 -14 6 -6 3 7 2 16 -1 19 -3 4 -6 -2 -5 -13z"/><path d="M1494 1195 c0 -115 2 -161 3 -102 2 59 2 154 0 210 -1 56 -3 8 -3 -108z"/><path d="M738 1323 c7 -3 16 -2 19 1 4 3 -2 6 -13 5 -11 0 -14 -3 -6 -6z"/><path d="M668 1283 c7 -3 16 -2 19 1 4 3 -2 6 -13 5 -11 0 -14 -3 -6 -6z"/><path d="M884 1170 c0 -63 1 -89 3 -57 2 31 2 83 0 115 -2 31 -3 5 -3 -58z"/><path d="M469 1243 c-13 -16 -12 -17 4 -4 9 7 17 15 17 17 0 8 -8 3 -21 -13z"/><path d="M841 1174 c0 -11 3 -14 6 -6 3 7 2 16 -1 19 -3 4 -6 -2 -5 -13z"/><path d="M829 1063 c-13 -16 -12 -17 4 -4 9 7 17 15 17 17 0 8 -8 3 -21 -13z"/><path d="M588 1003 c7 -3 16 -2 19 1 4 3 -2 6 -13 5 -11 0 -14 -3 -6 -6z"/><path d="M633 1003 c9 -2 23 -2 30 0 6 3 -1 5 -18 5 -16 0 -22 -2 -12 -5z"/><path d="M860 1006 c0 -2 8 -10 18 -17 15 -13 16 -12 3 4 -13 16 -21 21 -21 13z"/><path d="M1564 760 c1 -9 12 -16 26 -17 21 -1 21 -1 3 3 -12 3 -24 11 -26 17 -2 7 -3 5 -3 -3z"/></g><g transform="translate(0.000000,307.000000) scale(0.100000,-0.100000)" fill="#F8FFFF" stroke="none"><path d="M1660 1755 c0 -33 4 -45 15 -45 11 0 15 12 15 45 0 33 -4 45 -15 45 -11 0 -15 -12 -15 -45z"/><path d="M591 1576 c-68 -23 -131 -95 -131 -151 0 -27 28 -16 35 15 16 72 90 119 188 120 111 0 167 -45 167 -134 0 -28 -4 -56 -8 -62 -14 -21 -51 -34 -129 -44 -127 -17 -206 -45 -241 -84 -50 -57 -51 -147 -2 -209 65 -82 257 -70 346 22 l31 32 7 -32 c9 -46 33 -69 73 -69 39 0 46 24 7 27 -14 0 -31 6 -38 12 -7 8 -13 89 -16 244 -6 261 -8 269 -76 302 -50 24 -157 29 -213 11z m257 -349 c-5 -113 -24 -151 -98 -191 -139 -76 -280 -24 -280 103 0 95 62 131 270 157 30 3 64 10 75 15 36 14 37 10 33 -84z"/><path d="M1223 1580 c-41 -9 -82 -35 -110 -69 l-23 -26 0 48 c0 41 -3 48 -17 45 -17 -3 -18 -25 -18 -298 0 -256 2 -295 15 -295 13 0 16 34 20 225 5 213 6 227 28 262 49 79 164 110 255 70 78 -34 81 -49 85 -324 3 -199 6 -238 18 -238 12 0 14 36 14 226 0 145 -4 241 -12 266 -27 90 -137 136 -255 108z"/><path d="M1660 1222 c0 -204 -4 -372 -10 -391 -11 -39 -24 -51 -57 -51 -14 0 -23 -6 -23 -15 0 -18 51 -21 80 -5 35 19 40 74 40 453 0 320 -2 367 -15 367 -13 0 -15 -46 -15 -358z"/></g></svg>