<svg version="1.1" id="Layer_1" xmlns="http://www.w3.org/2000/svg" xmlns:xlink="http://www.w3.org/1999/xlink" x="0px" y="0px" viewBox="0 0 313.8 78" style="enable-background:new 0 0 313.8 78;" xml:space="preserve">
 <style type="text/css">
  .st0{fill:#003F2D;}
 </style>
 <g>
  <g>
   <g>
    <path class="st0" d="M142.7,37.7c9.9-3.3,11.7-11.6,11.7-18.4C154.3,9,147,0,125.4,0L85,0v77.8h40.3c21.8,0,29.8-11.2,29.8-22.4
				C155.1,41.9,142.7,37.7,142.7,37.7z M104.2,16.9h27.2l0.1,0c3.1,0.5,5.3,3.2,5.3,6.2c0,3.1-2.4,6.1-5.6,6.5l-27,0L104.2,16.9z
				 M130,59.7h-25.9v-13h26.5l0.1,0c3.3,0.4,5.8,3.1,5.8,6.4C136.5,56.6,133.6,59.6,130,59.7z">
    </path>
    <path class="st0" d="M245.5,0h68.3l0,17h-49.3l0,12.5h44.4v17.1h-44.4v13.6h49.3l0,17.8h-68.3">
    </path>
    <path class="st0" d="M205.8,0.1h-41.3V78h19V46.5l20.9,0c6,0.1,10.6,5,10.6,11v20.4l18.6,0l0-25.1c0-11.6-11.2-15.1-11.2-15.1
				s11.5-3.4,11.5-17.2C233.8,3.6,219.3,0.1,205.8,0.1z M216.1,24.3c-0.3,2.6-2.9,5.3-6.1,5.3l-26.6,0V17.2h26.7
				c3.2,0,5.7,2.3,6.1,5.4">
    </path>
    <path class="st0" d="M72.7,59.2c-0.3,0-25.9,0.5-34.8-0.4c-14.2-1.4-19.3-12-19.3-20.6c0-10.8,7.3-18.7,18.7-20.1
				c5.4-0.7,34.9-0.4,35.2-0.4l0.6,0L73.2,0h-0.6L39.2,0.1C35.5,0.3,29.3,0.7,23,3.3C16.9,6,11.6,10.3,7.7,15.6
				C2.7,22.4,0,30.4,0,38.8c0,2.7,0.2,5.3,0.6,7.8C3,58.4,10.8,68.2,21.9,73.5c3.7,1.6,9.5,3.6,21.2,4.3l6.3,0.1l23.3,0h0.6
				l0.1-18.7">
    </path>
   </g>
  </g>
 </g>
</svg>