<svg version="1.0" xmlns="http://www.w3.org/2000/svg" width="241.000000" height="59.000000" viewBox="0 0 241.000000 59.000000" preserveAspectRatio="xMidYMid meet"><rect x="0" y="0" width="17" height="4" fill="rgb(250,254,254)" /><rect x="15" y="0" width="17" height="4" fill="rgb(94,145,193)" /><rect x="31" y="0" width="17" height="4" fill="rgb(220,233,242)" /><rect x="47" y="0" width="17" height="4" fill="rgb(166,197,223)" /><rect x="63" y="0" width="17" height="4" fill="rgb(136,175,212)" /><rect x="79" y="0" width="17" height="4" fill="rgb(202,220,236)" /><rect x="95" y="0" width="17" height="4" fill="rgb(112,157,201)" /><rect x="111" y="0" width="17" height="4" fill="rgb(169,198,224)" /><rect x="127" y="0" width="17" height="4" fill="rgb(173,201,226)" /><rect x="143" y="0" width="17" height="4" fill="rgb(167,197,223)" /><rect x="159" y="0" width="17" height="4" fill="rgb(158,190,220)" /><rect x="175" y="0" width="17" height="4" fill="rgb(138,177,212)" /><rect x="191" y="0" width="17" height="4" fill="rgb(137,176,212)" /><rect x="207" y="0" width="17" height="4" fill="rgb(169,198,223)" /><rect x="223" y="0" width="18" height="4" fill="rgb(136,174,209)" /><rect x="0" y="2" width="17" height="4" fill="rgb(247,252,253)" /><rect x="15" y="2" width="17" height="4" fill="rgb(33,101,170)" /><rect x="31" y="2" width="17" height="4" fill="rgb(195,215,232)" /><rect x="47" y="2" width="17" height="4" fill="rgb(97,146,194)" /><rect x="63" y="2" width="17" height="4" fill="rgb(46,110,175)" /><rect x="79" y="2" width="17" height="4" fill="rgb(169,197,222)" /><rect x="95" y="2" width="17" height="4" fill="rgb(71,127,185)" /><rect x="111" y="2" width="17" height="4" fill="rgb(102,150,196)" /><rect x="127" y="2" width="17" height="4" fill="rgb(103,151,197)" /><rect x="143" y="2" width="17" height="4" fill="rgb(98,147,195)" /><rect x="159" y="2" width="17" height="4" fill="rgb(76,131,186)" /><rect x="175" y="2" width="17" height="4" fill="rgb(45,108,173)" /><rect x="191" y="2" width="17" height="4" fill="rgb(43,108,174)" /><rect x="207" y="2" width="17" height="4" fill="rgb(102,150,196)" /><rect x="223" y="2" width="18" height="4" fill="rgb(94,144,194)" /><rect x="0" y="5" width="17" height="4" fill="rgb(228,238,245)" /><rect x="15" y="5" width="17" height="4" fill="rgb(10,83,159)" /><rect x="31" y="5" width="17" height="4" fill="rgb(165,194,221)" /><rect x="47" y="5" width="17" height="4" fill="rgb(92,142,193)" /><rect x="63" y="5" width="17" height="4" fill="rgb(42,107,173)" /><rect x="79" y="5" width="17" height="4" fill="rgb(169,197,222)" /><rect x="95" y="5" width="17" height="4" fill="rgb(57,118,180)" /><rect x="111" y="5" width="17" height="4" fill="rgb(73,129,186)" /><rect x="127" y="5" width="17" height="4" fill="rgb(86,139,192)" /><rect x="143" y="5" width="17" height="4" fill="rgb(93,143,195)" /><rect x="159" y="5" width="17" height="4" fill="rgb(59,120,182)" /><rect x="175" y="5" width="17" height="4" fill="rgb(37,103,172)" /><rect x="191" y="5" width="17" height="4" fill="rgb(36,103,172)" /><rect x="207" y="5" width="17" height="4" fill="rgb(72,129,187)" /><rect x="223" y="5" width="18" height="4" fill="rgb(87,139,191)" /><rect x="0" y="8" width="17" height="4" fill="rgb(204,221,236)" /><rect x="15" y="8" width="17" height="4" fill="rgb(110,156,198)" /><rect x="31" y="8" width="17" height="4" fill="rgb(158,189,217)" /><rect x="47" y="8" width="17" height="4" fill="rgb(110,156,201)" /><rect x="63" y="8" width="17" height="4" fill="rgb(135,173,209)" /><rect x="79" y="8" width="17" height="4" fill="rgb(168,196,223)" /><rect x="95" y="8" width="17" height="4" fill="rgb(94,144,194)" /><rect x="111" y="8" width="17" height="4" fill="rgb(59,119,179)" /><rect x="127" y="8" width="17" height="4" fill="rgb(71,128,186)" /><rect x="143" y="8" width="17" height="4" fill="rgb(93,144,195)" /><rect x="159" y="8" width="17" height="4" fill="rgb(47,111,177)" /><rect x="175" y="8" width="17" height="4" fill="rgb(103,151,197)" /><rect x="191" y="8" width="17" height="4" fill="rgb(104,151,197)" /><rect x="207" y="8" width="17" height="4" fill="rgb(59,120,180)" /><rect x="223" y="8" width="18" height="4" fill="rgb(119,162,204)" /><rect x="0" y="11" width="17" height="4" fill="rgb(209,225,237)" /><rect x="15" y="11" width="17" height="4" fill="rgb(217,231,241)" /><rect x="31" y="11" width="17" height="4" fill="rgb(132,171,207)" /><rect x="47" y="11" width="17" height="4" fill="rgb(101,150,198)" /><rect x="63" y="11" width="17" height="4" fill="rgb(186,209,230)" /><rect x="79" y="11" width="17" height="4" fill="rgb(167,196,223)" /><rect x="95" y="11" width="17" height="4" fill="rgb(103,151,198)" /><rect x="111" y="11" width="17" height="4" fill="rgb(50,113,176)" /><rect x="127" y="11" width="17" height="4" fill="rgb(55,117,181)" /><rect x="143" y="11" width="17" height="4" fill="rgb(92,144,196)" /><rect x="159" y="11" width="17" height="4" fill="rgb(49,113,177)" /><rect x="175" y="11" width="17" height="4" fill="rgb(137,175,211)" /><rect x="191" y="11" width="17" height="4" fill="rgb(140,177,212)" /><rect x="207" y="11" width="17" height="4" fill="rgb(54,116,178)" /><rect x="223" y="11" width="18" height="4" fill="rgb(122,164,206)" /><rect x="0" y="14" width="17" height="4" fill="rgb(249,254,254)" /><rect x="15" y="14" width="17" height="4" fill="rgb(250,254,254)" /><rect x="31" y="14" width="17" height="4" fill="rgb(90,141,192)" /><rect x="47" y="14" width="17" height="4" fill="rgb(70,128,186)" /><rect x="63" y="14" width="17" height="4" fill="rgb(186,209,230)" /><rect x="79" y="14" width="17" height="4" fill="rgb(164,194,222)" /><rect x="95" y="14" width="17" height="4" fill="rgb(103,151,198)" /><rect x="111" y="14" width="17" height="4" fill="rgb(45,110,174)" /><rect x="127" y="14" width="17" height="4" fill="rgb(43,108,174)" /><rect x="143" y="14" width="17" height="4" fill="rgb(93,145,196)" /><rect x="159" y="14" width="17" height="4" fill="rgb(48,112,176)" /><rect x="175" y="14" width="17" height="4" fill="rgb(133,172,209)" /><rect x="191" y="14" width="17" height="4" fill="rgb(140,177,212)" /><rect x="207" y="14" width="17" height="4" fill="rgb(52,115,178)" /><rect x="223" y="14" width="18" height="4" fill="rgb(143,180,213)" /><rect x="0" y="17" width="17" height="4" fill="rgb(214,229,240)" /><rect x="15" y="17" width="17" height="4" fill="rgb(189,213,230)" /><rect x="31" y="17" width="17" height="4" fill="rgb(89,141,190)" /><rect x="47" y="17" width="17" height="4" fill="rgb(63,122,182)" /><rect x="63" y="17" width="17" height="4" fill="rgb(151,185,217)" /><rect x="79" y="17" width="17" height="4" fill="rgb(162,192,221)" /><rect x="95" y="17" width="17" height="4" fill="rgb(101,150,197)" /><rect x="111" y="17" width="17" height="4" fill="rgb(43,108,173)" /><rect x="127" y="17" width="17" height="4" fill="rgb(41,106,171)" /><rect x="143" y="17" width="17" height="4" fill="rgb(100,149,196)" /><rect x="159" y="17" width="17" height="4" fill="rgb(46,110,175)" /><rect x="175" y="17" width="17" height="4" fill="rgb(129,168,206)" /><rect x="191" y="17" width="17" height="4" fill="rgb(140,177,212)" /><rect x="207" y="17" width="17" height="4" fill="rgb(50,113,177)" /><rect x="223" y="17" width="18" height="4" fill="rgb(236,246,252)" /><rect x="0" y="20" width="17" height="4" fill="rgb(147,181,212)" /><rect x="15" y="20" width="17" height="4" fill="rgb(10,84,161)" /><rect x="31" y="20" width="17" height="4" fill="rgb(84,137,188)" /><rect x="47" y="20" width="17" height="4" fill="rgb(55,118,180)" /><rect x="63" y="20" width="17" height="4" fill="rgb(82,136,190)" /><rect x="79" y="20" width="17" height="4" fill="rgb(161,191,220)" /><rect x="95" y="20" width="17" height="4" fill="rgb(102,151,198)" /><rect x="111" y="20" width="17" height="4" fill="rgb(41,107,173)" /><rect x="127" y="20" width="17" height="4" fill="rgb(32,100,168)" /><rect x="143" y="20" width="17" height="4" fill="rgb(102,151,199)" /><rect x="159" y="20" width="17" height="4" fill="rgb(50,112,174)" /><rect x="175" y="20" width="17" height="4" fill="rgb(123,164,203)" /><rect x="191" y="20" width="17" height="4" fill="rgb(140,177,212)" /><rect x="207" y="20" width="17" height="4" fill="rgb(50,113,177)" /><rect x="223" y="20" width="18" height="4" fill="rgb(248,253,254)" /><rect x="0" y="23" width="17" height="4" fill="rgb(141,177,210)" /><rect x="15" y="23" width="17" height="4" fill="rgb(3,80,162)" /><rect x="31" y="23" width="17" height="4" fill="rgb(121,164,205)" /><rect x="47" y="23" width="17" height="4" fill="rgb(48,111,176)" /><rect x="63" y="23" width="17" height="4" fill="rgb(86,138,190)" /><rect x="79" y="23" width="17" height="4" fill="rgb(161,191,220)" /><rect x="95" y="23" width="17" height="4" fill="rgb(102,151,198)" /><rect x="111" y="23" width="17" height="4" fill="rgb(41,107,173)" /><rect x="127" y="23" width="17" height="4" fill="rgb(29,98,169)" /><rect x="143" y="23" width="17" height="4" fill="rgb(100,150,198)" /><rect x="159" y="23" width="17" height="4" fill="rgb(55,116,177)" /><rect x="175" y="23" width="17" height="4" fill="rgb(117,160,202)" /><rect x="191" y="23" width="17" height="4" fill="rgb(140,177,212)" /><rect x="207" y="23" width="17" height="4" fill="rgb(49,113,177)" /><rect x="223" y="23" width="18" height="4" fill="rgb(248,253,254)" /><rect x="0" y="26" width="17" height="4" fill="rgb(153,186,216)" /><rect x="15" y="26" width="17" height="4" fill="rgb(83,138,188)" /><rect x="31" y="26" width="17" height="4" fill="rgb(142,179,211)" /><rect x="47" y="26" width="17" height="4" fill="rgb(68,126,184)" /><rect x="63" y="26" width="17" height="4" fill="rgb(161,192,221)" /><rect x="79" y="26" width="17" height="4" fill="rgb(162,192,221)" /><rect x="95" y="26" width="17" height="4" fill="rgb(104,152,199)" /><rect x="111" y="26" width="17" height="4" fill="rgb(43,108,174)" /><rect x="127" y="26" width="17" height="4" fill="rgb(42,108,175)" /><rect x="143" y="26" width="17" height="4" fill="rgb(99,149,197)" /><rect x="159" y="26" width="17" height="4" fill="rgb(59,119,179)" /><rect x="175" y="26" width="17" height="4" fill="rgb(111,156,199)" /><rect x="191" y="26" width="17" height="4" fill="rgb(140,177,212)" /><rect x="207" y="26" width="17" height="4" fill="rgb(50,113,177)" /><rect x="223" y="26" width="18" height="4" fill="rgb(211,228,240)" /><rect x="0" y="29" width="17" height="4" fill="rgb(163,193,219)" /><rect x="15" y="29" width="17" height="4" fill="rgb(242,251,254)" /><rect x="31" y="29" width="17" height="4" fill="rgb(183,208,228)" /><rect x="47" y="29" width="17" height="4" fill="rgb(96,147,196)" /><rect x="63" y="29" width="17" height="4" fill="rgb(186,209,230)" /><rect x="79" y="29" width="17" height="4" fill="rgb(164,194,222)" /><rect x="95" y="29" width="17" height="4" fill="rgb(104,152,199)" /><rect x="111" y="29" width="17" height="4" fill="rgb(46,110,175)" /><rect x="127" y="29" width="17" height="4" fill="rgb(56,118,180)" /><rect x="143" y="29" width="17" height="4" fill="rgb(96,148,197)" /><rect x="159" y="29" width="17" height="4" fill="rgb(11,86,164)" /><rect x="175" y="29" width="17" height="4" fill="rgb(105,152,197)" /><rect x="191" y="29" width="17" height="4" fill="rgb(140,177,212)" /><rect x="207" y="29" width="17" height="4" fill="rgb(50,113,177)" /><rect x="223" y="29" width="18" height="4" fill="rgb(138,175,209)" /><rect x="0" y="32" width="17" height="4" fill="rgb(165,194,220)" /><rect x="15" y="32" width="17" height="4" fill="rgb(250,254,254)" /><rect x="31" y="32" width="17" height="4" fill="rgb(176,202,224)" /><rect x="47" y="32" width="17" height="4" fill="rgb(115,160,203)" /><rect x="63" y="32" width="17" height="4" fill="rgb(186,209,229)" /><rect x="79" y="32" width="17" height="4" fill="rgb(167,196,223)" /><rect x="95" y="32" width="17" height="4" fill="rgb(102,151,198)" /><rect x="111" y="32" width="17" height="4" fill="rgb(50,113,175)" /><rect x="127" y="32" width="17" height="4" fill="rgb(70,129,186)" /><rect x="143" y="32" width="17" height="4" fill="rgb(92,144,194)" /><rect x="159" y="32" width="17" height="4" fill="rgb(0,78,160)" /><rect x="175" y="32" width="17" height="4" fill="rgb(99,148,196)" /><rect x="191" y="32" width="17" height="4" fill="rgb(140,177,211)" /><rect x="207" y="32" width="17" height="4" fill="rgb(51,114,177)" /><rect x="223" y="32" width="18" height="4" fill="rgb(137,175,211)" /><rect x="0" y="35" width="17" height="4" fill="rgb(164,194,220)" /><rect x="15" y="35" width="17" height="4" fill="rgb(222,236,244)" /><rect x="31" y="35" width="17" height="4" fill="rgb(164,194,220)" /><rect x="47" y="35" width="17" height="4" fill="rgb(118,162,205)" /><rect x="63" y="35" width="17" height="4" fill="rgb(181,207,230)" /><rect x="79" y="35" width="17" height="4" fill="rgb(159,192,223)" /><rect x="95" y="35" width="17" height="4" fill="rgb(88,141,192)" /><rect x="111" y="35" width="17" height="4" fill="rgb(57,118,178)" /><rect x="127" y="35" width="17" height="4" fill="rgb(86,139,192)" /><rect x="143" y="35" width="17" height="4" fill="rgb(87,141,193)" /><rect x="159" y="35" width="17" height="4" fill="rgb(54,116,178)" /><rect x="175" y="35" width="17" height="4" fill="rgb(93,143,194)" /><rect x="191" y="35" width="17" height="4" fill="rgb(140,177,212)" /><rect x="207" y="35" width="17" height="4" fill="rgb(51,114,177)" /><rect x="223" y="35" width="18" height="4" fill="rgb(121,164,204)" /><rect x="0" y="38" width="17" height="4" fill="rgb(148,182,214)" /><rect x="15" y="38" width="17" height="4" fill="rgb(35,103,171)" /><rect x="31" y="38" width="17" height="4" fill="rgb(84,137,190)" /><rect x="47" y="38" width="17" height="4" fill="rgb(99,148,197)" /><rect x="63" y="38" width="17" height="4" fill="rgb(75,131,186)" /><rect x="79" y="38" width="17" height="4" fill="rgb(47,111,175)" /><rect x="95" y="38" width="17" height="4" fill="rgb(49,113,178)" /><rect x="111" y="38" width="17" height="4" fill="rgb(72,129,186)" /><rect x="127" y="38" width="17" height="4" fill="rgb(102,150,197)" /><rect x="143" y="38" width="17" height="4" fill="rgb(81,135,189)" /><rect x="159" y="38" width="17" height="4" fill="rgb(108,154,200)" /><rect x="175" y="38" width="17" height="4" fill="rgb(87,139,192)" /><rect x="191" y="38" width="17" height="4" fill="rgb(140,177,212)" /><rect x="207" y="38" width="17" height="4" fill="rgb(63,122,183)" /><rect x="223" y="38" width="18" height="4" fill="rgb(85,137,190)" /><rect x="0" y="41" width="17" height="18" fill="rgb(223,235,243)" /><rect x="15" y="41" width="17" height="18" fill="rgb(123,165,205)" /><rect x="31" y="41" width="17" height="18" fill="rgb(160,192,219)" /><rect x="47" y="41" width="17" height="18" fill="rgb(148,183,215)" /><rect x="63" y="41" width="17" height="18" fill="rgb(147,183,215)" /><rect x="79" y="41" width="17" height="18" fill="rgb(140,177,212)" /><rect x="95" y="41" width="17" height="18" fill="rgb(158,190,218)" /><rect x="111" y="41" width="17" height="18" fill="rgb(181,206,227)" /><rect x="127" y="41" width="17" height="18" fill="rgb(181,207,227)" /><rect x="143" y="41" width="17" height="18" fill="rgb(142,178,212)" /><rect x="159" y="41" width="17" height="18" fill="rgb(167,196,222)" /><rect x="175" y="41" width="17" height="18" fill="rgb(150,184,215)" /><rect x="191" y="41" width="17" height="18" fill="rgb(159,190,218)" /><rect x="207" y="41" width="17" height="18" fill="rgb(159,191,218)" /><rect x="223" y="41" width="18" height="18" fill="rgb(177,203,226)" /><g transform="translate(0.000000,59.000000) scale(0.100000,-0.100000)" fill="#065292" stroke="none"><path d="M1030 567 c-27 -13 -65 -79 -57 -100 2 -6 8 2 12 18 11 45 33 75 55 75 11 0 20 5 20 10 0 12 0 12 -30 -3z"/><path d="M1100 570 c0 -5 8 -10 17 -10 9 0 24 -6 33 -12 9 -7 5 -3 -8 10 -25 23 -42 29 -42 12z"/><path d="M2212 564 c-12 -8 -27 -25 -32 -37 -8 -16 -5 -14 10 6 12 15 30 27 40 27 10 0 22 5 25 10 10 15 -18 12 -43 -6z"/><path d="M2300 563 c26 -14 38 -29 49 -61 16 -51 25 -51 11 0 -11 40 -33 63 -70 72 -17 4 -14 1 10 -11z"/><path d="M160 518 c-29 -51 -29 -53 -9 -56 13 -2 27 5 36 17 12 17 25 21 77 21 35 0 68 -5 76 -12 8 -7 7 -4 -2 7 -25 30 -119 27 -153 -5 -14 -13 -28 -21 -31 -17 -9 9 37 86 55 90 13 4 13 5 -1 6 -11 1 -29 -18 -48 -51z"/><path d="M289 563 c19 -3 43 -14 53 -26 19 -22 19 -22 2 6 -13 22 -23 27 -53 25 l-36 -1 34 -4z"/><path d="M543 525 c0 -27 2 -38 4 -22 2 15 2 37 0 50 -2 12 -4 0 -4 -28z"/><path d="M708 539 c4 -30 4 -31 -36 -28 -23 2 -44 0 -48 -4 -4 -4 16 -7 44 -7 l52 0 0 35 c0 19 -4 35 -8 35 -5 0 -6 -14 -4 -31z"/><path d="M760 562 c0 -4 16 -6 35 -4 l35 4 3 -178 2 -179 3 183 2 182 -40 0 c-22 0 -40 -4 -40 -8z"/><path d="M1244 465 c0 -60 1 -84 3 -52 2 32 2 81 0 110 -2 29 -3 3 -3 -58z"/><path d="M1424 556 c-3 -8 -4 -23 -2 -33 3 -11 6 -6 9 15 6 34 2 42 -7 18z"/><path d="M1519 538 c-2 -18 -1 -67 2 -108 5 -73 5 -72 7 33 2 105 -2 139 -9 75z"/><path d="M1627 563 c-3 -5 -7 -35 -10 -68 -8 -72 -1 -62 11 18 9 55 8 66 -1 50z"/><path d="M1780 535 c0 -33 2 -35 36 -35 23 0 33 4 28 11 -3 6 -17 9 -31 6 -23 -4 -25 -2 -21 24 3 16 1 29 -4 29 -4 0 -8 -16 -8 -35z"/><path d="M2035 560 c-3 -5 -1 -10 4 -10 6 0 11 5 11 10 0 6 -2 10 -4 10 -3 0 -8 -4 -11 -10z"/><path d="M2091 563 c0 -5 4 -17 9 -28 8 -18 9 -17 9 8 1 15 -3 27 -9 27 -5 0 -10 -3 -9 -7z"/><path d="M762 380 c-1 -85 2 -148 6 -140 4 8 5 78 2 155 l-6 140 -2 -155z"/><path d="M790 519 c0 -5 5 -7 10 -4 6 3 10 8 10 11 0 2 -4 4 -10 4 -5 0 -10 -5 -10 -11z"/><path d="M1057 515 c-8 -8 -17 -12 -20 -9 -3 3 -4 -60 -3 -140 1 -130 3 -147 20 -163 19 -17 19 -17 5 1 -20 27 -25 251 -7 286 18 33 40 32 57 -5 8 -16 16 -24 18 -18 5 15 -28 62 -44 63 -6 0 -18 -7 -26 -15z"/><path d="M1337 510 c3 -11 7 -20 9 -20 2 0 4 9 4 20 0 11 -4 20 -9 20 -5 0 -7 -9 -4 -20z"/><path d="M2036 515 c4 -8 8 -15 10 -15 2 0 4 7 4 15 0 8 -4 15 -10 15 -5 0 -7 -7 -4 -15z"/><path d="M2273 518 c9 -7 17 -31 19 -53 3 -38 5 -40 41 -43 27 -2 37 1 37 12 0 11 -6 13 -29 6 -33 -9 -39 -2 -37 47 1 17 -2 29 -6 27 -4 -2 -9 0 -13 6 -3 5 -11 10 -18 10 -6 0 -3 -6 6 -12z"/><path d="M1171 498 c-1 -16 4 -28 9 -28 12 0 12 8 0 35 -8 18 -9 17 -9 -7z"/><path d="M1732 500 c0 -14 2 -19 5 -12 2 6 2 18 0 25 -3 6 -5 1 -5 -13z"/><path d="M1934 509 c-3 -5 11 -9 30 -9 20 0 36 3 36 8 0 10 -59 11 -66 1z"/><path d="M360 507 c0 -4 7 -19 16 -32 17 -26 7 -34 -16 -12 -7 6 -5 0 6 -15 13 -18 20 -22 22 -12 2 8 8 11 14 8 7 -4 7 0 0 12 -16 29 -41 60 -42 51z"/><path d="M1417 493 c-4 -3 -7 -11 -7 -17 0 -6 5 -5 12 2 6 6 9 14 7 17 -3 3 -9 2 -12 -2z"/><path d="M1912 337 c0 -213 2 -197 -28 -197 l-26 0 5 175 c3 99 1 175 -4 175 -5 0 -9 -81 -9 -180 l0 -180 40 0 40 0 0 179 c0 99 -4 182 -9 185 -5 4 -9 -63 -9 -157z"/><path d="M2157 480 c-4 -14 -6 -36 -6 -50 1 -22 2 -20 10 8 6 19 9 41 7 50 -3 12 -6 10 -11 -8z"/><path d="M2097 458 c8 -46 13 -48 13 -5 0 21 -4 37 -10 37 -5 0 -7 -14 -3 -32z"/><path d="M2213 355 c2 -123 4 -136 24 -156 13 -13 28 -19 37 -16 19 7 36 47 36 83 0 31 28 32 39 2 8 -20 10 -21 16 -6 10 25 -2 38 -36 38 -26 0 -29 -3 -29 -34 0 -19 -9 -44 -19 -57 -19 -23 -20 -23 -38 -6 -16 15 -18 36 -18 152 0 74 -3 135 -7 135 -4 0 -6 -61 -5 -135z"/><path d="M542 450 c0 -14 2 -19 5 -12 2 6 2 18 0 25 -3 6 -5 1 -5 -13z"/><path d="M1352 445 c0 -16 4 -41 8 -55 l8 -25 0 25 c0 14 -4 39 -8 55 l-8 30 0 -30z"/><path d="M1652 445 c0 -16 2 -22 5 -12 2 9 2 23 0 30 -3 6 -5 -1 -5 -18z"/><path d="M1731 455 c0 -11 4 -29 9 -40 8 -18 9 -18 9 5 0 14 -4 32 -9 40 -8 12 -10 12 -9 -5z"/><path d="M455 441 c25 -5 31 -12 33 -38 2 -18 -6 -51 -18 -75 -12 -25 -14 -35 -5 -24 8 11 15 25 16 30 0 6 4 2 9 -9 6 -14 9 3 9 53 l1 72 -37 -1 c-37 -1 -37 -2 -8 -8z"/><path d="M1120 348 c0 -71 -5 -112 -15 -133 l-15 -30 20 24 c17 20 20 38 20 132 0 60 -2 109 -5 109 -3 0 -5 -46 -5 -102z"/><path d="M1190 352 l5 -87 3 79 c2 44 -1 83 -5 87 -4 4 -6 -31 -3 -79z"/><path d="M1401 410 c0 -20 -6 -41 -13 -48 -9 -9 -9 -12 0 -12 14 0 25 40 19 71 -3 17 -5 14 -6 -11z"/><path d="M1691 424 c0 -11 3 -14 6 -6 3 7 2 16 -1 19 -3 4 -6 -2 -5 -13z"/><path d="M963 355 c0 -44 2 -61 4 -37 2 23 2 59 0 80 -2 20 -4 1 -4 -43z"/><path d="M1310 411 c0 -12 5 -21 10 -21 6 0 10 6 10 14 0 8 -4 18 -10 21 -5 3 -10 -3 -10 -14z"/><path d="M544 300 c0 -69 1 -97 3 -63 2 35 2 91 0 126 -2 34 -3 6 -3 -63z"/><path d="M1597 366 c-4 -32 -5 -61 -3 -63 7 -7 19 82 14 103 -2 11 -7 -8 -11 -40z"/><path d="M433 395 c-9 -10 -6 -12 13 -12 13 0 27 5 31 11 3 6 3 8 -2 4 -4 -4 -13 -4 -19 1 -7 6 -16 4 -23 -4z"/><path d="M1283 345 c0 -38 2 -53 4 -32 2 20 2 52 0 70 -2 17 -4 1 -4 -38z"/><path d="M1432 380 c0 -19 2 -27 5 -17 2 9 2 25 0 35 -3 9 -5 1 -5 -18z"/><path d="M400 392 c0 -7 -10 -12 -22 -12 -17 0 -19 -3 -9 -9 10 -6 10 -13 2 -28 -9 -18 -22 -21 -105 -22 l-94 -2 -13 31 c-8 16 -18 30 -22 30 -5 0 0 -15 12 -32 l20 -33 98 -3 98 -2 23 41 c13 22 21 43 18 47 -3 3 -6 0 -6 -6z"/><path d="M606 389 c3 -5 24 -9 46 -9 51 0 47 5 -10 13 -24 3 -40 1 -36 -4z"/><path d="M10 360 c0 -25 13 -54 46 -103 26 -37 49 -66 51 -63 3 3 -4 18 -16 33 -40 52 -71 104 -71 120 0 14 2 14 16 -3 15 -19 15 -19 5 1 -25 48 -31 51 -31 15z"/><path d="M1636 344 c-3 -26 -4 -49 -2 -52 3 -2 8 17 11 43 4 25 5 48 3 51 -3 2 -8 -17 -12 -42z"/><path d="M1697 341 c5 -46 4 -50 -18 -54 -22 -4 -22 -4 4 -6 26 -1 27 1 27 48 0 28 -4 52 -10 56 -5 3 -7 -13 -3 -44z"/><path d="M2099 308 c-1 -46 -1 -102 1 -125 2 -40 0 -43 -24 -43 -21 0 -26 5 -26 25 0 14 -4 25 -8 25 -4 0 -7 -12 -7 -27 1 -25 6 -28 38 -31 l37 -3 0 130 c0 72 -2 131 -5 131 -3 0 -6 -37 -6 -82z"/><path d="M1322 345 c0 -16 2 -22 5 -12 2 9 2 23 0 30 -3 6 -5 -1 -5 -18z"/><path d="M1751 334 c0 -21 4 -48 9 -59 6 -13 7 -1 3 35 -7 66 -13 78 -12 24z"/><path d="M1523 285 c0 -38 2 -53 4 -32 2 20 2 52 0 70 -2 17 -4 1 -4 -38z"/><path d="M616 332 c-2 -4 12 -6 32 -4 56 5 62 10 15 11 -23 1 -44 -3 -47 -7z"/><path d="M1240 237 l0 -107 25 0 c22 0 25 4 24 33 -2 30 -2 30 -6 5 -2 -16 -10 -28 -18 -28 -10 0 -13 22 -14 96 0 53 -2 99 -5 102 -3 3 -6 -43 -6 -101z"/><path d="M1464 255 c0 -50 1 -71 3 -48 2 23 2 64 0 90 -2 26 -3 8 -3 -42z"/><path d="M1416 308 c-3 -13 -5 -34 -5 -48 1 -15 5 -7 10 19 9 47 6 68 -5 29z"/><path d="M60 309 c0 -14 32 -67 52 -85 l21 -19 -17 31 c-22 37 -55 81 -56 73z"/><path d="M473 284 c-3 -8 -11 -13 -18 -10 -20 7 -26 -5 -12 -22 10 -13 9 -15 -5 -10 -9 4 -19 1 -22 -7 -3 -8 0 -15 6 -17 13 -5 -7 -48 -22 -48 -6 0 -10 -7 -10 -15 0 -13 -20 -15 -124 -15 -116 0 -125 1 -131 20 -3 11 -11 20 -16 20 -5 0 -2 -11 7 -25 16 -24 19 -25 143 -25 l126 0 15 28 c9 15 31 53 49 85 18 31 30 57 26 57 -3 0 -8 -7 -12 -16z"/><path d="M1337 255 c3 -27 7 -52 9 -54 7 -8 2 54 -6 79 -6 17 -7 9 -3 -25z"/><path d="M1582 255 c0 -16 2 -22 5 -12 2 9 2 23 0 30 -3 6 -5 -1 -5 -18z"/><path d="M2041 254 c0 -11 3 -14 6 -6 3 7 2 16 -1 19 -3 4 -6 -2 -5 -13z"/><path d="M2151 252 c-2 -64 53 -127 106 -119 28 4 28 4 -3 6 -36 1 -84 43 -85 75 0 11 -4 30 -9 41 -8 19 -9 19 -9 -3z"/><path d="M971 247 c-2 -43 42 -107 73 -107 17 0 3 19 -16 22 -16 2 -26 16 -39 53 -10 28 -18 42 -18 32z"/><path d="M1177 247 c-4 -10 -7 -28 -6 -40 0 -21 1 -21 10 2 5 14 8 32 7 40 -3 13 -5 13 -11 -2z"/><path d="M1282 230 c0 -14 2 -19 5 -12 2 6 2 18 0 25 -3 6 -5 1 -5 -13z"/><path d="M1767 209 c3 -24 7 -46 9 -48 9 -10 3 65 -5 78 -6 10 -8 -1 -4 -30z"/><path d="M1632 228 c-15 -20 -24 -58 -13 -58 5 0 11 12 13 28 2 22 9 28 38 33 l35 6 -31 2 c-17 0 -36 -5 -42 -11z"/><path d="M2351 224 c0 -11 3 -14 6 -6 3 7 2 16 -1 19 -3 4 -6 -2 -5 -13z"/><path d="M1711 214 c0 -11 3 -14 6 -6 3 7 2 16 -1 19 -3 4 -6 -2 -5 -13z"/><path d="M760 182 c0 -22 4 -43 9 -46 9 -6 6 72 -3 82 -3 3 -6 -13 -6 -36z"/><path d="M1401 204 c0 -11 3 -14 6 -6 3 7 2 16 -1 19 -3 4 -6 -2 -5 -13z"/><path d="M265 200 l-140 -6 137 -2 c83 -1 139 2 143 8 3 6 5 9 3 8 -2 -1 -66 -5 -143 -8z"/><path d="M1518 170 c-2 -22 0 -40 4 -40 5 0 8 18 8 40 0 22 -2 40 -4 40 -2 0 -6 -18 -8 -40z"/><path d="M1570 197 c0 -9 4 -18 9 -21 5 -4 8 1 7 9 -3 21 -16 31 -16 12z"/><path d="M834 192 c4 -7 28 -12 53 -12 40 0 45 -2 40 -20 -3 -13 0 -20 9 -20 8 0 14 10 14 25 0 23 -4 25 -44 25 -24 0 -52 3 -62 7 -12 4 -15 3 -10 -5z"/><path d="M638 183 c7 -3 16 -2 19 1 4 3 -2 6 -13 5 -11 0 -14 -3 -6 -6z"/><path d="M693 183 c9 -2 23 -2 30 0 6 3 -1 5 -18 5 -16 0 -22 -2 -12 -5z"/><path d="M1353 165 c1 -23 7 -31 25 -33 19 -3 22 1 21 25 -2 23 -2 24 -6 6 -6 -31 -19 -29 -32 5 l-10 27 2 -30z"/><path d="M1149 163 c-13 -16 -12 -17 4 -4 9 7 17 15 17 17 0 8 -8 3 -21 -13z"/><path d="M1721 153 c-1 -20 4 -23 34 -23 19 0 35 4 35 8 0 5 -13 7 -29 4 -22 -3 -30 0 -34 15 -4 15 -5 14 -6 -4z"/><path d="M714 151 c-5 -5 -22 -11 -39 -14 -27 -4 -27 -4 7 -6 20 0 40 4 43 10 9 14 1 21 -11 10z"/><path d="M540 138 c0 -4 24 -7 53 -7 54 1 49 5 -15 11 -21 2 -38 0 -38 -4z"/><path d="M1468 138 c5 -5 16 -8 23 -6 8 3 3 7 -10 11 -17 4 -21 3 -13 -5z"/><path d="M1560 138 c0 -5 14 -8 30 -8 17 0 30 3 30 8 0 4 -13 7 -30 7 -16 0 -30 -3 -30 -7z"/><path d="M1073 133 c9 -2 23 -2 30 0 6 3 -1 5 -18 5 -16 0 -22 -2 -12 -5z"/><path d="M167 63 c-12 -11 -7 -40 8 -53 11 -9 19 -10 26 -3 8 8 6 11 -7 10 -13 -1 -19 5 -19 18 0 14 6 20 22 19 12 0 20 3 17 8 -6 10 -38 11 -47 1z"/><path d="M267 64 c-12 -12 -8 -41 8 -54 20 -17 47 5 43 34 -3 21 -37 34 -51 20z m43 -23 c0 -11 -5 -23 -11 -27 -15 -9 -33 12 -26 30 9 23 37 20 37 -3z"/><path d="M371 40 c0 -33 1 -34 10 -11 6 16 6 28 -1 35 -7 7 -10 -1 -9 -24z"/><path d="M475 61 c-3 -5 -1 -12 5 -16 5 -3 10 1 10 9 0 18 -6 21 -15 7z"/><path d="M614 53 c3 -10 1 -25 -4 -33 -9 -13 -12 -12 -25 4 -8 11 -15 15 -15 9 0 -6 7 -17 16 -24 14 -11 18 -10 30 6 17 22 18 55 3 55 -6 0 -8 -8 -5 -17z"/><path d="M670 40 c0 -17 4 -30 8 -30 5 0 7 13 4 30 -6 39 -12 39 -12 0z"/><path d="M762 58 c9 -7 18 -22 21 -33 4 -15 5 -14 6 7 0 14 7 29 14 31 6 3 -3 6 -22 6 -30 1 -32 -1 -19 -11z"/><path d="M856 43 c10 -40 14 -41 14 -5 0 18 -5 32 -10 32 -6 0 -8 -11 -4 -27z"/><path d="M920 63 c0 -7 11 -23 25 -37 l25 -25 -1 37 c-1 20 -3 29 -6 20 -2 -10 -7 -18 -10 -18 -3 0 -12 8 -19 18 -8 9 -14 12 -14 5z"/><path d="M1023 54 c-7 -19 7 -46 28 -51 8 -3 7 0 -3 7 -25 15 -22 39 5 50 l22 9 -23 0 c-12 1 -25 -6 -29 -15z"/><path d="M1350 40 c0 -39 6 -39 12 0 3 16 1 30 -4 30 -4 0 -8 -13 -8 -30z"/><path d="M1453 55 c0 -8 6 -16 14 -19 11 -4 11 -1 3 14 -13 24 -17 25 -17 5z"/><path d="M1557 63 c-12 -11 -7 -40 9 -53 12 -11 18 -10 32 5 16 18 16 18 0 6 -21 -15 -38 -7 -38 19 0 11 9 20 23 23 20 4 20 4 1 6 -11 0 -24 -2 -27 -6z"/><path d="M1662 40 c0 -19 2 -27 5 -17 2 9 2 25 0 35 -3 9 -5 1 -5 -18z"/><path d="M1721 60 c0 -8 11 -23 24 -33 22 -15 25 -16 25 -2 0 8 -5 15 -11 15 -7 0 -18 8 -25 18 -11 14 -13 14 -13 2z"/><path d="M1820 40 c0 -39 6 -39 12 0 3 16 1 30 -4 30 -4 0 -8 -13 -8 -30z"/><path d="M1920 40 c0 -39 6 -39 12 0 3 16 1 30 -4 30 -4 0 -8 -13 -8 -30z"/><path d="M2010 40 c0 -39 6 -39 12 0 3 16 1 30 -4 30 -4 0 -8 -13 -8 -30z"/><path d="M2046 44 c1 -15 8 -32 14 -38 10 -8 10 -6 1 11 -7 15 -8 24 -1 28 11 7 4 25 -9 25 -5 0 -7 -12 -5 -26z"/><path d="M2112 40 c0 -19 2 -27 5 -17 2 9 2 25 0 35 -3 9 -5 1 -5 -18z"/><path d="M2173 38 c0 -18 2 -25 4 -15 5 21 22 22 29 2 10 -25 24 -17 24 13 0 21 -2 24 -10 12 -9 -13 -12 -13 -24 3 -19 24 -23 22 -23 -15z"/><path d="M2281 51 c-8 -14 -6 -23 10 -37 18 -16 21 -16 35 -2 11 11 12 18 5 22 -6 4 -11 0 -11 -8 0 -19 -14 -21 -28 -3 -13 16 -3 33 23 40 18 4 18 5 -2 6 -12 0 -27 -7 -32 -18z"/><path d="M1492 30 c0 -14 2 -19 5 -12 2 6 2 18 0 25 -3 6 -5 1 -5 -13z"/><path d="M390 36 c0 -2 7 -9 15 -16 12 -10 15 -10 15 4 0 9 -7 16 -15 16 -8 0 -15 -2 -15 -4z"/><path d="M506 27 c3 -10 9 -15 12 -12 3 3 0 11 -7 18 -10 9 -11 8 -5 -6z"/><path d="M1217 24 c3 -7 9 -14 14 -14 14 0 10 17 -5 23 -10 4 -13 1 -9 -9z"/><path d="M1180 26 c0 -2 8 -10 18 -17 15 -13 16 -12 3 4 -13 16 -21 21 -21 13z"/></g><g transform="translate(0.000000,59.000000) scale(0.100000,-0.100000)" fill="#2C6C9F" stroke="none"><path d="M187 573 c-3 -5 18 -7 46 -5 86 5 96 9 25 11 -37 0 -69 -2 -71 -6z"/><path d="M588 563 c23 -2 59 -2 80 0 20 2 1 4 -43 4 -44 0 -61 -2 -37 -4z"/><path d="M1303 563 c9 -2 23 -2 30 0 6 3 -1 5 -18 5 -16 0 -22 -2 -12 -5z"/><path d="M1458 563 c12 -2 32 -2 45 0 12 2 2 4 -23 4 -25 0 -35 -2 -22 -4z"/><path d="M1658 563 c12 -2 32 -2 45 0 12 2 2 4 -23 4 -25 0 -35 -2 -22 -4z"/><path d="M1848 563 c28 -2 76 -2 105 0 28 2 5 3 -53 3 -58 0 -81 -1 -52 -3z"/><path d="M2058 563 c6 -2 18 -2 25 0 6 3 1 5 -13 5 -14 0 -19 -2 -12 -5z"/><path d="M1731 534 c0 -11 3 -14 6 -6 3 7 2 16 -1 19 -3 4 -6 -2 -5 -13z"/><path d="M1232 515 c0 -16 2 -22 5 -12 2 9 2 23 0 30 -3 6 -5 -1 -5 -18z"/><path d="M2034 355 c0 -93 2 -133 3 -88 2 45 2 122 0 170 -1 48 -3 12 -3 -82z"/><path d="M612 465 c0 -16 2 -22 5 -12 2 9 2 23 0 30 -3 6 -5 -1 -5 -18z"/><path d="M1741 464 c0 -11 3 -14 6 -6 3 7 2 16 -1 19 -3 4 -6 -2 -5 -13z"/><path d="M1043 425 c0 -27 2 -38 4 -22 2 15 2 37 0 50 -2 12 -4 0 -4 -28z"/><path d="M1111 454 c0 -11 3 -14 6 -6 3 7 2 16 -1 19 -3 4 -6 -2 -5 -13z"/><path d="M1234 305 c0 -93 2 -133 3 -88 2 45 2 122 0 170 -1 48 -3 12 -3 -82z"/><path d="M1191 444 c0 -11 3 -14 6 -6 3 7 2 16 -1 19 -3 4 -6 -2 -5 -13z"/><path d="M1682 435 c0 -16 2 -22 5 -12 2 9 2 23 0 30 -3 6 -5 -1 -5 -18z"/><path d="M2223 415 c0 -22 2 -30 4 -17 2 12 2 30 0 40 -3 9 -5 -1 -4 -23z"/><path d="M611 414 c0 -11 3 -14 6 -6 3 7 2 16 -1 19 -3 4 -6 -2 -5 -13z"/><path d="M1462 390 c0 -19 2 -27 5 -17 2 9 2 25 0 35 -3 9 -5 1 -5 -18z"/><path d="M1651 404 c0 -11 3 -14 6 -6 3 7 2 16 -1 19 -3 4 -6 -2 -5 -13z"/><path d="M2142 380 c0 -19 2 -27 5 -17 2 9 2 25 0 35 -3 9 -5 1 -5 -18z"/><path d="M1751 384 c0 -11 3 -14 6 -6 3 7 2 16 -1 19 -3 4 -6 -2 -5 -13z"/><path d="M192 383 c37 -2 100 -2 140 0 40 1 10 3 -67 3 -77 0 -110 -1 -73 -3z"/><path d="M692 365 c0 -16 2 -22 5 -12 2 9 2 23 0 30 -3 6 -5 -1 -5 -18z"/><path d="M1311 374 c0 -11 3 -14 6 -6 3 7 2 16 -1 19 -3 4 -6 -2 -5 -13z"/><path d="M1691 344 c0 -11 3 -14 6 -6 3 7 2 16 -1 19 -3 4 -6 -2 -5 -13z"/><path d="M616 322 c-2 -4 13 -6 35 -4 21 2 39 6 39 8 0 7 -69 4 -74 -4z"/><path d="M2142 300 c0 -19 2 -27 5 -17 2 9 2 25 0 35 -3 9 -5 1 -5 -18z"/><path d="M167 309 c7 -7 15 -10 18 -7 3 3 -2 9 -12 12 -14 6 -15 5 -6 -5z"/><path d="M2222 290 c0 -19 2 -27 5 -17 2 9 2 25 0 35 -3 9 -5 1 -5 -18z"/><path d="M1042 270 c0 -14 2 -19 5 -12 2 6 2 18 0 25 -3 6 -5 1 -5 -13z"/><path d="M614 220 c1 -24 4 -25 59 -26 l57 -1 -54 4 c-47 3 -55 7 -59 26 -3 18 -4 18 -3 -3z"/><path d="M2242 204 c10 -10 20 -16 22 -13 3 3 -5 11 -17 18 -21 13 -21 12 -5 -5z"/><path d="M873 193 c15 -2 39 -2 55 0 15 2 2 4 -28 4 -30 0 -43 -2 -27 -4z"/><path d="M1712 180 c0 -14 2 -19 5 -12 2 6 2 18 0 25 -3 6 -5 1 -5 -13z"/><path d="M2031 164 c0 -11 3 -14 6 -6 3 7 2 16 -1 19 -3 4 -6 -2 -5 -13z"/><path d="M1621 154 c0 -11 3 -14 6 -6 3 7 2 16 -1 19 -3 4 -6 -2 -5 -13z"/><path d="M823 133 c26 -2 67 -2 90 0 23 2 2 3 -48 3 -49 0 -68 -1 -42 -3z"/><path d="M420 68 c-7 -19 -4 -66 3 -59 5 5 7 21 4 37 -2 16 -5 26 -7 22z"/><path d="M681 54 c0 -11 3 -14 6 -6 3 7 2 16 -1 19 -3 4 -6 -2 -5 -13z"/><path d="M911 43 c-1 -17 4 -35 9 -38 12 -7 12 22 0 50 -7 17 -9 15 -9 -12z"/><path d="M1198 63 c7 -3 16 -2 19 1 4 3 -2 6 -13 5 -11 0 -14 -3 -6 -6z"/><path d="M1441 43 c-1 -17 4 -35 9 -38 12 -7 12 22 0 50 -7 17 -9 15 -9 -12z"/><path d="M1650 41 c0 -17 4 -32 8 -35 4 -2 6 11 4 30 -5 42 -12 45 -12 5z"/><path d="M1772 50 c0 -14 2 -19 5 -12 2 6 2 18 0 25 -3 6 -5 1 -5 -13z"/><path d="M1848 63 c7 -3 16 -2 19 1 4 3 -2 6 -13 5 -11 0 -14 -3 -6 -6z"/><path d="M1948 63 c7 -3 16 -2 19 1 4 3 -2 6 -13 5 -11 0 -14 -3 -6 -6z"/><path d="M2119 38 c-3 -22 -1 -34 4 -29 5 5 7 21 5 37 -3 27 -4 26 -9 -8z"/><path d="M610 41 c0 -6 4 -13 10 -16 6 -3 7 1 4 9 -7 18 -14 21 -14 7z"/><path d="M770 31 c0 -11 4 -22 9 -25 4 -3 6 6 3 19 -5 30 -12 33 -12 6z"/><path d="M850 31 c0 -11 4 -22 9 -25 4 -3 6 6 3 19 -5 30 -12 33 -12 6z"/><path d="M1190 38 c0 -10 17 -10 24 0 3 5 -1 9 -9 9 -8 0 -15 -4 -15 -9z"/><path d="M2020 42 c0 -15 28 -23 36 -9 4 7 4 9 -1 5 -4 -4 -14 -3 -22 3 -8 7 -13 8 -13 1z"/><path d="M2274 35 c1 -8 8 -21 16 -28 12 -10 12 -9 2 4 -6 9 -9 18 -6 21 3 3 1 9 -4 12 -6 3 -9 -1 -8 -9z"/><path d="M1590 31 c0 -6 4 -12 8 -15 5 -3 9 1 9 9 0 8 -4 15 -9 15 -4 0 -8 -4 -8 -9z"/><path d="M1715 30 c-3 -5 -1 -10 4 -10 6 0 11 5 11 10 0 6 -2 10 -4 10 -3 0 -8 -4 -11 -10z"/><path d="M177 19 c7 -7 15 -10 18 -7 3 3 -2 9 -12 12 -14 6 -15 5 -6 -5z"/><path d="M277 19 c7 -7 15 -10 18 -7 3 3 -2 9 -12 12 -14 6 -15 5 -6 -5z"/><path d="M691 14 c13 -16 29 -19 29 -5 0 5 -9 11 -21 14 -16 4 -18 3 -8 -9z"/><path d="M1835 20 c3 -5 -1 -11 -7 -13 -7 -3 -1 -6 15 -6 31 -1 36 14 7 22 -11 3 -18 1 -15 -3z"/><path d="M576 8 c3 -4 11 -5 19 -1 21 7 19 12 -4 10 -11 0 -18 -5 -15 -9z"/><path d="M1355 10 c-3 -5 -1 -10 4 -10 6 0 11 5 11 10 0 6 -2 10 -4 10 -3 0 -8 -4 -11 -10z"/><path d="M1380 10 c0 -5 5 -10 10 -10 6 0 10 5 10 10 0 6 -4 10 -10 10 -5 0 -10 -4 -10 -10z"/><path d="M1925 11 c-3 -6 4 -9 15 -8 11 1 20 5 20 9 0 11 -28 10 -35 -1z"/></g><g transform="translate(0.000000,59.000000) scale(0.100000,-0.100000)" fill="#0052A5" stroke="none"><path d="M1064 575 c-4 -8 -14 -15 -24 -15 -10 0 -22 -6 -28 -13 -63 -76 -50 -375 16 -385 12 -2 22 -8 22 -13 0 -17 67 -9 93 11 14 12 28 35 32 57 12 61 15 253 5 253 -6 0 -10 13 -10 28 0 31 -27 62 -53 62 -9 0 -17 7 -17 15 0 8 -7 15 -15 15 -9 0 -18 -7 -21 -15z m49 -71 c10 -14 16 -31 14 -39 -3 -7 -3 -16 0 -19 3 -3 5 -52 4 -108 -2 -109 -15 -148 -50 -148 -39 0 -46 26 -47 177 -1 79 0 142 3 139 3 -3 12 1 20 9 21 21 35 18 56 -11z"/><path d="M2250 569 c-8 -4 -23 -10 -33 -13 -11 -4 -21 -15 -24 -26 -3 -11 -8 -20 -12 -20 -4 0 -13 -34 -20 -75 -14 -79 -11 -187 6 -192 6 -2 8 -14 6 -26 -6 -31 38 -74 81 -79 61 -7 117 70 95 130 -14 36 -36 27 -42 -18 -9 -69 -47 -92 -77 -47 -17 26 -26 287 -9 287 5 0 9 6 9 14 0 17 40 28 55 16 7 -6 14 -8 16 -6 2 3 4 -10 3 -27 -2 -47 4 -56 31 -48 14 3 25 8 26 11 3 14 -23 89 -34 97 -26 19 -63 30 -77 22z"/><path d="M209 563 c-18 -4 -64 -81 -55 -90 3 -4 17 4 31 17 20 19 37 24 78 25 48 0 55 -3 89 -38 20 -21 38 -45 40 -54 4 -22 39 -42 45 -25 3 6 10 9 16 5 20 -12 37 -12 37 0 0 25 -17 37 -55 39 -36 3 -42 8 -74 60 -30 48 -41 58 -66 59 -16 1 -39 2 -50 3 -11 1 -27 1 -36 -1z"/><path d="M1262 561 c-19 -11 -15 -421 5 -421 7 0 14 12 14 28 1 15 2 43 3 62 1 19 -1 69 -4 112 -3 42 -2 74 2 72 5 -3 8 0 8 6 0 6 8 10 18 8 13 -2 17 -14 19 -48 3 -80 38 -240 52 -240 5 0 14 28 20 63 6 34 16 81 21 105 6 23 10 55 10 71 0 31 24 59 35 41 3 -6 5 -70 4 -142 -2 -126 -1 -132 19 -139 35 -13 33 -34 32 329 l-1 92 -44 0 c-42 0 -45 -2 -46 -27 -1 -16 -1 -33 0 -40 1 -6 -3 -14 -9 -18 -5 -3 -10 -27 -10 -53 0 -106 -43 -90 -60 23 -7 39 -11 78 -11 87 0 10 -3 19 -7 21 -19 11 -59 15 -70 8z"/><path d="M550 523 c-1 -21 -1 -114 -2 -208 l-1 -170 49 -5 c71 -7 118 2 122 23 3 16 -15 23 -58 19 -8 -1 -24 3 -35 9 -18 9 -19 17 -15 77 l5 67 38 3 c28 2 37 7 37 22 0 15 -9 19 -42 22 -32 2 -42 7 -39 18 2 8 3 31 2 50 -1 52 11 65 58 61 38 -2 41 -1 41 23 0 26 -1 26 -80 26 l-80 0 0 -37z"/><path d="M765 550 c-3 -5 -4 -14 -1 -18 4 -7 5 -75 6 -304 0 -10 1 -33 2 -50 l3 -33 75 0 c62 0 75 3 78 17 3 14 -6 17 -45 20 -29 2 -48 8 -49 16 -1 6 -2 91 -3 187 l-1 175 -29 0 c-17 0 -33 -4 -36 -10z m45 -24 c0 -3 -4 -8 -10 -11 -5 -3 -10 -1 -10 4 0 6 5 11 10 11 6 0 10 -2 10 -4z"/><path d="M1621 468 c-6 -51 -17 -119 -23 -150 -6 -31 -11 -77 -12 -102 0 -24 -4 -42 -8 -39 -5 2 -8 -5 -8 -17 0 -16 5 -21 22 -18 18 2 23 10 24 36 2 41 20 62 53 62 44 0 56 -17 60 -87 1 -7 12 -13 26 -13 21 0 25 4 20 22 -2 13 -7 43 -10 68 -3 25 -11 79 -16 120 -15 108 -17 130 -18 173 l-1 37 -48 0 -48 0 -13 -92z m68 -14 c6 -15 9 -34 6 -44 -3 -10 -1 -21 5 -25 5 -3 10 -29 10 -57 l0 -51 -36 6 c-20 3 -38 8 -40 10 -4 4 14 148 22 175 6 20 20 14 33 -14z"/><path d="M1790 536 c0 -19 4 -23 21 -19 12 4 27 -2 39 -14 16 -18 18 -35 13 -192 l-5 -171 26 0 c30 0 28 -16 28 197 0 90 4 161 8 158 5 -3 10 1 13 7 2 7 17 13 33 13 22 0 29 5 29 20 0 19 -7 20 -102 22 -103 3 -103 2 -103 -21z"/><path d="M2047 553 c-7 -11 -7 -319 0 -370 4 -36 9 -43 28 -43 23 0 23 2 24 132 1 72 3 133 5 135 2 2 0 21 -5 41 -5 24 -4 39 3 43 17 11 -5 64 -29 67 -12 2 -23 0 -26 -5z"/><path d="M150 368 c0 -7 7 -21 14 -31 12 -15 28 -18 105 -16 80 1 93 4 102 22 17 30 -4 37 -118 37 -76 0 -103 -3 -103 -12z"/><path d="M20 342 c0 -11 9 -27 20 -37 11 -10 20 -24 20 -31 0 -7 11 -26 25 -42 14 -17 25 -35 25 -41 0 -6 4 -11 9 -11 5 0 13 -9 16 -20 6 -19 15 -20 131 -20 104 0 124 2 124 15 0 8 4 15 10 15 12 0 33 40 25 48 -4 4 -11 -1 -16 -11 -9 -15 -27 -17 -140 -17 l-130 0 -27 32 c-28 33 -52 74 -52 89 0 5 -9 18 -20 29 -19 19 -20 19 -20 2z"/><path d="M467 306 c-9 -20 -13 -36 -9 -36 12 0 35 46 30 60 -2 6 -11 -5 -21 -24z"/><path d="M430 250 c0 -5 5 -10 11 -10 5 0 7 5 4 10 -3 6 -8 10 -11 10 -2 0 -4 -4 -4 -10z"/><path d="M1831 44 c0 -11 3 -14 6 -6 3 7 2 16 -1 19 -3 4 -6 -2 -5 -13z"/></g><g transform="translate(0.000000,59.000000) scale(0.100000,-0.100000)" fill="#528CB8" stroke="none"><path d="M534 350 c0 -124 2 -174 3 -112 2 61 2 163 0 225 -1 61 -3 11 -3 -113z"/><path d="M722 545 c0 -16 2 -22 5 -12 2 9 2 23 0 30 -3 6 -5 -1 -5 -18z"/><path d="M1140 566 c0 -2 8 -10 18 -17 15 -13 16 -12 3 4 -13 16 -21 21 -21 13z"/><path d="M2114 350 c0 -124 2 -174 3 -112 2 61 2 163 0 225 -1 61 -3 11 -3 -113z"/><path d="M1531 504 c0 -11 3 -14 6 -6 3 7 2 16 -1 19 -3 4 -6 -2 -5 -13z"/><path d="M1112 415 c0 -16 2 -22 5 -12 2 9 2 23 0 30 -3 6 -5 -1 -5 -18z"/><path d="M2141 424 c0 -11 3 -14 6 -6 3 7 2 16 -1 19 -3 4 -6 -2 -5 -13z"/><path d="M1531 404 c0 -11 3 -14 6 -6 3 7 2 16 -1 19 -3 4 -6 -2 -5 -13z"/><path d="M2 374 c-2 -19 -1 -34 2 -34 7 0 13 61 6 65 -3 2 -7 -12 -8 -31z"/><path d="M1043 335 c0 -27 2 -38 4 -22 2 15 2 37 0 50 -2 12 -4 0 -4 -28z"/><path d="M1202 360 c0 -14 2 -19 5 -12 2 6 2 18 0 25 -3 6 -5 1 -5 -13z"/><path d="M1112 350 c0 -14 2 -19 5 -12 2 6 2 18 0 25 -3 6 -5 1 -5 -13z"/><path d="M1293 310 c0 -30 2 -43 4 -27 2 15 2 39 0 55 -2 15 -4 2 -4 -28z"/><path d="M2222 340 c0 -14 2 -19 5 -12 2 6 2 18 0 25 -3 6 -5 1 -5 -13z"/><path d="M258 303 c12 -2 32 -2 45 0 12 2 2 4 -23 4 -25 0 -35 -2 -22 -4z"/><path d="M1112 290 c0 -14 2 -19 5 -12 2 6 2 18 0 25 -3 6 -5 1 -5 -13z"/><path d="M1293 190 c0 -36 2 -50 4 -32 2 17 2 47 0 65 -2 17 -4 3 -4 -33z"/><path d="M1635 219 c-11 -16 -1 -19 13 -3 7 8 8 14 3 14 -5 0 -13 -5 -16 -11z"/><path d="M1149 153 c-13 -16 -12 -17 4 -4 9 7 17 15 17 17 0 8 -8 3 -21 -13z"/><path d="M562 45 c0 -17 2 -22 5 -12 2 9 2 23 0 30 -3 6 -5 -1 -5 -18z"/><path d="M1502 40 c0 -19 2 -27 5 -17 2 9 2 25 0 35 -3 9 -5 1 -5 -18z"/><path d="M499 43 c-13 -16 -12 -17 4 -4 16 13 21 21 13 21 -2 0 -10 -8 -17 -17z"/><path d="M1360 57 c0 -2 6 -10 14 -16 11 -9 16 -9 22 1 4 7 4 10 -1 6 -4 -4 -14 -3 -22 3 -7 6 -13 9 -13 6z"/><path d="M972 30 c0 -14 2 -19 5 -12 2 6 2 18 0 25 -3 6 -5 1 -5 -13z"/><path d="M1465 41 c-3 -5 -2 -12 3 -15 5 -3 9 1 9 9 0 17 -3 19 -12 6z"/><path d="M1840 40 c0 -5 7 -7 15 -4 8 4 15 8 15 10 0 2 -7 4 -15 4 -8 0 -15 -4 -15 -10z"/><path d="M1912 30 c0 -14 2 -19 5 -12 2 6 2 18 0 25 -3 6 -5 1 -5 -13z"/><path d="M1945 40 c3 -5 8 -10 11 -10 2 0 4 5 4 10 0 6 -5 10 -11 10 -5 0 -7 -4 -4 -10z"/><path d="M1054 26 c1 -8 5 -18 8 -22 4 -3 5 1 4 10 -1 8 -5 18 -8 22 -4 3 -5 -1 -4 -10z"/><path d="M2183 25 c-3 -9 -3 -18 -1 -21 3 -3 8 4 11 16 6 23 -1 27 -10 5z"/><path d="M203 15 c0 -8 4 -12 9 -9 5 3 6 10 3 15 -9 13 -12 11 -12 -6z"/><path d="M1366 17 c3 -10 9 -15 12 -12 3 3 0 11 -7 18 -10 9 -11 8 -5 -6z"/><path d="M1771 14 c0 -11 3 -14 6 -6 3 7 2 16 -1 19 -3 4 -6 -2 -5 -13z"/><path d="M678 3 c7 -3 16 -2 19 1 4 3 -2 6 -13 5 -11 0 -14 -3 -6 -6z"/></g><g transform="translate(0.000000,59.000000) scale(0.100000,-0.100000)" fill="#729FCC" stroke="none"><path d="M1531 534 c0 -11 3 -14 6 -6 3 7 2 16 -1 19 -3 4 -6 -2 -5 -13z"/><path d="M844 395 c0 -66 1 -92 3 -57 2 34 2 88 0 120 -2 31 -3 3 -3 -63z"/><path d="M238 493 c18 -2 45 -2 60 0 15 2 0 4 -33 4 -33 0 -45 -2 -27 -4z"/><path d="M1533 455 c0 -22 2 -30 4 -17 2 12 2 30 0 40 -3 9 -5 -1 -4 -23z"/><path d="M1201 394 c0 -11 3 -14 6 -6 3 7 2 16 -1 19 -3 4 -6 -2 -5 -13z"/><path d="M1290 385 c0 -14 2 -25 4 -25 2 0 6 11 8 25 3 14 1 25 -3 25 -5 0 -9 -11 -9 -25z"/><path d="M1533 355 c0 -22 2 -30 4 -17 2 12 2 30 0 40 -3 9 -5 -1 -4 -23z"/><path d="M951 354 c0 -11 3 -14 6 -6 3 7 2 16 -1 19 -3 4 -6 -2 -5 -13z"/><path d="M1202 320 c0 -14 2 -19 5 -12 2 6 2 18 0 25 -3 6 -5 1 -5 -13z"/><path d="M1532 290 c0 -14 2 -19 5 -12 2 6 2 18 0 25 -3 6 -5 1 -5 -13z"/><path d="M1532 220 c0 -19 2 -27 5 -17 2 9 2 25 0 35 -3 9 -5 1 -5 -18z"/><path d="M1531 164 c0 -11 3 -14 6 -6 3 7 2 16 -1 19 -3 4 -6 -2 -5 -13z"/><path d="M1378 73 c7 -3 16 -2 19 1 4 3 -2 6 -13 5 -11 0 -14 -3 -6 -6z"/><path d="M1840 76 c0 -2 9 -6 20 -9 11 -3 18 -1 14 4 -5 9 -34 13 -34 5z"/><path d="M362 40 c0 -19 2 -27 5 -17 2 9 2 25 0 35 -3 9 -5 1 -5 -18z"/><path d="M581 54 c0 -11 3 -14 6 -6 3 7 2 16 -1 19 -3 4 -6 -2 -5 -13z"/><path d="M1342 40 c0 -19 2 -27 5 -17 2 9 2 25 0 35 -3 9 -5 1 -5 -18z"/><path d="M2320 49 c0 -5 5 -7 10 -4 6 3 10 8 10 11 0 2 -4 4 -10 4 -5 0 -10 -5 -10 -11z"/><path d="M2021 14 c0 -11 3 -14 6 -6 3 7 2 16 -1 19 -3 4 -6 -2 -5 -13z"/></g><g transform="translate(0.000000,59.000000) scale(0.100000,-0.100000)" fill="#8CB8DF" stroke="none"><path d="M1771 534 c0 -11 3 -14 6 -6 3 7 2 16 -1 19 -3 4 -6 -2 -5 -13z"/><path d="M658 493 c12 -2 32 -2 45 0 12 2 2 4 -23 4 -25 0 -35 -2 -22 -4z"/><path d="M1793 493 c9 -2 23 -2 30 0 6 3 -1 5 -18 5 -16 0 -22 -2 -12 -5z"/><path d="M1958 493 c6 -2 18 -2 25 0 6 3 1 5 -13 5 -14 0 -19 -2 -12 -5z"/><path d="M425 455 c23 -8 83 -10 79 -3 -3 4 -24 8 -47 7 -23 0 -37 -2 -32 -4z"/><path d="M1844 300 c0 -91 2 -128 3 -82 2 45 2 119 0 165 -1 45 -3 8 -3 -83z"/><path d="M952 390 c0 -14 2 -19 5 -12 2 6 2 18 0 25 -3 6 -5 1 -5 -13z"/><path d="M952 320 c0 -14 2 -19 5 -12 2 6 2 18 0 25 -3 6 -5 1 -5 -13z"/><path d="M2293 295 c-3 -9 -3 -18 -1 -21 3 -3 8 4 11 16 6 23 -1 27 -10 5z"/><path d="M139 207 c4 -4 64 -6 132 -5 l124 3 -132 5 c-73 3 -129 1 -124 -3z"/><path d="M270 130 l-135 -6 132 -2 c79 -1 134 2 138 8 3 6 5 9 3 8 -2 -1 -64 -5 -138 -8z"/><path d="M1717 128 c2 -5 19 -8 38 -8 19 0 36 3 38 8 3 4 -14 7 -38 7 -24 0 -41 -3 -38 -7z"/><path d="M588 123 c29 -2 74 -2 100 0 26 2 2 3 -53 3 -55 0 -76 -1 -47 -3z"/><path d="M1253 123 c9 -2 23 -2 30 0 6 3 -1 5 -18 5 -16 0 -22 -2 -12 -5z"/><path d="M1478 123 c12 -2 30 -2 40 0 9 3 -1 5 -23 4 -22 0 -30 -2 -17 -4z"/><path d="M1583 123 c9 -2 23 -2 30 0 6 3 -1 5 -18 5 -16 0 -22 -2 -12 -5z"/><path d="M1868 123 c12 -2 32 -2 45 0 12 2 2 4 -23 4 -25 0 -35 -2 -22 -4z"/><path d="M2063 123 c9 -2 25 -2 35 0 9 3 1 5 -18 5 -19 0 -27 -2 -17 -5z"/><path d="M778 73 c6 -2 18 -2 25 0 6 3 1 5 -13 5 -14 0 -19 -2 -12 -5z"/><path d="M1662 66 c7 -8 15 -12 17 -11 5 6 -10 25 -20 25 -5 0 -4 -6 3 -14z"/><path d="M1814 66 c-3 -8 -4 -25 -1 -38 3 -18 5 -16 6 9 0 17 7 34 14 36 9 4 9 6 -1 6 -7 1 -15 -5 -18 -13z"/><path d="M2104 66 c-3 -8 -4 -25 -2 -38 3 -17 5 -13 9 15 5 38 2 47 -7 23z"/><path d="M1226 53 c-6 -14 -5 -15 5 -6 7 7 10 15 7 18 -3 3 -9 -2 -12 -12z"/><path d="M1590 50 c-13 -8 -12 -10 3 -10 9 0 17 5 17 10 0 12 -1 12 -20 0z"/><path d="M1060 46 c0 -2 7 -7 16 -10 8 -3 12 -2 9 4 -6 10 -25 14 -25 6z"/><path d="M2231 14 c0 -11 3 -14 6 -6 3 7 2 16 -1 19 -3 4 -6 -2 -5 -13z"/></g><g transform="translate(0.000000,59.000000) scale(0.100000,-0.100000)" fill="#A5CCF2" stroke="none"><path d="M778 573 c12 -2 30 -2 40 0 9 3 -1 5 -23 4 -22 0 -30 -2 -17 -4z"/><path d="M754 410 c0 -85 2 -120 3 -77 2 42 2 112 0 155 -1 42 -3 7 -3 -78z"/><path d="M2024 375 c0 -104 2 -146 3 -92 2 54 2 139 0 190 -1 51 -3 7 -3 -98z"/><path d="M2001 534 c0 -11 3 -14 6 -6 3 7 2 16 -1 19 -3 4 -6 -2 -5 -13z"/><path d="M1934 487 c-2 -7 -3 -91 -2 -187 l3 -175 5 188 c3 103 4 187 2 187 -1 0 -5 -6 -8 -13z"/><path d="M2281 464 c0 -11 3 -14 6 -6 3 7 2 16 -1 19 -3 4 -6 -2 -5 -13z"/><path d="M1665 449 c-4 -6 -5 -12 -2 -15 2 -3 7 2 10 11 7 17 1 20 -8 4z"/><path d="M502 410 c0 -19 2 -27 5 -17 2 9 2 25 0 35 -3 9 -5 1 -5 -18z"/><path d="M2308 413 c12 -2 32 -2 45 0 12 2 2 4 -23 4 -25 0 -35 -2 -22 -4z"/><path d="M643 393 c9 -2 23 -2 30 0 6 3 -1 5 -18 5 -16 0 -22 -2 -12 -5z"/><path d="M428 373 c12 -2 30 -2 40 0 9 3 -1 5 -23 4 -22 0 -30 -2 -17 -4z"/><path d="M501 344 c0 -11 3 -14 6 -6 3 7 2 16 -1 19 -3 4 -6 -2 -5 -13z"/><path d="M1454 235 c0 -60 1 -84 3 -52 2 32 2 81 0 110 -2 29 -3 3 -3 -58z"/><path d="M2323 303 c9 -2 25 -2 35 0 9 3 1 5 -18 5 -19 0 -27 -2 -17 -5z"/><path d="M752 230 c0 -14 2 -19 5 -12 2 6 2 18 0 25 -3 6 -5 1 -5 -13z"/><path d="M752 175 c0 -16 2 -22 5 -12 2 9 2 23 0 30 -3 6 -5 -1 -5 -18z"/><path d="M952 160 c0 -14 2 -19 5 -12 2 6 2 18 0 25 -3 6 -5 1 -5 -13z"/><path d="M2022 155 c0 -16 2 -22 5 -12 2 9 2 23 0 30 -3 6 -5 -1 -5 -18z"/><path d="M759 127 c4 -4 50 -6 102 -5 l94 3 -102 5 c-56 3 -99 1 -94 -3z"/><path d="M662 40 c0 -19 2 -27 5 -17 2 9 2 25 0 35 -3 9 -5 1 -5 -18z"/><path d="M2162 40 c0 -19 2 -27 5 -17 2 9 2 25 0 35 -3 9 -5 1 -5 -18z"/><path d="M792 25 c0 -17 2 -22 5 -12 2 9 2 23 0 30 -3 6 -5 -1 -5 -18z"/><path d="M1731 14 c0 -11 3 -14 6 -6 3 7 2 16 -1 19 -3 4 -6 -2 -5 -13z"/></g><g transform="translate(0.000000,59.000000) scale(0.100000,-0.100000)" fill="#BFE5FF" stroke="none"><path d="M228 583 c17 -2 47 -2 65 0 17 2 3 4 -33 4 -36 0 -50 -2 -32 -4z"/><path d="M573 573 c26 -2 68 -2 95 0 26 2 4 3 -48 3 -52 0 -74 -1 -47 -3z"/><path d="M1258 573 c18 -2 45 -2 60 0 15 2 0 4 -33 4 -33 0 -45 -2 -27 -4z"/><path d="M1453 573 c15 -2 39 -2 55 0 15 2 2 4 -28 4 -30 0 -43 -2 -27 -4z"/><path d="M1617 573 c-3 -5 16 -7 41 -5 73 5 82 10 20 11 -31 0 -59 -2 -61 -6z"/><path d="M1833 573 c31 -2 83 -2 115 0 31 2 5 3 -58 3 -63 0 -89 -1 -57 -3z"/><path d="M2063 573 c9 -2 25 -2 35 0 9 3 1 5 -18 5 -19 0 -27 -2 -17 -5z"/><path d="M623 445 c0 -27 2 -38 4 -22 2 15 2 37 0 50 -2 12 -4 0 -4 -28z"/><path d="M1666 435 c-3 -9 -6 -22 -5 -28 0 -7 5 -1 10 12 5 13 8 26 5 28 -2 2 -6 -3 -10 -12z"/><path d="M2232 425 c0 -16 2 -22 5 -12 2 9 2 23 0 30 -3 6 -5 -1 -5 -18z"/><path d="M1447 370 c-3 -11 -1 -23 4 -26 5 -3 9 6 9 20 0 31 -6 34 -13 6z"/><path d="M2132 370 c0 -14 2 -19 5 -12 2 6 2 18 0 25 -3 6 -5 1 -5 -13z"/><path d="M702 360 c0 -14 2 -19 5 -12 2 6 2 18 0 25 -3 6 -5 1 -5 -13z"/><path d="M2132 320 c0 -14 2 -19 5 -12 2 6 2 18 0 25 -3 6 -5 1 -5 -13z"/><path d="M623 275 c0 -22 2 -30 4 -17 2 12 2 30 0 40 -3 9 -5 -1 -4 -23z"/><path d="M2231 274 c0 -11 3 -14 6 -6 3 7 2 16 -1 19 -3 4 -6 -2 -5 -13z"/><path d="M1051 254 c0 -11 3 -14 6 -6 3 7 2 16 -1 19 -3 4 -6 -2 -5 -13z"/><path d="M1781 234 c0 -11 3 -14 6 -6 3 7 2 16 -1 19 -3 4 -6 -2 -5 -13z"/><path d="M873 203 c15 -2 39 -2 55 0 15 2 2 4 -28 4 -30 0 -43 -2 -27 -4z"/><path d="M602 50 c0 -14 2 -19 5 -12 2 6 2 18 0 25 -3 6 -5 1 -5 -13z"/><path d="M632 45 c0 -17 2 -22 5 -12 2 9 2 23 0 30 -3 6 -5 -1 -5 -18z"/><path d="M842 40 c0 -19 2 -27 5 -17 2 9 2 25 0 35 -3 9 -5 1 -5 -18z"/><path d="M1432 40 c0 -19 2 -27 5 -17 2 9 2 25 0 35 -3 9 -5 1 -5 -18z"/><path d="M1641 54 c0 -11 3 -14 6 -6 3 7 2 16 -1 19 -3 4 -6 -2 -5 -13z"/><path d="M215 49 c-4 -6 -5 -12 -2 -15 2 -3 7 2 10 11 7 17 1 20 -8 4z"/><path d="M2295 50 c-3 -6 1 -7 9 -4 18 7 21 14 7 14 -6 0 -13 -4 -16 -10z"/><path d="M872 25 c0 -17 2 -22 5 -12 2 9 2 23 0 30 -3 6 -5 -1 -5 -18z"/><path d="M431 24 c0 -11 3 -14 6 -6 3 7 2 16 -1 19 -3 4 -6 -2 -5 -13z"/><path d="M930 14 c0 -8 5 -12 10 -9 6 4 8 11 5 16 -9 14 -15 11 -15 -7z"/><path d="M1378 23 c7 -3 16 -2 19 1 4 3 -2 6 -13 5 -11 0 -14 -3 -6 -6z"/><path d="M1950 23 c8 -3 19 -11 23 -17 6 -7 7 -6 4 4 -2 8 -12 16 -23 17 -13 2 -15 1 -4 -4z"/></g><g transform="translate(0.000000,59.000000) scale(0.100000,-0.100000)" fill="#D8F8FF" stroke="none"><path d="M320 586 c0 -2 8 -10 18 -17 15 -13 16 -12 3 4 -13 16 -21 21 -21 13z"/><path d="M999 563 c-13 -16 -12 -17 4 -4 16 13 21 21 13 21 -2 0 -10 -8 -17 -17z"/><path d="M2121 489 c4 -49 9 -92 12 -95 7 -8 -4 170 -12 178 -3 4 -3 -33 0 -83z"/><path d="M524 350 c0 -124 2 -174 3 -112 2 61 2 163 0 225 -1 61 -3 11 -3 -113z"/><path d="M733 535 c0 -22 2 -30 4 -17 2 12 2 30 0 40 -3 9 -5 -1 -4 -23z"/><path d="M1223 505 c0 -38 2 -53 4 -32 2 20 2 52 0 70 -2 17 -4 1 -4 -38z"/><path d="M1542 535 c0 -16 2 -22 5 -12 2 9 2 23 0 30 -3 6 -5 -1 -5 -18z"/><path d="M1601 514 c0 -11 3 -14 6 -6 3 7 2 16 -1 19 -3 4 -6 -2 -5 -13z"/><path d="M1544 340 c0 -85 2 -120 3 -77 2 42 2 112 0 155 -1 42 -3 7 -3 -78z"/><path d="M1054 360 c0 -52 1 -74 3 -47 2 26 2 68 0 95 -2 26 -3 4 -3 -48z"/><path d="M1104 355 c0 -55 1 -76 3 -47 2 29 2 74 0 100 -2 26 -3 2 -3 -53z"/><path d="M1224 280 c0 -85 2 -120 3 -77 2 42 2 112 0 155 -1 42 -3 7 -3 -78z"/><path d="M1381 404 c0 -11 3 -14 6 -6 3 7 2 16 -1 19 -3 4 -6 -2 -5 -13z"/><path d="M183 393 c15 -2 37 -2 50 0 12 2 0 4 -28 4 -27 0 -38 -2 -22 -4z"/><path d="M273 393 c9 -2 23 -2 30 0 6 3 -1 5 -18 5 -16 0 -22 -2 -12 -5z"/><path d="M338 393 c6 -2 18 -2 25 0 6 3 1 5 -13 5 -14 0 -19 -2 -12 -5z"/><path d="M2233 345 c0 -33 2 -45 4 -27 2 18 2 45 0 60 -2 15 -4 0 -4 -33z"/><path d="M1303 270 c0 -97 1 -100 6 -35 4 39 4 86 0 105 -4 21 -7 -8 -6 -70z"/><path d="M1441 334 c0 -11 3 -14 6 -6 3 7 2 16 -1 19 -3 4 -6 -2 -5 -13z"/><path d="M643 313 c9 -2 23 -2 30 0 6 3 -1 5 -18 5 -16 0 -22 -2 -12 -5z"/><path d="M270 300 l-105 -6 102 -2 c59 -1 104 2 108 8 3 6 5 9 3 8 -2 -1 -50 -5 -108 -8z"/><path d="M2132 280 c0 -14 2 -19 5 -12 2 6 2 18 0 25 -3 6 -5 1 -5 -13z"/><path d="M1321 234 c0 -11 3 -14 6 -6 3 7 2 16 -1 19 -3 4 -6 -2 -5 -13z"/><path d="M2371 234 c0 -11 3 -14 6 -6 3 7 2 16 -1 19 -3 4 -6 -2 -5 -13z"/><path d="M2123 200 c0 -25 2 -35 4 -22 2 12 2 32 0 45 -2 12 -4 2 -4 -23z"/><path d="M955 210 c-3 -5 -1 -10 4 -10 6 0 11 5 11 10 0 6 -2 10 -4 10 -3 0 -8 -4 -11 -10z"/><path d="M1663 213 c9 -2 23 -2 30 0 6 3 -1 5 -18 5 -16 0 -22 -2 -12 -5z"/><path d="M653 203 c15 -2 37 -2 50 0 12 2 0 4 -28 4 -27 0 -38 -2 -22 -4z"/><path d="M1331 174 c0 -11 3 -14 6 -6 3 7 2 16 -1 19 -3 4 -6 -2 -5 -13z"/><path d="M1546 167 c3 -10 9 -15 12 -12 3 3 0 11 -7 18 -10 9 -11 8 -5 -6z"/><path d="M1159 153 c-13 -16 -12 -17 4 -4 16 13 21 21 13 21 -2 0 -10 -8 -17 -17z"/><path d="M2170 156 c0 -2 8 -10 18 -17 15 -13 16 -12 3 4 -13 16 -21 21 -21 13z"/><path d="M395 71 c-3 -5 -2 -12 3 -15 5 -3 9 1 9 9 0 17 -3 19 -12 6z"/><path d="M1077 59 c4 -13 8 -18 11 -10 2 7 -1 18 -6 23 -8 8 -9 4 -5 -13z"/><path d="M1607 59 c4 -13 8 -18 11 -10 2 7 -1 18 -6 23 -8 8 -9 4 -5 -13z"/><path d="M2337 59 c4 -13 8 -18 11 -10 2 7 -1 18 -6 23 -8 8 -9 4 -5 -13z"/><path d="M551 54 c0 -11 3 -14 6 -6 3 7 2 16 -1 19 -3 4 -6 -2 -5 -13z"/><path d="M1702 50 c0 -14 2 -19 5 -12 2 6 2 18 0 25 -3 6 -5 1 -5 -13z"/><path d="M1903 35 c0 -22 2 -30 4 -17 2 12 2 30 0 40 -3 9 -5 -1 -4 -23z"/><path d="M2132 40 c0 -19 2 -27 5 -17 2 9 2 25 0 35 -3 9 -5 1 -5 -18z"/><path d="M1402 40 c0 -14 2 -19 5 -12 2 6 2 18 0 25 -3 6 -5 1 -5 -13z"/><path d="M762 25 c0 -17 2 -22 5 -12 2 9 2 23 0 30 -3 6 -5 -1 -5 -18z"/><path d="M901 34 c0 -11 3 -14 6 -6 3 7 2 16 -1 19 -3 4 -6 -2 -5 -13z"/><path d="M1571 34 c0 -11 3 -14 6 -6 3 7 2 16 -1 19 -3 4 -6 -2 -5 -13z"/><path d="M1782 25 c0 -17 2 -22 5 -12 2 9 2 23 0 30 -3 6 -5 -1 -5 -18z"/><path d="M2295 41 c-3 -5 -1 -12 5 -16 5 -3 10 1 10 9 0 18 -6 21 -15 7z"/><path d="M2190 10 c0 -5 5 -10 11 -10 5 0 7 5 4 10 -3 6 -8 10 -11 10 -2 0 -4 -4 -4 -10z"/></g><g transform="translate(0.000000,59.000000) scale(0.100000,-0.100000)" fill="#FFFFFF" stroke="none"><path d="M0 511 l0 -79 73 -111 72 -111 121 0 121 0 42 71 c22 40 41 76 41 80 0 5 -13 9 -30 9 -24 0 -33 -7 -50 -40 l-20 -40 -100 0 -100 0 -25 40 c-42 66 -44 64 103 70 l134 5 -30 40 c-28 39 -31 41 -84 40 -40 0 -62 -5 -76 -18 -13 -12 -32 -17 -51 -15 l-30 3 39 68 39 67 -94 0 -95 0 0 -79z"/><path d="M372 528 c42 -61 45 -63 91 -66 l47 -3 0 -74 c0 -67 -4 -81 -37 -142 -20 -37 -45 -80 -55 -95 l-19 -28 -132 0 -133 0 -63 95 c-36 52 -66 95 -68 95 -2 0 -3 -70 -3 -155 l0 -155 78 0 79 0 -5 28 c-4 33 17 55 50 50 19 -3 23 -9 22 -40 0 -29 4 -38 16 -38 13 0 16 6 12 25 -6 31 13 55 44 55 30 0 49 -32 34 -60 -9 -17 -8 -20 10 -20 17 0 20 6 20 40 0 39 0 39 38 37 35 -2 37 -4 40 -39 4 -50 27 -50 27 -1 0 32 4 39 24 41 30 5 42 -8 43 -47 1 -24 6 -31 21 -31 16 0 17 3 7 14 -16 20 -9 60 12 64 12 2 18 -5 21 -25 l4 -28 2 28 c1 20 6 27 22 27 19 0 21 -5 17 -40 -2 -28 0 -40 9 -40 8 0 13 14 13 41 0 33 3 40 18 37 9 -2 18 -13 20 -26 2 -12 10 -22 18 -22 8 0 14 -7 14 -15 0 -8 7 -15 15 -15 9 0 15 9 15 25 0 14 -4 25 -10 25 -5 0 -10 7 -10 15 0 11 11 15 40 15 29 0 40 -4 40 -15 0 -8 -4 -15 -10 -15 -5 0 -10 -11 -10 -25 0 -18 5 -25 20 -25 17 0 20 7 20 40 0 33 3 40 20 40 17 0 20 -7 20 -40 0 -22 5 -40 10 -40 6 0 10 16 10 35 0 38 25 59 41 34 6 -10 9 -10 9 -1 0 6 6 12 14 12 17 0 24 -17 20 -52 -2 -21 2 -28 15 -28 14 0 16 7 13 35 -4 30 -1 35 22 41 43 10 59 -1 54 -41 l-4 -35 48 0 c35 0 46 3 42 13 -9 24 14 67 36 67 14 0 25 -12 36 -40 15 -37 19 -40 56 -40 25 0 38 4 37 13 -1 6 -1 24 0 40 1 24 5 27 36 27 34 0 35 -1 35 -40 0 -22 5 -40 10 -40 6 0 10 17 10 39 0 38 0 38 40 38 40 0 40 0 40 -38 0 -33 3 -39 20 -39 18 0 19 3 10 20 -17 33 4 62 43 58 30 -3 32 -6 32 -41 0 -49 23 -49 27 0 2 27 8 39 21 41 14 3 17 -4 17 -37 0 -28 4 -41 14 -41 10 0 13 10 9 35 -3 26 -1 37 12 41 9 4 21 1 25 -6 6 -10 8 -10 12 1 9 27 38 0 38 -36 0 -19 5 -35 10 -35 6 0 10 18 10 40 0 39 1 40 35 40 34 0 35 -1 35 -40 0 -51 18 -53 22 -2 3 35 5 37 42 40 37 3 38 2 32 -22 -7 -27 1 -56 15 -56 5 0 9 18 9 40 0 37 2 40 28 40 36 0 56 -14 49 -34 -7 -19 1 -46 14 -46 5 0 9 18 9 41 0 33 3 40 18 37 12 -3 17 -13 17 -41 0 -23 5 -37 13 -37 7 0 12 15 12 40 0 41 14 52 38 28 9 -9 12 -9 12 0 0 7 7 12 15 12 11 0 15 -11 15 -40 0 -30 4 -40 16 -40 11 0 13 6 9 20 -11 34 12 62 48 58 30 -3 32 -6 32 -41 0 -35 2 -37 33 -37 l32 0 0 295 0 295 -52 0 c-51 0 -52 0 -29 -16 30 -21 51 -72 51 -124 l0 -40 -50 0 -50 0 0 38 c0 20 -5 44 -10 52 -21 32 -30 -15 -28 -150 3 -118 5 -135 20 -138 14 -3 18 7 24 47 l7 51 43 0 44 0 0 -40 c0 -87 -51 -150 -122 -150 -22 0 -48 5 -59 10 -29 16 -58 82 -68 157 -8 64 -9 61 -7 -47 l1 -115 -52 -3 -53 -3 -2 218 c0 120 -3 203 -5 186 -4 -30 -7 -33 -39 -33 l-34 0 0 -185 0 -185 -50 0 -50 0 0 185 0 185 -35 0 c-35 0 -35 0 -35 45 l0 45 113 0 c75 0 117 -4 125 -12 9 -9 12 -9 12 1 0 8 16 11 53 9 l52 -3 -1 -110 -1 -110 11 70 c14 79 35 126 68 149 20 15 -26 16 -526 16 l-549 0 26 -20 c43 -34 60 -105 55 -238 -4 -131 -18 -171 -68 -197 -53 -27 -98 -20 -141 24 l-39 39 0 -39 0 -39 -105 0 c-77 0 -105 3 -105 13 0 9 -2 9 -8 -1 -6 -9 -36 -12 -113 -10 l-104 3 0 225 0 225 105 0 105 0 0 -40 0 -40 -52 -3 -53 -3 0 -45 0 -44 41 0 40 0 -3 -42 c-3 -42 -4 -43 -40 -46 l-38 -3 0 -49 0 -49 52 -3 c50 -3 53 -5 59 -33 4 -16 7 68 8 188 l1 217 50 0 50 0 2 -182 3 -183 50 -3 50 -3 -3 118 c-5 136 6 188 47 232 l29 31 -350 0 -349 0 43 -62z m982 30 c3 -13 11 -50 17 -83 13 -68 14 -67 32 30 l12 70 59 3 c40 2 62 -1 67 -10 9 -13 10 -364 2 -415 -5 -31 -7 -33 -49 -33 l-44 0 -1 103 -1 102 -20 -102 -20 -103 -33 0 -33 0 -12 73 c-17 107 -17 108 -20 32 -1 -38 -3 -77 -4 -85 -1 -11 -13 -15 -41 -15 l-40 0 -3 215 c-1 118 0 220 2 227 4 9 26 13 65 13 55 0 61 -2 65 -22z m389 0 c3 -13 8 -43 11 -68 4 -25 15 -109 26 -188 27 -194 29 -182 -24 -182 l-45 0 -7 45 c-6 41 -9 45 -35 45 -26 0 -28 -3 -31 -43 -3 -42 -3 -42 -45 -45 -30 -2 -43 1 -43 10 0 29 60 430 65 438 4 6 32 10 65 10 52 0 58 -2 63 -22z"/><path d="M1667 391 c-11 -52 -8 -91 6 -91 8 0 11 14 9 48 -5 72 -7 80 -15 43z"/><path d="M1071 497 c-8 -10 -11 -56 -9 -148 3 -111 6 -134 18 -134 12 0 15 23 18 139 3 138 -4 170 -27 143z"/><path d="M180 40 c0 -5 5 -10 10 -10 6 0 10 5 10 10 0 6 -4 10 -10 10 -5 0 -10 -4 -10 -10z"/></g></svg>