<svg version="1.0" xmlns="http://www.w3.org/2000/svg" width="180.000000" height="180.000000" viewBox="0 0 180.000000 180.000000" preserveAspectRatio="xMidYMid meet"><rect x="0" y="0" width="14" height="14" fill="rgb(254,254,254)" /><rect x="12" y="0" width="14" height="14" fill="rgb(254,254,254)" /><rect x="25" y="0" width="14" height="14" fill="rgb(254,254,254)" /><rect x="38" y="0" width="14" height="14" fill="rgb(254,254,254)" /><rect x="51" y="0" width="14" height="14" fill="rgb(254,254,254)" /><rect x="64" y="0" width="14" height="14" fill="rgb(254,254,254)" /><rect x="77" y="0" width="14" height="14" fill="rgb(254,254,254)" /><rect x="90" y="0" width="14" height="14" fill="rgb(254,254,254)" /><rect x="103" y="0" width="14" height="14" fill="rgb(254,254,254)" /><rect x="116" y="0" width="14" height="14" fill="rgb(254,254,254)" /><rect x="129" y="0" width="14" height="14" fill="rgb(254,254,254)" /><rect x="142" y="0" width="14" height="14" fill="rgb(254,254,254)" /><rect x="155" y="0" width="25" height="14" fill="rgb(254,254,254)" /><rect x="0" y="12" width="14" height="14" fill="rgb(254,254,254)" /><rect x="12" y="12" width="14" height="14" fill="rgb(254,254,254)" /><rect x="25" y="12" width="14" height="14" fill="rgb(254,254,254)" /><rect x="38" y="12" width="14" height="14" fill="rgb(254,254,254)" /><rect x="51" y="12" width="14" height="14" fill="rgb(254,254,254)" /><rect x="64" y="12" width="14" height="14" fill="rgb(254,254,254)" /><rect x="77" y="12" width="14" height="14" fill="rgb(254,254,254)" /><rect x="90" y="12" width="14" height="14" fill="rgb(254,254,254)" /><rect x="103" y="12" width="14" height="14" fill="rgb(254,254,254)" /><rect x="116" y="12" width="14" height="14" fill="rgb(254,254,254)" /><rect x="129" y="12" width="14" height="14" fill="rgb(254,254,254)" /><rect x="142" y="12" width="14" height="14" fill="rgb(254,254,254)" /><rect x="155" y="12" width="25" height="14" fill="rgb(254,254,254)" /><rect x="0" y="25" width="14" height="14" fill="rgb(254,254,254)" /><rect x="12" y="25" width="14" height="14" fill="rgb(254,254,254)" /><rect x="25" y="25" width="14" height="14" fill="rgb(254,254,254)" /><rect x="38" y="25" width="14" height="14" fill="rgb(254,254,254)" /><rect x="51" y="25" width="14" height="14" fill="rgb(254,254,254)" /><rect x="64" y="25" width="14" height="14" fill="rgb(254,254,254)" /><rect x="77" y="25" width="14" height="14" fill="rgb(254,254,254)" /><rect x="90" y="25" width="14" height="14" fill="rgb(254,254,254)" /><rect x="103" y="25" width="14" height="14" fill="rgb(254,254,254)" /><rect x="116" y="25" width="14" height="14" fill="rgb(254,254,254)" /><rect x="129" y="25" width="14" height="14" fill="rgb(254,254,254)" /><rect x="142" y="25" width="14" height="14" fill="rgb(254,254,254)" /><rect x="155" y="25" width="25" height="14" fill="rgb(254,254,254)" /><rect x="0" y="38" width="14" height="14" fill="rgb(254,254,254)" /><rect x="12" y="38" width="14" height="14" fill="rgb(254,254,254)" /><rect x="25" y="38" width="14" height="14" fill="rgb(254,254,254)" /><rect x="38" y="38" width="14" height="14" fill="rgb(254,254,254)" /><rect x="51" y="38" width="14" height="14" fill="rgb(254,254,254)" /><rect x="64" y="38" width="14" height="14" fill="rgb(254,254,254)" /><rect x="77" y="38" width="14" height="14" fill="rgb(254,254,254)" /><rect x="90" y="38" width="14" height="14" fill="rgb(254,254,254)" /><rect x="103" y="38" width="14" height="14" fill="rgb(254,254,254)" /><rect x="116" y="38" width="14" height="14" fill="rgb(254,254,254)" /><rect x="129" y="38" width="14" height="14" fill="rgb(254,254,254)" /><rect x="142" y="38" width="14" height="14" fill="rgb(254,254,254)" /><rect x="155" y="38" width="25" height="14" fill="rgb(254,254,254)" /><rect x="0" y="51" width="14" height="14" fill="rgb(254,254,254)" /><rect x="12" y="51" width="14" height="14" fill="rgb(254,254,254)" /><rect x="25" y="51" width="14" height="14" fill="rgb(254,254,254)" /><rect x="38" y="51" width="14" height="14" fill="rgb(254,254,254)" /><rect x="51" y="51" width="14" height="14" fill="rgb(254,254,254)" /><rect x="64" y="51" width="14" height="14" fill="rgb(254,254,254)" /><rect x="77" y="51" width="14" height="14" fill="rgb(254,254,254)" /><rect x="90" y="51" width="14" height="14" fill="rgb(254,254,254)" /><rect x="103" y="51" width="14" height="14" fill="rgb(254,254,254)" /><rect x="116" y="51" width="14" height="14" fill="rgb(254,254,254)" /><rect x="129" y="51" width="14" height="14" fill="rgb(254,254,254)" /><rect x="142" y="51" width="14" height="14" fill="rgb(254,254,254)" /><rect x="155" y="51" width="25" height="14" fill="rgb(254,254,254)" /><rect x="0" y="64" width="14" height="14" fill="rgb(254,254,254)" /><rect x="12" y="64" width="14" height="14" fill="rgb(254,254,254)" /><rect x="25" y="64" width="14" height="14" fill="rgb(198,209,220)" /><rect x="38" y="64" width="14" height="14" fill="rgb(161,180,198)" /><rect x="51" y="64" width="14" height="14" fill="rgb(195,207,218)" /><rect x="64" y="64" width="14" height="14" fill="rgb(144,167,188)" /><rect x="77" y="64" width="14" height="14" fill="rgb(191,204,216)" /><rect x="90" y="64" width="14" height="14" fill="rgb(149,171,191)" /><rect x="103" y="64" width="14" height="14" fill="rgb(202,213,223)" /><rect x="116" y="64" width="14" height="14" fill="rgb(162,181,199)" /><rect x="129" y="64" width="14" height="14" fill="rgb(161,181,198)" /><rect x="142" y="64" width="14" height="14" fill="rgb(236,240,244)" /><rect x="155" y="64" width="25" height="14" fill="rgb(254,254,254)" /><rect x="0" y="77" width="14" height="14" fill="rgb(254,254,254)" /><rect x="12" y="77" width="14" height="14" fill="rgb(254,254,254)" /><rect x="25" y="77" width="14" height="14" fill="rgb(181,196,210)" /><rect x="38" y="77" width="14" height="14" fill="rgb(155,175,194)" /><rect x="51" y="77" width="14" height="14" fill="rgb(241,244,246)" /><rect x="64" y="77" width="14" height="14" fill="rgb(152,173,193)" /><rect x="77" y="77" width="14" height="14" fill="rgb(231,236,240)" /><rect x="90" y="77" width="14" height="14" fill="rgb(112,141,169)" /><rect x="103" y="77" width="14" height="14" fill="rgb(208,218,227)" /><rect x="116" y="77" width="14" height="14" fill="rgb(150,171,191)" /><rect x="129" y="77" width="14" height="14" fill="rgb(224,230,236)" /><rect x="142" y="77" width="14" height="14" fill="rgb(157,177,195)" /><rect x="155" y="77" width="25" height="14" fill="rgb(254,254,254)" /><rect x="0" y="90" width="14" height="14" fill="rgb(254,254,254)" /><rect x="12" y="90" width="14" height="14" fill="rgb(254,254,254)" /><rect x="25" y="90" width="14" height="14" fill="rgb(208,218,226)" /><rect x="38" y="90" width="14" height="14" fill="rgb(135,159,182)" /><rect x="51" y="90" width="14" height="14" fill="rgb(208,218,227)" /><rect x="64" y="90" width="14" height="14" fill="rgb(159,178,197)" /><rect x="77" y="90" width="14" height="14" fill="rgb(233,237,241)" /><rect x="90" y="90" width="14" height="14" fill="rgb(120,148,174)" /><rect x="103" y="90" width="14" height="14" fill="rgb(202,213,223)" /><rect x="116" y="90" width="14" height="14" fill="rgb(129,155,179)" /><rect x="129" y="90" width="14" height="14" fill="rgb(151,172,192)" /><rect x="142" y="90" width="14" height="14" fill="rgb(200,211,222)" /><rect x="155" y="90" width="25" height="14" fill="rgb(254,254,254)" /><rect x="0" y="103" width="14" height="14" fill="rgb(254,254,254)" /><rect x="12" y="103" width="14" height="14" fill="rgb(254,254,254)" /><rect x="25" y="103" width="14" height="14" fill="rgb(229,234,239)" /><rect x="38" y="103" width="14" height="14" fill="rgb(210,219,228)" /><rect x="51" y="103" width="14" height="14" fill="rgb(218,226,233)" /><rect x="64" y="103" width="14" height="14" fill="rgb(215,223,231)" /><rect x="77" y="103" width="14" height="14" fill="rgb(220,227,234)" /><rect x="90" y="103" width="14" height="14" fill="rgb(218,225,233)" /><rect x="103" y="103" width="14" height="14" fill="rgb(227,232,238)" /><rect x="116" y="103" width="14" height="14" fill="rgb(206,216,225)" /><rect x="129" y="103" width="14" height="14" fill="rgb(207,216,226)" /><rect x="142" y="103" width="14" height="14" fill="rgb(237,241,244)" /><rect x="155" y="103" width="25" height="14" fill="rgb(254,254,254)" /><rect x="0" y="116" width="14" height="14" fill="rgb(254,254,254)" /><rect x="12" y="116" width="14" height="14" fill="rgb(254,254,254)" /><rect x="25" y="116" width="14" height="14" fill="rgb(254,254,254)" /><rect x="38" y="116" width="14" height="14" fill="rgb(254,254,254)" /><rect x="51" y="116" width="14" height="14" fill="rgb(254,254,254)" /><rect x="64" y="116" width="14" height="14" fill="rgb(254,254,254)" /><rect x="77" y="116" width="14" height="14" fill="rgb(254,254,254)" /><rect x="90" y="116" width="14" height="14" fill="rgb(254,254,254)" /><rect x="103" y="116" width="14" height="14" fill="rgb(254,254,254)" /><rect x="116" y="116" width="14" height="14" fill="rgb(254,254,254)" /><rect x="129" y="116" width="14" height="14" fill="rgb(252,253,253)" /><rect x="142" y="116" width="14" height="14" fill="rgb(254,254,254)" /><rect x="155" y="116" width="25" height="14" fill="rgb(254,254,254)" /><rect x="0" y="129" width="14" height="14" fill="rgb(254,254,254)" /><rect x="12" y="129" width="14" height="14" fill="rgb(254,254,254)" /><rect x="25" y="129" width="14" height="14" fill="rgb(254,254,254)" /><rect x="38" y="129" width="14" height="14" fill="rgb(254,254,254)" /><rect x="51" y="129" width="14" height="14" fill="rgb(254,254,254)" /><rect x="64" y="129" width="14" height="14" fill="rgb(254,254,254)" /><rect x="77" y="129" width="14" height="14" fill="rgb(254,254,254)" /><rect x="90" y="129" width="14" height="14" fill="rgb(254,254,254)" /><rect x="103" y="129" width="14" height="14" fill="rgb(254,254,254)" /><rect x="116" y="129" width="14" height="14" fill="rgb(254,254,254)" /><rect x="129" y="129" width="14" height="14" fill="rgb(254,254,254)" /><rect x="142" y="129" width="14" height="14" fill="rgb(254,254,254)" /><rect x="155" y="129" width="25" height="14" fill="rgb(254,254,254)" /><rect x="0" y="142" width="14" height="14" fill="rgb(254,254,254)" /><rect x="12" y="142" width="14" height="14" fill="rgb(254,254,254)" /><rect x="25" y="142" width="14" height="14" fill="rgb(254,254,254)" /><rect x="38" y="142" width="14" height="14" fill="rgb(254,254,254)" /><rect x="51" y="142" width="14" height="14" fill="rgb(254,254,254)" /><rect x="64" y="142" width="14" height="14" fill="rgb(254,254,254)" /><rect x="77" y="142" width="14" height="14" fill="rgb(254,254,254)" /><rect x="90" y="142" width="14" height="14" fill="rgb(254,254,254)" /><rect x="103" y="142" width="14" height="14" fill="rgb(254,254,254)" /><rect x="116" y="142" width="14" height="14" fill="rgb(254,254,254)" /><rect x="129" y="142" width="14" height="14" fill="rgb(254,254,254)" /><rect x="142" y="142" width="14" height="14" fill="rgb(254,254,254)" /><rect x="155" y="142" width="25" height="14" fill="rgb(254,254,254)" /><rect x="0" y="155" width="14" height="25" fill="rgb(254,254,254)" /><rect x="12" y="155" width="14" height="25" fill="rgb(254,254,254)" /><rect x="25" y="155" width="14" height="25" fill="rgb(254,254,254)" /><rect x="38" y="155" width="14" height="25" fill="rgb(254,254,254)" /><rect x="51" y="155" width="14" height="25" fill="rgb(254,254,254)" /><rect x="64" y="155" width="14" height="25" fill="rgb(254,254,254)" /><rect x="77" y="155" width="14" height="25" fill="rgb(254,254,254)" /><rect x="90" y="155" width="14" height="25" fill="rgb(254,254,254)" /><rect x="103" y="155" width="14" height="25" fill="rgb(254,254,254)" /><rect x="116" y="155" width="14" height="25" fill="rgb(254,254,254)" /><rect x="129" y="155" width="14" height="25" fill="rgb(254,254,254)" /><rect x="142" y="155" width="14" height="25" fill="rgb(254,254,254)" /><rect x="155" y="155" width="25" height="25" fill="rgb(254,254,254)" /><g transform="translate(0.000000,180.000000) scale(0.100000,-0.100000)" fill="#0C3F6C" stroke="none"><path d="M390 1083 c-35 -7 -60 -37 -60 -72 0 -24 8 -36 37 -56 21 -14 46 -25 56 -25 23 0 70 -35 78 -58 4 -9 0 -30 -8 -46 -15 -28 -16 -28 -85 -24 -49 4 -66 2 -59 -5 6 -6 40 -11 76 -11 79 0 105 18 105 74 0 29 -6 41 -30 58 -16 12 -36 22 -45 22 -9 0 -34 9 -55 20 -35 18 -40 25 -40 55 0 45 26 59 96 53 59 -5 73 6 23 16 -33 6 -48 6 -89 -1z"/><path d="M995 1082 l-80 -3 2 -142 2 -142 93 -1 c51 0 66 1 33 3 -107 6 -106 5 -103 71 l3 57 73 3 c94 4 94 17 0 17 l-73 0 -3 57 c-3 65 -3 66 98 70 30 2 51 5 45 8 -5 3 -46 4 -90 2z"/><path d="M643 1071 c27 -4 53 -14 58 -22 5 -7 9 -68 8 -133 -2 -83 1 -121 9 -124 8 -2 12 37 14 135 l3 138 55 6 c36 4 12 6 -70 6 -82 0 -109 -2 -77 -6z"/><path d="M1200 935 l0 -145 88 0 c88 0 101 4 155 50 25 21 24 156 -2 187 -29 35 -86 53 -167 53 l-74 0 0 -145z m179 113 c28 -15 45 -33 56 -60 20 -50 19 -71 -4 -117 -25 -48 -78 -73 -147 -69 l-49 3 -3 119 c-1 66 0 126 2 133 9 21 98 16 145 -9z"/></g><g transform="translate(0.000000,180.000000) scale(0.100000,-0.100000)" fill="#2C597F" stroke="none"><path d="M378 1083 c6 -2 18 -2 25 0 6 3 1 5 -13 5 -14 0 -19 -2 -12 -5z"/><path d="M478 1083 c7 -3 16 -2 19 1 4 3 -2 6 -13 5 -11 0 -14 -3 -6 -6z"/><path d="M658 1083 c34 -2 90 -2 125 0 34 2 6 3 -63 3 -69 0 -97 -1 -62 -3z"/><path d="M958 1083 c23 -2 59 -2 80 0 20 2 1 4 -43 4 -44 0 -61 -2 -37 -4z"/><path d="M1084 1082 c5 -8 -7 -13 -41 -14 l-48 -1 44 -4 c45 -4 73 8 50 22 -8 5 -10 4 -5 -3z"/><path d="M1233 1083 c20 -2 54 -2 75 0 20 2 3 4 -38 4 -41 0 -58 -2 -37 -4z"/><path d="M506 1065 c-3 -8 -1 -15 4 -15 6 0 10 7 10 15 0 8 -2 15 -4 15 -2 0 -6 -7 -10 -15z"/><path d="M1370 1070 c8 -5 20 -10 25 -10 6 0 3 5 -5 10 -8 5 -19 10 -25 10 -5 0 -3 -5 5 -10z"/><path d="M374 1056 c-10 -8 -17 -16 -14 -19 3 -2 14 4 24 14 23 22 18 25 -10 5z"/><path d="M736 1061 c-3 -4 6 -6 19 -3 14 2 25 6 25 8 0 8 -39 4 -44 -5z"/><path d="M952 1061 c-9 -5 -12 -25 -10 -62 l3 -54 60 -1 60 0 -57 3 -58 4 0 49 c0 36 5 52 18 59 9 6 13 10 7 11 -5 0 -16 -4 -23 -9z"/><path d="M1234 1057 c-2 -7 -3 -67 -2 -133 3 -116 4 -119 26 -120 18 -1 19 -1 2 3 -19 4 -20 12 -20 128 l0 124 28 4 27 4 -28 2 c-15 0 -30 -5 -33 -12z"/><path d="M1300 1066 c0 -2 13 -6 29 -8 17 -2 28 -1 25 4 -5 8 -54 12 -54 4z"/><path d="M698 962 c4 -145 9 -161 10 -37 1 61 -2 115 -6 122 -4 6 -6 -32 -4 -85z"/><path d="M914 935 c0 -71 1 -99 3 -62 2 37 2 96 0 130 -2 34 -3 4 -3 -68z"/><path d="M1393 1030 c14 -11 29 -30 32 -41 4 -11 9 -18 12 -16 12 13 -38 76 -61 77 -5 0 3 -9 17 -20z"/><path d="M322 1015 c0 -16 2 -22 5 -12 2 9 2 23 0 30 -3 6 -5 -1 -5 -18z"/><path d="M1430 1036 c0 -2 8 -10 18 -17 15 -13 16 -12 3 4 -13 16 -21 21 -21 13z"/><path d="M360 991 c0 -6 4 -13 10 -16 6 -3 7 1 4 9 -7 18 -14 21 -14 7z"/><path d="M1463 935 c0 -27 2 -38 4 -22 2 15 2 37 0 50 -2 12 -4 0 -4 -28z"/><path d="M390 966 c0 -2 7 -7 16 -10 8 -3 12 -2 9 4 -6 10 -25 14 -25 6z"/><path d="M372 944 c10 -10 20 -16 22 -13 3 3 -5 11 -17 18 -21 13 -21 12 -5 -5z"/><path d="M1439 930 c-3 -19 -9 -44 -13 -55 -4 -11 0 -7 9 8 9 15 15 40 13 55 -3 25 -4 24 -9 -8z"/><path d="M438 943 c7 -3 16 -2 19 1 4 3 -2 6 -13 5 -11 0 -14 -3 -6 -6z"/><path d="M480 936 c0 -2 8 -10 18 -17 15 -13 16 -12 3 4 -13 16 -21 21 -21 13z"/><path d="M1080 930 c-9 -6 -10 -10 -3 -10 6 0 15 5 18 10 8 12 4 12 -15 0z"/><path d="M431 927 c2 -1 13 -9 24 -17 19 -14 19 -14 6 3 -7 9 -18 17 -24 17 -6 0 -8 -1 -6 -3z"/><path d="M944 916 c-3 -7 -3 -35 -1 -62 l3 -49 2 57 c1 34 7 58 15 61 9 4 9 6 -1 6 -7 1 -15 -5 -18 -13z"/><path d="M1394 834 c-18 -14 -18 -15 4 -4 12 6 22 13 22 15 0 8 -5 6 -26 -11z"/><path d="M470 810 c-9 -6 -10 -10 -3 -10 6 0 15 5 18 10 8 12 4 12 -15 0z"/><path d="M509 803 c-13 -16 -12 -17 4 -4 9 7 17 15 17 17 0 8 -8 3 -21 -13z"/><path d="M330 800 c0 -5 5 -10 11 -10 5 0 7 5 4 10 -3 6 -8 10 -11 10 -2 0 -4 -4 -4 -10z"/><path d="M1313 803 c9 -2 23 -2 30 0 6 3 -1 5 -18 5 -16 0 -22 -2 -12 -5z"/><path d="M919 787 c4 -4 48 -6 97 -5 l89 3 -97 5 c-53 3 -94 1 -89 -3z"/><path d="M378 783 c7 -3 16 -2 19 1 4 3 -2 6 -13 5 -11 0 -14 -3 -6 -6z"/><path d="M458 783 c7 -3 16 -2 19 1 4 3 -2 6 -13 5 -11 0 -14 -3 -6 -6z"/><path d="M1258 783 c18 -2 45 -2 60 0 15 2 0 4 -33 4 -33 0 -45 -2 -27 -4z"/></g><g transform="translate(0.000000,180.000000) scale(0.100000,-0.100000)" fill="#466C8C" stroke="none"><path d="M1348 1083 c7 -3 16 -2 19 1 4 3 -2 6 -13 5 -11 0 -14 -3 -6 -6z"/><path d="M521 1064 c0 -11 3 -14 6 -6 3 7 2 16 -1 19 -3 4 -6 -2 -5 -13z"/><path d="M1195 935 c0 -126 2 -150 15 -151 8 0 9 1 3 3 -9 3 -13 47 -16 151 l-3 147 1 -150z"/><path d="M458 1063 c7 -3 16 -2 19 1 4 3 -2 6 -13 5 -11 0 -14 -3 -6 -6z"/><path d="M638 1063 c7 -3 16 -2 19 1 4 3 -2 6 -13 5 -11 0 -14 -3 -6 -6z"/><path d="M735 1049 c-4 -6 -5 -12 -2 -15 2 -3 7 2 10 11 7 17 1 20 -8 4z"/><path d="M692 918 c-1 -70 1 -129 6 -131 4 -3 6 34 4 81 -5 160 -8 178 -10 50z"/><path d="M361 1014 c0 -11 3 -14 6 -6 3 7 2 16 -1 19 -3 4 -6 -2 -5 -13z"/><path d="M1433 935 c0 -22 2 -30 4 -17 2 12 2 30 0 40 -3 9 -5 -1 -4 -23z"/><path d="M993 923 c15 -2 39 -2 55 0 15 2 2 4 -28 4 -30 0 -43 -2 -27 -4z"/><path d="M533 855 c0 -22 2 -30 4 -17 2 12 2 30 0 40 -3 9 -5 -1 -4 -23z"/><path d="M1461 874 c0 -11 3 -14 6 -6 3 7 2 16 -1 19 -3 4 -6 -2 -5 -13z"/><path d="M491 854 c0 -11 3 -14 6 -6 3 7 2 16 -1 19 -3 4 -6 -2 -5 -13z"/><path d="M1434 828 l-19 -23 23 19 c12 11 22 21 22 23 0 8 -8 2 -26 -19z"/><path d="M338 813 c6 -2 18 -2 25 0 6 3 1 5 -13 5 -14 0 -19 -2 -12 -5z"/><path d="M408 803 c12 -2 30 -2 40 0 9 3 -1 5 -23 4 -22 0 -30 -2 -17 -4z"/><path d="M993 803 c15 -2 39 -2 55 0 15 2 2 4 -28 4 -30 0 -43 -2 -27 -4z"/><path d="M1348 783 c7 -3 16 -2 19 1 4 3 -2 6 -13 5 -11 0 -14 -3 -6 -6z"/><path d="M408 773 c12 -2 30 -2 40 0 9 3 -1 5 -23 4 -22 0 -30 -2 -17 -4z"/></g><g transform="translate(0.000000,180.000000) scale(0.100000,-0.100000)" fill="#597F9F" stroke="none"><path d="M398 1093 c7 -3 16 -2 19 1 4 3 -2 6 -13 5 -11 0 -14 -3 -6 -6z"/><path d="M448 1093 c6 -2 18 -2 25 0 6 3 1 5 -13 5 -14 0 -19 -2 -12 -5z"/><path d="M334 1068 l-19 -23 23 19 c21 18 27 26 19 26 -2 0 -12 -10 -23 -22z"/><path d="M904 935 c0 -82 2 -115 3 -72 2 43 2 110 0 150 -1 40 -3 5 -3 -78z"/><path d="M428 1063 c7 -3 16 -2 19 1 4 3 -2 6 -13 5 -11 0 -14 -3 -6 -6z"/><path d="M488 1048 c5 -5 16 -8 23 -6 8 3 3 7 -10 11 -17 4 -21 3 -13 -5z"/><path d="M676 1047 c3 -10 9 -15 12 -12 3 3 0 11 -7 18 -10 9 -11 8 -5 -6z"/><path d="M745 1050 c-3 -6 1 -7 9 -4 18 7 21 14 7 14 -6 0 -13 -4 -16 -10z"/><path d="M1245 1050 c-3 -6 1 -7 9 -4 18 7 21 14 7 14 -6 0 -13 -4 -16 -10z"/><path d="M1380 1036 c0 -2 8 -10 18 -17 15 -13 16 -12 3 4 -13 16 -21 21 -21 13z"/><path d="M734 910 c0 -69 1 -97 3 -62 2 34 2 90 0 125 -2 34 -3 6 -3 -63z"/><path d="M950 976 c0 -8 4 -17 9 -20 5 -4 7 3 4 14 -6 23 -13 26 -13 6z"/><path d="M320 976 c0 -2 8 -10 18 -17 15 -13 16 -12 3 4 -13 16 -21 21 -21 13z"/><path d="M1473 935 c0 -27 2 -38 4 -22 2 15 2 37 0 50 -2 12 -4 0 -4 -28z"/><path d="M1394 848 l-19 -23 23 19 c21 18 27 26 19 26 -2 0 -12 -10 -23 -22z"/><path d="M951 834 c0 -11 3 -14 6 -6 3 7 2 16 -1 19 -3 4 -6 -2 -5 -13z"/><path d="M323 815 c-3 -9 -3 -19 1 -22 3 -4 6 1 6 10 0 8 8 18 18 20 16 4 16 5 -1 6 -10 0 -20 -6 -24 -14z"/><path d="M519 803 c-13 -16 -12 -17 4 -4 9 7 17 15 17 17 0 8 -8 3 -21 -13z"/><path d="M1102 798 c2 -10 -21 -14 -92 -19 l-95 -5 91 -2 c68 -2 95 2 103 12 8 10 9 16 1 21 -6 4 -9 1 -8 -7z"/><path d="M698 778 c5 -5 16 -8 23 -6 8 3 3 7 -10 11 -17 4 -21 3 -13 -5z"/><path d="M1199 777 c4 -4 35 -7 67 -5 l59 3 -67 5 c-37 3 -63 1 -59 -3z"/><path d="M418 763 c7 -3 16 -2 19 1 4 3 -2 6 -13 5 -11 0 -14 -3 -6 -6z"/></g><g transform="translate(0.000000,180.000000) scale(0.100000,-0.100000)" fill="#7992AC" stroke="none"><path d="M423 1103 c9 -2 23 -2 30 0 6 3 -1 5 -18 5 -16 0 -22 -2 -12 -5z"/><path d="M635 1093 c95 -7 213 -7 208 0 -2 4 -59 6 -126 5 -67 -1 -104 -3 -82 -5z"/><path d="M907 1093 c-3 -5 41 -8 98 -8 57 0 101 3 98 8 -2 4 -46 7 -98 7 -52 0 -96 -3 -98 -7z"/><path d="M1233 1093 c20 -2 54 -2 75 0 20 2 3 4 -38 4 -41 0 -58 -2 -37 -4z"/><path d="M525 1065 c0 -13 3 -21 8 -18 4 2 7 10 7 18 0 8 -3 16 -7 18 -5 3 -8 -5 -8 -18z"/><path d="M581 1074 c0 -11 3 -14 6 -6 3 7 2 16 -1 19 -3 4 -6 -2 -5 -13z"/><path d="M1380 1086 c0 -2 7 -7 16 -10 8 -3 12 -2 9 4 -6 10 -25 14 -25 6z"/><path d="M805 1060 l-40 -7 37 -2 c20 0 40 4 43 9 3 6 5 9 3 9 -2 -1 -21 -5 -43 -9z"/><path d="M1040 1063 c-36 -2 -68 -7 -72 -11 -4 -4 23 -6 60 -4 37 2 71 8 77 13 5 5 7 8 5 7 -3 -1 -34 -3 -70 -5z"/><path d="M1440 1045 c13 -14 26 -25 28 -25 3 0 -5 11 -18 25 -13 14 -26 25 -28 25 -3 0 5 -11 18 -25z"/><path d="M600 1056 c0 -2 18 -6 39 -8 22 -2 37 0 35 4 -5 8 -74 11 -74 4z"/><path d="M1278 1053 c6 -2 18 -2 25 0 6 3 1 5 -13 5 -14 0 -19 -2 -12 -5z"/><path d="M1244 1037 c-2 -7 -3 -60 -2 -117 2 -82 6 -104 18 -107 12 -4 12 -3 2 5 -10 7 -13 37 -10 121 2 61 2 111 0 111 -1 0 -5 -6 -8 -13z"/><path d="M1328 1043 c7 -3 16 -2 19 1 4 3 -2 6 -13 5 -11 0 -14 -3 -6 -6z"/><path d="M312 1015 c0 -16 2 -22 5 -12 2 9 2 23 0 30 -3 6 -5 -1 -5 -18z"/><path d="M1385 1020 c10 -11 20 -20 23 -20 3 0 -3 9 -13 20 -10 11 -20 20 -23 20 -3 0 3 -9 13 -20z"/><path d="M684 910 c0 -69 1 -97 3 -62 2 34 2 90 0 125 -2 34 -3 6 -3 -63z"/><path d="M951 1004 c0 -11 3 -14 6 -6 3 7 2 16 -1 19 -3 4 -6 -2 -5 -13z"/><path d="M370 1001 c0 -6 4 -13 10 -16 6 -3 7 1 4 9 -7 18 -14 21 -14 7z"/><path d="M420 965 c14 -8 30 -14 35 -14 6 0 -1 6 -15 14 -14 8 -29 14 -35 14 -5 0 1 -6 15 -14z"/><path d="M969 957 c4 -4 37 -7 72 -5 l64 3 -72 5 c-40 3 -68 1 -64 -3z"/><path d="M1483 935 c0 -22 2 -30 4 -17 2 12 2 30 0 40 -3 9 -5 -1 -4 -23z"/><path d="M1422 935 c0 -16 2 -22 5 -12 2 9 2 23 0 30 -3 6 -5 -1 -5 -18z"/><path d="M481 947 c2 -1 13 -9 24 -17 19 -14 19 -14 6 3 -7 9 -18 17 -24 17 -6 0 -8 -1 -6 -3z"/><path d="M967 913 c-3 -5 16 -7 41 -5 80 5 90 9 25 11 -34 0 -64 -2 -66 -6z"/><path d="M482 860 c0 -14 2 -19 5 -12 2 6 2 18 0 25 -3 6 -5 1 -5 -13z"/><path d="M542 860 c0 -14 2 -19 5 -12 2 6 2 18 0 25 -3 6 -5 1 -5 -13z"/><path d="M951 864 c0 -11 3 -14 6 -6 3 7 2 16 -1 19 -3 4 -6 -2 -5 -13z"/><path d="M1449 833 c-13 -16 -12 -17 4 -4 9 7 17 15 17 17 0 8 -8 3 -21 -13z"/><path d="M367 819 c7 -7 15 -10 18 -7 3 3 -2 9 -12 12 -14 6 -15 5 -6 -5z"/><path d="M1318 813 c7 -3 16 -2 19 1 4 3 -2 6 -13 5 -11 0 -14 -3 -6 -6z"/><path d="M912 774 c10 -10 20 -16 22 -13 3 3 -5 11 -17 18 -21 13 -21 12 -5 -5z"/><path d="M1328 773 c6 -2 18 -2 25 0 6 3 1 5 -13 5 -14 0 -19 -2 -12 -5z"/><path d="M388 763 c7 -3 16 -2 19 1 4 3 -2 6 -13 5 -11 0 -14 -3 -6 -6z"/><path d="M448 763 c7 -3 16 -2 19 1 4 3 -2 6 -13 5 -11 0 -14 -3 -6 -6z"/></g><g transform="translate(0.000000,180.000000) scale(0.100000,-0.100000)" fill="#A5B8CC" stroke="none"><path d="M388 1103 c7 -3 16 -2 19 1 4 3 -2 6 -13 5 -11 0 -14 -3 -6 -6z"/><path d="M468 1103 c7 -3 16 -2 19 1 4 3 -2 6 -13 5 -11 0 -14 -3 -6 -6z"/><path d="M573 1084 c-3 -8 -1 -20 5 -26 13 -13 103 -28 96 -16 -3 4 -18 8 -34 8 -15 0 -35 3 -44 6 -19 7 -21 30 -3 37 9 4 9 6 -1 6 -7 1 -15 -6 -19 -15z"/><path d="M1104 1078 c1 -21 -4 -23 -64 -26 -36 -2 -68 -6 -72 -10 -4 -4 25 -5 64 -2 52 4 74 9 82 22 7 12 7 21 0 28 -8 8 -10 4 -10 -12z"/><path d="M1184 1087 c-2 -7 -3 -80 -2 -162 l3 -150 5 163 c3 89 4 162 2 162 -1 0 -5 -6 -8 -13z"/><path d="M1348 1093 c6 -2 18 -2 25 0 6 3 1 5 -13 5 -14 0 -19 -2 -12 -5z"/><path d="M320 1065 c-7 -9 -11 -17 -9 -20 3 -2 10 5 17 15 14 24 10 26 -8 5z"/><path d="M894 935 c0 -82 2 -115 3 -72 2 43 2 110 0 150 -1 40 -3 5 -3 -78z"/><path d="M407 1053 c-3 -5 12 -8 33 -8 21 0 36 3 33 8 -2 4 -17 7 -33 7 -16 0 -31 -3 -33 -7z"/><path d="M805 1053 c-63 -7 -65 -11 -65 -147 0 -82 -4 -126 -12 -134 -9 -9 -9 -12 0 -12 17 0 22 31 25 160 l2 115 40 3 c22 2 44 8 50 13 5 5 7 8 5 7 -3 -1 -23 -3 -45 -5z"/><path d="M510 1040 c-23 -7 -23 -8 -3 -9 12 -1 25 4 28 9 3 6 5 10 3 9 -2 -1 -14 -5 -28 -9z"/><path d="M1256 1042 c-2 -4 11 -6 30 -4 19 2 34 6 34 8 0 8 -59 4 -64 -4z"/><path d="M375 1029 c-4 -6 -5 -12 -2 -15 2 -3 7 2 10 11 7 17 1 20 -8 4z"/><path d="M1348 1033 c7 -3 16 -2 19 1 4 3 -2 6 -13 5 -11 0 -14 -3 -6 -6z"/><path d="M1413 935 c0 -27 2 -38 4 -22 2 15 2 37 0 50 -2 12 -4 0 -4 -28z"/><path d="M1013 963 c9 -2 23 -2 30 0 6 3 -1 5 -18 5 -16 0 -22 -2 -12 -5z"/><path d="M1068 963 c7 -3 16 -2 19 1 4 3 -2 6 -13 5 -11 0 -14 -3 -6 -6z"/><path d="M352 934 c10 -10 20 -16 22 -13 3 3 -5 11 -17 18 -21 13 -21 12 -5 -5z"/><path d="M515 930 c10 -11 20 -20 23 -20 3 0 -3 9 -13 20 -10 11 -20 20 -23 20 -3 0 3 -9 13 -20z"/><path d="M1101 938 c-1 -9 -9 -22 -18 -27 -10 -6 -13 -11 -7 -11 17 0 37 27 31 42 -4 8 -6 7 -6 -4z"/><path d="M410 910 c8 -5 20 -10 25 -10 6 0 3 5 -5 10 -8 5 -19 10 -25 10 -5 0 -3 -5 5 -10z"/><path d="M1477 881 c-4 -17 -3 -21 5 -13 5 5 8 16 6 23 -3 8 -7 3 -11 -10z"/><path d="M1389 853 c-13 -16 -12 -17 4 -4 16 13 21 21 13 21 -2 0 -10 -8 -17 -17z"/><path d="M320 836 c0 -2 13 -6 29 -8 17 -2 28 -1 25 4 -5 8 -54 12 -54 4z"/><path d="M1345 830 c-3 -6 1 -7 9 -4 18 7 21 14 7 14 -6 0 -13 -4 -16 -10z"/><path d="M1439 813 l-24 -28 28 24 c25 23 32 31 24 31 -2 0 -14 -12 -28 -27z"/><path d="M969 817 c4 -4 39 -7 77 -5 l69 3 -77 5 c-42 3 -73 1 -69 -3z"/><path d="M310 806 c0 -8 4 -17 9 -20 5 -4 7 3 4 14 -6 23 -13 26 -13 6z"/><path d="M398 813 c7 -3 16 -2 19 1 4 3 -2 6 -13 5 -11 0 -14 -3 -6 -6z"/><path d="M1278 813 c6 -2 18 -2 25 0 6 3 1 5 -13 5 -14 0 -19 -2 -12 -5z"/><path d="M1121 797 c-1 -10 -11 -22 -23 -27 -16 -6 -18 -9 -7 -9 21 -1 43 24 36 41 -3 8 -6 6 -6 -5z"/><path d="M680 781 c0 -10 19 -25 25 -20 1 2 -3 10 -11 17 -8 7 -14 8 -14 3z"/><path d="M350 770 c8 -5 20 -10 25 -10 6 0 3 5 -5 10 -8 5 -19 10 -25 10 -5 0 -3 -5 5 -10z"/><path d="M480 770 c-9 -6 -10 -10 -3 -10 6 0 15 5 18 10 8 12 4 12 -15 0z"/><path d="M967 763 c18 -2 50 -2 70 0 21 2 7 4 -32 4 -38 0 -55 -2 -38 -4z"/><path d="M1247 763 c18 -2 50 -2 70 0 21 2 7 4 -32 4 -38 0 -55 -2 -38 -4z"/><path d="M418 753 c7 -3 16 -2 19 1 4 3 -2 6 -13 5 -11 0 -14 -3 -6 -6z"/><path d="M600 712 c0 -10 33 -42 43 -42 14 0 7 23 -10 36 -21 16 -33 18 -33 6z"/><path d="M1050 700 c0 -11 5 -20 10 -20 6 0 10 9 10 20 0 11 -4 20 -10 20 -5 0 -10 -9 -10 -20z"/><path d="M1192 698 c2 -18 11 -24 36 -26 24 -2 32 1 32 12 0 9 -8 16 -19 16 -11 0 -23 5 -26 10 -11 18 -26 10 -23 -12z"/><path d="M370 690 c0 -13 5 -20 13 -17 6 2 12 10 12 17 0 7 -6 15 -12 18 -8 2 -13 -5 -13 -18z"/><path d="M880 695 c0 -8 5 -15 10 -15 6 0 10 7 10 15 0 8 -4 15 -10 15 -5 0 -10 -7 -10 -15z"/><path d="M946 703 c-12 -12 -6 -33 9 -33 8 0 15 6 15 14 0 17 -14 28 -24 19z"/><path d="M1420 685 c0 -10 -10 -15 -30 -15 -16 0 -30 -4 -30 -10 0 -17 46 -11 63 8 19 21 22 32 7 32 -5 0 -10 -7 -10 -15z"/><path d="M1328 683 c7 -3 16 -2 19 1 4 3 -2 6 -13 5 -11 0 -14 -3 -6 -6z"/></g><g transform="translate(0.000000,180.000000) scale(0.100000,-0.100000)" fill="#BFCCD8" stroke="none"><path d="M413 1113 c15 -2 37 -2 50 0 12 2 0 4 -28 4 -27 0 -38 -2 -22 -4z"/><path d="M653 1103 c37 -2 96 -2 130 0 34 2 4 3 -68 3 -71 0 -99 -1 -62 -3z"/><path d="M958 1103 c29 -2 74 -2 100 0 26 2 2 3 -53 3 -55 0 -76 -1 -47 -3z"/><path d="M1187 1103 c-3 -5 18 -7 46 -5 92 5 104 9 30 11 -39 0 -74 -2 -76 -6z"/><path d="M324 1078 l-19 -23 23 19 c21 18 27 26 19 26 -2 0 -12 -10 -23 -22z"/><path d="M851 1074 c0 -11 3 -14 6 -6 3 7 2 16 -1 19 -3 4 -6 -2 -5 -13z"/><path d="M577 1049 c7 -7 15 -10 18 -7 3 3 -2 9 -12 12 -14 6 -15 5 -6 -5z"/><path d="M1255 1030 c-3 -6 1 -7 9 -4 18 7 21 14 7 14 -6 0 -13 -4 -16 -10z"/><path d="M1318 1033 c7 -3 16 -2 19 1 4 3 -2 6 -13 5 -11 0 -14 -3 -6 -6z"/><path d="M962 1005 c0 -16 2 -22 5 -12 2 9 2 23 0 30 -3 6 -5 -1 -5 -18z"/><path d="M1385 1010 c10 -11 20 -20 23 -20 3 0 -3 9 -13 20 -10 11 -20 20 -23 20 -3 0 3 -9 13 -20z"/><path d="M674 900 c0 -63 1 -89 3 -57 2 31 2 83 0 115 -2 31 -3 5 -3 -58z"/><path d="M1253 935 c0 -38 2 -53 4 -32 2 20 2 52 0 70 -2 17 -4 1 -4 -38z"/><path d="M1493 935 c0 -27 2 -38 4 -22 2 15 2 37 0 50 -2 12 -4 0 -4 -28z"/><path d="M978 963 c7 -3 16 -2 19 1 4 3 -2 6 -13 5 -11 0 -14 -3 -6 -6z"/><path d="M330 946 c0 -2 8 -10 18 -17 15 -13 16 -12 3 4 -13 16 -21 21 -21 13z"/><path d="M1003 903 c15 -2 37 -2 50 0 12 2 0 4 -28 4 -27 0 -38 -2 -22 -4z"/><path d="M962 860 c0 -19 2 -27 5 -17 2 9 2 25 0 35 -3 9 -5 1 -5 -18z"/><path d="M552 860 c0 -14 2 -19 5 -12 2 6 2 18 0 25 -3 6 -5 1 -5 -13z"/><path d="M1384 858 l-19 -23 23 19 c21 18 27 26 19 26 -2 0 -12 -10 -23 -22z"/><path d="M1250 846 c0 -8 4 -17 9 -20 5 -4 7 3 4 14 -6 23 -13 26 -13 6z"/><path d="M1330 830 c-9 -6 -10 -10 -3 -10 6 0 15 5 18 10 8 12 4 12 -15 0z"/><path d="M890 781 c0 -6 4 -13 10 -16 6 -3 7 1 4 9 -7 18 -14 21 -14 7z"/><path d="M1270 760 l-85 -6 82 -2 c46 -1 85 2 88 8 3 6 5 9 3 8 -2 -1 -41 -5 -88 -8z"/><path d="M388 753 c7 -3 16 -2 19 1 4 3 -2 6 -13 5 -11 0 -14 -3 -6 -6z"/><path d="M448 753 c6 -2 18 -2 25 0 6 3 1 5 -13 5 -14 0 -19 -2 -12 -5z"/><path d="M708 753 c7 -3 16 -2 19 1 4 3 -2 6 -13 5 -11 0 -14 -3 -6 -6z"/><path d="M963 753 c26 -2 68 -2 95 0 26 2 4 3 -48 3 -52 0 -74 -1 -47 -3z"/><path d="M580 723 c0 -5 -58 -7 -130 -5 l-130 3 4 -33 c2 -27 8 -34 28 -36 17 -2 32 5 44 20 21 26 94 39 94 16 0 -9 3 -9 12 0 17 17 38 15 38 -4 0 -13 7 -15 33 -11 18 2 46 -2 65 -11 29 -14 34 -14 42 -2 8 12 13 13 30 3 11 -7 28 -13 37 -12 15 0 14 2 -4 11 -27 13 -29 24 -7 36 27 15 75 2 84 -24 11 -28 29 -30 72 -8 29 15 32 15 43 0 7 -9 17 -16 23 -16 16 0 30 30 25 51 -7 27 -104 24 -111 -3 -4 -18 -5 -18 -24 2 -15 16 -31 20 -78 20 -32 0 -62 -5 -65 -10 -5 -8 -11 -7 -20 0 -8 7 -23 9 -34 5 -10 -3 -22 -1 -26 5 -7 11 -45 14 -45 3z m53 -17 c17 -13 24 -36 10 -36 -10 0 -43 32 -43 42 0 12 12 10 33 -6z m-238 -16 c0 -7 -6 -15 -12 -17 -8 -3 -13 4 -13 17 0 13 5 20 13 18 6 -3 12 -11 12 -18z m505 5 c0 -8 -4 -15 -10 -15 -5 0 -10 7 -10 15 0 8 5 15 10 15 6 0 10 -7 10 -15z m70 -11 c0 -8 -7 -14 -15 -14 -15 0 -21 21 -9 33 10 9 24 -2 24 -19z m-610 -4 c0 -5 -2 -10 -4 -10 -3 0 -8 5 -11 10 -3 6 -1 10 4 10 6 0 11 -4 11 -10z"/><path d="M1172 723 c-29 -6 -44 -33 -29 -54 8 -10 30 -15 69 -16 55 0 56 1 60 29 3 17 0 31 -6 33 -25 7 -73 11 -94 8z m43 -13 c3 -5 15 -10 26 -10 11 0 19 -7 19 -16 0 -11 -8 -15 -33 -13 -18 2 -38 0 -45 -5 -16 -9 -32 1 -32 21 0 10 6 14 20 10 13 -3 20 0 20 9 0 16 16 19 25 4z"/><path d="M1041 704 c0 -11 3 -14 6 -6 3 7 2 16 -1 19 -3 4 -6 -2 -5 -13z"/><path d="M1071 704 c0 -11 3 -14 6 -6 3 7 2 16 -1 19 -3 4 -6 -2 -5 -13z"/><path d="M1328 713 c-21 -3 -28 -10 -28 -27 0 -29 10 -39 25 -26 9 7 16 6 25 -5 15 -18 61 -20 78 -3 15 15 16 32 2 23 -5 -3 -10 1 -10 10 0 12 7 14 30 10 22 -4 30 -1 30 10 0 12 -13 15 -62 14 -35 -1 -75 -4 -90 -6z m78 -28 c-3 -8 -1 -15 5 -15 6 0 7 -4 4 -10 -3 -5 -17 -10 -31 -10 -13 0 -24 5 -24 10 0 6 7 10 15 10 9 0 12 6 9 15 -4 10 0 15 11 15 11 0 15 -5 11 -15z m-59 -1 c-3 -3 -12 -4 -19 -1 -8 3 -5 6 6 6 11 1 17 -2 13 -5z"/><path d="M440 660 c0 -5 9 -10 21 -10 11 0 17 5 14 10 -3 6 -13 10 -21 10 -8 0 -14 -4 -14 -10z"/></g><g transform="translate(0.000000,180.000000) scale(0.100000,-0.100000)" fill="#D8DFE5" stroke="none"><path d="M714 1113 c74 -2 126 -8 135 -16 14 -11 14 -10 2 6 -12 15 -30 17 -135 15 l-121 -2 119 -3z"/><path d="M897 1102 c-14 -16 -17 -43 -17 -173 0 -152 5 -180 34 -179 6 0 3 5 -6 11 -16 9 -18 28 -18 168 0 126 3 161 14 170 10 8 46 11 109 9 53 -2 93 0 90 5 -2 4 -46 7 -97 7 -77 0 -96 -3 -109 -18z"/><path d="M1228 1113 c18 -2 45 -2 60 0 15 2 0 4 -33 4 -33 0 -45 -2 -27 -4z"/><path d="M1400 1096 c0 -2 8 -10 18 -17 15 -13 16 -12 3 4 -13 16 -21 21 -21 13z"/><path d="M542 1060 c0 -14 2 -19 5 -12 2 6 2 18 0 25 -3 6 -5 1 -5 -13z"/><path d="M1116 1053 c-6 -14 -5 -15 5 -6 7 7 10 15 7 18 -3 3 -9 -2 -12 -12z"/><path d="M428 1043 c7 -3 16 -2 19 1 4 3 -2 6 -13 5 -11 0 -14 -3 -6 -6z"/><path d="M608 1033 c12 -2 32 -2 45 0 12 2 2 4 -23 4 -25 0 -35 -2 -22 -4z"/><path d="M788 1033 c12 -2 30 -2 40 0 9 3 -1 5 -23 4 -22 0 -30 -2 -17 -4z"/><path d="M997 1033 c18 -2 50 -2 70 0 21 2 7 4 -32 4 -38 0 -55 -2 -38 -4z"/><path d="M1288 1033 c7 -3 16 -2 19 1 4 3 -2 6 -13 5 -11 0 -14 -3 -6 -6z"/><path d="M301 1014 c0 -11 3 -14 6 -6 3 7 2 16 -1 19 -3 4 -6 -2 -5 -13z"/><path d="M754 915 c0 -60 1 -84 3 -52 2 32 2 81 0 110 -2 29 -3 3 -3 -58z"/><path d="M1486 997 c3 -10 9 -15 12 -12 3 3 0 11 -7 18 -10 9 -11 8 -5 -6z"/><path d="M1401 974 c0 -11 3 -14 6 -6 3 7 2 16 -1 19 -3 4 -6 -2 -5 -13z"/><path d="M1000 974 c34 -7 108 -8 103 -1 -2 4 -30 6 -61 6 -31 -1 -50 -3 -42 -5z"/><path d="M500 956 c0 -2 8 -10 18 -17 15 -13 16 -12 3 4 -13 16 -21 21 -21 13z"/><path d="M1013 893 c15 -2 39 -2 55 0 15 2 2 4 -28 4 -30 0 -43 -2 -27 -4z"/><path d="M1486 873 c-6 -14 -5 -15 5 -6 7 7 10 15 7 18 -3 3 -9 -2 -12 -12z"/><path d="M462 842 c-11 -25 -11 -25 4 -10 9 9 15 21 13 27 -2 6 -10 -2 -17 -17z"/><path d="M557 851 c-4 -17 -3 -21 5 -13 5 5 8 16 6 23 -3 8 -7 3 -11 -10z"/><path d="M338 843 c7 -3 16 -2 19 1 4 3 -2 6 -13 5 -11 0 -14 -3 -6 -6z"/><path d="M1269 827 c5 -5 19 -7 32 -5 20 3 19 5 -9 9 -20 3 -29 2 -23 -4z"/><path d="M1018 823 c17 -2 47 -2 65 0 17 2 3 4 -33 4 -36 0 -50 -2 -32 -4z"/><path d="M1127 799 c4 -13 8 -18 11 -10 2 7 -1 18 -6 23 -8 8 -9 4 -5 -13z"/><path d="M1429 793 c-13 -16 -12 -17 4 -4 16 13 21 21 13 21 -2 0 -10 -8 -17 -17z"/><path d="M742 772 c-11 -25 -11 -25 4 -10 9 9 15 21 13 27 -2 6 -10 -2 -17 -17z"/><path d="M496 765 c-11 -8 -15 -15 -9 -15 6 0 16 7 23 15 16 19 11 19 -14 0z"/><path d="M1110 760 c-9 -6 -10 -10 -3 -10 6 0 15 5 18 10 8 12 4 12 -15 0z"/><path d="M1345 754 c-11 -8 -19 -18 -17 -22 1 -4 -11 -9 -28 -12 -17 -3 -31 -8 -30 -12 2 -46 -2 -58 -17 -59 -12 0 -13 -2 -5 -6 7 -3 19 0 26 6 7 6 16 7 20 3 4 -4 20 -7 36 -7 22 0 26 3 18 13 -7 8 -14 9 -23 2 -15 -13 -25 -3 -25 25 0 25 35 35 128 35 41 0 52 -3 52 -16 0 -10 -6 -14 -15 -11 -9 4 -19 -5 -29 -26 -16 -32 -16 -32 3 -9 12 14 25 20 36 16 13 -6 16 -1 13 22 -3 28 -4 29 -70 32 -68 3 -83 12 -50 31 9 6 13 10 7 10 -5 0 -19 -6 -30 -15z"/><path d="M572 738 c-7 -7 -33 -11 -60 -11 l-47 1 55 -8 c33 -5 56 -5 58 1 5 12 36 11 49 -2 8 -8 16 -8 30 1 17 11 17 11 0 6 -10 -3 -28 1 -40 9 -26 18 -30 18 -45 3z"/><path d="M1190 741 c0 -5 -13 -11 -30 -14 -19 -4 -30 -13 -30 -24 0 -16 1 -16 13 0 6 10 26 18 43 20 20 1 30 6 27 15 -6 14 -23 17 -23 3z"/><path d="M333 723 c9 -2 25 -2 35 0 9 3 1 5 -18 5 -19 0 -27 -2 -17 -5z"/><path d="M782 721 c41 -4 62 -12 72 -26 13 -17 15 -18 16 -3 0 9 8 22 18 27 9 6 12 11 6 11 -5 0 -15 -5 -21 -11 -8 -8 -17 -8 -31 0 -11 6 -42 10 -69 10 l-48 -2 57 -6z"/><path d="M685 710 c4 -6 11 -8 16 -5 14 9 11 15 -7 15 -8 0 -12 -5 -9 -10z"/><path d="M981 704 c0 -11 3 -14 6 -6 3 7 2 16 -1 19 -3 4 -6 -2 -5 -13z"/><path d="M310 705 c0 -5 5 -17 10 -25 5 -8 10 -10 10 -5 0 6 -5 17 -10 25 -5 8 -10 11 -10 5z"/><path d="M762 693 c14 -17 4 -28 -17 -19 -9 3 -13 11 -9 17 4 8 3 9 -4 5 -18 -11 -14 -22 11 -34 18 -9 19 -11 4 -11 -9 -1 -26 5 -37 12 -17 10 -22 9 -29 -2 -6 -9 -16 -11 -27 -7 -16 6 -17 5 -6 -6 10 -10 16 -10 33 1 15 9 24 10 32 2 17 -17 38 -13 64 11 l23 22 16 -22 c18 -26 43 -28 70 -6 18 15 18 15 -3 5 -34 -17 -53 -13 -63 13 -6 16 -19 25 -39 28 -25 4 -28 2 -19 -9z"/><path d="M396 673 c-14 -19 -25 -24 -47 -21 -15 3 -26 1 -23 -4 9 -13 51 -9 64 7 7 8 18 15 25 15 7 0 15 -7 19 -15 8 -23 44 -18 68 10 11 13 25 22 30 19 4 -3 8 0 8 5 0 14 -27 14 -36 0 -4 -8 -9 -7 -15 2 -7 11 -9 9 -10 -6 -1 -11 -1 -23 0 -27 0 -5 -8 -8 -19 -8 -11 0 -20 5 -20 10 0 6 4 10 8 10 5 0 9 6 9 14 0 23 -41 15 -61 -11z"/><path d="M1151 687 c0 -10 -5 -15 -11 -12 -16 10 -12 -11 5 -25 11 -9 24 -9 52 -1 l38 10 -42 -5 c-25 -3 -43 -2 -43 4 0 5 7 9 16 8 9 0 18 5 20 12 1 7 0 8 -3 2 -7 -16 -21 -12 -26 8 -4 16 -5 16 -6 -1z"/><path d="M1382 689 c2 -6 8 -10 13 -10 5 0 11 4 13 10 2 6 -4 11 -13 11 -9 0 -15 -5 -13 -11z"/><path d="M345 680 c3 -5 8 -10 11 -10 2 0 4 5 4 10 0 6 -5 10 -11 10 -5 0 -7 -4 -4 -10z"/><path d="M1040 678 c0 -4 6 -8 14 -8 8 0 17 4 20 8 2 4 -4 8 -15 8 -10 0 -19 -4 -19 -8z"/><path d="M573 673 c-13 -2 -23 -9 -23 -15 0 -6 10 -8 23 -4 12 3 31 6 42 6 17 0 17 2 5 10 -8 5 -17 9 -20 8 -3 0 -15 -3 -27 -5z"/><path d="M929 659 c22 -24 61 -18 61 9 -1 16 -2 15 -11 0 -12 -22 -35 -23 -43 -3 -3 8 -10 15 -16 15 -6 0 -2 -9 9 -21z"/><path d="M1378 633 c6 -2 18 -2 25 0 6 3 1 5 -13 5 -14 0 -19 -2 -12 -5z"/></g><g transform="translate(0.000000,180.000000) scale(0.100000,-0.100000)" fill="#EBF2F2" stroke="none"><path d="M346 1110 c-35 -22 -46 -38 -45 -65 1 -16 2 -15 8 5 11 39 66 70 123 70 27 0 59 -5 71 -11 21 -10 21 -10 3 5 -28 23 -123 20 -160 -4z"/><path d="M578 1119 c-10 -5 -18 -15 -18 -20 0 -6 10 -3 22 5 33 24 250 23 269 -1 10 -12 15 -59 18 -174 3 -133 6 -160 20 -171 13 -10 14 -10 4 2 -9 10 -13 59 -13 170 0 194 -3 190 126 190 96 -1 124 -12 124 -48 0 -12 -8 -26 -17 -31 -16 -9 -16 -10 -2 -11 34 0 39 62 7 84 -32 22 -194 22 -226 0 -20 -14 -24 -14 -38 0 -12 13 -40 16 -137 16 -67 0 -130 -5 -139 -11z"/><path d="M1187 1123 c-14 -13 -6 -25 8 -13 15 12 102 10 165 -5 14 -3 9 1 -10 9 -36 15 -151 21 -163 9z"/><path d="M1410 1096 c0 -2 8 -10 18 -17 15 -13 16 -12 3 4 -13 16 -21 21 -21 13z"/><path d="M845 1040 c-3 -5 -1 -10 4 -10 6 0 11 5 11 10 0 6 -2 10 -4 10 -3 0 -8 -4 -11 -10z"/><path d="M423 1033 c9 -2 23 -2 30 0 6 3 -1 5 -18 5 -16 0 -22 -2 -12 -5z"/><path d="M510 1030 l-35 -7 32 -2 c17 0 35 4 38 9 3 6 5 9 3 9 -2 -1 -19 -5 -38 -9z"/><path d="M380 1021 c0 -6 4 -12 8 -15 5 -3 9 1 9 9 0 8 -4 15 -9 15 -4 0 -8 -4 -8 -9z"/><path d="M760 902 c0 -89 -4 -132 -12 -141 -11 -11 -10 -13 2 -9 12 4 16 32 20 141 3 76 2 137 -2 137 -5 0 -8 -58 -8 -128z"/><path d="M1260 935 c0 -109 4 -114 73 -97 l42 10 -50 -2 -50 -1 0 93 c0 50 -3 92 -7 92 -5 0 -8 -43 -8 -95z"/><path d="M1362 1016 c7 -8 15 -12 17 -11 5 6 -10 25 -20 25 -5 0 -4 -6 3 -14z"/><path d="M302 980 c0 -14 2 -19 5 -12 2 6 2 18 0 25 -3 6 -5 1 -5 -13z"/><path d="M430 983 c8 -3 24 -10 35 -15 20 -9 20 -9 1 6 -11 9 -27 16 -35 15 -14 0 -14 -1 -1 -6z"/><path d="M1010 984 c35 -7 98 -9 94 -2 -3 5 -29 7 -57 7 -29 -1 -45 -3 -37 -5z"/><path d="M1503 935 c0 -33 2 -45 4 -27 2 18 2 45 0 60 -2 15 -4 0 -4 -33z"/><path d="M525 940 c10 -11 20 -20 23 -20 3 0 -3 9 -13 20 -10 11 -20 20 -23 20 -3 0 3 -9 13 -20z"/><path d="M1112 940 c0 -14 2 -19 5 -12 2 6 2 18 0 25 -3 6 -5 1 -5 -13z"/><path d="M1402 930 c0 -19 2 -27 5 -17 2 9 2 25 0 35 -3 9 -5 1 -5 -18z"/><path d="M333 930 c14 -11 28 -20 32 -20 4 0 -4 9 -18 20 -14 11 -28 20 -32 20 -4 0 4 -9 18 -20z"/><path d="M397 899 c7 -7 15 -10 18 -7 3 3 -2 9 -12 12 -14 6 -15 5 -6 -5z"/><path d="M561 880 c14 -31 19 -36 19 -24 0 6 -7 19 -16 30 -14 18 -14 18 -3 -6z"/><path d="M376 835 c10 -8 23 -15 28 -15 6 0 1 7 -10 15 -10 8 -23 15 -28 15 -6 0 -1 -7 10 -15z"/><path d="M974 838 c1 -8 22 -11 63 -9 34 1 72 -3 85 -9 22 -11 22 -11 3 5 -15 12 -36 15 -83 13 -34 -2 -64 0 -66 5 -3 4 -3 2 -2 -5z"/><path d="M557 833 c-4 -3 -7 -11 -7 -17 0 -6 5 -5 12 2 6 6 9 14 7 17 -3 3 -9 2 -12 -2z"/><path d="M1443 803 c-17 -18 -28 -33 -24 -33 9 0 66 59 60 63 -2 1 -18 -12 -36 -30z"/><path d="M300 806 c0 -14 4 -27 8 -30 5 -3 6 8 4 25 -5 35 -12 38 -12 5z"/><path d="M520 774 c-13 -13 -31 -24 -38 -24 -7 0 -10 -4 -7 -10 3 -5 21 -10 38 -10 28 1 30 2 13 12 -18 10 -18 11 5 29 13 10 22 20 19 22 -3 2 -16 -6 -30 -19z"/><path d="M1126 763 c-6 -14 -5 -15 5 -6 7 7 10 15 7 18 -3 3 -9 -2 -12 -12z"/><path d="M670 760 c0 -5 5 -10 11 -10 5 0 7 5 4 10 -3 6 -8 10 -11 10 -2 0 -4 -4 -4 -10z"/><path d="M559 738 c-12 -23 -12 -23 9 -4 20 17 23 18 46 2 35 -23 44 -20 13 4 -33 26 -54 25 -68 -2z"/><path d="M1176 745 c-3 -8 -1 -15 4 -15 6 0 10 7 10 15 0 8 -2 15 -4 15 -2 0 -6 -7 -10 -15z"/><path d="M1355 749 c-4 -6 -5 -12 -2 -15 2 -3 7 2 10 11 7 17 1 20 -8 4z"/><path d="M403 743 c9 -2 25 -2 35 0 9 3 1 5 -18 5 -19 0 -27 -2 -17 -5z"/><path d="M766 741 c-5 -7 4 -11 24 -11 17 0 40 -5 51 -10 11 -6 25 -8 32 -3 7 4 -1 10 -23 16 -19 4 -45 11 -56 14 -12 2 -25 0 -28 -6z"/><path d="M1008 743 c12 -2 32 -2 45 0 12 2 2 4 -23 4 -25 0 -35 -2 -22 -4z"/><path d="M1214 738 c3 -16 116 -18 117 -3 0 5 -5 11 -12 14 -7 2 -9 -1 -5 -8 5 -8 -8 -11 -43 -11 -27 0 -52 5 -54 10 -3 6 -4 5 -3 -2z"/><path d="M1448 733 c7 -3 16 -2 19 1 4 3 -2 6 -13 5 -11 0 -14 -3 -6 -6z"/><path d="M305 711 c-10 -33 5 -71 32 -77 13 -4 27 -4 30 0 4 3 -3 6 -15 6 -26 0 -34 12 -35 56 -1 39 -3 42 -12 15z"/><path d="M403 723 c15 -2 37 -2 50 0 12 2 0 4 -28 4 -27 0 -38 -2 -22 -4z"/><path d="M683 723 c9 -2 25 -2 35 0 9 3 1 5 -18 5 -19 0 -27 -2 -17 -5z"/><path d="M913 723 c9 -2 23 -2 30 0 6 3 -1 5 -18 5 -16 0 -22 -2 -12 -5z"/><path d="M973 724 c27 -8 24 -71 -5 -80 -15 -4 -25 -1 -34 11 -12 17 -15 16 -56 -4 -24 -11 -36 -21 -28 -21 8 0 27 6 41 14 23 12 29 12 43 -2 12 -13 20 -13 41 -4 22 10 26 17 23 49 -2 29 -8 38 -23 40 -16 1 -16 1 -2 -3z"/><path d="M1025 720 c-3 -5 -2 -17 3 -26 8 -14 10 -12 14 10 5 26 -5 35 -17 16z"/><path d="M1078 722 c17 -11 4 -42 -22 -52 -21 -9 -21 -9 1 -9 13 -1 27 8 33 20 13 24 7 49 -12 49 -11 0 -11 -2 0 -8z"/><path d="M1127 723 c-13 -12 -7 -62 9 -77 17 -17 36 -19 74 -5 20 7 17 7 -13 3 -23 -3 -44 0 -53 7 -17 14 -19 65 -1 72 6 3 7 6 1 6 -6 1 -14 -2 -17 -6z"/><path d="M1488 699 c4 -28 2 -30 -17 -24 -12 4 -21 2 -21 -4 0 -6 -12 -18 -26 -27 -22 -15 -31 -16 -61 -5 -28 10 -37 11 -46 1 -9 -10 -9 -11 1 -6 7 5 26 2 43 -4 23 -10 35 -10 62 1 17 8 41 14 52 14 16 0 21 8 23 43 2 23 -1 42 -6 42 -5 0 -6 -14 -4 -31z"/><path d="M455 691 c-6 -11 13 -26 22 -17 4 3 0 6 -8 6 -11 0 -11 2 1 10 9 6 10 10 3 10 -6 0 -14 -4 -18 -9z"/><path d="M735 690 c-3 -6 1 -13 10 -16 19 -8 30 0 20 15 -8 14 -22 14 -30 1z"/><path d="M502 665 c-24 -28 -60 -33 -68 -10 -4 8 -12 15 -19 15 -7 0 -18 -7 -25 -15 -8 -9 -9 -15 -2 -15 6 0 14 5 17 10 4 6 12 4 21 -5 19 -19 41 -19 76 -1 14 8 30 10 35 6 4 -4 36 -10 70 -12 56 -4 60 -3 42 10 -14 9 -33 12 -57 8 -30 -4 -40 -2 -52 15 -16 20 -16 20 -38 -6z"/><path d="M775 660 c-20 -23 -45 -26 -63 -8 -9 9 -15 9 -23 1 -15 -15 52 -26 85 -14 14 6 33 8 42 4 14 -5 14 -3 3 16 -17 26 -21 26 -44 1z"/><path d="M1260 644 c-14 -8 -18 -13 -10 -13 24 1 55 15 44 21 -5 2 -20 -1 -34 -8z"/></g><g transform="translate(0.000000,180.000000) scale(0.100000,-0.100000)" fill="#FFFFFF" stroke="none"><path d="M0 900 l0 -900 900 0 900 0 0 900 0 900 -900 0 -900 0 0 -900z m515 213 c31 -16 35 -22 33 -53 l-3 -35 -64 3 c-35 2 -70 1 -77 -2 -20 -8 -5 -36 18 -36 11 0 34 -7 51 -16 18 -9 39 -20 47 -24 8 -4 25 -26 38 -49 22 -40 22 -42 6 -79 -10 -20 -26 -44 -37 -53 -20 -16 -20 -17 3 -29 19 -10 24 -10 32 4 11 20 42 21 58 1 15 -18 135 -21 146 -4 4 7 17 8 33 4 14 -4 64 -10 111 -14 l85 -6 3 -37 c3 -33 -1 -40 -23 -50 -21 -9 -29 -9 -41 4 -14 14 -19 14 -45 1 -23 -11 -37 -12 -60 -4 -17 6 -39 7 -52 2 -27 -10 -229 -3 -240 9 -5 4 -22 1 -38 -7 -30 -15 -79 -11 -79 6 0 5 -14 3 -30 -6 -41 -20 -76 -10 -84 23 -14 56 -3 64 91 64 92 0 109 12 21 15 -90 3 -132 37 -112 89 8 21 58 21 90 0 21 -14 29 -15 49 -4 37 20 32 48 -10 56 -19 3 -38 10 -41 15 -3 5 -13 9 -22 9 -10 0 -30 11 -45 25 -23 22 -27 34 -27 78 0 29 4 58 9 65 31 50 139 67 206 35z m339 1 c14 -14 18 -14 38 0 32 22 194 22 226 0 22 -15 27 -38 16 -68 -5 -13 -22 -16 -86 -16 -77 0 -79 -1 -76 -22 3 -21 7 -23 65 -20 54 3 63 1 73 -18 6 -12 8 -34 5 -51 -6 -28 -8 -29 -70 -29 -66 0 -80 -8 -71 -38 5 -14 16 -16 65 -14 77 5 103 -9 99 -51 -2 -24 -9 -32 -31 -38 -41 -11 -206 -2 -223 11 -11 10 -14 43 -14 154 0 77 -4 136 -8 129 -4 -6 -25 -13 -47 -15 l-40 -3 -5 -135 -5 -135 -47 -3 -48 -3 0 140 0 141 -49 0 c-35 0 -51 4 -55 16 -11 29 -6 63 12 73 9 6 72 11 139 11 97 0 125 -3 137 -16z m507 -2 c95 -29 149 -93 149 -176 0 -76 -48 -149 -113 -171 -17 -5 -33 -16 -35 -24 -4 -11 6 -13 48 -9 82 8 92 3 88 -46 -2 -33 -7 -41 -23 -41 -11 0 -35 -6 -52 -14 -25 -10 -40 -11 -60 -3 -16 6 -70 10 -121 8 -106 -4 -125 5 -120 57 2 24 9 33 28 37 l25 6 3 184 c1 102 4 191 7 198 7 18 110 15 176 -6z m-265 -396 c8 -21 -14 -56 -35 -56 -19 0 -45 45 -36 61 10 14 65 11 71 -5z"/><path d="M1274 1017 c-3 -8 -4 -49 -2 -93 l3 -79 49 3 c60 3 75 20 76 87 0 41 -4 53 -27 72 -29 26 -90 31 -99 10z"/><path d="M1220 740 c0 -5 23 -10 51 -10 31 0 48 4 44 10 -3 6 -26 10 -51 10 -24 0 -44 -4 -44 -10z"/></g></svg>