<svg version="1.0" xmlns="http://www.w3.org/2000/svg" width="200.000000" height="200.000000" viewBox="0 0 200.000000 200.000000" preserveAspectRatio="xMidYMid meet"><rect x="0" y="0" width="15" height="15" fill="rgb(254,254,254)" /><rect x="13" y="0" width="15" height="15" fill="rgb(254,254,254)" /><rect x="27" y="0" width="15" height="15" fill="rgb(254,254,254)" /><rect x="41" y="0" width="15" height="15" fill="rgb(254,254,254)" /><rect x="55" y="0" width="15" height="15" fill="rgb(254,254,254)" /><rect x="69" y="0" width="15" height="15" fill="rgb(254,254,254)" /><rect x="83" y="0" width="15" height="15" fill="rgb(236,243,248)" /><rect x="97" y="0" width="15" height="15" fill="rgb(219,232,242)" /><rect x="111" y="0" width="15" height="15" fill="rgb(254,254,254)" /><rect x="125" y="0" width="15" height="15" fill="rgb(254,254,254)" /><rect x="139" y="0" width="15" height="15" fill="rgb(254,254,254)" /><rect x="153" y="0" width="15" height="15" fill="rgb(254,254,254)" /><rect x="167" y="0" width="15" height="15" fill="rgb(254,254,254)" /><rect x="181" y="0" width="19" height="15" fill="rgb(254,254,254)" /><rect x="0" y="13" width="15" height="15" fill="rgb(254,254,254)" /><rect x="13" y="13" width="15" height="15" fill="rgb(254,254,254)" /><rect x="27" y="13" width="15" height="15" fill="rgb(254,254,254)" /><rect x="41" y="13" width="15" height="15" fill="rgb(254,254,254)" /><rect x="55" y="13" width="15" height="15" fill="rgb(254,254,254)" /><rect x="69" y="13" width="15" height="15" fill="rgb(240,245,249)" /><rect x="83" y="13" width="15" height="15" fill="rgb(143,179,211)" /><rect x="97" y="13" width="15" height="15" fill="rgb(78,130,186)" /><rect x="111" y="13" width="15" height="15" fill="rgb(238,247,252)" /><rect x="125" y="13" width="15" height="15" fill="rgb(254,254,254)" /><rect x="139" y="13" width="15" height="15" fill="rgb(254,254,254)" /><rect x="153" y="13" width="15" height="15" fill="rgb(254,254,254)" /><rect x="167" y="13" width="15" height="15" fill="rgb(254,254,254)" /><rect x="181" y="13" width="19" height="15" fill="rgb(254,254,254)" /><rect x="0" y="27" width="15" height="15" fill="rgb(254,254,254)" /><rect x="13" y="27" width="15" height="15" fill="rgb(254,254,254)" /><rect x="27" y="27" width="15" height="15" fill="rgb(254,254,254)" /><rect x="41" y="27" width="15" height="15" fill="rgb(253,254,254)" /><rect x="55" y="27" width="15" height="15" fill="rgb(170,195,221)" /><rect x="69" y="27" width="15" height="15" fill="rgb(94,141,191)" /><rect x="83" y="27" width="15" height="15" fill="rgb(141,190,225)" /><rect x="97" y="27" width="15" height="15" fill="rgb(139,187,221)" /><rect x="111" y="27" width="15" height="15" fill="rgb(157,206,237)" /><rect x="125" y="27" width="15" height="15" fill="rgb(199,229,246)" /><rect x="139" y="27" width="15" height="15" fill="rgb(250,252,254)" /><rect x="153" y="27" width="15" height="15" fill="rgb(254,254,254)" /><rect x="167" y="27" width="15" height="15" fill="rgb(254,254,254)" /><rect x="181" y="27" width="19" height="15" fill="rgb(254,254,254)" /><rect x="0" y="41" width="15" height="15" fill="rgb(254,254,254)" /><rect x="13" y="41" width="15" height="15" fill="rgb(254,254,254)" /><rect x="27" y="41" width="15" height="15" fill="rgb(254,254,254)" /><rect x="41" y="41" width="15" height="15" fill="rgb(168,192,220)" /><rect x="55" y="41" width="15" height="15" fill="rgb(99,148,197)" /><rect x="69" y="41" width="15" height="15" fill="rgb(163,213,242)" /><rect x="83" y="41" width="15" height="15" fill="rgb(136,190,227)" /><rect x="97" y="41" width="15" height="15" fill="rgb(105,157,203)" /><rect x="111" y="41" width="15" height="15" fill="rgb(140,186,221)" /><rect x="125" y="41" width="15" height="15" fill="rgb(147,195,229)" /><rect x="139" y="41" width="15" height="15" fill="rgb(191,226,247)" /><rect x="153" y="41" width="15" height="15" fill="rgb(253,254,254)" /><rect x="167" y="41" width="15" height="15" fill="rgb(254,254,254)" /><rect x="181" y="41" width="19" height="15" fill="rgb(254,254,254)" /><rect x="0" y="55" width="15" height="15" fill="rgb(254,254,254)" /><rect x="13" y="55" width="15" height="15" fill="rgb(254,254,254)" /><rect x="27" y="55" width="15" height="15" fill="rgb(239,244,249)" /><rect x="41" y="55" width="15" height="15" fill="rgb(98,143,192)" /><rect x="55" y="55" width="15" height="15" fill="rgb(165,213,240)" /><rect x="69" y="55" width="15" height="15" fill="rgb(156,210,240)" /><rect x="83" y="55" width="15" height="15" fill="rgb(119,171,213)" /><rect x="97" y="55" width="15" height="15" fill="rgb(93,151,181)" /><rect x="111" y="55" width="15" height="15" fill="rgb(124,200,172)" /><rect x="125" y="55" width="15" height="15" fill="rgb(114,182,166)" /><rect x="139" y="55" width="15" height="15" fill="rgb(152,204,228)" /><rect x="153" y="55" width="15" height="15" fill="rgb(228,243,252)" /><rect x="167" y="55" width="15" height="15" fill="rgb(254,254,254)" /><rect x="181" y="55" width="19" height="15" fill="rgb(254,254,254)" /><rect x="0" y="69" width="15" height="15" fill="rgb(254,254,254)" /><rect x="13" y="69" width="15" height="15" fill="rgb(254,254,254)" /><rect x="27" y="69" width="15" height="15" fill="rgb(187,206,228)" /><rect x="41" y="69" width="15" height="15" fill="rgb(123,162,205)" /><rect x="55" y="69" width="15" height="15" fill="rgb(137,174,206)" /><rect x="69" y="69" width="15" height="15" fill="rgb(114,159,196)" /><rect x="83" y="69" width="15" height="15" fill="rgb(69,125,169)" /><rect x="97" y="69" width="15" height="15" fill="rgb(76,132,168)" /><rect x="111" y="69" width="15" height="15" fill="rgb(75,187,72)" /><rect x="125" y="69" width="15" height="15" fill="rgb(39,129,120)" /><rect x="139" y="69" width="15" height="15" fill="rgb(92,139,199)" /><rect x="153" y="69" width="15" height="15" fill="rgb(242,249,253)" /><rect x="167" y="69" width="15" height="15" fill="rgb(254,254,254)" /><rect x="181" y="69" width="19" height="15" fill="rgb(254,254,254)" /><rect x="0" y="83" width="15" height="15" fill="rgb(254,254,254)" /><rect x="13" y="83" width="15" height="15" fill="rgb(254,254,254)" /><rect x="27" y="83" width="15" height="15" fill="rgb(173,197,227)" /><rect x="41" y="83" width="15" height="15" fill="rgb(85,136,197)" /><rect x="55" y="83" width="15" height="15" fill="rgb(58,115,185)" /><rect x="69" y="83" width="15" height="15" fill="rgb(106,173,155)" /><rect x="83" y="83" width="15" height="15" fill="rgb(39,125,128)" /><rect x="97" y="83" width="15" height="15" fill="rgb(46,115,158)" /><rect x="111" y="83" width="15" height="15" fill="rgb(60,156,104)" /><rect x="125" y="83" width="15" height="15" fill="rgb(7,81,176)" /><rect x="139" y="83" width="15" height="15" fill="rgb(58,116,190)" /><rect x="153" y="83" width="15" height="15" fill="rgb(194,212,233)" /><rect x="167" y="83" width="15" height="15" fill="rgb(254,254,254)" /><rect x="181" y="83" width="19" height="15" fill="rgb(254,254,254)" /><rect x="0" y="97" width="15" height="15" fill="rgb(254,254,254)" /><rect x="13" y="97" width="15" height="15" fill="rgb(254,254,254)" /><rect x="27" y="97" width="15" height="15" fill="rgb(235,241,246)" /><rect x="41" y="97" width="15" height="15" fill="rgb(193,212,231)" /><rect x="55" y="97" width="15" height="15" fill="rgb(34,100,177)" /><rect x="69" y="97" width="15" height="15" fill="rgb(62,166,86)" /><rect x="83" y="97" width="15" height="15" fill="rgb(71,184,71)" /><rect x="97" y="97" width="15" height="15" fill="rgb(113,192,128)" /><rect x="111" y="97" width="15" height="15" fill="rgb(148,186,207)" /><rect x="125" y="97" width="15" height="15" fill="rgb(67,122,190)" /><rect x="139" y="97" width="15" height="15" fill="rgb(40,103,182)" /><rect x="153" y="97" width="15" height="15" fill="rgb(126,164,213)" /><rect x="167" y="97" width="15" height="15" fill="rgb(254,254,254)" /><rect x="181" y="97" width="19" height="15" fill="rgb(254,254,254)" /><rect x="0" y="111" width="15" height="15" fill="rgb(254,254,254)" /><rect x="13" y="111" width="15" height="15" fill="rgb(254,254,254)" /><rect x="27" y="111" width="15" height="15" fill="rgb(254,254,254)" /><rect x="41" y="111" width="15" height="15" fill="rgb(117,156,205)" /><rect x="55" y="111" width="15" height="15" fill="rgb(59,116,182)" /><rect x="69" y="111" width="15" height="15" fill="rgb(18,95,160)" /><rect x="83" y="111" width="15" height="15" fill="rgb(12,85,168)" /><rect x="97" y="111" width="15" height="15" fill="rgb(31,96,181)" /><rect x="111" y="111" width="15" height="15" fill="rgb(152,183,218)" /><rect x="125" y="111" width="15" height="15" fill="rgb(209,225,238)" /><rect x="139" y="111" width="15" height="15" fill="rgb(54,113,187)" /><rect x="153" y="111" width="15" height="15" fill="rgb(214,226,240)" /><rect x="167" y="111" width="15" height="15" fill="rgb(254,254,254)" /><rect x="181" y="111" width="19" height="15" fill="rgb(254,254,254)" /><rect x="0" y="125" width="15" height="15" fill="rgb(254,254,254)" /><rect x="13" y="125" width="15" height="15" fill="rgb(254,254,254)" /><rect x="27" y="125" width="15" height="15" fill="rgb(254,254,254)" /><rect x="41" y="125" width="15" height="15" fill="rgb(230,237,245)" /><rect x="55" y="125" width="15" height="15" fill="rgb(119,159,198)" /><rect x="69" y="125" width="15" height="15" fill="rgb(67,123,185)" /><rect x="83" y="125" width="15" height="15" fill="rgb(36,100,179)" /><rect x="97" y="125" width="15" height="15" fill="rgb(33,98,180)" /><rect x="111" y="125" width="15" height="15" fill="rgb(53,112,181)" /><rect x="125" y="125" width="15" height="15" fill="rgb(102,147,191)" /><rect x="139" y="125" width="15" height="15" fill="rgb(182,203,226)" /><rect x="153" y="125" width="15" height="15" fill="rgb(254,254,254)" /><rect x="167" y="125" width="15" height="15" fill="rgb(254,254,254)" /><rect x="181" y="125" width="19" height="15" fill="rgb(254,254,254)" /><rect x="0" y="139" width="15" height="15" fill="rgb(254,254,254)" /><rect x="13" y="139" width="15" height="15" fill="rgb(254,254,254)" /><rect x="27" y="139" width="15" height="15" fill="rgb(254,254,254)" /><rect x="41" y="139" width="15" height="15" fill="rgb(254,254,254)" /><rect x="55" y="139" width="15" height="15" fill="rgb(243,246,250)" /><rect x="69" y="139" width="15" height="15" fill="rgb(173,197,221)" /><rect x="83" y="139" width="15" height="15" fill="rgb(133,168,204)" /><rect x="97" y="139" width="15" height="15" fill="rgb(120,158,199)" /><rect x="111" y="139" width="15" height="15" fill="rgb(158,186,215)" /><rect x="125" y="139" width="15" height="15" fill="rgb(220,229,240)" /><rect x="139" y="139" width="15" height="15" fill="rgb(254,254,254)" /><rect x="153" y="139" width="15" height="15" fill="rgb(254,254,254)" /><rect x="167" y="139" width="15" height="15" fill="rgb(254,254,254)" /><rect x="181" y="139" width="19" height="15" fill="rgb(254,254,254)" /><rect x="0" y="153" width="15" height="15" fill="rgb(254,254,254)" /><rect x="13" y="153" width="15" height="15" fill="rgb(254,254,254)" /><rect x="27" y="153" width="15" height="15" fill="rgb(254,254,254)" /><rect x="41" y="153" width="15" height="15" fill="rgb(254,254,254)" /><rect x="55" y="153" width="15" height="15" fill="rgb(198,215,231)" /><rect x="69" y="153" width="15" height="15" fill="rgb(144,176,209)" /><rect x="83" y="153" width="15" height="15" fill="rgb(161,190,217)" /><rect x="97" y="153" width="15" height="15" fill="rgb(144,176,209)" /><rect x="111" y="153" width="15" height="15" fill="rgb(150,180,211)" /><rect x="125" y="153" width="15" height="15" fill="rgb(167,192,218)" /><rect x="139" y="153" width="15" height="15" fill="rgb(254,254,254)" /><rect x="153" y="153" width="15" height="15" fill="rgb(254,254,254)" /><rect x="167" y="153" width="15" height="15" fill="rgb(254,254,254)" /><rect x="181" y="153" width="19" height="15" fill="rgb(254,254,254)" /><rect x="0" y="167" width="15" height="15" fill="rgb(254,254,254)" /><rect x="13" y="167" width="15" height="15" fill="rgb(254,254,254)" /><rect x="27" y="167" width="15" height="15" fill="rgb(254,254,254)" /><rect x="41" y="167" width="15" height="15" fill="rgb(254,254,254)" /><rect x="55" y="167" width="15" height="15" fill="rgb(254,254,254)" /><rect x="69" y="167" width="15" height="15" fill="rgb(253,254,254)" /><rect x="83" y="167" width="15" height="15" fill="rgb(254,254,254)" /><rect x="97" y="167" width="15" height="15" fill="rgb(254,254,254)" /><rect x="111" y="167" width="15" height="15" fill="rgb(254,254,254)" /><rect x="125" y="167" width="15" height="15" fill="rgb(254,254,254)" /><rect x="139" y="167" width="15" height="15" fill="rgb(254,254,254)" /><rect x="153" y="167" width="15" height="15" fill="rgb(254,254,254)" /><rect x="167" y="167" width="15" height="15" fill="rgb(254,254,254)" /><rect x="181" y="167" width="19" height="15" fill="rgb(254,254,254)" /><rect x="0" y="181" width="15" height="19" fill="rgb(254,254,254)" /><rect x="13" y="181" width="15" height="19" fill="rgb(254,254,254)" /><rect x="27" y="181" width="15" height="19" fill="rgb(254,254,254)" /><rect x="41" y="181" width="15" height="19" fill="rgb(254,254,254)" /><rect x="55" y="181" width="15" height="19" fill="rgb(254,254,254)" /><rect x="69" y="181" width="15" height="19" fill="rgb(254,254,254)" /><rect x="83" y="181" width="15" height="19" fill="rgb(254,254,254)" /><rect x="97" y="181" width="15" height="19" fill="rgb(254,254,254)" /><rect x="111" y="181" width="15" height="19" fill="rgb(254,254,254)" /><rect x="125" y="181" width="15" height="19" fill="rgb(254,254,254)" /><rect x="139" y="181" width="15" height="19" fill="rgb(254,254,254)" /><rect x="153" y="181" width="15" height="19" fill="rgb(254,254,254)" /><rect x="167" y="181" width="15" height="19" fill="rgb(254,254,254)" /><rect x="181" y="181" width="19" height="19" fill="rgb(254,254,254)" /><g transform="translate(0.000000,200.000000) scale(0.100000,-0.100000)" fill="#46BF3F" stroke="none"><path d="M1080 1314 c0 -19 6 -42 14 -49 12 -12 17 -11 36 5 13 11 28 20 33 20 6 0 30 9 54 21 23 11 49 18 55 16 7 -3 -2 -8 -19 -12 -18 -4 -33 -11 -33 -15 0 -4 -12 -11 -26 -14 -14 -4 -36 -14 -49 -22 -21 -14 -23 -21 -18 -73 3 -32 0 -89 -6 -126 -7 -37 -10 -69 -7 -72 2 -3 13 0 23 6 10 6 14 11 9 11 -4 0 5 12 20 28 16 15 49 56 73 92 25 36 50 68 55 72 6 4 7 10 4 14 -9 8 72 83 90 84 21 0 13 27 -10 35 -13 4 -85 9 -160 11 l-138 4 0 -36z"/><path d="M831 1186 c-7 -8 -14 -21 -15 -28 -4 -25 -99 -213 -118 -234 -11 -12 -16 -28 -12 -37 7 -18 29 -23 39 -8 3 6 17 6 35 -1 17 -5 47 -8 68 -4 20 3 53 7 72 10 67 9 100 18 94 27 -3 5 0 9 7 9 7 0 27 11 46 26 37 28 44 68 16 90 -23 17 -130 18 -136 2 -4 -9 -8 -10 -14 -2 -4 6 -16 13 -25 17 -18 6 -21 18 -22 96 -1 47 -15 61 -35 37z m7 -208 c15 9 35 26 45 37 12 13 20 16 23 8 4 -8 15 -9 36 -2 l31 9 -21 -20 c-12 -11 -32 -20 -45 -20 -25 0 -117 -56 -117 -71 0 -5 -7 -9 -17 -9 -15 0 -15 1 1 19 9 10 20 42 24 72 l7 54 3 -47 3 -48 27 18z"/></g><g transform="translate(0.000000,200.000000) scale(0.100000,-0.100000)" fill="#6CC566" stroke="none"><path d="M1090 1353 c0 -5 38 -7 85 -5 93 4 218 -12 223 -27 4 -11 32 -3 32 8 0 13 -150 31 -247 31 -51 0 -93 -3 -93 -7z"/><path d="M1215 1310 c-22 -11 -44 -20 -51 -20 -15 0 -54 -35 -54 -48 0 -6 12 0 26 13 14 13 39 27 55 30 16 4 29 11 29 16 0 5 8 9 18 9 9 0 24 5 32 10 29 19 -13 11 -55 -10z"/><path d="M834 1199 c-19 -22 -19 -22 4 -8 12 8 22 17 22 21 0 12 -6 9 -26 -13z"/><path d="M1122 1190 c0 -19 2 -27 5 -17 2 9 2 25 0 35 -3 9 -5 1 -5 -18z"/><path d="M800 1139 c0 -5 5 -7 10 -4 6 3 10 8 10 11 0 2 -4 4 -10 4 -5 0 -10 -5 -10 -11z"/><path d="M1122 1120 c0 -19 2 -27 5 -17 2 9 2 25 0 35 -3 9 -5 1 -5 -18z"/><path d="M765 1070 c-3 -5 -1 -10 4 -10 6 0 11 5 11 10 0 6 -2 10 -4 10 -3 0 -8 -4 -11 -10z"/><path d="M1109 1058 c-1 -7 -1 -17 0 -21 1 -4 -6 -10 -14 -13 -21 -8 -19 -39 3 -41 13 -1 17 8 19 43 1 24 0 44 -2 44 -3 0 -6 -6 -6 -12z"/><path d="M798 1001 c-4 -30 -15 -62 -24 -72 -16 -18 -16 -19 -1 -19 10 0 17 4 17 9 0 15 92 71 117 71 13 0 33 9 45 20 l21 20 -31 -9 c-21 -7 -32 -6 -36 2 -3 8 -11 5 -23 -8 -10 -11 -30 -28 -45 -37 l-27 -18 -3 48 -3 47 -7 -54z"/><path d="M910 1040 c0 -5 5 -10 10 -10 6 0 10 5 10 10 0 6 -4 10 -10 10 -5 0 -10 -4 -10 -10z"/><path d="M1057 1039 c7 -7 15 -10 18 -7 3 3 -2 9 -12 12 -14 6 -15 5 -6 -5z"/><path d="M1045 945 c-16 -14 -37 -25 -45 -26 -10 0 -11 -2 -3 -6 15 -5 83 34 83 48 0 12 -1 12 -35 -16z"/><path d="M733 873 c9 -2 23 -2 30 0 6 3 -1 5 -18 5 -16 0 -22 -2 -12 -5z"/></g><g transform="translate(0.000000,200.000000) scale(0.100000,-0.100000)" fill="#134C99" stroke="none"><path d="M960 1815 c-11 -13 -10 -14 4 -9 9 3 16 10 16 15 0 13 -6 11 -20 -6z"/><path d="M1020 1821 c0 -6 4 -11 9 -11 5 0 12 -12 14 -27 l4 -28 2 26 c0 15 -6 32 -14 39 -10 9 -15 9 -15 1z"/><path d="M972 1735 c9 -10 21 -16 28 -13 7 2 -1 10 -16 17 -27 12 -28 11 -12 -4z"/><path d="M806 1731 c-19 -7 -19 -8 2 -13 15 -4 22 -2 22 8 0 8 -1 14 -2 13 -2 0 -12 -4 -22 -8z"/><path d="M748 1713 c-10 -2 -18 -8 -18 -12 0 -4 -16 -13 -35 -20 -19 -7 -35 -19 -35 -27 0 -8 -4 -13 -10 -9 -5 3 -18 -3 -30 -15 -11 -11 -24 -20 -29 -20 -5 0 -27 -21 -48 -47 -21 -27 -44 -54 -51 -62 -7 -7 -28 -43 -46 -80 -30 -60 -31 -67 -14 -68 17 -2 22 11 19 50 -1 9 4 17 11 17 22 0 84 90 71 104 -10 10 37 55 52 50 7 -3 30 11 51 30 22 20 42 36 47 36 4 0 7 7 7 16 0 10 6 14 15 10 8 -3 34 4 57 14 36 16 39 20 18 20 -20 0 -22 2 -10 10 15 10 8 11 -22 3z m-123 -103 c-16 -16 -33 -30 -39 -30 -9 0 53 59 63 60 3 0 -8 -13 -24 -30z m-135 -155 c-7 -9 -15 -13 -17 -11 -7 7 7 26 19 26 6 0 6 -6 -2 -15z"/><path d="M810 1680 c0 -11 6 -20 13 -20 16 -1 -63 -40 -80 -40 -8 0 -11 -5 -8 -10 4 -6 -7 -13 -24 -16 -17 -4 -28 -10 -25 -15 3 -5 -1 -9 -9 -9 -7 0 -23 -14 -36 -30 -22 -30 -45 -33 -34 -5 3 9 -1 15 -11 15 -9 0 -16 -8 -16 -20 0 -11 7 -20 15 -20 8 0 15 -4 15 -10 0 -5 -7 -10 -15 -10 -9 0 -18 -8 -22 -17 -3 -10 -15 -25 -26 -34 -16 -13 -17 -20 -9 -35 10 -16 11 -16 12 -3 0 21 128 159 147 159 7 0 13 4 13 9 0 5 32 24 70 42 47 23 69 38 65 47 -3 8 -5 17 -5 22 0 4 -7 10 -15 14 -10 4 -15 -1 -15 -14z"/><path d="M941 1444 c-1 -73 2 -103 9 -99 6 4 8 15 5 26 -4 13 -2 19 9 19 12 0 16 -10 16 -35 l0 -35 -46 7 c-28 4 -48 2 -52 -5 -4 -5 -7 -68 -7 -139 l0 -128 105 0 105 0 3 96 c3 91 2 96 -17 94 -12 -1 -24 -5 -28 -10 -5 -4 -3 -5 4 -1 19 10 26 -12 29 -91 l4 -73 -95 0 -95 0 0 60 c0 59 14 82 23 38 l4 -23 2 23 c1 18 7 22 31 22 24 0 30 -4 30 -21 0 -16 -4 -20 -17 -14 -14 5 -15 3 -6 -6 15 -15 33 -3 33 22 0 26 18 24 22 -3 2 -12 10 -23 18 -26 12 -4 13 -2 3 9 -19 19 -16 36 7 42 11 3 20 11 19 19 0 10 -2 10 -6 1 -2 -7 -11 -13 -19 -13 -10 0 -14 14 -14 55 0 42 3 55 15 55 8 0 15 4 15 10 0 5 -7 7 -15 4 -12 -5 -15 2 -15 30 0 25 4 36 15 36 8 0 15 5 15 10 0 6 -7 10 -15 10 -11 0 -15 11 -15 36 0 28 3 35 15 30 8 -3 15 -1 15 4 0 6 -6 10 -14 10 -8 0 -17 8 -19 18 -4 16 -5 16 -6 0 0 -10 -5 -18 -10 -18 -5 0 -12 8 -14 18 -4 16 -5 16 -6 0 0 -10 -8 -18 -17 -18 -11 0 -14 5 -10 16 3 9 6 20 6 25 0 5 18 9 40 9 31 0 40 -4 40 -17 0 -15 2 -16 10 -3 17 26 11 30 -48 30 l-59 0 -2 -106z m39 1 c0 -23 -5 -35 -14 -35 -9 0 -13 10 -11 33 3 39 3 37 15 37 6 0 10 -16 10 -35z m30 0 c0 -19 -4 -35 -10 -35 -5 0 -10 16 -10 35 0 19 5 35 10 35 6 0 10 -16 10 -35z m0 -90 c0 -19 -4 -35 -10 -35 -5 0 -10 16 -10 35 0 19 5 35 10 35 6 0 10 -16 10 -35z m-101 -100 c0 -30 -3 -55 -8 -55 -14 0 -23 18 -12 24 4 3 5 24 1 46 -5 29 -4 40 5 40 8 0 13 -19 14 -55z m70 0 c-2 -54 -2 -55 -30 -55 -19 0 -29 5 -29 15 0 8 9 15 20 15 11 0 20 5 20 11 0 6 -9 8 -20 4 -14 -5 -20 -2 -20 9 0 10 9 16 26 16 15 0 23 4 19 10 -4 6 -15 8 -26 5 -13 -4 -19 -2 -19 9 0 11 9 16 30 16 30 0 30 0 29 -55z m31 40 c0 -8 -4 -15 -10 -15 -5 0 -10 7 -10 15 0 8 5 15 10 15 6 0 10 -7 10 -15z m0 -60 c0 -19 -4 -35 -10 -35 -5 0 -10 16 -10 35 0 19 5 35 10 35 6 0 10 -16 10 -35z"/><path d="M513 1370 c-2 -29 -27 -50 -52 -43 -16 4 -20 2 -15 -10 4 -12 0 -15 -15 -14 -12 1 -21 8 -22 17 -3 42 -30 -105 -30 -170 -2 -83 10 -168 20 -153 3 5 22 14 41 19 31 9 35 14 36 44 2 33 1 33 -3 4 -3 -26 -10 -33 -35 -38 -16 -3 -34 -3 -39 0 -5 3 -9 53 -9 112 0 62 4 101 9 94 6 -10 10 -8 14 10 4 12 2 25 -3 26 -25 9 -6 22 30 22 24 0 40 5 40 12 0 6 3 9 6 5 11 -11 -21 -79 -41 -88 -19 -7 -19 -8 2 -8 17 -1 28 9 42 42 10 23 21 56 24 72 3 17 9 38 12 48 4 9 3 17 -2 17 -5 0 -9 -9 -10 -20z"/><path d="M1416 1305 c-8 -8 -21 -15 -28 -15 -17 0 -78 -61 -78 -78 0 -7 -3 -12 -7 -12 -5 0 -24 -25 -43 -55 -19 -30 -38 -54 -42 -55 -5 0 -8 -7 -8 -15 0 -8 -4 -15 -10 -15 -14 0 -31 -37 -24 -54 3 -9 14 -16 23 -15 10 0 11 2 4 6 -7 2 -13 9 -13 14 0 12 69 115 97 144 10 11 32 41 48 68 17 26 39 50 50 53 38 11 75 29 75 36 0 13 -28 9 -44 -7z"/><path d="M588 1283 c7 -3 16 -2 19 1 4 3 -2 6 -13 5 -11 0 -14 -3 -6 -6z"/><path d="M657 1283 c-13 -12 -7 -23 13 -23 11 0 20 7 20 15 0 15 -21 21 -33 8z"/><path d="M757 1283 c-20 -20 -4 -32 43 -31 30 0 48 4 44 10 -4 6 -21 7 -41 3 -30 -5 -35 -4 -30 9 6 16 -4 22 -16 9z"/><path d="M1035 1280 c-3 -5 -1 -10 4 -10 6 0 11 5 11 10 0 6 -2 10 -4 10 -3 0 -8 -4 -11 -10z"/><path d="M1466 1270 c4 -14 7 -42 7 -62 -1 -21 4 -38 9 -38 10 0 9 -20 -7 -130 -4 -33 -4 -33 7 -10 17 39 14 189 -6 230 -10 21 -14 25 -10 10z"/><path d="M795 1170 c4 -6 11 -8 16 -5 14 9 11 15 -7 15 -8 0 -12 -5 -9 -10z"/><path d="M598 1121 c-21 -9 -40 -22 -43 -29 -3 -7 -1 -11 3 -9 4 1 24 12 44 22 36 19 38 19 57 0 12 -10 21 -13 21 -8 0 6 -10 17 -22 25 -20 13 -28 12 -60 -1z"/><path d="M515 1043 c7 -47 33 -90 80 -131 29 -26 85 -30 85 -7 0 9 7 18 15 21 8 4 15 10 15 15 0 5 11 32 24 59 l24 50 -25 20 c-29 23 -50 27 -31 6 7 -8 16 -12 21 -9 12 7 11 -57 -2 -67 -3 -3 -12 -16 -19 -30 -7 -14 -21 -35 -30 -48 -15 -20 -21 -21 -47 -12 -17 6 -45 30 -64 53 -29 36 -32 47 -28 84 3 34 1 43 -10 43 -12 0 -14 -9 -8 -47z"/><path d="M1520 1053 c0 -14 2 -15 9 -4 11 16 77 7 84 -12 3 -7 6 -2 6 11 1 20 -4 22 -49 22 -41 0 -50 -3 -50 -17z"/><path d="M1511 1014 c0 -11 3 -14 6 -6 3 7 2 16 -1 19 -3 4 -6 -2 -5 -13z"/><path d="M1584 936 c-11 -33 -24 -70 -28 -81 -5 -11 1 -6 11 10 19 30 49 122 42 129 -2 2 -13 -24 -25 -58z"/><path d="M1235 980 c27 -12 43 -12 25 0 -8 5 -22 9 -30 9 -10 0 -8 -3 5 -9z"/><path d="M1487 942 c-11 -28 -32 -70 -48 -92 -16 -22 -29 -43 -29 -47 -1 -5 -23 -26 -50 -48 -28 -22 -50 -46 -50 -52 0 -7 -11 -13 -25 -13 -14 0 -25 -4 -25 -10 0 -13 6 -13 47 2 18 7 35 19 38 27 3 9 17 24 31 34 25 18 25 18 48 -6 16 -17 20 -30 15 -39 -7 -9 -11 -10 -16 -2 -6 9 -11 8 -20 -1 -10 -11 -10 -14 0 -18 6 -2 -7 -12 -31 -22 -23 -10 -42 -25 -42 -32 0 -7 -11 -13 -25 -13 -13 0 -29 -8 -34 -17 -6 -10 -11 -14 -11 -10 0 5 -7 1 -16 -7 -8 -9 -26 -17 -40 -17 -13 -1 -30 -2 -36 -3 -7 -1 -16 -5 -20 -10 -3 -5 -22 -9 -42 -8 -20 1 -36 -3 -36 -8 0 -6 -9 -5 -20 2 -17 11 -22 10 -30 -2 -8 -12 -10 -9 -10 11 0 15 -7 29 -15 33 -18 6 -20 -5 -4 -21 13 -13 4 -33 -15 -33 -8 0 -12 10 -11 23 1 12 0 14 -2 5 -4 -16 -15 -22 -35 -19 -5 0 -8 -3 -8 -9 0 -17 140 -11 220 9 91 23 193 61 202 75 3 6 30 28 60 50 51 37 125 121 140 158 12 30 3 21 -37 -37 -20 -30 -40 -55 -44 -55 -12 0 -28 15 -40 38 -11 21 -2 57 19 72 15 10 71 132 68 147 -2 9 -11 -7 -21 -35z"/><path d="M1450 957 c0 -9 -9 -26 -20 -37 -23 -23 -25 -30 -7 -30 14 0 43 68 33 77 -3 4 -6 -1 -6 -10z"/><path d="M1330 935 c25 -13 52 -24 60 -24 8 -1 -7 10 -35 24 -64 31 -84 32 -25 0z"/><path d="M430 885 c0 -17 53 -107 65 -112 8 -3 15 -11 15 -17 0 -14 79 -96 92 -96 4 0 8 5 8 10 0 6 -4 10 -8 10 -12 0 -72 52 -72 62 0 6 -16 28 -35 51 -39 45 -40 63 -4 60 14 -2 18 0 9 4 -8 3 -27 12 -42 20 -16 7 -28 11 -28 8z"/><path d="M915 878 c-16 -5 -82 -11 -145 -13 -63 -2 -131 -8 -150 -13 -24 -6 12 -7 110 -5 80 3 156 9 170 14 14 5 48 10 77 11 28 1 49 6 47 10 -7 11 -72 9 -109 -4z"/><path d="M1030 855 c0 -5 103 -55 107 -52 1 2 -6 11 -17 20 -11 9 -20 14 -20 11 0 -3 -10 2 -22 10 -21 15 -48 21 -48 11z"/><path d="M530 840 c0 -5 12 -10 26 -10 14 0 23 4 19 10 -3 6 -15 10 -26 10 -10 0 -19 -4 -19 -10z"/><path d="M612 798 c-16 -16 -15 -33 3 -48 12 -10 15 -10 15 2 0 8 -5 19 -12 26 -9 9 -7 12 8 12 12 0 29 -9 39 -20 10 -11 23 -20 29 -20 11 1 -53 60 -64 60 -3 0 -11 -5 -18 -12z"/><path d="M1140 785 c0 -3 17 -12 37 -20 21 -9 48 -26 60 -37 13 -12 26 -18 30 -15 3 4 4 8 2 10 -2 1 -25 17 -51 35 -41 28 -78 41 -78 27z"/><path d="M571 737 c-13 -21 -12 -21 5 -5 10 10 16 20 13 22 -3 3 -11 -5 -18 -17z"/><path d="M710 744 c0 -55 264 -125 368 -98 24 7 4 9 -75 10 -122 1 -216 26 -265 72 -16 14 -28 21 -28 16z"/><path d="M659 717 c6 -8 8 -17 4 -20 -3 -4 6 -7 20 -7 34 0 35 13 2 28 -34 15 -40 15 -26 -1z"/><path d="M1191 690 c-24 -11 -50 -20 -59 -20 -8 0 -13 -3 -9 -6 8 -8 127 28 127 39 0 11 -11 8 -59 -13z"/><path d="M730 672 c0 -5 11 -14 25 -20 30 -14 30 -19 6 -52 -19 -23 -20 -24 -39 -7 -20 19 -52 23 -52 7 0 -5 8 -10 18 -10 10 0 22 -4 28 -10 12 -12 152 -60 176 -60 10 0 18 5 18 10 0 11 -12 13 -48 10 -13 -1 -25 6 -28 15 -6 13 -9 14 -16 3 -7 -10 -11 -10 -15 0 -2 6 -14 12 -26 13 -22 0 -22 0 1 9 19 8 21 14 16 37 -6 23 -5 26 7 17 21 -16 49 -25 49 -14 0 5 -25 20 -56 34 -63 29 -64 29 -64 18z"/><path d="M615 660 c-4 -7 -1 -16 6 -21 17 -10 26 8 11 23 -6 6 -12 6 -17 -2z"/><path d="M1170 640 c-34 -14 -41 -20 -28 -25 9 -4 25 -2 37 4 29 16 31 14 32 -21 1 -25 3 -27 6 -10 3 17 9 22 21 18 14 -5 13 -3 -2 8 -11 9 -16 22 -13 31 8 18 4 18 -53 -5z"/><path d="M886 606 c4 -11 20 -16 48 -17 45 -1 69 1 75 7 8 8 -5 12 -67 19 -55 6 -61 5 -56 -9z"/><path d="M1074 611 c3 -4 -6 -6 -21 -3 -18 3 -24 1 -19 -7 11 -17 76 -14 76 4 0 8 -9 15 -21 15 -11 0 -18 -4 -15 -9z"/><path d="M667 439 c-23 -13 -24 -84 -1 -93 26 -10 102 -7 109 5 11 16 -3 23 -19 10 -8 -7 -29 -11 -47 -9 -26 2 -34 9 -40 31 -5 19 -3 32 8 43 19 19 14 26 -10 13z"/><path d="M700 441 c0 -5 8 -8 18 -6 9 1 25 -2 35 -7 23 -12 37 -1 17 12 -19 12 -70 13 -70 1z"/><path d="M823 443 c-15 -5 -18 -89 -4 -97 5 -3 11 18 13 47 5 61 6 55 -9 50z"/><path d="M1049 405 c-12 -49 -39 -62 -39 -20 0 14 -4 25 -10 25 -5 0 -10 7 -10 15 0 8 -4 15 -10 15 -12 0 -12 0 2 -41 25 -72 57 -76 77 -10 12 43 31 55 31 22 0 -11 5 -23 10 -26 6 -4 10 6 10 23 0 27 -14 42 -41 42 -5 0 -14 -20 -20 -45z"/><path d="M1160 413 c-17 -52 -30 -68 -42 -51 -7 10 -9 10 -5 -2 5 -19 33 -25 40 -8 3 7 12 30 21 50 9 21 12 39 7 43 -5 3 -15 -12 -21 -32z"/><path d="M1220 396 l0 -56 33 0 32 0 -25 13 c-35 18 -41 73 -8 79 45 8 83 -6 86 -30 2 -13 -2 -30 -9 -38 -17 -21 -5 -28 15 -8 12 12 15 25 10 48 -3 17 -7 32 -8 33 -1 1 -30 5 -64 9 l-62 6 0 -56z"/><path d="M917 428 c21 -24 -6 -52 -45 -46 -18 2 -32 1 -32 -4 0 -11 71 -10 88 1 18 11 12 53 -8 59 -12 4 -13 2 -3 -10z"/></g><g transform="translate(0.000000,200.000000) scale(0.100000,-0.100000)" fill="#3F7299" stroke="none"><path d="M988 1883 c6 -2 18 -2 25 0 6 3 1 5 -13 5 -14 0 -19 -2 -12 -5z"/><path d="M956 1824 c-9 -8 -16 -23 -16 -32 0 -12 4 -9 13 8 14 28 59 39 83 19 8 -6 14 -24 14 -40 0 -22 -8 -34 -32 -49 -38 -23 -30 -27 11 -5 42 21 46 81 7 107 -19 13 -64 9 -80 -8z"/><path d="M1087 1829 c7 -7 15 -10 18 -7 3 3 -2 9 -12 12 -14 6 -15 5 -6 -5z"/><path d="M890 1775 c0 -14 5 -25 10 -25 6 0 10 11 10 25 0 14 -4 25 -10 25 -5 0 -10 -11 -10 -25z"/><path d="M936 1755 c4 -9 15 -20 26 -26 20 -11 20 -11 2 15 -21 28 -37 34 -28 11z"/><path d="M1086 1735 c-3 -9 0 -15 9 -15 8 0 15 7 15 15 0 8 -4 15 -9 15 -5 0 -11 -7 -15 -15z"/><path d="M895 1700 c-3 -5 -1 -10 4 -10 6 0 11 5 11 10 0 6 -2 10 -4 10 -3 0 -8 -4 -11 -10z"/><path d="M841 1674 c0 -11 3 -14 6 -6 3 7 2 16 -1 19 -3 4 -6 -2 -5 -13z"/><path d="M795 1650 c-16 -7 -17 -9 -3 -9 9 -1 20 4 23 9 7 11 7 11 -20 0z"/><path d="M659 1623 c-13 -16 -12 -17 4 -4 9 7 17 15 17 17 0 8 -8 3 -21 -13z"/><path d="M738 1623 c6 -2 18 -2 25 0 6 3 1 5 -13 5 -14 0 -19 -2 -12 -5z"/><path d="M519 1543 c-13 -16 -12 -17 4 -4 9 7 17 15 17 17 0 8 -8 3 -21 -13z"/><path d="M973 1553 c15 -2 39 -2 55 0 15 2 2 4 -28 4 -30 0 -43 -2 -27 -4z"/><path d="M625 1540 c-3 -6 1 -7 9 -4 18 7 21 14 7 14 -6 0 -13 -4 -16 -10z"/><path d="M1056 1525 c-3 -9 -12 -12 -23 -9 -17 5 -17 5 0 -6 9 -6 17 -17 17 -25 0 -9 -6 -12 -17 -9 -15 5 -15 4 -4 -4 21 -15 23 -119 2 -140 -15 -15 -15 -15 1 -10 14 6 16 1 13 -34 -2 -23 -9 -44 -15 -48 -8 -5 -7 -9 4 -13 9 -4 15 -1 13 6 -1 7 10 11 31 10 29 -1 32 0 21 14 -9 10 -15 11 -17 4 -2 -6 -8 -11 -14 -11 -6 0 -8 54 -6 145 2 80 2 145 2 145 -1 0 -4 -7 -8 -15z"/><path d="M535 1509 c-4 -6 -4 -13 -1 -16 3 -4 6 -1 6 5 0 7 7 12 16 12 12 0 15 -6 10 -27 -5 -23 -4 -25 5 -10 6 10 8 25 5 33 -6 16 -32 19 -41 3z"/><path d="M590 1500 c0 -5 5 -10 10 -10 6 0 10 5 10 10 0 6 -4 10 -10 10 -5 0 -10 -4 -10 -10z"/><path d="M959 1478 c-1 -2 -2 -17 -4 -35 -2 -29 -1 -31 13 -17 13 14 13 17 1 25 -12 8 -12 10 1 19 10 6 11 10 3 10 -7 0 -13 -1 -14 -2z"/><path d="M990 1440 c0 -5 5 -10 10 -10 6 0 10 5 10 10 0 6 -4 10 -10 10 -5 0 -10 -4 -10 -10z"/><path d="M1020 1440 c0 -5 5 -10 10 -10 6 0 10 5 10 10 0 6 -4 10 -10 10 -5 0 -10 -4 -10 -10z"/><path d="M515 1420 c3 -5 8 -10 11 -10 2 0 4 5 4 10 0 6 -5 10 -11 10 -5 0 -7 -4 -4 -10z"/><path d="M426 1393 c-6 -14 -5 -15 5 -6 7 7 10 15 7 18 -3 3 -9 -2 -12 -12z"/><path d="M954 1358 c1 -18 8 -33 16 -36 13 -3 13 -2 0 7 -13 9 -13 12 -1 20 12 8 12 11 -1 25 -14 14 -15 12 -14 -16z"/><path d="M990 1360 c0 -5 5 -10 10 -10 6 0 10 5 10 10 0 6 -4 10 -10 10 -5 0 -10 -4 -10 -10z"/><path d="M1020 1360 c0 -5 5 -10 10 -10 6 0 10 5 10 10 0 6 -4 10 -10 10 -5 0 -10 -4 -10 -10z"/><path d="M870 1321 c0 -6 4 -13 10 -16 6 -3 7 1 4 9 -7 18 -14 21 -14 7z"/><path d="M1405 1310 c-21 -14 -25 -20 -12 -20 9 0 17 4 17 8 0 5 10 14 23 20 12 6 18 11 12 11 -5 1 -23 -8 -40 -19z"/><path d="M1461 1304 c0 -11 3 -14 6 -6 3 7 2 16 -1 19 -3 4 -6 -2 -5 -13z"/><path d="M650 1300 c0 -5 -9 -10 -20 -10 -11 0 -20 -7 -20 -15 0 -17 50 -68 58 -60 3 3 -3 11 -13 19 -10 7 -15 18 -11 24 5 8 1 10 -11 6 -10 -3 -6 2 10 11 27 15 36 35 17 35 -5 0 -10 -4 -10 -10z"/><path d="M723 1298 c2 -7 10 -13 17 -13 7 0 15 6 18 13 2 7 -5 12 -18 12 -13 0 -20 -5 -17 -12z"/><path d="M785 1300 c4 -6 11 -8 16 -5 14 9 11 15 -7 15 -8 0 -12 -5 -9 -10z"/><path d="M828 1303 c6 -2 18 -2 25 0 6 3 1 5 -13 5 -14 0 -19 -2 -12 -5z"/><path d="M930 1293 c-13 -15 -12 -16 4 -10 10 4 25 2 32 -4 18 -15 18 -2 0 17 -18 17 -18 17 -36 -3z"/><path d="M396 1285 c4 -8 11 -15 16 -15 6 0 5 6 -2 15 -7 8 -14 15 -16 15 -2 0 -1 -7 2 -15z"/><path d="M471 1274 c0 -11 3 -14 6 -6 3 7 2 16 -1 19 -3 4 -6 -2 -5 -13z"/><path d="M1020 1279 c0 -5 5 -7 10 -4 6 3 10 8 10 11 0 2 -4 4 -10 4 -5 0 -10 -5 -10 -11z"/><path d="M1334 1258 l-29 -33 33 29 c30 28 37 36 29 36 -2 0 -16 -15 -33 -32z"/><path d="M553 1272 c-8 -5 -7 -12 4 -27 15 -20 15 -20 9 2 -5 16 -2 23 11 26 12 3 13 5 3 6 -8 0 -20 -3 -27 -7z"/><path d="M940 1260 c0 -5 5 -10 10 -10 6 0 10 5 10 10 0 6 -4 10 -10 10 -5 0 -10 -4 -10 -10z"/><path d="M411 1234 c0 -11 3 -14 6 -6 3 7 2 16 -1 19 -3 4 -6 -2 -5 -13z"/><path d="M958 1236 c-10 -7 -18 -18 -18 -25 0 -19 15 -12 27 14 6 14 10 25 10 25 -1 0 -10 -7 -19 -14z"/><path d="M860 1203 c0 -7 4 -13 9 -13 5 0 11 6 14 13 3 8 -1 14 -9 14 -8 0 -14 -6 -14 -14z"/><path d="M730 1195 c0 -3 18 -14 39 -25 29 -14 42 -17 47 -8 4 6 3 8 -4 4 -6 -3 -13 -2 -16 3 -6 10 -66 33 -66 26z"/><path d="M1262 1164 c-12 -19 -20 -34 -18 -34 7 0 49 61 44 65 -2 2 -13 -12 -26 -31z"/><path d="M473 1135 c0 -27 2 -38 4 -22 2 15 2 37 0 50 -2 12 -4 0 -4 -28z"/><path d="M940 1171 c0 -5 7 -11 14 -14 10 -4 13 -1 9 9 -6 15 -23 19 -23 5z"/><path d="M860 1120 c0 -11 2 -20 4 -20 2 0 6 9 9 20 3 11 1 20 -4 20 -5 0 -9 -9 -9 -20z"/><path d="M372 1110 c0 -14 2 -19 5 -12 2 6 2 18 0 25 -3 6 -5 1 -5 -13z"/><path d="M1225 1109 c-4 -6 -5 -12 -2 -15 2 -3 7 2 10 11 7 17 1 20 -8 4z"/><path d="M743 1062 c12 -13 15 -22 8 -27 -6 -3 -11 -12 -11 -18 1 -11 30 21 30 33 0 3 -10 11 -22 19 -23 14 -23 13 -5 -7z"/><path d="M1094 1065 c-12 -8 -24 -11 -28 -8 -3 3 -6 1 -6 -6 0 -8 7 -11 15 -7 8 3 15 1 15 -4 0 -6 5 -10 12 -10 6 0 8 3 5 6 -3 4 -2 15 4 25 12 23 10 23 -17 4z"/><path d="M1528 1073 c6 -2 18 -2 25 0 6 3 1 5 -13 5 -14 0 -19 -2 -12 -5z"/><path d="M908 1053 c6 -2 18 -2 25 0 6 3 1 5 -13 5 -14 0 -19 -2 -12 -5z"/><path d="M1511 1044 c0 -11 3 -14 6 -6 3 7 2 16 -1 19 -3 4 -6 -2 -5 -13z"/><path d="M476 1033 c-6 -14 -5 -15 5 -6 7 7 10 15 7 18 -3 3 -9 -2 -12 -12z"/><path d="M1153 1017 c-9 -19 -8 -23 7 -23 12 0 17 7 16 23 -1 29 -10 29 -23 0z"/><path d="M1611 1004 c0 -11 3 -14 6 -6 3 7 2 16 -1 19 -3 4 -6 -2 -5 -13z"/><path d="M726 983 c-6 -14 -5 -15 5 -6 7 7 10 15 7 18 -3 3 -9 -2 -12 -12z"/><path d="M1230 975 c0 -6 87 -45 98 -45 9 1 -80 49 -90 50 -5 0 -8 -2 -8 -5z"/><path d="M570 923 c14 -18 28 -32 33 -32 15 -2 5 15 -26 39 l-32 25 25 -32z"/><path d="M990 900 c-13 -8 -12 -10 3 -10 9 0 17 5 17 10 0 12 -1 12 -20 0z"/><path d="M1390 900 c0 -5 5 -10 10 -10 6 0 10 5 10 10 0 6 -4 10 -10 10 -5 0 -10 -4 -10 -10z"/><path d="M648 883 c6 -2 10 -8 7 -13 -3 -4 4 -6 16 -3 16 4 17 8 7 14 -7 5 -20 8 -28 8 -10 0 -11 -2 -2 -6z"/><path d="M863 873 c9 -2 23 -2 30 0 6 3 -1 5 -18 5 -16 0 -22 -2 -12 -5z"/><path d="M743 863 c15 -2 39 -2 55 0 15 2 2 4 -28 4 -30 0 -43 -2 -27 -4z"/><path d="M583 738 c-18 -37 -23 -57 -15 -62 4 -2 9 7 10 21 1 15 9 35 19 45 9 10 12 18 6 18 -5 0 -14 -10 -20 -22z"/><path d="M645 731 c-3 -5 0 -13 6 -17 8 -5 9 -3 4 6 -6 10 -4 12 9 7 10 -4 15 -3 11 3 -8 13 -22 13 -30 1z"/><path d="M531 713 c7 -12 15 -20 18 -17 3 2 -3 12 -13 22 -17 16 -18 16 -5 -5z"/><path d="M1470 715 c-7 -9 -11 -17 -9 -20 3 -2 10 5 17 15 14 24 10 26 -8 5z"/><path d="M1290 700 c0 -5 5 -10 10 -10 6 0 10 5 10 10 0 6 -4 10 -10 10 -5 0 -10 -4 -10 -10z"/><path d="M1367 696 c-3 -8 2 -20 11 -28 15 -12 16 -11 3 5 -9 11 -10 17 -2 17 6 0 11 5 11 10 0 15 -17 12 -23 -4z"/><path d="M1420 700 c0 -5 5 -10 10 -10 6 0 10 5 10 10 0 6 -4 10 -10 10 -5 0 -10 -4 -10 -10z"/><path d="M731 691 c-7 -5 -12 -14 -10 -20 2 -6 10 -2 17 9 14 22 13 23 -7 11z"/><path d="M636 657 c3 -10 9 -15 12 -12 3 3 0 11 -7 18 -10 9 -11 8 -5 -6z"/><path d="M1314 636 c0 -13 4 -22 9 -19 10 6 9 31 -2 37 -5 3 -8 -5 -7 -18z"/><path d="M677 630 c-21 -25 -23 -47 -2 -26 8 8 15 20 15 26 0 7 7 9 16 6 8 -3 12 -2 9 4 -9 15 -19 12 -38 -10z"/><path d="M1221 634 c0 -11 3 -14 6 -6 3 7 2 16 -1 19 -3 4 -6 -2 -5 -13z"/><path d="M1385 640 c-3 -6 1 -7 9 -4 18 7 21 14 7 14 -6 0 -13 -4 -16 -10z"/><path d="M620 636 c0 -2 7 -9 15 -16 9 -7 15 -8 15 -2 0 5 -7 12 -15 16 -8 3 -15 4 -15 2z"/><path d="M851 620 c14 -31 19 -36 19 -24 0 6 -7 19 -16 30 -14 18 -14 18 -3 -6z"/><path d="M1266 617 c3 -10 9 -15 12 -12 3 3 0 11 -7 18 -10 9 -11 8 -5 -6z"/><path d="M1038 613 c7 -3 16 -2 19 1 4 3 -2 6 -13 5 -11 0 -14 -3 -6 -6z"/><path d="M1125 610 c-8 -13 -1 -24 14 -19 6 3 7 10 2 18 -6 10 -10 10 -16 1z"/><path d="M798 558 c-19 -19 -13 -24 11 -9 7 5 12 13 10 18 -2 5 -12 1 -21 -9z"/><path d="M947 573 c-3 -5 -1 -17 4 -28 7 -17 8 -17 8 8 1 27 -4 34 -12 20z"/><path d="M830 561 c0 -10 19 -25 25 -20 1 2 -3 10 -11 17 -8 7 -14 8 -14 3z"/><path d="M1141 554 c0 -11 3 -14 6 -6 3 7 2 16 -1 19 -3 4 -6 -2 -5 -13z"/><path d="M1170 560 c-18 -12 -2 -12 25 0 13 6 15 9 5 9 -8 0 -22 -4 -30 -9z"/><path d="M1018 548 c5 -5 16 -8 23 -6 8 3 3 7 -10 11 -17 4 -21 3 -13 -5z"/><path d="M1090 546 c0 -2 7 -7 16 -10 8 -3 12 -2 9 4 -6 10 -25 14 -25 6z"/><path d="M906 525 c-17 -13 -18 -15 -3 -15 9 0 17 5 17 11 0 5 5 7 12 3 7 -4 8 -3 4 4 -9 14 -7 15 -30 -3z"/><path d="M1088 513 c7 -3 16 -2 19 1 4 3 -2 6 -13 5 -11 0 -14 -3 -6 -6z"/><path d="M655 440 c-3 -6 1 -7 9 -4 18 7 21 14 7 14 -6 0 -13 -4 -16 -10z"/><path d="M837 436 c-3 -8 6 -10 29 -8 20 3 42 -2 52 -9 15 -12 16 -12 5 2 -7 9 -11 18 -8 20 2 3 -13 5 -35 6 -21 0 -41 -4 -43 -11z"/><path d="M960 439 c0 -5 5 -7 10 -4 6 3 10 8 10 11 0 2 -4 4 -10 4 -5 0 -10 -5 -10 -11z"/><path d="M1308 443 c7 -3 16 -2 19 1 4 3 -2 6 -13 5 -11 0 -14 -3 -6 -6z"/><path d="M1213 395 c0 -27 2 -38 4 -22 2 15 2 37 0 50 -2 12 -4 0 -4 -28z"/><path d="M1352 420 c0 -14 2 -19 5 -12 2 6 2 18 0 25 -3 6 -5 1 -5 -13z"/><path d="M642 400 c0 -14 2 -19 5 -12 2 6 2 18 0 25 -3 6 -5 1 -5 -13z"/><path d="M1065 410 c-3 -6 1 -7 9 -4 18 7 21 14 7 14 -6 0 -13 -4 -16 -10z"/><path d="M1232 395 c0 -16 2 -22 5 -12 2 9 2 23 0 30 -3 6 -5 -1 -5 -18z"/><path d="M863 383 c9 -2 25 -2 35 0 9 3 1 5 -18 5 -19 0 -27 -2 -17 -5z"/><path d="M1090 380 c0 -6 7 -10 15 -10 8 0 15 2 15 4 0 2 -7 6 -15 10 -8 3 -15 1 -15 -4z"/><path d="M679 357 c5 -5 24 -7 42 -5 33 3 33 4 -8 8 -23 3 -39 2 -34 -3z"/><path d="M776 353 c-6 -14 -5 -15 5 -6 7 7 10 15 7 18 -3 3 -9 -2 -12 -12z"/><path d="M1342 354 c-7 -8 -8 -14 -3 -14 10 0 25 19 20 25 -2 1 -10 -3 -17 -11z"/><path d="M1252 355 c9 -9 68 -12 68 -4 0 5 -16 9 -37 9 -20 0 -34 -2 -31 -5z"/></g><g transform="translate(0.000000,200.000000) scale(0.100000,-0.100000)" fill="#7292B2" stroke="none"><path d="M960 1879 c0 -5 -4 -8 -8 -5 -5 3 -16 -4 -25 -15 -15 -17 -15 -19 -1 -19 12 0 14 -5 8 -17 -4 -10 -7 -30 -7 -45 3 -58 6 -83 10 -70 7 20 20 14 27 -13 8 -32 21 -32 24 -1 1 17 -5 27 -18 31 -11 4 -24 14 -29 23 -9 20 5 82 19 82 6 0 10 4 10 10 0 5 -7 7 -15 4 -9 -4 -15 0 -15 10 0 9 3 15 8 15 18 -3 32 2 32 11 0 6 -4 10 -10 10 -5 0 -10 -5 -10 -11z"/><path d="M1020 1880 c0 -9 14 -14 33 -11 4 0 7 -6 7 -15 0 -10 -6 -14 -15 -10 -19 7 -19 -1 -1 -20 19 -18 27 -18 20 1 -4 9 0 15 10 15 9 0 15 -5 14 -11 -2 -6 4 -14 12 -16 13 -4 13 -3 0 6 -13 10 -13 11 0 11 11 0 10 3 -4 11 -10 6 -27 20 -37 30 -21 21 -39 25 -39 9z"/><path d="M988 1843 c6 -2 18 -2 25 0 6 3 1 5 -13 5 -14 0 -19 -2 -12 -5z"/><path d="M900 1815 c-7 -9 -8 -15 -2 -15 5 0 12 7 16 15 3 8 4 15 2 15 -2 0 -9 -7 -16 -15z"/><path d="M1060 1760 c0 -12 -10 -25 -24 -32 -26 -11 -43 -38 -25 -38 6 0 7 -4 4 -10 -3 -5 -2 -10 4 -10 6 0 14 12 17 26 4 14 12 23 19 21 6 -3 12 0 12 6 0 7 3 22 7 35 5 13 3 22 -3 22 -6 0 -11 -9 -11 -20z"/><path d="M880 1721 c0 -6 4 -13 10 -16 6 -3 7 1 4 9 -7 18 -14 21 -14 7z"/><path d="M710 1656 c7 -7 13 -7 20 0 6 6 3 10 -10 10 -13 0 -16 -4 -10 -10z"/><path d="M766 1645 c-3 -8 -1 -15 4 -15 6 0 10 7 10 15 0 8 -2 15 -4 15 -2 0 -6 -7 -10 -15z"/><path d="M713 1615 c-6 -14 -7 -23 -2 -19 13 8 31 44 22 44 -4 0 -13 -11 -20 -25z"/><path d="M1184 1576 c-9 -15 -14 -29 -10 -33 3 -3 6 -1 6 5 0 6 7 18 16 27 9 9 14 18 11 21 -3 3 -13 -6 -23 -20z"/><path d="M1113 1545 c0 -22 2 -30 4 -17 2 12 2 30 0 40 -3 9 -5 -1 -4 -23z"/><path d="M595 1560 c3 -5 8 -10 11 -10 2 0 4 5 4 10 0 6 -5 10 -11 10 -5 0 -7 -4 -4 -10z"/><path d="M935 1549 c-4 -6 -5 -12 -2 -15 2 -3 7 2 10 11 7 17 1 20 -8 4z"/><path d="M659 1533 c-13 -16 -12 -17 4 -4 9 7 17 15 17 17 0 8 -8 3 -21 -13z"/><path d="M1187 1526 c-4 -10 -1 -13 9 -9 15 6 19 23 5 23 -5 0 -11 -7 -14 -14z"/><path d="M1260 1519 c-22 -18 -22 -19 -3 -10 12 6 25 16 28 21 9 15 3 12 -25 -11z"/><path d="M576 1507 c3 -10 9 -15 12 -12 3 3 0 11 -7 18 -10 9 -11 8 -5 -6z"/><path d="M1311 1511 c-8 -5 -9 -11 -3 -15 5 -3 12 1 16 9 6 17 6 18 -13 6z"/><path d="M544 1481 c4 -5 0 -12 -6 -14 -10 -4 -9 -6 1 -6 11 -1 11 -4 0 -18 -13 -16 -12 -17 4 -4 19 15 23 51 6 51 -5 0 -8 -4 -5 -9z"/><path d="M1265 1460 c-3 -6 1 -7 9 -4 18 7 21 14 7 14 -6 0 -13 -4 -16 -10z"/><path d="M450 1401 c0 -6 4 -13 10 -16 6 -3 7 1 4 9 -7 18 -14 21 -14 7z"/><path d="M510 1400 c0 -5 5 -10 10 -10 6 0 10 5 10 10 0 6 -4 10 -10 10 -5 0 -10 -4 -10 -10z"/><path d="M1270 1395 c0 -9 9 -15 25 -15 18 0 23 4 19 15 -4 8 -15 15 -25 15 -10 0 -19 -7 -19 -15z"/><path d="M1335 1400 c-3 -5 3 -10 15 -10 12 0 18 5 15 10 -3 6 -10 10 -15 10 -5 0 -12 -4 -15 -10z"/><path d="M488 1373 c7 -3 16 -2 19 1 4 3 -2 6 -13 5 -11 0 -14 -3 -6 -6z"/><path d="M450 1336 c0 -2 7 -7 16 -10 8 -3 12 -2 9 4 -6 10 -25 14 -25 6z"/><path d="M635 1300 c3 -5 8 -10 11 -10 2 0 4 5 4 10 0 6 -5 10 -11 10 -5 0 -7 -4 -4 -10z"/><path d="M695 1300 c3 -5 10 -10 16 -10 5 0 9 5 9 10 0 6 -7 10 -16 10 -8 0 -12 -4 -9 -10z"/><path d="M752 1290 c-12 -19 -11 -20 8 -8 20 13 27 28 12 28 -4 0 -13 -9 -20 -20z"/><path d="M425 1270 c-3 -5 -2 -10 4 -10 5 0 13 5 16 10 3 6 2 10 -4 10 -5 0 -13 -4 -16 -10z"/><path d="M461 1254 c0 -11 3 -14 6 -6 3 7 2 16 -1 19 -3 4 -6 -2 -5 -13z"/><path d="M539 1258 c14 -19 32 -15 30 5 0 8 -2 8 -6 -1 -4 -10 -8 -10 -21 0 -15 12 -16 11 -3 -4z"/><path d="M639 1251 c6 -10 7 -22 3 -26 -4 -5 -1 -5 6 -1 9 5 9 12 2 27 -6 10 -13 19 -16 19 -2 0 0 -8 5 -19z"/><path d="M748 1243 c7 -3 16 -2 19 1 4 3 -2 6 -13 5 -11 0 -14 -3 -6 -6z"/><path d="M570 1233 c0 -6 5 -15 10 -18 6 -3 10 -26 10 -51 0 -44 19 -64 21 -21 0 12 3 16 6 10 2 -7 10 -13 18 -13 7 0 18 -7 25 -15 11 -13 15 -13 21 -3 7 10 9 9 9 -4 0 -12 6 -15 22 -10 16 4 20 2 16 -10 -4 -8 2 -20 14 -27 17 -11 18 -10 9 7 -6 11 -8 22 -4 25 3 3 -7 9 -21 13 -15 3 -24 9 -22 12 5 5 -17 21 -54 38 -8 4 -19 14 -24 22 -7 12 -10 12 -18 1 -6 -10 -7 -7 -3 10 5 15 3 21 -3 17 -6 -4 -15 2 -21 11 -6 10 -11 13 -11 6z"/><path d="M428 1223 c7 -3 16 -2 19 1 4 3 -2 6 -13 5 -11 0 -14 -3 -6 -6z"/><path d="M686 1212 c-2 -4 4 -8 14 -8 10 0 16 4 14 8 -3 4 -9 8 -14 8 -5 0 -11 -4 -14 -8z"/><path d="M371 1194 c0 -11 3 -14 6 -6 3 7 2 16 -1 19 -3 4 -6 -2 -5 -13z"/><path d="M1098 1164 c-2 -25 0 -51 4 -57 4 -7 8 14 8 46 0 68 -7 75 -12 11z"/><path d="M1080 1035 c0 -8 4 -15 10 -15 5 0 7 7 4 15 -4 8 -8 15 -10 15 -2 0 -4 -7 -4 -15z"/><path d="M1155 990 c3 -5 8 -10 11 -10 2 0 4 5 4 10 0 6 -5 10 -11 10 -5 0 -7 -4 -4 -10z"/><path d="M1089 988 c-8 -19 -4 -48 7 -48 16 0 19 36 4 45 -5 3 -11 5 -11 3z"/><path d="M1216 970 c12 -12 27 -21 33 -19 7 3 -3 13 -21 23 l-33 19 21 -23z"/><path d="M1146 921 c-4 -6 -2 -11 4 -11 6 0 8 -4 5 -10 -3 -5 -1 -10 4 -10 13 0 14 10 2 29 -6 9 -11 10 -15 2z"/><path d="M1310 908 c0 -10 4 -18 9 -18 5 0 11 8 13 18 3 11 0 19 -8 19 -8 0 -14 -9 -14 -19z"/><path d="M413 905 c0 -8 4 -15 9 -15 4 0 8 4 8 9 0 6 -4 12 -8 15 -5 3 -9 -1 -9 -9z"/><path d="M1350 904 c0 -8 9 -14 20 -14 11 0 20 4 20 9 0 5 -9 11 -20 14 -13 3 -20 0 -20 -9z"/><path d="M1016 895 c4 -8 8 -15 10 -15 2 0 4 7 4 15 0 8 -4 15 -10 15 -5 0 -7 -7 -4 -15z"/><path d="M1225 870 c3 -5 11 -10 16 -10 6 0 7 5 4 10 -3 6 -11 10 -16 10 -6 0 -7 -4 -4 -10z"/><path d="M1140 824 c14 -10 30 -25 37 -34 11 -13 12 -13 13 1 0 9 -12 22 -27 30 -44 22 -50 22 -23 3z"/><path d="M1316 827 c3 -10 9 -15 12 -12 3 3 0 11 -7 18 -10 9 -11 8 -5 -6z"/><path d="M1213 775 c0 -7 6 -11 14 -8 7 3 13 6 13 8 0 2 -6 5 -13 8 -8 3 -14 -1 -14 -8z"/><path d="M650 776 c0 -2 8 -10 18 -17 15 -13 16 -12 3 4 -13 16 -21 21 -21 13z"/><path d="M630 756 c0 -9 -6 -13 -14 -10 -8 3 -17 1 -20 -4 -3 -5 8 -9 24 -10 35 -1 43 8 24 26 -12 10 -14 10 -14 -2z"/><path d="M1377 742 c-17 -18 -14 -32 7 -32 6 0 5 4 -3 9 -10 7 -8 12 10 25 13 9 19 16 13 16 -6 0 -18 -8 -27 -18z"/><path d="M1267 723 c3 -7 6 -13 8 -13 2 0 5 6 8 13 3 8 -1 14 -8 14 -7 0 -11 -6 -8 -14z"/><path d="M616 678 c3 -5 10 -6 15 -3 13 9 11 12 -6 12 -8 0 -12 -4 -9 -9z"/><path d="M660 680 c0 -5 5 -10 11 -10 5 0 7 5 4 10 -3 6 -8 10 -11 10 -2 0 -4 -4 -4 -10z"/><path d="M690 686 c0 -2 7 -7 16 -10 8 -3 12 -2 9 4 -6 10 -25 14 -25 6z"/><path d="M1239 673 c-10 -11 -10 -14 -1 -9 7 4 12 2 12 -8 0 -8 5 -18 12 -22 7 -5 8 -3 3 6 -4 7 -2 16 6 21 11 7 10 9 -4 9 -10 0 -15 5 -12 10 10 16 -1 11 -16 -7z"/><path d="M1340 680 c-9 -6 -10 -10 -3 -10 6 0 15 5 18 10 8 12 4 12 -15 0z"/><path d="M587 659 c7 -7 15 -10 18 -7 3 3 -2 9 -12 12 -14 6 -15 5 -6 -5z"/><path d="M1357 659 c-9 -5 -23 -7 -30 -3 -8 5 -9 4 -2 -4 11 -12 55 -5 55 9 0 11 -1 11 -23 -2z"/><path d="M655 651 c3 -6 12 -11 20 -11 7 0 20 -7 28 -15 13 -13 16 -12 22 2 3 10 3 15 0 11 -4 -3 -22 0 -42 8 -19 8 -32 10 -28 5z"/><path d="M983 633 c15 -2 39 -2 55 0 15 2 2 4 -28 4 -30 0 -43 -2 -27 -4z"/><path d="M1290 630 c0 -5 5 -10 10 -10 6 0 10 5 10 10 0 6 -4 10 -10 10 -5 0 -10 -4 -10 -10z"/><path d="M735 620 c-3 -5 -1 -10 4 -10 6 0 11 5 11 10 0 6 -2 10 -4 10 -3 0 -8 -4 -11 -10z"/><path d="M860 615 c-7 -9 -11 -17 -9 -20 3 -2 10 5 17 15 14 24 10 26 -8 5z"/><path d="M1000 613 c8 -3 18 -11 22 -17 5 -7 8 -4 8 7 0 11 -7 17 -22 16 -16 0 -18 -2 -8 -6z"/><path d="M690 586 c0 -2 7 -7 16 -10 8 -3 12 -2 9 4 -6 10 -25 14 -25 6z"/><path d="M1130 577 c0 -8 7 -14 15 -14 11 0 12 4 4 14 -6 7 -13 13 -15 13 -2 0 -4 -6 -4 -13z"/><path d="M1180 580 c0 -5 5 -10 11 -10 5 0 7 5 4 10 -3 6 -8 10 -11 10 -2 0 -4 -4 -4 -10z"/><path d="M857 565 c-4 -8 -3 -16 1 -19 4 -3 9 4 9 15 2 23 -3 25 -10 4z"/><path d="M1003 568 c10 -5 14 -15 10 -26 -8 -22 1 -14 15 14 10 19 9 22 -15 22 -21 0 -23 -2 -10 -10z"/><path d="M1102 572 c-10 -3 -7 -9 8 -19 12 -8 24 -12 27 -9 4 3 1 6 -5 6 -6 0 -12 6 -14 13 -2 8 -9 12 -16 9z"/><path d="M1065 560 c3 -5 8 -10 11 -10 2 0 4 5 4 10 0 6 -5 10 -11 10 -5 0 -7 -4 -4 -10z"/><path d="M927 539 c7 -7 15 -10 18 -7 3 3 -2 9 -12 12 -14 6 -15 5 -6 -5z"/><path d="M1188 533 c7 -3 16 -2 19 1 4 3 -2 6 -13 5 -11 0 -14 -3 -6 -6z"/><path d="M988 503 c6 -2 18 -2 25 0 6 3 1 5 -13 5 -14 0 -19 -2 -12 -5z"/><path d="M775 440 c4 -7 2 -16 -6 -21 -11 -7 -10 -9 4 -9 19 0 23 25 5 36 -7 5 -8 3 -3 -6z"/><path d="M1331 394 c0 -11 3 -14 6 -6 3 7 2 16 -1 19 -3 4 -6 -2 -5 -13z"/><path d="M641 364 c0 -11 3 -14 6 -6 3 7 2 16 -1 19 -3 4 -6 -2 -5 -13z"/><path d="M756 371 c-4 -5 3 -7 14 -4 23 6 26 13 6 13 -8 0 -17 -4 -20 -9z"/><path d="M688 333 c7 -3 16 -2 19 1 4 3 -2 6 -13 5 -11 0 -14 -3 -6 -6z"/><path d="M738 333 c7 -3 16 -2 19 1 4 3 -2 6 -13 5 -11 0 -14 -3 -6 -6z"/></g><g transform="translate(0.000000,200.000000) scale(0.100000,-0.100000)" fill="#0652B8" stroke="none"><path d="M963 1804 c-26 -30 -22 -48 17 -64 41 -17 69 0 62 37 -11 56 -44 67 -79 27z"/><path d="M770 1710 c-12 -8 -12 -10 5 -11 11 0 30 -2 43 -5 13 -2 22 1 22 9 0 15 -49 20 -70 7z"/><path d="M637 1634 c-10 -14 -23 -21 -30 -18 -7 4 -9 4 -5 0 3 -4 -11 -24 -33 -43 -21 -19 -39 -39 -39 -44 0 -16 50 -10 52 6 0 8 1 20 2 27 1 7 19 29 41 49 22 21 38 40 35 42 -3 3 -13 -6 -23 -19z"/><path d="M604 1529 c-8 -14 14 -19 25 -6 8 10 7 14 -5 14 -8 0 -17 -4 -20 -8z"/><path d="M960 1530 c0 -5 18 -10 40 -10 22 0 40 5 40 10 0 6 -18 10 -40 10 -22 0 -40 -4 -40 -10z"/><path d="M475 1459 c-11 -17 1 -21 15 -4 8 9 8 15 2 15 -6 0 -14 -5 -17 -11z"/><path d="M422 1358 c-20 -20 -15 -54 8 -55 17 -2 20 2 14 20 -4 12 -7 28 -7 35 0 15 0 15 -15 0z"/><path d="M481 1294 c0 -11 3 -14 6 -6 3 7 2 16 -1 19 -3 4 -6 -2 -5 -13z"/><path d="M803 1297 c-2 -4 -8 -5 -13 -2 -7 4 -20 -16 -20 -32 0 -2 14 -2 30 2 19 4 37 2 46 -6 18 -15 38 0 32 26 -2 13 -13 18 -36 19 -19 1 -36 -2 -39 -7z"/><path d="M1426 1291 c-3 -4 -18 -11 -33 -14 -20 -4 -37 -21 -58 -54 -16 -26 -38 -57 -48 -68 -28 -30 -97 -132 -97 -144 0 -6 18 -15 40 -21 22 -6 40 -15 40 -20 0 -6 7 -10 16 -10 8 0 40 -11 70 -25 30 -14 59 -25 65 -25 13 0 51 87 54 125 2 17 6 54 10 83 6 39 5 52 -5 52 -8 0 -10 8 -6 25 12 49 -28 129 -48 96z"/><path d="M392 1135 l3 -110 34 3 c19 1 36 4 37 5 1 1 4 43 5 92 l4 90 -33 1 c-19 0 -38 7 -43 15 -6 9 -8 -26 -7 -96z"/><path d="M1054 1204 c4 -46 -16 -73 -39 -54 -12 10 -18 10 -30 0 -10 -9 -19 -9 -27 -2 -7 5 -25 10 -40 10 -26 0 -28 -3 -28 -44 l0 -44 95 1 c97 1 111 8 83 38 -11 11 -10 12 0 7 10 -6 12 4 8 49 -2 32 -9 62 -15 68 -6 6 -9 -3 -7 -29z"/><path d="M604 1106 c-11 -8 -29 -16 -39 -18 -27 -4 -35 -17 -35 -54 0 -40 53 -108 95 -124 26 -9 32 -8 47 12 9 13 23 34 30 48 7 14 16 27 19 30 14 11 14 74 0 66 -5 -4 -11 -3 -13 1 -4 11 -65 53 -75 53 -5 0 -18 -6 -29 -14z"/><path d="M1521 1024 c-6 -22 -11 -45 -11 -51 0 -22 -43 -102 -52 -97 -4 3 -5 -1 -2 -9 3 -8 -1 -21 -9 -28 -30 -30 -38 -56 -25 -83 6 -14 15 -26 20 -26 5 0 6 -4 3 -10 -3 -5 0 -7 9 -4 38 14 138 199 148 274 1 14 6 27 10 30 14 11 -10 31 -45 37 -34 5 -36 4 -46 -33z"/><path d="M945 868 c-27 -5 -113 -13 -190 -17 -77 -5 -159 -12 -182 -16 -28 -5 -43 -4 -43 3 0 12 -59 22 -66 10 -3 -5 7 -25 23 -45 15 -19 35 -47 43 -61 9 -14 22 -28 29 -30 8 -3 11 0 8 5 -4 6 1 19 11 30 9 10 22 28 28 38 17 30 29 28 68 -8 20 -19 36 -32 36 -29 0 3 12 -6 28 -20 49 -46 143 -71 270 -73 61 -1 112 2 112 7 0 4 6 8 14 8 7 0 37 10 65 23 50 22 51 24 34 40 -10 9 -35 23 -56 32 -20 8 -37 19 -37 24 0 5 -25 21 -55 36 -31 14 -53 30 -50 35 4 6 2 10 -4 10 -5 0 -15 2 -23 4 -7 2 -35 -1 -63 -6z"/><path d="M784 619 c-1 -16 -1 -28 0 -27 1 2 7 10 14 19 10 13 10 19 0 27 -10 8 -13 3 -14 -19z"/><path d="M1218 585 c-6 -27 -1 -30 21 -16 8 5 11 16 8 25 -9 24 -24 19 -29 -9z"/><path d="M964 555 c1 -20 6 -35 13 -35 17 0 29 23 15 28 -7 2 -12 10 -12 17 0 8 -4 16 -8 19 -5 3 -8 -11 -8 -29z"/><path d="M768 573 c7 -3 16 -2 19 1 4 3 -2 6 -13 5 -11 0 -14 -3 -6 -6z"/></g><g transform="translate(0.000000,200.000000) scale(0.100000,-0.100000)" fill="#7FACD2" stroke="none"><path d="M958 1864 c-27 -16 -28 -15 40 -18 58 -1 76 8 40 20 -36 12 -55 11 -80 -2z"/><path d="M920 1820 c-6 -11 -7 -20 -2 -20 6 0 12 9 15 20 3 11 3 20 1 20 -2 0 -8 -9 -14 -20z"/><path d="M1064 1821 c0 -12 3 -21 7 -21 13 0 0 -65 -16 -76 -8 -6 -15 -17 -15 -25 0 -8 6 -6 15 7 15 19 15 19 9 -1 -5 -16 -4 -17 5 -5 9 13 11 13 12 0 1 -8 1 -18 0 -22 0 -4 6 -5 14 -2 13 5 13 8 -1 21 -15 15 -10 55 7 61 5 2 9 10 9 18 0 9 -4 12 -10 9 -5 -3 -10 0 -10 7 0 8 -6 22 -13 32 -12 16 -13 16 -13 -3z"/><path d="M914 1753 c3 -35 1 -41 -12 -35 -14 5 -15 4 -2 -10 14 -15 16 -15 24 3 6 12 5 31 -2 51 l-12 33 4 -42z"/><path d="M870 1740 c0 -5 5 -10 11 -10 5 0 7 5 4 10 -3 6 -8 10 -11 10 -2 0 -4 -4 -4 -10z"/><path d="M1115 1740 c-3 -5 -1 -10 4 -10 6 0 11 5 11 10 0 6 -2 10 -4 10 -3 0 -8 -4 -11 -10z"/><path d="M841 1704 c0 -11 3 -14 6 -6 3 7 2 16 -1 19 -3 4 -6 -2 -5 -13z"/><path d="M946 1705 c4 -8 8 -15 10 -15 2 0 4 7 4 15 0 8 -4 15 -10 15 -5 0 -7 -7 -4 -15z"/><path d="M973 1700 c5 -18 49 -20 53 -2 1 7 0 8 -3 2 -2 -5 -9 -10 -14 -10 -6 0 -7 5 -4 10 3 6 1 10 -4 10 -6 0 -11 -6 -11 -12 0 -9 -4 -8 -11 2 -9 13 -10 13 -6 0z"/><path d="M783 1669 c1 -10 6 -19 12 -19 16 0 15 28 -1 34 -8 3 -12 -3 -11 -15z"/><path d="M1177 1683 c-3 -5 -8 -24 -12 -43 -7 -33 -26 -82 -46 -122 -13 -26 -12 -28 24 -28 42 0 78 -10 72 -20 -3 -4 2 -13 10 -20 8 -7 15 -18 15 -25 0 -8 6 -15 13 -18 9 -3 9 -9 0 -25 -12 -20 -11 -20 40 -15 41 4 56 2 66 -11 7 -9 21 -16 30 -15 12 0 11 2 -4 9 -17 7 -15 9 12 9 54 1 47 20 -9 23 -44 2 -53 6 -50 21 2 12 -4 17 -21 17 -13 0 -32 9 -42 20 -10 11 -22 17 -28 13 -6 -3 -7 -1 -3 6 6 9 12 9 24 -1 15 -12 16 -11 3 5 -7 9 -22 17 -32 17 -11 0 -19 7 -19 18 0 14 2 15 10 2 9 -13 10 -13 10 0 0 13 1 13 10 0 6 -9 10 -10 10 -3 0 6 -5 15 -11 19 -7 4 0 17 17 35 39 40 9 38 -33 -3 -31 -30 -34 -31 -51 -15 -10 9 -22 14 -25 10 -11 -10 -8 6 4 28 6 11 14 43 18 70 8 47 7 57 -2 42z m11 -165 c8 -8 15 -8 26 1 11 9 16 9 22 0 4 -7 3 -9 -4 -5 -6 3 -15 -1 -20 -10 -9 -16 -12 -15 -33 4 -12 12 -18 22 -13 22 6 0 15 -5 22 -12z m127 -125 c3 -8 -5 -13 -20 -13 -14 0 -25 4 -25 9 0 5 -3 16 -6 25 -5 13 -2 13 20 3 14 -7 28 -18 31 -24z"/><path d="M742 1665 c-11 -8 -27 -12 -36 -9 -20 8 -21 -13 -1 -32 13 -13 15 -13 15 -1 0 8 7 20 15 27 13 11 14 10 9 -4 -9 -23 13 -20 26 3 13 26 -1 34 -28 16z"/><path d="M910 1675 c0 -11 62 -35 90 -35 33 0 70 15 70 29 0 6 -34 7 -50 1 -3 -1 -8 -2 -11 -2 -3 1 -27 3 -52 6 -26 4 -47 4 -47 1z"/><path d="M1119 1632 c-2 -30 -1 -56 2 -58 11 -6 18 66 10 89 -7 17 -9 10 -12 -31z"/><path d="M1216 1665 c-3 -9 -6 -24 -5 -33 0 -9 5 -4 10 12 9 32 6 48 -5 21z"/><path d="M1249 1623 c-13 -21 -24 -41 -24 -45 0 -4 -5 -12 -12 -19 -10 -10 -16 -9 -30 1 -17 13 -17 13 -1 -5 21 -23 37 -12 75 52 31 54 24 68 -8 16z"/><path d="M664 1615 c-4 -8 -10 -12 -15 -9 -9 5 -13 -9 -9 -36 1 -10 -3 -9 -14 5 -13 17 -15 18 -16 3 0 -9 5 -20 10 -23 13 -8 40 13 37 27 -1 6 4 13 12 16 8 3 11 0 7 -7 -5 -7 -1 -9 9 -4 12 4 13 8 5 13 -9 6 -9 9 1 12 9 3 8 6 -4 11 -11 4 -20 1 -23 -8z"/><path d="M1285 1600 c-3 -5 1 -10 9 -10 9 0 16 5 16 10 0 6 -4 10 -9 10 -6 0 -13 -4 -16 -10z"/><path d="M1314 1565 c-48 -49 -43 -58 6 -10 22 21 40 40 40 42 0 10 -16 -1 -46 -32z"/><path d="M524 1558 l-19 -23 23 19 c21 18 27 26 19 26 -2 0 -12 -10 -23 -22z"/><path d="M1350 1540 c-14 -10 -23 -21 -20 -23 3 -3 16 3 29 14 31 25 23 33 -9 9z"/><path d="M932 1438 l-2 -97 -27 -4 -28 -4 28 -2 c15 0 30 5 33 12 3 8 3 54 1 103 l-3 89 -2 -97z"/><path d="M1067 1516 c-10 -25 -9 -38 3 -31 6 3 10 -4 11 -17 0 -13 3 -18 5 -11 3 6 1 26 -4 44 -6 27 -10 30 -15 15z"/><path d="M635 1509 c-4 -6 -5 -12 -2 -15 2 -3 7 2 10 11 7 17 1 20 -8 4z"/><path d="M1398 1513 c-21 -5 -24 -23 -4 -23 8 0 16 7 20 15 3 8 4 14 3 14 -1 -1 -10 -3 -19 -6z"/><path d="M538 1496 c-17 -12 -15 -26 4 -26 5 0 6 5 2 12 -5 7 -2 9 9 5 11 -4 14 -2 10 9 -6 17 -4 17 -25 0z"/><path d="M1290 1500 c0 -5 5 -10 11 -10 5 0 7 5 4 10 -3 6 -8 10 -11 10 -2 0 -4 -4 -4 -10z"/><path d="M1282 1473 c6 -8 21 -10 37 -7 53 13 56 23 4 21 -39 -2 -49 -5 -41 -14z"/><path d="M510 1456 c0 -8 -6 -17 -12 -19 -8 -3 -6 -6 5 -6 9 -1 17 4 17 10 0 5 4 8 9 4 5 -3 12 -1 15 4 3 5 -1 12 -10 15 -22 8 -24 8 -24 -8z"/><path d="M965 1460 c-3 -5 -1 -10 4 -10 6 0 11 5 11 10 0 6 -2 10 -4 10 -3 0 -8 -4 -11 -10z"/><path d="M1020 1460 c0 -5 5 -10 11 -10 5 0 7 5 4 10 -3 6 -8 10 -11 10 -2 0 -4 -4 -4 -10z"/><path d="M1375 1460 c-11 -5 -35 -9 -52 -9 -18 -1 -33 -5 -33 -11 0 -16 62 -11 105 9 26 13 33 19 20 19 -11 1 -29 -3 -40 -8z"/><path d="M1083 1405 c0 -22 2 -30 4 -17 2 12 2 30 0 40 -3 9 -5 -1 -4 -23z"/><path d="M470 1415 c-1 -5 -2 -13 -1 -17 0 -4 -4 -19 -9 -33 -5 -14 -8 -25 -6 -25 3 0 12 -3 22 -7 13 -5 16 -3 11 10 -4 12 -1 17 11 18 14 0 14 2 -3 9 -19 8 -19 9 -1 9 11 1 16 4 13 8 -4 3 -1 13 6 21 10 13 9 14 -10 4 -16 -9 -23 -9 -26 1 -3 6 -6 8 -7 2z"/><path d="M1363 1406 c5 -14 47 -20 47 -7 0 5 8 12 18 14 9 3 -2 5 -26 4 -25 0 -41 -5 -39 -11z"/><path d="M546 1393 c-6 -14 -5 -15 5 -6 7 7 10 15 7 18 -3 3 -9 -2 -12 -12z"/><path d="M1153 1363 c15 -2 39 -2 55 0 15 2 2 4 -28 4 -30 0 -43 -2 -27 -4z"/><path d="M1318 1353 c7 -3 16 -2 19 1 4 3 -2 6 -13 5 -11 0 -14 -3 -6 -6z"/><path d="M620 1300 c0 -5 5 -10 11 -10 5 0 7 5 4 10 -3 6 -8 10 -11 10 -2 0 -4 -4 -4 -10z"/><path d="M686 1287 c8 -27 24 -46 24 -29 0 7 5 12 11 12 6 0 9 -7 5 -15 -3 -8 -1 -15 4 -15 23 0 8 40 -21 54 -29 15 -30 14 -23 -7z"/><path d="M925 1300 c-3 -5 -1 -10 4 -10 6 0 11 5 11 10 0 6 -2 10 -4 10 -3 0 -8 -4 -11 -10z"/><path d="M960 1299 c0 -5 5 -7 10 -4 6 3 10 8 10 11 0 2 -4 4 -10 4 -5 0 -10 -5 -10 -11z"/><path d="M990 1300 c0 -5 5 -10 10 -10 6 0 10 5 10 10 0 6 -4 10 -10 10 -5 0 -10 -4 -10 -10z"/><path d="M1020 1300 c0 -5 5 -10 10 -10 6 0 10 5 10 10 0 6 -4 10 -10 10 -5 0 -10 -4 -10 -10z"/><path d="M415 1280 c3 -5 8 -10 11 -10 2 0 4 5 4 10 0 6 -5 10 -11 10 -5 0 -7 -4 -4 -10z"/><path d="M443 1275 c0 -18 19 -15 25 3 2 7 -3 12 -10 12 -8 0 -15 -7 -15 -15z"/><path d="M965 1260 c3 -5 8 -10 11 -10 2 0 4 5 4 10 0 6 -5 10 -11 10 -5 0 -7 -4 -4 -10z"/><path d="M421 1244 c0 -11 3 -14 6 -6 3 7 2 16 -1 19 -3 4 -6 -2 -5 -13z"/><path d="M445 1240 c-3 -5 -1 -10 4 -10 6 0 11 5 11 10 0 6 -2 10 -4 10 -3 0 -8 -4 -11 -10z"/><path d="M793 1243 c15 -2 27 -8 27 -13 0 -15 28 -19 40 -5 8 10 8 15 -1 21 -8 4 -9 3 -5 -4 4 -7 3 -12 -3 -12 -5 0 -13 5 -16 10 -3 6 -21 9 -38 9 -30 -2 -31 -2 -4 -6z"/><path d="M566 1215 c10 -15 20 -23 22 -17 5 16 3 27 -5 27 -5 0 -14 4 -22 9 -8 5 -6 -2 5 -19z"/><path d="M615 1229 c-4 -6 -4 -13 -1 -16 3 -4 6 -1 6 6 0 7 5 9 12 5 7 -4 8 -3 4 4 -9 15 -13 15 -21 1z"/><path d="M1025 1221 c-3 -5 -2 -12 3 -15 5 -3 9 1 9 9 0 17 -3 19 -12 6z"/><path d="M1090 1178 c0 -28 2 -49 4 -47 8 9 13 99 5 99 -5 0 -9 -23 -9 -52z"/><path d="M630 1180 c0 -5 5 -10 11 -10 5 0 7 5 4 10 -3 6 -8 10 -11 10 -2 0 -4 -4 -4 -10z"/><path d="M920 1170 c0 -5 5 -10 11 -10 5 0 7 5 4 10 -3 6 -8 10 -11 10 -2 0 -4 -4 -4 -10z"/><path d="M965 1170 c-3 -5 -1 -10 4 -10 6 0 11 5 11 10 0 6 -2 10 -4 10 -3 0 -8 -4 -11 -10z"/><path d="M1090 1096 c0 -22 3 -27 11 -19 8 8 8 16 0 30 -9 16 -10 14 -11 -11z"/><path d="M520 1100 c0 -5 5 -10 10 -10 6 0 10 5 10 10 0 6 -4 10 -10 10 -5 0 -10 -4 -10 -10z"/><path d="M695 1100 c-3 -5 3 -10 14 -10 12 0 21 5 21 10 0 6 -6 10 -14 10 -8 0 -18 -4 -21 -10z"/><path d="M746 1085 c4 -8 11 -15 16 -15 6 0 5 6 -2 15 -7 8 -14 15 -16 15 -2 0 -1 -7 2 -15z"/><path d="M1597 1074 c12 -3 24 -13 27 -22 3 -12 4 -11 3 3 -2 14 -10 21 -27 22 -21 1 -21 1 -3 -3z"/><path d="M1149 958 c-3 -22 -1 -34 4 -29 5 5 7 21 5 37 -3 27 -4 26 -9 -8z"/><path d="M1190 981 c0 -5 7 -12 16 -15 14 -5 15 -4 4 9 -14 17 -20 19 -20 6z"/><path d="M555 930 c10 -11 20 -20 23 -20 3 0 -3 9 -13 20 -10 11 -20 20 -23 20 -3 0 3 -9 13 -20z"/><path d="M1230 916 c0 -19 3 -37 8 -39 4 -3 7 12 7 34 0 21 -3 39 -7 39 -5 0 -8 -15 -8 -34z"/><path d="M1268 938 c6 -6 18 -8 28 -6 14 3 12 5 -9 10 -19 3 -25 2 -19 -4z"/><path d="M1327 919 c7 -7 15 -10 18 -7 3 3 -2 9 -12 12 -14 6 -15 5 -6 -5z"/><path d="M1154 909 c-4 -7 -3 -9 4 -5 5 3 13 0 15 -6 4 -9 6 -10 6 -1 1 17 -16 25 -25 12z"/><path d="M1030 886 c0 -2 19 -15 43 -29 23 -14 52 -35 64 -47 l23 -21 -4 23 c-2 15 -9 22 -21 20 -9 -2 -15 1 -12 5 3 5 -8 18 -26 28 -30 18 -67 30 -67 21z"/><path d="M1312 865 c-1 -13 3 -27 8 -30 6 -4 10 7 10 24 0 37 -15 42 -18 6z"/><path d="M1400 880 c19 -13 30 -13 30 0 0 6 -10 10 -22 10 -19 0 -20 -2 -8 -10z"/><path d="M543 853 c15 -2 39 -2 55 0 15 2 2 4 -28 4 -30 0 -43 -2 -27 -4z"/><path d="M1220 765 c0 -2 14 -11 30 -20 17 -9 30 -13 30 -10 0 3 9 1 19 -4 14 -8 22 -7 32 7 12 15 12 16 -2 5 -12 -10 -21 -8 -47 7 -30 19 -62 26 -62 15z"/><path d="M670 735 c6 -8 18 -11 26 -8 18 7 13 12 -16 18 -18 3 -20 2 -10 -10z"/><path d="M582 710 c1 -13 9 -25 16 -28 17 -5 15 16 -4 35 -14 15 -16 14 -12 -7z"/><path d="M641 713 c7 -12 15 -20 18 -17 3 2 -3 12 -13 22 -17 16 -18 16 -5 -5z"/><path d="M1332 693 c-23 -28 -22 -45 1 -22 12 13 30 49 24 49 -2 0 -13 -12 -25 -27z"/><path d="M680 680 c0 -6 -11 -8 -26 -4 -19 5 -25 4 -20 -5 4 -6 12 -8 18 -5 7 5 9 2 6 -8 -5 -12 0 -14 20 -10 15 3 22 7 15 9 -7 2 -9 11 -6 19 3 8 2 14 -1 14 -3 0 -6 -5 -6 -10z"/><path d="M1366 682 c-3 -5 1 -9 9 -9 8 0 12 4 9 9 -3 4 -7 8 -9 8 -2 0 -6 -4 -9 -8z"/><path d="M1232 654 c-1 -15 2 -22 8 -19 12 7 13 32 2 39 -4 2 -9 -7 -10 -20z"/><path d="M1200 660 c-9 -6 -10 -10 -3 -10 6 0 15 5 18 10 8 12 4 12 -15 0z"/><path d="M715 651 c-2 -5 8 -11 23 -14 35 -7 38 -3 7 11 -13 6 -27 7 -30 3z"/><path d="M835 650 c-3 -6 1 -7 9 -4 18 7 21 14 7 14 -6 0 -13 -4 -16 -10z"/><path d="M1140 656 c0 -2 7 -7 16 -10 8 -3 12 -2 9 4 -6 10 -25 14 -25 6z"/><path d="M1256 645 c-3 -9 -6 -26 -5 -38 1 -14 4 -9 9 13 9 37 7 52 -4 25z"/><path d="M1110 646 c0 -2 7 -7 16 -10 8 -3 12 -2 9 4 -6 10 -25 14 -25 6z"/><path d="M1275 639 c-4 -6 -4 -13 0 -17 3 -3 10 0 14 7 5 8 14 10 21 6 9 -5 11 -4 6 3 -9 15 -33 15 -41 1z"/><path d="M665 630 c-3 -5 -1 -10 4 -10 6 0 11 5 11 10 0 6 -2 10 -4 10 -3 0 -8 -4 -11 -10z"/><path d="M861 623 c7 -12 15 -20 18 -17 3 2 -3 12 -13 22 -17 16 -18 16 -5 -5z"/><path d="M910 631 c0 -4 11 -6 25 -3 14 2 25 6 25 8 0 2 -11 4 -25 4 -14 0 -25 -4 -25 -9z"/><path d="M1070 630 c8 -5 20 -10 25 -10 6 0 3 5 -5 10 -8 5 -19 10 -25 10 -5 0 -3 -5 5 -10z"/><path d="M723 615 c-3 -9 -3 -18 -1 -21 3 -3 8 4 11 16 6 23 -1 27 -10 5z"/><path d="M1113 609 c-2 -23 3 -25 10 -4 4 8 3 16 -1 19 -4 3 -9 -4 -9 -15z"/><path d="M751 604 c0 -11 3 -14 6 -6 3 7 2 16 -1 19 -3 4 -6 -2 -5 -13z"/><path d="M811 608 c0 -9 -4 -25 -7 -35 -5 -17 -5 -17 6 0 6 10 9 25 7 35 -4 15 -5 15 -6 0z"/><path d="M842 577 c-1 -31 0 -31 15 -12 13 16 15 17 10 3 -4 -10 -2 -18 3 -18 6 0 10 7 10 15 0 9 6 12 15 9 8 -4 15 -1 15 6 0 7 -8 10 -20 7 -11 -3 -26 1 -34 8 -11 11 -13 8 -14 -18z"/><path d="M1148 599 c-6 -16 8 -39 24 -39 4 0 8 7 8 16 0 8 -4 13 -9 9 -5 -3 -11 3 -13 12 -3 16 -4 16 -10 2z"/><path d="M990 586 c0 -9 30 -14 35 -6 4 6 -3 10 -14 10 -12 0 -21 -2 -21 -4z"/><path d="M1035 569 c-4 -6 -5 -11 -4 -12 2 -2 12 -9 22 -16 14 -12 17 -11 17 3 0 9 -7 16 -16 16 -8 0 -12 5 -9 10 3 6 4 10 1 10 -3 0 -8 -5 -11 -11z"/><path d="M1120 568 c0 -11 -5 -15 -14 -12 -8 3 -17 1 -20 -4 -3 -5 6 -8 20 -6 32 3 35 6 24 24 -8 13 -10 12 -10 -2z"/><path d="M930 555 c0 -8 4 -15 10 -15 5 0 7 7 4 15 -4 8 -8 15 -10 15 -2 0 -4 -7 -4 -15z"/><path d="M943 503 c9 -2 23 -2 30 0 6 3 -1 5 -18 5 -16 0 -22 -2 -12 -5z"/><path d="M1033 503 c9 -2 23 -2 30 0 6 3 -1 5 -18 5 -16 0 -22 -2 -12 -5z"/><path d="M693 453 c15 -2 37 -2 50 0 12 2 0 4 -28 4 -27 0 -38 -2 -22 -4z"/><path d="M833 453 c15 -2 39 -2 55 0 15 2 2 4 -28 4 -30 0 -43 -2 -27 -4z"/><path d="M955 450 c-3 -6 1 -7 9 -4 18 7 21 14 7 14 -6 0 -13 -4 -16 -10z"/><path d="M1068 453 c7 -3 16 -2 19 1 4 3 -2 6 -13 5 -11 0 -14 -3 -6 -6z"/><path d="M1165 450 c-3 -6 1 -7 9 -4 18 7 21 14 7 14 -6 0 -13 -4 -16 -10z"/><path d="M1243 453 c15 -2 37 -2 50 0 12 2 0 4 -28 4 -27 0 -38 -2 -22 -4z"/><path d="M674 416 c-3 -8 -4 -23 -1 -33 3 -12 5 -9 6 9 1 23 6 27 39 31 l37 4 -38 1 c-25 1 -40 -3 -43 -12z"/><path d="M1268 423 c12 -2 30 -2 40 0 9 3 -1 5 -23 4 -22 0 -30 -2 -17 -4z"/><path d="M1361 414 c0 -11 3 -14 6 -6 3 7 2 16 -1 19 -3 4 -6 -2 -5 -13z"/><path d="M1361 374 c0 -11 3 -14 6 -6 3 7 2 16 -1 19 -3 4 -6 -2 -5 -13z"/><path d="M858 363 c12 -2 32 -2 45 0 12 2 2 4 -23 4 -25 0 -35 -2 -22 -4z"/><path d="M1018 333 c6 -2 18 -2 25 0 6 3 1 5 -13 5 -14 0 -19 -2 -12 -5z"/><path d="M1118 333 c6 -2 18 -2 25 0 6 3 1 5 -13 5 -14 0 -19 -2 -12 -5z"/><path d="M1237 333 c18 -2 50 -2 70 0 21 2 7 4 -32 4 -38 0 -55 -2 -38 -4z"/></g><g transform="translate(0.000000,200.000000) scale(0.100000,-0.100000)" fill="#A5DFF8" stroke="none"><path d="M975 1900 c3 -5 15 -10 25 -10 10 0 22 5 25 10 4 6 -7 10 -25 10 -18 0 -29 -4 -25 -10z"/><path d="M921 1886 c-10 -12 -9 -14 6 -11 10 2 21 4 26 4 4 1 7 6 7 11 0 15 -26 12 -39 -4z"/><path d="M1040 1889 c0 -5 5 -7 10 -4 6 3 10 1 10 -5 0 -6 5 -8 10 -5 6 3 10 1 10 -4 0 -6 7 -11 16 -11 12 0 10 5 -9 20 -28 22 -47 26 -47 9z"/><path d="M881 1828 c-5 -18 -11 -44 -13 -58 -2 -16 -9 -25 -20 -24 -14 1 -15 -2 -8 -15 5 -10 12 -40 16 -68 6 -49 6 -50 -22 -57 -66 -17 -224 -145 -224 -182 0 -8 -4 -14 -8 -14 -12 0 -62 -93 -62 -114 0 -9 -4 -16 -10 -16 -5 0 -10 -8 -10 -17 0 -11 3 -14 8 -7 11 16 48 34 71 34 12 0 21 5 21 10 0 6 46 10 119 10 93 0 121 3 131 15 7 8 23 15 36 15 24 0 24 1 24 110 l0 110 69 0 69 0 11 -44 c6 -25 11 -69 11 -99 l0 -54 78 3 c62 2 79 7 87 21 6 10 15 22 20 26 6 5 0 5 -12 2 -16 -4 -23 -2 -23 7 0 7 -11 26 -25 41 -20 20 -35 27 -64 27 -22 0 -41 5 -43 13 -2 6 1 50 7 97 8 61 13 78 17 60 4 -14 3 -43 -2 -65 -24 -102 3 -68 32 40 6 22 14 44 18 48 11 12 -7 -89 -20 -113 -18 -34 -4 -35 16 -1 20 33 34 40 34 16 0 -8 -4 -15 -8 -15 -10 0 -35 -50 -28 -57 2 -2 7 5 11 16 7 22 21 28 27 11 2 -6 22 9 46 31 57 56 66 42 11 -16 -45 -48 -53 -66 -31 -71 7 -1 8 0 2 3 -18 9 -11 21 28 43 20 12 41 28 45 36 4 8 18 19 30 26 18 9 17 6 -8 -24 -17 -20 -40 -41 -52 -47 -24 -11 -31 -31 -12 -31 6 0 1 -9 -12 -21 l-24 -20 25 14 c26 16 110 33 110 23 0 -3 -20 -11 -45 -17 -25 -6 -48 -15 -50 -20 -6 -9 56 -2 99 12 50 16 63 8 21 -12 -22 -10 -56 -19 -75 -20 l-35 -1 30 -7 c17 -4 53 -6 80 -5 28 2 42 1 33 -2 -10 -3 -18 -9 -18 -14 0 -5 -17 -11 -37 -13 -31 -3 -28 -4 15 -5 57 -2 65 -21 9 -23 l-32 -1 40 -13 c22 -8 54 -14 71 -14 16 -1 40 -10 52 -21 12 -11 25 -20 29 -20 4 0 17 -12 30 -27 25 -32 29 -20 12 40 -5 20 -14 37 -20 37 -6 0 -8 4 -5 9 14 22 -82 178 -145 237 -52 48 -137 104 -158 104 -11 0 -21 5 -23 11 -2 6 -28 18 -58 28 -52 17 -55 20 -62 60 -8 48 -15 61 -31 61 -8 0 -9 -3 -1 -8 20 -14 25 -42 6 -43 -10 0 -12 -3 -4 -6 6 -2 12 -16 12 -29 0 -17 4 -23 12 -18 8 5 9 2 5 -10 -4 -10 -7 -19 -7 -22 0 -2 -7 -1 -15 2 -9 4 -15 0 -15 -10 0 -9 5 -16 10 -16 6 0 10 -5 10 -11 0 -5 -4 -7 -10 -4 -5 3 -10 1 -10 -6 0 -7 -3 -9 -6 -6 -4 3 -16 0 -28 -8 -52 -37 -138 -7 -175 62 -15 30 -13 42 3 20 9 -12 16 -14 21 -8 3 6 1 11 -4 11 -6 0 -11 18 -11 41 0 30 4 40 13 36 10 -4 13 2 9 19 -6 33 -19 30 -31 -8z m340 -184 c-5 -16 -10 -21 -10 -12 -1 18 10 51 15 45 2 -1 -1 -16 -5 -33z m59 8 c0 -15 -61 -104 -67 -99 -3 4 9 29 27 57 31 49 40 58 40 42z m82 -117 c-11 -9 -28 -22 -36 -30 -15 -16 -36 -20 -36 -7 1 9 83 60 89 55 3 -2 -5 -10 -17 -18z m55 -30 c0 -8 -9 -15 -19 -15 -23 0 -24 17 0 23 9 3 17 5 18 6 0 0 1 -6 1 -14z"/><path d="M760 1730 c-8 -5 -10 -10 -5 -10 6 0 17 5 25 10 8 5 11 10 5 10 -5 0 -17 -5 -25 -10z"/><path d="M933 1696 c-10 -11 -9 -15 4 -20 9 -4 18 -4 21 -1 3 3 0 5 -6 5 -6 0 -9 7 -6 15 7 18 3 19 -13 1z"/><path d="M1053 1697 c4 -10 2 -17 -5 -17 -6 0 -9 -3 -5 -6 3 -3 12 -2 20 3 13 7 13 10 -1 23 -14 13 -15 12 -9 -3z"/><path d="M585 1620 c-3 -6 1 -7 9 -4 18 7 21 14 7 14 -6 0 -13 -4 -16 -10z"/><path d="M677 1624 c-9 -10 2 -24 19 -24 8 0 14 7 14 15 0 15 -21 21 -33 9z"/><path d="M664 1528 l-19 -23 23 19 c21 18 27 26 19 26 -2 0 -12 -10 -23 -22z"/><path d="M960 1499 c0 -5 5 -7 10 -4 6 3 10 8 10 11 0 2 -4 4 -10 4 -5 0 -10 -5 -10 -11z"/><path d="M990 1500 c0 -5 5 -10 10 -10 6 0 10 5 10 10 0 6 -4 10 -10 10 -5 0 -10 -4 -10 -10z"/><path d="M1025 1500 c3 -5 8 -10 11 -10 2 0 4 5 4 10 0 6 -5 10 -11 10 -5 0 -7 -4 -4 -10z"/><path d="M1190 1500 c0 -5 5 -10 10 -10 6 0 10 5 10 10 0 6 -4 10 -10 10 -5 0 -10 -4 -10 -10z"/><path d="M1067 1483 c-11 -11 -8 -223 3 -223 6 0 10 45 10 115 0 63 -1 115 -3 115 -2 0 -7 -3 -10 -7z"/><path d="M485 1420 c-3 -5 1 -10 9 -10 9 0 16 5 16 10 0 6 -4 10 -9 10 -6 0 -13 -4 -16 -10z"/><path d="M990 1420 c0 -5 5 -10 10 -10 6 0 10 5 10 10 0 6 -4 10 -10 10 -5 0 -10 -4 -10 -10z"/><path d="M416 1393 c-6 -14 -5 -15 5 -6 7 7 10 15 7 18 -3 3 -9 -2 -12 -12z"/><path d="M960 1379 c0 -5 5 -7 10 -4 6 3 10 8 10 11 0 2 -4 4 -10 4 -5 0 -10 -5 -10 -11z"/><path d="M990 1380 c0 -5 5 -10 10 -10 6 0 10 5 10 10 0 6 -4 10 -10 10 -5 0 -10 -4 -10 -10z"/><path d="M1025 1380 c3 -5 8 -10 11 -10 2 0 4 5 4 10 0 6 -5 10 -11 10 -5 0 -7 -4 -4 -10z"/><path d="M1271 1366 c10 -8 89 -13 83 -5 -3 5 -24 9 -46 9 -23 0 -39 -2 -37 -4z"/><path d="M990 1340 c0 -5 5 -10 10 -10 6 0 10 5 10 10 0 6 -4 10 -10 10 -5 0 -10 -4 -10 -10z"/><path d="M895 1300 c-3 -5 -1 -10 4 -10 6 0 11 5 11 10 0 6 -2 10 -4 10 -3 0 -8 -4 -11 -10z"/><path d="M371 1244 c0 -11 3 -14 6 -6 3 7 2 16 -1 19 -3 4 -6 -2 -5 -13z"/><path d="M430 1244 c0 -14 3 -14 15 -4 8 7 15 14 15 16 0 2 -7 4 -15 4 -8 0 -15 -7 -15 -16z"/><path d="M690 1252 c0 -7 6 -12 13 -12 8 0 7 -4 -3 -10 -11 -8 -7 -9 15 -4 37 8 45 14 19 14 -11 0 -25 5 -32 12 -9 9 -12 9 -12 0z"/><path d="M617 1230 c6 -7 9 -20 6 -29 -3 -9 -1 -12 4 -6 4 6 11 12 15 15 4 3 -3 12 -15 19 -15 9 -18 10 -10 1z"/><path d="M810 1227 c0 -10 8 -17 18 -17 9 0 13 4 7 8 -5 4 -13 11 -17 16 -5 5 -8 2 -8 -7z"/><path d="M748 1213 c6 -2 10 -9 6 -14 -8 -14 6 -10 22 6 14 13 12 15 -13 14 -15 0 -22 -3 -15 -6z"/><path d="M483 1140 c0 -36 2 -50 4 -32 2 17 2 47 0 65 -2 17 -4 3 -4 -33z"/><path d="M695 1190 c3 -5 11 -10 16 -10 6 0 7 5 4 10 -3 6 -11 10 -16 10 -6 0 -7 -4 -4 -10z"/><path d="M363 1130 c0 -36 2 -50 4 -32 2 17 2 47 0 65 -2 17 -4 3 -4 -33z"/><path d="M725 1169 c-4 -6 -5 -12 -2 -15 2 -3 7 2 10 11 7 17 1 20 -8 4z"/><path d="M890 1170 c0 -5 5 -10 10 -10 6 0 10 5 10 10 0 6 -4 10 -10 10 -5 0 -10 -4 -10 -10z"/><path d="M581 1154 c0 -11 3 -14 6 -6 3 7 2 16 -1 19 -3 4 -6 -2 -5 -13z"/><path d="M770 1156 c0 -2 7 -7 16 -10 8 -3 12 -2 9 4 -6 10 -25 14 -25 6z"/><path d="M540 1120 c-13 -8 -12 -10 3 -10 9 0 17 5 17 10 0 12 -1 12 -20 0z"/><path d="M776 1093 c-6 -14 -5 -15 5 -6 7 7 10 15 7 18 -3 3 -9 -2 -12 -12z"/><path d="M1516 1081 c-4 -5 3 -7 14 -4 23 6 26 13 6 13 -8 0 -17 -4 -20 -9z"/><path d="M372 1030 c0 -14 2 -19 5 -12 2 6 2 18 0 25 -3 6 -5 1 -5 -13z"/><path d="M495 1030 c-3 -5 -1 -10 4 -10 6 0 11 5 11 10 0 6 -2 10 -4 10 -3 0 -8 -4 -11 -10z"/><path d="M1621 1024 c0 -11 3 -14 6 -6 3 7 2 16 -1 19 -3 4 -6 -2 -5 -13z"/><path d="M1142 960 c0 -19 2 -27 5 -17 2 9 2 25 0 35 -3 9 -5 1 -5 -18z"/><path d="M1162 950 c0 -19 2 -27 5 -17 2 9 2 25 0 35 -3 9 -5 1 -5 -18z"/><path d="M1470 971 c0 -6 4 -13 10 -16 6 -3 7 1 4 9 -7 18 -14 21 -14 7z"/><path d="M1244 936 c-3 -8 -4 -25 -1 -38 3 -17 5 -15 6 10 1 22 5 31 13 26 7 -4 8 -3 4 4 -10 16 -15 15 -22 -2z"/><path d="M1454 918 c-4 -13 -12 -26 -18 -30 -8 -6 -7 -8 1 -8 7 0 19 14 28 30 9 17 11 30 6 30 -5 0 -13 -10 -17 -22z"/><path d="M426 907 c3 -10 9 -15 12 -12 3 3 0 11 -7 18 -10 9 -11 8 -5 -6z"/><path d="M1026 907 c3 -10 9 -15 12 -12 3 3 0 11 -7 18 -10 9 -11 8 -5 -6z"/><path d="M1330 900 c0 -5 5 -10 10 -10 6 0 10 5 10 10 0 6 -4 10 -10 10 -5 0 -10 -4 -10 -10z"/><path d="M630 870 c-9 -6 -10 -10 -3 -10 6 0 15 5 18 10 8 12 4 12 -15 0z"/><path d="M1245 860 c-3 -5 -1 -10 4 -10 6 0 11 5 11 10 0 6 -2 10 -4 10 -3 0 -8 -4 -11 -10z"/><path d="M1333 815 c0 -8 4 -15 9 -15 4 0 8 4 8 9 0 6 -4 12 -8 15 -5 3 -9 -1 -9 -9z"/><path d="M1190 796 c0 -8 6 -16 14 -19 10 -4 12 0 9 14 -6 22 -23 26 -23 5z"/><path d="M1390 800 c0 -5 5 -10 10 -10 6 0 10 5 10 10 0 6 -4 10 -10 10 -5 0 -10 -4 -10 -10z"/><path d="M625 780 c3 -5 20 -19 38 -31 l32 -22 -29 31 c-28 30 -55 44 -41 22z"/><path d="M1354 768 l-19 -23 23 19 c21 18 27 26 19 26 -2 0 -12 -10 -23 -22z"/><path d="M1371 726 c-14 -15 -19 -26 -12 -31 6 -3 11 1 11 9 0 9 5 16 10 16 6 0 10 -5 10 -11 0 -8 4 -9 13 0 8 6 18 7 22 3 5 -4 5 -2 1 5 -4 7 -13 10 -21 6 -8 -3 -15 -1 -15 5 0 6 6 13 13 15 6 3 7 6 1 6 -6 1 -21 -10 -33 -23z"/><path d="M601 731 c-10 -7 -8 -11 10 -16 13 -4 27 -13 31 -19 6 -8 8 -8 8 0 0 19 -34 44 -49 35z"/><path d="M510 726 c0 -2 8 -10 18 -17 15 -13 16 -12 3 4 -13 16 -21 21 -21 13z"/><path d="M1281 708 c0 -16 2 -18 6 -8 3 8 11 18 17 22 7 5 4 8 -6 8 -12 0 -18 -7 -17 -22z"/><path d="M1480 715 c-7 -9 -11 -17 -9 -20 3 -2 10 5 17 15 14 24 10 26 -8 5z"/><path d="M700 682 c-8 -9 -13 -16 -11 -15 2 2 10 -2 16 -7 9 -8 13 -4 13 15 0 14 -1 25 -2 24 0 0 -8 -8 -16 -17z"/><path d="M572 665 c15 -16 29 -27 31 -24 3 2 -10 15 -27 28 l-31 24 27 -28z"/><path d="M805 660 c33 -16 71 -29 85 -29 19 0 15 3 -15 13 -22 7 -54 20 -72 29 -18 9 -38 17 -45 16 -7 0 14 -14 47 -29z"/><path d="M1215 682 c-26 -24 -110 -45 -200 -52 l-100 -7 75 -2 c42 0 102 6 133 14 62 16 142 54 117 55 -9 0 -20 -4 -25 -8z"/><path d="M1434 668 l-19 -23 23 19 c21 18 27 26 19 26 -2 0 -12 -10 -23 -22z"/><path d="M1293 668 c-13 -6 -23 -15 -23 -20 0 -10 36 7 45 22 7 12 7 12 -22 -2z"/><path d="M1340 670 c-20 -12 -5 -24 16 -12 9 5 12 12 7 15 -5 3 -15 2 -23 -3z"/><path d="M727 633 c-3 -5 6 -9 20 -10 19 -1 22 1 12 8 -17 11 -26 11 -32 2z"/><path d="M690 620 c0 -5 5 -10 10 -10 6 0 10 5 10 10 0 6 -4 10 -10 10 -5 0 -10 -4 -10 -10z"/><path d="M1295 620 c-16 -7 -17 -9 -3 -9 9 -1 20 4 23 9 7 11 7 11 -20 0z"/><path d="M1190 600 c0 -11 5 -20 10 -20 6 0 10 9 10 20 0 11 -4 20 -10 20 -5 0 -10 -9 -10 -20z"/><path d="M730 600 c0 -5 5 -10 11 -10 5 0 7 5 4 10 -3 6 -8 10 -11 10 -2 0 -4 -4 -4 -10z"/><path d="M820 595 c0 -8 7 -15 15 -15 9 0 12 6 9 15 -4 8 -10 15 -15 15 -5 0 -9 -7 -9 -15z"/><path d="M1160 599 c0 -5 5 -7 10 -4 6 3 10 8 10 11 0 2 -4 4 -10 4 -5 0 -10 -5 -10 -11z"/><path d="M903 575 c-10 -10 -9 -16 2 -25 12 -10 16 -9 22 6 3 11 11 22 17 26 6 5 3 8 -9 7 -11 0 -25 -6 -32 -14z"/><path d="M1038 583 c6 -2 10 -9 6 -14 -7 -12 9 -12 22 0 5 5 23 11 39 14 17 2 5 4 -25 5 -30 0 -49 -2 -42 -5z"/><path d="M1198 453 c7 -3 16 -2 19 1 4 3 -2 6 -13 5 -11 0 -14 -3 -6 -6z"/><path d="M1325 453 c11 -3 27 -10 35 -17 13 -10 13 -9 1 7 -7 9 -23 16 -35 16 -20 -1 -20 -2 -1 -6z"/><path d="M802 430 c0 -14 2 -19 5 -12 2 6 2 18 0 25 -3 6 -5 1 -5 -13z"/><path d="M952 420 c7 -10 14 -18 15 -16 6 6 -9 36 -18 36 -5 0 -4 -9 3 -20z"/><path d="M846 422 c-2 -4 11 -6 30 -4 19 2 34 6 34 8 0 8 -59 4 -64 -4z"/><path d="M632 395 c0 -16 2 -22 5 -12 2 9 2 23 0 30 -3 6 -5 -1 -5 -18z"/><path d="M1244 390 c1 -21 6 -25 31 -26 27 -1 27 0 3 3 -18 3 -28 11 -31 26 -3 18 -4 18 -3 -3z"/><path d="M1076 397 c3 -10 9 -15 12 -12 3 3 0 11 -7 18 -10 9 -11 8 -5 -6z"/><path d="M858 393 c12 -2 30 -2 40 0 9 3 -1 5 -23 4 -22 0 -30 -2 -17 -4z"/><path d="M715 370 l-40 -7 37 -2 c20 0 40 4 43 9 3 6 5 9 3 9 -2 -1 -21 -5 -43 -9z"/><path d="M802 360 c0 -14 2 -19 5 -12 2 6 2 18 0 25 -3 6 -5 1 -5 -13z"/><path d="M836 343 c-6 -14 -5 -15 5 -6 7 7 10 15 7 18 -3 3 -9 -2 -12 -12z"/><path d="M1095 350 c3 -5 8 -10 11 -10 2 0 4 5 4 10 0 6 -5 10 -11 10 -5 0 -7 -4 -4 -10z"/></g><g transform="translate(0.000000,200.000000) scale(0.100000,-0.100000)" fill="#F2FFFF" stroke="none"><path d="M957 1914 c-8 -9 1 -24 14 -24 6 0 7 5 4 10 -4 6 7 10 25 10 18 0 29 -4 25 -10 -3 -5 -2 -10 4 -10 17 0 21 18 5 24 -21 8 -69 8 -77 0z"/><path d="M1104 1902 c3 -6 2 -13 -4 -17 -5 -3 -10 -1 -10 4 0 6 -4 11 -8 11 -17 0 -8 -26 9 -27 20 -2 33 23 17 33 -6 4 -8 3 -4 -4z"/><path d="M915 1890 c-4 -6 -11 -7 -17 -4 -7 4 -8 2 -4 -4 4 -7 4 -12 -1 -12 -13 0 -33 -51 -33 -82 0 -24 -4 -28 -29 -28 -17 0 -32 -3 -34 -7 -3 -5 11 -8 31 -8 32 0 37 4 40 25 6 49 23 88 41 93 10 2 18 12 18 21 0 19 -3 20 -12 6z"/><path d="M1105 1846 c11 -8 16 -19 12 -30 -4 -9 -3 -14 2 -11 6 3 11 -9 13 -26 3 -29 8 -34 57 -50 29 -9 57 -22 61 -29 4 -7 16 -10 26 -8 16 3 14 7 -13 23 -18 10 -30 22 -27 27 3 4 -10 8 -30 8 -49 0 -66 9 -66 36 0 34 -21 74 -39 74 -12 0 -11 -3 4 -14z"/><path d="M648 1803 c7 -3 16 -2 19 1 4 3 -2 6 -13 5 -11 0 -14 -3 -6 -6z"/><path d="M701 1710 c-18 -15 -19 -20 -7 -20 9 0 16 4 16 8 0 5 10 14 23 20 13 6 16 11 7 11 -8 0 -26 -9 -39 -19z"/><path d="M639 1669 l-24 -20 28 17 c15 9 27 18 27 20 0 8 -8 4 -31 -17z"/><path d="M1300 1685 c0 -3 18 -16 40 -30 123 -78 244 -252 265 -382 l6 -38 -23 28 c-13 15 -27 27 -31 27 -4 0 -17 9 -29 20 -12 11 -30 20 -40 20 -19 0 -24 -15 -8 -25 6 -3 10 -1 10 5 0 7 16 -2 35 -19 20 -17 39 -31 43 -31 4 0 16 -13 25 -30 24 -40 37 -38 37 6 0 62 -69 215 -134 296 -64 80 -196 183 -196 153z"/><path d="M559 1614 c-19 -14 -33 -29 -32 -34 1 -4 -12 -23 -30 -41 -18 -19 -36 -43 -40 -54 -5 -13 2 -9 23 13 16 18 30 37 30 41 0 5 22 29 50 55 54 50 54 61 -1 20z"/><path d="M790 1604 c-68 -31 -144 -91 -195 -153 -13 -16 -15 -22 -5 -17 8 4 5 -1 -7 -11 -32 -27 -73 -111 -73 -149 0 -19 -4 -34 -10 -34 -5 0 -9 -11 -8 -23 2 -22 4 -23 27 -11 15 8 29 10 36 4 14 -12 18 -70 5 -70 -5 0 -10 5 -10 10 0 6 -7 10 -16 10 -10 0 -14 -5 -10 -15 3 -9 -3 -20 -14 -27 -14 -9 -20 -24 -20 -51 0 -23 4 -36 10 -32 6 3 10 21 10 40 0 34 17 48 60 49 23 1 16 58 -10 95 -13 17 -27 31 -32 31 -4 0 -8 7 -8 15 0 8 5 15 10 15 6 0 10 7 10 16 0 21 50 114 62 114 4 0 8 6 8 14 0 36 158 165 223 181 15 4 27 11 27 16 0 14 -10 11 -70 -17z"/><path d="M423 1437 c-12 -13 -18 -28 -14 -35 5 -8 13 0 24 23 20 41 19 42 -10 12z"/><path d="M374 1306 c-6 -6 -8 -20 -4 -31 6 -17 8 -16 14 9 8 33 5 39 -10 22z"/><path d="M1490 1257 c0 -19 16 -31 24 -18 3 5 -1 14 -9 21 -12 10 -15 10 -15 -3z"/><path d="M580 1240 c6 -11 15 -20 20 -20 6 0 10 9 10 20 0 13 -7 20 -20 20 -18 0 -19 -3 -10 -20z"/><path d="M346 1226 c10 -34 20 -38 22 -8 1 20 -3 29 -13 29 -11 0 -13 -6 -9 -21z"/><path d="M664 1242 c4 -7 16 -12 27 -12 10 0 19 -5 19 -10 0 -6 17 -8 43 -5 23 3 36 2 30 -1 -7 -3 -13 -10 -13 -15 0 -12 41 -11 60 1 13 8 12 10 -2 10 -10 0 -18 7 -18 15 0 12 -11 15 -52 14 -29 -1 -64 1 -77 6 -17 6 -22 5 -17 -3z"/><path d="M1113 1155 c0 -38 2 -53 4 -32 2 20 2 52 0 70 -2 17 -4 1 -4 -38z"/><path d="M640 1200 c-17 -11 -17 -11 28 -13 28 -2 30 0 15 11 -20 14 -24 15 -43 2z"/><path d="M1501 1125 c-1 -39 -7 -95 -15 -125 -8 -30 -13 -57 -11 -58 5 -5 35 98 35 119 0 10 8 23 18 29 16 11 16 11 -2 6 -16 -5 -18 -2 -14 21 3 16 2 39 -2 53 -6 17 -8 3 -9 -45z"/><path d="M353 1135 c0 -27 2 -38 4 -22 2 15 2 37 0 50 -2 12 -4 0 -4 -28z"/><path d="M670 1165 c7 -8 17 -15 22 -15 6 0 5 7 -2 15 -7 8 -17 15 -22 15 -6 0 -5 -7 2 -15z"/><path d="M725 1164 c9 -9 14 -22 12 -28 -3 -7 3 -23 13 -36 l18 -23 16 31 c15 29 15 32 -1 40 -10 5 -24 7 -32 4 -8 -2 -11 0 -7 6 3 5 -1 13 -10 16 -25 9 -27 7 -9 -10z"/><path d="M710 1140 c0 -5 5 -10 10 -10 6 0 10 5 10 10 0 6 -4 10 -10 10 -5 0 -10 -4 -10 -10z"/><path d="M1555 1090 c-4 -6 8 -10 29 -10 20 0 36 5 36 10 0 6 -13 10 -29 10 -17 0 -33 -4 -36 -10z"/><path d="M1630 1050 c0 -32 1 -33 14 -14 8 10 11 21 8 24 -4 3 -10 9 -14 14 -5 5 -8 -6 -8 -24z"/><path d="M366 1030 c3 -25 6 -51 6 -57 2 -17 13 -16 28 2 10 12 10 15 -4 15 -8 0 -18 10 -20 23 -12 53 -15 59 -10 17z"/><path d="M483 1005 c0 -8 2 -13 5 -10 2 2 13 -6 23 -18 18 -22 18 -22 6 11 -12 33 -34 44 -34 17z"/><path d="M440 1000 c0 -5 7 -7 15 -4 8 4 15 8 15 10 0 2 -7 4 -15 4 -8 0 -15 -4 -15 -10z"/><path d="M1123 978 c-6 -7 -13 -25 -17 -40 -5 -22 -3 -25 14 -21 15 4 19 13 18 39 -1 38 -2 39 -15 22z"/><path d="M1606 933 c-10 -32 -20 -64 -23 -70 -2 -7 -1 -13 4 -13 9 0 46 130 40 137 -3 2 -12 -22 -21 -54z"/><path d="M1172 968 c3 -7 14 -17 27 -23 19 -9 22 -15 17 -48 -6 -33 -3 -39 19 -49 14 -6 27 -9 30 -7 2 3 0 27 -5 54 l-9 50 3 -48 c3 -39 1 -47 -11 -43 -8 3 -16 6 -19 6 -2 0 -1 19 2 43 6 44 -1 57 -39 70 -13 5 -17 3 -15 -5z"/><path d="M551 924 c13 -17 26 -30 28 -27 3 2 -8 16 -24 31 l-28 27 24 -31z"/><path d="M430 910 c18 -16 38 -30 43 -30 5 0 -5 14 -23 30 -18 17 -37 30 -43 30 -6 0 5 -13 23 -30z"/><path d="M1048 927 c-11 -9 -14 -18 -7 -28 7 -11 9 -11 9 4 0 10 4 16 9 13 5 -3 14 1 21 9 16 19 -7 20 -32 2z"/><path d="M1299 918 c-6 -19 -6 -39 0 -42 4 -3 8 6 9 20 1 13 0 24 -3 24 -3 0 -5 -1 -6 -2z"/><path d="M1120 900 c-9 -6 -10 -10 -3 -10 6 0 19 -3 27 -6 12 -5 15 -2 10 10 -7 18 -13 20 -34 6z"/><path d="M406 887 c3 -10 9 -15 12 -12 3 3 0 11 -7 18 -10 9 -11 8 -5 -6z"/><path d="M490 880 c0 -5 5 -10 11 -10 5 0 7 5 4 10 -3 6 -8 10 -11 10 -2 0 -4 -4 -4 -10z"/><path d="M603 875 c0 -17 6 -18 25 -6 11 7 10 10 -3 15 -22 8 -22 8 -22 -9z"/><path d="M1090 879 c0 -5 10 -9 22 -9 12 0 18 -3 15 -7 -4 -3 8 -16 25 -28 24 -16 35 -19 44 -11 9 8 4 12 -20 16 -17 3 -30 11 -29 17 1 6 -11 16 -27 22 -18 6 -30 6 -30 0z"/><path d="M1330 861 c0 -15 4 -31 10 -37 11 -11 2 -56 -10 -49 -4 3 -10 -7 -13 -21 l-4 -25 28 27 c31 30 38 59 15 67 -18 7 -15 52 4 52 9 0 14 -8 13 -20 -1 -19 -1 -19 11 -2 7 9 15 17 18 17 8 0 -4 -50 -13 -56 -5 -3 -9 -10 -9 -15 0 -14 21 10 42 47 16 28 16 30 0 31 -9 1 -34 4 -54 7 -36 4 -38 3 -38 -23z"/><path d="M528 863 c6 -2 18 -2 25 0 6 3 1 5 -13 5 -14 0 -19 -2 -12 -5z"/><path d="M420 851 c0 -6 4 -13 10 -16 6 -3 7 1 4 9 -7 18 -14 21 -14 7z"/><path d="M1302 840 c0 -14 2 -19 5 -12 2 6 2 18 0 25 -3 6 -5 1 -5 -13z"/><path d="M1275 830 c-3 -5 -1 -10 4 -10 6 0 11 5 11 10 0 6 -2 10 -4 10 -3 0 -8 -4 -11 -10z"/><path d="M1531 773 c-23 -34 -25 -40 -7 -20 14 15 29 27 33 27 5 0 9 9 9 20 0 11 -1 20 -1 20 -1 0 -16 -21 -34 -47z"/><path d="M466 773 c10 -18 22 -33 27 -33 4 0 5 -6 1 -12 -5 -10 -4 -10 5 -2 10 9 5 19 -20 45 l-32 34 19 -32z"/><path d="M1264 765 c11 -8 25 -15 30 -15 6 0 2 7 -8 15 -11 8 -25 15 -30 15 -6 0 -2 -7 8 -15z"/><path d="M1479 703 c-8 -10 -33 -33 -54 -50 -21 -18 -34 -33 -28 -33 5 0 19 9 30 19 12 11 22 19 24 18 2 -1 3 0 1 2 -1 3 7 10 19 17 13 6 24 19 25 28 3 20 2 20 -17 -1z"/><path d="M1395 700 c-3 -5 -1 -10 4 -10 6 0 11 5 11 10 0 6 -2 10 -4 10 -3 0 -8 -4 -11 -10z"/><path d="M490 690 c-9 -6 -10 -10 -3 -10 6 0 15 5 18 10 8 12 4 12 -15 0z"/><path d="M543 675 c0 -8 3 -13 5 -10 3 3 12 -1 21 -7 10 -8 9 -4 -3 10 -23 26 -23 26 -23 7z"/><path d="M625 610 c17 -20 40 -36 53 -37 13 0 32 -9 42 -18 10 -9 25 -15 32 -12 9 4 8 6 -3 6 -9 1 -22 7 -28 15 -7 8 -24 17 -39 21 -15 3 -40 18 -57 33 l-29 27 29 -35z"/><path d="M1175 600 c-3 -5 -1 -10 4 -10 6 0 11 5 11 10 0 6 -2 10 -4 10 -3 0 -8 -4 -11 -10z"/><path d="M1295 569 c-35 -22 -26 -25 14 -4 16 8 31 12 34 9 3 -3 8 -1 12 5 10 18 -27 11 -60 -10z"/><path d="M1235 540 c-19 -8 -19 -9 3 -9 12 -1 22 4 22 9 0 6 -1 10 -2 9 -2 0 -12 -4 -23 -9z"/><path d="M778 528 c5 -5 16 -8 23 -6 8 3 3 7 -10 11 -17 4 -21 3 -13 -5z"/><path d="M1160 520 c-20 -6 -21 -8 -5 -8 11 0 29 3 40 8 25 11 -1 11 -35 0z"/><path d="M878 503 c6 -2 18 -2 25 0 6 3 1 5 -13 5 -14 0 -19 -2 -12 -5z"/><path d="M1005 500 c-44 -3 -64 -7 -45 -8 33 -3 34 -3 16 -17 -11 -9 -14 -15 -7 -15 20 0 41 -27 41 -54 0 -34 17 -42 23 -9 4 19 -2 31 -21 48 -32 27 -22 45 25 45 27 0 34 -3 29 -15 -4 -11 1 -15 18 -15 13 0 23 6 23 14 0 8 -6 12 -14 9 -7 -3 -13 -2 -13 1 0 4 10 11 23 16 25 10 30 10 -98 0z"/><path d="M1160 489 c0 -5 5 -7 10 -4 6 3 10 8 10 11 0 2 -4 4 -10 4 -5 0 -10 -5 -10 -11z"/><path d="M710 470 c-33 -6 -32 -6 18 -11 28 -2 52 -3 52 -2 0 10 -42 18 -70 13z"/><path d="M810 465 c-6 -8 2 -10 28 -7 56 5 61 9 19 14 -21 2 -42 -1 -47 -7z"/><path d="M1160 460 c-8 -5 -12 -12 -9 -15 4 -3 12 1 19 10 14 17 11 19 -10 5z"/><path d="M935 450 c3 -5 8 -10 11 -10 2 0 4 5 4 10 0 6 -5 10 -11 10 -5 0 -7 -4 -4 -10z"/><path d="M1358 450 c6 -8 12 -24 12 -37 0 -13 4 -23 9 -23 14 0 0 48 -18 62 -13 10 -14 10 -3 -2z"/><path d="M631 434 c0 -11 3 -14 6 -6 3 7 2 16 -1 19 -3 4 -6 -2 -5 -13z"/><path d="M790 424 c0 -13 -7 -15 -32 -10 -31 6 -31 6 -13 -9 11 -8 14 -14 6 -13 -7 2 -15 -3 -16 -10 -2 -7 -1 -9 1 -4 8 15 53 1 57 -17 3 -9 5 5 6 32 0 26 -1 47 -4 47 -3 0 -5 -7 -5 -16z"/><path d="M1110 425 c0 -23 16 -52 25 -44 3 3 -1 19 -10 35 -12 23 -15 25 -15 9z"/><path d="M1135 420 c-3 -5 -1 -10 4 -10 6 0 11 5 11 10 0 6 -2 10 -4 10 -3 0 -8 -4 -11 -10z"/><path d="M1187 408 c-4 -12 -2 -25 2 -28 5 -3 11 -16 12 -30 3 -18 11 -25 29 -27 22 -1 22 -1 3 4 -20 4 -23 11 -23 48 0 48 -14 68 -23 33z"/><path d="M681 393 c0 -25 1 -26 9 -8 12 27 12 35 0 35 -5 0 -10 -12 -9 -27z"/><path d="M860 412 c0 -10 36 -9 46 1 4 4 -5 7 -19 7 -15 0 -27 -4 -27 -8z"/><path d="M950 407 c0 -10 7 -25 15 -33 19 -19 19 -7 0 26 -11 20 -14 21 -15 7z"/><path d="M1310 413 c5 -2 10 -11 10 -19 0 -18 -56 -19 -63 -1 -3 7 -6 4 -6 -6 -1 -15 6 -18 37 -15 29 2 37 7 37 22 0 11 -6 20 -13 22 -7 1 -8 0 -2 -3z"/><path d="M1068 376 c-3 -14 -1 -23 3 -20 5 3 9 1 9 -4 0 -6 6 -12 14 -15 11 -4 11 0 -2 26 -8 18 -16 33 -17 35 -2 2 -5 -8 -7 -22z"/><path d="M630 356 c0 -8 4 -17 9 -20 5 -4 7 3 4 14 -6 23 -13 26 -13 6z"/><path d="M890 361 l-45 -7 38 -5 c24 -3 45 0 55 8 9 7 13 12 7 11 -5 0 -30 -4 -55 -7z"/><path d="M1366 355 c-3 -8 -16 -20 -28 -25 -21 -8 -21 -9 -3 -9 19 -1 52 35 42 45 -3 3 -7 -2 -11 -11z"/><path d="M678 323 c6 -2 18 -2 25 0 6 3 1 5 -13 5 -14 0 -19 -2 -12 -5z"/><path d="M738 323 c7 -3 16 -2 19 1 4 3 -2 6 -13 5 -11 0 -14 -3 -6 -6z"/></g><g transform="translate(0.000000,200.000000) scale(0.100000,-0.100000)" fill="#FFFFFF" stroke="none"><path d="M0 1000 l0 -1000 1000 0 1000 0 0 1000 0 1000 -1000 0 -1000 0 0 -1000z m1050 908 c22 -7 40 -17 40 -21 0 -5 5 -5 10 -2 6 4 7 11 4 17 -4 7 -2 8 4 4 6 -4 9 -13 6 -20 -3 -8 2 -28 10 -45 9 -16 16 -41 16 -54 0 -28 16 -37 67 -37 20 0 33 -3 30 -7 -8 -7 56 -53 75 -53 23 -1 136 -98 184 -158 65 -81 134 -234 134 -296 0 -44 -13 -46 -37 -6 -9 17 -21 30 -25 30 -4 0 -23 14 -42 30 -27 24 -35 27 -40 15 -3 -8 -1 -15 5 -15 6 0 8 -4 5 -9 -3 -5 1 -14 9 -21 12 -10 13 -16 4 -26 -8 -10 -9 -25 -1 -53 5 -22 7 -51 5 -64 -5 -24 -3 -24 46 -20 43 3 55 0 74 -19 20 -20 22 -26 11 -48 -7 -14 -21 -60 -30 -102 -10 -43 -22 -78 -28 -78 -5 0 -7 -3 -3 -6 3 -4 -1 -13 -9 -21 -8 -9 -13 -22 -10 -29 3 -8 0 -14 -7 -15 -15 0 -60 -57 -60 -76 0 -8 -13 -21 -29 -29 -15 -8 -28 -18 -28 -23 0 -5 -16 -16 -35 -25 -19 -9 -39 -26 -45 -36 -6 -11 -14 -19 -18 -18 -8 3 -75 -23 -82 -32 -5 -5 -68 -22 -137 -35 -18 -4 -36 -11 -40 -17 -4 -7 0 -9 10 -5 9 3 16 3 15 -1 -4 -14 14 -72 23 -78 5 -3 9 -2 8 3 -3 10 12 47 22 53 14 10 190 2 203 -9 16 -14 27 -61 14 -61 -5 0 -7 -8 -4 -17 11 -36 -14 -49 -94 -48 -74 0 -75 0 -78 28 -4 34 -18 35 -26 2 -5 -21 -12 -25 -40 -25 -19 0 -41 7 -50 15 -13 13 -16 13 -23 1 -13 -23 -83 -26 -83 -3 0 6 -5 19 -10 27 -8 13 -11 12 -24 -5 -10 -14 -24 -19 -50 -17 -23 2 -43 -3 -52 -13 -10 -10 -21 -12 -32 -6 -9 5 -26 5 -37 0 -28 -11 -89 -11 -119 1 -24 9 -26 15 -26 65 0 32 4 55 11 55 5 0 7 5 3 12 -4 6 -3 8 3 5 6 -4 32 -3 57 2 38 7 50 5 69 -9 22 -18 24 -18 34 -1 10 16 18 17 72 8 40 -6 69 -6 83 0 18 8 26 5 44 -16 l22 -26 21 25 c11 14 20 28 21 32 0 4 -26 7 -57 7 -32 0 -80 5 -108 11 -27 6 -67 13 -88 17 -21 3 -40 10 -43 14 -3 5 -12 9 -21 9 -9 0 -24 7 -33 15 -9 8 -26 16 -38 17 -13 2 -45 25 -73 51 -28 27 -55 45 -61 41 -6 -4 -8 -3 -4 4 3 6 -2 15 -11 21 -10 6 -14 11 -10 11 4 0 -7 15 -25 34 -55 57 -120 206 -89 206 6 0 22 -12 36 -26 14 -14 31 -27 38 -28 7 -1 17 -4 22 -8 22 -13 93 -19 100 -8 4 7 -1 13 -11 16 -11 3 -39 32 -64 65 -31 41 -49 57 -60 53 -8 -4 -25 -9 -37 -11 -12 -3 -28 -11 -34 -19 -14 -17 -25 -18 -27 -1 0 6 -6 43 -12 82 -6 38 -10 87 -8 110 1 22 -2 50 -6 63 -5 16 -4 22 6 20 8 -2 13 7 13 22 0 14 6 31 12 38 16 16 36 89 28 102 -3 5 1 13 10 17 8 5 23 24 33 43 10 19 32 50 49 69 18 19 30 38 28 42 -5 6 40 40 148 111 23 15 48 30 55 33 25 10 47 18 54 19 3 1 10 4 14 9 4 4 20 7 36 7 24 0 28 4 28 28 0 31 20 82 33 82 5 0 5 5 1 12 -4 6 -3 9 2 6 5 -3 23 3 39 13 36 21 63 23 115 7z m-383 -104 c-3 -3 -12 -4 -19 -1 -8 3 -5 6 6 6 11 1 17 -2 13 -5z m-162 -1114 c-3 -5 -12 -10 -18 -10 -7 0 -6 4 3 10 19 12 23 12 15 0z m675 -194 c0 -3 -4 -8 -10 -11 -5 -3 -10 -1 -10 4 0 6 5 11 10 11 6 0 10 -2 10 -4z"/><path d="M498 1218 c-9 -25 -9 -108 -1 -108 16 0 32 22 26 36 -3 9 2 14 17 14 11 0 18 -4 15 -10 -3 -5 -1 -10 5 -10 13 0 11 48 -3 67 -5 6 -15 9 -24 6 -8 -3 -18 0 -23 6 -6 10 -8 10 -12 -1z"/><path d="M735 1149 c-11 -16 -1 -19 13 -3 7 8 8 14 3 14 -5 0 -13 -5 -16 -11z"/><path d="M1175 919 c7 -38 7 -38 -26 -34 -31 4 -54 15 -31 15 7 0 12 5 12 11 0 6 -6 9 -14 6 -8 -3 -17 -1 -19 6 -3 9 -7 9 -19 0 -8 -7 -18 -10 -21 -6 -4 3 -7 -1 -7 -10 0 -9 7 -18 15 -18 8 -1 20 -3 25 -4 6 -1 18 -3 28 -4 15 -1 15 -3 2 -12 -12 -8 -10 -9 8 -4 16 5 22 3 20 -7 -2 -8 9 -14 31 -16 24 -2 30 -6 21 -12 -18 -11 3 -32 49 -48 19 -7 43 -20 53 -29 17 -15 18 -15 18 6 0 12 4 19 10 16 17 -10 11 5 -10 28 -15 16 -20 31 -17 54 3 18 1 36 -4 39 -5 3 -7 9 -4 14 3 4 -5 10 -16 13 -20 5 -21 3 -15 -39 6 -46 0 -52 -35 -34 -16 9 -18 18 -13 50 5 33 4 40 -10 40 -10 0 -15 4 -12 8 3 5 -2 9 -10 9 -12 0 -14 -8 -9 -38z m115 -89 c0 -5 -5 -10 -11 -10 -5 0 -7 5 -4 10 3 6 8 10 11 10 2 0 4 -4 4 -10z"/><path d="M1344 858 c1 -17 7 -33 14 -36 6 -2 12 -11 12 -20 0 -14 2 -13 13 3 15 22 28 65 20 65 -3 0 -12 -8 -19 -17 -12 -16 -13 -16 -8 -1 3 10 -2 20 -14 27 -17 9 -19 7 -18 -21z"/><path d="M696 403 c-3 -8 -6 -19 -6 -24 0 -16 32 -10 46 9 13 16 14 16 8 -3 -5 -16 -4 -17 5 -5 12 17 3 29 -26 35 -13 2 -24 -3 -27 -12z"/><path d="M1257 414 c-3 -3 -3 -12 0 -20 7 -19 63 -19 63 0 0 20 -47 35 -63 20z"/></g></svg>