<svg version="1.0" xmlns="http://www.w3.org/2000/svg" width="512.000000" height="512.000000" viewBox="0 0 512.000000 512.000000" preserveAspectRatio="xMidYMid meet"><rect x="203" y="95" width="13" height="13" fill="rgb(116,123,157)" /><rect x="215" y="95" width="13" height="13" fill="rgb(175,139,133)" /><rect x="227" y="95" width="13" height="13" fill="rgb(194,124,92)" /><rect x="239" y="95" width="13" height="13" fill="rgb(193,105,62)" /><rect x="251" y="95" width="13" height="13" fill="rgb(196,100,50)" /><rect x="263" y="95" width="13" height="13" fill="rgb(194,105,62)" /><rect x="275" y="95" width="13" height="13" fill="rgb(193,124,92)" /><rect x="287" y="95" width="13" height="13" fill="rgb(171,136,131)" /><rect x="299" y="95" width="13" height="13" fill="rgb(111,119,154)" /><rect x="179" y="107" width="13" height="13" fill="rgb(130,134,163)" /><rect x="191" y="107" width="13" height="13" fill="rgb(184,122,97)" /><rect x="203" y="107" width="13" height="13" fill="rgb(226,99,23)" /><rect x="215" y="107" width="13" height="13" fill="rgb(254,108,14)" /><rect x="227" y="107" width="13" height="13" fill="rgb(254,108,14)" /><rect x="239" y="107" width="13" height="13" fill="rgb(254,108,14)" /><rect x="251" y="107" width="13" height="13" fill="rgb(254,108,14)" /><rect x="263" y="107" width="13" height="13" fill="rgb(254,108,14)" /><rect x="275" y="107" width="13" height="13" fill="rgb(254,108,14)" /><rect x="287" y="107" width="13" height="13" fill="rgb(254,108,14)" /><rect x="299" y="107" width="13" height="13" fill="rgb(226,99,23)" /><rect x="311" y="107" width="13" height="13" fill="rgb(181,120,97)" /><rect x="323" y="107" width="13" height="13" fill="rgb(121,126,157)" /><rect x="167" y="119" width="13" height="13" fill="rgb(159,139,147)" /><rect x="179" y="119" width="13" height="13" fill="rgb(218,100,32)" /><rect x="191" y="119" width="13" height="13" fill="rgb(254,108,14)" /><rect x="203" y="119" width="13" height="13" fill="rgb(254,108,14)" /><rect x="215" y="119" width="13" height="13" fill="rgb(254,108,14)" /><rect x="227" y="119" width="13" height="13" fill="rgb(254,108,14)" /><rect x="239" y="119" width="13" height="13" fill="rgb(254,108,14)" /><rect x="251" y="119" width="13" height="13" fill="rgb(254,108,14)" /><rect x="263" y="119" width="13" height="13" fill="rgb(254,108,14)" /><rect x="275" y="119" width="13" height="13" fill="rgb(254,108,14)" /><rect x="287" y="119" width="13" height="13" fill="rgb(254,108,14)" /><rect x="299" y="119" width="13" height="13" fill="rgb(254,108,14)" /><rect x="311" y="119" width="13" height="13" fill="rgb(254,108,14)" /><rect x="323" y="119" width="13" height="13" fill="rgb(217,100,33)" /><rect x="335" y="119" width="13" height="13" fill="rgb(153,134,143)" /><rect x="155" y="131" width="13" height="13" fill="rgb(161,136,139)" /><rect x="167" y="131" width="13" height="13" fill="rgb(234,101,20)" /><rect x="179" y="131" width="13" height="13" fill="rgb(254,108,14)" /><rect x="191" y="131" width="13" height="13" fill="rgb(254,108,14)" /><rect x="203" y="131" width="13" height="13" fill="rgb(254,108,14)" /><rect x="215" y="131" width="13" height="13" fill="rgb(254,108,14)" /><rect x="227" y="131" width="13" height="13" fill="rgb(254,108,14)" /><rect x="239" y="131" width="13" height="13" fill="rgb(254,108,14)" /><rect x="251" y="131" width="13" height="13" fill="rgb(254,108,14)" /><rect x="263" y="131" width="13" height="13" fill="rgb(254,108,14)" /><rect x="275" y="131" width="13" height="13" fill="rgb(254,108,14)" /><rect x="287" y="131" width="13" height="13" fill="rgb(254,108,14)" /><rect x="299" y="131" width="13" height="13" fill="rgb(254,108,14)" /><rect x="311" y="131" width="13" height="13" fill="rgb(254,108,14)" /><rect x="323" y="131" width="13" height="13" fill="rgb(254,108,14)" /><rect x="335" y="131" width="13" height="13" fill="rgb(235,101,20)" /><rect x="347" y="131" width="13" height="13" fill="rgb(155,130,135)" /><rect x="143" y="143" width="13" height="13" fill="rgb(155,144,157)" /><rect x="155" y="143" width="13" height="13" fill="rgb(230,101,23)" /><rect x="167" y="143" width="13" height="13" fill="rgb(254,108,14)" /><rect x="179" y="143" width="13" height="13" fill="rgb(254,108,14)" /><rect x="191" y="143" width="13" height="13" fill="rgb(254,108,14)" /><rect x="203" y="143" width="13" height="13" fill="rgb(254,108,14)" /><rect x="215" y="143" width="13" height="13" fill="rgb(254,108,14)" /><rect x="227" y="143" width="13" height="13" fill="rgb(254,108,14)" /><rect x="239" y="143" width="13" height="13" fill="rgb(254,108,14)" /><rect x="251" y="143" width="13" height="13" fill="rgb(254,108,14)" /><rect x="263" y="143" width="13" height="13" fill="rgb(254,108,14)" /><rect x="275" y="143" width="13" height="13" fill="rgb(254,108,14)" /><rect x="287" y="143" width="13" height="13" fill="rgb(254,108,14)" /><rect x="299" y="143" width="13" height="13" fill="rgb(254,108,14)" /><rect x="311" y="143" width="13" height="13" fill="rgb(254,108,14)" /><rect x="323" y="143" width="13" height="13" fill="rgb(254,108,14)" /><rect x="335" y="143" width="13" height="13" fill="rgb(254,108,14)" /><rect x="347" y="143" width="13" height="13" fill="rgb(230,101,23)" /><rect x="359" y="143" width="13" height="13" fill="rgb(142,132,150)" /><rect x="143" y="155" width="13" height="13" fill="rgb(199,101,50)" /><rect x="155" y="155" width="13" height="13" fill="rgb(254,108,14)" /><rect x="167" y="155" width="13" height="13" fill="rgb(254,108,14)" /><rect x="179" y="155" width="13" height="13" fill="rgb(254,108,14)" /><rect x="191" y="155" width="13" height="13" fill="rgb(254,108,14)" /><rect x="203" y="155" width="13" height="13" fill="rgb(254,108,14)" /><rect x="215" y="155" width="13" height="13" fill="rgb(254,108,14)" /><rect x="227" y="155" width="13" height="13" fill="rgb(254,108,14)" /><rect x="239" y="155" width="13" height="13" fill="rgb(254,108,14)" /><rect x="251" y="155" width="13" height="13" fill="rgb(254,108,14)" /><rect x="263" y="155" width="13" height="13" fill="rgb(254,108,14)" /><rect x="275" y="155" width="13" height="13" fill="rgb(254,108,14)" /><rect x="287" y="155" width="13" height="13" fill="rgb(254,108,14)" /><rect x="299" y="155" width="13" height="13" fill="rgb(254,108,14)" /><rect x="311" y="155" width="13" height="13" fill="rgb(254,108,14)" /><rect x="323" y="155" width="13" height="13" fill="rgb(254,108,14)" /><rect x="335" y="155" width="13" height="13" fill="rgb(254,108,14)" /><rect x="347" y="155" width="13" height="13" fill="rgb(254,108,14)" /><rect x="359" y="155" width="13" height="13" fill="rgb(200,102,50)" /><rect x="131" y="167" width="13" height="13" fill="rgb(173,140,135)" /><rect x="143" y="167" width="13" height="13" fill="rgb(253,108,14)" /><rect x="155" y="167" width="13" height="13" fill="rgb(254,108,14)" /><rect x="167" y="167" width="13" height="13" fill="rgb(254,108,14)" /><rect x="179" y="167" width="13" height="13" fill="rgb(254,108,14)" /><rect x="191" y="167" width="13" height="13" fill="rgb(254,108,14)" /><rect x="203" y="167" width="13" height="13" fill="rgb(254,108,14)" /><rect x="215" y="167" width="13" height="13" fill="rgb(254,108,14)" /><rect x="227" y="167" width="13" height="13" fill="rgb(254,108,14)" /><rect x="239" y="167" width="13" height="13" fill="rgb(254,108,14)" /><rect x="251" y="167" width="13" height="13" fill="rgb(254,108,14)" /><rect x="263" y="167" width="13" height="13" fill="rgb(254,108,14)" /><rect x="275" y="167" width="13" height="13" fill="rgb(254,108,14)" /><rect x="287" y="167" width="13" height="13" fill="rgb(254,108,14)" /><rect x="299" y="167" width="13" height="13" fill="rgb(254,108,14)" /><rect x="311" y="167" width="13" height="13" fill="rgb(254,108,14)" /><rect x="323" y="167" width="13" height="13" fill="rgb(254,108,14)" /><rect x="335" y="167" width="13" height="13" fill="rgb(254,108,14)" /><rect x="347" y="167" width="13" height="13" fill="rgb(254,108,14)" /><rect x="359" y="167" width="13" height="13" fill="rgb(253,107,14)" /><rect x="371" y="167" width="13" height="13" fill="rgb(161,130,130)" /><rect x="131" y="179" width="13" height="13" fill="rgb(193,102,56)" /><rect x="143" y="179" width="13" height="13" fill="rgb(254,108,14)" /><rect x="155" y="179" width="13" height="13" fill="rgb(254,108,14)" /><rect x="167" y="179" width="13" height="13" fill="rgb(254,108,14)" /><rect x="179" y="179" width="13" height="13" fill="rgb(254,108,14)" /><rect x="191" y="179" width="13" height="13" fill="rgb(254,108,14)" /><rect x="203" y="179" width="13" height="13" fill="rgb(254,108,14)" /><rect x="215" y="179" width="13" height="13" fill="rgb(254,108,14)" /><rect x="227" y="179" width="13" height="13" fill="rgb(254,108,14)" /><rect x="239" y="179" width="13" height="13" fill="rgb(254,108,14)" /><rect x="251" y="179" width="13" height="13" fill="rgb(254,108,14)" /><rect x="263" y="179" width="13" height="13" fill="rgb(254,108,14)" /><rect x="275" y="179" width="13" height="13" fill="rgb(254,108,14)" /><rect x="287" y="179" width="13" height="13" fill="rgb(244,104,17)" /><rect x="299" y="179" width="13" height="13" fill="rgb(243,104,17)" /><rect x="311" y="179" width="13" height="13" fill="rgb(243,104,17)" /><rect x="323" y="179" width="13" height="13" fill="rgb(243,104,17)" /><rect x="335" y="179" width="13" height="13" fill="rgb(243,104,17)" /><rect x="347" y="179" width="13" height="13" fill="rgb(243,104,17)" /><rect x="359" y="179" width="13" height="13" fill="rgb(243,104,17)" /><rect x="371" y="179" width="13" height="13" fill="rgb(181,98,61)" /><rect x="119" y="191" width="13" height="13" fill="rgb(109,121,160)" /><rect x="131" y="191" width="13" height="13" fill="rgb(16,27,85)" /><rect x="143" y="191" width="13" height="13" fill="rgb(41,48,98)" /><rect x="155" y="191" width="13" height="13" fill="rgb(36,44,95)" /><rect x="167" y="191" width="13" height="13" fill="rgb(54,60,106)" /><rect x="179" y="191" width="13" height="13" fill="rgb(52,58,105)" /><rect x="191" y="191" width="13" height="13" fill="rgb(19,28,84)" /><rect x="203" y="191" width="13" height="13" fill="rgb(19,28,84)" /><rect x="215" y="191" width="13" height="13" fill="rgb(19,28,84)" /><rect x="227" y="191" width="13" height="13" fill="rgb(19,28,84)" /><rect x="239" y="191" width="13" height="13" fill="rgb(19,28,84)" /><rect x="251" y="191" width="13" height="13" fill="rgb(19,28,84)" /><rect x="263" y="191" width="13" height="13" fill="rgb(19,28,84)" /><rect x="275" y="191" width="13" height="13" fill="rgb(19,29,84)" /><rect x="287" y="191" width="13" height="13" fill="rgb(21,35,94)" /><rect x="299" y="191" width="13" height="13" fill="rgb(19,35,95)" /><rect x="311" y="191" width="13" height="13" fill="rgb(8,24,88)" /><rect x="323" y="191" width="13" height="13" fill="rgb(8,24,88)" /><rect x="335" y="191" width="13" height="13" fill="rgb(8,24,88)" /><rect x="347" y="191" width="13" height="13" fill="rgb(8,24,88)" /><rect x="359" y="191" width="13" height="13" fill="rgb(8,24,88)" /><rect x="371" y="191" width="13" height="13" fill="rgb(6,24,88)" /><rect x="383" y="191" width="13" height="13" fill="rgb(91,106,149)" /><rect x="119" y="203" width="13" height="13" fill="rgb(108,120,160)" /><rect x="131" y="203" width="13" height="13" fill="rgb(54,72,125)" /><rect x="143" y="203" width="13" height="13" fill="rgb(121,133,168)" /><rect x="155" y="203" width="13" height="13" fill="rgb(135,145,177)" /><rect x="167" y="203" width="13" height="13" fill="rgb(182,188,208)" /><rect x="179" y="203" width="13" height="13" fill="rgb(184,190,209)" /><rect x="191" y="203" width="13" height="13" fill="rgb(114,126,164)" /><rect x="203" y="203" width="13" height="13" fill="rgb(92,106,149)" /><rect x="215" y="203" width="13" height="13" fill="rgb(92,106,149)" /><rect x="227" y="203" width="13" height="13" fill="rgb(92,106,149)" /><rect x="239" y="203" width="13" height="13" fill="rgb(92,106,149)" /><rect x="251" y="203" width="13" height="13" fill="rgb(60,77,129)" /><rect x="263" y="203" width="13" height="13" fill="rgb(91,105,149)" /><rect x="275" y="203" width="13" height="13" fill="rgb(53,70,124)" /><rect x="287" y="203" width="13" height="13" fill="rgb(173,180,202)" /><rect x="299" y="203" width="13" height="13" fill="rgb(134,144,177)" /><rect x="311" y="203" width="13" height="13" fill="rgb(90,105,148)" /><rect x="323" y="203" width="13" height="13" fill="rgb(89,103,147)" /><rect x="335" y="203" width="13" height="13" fill="rgb(90,104,148)" /><rect x="347" y="203" width="13" height="13" fill="rgb(86,101,146)" /><rect x="359" y="203" width="13" height="13" fill="rgb(91,105,149)" /><rect x="371" y="203" width="13" height="13" fill="rgb(58,75,128)" /><rect x="383" y="203" width="13" height="13" fill="rgb(90,104,148)" /><rect x="119" y="215" width="13" height="13" fill="rgb(107,119,159)" /><rect x="131" y="215" width="13" height="13" fill="rgb(93,107,150)" /><rect x="143" y="215" width="13" height="13" fill="rgb(162,170,194)" /><rect x="155" y="215" width="13" height="13" fill="rgb(127,138,172)" /><rect x="167" y="215" width="13" height="13" fill="rgb(128,139,173)" /><rect x="179" y="215" width="13" height="13" fill="rgb(165,172,196)" /><rect x="191" y="215" width="13" height="13" fill="rgb(100,113,155)" /><rect x="203" y="215" width="13" height="13" fill="rgb(151,160,187)" /><rect x="215" y="215" width="13" height="13" fill="rgb(152,161,188)" /><rect x="227" y="215" width="13" height="13" fill="rgb(68,84,134)" /><rect x="239" y="215" width="13" height="13" fill="rgb(132,142,175)" /><rect x="251" y="215" width="13" height="13" fill="rgb(101,114,155)" /><rect x="263" y="215" width="13" height="13" fill="rgb(140,150,181)" /><rect x="275" y="215" width="13" height="13" fill="rgb(157,166,192)" /><rect x="287" y="215" width="13" height="13" fill="rgb(155,163,190)" /><rect x="299" y="215" width="13" height="13" fill="rgb(135,146,177)" /><rect x="311" y="215" width="13" height="13" fill="rgb(145,155,184)" /><rect x="323" y="215" width="13" height="13" fill="rgb(131,142,175)" /><rect x="335" y="215" width="13" height="13" fill="rgb(87,102,146)" /><rect x="347" y="215" width="13" height="13" fill="rgb(149,158,186)" /><rect x="359" y="215" width="13" height="13" fill="rgb(166,173,197)" /><rect x="371" y="215" width="13" height="13" fill="rgb(60,76,128)" /><rect x="383" y="215" width="13" height="13" fill="rgb(88,103,147)" /><rect x="119" y="227" width="13" height="13" fill="rgb(107,120,159)" /><rect x="131" y="227" width="13" height="13" fill="rgb(92,106,150)" /><rect x="143" y="227" width="13" height="13" fill="rgb(139,149,180)" /><rect x="155" y="227" width="13" height="13" fill="rgb(132,143,175)" /><rect x="167" y="227" width="13" height="13" fill="rgb(106,119,158)" /><rect x="179" y="227" width="13" height="13" fill="rgb(110,122,161)" /><rect x="191" y="227" width="13" height="13" fill="rgb(135,146,177)" /><rect x="203" y="227" width="13" height="13" fill="rgb(159,167,193)" /><rect x="215" y="227" width="13" height="13" fill="rgb(184,190,209)" /><rect x="227" y="227" width="13" height="13" fill="rgb(101,115,155)" /><rect x="239" y="227" width="13" height="13" fill="rgb(126,137,172)" /><rect x="251" y="227" width="13" height="13" fill="rgb(110,122,161)" /><rect x="263" y="227" width="13" height="13" fill="rgb(104,117,157)" /><rect x="275" y="227" width="13" height="13" fill="rgb(138,148,179)" /><rect x="287" y="227" width="13" height="13" fill="rgb(150,159,187)" /><rect x="299" y="227" width="13" height="13" fill="rgb(135,146,178)" /><rect x="311" y="227" width="13" height="13" fill="rgb(156,165,191)" /><rect x="323" y="227" width="13" height="13" fill="rgb(184,190,209)" /><rect x="335" y="227" width="13" height="13" fill="rgb(142,152,182)" /><rect x="347" y="227" width="13" height="13" fill="rgb(100,113,154)" /><rect x="359" y="227" width="13" height="13" fill="rgb(161,169,194)" /><rect x="371" y="227" width="13" height="13" fill="rgb(53,70,124)" /><rect x="383" y="227" width="13" height="13" fill="rgb(87,101,146)" /><rect x="119" y="239" width="13" height="13" fill="rgb(107,120,159)" /><rect x="131" y="239" width="13" height="13" fill="rgb(108,121,160)" /><rect x="143" y="239" width="13" height="13" fill="rgb(190,196,213)" /><rect x="155" y="239" width="13" height="13" fill="rgb(74,90,138)" /><rect x="167" y="239" width="13" height="13" fill="rgb(64,81,132)" /><rect x="179" y="239" width="13" height="13" fill="rgb(116,128,165)" /><rect x="191" y="239" width="13" height="13" fill="rgb(53,71,124)" /><rect x="203" y="239" width="13" height="13" fill="rgb(7,28,94)" /><rect x="215" y="239" width="13" height="13" fill="rgb(76,91,139)" /><rect x="227" y="239" width="13" height="13" fill="rgb(0,22,90)" /><rect x="239" y="239" width="13" height="13" fill="rgb(45,63,119)" /><rect x="251" y="239" width="13" height="13" fill="rgb(61,78,130)" /><rect x="263" y="239" width="13" height="13" fill="rgb(114,126,163)" /><rect x="275" y="239" width="13" height="13" fill="rgb(42,60,117)" /><rect x="287" y="239" width="13" height="13" fill="rgb(83,98,144)" /><rect x="299" y="239" width="13" height="13" fill="rgb(68,84,134)" /><rect x="311" y="239" width="13" height="13" fill="rgb(0,22,90)" /><rect x="323" y="239" width="13" height="13" fill="rgb(70,86,135)" /><rect x="335" y="239" width="13" height="13" fill="rgb(35,54,113)" /><rect x="347" y="239" width="13" height="13" fill="rgb(39,58,115)" /><rect x="359" y="239" width="13" height="13" fill="rgb(54,71,125)" /><rect x="371" y="239" width="13" height="13" fill="rgb(29,49,109)" /><rect x="383" y="239" width="13" height="13" fill="rgb(81,96,143)" /><rect x="119" y="251" width="13" height="13" fill="rgb(106,119,158)" /><rect x="131" y="251" width="13" height="13" fill="rgb(7,24,88)" /><rect x="143" y="251" width="13" height="13" fill="rgb(42,55,110)" /><rect x="155" y="251" width="13" height="13" fill="rgb(8,24,88)" /><rect x="167" y="251" width="13" height="13" fill="rgb(8,24,88)" /><rect x="179" y="251" width="13" height="13" fill="rgb(8,24,88)" /><rect x="191" y="251" width="13" height="13" fill="rgb(1,22,90)" /><rect x="203" y="251" width="13" height="13" fill="rgb(0,22,90)" /><rect x="215" y="251" width="13" height="13" fill="rgb(0,22,90)" /><rect x="227" y="251" width="13" height="13" fill="rgb(0,22,90)" /><rect x="239" y="251" width="13" height="13" fill="rgb(0,22,90)" /><rect x="251" y="251" width="13" height="13" fill="rgb(0,22,90)" /><rect x="263" y="251" width="13" height="13" fill="rgb(0,22,90)" /><rect x="275" y="251" width="13" height="13" fill="rgb(0,22,90)" /><rect x="287" y="251" width="13" height="13" fill="rgb(0,22,90)" /><rect x="299" y="251" width="13" height="13" fill="rgb(0,22,90)" /><rect x="311" y="251" width="13" height="13" fill="rgb(0,22,90)" /><rect x="323" y="251" width="13" height="13" fill="rgb(0,22,90)" /><rect x="335" y="251" width="13" height="13" fill="rgb(0,22,90)" /><rect x="347" y="251" width="13" height="13" fill="rgb(0,22,90)" /><rect x="359" y="251" width="13" height="13" fill="rgb(0,22,90)" /><rect x="371" y="251" width="13" height="13" fill="rgb(0,22,90)" /><rect x="383" y="251" width="13" height="13" fill="rgb(82,97,143)" /><rect x="131" y="263" width="13" height="13" fill="rgb(184,97,57)" /><rect x="143" y="263" width="13" height="13" fill="rgb(243,104,17)" /><rect x="155" y="263" width="13" height="13" fill="rgb(243,104,17)" /><rect x="167" y="263" width="13" height="13" fill="rgb(243,104,17)" /><rect x="179" y="263" width="13" height="13" fill="rgb(243,104,17)" /><rect x="191" y="263" width="13" height="13" fill="rgb(235,102,20)" /><rect x="203" y="263" width="13" height="13" fill="rgb(235,101,20)" /><rect x="215" y="263" width="13" height="13" fill="rgb(235,101,20)" /><rect x="227" y="263" width="13" height="13" fill="rgb(235,101,20)" /><rect x="239" y="263" width="13" height="13" fill="rgb(235,101,20)" /><rect x="251" y="263" width="13" height="13" fill="rgb(230,100,21)" /><rect x="263" y="263" width="13" height="13" fill="rgb(223,97,23)" /><rect x="275" y="263" width="13" height="13" fill="rgb(223,97,23)" /><rect x="287" y="263" width="13" height="13" fill="rgb(223,97,23)" /><rect x="299" y="263" width="13" height="13" fill="rgb(223,97,23)" /><rect x="311" y="263" width="13" height="13" fill="rgb(223,97,23)" /><rect x="323" y="263" width="13" height="13" fill="rgb(219,96,25)" /><rect x="335" y="263" width="13" height="13" fill="rgb(215,95,26)" /><rect x="347" y="263" width="13" height="13" fill="rgb(215,95,26)" /><rect x="359" y="263" width="13" height="13" fill="rgb(215,95,26)" /><rect x="371" y="263" width="13" height="13" fill="rgb(163,91,64)" /><rect x="131" y="275" width="13" height="13" fill="rgb(175,138,131)" /><rect x="143" y="275" width="13" height="13" fill="rgb(254,108,14)" /><rect x="155" y="275" width="13" height="13" fill="rgb(254,108,14)" /><rect x="167" y="275" width="13" height="13" fill="rgb(254,108,14)" /><rect x="179" y="275" width="13" height="13" fill="rgb(254,108,14)" /><rect x="191" y="275" width="13" height="13" fill="rgb(254,108,14)" /><rect x="203" y="275" width="13" height="13" fill="rgb(254,108,14)" /><rect x="215" y="275" width="13" height="13" fill="rgb(254,108,14)" /><rect x="227" y="275" width="13" height="13" fill="rgb(254,108,14)" /><rect x="239" y="275" width="13" height="13" fill="rgb(254,108,14)" /><rect x="251" y="275" width="13" height="13" fill="rgb(254,108,14)" /><rect x="263" y="275" width="13" height="13" fill="rgb(254,108,14)" /><rect x="275" y="275" width="13" height="13" fill="rgb(254,108,14)" /><rect x="287" y="275" width="13" height="13" fill="rgb(254,108,14)" /><rect x="299" y="275" width="13" height="13" fill="rgb(254,108,14)" /><rect x="311" y="275" width="13" height="13" fill="rgb(254,108,14)" /><rect x="323" y="275" width="13" height="13" fill="rgb(254,108,14)" /><rect x="335" y="275" width="13" height="13" fill="rgb(254,108,14)" /><rect x="347" y="275" width="13" height="13" fill="rgb(254,108,14)" /><rect x="359" y="275" width="13" height="13" fill="rgb(254,108,14)" /><rect x="371" y="275" width="13" height="13" fill="rgb(163,128,125)" /><rect x="143" y="287" width="13" height="13" fill="rgb(204,101,46)" /><rect x="155" y="287" width="13" height="13" fill="rgb(254,108,14)" /><rect x="167" y="287" width="13" height="13" fill="rgb(254,108,14)" /><rect x="179" y="287" width="13" height="13" fill="rgb(254,108,14)" /><rect x="191" y="287" width="13" height="13" fill="rgb(254,108,14)" /><rect x="203" y="287" width="13" height="13" fill="rgb(254,108,14)" /><rect x="215" y="287" width="13" height="13" fill="rgb(254,108,14)" /><rect x="227" y="287" width="13" height="13" fill="rgb(254,108,14)" /><rect x="239" y="287" width="13" height="13" fill="rgb(254,108,14)" /><rect x="251" y="287" width="13" height="13" fill="rgb(254,108,14)" /><rect x="263" y="287" width="13" height="13" fill="rgb(254,108,14)" /><rect x="275" y="287" width="13" height="13" fill="rgb(254,108,14)" /><rect x="287" y="287" width="13" height="13" fill="rgb(254,108,14)" /><rect x="299" y="287" width="13" height="13" fill="rgb(254,108,14)" /><rect x="311" y="287" width="13" height="13" fill="rgb(254,108,14)" /><rect x="323" y="287" width="13" height="13" fill="rgb(254,108,14)" /><rect x="335" y="287" width="13" height="13" fill="rgb(254,108,14)" /><rect x="347" y="287" width="13" height="13" fill="rgb(254,108,14)" /><rect x="359" y="287" width="13" height="13" fill="rgb(203,101,46)" /><rect x="143" y="299" width="13" height="13" fill="rgb(152,139,152)" /><rect x="155" y="299" width="13" height="13" fill="rgb(233,101,21)" /><rect x="167" y="299" width="13" height="13" fill="rgb(254,108,14)" /><rect x="179" y="299" width="13" height="13" fill="rgb(254,108,14)" /><rect x="191" y="299" width="13" height="13" fill="rgb(254,108,14)" /><rect x="203" y="299" width="13" height="13" fill="rgb(254,108,14)" /><rect x="215" y="299" width="13" height="13" fill="rgb(254,108,14)" /><rect x="227" y="299" width="13" height="13" fill="rgb(254,108,14)" /><rect x="239" y="299" width="13" height="13" fill="rgb(254,108,14)" /><rect x="251" y="299" width="13" height="13" fill="rgb(254,108,14)" /><rect x="263" y="299" width="13" height="13" fill="rgb(254,108,14)" /><rect x="275" y="299" width="13" height="13" fill="rgb(254,108,14)" /><rect x="287" y="299" width="13" height="13" fill="rgb(254,108,14)" /><rect x="299" y="299" width="13" height="13" fill="rgb(254,108,14)" /><rect x="311" y="299" width="13" height="13" fill="rgb(254,108,14)" /><rect x="323" y="299" width="13" height="13" fill="rgb(254,108,14)" /><rect x="335" y="299" width="13" height="13" fill="rgb(254,108,14)" /><rect x="347" y="299" width="13" height="13" fill="rgb(233,101,21)" /><rect x="359" y="299" width="13" height="13" fill="rgb(139,127,143)" /><rect x="155" y="311" width="13" height="13" fill="rgb(162,132,132)" /><rect x="167" y="311" width="13" height="13" fill="rgb(238,102,19)" /><rect x="179" y="311" width="13" height="13" fill="rgb(254,108,14)" /><rect x="191" y="311" width="13" height="13" fill="rgb(254,108,14)" /><rect x="203" y="311" width="13" height="13" fill="rgb(254,108,14)" /><rect x="215" y="311" width="13" height="13" fill="rgb(254,108,14)" /><rect x="227" y="311" width="13" height="13" fill="rgb(254,108,14)" /><rect x="239" y="311" width="13" height="13" fill="rgb(254,108,14)" /><rect x="251" y="311" width="13" height="13" fill="rgb(254,108,14)" /><rect x="263" y="311" width="13" height="13" fill="rgb(254,108,14)" /><rect x="275" y="311" width="13" height="13" fill="rgb(254,108,14)" /><rect x="287" y="311" width="13" height="13" fill="rgb(254,108,14)" /><rect x="299" y="311" width="13" height="13" fill="rgb(254,108,14)" /><rect x="311" y="311" width="13" height="13" fill="rgb(254,108,14)" /><rect x="323" y="311" width="13" height="13" fill="rgb(254,108,14)" /><rect x="335" y="311" width="13" height="13" fill="rgb(238,102,19)" /><rect x="347" y="311" width="13" height="13" fill="rgb(153,124,126)" /><rect x="167" y="323" width="13" height="13" fill="rgb(157,134,139)" /><rect x="179" y="323" width="13" height="13" fill="rgb(221,100,29)" /><rect x="191" y="323" width="13" height="13" fill="rgb(254,108,14)" /><rect x="203" y="323" width="13" height="13" fill="rgb(254,108,14)" /><rect x="215" y="323" width="13" height="13" fill="rgb(254,108,14)" /><rect x="227" y="323" width="13" height="13" fill="rgb(254,108,14)" /><rect x="239" y="323" width="13" height="13" fill="rgb(254,108,14)" /><rect x="251" y="323" width="13" height="13" fill="rgb(254,108,14)" /><rect x="263" y="323" width="13" height="13" fill="rgb(254,108,14)" /><rect x="275" y="323" width="13" height="13" fill="rgb(254,108,14)" /><rect x="287" y="323" width="13" height="13" fill="rgb(254,108,14)" /><rect x="299" y="323" width="13" height="13" fill="rgb(254,108,14)" /><rect x="311" y="323" width="13" height="13" fill="rgb(254,108,14)" /><rect x="323" y="323" width="13" height="13" fill="rgb(221,100,29)" /><rect x="335" y="323" width="13" height="13" fill="rgb(148,126,135)" /><rect x="179" y="335" width="13" height="13" fill="rgb(126,128,156)" /><rect x="191" y="335" width="13" height="13" fill="rgb(183,116,89)" /><rect x="203" y="335" width="13" height="13" fill="rgb(231,100,21)" /><rect x="215" y="335" width="13" height="13" fill="rgb(254,108,14)" /><rect x="227" y="335" width="13" height="13" fill="rgb(254,108,14)" /><rect x="239" y="335" width="13" height="13" fill="rgb(254,108,14)" /><rect x="251" y="335" width="13" height="13" fill="rgb(254,108,14)" /><rect x="263" y="335" width="13" height="13" fill="rgb(254,108,14)" /><rect x="275" y="335" width="13" height="13" fill="rgb(254,108,14)" /><rect x="287" y="335" width="13" height="13" fill="rgb(254,108,14)" /><rect x="299" y="335" width="13" height="13" fill="rgb(231,100,21)" /><rect x="311" y="335" width="13" height="13" fill="rgb(181,115,88)" /><rect x="323" y="335" width="13" height="13" fill="rgb(117,119,150)" /><rect x="203" y="347" width="13" height="13" fill="rgb(113,117,150)" /><rect x="215" y="347" width="13" height="13" fill="rgb(175,134,124)" /><rect x="227" y="347" width="13" height="13" fill="rgb(193,118,83)" /><rect x="239" y="347" width="13" height="13" fill="rgb(193,99,52)" /><rect x="251" y="347" width="13" height="13" fill="rgb(193,92,41)" /><rect x="263" y="347" width="13" height="13" fill="rgb(193,99,52)" /><rect x="275" y="347" width="13" height="13" fill="rgb(193,118,83)" /><rect x="287" y="347" width="13" height="13" fill="rgb(171,130,121)" /><rect x="299" y="347" width="13" height="13" fill="rgb(107,111,146)" /><g transform="translate(0.000000,512.000000) scale(0.100000,-0.100000)" fill="#FF6C13" stroke="none"><path d="M2475 4124 c-16 -2 -66 -9 -110 -15 -158 -21 -360 -101 -518 -206 -92 -60 -279 -247 -340 -339 -57 -87 -117 -206 -151 -298 l-25 -69 1237 7 c680 4 1238 8 1239 10 7 7 -49 143 -96 232 -27 51 -74 126 -105 167 -71 94 -210 227 -303 289 -147 99 -352 181 -516 208 -71 11 -268 20 -312 14z"/><path d="M1340 2472 c0 -20 53 -150 93 -227 87 -167 245 -346 401 -454 113 -78 286 -157 423 -193 113 -30 126 -32 318 -32 192 0 205 2 318 32 130 34 305 112 407 182 209 142 380 356 475 593 20 49 35 91 33 92 -2 2 -558 6 -1235 10 -827 5 -1233 4 -1233 -3z"/></g><g transform="translate(0.000000,512.000000) scale(0.100000,-0.100000)" fill="#6C393F" stroke="none"><path d="M2453 4123 c9 -2 25 -2 35 0 9 3 1 5 -18 5 -19 0 -27 -2 -17 -5z"/><path d="M2663 4123 c9 -2 25 -2 35 0 9 3 1 5 -18 5 -19 0 -27 -2 -17 -5z"/><path d="M2368 4113 c6 -2 18 -2 25 0 6 3 1 5 -13 5 -14 0 -19 -2 -12 -5z"/><path d="M2758 4113 c6 -2 18 -2 25 0 6 3 1 5 -13 5 -14 0 -19 -2 -12 -5z"/><path d="M1655 3748 l-50 -53 53 50 c48 46 57 55 49 55 -1 0 -25 -24 -52 -52z"/><path d="M3485 3750 c27 -27 51 -50 54 -50 3 0 -17 23 -44 50 -27 28 -51 50 -54 50 -3 0 17 -22 44 -50z"/><path d="M3118 3203 c127 -2 337 -2 465 0 127 1 23 2 -233 2 -256 0 -360 -1 -232 -2z"/><path d="M1330 2483 c0 -5 87 -7 192 -5 368 4 401 8 106 10 -164 1 -298 -1 -298 -5z"/><path d="M2763 2473 c97 -2 257 -2 355 0 97 1 17 2 -178 2 -195 0 -275 -1 -177 -2z"/><path d="M1580 2016 c0 -2 8 -10 18 -17 15 -13 16 -12 3 4 -13 16 -21 21 -21 13z"/><path d="M3549 2003 c-13 -16 -12 -17 4 -4 16 13 21 21 13 21 -2 0 -10 -8 -17 -17z"/><path d="M1725 1870 c10 -11 20 -20 23 -20 3 0 -3 9 -13 20 -10 11 -20 20 -23 20 -3 0 3 -9 13 -20z"/><path d="M3414 1868 l-19 -23 23 19 c12 11 22 21 22 23 0 8 -8 2 -26 -19z"/><path d="M2408 1563 c6 -2 18 -2 25 0 6 3 1 5 -13 5 -14 0 -19 -2 -12 -5z"/><path d="M2723 1563 c9 -2 23 -2 30 0 6 3 -1 5 -18 5 -16 0 -22 -2 -12 -5z"/><path d="M2538 1553 c23 -2 59 -2 80 0 20 2 1 4 -43 4 -44 0 -61 -2 -37 -4z"/></g><g transform="translate(0.000000,512.000000) scale(0.100000,-0.100000)" fill="#00195F" stroke="none"><path d="M2425 4264 c-199 -31 -344 -73 -487 -145 -353 -175 -606 -466 -728 -837 -244 -746 167 -1545 920 -1790 164 -53 247 -66 435 -66 190 0 288 15 445 66 373 121 676 385 846 733 99 205 144 399 144 620 0 484 -242 926 -655 1195 -222 144 -465 218 -740 225 -82 2 -163 1 -180 -1z m430 -78 c412 -94 751 -353 938 -715 107 -208 150 -384 150 -621 1 -243 -42 -422 -150 -631 -180 -349 -491 -596 -883 -702 -111 -30 -122 -31 -325 -31 -165 -1 -227 3 -292 17 -549 118 -957 529 -1075 1080 -30 143 -30 380 0 522 61 285 175 497 377 701 205 205 449 335 732 388 105 20 429 15 528 -8z"/><path d="M2446 4150 c-319 -36 -584 -164 -806 -389 -199 -201 -319 -431 -366 -704 -24 -138 -15 -388 20 -522 61 -240 175 -442 346 -613 191 -192 408 -309 685 -369 114 -25 388 -25 504 1 359 78 647 272 848 571 86 128 171 334 198 481 22 113 21 322 0 449 -46 273 -169 511 -369 711 -197 196 -438 323 -699 368 -113 20 -267 26 -361 16z m345 -36 c268 -46 505 -169 700 -363 143 -143 273 -354 317 -513 l10 -38 -1244 0 -1245 0 6 23 c20 66 71 182 112 252 193 336 534 577 907 639 114 20 323 19 437 0z m-1211 -1008 c6 -8 10 -25 8 -38 -2 -19 -9 -23 -38 -23 -29 0 -36 4 -38 23 -4 28 14 52 38 52 10 0 23 -7 30 -14z m287 -7 c34 -12 83 -58 83 -76 0 -10 62 -13 315 -13 l315 0 0 -25 c0 -16 -6 -25 -15 -25 -13 0 -15 -23 -15 -150 l0 -150 -40 0 -40 0 0 75 0 75 -33 0 c-21 0 -41 -8 -52 -20 -33 -37 -95 -14 -95 36 0 42 25 54 111 54 l79 0 0 40 0 40 -104 0 c-85 0 -105 -3 -110 -16 -3 -9 -6 -78 -6 -155 l0 -139 -40 0 c-40 0 -40 0 -40 38 l0 37 -48 -3 c-41 -3 -54 1 -81 23 -30 26 -61 73 -61 93 0 5 11 14 25 20 55 25 35 102 -27 102 -27 0 -28 -2 -28 -50 l0 -50 -70 0 c-53 0 -70 -3 -70 -14 0 -9 19 -16 57 -21 63 -8 108 -26 116 -48 17 -46 -36 -114 -96 -124 -42 -6 -121 13 -138 33 -19 24 16 55 48 43 37 -14 89 -11 103 6 10 12 8 16 -15 25 -14 5 -35 10 -46 10 -32 0 -87 27 -98 49 -27 50 23 111 90 111 28 0 39 4 39 15 0 12 -16 15 -85 15 l-85 0 0 -155 0 -155 -35 0 -35 0 0 155 0 155 -30 0 c-27 0 -30 -3 -24 -24 13 -52 0 -63 -81 -68 -42 -3 -78 -8 -81 -11 -16 -16 14 -27 72 -27 80 0 104 -19 104 -83 0 -44 -22 -87 -44 -87 -7 0 -21 -6 -31 -14 -16 -11 -17 -17 -7 -29 10 -12 9 -19 -6 -37 -15 -18 -22 -21 -38 -12 -11 6 -26 22 -33 36 -8 14 -24 29 -35 32 -34 10 -56 35 -56 64 0 52 49 66 101 30 23 -17 33 -19 49 -10 11 6 20 17 20 25 0 15 -58 35 -102 35 -38 0 -68 32 -68 73 0 47 28 69 95 75 38 3 55 9 55 18 0 11 -17 14 -70 14 -68 0 -70 1 -70 25 l0 25 140 0 c109 0 140 3 140 13 0 14 43 58 75 75 26 15 115 15 152 1z m1200 -23 c-7 -22 -71 -56 -104 -56 -25 0 -43 8 -66 32 l-32 31 23 10 c17 8 29 7 43 -1 25 -16 51 -15 74 2 14 10 25 11 42 3 13 -6 22 -15 20 -21z m-321 -72 c46 -22 67 -64 59 -115 -4 -21 -11 -41 -16 -45 -5 -3 -3 -15 6 -27 17 -25 20 -79 5 -108 -32 -59 -143 -64 -193 -9 -31 34 -32 57 -4 74 14 9 21 6 40 -17 29 -37 67 -34 81 4 13 39 2 59 -34 59 -25 0 -30 4 -30 25 0 18 5 25 20 25 22 0 55 43 45 60 -8 13 -52 13 -60 0 -9 -15 -41 -12 -55 5 -18 21 -2 55 33 70 42 19 62 18 103 -1z m1054 -19 c0 -21 -5 -25 -30 -25 l-30 0 0 -156 0 -155 -32 3 c-31 3 -33 5 -36 48 -1 25 -4 59 -7 77 l-6 31 -57 -28 c-52 -26 -58 -27 -69 -12 -16 20 -17 49 -1 54 13 5 2 28 -13 28 -16 0 -49 -39 -49 -59 0 -11 14 -33 30 -50 27 -26 29 -32 18 -55 -13 -30 -25 -32 -55 -8 -75 60 -83 194 -14 232 32 16 103 12 143 -10 48 -25 68 -18 68 26 l0 34 -150 0 -150 0 0 -155 0 -155 -35 0 c-35 0 -35 1 -35 43 l0 42 -59 -3 c-74 -5 -106 14 -121 70 -10 37 -9 41 19 68 17 15 31 33 31 39 0 22 -40 51 -70 51 l-30 0 0 -150 0 -150 -35 0 -35 0 0 150 0 150 -25 0 -24 0 -3 -152 -3 -153 -37 -3 -38 -3 0 85 c0 85 0 86 -25 86 -22 0 -25 4 -25 35 0 31 3 35 25 35 22 0 25 4 25 35 0 28 -4 35 -20 35 -15 0 -20 7 -20 25 l0 25 490 0 490 0 0 -25z m-1146 -505 c632 -6 1151 -12 1154 -15 7 -7 -36 -120 -76 -200 -84 -168 -245 -357 -400 -468 -458 -330 -1076 -324 -1533 14 -88 65 -234 217 -296 309 -60 89 -122 211 -152 298 -11 34 -21 64 -21 67 0 6 -38 6 1324 -5z"/><path d="M1742 3044 c-37 -26 -25 -34 53 -34 41 0 75 4 75 9 0 17 -44 41 -75 41 -17 0 -41 -7 -53 -16z"/><path d="M2123 2911 c2 -39 -3 -54 -22 -74 -27 -30 -21 -47 19 -47 42 0 60 32 60 107 0 63 0 63 -29 63 -28 0 -29 -1 -28 -49z"/><path d="M3220 2907 c0 -41 -5 -58 -20 -72 -27 -24 -8 -47 34 -43 40 4 56 36 56 111 l0 57 -35 0 -35 0 0 -53z"/><path d="M3361 1329 c-126 -25 -200 -176 -157 -323 40 -135 187 -195 323 -132 101 48 146 174 108 304 -35 117 -144 177 -274 151z m135 -94 c35 -23 54 -73 54 -145 0 -103 -46 -160 -130 -160 -86 0 -130 56 -130 167 0 80 23 126 73 149 38 17 98 12 133 -11z"/><path d="M1280 1095 l0 -235 45 0 45 0 0 235 0 235 -45 0 -45 0 0 -235z"/><path d="M2090 1244 l0 -86 -34 21 c-66 41 -156 17 -192 -51 -23 -43 -24 -152 -2 -193 31 -58 64 -80 123 -80 42 0 59 5 77 23 30 27 38 28 38 2 0 -17 7 -20 40 -20 l40 0 0 235 0 235 -45 0 -45 0 0 -86z m-46 -115 c33 -16 50 -59 44 -119 -6 -60 -30 -90 -70 -90 -45 0 -66 17 -78 61 -16 57 -4 114 27 139 29 23 42 24 77 9z"/><path d="M2260 1290 l0 -40 45 0 45 0 0 40 0 40 -45 0 -45 0 0 -40z"/><path d="M3720 1290 l0 -40 45 0 45 0 0 40 0 40 -45 0 -45 0 0 -40z"/><path d="M3900 1095 l0 -235 45 0 45 0 0 235 0 235 -45 0 -45 0 0 -235z"/><path d="M1460 1030 l0 -170 44 0 44 0 4 121 c3 113 5 122 27 140 30 25 63 24 86 -1 15 -16 19 -41 21 -133 2 -61 4 -115 4 -119 0 -5 18 -8 41 -8 l40 0 -3 146 c-3 146 -3 146 -31 170 -39 34 -109 33 -160 -1 l-37 -26 0 26 c0 23 -4 25 -40 25 l-40 0 0 -170z"/><path d="M2260 1030 l0 -170 45 0 45 0 0 170 0 170 -45 0 -45 0 0 -170z"/><path d="M2488 1185 c-15 -9 -35 -29 -43 -45 l-15 -29 36 -7 c28 -5 40 -2 58 15 22 21 70 28 93 13 7 -4 14 -19 15 -32 3 -22 -3 -26 -79 -45 -91 -24 -119 -42 -128 -87 -21 -91 93 -152 183 -98 28 17 33 18 38 5 4 -10 20 -15 50 -15 43 0 43 1 34 26 -6 14 -10 77 -10 139 0 106 -2 116 -24 142 -22 25 -31 28 -103 31 -56 1 -86 -2 -105 -13z m149 -202 c-7 -44 -38 -73 -76 -73 -33 0 -51 17 -51 46 0 27 11 35 65 51 66 18 68 17 62 -24z"/><path d="M2810 1030 l0 -170 45 0 45 0 0 119 c0 117 1 120 26 140 33 26 58 27 84 1 18 -18 20 -33 20 -140 l0 -120 45 0 45 0 0 118 c0 143 -11 187 -50 207 -40 21 -99 19 -138 -5 -40 -25 -42 -25 -42 0 0 17 -7 20 -40 20 l-40 0 0 -170z"/><path d="M3720 1030 l0 -170 45 0 45 0 0 170 0 170 -45 0 -45 0 0 -170z"/></g><g transform="translate(0.000000,512.000000) scale(0.100000,-0.100000)" fill="#192C6C" stroke="none"><path d="M2020 2956 c0 -2 8 -10 18 -17 15 -13 16 -12 3 4 -13 16 -21 21 -21 13z"/><path d="M3429 2893 c-13 -16 -12 -17 4 -4 9 7 17 15 17 17 0 8 -8 3 -21 -13z"/><path d="M3516 2717 c3 -10 9 -15 12 -12 3 3 0 11 -7 18 -10 9 -11 8 -5 -6z"/><path d="M1580 1976 c0 -2 8 -10 18 -17 15 -13 16 -12 3 4 -13 16 -21 21 -21 13z"/><path d="M3549 1963 c-13 -16 -12 -17 4 -4 16 13 21 21 13 21 -2 0 -10 -8 -17 -17z"/><path d="M3639 1903 c-13 -16 -12 -17 4 -4 9 7 17 15 17 17 0 8 -8 3 -21 -13z"/><path d="M1680 1876 c0 -2 8 -10 18 -17 15 -13 16 -12 3 4 -13 16 -21 21 -21 13z"/><path d="M1600 1796 c0 -2 8 -10 18 -17 15 -13 16 -12 3 4 -13 16 -21 21 -21 13z"/><path d="M3519 1783 c-13 -16 -12 -17 4 -4 9 7 17 15 17 17 0 8 -8 3 -21 -13z"/></g><g transform="translate(0.000000,512.000000) scale(0.100000,-0.100000)" fill="#394C85" stroke="none"><path d="M2488 4153 c7 -3 16 -2 19 1 4 3 -2 6 -13 5 -11 0 -14 -3 -6 -6z"/><path d="M2638 4153 c6 -2 18 -2 25 0 6 3 1 5 -13 5 -14 0 -19 -2 -12 -5z"/><path d="M1635 3768 l-50 -53 53 50 c48 46 57 55 49 55 -1 0 -25 -24 -52 -52z"/><path d="M3505 3770 c21 -22 41 -40 44 -40 3 0 -13 18 -34 40 -21 22 -41 40 -44 40 -3 0 13 -18 34 -40z"/><path d="M1539 3753 c-13 -16 -12 -17 4 -4 9 7 17 15 17 17 0 8 -8 3 -21 -13z"/><path d="M2183 2915 c0 -27 2 -38 4 -22 2 15 2 37 0 50 -2 12 -4 0 -4 -28z"/><path d="M2863 2925 c0 -22 2 -30 4 -17 2 12 2 30 0 40 -3 9 -5 -1 -4 -23z"/><path d="M2688 2943 c7 -3 16 -2 19 1 4 3 -2 6 -13 5 -11 0 -14 -3 -6 -6z"/><path d="M1582 2910 c0 -14 2 -19 5 -12 2 6 2 18 0 25 -3 6 -5 1 -5 -13z"/><path d="M2801 2914 c0 -11 3 -14 6 -6 3 7 2 16 -1 19 -3 4 -6 -2 -5 -13z"/><path d="M3943 2895 c0 -22 2 -30 4 -17 2 12 2 30 0 40 -3 9 -5 -1 -4 -23z"/><path d="M1193 2840 c0 -47 2 -66 4 -42 2 23 2 61 0 85 -2 23 -4 4 -4 -43z"/><path d="M1253 2845 c0 -44 2 -61 4 -37 2 23 2 59 0 80 -2 20 -4 1 -4 -43z"/><path d="M2121 2904 c0 -11 3 -14 6 -6 3 7 2 16 -1 19 -3 4 -6 -2 -5 -13z"/><path d="M3892 2880 c0 -14 2 -19 5 -12 2 6 2 18 0 25 -3 6 -5 1 -5 -13z"/><path d="M2408 2873 c6 -2 18 -2 25 0 6 3 1 5 -13 5 -14 0 -19 -2 -12 -5z"/><path d="M3943 2795 c0 -22 2 -30 4 -17 2 12 2 30 0 40 -3 9 -5 -1 -4 -23z"/><path d="M2397 2813 c-3 -5 12 -7 33 -5 l39 4 4 -68 3 -69 0 70 -1 70 -37 3 c-20 2 -38 -1 -41 -5z"/><path d="M2864 2735 l1 -80 30 -1 c27 -1 28 -1 3 3 -27 4 -27 6 -31 81 l-3 77 0 -80z"/><path d="M3891 2804 c0 -11 3 -14 6 -6 3 7 2 16 -1 19 -3 4 -6 -2 -5 -13z"/><path d="M3661 2794 c0 -11 3 -14 6 -6 3 7 2 16 -1 19 -3 4 -6 -2 -5 -13z"/><path d="M2108 2783 c7 -3 16 -2 19 1 4 3 -2 6 -13 5 -11 0 -14 -3 -6 -6z"/><path d="M2184 2690 c1 -33 3 -35 39 -36 37 -1 37 -1 3 3 -31 4 -35 8 -39 36 -4 31 -4 31 -3 -3z"/><path d="M1653 2653 c9 -2 25 -2 35 0 9 3 1 5 -18 5 -19 0 -27 -2 -17 -5z"/><path d="M3308 2653 c12 -2 30 -2 40 0 9 3 -1 5 -23 4 -22 0 -30 -2 -17 -4z"/><path d="M3693 2653 c9 -2 25 -2 35 0 9 3 1 5 -18 5 -19 0 -27 -2 -17 -5z"/><path d="M2708 1533 c7 -3 16 -2 19 1 4 3 -2 6 -13 5 -11 0 -14 -3 -6 -6z"/><path d="M2433 1423 c9 -2 23 -2 30 0 6 3 -1 5 -18 5 -16 0 -22 -2 -12 -5z"/><path d="M2678 1423 c6 -2 18 -2 25 0 6 3 1 5 -13 5 -14 0 -19 -2 -12 -5z"/><path d="M3254 1278 l-19 -23 23 19 c12 11 22 21 22 23 0 8 -8 2 -26 -19z"/><path d="M3570 1286 c0 -2 8 -10 18 -17 15 -13 16 -12 3 4 -13 16 -21 21 -21 13z"/><path d="M3408 1253 c6 -2 18 -2 25 0 6 3 1 5 -13 5 -14 0 -19 -2 -12 -5z"/><path d="M1648 1203 c6 -2 18 -2 25 0 6 3 1 5 -13 5 -14 0 -19 -2 -12 -5z"/><path d="M1978 1203 c7 -3 16 -2 19 1 4 3 -2 6 -13 5 -11 0 -14 -3 -6 -6z"/><path d="M2563 1203 c9 -2 23 -2 30 0 6 3 -1 5 -18 5 -16 0 -22 -2 -12 -5z"/><path d="M2998 1203 c7 -3 16 -2 19 1 4 3 -2 6 -13 5 -11 0 -14 -3 -6 -6z"/><path d="M1542 1180 c0 -14 2 -19 5 -12 2 6 2 18 0 25 -3 6 -5 1 -5 -13z"/><path d="M2626 1083 c-6 -14 -5 -15 5 -6 7 7 10 15 7 18 -3 3 -9 -2 -12 -12z"/><path d="M1932 1030 c0 -14 2 -19 5 -12 2 6 2 18 0 25 -3 6 -5 1 -5 -13z"/><path d="M1683 970 c0 -36 2 -50 4 -32 2 17 2 47 0 65 -2 17 -4 3 -4 -33z"/><path d="M2632 990 c0 -14 2 -19 5 -12 2 6 2 18 0 25 -3 6 -5 1 -5 -13z"/><path d="M2092 880 c0 -14 2 -19 5 -12 2 6 2 18 0 25 -3 6 -5 1 -5 -13z"/></g><g transform="translate(0.000000,512.000000) scale(0.100000,-0.100000)" fill="#727FA5" stroke="none"><path d="M2568 4273 c7 -3 16 -2 19 1 4 3 -2 6 -13 5 -11 0 -14 -3 -6 -6z"/><path d="M2458 4153 c7 -3 16 -2 19 1 4 3 -2 6 -13 5 -11 0 -14 -3 -6 -6z"/><path d="M2678 4153 c7 -3 16 -2 19 1 4 3 -2 6 -13 5 -11 0 -14 -3 -6 -6z"/><path d="M1549 3853 l-24 -28 28 24 c25 23 32 31 24 31 -2 0 -14 -12 -28 -27z"/><path d="M3505 3840 c10 -11 20 -20 23 -20 3 0 -3 9 -13 20 -10 11 -20 20 -23 20 -3 0 3 -9 13 -20z"/><path d="M1595 3808 l-40 -43 43 40 c39 36 47 45 39 45 -2 0 -21 -19 -42 -42z"/><path d="M3560 3786 c0 -2 8 -10 18 -17 15 -13 16 -12 3 4 -13 16 -21 21 -21 13z"/><path d="M1900 3076 c0 -2 8 -10 18 -17 15 -13 16 -12 3 4 -13 16 -21 21 -21 13z"/><path d="M2958 3023 c7 -3 16 -2 19 1 4 3 -2 6 -13 5 -11 0 -14 -3 -6 -6z"/><path d="M1743 3003 c9 -2 23 -2 30 0 6 3 -1 5 -18 5 -16 0 -22 -2 -12 -5z"/><path d="M3792 2985 c0 -16 2 -22 5 -12 2 9 2 23 0 30 -3 6 -5 -1 -5 -18z"/><path d="M1704 2810 c0 -85 2 -120 3 -77 2 42 2 112 0 155 -1 42 -3 7 -3 -78z"/><path d="M2481 2944 c0 -11 3 -14 6 -6 3 7 2 16 -1 19 -3 4 -6 -2 -5 -13z"/><path d="M2931 2944 c0 -11 3 -14 6 -6 3 7 2 16 -1 19 -3 4 -6 -2 -5 -13z"/><path d="M3054 2810 c0 -85 2 -120 3 -77 2 42 2 112 0 155 -1 42 -3 7 -3 -78z"/><path d="M3663 2925 c0 -22 2 -30 4 -17 2 12 2 30 0 40 -3 9 -5 -1 -4 -23z"/><path d="M1251 2934 c0 -11 3 -14 6 -6 3 7 2 16 -1 19 -3 4 -6 -2 -5 -13z"/><path d="M3892 2920 c0 -14 2 -19 5 -12 2 6 2 18 0 25 -3 6 -5 1 -5 -13z"/><path d="M1133 2850 c0 -47 2 -66 4 -42 2 23 2 61 0 85 -2 23 -4 4 -4 -43z"/><path d="M1833 2923 c9 -2 25 -2 35 0 9 3 1 5 -18 5 -19 0 -27 -2 -17 -5z"/><path d="M4003 2845 c0 -44 2 -61 4 -37 2 23 2 59 0 80 -2 20 -4 1 -4 -43z"/><path d="M3292 2890 c0 -14 2 -19 5 -12 2 6 2 18 0 25 -3 6 -5 1 -5 -13z"/><path d="M2813 2855 c0 -22 2 -30 4 -17 2 12 2 30 0 40 -3 9 -5 -1 -4 -23z"/><path d="M2348 2873 c12 -2 30 -2 40 0 9 3 -1 5 -23 4 -22 0 -30 -2 -17 -4z"/><path d="M2448 2873 c6 -2 18 -2 25 0 6 3 1 5 -13 5 -14 0 -19 -2 -12 -5z"/><path d="M1351 2854 c0 -11 3 -14 6 -6 3 7 2 16 -1 19 -3 4 -6 -2 -5 -13z"/><path d="M1868 2863 c17 -2 47 -2 65 0 17 2 3 4 -33 4 -36 0 -50 -2 -32 -4z"/><path d="M1811 2844 c0 -11 3 -14 6 -6 3 7 2 16 -1 19 -3 4 -6 -2 -5 -13z"/><path d="M3941 2844 c0 -11 3 -14 6 -6 3 7 2 16 -1 19 -3 4 -6 -2 -5 -13z"/><path d="M2084 2828 l-19 -23 23 19 c21 18 27 26 19 26 -2 0 -12 -10 -23 -22z"/><path d="M2668 2823 c7 -3 16 -2 19 1 4 3 -2 6 -13 5 -11 0 -14 -3 -6 -6z"/><path d="M2838 2823 c7 -3 16 -2 19 1 4 3 -2 6 -13 5 -11 0 -14 -3 -6 -6z"/><path d="M3893 2750 c0 -25 2 -35 4 -22 2 12 2 32 0 45 -2 12 -4 2 -4 -23z"/><path d="M1252 2750 c0 -14 2 -19 5 -12 2 6 2 18 0 25 -3 6 -5 1 -5 -13z"/><path d="M2542 2685 c0 -16 2 -22 5 -12 2 9 2 23 0 30 -3 6 -5 -1 -5 -18z"/><path d="M2683 2663 c9 -2 23 -2 30 0 6 3 -1 5 -18 5 -16 0 -22 -2 -12 -5z"/><path d="M1858 2653 c6 -2 18 -2 25 0 6 3 1 5 -13 5 -14 0 -19 -2 -12 -5z"/><path d="M1590 1888 c41 -45 50 -53 50 -45 0 2 -21 23 -47 47 l-48 45 45 -47z"/><path d="M3540 1885 c-24 -25 -42 -45 -39 -45 3 0 25 20 49 45 24 25 42 45 39 45 -3 0 -25 -20 -49 -45z"/><path d="M2543 1523 c20 -2 54 -2 75 0 20 2 3 4 -38 4 -41 0 -58 -2 -37 -4z"/><path d="M2438 1483 c7 -3 16 -2 19 1 4 3 -2 6 -13 5 -11 0 -14 -3 -6 -6z"/><path d="M2718 1423 c7 -3 16 -2 19 1 4 3 -2 6 -13 5 -11 0 -14 -3 -6 -6z"/><path d="M1372 1098 l-2 -237 -47 -4 -48 -3 48 -2 c31 -1 49 3 53 11 2 7 3 116 1 242 l-2 230 -3 -237z"/><path d="M2083 1250 c0 -47 2 -66 4 -42 2 23 2 61 0 85 -2 23 -4 4 -4 -43z"/><path d="M2352 1293 l-2 -42 -47 -4 -48 -3 48 -2 c53 -2 61 6 54 60 -3 30 -4 29 -5 -9z"/><path d="M3743 1243 c15 -2 37 -2 50 0 12 2 0 4 -28 4 -27 0 -38 -2 -22 -4z"/><path d="M2608 1203 c7 -3 16 -2 19 1 4 3 -2 6 -13 5 -11 0 -14 -3 -6 -6z"/><path d="M2352 1033 l-2 -172 -47 -4 -48 -3 48 -2 c31 -1 49 2 53 11 2 7 3 87 1 177 l-3 165 -2 -172z"/><path d="M2805 1025 l0 -170 48 -1 47 -1 -45 4 -45 4 -3 167 -3 167 1 -170z"/><path d="M2892 1180 c0 -14 2 -19 5 -12 2 6 2 18 0 25 -3 6 -5 1 -5 -13z"/><path d="M1879 1163 c-13 -16 -12 -17 4 -4 16 13 21 21 13 21 -2 0 -10 -8 -17 -17z"/><path d="M1773 1065 c0 -27 2 -38 4 -22 2 15 2 37 0 50 -2 12 -4 0 -4 -28z"/><path d="M2723 1050 c0 -36 2 -50 4 -32 2 17 2 47 0 65 -2 17 -4 3 -4 -33z"/><path d="M3022 1060 c0 -14 2 -19 5 -12 2 6 2 18 0 25 -3 6 -5 1 -5 -13z"/><path d="M1552 968 l-2 -107 -47 -4 -48 -3 48 -2 c32 -1 49 2 53 11 2 7 3 58 1 113 l-3 99 -2 -107z"/><path d="M2081 1044 c0 -11 3 -14 6 -6 3 7 2 16 -1 19 -3 4 -6 -2 -5 -13z"/><path d="M2081 1004 c0 -11 3 -14 6 -6 3 7 2 16 -1 19 -3 4 -6 -2 -5 -13z"/><path d="M1773 945 c0 -38 2 -53 4 -32 2 20 2 52 0 70 -2 17 -4 1 -4 -38z"/><path d="M3320 976 c0 -2 8 -10 18 -17 15 -13 16 -12 3 4 -13 16 -21 21 -21 13z"/><path d="M2721 934 c0 -11 3 -14 6 -6 3 7 2 16 -1 19 -3 4 -6 -2 -5 -13z"/><path d="M2649 857 c5 -5 28 -7 52 -5 l44 3 -52 5 c-29 3 -48 1 -44 -3z"/><path d="M1708 853 c12 -2 32 -2 45 0 12 2 2 4 -23 4 -25 0 -35 -2 -22 -4z"/><path d="M2118 853 c12 -2 32 -2 45 0 12 2 2 4 -23 4 -25 0 -35 -2 -22 -4z"/><path d="M3053 853 c15 -2 37 -2 50 0 12 2 0 4 -28 4 -27 0 -38 -2 -22 -4z"/><path d="M3743 853 c15 -2 37 -2 50 0 12 2 0 4 -28 4 -27 0 -38 -2 -22 -4z"/><path d="M3923 853 c15 -2 37 -2 50 0 12 2 0 4 -28 4 -27 0 -38 -2 -22 -4z"/><path d="M1978 843 c7 -3 16 -2 19 1 4 3 -2 6 -13 5 -11 0 -14 -3 -6 -6z"/><path d="M2518 843 c6 -2 18 -2 25 0 6 3 1 5 -13 5 -14 0 -19 -2 -12 -5z"/><path d="M3403 843 c9 -2 25 -2 35 0 9 3 1 5 -18 5 -19 0 -27 -2 -17 -5z"/></g><g transform="translate(0.000000,512.000000) scale(0.100000,-0.100000)" fill="#B8BFD2" stroke="none"><path d="M2513 4273 c9 -2 25 -2 35 0 9 3 1 5 -18 5 -19 0 -27 -2 -17 -5z"/><path d="M2603 4273 c9 -2 23 -2 30 0 6 3 -1 5 -18 5 -16 0 -22 -2 -12 -5z"/><path d="M2458 4203 c7 -3 16 -2 19 1 4 3 -2 6 -13 5 -11 0 -14 -3 -6 -6z"/><path d="M2658 4203 c6 -2 18 -2 25 0 6 3 1 5 -13 5 -14 0 -19 -2 -12 -5z"/><path d="M1589 3893 c-13 -16 -12 -17 4 -4 9 7 17 15 17 17 0 8 -8 3 -21 -13z"/><path d="M3580 3855 c30 -30 57 -55 59 -55 3 0 -19 25 -49 55 -30 30 -57 55 -59 55 -3 0 19 -25 49 -55z"/><path d="M1509 3813 c-13 -16 -12 -17 4 -4 9 7 17 15 17 17 0 8 -8 3 -21 -13z"/><path d="M3530 3816 c0 -2 8 -10 18 -17 15 -13 16 -12 3 4 -13 16 -21 21 -21 13z"/><path d="M1783 3063 c9 -2 23 -2 30 0 6 3 -1 5 -18 5 -16 0 -22 -2 -12 -5z"/><path d="M1428 3003 c39 -2 105 -2 145 0 39 1 7 3 -73 3 -80 0 -112 -2 -72 -3z"/><path d="M1803 3003 c15 -2 39 -2 55 0 15 2 2 4 -28 4 -30 0 -43 -2 -27 -4z"/><path d="M2108 3003 c90 -2 234 -2 320 0 86 1 13 3 -163 3 -176 0 -247 -2 -157 -3z"/><path d="M2824 2995 c-3 -8 -4 -20 -1 -27 3 -7 6 -3 6 9 l1 23 483 3 482 2 -483 3 c-416 2 -483 0 -488 -13z"/><path d="M1201 2974 c0 -11 3 -14 6 -6 3 7 2 16 -1 19 -3 4 -6 -2 -5 -13z"/><path d="M3931 2974 c0 -11 3 -14 6 -6 3 7 2 16 -1 19 -3 4 -6 -2 -5 -13z"/><path d="M1413 2963 c9 -2 25 -2 35 0 9 3 1 5 -18 5 -19 0 -27 -2 -17 -5z"/><path d="M1608 2963 c7 -3 16 -2 19 1 4 3 -2 6 -13 5 -11 0 -14 -3 -6 -6z"/><path d="M2953 2963 c9 -2 23 -2 30 0 6 3 -1 5 -18 5 -16 0 -22 -2 -12 -5z"/><path d="M3073 2963 c9 -2 23 -2 30 0 6 3 -1 5 -18 5 -16 0 -22 -2 -12 -5z"/><path d="M3217 2963 c-3 -5 12 -7 33 -5 35 4 39 1 43 -22 4 -26 4 -26 3 1 -1 25 -5 28 -38 31 -20 2 -38 -1 -41 -5z"/><path d="M3483 2963 c26 -2 67 -2 90 0 23 2 2 3 -48 3 -49 0 -68 -1 -42 -3z"/><path d="M3734 2957 c-3 -8 -3 -52 -1 -98 l3 -84 2 92 c2 78 5 92 20 96 16 4 16 5 -1 6 -10 0 -20 -5 -23 -12z"/><path d="M3891 2954 c0 -11 3 -14 6 -6 3 7 2 16 -1 19 -3 4 -6 -2 -5 -13z"/><path d="M4002 2945 c0 -16 2 -22 5 -12 2 9 2 23 0 30 -3 6 -5 -1 -5 -18z"/><path d="M1131 2944 c0 -11 3 -14 6 -6 3 7 2 16 -1 19 -3 4 -6 -2 -5 -13z"/><path d="M1501 2944 c0 -11 3 -14 6 -6 3 7 2 16 -1 19 -3 4 -6 -2 -5 -13z"/><path d="M3354 2810 c0 -85 2 -120 3 -77 2 42 2 112 0 155 -1 42 -3 7 -3 -78z"/><path d="M1644 2800 c0 -80 2 -112 3 -72 2 39 2 105 0 145 -1 39 -3 7 -3 -73z"/><path d="M2482 2905 c0 -16 2 -22 5 -12 2 9 2 23 0 30 -3 6 -5 -1 -5 -18z"/><path d="M2934 2795 c0 -77 2 -107 3 -67 2 40 2 103 0 140 -2 37 -3 4 -3 -73z"/><path d="M2828 2883 c6 -2 18 -2 25 0 6 3 1 5 -13 5 -14 0 -19 -2 -12 -5z"/><path d="M2543 2790 c0 -47 2 -66 4 -42 2 23 2 61 0 85 -2 23 -4 4 -4 -43z"/><path d="M2661 2844 c0 -11 3 -14 6 -6 3 7 2 16 -1 19 -3 4 -6 -2 -5 -13z"/><path d="M3402 2805 c0 -16 2 -22 5 -12 2 9 2 23 0 30 -3 6 -5 -1 -5 -18z"/><path d="M2070 2806 c0 -2 8 -10 18 -17 15 -13 16 -12 3 4 -13 16 -21 21 -21 13z"/><path d="M2253 2730 c0 -41 2 -58 4 -37 2 20 2 54 0 75 -2 20 -4 3 -4 -38z"/><path d="M2731 2774 c0 -11 3 -14 6 -6 3 7 2 16 -1 19 -3 4 -6 -2 -5 -13z"/><path d="M1132 2750 c0 -14 2 -19 5 -12 2 6 2 18 0 25 -3 6 -5 1 -5 -13z"/><path d="M3733 2715 c0 -33 2 -45 4 -27 2 18 2 45 0 60 -2 15 -4 0 -4 -33z"/><path d="M4002 2745 c0 -16 2 -22 5 -12 2 9 2 23 0 30 -3 6 -5 -1 -5 -18z"/><path d="M1592 2740 c0 -14 2 -19 5 -12 2 6 2 18 0 25 -3 6 -5 1 -5 -13z"/><path d="M1388 2743 c7 -3 16 -2 19 1 4 3 -2 6 -13 5 -11 0 -14 -3 -6 -6z"/><path d="M3480 2746 c0 -2 8 -10 18 -17 15 -13 16 -12 3 4 -13 16 -21 21 -21 13z"/><path d="M1509 2723 c-13 -16 -12 -17 4 -4 16 13 21 21 13 21 -2 0 -10 -8 -17 -17z"/><path d="M3293 2700 c0 -25 2 -35 4 -22 2 12 2 32 0 45 -2 12 -4 2 -4 -23z"/><path d="M2113 2723 c9 -2 23 -2 30 0 6 3 -1 5 -18 5 -16 0 -22 -2 -12 -5z"/><path d="M3931 2714 c0 -11 3 -14 6 -6 3 7 2 16 -1 19 -3 4 -6 -2 -5 -13z"/><path d="M1351 2704 c0 -11 3 -14 6 -6 3 7 2 16 -1 19 -3 4 -6 -2 -5 -13z"/><path d="M1635 1910 c21 -22 41 -40 44 -40 3 0 -13 18 -34 40 -21 22 -41 40 -44 40 -3 0 13 -18 34 -40z"/><path d="M3509 1913 l-34 -38 38 34 c20 19 37 36 37 38 0 8 -8 0 -41 -34z"/><path d="M3585 1838 l-50 -53 53 50 c28 27 52 51 52 52 0 8 -9 -1 -55 -49z"/><path d="M1550 1838 c41 -45 50 -53 50 -45 0 2 -21 23 -47 47 l-48 45 45 -47z"/><path d="M2488 1523 c7 -3 16 -2 19 1 4 3 -2 6 -13 5 -11 0 -14 -3 -6 -6z"/><path d="M2468 1483 c7 -3 16 -2 19 1 4 3 -2 6 -13 5 -11 0 -14 -3 -6 -6z"/><path d="M2658 1483 c6 -2 18 -2 25 0 6 3 1 5 -13 5 -14 0 -19 -2 -12 -5z"/><path d="M2533 1413 c20 -2 54 -2 75 0 20 2 3 4 -38 4 -41 0 -58 -2 -37 -4z"/><path d="M1274 1095 c0 -132 2 -185 3 -117 2 68 2 176 0 240 -1 64 -3 9 -3 -123z"/><path d="M3713 1290 c0 -25 2 -35 4 -22 2 12 2 32 0 45 -2 12 -4 2 -4 -23z"/><path d="M3894 1095 c0 -132 2 -185 3 -117 2 68 2 176 0 240 -1 64 -3 9 -3 -123z"/><path d="M3812 1290 c0 -19 2 -27 5 -17 2 9 2 25 0 35 -3 9 -5 1 -5 -18z"/><path d="M3994 1090 c0 -129 2 -182 3 -117 2 64 2 170 0 235 -1 64 -3 11 -3 -118z"/><path d="M3714 1030 c0 -96 2 -136 3 -87 2 48 2 126 0 175 -1 48 -3 8 -3 -88z"/><path d="M2459 1173 c-13 -16 -12 -17 4 -4 16 13 21 21 13 21 -2 0 -10 -8 -17 -17z"/><path d="M3814 1010 c0 -85 2 -120 3 -77 2 42 2 112 0 155 -1 42 -3 7 -3 -78z"/><path d="M3182 1085 c0 -16 2 -22 5 -12 2 9 2 23 0 30 -3 6 -5 -1 -5 -18z"/><path d="M3652 1090 c0 -14 2 -19 5 -12 2 6 2 18 0 25 -3 6 -5 1 -5 -13z"/><path d="M3124 970 c0 -63 1 -89 3 -57 2 31 2 83 0 115 -2 31 -3 5 -3 -58z"/><path d="M3024 950 c0 -52 1 -74 3 -47 2 26 2 68 0 95 -2 26 -3 4 -3 -48z"/><path d="M2722 970 c0 -14 2 -19 5 -12 2 6 2 18 0 25 -3 6 -5 1 -5 -13z"/><path d="M2411 944 c0 -11 3 -14 6 -6 3 7 2 16 -1 19 -3 4 -6 -2 -5 -13z"/><path d="M3584 908 l-19 -23 23 19 c21 18 27 26 19 26 -2 0 -12 -10 -23 -22z"/><path d="M2558 913 c7 -3 16 -2 19 1 4 3 -2 6 -13 5 -11 0 -14 -3 -6 -6z"/><path d="M2430 886 c0 -2 8 -10 18 -17 15 -13 16 -12 3 4 -13 16 -21 21 -21 13z"/></g><g transform="translate(0.000000,512.000000) scale(0.100000,-0.100000)" fill="#E5E5F2" stroke="none"><path d="M1619 3923 c-13 -16 -12 -17 4 -4 9 7 17 15 17 17 0 8 -8 3 -21 -13z"/><path d="M3500 3936 c0 -2 8 -10 18 -17 15 -13 16 -12 3 4 -13 16 -21 21 -21 13z"/><path d="M3465 3870 c10 -11 20 -20 23 -20 3 0 -3 9 -13 20 -10 11 -20 20 -23 20 -3 0 3 -9 13 -20z"/><path d="M1659 3863 c-13 -16 -12 -17 4 -4 9 7 17 15 17 17 0 8 -8 3 -21 -13z"/><path d="M1729 3863 c-13 -16 -12 -17 4 -4 9 7 17 15 17 17 0 8 -8 3 -21 -13z"/><path d="M1630 3775 c-24 -25 -42 -45 -39 -45 3 0 25 20 49 45 24 25 42 45 39 45 -3 0 -25 -20 -49 -45z"/><path d="M3510 3775 c19 -19 36 -35 39 -35 3 0 -10 16 -29 35 -19 19 -36 35 -39 35 -3 0 10 -16 29 -35z"/><path d="M1479 3783 c-13 -16 -12 -17 4 -4 9 7 17 15 17 17 0 8 -8 3 -21 -13z"/><path d="M3655 3780 c10 -11 20 -20 23 -20 3 0 -3 9 -13 20 -10 11 -20 20 -23 20 -3 0 3 -9 13 -20z"/><path d="M1534 3738 l-19 -23 23 19 c21 18 27 26 19 26 -2 0 -12 -10 -23 -22z"/><path d="M3590 3746 c0 -2 8 -10 18 -17 15 -13 16 -12 3 4 -13 16 -21 21 -21 13z"/><path d="M1539 3673 c-13 -16 -12 -17 4 -4 9 7 17 15 17 17 0 8 -8 3 -21 -13z"/><path d="M2030 2956 c0 -2 8 -10 18 -17 15 -13 16 -12 3 4 -13 16 -21 21 -21 13z"/><path d="M1369 2893 c-13 -16 -12 -17 4 -4 9 7 17 15 17 17 0 8 -8 3 -21 -13z"/><path d="M3546 2837 c3 -10 9 -15 12 -12 3 3 0 11 -7 18 -10 9 -11 8 -5 -6z"/><path d="M1769 2713 c-13 -17 -13 -17 6 -3 11 8 22 16 24 17 2 2 0 3 -6 3 -6 0 -17 -8 -24 -17z"/><path d="M1575 1970 c10 -11 20 -20 23 -20 3 0 -3 9 -13 20 -10 11 -20 20 -23 20 -3 0 3 -9 13 -20z"/><path d="M3564 1968 l-19 -23 23 19 c12 11 22 21 22 23 0 8 -8 2 -26 -19z"/><path d="M1535 1950 c10 -11 20 -20 23 -20 3 0 -3 9 -13 20 -10 11 -20 20 -23 20 -3 0 3 -9 13 -20z"/><path d="M3599 1953 c-13 -16 -12 -17 4 -4 16 13 21 21 13 21 -2 0 -10 -8 -17 -17z"/><path d="M3654 1908 l-19 -23 23 19 c21 18 27 26 19 26 -2 0 -12 -10 -23 -22z"/><path d="M1485 1900 c10 -11 20 -20 23 -20 3 0 -3 9 -13 20 -10 11 -20 20 -23 20 -3 0 3 -9 13 -20z"/><path d="M3454 1858 l-19 -23 23 19 c12 11 22 21 22 23 0 8 -8 2 -26 -19z"/><path d="M1695 1850 c10 -11 20 -20 23 -20 3 0 -3 9 -13 20 -10 11 -20 20 -23 20 -3 0 3 -9 13 -20z"/><path d="M1650 1836 c0 -2 8 -10 18 -17 15 -13 16 -12 3 4 -13 16 -21 21 -21 13z"/><path d="M3469 1823 c-13 -16 -12 -17 4 -4 16 13 21 21 13 21 -2 0 -10 -8 -17 -17z"/><path d="M1615 1770 c10 -11 20 -20 23 -20 3 0 -3 9 -13 20 -10 11 -20 20 -23 20 -3 0 3 -9 13 -20z"/><path d="M3514 1768 l-19 -23 23 19 c21 18 27 26 19 26 -2 0 -12 -10 -23 -22z"/><path d="M3249 1283 c-13 -16 -12 -17 4 -4 16 13 21 21 13 21 -2 0 -10 -8 -17 -17z"/><path d="M3329 1213 c-13 -16 -12 -17 4 -4 16 13 21 21 13 21 -2 0 -10 -8 -17 -17z"/><path d="M3490 1226 c0 -2 8 -10 18 -17 15 -13 16 -12 3 4 -13 16 -21 21 -21 13z"/><path d="M2049 943 c-13 -16 -12 -17 4 -4 16 13 21 21 13 21 -2 0 -10 -8 -17 -17z"/><path d="M1885 880 c10 -11 20 -20 23 -20 3 0 -3 9 -13 20 -10 11 -20 20 -23 20 -3 0 3 -9 13 -20z"/></g><g transform="translate(0.000000,512.000000) scale(0.100000,-0.100000)" fill="#FFFFFF" stroke="none"><path d="M2455 4204 c-550 -60 -1012 -422 -1179 -924 -57 -171 -70 -255 -71 -435 0 -180 13 -261 71 -435 111 -334 362 -619 689 -782 196 -99 378 -141 605 -141 226 0 408 42 605 140 608 303 906 997 699 1630 -178 547 -686 928 -1261 947 -65 2 -136 2 -158 0z m346 -60 c557 -93 994 -535 1084 -1094 17 -111 20 -305 4 -417 -14 -101 -74 -276 -138 -400 -184 -356 -526 -610 -929 -690 -120 -23 -376 -23 -494 0 -475 95 -861 431 -1012 880 -50 152 -61 227 -60 427 0 200 14 285 70 441 112 311 355 583 657 735 93 47 256 101 358 118 117 19 344 20 460 0z"/><path d="M1521 3092 c-8 -15 -7 -23 4 -32 23 -19 50 -8 50 20 0 32 -39 41 -54 12z"/><path d="M1743 3099 c-36 -10 -93 -63 -93 -85 0 -11 -26 -14 -145 -14 -140 0 -145 -1 -145 -21 0 -18 4 -20 30 -14 40 9 120 -4 120 -20 0 -7 -20 -15 -49 -19 -61 -8 -101 -38 -101 -75 0 -38 25 -57 85 -66 87 -12 109 -39 59 -71 -24 -16 -26 -16 -55 5 -18 13 -41 21 -57 19 -22 -2 -28 -9 -30 -35 -3 -27 1 -34 30 -49 18 -9 46 -32 62 -51 27 -32 29 -33 47 -17 14 13 16 20 8 30 -15 18 -4 44 19 44 30 0 62 42 62 82 0 59 -26 81 -104 86 -56 4 -66 7 -66 23 0 17 8 19 80 19 l80 0 0 50 c0 46 2 50 23 50 43 0 47 -16 47 -167 l0 -143 25 0 25 0 0 150 0 150 90 0 c83 0 90 -1 90 -20 0 -17 -7 -20 -40 -20 -30 0 -47 -7 -65 -25 -51 -50 -16 -99 83 -117 55 -10 62 -14 62 -35 0 -28 -32 -38 -94 -29 -31 5 -46 3 -55 -7 -9 -12 -4 -18 29 -31 76 -30 146 -13 175 45 30 56 -1 85 -107 98 -44 5 -53 9 -53 26 0 18 8 20 73 23 l74 3 -4 44 c-3 42 -1 45 25 51 71 15 105 -63 46 -109 -30 -24 -31 -25 -15 -55 28 -54 64 -75 124 -70 l52 5 0 -39 c0 -35 2 -38 29 -38 l29 0 7 150 7 150 114 0 114 0 0 -45 0 -45 -83 0 c-87 0 -107 -8 -107 -45 0 -45 47 -60 77 -25 12 14 30 20 60 20 l43 0 0 -80 0 -80 30 0 30 0 2 108 c1 59 2 125 2 147 1 22 6 44 13 48 7 4 13 15 13 22 0 13 -46 15 -309 15 l-309 0 -20 33 c-32 55 -122 87 -189 66z m100 -40 c25 -14 37 -28 37 -46 0 -10 -24 -13 -85 -13 -61 0 -85 3 -85 13 1 45 81 73 133 46z m347 -163 c0 -49 -5 -69 -21 -90 -23 -30 -69 -35 -89 -11 -11 13 -9 20 11 41 19 20 24 36 23 75 l0 49 38 0 38 0 0 -64z"/><path d="M2890 3076 c0 -18 49 -46 80 -46 29 0 80 31 80 48 0 11 -7 12 -27 7 -37 -9 -83 -10 -110 0 -18 6 -23 4 -23 -9z"/><path d="M2638 2990 c-16 -12 -28 -28 -28 -36 0 -19 28 -30 43 -15 16 16 62 14 77 -4 10 -12 9 -20 -5 -41 -9 -15 -26 -29 -36 -31 -28 -8 -23 -33 6 -33 49 0 58 -88 10 -106 -25 -10 -63 5 -70 26 -7 22 -13 24 -34 11 -20 -13 -4 -49 32 -72 73 -44 167 -5 167 69 0 19 -7 43 -16 53 -14 16 -14 20 0 48 23 44 20 77 -11 111 -38 42 -97 51 -135 20z"/><path d="M2830 2981 c0 -14 5 -18 20 -14 18 5 20 0 20 -41 0 -42 -2 -46 -25 -46 -20 0 -25 -5 -25 -25 0 -20 5 -25 25 -25 25 0 25 -1 25 -85 l0 -85 30 0 30 0 0 155 0 155 30 0 30 0 0 -155 0 -155 30 0 30 0 0 155 0 155 29 0 c55 0 81 -16 81 -50 0 -40 -16 -70 -37 -70 -12 0 -14 -7 -9 -32 8 -40 23 -58 64 -75 29 -12 49 -11 105 4 14 4 17 -3 17 -41 0 -42 2 -46 25 -46 l25 0 0 149 0 148 68 6 c85 9 166 9 215 1 35 -6 37 -9 37 -44 0 -32 -4 -39 -25 -44 -15 -4 -34 0 -49 9 -89 59 -186 18 -186 -78 0 -44 12 -70 48 -109 31 -33 39 -35 47 -7 5 14 0 28 -13 42 -35 37 -38 72 -9 101 17 17 32 23 46 19 30 -8 36 -22 16 -36 -16 -13 -12 -47 6 -47 5 0 32 11 59 25 27 14 52 25 55 25 3 0 5 -36 5 -80 l0 -80 30 0 30 0 0 156 0 156 30 -4 c24 -4 30 -1 30 14 0 17 -22 18 -480 18 -465 0 -480 -1 -480 -19z m468 -85 c-4 -84 -23 -116 -68 -116 -30 0 -74 40 -52 47 24 9 44 64 38 105 l-6 38 46 0 46 0 -4 -74z"/></g></svg>