<svg version="1.0" xmlns="http://www.w3.org/2000/svg" width="800.000000" height="137.000000" viewBox="0 0 800.000000 137.000000" preserveAspectRatio="xMidYMid meet"><rect x="71" y="0" width="19" height="4" fill="rgb(59,45,140)" /><rect x="107" y="0" width="19" height="4" fill="rgb(26,76,52)" /><rect x="125" y="0" width="19" height="4" fill="rgb(27,76,52)" /><rect x="71" y="2" width="19" height="4" fill="rgb(59,45,140)" /><rect x="107" y="2" width="19" height="4" fill="rgb(26,76,50)" /><rect x="125" y="2" width="19" height="4" fill="rgb(26,76,50)" /><rect x="53" y="5" width="19" height="4" fill="rgb(55,44,147)" /><rect x="71" y="5" width="19" height="4" fill="rgb(55,44,148)" /><rect x="107" y="5" width="19" height="4" fill="rgb(26,76,50)" /><rect x="125" y="5" width="19" height="4" fill="rgb(26,76,50)" /><rect x="53" y="8" width="19" height="4" fill="rgb(55,45,147)" /><rect x="71" y="8" width="19" height="4" fill="rgb(55,44,148)" /><rect x="107" y="8" width="19" height="4" fill="rgb(26,76,50)" /><rect x="125" y="8" width="19" height="4" fill="rgb(26,76,50)" /><rect x="53" y="11" width="19" height="4" fill="rgb(55,45,147)" /><rect x="71" y="11" width="19" height="4" fill="rgb(55,45,147)" /><rect x="107" y="11" width="19" height="4" fill="rgb(26,76,50)" /><rect x="125" y="11" width="19" height="4" fill="rgb(26,76,50)" /><rect x="53" y="14" width="19" height="4" fill="rgb(55,44,148)" /><rect x="71" y="14" width="19" height="4" fill="rgb(55,44,148)" /><rect x="107" y="14" width="19" height="4" fill="rgb(26,76,50)" /><rect x="125" y="14" width="19" height="4" fill="rgb(26,76,50)" /><rect x="53" y="17" width="19" height="4" fill="rgb(55,44,147)" /><rect x="71" y="17" width="19" height="4" fill="rgb(55,44,147)" /><rect x="107" y="17" width="19" height="4" fill="rgb(26,76,50)" /><rect x="125" y="17" width="19" height="4" fill="rgb(26,76,50)" /><rect x="53" y="20" width="19" height="4" fill="rgb(59,45,141)" /><rect x="71" y="20" width="19" height="4" fill="rgb(60,45,140)" /><rect x="107" y="20" width="19" height="4" fill="rgb(26,76,50)" /><rect x="125" y="20" width="19" height="4" fill="rgb(26,76,50)" /><rect x="71" y="23" width="19" height="4" fill="rgb(55,44,148)" /><rect x="107" y="23" width="19" height="4" fill="rgb(26,76,50)" /><rect x="125" y="23" width="19" height="4" fill="rgb(26,76,50)" /><rect x="71" y="26" width="19" height="4" fill="rgb(55,44,148)" /><rect x="107" y="26" width="19" height="4" fill="rgb(26,76,50)" /><rect x="125" y="26" width="19" height="4" fill="rgb(26,76,50)" /><rect x="53" y="35" width="19" height="4" fill="rgb(26,76,50)" /><rect x="71" y="35" width="19" height="4" fill="rgb(26,76,50)" /><rect x="107" y="35" width="19" height="4" fill="rgb(56,45,137)" /><rect x="125" y="35" width="19" height="4" fill="rgb(56,45,140)" /><rect x="53" y="38" width="19" height="4" fill="rgb(26,76,50)" /><rect x="71" y="38" width="19" height="4" fill="rgb(26,76,50)" /><rect x="107" y="38" width="19" height="4" fill="rgb(52,45,144)" /><rect x="125" y="38" width="19" height="4" fill="rgb(51,44,148)" /><rect x="53" y="41" width="19" height="4" fill="rgb(26,76,50)" /><rect x="71" y="41" width="19" height="4" fill="rgb(26,76,50)" /><rect x="107" y="41" width="19" height="4" fill="rgb(56,45,141)" /><rect x="125" y="41" width="19" height="4" fill="rgb(56,45,140)" /><rect x="431" y="41" width="19" height="4" fill="rgb(26,75,49)" /><rect x="665" y="41" width="19" height="4" fill="rgb(26,75,49)" /><rect x="53" y="44" width="19" height="4" fill="rgb(26,76,50)" /><rect x="71" y="44" width="19" height="4" fill="rgb(26,76,50)" /><rect x="107" y="44" width="19" height="4" fill="rgb(60,45,140)" /><rect x="125" y="44" width="19" height="4" fill="rgb(60,45,140)" /><rect x="53" y="47" width="19" height="4" fill="rgb(26,76,50)" /><rect x="71" y="47" width="19" height="4" fill="rgb(26,76,50)" /><rect x="107" y="47" width="19" height="4" fill="rgb(53,46,138)" /><rect x="125" y="47" width="19" height="4" fill="rgb(53,46,138)" /><rect x="53" y="50" width="19" height="4" fill="rgb(26,76,50)" /><rect x="71" y="50" width="19" height="4" fill="rgb(26,76,50)" /><rect x="107" y="50" width="19" height="4" fill="rgb(55,44,148)" /><rect x="125" y="50" width="19" height="4" fill="rgb(55,44,148)" /><rect x="53" y="53" width="19" height="4" fill="rgb(26,76,50)" /><rect x="71" y="53" width="19" height="4" fill="rgb(26,76,50)" /><rect x="107" y="53" width="19" height="4" fill="rgb(51,44,154)" /><rect x="125" y="53" width="19" height="4" fill="rgb(50,43,155)" /><rect x="53" y="56" width="19" height="4" fill="rgb(26,76,50)" /><rect x="71" y="56" width="19" height="4" fill="rgb(26,76,50)" /><rect x="107" y="56" width="19" height="4" fill="rgb(58,46,130)" /><rect x="125" y="56" width="19" height="4" fill="rgb(58,46,130)" /><rect x="53" y="59" width="19" height="4" fill="rgb(26,76,50)" /><rect x="71" y="59" width="19" height="4" fill="rgb(26,76,50)" /><rect x="107" y="59" width="19" height="4" fill="rgb(52,46,138)" /><rect x="125" y="59" width="19" height="4" fill="rgb(52,46,138)" /><rect x="35" y="62" width="19" height="4" fill="rgb(26,76,50)" /><rect x="53" y="62" width="19" height="4" fill="rgb(26,76,50)" /><rect x="71" y="62" width="19" height="4" fill="rgb(26,76,50)" /><rect x="125" y="62" width="19" height="4" fill="rgb(50,43,155)" /><rect x="341" y="62" width="19" height="4" fill="rgb(26,76,50)" /><rect x="35" y="65" width="19" height="4" fill="rgb(26,76,50)" /><rect x="53" y="65" width="19" height="4" fill="rgb(26,76,50)" /><rect x="71" y="65" width="19" height="4" fill="rgb(26,76,50)" /><rect x="485" y="65" width="19" height="4" fill="rgb(26,75,51)" /><rect x="35" y="68" width="19" height="4" fill="rgb(26,76,50)" /><rect x="53" y="68" width="19" height="4" fill="rgb(26,76,50)" /><rect x="71" y="68" width="19" height="4" fill="rgb(26,76,50)" /><rect x="35" y="71" width="19" height="4" fill="rgb(26,76,50)" /><rect x="53" y="71" width="19" height="4" fill="rgb(26,76,50)" /><rect x="71" y="71" width="19" height="4" fill="rgb(26,76,50)" /><rect x="143" y="71" width="19" height="4" fill="rgb(57,46,131)" /><rect x="35" y="74" width="19" height="4" fill="rgb(26,76,50)" /><rect x="53" y="74" width="19" height="4" fill="rgb(26,76,50)" /><rect x="71" y="74" width="19" height="4" fill="rgb(26,76,50)" /><rect x="233" y="74" width="19" height="4" fill="rgb(26,75,50)" /><rect x="611" y="74" width="19" height="4" fill="rgb(26,76,50)" /><rect x="35" y="77" width="19" height="4" fill="rgb(26,76,50)" /><rect x="53" y="77" width="19" height="4" fill="rgb(26,76,50)" /><rect x="71" y="77" width="19" height="4" fill="rgb(26,76,50)" /><rect x="143" y="77" width="19" height="4" fill="rgb(55,44,147)" /><rect x="233" y="77" width="19" height="4" fill="rgb(25,75,50)" /><rect x="611" y="77" width="19" height="4" fill="rgb(26,76,50)" /><rect x="35" y="80" width="19" height="4" fill="rgb(26,76,50)" /><rect x="53" y="80" width="19" height="4" fill="rgb(26,76,50)" /><rect x="71" y="80" width="19" height="4" fill="rgb(26,76,50)" /><rect x="143" y="80" width="19" height="4" fill="rgb(53,45,139)" /><rect x="35" y="83" width="19" height="4" fill="rgb(26,76,50)" /><rect x="53" y="83" width="19" height="4" fill="rgb(26,76,50)" /><rect x="71" y="83" width="19" height="4" fill="rgb(26,76,50)" /><rect x="143" y="83" width="19" height="4" fill="rgb(60,45,140)" /><rect x="35" y="86" width="19" height="4" fill="rgb(26,76,50)" /><rect x="53" y="86" width="19" height="4" fill="rgb(26,76,50)" /><rect x="71" y="86" width="19" height="4" fill="rgb(26,76,50)" /><rect x="143" y="86" width="19" height="4" fill="rgb(51,44,152)" /><rect x="35" y="89" width="19" height="4" fill="rgb(26,76,50)" /><rect x="71" y="89" width="19" height="4" fill="rgb(26,76,50)" /><rect x="143" y="89" width="19" height="4" fill="rgb(60,45,140)" /><rect x="521" y="89" width="19" height="4" fill="rgb(26,76,50)" /><rect x="575" y="89" width="19" height="4" fill="rgb(27,76,52)" /><rect x="35" y="92" width="19" height="4" fill="rgb(26,76,50)" /><rect x="71" y="92" width="19" height="4" fill="rgb(26,76,50)" /><rect x="431" y="92" width="19" height="4" fill="rgb(26,76,51)" /><rect x="575" y="92" width="19" height="4" fill="rgb(26,76,50)" /><rect x="611" y="92" width="19" height="4" fill="rgb(26,75,50)" /><rect x="665" y="92" width="19" height="4" fill="rgb(26,76,50)" /><rect x="683" y="92" width="19" height="4" fill="rgb(26,76,50)" /><rect x="35" y="95" width="19" height="4" fill="rgb(26,76,50)" /><rect x="71" y="95" width="19" height="4" fill="rgb(26,76,50)" /><rect x="143" y="95" width="19" height="4" fill="rgb(55,44,148)" /><rect x="575" y="95" width="19" height="4" fill="rgb(25,74,51)" /><rect x="17" y="98" width="19" height="4" fill="rgb(26,76,50)" /><rect x="35" y="98" width="19" height="4" fill="rgb(26,76,50)" /><rect x="71" y="98" width="19" height="4" fill="rgb(26,76,50)" /><rect x="143" y="98" width="19" height="4" fill="rgb(53,46,138)" /><rect x="17" y="101" width="19" height="4" fill="rgb(26,76,50)" /><rect x="35" y="101" width="19" height="4" fill="rgb(26,76,50)" /><rect x="71" y="101" width="19" height="4" fill="rgb(26,76,50)" /><rect x="143" y="101" width="19" height="4" fill="rgb(55,44,148)" /><rect x="17" y="104" width="19" height="4" fill="rgb(26,76,50)" /><rect x="71" y="104" width="19" height="4" fill="rgb(26,76,50)" /><rect x="143" y="104" width="19" height="4" fill="rgb(51,44,154)" /><rect x="17" y="107" width="19" height="4" fill="rgb(26,76,50)" /><rect x="35" y="107" width="19" height="4" fill="rgb(26,76,50)" /><rect x="71" y="107" width="19" height="4" fill="rgb(26,76,50)" /><rect x="17" y="110" width="19" height="4" fill="rgb(26,76,50)" /><rect x="35" y="110" width="19" height="4" fill="rgb(26,76,50)" /><rect x="71" y="110" width="19" height="4" fill="rgb(26,76,50)" /><rect x="17" y="113" width="19" height="4" fill="rgb(26,76,50)" /><rect x="35" y="113" width="19" height="4" fill="rgb(26,76,50)" /><rect x="71" y="113" width="19" height="4" fill="rgb(26,76,50)" /><rect x="17" y="116" width="19" height="4" fill="rgb(26,76,50)" /><rect x="35" y="116" width="19" height="4" fill="rgb(26,76,50)" /><rect x="71" y="116" width="19" height="4" fill="rgb(26,76,50)" /><rect x="17" y="119" width="19" height="4" fill="rgb(26,76,50)" /><rect x="35" y="119" width="19" height="4" fill="rgb(26,76,50)" /><rect x="71" y="119" width="19" height="4" fill="rgb(26,76,50)" /><rect x="125" y="119" width="19" height="4" fill="rgb(56,45,147)" /><rect x="143" y="119" width="19" height="4" fill="rgb(55,44,148)" /><rect x="161" y="119" width="19" height="4" fill="rgb(55,45,147)" /><rect x="17" y="122" width="19" height="4" fill="rgb(26,76,50)" /><rect x="35" y="122" width="19" height="4" fill="rgb(26,76,50)" /><rect x="71" y="122" width="19" height="4" fill="rgb(26,76,50)" /><rect x="107" y="122" width="19" height="4" fill="rgb(59,45,140)" /><rect x="125" y="122" width="19" height="4" fill="rgb(59,45,140)" /><rect x="143" y="122" width="19" height="4" fill="rgb(59,45,140)" /><rect x="161" y="122" width="19" height="4" fill="rgb(59,45,140)" /><rect x="17" y="125" width="19" height="12" fill="rgb(26,76,50)" /><rect x="35" y="125" width="19" height="12" fill="rgb(26,76,50)" /><rect x="71" y="125" width="19" height="12" fill="rgb(26,76,50)" /><rect x="107" y="125" width="19" height="12" fill="rgb(53,44,149)" /><rect x="125" y="125" width="19" height="12" fill="rgb(53,44,150)" /><rect x="143" y="125" width="19" height="12" fill="rgb(53,44,150)" /><rect x="161" y="125" width="19" height="12" fill="rgb(53,44,150)" /><g transform="translate(0.000000,137.000000) scale(0.100000,-0.100000)" fill="#194633" stroke="none"><path d="M1470 1357 c0 -2 14 -16 31 -33 26 -24 30 -25 20 -7 -10 19 -51 51 -51 40z"/><path d="M1541 1244 c0 -11 3 -14 6 -6 3 7 2 16 -1 19 -3 4 -6 -2 -5 -13z"/><path d="M1526 1143 c-4 -11 -20 -33 -37 -49 -27 -26 -39 -30 -117 -35 l-87 -6 82 -1 c79 -2 84 -1 118 29 37 33 60 67 52 76 -3 2 -8 -4 -11 -14z"/><path d="M1113 1053 c31 -2 83 -2 115 0 31 2 5 3 -58 3 -63 0 -89 -1 -57 -3z"/><path d="M487 1033 c-4 -3 -7 -11 -7 -17 0 -7 3 -6 8 1 6 9 77 13 277 16 l270 2 -271 3 c-149 1 -274 -1 -277 -5z"/><path d="M7748 993 c7 -3 16 -2 19 1 4 3 -2 6 -13 5 -11 0 -14 -3 -6 -6z"/><path d="M3739 963 c-13 -17 -13 -17 6 -3 11 8 22 16 24 17 2 2 0 3 -6 3 -6 0 -17 -8 -24 -17z"/><path d="M3811 977 c2 -1 13 -9 24 -17 19 -14 19 -14 6 3 -7 9 -18 17 -24 17 -6 0 -8 -1 -6 -3z"/><path d="M7635 973 c-16 -3 -34 -8 -38 -13 -5 -4 15 -3 45 2 82 15 77 23 -7 11z"/><path d="M2330 963 c0 -5 16 -7 36 -5 24 3 40 0 46 -9 8 -12 9 -11 5 1 -4 16 -87 28 -87 13z"/><path d="M4365 961 c139 -4 231 -11 249 -19 16 -7 31 -10 34 -8 3 3 -8 11 -24 18 -20 8 -101 13 -254 13 l-225 2 220 -6z"/><path d="M6610 963 c0 -5 42 -7 92 -5 168 5 185 8 46 10 -76 1 -138 -1 -138 -5z"/><path d="M3720 911 c0 -17 4 -32 8 -35 4 -2 6 11 4 30 -5 42 -12 45 -12 5z"/><path d="M3852 915 c0 -16 2 -22 5 -12 2 9 2 23 0 30 -3 6 -5 -1 -5 -18z"/><path d="M422 905 c-7 -15 -11 -30 -8 -32 7 -7 28 36 24 49 -2 6 -9 -2 -16 -17z"/><path d="M2420 925 c0 -5 5 -17 10 -25 5 -8 10 -10 10 -5 0 6 -5 17 -10 25 -5 8 -10 11 -10 5z"/><path d="M4675 914 c11 -10 28 -28 39 -39 18 -20 18 -20 4 4 -8 14 -25 31 -39 40 -24 15 -24 15 -4 -5z"/><path d="M7590 919 c0 -5 14 -9 30 -9 30 0 30 0 30 -59 0 -38 -4 -61 -12 -64 -8 -3 -6 -6 5 -6 16 -1 18 7 15 66 -3 67 -3 67 -35 74 -18 3 -33 3 -33 -2z"/><path d="M3482 903 c-24 -8 -41 -17 -39 -19 4 -5 97 26 97 32 0 6 -11 4 -58 -13z"/><path d="M3562 880 c-1 -25 -5 -56 -7 -70 l-6 -25 11 25 c6 13 9 45 7 70 l-3 45 -2 -45z"/><path d="M4156 908 c3 -4 14 -8 24 -8 10 0 21 -6 23 -12 4 -8 6 -7 6 3 1 11 -9 18 -28 21 -17 2 -28 1 -25 -4z"/><path d="M6625 910 c11 -5 29 -8 40 -8 16 0 15 2 -5 8 -34 11 -60 11 -35 0z"/><path d="M6830 910 c-20 -6 -21 -8 -5 -8 11 0 29 3 40 8 25 11 -1 11 -35 0z"/><path d="M7172 903 c-24 -8 -41 -17 -39 -19 4 -5 97 26 97 32 0 6 -11 4 -58 -13z"/><path d="M4378 903 c6 -2 18 -2 25 0 6 3 1 5 -13 5 -14 0 -19 -2 -12 -5z"/><path d="M4428 903 c6 -2 18 -2 25 0 6 3 1 5 -13 5 -14 0 -19 -2 -12 -5z"/><path d="M4341 828 c2 -77 6 -69 11 20 2 28 0 52 -4 52 -5 0 -7 -33 -7 -72z"/><path d="M4478 893 c6 -2 18 -2 25 0 6 3 1 5 -13 5 -14 0 -19 -2 -12 -5z"/><path d="M2455 843 c16 -38 25 -52 25 -39 0 12 -29 76 -35 76 -3 0 2 -17 10 -37z"/><path d="M4570 855 c13 -14 26 -25 28 -25 3 0 -5 11 -18 25 -13 14 -26 25 -28 25 -3 0 5 -11 18 -25z"/><path d="M4214 680 c0 -107 2 -151 3 -97 2 53 2 141 0 195 -1 53 -3 9 -3 -98z"/><path d="M2274 824 c-8 -20 -13 -39 -10 -42 3 -3 6 -3 6 0 0 3 7 22 15 42 8 20 13 36 10 36 -3 0 -13 -16 -21 -36z"/><path d="M3747 848 c2 -5 22 -8 43 -8 21 0 41 3 43 8 3 4 -17 7 -43 7 -26 0 -46 -3 -43 -7z"/><path d="M4746 813 c16 -37 16 -173 1 -218 -4 -11 -1 -6 7 10 20 39 20 165 2 210 -8 19 -17 35 -20 35 -3 0 2 -17 10 -37z"/><path d="M386 825 c-9 -26 -7 -32 5 -12 6 10 9 21 6 23 -2 3 -7 -2 -11 -11z"/><path d="M6684 685 c0 -88 2 -123 3 -77 2 46 2 118 0 160 -1 42 -3 5 -3 -83z"/><path d="M7130 798 c0 -23 -8 -39 -27 -56 l-28 -24 33 22 c26 17 32 28 32 56 0 19 -2 34 -5 34 -3 0 -5 -14 -5 -32z"/><path d="M7244 790 l1 -35 53 2 c54 2 58 -2 43 -42 -6 -16 -17 -19 -57 -18 l-49 1 45 -7 c59 -9 67 -6 74 31 9 43 1 49 -54 42 l-49 -6 -4 33 -4 34 1 -35z"/><path d="M4606 807 c3 -10 9 -15 12 -12 3 3 0 11 -7 18 -10 9 -11 8 -5 -6z"/><path d="M2330 793 c1 -11 49 -100 50 -91 0 11 -39 98 -45 98 -3 0 -5 -3 -5 -7z"/><path d="M5268 793 c9 -7 11 -45 10 -144 -3 -136 4 -169 35 -169 6 0 2 6 -9 14 -17 13 -19 27 -19 157 0 118 -3 143 -15 146 -11 3 -12 2 -2 -4z"/><path d="M5507 793 c6 -4 13 -24 16 -43 4 -34 4 -33 3 4 -1 26 -6 41 -16 43 -10 3 -11 2 -3 -4z"/><path d="M355 759 c-9 -17 -15 -33 -13 -35 3 -2 12 12 21 31 21 43 13 47 -8 4z"/><path d="M2480 785 c0 -5 5 -17 10 -25 5 -8 10 -10 10 -5 0 6 -5 17 -10 25 -5 8 -10 11 -10 5z"/><path d="M3381 763 c-2 -49 14 -82 38 -76 13 3 21 -1 24 -14 4 -14 5 -13 6 6 1 20 -3 23 -24 19 -19 -4 -25 -1 -25 12 0 10 11 25 25 34 14 9 25 21 25 26 0 5 -12 -2 -27 -17 l-28 -25 -6 33 -6 34 -2 -32z"/><path d="M5009 778 c-8 -7 -23 -24 -34 -38 -12 -16 -6 -12 18 9 20 19 37 36 37 38 0 6 -6 3 -21 -9z"/><path d="M5091 774 c0 -11 3 -14 6 -6 3 7 2 16 -1 19 -3 4 -6 -2 -5 -13z"/><path d="M5868 783 c7 -3 16 -2 19 1 4 3 -2 6 -13 5 -11 0 -14 -3 -6 -6z"/><path d="M6288 783 c7 -3 16 -2 19 1 4 3 -2 6 -13 5 -11 0 -14 -3 -6 -6z"/><path d="M2763 760 c-18 -11 -33 -22 -33 -26 0 -4 60 28 79 43 16 12 -20 -1 -46 -17z"/><path d="M2983 757 c12 -13 24 -22 26 -20 6 4 -30 43 -40 43 -5 0 2 -10 14 -23z"/><path d="M3178 773 c7 -3 16 -2 19 1 4 3 -2 6 -13 5 -11 0 -14 -3 -6 -6z"/><path d="M3270 748 c-15 -21 -17 -28 -6 -19 16 13 41 51 33 51 -2 0 -14 -15 -27 -32z"/><path d="M3768 773 c7 -3 16 -2 19 1 4 3 -2 6 -13 5 -11 0 -14 -3 -6 -6z"/><path d="M4621 764 c0 -11 3 -14 6 -6 3 7 2 16 -1 19 -3 4 -6 -2 -5 -13z"/><path d="M4888 773 c7 -3 16 -2 19 1 4 3 -2 6 -13 5 -11 0 -14 -3 -6 -6z"/><path d="M5198 773 c7 -3 16 -2 19 1 4 3 -2 6 -13 5 -11 0 -14 -3 -6 -6z"/><path d="M5438 773 c7 -3 16 -2 19 1 4 3 -2 6 -13 5 -11 0 -14 -3 -6 -6z"/><path d="M6112 773 c-7 -2 -17 -14 -23 -26 -11 -20 -10 -20 17 3 16 14 31 26 33 28 7 4 -14 1 -27 -5z"/><path d="M7470 756 c-55 -37 -80 -70 -85 -112 -4 -34 -4 -35 3 -9 14 52 31 74 85 110 28 19 47 35 42 34 -6 0 -26 -11 -45 -23z"/><path d="M2320 768 c0 -3 -7 -22 -15 -42 -8 -20 -13 -36 -10 -36 8 0 36 73 30 78 -3 3 -5 3 -5 0z"/><path d="M3086 762 c-2 -4 11 -6 30 -4 19 2 34 6 34 8 0 8 -59 4 -64 -4z"/><path d="M3557 756 c3 -4 27 -5 53 -2 45 6 48 5 54 -19 5 -18 15 -27 37 -32 l30 -6 -3 -121 -3 -121 -27 -3 c-24 -3 -28 -8 -28 -33 l0 -29 120 0 120 0 0 29 c0 23 -5 30 -27 34 -36 7 -43 0 -9 -9 17 -4 26 -13 26 -25 0 -17 -9 -19 -110 -19 -103 0 -110 1 -110 20 0 13 7 20 18 20 36 0 42 20 42 143 l0 119 -30 11 c-18 7 -30 19 -30 29 0 20 -3 21 -76 22 -29 1 -50 -3 -47 -8z"/><path d="M3703 763 c9 -2 25 -2 35 0 9 3 1 5 -18 5 -19 0 -27 -2 -17 -5z"/><path d="M4794 756 c-10 -27 1 -50 29 -57 15 -4 27 -4 27 1 0 4 -11 11 -25 14 -39 10 -33 44 8 49 l32 4 -33 1 c-20 1 -35 -3 -38 -12z"/><path d="M5108 756 c-10 -7 -18 -17 -18 -21 0 -12 33 -34 53 -35 15 0 17 -12 18 -112 0 -62 5 -122 10 -133 8 -17 9 -17 4 5 -2 14 -5 76 -5 138 l0 113 -30 6 c-40 7 -36 35 5 44 27 6 27 7 5 7 -14 1 -33 -5 -42 -12z"/><path d="M5373 763 c9 -2 23 -2 30 0 6 3 -1 5 -18 5 -16 0 -22 -2 -12 -5z"/><path d="M5672 763 c-7 -2 -17 -14 -23 -26 -11 -21 -10 -20 15 2 14 14 26 26 26 28 0 3 0 3 -18 -4z"/><path d="M5928 763 c7 -3 16 -2 19 1 4 3 -2 6 -13 5 -11 0 -14 -3 -6 -6z"/><path d="M5965 765 c23 -8 85 -10 85 -3 0 4 -21 8 -47 7 -27 0 -43 -2 -38 -4z"/><path d="M6030 720 c-7 -13 -21 -20 -40 -20 -27 0 -30 -3 -29 -32 2 -30 2 -30 6 -6 3 20 11 28 30 30 21 2 68 48 50 48 -4 0 -11 -9 -17 -20z"/><path d="M6172 728 c-21 -21 -14 -58 13 -68 49 -18 80 -21 35 -3 -53 22 -67 57 -28 72 14 6 17 10 8 10 -9 1 -21 -4 -28 -11z"/><path d="M6250 727 c15 -7 28 -25 31 -42 l7 -30 1 32 c1 32 -19 53 -51 53 -7 0 -2 -6 12 -13z"/><path d="M5830 721 c0 -6 4 -13 10 -16 6 -3 7 1 4 9 -7 18 -14 21 -14 7z"/><path d="M7514 704 c-34 -51 -27 -172 11 -204 8 -7 6 3 -6 27 -31 62 -22 158 19 189 10 8 12 13 5 14 -7 0 -20 -12 -29 -26z"/><path d="M7618 710 l34 -21 -4 -94 c-1 -51 0 -88 4 -82 4 7 8 49 8 94 0 76 -2 83 -26 102 -15 12 -32 21 -38 21 -6 0 4 -9 22 -20z"/><path d="M2792 708 c-7 -7 -12 -17 -12 -22 0 -6 5 -3 11 7 13 22 57 22 89 0 l25 -17 -19 22 c-21 24 -74 30 -94 10z"/><path d="M3011 704 c0 -11 3 -14 6 -6 3 7 2 16 -1 19 -3 4 -6 -2 -5 -13z"/><path d="M3084 711 c7 -11 56 -21 56 -11 0 4 -10 10 -22 14 -32 8 -40 7 -34 -3z"/><path d="M3648 708 c-3 -8 -23 -12 -54 -11 l-49 1 45 -7 c53 -8 70 -4 70 15 0 17 -7 18 -12 2z"/><path d="M5355 710 c3 -5 15 -10 27 -10 19 0 20 -4 16 -101 -2 -55 -1 -92 3 -82 4 10 8 57 8 104 1 82 0 87 -21 93 -33 8 -40 7 -33 -4z"/><path d="M320 689 c-7 -11 -10 -23 -7 -25 2 -2 9 7 15 21 14 30 7 33 -8 4z"/><path d="M2532 660 c11 -28 23 -49 25 -47 4 5 -34 97 -41 97 -3 0 5 -23 16 -50z"/><path d="M4631 694 c0 -11 3 -14 6 -6 3 7 2 16 -1 19 -3 4 -6 -2 -5 -13z"/><path d="M6332 685 c0 -16 2 -22 5 -12 2 9 2 23 0 30 -3 6 -5 -1 -5 -18z"/><path d="M6061 684 c0 -11 3 -14 6 -6 3 7 2 16 -1 19 -3 4 -6 -2 -5 -13z"/><path d="M7112 693 c12 -3 18 -18 21 -51 l3 -47 2 53 c2 48 0 52 -20 51 -17 -1 -18 -3 -6 -6z"/><path d="M3264 668 l-19 -23 22 19 c15 12 32 17 52 14 17 -2 28 -1 25 4 -11 17 -61 8 -80 -14z"/><path d="M4977 672 c-10 -10 -17 -23 -17 -28 0 -4 7 2 16 14 17 25 61 30 84 10 12 -11 12 -10 1 5 -17 22 -63 22 -84 -1z"/><path d="M5622 660 c0 -19 2 -27 5 -17 2 9 2 25 0 35 -3 9 -5 1 -5 -18z"/><path d="M2201 644 c-6 -15 -9 -29 -7 -32 3 -2 10 8 16 23 14 36 7 43 -9 9z"/><path d="M2900 656 c0 -8 -6 -17 -12 -19 -8 -3 -6 -6 5 -6 11 -1 17 6 17 19 0 11 -2 20 -5 20 -3 0 -5 -6 -5 -14z"/><path d="M6060 636 c0 -14 4 -27 8 -30 5 -3 6 8 4 25 -5 35 -12 38 -12 5z"/><path d="M2330 630 l-75 -6 78 -2 c46 -1 77 2 77 8 0 6 -1 9 -2 8 -2 -1 -37 -4 -78 -8z"/><path d="M5741 624 c0 -11 3 -14 6 -6 3 7 2 16 -1 19 -3 4 -6 -2 -5 -13z"/><path d="M286 621 c-11 -17 -27 -66 -19 -56 12 13 34 65 28 65 -2 0 -6 -4 -9 -9z"/><path d="M4621 614 c0 -11 3 -14 6 -6 3 7 2 16 -1 19 -3 4 -6 -2 -5 -13z"/><path d="M6333 607 c12 -13 24 -22 26 -20 6 4 -30 43 -40 43 -5 0 2 -10 14 -23z"/><path d="M2765 606 c-17 -7 -37 -21 -45 -32 -14 -18 -14 -18 6 -2 11 10 38 24 60 32 21 8 32 15 24 15 -8 0 -29 -6 -45 -13z"/><path d="M5620 611 c0 -6 4 -13 10 -16 6 -3 7 1 4 9 -7 18 -14 21 -14 7z"/><path d="M5937 591 c-9 -16 -30 -34 -47 -41 -17 -7 -29 -15 -26 -17 8 -9 66 28 82 53 9 13 15 27 12 29 -2 2 -12 -8 -21 -24z"/><path d="M3011 538 c0 -42 2 -79 7 -81 4 -3 6 20 4 51 -5 98 -9 110 -11 30z"/><path d="M5827 593 c-15 -15 -22 -16 -50 -5 -29 10 -30 10 -13 -3 27 -20 50 -19 71 5 22 24 16 27 -8 3z"/><path d="M7372 575 c0 -16 2 -22 5 -12 2 9 2 23 0 30 -3 6 -5 -1 -5 -18z"/><path d="M7762 565 c0 -16 2 -22 5 -12 2 9 2 23 0 30 -3 6 -5 -1 -5 -18z"/><path d="M2829 559 c-19 -16 -20 -18 -4 -10 34 17 51 31 39 31 -7 0 -22 -9 -35 -21z"/><path d="M5640 576 c0 -3 10 -14 22 -26 21 -20 22 -20 2 -36 -18 -15 -18 -15 3 -4 34 16 35 25 3 49 -17 12 -30 19 -30 17z"/><path d="M6100 571 c0 -11 12 -15 85 -31 57 -13 75 -25 75 -51 0 -38 -75 -52 -120 -23 l-25 16 24 -21 c28 -25 78 -27 109 -5 46 32 18 76 -62 94 -27 6 -57 15 -67 21 -12 6 -19 6 -19 0z"/><path d="M2232 545 c-17 -37 -14 -45 4 -12 l15 28 95 -3 c52 -2 94 0 94 5 0 4 -44 7 -98 7 -96 0 -99 -1 -110 -25z"/><path d="M4716 541 c-9 -16 -34 -45 -58 -65 -23 -20 -39 -36 -35 -36 14 0 89 74 103 102 8 15 12 28 10 28 -3 0 -12 -13 -20 -29z"/><path d="M6362 535 c0 -16 2 -22 5 -12 2 9 2 23 0 30 -3 6 -5 -1 -5 -18z"/><path d="M7006 528 c-8 -41 0 -49 9 -9 5 22 12 31 27 31 18 0 20 -4 14 -37 -3 -21 -6 -55 -6 -75 l0 -38 -205 0 c-167 0 -205 3 -205 14 0 7 10 21 23 31 22 17 22 17 -3 2 -14 -8 -25 -23 -25 -33 0 -18 12 -19 208 -22 161 -2 208 0 211 10 3 7 7 46 11 86 l6 72 -29 0 c-25 0 -30 -5 -36 -32z"/><path d="M2580 548 c0 -4 10 -28 22 -53 16 -32 28 -45 42 -44 20 0 20 1 2 8 -10 4 -29 27 -42 52 -13 24 -23 41 -24 37z"/><path d="M7242 525 c0 -16 2 -22 5 -12 2 9 2 23 0 30 -3 6 -5 -1 -5 -18z"/><path d="M4564 508 l-29 -33 33 29 c17 17 32 31 32 33 0 8 -8 1 -36 -29z"/><path d="M6058 483 c-5 -68 4 -82 58 -88 l39 -5 -45 12 -45 13 3 63 c2 34 2 62 -1 62 -3 0 -7 -26 -9 -57z"/><path d="M6112 515 c0 -16 2 -22 5 -12 2 9 2 23 0 30 -3 6 -5 -1 -5 -18z"/><path d="M7381 519 c-1 -14 6 -34 14 -45 14 -18 14 -17 6 11 -17 57 -19 60 -20 34z"/><path d="M3550 516 c0 -8 4 -17 9 -20 5 -4 7 3 4 14 -6 23 -13 26 -13 6z"/><path d="M5828 523 c7 -3 16 -2 19 1 4 3 -2 6 -13 5 -11 0 -14 -3 -6 -6z"/><path d="M7879 508 l-12 -23 24 20 c13 11 26 21 28 22 2 2 -3 3 -12 3 -9 0 -22 -10 -28 -22z"/><path d="M7951 527 c2 -1 14 -11 27 -21 12 -11 22 -16 22 -13 0 10 -31 37 -42 37 -6 0 -9 -1 -7 -3z"/><path d="M4343 488 c2 -32 3 -33 54 -36 28 -2 66 1 85 6 24 7 11 8 -49 4 l-82 -5 -5 32 -6 31 3 -32z"/><path d="M5734 509 c-13 -22 16 -30 107 -26 l94 3 -99 2 c-83 2 -97 4 -92 17 6 17 0 20 -10 4z"/><path d="M2886 495 c-11 -8 -15 -15 -9 -15 6 0 16 7 23 15 16 19 11 19 -14 0z"/><path d="M2130 480 c-6 -11 -17 -20 -25 -20 -7 0 -16 -4 -19 -9 -4 -5 5 -6 20 -2 15 4 31 17 35 29 10 27 3 29 -11 2z"/><path d="M2464 483 c2 -14 -2 -23 -13 -26 -11 -3 -9 -5 7 -6 24 -1 26 4 11 34 -9 19 -9 19 -5 -2z"/><path d="M5360 490 c-9 -6 -10 -10 -3 -10 6 0 15 5 18 10 8 12 4 12 -15 0z"/><path d="M3132 470 c0 -14 2 -19 5 -12 2 6 2 18 0 25 -3 6 -5 1 -5 -13z"/><path d="M216 473 c-10 -10 -47 -95 -43 -99 2 -2 15 21 30 51 26 53 29 63 13 48z"/><path d="M629 463 c-9 -11 -10 -14 -2 -9 10 5 13 -45 16 -226 l2 -233 3 243 c1 133 0 242 -2 242 -2 0 -10 -8 -17 -17z"/><path d="M3603 473 c46 -5 48 -22 6 -57 -17 -14 -27 -26 -22 -26 5 0 22 13 37 29 38 39 29 62 -21 59 l-38 -1 38 -4z"/><path d="M4192 452 c-11 -25 -11 -25 4 -10 9 9 15 21 13 27 -2 6 -10 -2 -17 -17z"/><path d="M4840 467 c0 -11 -8 -17 -25 -17 -21 0 -25 -5 -25 -30 l0 -30 123 2 122 2 -117 3 c-110 3 -118 5 -118 23 0 13 7 20 20 20 21 0 38 25 26 37 -3 4 -6 -1 -6 -10z"/><path d="M5983 469 c11 -6 25 -25 33 -43 7 -17 13 -24 14 -15 0 20 -37 69 -53 69 -7 0 -4 -5 6 -11z"/><path d="M6950 470 l-45 -7 42 -1 c23 -1 45 3 48 8 3 6 5 9 3 8 -2 0 -23 -4 -48 -8z"/><path d="M7268 473 c12 -2 32 -2 45 0 12 2 2 4 -23 4 -25 0 -35 -2 -22 -4z"/><path d="M3250 460 c0 -5 5 -10 11 -10 5 0 7 5 4 10 -3 6 -8 10 -11 10 -2 0 -4 -4 -4 -10z"/><path d="M6828 463 c12 -2 32 -2 45 0 12 2 2 4 -23 4 -25 0 -35 -2 -22 -4z"/><path d="M2210 456 c0 -2 13 -6 29 -8 17 -2 28 -1 25 4 -5 8 -54 12 -54 4z"/><path d="M3440 448 c0 -21 38 -58 59 -58 10 0 6 5 -9 13 -13 7 -30 24 -37 37 -9 18 -13 20 -13 8z"/><path d="M5376 431 c-39 -41 -94 -49 -148 -22 l-42 20 22 -21 c17 -18 34 -22 77 -22 46 0 59 4 84 28 26 25 30 26 34 9 3 -12 5 -9 6 10 0 15 0 27 -2 27 -2 0 -16 -13 -31 -29z"/><path d="M6324 439 c-12 -11 -38 -27 -60 -34 -21 -8 -31 -14 -21 -15 24 0 68 23 91 49 25 27 17 27 -10 0z"/><path d="M7645 451 c-3 -5 -1 -12 5 -16 5 -3 10 1 10 9 0 18 -6 21 -15 7z"/><path d="M7798 446 c12 -5 22 -18 22 -28 0 -15 -12 -18 -87 -21 l-88 -3 93 -2 92 -2 0 30 c0 19 -5 30 -14 30 -8 0 -20 1 -28 3 -7 2 -3 -1 10 -7z"/><path d="M2410 420 l0 -30 133 2 132 2 -129 3 -128 4 5 24 c2 14 0 25 -4 25 -5 0 -9 -13 -9 -30z"/><path d="M2672 430 c0 -14 2 -19 5 -12 2 6 2 18 0 25 -3 6 -5 1 -5 -13z"/><path d="M2901 423 l-1 -33 85 0 c47 0 85 3 85 8 0 4 -36 6 -79 4 l-80 -3 -4 28 c-4 27 -4 27 -6 -4z"/><path d="M3048 443 c7 -3 16 -2 19 1 4 3 -2 6 -13 5 -11 0 -14 -3 -6 -6z"/><path d="M3088 443 c6 -2 18 -2 25 0 6 3 1 5 -13 5 -14 0 -19 -2 -12 -5z"/><path d="M3288 443 c6 -2 18 -2 25 0 6 3 1 5 -13 5 -14 0 -19 -2 -12 -5z"/><path d="M4998 443 c6 -2 18 -2 25 0 6 3 1 5 -13 5 -14 0 -19 -2 -12 -5z"/><path d="M5553 443 c9 -2 17 -13 17 -23 0 -17 -10 -20 -82 -23 l-83 -3 88 -2 87 -2 0 30 c0 25 -4 30 -22 29 -17 -1 -19 -2 -5 -6z"/><path d="M7299 420 c-15 -17 -21 -30 -15 -30 6 0 20 14 29 30 23 37 19 37 -14 0z"/><path d="M599 423 c-13 -16 -12 -17 4 -4 9 7 17 15 17 17 0 8 -8 3 -21 -13z"/><path d="M2862 417 c-30 -29 -100 -31 -131 -3 -18 16 -21 17 -16 3 9 -21 68 -40 103 -32 28 6 78 42 70 50 -2 2 -14 -6 -26 -18z"/><path d="M4570 423 c-29 -14 -69 -17 -217 -18 -101 0 -183 -3 -183 -7 0 -12 302 -9 358 3 28 5 58 17 68 24 25 19 17 18 -26 -2z"/><path d="M7434 422 c23 -27 87 -46 126 -37 15 3 38 18 51 33 l24 27 -28 -25 c-39 -34 -109 -34 -158 0 -32 23 -33 23 -15 2z"/><path d="M7140 422 c0 -15 38 -35 53 -28 8 3 7 5 -2 5 -8 1 -23 8 -33 18 -10 9 -18 11 -18 5z"/><path d="M7873 420 c9 -35 83 -47 112 -19 6 6 -1 6 -18 0 -34 -13 -73 -5 -88 18 -8 12 -9 12 -6 1z"/><path d="M5647 410 c9 -10 6 -19 -18 -40 -21 -21 -29 -37 -29 -64 0 -46 47 -102 98 -116 70 -19 210 -7 227 20 3 5 -13 3 -36 -5 -58 -21 -155 -19 -205 4 -88 40 -101 123 -27 173 l22 14 -22 13 c-17 10 -19 10 -10 1z"/><path d="M3080 398 c0 -5 55 -7 123 -6 124 2 109 5 -41 10 -45 2 -82 0 -82 -4z"/><path d="M569 383 c-13 -16 -12 -17 4 -4 16 13 21 21 13 21 -2 0 -10 -8 -17 -17z"/><path d="M2128 393 c29 -2 74 -2 100 0 26 2 2 3 -53 3 -55 0 -76 -1 -47 -3z"/><path d="M3533 383 c9 -2 23 -2 30 0 6 3 -1 5 -18 5 -16 0 -22 -2 -12 -5z"/><path d="M5722 374 c-12 -8 -22 -20 -22 -26 0 -7 9 -2 20 10 18 19 31 22 101 22 l80 0 14 -32 c8 -18 14 -26 15 -18 0 9 -7 26 -16 38 -13 19 -24 22 -92 22 -54 0 -84 -5 -100 -16z"/><path d="M6173 383 c9 -2 25 -2 35 0 9 3 1 5 -18 5 -19 0 -27 -2 -17 -5z"/><path d="M7223 383 c9 -2 23 -2 30 0 6 3 -1 5 -18 5 -16 0 -22 -2 -12 -5z"/><path d="M530 333 l-22 -28 46 -3 45 -3 4 -150 3 -149 -1 152 0 153 -37 3 c-37 3 -38 3 -22 28 22 33 11 31 -16 -3z"/><path d="M6017 330 c-4 -16 -23 -47 -43 -70 -20 -22 -30 -38 -21 -34 24 9 67 69 73 104 4 16 4 30 2 30 -3 0 -8 -13 -11 -30z"/><path d="M5691 314 c0 -11 3 -14 6 -6 3 7 2 16 -1 19 -3 4 -6 -2 -5 -13z"/><path d="M120 279 c-12 -23 -20 -43 -18 -45 3 -2 14 17 26 41 27 56 20 60 -8 4z"/><path d="M5906 295 c-9 -26 -7 -32 5 -12 6 10 9 21 6 23 -2 3 -7 -2 -11 -11z"/><path d="M5710 272 c0 -15 55 -34 82 -29 19 4 18 5 -7 6 -17 0 -41 8 -53 17 -12 8 -22 11 -22 6z"/><path d="M5850 254 c-24 -9 -29 -13 -14 -13 11 -1 29 6 40 14 22 17 20 17 -26 -1z"/><path d="M86 203 c-6 -14 -5 -15 5 -6 7 7 10 15 7 18 -3 3 -9 -2 -12 -12z"/><path d="M51 133 c-10 -26 -10 -27 4 -9 8 11 15 23 15 28 0 15 -7 8 -19 -19z"/><path d="M26 85 c-9 -26 -7 -32 5 -12 6 10 9 21 6 23 -2 3 -7 -2 -11 -11z"/></g><g transform="translate(0.000000,137.000000) scale(0.100000,-0.100000)" fill="#1F4C33" stroke="none"><path d="M1253 1363 l-182 -3 -3 -148 -3 -147 193 0 c109 0 192 4 192 9 0 5 2 7 5 4 3 -3 19 7 34 23 47 46 63 98 48 154 -3 11 -6 21 -7 23 -2 1 -3 5 -4 10 -2 12 -60 67 -68 64 -5 -1 -8 3 -8 8 0 6 -3 9 -7 8 -5 -2 -90 -4 -190 -5z"/><path d="M495 1020 c3 -5 1 -10 -5 -10 -6 0 -8 -4 -5 -10 3 -5 1 -10 -5 -10 -6 0 -8 -4 -5 -10 3 -5 1 -10 -5 -10 -6 0 -8 -4 -5 -10 3 -5 1 -10 -5 -10 -6 0 -8 -4 -5 -10 3 -5 1 -10 -4 -10 -6 0 -10 -3 -9 -7 4 -15 -13 -53 -23 -53 -6 0 -7 -4 -4 -10 3 -5 1 -10 -6 -10 -7 0 -9 -3 -6 -7 4 -3 -8 -34 -27 -69 -19 -34 -32 -65 -29 -68 4 -3 1 -6 -6 -6 -7 0 -9 -4 -6 -10 3 -5 1 -10 -6 -10 -7 0 -10 -3 -6 -6 3 -4 -1 -13 -9 -21 -8 -8 -12 -19 -9 -24 4 -5 1 -9 -5 -9 -6 0 -8 -4 -5 -10 3 -5 1 -10 -5 -10 -6 0 -9 -4 -5 -9 3 -5 -1 -16 -9 -24 -8 -8 -12 -17 -9 -21 4 -3 1 -6 -6 -6 -7 0 -9 -4 -6 -10 3 -5 1 -10 -6 -10 -7 0 -9 -3 -6 -7 4 -3 -9 -35 -28 -70 -19 -35 -32 -63 -29 -63 3 0 -4 -12 -15 -26 -11 -15 -18 -30 -15 -35 3 -5 0 -9 -6 -9 -6 0 -8 -4 -5 -10 3 -5 1 -10 -5 -10 -6 0 -8 -4 -5 -10 3 -5 1 -10 -5 -10 -6 0 -8 -4 -5 -10 3 -5 1 -10 -5 -10 -6 0 -8 -4 -5 -10 3 -5 1 -10 -5 -10 -6 0 -9 -4 -5 -9 3 -5 -1 -16 -9 -24 -8 -8 -12 -17 -9 -21 4 -3 1 -6 -5 -6 -7 0 -11 -3 -10 -7 4 -15 -14 -53 -24 -53 -6 0 -8 -3 -5 -7 4 -3 -4 -25 -18 -48 -13 -23 -21 -45 -18 -49 3 -3 138 -6 300 -6 l293 0 0 150 c0 83 -3 149 -7 149 -5 -1 -25 -1 -45 0 -31 1 -36 4 -31 19 4 9 15 23 25 30 10 7 16 17 13 22 -3 5 4 14 15 20 11 6 18 15 15 21 -4 5 1 12 10 15 9 4 21 17 26 30 22 60 29 16 31 -213 l3 -238 182 -3 183 -2 2 515 3 515 -268 0 c-176 0 -266 -3 -262 -10z"/><path d="M7730 977 c0 -5 -7 -7 -15 -3 -8 3 -15 1 -15 -5 0 -6 -7 -8 -16 -5 -9 3 -21 3 -27 -1 -7 -5 -23 -8 -36 -8 -39 0 -35 -21 6 -31 l38 -9 3 -72 c3 -71 -1 -79 -33 -62 -9 4 -82 3 -95 -1 -3 -2 -8 -2 -12 -1 -5 0 -8 -4 -8 -10 0 -5 -4 -7 -10 -4 -5 3 -10 1 -10 -4 0 -6 -7 -11 -15 -11 -8 0 -15 -4 -15 -10 0 -5 -6 -10 -13 -10 -14 0 -39 -27 -52 -55 -23 -55 -28 -104 -14 -148 7 -23 12 -45 11 -49 -1 -5 3 -8 10 -8 6 0 8 -3 5 -7 -9 -9 22 -43 40 -43 7 0 13 -5 13 -11 0 -5 5 -7 10 -4 6 3 15 3 22 -1 19 -12 57 -14 64 -3 3 5 9 7 14 4 4 -3 15 7 24 20 9 14 21 23 26 20 5 -3 13 3 19 12 13 25 25 9 12 -15 -6 -12 -11 -24 -11 -29 0 -4 38 -7 85 -5 88 4 105 14 58 35 l-28 12 1 267 c1 253 0 266 -18 265 -10 -1 -18 -5 -18 -10z m-117 -249 c53 -30 57 -38 57 -110 0 -67 -9 -98 -35 -125 -7 -7 -15 -9 -19 -6 -3 4 -6 2 -6 -4 0 -5 -13 -10 -30 -10 -16 0 -30 4 -30 9 0 4 -5 7 -11 5 -12 -2 -41 44 -49 78 -7 34 -1 108 10 123 2 1 3 7 4 13 4 33 68 49 109 27z"/><path d="M3770 969 c0 -5 -4 -8 -9 -5 -16 10 -29 -18 -26 -57 3 -47 6 -50 55 -50 49 0 52 3 55 50 3 39 -10 67 -26 57 -5 -3 -9 0 -9 5 0 6 -9 11 -20 11 -11 0 -20 -5 -20 -11z"/><path d="M2343 951 c-5 -3 -10 -15 -11 -26 -2 -11 -9 -23 -15 -27 -7 -4 -9 -8 -4 -8 4 0 0 -11 -9 -25 -9 -14 -13 -25 -10 -25 4 0 1 -10 -6 -22 -7 -13 -11 -26 -10 -30 1 -5 -3 -8 -10 -8 -6 0 -8 -3 -5 -7 4 -3 2 -12 -4 -20 -6 -7 -8 -13 -5 -13 4 0 1 -10 -6 -22 -7 -13 -11 -26 -10 -30 1 -5 -3 -8 -9 -8 -5 0 -8 -4 -4 -9 3 -5 1 -12 -5 -16 -6 -4 -8 -10 -5 -15 3 -5 -2 -15 -11 -24 -8 -9 -16 -25 -17 -36 -1 -11 -5 -20 -9 -20 -4 0 -7 -3 -6 -7 1 -5 -3 -18 -10 -29 -6 -12 -8 -24 -5 -28 3 -3 1 -6 -6 -6 -7 0 -10 -4 -7 -8 9 -14 -13 -37 -36 -37 -13 0 -24 -7 -26 -17 -3 -14 9 -17 91 -20 93 -3 93 -3 89 20 -4 19 -9 22 -27 18 -18 -5 -24 -1 -27 19 -3 13 -3 27 0 30 3 3 7 16 9 28 2 12 8 24 13 25 6 2 8 8 4 13 -3 5 42 9 106 9 96 0 111 -2 106 -15 -3 -8 0 -15 6 -15 6 0 8 -3 5 -7 -4 -3 -2 -12 4 -19 6 -7 13 -26 15 -41 4 -26 2 -29 -23 -28 -18 0 -29 -6 -31 -17 -3 -16 8 -18 122 -18 121 0 126 1 126 21 0 18 -4 20 -25 15 -18 -5 -25 -2 -25 9 0 8 -5 15 -11 15 -5 0 -7 5 -4 10 3 6 1 10 -4 10 -6 0 -10 3 -9 8 1 4 -3 17 -10 28 -6 12 -8 24 -5 28 3 3 1 6 -6 6 -7 0 -10 4 -6 9 3 5 1 12 -5 16 -6 4 -8 11 -5 16 4 5 1 9 -6 9 -7 0 -9 3 -6 6 3 4 1 16 -5 28 -7 11 -11 24 -10 29 1 4 -3 7 -8 7 -5 0 -9 3 -8 8 1 4 -3 17 -10 28 -6 12 -8 24 -5 28 3 3 1 6 -6 6 -7 0 -10 4 -6 9 3 5 1 12 -5 16 -6 4 -8 11 -5 16 4 5 1 9 -4 9 -6 0 -10 3 -9 8 1 4 -3 17 -10 28 -6 12 -8 24 -5 28 3 3 1 6 -5 6 -7 0 -11 3 -10 8 1 4 -3 17 -10 28 -6 12 -8 24 -5 28 3 3 1 6 -6 6 -7 0 -10 4 -7 8 6 9 -49 12 -61 3z m5 -148 c-1 -5 3 -18 10 -30 7 -13 10 -23 6 -23 -3 0 1 -11 10 -25 9 -14 14 -25 11 -25 -3 0 0 -10 7 -22 7 -13 11 -26 10 -30 -1 -5 3 -8 9 -8 8 0 8 -5 -1 -15 -14 -17 -115 -21 -138 -6 -17 10 -16 19 4 49 9 13 18 36 20 50 3 15 9 29 15 30 5 2 7 8 3 13 -3 5 0 9 7 9 7 0 9 3 6 7 -4 3 -2 12 4 20 13 14 20 17 17 6z"/><path d="M4158 935 c3 -17 9 -24 18 -21 29 11 39 -5 44 -72 10 -137 1 -404 -12 -395 -5 2 -8 -1 -8 -6 0 -6 -7 -11 -15 -11 -8 0 -15 -4 -15 -10 0 -11 320 -18 337 -7 7 5 17 6 22 2 6 -3 21 0 33 7 13 7 26 11 31 10 4 -1 7 3 7 9 0 5 5 7 10 4 6 -3 10 -1 10 4 0 6 5 11 11 11 12 0 73 60 74 72 0 4 8 16 17 28 10 11 15 20 12 20 -4 0 -1 7 6 15 7 8 9 15 5 15 -4 0 -3 6 2 13 13 16 13 158 0 175 -5 6 -6 12 -3 12 10 0 -15 44 -31 53 -7 5 -11 12 -8 17 3 5 0 12 -6 16 -8 5 -10 2 -5 -7 4 -8 -4 0 -18 16 -14 17 -26 26 -26 22 0 -4 -9 -3 -21 3 -39 22 -65 24 -270 27 l-206 4 5 -26z m351 -39 c8 -6 16 -10 18 -8 9 6 22 -1 53 -28 18 -16 30 -30 26 -30 -4 0 0 -7 8 -16 9 -8 14 -19 11 -24 -3 -5 -2 -11 3 -13 6 -5 8 -167 2 -174 -2 -2 -3 -6 -4 -10 -11 -42 -72 -121 -88 -115 -5 1 -8 -3 -8 -10 0 -6 -3 -8 -7 -5 -3 4 -12 2 -19 -3 -6 -6 -16 -10 -20 -9 -5 1 -26 -1 -46 -5 -22 -5 -51 -3 -72 4 l-36 12 0 218 0 219 23 4 c40 8 142 4 156 -7z"/><path d="M6613 945 c-8 -21 1 -28 37 -28 16 0 31 -6 34 -12 2 -6 4 -110 4 -230 0 -162 -4 -222 -13 -232 -7 -6 -15 -10 -18 -7 -2 3 -7 -3 -9 -13 -5 -17 3 -18 116 -13 67 3 157 3 201 0 l81 -5 1 35 c0 19 3 52 5 72 6 43 -13 53 -32 18 -6 -11 -8 -20 -4 -20 3 0 1 -7 -6 -15 -7 -8 -9 -15 -4 -15 5 0 0 -6 -11 -13 -11 -6 -58 -12 -105 -12 l-85 -1 0 221 c0 207 5 253 25 240 14 -9 38 5 43 26 5 18 -1 19 -124 19 -108 0 -131 -3 -136 -15z"/><path d="M3526 905 c-10 -8 -23 -12 -27 -9 -5 3 -9 1 -9 -5 0 -6 -7 -8 -15 -5 -8 4 -15 1 -15 -6 0 -6 -5 -8 -11 -4 -8 4 -10 -12 -8 -52 3 -58 -9 -99 -27 -92 -5 1 -10 -7 -12 -18 -3 -18 1 -21 21 -17 l24 5 -5 -111 c-2 -60 -2 -117 1 -126 4 -8 6 -18 6 -20 0 -8 33 -40 43 -41 4 -1 10 -3 13 -4 23 -11 75 -2 102 18 37 27 35 48 -5 47 -44 -1 -50 12 -51 128 l-2 109 46 -3 c37 -3 49 1 57 15 15 26 -5 41 -55 41 l-42 0 1 83 c1 45 -1 82 -5 82 -3 0 -15 -7 -25 -15z"/><path d="M7216 905 c-10 -8 -23 -12 -27 -9 -5 3 -9 0 -9 -6 0 -7 -7 -10 -15 -6 -8 3 -15 1 -15 -5 0 -6 -4 -8 -9 -5 -5 4 -7 -17 -5 -48 5 -54 -9 -102 -25 -91 -11 6 -34 -22 -27 -33 3 -5 17 -7 31 -5 l25 5 -3 -121 c-2 -67 0 -124 5 -127 5 -3 7 -8 5 -12 -2 -4 4 -15 15 -25 10 -9 18 -14 18 -11 0 4 6 2 13 -3 14 -11 64 -10 90 2 10 4 24 20 32 35 l15 28 -36 -3 c-30 -2 -37 2 -46 24 -5 14 -11 67 -11 116 l-2 90 47 0 c39 0 49 4 57 22 13 28 0 38 -54 38 l-40 0 0 77 c0 42 -2 79 -5 81 -3 3 -14 -1 -24 -8z"/><path d="M2833 777 c-2 -4 -8 -5 -13 -2 -5 3 -15 -1 -23 -9 -8 -8 -17 -12 -21 -9 -3 4 -6 1 -6 -5 0 -7 -6 -12 -13 -12 -9 0 -12 -11 -9 -33 2 -20 9 -34 17 -34 8 0 12 4 9 8 -2 4 0 10 6 14 6 4 7 11 4 17 -4 6 -2 8 4 4 6 -3 13 -2 17 4 20 32 98 -15 103 -61 3 -27 -19 -46 -39 -33 -6 3 -16 0 -24 -6 -8 -7 -15 -9 -15 -5 0 4 -7 2 -15 -5 -8 -7 -15 -9 -15 -5 0 4 -6 2 -13 -4 -8 -6 -17 -8 -20 -4 -4 3 -7 1 -7 -6 0 -7 -3 -10 -7 -8 -5 2 -16 -4 -25 -15 -10 -10 -15 -18 -11 -18 4 0 2 -5 -5 -12 -15 -15 -16 -74 -2 -83 6 -4 9 -9 7 -13 -4 -7 28 -42 38 -42 3 0 6 0 8 -1 23 -6 58 -5 63 2 3 5 9 7 14 4 5 -3 14 4 20 15 6 11 17 20 25 20 7 0 16 6 18 13 3 6 6 0 6 -15 l1 -28 80 0 c64 0 80 3 80 15 0 8 -3 14 -7 13 -5 -1 -19 4 -32 11 -24 13 -24 15 -18 120 4 73 2 117 -6 141 -16 47 -26 61 -38 55 -5 -4 -9 -1 -9 4 0 6 -3 10 -7 10 -5 -1 -12 0 -18 1 -27 6 -97 4 -102 -3z m85 -229 c3 -52 -8 -65 -61 -72 -38 -5 -55 10 -51 44 1 8 2 21 3 28 1 11 40 33 63 36 3 1 10 4 14 9 16 16 29 -1 32 -45z"/><path d="M3238 784 c-4 -3 -14 -7 -25 -9 -10 -2 -18 -4 -18 -5 0 -2 -39 -8 -82 -13 -16 -2 -29 -11 -31 -20 -3 -16 1 -18 48 -21 12 -1 16 -22 18 -116 3 -129 -1 -156 -23 -158 -8 -1 -22 -3 -30 -4 -8 -1 -15 -7 -15 -14 0 -10 31 -14 120 -16 104 -3 120 -1 120 13 0 9 -6 16 -12 17 -62 6 -66 12 -67 120 -1 104 32 155 89 137 11 -3 20 -13 20 -20 0 -8 6 -12 13 -10 7 3 12 26 12 63 0 56 -1 57 -27 57 -16 0 -28 -4 -28 -8 0 -5 -5 -5 -10 -2 -6 3 -14 -4 -19 -17 -5 -13 -17 -31 -28 -40 -18 -16 -18 -15 -18 27 0 25 0 45 -1 45 0 0 -3 -3 -6 -6z"/><path d="M3820 781 c0 -7 -6 -11 -14 -8 -8 3 -17 3 -20 -1 -8 -7 -41 -13 -78 -14 -20 -1 -28 -6 -28 -19 0 -17 12 -23 47 -22 7 0 12 -2 11 -6 -1 -3 2 -13 6 -22 4 -10 5 -64 3 -120 -6 -114 -7 -129 -16 -126 -3 0 -16 -2 -28 -7 -50 -16 -18 -26 87 -26 113 0 136 9 83 33 l-28 12 0 157 c0 112 -4 161 -12 170 -10 9 -13 9 -13 -1z"/><path d="M4936 783 c-4 -5 -12 -9 -17 -9 -5 -1 -10 -2 -11 -4 -4 -3 -60 -10 -85 -11 -35 -2 -31 -38 5 -45 l27 -6 -1 -131 c0 -130 -1 -131 -24 -137 -13 -3 -25 -11 -27 -17 -3 -8 29 -13 111 -15 101 -3 116 -1 116 13 0 9 -7 17 -15 18 -8 1 -23 2 -33 3 -21 3 -28 48 -24 157 1 51 6 67 23 82 28 24 54 24 78 0 18 -18 19 -18 25 27 10 73 9 78 -20 77 -17 0 -42 -15 -71 -44 l-45 -44 3 46 c4 46 0 55 -15 40z"/><path d="M5245 779 c-4 -5 -10 -7 -15 -4 -5 3 -11 1 -15 -4 -3 -6 -12 -8 -20 -4 -9 3 -22 0 -29 -6 -8 -7 -23 -11 -32 -9 -11 2 -20 -4 -22 -14 -2 -12 3 -18 17 -19 12 -1 27 -2 34 -3 9 -1 12 -34 13 -123 1 -67 5 -126 9 -132 3 -6 4 -11 1 -11 -3 0 3 -9 14 -20 11 -11 26 -20 34 -20 8 0 17 -4 21 -9 3 -6 20 -8 38 -5 17 3 38 6 45 6 7 1 26 16 42 35 36 41 41 41 34 3 l-6 -30 81 0 c85 0 103 11 54 33 l-28 12 0 150 c-1 167 -6 195 -32 174 -9 -8 -18 -13 -20 -11 -1 1 -4 2 -5 1 -8 -2 -66 -10 -85 -10 -13 -1 -23 -7 -23 -15 0 -16 36 -37 50 -29 5 3 11 -16 15 -42 3 -27 7 -58 9 -70 2 -12 0 -24 -5 -25 -4 -2 -9 -17 -11 -35 -5 -41 -38 -70 -78 -67 -52 4 -59 23 -56 171 2 102 0 133 -10 137 -7 3 -16 1 -19 -5z"/><path d="M5743 777 c-3 -5 -11 -6 -19 -3 -8 3 -14 0 -14 -6 0 -6 -2 -9 -5 -6 -3 3 -20 -9 -37 -26 -26 -26 -32 -40 -34 -83 -2 -49 0 -55 32 -83 31 -27 33 -32 22 -49 -7 -10 -17 -19 -23 -20 -5 0 -11 -5 -11 -11 -1 -5 -3 -13 -4 -17 -11 -38 4 -75 28 -66 8 4 10 0 6 -11 -3 -9 -10 -13 -15 -10 -5 3 -9 0 -9 -5 0 -6 -7 -11 -15 -11 -36 0 -43 -92 -9 -126 18 -18 43 -33 67 -39 4 -2 8 -4 10 -5 7 -7 149 -5 153 2 3 5 9 6 14 3 5 -3 11 -1 15 5 4 6 11 8 16 5 5 -4 9 -1 9 4 0 6 3 10 8 9 15 -5 78 69 87 102 0 3 5 15 9 28 9 27 -9 79 -36 103 -15 13 -35 15 -112 11 -118 -6 -148 1 -144 31 3 19 8 22 41 19 21 -2 44 2 52 8 8 6 19 9 25 5 5 -3 10 -1 10 4 0 6 9 11 20 11 11 0 20 5 20 11 0 5 5 7 10 4 6 -3 13 2 17 12 4 10 12 23 19 30 7 8 10 29 6 58 l-5 47 38 -4 c27 -2 40 2 43 12 3 8 10 18 16 22 13 9 2 10 -71 8 -34 -1 -53 3 -53 10 0 6 -4 8 -10 5 -5 -3 -10 -1 -10 5 0 6 -4 8 -10 5 -5 -3 -15 -3 -22 1 -16 10 -119 11 -125 1z m77 -39 c0 -5 5 -6 10 -3 6 3 10 -1 10 -9 0 -9 3 -16 8 -16 4 0 7 -24 7 -54 0 -48 -3 -56 -29 -74 -22 -16 -33 -19 -43 -10 -7 6 -13 7 -13 2 0 -11 -25 14 -26 27 -1 5 -2 10 -3 12 -6 8 -5 97 2 97 4 0 6 6 5 13 -2 6 3 11 10 10 6 -2 12 1 12 6 0 5 11 9 25 9 14 0 25 -5 25 -10z m81 -356 c19 -13 25 -25 25 -54 0 -21 -4 -38 -8 -38 -4 0 -8 -7 -8 -17 0 -9 -3 -13 -6 -10 -4 4 -19 -2 -33 -12 -17 -12 -41 -17 -71 -16 -25 1 -46 3 -47 4 -2 0 -5 1 -8 1 -3 0 -16 10 -29 22 -18 18 -23 31 -20 61 4 45 10 57 30 57 8 0 14 5 14 10 0 18 132 12 161 -8z"/><path d="M6163 777 c-2 -4 -8 -5 -12 -2 -12 7 -72 -53 -78 -78 -3 -12 -4 -31 -3 -42 1 -11 2 -26 2 -32 1 -7 5 -13 10 -13 5 0 6 -5 3 -10 -5 -8 24 -26 58 -35 4 -2 8 -3 10 -5 1 -1 11 -3 22 -5 42 -8 53 -11 67 -23 8 -6 18 -10 21 -7 4 3 5 2 2 -2 -3 -3 0 -12 6 -19 8 -10 6 -20 -10 -40 -12 -15 -21 -23 -21 -18 0 4 -5 3 -12 -4 -15 -15 -54 -16 -63 -2 -4 6 -10 8 -14 6 -11 -7 -54 72 -46 84 3 5 -2 10 -12 10 -14 0 -19 -9 -21 -43 -1 -23 -4 -51 -5 -62 -1 -11 4 -20 11 -21 6 -1 15 -3 20 -4 4 -1 11 -2 16 -1 5 1 16 -1 25 -5 26 -11 85 -12 98 -2 7 5 17 7 23 3 5 -3 10 -1 10 5 0 6 4 9 9 6 10 -7 72 50 63 58 -3 3 0 6 6 6 6 0 10 21 9 53 -2 55 -21 87 -51 87 -9 0 -16 4 -16 9 0 5 -10 9 -22 9 -23 0 -39 4 -68 15 -8 3 -22 7 -30 9 -20 6 -19 50 3 70 18 16 64 18 100 3 19 -8 33 -48 22 -64 -3 -6 2 -11 13 -11 36 0 40 118 4 119 -10 0 -46 2 -80 3 -35 2 -66 0 -69 -5z"/><path d="M7900 507 c-24 -21 -37 -77 -19 -77 5 0 8 -5 7 -12 -2 -7 3 -13 10 -14 6 -1 13 -2 15 -4 9 -7 38 -7 43 1 3 5 9 7 14 4 12 -8 23 14 25 50 1 21 -6 37 -24 52 -32 28 -39 28 -71 0z"/></g><g transform="translate(0.000000,137.000000) scale(0.100000,-0.100000)" fill="#1F4C3F" stroke="none"><path d="M1062 1218 l3 -153 185 0 185 -1 -182 3 -183 3 0 145 0 145 183 3 182 2 -188 3 -188 2 3 -152z"/><path d="M1480 1336 c0 -2 8 -10 18 -17 15 -13 16 -12 3 4 -13 16 -21 21 -21 13z"/><path d="M1484 1098 l-19 -23 23 19 c21 18 27 26 19 26 -2 0 -12 -10 -23 -22z"/><path d="M1025 510 c0 -283 1 -399 2 -258 2 142 2 374 0 515 -1 142 -2 26 -2 -257z"/><path d="M7762 950 c0 -19 2 -27 5 -17 2 9 2 25 0 35 -3 9 -5 1 -5 -18z"/><path d="M4151 934 c0 -11 3 -14 6 -6 3 7 2 16 -1 19 -3 4 -6 -2 -5 -13z"/><path d="M6871 934 c0 -11 3 -14 6 -6 3 7 2 16 -1 19 -3 4 -6 -2 -5 -13z"/><path d="M7608 923 c7 -3 16 -2 19 1 4 3 -2 6 -13 5 -11 0 -14 -3 -6 -6z"/><path d="M7660 842 l5 -77 3 69 c2 38 -1 73 -5 77 -4 4 -6 -27 -3 -69z"/><path d="M4690 885 c13 -14 26 -25 28 -25 3 0 -5 11 -18 25 -13 14 -26 25 -28 25 -3 0 5 -11 18 -25z"/><path d="M4334 680 c0 -124 2 -174 3 -112 2 61 2 163 0 225 -1 61 -3 11 -3 -113z"/><path d="M6803 830 c0 -41 2 -58 4 -37 2 20 2 54 0 75 -2 20 -4 3 -4 -38z"/><path d="M3551 874 c0 -11 3 -14 6 -6 3 7 2 16 -1 19 -3 4 -6 -2 -5 -13z"/><path d="M2863 783 c9 -2 25 -2 35 0 9 3 1 5 -18 5 -19 0 -27 -2 -17 -5z"/><path d="M3238 763 c5 -21 7 -23 10 -9 2 10 0 22 -6 28 -6 6 -7 0 -4 -19z"/><path d="M3347 784 c19 -5 23 -13 26 -57 l4 -52 -1 55 c-1 51 -3 55 -26 57 -21 1 -22 1 -3 -3z"/><path d="M3837 769 c4 -13 8 -18 11 -10 2 7 -1 18 -6 23 -8 8 -9 4 -5 -13z"/><path d="M5048 783 c6 -2 18 -2 25 0 6 3 1 5 -13 5 -14 0 -19 -2 -12 -5z"/><path d="M5508 750 c2 -22 6 -40 8 -40 2 0 4 18 4 40 0 22 -3 40 -8 40 -4 0 -6 -18 -4 -40z"/><path d="M5788 783 c12 -2 30 -2 40 0 9 3 -1 5 -23 4 -22 0 -30 -2 -17 -4z"/><path d="M6208 783 c12 -2 30 -2 40 0 9 3 -1 5 -23 4 -22 0 -30 -2 -17 -4z"/><path d="M7573 783 c9 -2 23 -2 30 0 6 3 -1 5 -18 5 -16 0 -22 -2 -12 -5z"/><path d="M4953 740 c0 -25 2 -35 4 -22 2 12 2 32 0 45 -2 12 -4 2 -4 -23z"/><path d="M4999 753 l-24 -28 28 24 c15 14 27 26 27 28 0 8 -8 1 -31 -24z"/><path d="M4223 700 c0 -41 2 -58 4 -37 2 20 2 54 0 75 -2 20 -4 3 -4 -38z"/><path d="M3108 753 c7 -3 16 -2 19 1 4 3 -2 6 -13 5 -11 0 -14 -3 -6 -6z"/><path d="M3645 750 c3 -5 8 -10 11 -10 2 0 4 5 4 10 0 6 -5 10 -11 10 -5 0 -7 -4 -4 -10z"/><path d="M3708 753 c7 -3 16 -2 19 1 4 3 -2 6 -13 5 -11 0 -14 -3 -6 -6z"/><path d="M5138 753 c7 -3 16 -2 19 1 4 3 -2 6 -13 5 -11 0 -14 -3 -6 -6z"/><path d="M5664 738 l-19 -23 23 19 c12 11 22 21 22 23 0 8 -8 2 -26 -19z"/><path d="M5943 753 c15 -2 39 -2 55 0 15 2 2 4 -28 4 -30 0 -43 -2 -27 -4z"/><path d="M6099 743 c-13 -16 -12 -17 4 -4 9 7 17 15 17 17 0 8 -8 3 -21 -13z"/><path d="M7335 750 c3 -5 8 -10 11 -10 2 0 4 5 4 10 0 6 -5 10 -11 10 -5 0 -7 -4 -4 -10z"/><path d="M3259 723 l-24 -28 28 24 c25 23 32 31 24 31 -2 0 -14 -12 -28 -27z"/><path d="M5272 720 c0 -14 2 -19 5 -12 2 6 2 18 0 25 -3 6 -5 1 -5 -13z"/><path d="M7553 733 c9 -2 25 -2 35 0 9 3 1 5 -18 5 -19 0 -27 -2 -17 -5z"/><path d="M2742 705 c0 -16 2 -22 5 -12 2 9 2 23 0 30 -3 6 -5 -1 -5 -18z"/><path d="M2823 723 c9 -2 23 -2 30 0 6 3 -1 5 -18 5 -16 0 -22 -2 -12 -5z"/><path d="M7509 713 c-13 -16 -12 -17 4 -4 9 7 17 15 17 17 0 8 -8 3 -21 -13z"/><path d="M3140 587 l5 -132 3 124 c1 68 -1 128 -5 132 -4 5 -6 -51 -3 -124z"/><path d="M5082 695 c0 -16 2 -22 5 -12 2 9 2 23 0 30 -3 6 -5 -1 -5 -18z"/><path d="M5170 677 c4 -41 5 -41 8 -8 2 18 0 37 -5 42 -5 5 -6 -11 -3 -34z"/><path d="M7642 705 c12 -14 18 -44 21 -95 l3 -75 2 76 c2 68 0 78 -20 95 -23 19 -23 19 -6 -1z"/><path d="M5952 673 c1 -37 1 -37 5 -6 3 26 9 33 31 36 24 4 24 4 -5 6 -32 1 -33 0 -31 -36z"/><path d="M6292 690 c0 -14 2 -19 5 -12 2 6 2 18 0 25 -3 6 -5 1 -5 -13z"/><path d="M3298 693 c6 -2 18 -2 25 0 6 3 1 5 -13 5 -14 0 -19 -2 -12 -5z"/><path d="M5008 693 c6 -2 18 -2 25 0 6 3 1 5 -13 5 -14 0 -19 -2 -12 -5z"/><path d="M3744 585 c0 -60 1 -84 3 -52 2 32 2 81 0 110 -2 29 -3 3 -3 -58z"/><path d="M7233 625 c0 -38 2 -53 4 -32 2 20 2 52 0 70 -2 17 -4 1 -4 -38z"/><path d="M5413 630 c0 -30 2 -43 4 -27 2 15 2 39 0 55 -2 15 -4 2 -4 -28z"/><path d="M3243 560 c0 -47 2 -66 4 -42 2 23 2 61 0 85 -2 23 -4 4 -4 -43z"/><path d="M7482 615 c0 -16 2 -22 5 -12 2 9 2 23 0 30 -3 6 -5 -1 -5 -18z"/><path d="M2308 613 c17 -2 47 -2 65 0 17 2 3 4 -33 4 -36 0 -50 -2 -32 -4z"/><path d="M5173 545 c0 -38 2 -53 4 -32 2 20 2 52 0 70 -2 17 -4 1 -4 -38z"/><path d="M2900 593 c14 -7 13 -86 -2 -103 -11 -12 -10 -12 5 0 14 10 17 24 15 58 -2 27 -8 46 -16 48 -7 1 -8 0 -2 -3z"/><path d="M4952 570 c0 -19 2 -27 5 -17 2 9 2 25 0 35 -3 9 -5 1 -5 -18z"/><path d="M5740 596 c0 -2 8 -10 18 -17 15 -13 16 -12 3 4 -13 16 -21 21 -21 13z"/><path d="M5655 570 c10 -11 20 -20 23 -20 3 0 -3 9 -13 20 -10 11 -20 20 -23 20 -3 0 3 -9 13 -20z"/><path d="M7132 510 c0 -19 2 -27 5 -17 2 9 2 25 0 35 -3 9 -5 1 -5 -18z"/><path d="M6071 514 c0 -11 3 -14 6 -6 3 7 2 16 -1 19 -3 4 -6 -2 -5 -13z"/><path d="M7889 503 c-13 -16 -12 -17 4 -4 9 7 17 15 17 17 0 8 -8 3 -21 -13z"/><path d="M4669 493 c-13 -16 -12 -17 4 -4 16 13 21 21 13 21 -2 0 -10 -8 -17 -17z"/><path d="M7510 506 c0 -2 8 -10 18 -17 15 -13 16 -12 3 4 -13 16 -21 21 -21 13z"/><path d="M4848 467 c-3 -19 -2 -25 4 -19 6 6 8 18 6 28 -3 14 -5 12 -10 -9z"/><path d="M5793 473 c26 -2 68 -2 95 0 26 2 4 3 -48 3 -52 0 -74 -1 -47 -3z"/><path d="M6681 464 c0 -11 3 -14 6 -6 3 7 2 16 -1 19 -3 4 -6 -2 -5 -13z"/><path d="M5405 460 c3 -5 8 -10 11 -10 2 0 4 5 4 10 0 6 -5 10 -11 10 -5 0 -7 -4 -4 -10z"/><path d="M7042 445 c0 -16 2 -22 5 -12 2 9 2 23 0 30 -3 6 -5 -1 -5 -18z"/><path d="M7655 460 c3 -5 8 -10 11 -10 2 0 4 5 4 10 0 6 -5 10 -11 10 -5 0 -7 -4 -4 -10z"/><path d="M2120 450 c-9 -6 -10 -10 -3 -10 6 0 15 5 18 10 8 12 4 12 -15 0z"/><path d="M5641 444 c0 -11 3 -14 6 -6 3 7 2 16 -1 19 -3 4 -6 -2 -5 -13z"/><path d="M6319 443 c-13 -16 -12 -17 4 -4 9 7 17 15 17 17 0 8 -8 3 -21 -13z"/><path d="M6808 453 c6 -2 18 -2 25 0 6 3 1 5 -13 5 -14 0 -19 -2 -12 -5z"/><path d="M6923 453 c9 -2 25 -2 35 0 9 3 1 5 -18 5 -19 0 -27 -2 -17 -5z"/><path d="M4393 443 c9 -2 25 -2 35 0 9 3 1 5 -18 5 -19 0 -27 -2 -17 -5z"/><path d="M7609 433 c-13 -16 -12 -17 4 -4 9 7 17 15 17 17 0 8 -8 3 -21 -13z"/><path d="M2260 427 c0 -14 -15 -17 -92 -20 l-93 -3 93 -2 c76 -2 94 1 99 13 3 9 3 19 -1 22 -3 4 -6 -1 -6 -10z"/><path d="M6183 433 c9 -2 23 -2 30 0 6 3 -1 5 -18 5 -16 0 -22 -2 -12 -5z"/><path d="M6643 420 c3 -13 34 -15 203 -15 l199 -1 -195 3 c-139 3 -197 7 -203 16 -6 9 -7 8 -4 -3z"/><path d="M2483 403 c37 -2 96 -2 130 0 34 2 4 3 -68 3 -71 0 -99 -1 -62 -3z"/><path d="M2948 403 c23 -2 59 -2 80 0 20 2 1 4 -43 4 -44 0 -61 -2 -37 -4z"/><path d="M3143 403 c31 -2 83 -2 115 0 31 2 5 3 -58 3 -63 0 -89 -1 -57 -3z"/><path d="M3733 403 c31 -2 83 -2 115 0 31 2 5 3 -58 3 -63 0 -89 -1 -57 -3z"/><path d="M4253 403 c42 -2 112 -2 155 0 42 1 7 3 -78 3 -85 0 -120 -2 -77 -3z"/><path d="M4853 403 c31 -2 83 -2 115 0 31 2 5 3 -58 3 -63 0 -89 -1 -57 -3z"/><path d="M5448 403 c23 -2 61 -2 85 0 23 2 4 4 -43 4 -47 0 -66 -2 -42 -4z"/><path d="M6118 403 c7 -3 16 -2 19 1 4 3 -2 6 -13 5 -11 0 -14 -3 -6 -6z"/><path d="M7698 403 c23 -2 61 -2 85 0 23 2 4 4 -43 4 -47 0 -66 -2 -42 -4z"/><path d="M3538 393 c7 -3 16 -2 19 1 4 3 -2 6 -13 5 -11 0 -14 -3 -6 -6z"/><path d="M5773 393 c20 -2 54 -2 75 0 20 2 3 4 -38 4 -41 0 -58 -2 -37 -4z"/><path d="M6178 393 c7 -3 16 -2 19 1 4 3 -2 6 -13 5 -11 0 -14 -3 -6 -6z"/><path d="M7228 393 c7 -3 16 -2 19 1 4 3 -2 6 -13 5 -11 0 -14 -3 -6 -6z"/><path d="M5964 258 l-19 -23 23 19 c12 11 22 21 22 23 0 8 -8 2 -26 -19z"/><path d="M5768 233 c7 -3 16 -2 19 1 4 3 -2 6 -13 5 -11 0 -14 -3 -6 -6z"/><path d="M5828 233 c7 -3 16 -2 19 1 4 3 -2 6 -13 5 -11 0 -14 -3 -6 -6z"/><path d="M5773 193 c9 -2 25 -2 35 0 9 3 1 5 -18 5 -19 0 -27 -2 -17 -5z"/></g><g transform="translate(0.000000,137.000000) scale(0.100000,-0.100000)" fill="#333366" stroke="none"><path d="M514 1285 c-18 -14 -18 -14 4 -8 12 3 22 9 22 14 0 12 -3 11 -26 -6z"/><path d="M496 1243 c-6 -14 -5 -15 5 -6 7 7 10 15 7 18 -3 3 -9 -2 -12 -12z"/><path d="M498 1183 c5 -21 7 -23 10 -9 2 10 0 22 -6 28 -6 6 -7 0 -4 -19z"/><path d="M648 1053 c7 -3 16 -2 19 1 4 3 -2 6 -13 5 -11 0 -14 -3 -6 -6z"/><path d="M758 1053 c23 -2 61 -2 85 0 23 2 4 4 -43 4 -47 0 -66 -2 -42 -4z"/><path d="M978 1053 c12 -2 30 -2 40 0 9 3 -1 5 -23 4 -22 0 -30 -2 -17 -4z"/><path d="M1065 1030 c-3 -6 1 -7 9 -4 18 7 21 14 7 14 -6 0 -13 -4 -16 -10z"/><path d="M1069 987 c5 -5 21 -7 37 -5 27 3 26 4 -8 9 -22 3 -34 1 -29 -4z"/><path d="M1480 990 c-23 -7 -23 -8 -3 -9 12 -1 25 4 28 9 3 6 5 10 3 9 -2 -1 -14 -5 -28 -9z"/><path d="M1188 883 c68 -2 176 -2 240 0 64 1 9 3 -123 3 -132 0 -185 -2 -117 -3z"/><path d="M1060 830 c0 -5 5 -10 11 -10 5 0 7 5 4 10 -3 6 -8 10 -11 10 -2 0 -4 -4 -4 -10z"/><path d="M1325 783 c-137 -2 -253 -7 -257 -11 -4 -4 106 -6 245 -4 144 1 256 7 261 12 6 6 8 9 6 8 -3 -2 -117 -4 -255 -5z"/><path d="M2732 710 c0 -14 2 -19 5 -12 2 6 2 18 0 25 -3 6 -5 1 -5 -13z"/><path d="M1345 653 c146 -7 293 -7 288 0 -2 4 -82 6 -176 5 -95 -1 -145 -3 -112 -5z"/><path d="M1388 543 c39 -2 105 -2 145 0 39 1 7 3 -73 3 -80 0 -112 -2 -72 -3z"/><path d="M1623 543 c9 -2 23 -2 30 0 6 3 -1 5 -18 5 -16 0 -22 -2 -12 -5z"/><path d="M1323 475 c-3 -9 -3 -19 1 -22 3 -4 6 1 6 10 0 8 6 18 13 20 9 4 9 6 -1 6 -7 1 -15 -6 -19 -14z"/><path d="M1704 390 c-5 -5 -81 -11 -169 -13 l-160 -3 171 -2 c146 -2 171 0 171 13 0 18 0 18 -13 5z"/><path d="M1348 383 c6 -2 9 -10 6 -15 -4 -7 -2 -8 5 -4 13 9 5 26 -12 25 -9 0 -8 -2 1 -6z"/><path d="M1357 325 c3 -8 9 -12 14 -9 12 7 11 11 -5 17 -10 4 -13 1 -9 -8z"/><path d="M1720 325 c-7 -9 -8 -15 -2 -15 5 0 12 7 16 15 3 8 4 15 2 15 -2 0 -9 -7 -16 -15z"/><path d="M1308 313 c7 -3 16 -2 19 1 4 3 -2 6 -13 5 -11 0 -14 -3 -6 -6z"/><path d="M1781 234 c0 -11 3 -14 6 -6 3 7 2 16 -1 19 -3 4 -6 -2 -5 -13z"/><path d="M1065 40 c3 -5 8 -10 11 -10 2 0 4 5 4 10 0 6 -5 10 -11 10 -5 0 -7 -4 -4 -10z"/><path d="M1840 36 c0 -2 7 -7 16 -10 8 -3 12 -2 9 4 -6 10 -25 14 -25 6z"/></g><g transform="translate(0.000000,137.000000) scale(0.100000,-0.100000)" fill="#3F338C" stroke="none"><path d="M820 1360 l205 -5 -200 -6 -200 -5 200 1 c128 0 199 4 198 10 -2 6 -79 10 -205 10 l-203 1 205 -6z"/><path d="M663 1293 c64 -2 170 -2 235 0 64 1 11 3 -118 3 -129 0 -182 -2 -117 -3z"/><path d="M510 1258 c0 -10 507 -10 513 0 3 4 -111 7 -254 7 -142 0 -259 -3 -259 -7z"/><path d="M503 1220 c3 -13 41 -15 258 -15 l254 -1 -250 3 c-183 3 -251 7 -258 16 -6 9 -7 8 -4 -3z"/><path d="M517 1183 c-3 -5 111 -8 253 -8 142 0 256 3 253 8 -2 4 -116 7 -253 7 -137 0 -251 -3 -253 -7z"/><path d="M1014 1132 c5 -9 -55 -13 -236 -14 l-243 -3 239 -2 c222 -3 278 2 245 22 -8 5 -10 4 -5 -3z"/><path d="M1065 960 c-11 -18 18 -20 235 -17 l215 2 -225 5 -225 4 225 6 225 6 -222 2 c-141 1 -224 -2 -228 -8z"/><path d="M1065 860 c-11 -18 18 -20 250 -17 l230 2 -238 3 c-156 1 -236 5 -232 12 3 6 4 10 1 10 -3 0 -8 -5 -11 -10z"/><path d="M1198 813 c67 -2 177 -2 245 0 67 1 12 3 -123 3 -135 0 -190 -2 -122 -3z"/><path d="M1065 750 c-3 -6 0 -12 7 -15 7 -3 128 -4 268 -2 l255 2 -265 5 -265 4 265 6 265 6 -262 2 c-167 1 -264 -2 -268 -8z"/><path d="M1287 643 c-3 -5 47 -7 111 -5 208 4 231 8 60 10 -92 1 -169 -1 -171 -5z"/><path d="M1465 583 c120 -3 171 -7 177 -16 5 -8 8 -7 8 6 0 16 -14 17 -177 15 l-178 -2 170 -3z"/><path d="M1337 473 c-3 -5 50 -7 116 -5 221 4 244 8 65 10 -97 1 -179 -1 -181 -5z"/><path d="M1432 393 c48 -2 129 -2 180 0 51 1 12 3 -87 3 -99 0 -141 -2 -93 -3z"/><path d="M1065 300 c-3 -6 0 -12 7 -15 7 -3 164 -4 348 -2 l335 2 -345 5 -345 5 345 5 345 5 -342 3 c-221 1 -344 -2 -348 -8z"/><path d="M1258 113 c100 -2 264 -2 365 0 100 1 18 2 -183 2 -201 0 -283 -1 -182 -2z"/><path d="M1268 53 c100 -2 264 -2 365 0 100 1 18 2 -183 2 -201 0 -283 -1 -182 -2z"/><path d="M1065 20 c-3 -6 0 -12 7 -15 7 -3 189 -4 403 -2 l390 2 -400 5 -400 5 395 5 395 5 -392 3 c-255 1 -394 -2 -398 -8z"/></g><g transform="translate(0.000000,137.000000) scale(0.100000,-0.100000)" fill="#3F3392" stroke="none"><path d="M815 1360 l-210 -6 210 -4 210 -4 -230 -7 c-273 -8 -258 -6 -250 -19 3 -5 1 -10 -6 -10 -7 0 -10 -2 -7 -5 7 -7 488 -12 489 -5 1 7 6 70 5 68 -1 -1 -95 -5 -211 -8z"/><path d="M516 1270 c5 -5 116 -11 260 -12 198 -2 250 0 247 10 -4 9 -66 12 -261 12 -165 0 -253 -3 -246 -10z"/><path d="M510 1225 c0 -12 39 -15 255 -17 185 -2 256 0 259 9 3 6 2 14 -1 17 -4 3 -120 6 -260 6 -216 0 -253 -2 -253 -15z"/><path d="M513 1171 c0 -8 9 -16 19 -19 21 -5 24 -18 6 -25 -7 -3 100 -7 238 -9 191 -2 251 0 251 9 0 7 -4 10 -9 7 -10 -6 -11 10 -1 20 29 28 7 31 -247 31 -212 0 -257 -2 -257 -14z"/><path d="M615 1090 c-16 -26 14 -30 210 -30 198 0 203 0 198 20 -5 19 -14 20 -204 20 -121 0 -200 -4 -204 -10z"/><path d="M1077 1010 c5 -20 11 -20 217 -18 180 3 211 5 211 18 0 13 -32 15 -217 18 -213 2 -216 2 -211 -18z"/><path d="M1067 958 c6 -10 453 -10 453 0 0 4 -103 7 -229 7 -126 0 -227 -3 -224 -7z"/><path d="M1075 922 c-5 -4 -11 -13 -13 -20 -4 -19 469 -13 476 7 3 8 0 11 -7 7 -6 -4 -11 -2 -11 3 0 13 -429 15 -445 3z"/><path d="M1063 857 c0 -9 61 -12 244 -12 157 0 242 4 240 10 -6 15 -484 17 -484 2z"/><path d="M1070 797 c0 -16 17 -17 253 -15 197 2 252 6 252 16 0 10 -55 13 -253 15 -235 2 -252 1 -252 -16z"/><path d="M1063 745 c0 -7 94 -8 271 -5 268 4 246 7 -95 12 -112 2 -176 -1 -176 -7z"/><path d="M1265 700 c-15 -25 13 -30 175 -30 163 0 168 1 163 20 -5 19 -14 20 -169 20 -98 0 -165 -4 -169 -10z"/><path d="M1460 642 c-90 -1 -169 -7 -174 -12 -7 -7 50 -10 161 -10 111 0 174 4 178 11 4 6 5 11 4 12 -2 1 -78 1 -169 -1z"/><path d="M1300 570 c20 -13 340 -13 340 0 0 6 -66 10 -177 10 -119 0 -173 -4 -163 -10z"/><path d="M1316 532 c-2 -4 -1 -13 3 -20 6 -9 52 -12 182 -10 147 3 174 5 174 18 0 13 -28 15 -177 18 -97 1 -179 -1 -182 -6z"/><path d="M1335 460 c2 -13 29 -15 180 -15 130 0 179 3 182 12 3 9 -42 13 -180 15 -159 3 -184 1 -182 -12z"/><path d="M1347 423 c-25 -24 2 -28 179 -26 103 1 189 5 192 8 3 3 0 5 -7 5 -7 0 -9 5 -6 10 7 11 -347 15 -358 3z"/><path d="M1364 350 c0 -20 5 -20 186 -18 157 3 185 5 185 18 0 13 -28 15 -185 18 -181 2 -186 2 -186 -18z"/><path d="M1063 295 c0 -7 121 -8 351 -5 346 5 317 7 -125 12 -145 2 -226 -1 -226 -7z"/><path d="M1067 254 c-3 -3 -3 -12 0 -20 4 -12 65 -14 360 -14 333 0 355 1 342 17 -12 14 -12 16 0 8 10 -5 12 -4 7 3 -5 9 -103 12 -355 12 -191 0 -350 -3 -354 -6z"/><path d="M1067 186 c-3 -8 -3 -17 0 -20 4 -3 168 -6 365 -6 351 0 358 0 358 20 0 20 -7 20 -359 20 -299 0 -360 -2 -364 -14z"/><path d="M1080 139 c0 -5 -4 -8 -8 -5 -5 3 -9 0 -9 -7 0 -9 88 -11 376 -10 207 2 377 3 379 3 2 0 -3 7 -12 15 -12 13 -67 15 -370 15 -244 0 -356 -3 -356 -11z"/><path d="M1065 80 c-9 -15 5 -32 21 -26 14 5 688 8 728 3 10 -1 21 4 24 12 3 8 0 11 -7 7 -6 -4 -11 -2 -11 3 0 15 -746 15 -755 1z"/><path d="M1465 22 c-214 -1 -393 -6 -397 -10 -4 -4 111 -6 255 -4 420 4 553 7 542 12 -5 3 -185 4 -400 2z"/></g><g transform="translate(0.000000,137.000000) scale(0.100000,-0.100000)" fill="#2C2CAC" stroke="none"><path d="M585 1340 l-30 -8 27 -1 c15 0 30 4 33 9 3 6 5 9 3 9 -2 -1 -16 -5 -33 -9z"/><path d="M780 1290 l-245 -5 246 -5 c192 -4 246 -2 246 8 0 6 -1 11 -1 10 -1 -1 -111 -5 -246 -8z"/><path d="M500 1235 c-10 -12 -10 -18 0 -30 10 -13 53 -15 266 -15 139 0 255 3 257 8 3 4 -113 7 -256 7 -226 0 -262 2 -262 15 0 13 36 15 262 15 143 0 259 3 256 8 -2 4 -118 7 -257 7 -213 0 -256 -2 -266 -15z"/><path d="M510 1155 c0 -10 29 -24 34 -17 3 6 -3 12 -14 15 -11 3 -20 4 -20 2z"/><path d="M630 1103 c212 -7 398 -7 393 0 -2 4 -111 6 -241 5 -130 -1 -199 -3 -152 -5z"/><path d="M683 1053 c9 -2 23 -2 30 0 6 3 -1 5 -18 5 -16 0 -22 -2 -12 -5z"/><path d="M938 1053 c7 -3 16 -2 19 1 4 3 -2 6 -13 5 -11 0 -14 -3 -6 -6z"/><path d="M1188 1033 c56 -2 148 -2 205 0 56 1 10 3 -103 3 -113 0 -159 -2 -102 -3z"/><path d="M1506 1017 c3 -10 9 -15 12 -12 3 3 0 11 -7 18 -10 9 -11 8 -5 -6z"/><path d="M1060 1011 c0 -6 4 -13 10 -16 6 -3 7 1 4 9 -7 18 -14 21 -14 7z"/><path d="M1095 979 c-22 -3 63 -7 189 -8 126 0 226 2 222 6 -8 9 -357 10 -411 2z"/><path d="M1066 937 c3 -10 9 -15 12 -12 3 3 0 11 -7 18 -10 9 -11 8 -5 -6z"/><path d="M1490 940 c-23 -7 -23 -8 -3 -9 12 -1 25 4 28 9 3 6 5 10 3 9 -2 -1 -14 -5 -28 -9z"/><path d="M1108 933 c7 -3 16 -2 19 1 4 3 -2 6 -13 5 -11 0 -14 -3 -6 -6z"/><path d="M1248 933 c7 -3 16 -2 19 1 4 3 -2 6 -13 5 -11 0 -14 -3 -6 -6z"/><path d="M1328 933 c7 -3 16 -2 19 1 4 3 -2 6 -13 5 -11 0 -14 -3 -6 -6z"/><path d="M1398 933 c7 -3 16 -2 19 1 4 3 -2 6 -13 5 -11 0 -14 -3 -6 -6z"/><path d="M1183 873 c71 -2 183 -2 250 0 67 1 10 3 -128 3 -137 0 -192 -2 -122 -3z"/><path d="M1075 830 c4 -6 97 -10 248 -10 160 0 237 4 227 10 -21 13 -483 13 -475 0z"/><path d="M1192 763 c70 -2 187 -2 260 0 73 1 16 3 -127 3 -143 0 -203 -2 -133 -3z"/><path d="M1075 720 c4 -6 100 -10 256 -10 159 0 249 4 249 10 0 6 -92 10 -256 10 -167 0 -253 -3 -249 -10z"/><path d="M1607 690 c3 -11 7 -20 9 -20 2 0 4 9 4 20 0 11 -4 20 -9 20 -5 0 -7 -9 -4 -20z"/><path d="M1630 632 c0 -9 -50 -13 -177 -14 l-178 -2 174 -3 c162 -3 209 3 188 24 -4 3 -7 1 -7 -5z"/><path d="M1393 593 c48 -2 125 -2 170 0 45 1 6 3 -88 3 -93 0 -130 -2 -82 -3z"/><path d="M1298 558 c4 -4 86 -8 182 -9 117 0 180 -4 189 -12 12 -10 12 -9 2 8 -12 19 -24 20 -196 20 -101 0 -181 -3 -177 -7z"/><path d="M1313 504 c16 -17 36 -19 202 -24 123 -3 181 -2 174 5 -6 6 -86 11 -186 13 -117 1 -181 6 -192 14 -11 8 -11 6 2 -8z"/><path d="M1363 384 c6 -7 329 -5 336 1 2 3 -74 5 -169 5 -95 0 -171 -3 -167 -6z"/><path d="M1710 386 c0 -2 8 -10 18 -17 15 -13 16 -12 3 4 -13 16 -21 21 -21 13z"/><path d="M1375 320 c-5 -7 48 -10 165 -8 94 1 174 6 176 10 3 4 -71 8 -165 8 -107 0 -172 -4 -176 -10z"/><path d="M1128 313 c28 -2 76 -2 105 0 28 2 5 3 -53 3 -58 0 -81 -1 -52 -3z"/><path d="M1338 313 c7 -3 16 -2 19 1 4 3 -2 6 -13 5 -11 0 -14 -3 -6 -6z"/><path d="M1232 273 c92 -2 245 -2 340 0 95 1 20 3 -167 3 -187 0 -265 -2 -173 -3z"/><path d="M1138 213 c7 -3 16 -2 19 1 4 3 -2 6 -13 5 -11 0 -14 -3 -6 -6z"/><path d="M1218 213 c7 -3 16 -2 19 1 4 3 -2 6 -13 5 -11 0 -14 -3 -6 -6z"/><path d="M1288 213 c7 -3 16 -2 19 1 4 3 -2 6 -13 5 -11 0 -14 -3 -6 -6z"/><path d="M1438 213 c7 -3 16 -2 19 1 4 3 -2 6 -13 5 -11 0 -14 -3 -6 -6z"/><path d="M1508 213 c7 -3 16 -2 19 1 4 3 -2 6 -13 5 -11 0 -14 -3 -6 -6z"/><path d="M1588 213 c7 -3 16 -2 19 1 4 3 -2 6 -13 5 -11 0 -14 -3 -6 -6z"/><path d="M1658 213 c7 -3 16 -2 19 1 4 3 -2 6 -13 5 -11 0 -14 -3 -6 -6z"/><path d="M1793 184 c2 -17 -8 -20 -73 -25 l-75 -5 78 -2 c62 -2 79 1 84 14 3 8 1 20 -5 26 -7 7 -10 4 -9 -8z"/><path d="M1077 153 c-3 -5 27 -7 66 -5 122 4 136 9 35 10 -53 1 -99 -1 -101 -5z"/><path d="M1368 153 c50 -2 134 -2 185 0 50 1 9 3 -93 3 -102 0 -143 -2 -92 -3z"/><path d="M1435 110 c-209 -3 -375 -8 -369 -12 6 -4 178 -6 383 -5 220 1 371 -2 371 -7 0 -5 3 -7 6 -3 3 3 2 11 -3 19 -6 11 -79 12 -388 8z"/><path d="M1830 53 c0 -5 -169 -7 -375 -5 -251 2 -375 -1 -375 -8 0 -7 127 -10 380 -10 331 0 380 2 380 15 0 8 -2 15 -5 15 -3 0 -5 -3 -5 -7z"/></g></svg>