<svg version="1.0" xmlns="http://www.w3.org/2000/svg" width="286.000000" height="32.000000" viewBox="0 0 286.000000 32.000000" preserveAspectRatio="xMidYMid meet"><rect x="16" y="0" width="18" height="3" fill="rgb(0,131,223)" /><rect x="16" y="1" width="18" height="3" fill="rgb(0,132,224)" /><g transform="translate(0.000000,32.000000) scale(0.100000,-0.100000)" fill="#0085D8" stroke="none"><path d="M2259 273 c-13 -16 -12 -17 4 -4 16 13 21 21 13 21 -2 0 -10 -8 -17 -17z"/><path d="M795 269 c-4 -6 -5 -12 -2 -15 2 -3 7 2 10 11 7 17 1 20 -8 4z"/><path d="M2625 260 c3 -5 8 -10 11 -10 2 0 4 5 4 10 0 6 -5 10 -11 10 -5 0 -7 -4 -4 -10z"/><path d="M2527 229 c7 -7 15 -10 18 -7 3 3 -2 9 -12 12 -14 6 -15 5 -6 -5z"/><path d="M1750 225 c0 -7 30 -13 34 -7 3 4 -4 9 -15 9 -10 1 -19 0 -19 -2z"/><path d="M2096 203 c-6 -14 -5 -15 5 -6 7 7 10 15 7 18 -3 3 -9 -2 -12 -12z"/><path d="M240 165 l-3 -50 -7 45 -7 45 -1 -42 c-2 -42 13 -67 24 -40 3 8 4 32 1 53 -3 37 -4 36 -7 -11z"/><path d="M391 194 c0 -11 3 -14 6 -6 3 7 2 16 -1 19 -3 4 -6 -2 -5 -13z"/><path d="M755 201 c-6 -11 13 -26 22 -17 4 3 1 6 -6 6 -7 0 -9 5 -6 10 3 6 4 10 1 10 -3 0 -7 -4 -11 -9z"/><path d="M1411 174 c0 -11 3 -14 6 -6 3 7 2 16 -1 19 -3 4 -6 -2 -5 -13z"/><path d="M178 143 c7 -3 16 -2 19 1 4 3 -2 6 -13 5 -11 0 -14 -3 -6 -6z"/></g><g transform="translate(0.000000,32.000000) scale(0.100000,-0.100000)" fill="#0085DF" stroke="none"><path d="M34 298 c-19 -23 -19 -23 2 -6 17 15 48 18 225 21 l204 2 -206 3 c-203 2 -206 2 -225 -20z"/><path d="M191 287 c2 -1 15 -11 29 -22 l25 -20 -19 23 c-11 12 -24 22 -29 22 -6 0 -8 -1 -6 -3z"/><path d="M341 287 c2 -1 15 -11 29 -22 l25 -20 -19 23 c-11 12 -24 22 -29 22 -6 0 -8 -1 -6 -3z"/><path d="M1507 272 c-10 -10 -17 -23 -17 -28 0 -4 7 2 16 14 8 12 20 19 26 16 7 -4 8 -2 4 4 -9 15 -10 15 -29 -6z"/><path d="M2827 272 c-10 -10 -17 -23 -17 -28 0 -4 7 2 16 14 8 12 20 20 25 17 5 -4 9 -1 9 4 0 17 -15 13 -33 -7z"/><path d="M2266 272 c-2 -4 4 -8 14 -8 10 0 16 4 14 8 -3 4 -9 8 -14 8 -5 0 -11 -4 -14 -8z"/><path d="M826 255 c-3 -9 -11 -13 -17 -9 -8 5 -9 3 -4 -5 6 -10 11 -9 23 3 9 8 13 18 10 21 -3 3 -8 -1 -12 -10z"/><path d="M2546 255 c-3 -9 -11 -13 -17 -9 -8 5 -9 3 -4 -5 6 -10 11 -9 23 3 9 8 13 18 10 21 -3 3 -8 -1 -12 -10z"/><path d="M1126 252 c-2 -4 4 -8 15 -8 10 0 19 4 19 8 0 4 -6 8 -14 8 -8 0 -17 -4 -20 -8z"/><path d="M2597 253 c-4 -3 -7 -11 -7 -17 0 -6 5 -4 10 4 9 13 11 13 20 0 8 -13 10 -12 10 3 0 17 -20 23 -33 10z"/><path d="M1 234 c0 -11 3 -14 6 -6 3 7 2 16 -1 19 -3 4 -6 -2 -5 -13z"/><path d="M159 233 c-13 -17 -13 -17 6 -3 11 8 22 16 24 17 2 2 0 3 -6 3 -6 0 -17 -8 -24 -17z"/><path d="M309 233 c-13 -17 -13 -17 6 -3 11 8 22 16 24 17 2 2 0 3 -6 3 -6 0 -17 -8 -24 -17z"/><path d="M1379 233 c-11 -15 -11 -16 1 -6 11 10 16 9 26 -5 7 -9 14 -15 17 -12 2 3 -3 13 -13 23 -16 17 -18 17 -31 0z"/><path d="M2266 238 c3 -5 10 -6 15 -3 13 9 11 12 -6 12 -8 0 -12 -4 -9 -9z"/><path d="M112 200 c0 -19 2 -27 5 -17 2 9 2 25 0 35 -3 9 -5 1 -5 -18z"/><path d="M263 195 c0 -22 2 -30 4 -17 2 12 2 30 0 40 -3 9 -5 -1 -4 -23z"/><path d="M1137 202 c-6 -33 -6 -33 14 -13 14 13 15 18 4 28 -10 9 -14 6 -18 -15z"/><path d="M1481 214 c0 -11 3 -14 6 -6 3 7 2 16 -1 19 -3 4 -6 -2 -5 -13z"/><path d="M2831 214 c0 -11 3 -14 6 -6 3 7 2 16 -1 19 -3 4 -6 -2 -5 -13z"/><path d="M209 183 c-1 -21 -1 -44 0 -51 1 -7 -8 -16 -21 -22 -16 -6 -18 -9 -6 -9 9 -1 20 4 23 9 4 6 11 7 17 4 7 -5 8 -2 3 6 -5 8 -8 33 -6 57 1 24 -1 43 -4 43 -3 0 -6 -17 -6 -37z"/><path d="M361 200 c0 -15 -4 -30 -8 -36 -5 -5 -2 -4 5 2 8 6 12 22 9 35 -4 24 -4 24 -6 -1z"/><path d="M512 200 c0 -14 2 -19 5 -12 2 6 2 18 0 25 -3 6 -5 1 -5 -13z"/><path d="M695 209 c-4 -6 -5 -12 -2 -15 2 -3 7 2 10 11 7 17 1 20 -8 4z"/><path d="M821 204 c0 -11 3 -14 6 -6 3 7 2 16 -1 19 -3 4 -6 -2 -5 -13z"/><path d="M866 199 c-14 -11 -26 -26 -26 -32 0 -7 5 -4 11 6 6 9 14 15 19 12 5 -3 14 4 20 15 14 25 9 25 -24 -1z"/><path d="M933 198 c0 -13 1 -17 4 -11 3 10 10 10 25 2 13 -7 18 -7 14 -1 -4 6 2 15 11 21 23 14 7 14 -18 1 -13 -7 -19 -7 -19 0 0 21 -16 9 -17 -12z"/><path d="M1098 208 c-16 -12 -16 -14 0 -28 14 -13 15 -13 10 2 -4 8 -1 21 5 27 15 15 5 14 -15 -1z"/><path d="M1193 194 c-15 -15 -21 -21 -12 -15 9 6 20 7 25 3 5 -4 6 -3 2 2 -4 5 0 15 10 22 9 7 14 14 10 14 -4 0 -20 -12 -35 -26z"/><path d="M1263 198 c-2 -18 0 -20 7 -8 12 18 13 30 2 30 -4 0 -9 -10 -9 -22z"/><path d="M1448 193 c5 -21 7 -23 10 -9 2 10 0 22 -6 28 -6 6 -7 0 -4 -19z"/><path d="M1571 204 c0 -11 3 -14 6 -6 3 7 2 16 -1 19 -3 4 -6 -2 -5 -13z"/><path d="M1635 209 c-4 -6 -5 -12 -2 -15 2 -3 7 2 10 11 7 17 1 20 -8 4z"/><path d="M1764 204 c3 -8 1 -16 -4 -19 -6 -4 -10 -12 -10 -18 0 -7 5 -4 11 5 5 10 16 15 24 12 8 -4 15 -1 15 6 0 6 5 8 10 5 11 -7 14 8 3 18 -3 4 -12 -1 -20 -11 -12 -14 -14 -14 -10 -1 3 9 -1 16 -9 16 -8 0 -13 -6 -10 -13z"/><path d="M1851 214 c-1 -7 6 -25 15 -40 l16 -29 -5 27 c-3 18 1 29 11 33 8 3 16 4 17 3 35 -51 37 -53 33 -33 -2 11 3 26 12 33 13 11 12 12 -7 3 -16 -8 -22 -8 -25 1 -4 10 -10 10 -31 1 -20 -9 -27 -9 -31 0 -3 8 -5 8 -5 1z"/><path d="M2034 205 c-4 -8 -10 -13 -14 -10 -5 3 -12 0 -16 -6 -4 -7 -3 -9 4 -5 5 3 12 1 14 -5 2 -6 9 0 16 15 6 14 9 26 6 26 -2 0 -7 -7 -10 -15z"/><path d="M2171 204 c0 -11 3 -14 6 -6 3 7 2 16 -1 19 -3 4 -6 -2 -5 -13z"/><path d="M2498 208 c-16 -12 -16 -14 0 -28 14 -13 15 -12 9 3 -4 10 0 20 11 26 9 6 12 11 6 11 -5 0 -18 -6 -26 -12z"/><path d="M2541 212 c-1 -18 28 -27 42 -12 10 10 7 12 -10 7 -12 -2 -24 0 -27 7 -3 7 -5 7 -5 -2z"/><path d="M2610 205 c0 -8 7 -15 15 -15 8 0 15 4 15 9 0 5 -7 11 -15 15 -9 3 -15 0 -15 -9z"/><path d="M2676 211 c-3 -5 3 -11 13 -14 14 -3 18 -1 14 9 -6 16 -19 18 -27 5z"/><path d="M2775 209 c-4 -6 -5 -12 -2 -15 2 -3 7 2 10 11 7 17 1 20 -8 4z"/><path d="M291 133 c-1 -91 -20 -116 -22 -30 l-2 52 -7 -60 c-4 -33 -5 -63 -3 -67 6 -11 41 -10 47 1 3 4 -6 6 -19 3 -14 -2 -25 0 -25 6 0 5 8 9 17 8 22 -1 33 63 22 127 -5 34 -7 27 -8 -40z"/><path d="M1356 195 c-3 -9 -6 -26 -5 -38 1 -14 4 -9 9 13 9 37 7 52 -4 25z"/><path d="M1717 203 c-3 -5 -1 -17 4 -28 6 -17 7 -16 6 8 -1 28 -3 32 -10 20z"/><path d="M2227 204 c-3 -5 1 -15 9 -22 16 -14 18 -5 5 17 -5 7 -11 9 -14 5z"/><path d="M2295 200 c-3 -5 -2 -10 4 -10 5 0 12 -8 14 -17 3 -10 4 -6 4 10 -1 27 -11 35 -22 17z"/><path d="M712 180 c0 -14 2 -19 5 -12 2 6 2 18 0 25 -3 6 -5 1 -5 -13z"/><path d="M1005 191 c3 -5 1 -12 -5 -16 -5 -3 -10 -14 -10 -23 0 -11 6 -6 15 12 18 34 18 36 4 36 -5 0 -8 -4 -4 -9z"/><path d="M1061 184 c0 -11 3 -14 6 -6 3 7 2 16 -1 19 -3 4 -6 -2 -5 -13z"/><path d="M1506 183 c-6 -14 -5 -15 5 -6 7 7 10 15 7 18 -3 3 -9 -2 -12 -12z"/><path d="M2051 184 c0 -11 3 -14 6 -6 3 7 2 16 -1 19 -3 4 -6 -2 -5 -13z"/><path d="M2271 184 c0 -11 3 -14 6 -6 3 7 2 16 -1 19 -3 4 -6 -2 -5 -13z"/><path d="M2347 187 c-3 -7 3 -13 14 -13 22 0 25 12 5 19 -8 3 -16 0 -19 -6z"/><path d="M2403 187 c0 -7 8 -13 18 -13 13 0 15 3 7 13 -6 7 -14 13 -18 13 -3 0 -7 -6 -7 -13z"/><path d="M2716 185 c-3 -9 -10 -14 -15 -10 -5 3 -12 1 -16 -5 -4 -6 -10 -8 -14 -5 -5 2 -8 -7 -8 -22 0 -26 0 -26 11 -4 7 12 14 19 17 16 3 -3 14 4 24 15 10 11 16 23 13 25 -3 3 -8 -1 -12 -10z"/><path d="M1471 174 c0 -11 3 -14 6 -6 3 7 2 16 -1 19 -3 4 -6 -2 -5 -13z"/><path d="M1961 174 c0 -11 3 -14 6 -6 3 7 2 16 -1 19 -3 4 -6 -2 -5 -13z"/><path d="M2191 174 c0 -11 3 -14 6 -6 3 7 2 16 -1 19 -3 4 -6 -2 -5 -13z"/><path d="M2531 174 c0 -11 3 -14 6 -6 3 7 2 16 -1 19 -3 4 -6 -2 -5 -13z"/><path d="M2645 179 c-4 -6 -5 -12 -2 -15 2 -3 7 2 10 11 7 17 1 20 -8 4z"/><path d="M2821 174 c0 -11 3 -14 6 -6 3 7 2 16 -1 19 -3 4 -6 -2 -5 -13z"/><path d="M1 164 c0 -11 3 -14 6 -6 3 7 2 16 -1 19 -3 4 -6 -2 -5 -13z"/><path d="M150 171 c0 -10 19 -25 25 -20 1 2 -3 10 -11 17 -8 7 -14 8 -14 3z"/><path d="M1531 164 c0 -11 3 -14 6 -6 3 7 2 16 -1 19 -3 4 -6 -2 -5 -13z"/><path d="M1811 164 c0 -11 3 -14 6 -6 3 7 2 16 -1 19 -3 4 -6 -2 -5 -13z"/><path d="M781 154 c0 -11 3 -14 6 -6 3 7 2 16 -1 19 -3 4 -6 -2 -5 -13z"/><path d="M811 154 c0 -11 3 -14 6 -6 3 7 2 16 -1 19 -3 4 -6 -2 -5 -13z"/><path d="M861 154 c0 -11 3 -14 6 -6 3 7 2 16 -1 19 -3 4 -6 -2 -5 -13z"/><path d="M921 154 c0 -11 3 -14 6 -6 3 7 2 16 -1 19 -3 4 -6 -2 -5 -13z"/><path d="M1191 154 c0 -11 3 -14 6 -6 3 7 2 16 -1 19 -3 4 -6 -2 -5 -13z"/><path d="M1251 154 c0 -11 3 -14 6 -6 3 7 2 16 -1 19 -3 4 -6 -2 -5 -13z"/><path d="M1381 154 c0 -11 3 -14 6 -6 3 7 2 16 -1 19 -3 4 -6 -2 -5 -13z"/><path d="M120 153 c0 -5 10 -18 23 -29 l22 -19 -20 25 c-11 14 -21 27 -22 29 -2 2 -3 0 -3 -6z"/><path d="M1053 128 c1 -30 4 -35 14 -26 8 6 10 14 5 17 -5 3 -12 15 -15 26 -3 11 -5 3 -4 -17z"/><path d="M1121 143 c0 -12 4 -25 10 -28 6 -5 4 -12 -8 -21 -16 -13 -15 -13 10 -3 29 13 36 29 13 29 -8 0 -17 10 -19 23 -4 22 -4 22 -6 0z"/><path d="M2011 138 c-1 -16 4 -28 9 -28 6 0 10 -7 10 -17 0 -9 3 -13 7 -10 3 4 1 17 -5 30 -6 12 -13 29 -15 37 -3 8 -6 3 -6 -12z"/><path d="M2073 128 c1 -30 4 -35 14 -26 8 6 10 14 5 17 -5 3 -12 15 -15 26 -3 11 -5 3 -4 -17z"/><path d="M2331 144 c0 -11 3 -14 6 -6 3 7 2 16 -1 19 -3 4 -6 -2 -5 -13z"/><path d="M2391 144 c0 -11 3 -14 6 -6 3 7 2 16 -1 19 -3 4 -6 -2 -5 -13z"/><path d="M2421 144 c0 -11 3 -14 6 -6 3 7 2 16 -1 19 -3 4 -6 -2 -5 -13z"/><path d="M671 134 c-1 -29 26 -39 34 -13 4 11 4 23 1 26 -3 4 -6 -1 -6 -10 0 -22 -17 -22 -23 1 -4 13 -5 12 -6 -4z"/><path d="M731 133 c-1 -16 5 -23 17 -23 10 0 13 3 6 8 -6 4 -14 14 -17 22 -4 10 -6 8 -6 -7z"/><path d="M1461 134 c0 -11 3 -14 6 -6 3 7 2 16 -1 19 -3 4 -6 -2 -5 -13z"/><path d="M1611 134 c-1 -29 26 -39 34 -13 4 11 4 23 1 26 -3 4 -6 -1 -6 -10 0 -22 -17 -22 -23 1 -4 13 -5 12 -6 -4z"/><path d="M1671 133 c-1 -16 5 -23 17 -23 10 0 13 3 6 8 -6 4 -14 14 -17 22 -4 10 -6 8 -6 -7z"/><path d="M1741 134 c0 -11 3 -14 6 -6 3 7 2 16 -1 19 -3 4 -6 -2 -5 -13z"/><path d="M1953 123 c1 -30 2 -31 19 -16 10 9 18 21 17 27 0 6 -3 6 -6 -1 -7 -18 -21 -16 -26 5 -3 9 -5 3 -4 -15z"/><path d="M2181 138 c0 -9 4 -20 9 -23 6 -4 7 -12 3 -18 -4 -8 -1 -7 9 1 14 11 17 10 21 -5 3 -12 5 -9 6 9 1 21 -3 25 -18 21 -13 -3 -21 1 -24 14 -4 15 -5 15 -6 1z"/><path d="M2361 134 c0 -11 3 -14 6 -6 3 7 2 16 -1 19 -3 4 -6 -2 -5 -13z"/><path d="M2751 133 c0 -13 1 -23 3 -23 2 0 11 -2 18 -5 9 -4 14 2 15 17 0 13 -1 17 -4 11 -7 -19 -21 -16 -26 5 -4 13 -5 11 -6 -5z"/><path d="M2811 134 c0 -12 6 -24 14 -28 8 -3 15 -1 15 4 0 6 -4 10 -9 10 -5 0 -12 8 -14 18 -4 13 -5 12 -6 -4z"/><path d="M10 131 c0 -6 4 -13 10 -16 6 -3 7 1 4 9 -7 18 -14 21 -14 7z"/><path d="M369 123 c-13 -16 -12 -17 4 -4 16 13 21 21 13 21 -2 0 -10 -8 -17 -17z"/><path d="M1550 133 c0 -7 6 -16 14 -20 7 -4 16 -15 19 -23 3 -8 6 1 6 20 1 26 -2 31 -9 20 -9 -13 -11 -13 -20 0 -6 9 -10 10 -10 3z"/><path d="M1801 124 c0 -11 3 -14 6 -6 3 7 2 16 -1 19 -3 4 -6 -2 -5 -13z"/><path d="M1861 124 c0 -11 3 -14 6 -6 3 7 2 16 -1 19 -3 4 -6 -2 -5 -13z"/><path d="M2152 110 c0 -19 2 -27 5 -17 2 9 2 25 0 35 -3 9 -5 1 -5 -18z"/><path d="M2562 110 c0 -19 2 -27 5 -17 2 9 2 25 0 35 -3 9 -5 1 -5 -18z"/><path d="M2590 131 c0 -5 5 -13 10 -16 6 -4 7 -12 4 -18 -5 -9 -4 -9 6 0 10 9 10 15 -4 28 -9 9 -16 12 -16 6z"/><path d="M642 105 c0 -16 2 -22 5 -12 2 9 2 23 0 30 -3 6 -5 -1 -5 -18z"/><path d="M771 114 c0 -11 3 -14 6 -6 3 7 2 16 -1 19 -3 4 -6 -2 -5 -13z"/><path d="M801 114 c0 -11 3 -14 6 -6 3 7 2 16 -1 19 -3 4 -6 -2 -5 -13z"/><path d="M870 120 c-9 -6 -10 -10 -3 -10 6 0 14 -8 16 -17 3 -10 4 -6 4 10 -1 15 -2 27 -2 27 0 0 -7 -5 -15 -10z"/><path d="M981 114 c0 -11 3 -14 6 -6 3 7 2 16 -1 19 -3 4 -6 -2 -5 -13z"/><path d="M1200 120 c-8 -5 -11 -10 -6 -10 5 0 2 -8 -5 -17 -13 -16 -12 -17 3 -5 13 10 17 10 21 0 3 -7 5 -1 4 15 -1 15 -2 27 -2 27 0 0 -7 -5 -15 -10z"/><path d="M1341 114 c0 -11 3 -14 6 -6 3 7 2 16 -1 19 -3 4 -6 -2 -5 -13z"/><path d="M1371 119 c0 -9 6 -22 14 -29 12 -10 16 -9 21 4 4 9 4 20 0 23 -3 4 -6 1 -6 -5 0 -19 -18 -14 -23 6 -4 14 -5 14 -6 1z"/><path d="M1426 113 c-6 -14 -5 -15 5 -6 7 7 10 15 7 18 -3 3 -9 -2 -12 -12z"/><path d="M2632 110 c0 -14 2 -19 5 -12 2 6 2 18 0 25 -3 6 -5 1 -5 -13z"/><path d="M2710 120 c-9 -6 -10 -10 -3 -10 6 0 14 -8 16 -17 3 -11 5 -7 6 10 1 30 1 30 -19 17z"/><path d="M923 105 c0 -12 3 -12 16 -3 9 7 18 14 20 15 2 2 -5 3 -16 3 -11 0 -20 -7 -20 -15z"/><path d="M1256 104 c-5 -14 -4 -15 9 -4 17 14 19 20 6 20 -5 0 -12 -7 -15 -16z"/><path d="M2263 106 c0 -11 4 -13 13 -5 8 7 14 6 17 -1 3 -6 4 -5 3 2 -4 19 -33 22 -33 4z"/><path d="M2317 101 c-4 -17 -3 -21 5 -13 5 5 8 16 6 23 -3 8 -7 3 -11 -10z"/><path d="M2377 101 c-4 -17 -3 -21 5 -13 5 5 8 16 6 23 -3 8 -7 3 -11 -10z"/><path d="M2411 104 c0 -11 3 -14 6 -6 3 7 2 16 -1 19 -3 4 -6 -2 -5 -13z"/><path d="M2452 115 c4 -5 0 -15 -10 -23 -12 -10 -9 -10 10 2 25 14 27 14 32 -2 4 -13 4 -12 3 3 -1 11 -11 21 -22 23 -11 3 -17 1 -13 -3z"/><path d="M2520 116 c0 -2 7 -6 15 -10 8 -3 15 -1 15 4 0 6 -7 10 -15 10 -8 0 -15 -2 -15 -4z"/><path d="M328 103 c7 -3 16 -2 19 1 4 3 -2 6 -13 5 -11 0 -14 -3 -6 -6z"/><path d="M466 95 c-11 -8 -15 -15 -9 -15 6 0 16 7 23 15 16 19 11 19 -14 0z"/><path d="M1011 94 c0 -11 3 -14 6 -6 3 7 2 16 -1 19 -3 4 -6 -2 -5 -13z"/><path d="M1450 97 c0 -22 31 -19 37 3 4 13 3 13 -6 0 -10 -13 -12 -13 -21 0 -8 13 -10 12 -10 -3z"/><path d="M1726 93 c-6 -14 -5 -15 5 -6 7 7 10 15 7 18 -3 3 -9 -2 -12 -12z"/><path d="M2684 102 c3 -5 0 -13 -6 -15 -9 -4 -10 -6 -1 -6 17 -1 25 16 12 25 -7 4 -9 3 -5 -4z"/><path d="M720 90 c-9 -6 -10 -10 -3 -10 6 0 15 5 18 10 8 12 4 12 -15 0z"/><path d="M1660 90 c-9 -6 -10 -10 -3 -10 6 0 15 5 18 10 8 12 4 12 -15 0z"/><path d="M761 74 c0 -11 3 -14 6 -6 3 7 2 16 -1 19 -3 4 -6 -2 -5 -13z"/><path d="M791 74 c0 -11 3 -14 6 -6 3 7 2 16 -1 19 -3 4 -6 -2 -5 -13z"/><path d="M1331 74 c0 -11 3 -14 6 -6 3 7 2 16 -1 19 -3 4 -6 -2 -5 -13z"/><path d="M311 64 c0 -11 3 -14 6 -6 3 7 2 16 -1 19 -3 4 -6 -2 -5 -13z"/></g><g transform="translate(0.000000,32.000000) scale(0.100000,-0.100000)" fill="#0085E5" stroke="none"><path d="M458 315 c-2 -3 -99 -5 -216 -5 -129 -1 -210 -5 -207 -11 4 -5 -1 -12 -9 -15 -9 -3 -13 -10 -10 -15 3 -5 1 -9 -3 -9 -14 0 -9 -113 5 -128 7 -8 10 -17 7 -22 -5 -8 10 -23 25 -26 3 0 12 -4 21 -8 8 -4 52 -5 96 -4 45 2 79 0 76 -5 -2 -4 3 -14 12 -23 21 -21 65 -11 59 13 -5 16 2 18 56 15 50 -2 67 2 95 21 19 13 32 27 28 30 -3 4 -1 7 5 7 6 0 9 7 6 15 -4 8 -2 15 3 15 11 0 10 61 -1 79 -4 6 -4 16 -1 21 3 6 1 10 -5 10 -6 0 -9 3 -7 8 4 8 -29 43 -35 37z m-298 -37 c0 5 11 10 25 10 41 0 62 -37 64 -113 2 -59 0 -66 -16 -63 -15 3 -18 13 -18 58 0 30 -4 60 -9 65 -10 12 -47 15 -40 4 2 -4 -3 -12 -11 -19 -8 -7 -15 -17 -15 -23 0 -13 40 -47 55 -47 18 0 11 -45 -8 -48 -9 -2 -17 2 -17 8 0 6 -4 9 -9 6 -4 -3 -16 3 -26 13 -21 24 -33 101 -16 101 7 0 9 5 6 10 -3 6 -2 10 4 10 5 0 8 9 6 21 -4 17 -2 19 10 9 9 -7 15 -8 15 -2z m217 -10 c20 -22 29 -118 11 -118 -6 0 -8 -3 -5 -7 9 -9 -13 -34 -24 -27 -5 3 -9 0 -9 -5 0 -6 -7 -11 -15 -11 -8 0 -15 5 -15 10 0 6 -4 10 -9 10 -6 0 -11 -17 -13 -37 -2 -26 -8 -38 -18 -38 -12 0 -16 18 -18 93 -2 65 1 92 9 92 8 0 8 4 -1 15 -11 13 -10 14 4 9 11 -4 16 -2 14 7 -2 8 3 13 10 12 6 -2 12 1 12 6 0 16 49 8 67 -11z"/><path d="M319 232 c-20 -14 -23 -24 -21 -55 3 -32 6 -37 20 -32 9 4 23 8 30 8 6 0 10 2 8 4 -2 2 0 19 4 36 10 44 -8 61 -41 39z"/><path d="M813 271 c-8 -13 -9 -22 -3 -26 11 -7 24 18 18 35 -2 6 -9 1 -15 -9z"/><path d="M1511 264 c-12 -15 -21 -35 -21 -45 0 -11 -4 -19 -9 -19 -5 0 -7 -9 -4 -20 3 -11 0 -20 -6 -20 -5 0 -8 -7 -4 -16 3 -9 1 -19 -5 -23 -7 -4 -8 -12 -2 -21 8 -13 11 -12 24 5 8 11 12 23 9 28 -2 4 0 13 5 20 10 12 12 18 12 38 0 6 7 4 15 -5 17 -17 20 -36 4 -36 -5 0 -8 -4 -4 -10 3 -5 0 -19 -7 -30 -11 -17 -11 -22 2 -30 9 -6 17 -5 22 3 4 7 12 13 18 13 5 1 13 2 17 3 4 0 -2 7 -12 15 -15 11 -17 17 -7 28 6 8 10 17 7 20 -3 2 0 19 5 37 8 28 7 31 -5 21 -8 -7 -15 -9 -15 -4 0 5 -4 4 -8 -3 -5 -8 -12 -9 -22 -2 -11 8 -12 12 -2 16 6 2 10 9 7 14 -3 5 -1 18 5 29 15 28 5 25 -19 -6z"/><path d="M2199 283 c-1 -5 -1 -11 0 -15 0 -5 -3 -8 -9 -8 -5 0 -7 -7 -4 -15 4 -8 2 -15 -4 -15 -6 0 -8 -9 -5 -20 3 -12 0 -20 -6 -20 -7 0 -9 -5 -6 -10 4 -6 3 -16 -2 -23 -5 -7 -6 -30 -2 -52 3 -22 7 -34 8 -27 0 7 5 11 10 8 14 -9 19 17 7 38 -8 14 -8 20 0 23 7 2 10 13 7 23 -3 11 0 20 6 20 5 0 8 6 5 14 -3 8 -1 17 5 20 6 4 8 13 4 21 -3 8 -1 15 4 15 5 0 10 7 10 15 0 15 -26 22 -28 8z"/><path d="M2532 270 c-7 -11 -8 -21 -2 -25 5 -3 14 3 20 14 13 26 -2 35 -18 11z"/><path d="M2823 253 c-10 -16 -25 -33 -33 -40 -8 -7 -10 -13 -4 -13 9 0 13 -45 5 -45 -1 0 -4 -20 -6 -44 -4 -41 -3 -43 14 -27 10 9 21 13 24 9 4 -3 7 -1 7 5 0 7 -4 12 -10 12 -5 0 -10 9 -10 20 0 11 3 20 8 20 4 0 8 17 9 37 1 20 5 39 10 42 9 6 16 51 8 51 -2 0 -12 -12 -22 -27z"/><path d="M2260 260 c-11 -7 -11 -10 -2 -10 7 0 10 -5 7 -11 -4 -6 2 -5 13 2 12 7 18 17 16 21 -7 10 -16 10 -34 -2z"/><path d="M1387 234 c-10 -14 -21 -40 -24 -59 -3 -19 -9 -35 -13 -35 -5 0 -6 -9 -3 -20 3 -11 1 -20 -5 -20 -6 0 -8 -9 -5 -20 3 -12 0 -20 -6 -20 -7 0 -9 -5 -6 -10 4 -6 2 -17 -5 -25 -8 -9 -8 -15 0 -20 15 -9 40 13 34 30 -3 7 0 16 5 20 6 3 9 11 6 16 -4 5 1 9 11 9 13 0 14 3 5 14 -15 17 5 106 23 103 16 -3 26 -19 18 -31 -3 -6 -7 -26 -9 -46 -2 -32 -1 -33 9 -12 6 12 14 22 17 22 8 0 12 50 5 79 -4 20 -7 22 -14 11 -8 -12 -12 -12 -22 -2 -10 10 -10 14 1 21 7 5 9 11 5 14 -5 3 -17 -6 -27 -19z"/><path d="M1120 235 c-7 -8 -9 -15 -4 -15 4 0 3 -5 -3 -11 -6 -6 -9 -17 -7 -24 3 -7 1 -16 -5 -19 -6 -4 -8 -13 -4 -21 3 -9 -1 -15 -9 -15 -19 0 -18 -21 1 -40 14 -13 18 -13 33 2 10 10 13 20 8 23 -12 8 -13 45 -1 45 5 0 9 6 8 13 -1 44 4 68 15 61 7 -4 8 -3 4 4 -10 16 -21 15 -36 -3z"/><path d="M2594 233 c-4 -10 -8 -21 -9 -25 -2 -5 -4 -11 -5 -15 -1 -5 -2 -12 -1 -17 1 -4 -2 -13 -7 -20 -4 -6 -5 -29 -1 -51 3 -22 7 -34 8 -27 0 7 5 11 10 8 13 -9 21 20 9 32 -6 6 -7 16 -2 23 4 7 9 27 11 44 2 16 8 31 13 33 10 4 2 32 -10 32 -4 0 -11 -8 -16 -17z"/><path d="M710 215 c-8 -10 -9 -15 -1 -15 6 0 11 -9 11 -20 0 -11 -5 -20 -11 -20 -5 0 -7 -5 -4 -10 11 -17 -5 -49 -21 -43 -15 5 -19 34 -7 47 4 4 9 19 11 34 3 26 3 26 -12 7 -8 -11 -16 -26 -16 -32 0 -7 -3 -13 -8 -13 -4 0 -6 -18 -4 -40 4 -35 6 -38 16 -25 11 15 13 15 25 1 12 -14 15 -14 28 0 9 8 23 14 32 12 17 -4 19 -25 6 -72 -8 -28 -8 -29 11 -10 11 10 21 30 22 44 1 14 6 26 11 28 5 2 7 12 4 22 -3 12 0 20 6 20 7 0 9 5 6 10 -4 6 -4 19 0 28 8 18 13 62 7 62 -2 0 -10 -7 -19 -15 -12 -12 -18 -13 -30 -4 -11 10 -14 10 -11 -2 2 -7 9 -20 16 -27 8 -10 11 -26 6 -46 -8 -38 -6 -36 -32 -29 -21 5 -31 36 -14 47 12 7 9 69 -4 73 -6 2 -17 -3 -24 -12z"/><path d="M896 214 c-8 -22 -8 -26 4 -19 11 7 14 -8 3 -19 -4 -3 -8 -14 -9 -24 0 -9 -2 -21 -4 -27 -4 -18 1 -60 7 -47 2 6 9 10 14 6 5 -3 10 1 10 8 1 7 2 20 3 28 1 8 -3 21 -7 27 -6 8 -4 15 5 18 8 3 13 16 12 28 -1 12 -3 25 -3 30 -2 14 -29 7 -35 -9z"/><path d="M990 212 c-8 -9 -15 -20 -15 -23 0 -4 -3 -10 -7 -14 -4 -4 -4 -13 -1 -21 3 -8 -3 -17 -12 -20 -13 -5 -14 -9 -4 -15 10 -6 10 -11 -1 -23 -7 -9 -9 -20 -5 -24 4 -4 10 -1 12 6 3 6 11 12 19 12 12 0 12 4 4 20 -8 16 -8 20 4 20 9 0 13 6 10 13 -3 8 0 27 7 43 10 27 12 27 19 9 5 -11 9 -15 10 -10 0 6 5 2 11 -7 5 -10 15 -18 21 -18 7 0 7 5 -1 14 -10 11 -9 16 3 23 11 6 12 13 6 23 -7 11 -10 11 -10 2 0 -7 -4 -10 -10 -7 -5 3 -10 1 -10 -6 0 -8 -6 -7 -17 4 -16 14 -19 14 -33 -1z"/><path d="M1211 204 c-20 -20 -27 -22 -40 -11 -14 10 -14 10 -3 -5 8 -10 9 -18 3 -22 -6 -4 -7 -14 -4 -23 4 -10 2 -14 -5 -9 -7 4 -9 -3 -7 -21 2 -16 4 -32 4 -37 1 -5 10 -1 20 8 14 13 18 27 15 52 -2 20 0 34 6 34 6 0 9 4 6 9 -3 5 3 11 14 14 20 5 26 -3 13 -17 -4 -3 -8 -14 -9 -24 0 -9 -2 -21 -4 -27 -1 -5 -2 -21 -1 -35 1 -20 3 -22 11 -10 5 8 10 11 10 5 0 -5 5 -3 10 5 5 8 7 29 4 47 -3 18 -1 33 4 33 10 0 9 30 -2 48 -10 16 -17 14 -45 -14z"/><path d="M1650 215 c-7 -8 -8 -15 -3 -15 5 0 9 -9 10 -20 1 -11 -3 -20 -8 -20 -6 0 -7 -5 -4 -10 11 -17 -5 -49 -21 -43 -15 5 -19 34 -7 47 4 4 9 18 10 32 4 24 3 24 -15 7 -10 -10 -17 -24 -14 -30 2 -7 0 -13 -5 -13 -5 0 -7 -18 -5 -40 4 -35 6 -38 16 -25 11 15 13 15 25 1 11 -14 15 -14 28 -1 21 21 57 20 49 -1 -5 -13 -4 -14 7 -6 8 7 17 9 21 5 4 -4 4 0 0 10 -3 9 -2 17 4 17 6 0 8 9 5 20 -3 12 0 20 6 20 7 0 9 5 6 10 -4 6 -2 16 4 23 5 7 7 17 3 22 -10 14 -32 17 -32 4 0 -8 -6 -7 -17 2 -11 10 -14 10 -9 2 4 -7 3 -13 -2 -13 -6 0 -12 7 -16 15 -3 8 -9 15 -14 15 -5 0 -15 -7 -22 -15z m75 -52 c-5 -10 -7 -22 -6 -27 2 -11 -19 -26 -36 -26 -15 0 -17 36 -3 45 5 3 7 12 4 19 -3 8 2 16 13 18 25 6 37 -7 28 -29z"/><path d="M1787 216 c-9 -23 -9 -28 2 -22 16 11 31 -21 25 -53 -4 -17 -9 -31 -13 -31 -4 0 -7 -9 -7 -20 0 -11 4 -20 8 -20 4 0 8 5 8 11 0 5 5 7 12 3 6 -4 8 -3 4 4 -3 6 -2 13 3 17 6 3 8 12 5 19 -3 8 0 17 5 21 6 3 9 11 6 16 -4 5 -2 9 3 9 5 0 9 13 8 29 -1 22 -4 27 -13 19 -7 -6 -13 -7 -14 -2 0 5 -4 0 -9 -11 -8 -19 -8 -19 -17 4 -8 21 -11 22 -16 7z"/><path d="M2051 216 c-9 -11 -9 -15 0 -18 8 -3 10 -11 4 -24 -4 -10 -7 -23 -6 -28 1 -4 -2 -13 -7 -20 -5 -6 -5 -22 -1 -36 4 -14 7 -19 8 -12 1 7 6 10 11 7 11 -7 13 5 10 44 -1 13 4 28 12 32 11 7 11 9 -1 9 -11 0 -11 3 -1 15 13 15 7 45 -8 45 -5 0 -15 -6 -21 -14z"/><path d="M2340 221 c0 -7 -4 -9 -10 -6 -10 6 -14 -6 -11 -37 1 -10 -3 -18 -9 -18 -6 0 -8 -5 -5 -11 4 -5 -1 -20 -12 -31 -10 -12 -12 -18 -4 -13 10 6 11 2 6 -16 -7 -21 -6 -22 9 -10 9 7 16 20 16 27 0 8 4 14 9 14 5 0 7 9 4 20 -3 12 0 20 6 20 7 0 10 4 7 8 -9 14 9 31 23 23 9 -6 10 -14 5 -22 -5 -8 -7 -22 -6 -31 2 -10 0 -18 -5 -18 -4 0 -9 -11 -9 -25 -2 -21 1 -24 12 -14 8 6 14 18 14 25 0 8 4 14 9 14 5 0 7 9 4 20 -3 11 -1 20 5 20 6 0 9 9 7 20 -5 24 8 26 25 5 7 -9 8 -15 2 -15 -5 0 -8 -9 -5 -20 3 -11 1 -20 -4 -20 -5 0 -8 -13 -5 -29 4 -27 5 -28 21 -13 11 10 17 28 15 44 -2 15 1 30 7 33 5 4 7 11 3 16 -3 5 -1 16 6 24 7 9 8 15 0 20 -5 3 -10 1 -10 -5 0 -6 -4 -9 -9 -6 -5 4 -11 0 -14 -6 -3 -10 -7 -10 -17 -1 -10 9 -18 9 -33 1 -16 -8 -23 -7 -34 8 -7 10 -13 12 -13 5z"/><path d="M2702 213 c3 -12 -1 -32 -10 -45 -15 -22 -15 -22 2 -9 30 25 37 47 19 62 -15 12 -16 11 -11 -8z"/><path d="M1947 205 c-12 -9 -14 -15 -7 -20 8 -5 7 -11 -2 -22 -7 -9 -13 -21 -13 -27 -1 -6 -5 -19 -9 -29 -5 -11 -4 -23 3 -30 8 -8 11 -8 11 2 0 7 5 9 10 6 11 -7 13 5 10 43 -1 12 3 22 9 22 6 0 8 7 4 16 -3 9 -1 19 5 23 6 3 8 12 4 18 -5 8 -12 8 -25 -2z"/><path d="M2257 212 c-12 -2 -16 -9 -12 -23 4 -11 2 -19 -5 -19 -6 0 -9 -3 -6 -8 2 -4 1 -26 -4 -50 -4 -23 -5 -42 -3 -42 17 0 37 39 39 77 1 25 8 49 14 53 16 10 0 18 -23 12z"/><path d="M2517 209 c-10 -6 -15 -14 -12 -20 4 -5 3 -15 -2 -21 -4 -7 -8 -20 -8 -28 0 -8 -6 -14 -14 -12 -12 3 -12 0 -2 -12 7 -9 11 -23 7 -31 -3 -8 -1 -15 4 -15 6 0 10 5 10 11 0 5 3 8 8 6 4 -3 13 1 20 9 7 8 8 14 3 14 -12 0 -4 72 9 80 18 11 -4 29 -23 19z"/><path d="M1880 200 c-8 -5 -10 -10 -3 -10 6 0 9 -9 6 -20 -3 -11 -9 -20 -13 -20 -5 0 -6 -9 -3 -20 3 -11 1 -20 -4 -20 -5 0 -9 -9 -9 -20 0 -11 4 -20 8 -20 4 0 8 5 8 11 0 5 5 7 12 3 6 -4 8 -3 4 4 -3 6 -2 13 3 17 6 3 8 12 5 19 -3 8 -1 17 5 20 6 4 7 14 4 23 -4 11 -3 14 5 9 14 -8 15 -5 6 18 -7 18 -13 19 -34 6z"/><path d="M2008 190 c-16 -18 -14 -30 6 -30 6 0 12 11 12 25 1 14 1 25 0 24 0 0 -8 -9 -18 -19z"/><path d="M2659 209 c0 -2 -2 -13 -4 -24 -2 -11 -8 -21 -12 -22 -4 -2 -7 -22 -7 -45 1 -45 16 -56 42 -31 8 7 17 11 22 8 5 -3 12 0 16 6 5 8 1 11 -12 7 -11 -3 -24 0 -30 6 -12 14 -16 56 -4 56 9 0 7 26 -3 36 -4 4 -7 5 -8 3z"/><path d="M2745 173 c-15 -31 -27 -103 -17 -103 1 0 11 9 22 20 11 11 16 20 10 20 -5 0 -10 9 -10 20 0 11 3 20 8 20 4 0 8 14 9 30 3 39 -1 38 -22 -7z"/><path d="M853 176 c-12 -13 -19 -27 -16 -30 3 -3 0 -12 -6 -20 -7 -9 -10 -24 -6 -36 6 -20 8 -20 25 -5 13 12 17 26 14 51 -2 19 0 34 4 34 5 0 9 7 9 15 0 19 0 19 -24 -9z"/><path d="M1029 165 c-1 -6 -1 -14 0 -19 1 -4 -2 -13 -7 -20 -5 -6 -5 -22 -1 -36 4 -14 7 -19 8 -12 1 7 6 10 11 7 11 -7 13 5 10 45 -2 25 -19 53 -21 35z"/><path d="M1989 153 c-1 -4 -1 -12 0 -17 1 -4 -3 -14 -10 -22 -12 -15 0 -23 34 -21 18 0 25 17 7 17 -5 0 -10 9 -10 19 0 19 -19 40 -21 24z"/></g></svg>