<svg version="1.0" xmlns="http://www.w3.org/2000/svg" width="592.000000" height="168.000000" viewBox="0 0 592.000000 168.000000" preserveAspectRatio="xMidYMid meet"><rect x="55" y="0" width="15" height="5" fill="rgb(2,120,228)" /><rect x="125" y="0" width="15" height="5" fill="rgb(2,120,228)" /><rect x="335" y="0" width="15" height="5" fill="rgb(2,120,228)" /><rect x="419" y="0" width="15" height="5" fill="rgb(2,120,228)" /><rect x="55" y="3" width="15" height="5" fill="rgb(2,120,228)" /><rect x="125" y="3" width="15" height="5" fill="rgb(2,120,228)" /><rect x="335" y="3" width="15" height="5" fill="rgb(2,120,228)" /><rect x="419" y="3" width="15" height="5" fill="rgb(2,120,228)" /><rect x="55" y="7" width="15" height="5" fill="rgb(2,120,228)" /><rect x="69" y="7" width="15" height="5" fill="rgb(2,120,228)" /><rect x="125" y="7" width="15" height="5" fill="rgb(2,120,228)" /><rect x="335" y="7" width="15" height="5" fill="rgb(2,120,228)" /><rect x="55" y="11" width="15" height="5" fill="rgb(2,120,228)" /><rect x="69" y="11" width="15" height="5" fill="rgb(2,120,228)" /><rect x="125" y="11" width="15" height="5" fill="rgb(2,120,228)" /><rect x="335" y="11" width="15" height="5" fill="rgb(2,120,228)" /><rect x="69" y="15" width="15" height="5" fill="rgb(2,120,228)" /><rect x="125" y="15" width="15" height="5" fill="rgb(2,120,228)" /><rect x="335" y="15" width="15" height="5" fill="rgb(2,120,228)" /><rect x="41" y="19" width="15" height="5" fill="rgb(2,120,228)" /><rect x="69" y="19" width="15" height="5" fill="rgb(2,120,228)" /><rect x="125" y="19" width="15" height="5" fill="rgb(2,120,228)" /><rect x="335" y="19" width="15" height="5" fill="rgb(2,120,228)" /><rect x="69" y="23" width="15" height="5" fill="rgb(2,120,228)" /><rect x="125" y="23" width="15" height="5" fill="rgb(2,120,228)" /><rect x="167" y="23" width="15" height="5" fill="rgb(2,120,228)" /><rect x="181" y="23" width="15" height="5" fill="rgb(2,120,228)" /><rect x="223" y="23" width="15" height="5" fill="rgb(2,120,228)" /><rect x="251" y="23" width="15" height="5" fill="rgb(2,120,228)" /><rect x="293" y="23" width="15" height="5" fill="rgb(2,120,228)" /><rect x="335" y="23" width="15" height="5" fill="rgb(2,120,228)" /><rect x="363" y="23" width="15" height="5" fill="rgb(2,120,228)" /><rect x="461" y="23" width="15" height="5" fill="rgb(2,120,228)" /><rect x="475" y="23" width="15" height="5" fill="rgb(2,120,228)" /><rect x="69" y="27" width="15" height="5" fill="rgb(2,120,228)" /><rect x="125" y="27" width="15" height="5" fill="rgb(2,120,228)" /><rect x="223" y="27" width="15" height="5" fill="rgb(2,120,228)" /><rect x="251" y="27" width="15" height="5" fill="rgb(2,120,228)" /><rect x="293" y="27" width="15" height="5" fill="rgb(2,120,228)" /><rect x="335" y="27" width="15" height="5" fill="rgb(2,120,228)" /><rect x="349" y="27" width="15" height="5" fill="rgb(2,121,228)" /><rect x="363" y="27" width="15" height="5" fill="rgb(2,120,228)" /><rect x="377" y="27" width="15" height="5" fill="rgb(2,120,228)" /><rect x="447" y="27" width="15" height="5" fill="rgb(2,120,228)" /><rect x="461" y="27" width="15" height="5" fill="rgb(2,120,228)" /><rect x="475" y="27" width="15" height="5" fill="rgb(2,120,228)" /><rect x="69" y="31" width="15" height="5" fill="rgb(2,120,228)" /><rect x="153" y="31" width="15" height="5" fill="rgb(2,120,228)" /><rect x="195" y="31" width="15" height="5" fill="rgb(2,120,228)" /><rect x="223" y="31" width="15" height="5" fill="rgb(2,120,228)" /><rect x="265" y="31" width="15" height="5" fill="rgb(2,120,228)" /><rect x="307" y="31" width="15" height="5" fill="rgb(2,120,228)" /><rect x="335" y="31" width="15" height="5" fill="rgb(2,120,228)" /><rect x="377" y="31" width="15" height="5" fill="rgb(2,120,228)" /><rect x="405" y="31" width="15" height="5" fill="rgb(2,120,228)" /><rect x="447" y="31" width="15" height="5" fill="rgb(2,122,229)" /><rect x="27" y="35" width="15" height="5" fill="rgb(2,120,228)" /><rect x="69" y="35" width="15" height="5" fill="rgb(2,120,228)" /><rect x="195" y="35" width="15" height="5" fill="rgb(2,120,228)" /><rect x="223" y="35" width="15" height="5" fill="rgb(2,120,228)" /><rect x="265" y="35" width="15" height="5" fill="rgb(2,120,228)" /><rect x="307" y="35" width="15" height="5" fill="rgb(2,120,228)" /><rect x="335" y="35" width="15" height="5" fill="rgb(2,120,228)" /><rect x="377" y="35" width="15" height="5" fill="rgb(2,120,228)" /><rect x="405" y="35" width="15" height="5" fill="rgb(2,120,228)" /><rect x="27" y="39" width="15" height="5" fill="rgb(2,120,228)" /><rect x="69" y="39" width="15" height="5" fill="rgb(2,120,228)" /><rect x="195" y="39" width="15" height="5" fill="rgb(2,120,228)" /><rect x="223" y="39" width="15" height="5" fill="rgb(2,120,228)" /><rect x="377" y="39" width="15" height="5" fill="rgb(2,120,228)" /><rect x="405" y="39" width="15" height="5" fill="rgb(2,120,228)" /><rect x="433" y="39" width="15" height="5" fill="rgb(2,120,228)" /><rect x="27" y="43" width="15" height="5" fill="rgb(2,120,228)" /><rect x="69" y="43" width="15" height="5" fill="rgb(2,120,228)" /><rect x="153" y="43" width="15" height="5" fill="rgb(2,120,228)" /><rect x="167" y="43" width="15" height="5" fill="rgb(2,120,228)" /><rect x="181" y="43" width="15" height="5" fill="rgb(2,120,228)" /><rect x="195" y="43" width="15" height="5" fill="rgb(2,120,228)" /><rect x="377" y="43" width="15" height="5" fill="rgb(2,120,228)" /><rect x="405" y="43" width="15" height="5" fill="rgb(2,120,228)" /><rect x="433" y="43" width="15" height="5" fill="rgb(2,120,228)" /><rect x="517" y="43" width="15" height="5" fill="rgb(2,120,228)" /><rect x="27" y="47" width="15" height="5" fill="rgb(2,120,228)" /><rect x="41" y="47" width="15" height="5" fill="rgb(2,120,228)" /><rect x="55" y="47" width="15" height="5" fill="rgb(2,120,228)" /><rect x="69" y="47" width="15" height="5" fill="rgb(2,120,228)" /><rect x="153" y="47" width="15" height="5" fill="rgb(2,120,228)" /><rect x="167" y="47" width="15" height="5" fill="rgb(2,120,228)" /><rect x="181" y="47" width="15" height="5" fill="rgb(2,120,228)" /><rect x="195" y="47" width="15" height="5" fill="rgb(2,120,228)" /><rect x="377" y="47" width="15" height="5" fill="rgb(2,120,228)" /><rect x="405" y="47" width="15" height="5" fill="rgb(2,120,228)" /><rect x="433" y="47" width="15" height="5" fill="rgb(2,120,228)" /><rect x="517" y="47" width="15" height="5" fill="rgb(2,120,228)" /><rect x="27" y="51" width="15" height="5" fill="rgb(2,120,228)" /><rect x="41" y="51" width="15" height="5" fill="rgb(2,120,228)" /><rect x="55" y="51" width="15" height="5" fill="rgb(2,120,228)" /><rect x="69" y="51" width="15" height="5" fill="rgb(2,120,228)" /><rect x="83" y="51" width="15" height="5" fill="rgb(2,120,228)" /><rect x="377" y="51" width="15" height="5" fill="rgb(2,120,228)" /><rect x="405" y="51" width="15" height="5" fill="rgb(2,120,228)" /><rect x="433" y="51" width="15" height="5" fill="rgb(2,120,228)" /><rect x="517" y="51" width="15" height="5" fill="rgb(2,120,228)" /><rect x="13" y="55" width="15" height="5" fill="rgb(2,120,228)" /><rect x="83" y="55" width="15" height="5" fill="rgb(2,120,228)" /><rect x="111" y="55" width="15" height="5" fill="rgb(2,120,228)" /><rect x="377" y="55" width="15" height="5" fill="rgb(2,120,228)" /><rect x="405" y="55" width="15" height="5" fill="rgb(2,120,228)" /><rect x="433" y="55" width="15" height="5" fill="rgb(2,120,228)" /><rect x="517" y="55" width="15" height="5" fill="rgb(2,120,228)" /><rect x="531" y="55" width="15" height="5" fill="rgb(2,120,228)" /><rect x="13" y="59" width="15" height="5" fill="rgb(2,120,228)" /><rect x="83" y="59" width="15" height="5" fill="rgb(2,120,228)" /><rect x="111" y="59" width="15" height="5" fill="rgb(2,120,228)" /><rect x="335" y="59" width="15" height="5" fill="rgb(2,120,228)" /><rect x="405" y="59" width="15" height="5" fill="rgb(2,120,228)" /><rect x="433" y="59" width="15" height="5" fill="rgb(2,120,228)" /><rect x="475" y="59" width="15" height="5" fill="rgb(2,120,228)" /><rect x="531" y="59" width="15" height="5" fill="rgb(2,120,228)" /><rect x="13" y="63" width="15" height="5" fill="rgb(2,120,228)" /><rect x="83" y="63" width="15" height="5" fill="rgb(2,120,228)" /><rect x="111" y="63" width="15" height="5" fill="rgb(2,120,228)" /><rect x="153" y="63" width="15" height="5" fill="rgb(2,120,228)" /><rect x="167" y="63" width="15" height="5" fill="rgb(2,121,228)" /><rect x="181" y="63" width="15" height="5" fill="rgb(2,120,228)" /><rect x="321" y="63" width="15" height="5" fill="rgb(2,120,228)" /><rect x="349" y="63" width="15" height="5" fill="rgb(2,120,228)" /><rect x="363" y="63" width="15" height="5" fill="rgb(2,120,228)" /><rect x="405" y="63" width="15" height="5" fill="rgb(2,120,228)" /><rect x="447" y="63" width="15" height="5" fill="rgb(2,120,228)" /><rect x="461" y="63" width="15" height="5" fill="rgb(2,120,228)" /><rect x="475" y="63" width="15" height="5" fill="rgb(2,120,228)" /><rect x="531" y="63" width="15" height="5" fill="rgb(2,120,228)" /><rect x="83" y="67" width="15" height="5" fill="rgb(2,120,228)" /><rect x="111" y="67" width="15" height="5" fill="rgb(2,120,228)" /><rect x="153" y="67" width="15" height="5" fill="rgb(2,120,228)" /><rect x="167" y="67" width="15" height="5" fill="rgb(2,120,228)" /><rect x="209" y="67" width="15" height="5" fill="rgb(2,120,228)" /><rect x="251" y="67" width="15" height="5" fill="rgb(2,120,228)" /><rect x="293" y="67" width="15" height="5" fill="rgb(2,120,228)" /><rect x="321" y="67" width="15" height="5" fill="rgb(2,120,228)" /><rect x="363" y="67" width="15" height="5" fill="rgb(2,120,228)" /><rect x="405" y="67" width="15" height="5" fill="rgb(2,120,228)" /><rect x="447" y="67" width="15" height="5" fill="rgb(2,120,228)" /><rect x="461" y="67" width="15" height="5" fill="rgb(2,120,228)" /><rect x="531" y="67" width="15" height="5" fill="rgb(2,120,228)" /><rect x="545" y="67" width="15" height="5" fill="rgb(2,120,228)" /><rect x="545" y="71" width="15" height="5" fill="rgb(2,120,228)" /><rect x="503" y="75" width="15" height="5" fill="rgb(20,162,16)" /><rect x="545" y="75" width="15" height="5" fill="rgb(2,120,228)" /><rect x="503" y="79" width="15" height="5" fill="rgb(20,162,16)" /><rect x="545" y="79" width="15" height="5" fill="rgb(2,120,228)" /><rect x="517" y="87" width="15" height="5" fill="rgb(20,162,16)" /><rect x="517" y="91" width="15" height="5" fill="rgb(20,162,16)" /><rect x="531" y="99" width="15" height="5" fill="rgb(20,162,16)" /><g transform="translate(0.000000,168.000000) scale(0.100000,-0.100000)" fill="#1FAC00" stroke="none"><path d="M5080 1030 c0 -5 5 -10 11 -10 6 0 19 -10 28 -22 11 -13 20 -17 25 -10 3 6 -6 20 -20 31 -29 23 -44 27 -44 11z"/><path d="M5003 962 c-35 -32 -63 -61 -63 -64 0 -10 170 -151 175 -146 7 6 -25 49 -33 44 -8 -5 -42 18 -45 31 -1 4 -5 7 -9 6 -4 -2 -15 8 -24 22 -9 14 -20 23 -24 20 -11 -7 -33 22 -25 35 3 6 11 8 16 5 5 -4 12 1 15 9 3 9 9 14 14 11 9 -6 63 51 66 70 1 8 2 15 1 15 -1 -1 -30 -27 -64 -58z m57 35 c0 -2 -15 -16 -32 -33 l-33 -29 29 33 c28 30 36 37 36 29z"/><path d="M5173 958 c8 -13 20 -22 26 -21 5 2 19 -11 31 -27 12 -17 25 -28 30 -25 5 3 18 -8 30 -25 12 -17 25 -28 30 -25 4 3 15 -7 24 -20 9 -14 21 -23 26 -20 5 3 18 -8 30 -25 12 -17 25 -28 30 -25 5 3 18 -8 30 -25 12 -17 25 -28 30 -25 5 3 13 -3 19 -12 6 -10 11 -12 11 -6 0 12 -342 303 -356 303 -4 0 0 -10 9 -22z"/><path d="M1633 803 c9 -2 23 -2 30 0 6 3 -1 5 -18 5 -16 0 -22 -2 -12 -5z"/><path d="M988 793 c23 -2 59 -2 80 0 20 2 1 4 -43 4 -44 0 -61 -2 -37 -4z"/><path d="M1806 781 c-10 -11 -16 -26 -13 -33 3 -8 6 -6 6 5 1 12 6 16 14 11 6 -4 9 -4 5 1 -4 4 -3 14 3 22 18 20 4 15 -15 -6z"/><path d="M1846 792 c-3 -5 1 -9 9 -9 8 0 12 4 9 9 -3 4 -7 8 -9 8 -2 0 -6 -4 -9 -8z"/><path d="M2403 793 c9 -2 23 -2 30 0 6 3 -1 5 -18 5 -16 0 -22 -2 -12 -5z"/><path d="M2540 795 c0 -8 29 -12 39 -5 9 5 4 8 -13 8 -14 0 -26 -2 -26 -3z"/><path d="M973 773 c26 -2 67 -2 90 0 23 2 2 3 -48 3 -49 0 -68 -1 -42 -3z"/><path d="M2410 773 c14 -2 31 -12 39 -21 13 -16 13 -16 7 1 -3 10 -6 21 -6 23 0 2 -15 3 -32 3 -28 -1 -29 -2 -8 -6z"/><path d="M2597 767 c-3 -8 1 -14 8 -14 7 0 11 6 8 14 -3 7 -6 13 -8 13 -2 0 -5 -6 -8 -13z"/><path d="M911 754 c0 -11 3 -14 6 -6 3 7 2 16 -1 19 -3 4 -6 -2 -5 -13z"/><path d="M1600 755 c0 -5 5 -17 10 -25 5 -8 10 -10 10 -5 0 6 -5 17 -10 25 -5 8 -10 11 -10 5z"/><path d="M2362 740 c0 -14 2 -19 5 -12 2 6 2 18 0 25 -3 6 -5 1 -5 -13z"/><path d="M2381 744 c0 -11 3 -14 6 -6 3 7 2 16 -1 19 -3 4 -6 -2 -5 -13z"/><path d="M2511 755 c-2 -36 66 -58 90 -29 11 13 10 13 -55 1 -6 -1 -10 7 -8 18 2 15 1 17 -6 6 -8 -11 -10 -11 -15 0 -3 8 -6 10 -6 4z"/><path d="M5143 737 c0 -8 31 -39 68 -68 37 -30 67 -57 66 -61 -1 -4 -126 -136 -276 -293 -151 -157 -276 -292 -277 -300 -2 -11 5 -14 21 -11 30 6 238 181 241 204 2 11 -5 7 -22 -13 -13 -16 -29 -29 -34 -28 -5 2 -18 -11 -30 -27 -12 -17 -25 -28 -30 -25 -4 3 -20 -11 -35 -31 -15 -19 -30 -33 -33 -30 -3 3 -11 1 -18 -5 -7 -6 -14 -6 -18 -1 -3 6 62 74 144 152 82 78 148 146 145 150 -3 4 54 63 125 130 72 67 130 127 129 133 0 7 -3 7 -6 -1 -3 -9 -14 -1 -30 23 -13 19 -28 33 -32 30 -5 -3 -16 7 -25 20 -9 14 -21 23 -26 20 -4 -3 -17 7 -27 21 -13 17 -20 21 -20 11z m147 -140 c0 -1 -28 -29 -62 -62 l-63 -60 60 63 c55 58 65 67 65 59z m-240 -250 c0 -1 -33 -34 -72 -72 l-73 -70 70 73 c64 67 75 77 75 69z m-261 -305 c13 10 14 10 3 -2 -7 -8 -23 -15 -37 -16 -20 -1 -23 2 -13 13 7 9 14 11 21 4 7 -7 16 -7 26 1z"/><path d="M1817 725 c2 -6 12 -11 23 -11 11 0 21 5 23 11 3 5 -8 10 -23 10 -15 0 -26 -5 -23 -10z"/><path d="M945 721 l20 -8 -20 -5 c-18 -5 -18 -6 3 -7 12 0 22 4 22 10 0 5 5 7 10 4 6 -3 10 -1 10 4 0 6 -15 11 -32 10 -27 0 -29 -2 -13 -8z"/><path d="M1053 723 c9 -2 25 -2 35 0 9 3 1 5 -18 5 -19 0 -27 -2 -17 -5z"/><path d="M1590 721 c0 -7 -4 -10 -9 -6 -6 3 -8 -4 -6 -16 6 -33 13 -34 21 -5 3 15 4 30 0 33 -3 4 -6 1 -6 -6z"/><path d="M1680 715 c0 -17 -2 -17 -10 -5 -8 12 -10 10 -10 -9 0 -17 3 -21 13 -14 22 18 66 21 71 6 3 -8 10 -12 15 -9 11 7 21 -18 20 -47 -1 -17 -3 -15 -10 8 -5 20 -6 9 -2 -30 7 -71 13 -84 14 -29 0 31 2 35 9 19 6 -13 7 -2 3 30 -7 57 -34 87 -72 78 -14 -4 -26 0 -32 8 -7 11 -9 9 -9 -6z"/><path d="M1963 718 c-13 -6 -23 -18 -23 -27 1 -14 2 -14 13 -1 13 16 80 24 71 8 -3 -5 0 -7 8 -6 7 2 12 -3 10 -10 -1 -8 2 -11 8 -7 5 3 10 -1 10 -9 0 -8 5 -18 11 -21 22 -14 3 30 -22 52 -17 15 -34 20 -50 17 -19 -5 -21 -3 -9 5 19 14 2 13 -27 -1z"/><path d="M2150 719 c12 -9 10 -10 -8 -6 -32 7 -52 -1 -51 -22 0 -10 2 -11 6 -3 2 6 10 9 15 6 6 -4 8 -3 5 3 -4 6 8 9 29 9 19 -1 39 -8 44 -16 8 -13 10 -13 10 1 0 9 -11 21 -25 27 -32 15 -45 15 -25 1z"/><path d="M2835 720 c-8 -12 20 -24 35 -15 6 3 8 11 5 16 -8 12 -32 12 -40 -1z m32 -6 c-3 -3 -12 -4 -19 -1 -8 3 -5 6 6 6 11 1 17 -2 13 -5z"/><path d="M3005 720 c-8 -12 -8 -12 38 -15 23 -1 33 1 25 6 -7 4 -24 6 -38 3 -20 -4 -22 -3 -10 5 9 7 10 11 3 11 -6 0 -15 -4 -18 -10z"/><path d="M1155 710 c-16 -7 -17 -9 -3 -9 9 -1 20 4 23 9 7 11 7 11 -20 0z"/><path d="M1190 708 c0 -19 34 -50 44 -41 5 5 6 -8 2 -27 -4 -26 -3 -30 3 -15 11 23 14 72 4 62 -3 -4 -17 3 -30 15 -18 16 -23 18 -23 6z m31 -25 c13 -16 12 -17 -3 -4 -10 7 -18 15 -18 17 0 8 8 3 21 -13z"/><path d="M1471 704 c-10 -7 -21 -10 -25 -7 -3 3 -6 -2 -7 -13 0 -18 -1 -18 -9 1 -6 14 -9 16 -9 4 -1 -8 6 -24 14 -35 15 -18 15 -18 8 0 -4 12 -3 17 4 13 6 -4 16 0 23 8 7 8 9 15 4 15 -5 0 -2 4 6 9 8 6 26 7 41 4 15 -3 29 -1 32 3 8 14 -62 12 -82 -2z"/><path d="M2431 704 c0 -11 3 -14 6 -6 3 7 2 16 -1 19 -3 4 -6 -2 -5 -13z"/><path d="M2451 704 c0 -11 3 -14 6 -6 3 7 2 16 -1 19 -3 4 -6 -2 -5 -13z"/><path d="M2792 700 c-13 -12 -22 -16 -22 -9 0 7 -3 10 -6 6 -3 -3 -3 -11 1 -17 5 -8 12 -7 24 4 10 9 20 14 23 11 2 -3 5 2 5 10 0 19 1 19 -25 -5z"/><path d="M2893 705 c0 -8 3 -13 5 -10 9 9 32 -17 25 -28 -3 -6 -1 -7 5 -3 13 8 16 -12 6 -38 -5 -12 -21 -16 -63 -17 -31 -1 -45 -4 -32 -6 19 -4 21 -7 10 -14 -9 -6 -4 -8 18 -4 17 3 34 1 37 -3 7 -12 42 -8 59 7 13 10 17 9 26 -6 9 -16 10 -16 8 4 0 12 -5 19 -9 17 -4 -3 -8 0 -8 6 0 6 -4 9 -9 6 -5 -3 -12 1 -15 10 -8 21 -8 59 1 51 9 -10 33 13 33 31 0 12 -6 10 -25 -8 l-25 -23 -23 21 c-18 17 -24 19 -24 7z m59 -99 c2 -14 -3 -19 -20 -21 -13 -1 -25 2 -28 7 -3 4 2 8 11 8 8 0 18 7 22 15 7 19 10 17 15 -9z"/><path d="M3202 687 c-21 -22 -28 -34 -18 -34 8 0 13 3 11 7 -6 9 30 42 37 35 2 -3 5 2 5 10 0 19 2 20 -35 -18z"/><path d="M3257 706 c3 -4 17 -6 32 -3 20 4 30 0 39 -14 7 -11 17 -17 22 -14 17 10 11 23 -12 31 -31 11 -87 11 -81 0z"/><path d="M3574 705 c-12 -8 -25 -11 -30 -7 -5 4 -2 -2 6 -12 14 -18 13 -19 -5 -12 -16 6 -18 5 -7 -6 10 -10 18 -7 43 20 32 34 28 42 -7 17z"/><path d="M3635 710 c-16 -7 -17 -9 -3 -9 9 -1 20 4 23 9 7 11 7 11 -20 0z"/><path d="M3797 713 c-4 -3 -7 -13 -7 -22 1 -14 2 -14 13 -1 7 9 21 14 32 13 l20 -3 -20 9 c-25 12 -30 13 -38 4z"/><path d="M1049 683 c0 -25 -1 -26 -9 -8 -7 14 -8 8 -3 -20 7 -46 13 -58 13 -26 0 12 4 19 10 16 6 -4 7 1 3 11 -4 12 -3 15 6 10 7 -5 10 -2 9 5 -2 7 3 13 11 14 8 0 16 6 19 13 2 8 -7 12 -27 12 -27 0 -31 -4 -32 -27z m31 13 c0 -3 -4 -8 -10 -11 -5 -3 -10 -1 -10 4 0 6 5 11 10 11 6 0 10 -2 10 -4z"/><path d="M2361 705 c1 -19 18 -51 18 -35 0 8 -4 22 -9 30 -5 8 -9 11 -9 5z"/><path d="M3680 703 c5 -2 8 -9 5 -13 -3 -5 -1 -11 4 -14 5 -4 8 2 7 11 -2 9 -8 18 -15 19 -6 1 -7 0 -1 -3z"/><path d="M1261 684 c0 -11 3 -14 6 -6 3 7 2 16 -1 19 -3 4 -6 -2 -5 -13z"/><path d="M1332 680 c0 -14 2 -19 5 -12 2 6 2 18 0 25 -3 6 -5 1 -5 -13z"/><path d="M1351 684 c0 -11 3 -14 6 -6 3 7 2 16 -1 19 -3 4 -6 -2 -5 -13z"/><path d="M1801 684 c0 -11 3 -14 6 -6 3 7 2 16 -1 19 -3 4 -6 -2 -5 -13z"/><path d="M1864 633 c-5 -48 -9 -62 -15 -48 -4 11 -8 15 -8 8 -1 -6 2 -19 5 -28 10 -24 23 1 25 45 0 29 2 32 9 15 6 -13 7 -5 3 25 -3 25 -7 46 -9 48 -1 2 -6 -27 -10 -65z"/><path d="M2240 684 c0 -10 5 -26 10 -34 8 -11 9 -7 4 15 -8 37 -14 45 -14 19z"/><path d="M2261 684 c0 -11 3 -14 6 -6 3 7 2 16 -1 19 -3 4 -6 -2 -5 -13z"/><path d="M2657 686 c-10 -25 -8 -34 3 -16 8 12 10 11 10 -7 0 -13 4 -23 10 -23 5 0 6 7 3 17 -4 11 -3 14 5 9 8 -5 10 -1 5 10 -4 11 -3 15 5 10 6 -3 13 -2 16 3 7 10 -13 9 -31 -2 -6 -4 -13 -2 -15 5 -3 7 -7 5 -11 -6z"/><path d="M3712 675 c-14 -31 -15 -46 -2 -25 7 12 11 10 19 -10 9 -21 10 -19 5 15 -8 50 -8 50 -22 20z"/><path d="M3091 674 c0 -11 3 -14 6 -6 3 7 2 16 -1 19 -3 4 -6 -2 -5 -13z"/><path d="M1311 670 c0 -8 4 -22 9 -30 12 -18 12 -2 0 25 -6 13 -9 15 -9 5z"/><path d="M1851 664 c0 -11 3 -14 6 -6 3 7 2 16 -1 19 -3 4 -6 -2 -5 -13z"/><path d="M2351 664 c0 -11 3 -14 6 -6 3 7 2 16 -1 19 -3 4 -6 -2 -5 -13z"/><path d="M3841 664 c0 -11 3 -14 6 -6 3 7 2 16 -1 19 -3 4 -6 -2 -5 -13z"/><path d="M2847 663 c-4 -6 0 -13 8 -17 8 -3 17 0 21 6 4 6 3 8 -4 4 -5 -3 -12 -1 -14 6 -3 8 -6 9 -11 1z"/><path d="M3021 651 c16 -24 51 -22 55 4 3 20 3 20 -12 1 -8 -11 -14 -14 -14 -7 0 7 -4 9 -10 6 -5 -3 -10 -1 -10 4 0 6 -5 11 -10 11 -6 0 -6 -7 1 -19z"/><path d="M3433 655 c-3 -9 -3 -19 1 -22 3 -4 6 2 6 11 0 12 5 16 16 12 8 -3 12 -2 9 4 -9 15 -25 12 -32 -5z"/><path d="M3620 659 c0 -5 -5 -7 -12 -3 -7 4 -8 3 -4 -4 4 -6 13 -9 21 -5 17 6 20 23 5 23 -5 0 -10 -5 -10 -11z"/><path d="M952 640 c0 -14 2 -19 5 -12 2 6 2 18 0 25 -3 6 -5 1 -5 -13z"/><path d="M971 644 c0 -11 3 -14 6 -6 3 7 2 16 -1 19 -3 4 -6 -2 -5 -13z"/><path d="M1120 645 c-7 -8 -10 -18 -6 -22 3 -3 6 -2 6 4 0 6 9 9 20 6 25 -7 21 -28 -6 -28 -23 0 -21 -18 2 -21 23 -4 39 16 39 46 0 30 -35 40 -55 15z"/><path d="M1351 655 c1 -19 18 -51 18 -35 0 8 -4 22 -9 30 -5 8 -9 11 -9 5z"/><path d="M1507 654 c-9 -9 4 -35 14 -28 5 3 9 12 9 20 0 14 -12 19 -23 8z"/><path d="M1550 650 c8 -5 11 -10 5 -10 -5 0 -2 -5 8 -11 10 -6 22 -8 25 -4 8 7 -26 35 -42 35 -6 0 -4 -5 4 -10z"/><path d="M1601 644 c0 -11 3 -14 6 -6 3 7 2 16 -1 19 -3 4 -6 -2 -5 -13z"/><path d="M1673 639 c-2 -16 0 -17 18 -1 10 9 19 17 19 17 0 0 -8 1 -18 1 -10 0 -19 -8 -19 -17z"/><path d="M1944 649 c-2 -4 0 -10 6 -14 5 -3 10 -3 11 2 0 4 4 -1 9 -12 8 -18 9 -18 9 6 1 24 -23 37 -35 18z"/><path d="M2129 657 c-4 -10 -2 -64 3 -61 3 2 8 -2 11 -8 5 -15 39 1 43 20 1 7 0 8 -2 3 -3 -5 -14 -7 -25 -4 -23 6 -21 40 2 35 8 -2 10 0 6 4 -7 7 -36 15 -38 11z"/><path d="M2441 635 c-2 -26 -3 -27 -11 -10 -7 16 -8 14 -7 -12 1 -20 6 -28 12 -22 14 14 68 12 59 -3 -4 -7 -3 -8 4 -4 21 13 12 26 -17 26 -25 0 -30 5 -34 28 l-4 27 -2 -30z"/><path d="M2502 640 c0 -14 2 -19 5 -12 2 6 2 18 0 25 -3 6 -5 1 -5 -13z"/><path d="M2521 644 c0 -11 3 -14 6 -6 3 7 2 16 -1 19 -3 4 -6 -2 -5 -13z"/><path d="M2594 633 c-7 -25 -8 -25 -15 -8 -5 13 -8 15 -8 5 -1 -33 38 -50 46 -20 4 13 3 13 -7 0 -9 -12 -11 -8 -6 18 7 39 -1 43 -10 5z"/><path d="M3260 644 c0 -9 -5 -12 -12 -8 -7 4 -8 3 -4 -4 4 -6 14 -8 23 -5 9 4 21 -1 29 -12 12 -16 13 -16 11 3 0 11 -5 18 -9 16 -4 -3 -8 2 -8 10 0 9 -7 16 -15 16 -8 0 -15 -7 -15 -16z"/><path d="M3805 639 c-4 -11 -4 -23 -1 -26 3 -4 6 -1 6 5 0 7 8 12 18 13 10 0 12 3 4 6 -6 2 -10 9 -6 14 3 5 1 9 -5 9 -5 0 -13 -9 -16 -21z"/><path d="M1991 634 c0 -11 3 -14 6 -6 3 7 2 16 -1 19 -3 4 -6 -2 -5 -13z"/><path d="M2745 640 c3 -5 1 -10 -4 -10 -6 0 -10 -3 -10 -7 3 -20 -2 -34 -11 -28 -6 4 -7 -1 -3 -11 4 -12 3 -15 -5 -10 -8 5 -10 1 -5 -10 4 -12 3 -15 -6 -10 -7 5 -10 2 -9 -5 2 -8 -11 -16 -32 -20 l-35 -6 31 -2 c34 -1 50 13 84 74 22 40 22 40 16 8 -4 -27 0 -36 30 -62 44 -39 83 -40 121 -5 15 15 21 21 12 15 -9 -6 -20 -7 -24 -3 -5 4 -5 1 0 -7 6 -10 2 -12 -16 -6 -19 5 -21 4 -9 -4 12 -8 7 -11 -20 -11 -28 0 -32 3 -20 11 12 9 12 10 -4 5 -21 -7 -60 26 -48 40 4 4 1 4 -7 -1 -10 -6 -12 -2 -6 14 7 25 -2 61 -16 61 -6 0 -7 -4 -4 -10z"/><path d="M5505 640 c-4 -6 -10 -8 -15 -5 -5 3 -18 -8 -30 -25 -12 -17 -25 -28 -30 -25 -10 6 -33 -21 -28 -34 1 -5 30 14 63 44 33 30 57 54 53 55 -4 0 -10 -5 -13 -10z"/><path d="M3166 633 c-3 -3 -6 -13 -5 -22 0 -12 3 -11 10 4 7 16 8 13 5 -12 -5 -33 7 -52 20 -32 4 8 3 9 -4 5 -8 -5 -10 2 -6 22 6 28 -6 49 -20 35z"/><path d="M3377 633 c-4 -3 -7 -18 -7 -32 0 -21 -2 -23 -11 -11 -9 13 -10 13 -6 -2 6 -18 -25 -52 -38 -41 -4 5 -5 2 0 -6 6 -10 2 -12 -16 -7 -21 6 -22 6 -6 -5 16 -9 24 -6 53 22 29 28 34 30 35 13 0 -18 1 -18 9 1 12 28 12 43 -1 25 -8 -11 -9 -7 -5 18 6 33 4 37 -7 25z"/><path d="M3517 623 c4 -11 3 -14 -6 -9 -6 4 -11 4 -10 -1 3 -20 -2 -34 -11 -28 -6 4 -7 -1 -3 -11 4 -12 3 -15 -5 -10 -8 5 -10 1 -5 -10 5 -13 10 -10 23 17 16 29 18 31 24 12 3 -11 17 -30 30 -42 20 -19 28 -21 43 -11 12 8 13 10 2 7 -8 -3 -21 4 -28 14 -6 11 -17 17 -23 13 -8 -5 -9 -2 -5 10 4 10 3 15 -3 11 -10 -6 -14 6 -11 38 1 9 -2 17 -8 17 -6 0 -7 -7 -4 -17z"/><path d="M1250 599 c0 -28 -2 -30 -17 -19 -10 7 1 -6 24 -29 52 -51 87 -54 135 -12 l33 29 33 -29 c32 -29 74 -37 100 -20 11 7 10 10 -3 15 -24 9 -32 7 -15 -4 11 -7 6 -10 -20 -10 -28 0 -32 3 -20 11 13 9 12 10 -2 5 -10 -3 -18 -1 -18 4 0 6 -6 9 -12 7 -7 -1 -12 4 -10 11 1 8 -2 11 -8 7 -5 -3 -16 9 -24 27 -15 32 -15 32 -9 4 5 -23 3 -27 -8 -21 -8 5 -11 5 -7 0 11 -11 -12 -36 -25 -28 -6 4 -7 1 -2 -7 6 -9 1 -10 -16 -5 -19 5 -21 4 -9 -4 12 -8 7 -11 -20 -11 -27 0 -32 3 -20 11 12 8 11 9 -6 4 -29 -8 -49 19 -45 61 1 19 0 34 -3 34 -3 0 -6 -14 -6 -31z"/><path d="M1340 613 c0 -14 -2 -15 -9 -5 -6 11 -9 9 -13 -5 -3 -12 0 -20 8 -20 8 0 14 4 14 9 0 5 4 7 9 4 5 -4 7 3 4 14 -7 25 -13 26 -13 3z"/><path d="M1493 610 c2 -20 7 -24 34 -25 17 0 30 2 27 6 -2 4 -1 9 3 12 5 2 1 2 -7 -1 -36 -10 -45 -8 -52 12 -6 19 -7 18 -5 -4z"/><path d="M1650 625 c0 -5 5 -17 10 -25 5 -8 10 -10 10 -5 0 6 -5 17 -10 25 -5 8 -10 11 -10 5z"/><path d="M2046 605 c4 -16 6 -39 6 -50 -1 -16 1 -17 8 -5 8 12 10 12 15 -2 6 -14 23 -24 63 -33 7 -2 16 3 19 11 3 8 9 11 14 8 5 -3 9 2 9 11 0 14 -4 13 -27 -5 -26 -20 -28 -20 -40 -4 -7 10 -13 14 -13 10 0 -5 -7 -3 -15 4 -8 7 -12 17 -8 24 3 6 2 7 -3 3 -5 -5 -14 7 -21 25 -13 32 -13 32 -7 3z"/><path d="M2252 610 c0 -14 2 -19 5 -12 2 6 2 18 0 25 -3 6 -5 1 -5 -13z"/><path d="M2660 615 c0 -8 2 -15 4 -15 2 0 6 7 10 15 3 8 1 15 -4 15 -6 0 -10 -7 -10 -15z"/><path d="M1021 604 c0 -11 3 -14 6 -6 3 7 2 16 -1 19 -3 4 -6 -2 -5 -13z"/><path d="M1691 615 c1 -19 18 -51 18 -35 0 8 -4 22 -9 30 -5 8 -9 11 -9 5z"/><path d="M1931 604 c0 -11 3 -14 6 -6 3 7 2 16 -1 19 -3 4 -6 -2 -5 -13z"/><path d="M1951 604 c0 -11 3 -14 6 -6 3 7 2 16 -1 19 -3 4 -6 -2 -5 -13z"/><path d="M2231 604 c0 -11 3 -14 6 -6 3 7 2 16 -1 19 -3 4 -6 -2 -5 -13z"/><path d="M3064 609 c-4 -8 -3 -9 4 -5 8 5 12 -1 12 -14 0 -12 -4 -18 -10 -15 -6 4 -7 -1 -3 -11 4 -11 3 -15 -5 -10 -6 3 -14 1 -19 -6 -4 -7 -25 -14 -45 -14 -23 -1 -35 3 -31 9 3 6 1 7 -5 3 -5 -3 -13 0 -15 6 -4 9 -6 10 -6 1 -1 -17 39 -43 67 -43 29 0 82 51 82 79 0 24 -16 36 -26 20z m-41 -86 c-7 -2 -21 -2 -30 0 -10 3 -4 5 12 5 17 0 24 -2 18 -5z"/><path d="M3780 615 c0 -5 5 -17 10 -25 5 -8 10 -10 10 -5 0 6 -5 17 -10 25 -5 8 -10 11 -10 5z"/><path d="M951 605 c1 -19 18 -51 18 -35 0 8 -4 22 -9 30 -5 8 -9 11 -9 5z"/><path d="M1576 594 c-3 -9 -4 -19 -1 -22 3 -3 5 1 6 9 0 8 4 6 9 -6 6 -13 9 -15 9 -5 0 8 -3 21 -8 28 -6 11 -10 10 -15 -4z"/><path d="M2342 590 c0 -14 2 -19 5 -12 2 6 2 18 0 25 -3 6 -5 1 -5 -13z"/><path d="M2361 594 c0 -11 3 -14 6 -6 3 7 2 16 -1 19 -3 4 -6 -2 -5 -13z"/><path d="M3253 595 c0 -6 9 -11 19 -11 10 0 18 5 18 11 0 6 -8 11 -18 11 -10 0 -19 -5 -19 -11z"/><path d="M3590 602 c0 -4 28 -6 62 -5 35 1 58 -1 53 -5 -14 -10 -37 -53 -32 -58 2 -3 12 -2 21 2 11 4 15 13 11 25 -4 11 -2 19 4 19 6 0 11 7 11 15 0 12 -14 15 -65 15 -36 0 -65 -3 -65 -8z"/><path d="M1035 577 c-4 -15 -5 -31 -1 -34 3 -4 6 2 6 11 0 15 7 12 35 -13 21 -18 47 -31 63 -31 35 0 95 36 86 52 -5 8 -11 6 -19 -5 -7 -9 -16 -13 -20 -9 -5 4 -5 1 0 -7 6 -10 2 -12 -16 -6 -19 5 -21 4 -9 -4 12 -8 7 -11 -20 -11 -27 0 -32 3 -20 11 12 8 10 9 -9 4 -18 -6 -22 -4 -16 6 5 8 5 11 0 7 -11 -11 -36 12 -28 25 3 5 1 7 -5 3 -6 -3 -12 2 -15 11 -3 14 -6 11 -12 -10z"/><path d="M1682 565 c0 -16 2 -22 5 -12 2 9 2 23 0 30 -3 6 -5 -1 -5 -18z"/><path d="M3616 578 c3 -5 10 -6 15 -3 13 9 11 12 -6 12 -8 0 -12 -4 -9 -9z"/><path d="M942 560 c0 -14 2 -19 5 -12 2 6 2 18 0 25 -3 6 -5 1 -5 -13z"/><path d="M1661 564 c0 -11 3 -14 6 -6 3 7 2 16 -1 19 -3 4 -6 -2 -5 -13z"/><path d="M1751 564 c0 -11 3 -14 6 -6 3 7 2 16 -1 19 -3 4 -6 -2 -5 -13z"/><path d="M2582 560 c0 -14 2 -19 5 -12 2 6 2 18 0 25 -3 6 -5 1 -5 -13z"/><path d="M2616 565 c-9 -26 -7 -32 5 -12 6 10 9 21 6 23 -2 3 -7 -2 -11 -11z"/><path d="M1641 554 c0 -11 3 -14 6 -6 3 7 2 16 -1 19 -3 4 -6 -2 -5 -13z"/><path d="M1961 554 c0 -11 3 -14 6 -6 3 7 2 16 -1 19 -3 4 -6 -2 -5 -13z"/><path d="M1981 554 c0 -11 3 -14 6 -6 3 7 2 16 -1 19 -3 4 -6 -2 -5 -13z"/><path d="M2491 554 c0 -11 3 -14 6 -6 3 7 2 16 -1 19 -3 4 -6 -2 -5 -13z"/><path d="M2561 554 c0 -11 3 -14 6 -6 3 7 2 16 -1 19 -3 4 -6 -2 -5 -13z"/><path d="M3721 554 c0 -11 3 -14 6 -6 3 7 2 16 -1 19 -3 4 -6 -2 -5 -13z"/><path d="M3791 554 c0 -11 3 -14 6 -6 3 7 2 16 -1 19 -3 4 -6 -2 -5 -13z"/><path d="M3200 553 c0 -19 46 -45 72 -40 19 3 18 5 -7 6 -24 1 -27 3 -15 12 12 8 10 9 -7 4 -15 -4 -25 0 -32 12 -6 10 -11 12 -11 6z"/><path d="M3460 541 c0 -5 -12 -12 -27 -14 -26 -4 -26 -4 5 -6 22 -1 32 3 32 14 0 8 -2 15 -5 15 -3 0 -5 -4 -5 -9z"/><path d="M3639 531 c11 -7 8 -10 -12 -14 l-27 -4 27 1 c29 1 45 26 16 26 -14 0 -15 -2 -4 -9z"/><path d="M5333 503 c-14 -18 -29 -31 -33 -28 -5 3 -18 -8 -30 -25 -12 -17 -25 -28 -30 -25 -5 3 -18 -8 -30 -25 -12 -17 -25 -28 -30 -25 -5 3 -18 -8 -30 -25 -12 -17 -25 -28 -30 -25 -5 3 -21 -10 -35 -29 -15 -20 -30 -34 -33 -33 -4 1 -8 -2 -9 -6 -1 -4 -12 -17 -25 -28 -13 -11 -16 -17 -8 -13 15 8 380 313 380 318 0 1 -7 3 -16 3 -8 0 -27 -15 -41 -34z"/><path d="M973 523 c9 -2 25 -2 35 0 9 3 1 5 -18 5 -19 0 -27 -2 -17 -5z"/><path d="M1603 523 c9 -2 23 -2 30 0 6 3 -1 5 -18 5 -16 0 -22 -2 -12 -5z"/><path d="M1713 523 c9 -2 23 -2 30 0 6 3 -1 5 -18 5 -16 0 -22 -2 -12 -5z"/><path d="M1803 523 c9 -2 23 -2 30 0 6 3 -1 5 -18 5 -16 0 -22 -2 -12 -5z"/><path d="M1893 523 c9 -2 23 -2 30 0 6 3 -1 5 -18 5 -16 0 -22 -2 -12 -5z"/><path d="M2012 523 c14 -2 34 -15 42 -28 20 -31 53 -50 53 -30 0 7 -7 11 -14 8 -8 -3 -13 0 -11 8 2 8 -3 13 -10 11 -10 -2 -12 4 -7 20 5 18 4 20 -4 8 -7 -10 -11 -11 -11 -2 0 7 -12 11 -32 11 -30 -2 -30 -2 -6 -6z"/><path d="M2387 523 c18 -2 50 -2 70 0 21 2 7 4 -32 4 -38 0 -55 -2 -38 -4z"/><path d="M2523 523 c9 -2 23 -2 30 0 6 3 -1 5 -18 5 -16 0 -22 -2 -12 -5z"/><path d="M3738 523 c6 -2 18 -2 25 0 6 3 1 5 -13 5 -14 0 -19 -2 -12 -5z"/><path d="M2230 511 c0 -7 -5 -9 -10 -6 -6 4 -9 1 -8 -6 2 -7 -3 -14 -9 -15 -7 -1 -17 -2 -21 -3 -5 0 -9 -8 -9 -15 0 -11 5 -12 16 -6 25 13 55 49 48 57 -4 3 -7 1 -7 -6z"/></g><g transform="translate(0.000000,168.000000) scale(0.100000,-0.100000)" fill="#199F13" stroke="none"><path d="M5074 1008 c-4 -7 -3 -8 5 -4 6 4 20 2 29 -6 15 -12 16 -11 3 5 -16 20 -27 22 -37 5z"/><path d="M5039 963 c-13 -16 -12 -17 4 -4 16 13 21 21 13 21 -2 0 -10 -8 -17 -17z"/><path d="M5140 976 c0 -2 8 -10 18 -17 15 -13 16 -12 3 4 -13 16 -21 21 -21 13z"/><path d="M5200 926 c0 -2 8 -10 18 -17 15 -13 16 -12 3 4 -13 16 -21 21 -21 13z"/><path d="M4960 901 c0 -6 4 -13 10 -16 6 -3 7 1 4 9 -7 18 -14 21 -14 7z"/><path d="M5260 876 c0 -2 8 -10 18 -17 15 -13 16 -12 3 4 -13 16 -21 21 -21 13z"/><path d="M5000 866 c0 -2 8 -10 18 -17 15 -13 16 -12 3 4 -13 16 -21 21 -21 13z"/><path d="M5320 826 c0 -2 8 -10 18 -17 15 -13 16 -12 3 4 -13 16 -21 21 -21 13z"/><path d="M1623 775 c-3 -9 -3 -19 1 -22 3 -4 6 1 6 10 0 8 10 18 23 20 l22 4 -23 2 c-12 0 -25 -6 -29 -14z"/><path d="M5370 786 c0 -2 8 -10 18 -17 15 -13 16 -12 3 4 -13 16 -21 21 -21 13z"/><path d="M1855 755 c0 -13 3 -21 8 -18 4 2 7 10 7 18 0 8 -3 16 -7 18 -5 3 -8 -5 -8 -18z"/><path d="M5110 776 c0 -2 8 -10 18 -17 15 -13 16 -12 3 4 -13 16 -21 21 -21 13z"/><path d="M932 750 c0 -14 2 -19 5 -12 2 6 2 18 0 25 -3 6 -5 1 -5 -13z"/><path d="M1092 750 c0 -14 2 -19 5 -12 2 6 2 18 0 25 -3 6 -5 1 -5 -13z"/><path d="M1662 740 c0 -14 2 -19 5 -12 2 6 2 18 0 25 -3 6 -5 1 -5 -13z"/><path d="M1810 751 c0 -6 4 -13 10 -16 6 -3 7 1 4 9 -7 18 -14 21 -14 7z"/><path d="M2431 734 c0 -11 3 -14 6 -6 3 7 2 16 -1 19 -3 4 -6 -2 -5 -13z"/><path d="M5160 736 c0 -2 8 -10 18 -17 15 -13 16 -12 3 4 -13 16 -21 21 -21 13z"/><path d="M5430 736 c0 -2 8 -10 18 -17 15 -13 16 -12 3 4 -13 16 -21 21 -21 13z"/><path d="M1032 710 c0 -14 2 -19 5 -12 2 6 2 18 0 25 -3 6 -5 1 -5 -13z"/><path d="M2382 710 c0 -14 2 -19 5 -12 2 6 2 18 0 25 -3 6 -5 1 -5 -13z"/><path d="M982 690 c0 -14 2 -19 5 -12 2 6 2 18 0 25 -3 6 -5 1 -5 -13z"/><path d="M1612 690 c0 -14 2 -19 5 -12 2 6 2 18 0 25 -3 6 -5 1 -5 -13z"/><path d="M1270 696 c0 -2 11 -6 25 -8 13 -3 22 -1 19 3 -5 9 -44 13 -44 5z"/><path d="M1388 693 c6 -2 18 -2 25 0 6 3 1 5 -13 5 -14 0 -19 -2 -12 -5z"/><path d="M1810 696 c0 -2 11 -6 25 -8 13 -3 22 -1 19 3 -5 9 -44 13 -44 5z"/><path d="M1908 693 c6 -2 18 -2 25 0 6 3 1 5 -13 5 -14 0 -19 -2 -12 -5z"/><path d="M1955 690 c-3 -6 1 -7 9 -4 18 7 21 14 7 14 -6 0 -13 -4 -16 -10z"/><path d="M2160 696 c0 -2 7 -7 16 -10 8 -3 12 -2 9 4 -6 10 -25 14 -25 6z"/><path d="M2208 693 c6 -2 18 -2 25 0 6 3 1 5 -13 5 -14 0 -19 -2 -12 -5z"/><path d="M2537 693 c-4 -3 -7 -11 -7 -17 0 -7 3 -7 8 0 4 7 16 14 27 17 19 5 19 5 -1 6 -11 0 -24 -2 -27 -6z"/><path d="M2600 696 c0 -2 11 -6 25 -8 14 -3 25 -1 25 3 0 5 -11 9 -25 9 -14 0 -25 -2 -25 -4z"/><path d="M2728 693 c6 -2 18 -2 25 0 6 3 1 5 -13 5 -14 0 -19 -2 -12 -5z"/><path d="M3053 689 c15 -9 16 -13 5 -27 -12 -15 -11 -16 5 -3 13 10 15 17 6 27 -6 8 -17 14 -23 14 -6 0 -3 -5 7 -11z"/><path d="M3300 696 c0 -2 7 -7 16 -10 8 -3 12 -2 9 4 -6 10 -25 14 -25 6z"/><path d="M3370 692 c0 -5 11 -7 24 -5 16 3 26 0 29 -11 4 -13 5 -13 3 1 -1 19 -56 33 -56 15z"/><path d="M3487 693 c-3 -5 8 -8 24 -8 16 0 29 3 29 8 0 4 -11 7 -24 7 -14 0 -27 -3 -29 -7z"/><path d="M3585 690 c-3 -6 1 -7 9 -4 18 7 21 14 7 14 -6 0 -13 -4 -16 -10z"/><path d="M3650 696 c0 -2 7 -7 16 -10 8 -3 12 -2 9 4 -6 10 -25 14 -25 6z"/><path d="M3743 685 c-3 -9 -3 -19 1 -22 3 -4 6 1 6 10 0 8 10 18 23 20 l22 4 -23 2 c-12 0 -25 -6 -29 -14z"/><path d="M5210 696 c0 -2 8 -10 18 -17 15 -13 16 -12 3 4 -13 16 -21 21 -21 13z"/><path d="M2089 673 c-13 -16 -12 -17 4 -4 16 13 21 21 13 21 -2 0 -10 -8 -17 -17z"/><path d="M2789 673 c-13 -16 -12 -17 4 -4 16 13 21 21 13 21 -2 0 -10 -8 -17 -17z"/><path d="M3209 673 c-13 -16 -12 -17 4 -4 9 7 17 15 17 17 0 8 -8 3 -21 -13z"/><path d="M5498 678 c9 -9 9 -15 -1 -27 -11 -14 -10 -14 6 -2 13 10 15 17 6 27 -6 8 -14 14 -17 14 -3 0 -1 -5 6 -12z"/><path d="M1371 664 c0 -11 3 -14 6 -6 3 7 2 16 -1 19 -3 4 -6 -2 -5 -13z"/><path d="M1891 664 c0 -11 3 -14 6 -6 3 7 2 16 -1 19 -3 4 -6 -2 -5 -13z"/><path d="M2422 660 c0 -14 2 -19 5 -12 2 6 2 18 0 25 -3 6 -5 1 -5 -13z"/><path d="M2572 660 c0 -14 2 -19 5 -12 2 6 2 18 0 25 -3 6 -5 1 -5 -13z"/><path d="M1261 654 c0 -11 3 -14 6 -6 3 7 2 16 -1 19 -3 4 -6 -2 -5 -13z"/><path d="M1802 650 c0 -14 2 -19 5 -12 2 6 2 18 0 25 -3 6 -5 1 -5 -13z"/><path d="M1960 666 c0 -2 9 -6 20 -9 11 -3 18 -1 14 4 -5 9 -34 13 -34 5z"/><path d="M2042 650 c0 -14 2 -19 5 -12 2 6 2 18 0 25 -3 6 -5 1 -5 -13z"/><path d="M2148 663 c7 -3 16 -2 19 1 4 3 -2 6 -13 5 -11 0 -14 -3 -6 -6z"/><path d="M2825 660 c-3 -6 1 -7 9 -4 18 7 21 14 7 14 -6 0 -13 -4 -16 -10z"/><path d="M2961 654 c0 -12 7 -28 17 -35 15 -12 16 -12 6 1 -7 8 -14 24 -17 35 -4 19 -5 19 -6 -1z"/><path d="M1412 640 c0 -14 2 -19 5 -12 2 6 2 18 0 25 -3 6 -5 1 -5 -13z"/><path d="M1655 649 c-4 -6 -5 -12 -2 -15 2 -3 7 2 10 11 7 17 1 20 -8 4z"/><path d="M1712 630 c0 -19 2 -27 5 -17 2 9 2 25 0 35 -3 9 -5 1 -5 -18z"/><path d="M2232 640 c0 -14 2 -19 5 -12 2 6 2 18 0 25 -3 6 -5 1 -5 -13z"/><path d="M2372 640 c0 -14 2 -19 5 -12 2 6 2 18 0 25 -3 6 -5 1 -5 -13z"/><path d="M2651 644 c0 -11 3 -14 6 -6 3 7 2 16 -1 19 -3 4 -6 -2 -5 -13z"/><path d="M3000 656 c0 -2 8 -10 18 -17 15 -13 16 -12 3 4 -13 16 -21 21 -21 13z"/><path d="M3790 645 c-7 -9 -11 -17 -9 -20 3 -2 10 5 17 15 14 24 10 26 -8 5z"/><path d="M1021 634 c0 -11 3 -14 6 -6 3 7 2 16 -1 19 -3 4 -6 -2 -5 -13z"/><path d="M1302 630 c0 -14 2 -19 5 -12 2 6 2 18 0 25 -3 6 -5 1 -5 -13z"/><path d="M2850 640 l-35 -7 38 -2 c20 0 37 4 37 9 0 6 -1 9 -2 9 -2 -1 -19 -5 -38 -9z"/><path d="M3352 625 c0 -16 2 -22 5 -12 2 9 2 23 0 30 -3 6 -5 -1 -5 -18z"/><path d="M3590 638 c0 -4 16 -8 35 -8 19 0 35 2 35 4 0 2 -16 6 -35 8 -19 2 -35 0 -35 -4z"/><path d="M5270 646 c0 -2 8 -10 18 -17 15 -13 16 -12 3 4 -13 16 -21 21 -21 13z"/><path d="M1062 610 c0 -19 2 -27 5 -17 2 9 2 25 0 35 -3 9 -5 1 -5 -18z"/><path d="M1181 624 c0 -11 3 -14 6 -6 3 7 2 16 -1 19 -3 4 -6 -2 -5 -13z"/><path d="M1442 615 c0 -16 2 -22 5 -12 2 9 2 23 0 30 -3 6 -5 -1 -5 -18z"/><path d="M1842 620 c0 -14 2 -19 5 -12 2 6 2 18 0 25 -3 6 -5 1 -5 -13z"/><path d="M2072 610 c0 -19 2 -27 5 -17 2 9 2 25 0 35 -3 9 -5 1 -5 -18z"/><path d="M3701 624 c0 -11 3 -14 6 -6 3 7 2 16 -1 19 -3 4 -6 -2 -5 -13z"/><path d="M971 614 c0 -11 3 -14 6 -6 3 7 2 16 -1 19 -3 4 -6 -2 -5 -13z"/><path d="M1601 614 c0 -11 3 -14 6 -6 3 7 2 16 -1 19 -3 4 -6 -2 -5 -13z"/><path d="M2111 614 c0 -11 3 -14 6 -6 3 7 2 16 -1 19 -3 4 -6 -2 -5 -13z"/><path d="M2522 610 c0 -14 2 -19 5 -12 2 6 2 18 0 25 -3 6 -5 1 -5 -13z"/><path d="M3231 614 c0 -11 3 -14 6 -6 3 7 2 16 -1 19 -3 4 -6 -2 -5 -13z"/><path d="M3430 616 c0 -8 4 -17 9 -20 5 -4 7 3 4 14 -6 23 -13 26 -13 6z"/><path d="M3542 610 c0 -14 2 -19 5 -12 2 6 2 18 0 25 -3 6 -5 1 -5 -13z"/><path d="M1752 600 c0 -14 2 -19 5 -12 2 6 2 18 0 25 -3 6 -5 1 -5 -13z"/><path d="M1992 600 c0 -14 2 -19 5 -12 2 6 2 18 0 25 -3 6 -5 1 -5 -13z"/><path d="M2666 603 c-6 -14 -5 -15 5 -6 7 7 10 15 7 18 -3 3 -9 -2 -12 -12z"/><path d="M3732 600 c0 -14 2 -19 5 -12 2 6 2 18 0 25 -3 6 -5 1 -5 -13z"/><path d="M5439 603 c-13 -16 -12 -17 4 -4 9 7 17 15 17 17 0 8 -8 3 -21 -13z"/><path d="M1642 590 c0 -14 2 -19 5 -12 2 6 2 18 0 25 -3 6 -5 1 -5 -13z"/><path d="M1882 590 c0 -14 2 -19 5 -12 2 6 2 18 0 25 -3 6 -5 1 -5 -13z"/><path d="M2562 590 c0 -14 2 -19 5 -12 2 6 2 18 0 25 -3 6 -5 1 -5 -13z"/><path d="M3772 580 c0 -14 2 -19 5 -12 2 6 2 18 0 25 -3 6 -5 1 -5 -13z"/><path d="M1791 568 c-1 -24 3 -28 24 -28 14 0 25 4 25 9 0 5 -9 7 -19 4 -14 -4 -21 1 -24 19 -4 21 -4 20 -6 -4z"/><path d="M2031 573 c-1 -14 -9 -23 -23 -26 l-23 -4 23 -2 c24 -1 38 19 29 41 -3 7 -6 3 -6 -9z"/><path d="M2430 586 c0 -2 15 -6 34 -8 19 -2 32 0 30 4 -5 8 -64 12 -64 4z"/><path d="M3597 579 c7 -7 15 -10 18 -7 3 3 -2 9 -12 12 -14 6 -15 5 -6 -5z"/><path d="M3640 580 c-9 -6 -10 -10 -3 -10 6 0 15 5 18 10 8 12 4 12 -15 0z"/><path d="M1010 566 c0 -14 -6 -17 -25 -14 -14 3 -25 1 -25 -3 0 -16 50 -10 57 6 3 9 3 19 -1 22 -3 4 -6 -2 -6 -11z"/><path d="M1199 563 c-13 -16 -12 -17 4 -4 16 13 21 21 13 21 -2 0 -10 -8 -17 -17z"/><path d="M1518 573 c6 -2 18 -2 25 0 6 3 1 5 -13 5 -14 0 -19 -2 -12 -5z"/><path d="M1920 567 c0 -8 -10 -18 -22 -20 l-23 -4 23 -2 c22 -1 41 23 28 36 -3 4 -6 -1 -6 -10z"/><path d="M2221 564 c0 -11 3 -14 6 -6 3 7 2 16 -1 19 -3 4 -6 -2 -5 -13z"/><path d="M2361 563 c-1 -22 2 -23 67 -21 l67 2 -62 3 c-48 3 -63 8 -66 21 -3 12 -5 11 -6 -5z"/><path d="M2838 573 c6 -2 18 -2 25 0 6 3 1 5 -13 5 -14 0 -19 -2 -12 -5z"/><path d="M3329 563 c-13 -16 -12 -17 4 -4 16 13 21 21 13 21 -2 0 -10 -8 -17 -17z"/><path d="M1272 554 c10 -10 20 -16 22 -13 3 3 -5 11 -17 18 -21 13 -21 12 -5 -5z"/><path d="M1700 558 c0 -13 7 -18 28 -17 21 1 22 2 7 6 -11 3 -23 10 -27 17 -5 7 -8 5 -8 -6z"/><path d="M2780 566 c0 -2 8 -10 18 -17 15 -13 16 -12 3 4 -13 16 -21 21 -21 13z"/><path d="M3200 566 c0 -2 8 -10 18 -17 15 -13 16 -12 3 4 -13 16 -21 21 -21 13z"/><path d="M5379 553 c-13 -16 -12 -17 4 -4 9 7 17 15 17 17 0 8 -8 3 -21 -13z"/><path d="M1590 549 c0 -5 11 -9 25 -9 14 0 25 2 25 4 0 2 -11 6 -25 8 -14 3 -25 1 -25 -3z"/><path d="M2518 548 c6 -6 18 -8 28 -6 14 3 12 5 -9 10 -19 3 -25 2 -19 -4z"/><path d="M2630 548 c0 -4 14 -8 30 -8 17 0 30 2 30 4 0 2 -13 6 -30 8 -16 3 -30 1 -30 -4z"/><path d="M3435 550 l-30 -8 27 -1 c15 0 30 4 33 9 3 6 5 9 3 9 -2 -1 -16 -5 -33 -9z"/><path d="M2123 543 c9 -2 23 -2 30 0 6 3 -1 5 -18 5 -16 0 -22 -2 -12 -5z"/><path d="M3738 543 c6 -2 18 -2 25 0 6 3 1 5 -13 5 -14 0 -19 -2 -12 -5z"/><path d="M5314 498 l-19 -23 23 19 c12 11 22 21 22 23 0 8 -8 2 -26 -19z"/><path d="M5135 428 l-80 -83 83 80 c76 74 87 85 79 85 -1 0 -38 -37 -82 -82z"/><path d="M2123 473 c9 -2 25 -2 35 0 9 3 1 5 -18 5 -19 0 -27 -2 -17 -5z"/><path d="M5254 448 l-19 -23 23 19 c21 18 27 26 19 26 -2 0 -12 -10 -23 -22z"/><path d="M5189 393 c-13 -16 -12 -17 4 -4 16 13 21 21 13 21 -2 0 -10 -8 -17 -17z"/><path d="M5129 343 c-13 -16 -12 -17 4 -4 9 7 17 15 17 17 0 8 -8 3 -21 -13z"/><path d="M5064 288 l-19 -23 23 19 c12 11 22 21 22 23 0 8 -8 2 -26 -19z"/><path d="M5004 238 l-19 -23 23 19 c12 11 22 21 22 23 0 8 -8 2 -26 -19z"/><path d="M4859 143 c-47 -49 -89 -95 -95 -103 -5 -9 -1 -7 10 5 10 11 22 19 26 18 4 -1 16 7 25 17 10 11 14 20 9 20 -4 0 21 29 56 65 35 36 62 65 60 65 -3 0 -44 -39 -91 -87z m-29 -47 c0 -2 -8 -10 -17 -17 -16 -13 -17 -12 -4 4 13 16 21 21 21 13z"/><path d="M4939 183 c-13 -16 -12 -17 4 -4 16 13 21 21 13 21 -2 0 -10 -8 -17 -17z"/><path d="M4879 133 c-13 -16 -12 -17 4 -4 16 13 21 21 13 21 -2 0 -10 -8 -17 -17z"/></g><g transform="translate(0.000000,168.000000) scale(0.100000,-0.100000)" fill="#19A513" stroke="none"><path d="M5065 987 c-8 -13 -33 -36 -55 -52 -22 -17 -40 -33 -40 -36 0 -3 77 -67 170 -143 94 -76 170 -141 170 -145 0 -7 -123 -137 -454 -480 -85 -88 -101 -101 512 412 138 116 143 121 125 138 -38 37 -397 329 -405 329 -4 0 -14 -10 -23 -23z"/><path d="M1626 748 c-11 -65 -26 -177 -26 -187 0 -6 8 -11 19 -11 15 0 20 10 25 50 7 52 29 76 61 64 14 -6 16 -16 10 -60 -6 -50 -5 -54 14 -54 15 0 21 6 21 23 0 12 3 38 6 58 10 59 -26 81 -88 54 -12 -5 -16 -2 -13 12 15 76 15 83 -5 83 -14 0 -21 -9 -24 -32z"/><path d="M1823 764 c-8 -21 13 -42 28 -27 13 13 5 43 -11 43 -6 0 -13 -7 -17 -16z"/><path d="M2551 771 c-17 -11 -7 -41 13 -41 22 0 30 20 15 36 -9 8 -19 10 -28 5z"/><path d="M940 750 c0 -15 7 -20 26 -20 29 0 29 -2 7 -142 -5 -33 -3 -38 15 -38 23 0 28 15 38 113 7 66 7 67 35 67 22 0 29 5 29 20 0 18 -7 20 -75 20 -68 0 -75 -2 -75 -20z"/><path d="M2395 758 c-5 -18 -25 -165 -25 -188 0 -18 7 -20 60 -20 47 0 60 3 60 15 0 11 -11 15 -41 15 -34 0 -40 3 -35 18 2 9 7 44 11 77 3 33 8 68 11 78 4 12 0 17 -16 17 -11 0 -22 -6 -25 -12z"/><path d="M1113 690 c-47 -19 -60 -107 -21 -134 55 -39 132 1 132 68 0 20 -7 43 -15 51 -19 19 -68 27 -96 15z m67 -45 c24 -29 -18 -83 -54 -69 -16 6 -21 23 -16 54 4 31 49 40 70 15z"/><path d="M1493 690 c-47 -19 -60 -107 -21 -134 33 -23 84 -21 91 4 4 17 1 19 -19 14 -30 -8 -54 11 -54 41 0 30 23 47 57 43 36 -4 45 26 11 36 -29 7 -38 7 -65 -4z"/><path d="M1956 684 c-15 -9 -25 -11 -22 -5 4 7 -1 11 -13 11 -16 0 -21 -9 -26 -47 -3 -27 -8 -58 -11 -70 -3 -18 0 -23 15 -23 19 0 31 25 31 66 0 28 34 58 56 50 14 -5 16 -16 11 -61 -5 -48 -3 -55 12 -55 34 0 44 122 12 140 -25 13 -30 12 -65 -6z"/><path d="M2107 680 c-22 -17 -27 -30 -27 -65 0 -54 17 -69 69 -62 34 4 38 3 34 -14 -3 -11 -14 -24 -24 -29 -19 -11 -49 -4 -49 11 0 5 -9 9 -20 9 -24 0 -26 -13 -4 -34 9 -10 33 -16 59 -16 54 0 70 20 80 100 3 30 8 67 11 83 5 25 3 27 -28 26 -18 -1 -42 2 -53 5 -14 5 -30 0 -48 -14z m67 -16 c20 -8 21 -57 1 -74 -18 -15 -45 -10 -58 11 -8 13 -6 24 6 43 18 27 25 30 51 20z"/><path d="M2799 671 c-34 -35 -37 -68 -8 -105 23 -30 72 -35 105 -12 28 21 5 43 -25 24 -15 -9 -26 -10 -38 -2 -37 23 -26 34 37 34 l62 0 -6 28 c-15 64 -79 80 -127 33z m81 -5 c0 -2 3 -11 6 -20 5 -13 -1 -16 -30 -16 -34 0 -47 15 -29 33 7 8 53 10 53 3z"/><path d="M2988 689 c-26 -15 -22 -54 7 -77 14 -11 25 -25 25 -31 0 -14 -33 -14 -47 0 -8 8 -13 7 -18 -2 -10 -15 21 -39 51 -39 27 0 54 25 54 50 0 10 -14 28 -30 40 -34 24 -30 45 5 36 30 -8 42 10 16 23 -24 13 -41 13 -63 0z"/><path d="M3245 690 c-78 -31 -63 -150 19 -150 50 0 86 33 86 78 0 43 -7 55 -37 71 -25 13 -40 13 -68 1z m63 -67 c3 -34 -23 -58 -52 -47 -42 16 -23 87 22 82 22 -2 28 -9 30 -35z"/><path d="M3595 688 c-32 -17 -45 -39 -45 -75 0 -60 64 -93 121 -62 16 8 18 13 8 25 -8 10 -15 11 -25 3 -19 -15 -58 -7 -62 14 -3 14 5 17 52 17 51 0 56 2 56 23 0 28 -9 41 -37 56 -27 14 -42 14 -68 -1z m63 -40 c3 -15 -4 -18 -32 -18 -38 0 -44 8 -24 28 17 17 52 11 56 -10z"/><path d="M3812 691 c-7 -4 -24 -6 -37 -3 -20 3 -24 -1 -29 -29 -3 -19 -8 -51 -11 -71 -5 -33 -3 -38 13 -38 15 0 21 10 26 42 8 49 21 68 47 68 12 0 19 7 19 20 0 22 -7 25 -28 11z"/><path d="M1264 633 c-6 -51 -5 -58 16 -75 45 -37 113 -14 124 42 3 17 9 44 12 60 5 25 2 30 -15 30 -16 0 -21 -9 -27 -45 -6 -43 -25 -75 -43 -75 -22 0 -33 32 -27 75 7 41 5 45 -13 45 -16 0 -21 -9 -27 -57z"/><path d="M1806 644 c-9 -72 -8 -94 8 -94 20 0 22 6 30 78 6 57 5 62 -12 62 -15 0 -21 -10 -26 -46z"/><path d="M2536 668 c-3 -13 -8 -44 -11 -70 -6 -43 -4 -48 13 -48 16 0 21 11 29 70 8 64 8 70 -9 70 -10 0 -20 -9 -22 -22z"/><path d="M2619 623 c15 -59 20 -68 42 -71 21 -2 29 7 62 68 l38 70 -24 0 c-20 0 -29 -10 -48 -52 l-23 -53 -11 50 c-9 39 -16 51 -32 53 l-21 3 17 -68z"/><path d="M3380 685 c0 -3 7 -35 16 -70 14 -57 19 -65 40 -65 18 0 31 14 59 63 19 35 35 67 35 70 0 4 -9 7 -20 7 -15 0 -27 -14 -45 -52 -25 -54 -29 -52 -40 15 -4 28 -11 37 -25 37 -11 0 -20 -2 -20 -5z"/></g><g transform="translate(0.000000,168.000000) scale(0.100000,-0.100000)" fill="#0C9259" stroke="none"><path d="M2058 1133 c7 -3 16 -2 19 1 4 3 -2 6 -13 5 -11 0 -14 -3 -6 -6z"/><path d="M1728 913 c6 -2 18 -2 25 0 6 3 1 5 -13 5 -14 0 -19 -2 -12 -5z"/><path d="M1278 713 c6 -2 18 -2 25 0 6 3 1 5 -13 5 -14 0 -19 -2 -12 -5z"/><path d="M1388 713 c6 -2 18 -2 25 0 6 3 1 5 -13 5 -14 0 -19 -2 -12 -5z"/><path d="M1908 713 c6 -2 18 -2 25 0 6 3 1 5 -13 5 -14 0 -19 -2 -12 -5z"/><path d="M2208 713 c6 -2 18 -2 25 0 6 3 1 5 -13 5 -14 0 -19 -2 -12 -5z"/><path d="M2613 713 c9 -2 23 -2 30 0 6 3 -1 5 -18 5 -16 0 -22 -2 -12 -5z"/><path d="M2728 713 c6 -2 18 -2 25 0 6 3 1 5 -13 5 -14 0 -19 -2 -12 -5z"/><path d="M3388 713 c6 -2 18 -2 25 0 6 3 1 5 -13 5 -14 0 -19 -2 -12 -5z"/><path d="M3503 713 c9 -2 23 -2 30 0 6 3 -1 5 -18 5 -16 0 -22 -2 -12 -5z"/><path d="M3758 713 c6 -2 18 -2 25 0 6 3 1 5 -13 5 -14 0 -19 -2 -12 -5z"/><path d="M4540 249 c0 -5 5 -7 10 -4 6 3 10 8 10 11 0 2 -4 4 -10 4 -5 0 -10 -5 -10 -11z"/></g><g transform="translate(0.000000,168.000000) scale(0.100000,-0.100000)" fill="#0085DF" stroke="none"><path d="M503 1655 c0 -8 4 -12 9 -9 5 3 6 10 3 15 -9 13 -12 11 -12 -6z"/><path d="M3330 1665 c0 -5 5 -17 10 -25 5 -8 10 -10 10 -5 0 6 -5 17 -10 25 -5 8 -10 11 -10 5z"/><path d="M3581 1644 c0 -11 3 -14 6 -6 3 7 2 16 -1 19 -3 4 -6 -2 -5 -13z"/><path d="M4090 1645 c0 -5 5 -17 10 -25 5 -8 10 -10 10 -5 0 6 -5 17 -10 25 -5 8 -10 11 -10 5z"/><path d="M3321 1624 c0 -11 3 -14 6 -6 3 7 2 16 -1 19 -3 4 -6 -2 -5 -13z"/><path d="M3560 1635 c0 -5 5 -17 10 -25 5 -8 10 -10 10 -5 0 6 -5 17 -10 25 -5 8 -10 11 -10 5z"/><path d="M473 1615 c0 -8 4 -12 9 -9 5 3 6 10 3 15 -9 13 -12 11 -12 -6z"/><path d="M4351 1614 c0 -11 3 -14 6 -6 3 7 2 16 -1 19 -3 4 -6 -2 -5 -13z"/><path d="M1201 1604 c0 -11 3 -14 6 -6 3 7 2 16 -1 19 -3 4 -6 -2 -5 -13z"/><path d="M441 1586 c-10 -11 -9 -14 1 -12 14 2 23 15 15 22 -2 2 -10 -2 -16 -10z"/><path d="M4090 1568 c0 -16 12 -18 114 -18 63 0 117 3 119 8 3 4 -45 6 -105 4 -84 -3 -113 0 -119 10 -7 10 -9 9 -9 -4z"/><path d="M423 1545 c0 -8 4 -12 9 -9 5 3 6 10 3 15 -9 13 -12 11 -12 -6z"/><path d="M1190 1555 c0 -5 5 -17 10 -25 5 -8 10 -10 10 -5 0 6 -5 17 -10 25 -5 8 -10 11 -10 5z"/><path d="M865 1529 c-4 -6 -5 -12 -2 -15 2 -3 7 2 10 11 7 17 1 20 -8 4z"/><path d="M4979 1517 c6 -8 9 -17 6 -21 -3 -3 0 -2 6 3 12 10 4 31 -13 31 -7 0 -7 -4 1 -13z"/><path d="M393 1505 c0 -8 4 -12 9 -9 5 3 6 10 3 15 -9 13 -12 11 -12 -6z"/><path d="M1430 1515 c0 -5 5 -17 10 -25 5 -8 10 -10 10 -5 0 6 -5 17 -10 25 -5 8 -10 11 -10 5z"/><path d="M620 1501 c0 -7 -4 -9 -10 -6 -6 4 -7 -1 -3 -11 6 -15 7 -15 15 1 6 9 7 19 4 22 -3 4 -6 1 -6 -6z"/><path d="M3291 1494 c0 -11 3 -14 6 -6 3 7 2 16 -1 19 -3 4 -6 -2 -5 -13z"/><path d="M1191 1484 c0 -11 3 -14 6 -6 3 7 2 16 -1 19 -3 4 -6 -2 -5 -13z"/><path d="M1778 1493 c6 -2 18 -2 25 0 6 3 1 5 -13 5 -14 0 -19 -2 -12 -5z"/><path d="M1868 1493 c6 -2 18 -2 25 0 6 3 1 5 -13 5 -14 0 -19 -2 -12 -5z"/><path d="M2593 1493 c9 -2 25 -2 35 0 9 3 1 5 -18 5 -19 0 -27 -2 -17 -5z"/><path d="M3748 1493 c6 -2 18 -2 25 0 6 3 1 5 -13 5 -14 0 -19 -2 -12 -5z"/><path d="M4678 1493 c17 -2 47 -2 65 0 17 2 3 4 -33 4 -36 0 -50 -2 -32 -4z"/><path d="M5036 1491 c-3 -5 1 -14 9 -21 8 -7 15 -9 15 -5 0 4 8 1 18 -6 15 -11 15 -11 4 1 -7 8 -18 15 -25 15 -7 1 -11 6 -9 13 2 14 -4 16 -12 3z"/><path d="M361 1476 c-10 -11 -9 -14 1 -12 14 2 23 15 15 22 -2 2 -10 -2 -16 -10z"/><path d="M1698 1483 c7 -3 16 -2 19 1 4 3 -2 6 -13 5 -11 0 -14 -3 -6 -6z"/><path d="M1915 1480 c-13 -6 -15 -9 -5 -9 8 0 22 4 30 9 18 12 2 12 -25 0z"/><path d="M2948 1483 c7 -3 16 -2 19 1 4 3 -2 6 -13 5 -11 0 -14 -3 -6 -6z"/><path d="M4595 1480 c11 -5 29 -8 40 -8 16 0 15 2 -5 8 -34 11 -60 11 -35 0z"/><path d="M4838 1483 c7 -3 16 -2 19 1 4 3 -2 6 -13 5 -11 0 -14 -3 -6 -6z"/><path d="M1670 1470 c8 -5 22 -9 30 -9 10 0 8 3 -5 9 -27 12 -43 12 -25 0z"/><path d="M1748 1473 c7 -3 16 -2 19 1 4 3 -2 6 -13 5 -11 0 -14 -3 -6 -6z"/><path d="M1960 1470 c-8 -5 -10 -10 -5 -10 6 0 17 5 25 10 8 5 11 10 5 10 -5 0 -17 -5 -25 -10z"/><path d="M2253 1473 c32 -2 81 -2 110 0 29 2 3 3 -58 3 -60 0 -84 -1 -52 -3z"/><path d="M2648 1473 c7 -3 16 -2 19 1 4 3 -2 6 -13 5 -11 0 -14 -3 -6 -6z"/><path d="M3008 1473 c18 -2 45 -2 60 0 15 2 0 4 -33 4 -33 0 -45 -2 -27 -4z"/><path d="M3703 1473 c9 -2 23 -2 30 0 6 3 -1 5 -18 5 -16 0 -22 -2 -12 -5z"/><path d="M3788 1473 c6 -2 18 -2 25 0 6 3 1 5 -13 5 -14 0 -19 -2 -12 -5z"/><path d="M4133 1473 c31 -2 83 -2 115 0 31 2 5 3 -58 3 -63 0 -89 -1 -57 -3z"/><path d="M4558 1468 c5 -5 16 -8 23 -6 8 3 3 7 -10 11 -17 4 -21 3 -13 -5z"/><path d="M4778 1473 c6 -2 18 -2 25 0 6 3 1 5 -13 5 -14 0 -19 -2 -12 -5z"/><path d="M626 1453 c-6 -14 -5 -15 5 -6 7 7 10 15 7 18 -3 3 -9 -2 -12 -12z"/><path d="M1630 1466 c0 -2 7 -7 16 -10 8 -3 12 -2 9 4 -6 10 -25 14 -25 6z"/><path d="M1990 1460 c-9 -6 -10 -10 -3 -10 6 0 15 5 18 10 8 12 4 12 -15 0z"/><path d="M2732 1463 c-8 -3 -3 -12 15 -26 28 -22 57 -32 47 -16 -3 5 -9 7 -13 4 -11 -6 -43 30 -34 38 7 8 4 8 -15 0z"/><path d="M3893 1455 c0 -8 3 -13 5 -10 3 3 12 -1 21 -7 10 -8 9 -4 -3 10 -23 26 -23 26 -23 7z"/><path d="M4527 1459 c7 -7 15 -10 18 -7 3 3 -2 9 -12 12 -14 6 -15 5 -6 -5z"/><path d="M4848 1463 c7 -3 16 -2 19 1 4 3 -2 6 -13 5 -11 0 -14 -3 -6 -6z"/><path d="M897 1441 c-4 -17 -3 -21 5 -13 5 5 8 16 6 23 -3 8 -7 3 -11 -10z"/><path d="M2412 1440 c0 -14 2 -19 5 -12 2 6 2 18 0 25 -3 6 -5 1 -5 -13z"/><path d="M3140 1456 c0 -2 7 -7 16 -10 8 -3 12 -2 9 4 -6 10 -25 14 -25 6z"/><path d="M4925 1450 c-3 -6 1 -7 9 -4 18 7 21 14 7 14 -6 0 -13 -4 -16 -10z"/><path d="M5016 1448 c3 -5 10 -6 15 -3 13 9 11 12 -6 12 -8 0 -12 -4 -9 -9z"/><path d="M343 1435 c0 -8 4 -12 9 -9 5 3 6 10 3 15 -9 13 -12 11 -12 -6z"/><path d="M1431 1434 c0 -11 3 -14 6 -6 3 7 2 16 -1 19 -3 4 -6 -2 -5 -13z"/><path d="M3280 1445 c0 -5 5 -17 10 -25 5 -8 10 -10 10 -5 0 6 -5 17 -10 25 -5 8 -10 11 -10 5z"/><path d="M3557 1436 c-4 -10 -1 -13 8 -9 8 3 12 9 9 14 -7 12 -11 11 -17 -5z"/><path d="M2040 1434 c0 -6 12 -21 27 -35 15 -13 22 -17 15 -8 -6 9 -8 20 -4 24 4 5 2 5 -5 1 -6 -3 -16 2 -22 11 -6 10 -11 13 -11 7z"/><path d="M2433 1425 c0 -8 4 -12 9 -9 4 3 8 9 8 15 0 5 -4 9 -8 9 -5 0 -9 -7 -9 -15z"/><path d="M4966 1432 c-3 -5 4 -18 17 -28 21 -19 21 -19 7 0 -8 11 -13 21 -12 23 2 3 1 7 -1 9 -3 3 -8 1 -11 -4z"/><path d="M5099 1427 c6 -6 18 -12 27 -13 12 -2 14 0 5 9 -6 6 -18 12 -27 13 -12 2 -14 0 -5 -9z"/><path d="M2833 1423 c8 -13 -17 -36 -28 -25 -5 4 -5 2 -2 -5 4 -6 1 -14 -5 -16 -7 -3 -8 -6 -2 -6 6 -1 21 10 33 23 17 18 19 26 10 31 -7 5 -10 4 -6 -2z"/><path d="M3530 1421 c0 -7 -4 -9 -10 -6 -5 3 -10 -2 -10 -12 0 -16 1 -16 17 0 9 9 14 20 10 23 -4 4 -7 2 -7 -5z"/><path d="M319 1418 c-5 -18 -6 -38 -1 -34 7 8 12 36 6 36 -2 0 -4 -1 -5 -2z"/><path d="M3205 1411 c-3 -5 -2 -12 3 -15 5 -3 9 1 9 9 0 17 -3 19 -12 6z"/><path d="M1512 1401 c-8 -4 -13 -12 -13 -17 1 -5 -3 -9 -9 -9 -5 0 -10 -4 -11 -10 0 -5 -6 -17 -12 -25 -6 -8 1 -4 17 10 15 14 32 33 37 43 11 19 10 20 -9 8z"/><path d="M4040 1405 c0 -5 5 -17 10 -25 5 -8 10 -10 10 -5 0 6 -5 17 -10 25 -5 8 -10 11 -10 5z"/><path d="M4395 1384 c-9 -15 -12 -23 -6 -20 11 7 35 46 28 46 -3 0 -12 -12 -22 -26z"/><path d="M5146 1401 c-3 -5 1 -14 9 -21 8 -7 15 -9 15 -5 0 4 8 1 18 -6 15 -11 15 -11 4 1 -7 8 -18 15 -25 15 -7 1 -11 6 -9 13 2 14 -4 16 -12 3z"/><path d="M1151 1384 c0 -11 3 -14 6 -6 3 7 2 16 -1 19 -3 4 -6 -2 -5 -13z"/><path d="M4301 1374 c0 -11 3 -14 6 -6 3 7 2 16 -1 19 -3 4 -6 -2 -5 -13z"/><path d="M1788 1373 c6 -2 18 -2 25 0 6 3 1 5 -13 5 -14 0 -19 -2 -12 -5z"/><path d="M3224 1366 c-3 -8 -4 -27 -2 -43 3 -23 5 -20 9 15 5 43 2 53 -7 28z"/><path d="M3261 1364 c0 -11 3 -14 6 -6 3 7 2 16 -1 19 -3 4 -6 -2 -5 -13z"/><path d="M5066 1368 c3 -5 10 -6 15 -3 13 9 11 12 -6 12 -8 0 -12 -4 -9 -9z"/><path d="M276 1362 c-3 -5 1 -9 9 -9 8 0 12 4 9 9 -3 4 -7 8 -9 8 -2 0 -6 -4 -9 -8z"/><path d="M1695 1340 c-11 -12 -13 -20 -5 -25 6 -3 9 -1 8 5 -2 7 8 14 21 16 33 6 36 10 12 17 -12 3 -26 -2 -36 -13z"/><path d="M4678 1353 c7 -3 16 -2 19 1 4 3 -2 6 -13 5 -11 0 -14 -3 -6 -6z"/><path d="M5086 1345 c-9 -26 -7 -32 5 -12 6 10 9 21 6 23 -2 3 -7 -2 -11 -11z"/><path d="M925 1339 c-4 -6 -5 -12 -2 -15 2 -3 7 2 10 11 7 17 1 20 -8 4z"/><path d="M1850 1345 c0 -7 30 -13 34 -7 3 4 -4 9 -15 9 -10 1 -19 0 -19 -2z"/><path d="M2483 1343 c9 -2 25 -2 35 0 9 3 1 5 -18 5 -19 0 -27 -2 -17 -5z"/><path d="M2880 1346 c0 -2 7 -7 16 -10 8 -3 12 -2 9 4 -6 10 -25 14 -25 6z"/><path d="M3682 1341 c-11 -6 -10 -10 4 -15 9 -3 19 -4 22 -1 3 3 0 5 -7 5 -7 0 -9 5 -6 10 7 12 4 12 -13 1z"/><path d="M4648 1338 c5 -5 16 -8 23 -6 8 3 3 7 -10 11 -17 4 -21 3 -13 -5z"/><path d="M5209 1337 c6 -6 18 -12 27 -13 12 -2 14 0 5 9 -6 6 -18 12 -27 13 -12 2 -14 0 -5 -9z"/><path d="M263 1325 c0 -8 4 -12 9 -9 5 3 6 10 3 15 -9 13 -12 11 -12 -6z"/><path d="M2161 1324 c0 -11 3 -14 6 -6 3 7 2 16 -1 19 -3 4 -6 -2 -5 -13z"/><path d="M2456 1328 c5 -7 2 -9 -8 -5 -19 7 -65 -37 -49 -47 5 -4 13 -1 16 5 4 6 20 19 37 29 23 14 26 19 13 24 -11 4 -14 2 -9 -6z m-16 -11 c0 -2 -10 -12 -22 -23 l-23 -19 19 23 c18 21 26 27 26 19z"/><path d="M2855 1331 c-3 -5 -2 -12 3 -15 5 -3 9 1 9 9 0 17 -3 19 -12 6z"/><path d="M2957 1333 c-3 -5 1 -16 8 -26 10 -15 14 -15 18 -3 6 16 -18 42 -26 29z"/><path d="M4339 1338 c-5 -18 -6 -38 -1 -34 7 8 12 36 6 36 -2 0 -4 -1 -5 -2z"/><path d="M4730 1336 c0 -7 40 -14 44 -7 3 4 -6 8 -20 9 -13 1 -24 0 -24 -2z"/><path d="M486 1322 c-3 -5 1 -9 9 -9 8 0 12 4 9 9 -3 4 -7 8 -9 8 -2 0 -6 -4 -9 -8z"/><path d="M2528 1321 c8 -5 17 -24 21 -42 l7 -34 5 32 c3 18 2 30 -2 28 -4 -3 -9 2 -13 10 -3 8 -11 15 -18 15 -10 0 -10 -2 0 -9z"/><path d="M3524 1309 c-10 -11 -12 -19 -5 -24 11 -6 13 -5 15 18 0 6 6 12 13 12 6 0 14 3 17 6 3 3 -1 6 -9 6 -8 0 -22 -8 -31 -18z"/><path d="M2116 1263 c2 -28 9 -62 14 -75 10 -22 10 -21 5 5 -8 40 5 103 17 85 7 -10 8 -8 4 5 -3 10 -6 21 -6 23 0 2 -4 4 -10 4 -5 0 -9 -3 -9 -7 1 -5 0 -19 -1 -33 -2 -21 -4 -20 -10 10 -6 28 -7 24 -4 -17z"/><path d="M3252 1300 c7 -10 14 -18 15 -16 6 6 -9 36 -18 36 -5 0 -4 -9 3 -20z"/><path d="M4584 1309 c-8 -14 14 -19 25 -6 8 10 7 14 -5 14 -8 0 -17 -4 -20 -8z"/><path d="M239 1308 c-5 -18 -6 -38 -1 -34 7 8 12 36 6 36 -2 0 -4 -1 -5 -2z"/><path d="M1420 1301 c0 -6 4 -13 10 -16 6 -3 7 1 4 9 -7 18 -14 21 -14 7z"/><path d="M2829 1293 c-13 -16 -12 -17 4 -4 16 13 21 21 13 21 -2 0 -10 -8 -17 -17z"/><path d="M5263 1294 c9 -11 24 -21 32 -21 11 0 12 4 3 14 -6 7 -13 11 -16 8 -3 -3 -12 1 -21 7 -12 10 -12 7 2 -8z"/><path d="M473 1285 c0 -8 4 -12 9 -9 5 3 6 10 3 15 -9 13 -12 11 -12 -6z"/><path d="M1663 1278 c1 -16 11 -18 72 -16 l70 1 -65 7 c-54 6 -46 7 47 6 144 -1 133 12 -14 16 -101 3 -111 1 -110 -14z"/><path d="M3726 1285 c-3 -9 -6 -26 -5 -38 1 -14 4 -9 9 13 9 37 7 52 -4 25z"/><path d="M3233 1275 c0 -8 4 -12 9 -9 5 3 6 10 3 15 -9 13 -12 11 -12 -6z"/><path d="M5041 1274 c0 -11 3 -14 6 -6 3 7 2 16 -1 19 -3 4 -6 -2 -5 -13z"/><path d="M3211 1264 c0 -11 3 -14 6 -6 3 7 2 16 -1 19 -3 4 -6 -2 -5 -13z"/><path d="M3981 1264 c0 -11 3 -14 6 -6 3 7 2 16 -1 19 -3 4 -6 -2 -5 -13z"/><path d="M1121 1254 c0 -11 3 -14 6 -6 3 7 2 16 -1 19 -3 4 -6 -2 -5 -13z"/><path d="M5316 1261 c-3 -5 1 -14 9 -21 8 -7 15 -9 15 -5 0 4 8 1 18 -6 15 -11 15 -11 4 1 -7 8 -18 15 -25 15 -7 1 -11 6 -9 13 2 14 -4 16 -12 3z"/><path d="M196 1252 c-3 -5 1 -9 9 -9 8 0 12 4 9 9 -3 4 -7 8 -9 8 -2 0 -6 -4 -9 -8z"/><path d="M956 1245 c-9 -26 -7 -32 5 -12 6 10 9 21 6 23 -2 3 -7 -2 -11 -11z"/><path d="M4273 1239 c-3 -11 -9 -16 -12 -11 -3 6 -6 -12 -6 -38 0 -27 3 -52 8 -56 4 -4 7 8 7 27 0 19 4 49 9 67 5 17 7 32 4 32 -3 0 -7 -9 -10 -21z"/><path d="M4556 1248 c3 -5 10 -6 15 -3 13 9 11 12 -6 12 -8 0 -12 -4 -9 -9z"/><path d="M560 1240 l-115 -6 118 -2 c72 -1 117 2 117 8 0 6 -1 9 -2 8 -2 -1 -55 -5 -118 -8z"/><path d="M2371 1234 c0 -11 3 -14 6 -6 3 7 2 16 -1 19 -3 4 -6 -2 -5 -13z"/><path d="M3225 1241 c-3 -5 -2 -12 3 -15 5 -3 9 1 9 9 0 17 -3 19 -12 6z"/><path d="M4863 1243 c32 -2 81 -2 110 0 29 2 3 3 -58 3 -60 0 -84 -1 -52 -3z"/><path d="M5123 1195 c0 -33 2 -45 4 -27 2 18 2 45 0 60 -2 15 -4 0 -4 -33z"/><path d="M3996 1228 c-13 -40 -16 -69 -7 -64 5 3 11 2 13 -4 1 -5 3 10 3 35 0 46 -3 55 -9 33z"/><path d="M183 1215 c0 -8 4 -12 9 -9 5 3 6 10 3 15 -9 13 -12 11 -12 -6z"/><path d="M1380 1219 c0 -5 5 -7 10 -4 6 3 10 8 10 11 0 2 -4 4 -10 4 -5 0 -10 -5 -10 -11z"/><path d="M2781 1214 c0 -11 3 -14 6 -6 3 7 2 16 -1 19 -3 4 -6 -2 -5 -13z"/><path d="M2961 1225 c1 -19 18 -51 18 -35 0 8 -4 22 -9 30 -5 8 -9 11 -9 5z"/><path d="M5375 1211 c-3 -5 0 -13 7 -18 16 -10 42 -14 33 -5 -4 4 -12 7 -18 7 -7 1 -11 6 -9 13 2 14 -4 16 -13 3z"/><path d="M1110 1205 c0 -5 5 -17 10 -25 5 -8 10 -10 10 -5 0 6 -5 17 -10 25 -5 8 -10 11 -10 5z"/><path d="M159 1198 c-5 -18 -6 -38 -1 -34 7 8 12 36 6 36 -2 0 -4 -1 -5 -2z"/><path d="M2951 1184 c0 -11 3 -14 6 -6 3 7 2 16 -1 19 -3 4 -6 -2 -5 -13z"/><path d="M3210 1190 c0 -5 5 -10 11 -10 5 0 7 5 4 10 -3 6 -8 10 -11 10 -2 0 -4 -4 -4 -10z"/><path d="M4281 1184 c0 -11 3 -14 6 -6 3 7 2 16 -1 19 -3 4 -6 -2 -5 -13z"/><path d="M4532 1170 c0 -19 2 -27 5 -17 2 9 2 25 0 35 -3 9 -5 1 -5 -18z"/><path d="M1376 1181 c-4 -7 -5 -15 -2 -18 9 -9 19 4 14 18 -4 11 -6 11 -12 0z"/><path d="M2111 1174 c0 -11 3 -14 6 -6 3 7 2 16 -1 19 -3 4 -6 -2 -5 -13z"/><path d="M3190 1173 c0 -15 19 -37 26 -31 3 4 -1 14 -10 23 -9 9 -16 13 -16 8z"/><path d="M3482 1160 c0 -14 2 -19 5 -12 2 6 2 18 0 25 -3 6 -5 1 -5 -13z"/><path d="M4813 1173 c20 -2 54 -2 75 0 20 2 3 4 -38 4 -41 0 -58 -2 -37 -4z"/><path d="M1350 1165 c0 -5 5 -17 10 -25 5 -8 10 -10 10 -5 0 6 -5 17 -10 25 -5 8 -10 11 -10 5z"/><path d="M1865 1160 l-230 -5 -2 -34 c-1 -24 1 -30 8 -20 5 8 9 22 9 32 0 16 17 17 219 17 136 0 222 4 226 10 3 6 5 9 3 8 -2 -1 -106 -5 -233 -8z"/><path d="M2371 1154 c0 -11 3 -14 6 -6 3 7 2 16 -1 19 -3 4 -6 -2 -5 -13z"/><path d="M2530 1165 c0 -5 5 -17 10 -25 5 -8 10 -10 10 -5 0 6 -5 17 -10 25 -5 8 -10 11 -10 5z"/><path d="M5434 1152 c10 -12 22 -19 26 -17 4 3 15 -7 25 -21 9 -14 19 -23 22 -20 4 3 13 0 22 -6 14 -10 14 -10 3 2 -7 8 -17 15 -22 15 -6 0 -11 5 -11 10 -2 9 -38 40 -49 40 -3 0 -12 4 -20 9 -9 6 -8 1 4 -12z"/><path d="M121 1146 c-8 -10 -9 -16 -1 -21 5 -3 10 -5 11 -3 4 18 7 38 4 38 -1 0 -8 -6 -14 -14z"/><path d="M985 1149 c-4 -6 -5 -12 -2 -15 2 -3 7 2 10 11 7 17 1 20 -8 4z"/><path d="M2351 1144 c0 -11 3 -14 6 -6 3 7 2 16 -1 19 -3 4 -6 -2 -5 -13z"/><path d="M4231 1144 c0 -11 3 -14 6 -6 3 7 2 16 -1 19 -3 4 -6 -2 -5 -13z"/><path d="M1111 1134 c0 -11 3 -14 6 -6 3 7 2 16 -1 19 -3 4 -6 -2 -5 -13z"/><path d="M2781 1134 c0 -11 3 -14 6 -6 3 7 2 16 -1 19 -3 4 -6 -2 -5 -13z"/><path d="M3693 1135 c0 -8 4 -12 9 -9 5 3 6 10 3 15 -9 13 -12 11 -12 -6z"/><path d="M4753 1131 c0 -11 5 -18 9 -15 4 3 5 11 1 19 -7 21 -12 19 -10 -4z"/><path d="M1091 1124 c0 -11 3 -14 6 -6 3 7 2 16 -1 19 -3 4 -6 -2 -5 -13z"/><path d="M1913 1133 c26 -2 68 -2 95 0 26 2 4 3 -48 3 -52 0 -74 -1 -47 -3z"/><path d="M2521 1124 c0 -11 3 -14 6 -6 3 7 2 16 -1 19 -3 4 -6 -2 -5 -13z"/><path d="M3181 1124 c0 -11 3 -14 6 -6 3 7 2 16 -1 19 -3 4 -6 -2 -5 -13z"/><path d="M5100 1126 c0 -8 4 -17 9 -20 5 -4 7 3 4 14 -6 23 -13 26 -13 6z"/><path d="M1381 1114 c0 -11 3 -14 6 -6 3 7 2 16 -1 19 -3 4 -6 -2 -5 -13z"/><path d="M2760 1125 c0 -5 5 -17 10 -25 5 -8 10 -10 10 -5 0 6 -5 17 -10 25 -5 8 -10 11 -10 5z"/><path d="M3991 1114 c0 -11 3 -14 6 -6 3 7 2 16 -1 19 -3 4 -6 -2 -5 -13z"/><path d="M4281 1114 c0 -11 3 -14 6 -6 3 7 2 16 -1 19 -3 4 -6 -2 -5 -13z"/><path d="M103 1105 c0 -8 4 -12 9 -9 5 3 6 10 3 15 -9 13 -12 11 -12 -6z"/><path d="M2083 1102 c2 -12 6 -24 10 -28 3 -4 4 4 2 16 -6 30 -16 40 -12 12z"/><path d="M3660 1104 c0 -9 -5 -12 -12 -8 -7 4 -8 3 -4 -4 10 -16 14 -15 26 8 7 14 7 20 0 20 -5 0 -10 -7 -10 -16z"/><path d="M1802 1090 c-13 -11 -18 -21 -12 -25 5 -3 10 -1 10 5 0 6 4 9 9 6 5 -3 14 1 20 8 19 22 -2 26 -27 6z"/><path d="M4220 1105 c0 -5 5 -17 10 -25 5 -8 10 -10 10 -5 0 6 -5 17 -10 25 -5 8 -10 11 -10 5z"/><path d="M4707 1096 c-12 -9 -14 -16 -8 -21 6 -3 11 -1 11 5 0 6 4 9 8 6 5 -3 9 1 9 9 0 8 -1 15 -1 15 -1 0 -9 -7 -19 -14z"/><path d="M1351 1084 c0 -11 3 -14 6 -6 3 7 2 16 -1 19 -3 4 -6 -2 -5 -13z"/><path d="M1396 1085 c-9 -26 -7 -32 5 -12 6 10 9 21 6 23 -2 3 -7 -2 -11 -11z"/><path d="M3508 1093 c6 -2 10 -9 7 -14 -4 -5 1 -6 10 -2 13 5 14 7 3 14 -7 5 -17 8 -23 8 -5 0 -4 -3 3 -6z"/><path d="M4557 1093 c-11 -11 3 -22 20 -16 9 4 14 2 11 -3 -3 -5 19 -9 50 -10 36 0 49 2 37 7 -11 4 -33 8 -48 8 -16 1 -36 5 -46 11 -10 5 -21 7 -24 3z"/><path d="M79 1088 c-5 -18 -6 -38 -1 -34 7 8 12 36 6 36 -2 0 -4 -1 -5 -2z"/><path d="M545 1080 l-190 -6 182 -2 c132 -1 182 -5 185 -14 3 -7 7 -2 10 10 4 12 5 21 5 20 -1 -1 -87 -5 -192 -8z"/><path d="M1653 1075 c0 -8 4 -12 9 -9 5 3 6 10 3 15 -9 13 -12 11 -12 -6z"/><path d="M3915 1081 c-3 -5 -2 -12 3 -15 5 -3 9 1 9 9 0 17 -3 19 -12 6z"/><path d="M4969 1088 c-5 -18 -6 -38 -1 -34 7 8 12 36 6 36 -2 0 -4 -1 -5 -2z"/><path d="M5125 1080 c-6 -10 -5 -11 18 -14 6 -1 11 -8 9 -15 -1 -7 2 -9 8 -6 8 5 6 13 -6 26 -20 22 -21 22 -29 9z"/><path d="M330 1069 c0 -5 -5 -7 -12 -3 -7 4 -8 3 -4 -5 6 -9 11 -9 22 0 17 14 18 19 4 19 -5 0 -10 -5 -10 -11z"/><path d="M1080 1075 c0 -5 5 -17 10 -25 5 -8 10 -10 10 -5 0 6 -5 17 -10 25 -5 8 -10 11 -10 5z"/><path d="M2032 1047 c-33 -34 -39 -47 -22 -47 6 0 9 5 8 12 -2 7 2 12 9 13 16 0 36 21 39 40 3 20 3 20 -34 -18z m28 9 c0 -2 -8 -10 -17 -17 -16 -13 -17 -12 -4 4 13 16 21 21 21 13z"/><path d="M2351 1064 c0 -11 3 -14 6 -6 3 7 2 16 -1 19 -3 4 -6 -2 -5 -13z"/><path d="M3568 1073 c7 -3 16 -2 19 1 4 3 -2 6 -13 5 -11 0 -14 -3 -6 -6z"/><path d="M1016 1055 c-9 -26 -7 -32 5 -12 6 10 9 21 6 23 -2 3 -7 -2 -11 -11z"/><path d="M2941 1054 c0 -11 3 -14 6 -6 3 7 2 16 -1 19 -3 4 -6 -2 -5 -13z"/><path d="M5549 1057 c6 -6 18 -12 27 -13 12 -2 14 0 5 9 -6 6 -18 12 -27 13 -12 2 -14 0 -5 -9z"/><path d="M2101 1044 c0 -11 3 -14 6 -6 3 7 2 16 -1 19 -3 4 -6 -2 -5 -13z"/><path d="M3180 1049 c0 -5 5 -7 10 -4 6 3 10 8 10 11 0 2 -4 4 -10 4 -5 0 -10 -5 -10 -11z"/><path d="M4286 1048 c3 -5 10 -6 15 -3 13 9 11 12 -6 12 -8 0 -12 -4 -9 -9z"/><path d="M1703 1043 c9 -2 25 -2 35 0 9 3 1 5 -18 5 -19 0 -27 -2 -17 -5z"/><path d="M2081 1034 c0 -11 3 -14 6 -6 3 7 2 16 -1 19 -3 4 -6 -2 -5 -13z"/><path d="M4926 1031 c-17 -19 -17 -19 0 -17 9 2 18 10 20 19 3 21 1 21 -20 -2z"/><path d="M36 1032 c-3 -5 1 -9 9 -9 8 0 12 4 9 9 -3 4 -7 8 -9 8 -2 0 -6 -4 -9 -8z"/><path d="M285 1031 c-3 -5 -2 -12 3 -15 5 -3 9 1 9 9 0 17 -3 19 -12 6z"/><path d="M1320 1035 c0 -5 5 -17 10 -25 5 -8 10 -10 10 -5 0 6 -5 17 -10 25 -5 8 -10 11 -10 5z"/><path d="M2920 1035 c0 -5 5 -17 10 -25 5 -8 10 -10 10 -5 0 6 -5 17 -10 25 -5 8 -10 11 -10 5z"/><path d="M3163 1027 c4 -10 7 -24 7 -30 0 -8 3 -8 11 0 9 9 7 16 -7 30 -17 17 -18 17 -11 0z"/><path d="M4221 1024 c0 -11 3 -14 6 -6 3 7 2 16 -1 19 -3 4 -6 -2 -5 -13z"/><path d="M4306 1031 c-7 -11 -6 -12 17 -15 6 -1 11 -8 9 -15 -1 -7 2 -10 7 -7 5 4 14 -2 20 -11 6 -10 11 -13 11 -7 0 18 -57 67 -64 55z"/><path d="M5179 1027 c6 -6 18 -12 27 -13 12 -2 14 0 5 9 -6 6 -18 12 -27 13 -12 2 -14 0 -5 -9z"/><path d="M5596 1031 c-3 -5 1 -14 9 -21 8 -7 15 -9 15 -5 0 4 8 1 18 -6 15 -11 15 -11 4 1 -7 8 -18 15 -25 15 -7 1 -11 6 -9 13 2 14 -4 16 -12 3z"/><path d="M1434 1013 c2 -10 9 -18 17 -18 8 -1 13 -6 12 -12 -1 -6 4 -14 13 -17 19 -7 4 21 -24 47 -20 18 -20 18 -18 0z"/><path d="M2500 1025 c0 -5 5 -17 10 -25 5 -8 10 -10 10 -5 0 6 -5 17 -10 25 -5 8 -10 11 -10 5z"/><path d="M3951 1014 c0 -11 3 -14 6 -6 3 7 2 16 -1 19 -3 4 -6 -2 -5 -13z"/><path d="M3865 1010 c-4 -6 -10 -8 -15 -5 -5 3 -11 1 -14 -4 -8 -13 22 -7 36 7 7 7 9 12 6 12 -4 0 -10 -5 -13 -10z"/><path d="M23 995 c0 -8 4 -12 9 -9 5 3 6 10 3 15 -9 13 -12 11 -12 -6z"/><path d="M265 1001 c-3 -5 -2 -12 3 -15 5 -3 9 1 9 9 0 17 -3 19 -12 6z"/><path d="M1977 1003 c-10 -9 -9 -23 1 -23 5 0 9 7 9 15 0 17 -1 18 -10 8z"/><path d="M2911 994 c0 -11 3 -14 6 -6 3 7 2 16 -1 19 -3 4 -6 -2 -5 -13z"/><path d="M3440 997 c0 -8 7 -14 15 -14 11 0 12 4 4 14 -6 7 -13 13 -15 13 -2 0 -4 -6 -4 -13z"/><path d="M2730 986 c0 -8 4 -17 9 -20 5 -4 7 3 4 14 -6 23 -13 26 -13 6z"/><path d="M4871 991 c-8 -5 -9 -11 -3 -15 5 -3 12 1 16 9 6 17 6 18 -13 6z"/><path d="M2331 974 c0 -11 3 -14 6 -6 3 7 2 16 -1 19 -3 4 -6 -2 -5 -13z"/><path d="M3804 975 c-4 -8 -11 -12 -17 -8 -6 3 -7 1 -3 -5 10 -16 14 -15 26 8 6 11 8 20 5 20 -3 0 -8 -7 -11 -15z"/><path d="M5235 982 c4 -4 12 -7 18 -7 7 -1 11 -7 9 -14 -1 -7 2 -9 9 -6 13 9 -3 28 -27 31 -9 1 -13 -1 -9 -4z"/><path d="M4845 970 c5 -9 1 -10 -16 -6 -21 6 -22 6 -6 -5 13 -7 22 -8 29 -1 6 6 6 12 -3 17 -8 6 -10 4 -4 -5z"/><path d="M5659 967 c6 -6 18 -12 27 -13 12 -2 14 0 5 9 -6 6 -18 12 -27 13 -12 2 -14 0 -5 -9z"/><path d="M1510 960 c-9 -6 -10 -10 -3 -10 6 0 15 5 18 10 8 12 4 12 -15 0z"/><path d="M1900 966 c0 -2 7 -7 16 -10 8 -3 12 -2 9 4 -6 10 -25 14 -25 6z"/><path d="M4390 960 c-9 -6 -10 -10 -3 -10 6 0 15 5 18 10 8 12 4 12 -15 0z"/><path d="M1558 953 c7 -3 16 -2 19 1 4 3 -2 6 -13 5 -11 0 -14 -3 -6 -6z"/><path d="M4420 950 c-8 -5 -10 -10 -5 -10 6 0 17 5 25 10 8 5 11 10 5 10 -5 0 -17 -5 -25 -10z"/><path d="M4770 956 c0 -2 9 -6 20 -9 11 -3 18 -1 14 4 -5 9 -34 13 -34 5z"/><path d="M1618 943 c7 -3 16 -2 19 1 4 3 -2 6 -13 5 -11 0 -14 -3 -6 -6z"/><path d="M1835 940 c27 -12 43 -12 25 0 -8 5 -22 9 -30 9 -10 0 -8 -3 5 -9z"/><path d="M4450 940 c-18 -12 -2 -12 25 0 13 6 15 9 5 9 -8 0 -22 -4 -30 -9z"/><path d="M5288 940 c7 -8 18 -15 25 -15 7 -1 11 -7 9 -14 -1 -7 2 -10 8 -6 8 5 7 11 -1 21 -6 8 -14 12 -17 9 -3 -3 -12 1 -21 7 -14 10 -14 10 -3 -2z"/><path d="M1713 933 c15 -2 37 -2 50 0 12 2 0 4 -28 4 -27 0 -38 -2 -22 -4z"/><path d="M3628 933 c12 -2 32 -2 45 0 12 2 2 4 -23 4 -25 0 -35 -2 -22 -4z"/><path d="M4528 933 c6 -2 18 -2 25 0 6 3 1 5 -13 5 -14 0 -19 -2 -12 -5z"/><path d="M4658 933 c6 -2 18 -2 25 0 6 3 1 5 -13 5 -14 0 -19 -2 -12 -5z"/><path d="M4768 933 c7 -3 16 -2 19 1 4 3 -2 6 -13 5 -11 0 -14 -3 -6 -6z"/><path d="M5713 924 c9 -11 24 -21 32 -21 11 0 12 4 3 14 -6 7 -13 11 -16 8 -3 -3 -12 1 -21 7 -12 10 -12 7 2 -8z"/><path d="M1648 923 c7 -3 16 -2 19 1 4 3 -2 6 -13 5 -11 0 -14 -3 -6 -6z"/><path d="M1803 923 c9 -2 23 -2 30 0 6 3 -1 5 -18 5 -16 0 -22 -2 -12 -5z"/><path d="M3708 923 c7 -3 16 -2 19 1 4 3 -2 6 -13 5 -11 0 -14 -3 -6 -6z"/><path d="M4478 923 c7 -3 16 -2 19 1 4 3 -2 6 -13 5 -11 0 -14 -3 -6 -6z"/><path d="M4583 913 c15 -2 37 -2 50 0 12 2 0 4 -28 4 -27 0 -38 -2 -22 -4z"/><path d="M5349 887 c6 -6 18 -12 27 -13 12 -2 14 0 5 9 -6 6 -18 12 -27 13 -12 2 -14 0 -5 -9z"/><path d="M5766 891 c-3 -5 1 -14 9 -21 8 -7 15 -9 15 -5 0 4 8 1 18 -6 9 -7 6 -1 -7 14 -27 30 -28 30 -35 18z"/><path d="M5405 842 c4 -4 12 -7 18 -7 7 -1 11 -7 9 -14 -1 -7 2 -9 9 -6 13 9 -3 28 -27 31 -9 1 -13 -1 -9 -4z"/><path d="M5825 841 c-3 -5 0 -13 7 -18 16 -10 42 -14 33 -5 -4 4 -12 7 -18 7 -7 1 -11 6 -9 13 2 14 -4 16 -13 3z"/><path d="M4108 803 c7 -3 16 -2 19 1 4 3 -2 6 -13 5 -11 0 -14 -3 -6 -6z"/><path d="M4388 803 c12 -2 30 -2 40 0 9 3 -1 5 -23 4 -22 0 -30 -2 -17 -4z"/><path d="M4673 803 c15 -2 39 -2 55 0 15 2 2 4 -28 4 -30 0 -43 -2 -27 -4z"/><path d="M5490 772 c24 -23 46 -39 49 -37 2 3 11 -1 20 -7 10 -8 9 -4 -3 9 -10 13 -22 20 -26 18 -4 -3 -15 7 -25 21 -9 14 -19 23 -22 20 -4 -3 -13 -1 -22 5 -9 6 4 -7 29 -29z"/><path d="M5876 801 c-3 -4 3 -16 13 -25 14 -13 18 -14 18 -2 0 8 -5 14 -11 13 -6 -1 -10 4 -8 11 2 14 -4 16 -12 3z"/><path d="M4315 791 c-3 -5 0 -13 6 -17 7 -4 9 -3 5 4 -3 5 0 13 6 15 9 4 10 6 1 6 -6 1 -14 -3 -18 -8z"/><path d="M4450 790 c-8 -5 -10 -10 -5 -10 6 0 17 5 25 10 8 5 11 10 5 10 -5 0 -17 -5 -25 -10z"/><path d="M4750 790 c-9 -6 -10 -10 -3 -10 6 0 15 5 18 10 8 12 4 12 -15 0z"/><path d="M4607 779 c7 -7 15 -10 18 -7 3 3 -2 9 -12 12 -14 6 -15 5 -6 -5z"/><path d="M4648 783 c7 -3 16 -2 19 1 4 3 -2 6 -13 5 -11 0 -14 -3 -6 -6z"/><path d="M4280 776 c0 -2 7 -7 16 -10 8 -3 12 -2 9 4 -6 10 -25 14 -25 6z"/><path d="M4505 771 c-3 -5 -2 -12 3 -15 5 -3 9 1 9 9 0 17 -3 19 -12 6z"/><path d="M4073 758 c1 -7 -3 -12 -9 -11 -6 1 -11 -5 -11 -13 0 -12 4 -11 18 2 10 9 16 21 13 25 -8 13 -14 11 -11 -3z"/><path d="M4566 753 c-6 -14 -5 -15 5 -6 7 7 10 15 7 18 -3 3 -9 -2 -12 -12z"/><path d="M4810 762 c0 -5 12 -19 27 -33 15 -13 21 -16 14 -6 -7 9 -10 17 -6 17 4 0 2 7 -5 15 -14 16 -30 20 -30 7z"/><path d="M4131 740 c0 -8 4 -24 9 -35 5 -13 9 -14 9 -5 0 8 -4 24 -9 35 -5 13 -9 14 -9 5z"/><path d="M4235 739 c-3 -4 2 -6 10 -5 21 3 28 13 10 13 -9 0 -18 -4 -20 -8z"/><path d="M4515 721 c-10 -16 -23 -27 -29 -24 -5 4 -6 1 -2 -6 9 -14 40 9 57 41 16 29 -4 20 -26 -11z"/><path d="M4005 720 c27 -12 43 -12 25 0 -8 5 -22 9 -30 9 -10 0 -8 -3 5 -9z"/><path d="M4388 723 c6 -2 18 -2 25 0 6 3 1 5 -13 5 -14 0 -19 -2 -12 -5z"/><path d="M4627 719 c7 -7 15 -10 18 -7 3 3 -2 9 -12 12 -14 6 -15 5 -6 -5z"/><path d="M4688 723 c7 -3 16 -2 19 1 4 3 -2 6 -13 5 -11 0 -14 -3 -6 -6z"/><path d="M4310 710 c0 -6 -4 -9 -9 -6 -4 3 -18 -5 -30 -18 -15 -15 -19 -26 -12 -31 11 -6 13 -5 15 18 0 6 6 12 11 12 21 1 48 22 36 29 -6 4 -11 2 -11 -4z"/><path d="M4590 699 c-6 -11 -9 -25 -6 -32 2 -7 5 -4 5 6 1 9 5 17 9 17 5 0 9 7 9 15 0 20 -4 19 -17 -6z"/><path d="M4740 713 c8 -3 25 -14 36 -25 13 -11 24 -15 28 -10 8 14 -22 36 -53 39 -14 1 -19 -1 -11 -4z m51 -20 c13 -16 12 -17 -3 -4 -10 7 -18 15 -18 17 0 8 8 3 21 -13z"/><path d="M5581 693 c6 -7 15 -11 19 -8 5 3 11 1 15 -4 3 -5 -1 -13 -9 -18 -8 -4 -16 -12 -18 -18 -2 -5 -6 -9 -10 -8 -4 2 -17 -10 -29 -27 -12 -16 -26 -27 -30 -24 -4 2 -10 1 -13 -4 -3 -5 2 -9 10 -9 8 0 24 13 35 29 11 15 24 26 29 23 5 -3 17 6 26 20 9 13 21 22 28 18 6 -3 1 5 -12 19 -23 26 -62 37 -41 11z"/><path d="M3918 693 c6 -2 18 -2 25 0 6 3 1 5 -13 5 -14 0 -19 -2 -12 -5z"/><path d="M4866 687 c3 -10 9 -15 12 -12 3 3 0 11 -7 18 -10 9 -11 8 -5 -6z"/><path d="M4121 674 c0 -11 3 -14 6 -6 3 7 2 16 -1 19 -3 4 -6 -2 -5 -13z"/><path d="M4183 675 c0 -8 4 -12 9 -9 5 3 6 10 3 15 -9 13 -12 11 -12 -6z"/><path d="M5816 682 c-3 -5 1 -9 9 -9 8 0 12 4 9 9 -3 4 -7 8 -9 8 -2 0 -6 -4 -9 -8z"/><path d="M5786 661 c-4 -5 -2 -12 3 -15 5 -4 12 -2 15 3 4 5 2 12 -3 15 -5 4 -12 2 -15 -3z"/><path d="M810 652 c0 -9 -105 -13 -407 -14 l-408 -3 404 -2 c381 -3 441 0 418 24 -4 3 -7 1 -7 -5z"/><path d="M3930 654 c60 -8 128 -8 123 -1 -2 4 -37 6 -76 6 -40 -1 -61 -3 -47 -5z"/><path d="M4540 650 c-9 -6 -10 -10 -3 -10 6 0 15 5 18 10 8 12 4 12 -15 0z"/><path d="M5756 642 c-3 -5 1 -9 9 -9 8 0 12 4 9 9 -3 4 -7 8 -9 8 -2 0 -6 -4 -9 -8z"/><path d="M3933 633 c9 -2 23 -2 30 0 6 3 -1 5 -18 5 -16 0 -22 -2 -12 -5z"/><path d="M4132 629 c4 -9 2 -22 -3 -30 -7 -11 -9 -10 -9 5 0 11 -2 17 -5 14 -3 -3 -1 -23 4 -44 5 -22 9 -30 10 -17 2 34 12 54 25 46 6 -4 4 2 -4 13 -22 29 -24 30 -18 13z"/><path d="M4437 627 c-3 -8 1 -14 8 -14 7 0 11 6 8 14 -3 7 -6 13 -8 13 -2 0 -5 -6 -8 -13z"/><path d="M4526 615 c4 -8 8 -15 10 -15 2 0 4 7 4 15 0 8 -4 15 -10 15 -5 0 -7 -7 -4 -15z"/><path d="M5724 615 c-4 -8 -10 -13 -14 -10 -5 3 -11 1 -14 -4 -12 -20 13 -21 27 -1 7 11 17 17 22 12 5 -4 5 -1 1 6 -9 16 -15 15 -22 -3z"/><path d="M4226 607 c3 -10 9 -15 12 -12 3 3 0 11 -7 18 -10 9 -11 8 -5 -6z"/><path d="M4612 590 c0 -19 2 -27 5 -17 2 9 2 25 0 35 -3 9 -5 1 -5 -18z"/><path d="M4892 590 c0 -19 2 -27 5 -17 2 9 2 25 0 35 -3 9 -5 1 -5 -18z"/><path d="M4041 594 c0 -11 3 -14 6 -6 3 7 2 16 -1 19 -3 4 -6 -2 -5 -13z"/><path d="M4832 580 c0 -19 2 -27 5 -17 2 9 2 25 0 35 -3 9 -5 1 -5 -18z"/><path d="M5666 582 c-3 -5 1 -9 9 -9 8 0 12 4 9 9 -3 4 -7 8 -9 8 -2 0 -6 -4 -9 -8z"/><path d="M4201 554 c0 -11 3 -14 6 -6 3 7 2 16 -1 19 -3 4 -6 -2 -5 -13z"/><path d="M4101 544 c0 -11 3 -14 6 -6 3 7 2 16 -1 19 -3 4 -6 -2 -5 -13z"/><path d="M4432 540 c0 -14 2 -19 5 -12 2 6 2 18 0 25 -3 6 -5 1 -5 -13z"/><path d="M4510 536 c0 -14 4 -27 8 -30 5 -3 6 8 4 25 -5 35 -12 38 -12 5z"/><path d="M4531 544 c0 -11 3 -14 6 -6 3 7 2 16 -1 19 -3 4 -6 -2 -5 -13z"/><path d="M4591 550 c0 -8 4 -24 9 -35 5 -13 9 -14 9 -5 0 8 -4 24 -9 35 -5 13 -9 14 -9 5z"/><path d="M5449 534 c-7 -9 -6 -12 6 -10 22 3 40 23 20 23 -8 0 -20 -6 -26 -13z"/><path d="M4031 524 c0 -11 3 -14 6 -6 3 7 2 16 -1 19 -3 4 -6 -2 -5 -13z"/><path d="M4492 515 c0 -16 2 -22 5 -12 2 9 2 23 0 30 -3 6 -5 -1 -5 -18z"/><path d="M4132 510 c0 -14 2 -19 5 -12 2 6 2 18 0 25 -3 6 -5 1 -5 -13z"/><path d="M4412 510 c0 -14 2 -19 5 -12 2 6 2 18 0 25 -3 6 -5 1 -5 -13z"/><path d="M4880 521 c0 -6 4 -13 10 -16 6 -3 7 1 4 9 -7 18 -14 21 -14 7z"/><path d="M4111 504 c0 -11 3 -14 6 -6 3 7 2 16 -1 19 -3 4 -6 -2 -5 -13z"/><path d="M5422 513 c2 -4 -1 -10 -7 -12 -23 -8 -59 -43 -61 -59 -2 -12 3 -10 18 8 11 14 24 24 28 23 14 -4 42 35 30 42 -6 3 -9 3 -8 -2z"/><path d="M5564 505 c-4 -8 -10 -13 -14 -10 -5 3 -11 1 -14 -4 -12 -20 13 -21 27 -1 7 11 17 17 22 12 5 -4 5 -1 1 6 -9 16 -15 15 -22 -3z"/><path d="M4011 494 c0 -11 3 -14 6 -6 3 7 2 16 -1 19 -3 4 -6 -2 -5 -13z"/><path d="M4426 468 c-7 -34 6 -59 19 -37 6 8 4 10 -4 5 -9 -6 -11 1 -6 28 4 20 5 36 2 36 -2 0 -7 -14 -11 -32z"/><path d="M4091 480 c0 -8 4 -24 9 -35 5 -13 9 -14 9 -5 0 8 -4 24 -9 35 -5 13 -9 14 -9 5z"/><path d="M4793 465 c0 -8 4 -12 9 -9 5 3 6 10 3 15 -9 13 -12 11 -12 -6z"/><path d="M5506 472 c-3 -5 1 -9 9 -9 8 0 12 4 9 9 -3 4 -7 8 -9 8 -2 0 -6 -4 -9 -8z"/><path d="M4021 454 c0 -11 3 -14 6 -6 3 7 2 16 -1 19 -3 4 -6 -2 -5 -13z"/><path d="M4001 444 c0 -11 3 -14 6 -6 3 7 2 16 -1 19 -3 4 -6 -2 -5 -13z"/><path d="M4215 449 c-4 -6 -5 -12 -2 -15 2 -3 7 2 10 11 7 17 1 20 -8 4z"/><path d="M4555 451 c-3 -5 -2 -12 3 -15 5 -3 9 1 9 9 0 17 -3 19 -12 6z"/><path d="M5474 445 c-4 -8 -10 -13 -14 -10 -5 3 -11 1 -14 -4 -12 -20 13 -21 27 -1 7 11 17 17 22 12 5 -4 5 -1 1 6 -9 16 -15 15 -22 -3z"/><path d="M4769 446 c-1 -3 -2 -12 -3 -18 -1 -7 -7 -12 -13 -11 -6 1 -16 -3 -22 -11 -8 -9 -7 -13 4 -13 21 0 59 43 46 52 -6 3 -12 4 -12 1z"/><path d="M4081 414 c0 -11 3 -14 6 -6 3 7 2 16 -1 19 -3 4 -6 -2 -5 -13z"/><path d="M4532 422 c-9 -6 -6 -12 12 -22 14 -7 23 -18 19 -23 -4 -6 -1 -7 7 -2 10 6 9 11 -6 22 -10 8 -18 19 -16 24 3 11 1 11 -16 1z"/><path d="M4236 412 c-3 -5 3 -17 13 -26 11 -10 22 -13 25 -8 3 5 -3 17 -13 26 -11 10 -22 13 -25 8z m25 -19 c13 -16 12 -17 -3 -4 -10 7 -18 15 -18 17 0 8 8 3 21 -13z"/><path d="M4444 405 c-4 -8 -11 -12 -17 -8 -5 3 -7 1 -4 -5 4 -5 17 -8 29 -4 12 3 17 7 10 10 -7 2 -10 8 -6 13 3 5 3 9 -1 9 -3 0 -8 -7 -11 -15z"/><path d="M5416 412 c-3 -5 1 -9 9 -9 8 0 12 4 9 9 -3 4 -7 8 -9 8 -2 0 -6 -4 -9 -8z"/><path d="M4011 394 c0 -11 3 -14 6 -6 3 7 2 16 -1 19 -3 4 -6 -2 -5 -13z"/><path d="M4801 386 c-17 -18 -19 -26 -10 -31 7 -5 10 -4 6 2 -8 13 27 46 38 36 4 -5 5 -2 1 5 -9 16 -9 16 -35 -12z"/><path d="M5279 394 c-7 -9 -6 -12 6 -10 22 3 40 23 20 23 -8 0 -20 -6 -26 -13z"/><path d="M4174 373 c2 -10 7 -18 12 -18 18 0 34 -17 28 -27 -5 -7 -2 -8 5 -3 9 5 5 15 -15 36 -33 34 -33 34 -30 12z"/><path d="M4370 376 c0 -2 7 -7 16 -10 8 -3 12 -2 9 4 -6 10 -25 14 -25 6z"/><path d="M4670 370 c8 -5 20 -10 25 -10 6 0 3 5 -5 10 -8 5 -19 10 -25 10 -5 0 -3 -5 5 -10z"/><path d="M5252 369 c2 -7 -1 -13 -7 -14 -15 0 -52 -28 -54 -40 0 -5 -5 -10 -10 -10 -6 0 -16 -7 -23 -15 -11 -12 -11 -12 3 -2 9 6 18 9 22 6 3 -3 13 6 22 20 10 14 21 24 25 21 4 -2 15 4 24 14 12 13 14 21 6 26 -6 3 -9 1 -8 -6z"/><path d="M5353 353 c0 -10 4 -10 16 -1 9 7 18 13 20 15 2 1 -5 1 -16 0 -11 0 -20 -7 -20 -14z"/><path d="M4070 346 c0 -8 4 -17 9 -20 5 -4 7 3 4 14 -6 23 -13 26 -13 6z"/><path d="M4323 353 c9 -2 25 -2 35 0 9 3 1 5 -18 5 -19 0 -27 -2 -17 -5z"/><path d="M4623 353 c9 -2 23 -2 30 0 6 3 -1 5 -18 5 -16 0 -22 -2 -12 -5z"/><path d="M4756 351 c-4 -5 -2 -12 3 -15 5 -4 12 -2 15 3 4 5 2 12 -3 15 -5 4 -12 2 -15 -3z"/><path d="M5316 342 c-3 -5 1 -9 9 -9 8 0 12 4 9 9 -3 4 -7 8 -9 8 -2 0 -6 -4 -9 -8z"/><path d="M4001 324 c0 -11 3 -14 6 -6 3 7 2 16 -1 19 -3 4 -6 -2 -5 -13z"/><path d="M4717 319 c7 -7 15 -10 18 -7 3 3 -2 9 -12 12 -14 6 -15 5 -6 -5z"/><path d="M5286 322 c-3 -5 1 -9 9 -9 8 0 12 4 9 9 -3 4 -7 8 -9 8 -2 0 -6 -4 -9 -8z"/><path d="M4380 316 c0 -2 7 -7 16 -10 8 -3 12 -2 9 4 -6 10 -25 14 -25 6z"/><path d="M4550 310 c-8 -5 -10 -10 -5 -10 6 0 17 5 25 10 8 5 11 10 5 10 -5 0 -17 -5 -25 -10z"/><path d="M5254 295 c-4 -8 -10 -12 -15 -9 -5 3 -12 -2 -15 -10 -3 -9 -10 -14 -14 -11 -5 3 -11 1 -14 -4 -12 -20 13 -21 27 -1 7 11 17 17 20 14 4 -4 9 1 13 10 3 9 11 13 17 9 6 -3 7 -1 3 5 -10 16 -15 15 -22 -3z"/><path d="M4278 293 c7 -3 16 -2 19 1 4 3 -2 6 -13 5 -11 0 -14 -3 -6 -6z"/><path d="M4358 293 c7 -3 16 -2 19 1 4 3 -2 6 -13 5 -11 0 -14 -3 -6 -6z"/><path d="M5109 254 c-7 -9 -6 -12 6 -10 22 3 40 23 20 23 -8 0 -20 -6 -26 -13z"/><path d="M4138 253 c7 -3 16 -2 19 1 4 3 -2 6 -13 5 -11 0 -14 -3 -6 -6z"/><path d="M4218 253 c7 -3 16 -2 19 1 4 3 -2 6 -13 5 -11 0 -14 -3 -6 -6z"/><path d="M4450 245 c-9 -10 -9 -15 -1 -15 6 0 11 4 11 9 0 5 8 12 18 14 14 4 14 5 1 6 -9 0 -22 -6 -29 -14z"/><path d="M4518 253 c7 -3 16 -2 19 1 4 3 -2 6 -13 5 -11 0 -14 -3 -6 -6z"/><path d="M4336 242 c-2 -4 2 -16 10 -27 8 -10 14 -13 14 -6 0 7 4 10 9 7 5 -3 14 1 20 8 7 8 8 17 3 20 -6 3 -15 -1 -22 -9 -13 -15 -35 -10 -25 6 4 5 4 9 1 9 -3 0 -7 -3 -10 -8z"/><path d="M5166 242 c-3 -5 1 -9 9 -9 8 0 12 4 9 9 -3 4 -7 8 -9 8 -2 0 -6 -4 -9 -8z"/><path d="M4238 229 c-12 -30 7 -37 27 -10 13 17 14 22 3 13 -13 -10 -17 -10 -20 0 -3 8 -6 7 -10 -3z"/><path d="M4580 231 c0 -6 4 -13 10 -16 6 -3 7 1 4 9 -7 18 -14 21 -14 7z"/><path d="M4660 231 c13 -10 13 -12 0 -20 -8 -6 -11 -13 -7 -18 9 -8 28 17 24 31 -2 6 -10 11 -18 14 -11 3 -11 2 1 -7z"/><path d="M5082 229 c2 -7 -1 -13 -7 -14 -15 0 -52 -28 -54 -40 0 -5 -5 -10 -10 -10 -6 0 -16 -7 -23 -15 -11 -12 -11 -12 3 -2 9 6 18 9 22 6 3 -3 13 6 22 20 10 14 21 24 25 21 4 -2 15 4 24 14 12 13 14 21 6 26 -6 3 -9 1 -8 -6z"/><path d="M4419 186 c0 -21 -1 -21 -10 -1 l-9 20 3 -20 c3 -28 42 -27 43 1 1 11 -5 21 -12 21 -8 0 -14 -10 -15 -21z"/><path d="M4481 194 c0 -11 3 -14 6 -6 3 7 2 16 -1 19 -3 4 -6 -2 -5 -13z"/><path d="M4501 194 c0 -11 3 -14 6 -6 3 7 2 16 -1 19 -3 4 -6 -2 -5 -13z"/><path d="M4548 205 c-8 -8 4 -65 13 -60 4 3 4 17 -1 30 -7 19 -6 25 8 28 14 4 14 5 1 6 -9 0 -18 -1 -21 -4z"/><path d="M4170 189 c0 -5 5 -7 10 -4 6 3 10 8 10 11 0 2 -4 4 -10 4 -5 0 -10 -5 -10 -11z"/><path d="M4593 193 c4 -3 1 -13 -6 -22 -10 -14 -10 -14 4 -4 9 7 20 9 25 5 4 -4 2 1 -5 11 -7 9 -16 17 -19 17 -3 0 -2 -3 1 -7z"/><path d="M5096 191 c-4 -5 -2 -12 3 -15 5 -4 12 -2 15 3 4 5 2 12 -3 15 -5 4 -12 2 -15 -3z"/><path d="M4136 163 c-4 -9 -3 -20 1 -24 4 -4 9 3 9 17 2 28 -1 31 -10 7z"/><path d="M4206 172 c-3 -5 1 -9 9 -9 8 0 15 4 15 9 0 4 -4 8 -9 8 -6 0 -12 -4 -15 -8z"/><path d="M4316 172 c-2 -4 4 -8 14 -8 10 0 16 4 14 8 -3 4 -9 8 -14 8 -5 0 -11 -4 -14 -8z"/><path d="M4657 161 c-3 -12 -15 -21 -33 -23 l-29 -3 32 -6 c20 -3 31 -1 30 5 -1 6 3 10 9 9 7 -1 10 6 7 17 -7 25 -9 25 -16 1z"/><path d="M4530 151 c0 -8 -8 -11 -20 -8 -11 3 -18 1 -14 -4 3 -5 11 -9 19 -9 16 0 30 18 21 27 -3 4 -6 1 -6 -6z"/><path d="M4430 140 l-45 -7 48 -1 c26 -1 47 3 47 8 0 6 -1 9 -2 8 -2 0 -23 -4 -48 -8z"/><path d="M4255 130 c4 -7 75 -1 75 6 0 3 -18 4 -39 2 -22 -1 -38 -5 -36 -8z"/><path d="M5006 132 c-3 -5 1 -9 9 -9 8 0 12 4 9 9 -3 4 -7 8 -9 8 -2 0 -6 -4 -9 -8z"/><path d="M4953 120 c1 -5 -7 -15 -18 -23 -11 -9 -16 -19 -12 -24 5 -4 16 1 26 13 9 11 25 20 35 18 14 -2 16 0 7 9 -13 13 -41 18 -38 7z"/><path d="M4133 93 c9 -2 23 -2 30 0 6 3 -1 5 -18 5 -16 0 -22 -2 -12 -5z"/></g><g transform="translate(0.000000,168.000000) scale(0.100000,-0.100000)" fill="#0679E5" stroke="none"><path d="M280 1331 c-140 -193 -256 -355 -258 -360 -2 -7 34 -11 106 -11 l110 0 47 65 46 65 204 0 204 0 12 -54 c6 -30 15 -59 19 -65 4 -8 49 -11 137 -9 l130 3 -112 355 -111 355 -140 3 -139 3 -255 -350z m381 39 l36 -140 -134 0 -133 0 53 83 c96 147 130 197 136 197 3 0 22 -63 42 -140z"/><path d="M1240 1675 c0 -3 -36 -163 -80 -354 -44 -192 -80 -352 -80 -355 0 -3 51 -6 113 -6 l113 0 78 341 c43 188 81 350 83 360 5 18 -2 19 -111 19 -64 0 -116 -2 -116 -5z"/><path d="M3355 1668 c-2 -7 -34 -143 -70 -303 -37 -159 -72 -316 -80 -347 l-13 -58 113 0 114 0 6 33 7 34 27 -28 c63 -62 227 -77 326 -29 64 31 134 101 165 165 20 41 25 65 25 131 0 71 -3 85 -27 122 -32 47 -67 69 -137 82 -89 17 -224 -16 -283 -68 -10 -8 -18 -13 -18 -10 0 3 14 65 30 138 17 73 30 136 30 141 0 15 -210 11 -215 -3z m356 -337 c24 -25 29 -37 29 -81 0 -106 -75 -190 -170 -190 -93 0 -128 95 -75 199 34 69 79 99 148 100 30 1 45 -6 68 -28z"/><path d="M4111 1636 c-20 -80 -25 -77 101 -74 124 3 114 -4 131 86 l7 32 -114 0 -114 0 -11 -44z"/><path d="M5000 1505 c0 -3 18 -28 40 -57 63 -83 84 -146 84 -259 l1 -95 257 -213 258 -212 -298 -245 c-472 -389 -487 -396 235 95 l342 232 -32 28 c-90 77 -887 730 -887 726z"/><path d="M1709 1465 c-166 -33 -278 -136 -304 -278 -17 -91 25 -180 101 -212 100 -41 304 -44 406 -5 60 22 168 110 168 136 0 11 -23 14 -111 14 -110 0 -111 0 -138 -29 -31 -33 -97 -57 -135 -47 -38 9 -66 45 -66 83 l0 33 229 0 c152 0 232 4 236 11 4 6 9 45 12 87 4 65 1 82 -15 108 -62 97 -206 134 -383 99z m138 -100 c43 -18 53 -30 53 -66 0 -25 -2 -26 -77 -33 -131 -11 -163 -8 -163 12 0 28 52 80 90 91 49 13 56 13 97 -4z"/><path d="M2533 1462 c-28 -10 -69 -30 -90 -44 l-39 -25 4 34 4 34 -108 -3 -109 -3 -52 -240 c-28 -132 -52 -244 -52 -248 -1 -4 49 -6 111 -5 l112 3 32 147 c33 158 47 188 97 218 43 26 79 25 105 -3 29 -31 28 -59 -8 -224 -16 -75 -30 -138 -30 -140 0 -2 49 -3 109 -3 l108 0 34 156 c33 154 33 155 76 195 44 41 84 50 123 29 40 -21 40 -40 4 -206 -19 -87 -34 -162 -34 -166 0 -5 49 -8 109 -8 l108 0 33 153 c45 204 48 257 21 295 -29 41 -87 62 -174 62 -83 0 -142 -23 -196 -73 -21 -20 -35 -27 -38 -20 -9 24 -45 64 -71 77 -48 25 -131 28 -189 8z"/><path d="M4591 1465 c-95 -21 -164 -59 -217 -118 -61 -67 -87 -127 -87 -197 0 -65 18 -105 67 -148 54 -47 194 -78 301 -67 185 20 277 71 335 185 l20 40 -112 0 -113 0 -17 -30 c-25 -43 -74 -70 -131 -70 -65 0 -84 12 -97 62 -23 83 19 181 93 217 78 38 136 23 162 -41 l15 -39 108 3 107 3 -1 43 c-1 73 -62 131 -157 152 -87 19 -206 21 -276 5z"/><path d="M4075 1448 c-3 -7 -29 -119 -58 -248 l-54 -235 110 -3 c60 -1 112 -1 114 2 6 6 112 464 113 484 0 9 -29 12 -110 12 -79 0 -112 -4 -115 -12z"/><path d="M4080 751 c-30 -33 -45 -40 -102 -51 -45 -8 -68 -17 -68 -26 0 -11 17 -14 68 -14 38 0 71 -2 74 -5 2 -3 -6 -71 -19 -152 -30 -196 -30 -193 7 -193 17 0 30 5 30 11 0 6 16 112 35 236 19 124 35 227 35 229 0 15 -31 -3 -60 -35z"/><path d="M4337 776 c-152 -54 -237 -223 -178 -351 49 -105 150 -142 262 -94 35 15 49 27 47 38 -4 19 -18 18 -79 -5 -40 -15 -52 -16 -87 -6 -58 17 -94 68 -100 137 -5 63 8 109 48 164 55 75 166 106 222 61 25 -19 26 -19 43 0 18 20 18 21 -1 35 -45 34 -116 42 -177 21z"/><path d="M4629 774 c-106 -32 -191 -150 -191 -264 0 -242 308 -269 428 -37 10 17 19 61 22 97 3 53 0 74 -16 106 -25 49 -57 79 -104 99 -45 18 -78 18 -139 -1z m138 -54 c101 -61 87 -241 -25 -326 -22 -18 -59 -35 -81 -39 -76 -13 -150 46 -165 130 -16 81 52 208 129 241 44 19 105 17 142 -6z"/><path d="M4557 656 c-10 -14 -17 -45 -17 -69 0 -25 -6 -62 -14 -83 -9 -27 -10 -47 -4 -64 l9 -25 19 25 c11 14 25 41 32 60 15 43 16 139 2 163 -10 17 -12 17 -27 -7z"/><path d="M0 650 c0 -7 142 -10 405 -10 263 0 405 3 405 10 0 7 -142 10 -405 10 -263 0 -405 -3 -405 -10z"/><path d="M4130 234 c0 -3 5 -24 12 -45 8 -29 8 -45 0 -64 -10 -22 -9 -25 6 -25 11 0 32 23 55 63 41 71 43 77 22 77 -8 0 -22 -15 -32 -32 l-17 -33 -6 30 c-3 17 -12 31 -23 33 -9 2 -17 0 -17 -4z"/><path d="M4261 214 c-31 -40 -15 -69 38 -69 22 0 41 5 41 10 -1 6 -14 9 -30 7 -17 -2 -30 2 -30 7 0 6 18 11 40 11 44 0 47 5 24 38 -20 30 -58 28 -83 -4z m54 -4 c3 -6 -4 -10 -17 -10 -18 0 -20 2 -8 10 19 12 18 12 25 0z"/><path d="M4386 221 c-17 -19 -20 -39 -10 -65 4 -11 19 -16 49 -16 50 0 52 1 56 54 l4 40 -41 3 c-30 2 -46 -3 -58 -16z m64 -31 c0 -24 -26 -38 -42 -22 -16 16 -2 42 22 42 13 0 20 -7 20 -20z"/><path d="M4516 231 c-2 -3 -7 -25 -11 -48 -6 -36 -4 -43 9 -43 10 0 19 12 23 31 3 19 14 34 25 36 30 8 21 30 -12 30 -17 0 -32 -3 -34 -6z"/><path d="M4605 224 c-15 -15 -14 -18 6 -40 21 -23 22 -24 3 -22 -10 2 -20 -1 -21 -7 -2 -5 12 -10 30 -10 26 0 33 4 35 23 2 13 -3 25 -12 28 -23 9 -20 23 4 17 24 -6 27 12 4 21 -24 9 -31 8 -49 -10z"/></g><g transform="translate(0.000000,168.000000) scale(0.100000,-0.100000)" fill="#0052EB" stroke="none"><path d="M866 1557 c3 -10 9 -15 12 -12 3 3 0 11 -7 18 -10 9 -11 8 -5 -6z"/><path d="M4153 1533 c31 -2 83 -2 115 0 31 2 5 3 -58 3 -63 0 -89 -1 -57 -3z"/><path d="M1828 1493 c6 -2 18 -2 25 0 6 3 1 5 -13 5 -14 0 -19 -2 -12 -5z"/><path d="M3635 1480 c-3 -6 1 -7 9 -4 18 7 21 14 7 14 -6 0 -13 -4 -16 -10z"/><path d="M4996 1477 c3 -10 9 -15 12 -12 3 3 0 11 -7 18 -10 9 -11 8 -5 -6z"/><path d="M2013 1457 c0 -8 6 -14 14 -14 9 0 10 4 2 14 -6 7 -12 13 -14 13 -1 0 -2 -6 -2 -13z"/><path d="M3164 1461 c7 -11 46 -35 46 -28 0 3 -12 12 -26 22 -15 9 -23 12 -20 6z"/><path d="M3537 1446 c-4 -10 -1 -13 8 -9 8 3 12 9 9 14 -7 12 -11 11 -17 -5z"/><path d="M3920 1446 c0 -2 8 -10 18 -17 15 -13 16 -12 3 4 -13 16 -21 21 -21 13z"/><path d="M620 1421 c0 -6 4 -13 10 -16 6 -3 7 1 4 9 -7 18 -14 21 -14 7z"/><path d="M1540 1420 c-9 -6 -10 -10 -3 -10 6 0 15 5 18 10 8 12 4 12 -15 0z"/><path d="M3950 1406 c0 -2 8 -10 18 -17 15 -13 16 -12 3 4 -13 16 -21 21 -21 13z"/><path d="M3240 1335 c0 -8 4 -15 10 -15 5 0 7 7 4 15 -4 8 -8 15 -10 15 -2 0 -4 -7 -4 -15z"/><path d="M1866 1327 c3 -10 9 -15 12 -12 3 3 0 11 -7 18 -10 9 -11 8 -5 -6z"/><path d="M5250 1321 c0 -10 19 -25 25 -20 1 2 -3 10 -11 17 -8 7 -14 8 -14 3z"/><path d="M4310 1300 c-6 -11 -8 -20 -6 -20 3 0 10 9 16 20 6 11 8 20 6 20 -3 0 -10 -9 -16 -20z"/><path d="M1395 1280 c-3 -6 1 -7 9 -4 18 7 21 14 7 14 -6 0 -13 -4 -16 -10z"/><path d="M4007 1283 c-10 -9 -9 -23 1 -23 5 0 9 7 9 15 0 17 -1 18 -10 8z"/><path d="M4579 1273 c-13 -16 -12 -17 4 -4 9 7 17 15 17 17 0 8 -8 3 -21 -13z"/><path d="M2811 1264 c0 -11 3 -14 6 -6 3 7 2 16 -1 19 -3 4 -6 -2 -5 -13z"/><path d="M523 1253 c32 -2 81 -2 110 0 29 2 3 3 -58 3 -60 0 -84 -1 -52 -3z"/><path d="M4556 1223 c-6 -14 -5 -15 5 -6 7 7 10 15 7 18 -3 3 -9 -2 -12 -12z"/><path d="M4978 1173 c7 -3 16 -2 19 1 4 3 -2 6 -13 5 -11 0 -14 -3 -6 -6z"/><path d="M5016 1145 c-9 -26 -7 -32 5 -12 6 10 9 21 6 23 -2 3 -7 -2 -11 -11z"/><path d="M4246 1132 c-3 -5 1 -9 9 -9 8 0 12 4 9 9 -3 4 -7 8 -9 8 -2 0 -6 -4 -9 -8z"/><path d="M3949 1103 c-13 -16 -12 -17 4 -4 16 13 21 21 13 21 -2 0 -10 -8 -17 -17z"/><path d="M3191 1074 c0 -11 3 -14 6 -6 3 7 2 16 -1 19 -3 4 -6 -2 -5 -13z"/><path d="M3536 1068 c3 -5 10 -6 15 -3 13 9 11 12 -6 12 -8 0 -12 -4 -9 -9z"/><path d="M1336 1058 c3 -5 10 -6 15 -3 13 9 11 12 -6 12 -8 0 -12 -4 -9 -9z"/><path d="M1755 1060 c-3 -6 1 -7 9 -4 18 7 21 14 7 14 -6 0 -13 -4 -16 -10z"/><path d="M2076 1058 c3 -5 10 -6 15 -3 13 9 11 12 -6 12 -8 0 -12 -4 -9 -9z"/><path d="M3185 1039 c-4 -6 -5 -12 -2 -15 2 -3 7 2 10 11 7 17 1 20 -8 4z"/><path d="M3885 1029 c-11 -17 1 -21 15 -4 8 9 8 15 2 15 -6 0 -14 -5 -17 -11z"/><path d="M1036 1017 c3 -10 9 -15 12 -12 3 3 0 11 -7 18 -10 9 -11 8 -5 -6z"/><path d="M1491 964 c0 -11 3 -14 6 -6 3 7 2 16 -1 19 -3 4 -6 -2 -5 -13z"/><path d="M3460 972 c0 -5 11 -14 25 -20 14 -6 25 -10 25 -8 0 2 -11 11 -25 20 -14 9 -25 13 -25 8z"/><path d="M5700 951 c0 -10 19 -25 25 -20 1 2 -3 10 -11 17 -8 7 -14 8 -14 3z"/><path d="M5756 907 c3 -10 9 -15 12 -12 3 3 0 11 -7 18 -10 9 -11 8 -5 -6z"/><path d="M5391 854 c0 -11 3 -14 6 -6 3 7 2 16 -1 19 -3 4 -6 -2 -5 -13z"/><path d="M4786 782 c-3 -5 1 -9 9 -9 8 0 12 4 9 9 -3 4 -7 8 -9 8 -2 0 -6 -4 -9 -8z"/><path d="M4212 728 c-7 -7 -12 -16 -12 -21 0 -5 7 -1 16 8 9 9 14 18 12 20 -2 3 -10 -1 -16 -7z"/><path d="M4350 720 c0 -5 5 -10 11 -10 5 0 7 5 4 10 -3 6 -8 10 -11 10 -2 0 -4 -4 -4 -10z"/><path d="M4451 714 c9 -10 19 -26 22 -34 4 -11 6 -9 6 5 1 11 -9 26 -21 34 -22 13 -22 13 -7 -5z"/><path d="M203 673 c115 -2 299 -2 410 0 111 1 18 2 -208 2 -226 0 -316 -1 -202 -2z"/><path d="M4165 669 c-4 -6 -5 -12 -2 -15 2 -3 7 2 10 11 7 17 1 20 -8 4z"/><path d="M3983 633 c9 -2 25 -2 35 0 9 3 1 5 -18 5 -19 0 -27 -2 -17 -5z"/><path d="M203 613 c115 -2 299 -2 410 0 111 1 18 2 -208 2 -226 0 -316 -1 -202 -2z"/><path d="M4812 580 c0 -14 2 -19 5 -12 2 6 2 18 0 25 -3 6 -5 1 -5 -13z"/><path d="M4211 514 c0 -11 3 -14 6 -6 3 7 2 16 -1 19 -3 4 -6 -2 -5 -13z"/><path d="M4113 475 c0 -8 4 -12 9 -9 5 3 6 10 3 15 -9 13 -12 11 -12 -6z"/><path d="M5500 449 c0 -5 5 -7 10 -4 6 3 10 8 10 11 0 2 -4 4 -10 4 -5 0 -10 -5 -10 -11z"/><path d="M5308 413 c7 -3 16 -2 19 1 4 3 -2 6 -13 5 -11 0 -14 -3 -6 -6z"/><path d="M4095 399 c-4 -6 -5 -12 -2 -15 2 -3 7 2 10 11 7 17 1 20 -8 4z"/><path d="M4696 385 c-11 -8 -15 -15 -9 -15 6 0 16 7 23 15 16 19 11 19 -14 0z"/><path d="M4809 373 c-13 -16 -12 -17 4 -4 9 7 17 15 17 17 0 8 -8 3 -21 -13z"/><path d="M4580 375 c0 -7 30 -13 34 -7 3 4 -4 9 -15 9 -10 1 -19 0 -19 -2z"/><path d="M4491 344 c0 -11 3 -14 6 -6 3 7 2 16 -1 19 -3 4 -6 -2 -5 -13z"/><path d="M4510 326 c0 -2 7 -7 16 -10 8 -3 12 -2 9 4 -6 10 -25 14 -25 6z"/><path d="M4310 300 c-9 -6 -10 -10 -3 -10 6 0 15 5 18 10 8 12 4 12 -15 0z"/><path d="M5280 299 c0 -5 5 -7 10 -4 6 3 10 8 10 11 0 2 -4 4 -10 4 -5 0 -10 -5 -10 -11z"/><path d="M4566 192 c-3 -5 1 -9 9 -9 8 0 12 4 9 9 -3 4 -7 8 -9 8 -2 0 -6 -4 -9 -8z"/><path d="M5030 129 c0 -5 5 -7 10 -4 6 3 10 8 10 11 0 2 -4 4 -10 4 -5 0 -10 -5 -10 -11z"/><path d="M4110 115 c-7 -9 -10 -18 -6 -22 3 -3 6 -1 6 6 0 7 4 10 8 7 5 -3 9 1 9 9 0 19 -2 19 -17 0z"/><path d="M4270 120 c0 -5 5 -10 11 -10 5 0 7 5 4 10 -3 6 -8 10 -11 10 -2 0 -4 -4 -4 -10z"/><path d="M4440 120 c0 -6 7 -10 15 -10 8 0 15 2 15 4 0 2 -7 6 -15 10 -8 3 -15 1 -15 -4z"/><path d="M4508 113 c7 -3 16 -2 19 1 4 3 -2 6 -13 5 -11 0 -14 -3 -6 -6z"/><path d="M5000 109 c0 -5 5 -7 10 -4 6 3 10 8 10 11 0 2 -4 4 -10 4 -5 0 -10 -5 -10 -11z"/><path d="M4138 73 c6 -2 18 -2 25 0 6 3 1 5 -13 5 -14 0 -19 -2 -12 -5z"/><path d="M4910 71 c0 -6 4 -13 10 -16 6 -3 7 1 4 9 -7 18 -14 21 -14 7z"/></g><g transform="translate(0.000000,168.000000) scale(0.100000,-0.100000)" fill="#00FFFF" stroke="none"><path d="M3028 1493 c7 -3 16 -2 19 1 4 3 -2 6 -13 5 -11 0 -14 -3 -6 -6z"/><path d="M921 1384 c0 -11 3 -14 6 -6 3 7 2 16 -1 19 -3 4 -6 -2 -5 -13z"/><path d="M520 1345 c-7 -9 -11 -17 -9 -20 3 -2 10 5 17 15 14 24 10 26 -8 5z"/><path d="M4286 1277 c3 -10 9 -15 12 -12 3 3 0 11 -7 18 -10 9 -11 8 -5 -6z"/><path d="M3233 1267 c0 -8 6 -14 14 -14 9 0 10 4 2 14 -6 7 -12 13 -14 13 -1 0 -2 -6 -2 -13z"/><path d="M1376 1193 c-6 -14 -5 -15 5 -6 7 7 10 15 7 18 -3 3 -9 -2 -12 -12z"/><path d="M4933 1173 c9 -2 23 -2 30 0 6 3 -1 5 -18 5 -16 0 -22 -2 -12 -5z"/><path d="M1743 1133 c69 -3 96 -7 91 -15 -4 -7 -3 -8 4 -4 31 19 4 26 -90 24 l-103 -2 98 -3z"/><path d="M3965 1130 c-3 -6 1 -7 9 -4 18 7 21 14 7 14 -6 0 -13 -4 -16 -10z"/><path d="M2519 947 c4 -4 55 -6 112 -5 l104 3 -112 5 c-62 3 -109 1 -104 -3z"/><path d="M73 943 c32 -2 81 -2 110 0 29 2 3 3 -58 3 -60 0 -84 -1 -52 -3z"/><path d="M833 943 c37 -2 97 -2 135 0 37 2 6 3 -68 3 -74 0 -105 -1 -67 -3z"/><path d="M1138 943 c34 -2 88 -2 120 0 31 2 3 3 -63 3 -66 0 -92 -1 -57 -3z"/><path d="M2133 943 c26 -2 67 -2 90 0 23 2 2 3 -48 3 -49 0 -68 -1 -42 -3z"/><path d="M2278 943 c6 -2 18 -2 25 0 6 3 1 5 -13 5 -14 0 -19 -2 -12 -5z"/><path d="M2983 943 c31 -2 83 -2 115 0 31 2 5 3 -58 3 -63 0 -89 -1 -57 -3z"/><path d="M3253 943 c31 -2 83 -2 115 0 31 2 5 3 -58 3 -63 0 -89 -1 -57 -3z"/><path d="M4023 943 c31 -2 83 -2 115 0 31 2 5 3 -58 3 -63 0 -89 -1 -57 -3z"/><path d="M4538 753 c7 -3 16 -2 19 1 4 3 -2 6 -13 5 -11 0 -14 -3 -6 -6z"/><path d="M4470 340 c-9 -6 -10 -10 -3 -10 6 0 15 5 18 10 8 12 4 12 -15 0z"/><path d="M4121 174 c0 -11 3 -14 6 -6 3 7 2 16 -1 19 -3 4 -6 -2 -5 -13z"/><path d="M5056 153 c-6 -14 -5 -15 5 -6 7 7 10 15 7 18 -3 3 -9 -2 -12 -12z"/><path d="M4398 113 c7 -3 16 -2 19 1 4 3 -2 6 -13 5 -11 0 -14 -3 -6 -6z"/></g></svg>