<svg version="1.0" xmlns="http://www.w3.org/2000/svg" width="320.000000" height="320.000000" viewBox="0 0 320.000000 320.000000" preserveAspectRatio="xMidYMid meet"><rect x="0" y="0" width="19" height="19" fill="rgb(254,254,254)" /><rect x="17" y="0" width="19" height="19" fill="rgb(254,254,254)" /><rect x="35" y="0" width="19" height="19" fill="rgb(254,254,254)" /><rect x="53" y="0" width="19" height="19" fill="rgb(254,254,254)" /><rect x="71" y="0" width="19" height="19" fill="rgb(254,254,254)" /><rect x="89" y="0" width="19" height="19" fill="rgb(254,254,254)" /><rect x="107" y="0" width="19" height="19" fill="rgb(254,254,254)" /><rect x="125" y="0" width="19" height="19" fill="rgb(254,254,254)" /><rect x="143" y="0" width="19" height="19" fill="rgb(254,254,254)" /><rect x="161" y="0" width="19" height="19" fill="rgb(254,254,254)" /><rect x="179" y="0" width="19" height="19" fill="rgb(254,254,254)" /><rect x="197" y="0" width="19" height="19" fill="rgb(254,254,254)" /><rect x="215" y="0" width="19" height="19" fill="rgb(254,254,254)" /><rect x="233" y="0" width="19" height="19" fill="rgb(254,254,254)" /><rect x="251" y="0" width="19" height="19" fill="rgb(254,254,254)" /><rect x="269" y="0" width="19" height="19" fill="rgb(254,254,254)" /><rect x="287" y="0" width="33" height="19" fill="rgb(254,254,254)" /><rect x="0" y="17" width="19" height="19" fill="rgb(254,254,254)" /><rect x="17" y="17" width="19" height="19" fill="rgb(254,254,254)" /><rect x="35" y="17" width="19" height="19" fill="rgb(254,254,254)" /><rect x="53" y="17" width="19" height="19" fill="rgb(254,254,254)" /><rect x="71" y="17" width="19" height="19" fill="rgb(254,254,254)" /><rect x="89" y="17" width="19" height="19" fill="rgb(254,254,254)" /><rect x="107" y="17" width="19" height="19" fill="rgb(254,254,254)" /><rect x="125" y="17" width="19" height="19" fill="rgb(254,254,254)" /><rect x="143" y="17" width="19" height="19" fill="rgb(254,254,254)" /><rect x="161" y="17" width="19" height="19" fill="rgb(254,254,254)" /><rect x="179" y="17" width="19" height="19" fill="rgb(254,254,254)" /><rect x="197" y="17" width="19" height="19" fill="rgb(254,254,254)" /><rect x="215" y="17" width="19" height="19" fill="rgb(254,254,254)" /><rect x="233" y="17" width="19" height="19" fill="rgb(254,254,254)" /><rect x="251" y="17" width="19" height="19" fill="rgb(254,254,254)" /><rect x="269" y="17" width="19" height="19" fill="rgb(254,254,254)" /><rect x="287" y="17" width="33" height="19" fill="rgb(254,254,254)" /><rect x="0" y="35" width="19" height="19" fill="rgb(254,254,254)" /><rect x="17" y="35" width="19" height="19" fill="rgb(254,254,254)" /><rect x="35" y="35" width="19" height="19" fill="rgb(254,254,254)" /><rect x="53" y="35" width="19" height="19" fill="rgb(254,254,254)" /><rect x="71" y="35" width="19" height="19" fill="rgb(254,254,254)" /><rect x="89" y="35" width="19" height="19" fill="rgb(254,254,254)" /><rect x="107" y="35" width="19" height="19" fill="rgb(254,254,254)" /><rect x="125" y="35" width="19" height="19" fill="rgb(254,254,254)" /><rect x="143" y="35" width="19" height="19" fill="rgb(254,254,254)" /><rect x="161" y="35" width="19" height="19" fill="rgb(254,254,254)" /><rect x="179" y="35" width="19" height="19" fill="rgb(254,254,254)" /><rect x="197" y="35" width="19" height="19" fill="rgb(254,254,254)" /><rect x="215" y="35" width="19" height="19" fill="rgb(254,254,254)" /><rect x="233" y="35" width="19" height="19" fill="rgb(254,254,254)" /><rect x="251" y="35" width="19" height="19" fill="rgb(254,254,254)" /><rect x="269" y="35" width="19" height="19" fill="rgb(254,254,254)" /><rect x="287" y="35" width="33" height="19" fill="rgb(254,254,254)" /><rect x="0" y="53" width="19" height="19" fill="rgb(254,254,254)" /><rect x="17" y="53" width="19" height="19" fill="rgb(254,254,254)" /><rect x="35" y="53" width="19" height="19" fill="rgb(254,254,254)" /><rect x="53" y="53" width="19" height="19" fill="rgb(254,254,254)" /><rect x="71" y="53" width="19" height="19" fill="rgb(254,254,254)" /><rect x="89" y="53" width="19" height="19" fill="rgb(254,254,254)" /><rect x="107" y="53" width="19" height="19" fill="rgb(254,254,254)" /><rect x="125" y="53" width="19" height="19" fill="rgb(254,254,254)" /><rect x="143" y="53" width="19" height="19" fill="rgb(254,254,254)" /><rect x="161" y="53" width="19" height="19" fill="rgb(254,254,254)" /><rect x="179" y="53" width="19" height="19" fill="rgb(254,254,254)" /><rect x="197" y="53" width="19" height="19" fill="rgb(254,254,254)" /><rect x="215" y="53" width="19" height="19" fill="rgb(254,254,254)" /><rect x="233" y="53" width="19" height="19" fill="rgb(254,254,254)" /><rect x="251" y="53" width="19" height="19" fill="rgb(254,254,254)" /><rect x="269" y="53" width="19" height="19" fill="rgb(254,254,254)" /><rect x="287" y="53" width="33" height="19" fill="rgb(254,254,254)" /><rect x="0" y="71" width="19" height="19" fill="rgb(254,254,254)" /><rect x="17" y="71" width="19" height="19" fill="rgb(254,254,254)" /><rect x="35" y="71" width="19" height="19" fill="rgb(254,254,254)" /><rect x="53" y="71" width="19" height="19" fill="rgb(254,254,254)" /><rect x="71" y="71" width="19" height="19" fill="rgb(254,254,254)" /><rect x="89" y="71" width="19" height="19" fill="rgb(254,254,254)" /><rect x="107" y="71" width="19" height="19" fill="rgb(253,254,254)" /><rect x="125" y="71" width="19" height="19" fill="rgb(224,238,248)" /><rect x="143" y="71" width="19" height="19" fill="rgb(217,234,247)" /><rect x="161" y="71" width="19" height="19" fill="rgb(254,254,254)" /><rect x="179" y="71" width="19" height="19" fill="rgb(254,254,254)" /><rect x="197" y="71" width="19" height="19" fill="rgb(254,254,254)" /><rect x="215" y="71" width="19" height="19" fill="rgb(254,254,254)" /><rect x="233" y="71" width="19" height="19" fill="rgb(254,254,254)" /><rect x="251" y="71" width="19" height="19" fill="rgb(254,254,254)" /><rect x="269" y="71" width="19" height="19" fill="rgb(254,254,254)" /><rect x="287" y="71" width="33" height="19" fill="rgb(254,254,254)" /><rect x="0" y="89" width="19" height="19" fill="rgb(254,254,254)" /><rect x="17" y="89" width="19" height="19" fill="rgb(254,254,254)" /><rect x="35" y="89" width="19" height="19" fill="rgb(254,254,254)" /><rect x="53" y="89" width="19" height="19" fill="rgb(254,254,254)" /><rect x="71" y="89" width="19" height="19" fill="rgb(254,254,254)" /><rect x="89" y="89" width="19" height="19" fill="rgb(188,218,241)" /><rect x="107" y="89" width="19" height="19" fill="rgb(121,180,227)" /><rect x="125" y="89" width="19" height="19" fill="rgb(101,174,226)" /><rect x="143" y="89" width="19" height="19" fill="rgb(138,202,240)" /><rect x="161" y="89" width="19" height="19" fill="rgb(194,232,251)" /><rect x="179" y="89" width="19" height="19" fill="rgb(238,248,253)" /><rect x="197" y="89" width="19" height="19" fill="rgb(254,254,254)" /><rect x="215" y="89" width="19" height="19" fill="rgb(254,254,254)" /><rect x="233" y="89" width="19" height="19" fill="rgb(254,254,254)" /><rect x="251" y="89" width="19" height="19" fill="rgb(254,254,254)" /><rect x="269" y="89" width="19" height="19" fill="rgb(254,254,254)" /><rect x="287" y="89" width="33" height="19" fill="rgb(254,254,254)" /><rect x="0" y="107" width="19" height="19" fill="rgb(254,254,254)" /><rect x="17" y="107" width="19" height="19" fill="rgb(254,254,254)" /><rect x="35" y="107" width="19" height="19" fill="rgb(174,176,177)" /><rect x="53" y="107" width="19" height="19" fill="rgb(242,245,247)" /><rect x="71" y="107" width="19" height="19" fill="rgb(145,196,233)" /><rect x="89" y="107" width="19" height="19" fill="rgb(88,180,234)" /><rect x="107" y="107" width="19" height="19" fill="rgb(120,206,246)" /><rect x="125" y="107" width="19" height="19" fill="rgb(97,200,246)" /><rect x="143" y="107" width="19" height="19" fill="rgb(100,202,247)" /><rect x="161" y="107" width="19" height="19" fill="rgb(99,201,247)" /><rect x="179" y="107" width="19" height="19" fill="rgb(174,225,249)" /><rect x="197" y="107" width="19" height="19" fill="rgb(254,254,254)" /><rect x="215" y="107" width="19" height="19" fill="rgb(254,254,254)" /><rect x="233" y="107" width="19" height="19" fill="rgb(254,254,254)" /><rect x="251" y="107" width="19" height="19" fill="rgb(254,254,254)" /><rect x="269" y="107" width="19" height="19" fill="rgb(254,254,254)" /><rect x="287" y="107" width="33" height="19" fill="rgb(254,254,254)" /><rect x="0" y="125" width="19" height="19" fill="rgb(254,254,254)" /><rect x="17" y="125" width="19" height="19" fill="rgb(253,254,254)" /><rect x="35" y="125" width="19" height="19" fill="rgb(64,65,66)" /><rect x="53" y="125" width="19" height="19" fill="rgb(94,152,190)" /><rect x="71" y="125" width="19" height="19" fill="rgb(105,199,243)" /><rect x="89" y="125" width="19" height="19" fill="rgb(154,222,248)" /><rect x="107" y="125" width="19" height="19" fill="rgb(178,232,251)" /><rect x="125" y="125" width="19" height="19" fill="rgb(197,237,252)" /><rect x="143" y="125" width="19" height="19" fill="rgb(197,236,251)" /><rect x="161" y="125" width="19" height="19" fill="rgb(177,231,251)" /><rect x="179" y="125" width="19" height="19" fill="rgb(134,220,251)" /><rect x="197" y="125" width="19" height="19" fill="rgb(169,225,246)" /><rect x="215" y="125" width="19" height="19" fill="rgb(246,246,247)" /><rect x="233" y="125" width="19" height="19" fill="rgb(254,254,254)" /><rect x="251" y="125" width="19" height="19" fill="rgb(251,252,253)" /><rect x="269" y="125" width="19" height="19" fill="rgb(250,252,253)" /><rect x="287" y="125" width="33" height="19" fill="rgb(253,254,254)" /><rect x="0" y="143" width="19" height="19" fill="rgb(254,254,254)" /><rect x="17" y="143" width="19" height="19" fill="rgb(206,207,208)" /><rect x="35" y="143" width="19" height="19" fill="rgb(95,133,156)" /><rect x="53" y="143" width="19" height="19" fill="rgb(115,187,220)" /><rect x="71" y="143" width="19" height="19" fill="rgb(224,245,252)" /><rect x="89" y="143" width="19" height="19" fill="rgb(104,107,110)" /><rect x="107" y="143" width="19" height="19" fill="rgb(250,251,252)" /><rect x="125" y="143" width="19" height="19" fill="rgb(189,190,191)" /><rect x="143" y="143" width="19" height="19" fill="rgb(108,109,111)" /><rect x="161" y="143" width="19" height="19" fill="rgb(184,187,189)" /><rect x="179" y="143" width="19" height="19" fill="rgb(159,160,161)" /><rect x="197" y="143" width="19" height="19" fill="rgb(153,155,156)" /><rect x="215" y="143" width="19" height="19" fill="rgb(157,158,160)" /><rect x="233" y="143" width="19" height="19" fill="rgb(146,147,148)" /><rect x="251" y="143" width="19" height="19" fill="rgb(114,116,118)" /><rect x="269" y="143" width="19" height="19" fill="rgb(144,145,147)" /><rect x="287" y="143" width="33" height="19" fill="rgb(179,179,180)" /><rect x="0" y="161" width="19" height="19" fill="rgb(254,254,254)" /><rect x="17" y="161" width="19" height="19" fill="rgb(137,143,147)" /><rect x="35" y="161" width="19" height="19" fill="rgb(170,220,240)" /><rect x="53" y="161" width="19" height="19" fill="rgb(65,68,70)" /><rect x="71" y="161" width="19" height="19" fill="rgb(250,251,251)" /><rect x="89" y="161" width="19" height="19" fill="rgb(109,112,115)" /><rect x="107" y="161" width="19" height="19" fill="rgb(254,254,254)" /><rect x="125" y="161" width="19" height="19" fill="rgb(191,191,192)" /><rect x="143" y="161" width="19" height="19" fill="rgb(101,101,102)" /><rect x="161" y="161" width="19" height="19" fill="rgb(207,208,210)" /><rect x="179" y="161" width="19" height="19" fill="rgb(113,113,114)" /><rect x="197" y="161" width="19" height="19" fill="rgb(254,254,254)" /><rect x="215" y="161" width="19" height="19" fill="rgb(254,254,254)" /><rect x="233" y="161" width="19" height="19" fill="rgb(132,132,133)" /><rect x="251" y="161" width="19" height="19" fill="rgb(77,80,81)" /><rect x="269" y="161" width="19" height="19" fill="rgb(164,165,167)" /><rect x="287" y="161" width="33" height="19" fill="rgb(196,196,198)" /><rect x="0" y="179" width="19" height="19" fill="rgb(238,238,239)" /><rect x="17" y="179" width="19" height="19" fill="rgb(133,143,148)" /><rect x="35" y="179" width="19" height="19" fill="rgb(252,253,254)" /><rect x="53" y="179" width="19" height="19" fill="rgb(105,105,106)" /><rect x="71" y="179" width="19" height="19" fill="rgb(198,198,200)" /><rect x="89" y="179" width="19" height="19" fill="rgb(109,112,115)" /><rect x="107" y="179" width="19" height="19" fill="rgb(254,254,254)" /><rect x="125" y="179" width="19" height="19" fill="rgb(186,186,187)" /><rect x="143" y="179" width="19" height="19" fill="rgb(164,166,167)" /><rect x="161" y="179" width="19" height="19" fill="rgb(243,244,245)" /><rect x="179" y="179" width="19" height="19" fill="rgb(100,101,103)" /><rect x="197" y="179" width="19" height="19" fill="rgb(247,248,248)" /><rect x="215" y="179" width="19" height="19" fill="rgb(251,251,252)" /><rect x="233" y="179" width="19" height="19" fill="rgb(110,111,112)" /><rect x="251" y="179" width="19" height="19" fill="rgb(98,100,102)" /><rect x="269" y="179" width="19" height="19" fill="rgb(152,153,154)" /><rect x="287" y="179" width="33" height="19" fill="rgb(205,205,206)" /><rect x="0" y="197" width="19" height="19" fill="rgb(207,208,210)" /><rect x="17" y="197" width="19" height="19" fill="rgb(211,212,214)" /><rect x="35" y="197" width="19" height="19" fill="rgb(254,254,254)" /><rect x="53" y="197" width="19" height="19" fill="rgb(197,197,198)" /><rect x="71" y="197" width="19" height="19" fill="rgb(181,182,184)" /><rect x="89" y="197" width="19" height="19" fill="rgb(153,155,157)" /><rect x="107" y="197" width="19" height="19" fill="rgb(170,172,174)" /><rect x="125" y="197" width="19" height="19" fill="rgb(166,167,169)" /><rect x="143" y="197" width="19" height="19" fill="rgb(147,149,150)" /><rect x="161" y="197" width="19" height="19" fill="rgb(163,165,166)" /><rect x="179" y="197" width="19" height="19" fill="rgb(217,218,219)" /><rect x="197" y="197" width="19" height="19" fill="rgb(155,156,157)" /><rect x="215" y="197" width="19" height="19" fill="rgb(155,157,158)" /><rect x="233" y="197" width="19" height="19" fill="rgb(210,211,212)" /><rect x="251" y="197" width="19" height="19" fill="rgb(175,177,179)" /><rect x="269" y="197" width="19" height="19" fill="rgb(237,238,239)" /><rect x="287" y="197" width="33" height="19" fill="rgb(199,201,202)" /><rect x="0" y="215" width="19" height="19" fill="rgb(204,206,208)" /><rect x="17" y="215" width="19" height="19" fill="rgb(186,188,190)" /><rect x="35" y="215" width="19" height="19" fill="rgb(182,184,187)" /><rect x="53" y="215" width="19" height="19" fill="rgb(175,179,181)" /><rect x="71" y="215" width="19" height="19" fill="rgb(183,185,187)" /><rect x="89" y="215" width="19" height="19" fill="rgb(177,179,182)" /><rect x="107" y="215" width="19" height="19" fill="rgb(200,202,204)" /><rect x="125" y="215" width="19" height="19" fill="rgb(187,189,191)" /><rect x="143" y="215" width="19" height="19" fill="rgb(184,186,188)" /><rect x="161" y="215" width="19" height="19" fill="rgb(184,187,189)" /><rect x="179" y="215" width="19" height="19" fill="rgb(191,194,196)" /><rect x="197" y="215" width="19" height="19" fill="rgb(202,203,205)" /><rect x="215" y="215" width="19" height="19" fill="rgb(167,170,172)" /><rect x="233" y="215" width="19" height="19" fill="rgb(173,176,178)" /><rect x="251" y="215" width="19" height="19" fill="rgb(196,200,203)" /><rect x="269" y="215" width="19" height="19" fill="rgb(187,190,192)" /><rect x="287" y="215" width="33" height="19" fill="rgb(180,184,187)" /><rect x="0" y="233" width="19" height="19" fill="rgb(254,254,254)" /><rect x="17" y="233" width="19" height="19" fill="rgb(254,254,254)" /><rect x="35" y="233" width="19" height="19" fill="rgb(254,254,254)" /><rect x="53" y="233" width="19" height="19" fill="rgb(254,254,254)" /><rect x="71" y="233" width="19" height="19" fill="rgb(254,254,254)" /><rect x="89" y="233" width="19" height="19" fill="rgb(241,242,243)" /><rect x="107" y="233" width="19" height="19" fill="rgb(254,254,254)" /><rect x="125" y="233" width="19" height="19" fill="rgb(254,254,254)" /><rect x="143" y="233" width="19" height="19" fill="rgb(254,254,254)" /><rect x="161" y="233" width="19" height="19" fill="rgb(254,254,254)" /><rect x="179" y="233" width="19" height="19" fill="rgb(254,254,254)" /><rect x="197" y="233" width="19" height="19" fill="rgb(254,254,254)" /><rect x="215" y="233" width="19" height="19" fill="rgb(254,254,254)" /><rect x="233" y="233" width="19" height="19" fill="rgb(254,254,254)" /><rect x="251" y="233" width="19" height="19" fill="rgb(254,254,254)" /><rect x="269" y="233" width="19" height="19" fill="rgb(254,254,254)" /><rect x="287" y="233" width="33" height="19" fill="rgb(254,254,254)" /><rect x="0" y="251" width="19" height="19" fill="rgb(254,254,254)" /><rect x="17" y="251" width="19" height="19" fill="rgb(254,254,254)" /><rect x="35" y="251" width="19" height="19" fill="rgb(254,254,254)" /><rect x="53" y="251" width="19" height="19" fill="rgb(254,254,254)" /><rect x="71" y="251" width="19" height="19" fill="rgb(254,254,254)" /><rect x="89" y="251" width="19" height="19" fill="rgb(254,254,254)" /><rect x="107" y="251" width="19" height="19" fill="rgb(254,254,254)" /><rect x="125" y="251" width="19" height="19" fill="rgb(254,254,254)" /><rect x="143" y="251" width="19" height="19" fill="rgb(254,254,254)" /><rect x="161" y="251" width="19" height="19" fill="rgb(254,254,254)" /><rect x="179" y="251" width="19" height="19" fill="rgb(254,254,254)" /><rect x="197" y="251" width="19" height="19" fill="rgb(254,254,254)" /><rect x="215" y="251" width="19" height="19" fill="rgb(254,254,254)" /><rect x="233" y="251" width="19" height="19" fill="rgb(254,254,254)" /><rect x="251" y="251" width="19" height="19" fill="rgb(254,254,254)" /><rect x="269" y="251" width="19" height="19" fill="rgb(254,254,254)" /><rect x="287" y="251" width="33" height="19" fill="rgb(254,254,254)" /><rect x="0" y="269" width="19" height="19" fill="rgb(254,254,254)" /><rect x="17" y="269" width="19" height="19" fill="rgb(254,254,254)" /><rect x="35" y="269" width="19" height="19" fill="rgb(254,254,254)" /><rect x="53" y="269" width="19" height="19" fill="rgb(254,254,254)" /><rect x="71" y="269" width="19" height="19" fill="rgb(254,254,254)" /><rect x="89" y="269" width="19" height="19" fill="rgb(254,254,254)" /><rect x="107" y="269" width="19" height="19" fill="rgb(254,254,254)" /><rect x="125" y="269" width="19" height="19" fill="rgb(254,254,254)" /><rect x="143" y="269" width="19" height="19" fill="rgb(254,254,254)" /><rect x="161" y="269" width="19" height="19" fill="rgb(254,254,254)" /><rect x="179" y="269" width="19" height="19" fill="rgb(254,254,254)" /><rect x="197" y="269" width="19" height="19" fill="rgb(254,254,254)" /><rect x="215" y="269" width="19" height="19" fill="rgb(254,254,254)" /><rect x="233" y="269" width="19" height="19" fill="rgb(254,254,254)" /><rect x="251" y="269" width="19" height="19" fill="rgb(254,254,254)" /><rect x="269" y="269" width="19" height="19" fill="rgb(254,254,254)" /><rect x="287" y="269" width="33" height="19" fill="rgb(254,254,254)" /><rect x="0" y="287" width="19" height="33" fill="rgb(254,254,254)" /><rect x="17" y="287" width="19" height="33" fill="rgb(254,254,254)" /><rect x="35" y="287" width="19" height="33" fill="rgb(254,254,254)" /><rect x="53" y="287" width="19" height="33" fill="rgb(254,254,254)" /><rect x="71" y="287" width="19" height="33" fill="rgb(254,254,254)" /><rect x="89" y="287" width="19" height="33" fill="rgb(254,254,254)" /><rect x="107" y="287" width="19" height="33" fill="rgb(254,254,254)" /><rect x="125" y="287" width="19" height="33" fill="rgb(254,254,254)" /><rect x="143" y="287" width="19" height="33" fill="rgb(254,254,254)" /><rect x="161" y="287" width="19" height="33" fill="rgb(254,254,254)" /><rect x="179" y="287" width="19" height="33" fill="rgb(254,254,254)" /><rect x="197" y="287" width="19" height="33" fill="rgb(254,254,254)" /><rect x="215" y="287" width="19" height="33" fill="rgb(254,254,254)" /><rect x="233" y="287" width="19" height="33" fill="rgb(254,254,254)" /><rect x="251" y="287" width="19" height="33" fill="rgb(254,254,254)" /><rect x="269" y="287" width="19" height="33" fill="rgb(254,254,254)" /><rect x="287" y="287" width="33" height="33" fill="rgb(254,254,254)" /><g transform="translate(0.000000,320.000000) scale(0.100000,-0.100000)" fill="#060606" stroke="none"><path d="M471 2024 c-13 -32 -30 -73 -37 -91 -8 -17 -14 -37 -14 -45 0 -8 -4 -18 -8 -23 -5 -6 -23 -50 -41 -100 -18 -49 -41 -108 -51 -130 -9 -22 -30 -74 -45 -115 -15 -41 -35 -93 -45 -115 -9 -22 -29 -75 -45 -118 -15 -42 -37 -92 -49 -110 l-22 -32 53 0 c47 0 52 2 47 20 -5 19 29 129 62 202 8 17 14 33 14 36 0 2 8 22 17 43 10 22 18 44 19 49 0 6 6 21 11 35 6 14 28 70 49 125 21 55 42 102 46 103 4 2 8 12 8 23 0 34 29 21 36 -16 8 -43 19 -44 39 -5 8 16 23 33 32 39 14 7 18 22 17 60 0 27 -5 56 -10 63 -6 7 -16 33 -23 58 -7 25 -18 58 -25 74 l-12 29 -23 -59z"/><path d="M2055 1746 c-39 -12 -87 -33 -134 -61 -26 -15 -101 -104 -101 -120 0 -5 -7 -23 -15 -39 -29 -55 -9 -186 35 -239 72 -86 113 -117 187 -140 76 -25 213 -23 283 4 149 56 241 187 225 318 -8 65 -20 93 -59 146 -53 69 -101 102 -190 129 -54 16 -180 17 -231 2z m190 -41 c48 -12 121 -64 153 -109 30 -42 52 -119 52 -182 0 -63 -71 -173 -121 -189 -11 -4 -17 -11 -14 -16 4 -5 -2 -9 -12 -9 -10 0 -27 -7 -37 -15 -28 -21 -139 -19 -200 2 -59 21 -139 91 -163 141 -13 27 -18 60 -17 119 0 71 4 87 27 121 48 73 88 104 176 138 36 13 98 13 156 -1z"/><path d="M946 1718 c11 -21 14 -82 14 -278 0 -137 -3 -250 -7 -250 -5 0 -13 -10 -18 -23 l-11 -22 191 2 190 1 19 32 c23 39 18 45 -25 23 -40 -21 -187 -24 -231 -5 l-28 12 0 249 c0 156 4 252 10 256 24 15 6 24 -54 27 l-64 3 14 -27z"/><path d="M1520 1743 l-125 -4 3 -289 c2 -194 -1 -290 -8 -290 -5 0 -10 -4 -10 -10 0 -6 69 -10 188 -10 l188 0 22 46 c13 25 19 44 15 42 -93 -47 -155 -57 -243 -38 -71 15 -73 21 -68 166 l3 97 82 -6 83 -5 0 29 0 29 -80 0 -81 0 3 98 3 97 72 3 c48 2 84 -2 109 -13 20 -8 37 -15 38 -15 1 0 0 16 -2 35 -2 19 -9 35 -16 35 -6 0 -20 2 -31 3 -11 2 -76 2 -145 0z"/><path d="M2580 1740 c1 -3 7 -16 15 -30 11 -20 14 -78 15 -282 0 -166 -4 -258 -10 -258 -5 0 -10 -4 -10 -10 0 -6 27 -10 60 -10 57 0 60 1 50 20 -7 12 -9 109 -8 272 l3 253 68 3 c68 3 69 2 103 -33 28 -30 34 -44 34 -81 0 -24 -5 -44 -11 -44 -5 0 -8 -4 -5 -9 10 -16 -62 -70 -104 -77 -22 -4 -40 -9 -40 -11 0 -10 115 -169 159 -220 25 -29 50 -53 57 -53 7 0 14 -4 16 -9 2 -5 31 -10 65 -13 l61 -4 -44 31 c-48 34 -81 71 -162 180 -68 91 -68 91 8 109 14 3 40 20 59 37 28 26 34 39 38 87 5 64 -7 94 -50 126 -25 19 -46 22 -198 26 -93 3 -169 3 -169 0z"/><path d="M592 1592 c-23 -21 -42 -45 -42 -54 0 -9 11 -47 24 -85 12 -37 31 -95 41 -128 10 -33 25 -79 33 -102 7 -22 11 -49 8 -60 -5 -17 1 -18 82 -18 84 0 86 1 69 18 -21 21 -57 101 -57 127 0 10 -7 31 -15 46 -8 16 -15 41 -15 56 0 15 -4 29 -9 32 -5 3 -17 36 -26 73 -10 38 -22 72 -27 78 -4 5 -8 17 -8 26 0 31 -14 28 -58 -9z"/><path d="M120 986 c0 -2 7 -7 16 -10 8 -3 12 -2 9 4 -6 10 -25 14 -25 6z"/><path d="M1170 943 c0 -25 3 -44 6 -40 3 3 6 21 6 41 0 28 4 36 22 39 17 3 16 5 -6 6 -27 1 -28 -1 -28 -46z"/><path d="M1737 977 c-2 -7 -1 -30 3 -52 l8 -40 1 53 c1 52 -2 64 -12 39z"/><path d="M1897 970 c-3 -11 -2 -22 3 -25 4 -3 10 6 12 20 6 30 -7 34 -15 5z"/><path d="M2160 983 c0 -5 11 -8 24 -8 13 0 22 3 19 8 -2 4 -13 7 -24 7 -10 0 -19 -3 -19 -7z"/><path d="M2356 973 c-4 -9 -2 -21 4 -27 7 -7 10 -2 10 17 0 31 -5 34 -14 10z"/><path d="M2407 971 c-3 -11 -1 -23 3 -26 14 -8 22 13 12 31 -8 14 -10 14 -15 -5z"/><path d="M2660 962 c0 -18 5 -32 10 -32 6 0 8 11 4 28 -10 39 -14 40 -14 4z"/><path d="M2983 940 c0 -30 2 -43 4 -27 2 15 2 39 0 55 -2 15 -4 2 -4 -28z"/><path d="M3020 970 c-7 -12 -7 -20 -1 -20 5 0 12 -15 14 -32 3 -23 4 -16 5 20 2 56 -1 63 -18 32z"/><path d="M620 958 c0 -19 2 -20 10 -8 13 19 13 30 0 30 -5 0 -10 -10 -10 -22z"/><path d="M3080 962 c0 -15 4 -20 16 -15 9 3 12 9 7 12 -4 3 -11 10 -15 15 -5 5 -8 0 -8 -12z"/><path d="M375 960 c-16 -6 -14 -8 13 -12 18 -2 35 -1 37 3 7 10 -28 17 -50 9z"/><path d="M835 960 c-3 -5 1 -10 10 -10 9 0 13 5 10 10 -3 6 -8 10 -10 10 -2 0 -7 -4 -10 -10z"/><path d="M1661 960 c-9 -5 -4 -7 13 -7 29 0 32 2 13 10 -8 3 -20 2 -26 -3z"/><path d="M2899 959 c-10 -6 -7 -9 14 -9 29 0 35 5 14 13 -8 3 -20 1 -28 -4z"/><path d="M448 953 c7 -3 16 -2 19 1 4 3 -2 6 -13 5 -11 0 -14 -3 -6 -6z"/><path d="M558 953 c7 -3 16 -2 19 1 4 3 -2 6 -13 5 -11 0 -14 -3 -6 -6z"/><path d="M688 953 c6 -2 18 -2 25 0 6 3 1 5 -13 5 -14 0 -19 -2 -12 -5z"/><path d="M943 953 c9 -2 25 -2 35 0 9 3 1 5 -18 5 -19 0 -27 -2 -17 -5z"/><path d="M1251 938 c1 -16 3 -18 6 -6 2 9 12 19 21 21 12 3 10 5 -5 6 -18 1 -23 -4 -22 -21z"/><path d="M1333 953 c9 -2 23 -2 30 0 6 3 -1 5 -18 5 -16 0 -22 -2 -12 -5z"/><path d="M1443 953 c9 -2 25 -2 35 0 9 3 1 5 -18 5 -19 0 -27 -2 -17 -5z"/><path d="M1973 953 c9 -2 23 -2 30 0 6 3 -1 5 -18 5 -16 0 -22 -2 -12 -5z"/><path d="M2050 925 c0 -19 2 -35 4 -35 2 0 6 16 8 35 2 19 0 35 -4 35 -4 0 -8 -16 -8 -35z"/><path d="M2461 944 c0 -11 3 -14 6 -6 3 7 2 16 -1 19 -3 4 -6 -2 -5 -13z"/><path d="M2774 945 c-3 -8 -4 -20 -2 -27 3 -7 7 -1 10 15 6 29 1 36 -8 12z"/><path d="M3129 928 c4 -28 6 -29 9 -9 2 13 0 27 -5 32 -6 6 -7 -3 -4 -23z"/><path d="M193 935 c-3 -9 -3 -18 -1 -21 3 -3 8 4 11 16 6 23 -1 27 -10 5z"/><path d="M2160 920 c0 -39 15 -39 16 0 1 17 -3 30 -7 30 -5 0 -9 -13 -9 -30z"/><path d="M2715 940 c3 -5 8 -10 11 -10 2 0 4 5 4 10 0 6 -5 10 -11 10 -5 0 -7 -4 -4 -10z"/><path d="M810 926 c0 -8 4 -17 9 -20 5 -4 7 3 4 14 -6 23 -13 26 -13 6z"/><path d="M2362 910 c0 -14 2 -19 5 -12 2 6 2 18 0 25 -3 6 -5 1 -5 -13z"/><path d="M1055 899 c-4 -6 -5 -12 -2 -15 2 -3 7 2 10 11 7 17 1 20 -8 4z"/><path d="M1475 900 c-3 -5 -1 -10 4 -10 6 0 11 5 11 10 0 6 -2 10 -4 10 -3 0 -8 -4 -11 -10z"/></g><g transform="translate(0.000000,320.000000) scale(0.100000,-0.100000)" fill="#262626" stroke="none"><path d="M485 2079 c-4 -5 -4 -13 -1 -16 3 -4 6 0 6 8 0 11 2 11 10 -1 6 -9 10 -10 10 -3 0 17 -17 25 -25 12z"/><path d="M436 1953 c-6 -14 -5 -15 5 -6 7 7 10 15 7 18 -3 3 -9 -2 -12 -12z"/><path d="M406 1873 c-6 -14 -5 -15 5 -6 7 7 10 15 7 18 -3 3 -9 -2 -12 -12z"/><path d="M565 1829 c-4 -6 -5 -12 -2 -15 2 -3 7 2 10 11 7 17 1 20 -8 4z"/><path d="M523 1773 c-9 -16 -23 -34 -32 -40 -8 -7 -10 -13 -4 -13 10 0 35 29 57 68 15 25 -4 11 -21 -15z"/><path d="M1069 1756 c-2 -3 -37 -6 -77 -7 -91 -3 -86 -10 7 -12 49 -2 72 2 76 11 4 12 2 16 -6 8z"/><path d="M1380 1741 c0 -6 5 -13 12 -17 7 -4 8 -3 4 4 -5 8 30 12 121 15 l128 3 -132 2 c-78 1 -133 -2 -133 -7z"/><path d="M1687 1743 c16 -3 23 -13 26 -36 4 -31 4 -31 5 6 2 34 0 37 -25 36 -23 -1 -24 -2 -6 -6z"/><path d="M2658 1743 c39 -2 105 -2 145 0 39 1 7 3 -73 3 -80 0 -112 -2 -72 -3z"/><path d="M1990 1730 c-9 -6 -10 -10 -3 -10 6 0 15 5 18 10 8 12 4 12 -15 0z"/><path d="M2143 1713 c15 -2 37 -2 50 0 12 2 0 4 -28 4 -27 0 -38 -2 -22 -4z"/><path d="M2950 1716 c0 -2 8 -10 18 -17 15 -13 16 -12 3 4 -13 16 -21 21 -21 13z"/><path d="M1044 1460 c0 -140 2 -198 3 -127 2 70 2 184 0 255 -1 70 -3 12 -3 -128z"/><path d="M1929 1693 c-13 -16 -12 -17 4 -4 9 7 17 15 17 17 0 8 -8 3 -21 -13z"/><path d="M396 1685 c-9 -26 -7 -32 5 -12 6 10 9 21 6 23 -2 3 -7 -2 -11 -11z"/><path d="M954 1445 c0 -143 2 -200 3 -127 2 73 2 190 0 260 -1 70 -3 10 -3 -133z"/><path d="M1496 1691 c-4 -5 3 -7 14 -4 23 6 26 13 6 13 -8 0 -17 -4 -20 -9z"/><path d="M2695 1687 c-3 -7 -4 -125 -2 -262 l2 -250 3 257 c1 194 5 258 15 261 9 4 9 6 -1 6 -7 1 -15 -5 -17 -12z"/><path d="M2798 1693 c6 -2 18 -2 25 0 6 3 1 5 -13 5 -14 0 -19 -2 -12 -5z"/><path d="M327 1671 c-4 -17 -3 -21 5 -13 5 5 8 16 6 23 -3 8 -7 3 -11 -10z"/><path d="M2604 1430 c0 -146 2 -205 3 -132 2 72 2 192 0 265 -1 72 -3 13 -3 -133z"/><path d="M1990 1660 c-9 -6 -10 -10 -3 -10 6 0 15 5 18 10 8 12 4 12 -15 0z"/><path d="M1859 1633 c-13 -16 -12 -17 4 -4 9 7 17 15 17 17 0 8 -8 3 -21 -13z"/><path d="M2350 1646 c0 -2 8 -10 18 -17 15 -13 16 -12 3 4 -13 16 -21 21 -21 13z"/><path d="M2450 1646 c0 -2 8 -10 18 -17 15 -13 16 -12 3 4 -13 16 -21 21 -21 13z"/><path d="M604 1608 l-19 -23 23 19 c12 11 22 21 22 23 0 8 -8 2 -26 -19z"/><path d="M3002 1605 c0 -16 2 -22 5 -12 2 9 2 23 0 30 -3 6 -5 -1 -5 -18z"/><path d="M650 1591 c0 -6 4 -13 10 -16 6 -3 7 1 4 9 -7 18 -14 21 -14 7z"/><path d="M555 1570 c-10 -11 -16 -22 -14 -24 2 -2 12 7 22 20 22 29 17 32 -8 4z"/><path d="M346 1555 c-9 -26 -7 -32 5 -12 6 10 9 21 6 23 -2 3 -7 -2 -11 -11z"/><path d="M2416 1557 c3 -10 9 -15 12 -12 3 3 0 11 -7 18 -10 9 -11 8 -5 -6z"/><path d="M2885 1550 c-3 -5 -1 -10 4 -10 6 0 11 5 11 10 0 6 -2 10 -4 10 -3 0 -8 -4 -11 -10z"/><path d="M1891 1524 c0 -11 3 -14 6 -6 3 7 2 16 -1 19 -3 4 -6 -2 -5 -13z"/><path d="M2949 1493 l-24 -28 28 24 c15 14 27 26 27 28 0 8 -8 1 -31 -24z"/><path d="M2849 1493 c-13 -16 -12 -17 4 -4 9 7 17 15 17 17 0 8 -8 3 -21 -13z"/><path d="M255 1489 c-4 -6 -5 -12 -2 -15 2 -3 7 2 10 11 7 17 1 20 -8 4z"/><path d="M2850 1450 c-11 -8 -7 -9 15 -4 37 8 45 14 19 14 -10 0 -26 -5 -34 -10z"/><path d="M2730 1436 c0 -2 8 -10 18 -17 15 -13 16 -12 3 4 -13 16 -21 21 -21 13z"/><path d="M226 1413 c-6 -14 -5 -15 5 -6 7 7 10 15 7 18 -3 3 -9 -2 -12 -12z"/><path d="M580 1415 c0 -5 5 -17 10 -25 5 -8 10 -10 10 -5 0 6 -5 17 -10 25 -5 8 -10 11 -10 5z"/><path d="M2439 1395 c-4 -16 -9 -39 -13 -50 -4 -11 0 -7 9 8 9 16 15 38 13 50 -3 18 -5 17 -9 -8z"/><path d="M1484 1320 c0 -52 1 -74 3 -47 2 26 2 68 0 95 -2 26 -3 4 -3 -48z"/><path d="M1890 1361 c0 -11 4 -22 9 -25 4 -3 6 6 3 19 -5 30 -12 33 -12 6z"/><path d="M2780 1366 c0 -2 8 -10 18 -17 15 -13 16 -12 3 4 -13 16 -21 21 -21 13z"/><path d="M265 1349 c-4 -6 -5 -12 -2 -15 2 -3 7 2 10 11 7 17 1 20 -8 4z"/><path d="M2516 1345 c-9 -26 -7 -32 5 -12 6 10 9 21 6 23 -2 3 -7 -2 -11 -11z"/><path d="M1910 1306 c0 -2 8 -10 18 -17 15 -13 16 -12 3 4 -13 16 -21 21 -21 13z"/><path d="M176 1285 c-9 -26 -7 -32 5 -12 6 10 9 21 6 23 -2 3 -7 -2 -11 -11z"/><path d="M2389 1283 c-13 -16 -12 -17 4 -4 9 7 17 15 17 17 0 8 -8 3 -21 -13z"/><path d="M2940 1286 c0 -2 8 -10 18 -17 15 -13 16 -12 3 4 -13 16 -21 21 -21 13z"/><path d="M1870 1242 c0 -12 19 -26 26 -19 2 2 -2 10 -11 17 -9 8 -15 8 -15 2z"/><path d="M1970 1246 c0 -2 8 -10 18 -17 15 -13 16 -12 3 4 -13 16 -21 21 -21 13z"/><path d="M2880 1236 c0 -2 8 -10 18 -17 15 -13 16 -12 3 4 -13 16 -21 21 -21 13z"/><path d="M2990 1226 c0 -2 8 -10 18 -17 15 -13 16 -12 3 4 -13 16 -21 21 -21 13z"/><path d="M2235 1185 c-33 -11 -35 -14 -14 -14 14 -1 34 6 45 14 22 17 21 17 -31 0z"/><path d="M1148 1183 c17 -2 47 -2 65 0 17 2 3 4 -33 4 -36 0 -50 -2 -32 -4z"/><path d="M1598 1183 c17 -2 47 -2 65 0 17 2 3 4 -33 4 -36 0 -50 -2 -32 -4z"/><path d="M2108 1173 c6 -2 18 -2 25 0 6 3 1 5 -13 5 -14 0 -19 -2 -12 -5z"/><path d="M216 1157 c3 -10 9 -15 12 -12 3 3 0 11 -7 18 -10 9 -11 8 -5 -6z"/><path d="M645 1159 c-4 -6 -5 -12 -2 -15 2 -3 7 2 10 11 7 17 1 20 -8 4z"/><path d="M804 1161 c4 -6 -17 -11 -61 -14 -62 -3 -61 -4 15 -3 45 0 82 1 82 3 0 1 -10 7 -21 14 -14 7 -19 7 -15 0z"/><path d="M925 1160 c-10 -16 17 -21 101 -17 l79 3 -88 2 c-56 1 -86 6 -82 12 3 6 4 10 1 10 -3 0 -8 -5 -11 -10z"/><path d="M2705 1161 c6 -10 -8 -12 -59 -9 -36 1 -66 0 -66 -4 0 -5 32 -8 70 -8 65 0 86 9 58 26 -7 5 -8 3 -3 -5z"/><path d="M119 1147 c5 -5 26 -7 47 -5 l39 3 -47 5 c-26 3 -43 1 -39 -3z"/><path d="M1153 1143 c26 -2 68 -2 95 0 26 2 4 3 -48 3 -52 0 -74 -1 -47 -3z"/><path d="M3003 1143 c15 -2 39 -2 55 0 15 2 2 4 -28 4 -30 0 -43 -2 -27 -4z"/><path d="M2133 1123 c20 -2 54 -2 75 0 20 2 3 4 -38 4 -41 0 -58 -2 -37 -4z"/><path d="M613 975 c-3 -9 -3 -19 1 -22 3 -4 6 1 6 10 0 8 6 18 13 20 9 4 9 6 -1 6 -7 1 -15 -6 -19 -14z"/><path d="M773 940 c0 -30 2 -43 4 -27 2 15 2 39 0 55 -2 15 -4 2 -4 -28z"/><path d="M1485 980 c-3 -5 -1 -10 4 -10 6 0 11 5 11 10 0 6 -2 10 -4 10 -3 0 -8 -4 -11 -10z"/><path d="M2652 970 c0 -14 2 -19 5 -12 2 6 2 18 0 25 -3 6 -5 1 -5 -13z"/><path d="M1201 953 c-13 -13 -20 -23 -14 -23 11 0 49 38 42 43 -2 2 -15 -7 -28 -20z"/><path d="M1911 964 c0 -11 3 -14 6 -6 3 7 2 16 -1 19 -3 4 -6 -2 -5 -13z"/><path d="M2151 949 c1 -19 3 -26 6 -16 5 20 19 22 26 5 4 -9 6 -8 6 2 1 13 2 13 11 0 8 -12 10 -10 10 10 0 18 -3 21 -12 12 -9 -9 -16 -8 -30 5 -17 15 -18 14 -17 -18z"/><path d="M2388 973 c-10 -2 -18 -8 -18 -13 0 -12 33 -5 38 8 2 7 2 11 0 11 -1 -1 -11 -3 -20 -6z"/><path d="M148 938 c4 -28 6 -30 12 -13 8 21 3 45 -9 45 -4 0 -5 -15 -3 -32z"/><path d="M205 957 c-12 -9 -14 -16 -7 -21 6 -3 15 2 21 11 9 17 11 17 26 -2 10 -13 14 -15 13 -5 -3 15 -17 30 -29 30 -3 0 -13 -6 -24 -13z"/><path d="M310 959 c0 -5 5 -7 10 -4 6 3 10 8 10 11 0 2 -4 4 -10 4 -5 0 -10 -5 -10 -11z"/><path d="M430 955 c-7 -8 -15 -13 -19 -10 -4 2 -5 -10 -2 -28 5 -32 6 -32 9 -5 2 15 13 35 25 43 12 8 16 15 10 15 -6 0 -16 -7 -23 -15z"/><path d="M535 960 c4 -6 11 -8 16 -5 14 9 11 15 -7 15 -8 0 -12 -5 -9 -10z"/><path d="M708 960 c25 -10 30 -47 8 -56 -8 -3 -25 0 -38 6 l-23 12 22 -21 c26 -25 30 -25 49 -7 27 28 10 77 -25 75 -10 0 -7 -4 7 -9z"/><path d="M1643 958 c-19 -25 -24 -38 -15 -38 5 0 12 10 15 21 4 15 11 20 22 15 9 -3 13 -2 10 4 -8 14 -21 13 -32 -2z"/><path d="M1785 960 c-3 -5 1 -10 9 -10 9 0 16 5 16 10 0 6 -4 10 -9 10 -6 0 -13 -4 -16 -10z"/><path d="M1978 963 c7 -3 16 -2 19 1 4 3 -2 6 -13 5 -11 0 -14 -3 -6 -6z"/><path d="M2261 961 c-8 -5 -9 -11 -3 -15 6 -3 13 -2 16 3 3 5 16 7 29 4 18 -4 19 -3 7 6 -18 13 -31 13 -49 2z"/><path d="M2477 963 c-4 -3 -7 -11 -7 -17 0 -6 5 -4 10 4 8 13 11 12 25 -5 10 -13 14 -15 13 -5 -5 24 -28 37 -41 23z"/><path d="M2556 963 c-3 -3 -5 -22 -5 -42 1 -28 3 -30 6 -11 3 14 9 30 14 37 11 12 -3 27 -15 16z"/><path d="M2790 959 c0 -5 -4 -7 -10 -4 -6 4 -7 -1 -3 -11 6 -15 7 -15 18 -1 11 15 13 15 29 -1 17 -16 18 -16 7 6 -12 22 -41 31 -41 11z"/><path d="M3112 961 c2 -7 7 -12 11 -12 12 1 9 15 -3 20 -7 2 -11 -2 -8 -8z"/><path d="M350 936 c0 -31 6 -34 13 -6 3 11 1 23 -4 26 -5 3 -9 -6 -9 -20z"/><path d="M505 939 c-10 -29 24 -63 51 -52 10 4 20 14 22 21 2 10 -2 10 -17 0 -25 -15 -54 6 -46 33 4 11 4 19 1 19 -2 0 -8 -10 -11 -21z"/><path d="M626 944 c-9 -23 -7 -54 3 -54 5 0 9 16 8 35 -1 39 -2 42 -11 19z"/><path d="M815 950 c-3 -5 -1 -10 4 -10 6 0 11 5 11 10 0 6 -2 10 -4 10 -3 0 -8 -4 -11 -10z"/><path d="M1076 944 c-5 -14 -4 -15 9 -4 17 14 19 20 6 20 -5 0 -12 -7 -15 -16z"/><path d="M1531 934 c0 -18 6 -37 14 -44 13 -11 19 -9 35 10 11 13 19 32 19 44 -2 20 -2 20 -6 -1 -5 -27 -31 -49 -43 -37 -4 5 -10 20 -13 34 -4 22 -4 21 -6 -6z"/><path d="M1951 942 c-1 -30 16 -62 33 -62 7 0 21 9 31 20 22 24 13 26 -20 4 -23 -15 -24 -15 -30 13 -10 44 -13 50 -14 25z"/><path d="M2676 946 c3 -9 13 -15 22 -14 9 2 19 -7 23 -22 6 -23 7 -23 8 -3 1 12 -4 25 -10 29 -8 4 -7 9 2 15 10 6 10 9 2 9 -6 0 -15 -5 -18 -10 -5 -8 -11 -7 -21 1 -12 10 -13 9 -8 -5z"/><path d="M468 920 c2 -16 6 -30 8 -30 2 0 4 14 4 30 0 17 -4 30 -8 30 -5 0 -7 -13 -4 -30z"/><path d="M978 928 c0 -13 -1 -30 -2 -38 -1 -8 -9 -16 -20 -18 -10 -2 -16 0 -12 6 3 5 -2 16 -12 23 -14 11 -15 11 -5 0 6 -7 9 -19 7 -26 -9 -22 16 -28 42 -10 20 13 23 19 14 30 -8 9 -8 15 0 20 13 8 13 35 0 35 -5 0 -11 -10 -12 -22z"/><path d="M1420 940 c-11 -7 -12 -12 -4 -20 8 -8 13 -6 17 9 3 12 4 21 4 21 -1 0 -9 -5 -17 -10z"/><path d="M1483 936 c7 -18 -12 -36 -37 -36 -15 0 -17 -3 -8 -12 9 -9 16 -7 31 6 14 13 20 14 23 4 3 -7 5 2 6 20 0 17 -4 32 -10 32 -5 0 -8 -6 -5 -14z"/><path d="M302 915 c0 -16 2 -22 5 -12 2 9 2 23 0 30 -3 6 -5 -1 -5 -18z"/><path d="M1041 929 c0 -9 7 -23 16 -30 9 -8 14 -9 10 -2 -4 6 -4 13 0 16 5 2 3 2 -4 1 -6 -2 -14 5 -16 14 -4 15 -5 15 -6 1z"/><path d="M1795 928 c11 -6 23 -16 27 -22 5 -8 8 -7 8 1 0 7 -9 17 -19 23 -27 14 -41 12 -16 -2z"/><path d="M1902 915 c0 -16 2 -22 5 -12 2 9 2 23 0 30 -3 6 -5 -1 -5 -18z"/><path d="M2240 927 c0 -16 32 -47 48 -47 7 0 12 4 12 10 0 5 -7 7 -15 4 -10 -4 -18 3 -25 20 -10 28 -20 34 -20 13z"/><path d="M2450 928 c1 -32 60 -69 60 -38 0 6 -3 9 -7 9 -21 -3 -33 2 -33 15 0 8 -4 18 -10 21 -5 3 -10 0 -10 -7z"/><path d="M2653 914 c0 -23 1 -24 9 -10 7 12 7 21 0 28 -6 6 -9 0 -9 -18z"/><path d="M3079 938 c-6 -19 -6 -39 0 -42 4 -3 8 6 9 20 1 13 0 24 -3 24 -3 0 -5 -1 -6 -2z"/><path d="M197 913 c-3 -5 4 -15 16 -23 21 -12 21 -12 7 6 -8 10 -15 20 -16 22 -1 2 -4 -1 -7 -5z"/><path d="M1253 905 c0 -8 4 -12 9 -9 4 3 8 9 8 15 0 5 -4 9 -8 9 -5 0 -9 -7 -9 -15z"/><path d="M1310 909 c0 -5 5 -7 10 -4 6 3 10 8 10 11 0 2 -4 4 -10 4 -5 0 -10 -5 -10 -11z"/><path d="M1358 907 c-30 -12 -37 -24 -13 -24 8 0 22 9 32 19 9 10 14 18 12 17 -2 -1 -16 -6 -31 -12z"/><path d="M2191 900 c-17 -15 -19 -20 -7 -20 8 0 20 9 26 20 13 25 11 25 -19 0z"/><path d="M2935 910 c-3 -5 -18 -10 -33 -10 -22 -1 -24 -2 -10 -10 19 -11 52 -1 56 18 3 15 -4 16 -13 2z"/><path d="M93 892 c0 -7 9 -12 20 -10 29 4 32 23 4 23 -13 0 -24 -6 -24 -13z"/><path d="M810 904 c0 -10 38 -21 49 -15 9 6 3 10 -18 13 -17 2 -31 3 -31 2z"/><path d="M1641 902 c-1 -18 25 -26 46 -12 16 10 14 11 -9 7 -15 -2 -29 1 -32 7 -3 7 -5 6 -5 -2z"/><path d="M1795 890 c-3 -5 -1 -10 4 -10 6 0 11 5 11 10 0 6 -2 10 -4 10 -3 0 -8 -4 -11 -10z"/><path d="M1040 869 c0 -5 5 -7 10 -4 6 3 10 8 10 11 0 2 -4 4 -10 4 -5 0 -10 -5 -10 -11z"/></g><g transform="translate(0.000000,320.000000) scale(0.100000,-0.100000)" fill="#4C4C4C" stroke="none"><path d="M486 2092 c-3 -5 1 -9 9 -9 8 0 12 4 9 9 -3 4 -7 8 -9 8 -2 0 -6 -4 -9 -8z"/><path d="M573 1841 c0 -11 5 -18 9 -15 4 3 5 11 1 19 -7 21 -12 19 -10 -4z"/><path d="M549 1793 c-13 -16 -12 -17 4 -4 9 7 17 15 17 17 0 8 -8 3 -21 -13z"/><path d="M446 1792 c-3 -5 1 -9 9 -9 8 0 12 4 9 9 -3 4 -7 8 -9 8 -2 0 -6 -4 -9 -8z"/><path d="M2123 1763 c9 -2 25 -2 35 0 9 3 1 5 -18 5 -19 0 -27 -2 -17 -5z"/><path d="M2198 1763 c7 -3 16 -2 19 1 4 3 -2 6 -13 5 -11 0 -14 -3 -6 -6z"/><path d="M948 1753 c18 -2 45 -2 60 0 15 2 0 4 -33 4 -33 0 -45 -2 -27 -4z"/><path d="M1050 1756 c0 -2 7 -7 16 -10 8 -3 12 -2 9 4 -6 10 -25 14 -25 6z"/><path d="M1418 1753 c28 -2 76 -2 105 0 28 2 5 3 -53 3 -58 0 -81 -1 -52 -3z"/><path d="M1688 1753 c6 -2 18 -2 25 0 6 3 1 5 -13 5 -14 0 -19 -2 -12 -5z"/><path d="M2628 1753 c34 -2 90 -2 125 0 34 2 6 3 -63 3 -69 0 -97 -1 -62 -3z"/><path d="M2878 1743 c7 -3 16 -2 19 1 4 3 -2 6 -13 5 -11 0 -14 -3 -6 -6z"/><path d="M1394 1450 c0 -151 2 -213 3 -137 2 75 2 199 0 275 -1 75 -3 13 -3 -138z"/><path d="M2390 1706 c0 -2 8 -10 18 -17 15 -13 16 -12 3 4 -13 16 -21 21 -21 13z"/><path d="M1553 1693 c15 -2 39 -2 55 0 15 2 2 4 -28 4 -30 0 -43 -2 -27 -4z"/><path d="M2738 1693 c12 -2 30 -2 40 0 9 3 -1 5 -23 4 -22 0 -30 -2 -17 -4z"/><path d="M589 1603 c-13 -16 -12 -17 4 -4 9 7 17 15 17 17 0 8 -8 3 -21 -13z"/><path d="M549 1573 c-13 -16 -12 -17 4 -4 9 7 17 15 17 17 0 8 -8 3 -21 -13z"/><path d="M1499 1507 c4 -4 39 -7 77 -5 l69 3 -77 5 c-42 3 -73 1 -69 -3z"/><path d="M1652 1460 c0 -19 2 -27 5 -17 2 9 2 25 0 35 -3 9 -5 1 -5 -18z"/><path d="M1881 1464 c0 -11 3 -14 6 -6 3 7 2 16 -1 19 -3 4 -6 -2 -5 -13z"/><path d="M235 1449 c-4 -6 -5 -12 -2 -15 2 -3 7 2 10 11 7 17 1 20 -8 4z"/><path d="M1781 1444 c0 -11 3 -14 6 -6 3 7 2 16 -1 19 -3 4 -6 -2 -5 -13z"/><path d="M1496 1442 c-2 -4 14 -6 37 -4 68 5 76 10 20 11 -28 0 -54 -2 -57 -7z"/><path d="M2441 1434 c0 -11 3 -14 6 -6 3 7 2 16 -1 19 -3 4 -6 -2 -5 -13z"/><path d="M2840 1431 c0 -6 4 -13 10 -16 6 -3 7 1 4 9 -7 18 -14 21 -14 7z"/><path d="M1940 1276 c0 -2 8 -10 18 -17 15 -13 16 -12 3 4 -13 16 -21 21 -21 13z"/><path d="M1840 1266 c0 -2 8 -10 18 -17 15 -13 16 -12 3 4 -13 16 -21 21 -21 13z"/><path d="M2850 1266 c0 -2 8 -10 18 -17 15 -13 16 -12 3 4 -13 16 -21 21 -21 13z"/><path d="M2444 1228 l-29 -33 33 29 c30 28 37 36 29 36 -2 0 -16 -15 -33 -32z"/><path d="M2970 1257 c0 -2 15 -16 33 -33 l32 -29 -29 33 c-28 30 -36 37 -36 29z"/><path d="M1490 1221 c0 -10 19 -25 25 -20 1 2 -3 10 -11 17 -8 7 -14 8 -14 3z"/><path d="M211 1184 c0 -11 3 -14 6 -6 3 7 2 16 -1 19 -3 4 -6 -2 -5 -13z"/><path d="M2153 1173 c9 -2 25 -2 35 0 9 3 1 5 -18 5 -19 0 -27 -2 -17 -5z"/><path d="M100 1138 c0 -5 32 -8 70 -8 39 0 70 3 70 8 0 4 -31 7 -70 7 -38 0 -70 -3 -70 -7z"/><path d="M630 1140 c0 -6 7 -10 15 -10 8 0 15 2 15 4 0 2 -7 6 -15 10 -8 3 -15 1 -15 -4z"/><path d="M910 1138 c0 -5 33 -7 73 -7 76 2 68 6 -21 11 -28 2 -52 0 -52 -4z"/><path d="M1370 1138 c0 -5 87 -8 194 -8 107 0 197 3 199 8 3 4 -84 7 -194 7 -109 0 -199 -3 -199 -7z"/><path d="M2570 1140 c0 -5 5 -10 11 -10 5 0 7 5 4 10 -3 6 -8 10 -11 10 -2 0 -4 -4 -4 -10z"/><path d="M3095 1140 c-3 -5 -1 -10 4 -10 6 0 11 5 11 10 0 6 -2 10 -4 10 -3 0 -8 -4 -11 -10z"/><path d="M703 1133 c20 -2 54 -2 75 0 20 2 3 4 -38 4 -41 0 -58 -2 -37 -4z"/><path d="M828 1133 c7 -3 16 -2 19 1 4 3 -2 6 -13 5 -11 0 -14 -3 -6 -6z"/><path d="M2078 1123 c7 -3 16 -2 19 1 4 3 -2 6 -13 5 -11 0 -14 -3 -6 -6z"/><path d="M87 993 c-4 -3 -7 -31 -6 -62 0 -48 2 -52 10 -31 6 14 8 39 5 57 -4 27 -1 32 17 36 21 4 21 4 1 6 -11 0 -24 -2 -27 -6z"/><path d="M765 989 c-4 -6 -5 -12 -2 -15 2 -3 7 2 10 11 7 17 1 20 -8 4z"/><path d="M3019 983 c-13 -16 -12 -17 4 -4 16 13 21 21 13 21 -2 0 -10 -8 -17 -17z"/><path d="M3073 985 c-3 -9 -3 -18 -1 -21 3 -3 8 4 11 16 6 23 -1 27 -10 5z"/><path d="M1215 980 c-3 -5 -8 -20 -10 -32 -4 -16 -2 -19 7 -10 6 6 12 21 13 32 2 22 -1 25 -10 10z"/><path d="M2671 974 c0 -11 3 -14 6 -6 3 7 2 16 -1 19 -3 4 -6 -2 -5 -13z"/><path d="M2726 973 c-6 -14 -5 -15 5 -6 7 7 10 15 7 18 -3 3 -9 -2 -12 -12z"/><path d="M2426 967 c3 -10 9 -15 12 -12 3 3 0 11 -7 18 -10 9 -11 8 -5 -6z"/><path d="M217 957 c2 -4 -1 -16 -8 -25 -8 -9 -1 -6 14 7 15 14 27 25 27 26 0 0 -9 1 -19 1 -11 0 -17 -4 -14 -9z"/><path d="M293 955 c-3 -9 -3 -18 -1 -21 3 -3 8 4 11 16 6 23 -1 27 -10 5z"/><path d="M569 962 c10 -8 11 -14 1 -32 -7 -12 -7 -20 -2 -16 6 3 13 -2 15 -11 3 -10 5 0 4 21 -1 26 -7 41 -17 43 -12 4 -12 3 -1 -5z"/><path d="M674 958 c-10 -15 -12 -58 -3 -52 6 4 18 64 13 64 -2 0 -6 -5 -10 -12z"/><path d="M960 966 c0 -2 9 -6 20 -9 11 -3 18 -1 14 4 -5 9 -34 13 -34 5z"/><path d="M1460 966 c0 -2 9 -6 20 -9 11 -3 20 -1 20 4 0 5 -9 9 -20 9 -11 0 -20 -2 -20 -4z"/><path d="M1524 955 c-3 -8 -4 -20 -2 -27 3 -7 7 -1 10 15 6 29 1 36 -8 12z"/><path d="M1806 955 c-9 -26 -7 -32 5 -12 6 10 9 21 6 23 -2 3 -7 -2 -11 -11z"/><path d="M2005 950 c6 -29 11 -34 18 -16 3 8 0 20 -8 26 -12 10 -13 8 -10 -10z"/><path d="M2058 963 c7 -3 16 -2 19 1 4 3 -2 6 -13 5 -11 0 -14 -3 -6 -6z"/><path d="M2340 961 c0 -6 4 -13 10 -16 6 -3 7 1 4 9 -7 18 -14 21 -14 7z"/><path d="M2487 948 c9 -10 17 -18 17 -18 1 0 2 8 2 18 0 10 -8 18 -18 18 -16 0 -16 -2 -1 -18z"/><path d="M1032 940 c0 -14 2 -19 5 -12 2 6 2 18 0 25 -3 6 -5 1 -5 -13z"/><path d="M1580 941 c0 -11 4 -22 9 -25 4 -3 6 6 3 19 -5 30 -12 33 -12 6z"/><path d="M2270 945 c-7 -9 -10 -18 -6 -22 3 -3 6 -1 6 5 0 6 8 12 18 14 11 2 13 6 6 11 -7 4 -17 0 -24 -8z"/><path d="M2800 956 c0 -2 8 -10 18 -17 15 -13 16 -12 3 4 -13 16 -21 21 -21 13z"/><path d="M2950 949 c0 -5 -5 -7 -12 -3 -7 4 -8 3 -4 -5 4 -6 2 -20 -6 -29 -12 -15 -11 -16 4 -4 14 11 17 10 21 -5 3 -10 5 -1 6 20 0 20 -1 37 -4 37 -3 0 -5 -5 -5 -11z"/><path d="M366 938 c-11 -35 -13 -58 -6 -53 4 3 10 18 12 35 5 30 1 41 -6 18z"/><path d="M515 939 c-4 -6 -5 -12 -2 -15 2 -3 7 2 10 11 7 17 1 20 -8 4z"/><path d="M875 940 c-3 -5 -1 -18 4 -27 9 -16 10 -14 11 10 0 28 -5 34 -15 17z"/><path d="M923 943 c-18 -7 -16 -30 3 -37 13 -5 14 -9 4 -22 -10 -12 -11 -17 -1 -27 10 -9 11 -8 6 4 -4 12 -1 16 12 15 18 -1 23 4 23 25 0 5 -5 7 -10 4 -6 -4 -17 -1 -26 5 -11 10 -12 16 -3 26 12 15 11 15 -8 7z"/><path d="M1265 939 c-4 -6 -5 -12 -2 -15 2 -3 7 2 10 11 7 17 1 20 -8 4z"/><path d="M2883 943 c-18 -7 -16 -30 3 -37 13 -5 14 -4 6 7 -9 10 -8 17 0 25 13 13 11 14 -9 5z"/><path d="M419 912 c-3 -20 -2 -29 4 -23 5 5 7 19 5 32 -3 20 -5 19 -9 -9z"/><path d="M460 910 c0 -16 4 -30 8 -30 5 0 7 14 4 30 -2 17 -6 30 -8 30 -2 0 -4 -13 -4 -30z"/><path d="M1730 916 c0 -14 4 -27 8 -30 5 -3 6 8 4 25 -5 35 -12 38 -12 5z"/><path d="M1941 924 c0 -11 3 -14 6 -6 3 7 2 16 -1 19 -3 4 -6 -2 -5 -13z"/><path d="M2558 910 c-3 -16 -1 -30 4 -30 4 0 8 14 8 30 0 17 -2 30 -4 30 -2 0 -6 -13 -8 -30z"/><path d="M2761 924 c0 -11 3 -14 6 -6 3 7 2 16 -1 19 -3 4 -6 -2 -5 -13z"/><path d="M3022 915 c0 -16 2 -22 5 -12 2 9 2 23 0 30 -3 6 -5 -1 -5 -18z"/><path d="M1161 914 c0 -11 3 -14 6 -6 3 7 2 16 -1 19 -3 4 -6 -2 -5 -13z"/><path d="M2205 921 c-3 -5 -2 -12 3 -15 5 -3 9 1 9 9 0 17 -3 19 -12 6z"/><path d="M2671 913 c-1 -12 -7 -24 -13 -26 -10 -4 -10 -6 0 -6 15 -1 26 23 19 41 -3 7 -6 3 -6 -9z"/><path d="M3120 911 c0 -11 4 -22 9 -25 4 -3 6 6 3 19 -5 30 -12 33 -12 6z"/><path d="M143 913 c4 -3 1 -13 -6 -22 -11 -14 -10 -14 5 -2 16 12 16 31 1 31 -4 0 -3 -3 0 -7z"/><path d="M290 906 c0 -8 4 -17 9 -20 5 -4 7 3 4 14 -6 23 -13 26 -13 6z"/><path d="M991 904 c0 -11 3 -14 6 -6 3 7 2 16 -1 19 -3 4 -6 -2 -5 -13z"/><path d="M1045 909 c-4 -6 -5 -12 -2 -15 2 -3 7 2 10 11 7 17 1 20 -8 4z"/><path d="M1373 913 c4 -3 1 -13 -6 -22 -11 -14 -10 -14 5 -2 16 12 16 31 1 31 -4 0 -3 -3 0 -7z"/><path d="M1806 907 c3 -10 9 -15 12 -12 3 3 0 11 -7 18 -10 9 -11 8 -5 -6z"/><path d="M2263 895 c0 -7 6 -11 14 -8 7 3 13 6 13 8 0 2 -6 5 -13 8 -8 3 -14 -1 -14 -8z"/><path d="M2780 895 c0 -9 6 -12 15 -9 8 4 15 7 15 9 0 2 -7 5 -15 9 -9 3 -15 0 -15 -9z"/><path d="M206 891 c8 -8 54 -7 54 1 0 5 -13 7 -30 6 -16 -1 -27 -4 -24 -7z"/><path d="M1780 889 c0 -5 5 -7 10 -4 6 3 10 8 10 11 0 2 -4 4 -10 4 -5 0 -10 -5 -10 -11z"/></g><g transform="translate(0.000000,320.000000) scale(0.100000,-0.100000)" fill="#6C7272" stroke="none"><path d="M516 2047 c3 -10 9 -15 12 -12 3 3 0 11 -7 18 -10 9 -11 8 -5 -6z"/><path d="M540 1961 c0 -6 4 -13 10 -16 6 -3 7 1 4 9 -7 18 -14 21 -14 7z"/><path d="M1613 1753 c9 -2 23 -2 30 0 6 3 -1 5 -18 5 -16 0 -22 -2 -12 -5z"/><path d="M2818 1753 c6 -2 18 -2 25 0 6 3 1 5 -13 5 -14 0 -19 -2 -12 -5z"/><path d="M926 1727 c3 -10 9 -15 12 -12 3 3 0 11 -7 18 -10 9 -11 8 -5 -6z"/><path d="M1059 1723 c-13 -16 -12 -17 4 -4 9 7 17 15 17 17 0 8 -8 3 -21 -13z"/><path d="M2128 1703 c7 -3 16 -2 19 1 4 3 -2 6 -13 5 -11 0 -14 -3 -6 -6z"/><path d="M944 1450 c0 -140 2 -198 3 -127 2 70 2 184 0 255 -1 70 -3 12 -3 -128z"/><path d="M1491 1603 c0 -45 2 -84 7 -86 4 -3 6 23 4 56 -5 104 -9 116 -11 30z"/><path d="M2450 1655 c13 -14 26 -25 28 -25 3 0 -5 11 -18 25 -13 14 -26 25 -28 25 -3 0 5 -11 18 -25z"/><path d="M646 1627 c3 -10 9 -15 12 -12 3 3 0 11 -7 18 -10 9 -11 8 -5 -6z"/><path d="M1949 1613 c-13 -16 -12 -17 4 -4 16 13 21 21 13 21 -2 0 -10 -8 -17 -17z"/><path d="M1782 1480 c0 -14 2 -19 5 -12 2 6 2 18 0 25 -3 6 -5 1 -5 -13z"/><path d="M2770 1460 c-8 -5 -10 -10 -5 -10 6 0 17 5 25 10 8 5 11 10 5 10 -5 0 -17 -5 -25 -10z"/><path d="M1494 1330 c0 -58 1 -81 3 -52 2 28 2 76 0 105 -2 28 -3 5 -3 -53z"/><path d="M1782 1410 c0 -14 2 -19 5 -12 2 6 2 18 0 25 -3 6 -5 1 -5 -13z"/><path d="M751 1304 c0 -11 3 -14 6 -6 3 7 2 16 -1 19 -3 4 -6 -2 -5 -13z"/><path d="M2955 1280 c10 -11 20 -20 23 -20 3 0 -3 9 -13 20 -10 11 -20 20 -23 20 -3 0 3 -9 13 -20z"/><path d="M1860 1236 c0 -2 8 -10 18 -17 15 -13 16 -12 3 4 -13 16 -21 21 -21 13z"/><path d="M2218 1183 c7 -3 16 -2 19 1 4 3 -2 6 -13 5 -11 0 -14 -3 -6 -6z"/><path d="M1108 1133 c34 -2 90 -2 125 0 34 2 6 3 -63 3 -69 0 -97 -1 -62 -3z"/><path d="M2623 1133 c20 -2 54 -2 75 0 20 2 3 4 -38 4 -41 0 -58 -2 -37 -4z"/><path d="M3023 1133 c15 -2 37 -2 50 0 12 2 0 4 -28 4 -27 0 -38 -2 -22 -4z"/><path d="M2128 1113 c7 -3 16 -2 19 1 4 3 -2 6 -13 5 -11 0 -14 -3 -6 -6z"/><path d="M2178 1113 c12 -2 30 -2 40 0 9 3 -1 5 -23 4 -22 0 -30 -2 -17 -4z"/><path d="M1922 980 c0 -14 2 -19 5 -12 2 6 2 18 0 25 -3 6 -5 1 -5 -13z"/><path d="M2390 980 c-9 -6 -10 -10 -3 -10 6 0 15 5 18 10 8 12 4 12 -15 0z"/><path d="M2993 940 c0 -30 2 -43 4 -27 2 15 2 39 0 55 -2 15 -4 2 -4 -28z"/><path d="M538 973 c7 -3 16 -2 19 1 4 3 -2 6 -13 5 -11 0 -14 -3 -6 -6z"/><path d="M698 973 c7 -3 16 -2 19 1 4 3 -2 6 -13 5 -11 0 -14 -3 -6 -6z"/><path d="M1424 958 l-19 -23 23 19 c21 18 27 26 19 26 -2 0 -12 -10 -23 -22z"/><path d="M1754 960 c0 -13 4 -16 10 -10 7 7 7 13 0 20 -6 6 -10 3 -10 -10z"/><path d="M2270 976 c0 -2 9 -6 20 -9 11 -3 18 -1 14 4 -5 9 -34 13 -34 5z"/><path d="M2800 976 c0 -2 7 -7 16 -10 8 -3 12 -2 9 4 -6 10 -25 14 -25 6z"/><path d="M760 949 c0 -11 -4 -17 -10 -14 -5 3 -10 -1 -10 -10 0 -9 4 -14 9 -11 5 4 12 0 14 -6 3 -7 6 4 6 25 1 20 -1 37 -4 37 -3 0 -5 -9 -5 -21z"/><path d="M2695 960 c-16 -7 -17 -9 -3 -9 9 -1 20 4 23 9 7 11 7 11 -20 0z"/><path d="M2728 925 c-2 -25 0 -45 4 -45 5 0 8 20 8 45 0 25 -2 45 -4 45 -2 0 -6 -20 -8 -45z"/><path d="M2938 963 c7 -3 16 -2 19 1 4 3 -2 6 -13 5 -11 0 -14 -3 -6 -6z"/><path d="M1161 944 c0 -11 3 -14 6 -6 3 7 2 16 -1 19 -3 4 -6 -2 -5 -13z"/><path d="M2041 944 c0 -11 3 -14 6 -6 3 7 2 16 -1 19 -3 4 -6 -2 -5 -13z"/><path d="M220 936 c-6 -9 -10 -21 -7 -28 3 -8 6 -6 6 5 1 14 6 17 24 12 12 -3 18 -3 12 2 -5 5 -13 12 -16 16 -3 4 -12 1 -19 -7z"/><path d="M399 918 c4 -28 6 -29 9 -9 2 13 0 27 -5 32 -6 6 -7 -3 -4 -23z"/><path d="M493 934 c-3 -9 3 -24 18 -37 l23 -22 -18 22 c-10 12 -16 29 -13 38 4 8 4 15 1 15 -2 0 -7 -7 -11 -16z"/><path d="M716 937 c3 -10 9 -15 12 -12 3 3 0 11 -7 18 -10 9 -11 8 -5 -6z"/><path d="M905 939 c-4 -6 -5 -12 -2 -15 2 -3 7 2 10 11 7 17 1 20 -8 4z"/><path d="M1366 937 c3 -10 9 -15 12 -12 3 3 0 11 -7 18 -10 9 -11 8 -5 -6z"/><path d="M1678 943 c7 -3 16 -2 19 1 4 3 -2 6 -13 5 -11 0 -14 -3 -6 -6z"/><path d="M2320 941 c0 -7 -9 -9 -24 -5 -15 3 -25 1 -29 -8 -4 -11 2 -13 24 -10 30 4 46 18 35 29 -3 4 -6 1 -6 -6z"/><path d="M2477 937 c-3 -8 3 -14 15 -14 16 -2 17 1 8 13 -15 17 -17 17 -23 1z"/><path d="M2530 940 c0 -5 5 -10 11 -10 5 0 7 5 4 10 -3 6 -8 10 -11 10 -2 0 -4 -4 -4 -10z"/><path d="M2792 930 c-9 -15 -9 -21 1 -26 6 -4 9 -4 5 1 -4 4 0 13 9 20 9 7 12 15 7 18 -6 3 -15 -3 -22 -13z"/><path d="M2836 933 c-6 -14 -5 -15 5 -6 7 7 10 15 7 18 -3 3 -9 -2 -12 -12z"/><path d="M2865 939 c-4 -6 -5 -12 -2 -15 2 -3 7 2 10 11 7 17 1 20 -8 4z"/><path d="M3142 920 c0 -19 2 -27 5 -17 2 9 2 25 0 35 -3 9 -5 1 -5 -18z"/><path d="M270 936 c0 -2 7 -7 16 -10 8 -3 12 -2 9 4 -6 10 -25 14 -25 6z"/><path d="M612 915 c0 -16 2 -22 5 -12 2 9 2 23 0 30 -3 6 -5 -1 -5 -18z"/><path d="M1892 915 c0 -16 2 -22 5 -12 2 9 2 23 0 30 -3 6 -5 -1 -5 -18z"/><path d="M1912 915 c0 -16 2 -22 5 -12 2 9 2 23 0 30 -3 6 -5 -1 -5 -18z"/><path d="M2204 929 c-4 -7 -3 -9 4 -5 5 3 13 0 15 -6 4 -9 6 -10 6 -1 1 17 -16 25 -25 12z"/><path d="M2351 924 c0 -11 3 -14 6 -6 3 7 2 16 -1 19 -3 4 -6 -2 -5 -13z"/><path d="M2402 915 c0 -16 2 -22 5 -12 2 9 2 23 0 30 -3 6 -5 -1 -5 -18z"/><path d="M2441 924 c0 -11 3 -14 6 -6 3 7 2 16 -1 19 -3 4 -6 -2 -5 -13z"/><path d="M782 905 c0 -16 2 -22 5 -12 2 9 2 23 0 30 -3 6 -5 -1 -5 -18z"/><path d="M311 904 c0 -11 3 -14 6 -6 3 7 2 16 -1 19 -3 4 -6 -2 -5 -13z"/><path d="M1181 904 c0 -11 3 -14 6 -6 3 7 2 16 -1 19 -3 4 -6 -2 -5 -13z"/><path d="M1520 911 c0 -6 4 -13 10 -16 6 -3 7 1 4 9 -7 18 -14 21 -14 7z"/><path d="M2042 900 c0 -14 2 -19 5 -12 2 6 2 18 0 25 -3 6 -5 1 -5 -13z"/><path d="M1620 906 c0 -2 8 -10 18 -17 15 -13 16 -12 3 4 -13 16 -21 21 -21 13z"/><path d="M568 883 c7 -3 16 -2 19 1 4 3 -2 6 -13 5 -11 0 -14 -3 -6 -6z"/><path d="M1033 875 c-3 -9 -3 -18 -1 -21 3 -3 8 4 11 16 6 23 -1 27 -10 5z"/><path d="M1478 883 c7 -3 16 -2 19 1 4 3 -2 6 -13 5 -11 0 -14 -3 -6 -6z"/><path d="M2938 883 c7 -3 16 -2 19 1 4 3 -2 6 -13 5 -11 0 -14 -3 -6 -6z"/><path d="M979 863 c-13 -16 -12 -17 4 -4 9 7 17 15 17 17 0 8 -8 3 -21 -13z"/></g><g transform="translate(0.000000,320.000000) scale(0.100000,-0.100000)" fill="#9F9F9F" stroke="none"><path d="M416 1935 c-9 -26 -7 -32 5 -12 6 10 9 21 6 23 -2 3 -7 -2 -11 -11z"/><path d="M2133 1773 c15 -2 39 -2 55 0 15 2 2 4 -28 4 -30 0 -43 -2 -27 -4z"/><path d="M2858 1753 c7 -3 16 -2 19 1 4 3 -2 6 -13 5 -11 0 -14 -3 -6 -6z"/><path d="M1055 1709 c-4 -6 -5 -12 -2 -15 2 -3 7 2 10 11 7 17 1 20 -8 4z"/><path d="M2975 1700 c10 -11 20 -20 23 -20 3 0 -3 9 -13 20 -10 11 -20 20 -23 20 -3 0 3 -9 13 -20z"/><path d="M2158 1703 c6 -2 18 -2 25 0 6 3 1 5 -13 5 -14 0 -19 -2 -12 -5z"/><path d="M2218 1693 c7 -3 16 -2 19 1 4 3 -2 6 -13 5 -11 0 -14 -3 -6 -6z"/><path d="M1553 1683 c15 -2 39 -2 55 0 15 2 2 4 -28 4 -30 0 -43 -2 -27 -4z"/><path d="M2594 1440 c0 -140 2 -198 3 -127 2 70 2 184 0 255 -1 70 -3 12 -3 -128z"/><path d="M2743 1683 c15 -2 37 -2 50 0 12 2 0 4 -28 4 -27 0 -38 -2 -22 -4z"/><path d="M315 1669 c-4 -6 -5 -12 -2 -15 2 -3 7 2 10 11 7 17 1 20 -8 4z"/><path d="M1504 1595 l1 -80 65 -1 65 0 -62 3 -62 4 -4 77 -3 77 0 -80z"/><path d="M1684 1666 c11 -9 27 -16 35 -15 14 0 14 1 1 6 -8 3 -24 10 -35 15 -20 9 -20 9 -1 -6z"/><path d="M2704 1435 c0 -137 2 -195 3 -128 2 67 2 179 0 250 -1 70 -3 16 -3 -122z"/><path d="M2855 1660 c10 -11 20 -20 23 -20 3 0 -3 9 -13 20 -10 11 -20 20 -23 20 -3 0 3 -9 13 -20z"/><path d="M1989 1643 c-13 -16 -12 -17 4 -4 16 13 21 21 13 21 -2 0 -10 -8 -17 -17z"/><path d="M2330 1646 c0 -2 8 -10 18 -17 15 -13 16 -12 3 4 -13 16 -21 21 -21 13z"/><path d="M2531 1534 c0 -11 3 -14 6 -6 3 7 2 16 -1 19 -3 4 -6 -2 -5 -13z"/><path d="M1660 1467 l5 -52 3 44 c2 24 0 47 -5 52 -4 4 -6 -15 -3 -44z"/><path d="M2431 1484 c0 -11 3 -14 6 -6 3 7 2 16 -1 19 -3 4 -6 -2 -5 -13z"/><path d="M1891 1464 c0 -11 3 -14 6 -6 3 7 2 16 -1 19 -3 4 -6 -2 -5 -13z"/><path d="M306 1423 c-6 -14 -5 -15 5 -6 7 7 10 15 7 18 -3 3 -9 -2 -12 -12z"/><path d="M1528 1433 c17 -2 47 -2 65 0 17 2 3 4 -33 4 -36 0 -50 -2 -32 -4z"/><path d="M1891 1424 c0 -11 3 -14 6 -6 3 7 2 16 -1 19 -3 4 -6 -2 -5 -13z"/><path d="M2855 1431 c-3 -5 -2 -12 3 -15 5 -3 9 1 9 9 0 17 -3 19 -12 6z"/><path d="M1781 1380 c0 -8 4 -22 9 -30 12 -18 12 -2 0 25 -6 13 -9 15 -9 5z"/><path d="M285 1369 c-4 -6 -5 -12 -2 -15 2 -3 7 2 10 11 7 17 1 20 -8 4z"/><path d="M2920 1326 c0 -2 8 -10 18 -17 15 -13 16 -12 3 4 -13 16 -21 21 -21 13z"/><path d="M1960 1265 c13 -14 26 -25 28 -25 3 0 -5 11 -18 25 -13 14 -26 25 -28 25 -3 0 5 -11 18 -25z"/><path d="M1830 1266 c0 -2 8 -10 18 -17 15 -13 16 -12 3 4 -13 16 -21 21 -21 13z"/><path d="M2855 1250 c10 -11 20 -20 23 -20 3 0 -3 9 -13 20 -10 11 -20 20 -23 20 -3 0 3 -9 13 -20z"/><path d="M2454 1228 l-29 -33 33 29 c30 28 37 36 29 36 -2 0 -16 -15 -33 -32z"/><path d="M3015 1220 c21 -22 41 -40 44 -40 3 0 -13 18 -34 40 -21 22 -41 40 -44 40 -3 0 13 -18 34 -40z"/><path d="M135 1209 c-4 -6 -5 -12 -2 -15 2 -3 7 2 10 11 7 17 1 20 -8 4z"/><path d="M1105 1200 c11 -5 27 -9 35 -9 9 0 8 4 -5 9 -11 5 -27 9 -35 9 -9 0 -8 -4 5 -9z"/><path d="M1538 1203 c7 -3 16 -2 19 1 4 3 -2 6 -13 5 -11 0 -14 -3 -6 -6z"/><path d="M1598 1193 c18 -2 45 -2 60 0 15 2 0 4 -33 4 -33 0 -45 -2 -27 -4z"/><path d="M2143 1183 c15 -2 37 -2 50 0 12 2 0 4 -28 4 -27 0 -38 -2 -22 -4z"/><path d="M1776 1163 c-6 -14 -5 -15 5 -6 7 7 10 15 7 18 -3 3 -9 -2 -12 -12z"/><path d="M2710 1174 c0 -5 7 -18 15 -28 8 -11 15 -16 15 -10 0 5 -7 18 -15 28 -8 11 -15 16 -15 10z"/><path d="M86 1145 c-6 -16 19 -33 31 -21 4 3 -1 6 -10 6 -10 0 -14 5 -11 15 4 8 4 15 1 15 -3 0 -8 -7 -11 -15z"/><path d="M620 1145 c-10 -12 -9 -16 4 -21 8 -3 21 -4 28 -1 7 3 2 6 -11 6 -20 1 -21 3 -11 16 7 8 10 15 7 15 -2 0 -10 -7 -17 -15z"/><path d="M2564 1149 c-3 -6 -2 -15 3 -20 5 -5 9 -1 9 11 0 23 -2 24 -12 9z"/><path d="M232 1134 c-10 -12 -10 -14 2 -14 17 0 30 16 19 23 -5 3 -14 -1 -21 -9z"/><path d="M895 1141 c-6 -11 13 -26 22 -17 4 3 1 6 -6 6 -7 0 -9 5 -6 10 3 6 4 10 1 10 -3 0 -7 -4 -11 -9z"/><path d="M3120 1142 c0 -6 -8 -13 -17 -15 -16 -4 -16 -5 -1 -6 18 -1 34 16 24 26 -3 4 -6 1 -6 -5z"/><path d="M835 1130 c-13 -6 -15 -9 -5 -9 8 0 22 4 30 9 18 12 2 12 -25 0z"/><path d="M698 1123 c17 -2 47 -2 65 0 17 2 3 4 -33 4 -36 0 -50 -2 -32 -4z"/><path d="M1368 1123 c7 -3 16 -2 19 1 4 3 -2 6 -13 5 -11 0 -14 -3 -6 -6z"/><path d="M2088 1113 c6 -2 18 -2 25 0 6 3 1 5 -13 5 -14 0 -19 -2 -12 -5z"/><path d="M615 1000 c-3 -6 1 -7 9 -4 18 7 21 14 7 14 -6 0 -13 -4 -16 -10z"/><path d="M1487 1003 c6 -5 14 -35 16 -68 l4 -60 -1 64 c-1 48 -5 65 -16 68 -11 3 -11 2 -3 -4z"/><path d="M1895 1000 c-3 -6 1 -7 9 -4 18 7 21 14 7 14 -6 0 -13 -4 -16 -10z"/><path d="M2354 999 c-4 -7 -3 -9 4 -5 5 3 13 0 15 -6 4 -9 6 -10 6 -1 1 17 -16 25 -25 12z"/><path d="M2974 996 c-3 -7 -3 -35 -1 -62 l3 -49 2 58 c1 41 5 56 14 51 7 -4 8 -3 4 4 -9 16 -15 15 -22 -2z"/><path d="M71 938 c1 -68 6 -61 11 15 2 26 0 47 -4 47 -5 0 -7 -28 -7 -62z"/><path d="M140 996 c0 -2 8 -10 18 -17 15 -13 16 -12 3 4 -13 16 -21 21 -21 13z"/><path d="M2144 986 c-3 -7 -4 -35 -2 -62 l3 -49 5 63 c5 63 4 73 -6 48z"/><path d="M2206 987 c3 -10 9 -15 12 -12 3 3 0 11 -7 18 -10 9 -11 8 -5 -6z"/><path d="M2737 979 c4 -13 8 -18 11 -10 2 7 -1 18 -6 23 -8 8 -9 4 -5 -13z"/><path d="M1460 980 c-9 -6 -10 -10 -3 -10 6 0 15 5 18 10 8 12 4 12 -15 0z"/><path d="M1759 978 c11 -15 41 -15 41 -1 0 3 -6 3 -14 0 -7 -3 -20 0 -27 6 -11 10 -11 9 0 -5z"/><path d="M3004 976 c-3 -8 -4 -23 -2 -33 3 -11 6 -6 9 15 6 34 2 42 -7 18z"/><path d="M3050 975 c5 -7 7 -15 3 -18 -3 -4 -1 -7 5 -7 7 0 12 8 12 18 0 10 -7 19 -15 19 -10 0 -12 -4 -5 -12z"/><path d="M104 968 c-4 -7 -3 -8 5 -4 6 4 20 2 29 -6 15 -12 16 -11 3 5 -16 20 -27 22 -37 5z"/><path d="M327 958 c-3 -10 -1 -16 3 -13 5 3 11 -12 13 -32 3 -36 4 -35 5 9 2 40 5 47 25 51 14 3 10 4 -10 4 -22 -1 -33 -7 -36 -19z"/><path d="M410 966 c4 -4 16 -4 26 2 16 9 14 10 -8 9 -15 -1 -23 -6 -18 -11z"/><path d="M502 957 c-21 -23 -32 -74 -12 -62 5 3 7 12 3 21 -3 8 5 26 17 40 13 13 21 24 18 24 -2 0 -14 -10 -26 -23z"/><path d="M575 970 c3 -5 8 -10 11 -10 2 0 4 5 4 10 0 6 -5 10 -11 10 -5 0 -7 -4 -4 -10z"/><path d="M663 962 c-17 -12 -20 -21 -13 -32 8 -12 10 -13 10 -1 0 8 7 23 17 33 20 23 15 23 -14 0z"/><path d="M968 973 c6 -2 18 -2 25 0 6 3 1 5 -13 5 -14 0 -19 -2 -12 -5z"/><path d="M1080 976 c0 -2 7 -7 16 -10 8 -3 12 -2 9 4 -6 10 -25 14 -25 6z"/><path d="M1190 969 c0 -5 5 -7 10 -4 6 3 10 8 10 11 0 2 -4 4 -10 4 -5 0 -10 -5 -10 -11z"/><path d="M1240 926 l5 -51 3 47 c2 34 8 48 20 51 9 3 6 4 -8 4 -24 -1 -25 -3 -20 -51z"/><path d="M1287 964 c-4 -10 -10 -26 -13 -34 -4 -8 1 -6 10 5 11 14 15 16 16 6 0 -8 2 -12 5 -9 3 3 2 16 -3 28 -8 22 -9 22 -15 4z"/><path d="M1539 948 c4 -28 6 -29 9 -9 2 13 0 27 -5 32 -6 6 -7 -3 -4 -23z"/><path d="M1574 966 c-3 -8 -4 -23 -1 -33 3 -12 5 -8 6 10 0 15 5 27 10 27 5 0 12 -12 14 -27 5 -28 5 -28 3 1 -1 32 -22 47 -32 22z"/><path d="M1629 963 c-13 -17 -13 -17 6 -3 11 8 22 16 24 17 2 2 0 3 -6 3 -6 0 -17 -8 -24 -17z"/><path d="M1810 976 c0 -2 8 -10 18 -17 15 -13 16 -12 3 4 -13 16 -21 21 -21 13z"/><path d="M2011 965 c10 -11 19 -29 22 -40 4 -19 5 -19 6 1 0 11 -9 29 -21 40 -23 19 -23 19 -7 -1z"/><path d="M2046 971 c-3 -4 6 -6 19 -3 14 2 25 6 25 8 0 8 -39 4 -44 -5z"/><path d="M2249 963 c-13 -16 -12 -17 4 -4 16 13 21 21 13 21 -2 0 -10 -8 -17 -17z"/><path d="M2300 976 c0 -2 8 -10 18 -17 15 -13 16 -12 3 4 -13 16 -21 21 -21 13z"/><path d="M2769 963 c-13 -17 -13 -17 6 -3 11 8 22 16 24 17 2 2 0 3 -6 3 -6 0 -17 -8 -24 -17z"/><path d="M2820 976 c0 -2 8 -10 18 -17 15 -13 16 -12 3 4 -13 16 -21 21 -21 13z"/><path d="M2874 958 l-19 -23 23 19 c21 18 27 26 19 26 -2 0 -12 -10 -23 -22z"/><path d="M3120 976 c0 -2 8 -10 18 -17 15 -13 16 -12 3 4 -13 16 -21 21 -21 13z"/><path d="M276 955 c-3 -8 -1 -15 4 -15 6 0 10 7 10 15 0 8 -2 15 -4 15 -2 0 -6 -7 -10 -15z"/><path d="M2532 961 c-11 -7 -11 -9 2 -14 10 -4 16 -1 16 8 0 17 -1 17 -18 6z"/><path d="M2072 948 c-7 -7 -11 -26 -11 -42 l2 -31 4 30 c3 17 9 36 15 43 13 15 6 16 -10 0z"/><path d="M2210 953 c0 -6 8 -17 18 -24 16 -13 16 -13 2 6 -8 11 -16 22 -17 24 -2 2 -3 0 -3 -6z"/><path d="M525 939 c-4 -6 -4 -13 -1 -16 3 -4 6 -1 6 5 0 6 8 13 18 15 15 4 15 5 0 6 -9 0 -20 -4 -23 -10z"/><path d="M745 940 c3 -5 8 -10 11 -10 2 0 4 5 4 10 0 6 -5 10 -11 10 -5 0 -7 -4 -4 -10z"/><path d="M935 939 c-11 -16 -1 -19 13 -3 7 8 8 14 3 14 -5 0 -13 -5 -16 -11z"/><path d="M1338 943 c7 -3 16 -2 19 1 4 3 -2 6 -13 5 -11 0 -14 -3 -6 -6z"/><path d="M1392 930 c0 -14 2 -19 5 -12 2 6 2 18 0 25 -3 6 -5 1 -5 -13z"/><path d="M1462 936 c7 -8 15 -12 17 -11 5 6 -10 25 -20 25 -5 0 -4 -6 3 -14z"/><path d="M1927 929 c4 -13 8 -18 11 -10 2 7 -1 18 -6 23 -8 8 -9 4 -5 -13z"/><path d="M2742 925 c0 -16 2 -22 5 -12 2 9 2 23 0 30 -3 6 -5 -1 -5 -18z"/><path d="M2893 935 c-3 -9 -3 -19 1 -22 3 -4 6 1 6 10 0 8 6 18 13 20 9 4 9 6 -1 6 -7 1 -15 -6 -19 -14z"/><path d="M820 933 c0 -6 8 -17 18 -24 16 -13 16 -13 2 6 -8 11 -16 22 -17 24 -2 2 -3 0 -3 -6z"/><path d="M890 928 c0 -9 7 -19 16 -22 15 -6 15 -4 3 11 -7 10 -15 20 -16 22 -2 2 -3 -3 -3 -11z"/><path d="M958 918 c-10 -10 -14 -18 -9 -18 10 0 36 29 30 34 -2 1 -12 -6 -21 -16z"/><path d="M220 918 c0 -4 9 -8 19 -8 11 0 21 -3 24 -7 2 -5 2 -2 1 5 -2 6 1 12 6 12 5 0 11 -10 13 -22 4 -20 4 -20 6 4 1 24 -2 26 -34 25 -19 -1 -35 -5 -35 -9z"/><path d="M1785 920 c3 -5 1 -10 -4 -10 -6 0 -11 -8 -11 -17 1 -17 1 -17 11 0 6 10 15 14 22 10 7 -4 6 0 -2 10 -15 18 -26 23 -16 7z"/><path d="M2298 923 c-16 -2 -28 -8 -28 -12 0 -13 49 -7 54 6 3 7 4 12 3 12 -1 -1 -14 -4 -29 -6z"/><path d="M2371 914 c0 -11 3 -14 6 -6 3 7 2 16 -1 19 -3 4 -6 -2 -5 -13z"/><path d="M2473 916 c-4 -5 -1 -6 5 -2 7 4 12 2 12 -4 0 -8 6 -8 20 0 17 9 22 7 30 -12 8 -22 9 -22 7 4 -1 25 -5 27 -35 25 -19 -1 -36 -6 -39 -11z"/><path d="M2712 905 c0 -16 2 -22 5 -12 2 9 2 23 0 30 -3 6 -5 -1 -5 -18z"/><path d="M2801 921 c-10 -6 -9 -10 4 -15 24 -9 32 -8 38 7 5 15 -22 20 -42 8z"/><path d="M3062 905 c0 -16 2 -22 5 -12 2 9 2 23 0 30 -3 6 -5 -1 -5 -18z"/><path d="M180 913 c0 -6 8 -17 18 -24 16 -13 16 -13 2 6 -8 11 -16 22 -17 24 -2 2 -3 0 -3 -6z"/><path d="M371 904 c0 -11 3 -14 6 -6 3 7 2 16 -1 19 -3 4 -6 -2 -5 -13z"/><path d="M745 910 c-3 -5 -1 -10 4 -10 6 0 11 5 11 10 0 6 -2 10 -4 10 -3 0 -8 -4 -11 -10z"/><path d="M800 913 c0 -6 8 -17 18 -24 16 -13 16 -13 2 6 -8 11 -16 22 -17 24 -2 2 -3 0 -3 -6z"/><path d="M1350 910 c-9 -6 -10 -10 -3 -10 6 0 15 5 18 10 8 12 4 12 -15 0z"/><path d="M1696 907 c3 -10 9 -15 12 -12 3 3 0 11 -7 18 -10 9 -11 8 -5 -6z"/><path d="M149 893 c-13 -16 -12 -17 4 -4 16 13 21 21 13 21 -2 0 -10 -8 -17 -17z"/><path d="M2440 906 c0 -2 8 -10 18 -17 15 -13 16 -12 3 4 -13 16 -21 21 -21 13z"/><path d="M915 879 c-4 -6 -5 -12 -2 -15 2 -3 7 2 10 11 7 17 1 20 -8 4z"/></g><g transform="translate(0.000000,320.000000) scale(0.100000,-0.100000)" fill="#0C72CC" stroke="none"><path d="M1440 2340 c-14 -5 -59 -16 -100 -26 -216 -51 -457 -191 -649 -378 -109 -106 -214 -233 -205 -247 3 -5 1 -9 -5 -9 -10 0 -61 -79 -61 -96 0 -5 15 11 33 36 99 139 293 317 447 411 30 18 57 35 60 38 6 7 167 82 225 105 51 21 170 50 263 66 57 9 76 17 88 35 19 29 10 51 -28 64 -34 12 -33 12 -68 1z"/></g><g transform="translate(0.000000,320.000000) scale(0.100000,-0.100000)" fill="#BFD8E5" stroke="none"><path d="M1418 2343 c7 -3 16 -2 19 1 4 3 -2 6 -13 5 -11 0 -14 -3 -6 -6z"/><path d="M1272 2311 c-46 -16 -86 -32 -89 -35 -10 -10 5 -7 48 10 22 9 71 25 107 35 37 10 56 18 42 18 -14 1 -62 -12 -108 -28z"/><path d="M1550 2309 c0 -11 -5 -30 -11 -42 -10 -21 -10 -21 5 -3 15 18 22 66 11 66 -3 0 -5 -9 -5 -21z"/><path d="M1135 2260 c-13 -6 -15 -9 -5 -9 8 0 22 4 30 9 18 12 2 12 -25 0z"/><path d="M1485 2240 c-13 -6 -15 -9 -5 -9 8 0 22 4 30 9 18 12 2 12 -25 0z"/><path d="M1048 2214 c-27 -13 -48 -27 -48 -29 0 -5 99 42 109 51 13 11 -20 0 -61 -22z"/><path d="M1365 2220 c-13 -6 -5 -7 25 -3 25 3 47 7 49 9 9 8 -55 2 -74 -6z"/><path d="M1308 2203 c6 -2 18 -2 25 0 6 3 1 5 -13 5 -14 0 -19 -2 -12 -5z"/><path d="M1238 2183 c7 -3 16 -2 19 1 4 3 -2 6 -13 5 -11 0 -14 -3 -6 -6z"/><path d="M1185 2165 c-25 -12 -26 -14 -5 -9 14 4 29 10 35 15 12 12 5 11 -30 -6z"/><path d="M1588 2173 c12 -2 30 -2 40 0 9 3 -1 5 -23 4 -22 0 -30 -2 -17 -4z"/><path d="M944 2154 c-18 -14 -18 -15 4 -4 12 6 22 13 22 15 0 8 -5 6 -26 -11z"/><path d="M1443 2163 c9 -2 25 -2 35 0 9 3 1 5 -18 5 -19 0 -27 -2 -17 -5z"/><path d="M1763 2163 c9 -2 23 -2 30 0 6 3 -1 5 -18 5 -16 0 -22 -2 -12 -5z"/><path d="M1368 2153 c6 -2 18 -2 25 0 6 3 1 5 -13 5 -14 0 -19 -2 -12 -5z"/><path d="M1851 2137 c18 -12 36 -33 40 -47 6 -23 7 -23 8 -3 1 21 -50 73 -71 73 -6 0 4 -10 23 -23z"/><path d="M1328 2143 c7 -3 16 -2 19 1 4 3 -2 6 -13 5 -11 0 -14 -3 -6 -6z"/><path d="M885 2114 l-30 -26 33 22 c17 12 32 23 32 26 0 7 -4 5 -35 -22z"/><path d="M1048 2109 c-32 -16 -58 -32 -58 -34 0 -5 119 52 129 61 13 12 -22 -1 -71 -27z"/><path d="M1248 2123 c7 -3 16 -2 19 1 4 3 -2 6 -13 5 -11 0 -14 -3 -6 -6z"/><path d="M482 2108 c-7 -7 -12 -19 -11 -27 0 -10 4 -7 9 7 11 27 30 29 30 3 0 -11 4 -22 9 -25 5 -4 6 5 2 21 -8 31 -22 38 -39 21z"/><path d="M784 2041 c-33 -27 -89 -78 -124 -114 -35 -36 -68 -63 -73 -60 -6 4 -7 1 -2 -6 5 -9 34 14 94 71 47 46 106 100 131 120 25 20 43 37 40 37 -3 0 -32 -21 -66 -48z"/><path d="M937 2049 c-22 -11 -37 -23 -34 -25 5 -5 77 35 77 42 0 6 -1 5 -43 -17z"/><path d="M1050 2060 c-8 -5 -10 -10 -5 -10 6 0 17 5 25 10 8 5 11 10 5 10 -5 0 -17 -5 -25 -10z"/><path d="M1472 2053 c37 -2 100 -2 140 0 40 1 10 3 -67 3 -77 0 -110 -1 -73 -3z"/><path d="M1353 2043 c9 -2 23 -2 30 0 6 3 -1 5 -18 5 -16 0 -22 -2 -12 -5z"/><path d="M1708 2043 c6 -2 18 -2 25 0 6 3 1 5 -13 5 -14 0 -19 -2 -12 -5z"/><path d="M446 2025 c-9 -26 -7 -32 5 -12 6 10 9 21 6 23 -2 3 -7 -2 -11 -11z"/><path d="M1283 2033 c9 -2 25 -2 35 0 9 3 1 5 -18 5 -19 0 -27 -2 -17 -5z"/><path d="M1804 2029 c16 -4 35 -5 43 -1 7 5 -5 8 -30 9 -38 1 -39 0 -13 -8z"/><path d="M530 2025 c0 -5 5 -17 10 -25 5 -8 10 -10 10 -5 0 6 -5 17 -10 25 -5 8 -10 11 -10 5z"/><path d="M965 2020 c-3 -6 1 -7 9 -4 18 7 21 14 7 14 -6 0 -13 -4 -16 -10z"/><path d="M1238 2023 c7 -3 16 -2 19 1 4 3 -2 6 -13 5 -11 0 -14 -3 -6 -6z"/><path d="M807 1961 c-43 -32 -84 -64 -90 -71 -7 -8 2 -3 18 9 17 12 46 33 65 46 41 28 97 74 90 74 -3 0 -40 -26 -83 -58z"/><path d="M1198 2013 c7 -3 16 -2 19 1 4 3 -2 6 -13 5 -11 0 -14 -3 -6 -6z"/><path d="M903 1989 c-46 -29 -41 -36 5 -8 46 28 47 29 36 29 -5 0 -24 -10 -41 -21z"/><path d="M1145 2000 c-13 -6 -15 -9 -5 -9 8 0 22 4 30 9 18 12 2 12 -25 0z"/><path d="M1461 2006 c2 -2 63 -6 134 -8 81 -4 109 -3 75 2 -56 8 -217 13 -209 6z"/><path d="M1368 1993 c12 -2 32 -2 45 0 12 2 2 4 -23 4 -25 0 -35 -2 -22 -4z"/><path d="M1080 1980 c-13 -8 -13 -10 2 -10 9 0 20 5 23 10 8 13 -5 13 -25 0z"/><path d="M1293 1983 c9 -2 25 -2 35 0 9 3 1 5 -18 5 -19 0 -27 -2 -17 -5z"/><path d="M1763 1983 c9 -2 23 -2 30 0 6 3 -1 5 -18 5 -16 0 -22 -2 -12 -5z"/><path d="M1248 1973 c7 -3 16 -2 19 1 4 3 -2 6 -13 5 -11 0 -14 -3 -6 -6z"/><path d="M1875 1960 c38 -11 71 -17 73 -15 5 5 -103 35 -125 34 -10 0 13 -9 52 -19z"/><path d="M1030 1960 c-8 -5 -10 -10 -5 -10 6 0 17 5 25 10 8 5 11 10 5 10 -5 0 -17 -5 -25 -10z"/><path d="M1198 1963 c7 -3 16 -2 19 1 4 3 -2 6 -13 5 -11 0 -14 -3 -6 -6z"/><path d="M1158 1953 c7 -3 16 -2 19 1 4 3 -2 6 -13 5 -11 0 -14 -3 -6 -6z"/><path d="M798 1925 c-20 -13 -39 -29 -43 -35 -3 -5 14 4 39 21 25 17 46 32 46 35 0 6 -1 5 -42 -21z"/><path d="M1118 1943 c7 -3 16 -2 19 1 4 3 -2 6 -13 5 -11 0 -14 -3 -6 -6z"/><path d="M1070 1934 c-8 -3 -31 -11 -50 -19 -19 -7 -44 -16 -54 -19 -10 -4 -17 -9 -14 -12 5 -4 137 41 147 51 5 6 -9 5 -29 -1z"/><path d="M2010 1917 c14 -8 36 -17 50 -21 l25 -7 -25 14 c-14 8 -36 17 -50 21 l-25 7 25 -14z"/><path d="M910 1905 c-14 -8 -20 -14 -15 -14 6 0 21 6 35 14 14 8 21 14 15 14 -5 0 -21 -6 -35 -14z"/><path d="M1388 1893 c39 -2 105 -2 145 0 39 1 7 3 -73 3 -80 0 -112 -2 -72 -3z"/><path d="M386 1875 c-3 -9 -6 -22 -5 -28 0 -7 5 -1 10 12 5 13 8 26 5 28 -2 2 -6 -3 -10 -12z"/><path d="M1185 1878 c-66 -12 -218 -59 -211 -65 2 -3 26 2 53 10 89 27 158 45 213 55 30 5 42 9 25 10 -16 0 -52 -4 -80 -10z"/><path d="M1618 1883 c6 -2 18 -2 25 0 6 3 1 5 -13 5 -14 0 -19 -2 -12 -5z"/><path d="M719 1863 c-13 -16 -12 -17 4 -4 9 7 17 15 17 17 0 8 -8 3 -21 -13z"/><path d="M835 1829 c-93 -52 -117 -69 -98 -69 6 0 16 7 23 15 7 8 16 15 20 15 3 0 42 20 86 45 43 25 74 45 69 45 -6 0 -50 -23 -100 -51z"/><path d="M1683 1873 c9 -2 23 -2 30 0 6 3 -1 5 -18 5 -16 0 -22 -2 -12 -5z"/><path d="M2089 1863 c13 -26 -3 -70 -28 -76 -14 -4 -14 -5 1 -6 17 -1 48 34 48 54 0 6 -7 20 -16 31 -15 18 -15 18 -5 -3z"/><path d="M581 1763 c-56 -58 -99 -108 -97 -111 3 -2 -5 -13 -17 -23 -12 -10 -19 -18 -15 -19 4 0 -6 -15 -23 -32 -16 -18 -29 -36 -29 -41 0 -10 12 2 74 78 27 33 68 79 90 103 22 23 36 42 31 42 -6 1 4 7 20 15 17 7 23 14 15 14 -9 1 1 16 25 41 21 22 36 40 33 40 -3 0 -52 -48 -107 -107z m9 -6 c0 -2 -10 -12 -22 -23 l-23 -19 19 23 c18 21 26 27 26 19z"/><path d="M1870 1820 c80 -27 152 -50 160 -50 16 0 -112 48 -215 81 -124 39 -84 17 55 -31z"/><path d="M804 1844 c-18 -14 -18 -15 4 -4 12 6 22 13 22 15 0 8 -5 6 -26 -11z"/><path d="M669 1823 l-24 -28 28 24 c25 23 32 31 24 31 -2 0 -14 -12 -28 -27z"/><path d="M366 1813 c-6 -14 -5 -15 5 -6 7 7 10 15 7 18 -3 3 -9 -2 -12 -12z"/><path d="M880 1780 c-19 -11 -30 -19 -25 -19 6 0 26 8 45 19 19 11 31 19 25 19 -5 0 -26 -8 -45 -19z"/><path d="M699 1773 c-13 -16 -12 -17 4 -4 9 7 17 15 17 17 0 8 -8 3 -21 -13z"/><path d="M2218 1773 c6 -2 18 -2 25 0 6 3 1 5 -13 5 -14 0 -19 -2 -12 -5z"/><path d="M345 1759 c-4 -6 -5 -12 -2 -15 2 -3 7 2 10 11 7 17 1 20 -8 4z"/><path d="M904 1759 c-3 -6 1 -17 10 -25 9 -8 11 -9 6 -2 -20 24 -8 28 80 28 90 0 101 -4 78 -30 -11 -12 -10 -12 5 -1 9 7 17 20 17 27 0 11 -21 14 -94 14 -58 0 -97 -4 -102 -11z"/><path d="M1548 1763 l182 -3 0 -54 c0 -43 -4 -56 -17 -60 -14 -4 -14 -4 2 -3 18 2 20 10 20 62 l0 60 -185 0 -185 1 183 -3z"/><path d="M2058 1763 c7 -3 16 -2 19 1 4 3 -2 6 -13 5 -11 0 -14 -3 -6 -6z"/><path d="M2595 1763 c93 -7 302 -7 292 -1 -7 4 -84 7 -172 6 -88 -1 -142 -3 -120 -5z"/><path d="M632 1724 c-23 -19 -41 -38 -39 -42 1 -4 -2 -8 -7 -9 -5 -1 -12 -5 -15 -10 -3 -5 -25 -23 -49 -42 -23 -18 -40 -37 -36 -42 3 -5 -1 -9 -8 -9 -7 -1 -34 -28 -61 -62 -34 -44 -46 -67 -41 -81 5 -15 3 -19 -9 -14 -11 4 -14 2 -10 -9 3 -7 0 -14 -6 -14 -6 0 -11 -4 -11 -10 0 -5 -8 -19 -17 -30 -13 -14 -20 -17 -30 -8 -10 8 -13 7 -15 -3 -3 -30 -4 -35 -17 -57 -7 -13 -10 -28 -7 -35 2 -7 5 -5 5 5 1 9 5 18 9 20 5 2 28 28 51 58 56 71 95 114 159 173 28 26 47 47 42 47 -5 0 -30 -20 -56 -45 -47 -46 -76 -55 -36 -12 12 13 19 27 15 31 -5 4 -3 6 2 4 15 -4 77 61 69 73 -3 6 0 9 8 7 18 -4 91 59 83 71 -3 5 14 25 37 45 24 20 40 36 37 36 -3 0 -24 -16 -47 -36z m-228 -279 c-6 -16 -24 -21 -24 -7 0 11 11 22 21 22 5 0 6 -7 3 -15z"/><path d="M667 1724 c-27 -20 -47 -38 -44 -40 2 -3 15 4 28 15 13 12 35 30 49 40 42 34 18 23 -33 -15z"/><path d="M778 1732 c-75 -43 -79 -55 -5 -16 62 32 79 45 60 43 -5 0 -29 -13 -55 -27z"/><path d="M1975 1740 c-3 -6 1 -7 9 -4 18 7 21 14 7 14 -6 0 -13 -4 -16 -10z"/><path d="M472 1710 c0 -14 2 -19 5 -12 2 6 2 18 0 25 -3 6 -5 1 -5 -13z"/><path d="M1376 1717 c3 -10 9 -15 12 -12 3 3 0 11 -7 18 -10 9 -11 8 -5 -6z"/><path d="M934 1450 c0 -140 2 -198 3 -127 2 70 2 184 0 255 -1 70 -3 12 -3 -128z"/><path d="M2133 1693 c15 -2 39 -2 55 0 15 2 2 4 -28 4 -30 0 -43 -2 -27 -4z"/><path d="M2584 1440 c0 -146 2 -205 3 -132 2 72 2 192 0 265 -1 72 -3 13 -3 -133z"/><path d="M1052 1458 c-1 -130 1 -239 6 -241 4 -3 6 65 4 151 -4 297 -8 326 -10 90z"/><path d="M660 1660 c-14 -11 -20 -20 -15 -20 6 0 21 9 35 20 14 11 21 20 15 20 -5 0 -21 -9 -35 -20z"/><path d="M1628 1673 c7 -3 16 -2 19 1 4 3 -2 6 -13 5 -11 0 -14 -3 -6 -6z"/><path d="M2460 1655 c13 -14 26 -25 28 -25 3 0 -5 11 -18 25 -13 14 -26 25 -28 25 -3 0 5 -11 18 -25z"/><path d="M1849 1643 c-13 -16 -12 -17 4 -4 16 13 21 21 13 21 -2 0 -10 -8 -17 -17z"/><path d="M3012 1620 c0 -19 2 -27 5 -17 2 9 2 25 0 35 -3 9 -5 1 -5 -18z"/><path d="M1959 1613 c-13 -16 -12 -17 4 -4 16 13 21 21 13 21 -2 0 -10 -8 -17 -17z"/><path d="M1815 1599 c-4 -6 -5 -12 -2 -15 2 -3 7 2 10 11 7 17 1 20 -8 4z"/><path d="M390 1569 c-7 -11 -10 -23 -7 -25 2 -2 9 7 15 21 14 30 7 33 -8 4z"/><path d="M1906 1525 c-9 -26 -7 -32 5 -12 6 10 9 21 6 23 -2 3 -7 -2 -11 -11z"/><path d="M356 1515 c4 -8 2 -15 -4 -15 -14 0 -32 -54 -22 -69 4 -8 11 -2 20 18 7 17 17 31 22 31 5 0 6 10 3 21 -5 16 -4 19 5 14 9 -5 11 -4 6 3 -11 18 -36 15 -30 -3z"/><path d="M2964 1488 l-29 -33 33 29 c30 28 37 36 29 36 -2 0 -16 -15 -33 -32z"/><path d="M540 1495 c0 -5 5 -17 10 -25 5 -8 10 -10 10 -5 0 6 -5 17 -10 25 -5 8 -10 11 -10 5z"/><path d="M1672 1470 c0 -19 2 -27 5 -17 2 9 2 25 0 35 -3 9 -5 1 -5 -18z"/><path d="M236 1473 c-6 -14 -5 -15 5 -6 7 7 10 15 7 18 -3 3 -9 -2 -12 -12z"/><path d="M2553 1445 c0 -27 2 -38 4 -22 2 15 2 37 0 50 -2 12 -4 0 -4 -28z"/><path d="M1772 1440 c0 -19 2 -27 5 -17 2 9 2 25 0 35 -3 9 -5 1 -5 -18z"/><path d="M2432 1440 c0 -19 2 -27 5 -17 2 9 2 25 0 35 -3 9 -5 1 -5 -18z"/><path d="M716 1437 c3 -10 9 -15 12 -12 3 3 0 11 -7 18 -10 9 -11 8 -5 -6z"/><path d="M1504 1330 c0 -58 1 -81 3 -52 2 28 2 76 0 105 -2 28 -3 5 -3 -53z"/><path d="M306 1412 c-3 -5 1 -9 9 -9 8 0 12 4 9 9 -3 4 -7 8 -9 8 -2 0 -6 -4 -9 -8z"/><path d="M1648 1413 c7 -3 16 -2 19 1 4 3 -2 6 -13 5 -11 0 -14 -3 -6 -6z"/><path d="M570 1391 c0 -6 4 -13 10 -16 6 -3 7 1 4 9 -7 18 -14 21 -14 7z"/><path d="M306 1375 c-9 -26 -7 -32 5 -12 6 10 9 21 6 23 -2 3 -7 -2 -11 -11z"/><path d="M1900 1375 c0 -5 5 -17 10 -25 5 -8 10 -10 10 -5 0 6 -5 17 -10 25 -5 8 -10 11 -10 5z"/><path d="M746 1337 c3 -10 9 -15 12 -12 3 3 0 11 -7 18 -10 9 -11 8 -5 -6z"/><path d="M2526 1323 c-6 -14 -5 -15 5 -6 7 7 10 15 7 18 -3 3 -9 -2 -12 -12z"/><path d="M1930 1310 c6 -11 13 -20 16 -20 2 0 0 9 -6 20 -6 11 -13 20 -16 20 -2 0 0 -9 6 -20z"/><path d="M601 1304 c0 -11 3 -14 6 -6 3 7 2 16 -1 19 -3 4 -6 -2 -5 -13z"/><path d="M2950 1296 c0 -2 8 -10 18 -17 15 -13 16 -12 3 4 -13 16 -21 21 -21 13z"/><path d="M2349 1263 l-24 -28 28 24 c25 23 32 31 24 31 -2 0 -14 -12 -28 -27z"/><path d="M771 1264 c0 -11 3 -14 6 -6 3 7 2 16 -1 19 -3 4 -6 -2 -5 -13z"/><path d="M1329 1243 c-13 -17 -13 -17 4 -4 16 13 20 13 29 0 8 -12 9 -12 6 0 -6 22 -23 24 -39 4z"/><path d="M1980 1256 c0 -2 8 -10 18 -17 15 -13 16 -12 3 4 -13 16 -21 21 -21 13z"/><path d="M225 1199 c-5 -15 0 -27 16 -43 l23 -21 -18 22 c-11 14 -15 29 -11 42 3 12 4 21 1 21 -2 0 -8 -10 -11 -21z"/><path d="M2230 1200 c-21 -7 -21 -8 -5 -9 11 0 27 4 35 9 18 11 5 11 -30 0z"/><path d="M1168 1193 c12 -2 30 -2 40 0 9 3 -1 5 -23 4 -22 0 -30 -2 -17 -4z"/><path d="M2409 1183 c-13 -16 -12 -17 4 -4 16 13 21 21 13 21 -2 0 -10 -8 -17 -17z"/><path d="M903 1158 c-19 -18 -24 -19 -38 -8 -8 7 -18 10 -22 7 -3 -4 2 -10 11 -13 13 -5 14 -9 5 -14 -7 -5 -2 -7 14 -7 14 1 23 4 21 6 -2 3 6 15 18 28 27 29 20 30 -9 1z"/><path d="M1360 1155 c-6 -8 -10 -19 -8 -24 1 -6 8 1 15 14 13 28 11 31 -7 10z"/><path d="M1947 1159 c7 -7 15 -10 18 -7 3 3 -2 9 -12 12 -14 6 -15 5 -6 -5z"/><path d="M71 1147 c-6 -8 -8 -17 -4 -20 11 -12 19 -7 20 13 2 24 -1 25 -16 7z"/><path d="M1773 1146 c-5 -10 -29 -16 -68 -19 l-60 -3 62 -2 c53 -2 64 1 73 18 12 23 5 28 -7 6z"/><path d="M2550 1140 c-8 -15 -8 -20 3 -20 7 0 13 9 13 20 0 11 -1 20 -3 20 -1 0 -7 -9 -13 -20z"/><path d="M3119 1151 c7 -5 10 -14 7 -20 -4 -6 -3 -11 3 -11 5 0 13 5 17 11 7 11 -12 29 -31 29 -5 0 -4 -4 4 -9z"/><path d="M1306 1135 c-11 -8 -15 -15 -9 -15 6 0 16 7 23 15 16 19 11 19 -14 0z"/><path d="M2017 1129 c7 -7 15 -10 18 -7 3 3 -2 9 -12 12 -14 6 -15 5 -6 -5z"/><path d="M2660 1130 l-85 -6 88 -2 c52 -1 87 2 87 8 0 6 -1 9 -2 8 -2 -1 -41 -5 -88 -8z"/><path d="M143 1123 c15 -2 39 -2 55 0 15 2 2 4 -28 4 -30 0 -43 -2 -27 -4z"/><path d="M798 1123 c7 -3 16 -2 19 1 4 3 -2 6 -13 5 -11 0 -14 -3 -6 -6z"/><path d="M1038 1123 c45 -2 119 -2 165 0 45 1 8 3 -83 3 -91 0 -128 -2 -82 -3z"/><path d="M1453 1123 c37 -2 96 -2 130 0 34 2 4 3 -68 3 -71 0 -99 -1 -62 -3z"/><path d="M3023 1123 c15 -2 37 -2 50 0 12 2 0 4 -28 4 -27 0 -38 -2 -22 -4z"/><path d="M2153 1103 c15 -2 37 -2 50 0 12 2 0 4 -28 4 -27 0 -38 -2 -22 -4z"/><path d="M1918 1008 c6 -7 12 -26 14 -42 3 -28 4 -28 18 -11 8 10 10 16 4 12 -7 -4 -14 5 -18 23 -3 17 -11 30 -17 30 -8 0 -8 -4 -1 -12z"/><path d="M2974 1009 c-4 -8 -3 -9 5 -5 6 4 14 0 17 -9 5 -12 9 -13 20 -4 8 6 14 17 14 23 0 6 -4 5 -9 -3 -8 -12 -12 -12 -24 -2 -12 9 -17 9 -23 0z"/><path d="M600 991 c-12 -23 -14 -114 -2 -107 5 3 8 22 7 43 -2 21 1 48 6 61 10 27 4 29 -11 3z"/><path d="M757 1003 c-4 -3 -7 -15 -7 -26 0 -17 -2 -18 -17 -6 -16 13 -17 12 -4 -3 19 -26 28 -22 33 12 5 32 5 33 -5 23z"/><path d="M1183 1003 c9 -2 23 -2 30 0 6 3 -1 5 -18 5 -16 0 -22 -2 -12 -5z"/><path d="M2168 1003 c6 -2 18 -2 25 0 6 3 1 5 -13 5 -14 0 -19 -2 -12 -5z"/><path d="M640 995 c0 -5 5 -17 10 -25 8 -13 11 -13 22 -1 8 9 9 12 1 7 -6 -3 -16 2 -22 11 -6 10 -10 14 -11 8z"/><path d="M2643 940 c0 -36 2 -50 4 -32 2 17 2 47 0 65 -2 17 -4 3 -4 -33z"/><path d="M3046 988 c3 -5 10 -6 15 -3 13 9 11 12 -6 12 -8 0 -12 -4 -9 -9z"/><path d="M240 986 c0 -2 8 -10 18 -17 15 -13 16 -12 3 4 -13 16 -21 21 -21 13z"/><path d="M1233 969 c-2 -23 3 -25 10 -4 4 8 3 16 -1 19 -4 3 -9 -4 -9 -15z"/><path d="M2334 979 c-3 -6 -8 -32 -9 -58 -1 -25 0 -37 3 -26 l5 20 8 -20 c5 -13 7 0 6 37 -2 62 -2 63 -13 47z"/><path d="M186 965 c-11 -8 -17 -17 -14 -20 2 -3 13 4 23 15 21 23 18 25 -9 5z"/><path d="M494 958 l-19 -23 23 19 c21 18 27 26 19 26 -2 0 -12 -10 -23 -22z"/><path d="M809 963 c-13 -16 -12 -17 4 -4 9 7 17 15 17 17 0 8 -8 3 -21 -13z"/><path d="M1370 976 c0 -2 8 -10 18 -17 15 -13 16 -12 3 4 -13 16 -21 21 -21 13z"/><path d="M1697 969 c7 -7 15 -10 18 -7 3 3 -2 9 -12 12 -14 6 -15 5 -6 -5z"/><path d="M2035 969 c-4 -6 -5 -12 -2 -15 2 -3 7 2 10 11 7 17 1 20 -8 4z"/><path d="M2087 961 c-4 -17 -3 -21 5 -13 5 5 8 16 6 23 -3 8 -7 3 -11 -10z"/><path d="M2520 966 c4 -4 16 -4 26 2 16 9 14 10 -8 9 -15 -1 -23 -6 -18 -11z"/><path d="M2963 928 l2 -47 -45 -4 c-25 -2 -6 -4 43 -5 l87 -2 0 36 c0 21 4 33 10 29 6 -3 10 -1 10 5 0 26 -25 1 -28 -28 -4 -41 -22 -42 -22 -1 0 17 -4 28 -10 24 -5 -3 -10 -18 -10 -31 0 -43 -24 -22 -32 27 l-6 44 1 -47z"/><path d="M2748 933 c5 -21 7 -23 10 -9 2 10 0 22 -6 28 -6 6 -7 0 -4 -19z"/><path d="M131 927 c-13 -21 -12 -21 5 -5 10 10 16 20 13 22 -3 3 -11 -5 -18 -17z"/><path d="M1000 910 c0 -22 2 -40 4 -40 2 0 6 18 8 40 2 22 0 40 -4 40 -5 0 -8 -18 -8 -40z"/><path d="M1290 931 c0 -11 4 -22 9 -25 4 -3 6 6 3 19 -5 30 -12 33 -12 6z"/><path d="M1706 943 c7 -4 14 -17 17 -28 5 -16 5 -15 4 4 -1 14 -9 26 -17 28 -10 3 -11 2 -4 -4z"/><path d="M1820 941 c0 -6 4 -13 10 -16 6 -3 7 1 4 9 -7 18 -14 21 -14 7z"/><path d="M3153 915 c0 -22 2 -30 4 -17 2 12 2 30 0 40 -3 9 -5 -1 -4 -23z"/><path d="M392 915 c0 -16 2 -22 5 -12 2 9 2 23 0 30 -3 6 -5 -1 -5 -18z"/><path d="M432 915 c0 -16 2 -22 5 -12 2 9 2 23 0 30 -3 6 -5 -1 -5 -18z"/><path d="M452 910 c0 -19 2 -27 5 -17 2 9 2 25 0 35 -3 9 -5 1 -5 -18z"/><path d="M641 910 c0 -29 1 -32 10 -17 7 11 7 23 0 35 -9 14 -10 11 -10 -18z"/><path d="M680 931 c0 -6 4 -13 10 -16 6 -3 7 1 4 9 -7 18 -14 21 -14 7z"/><path d="M1882 910 c0 -19 2 -27 5 -17 2 9 2 25 0 35 -3 9 -5 1 -5 -18z"/><path d="M2000 932 c0 -6 -8 -13 -17 -15 -16 -4 -16 -5 -1 -6 18 -1 34 16 24 26 -3 4 -6 1 -6 -5z"/><path d="M2422 920 c0 -14 2 -19 5 -12 2 6 2 18 0 25 -3 6 -5 1 -5 -13z"/><path d="M2845 917 c-4 -15 -5 -31 -1 -34 3 -4 6 2 6 12 0 15 2 16 18 4 15 -12 16 -12 6 1 -6 8 -14 22 -16 30 -4 10 -8 6 -13 -13z"/><path d="M1770 921 c0 -5 7 -12 16 -15 14 -5 15 -4 4 9 -14 17 -20 19 -20 6z"/><path d="M2684 915 c-3 -8 -4 -20 -1 -27 3 -7 6 -3 6 9 1 12 7 24 14 26 9 4 9 6 -1 6 -7 1 -15 -6 -18 -14z"/><path d="M1596 903 c-6 -14 -5 -15 5 -6 7 7 10 15 7 18 -3 3 -9 -2 -12 -12z"/><path d="M2520 901 c0 -12 -8 -21 -22 -24 -13 -2 -3 -5 22 -5 25 0 39 2 33 5 -7 2 -13 11 -13 18 0 8 -4 17 -10 20 -5 3 -10 -3 -10 -14z"/><path d="M3090 901 c0 -11 -8 -22 -17 -24 -14 -4 -12 -5 5 -6 17 -1 22 4 22 24 0 14 -2 25 -5 25 -3 0 -5 -9 -5 -19z"/><path d="M890 906 c0 -2 7 -7 16 -10 8 -3 12 -2 9 4 -6 10 -25 14 -25 6z"/><path d="M1930 906 c0 -2 8 -10 18 -17 15 -13 16 -12 3 4 -13 16 -21 21 -21 13z"/><path d="M2020 895 c-11 -13 -10 -14 4 -9 9 3 16 10 16 15 0 13 -6 11 -20 -6z"/><path d="M2571 894 c0 -11 3 -14 6 -6 3 7 2 16 -1 19 -3 4 -6 -2 -5 -13z"/><path d="M486 892 c-2 -4 4 -8 14 -8 10 0 16 4 14 8 -3 4 -9 8 -14 8 -5 0 -11 -4 -14 -8z"/><path d="M736 892 c-3 -5 1 -9 9 -9 8 0 15 4 15 9 0 4 -4 8 -9 8 -6 0 -12 -4 -15 -8z"/><path d="M1629 888 c7 -10 25 -17 40 -17 l26 2 -25 4 c-14 3 -32 10 -40 16 -13 11 -13 10 -1 -5z"/><path d="M2249 888 c7 -10 23 -17 35 -17 20 1 20 2 1 6 -11 3 -27 10 -35 17 -13 10 -13 9 -1 -6z"/><path d="M230 880 l-35 -7 32 -2 c17 0 35 4 38 9 3 6 5 9 3 9 -2 -1 -19 -5 -38 -9z"/><path d="M98 873 c12 -2 32 -2 45 0 12 2 2 4 -23 4 -25 0 -35 -2 -22 -4z"/><path d="M1448 873 c7 -3 16 -2 19 1 4 3 -2 6 -13 5 -11 0 -14 -3 -6 -6z"/><path d="M2168 873 c6 -2 18 -2 25 0 6 3 1 5 -13 5 -14 0 -19 -2 -12 -5z"/><path d="M1046 855 c-11 -8 -15 -15 -9 -15 6 0 16 7 23 15 16 19 11 19 -14 0z"/><path d="M918 848 c5 -5 16 -8 23 -6 8 3 3 7 -10 11 -17 4 -21 3 -13 -5z"/><path d="M968 843 c7 -3 16 -2 19 1 4 3 -2 6 -13 5 -11 0 -14 -3 -6 -6z"/></g><g transform="translate(0.000000,320.000000) scale(0.100000,-0.100000)" fill="#06A5F2" stroke="none"><path d="M1475 2155 c-181 -20 -320 -59 -473 -132 -85 -41 -277 -164 -332 -213 -102 -92 -178 -171 -206 -215 -10 -16 -29 -41 -41 -55 -13 -14 -23 -29 -23 -33 0 -9 9 0 58 57 31 36 146 145 203 191 106 88 321 202 464 247 182 56 381 78 542 58 195 -24 225 -18 210 41 -8 32 -48 46 -152 54 -44 3 -93 7 -110 9 -16 2 -79 -2 -140 -9z"/><path d="M679 1933 c-13 -16 -12 -17 4 -4 9 7 17 15 17 17 0 8 -8 3 -21 -13z"/></g><g transform="translate(0.000000,320.000000) scale(0.100000,-0.100000)" fill="#4CD2FF" stroke="none"><path d="M1490 2346 c0 -2 9 -6 20 -9 11 -3 18 -1 14 4 -5 9 -34 13 -34 5z"/><path d="M1408 2333 c7 -3 16 -2 19 1 4 3 -2 6 -13 5 -11 0 -14 -3 -6 -6z"/><path d="M1115 2240 c-3 -6 1 -7 9 -4 18 7 21 14 7 14 -6 0 -13 -4 -16 -10z"/><path d="M1433 2233 c9 -2 23 -2 30 0 6 3 -1 5 -18 5 -16 0 -22 -2 -12 -5z"/><path d="M1200 2180 c-8 -5 -10 -10 -5 -10 6 0 17 5 25 10 8 5 11 10 5 10 -5 0 -17 -5 -25 -10z"/><path d="M1513 2163 c15 -2 37 -2 50 0 12 2 0 4 -28 4 -27 0 -38 -2 -22 -4z"/><path d="M1695 2160 c97 -10 119 -14 150 -24 11 -4 8 0 -8 9 -19 11 -60 17 -130 20 l-102 4 90 -9z"/><path d="M1418 2153 c12 -2 30 -2 40 0 9 3 -1 5 -23 4 -22 0 -30 -2 -17 -4z"/><path d="M1358 2143 c7 -3 16 -2 19 1 4 3 -2 6 -13 5 -11 0 -14 -3 -6 -6z"/><path d="M1308 2133 c6 -2 18 -2 25 0 6 3 1 5 -13 5 -14 0 -19 -2 -12 -5z"/><path d="M1228 2113 c7 -3 16 -2 19 1 4 3 -2 6 -13 5 -11 0 -14 -3 -6 -6z"/><path d="M1878 2095 c2 -14 -2 -33 -9 -43 -13 -15 -12 -16 4 -3 18 14 23 56 8 65 -4 3 -6 -6 -3 -19z"/><path d="M834 2068 l-19 -23 23 19 c21 18 27 26 19 26 -2 0 -12 -10 -23 -22z"/><path d="M1110 2080 c-13 -9 -13 -10 0 -10 8 0 22 5 30 10 13 9 13 10 0 10 -8 0 -22 -5 -30 -10z"/><path d="M1503 2063 c26 -2 68 -2 95 0 26 2 4 3 -48 3 -52 0 -74 -1 -47 -3z"/><path d="M1373 2053 c9 -2 23 -2 30 0 6 3 -1 5 -18 5 -16 0 -22 -2 -12 -5z"/><path d="M1693 2053 c9 -2 23 -2 30 0 6 3 -1 5 -18 5 -16 0 -22 -2 -12 -5z"/><path d="M784 2028 l-19 -23 23 19 c21 18 27 26 19 26 -2 0 -12 -10 -23 -22z"/><path d="M1010 2035 c-14 -8 -20 -14 -15 -14 6 0 21 6 35 14 14 8 21 14 15 14 -5 0 -21 -6 -35 -14z"/><path d="M1303 2043 c9 -2 23 -2 30 0 6 3 -1 5 -18 5 -16 0 -22 -2 -12 -5z"/><path d="M1748 2043 c6 -2 18 -2 25 0 6 3 1 5 -13 5 -14 0 -19 -2 -12 -5z"/><path d="M1208 2023 c7 -3 16 -2 19 1 4 3 -2 6 -13 5 -11 0 -14 -3 -6 -6z"/><path d="M950 2005 c-14 -8 -20 -14 -14 -15 5 0 19 7 30 15 24 18 16 19 -16 0z"/><path d="M724 1978 l-29 -33 33 29 c30 28 37 36 29 36 -2 0 -16 -15 -33 -32z"/><path d="M829 1983 c-13 -16 -12 -17 4 -4 9 7 17 15 17 17 0 8 -8 3 -21 -13z"/><path d="M1108 1993 c7 -3 16 -2 19 1 4 3 -2 6 -13 5 -11 0 -14 -3 -6 -6z"/><path d="M1340 1985 c-204 -28 -388 -94 -565 -202 -11 -7 -27 -16 -35 -20 -37 -19 -100 -66 -100 -74 0 -5 -5 -9 -10 -9 -24 0 -259 -234 -247 -246 2 -3 29 19 59 48 84 82 231 198 252 198 3 0 22 11 42 25 88 60 303 143 439 171 39 8 140 17 225 20 210 9 345 -13 536 -87 91 -35 134 -34 152 6 19 41 -1 69 -73 98 -187 77 -442 104 -675 72z"/><path d="M853 1950 c-18 -11 -33 -22 -33 -25 0 -2 16 5 35 16 19 12 35 23 35 25 0 6 -3 5 -37 -16z"/><path d="M990 1950 c-8 -5 -10 -10 -5 -10 6 0 17 5 25 10 8 5 11 10 5 10 -5 0 -17 -5 -25 -10z"/><path d="M749 1923 c-13 -16 -12 -17 4 -4 9 7 17 15 17 17 0 8 -8 3 -21 -13z"/><path d="M943 1930 c-13 -5 -23 -11 -23 -14 0 -7 40 6 46 15 6 10 6 10 -23 -1z"/><path d="M779 1899 l-24 -20 28 17 c15 9 27 18 27 20 0 8 -8 4 -31 -17z"/><path d="M704 1888 l-19 -23 23 19 c21 18 27 26 19 26 -2 0 -12 -10 -23 -22z"/><path d="M853 1884 c-59 -35 -54 -41 5 -8 56 33 58 34 46 34 -5 0 -28 -12 -51 -26z"/><path d="M609 1863 l-24 -28 28 24 c25 23 32 31 24 31 -2 0 -14 -12 -28 -27z"/><path d="M729 1863 c-13 -16 -12 -17 4 -4 9 7 17 15 17 17 0 8 -8 3 -21 -13z"/><path d="M684 1828 l-19 -23 23 19 c21 18 27 26 19 26 -2 0 -12 -10 -23 -22z"/><path d="M739 1809 l-24 -20 28 17 c15 9 27 18 27 20 0 8 -8 4 -31 -17z"/><path d="M690 1780 c-8 -5 -12 -12 -9 -15 4 -3 12 1 19 10 14 17 11 19 -10 5z"/><path d="M594 1748 l-29 -33 33 29 c17 17 32 31 32 33 0 8 -8 1 -36 -29z"/><path d="M570 1673 l-55 -58 58 55 c31 30 57 56 57 57 0 8 -10 -1 -60 -54z"/><path d="M534 1688 l-19 -23 23 19 c21 18 27 26 19 26 -2 0 -12 -10 -23 -22z"/><path d="M489 1603 c-13 -16 -12 -17 4 -4 9 7 17 15 17 17 0 8 -8 3 -21 -13z"/><path d="M415 1599 c-3 -4 2 -6 10 -5 21 3 28 13 10 13 -9 0 -18 -4 -20 -8z"/><path d="M446 1581 c-3 -5 -16 -7 -29 -4 -13 4 -19 2 -14 -3 5 -5 13 -10 18 -10 5 -1 14 -2 20 -3 5 0 7 -6 4 -11 -4 -7 -13 -6 -27 1 -23 12 -42 -5 -33 -29 3 -7 0 -10 -5 -7 -14 9 -12 -9 2 -23 9 -9 9 -12 -4 -12 -9 0 -27 -26 -47 -70 -36 -82 -38 -91 -11 -62 11 12 20 26 20 32 0 5 5 10 11 10 6 0 9 7 6 14 -4 11 -1 13 10 9 12 -5 14 -1 9 14 -5 14 2 30 20 52 21 26 24 34 14 46 -7 9 -10 18 -6 22 3 3 6 1 6 -4 0 -12 25 -12 37 0 6 7 13 47 7 47 -2 0 -5 -4 -8 -9z"/></g><g transform="translate(0.000000,320.000000) scale(0.100000,-0.100000)" fill="#FFFFFF" stroke="none"><path d="M0 1600 l0 -1600 1600 0 1600 0 0 1600 0 1600 -1600 0 -1600 0 0 -1600z m1543 736 c30 -23 20 -69 -22 -90 -14 -7 -48 -17 -76 -20 -65 -10 -217 -46 -230 -56 -5 -4 -28 -13 -50 -20 -71 -23 -251 -119 -320 -171 -24 -19 -70 -53 -102 -76 -32 -23 -76 -61 -98 -84 -46 -49 -27 -38 71 41 275 222 640 335 999 311 115 -8 137 -15 169 -50 42 -47 -18 -111 -85 -90 -19 6 -108 13 -199 16 -201 7 -365 -16 -495 -67 -11 -4 -36 -14 -55 -21 -75 -27 -199 -90 -277 -142 -95 -62 -192 -138 -193 -150 0 -5 12 1 28 13 110 86 273 180 407 234 83 34 283 76 415 88 116 9 155 9 277 -6 134 -16 194 -31 319 -77 38 -14 56 -28 69 -53 17 -32 17 -36 2 -59 -28 -44 -68 -42 -209 7 -69 25 -166 52 -215 60 -156 28 -445 16 -553 -23 -14 -5 -61 -19 -105 -31 -115 -32 -355 -155 -355 -181 0 -13 50 -170 60 -189 4 -9 11 -31 16 -50 10 -43 9 -42 17 -60 3 -8 14 -40 23 -70 23 -71 39 -96 77 -115 29 -14 32 -14 54 7 23 21 23 22 23 286 0 229 -2 268 -16 283 -28 31 -8 39 92 39 101 0 108 -4 74 -47 -19 -24 -20 -41 -20 -265 0 -218 2 -239 18 -246 9 -4 58 -7 108 -7 84 0 93 2 128 29 54 41 65 23 29 -50 l-28 -59 -352 -2 c-309 -2 -353 -1 -353 13 0 8 7 17 15 20 16 7 21 59 6 68 -4 3 -16 34 -25 68 -9 35 -21 72 -26 83 -4 11 -18 53 -31 93 -12 39 -25 72 -29 72 -10 0 -157 -153 -201 -210 -24 -30 -46 -56 -51 -58 -4 -2 -8 -10 -8 -18 0 -8 -4 -14 -9 -14 -17 0 -22 -62 -6 -80 32 -35 19 -41 -82 -38 -102 3 -116 11 -67 39 16 8 31 24 33 35 2 10 6 21 10 24 3 3 17 37 30 75 13 39 31 86 40 105 8 19 15 37 16 40 1 10 78 206 96 247 11 23 19 48 19 55 0 8 4 18 8 24 5 5 15 29 22 54 7 25 19 56 26 70 7 14 26 63 44 110 17 47 34 91 39 99 10 20 30 25 35 9 2 -7 12 -40 21 -73 10 -33 24 -80 32 -105 8 -25 17 -51 19 -59 3 -9 34 15 87 68 102 101 239 202 354 261 48 25 90 47 93 50 10 12 186 75 240 86 75 17 161 16 183 0z m776 -586 c121 -47 197 -128 231 -246 17 -58 0 -158 -36 -216 -56 -88 -152 -151 -275 -178 -59 -13 -187 -2 -227 19 -9 6 -33 17 -54 26 -49 22 -117 92 -153 156 -25 46 -29 64 -28 129 1 195 165 337 391 339 58 1 88 -5 151 -29z m-581 -43 c3 -63 -13 -83 -43 -53 -20 20 -6 16 -102 23 l-83 5 0 -81 0 -81 79 0 c90 0 99 -8 86 -77 -5 -31 -9 -34 -28 -28 -12 4 -48 10 -79 12 l-58 5 0 -106 c0 -125 -4 -121 115 -121 64 0 90 5 128 23 26 13 47 28 47 33 0 5 5 9 10 9 14 0 12 -26 -4 -63 -7 -18 -18 -44 -24 -59 l-12 -28 -210 0 c-145 0 -210 3 -210 11 0 6 9 22 20 36 19 24 20 41 20 277 -1 199 -4 256 -15 276 -29 51 -29 51 173 48 l187 -3 3 -58z m1168 47 c84 -35 119 -89 108 -171 -8 -68 -45 -114 -109 -139 l-45 -17 35 -48 c86 -119 181 -214 225 -223 56 -11 30 -31 -44 -34 -114 -5 -147 21 -297 231 -33 45 -59 87 -59 93 0 7 17 15 38 19 76 14 139 87 125 147 -11 47 -47 68 -113 68 l-61 0 3 -253 c3 -226 5 -255 21 -271 9 -10 17 -22 17 -27 0 -5 -47 -9 -105 -9 -103 0 -105 1 -95 20 6 11 15 20 20 20 6 0 10 106 10 277 0 239 -2 279 -16 294 -30 33 -8 39 150 39 118 0 163 -4 192 -16z m-969 -765 c4 -21 9 -27 16 -20 15 15 67 14 67 -1 0 -9 3 -9 12 0 18 18 68 15 68 -3 0 -9 -7 -18 -15 -21 -8 -4 -15 -18 -15 -33 0 -27 -2 -27 -59 -29 -61 -2 -75 5 -84 43 -3 13 -5 9 -6 -12 -1 -26 -5 -33 -21 -33 -18 0 -20 7 -20 54 0 36 5 60 16 70 23 24 34 20 41 -15z m1081 19 c3 10 8 9 23 -4 17 -15 19 -15 25 0 8 22 21 20 29 -4 3 -11 15 -20 25 -20 24 0 40 -29 40 -69 0 -24 -4 -31 -20 -31 -16 0 -20 7 -20 30 0 17 -4 30 -10 30 -5 0 -10 -16 -10 -35 0 -28 -4 -35 -20 -35 -16 0 -20 7 -22 38 l-1 37 -4 -37 -4 -38 -81 0 c-71 0 -82 3 -99 23 -16 19 -18 19 -19 5 0 -14 -9 -18 -40 -18 -27 0 -42 6 -49 18 -10 16 -10 16 -11 0 0 -11 -8 -18 -20 -18 -13 0 -20 7 -20 20 0 11 -4 20 -10 20 -5 0 -10 -9 -10 -20 0 -15 -7 -20 -25 -20 -24 0 -25 3 -25 59 0 45 4 60 16 65 20 8 20 7 33 -24 l9 -25 11 27 c13 35 41 27 41 -11 1 -24 2 -24 14 -8 20 25 75 23 85 -5 l8 -21 16 23 c13 18 23 22 56 18 33 -3 41 0 41 13 0 24 11 30 28 16 12 -10 16 -9 20 1z m-2856 -21 c4 -6 9 -16 11 -22 2 -6 9 -6 18 1 29 23 59 23 74 1 13 -18 15 -19 15 -4 0 15 12 17 100 17 86 0 100 -2 100 -17 0 -15 1 -15 18 0 11 10 35 17 59 17 27 0 43 5 47 15 8 21 33 19 45 -3 7 -14 18 -18 41 -14 16 2 37 -1 44 -7 12 -10 15 -8 18 11 2 12 11 24 21 26 15 3 17 -5 17 -61 l0 -65 -57 -1 c-31 0 -63 5 -70 11 -9 7 -13 7 -13 0 0 -7 -37 -10 -100 -10 l-100 0 -1 32 -1 31 -7 -30 c-4 -21 -12 -30 -26 -30 -14 0 -22 9 -26 30 l-7 30 -1 -32 c-1 -26 -5 -33 -21 -33 -16 0 -20 7 -20 30 0 17 -4 30 -10 30 -5 0 -10 -13 -10 -30 0 -23 -4 -30 -20 -30 -14 0 -20 7 -21 23 -1 21 -1 21 -8 -3 -5 -18 -15 -26 -34 -28 -31 -4 -53 14 -60 49 -4 23 -4 22 -6 -3 0 -16 -6 -28 -12 -28 -5 0 -7 -5 -4 -11 5 -7 -8 -9 -37 -7 l-43 3 -5 58 c-4 46 -2 61 10 68 19 12 71 3 82 -14z m1068 8 c7 -8 25 -15 41 -15 21 0 29 -5 29 -17 1 -17 1 -17 11 0 14 23 64 22 81 -2 14 -20 14 -20 26 0 7 10 21 19 32 19 11 0 20 7 20 15 0 8 9 15 20 15 18 0 20 -7 20 -64 0 -63 0 -64 -31 -70 -36 -7 -69 8 -70 32 0 14 -2 14 -6 2 -9 -22 -24 -30 -59 -30 -26 0 -35 6 -48 33 l-16 32 0 -32 c0 -26 -4 -33 -20 -33 -16 0 -20 7 -20 35 0 34 -1 34 -20 18 -11 -10 -20 -25 -20 -35 0 -11 -8 -18 -20 -18 -18 0 -20 7 -20 58 0 32 3 62 7 65 12 12 50 7 63 -8z m530 1 c0 -10 13 -16 38 -18 37 -3 37 -3 37 -48 0 -43 -1 -45 -32 -48 -31 -3 -33 -1 -35 30 l-1 33 -4 -32 c-3 -25 -9 -33 -24 -33 -14 0 -19 7 -19 30 0 28 -3 30 -36 30 -24 0 -34 -4 -32 -12 3 -7 15 -13 29 -13 35 0 38 -32 3 -41 -49 -12 -74 23 -59 83 6 24 9 25 51 20 38 -4 44 -2 44 14 0 12 7 19 20 19 11 0 20 -6 20 -14z m454 -5 c10 -11 14 -26 10 -37 -5 -15 -2 -14 14 5 16 20 25 23 56 18 29 -5 39 -2 49 14 15 24 37 25 37 2 1 -16 2 -16 16 2 15 20 15 20 30 1 8 -11 14 -27 14 -35 1 -14 2 -14 10 1 8 13 25 16 80 16 72 0 88 -11 55 -38 -10 -8 -13 -21 -9 -33 8 -25 -10 -37 -56 -37 -43 0 -77 22 -83 53 -3 16 -5 13 -6 -10 -1 -44 -31 -46 -31 -3 0 17 -4 30 -10 30 -5 0 -10 -13 -10 -30 0 -23 -4 -30 -20 -30 -12 0 -20 7 -21 18 -1 15 -2 15 -6 0 -2 -9 -18 -20 -36 -24 -25 -5 -34 -2 -49 16 -10 12 -18 17 -18 11 0 -17 -40 -33 -66 -27 -22 6 -24 11 -24 65 0 38 4 61 13 64 24 10 44 7 61 -12z m-1329 -28 c16 -16 18 -16 27 0 7 13 22 17 69 16 52 -1 62 -5 68 -22 8 -21 8 -21 20 1 13 24 41 30 41 10 -1 -22 -54 -122 -67 -126 -9 -2 -13 9 -13 35 0 51 -19 83 -20 33 -1 -50 -21 -72 -62 -68 -27 2 -33 7 -33 27 0 14 -6 26 -13 29 -6 2 -12 -1 -12 -7 0 -15 -63 -14 -78 1 -15 15 -15 61 0 76 17 17 54 15 73 -5z m665 -12 c0 -17 5 -33 10 -36 6 -4 10 8 10 29 0 29 4 36 20 36 17 0 20 -7 20 -39 0 -45 -18 -64 -57 -59 -26 3 -28 7 -31 51 -2 37 0 47 12 47 11 0 16 -9 16 -29z"/><path d="M445 1750 c-4 -14 -16 -43 -25 -65 -35 -77 -60 -155 -50 -155 6 0 10 5 10 12 0 7 20 42 45 79 44 66 52 94 36 134 -8 19 -8 19 -16 -5z"/><path d="M569 1743 l-24 -28 30 25 c17 14 32 26 34 28 2 1 0 2 -6 2 -5 0 -20 -12 -34 -27z"/><path d="M505 1600 c-3 -6 1 -7 9 -4 18 7 21 14 7 14 -6 0 -13 -4 -16 -10z"/><path d="M307 1400 c-9 -22 -17 -46 -17 -53 0 -6 9 8 20 32 12 24 19 48 18 53 -2 5 -11 -10 -21 -32z"/><path d="M2075 1683 c-12 -2 -43 -21 -70 -41 -99 -74 -132 -200 -80 -305 59 -116 169 -166 306 -137 148 32 240 203 180 335 -47 104 -130 156 -246 154 -38 -1 -79 -4 -90 -6z"/><path d="M1970 930 c0 -5 7 -10 15 -10 8 0 15 5 15 10 0 6 -7 10 -15 10 -8 0 -15 -4 -15 -10z"/><path d="M2902 931 c2 -7 7 -12 11 -12 12 1 9 15 -3 20 -7 2 -11 -2 -8 -8z"/><path d="M110 938 c0 -30 1 -31 16 -16 9 9 14 24 11 32 -11 27 -27 17 -27 -16z"/><path d="M532 931 c2 -7 7 -12 11 -12 12 1 9 15 -3 20 -7 2 -11 -2 -8 -8z"/><path d="M692 929 c2 -6 8 -10 13 -10 5 0 11 4 13 10 2 6 -4 11 -13 11 -9 0 -15 -5 -13 -11z"/><path d="M1330 932 c0 -14 11 -21 26 -15 8 3 11 9 8 14 -7 11 -34 12 -34 1z"/><path d="M1445 931 c-6 -11 9 -23 19 -14 9 9 7 23 -3 23 -6 0 -12 -4 -16 -9z"/><path d="M830 932 c0 -14 11 -21 26 -15 21 8 17 23 -6 23 -11 0 -20 -4 -20 -8z"/><path d="M940 930 c0 -5 7 -10 16 -10 8 0 12 5 9 10 -3 6 -10 10 -16 10 -5 0 -9 -4 -9 -10z"/></g></svg>