<svg version="1.0" xmlns="http://www.w3.org/2000/svg" width="363.000000" height="275.000000" viewBox="0 0 363.000000 275.000000" preserveAspectRatio="xMidYMid meet"><rect x="132" y="27" width="20" height="15" fill="rgb(10,68,168)" /><rect x="151" y="27" width="20" height="15" fill="rgb(10,68,168)" /><rect x="170" y="27" width="20" height="15" fill="rgb(10,68,168)" /><rect x="189" y="27" width="20" height="15" fill="rgb(10,68,168)" /><rect x="208" y="27" width="20" height="15" fill="rgb(10,68,168)" /><rect x="132" y="41" width="20" height="15" fill="rgb(10,68,168)" /><rect x="208" y="41" width="20" height="15" fill="rgb(10,68,168)" /><rect x="208" y="55" width="20" height="15" fill="rgb(10,68,168)" /><rect x="208" y="69" width="20" height="15" fill="rgb(10,68,168)" /><rect x="170" y="83" width="20" height="15" fill="rgb(10,68,168)" /><rect x="189" y="83" width="20" height="15" fill="rgb(10,68,168)" /><rect x="208" y="83" width="20" height="15" fill="rgb(10,68,168)" /><rect x="132" y="97" width="20" height="15" fill="rgb(10,68,168)" /><rect x="208" y="97" width="20" height="15" fill="rgb(10,68,168)" /><rect x="132" y="111" width="20" height="15" fill="rgb(10,68,168)" /><rect x="208" y="111" width="20" height="15" fill="rgb(10,68,168)" /><rect x="132" y="125" width="20" height="15" fill="rgb(10,68,168)" /><rect x="208" y="125" width="20" height="15" fill="rgb(10,68,168)" /><rect x="132" y="139" width="20" height="15" fill="rgb(10,68,168)" /><rect x="151" y="139" width="20" height="15" fill="rgb(10,68,168)" /><rect x="170" y="139" width="20" height="15" fill="rgb(10,68,168)" /><rect x="208" y="139" width="20" height="15" fill="rgb(10,68,168)" /><rect x="132" y="153" width="20" height="15" fill="rgb(10,68,168)" /><rect x="37" y="209" width="20" height="15" fill="rgb(10,68,168)" /><g transform="translate(0.000000,275.000000) scale(0.100000,-0.100000)" fill="#0C46AC" stroke="none"><path d="M1745 2719 c-77 -40 -269 -142 -1015 -539 -637 -339 -730 -390 -730 -395 0 -7 503 -279 1050 -570 91 -48 300 -159 464 -247 l299 -158 216 114 c204 107 740 392 1206 641 116 62 252 134 302 161 51 27 93 54 93 59 -1 6 -132 79 -293 163 -160 84 -455 239 -654 346 -199 107 -415 222 -480 256 -65 34 -177 93 -249 131 -72 38 -135 69 -140 69 -5 -1 -36 -15 -69 -31z m117 -133 c24 -13 67 -36 95 -52 29 -15 52 -29 50 -30 -1 -1 -27 2 -57 7 -30 4 -111 8 -180 9 l-125 1 85 44 c47 24 86 44 87 44 1 1 22 -10 45 -23z m690 -367 c156 -83 335 -179 398 -214 63 -34 181 -97 262 -141 82 -43 145 -81 140 -85 -8 -8 -190 -106 -367 -199 -66 -35 -205 -109 -310 -165 -262 -141 -293 -156 -300 -145 -14 23 -24 205 -30 552 -5 333 -8 385 -25 439 -10 34 -29 72 -41 85 -12 13 -20 24 -16 24 4 0 134 -68 289 -151z m-1319 32 c-18 -38 -35 -82 -36 -97 l-2 -29 110 -22 c61 -12 133 -25 161 -28 l50 -7 35 58 c19 32 48 67 66 77 43 24 161 33 237 17 79 -16 110 -47 126 -125 11 -54 11 -60 -7 -74 -18 -15 -91 -34 -403 -106 -157 -37 -262 -87 -322 -154 -68 -75 -92 -143 -93 -261 0 -83 3 -102 28 -154 15 -32 27 -60 27 -62 0 -6 -49 19 -320 164 -423 225 -605 323 -613 331 -4 4 147 90 335 191 189 101 413 221 498 267 85 45 156 83 156 83 1 0 -14 -31 -33 -69z m749 -518 c5 -129 -12 -217 -54 -267 -57 -69 -178 -110 -273 -92 -20 4 -53 22 -75 42 -31 28 -41 47 -50 89 -19 93 21 150 129 182 59 17 301 81 314 82 4 1 8 -16 9 -36z m59 -540 c19 -60 20 -62 56 -65 36 -3 29 -7 -119 -85 -86 -46 -161 -83 -166 -83 -6 0 -67 31 -136 69 l-126 68 83 7 c138 11 229 44 327 120 25 20 49 34 54 33 5 -2 17 -31 27 -64z"/><path d="M388 698 c-12 -10 -182 -432 -274 -680 -6 -16 2 -18 78 -18 l83 0 25 73 25 72 140 0 139 0 27 -70 27 -70 85 -3 85 -3 -138 348 -138 348 -43 7 c-68 10 -104 9 -121 -4z m121 -302 l39 -106 -84 0 -83 0 23 68 c32 93 58 154 62 149 3 -2 22 -52 43 -111z"/><path d="M897 703 c-4 -3 -7 -163 -7 -355 l0 -348 255 0 255 0 0 65 0 65 -175 0 -175 0 0 290 0 290 -73 0 c-41 0 -77 -3 -80 -7z"/><path d="M1490 355 l0 -355 80 0 80 0 0 108 0 108 53 51 52 52 94 -159 94 -160 99 0 c77 0 98 3 92 13 -4 6 -58 88 -119 182 -61 94 -120 184 -130 202 l-19 32 55 58 c30 32 87 91 127 132 39 41 72 78 72 83 0 4 -43 8 -94 8 l-95 0 -83 -87 c-46 -49 -110 -115 -141 -148 l-57 -60 0 148 0 147 -80 0 -80 0 0 -355z"/><path d="M2207 703 c-4 -3 -7 -163 -7 -355 l0 -348 275 0 275 0 0 58 0 59 -122 6 c-66 4 -154 7 -195 7 l-73 0 0 85 0 85 175 0 175 0 0 70 0 70 -175 0 -175 0 0 70 0 70 188 2 187 3 3 63 3 62 -264 0 c-145 0 -267 -3 -270 -7z"/><path d="M2860 355 l0 -355 70 0 70 0 1 243 1 242 61 -242 62 -243 77 0 77 0 10 38 c6 20 33 127 60 237 l50 200 0 -237 1 -238 75 0 75 0 -2 353 -3 352 -112 3 -112 3 -10 -38 c-71 -277 -106 -402 -112 -396 -3 5 -30 101 -60 214 l-53 206 -74 7 c-41 3 -92 6 -114 6 l-38 0 0 -355z"/></g><g transform="translate(0.000000,275.000000) scale(0.100000,-0.100000)" fill="#0C46B2" stroke="none"><path d="M2260 2366 c0 -2 6 -9 14 -15 11 -9 16 -9 22 0 4 8 3 9 -4 5 -7 -4 -12 -2 -12 3 0 6 -4 11 -10 11 -5 0 -10 -2 -10 -4z"/><path d="M1584 2178 l-19 -23 23 19 c21 18 27 26 19 26 -2 0 -12 -10 -23 -22z"/><path d="M1982 2050 c0 -14 2 -19 5 -12 2 6 2 18 0 25 -3 6 -5 1 -5 -13z"/><path d="M2343 1990 c0 -36 2 -50 4 -32 2 17 2 47 0 65 -2 17 -4 3 -4 -33z"/><path d="M1249 1773 l-24 -28 28 24 c25 23 32 31 24 31 -2 0 -14 -12 -28 -27z"/><path d="M1981 1684 c0 -11 3 -14 6 -6 3 7 2 16 -1 19 -3 4 -6 -2 -5 -13z"/><path d="M1522 1550 c0 -14 2 -19 5 -12 2 6 2 18 0 25 -3 6 -5 1 -5 -13z"/><path d="M1919 1463 c-13 -16 -12 -17 4 -4 9 7 17 15 17 17 0 8 -8 3 -21 -13z"/><path d="M2352 1420 c0 -14 2 -19 5 -12 2 6 2 18 0 25 -3 6 -5 1 -5 -13z"/><path d="M493 703 c9 -2 25 -2 35 0 9 3 1 5 -18 5 -19 0 -27 -2 -17 -5z"/><path d="M3008 703 c12 -2 32 -2 45 0 12 2 2 4 -23 4 -25 0 -35 -2 -22 -4z"/><path d="M1864 648 l-29 -33 33 29 c30 28 37 36 29 36 -2 0 -16 -15 -33 -32z"/><path d="M2064 638 l-19 -23 23 19 c21 18 27 26 19 26 -2 0 -12 -10 -23 -22z"/><path d="M1979 553 l-24 -28 28 24 c25 23 32 31 24 31 -2 0 -14 -12 -28 -27z"/><path d="M1719 493 l-24 -28 28 24 c15 14 27 26 27 28 0 8 -8 1 -31 -24z"/><path d="M1653 460 c0 -25 2 -35 4 -22 2 12 2 32 0 45 -2 12 -4 2 -4 -23z"/><path d="M1700 263 l-55 -58 58 55 c53 50 62 60 54 60 -1 0 -27 -26 -57 -57z"/><path d="M2623 123 c20 -2 54 -2 75 0 20 2 3 4 -38 4 -41 0 -58 -2 -37 -4z"/><path d="M1403 60 c0 -36 2 -50 4 -32 2 17 2 47 0 65 -2 17 -4 3 -4 -33z"/><path d="M2752 25 c0 -17 2 -22 5 -12 2 9 2 23 0 30 -3 6 -5 -1 -5 -18z"/></g></svg>