<svg version="1.0" xmlns="http://www.w3.org/2000/svg" width="800.000000" height="302.000000" viewBox="0 0 800.000000 302.000000" preserveAspectRatio="xMidYMid meet"><rect x="89" y="6" width="19" height="8" fill="rgb(41,190,220)" /><rect x="107" y="6" width="19" height="8" fill="rgb(4,190,215)" /><rect x="71" y="13" width="19" height="8" fill="rgb(69,193,223)" /><rect x="89" y="13" width="19" height="8" fill="rgb(72,193,223)" /><rect x="107" y="13" width="19" height="8" fill="rgb(32,190,218)" /><rect x="125" y="13" width="19" height="8" fill="rgb(0,190,214)" /><rect x="323" y="13" width="19" height="8" fill="rgb(0,190,214)" /><rect x="341" y="13" width="19" height="8" fill="rgb(0,190,214)" /><rect x="359" y="13" width="19" height="8" fill="rgb(0,190,214)" /><rect x="521" y="13" width="19" height="8" fill="rgb(0,190,214)" /><rect x="539" y="13" width="19" height="8" fill="rgb(0,190,214)" /><rect x="71" y="20" width="19" height="8" fill="rgb(110,202,227)" /><rect x="89" y="20" width="19" height="8" fill="rgb(114,203,228)" /><rect x="107" y="20" width="19" height="8" fill="rgb(60,192,222)" /><rect x="125" y="20" width="19" height="8" fill="rgb(1,190,214)" /><rect x="287" y="20" width="19" height="8" fill="rgb(0,189,214)" /><rect x="305" y="20" width="19" height="8" fill="rgb(0,190,214)" /><rect x="323" y="20" width="19" height="8" fill="rgb(0,190,214)" /><rect x="341" y="20" width="19" height="8" fill="rgb(0,190,214)" /><rect x="359" y="20" width="19" height="8" fill="rgb(0,190,214)" /><rect x="377" y="20" width="19" height="8" fill="rgb(0,190,214)" /><rect x="395" y="20" width="19" height="8" fill="rgb(0,190,214)" /><rect x="503" y="20" width="19" height="8" fill="rgb(0,190,214)" /><rect x="521" y="20" width="19" height="8" fill="rgb(0,190,214)" /><rect x="539" y="20" width="19" height="8" fill="rgb(0,190,214)" /><rect x="557" y="20" width="19" height="8" fill="rgb(0,190,214)" /><rect x="575" y="20" width="19" height="8" fill="rgb(0,190,214)" /><rect x="629" y="20" width="19" height="8" fill="rgb(0,190,214)" /><rect x="647" y="20" width="19" height="8" fill="rgb(0,190,214)" /><rect x="737" y="20" width="19" height="8" fill="rgb(0,190,214)" /><rect x="53" y="27" width="19" height="8" fill="rgb(75,194,224)" /><rect x="71" y="27" width="19" height="8" fill="rgb(118,204,228)" /><rect x="89" y="27" width="19" height="8" fill="rgb(118,204,228)" /><rect x="107" y="27" width="19" height="8" fill="rgb(88,197,225)" /><rect x="125" y="27" width="19" height="8" fill="rgb(11,190,216)" /><rect x="287" y="27" width="19" height="8" fill="rgb(0,190,214)" /><rect x="305" y="27" width="19" height="8" fill="rgb(0,190,214)" /><rect x="323" y="27" width="19" height="8" fill="rgb(0,190,214)" /><rect x="341" y="27" width="19" height="8" fill="rgb(0,190,214)" /><rect x="359" y="27" width="19" height="8" fill="rgb(0,190,214)" /><rect x="377" y="27" width="19" height="8" fill="rgb(0,190,214)" /><rect x="395" y="27" width="19" height="8" fill="rgb(0,190,214)" /><rect x="503" y="27" width="19" height="8" fill="rgb(0,190,214)" /><rect x="521" y="27" width="19" height="8" fill="rgb(0,190,214)" /><rect x="539" y="27" width="19" height="8" fill="rgb(0,190,214)" /><rect x="557" y="27" width="19" height="8" fill="rgb(0,190,214)" /><rect x="575" y="27" width="19" height="8" fill="rgb(0,190,214)" /><rect x="629" y="27" width="19" height="8" fill="rgb(0,190,214)" /><rect x="647" y="27" width="19" height="8" fill="rgb(0,190,214)" /><rect x="737" y="27" width="19" height="8" fill="rgb(0,190,214)" /><rect x="53" y="34" width="19" height="8" fill="rgb(89,197,225)" /><rect x="71" y="34" width="19" height="8" fill="rgb(118,204,228)" /><rect x="89" y="34" width="19" height="8" fill="rgb(118,204,228)" /><rect x="107" y="34" width="19" height="8" fill="rgb(99,200,226)" /><rect x="125" y="34" width="19" height="8" fill="rgb(18,190,216)" /><rect x="143" y="34" width="19" height="8" fill="rgb(0,190,214)" /><rect x="179" y="34" width="19" height="8" fill="rgb(0,120,206)" /><rect x="287" y="34" width="19" height="8" fill="rgb(0,190,214)" /><rect x="305" y="34" width="19" height="8" fill="rgb(0,190,214)" /><rect x="323" y="34" width="19" height="8" fill="rgb(0,190,214)" /><rect x="341" y="34" width="19" height="8" fill="rgb(0,189,214)" /><rect x="359" y="34" width="19" height="8" fill="rgb(0,189,214)" /><rect x="377" y="34" width="19" height="8" fill="rgb(0,190,214)" /><rect x="395" y="34" width="19" height="8" fill="rgb(0,190,214)" /><rect x="413" y="34" width="19" height="8" fill="rgb(0,190,214)" /><rect x="485" y="34" width="19" height="8" fill="rgb(0,190,214)" /><rect x="503" y="34" width="19" height="8" fill="rgb(0,190,214)" /><rect x="521" y="34" width="19" height="8" fill="rgb(0,190,214)" /><rect x="539" y="34" width="19" height="8" fill="rgb(0,190,214)" /><rect x="557" y="34" width="19" height="8" fill="rgb(0,190,214)" /><rect x="629" y="34" width="19" height="8" fill="rgb(0,190,214)" /><rect x="647" y="34" width="19" height="8" fill="rgb(0,190,214)" /><rect x="737" y="34" width="19" height="8" fill="rgb(0,190,214)" /><rect x="53" y="41" width="19" height="8" fill="rgb(95,199,226)" /><rect x="71" y="41" width="19" height="8" fill="rgb(118,204,228)" /><rect x="89" y="41" width="19" height="8" fill="rgb(118,204,228)" /><rect x="107" y="41" width="19" height="8" fill="rgb(104,201,227)" /><rect x="125" y="41" width="19" height="8" fill="rgb(22,190,217)" /><rect x="143" y="41" width="19" height="8" fill="rgb(0,175,212)" /><rect x="161" y="41" width="19" height="8" fill="rgb(0,122,206)" /><rect x="179" y="41" width="19" height="8" fill="rgb(0,120,206)" /><rect x="197" y="41" width="19" height="8" fill="rgb(0,120,206)" /><rect x="287" y="41" width="19" height="8" fill="rgb(0,190,214)" /><rect x="305" y="41" width="19" height="8" fill="rgb(0,190,214)" /><rect x="323" y="41" width="19" height="8" fill="rgb(0,190,214)" /><rect x="395" y="41" width="19" height="8" fill="rgb(0,190,214)" /><rect x="413" y="41" width="19" height="8" fill="rgb(0,190,214)" /><rect x="485" y="41" width="19" height="8" fill="rgb(0,190,214)" /><rect x="503" y="41" width="19" height="8" fill="rgb(0,190,214)" /><rect x="521" y="41" width="19" height="8" fill="rgb(0,190,214)" /><rect x="539" y="41" width="19" height="8" fill="rgb(0,187,213)" /><rect x="557" y="41" width="19" height="8" fill="rgb(0,190,214)" /><rect x="629" y="41" width="19" height="8" fill="rgb(0,190,214)" /><rect x="647" y="41" width="19" height="8" fill="rgb(0,190,214)" /><rect x="665" y="41" width="19" height="8" fill="rgb(0,188,213)" /><rect x="737" y="41" width="19" height="8" fill="rgb(0,190,214)" /><rect x="53" y="48" width="19" height="8" fill="rgb(96,199,226)" /><rect x="71" y="48" width="19" height="8" fill="rgb(118,204,228)" /><rect x="89" y="48" width="19" height="8" fill="rgb(118,204,228)" /><rect x="107" y="48" width="19" height="8" fill="rgb(104,201,227)" /><rect x="125" y="48" width="19" height="8" fill="rgb(23,190,217)" /><rect x="143" y="48" width="19" height="8" fill="rgb(23,151,213)" /><rect x="161" y="48" width="19" height="8" fill="rgb(6,123,207)" /><rect x="179" y="48" width="19" height="8" fill="rgb(0,120,206)" /><rect x="197" y="48" width="19" height="8" fill="rgb(0,120,206)" /><rect x="287" y="48" width="19" height="8" fill="rgb(0,190,214)" /><rect x="305" y="48" width="19" height="8" fill="rgb(0,190,214)" /><rect x="323" y="48" width="19" height="8" fill="rgb(0,190,214)" /><rect x="395" y="48" width="19" height="8" fill="rgb(0,190,214)" /><rect x="413" y="48" width="19" height="8" fill="rgb(0,190,214)" /><rect x="485" y="48" width="19" height="8" fill="rgb(0,190,214)" /><rect x="503" y="48" width="19" height="8" fill="rgb(0,190,214)" /><rect x="629" y="48" width="19" height="8" fill="rgb(0,190,214)" /><rect x="647" y="48" width="19" height="8" fill="rgb(0,190,214)" /><rect x="665" y="48" width="19" height="8" fill="rgb(0,190,214)" /><rect x="737" y="48" width="19" height="8" fill="rgb(0,190,214)" /><rect x="35" y="55" width="19" height="8" fill="rgb(17,128,180)" /><rect x="53" y="55" width="19" height="8" fill="rgb(91,198,225)" /><rect x="71" y="55" width="19" height="8" fill="rgb(118,204,228)" /><rect x="89" y="55" width="19" height="8" fill="rgb(118,204,228)" /><rect x="107" y="55" width="19" height="8" fill="rgb(100,200,226)" /><rect x="125" y="55" width="19" height="8" fill="rgb(29,180,217)" /><rect x="143" y="55" width="19" height="8" fill="rgb(47,142,216)" /><rect x="161" y="55" width="19" height="8" fill="rgb(34,136,213)" /><rect x="179" y="55" width="19" height="8" fill="rgb(0,120,206)" /><rect x="197" y="55" width="19" height="8" fill="rgb(0,120,206)" /><rect x="215" y="55" width="19" height="8" fill="rgb(0,120,206)" /><rect x="287" y="55" width="19" height="8" fill="rgb(0,190,214)" /><rect x="305" y="55" width="19" height="8" fill="rgb(0,190,214)" /><rect x="323" y="55" width="19" height="8" fill="rgb(0,190,214)" /><rect x="395" y="55" width="19" height="8" fill="rgb(0,190,214)" /><rect x="413" y="55" width="19" height="8" fill="rgb(0,190,214)" /><rect x="485" y="55" width="19" height="8" fill="rgb(0,190,214)" /><rect x="503" y="55" width="19" height="8" fill="rgb(0,190,214)" /><rect x="629" y="55" width="19" height="8" fill="rgb(0,190,214)" /><rect x="647" y="55" width="19" height="8" fill="rgb(0,190,214)" /><rect x="665" y="55" width="19" height="8" fill="rgb(0,190,214)" /><rect x="737" y="55" width="19" height="8" fill="rgb(0,190,214)" /><rect x="17" y="62" width="19" height="8" fill="rgb(18,30,120)" /><rect x="35" y="62" width="19" height="8" fill="rgb(10,130,180)" /><rect x="53" y="62" width="19" height="8" fill="rgb(77,195,224)" /><rect x="71" y="62" width="19" height="8" fill="rgb(118,204,228)" /><rect x="89" y="62" width="19" height="8" fill="rgb(118,204,228)" /><rect x="107" y="62" width="19" height="8" fill="rgb(89,197,225)" /><rect x="125" y="62" width="19" height="8" fill="rgb(45,161,218)" /><rect x="143" y="62" width="19" height="8" fill="rgb(48,142,216)" /><rect x="161" y="62" width="19" height="8" fill="rgb(47,142,216)" /><rect x="179" y="62" width="19" height="8" fill="rgb(9,124,208)" /><rect x="197" y="62" width="19" height="8" fill="rgb(0,120,206)" /><rect x="215" y="62" width="19" height="8" fill="rgb(0,120,206)" /><rect x="287" y="62" width="19" height="8" fill="rgb(0,190,214)" /><rect x="305" y="62" width="19" height="8" fill="rgb(0,190,214)" /><rect x="323" y="62" width="19" height="8" fill="rgb(0,190,214)" /><rect x="395" y="62" width="19" height="8" fill="rgb(0,190,214)" /><rect x="413" y="62" width="19" height="8" fill="rgb(0,190,214)" /><rect x="467" y="62" width="19" height="8" fill="rgb(0,190,214)" /><rect x="485" y="62" width="19" height="8" fill="rgb(0,190,214)" /><rect x="503" y="62" width="19" height="8" fill="rgb(0,190,214)" /><rect x="629" y="62" width="19" height="8" fill="rgb(0,190,214)" /><rect x="647" y="62" width="19" height="8" fill="rgb(0,190,214)" /><rect x="665" y="62" width="19" height="8" fill="rgb(0,190,214)" /><rect x="737" y="62" width="19" height="8" fill="rgb(0,190,214)" /><rect x="17" y="69" width="19" height="8" fill="rgb(18,30,120)" /><rect x="35" y="69" width="19" height="8" fill="rgb(7,125,177)" /><rect x="53" y="69" width="19" height="8" fill="rgb(51,191,221)" /><rect x="71" y="69" width="19" height="8" fill="rgb(113,203,228)" /><rect x="89" y="69" width="19" height="8" fill="rgb(117,204,228)" /><rect x="107" y="69" width="19" height="8" fill="rgb(69,190,223)" /><rect x="125" y="69" width="19" height="8" fill="rgb(48,145,217)" /><rect x="143" y="69" width="19" height="8" fill="rgb(48,142,216)" /><rect x="161" y="69" width="19" height="8" fill="rgb(48,142,216)" /><rect x="179" y="69" width="19" height="8" fill="rgb(22,130,211)" /><rect x="197" y="69" width="19" height="8" fill="rgb(0,120,206)" /><rect x="215" y="69" width="19" height="8" fill="rgb(0,120,206)" /><rect x="287" y="69" width="19" height="8" fill="rgb(0,190,214)" /><rect x="305" y="69" width="19" height="8" fill="rgb(0,190,214)" /><rect x="323" y="69" width="19" height="8" fill="rgb(0,190,214)" /><rect x="395" y="69" width="19" height="8" fill="rgb(0,190,214)" /><rect x="413" y="69" width="19" height="8" fill="rgb(0,190,214)" /><rect x="467" y="69" width="19" height="8" fill="rgb(0,190,214)" /><rect x="485" y="69" width="19" height="8" fill="rgb(0,190,214)" /><rect x="503" y="69" width="19" height="8" fill="rgb(0,190,214)" /><rect x="647" y="69" width="19" height="8" fill="rgb(0,190,214)" /><rect x="665" y="69" width="19" height="8" fill="rgb(0,190,214)" /><rect x="737" y="69" width="19" height="8" fill="rgb(0,190,214)" /><rect x="17" y="76" width="19" height="8" fill="rgb(18,30,120)" /><rect x="35" y="76" width="19" height="8" fill="rgb(8,115,172)" /><rect x="53" y="76" width="19" height="8" fill="rgb(27,190,218)" /><rect x="71" y="76" width="19" height="8" fill="rgb(74,194,224)" /><rect x="89" y="76" width="19" height="8" fill="rgb(79,195,224)" /><rect x="107" y="76" width="19" height="8" fill="rgb(54,172,220)" /><rect x="125" y="76" width="19" height="8" fill="rgb(48,142,216)" /><rect x="143" y="76" width="19" height="8" fill="rgb(48,142,216)" /><rect x="161" y="76" width="19" height="8" fill="rgb(48,142,216)" /><rect x="179" y="76" width="19" height="8" fill="rgb(31,134,213)" /><rect x="197" y="76" width="19" height="8" fill="rgb(0,120,206)" /><rect x="215" y="76" width="19" height="8" fill="rgb(0,120,206)" /><rect x="287" y="76" width="19" height="8" fill="rgb(0,190,214)" /><rect x="305" y="76" width="19" height="8" fill="rgb(0,190,214)" /><rect x="323" y="76" width="19" height="8" fill="rgb(0,190,214)" /><rect x="395" y="76" width="19" height="8" fill="rgb(0,190,214)" /><rect x="413" y="76" width="19" height="8" fill="rgb(0,190,214)" /><rect x="467" y="76" width="19" height="8" fill="rgb(0,190,214)" /><rect x="485" y="76" width="19" height="8" fill="rgb(0,190,214)" /><rect x="503" y="76" width="19" height="8" fill="rgb(0,190,214)" /><rect x="647" y="76" width="19" height="8" fill="rgb(0,190,214)" /><rect x="665" y="76" width="19" height="8" fill="rgb(0,190,214)" /><rect x="737" y="76" width="19" height="8" fill="rgb(0,190,214)" /><rect x="17" y="83" width="19" height="8" fill="rgb(18,30,120)" /><rect x="35" y="83" width="19" height="8" fill="rgb(10,96,160)" /><rect x="53" y="83" width="19" height="8" fill="rgb(3,190,215)" /><rect x="71" y="83" width="19" height="8" fill="rgb(43,190,220)" /><rect x="89" y="83" width="19" height="8" fill="rgb(49,190,221)" /><rect x="107" y="83" width="19" height="8" fill="rgb(46,156,217)" /><rect x="125" y="83" width="19" height="8" fill="rgb(62,165,220)" /><rect x="143" y="83" width="19" height="8" fill="rgb(59,160,219)" /><rect x="161" y="83" width="19" height="8" fill="rgb(48,142,216)" /><rect x="179" y="83" width="19" height="8" fill="rgb(38,137,214)" /><rect x="197" y="83" width="19" height="8" fill="rgb(0,120,206)" /><rect x="215" y="83" width="19" height="8" fill="rgb(0,120,206)" /><rect x="287" y="83" width="19" height="8" fill="rgb(0,190,214)" /><rect x="305" y="83" width="19" height="8" fill="rgb(0,190,214)" /><rect x="323" y="83" width="19" height="8" fill="rgb(0,190,214)" /><rect x="395" y="83" width="19" height="8" fill="rgb(0,190,214)" /><rect x="413" y="83" width="19" height="8" fill="rgb(0,190,214)" /><rect x="485" y="83" width="19" height="8" fill="rgb(0,190,214)" /><rect x="503" y="83" width="19" height="8" fill="rgb(0,190,214)" /><rect x="521" y="83" width="19" height="8" fill="rgb(0,190,214)" /><rect x="647" y="83" width="19" height="8" fill="rgb(0,190,214)" /><rect x="665" y="83" width="19" height="8" fill="rgb(0,190,214)" /><rect x="719" y="83" width="19" height="8" fill="rgb(0,189,214)" /><rect x="737" y="83" width="19" height="8" fill="rgb(0,190,214)" /><rect x="0" y="90" width="19" height="8" fill="rgb(17,33,121)" /><rect x="17" y="90" width="19" height="8" fill="rgb(18,30,120)" /><rect x="35" y="90" width="19" height="8" fill="rgb(13,70,145)" /><rect x="53" y="90" width="19" height="8" fill="rgb(0,190,214)" /><rect x="71" y="90" width="19" height="8" fill="rgb(0,190,214)" /><rect x="89" y="90" width="19" height="8" fill="rgb(6,186,215)" /><rect x="107" y="90" width="19" height="8" fill="rgb(46,144,216)" /><rect x="125" y="90" width="19" height="8" fill="rgb(92,189,224)" /><rect x="143" y="90" width="19" height="8" fill="rgb(91,186,224)" /><rect x="161" y="90" width="19" height="8" fill="rgb(48,142,216)" /><rect x="179" y="90" width="19" height="8" fill="rgb(40,138,215)" /><rect x="197" y="90" width="19" height="8" fill="rgb(0,120,206)" /><rect x="215" y="90" width="19" height="8" fill="rgb(0,120,206)" /><rect x="287" y="90" width="19" height="8" fill="rgb(0,190,214)" /><rect x="305" y="90" width="19" height="8" fill="rgb(0,190,214)" /><rect x="323" y="90" width="19" height="8" fill="rgb(0,190,214)" /><rect x="377" y="90" width="19" height="8" fill="rgb(0,190,214)" /><rect x="395" y="90" width="19" height="8" fill="rgb(0,190,214)" /><rect x="485" y="90" width="19" height="8" fill="rgb(0,190,214)" /><rect x="503" y="90" width="19" height="8" fill="rgb(0,190,214)" /><rect x="521" y="90" width="19" height="8" fill="rgb(0,190,214)" /><rect x="539" y="90" width="19" height="8" fill="rgb(0,190,214)" /><rect x="647" y="90" width="19" height="8" fill="rgb(0,190,214)" /><rect x="665" y="90" width="19" height="8" fill="rgb(0,190,214)" /><rect x="719" y="90" width="19" height="8" fill="rgb(0,190,214)" /><rect x="737" y="90" width="19" height="8" fill="rgb(0,190,214)" /><rect x="0" y="97" width="19" height="8" fill="rgb(17,34,122)" /><rect x="17" y="97" width="19" height="8" fill="rgb(18,30,120)" /><rect x="35" y="97" width="19" height="8" fill="rgb(17,38,126)" /><rect x="53" y="97" width="19" height="8" fill="rgb(1,183,211)" /><rect x="71" y="97" width="19" height="8" fill="rgb(0,190,214)" /><rect x="89" y="97" width="19" height="8" fill="rgb(17,173,215)" /><rect x="107" y="97" width="19" height="8" fill="rgb(48,142,216)" /><rect x="125" y="97" width="19" height="8" fill="rgb(100,194,226)" /><rect x="143" y="97" width="19" height="8" fill="rgb(99,192,225)" /><rect x="161" y="97" width="19" height="8" fill="rgb(48,142,216)" /><rect x="179" y="97" width="19" height="8" fill="rgb(41,139,215)" /><rect x="197" y="97" width="19" height="8" fill="rgb(0,120,206)" /><rect x="215" y="97" width="19" height="8" fill="rgb(0,120,206)" /><rect x="287" y="97" width="19" height="8" fill="rgb(0,190,214)" /><rect x="305" y="97" width="19" height="8" fill="rgb(0,190,214)" /><rect x="323" y="97" width="19" height="8" fill="rgb(0,190,214)" /><rect x="341" y="97" width="19" height="8" fill="rgb(0,190,214)" /><rect x="359" y="97" width="19" height="8" fill="rgb(0,190,214)" /><rect x="377" y="97" width="19" height="8" fill="rgb(0,190,214)" /><rect x="395" y="97" width="19" height="8" fill="rgb(0,190,214)" /><rect x="485" y="97" width="19" height="8" fill="rgb(0,190,214)" /><rect x="503" y="97" width="19" height="8" fill="rgb(0,190,214)" /><rect x="521" y="97" width="19" height="8" fill="rgb(0,190,214)" /><rect x="539" y="97" width="19" height="8" fill="rgb(0,190,214)" /><rect x="647" y="97" width="19" height="8" fill="rgb(0,190,214)" /><rect x="665" y="97" width="19" height="8" fill="rgb(0,190,214)" /><rect x="719" y="97" width="19" height="8" fill="rgb(0,190,214)" /><rect x="737" y="97" width="19" height="8" fill="rgb(0,190,214)" /><rect x="17" y="104" width="19" height="8" fill="rgb(18,30,120)" /><rect x="35" y="104" width="19" height="8" fill="rgb(18,30,120)" /><rect x="53" y="104" width="19" height="8" fill="rgb(5,140,186)" /><rect x="71" y="104" width="19" height="8" fill="rgb(0,190,214)" /><rect x="89" y="104" width="19" height="8" fill="rgb(31,156,215)" /><rect x="107" y="104" width="19" height="8" fill="rgb(48,142,216)" /><rect x="125" y="104" width="19" height="8" fill="rgb(94,192,225)" /><rect x="143" y="104" width="19" height="8" fill="rgb(93,188,224)" /><rect x="161" y="104" width="19" height="8" fill="rgb(48,142,216)" /><rect x="179" y="104" width="19" height="8" fill="rgb(40,138,215)" /><rect x="197" y="104" width="19" height="8" fill="rgb(0,120,206)" /><rect x="215" y="104" width="19" height="8" fill="rgb(0,120,206)" /><rect x="287" y="104" width="19" height="8" fill="rgb(0,190,214)" /><rect x="305" y="104" width="19" height="8" fill="rgb(0,190,214)" /><rect x="323" y="104" width="19" height="8" fill="rgb(0,190,214)" /><rect x="341" y="104" width="19" height="8" fill="rgb(0,190,214)" /><rect x="359" y="104" width="19" height="8" fill="rgb(0,190,214)" /><rect x="377" y="104" width="19" height="8" fill="rgb(0,190,214)" /><rect x="485" y="104" width="19" height="8" fill="rgb(0,190,214)" /><rect x="503" y="104" width="19" height="8" fill="rgb(0,190,214)" /><rect x="521" y="104" width="19" height="8" fill="rgb(0,190,214)" /><rect x="539" y="104" width="19" height="8" fill="rgb(0,190,214)" /><rect x="557" y="104" width="19" height="8" fill="rgb(0,190,214)" /><rect x="647" y="104" width="19" height="8" fill="rgb(0,190,214)" /><rect x="665" y="104" width="19" height="8" fill="rgb(0,190,214)" /><rect x="719" y="104" width="19" height="8" fill="rgb(0,190,214)" /><rect x="737" y="104" width="19" height="8" fill="rgb(0,190,214)" /><rect x="17" y="111" width="19" height="8" fill="rgb(18,30,120)" /><rect x="35" y="111" width="19" height="8" fill="rgb(18,30,120)" /><rect x="53" y="111" width="19" height="8" fill="rgb(13,76,149)" /><rect x="71" y="111" width="19" height="8" fill="rgb(0,181,213)" /><rect x="89" y="111" width="19" height="8" fill="rgb(38,140,214)" /><rect x="107" y="111" width="19" height="8" fill="rgb(48,142,216)" /><rect x="125" y="111" width="19" height="8" fill="rgb(61,164,219)" /><rect x="143" y="111" width="19" height="8" fill="rgb(61,163,219)" /><rect x="161" y="111" width="19" height="8" fill="rgb(48,142,216)" /><rect x="179" y="111" width="19" height="8" fill="rgb(38,137,214)" /><rect x="197" y="111" width="19" height="8" fill="rgb(0,120,206)" /><rect x="215" y="111" width="19" height="8" fill="rgb(0,120,206)" /><rect x="287" y="111" width="19" height="8" fill="rgb(0,190,214)" /><rect x="305" y="111" width="19" height="8" fill="rgb(0,190,214)" /><rect x="323" y="111" width="19" height="8" fill="rgb(0,190,214)" /><rect x="341" y="111" width="19" height="8" fill="rgb(0,190,214)" /><rect x="359" y="111" width="19" height="8" fill="rgb(0,190,214)" /><rect x="377" y="111" width="19" height="8" fill="rgb(0,190,214)" /><rect x="395" y="111" width="19" height="8" fill="rgb(0,190,214)" /><rect x="503" y="111" width="19" height="8" fill="rgb(0,190,214)" /><rect x="521" y="111" width="19" height="8" fill="rgb(0,190,214)" /><rect x="539" y="111" width="19" height="8" fill="rgb(0,190,214)" /><rect x="557" y="111" width="19" height="8" fill="rgb(0,190,214)" /><rect x="647" y="111" width="19" height="8" fill="rgb(0,190,214)" /><rect x="665" y="111" width="19" height="8" fill="rgb(0,190,214)" /><rect x="683" y="111" width="19" height="8" fill="rgb(0,189,214)" /><rect x="719" y="111" width="19" height="8" fill="rgb(0,190,214)" /><rect x="737" y="111" width="19" height="8" fill="rgb(0,190,214)" /><rect x="17" y="118" width="19" height="8" fill="rgb(18,30,120)" /><rect x="35" y="118" width="19" height="8" fill="rgb(18,30,120)" /><rect x="53" y="118" width="19" height="8" fill="rgb(18,30,120)" /><rect x="71" y="118" width="19" height="8" fill="rgb(4,115,189)" /><rect x="89" y="118" width="19" height="8" fill="rgb(33,135,213)" /><rect x="107" y="118" width="19" height="8" fill="rgb(48,142,216)" /><rect x="125" y="118" width="19" height="8" fill="rgb(48,142,216)" /><rect x="143" y="118" width="19" height="8" fill="rgb(48,142,216)" /><rect x="161" y="118" width="19" height="8" fill="rgb(48,142,216)" /><rect x="179" y="118" width="19" height="8" fill="rgb(31,134,213)" /><rect x="197" y="118" width="19" height="8" fill="rgb(0,120,206)" /><rect x="215" y="118" width="19" height="8" fill="rgb(0,120,206)" /><rect x="287" y="118" width="19" height="8" fill="rgb(0,190,214)" /><rect x="305" y="118" width="19" height="8" fill="rgb(0,190,214)" /><rect x="323" y="118" width="19" height="8" fill="rgb(0,190,214)" /><rect x="395" y="118" width="19" height="8" fill="rgb(0,190,214)" /><rect x="413" y="118" width="19" height="8" fill="rgb(0,190,214)" /><rect x="521" y="118" width="19" height="8" fill="rgb(0,190,214)" /><rect x="539" y="118" width="19" height="8" fill="rgb(0,190,214)" /><rect x="557" y="118" width="19" height="8" fill="rgb(0,190,214)" /><rect x="575" y="118" width="19" height="8" fill="rgb(0,190,214)" /><rect x="665" y="118" width="19" height="8" fill="rgb(0,190,214)" /><rect x="683" y="118" width="19" height="8" fill="rgb(0,190,214)" /><rect x="719" y="118" width="19" height="8" fill="rgb(0,190,214)" /><rect x="737" y="118" width="19" height="8" fill="rgb(0,190,214)" /><rect x="17" y="125" width="19" height="8" fill="rgb(17,34,124)" /><rect x="35" y="125" width="19" height="8" fill="rgb(18,30,120)" /><rect x="53" y="125" width="19" height="8" fill="rgb(16,38,128)" /><rect x="71" y="125" width="19" height="8" fill="rgb(1,113,199)" /><rect x="89" y="125" width="19" height="8" fill="rgb(24,131,211)" /><rect x="107" y="125" width="19" height="8" fill="rgb(48,142,216)" /><rect x="125" y="125" width="19" height="8" fill="rgb(48,142,216)" /><rect x="143" y="125" width="19" height="8" fill="rgb(48,142,216)" /><rect x="161" y="125" width="19" height="8" fill="rgb(48,142,216)" /><rect x="179" y="125" width="19" height="8" fill="rgb(22,130,211)" /><rect x="197" y="125" width="19" height="8" fill="rgb(0,120,206)" /><rect x="215" y="125" width="19" height="8" fill="rgb(0,120,206)" /><rect x="287" y="125" width="19" height="8" fill="rgb(0,190,214)" /><rect x="305" y="125" width="19" height="8" fill="rgb(0,190,214)" /><rect x="323" y="125" width="19" height="8" fill="rgb(0,190,214)" /><rect x="395" y="125" width="19" height="8" fill="rgb(0,190,214)" /><rect x="413" y="125" width="19" height="8" fill="rgb(0,190,214)" /><rect x="539" y="125" width="19" height="8" fill="rgb(0,190,214)" /><rect x="557" y="125" width="19" height="8" fill="rgb(0,190,214)" /><rect x="575" y="125" width="19" height="8" fill="rgb(0,190,214)" /><rect x="665" y="125" width="19" height="8" fill="rgb(0,190,214)" /><rect x="683" y="125" width="19" height="8" fill="rgb(0,190,214)" /><rect x="719" y="125" width="19" height="8" fill="rgb(0,190,214)" /><rect x="737" y="125" width="19" height="8" fill="rgb(0,190,214)" /><rect x="17" y="132" width="19" height="8" fill="rgb(8,82,169)" /><rect x="35" y="132" width="19" height="8" fill="rgb(17,33,123)" /><rect x="53" y="132" width="19" height="8" fill="rgb(6,88,176)" /><rect x="71" y="132" width="19" height="8" fill="rgb(0,120,206)" /><rect x="89" y="132" width="19" height="8" fill="rgb(11,125,208)" /><rect x="107" y="132" width="19" height="8" fill="rgb(48,142,216)" /><rect x="125" y="132" width="19" height="8" fill="rgb(48,142,216)" /><rect x="143" y="132" width="19" height="8" fill="rgb(48,142,216)" /><rect x="161" y="132" width="19" height="8" fill="rgb(47,142,216)" /><rect x="179" y="132" width="19" height="8" fill="rgb(8,124,208)" /><rect x="197" y="132" width="19" height="8" fill="rgb(0,120,206)" /><rect x="215" y="132" width="19" height="8" fill="rgb(0,120,206)" /><rect x="287" y="132" width="19" height="8" fill="rgb(0,190,214)" /><rect x="305" y="132" width="19" height="8" fill="rgb(0,190,214)" /><rect x="323" y="132" width="19" height="8" fill="rgb(0,190,214)" /><rect x="395" y="132" width="19" height="8" fill="rgb(0,190,214)" /><rect x="413" y="132" width="19" height="8" fill="rgb(0,190,214)" /><rect x="431" y="132" width="19" height="8" fill="rgb(0,188,213)" /><rect x="539" y="132" width="19" height="8" fill="rgb(0,190,214)" /><rect x="557" y="132" width="19" height="8" fill="rgb(0,190,214)" /><rect x="575" y="132" width="19" height="8" fill="rgb(0,190,214)" /><rect x="665" y="132" width="19" height="8" fill="rgb(0,190,214)" /><rect x="683" y="132" width="19" height="8" fill="rgb(0,190,214)" /><rect x="719" y="132" width="19" height="8" fill="rgb(0,190,214)" /><rect x="737" y="132" width="19" height="8" fill="rgb(0,189,214)" /><rect x="17" y="139" width="19" height="8" fill="rgb(0,120,206)" /><rect x="35" y="139" width="19" height="8" fill="rgb(1,112,199)" /><rect x="53" y="139" width="19" height="8" fill="rgb(0,120,206)" /><rect x="71" y="139" width="19" height="8" fill="rgb(0,120,206)" /><rect x="89" y="139" width="19" height="8" fill="rgb(0,120,206)" /><rect x="107" y="139" width="19" height="8" fill="rgb(38,137,214)" /><rect x="125" y="139" width="19" height="8" fill="rgb(48,142,216)" /><rect x="143" y="139" width="19" height="8" fill="rgb(48,142,216)" /><rect x="161" y="139" width="19" height="8" fill="rgb(35,136,213)" /><rect x="179" y="139" width="19" height="8" fill="rgb(0,120,206)" /><rect x="197" y="139" width="19" height="8" fill="rgb(0,120,206)" /><rect x="215" y="139" width="19" height="8" fill="rgb(0,120,206)" /><rect x="287" y="139" width="19" height="8" fill="rgb(0,190,214)" /><rect x="305" y="139" width="19" height="8" fill="rgb(0,190,214)" /><rect x="323" y="139" width="19" height="8" fill="rgb(0,190,214)" /><rect x="395" y="139" width="19" height="8" fill="rgb(0,190,214)" /><rect x="413" y="139" width="19" height="8" fill="rgb(0,190,214)" /><rect x="431" y="139" width="19" height="8" fill="rgb(0,190,214)" /><rect x="539" y="139" width="19" height="8" fill="rgb(0,190,214)" /><rect x="557" y="139" width="19" height="8" fill="rgb(0,190,214)" /><rect x="575" y="139" width="19" height="8" fill="rgb(0,190,214)" /><rect x="665" y="139" width="19" height="8" fill="rgb(0,190,214)" /><rect x="683" y="139" width="19" height="8" fill="rgb(0,190,214)" /><rect x="701" y="139" width="19" height="8" fill="rgb(0,190,214)" /><rect x="719" y="139" width="19" height="8" fill="rgb(0,190,214)" /><rect x="17" y="146" width="19" height="8" fill="rgb(0,120,206)" /><rect x="35" y="146" width="19" height="8" fill="rgb(0,120,206)" /><rect x="53" y="146" width="19" height="8" fill="rgb(0,120,206)" /><rect x="71" y="146" width="19" height="8" fill="rgb(0,120,206)" /><rect x="89" y="146" width="19" height="8" fill="rgb(0,120,206)" /><rect x="107" y="146" width="19" height="8" fill="rgb(10,125,208)" /><rect x="125" y="146" width="19" height="8" fill="rgb(40,138,214)" /><rect x="143" y="146" width="19" height="8" fill="rgb(42,139,215)" /><rect x="161" y="146" width="19" height="8" fill="rgb(9,124,208)" /><rect x="179" y="146" width="19" height="8" fill="rgb(0,120,206)" /><rect x="197" y="146" width="19" height="8" fill="rgb(0,120,206)" /><rect x="215" y="146" width="19" height="8" fill="rgb(0,120,206)" /><rect x="287" y="146" width="19" height="8" fill="rgb(0,190,214)" /><rect x="305" y="146" width="19" height="8" fill="rgb(0,190,214)" /><rect x="323" y="146" width="19" height="8" fill="rgb(0,190,214)" /><rect x="395" y="146" width="19" height="8" fill="rgb(0,190,214)" /><rect x="413" y="146" width="19" height="8" fill="rgb(0,190,214)" /><rect x="431" y="146" width="19" height="8" fill="rgb(0,190,214)" /><rect x="539" y="146" width="19" height="8" fill="rgb(0,190,214)" /><rect x="557" y="146" width="19" height="8" fill="rgb(0,190,214)" /><rect x="575" y="146" width="19" height="8" fill="rgb(0,190,214)" /><rect x="665" y="146" width="19" height="8" fill="rgb(0,190,214)" /><rect x="683" y="146" width="19" height="8" fill="rgb(0,190,214)" /><rect x="701" y="146" width="19" height="8" fill="rgb(0,190,214)" /><rect x="719" y="146" width="19" height="8" fill="rgb(0,190,214)" /><rect x="35" y="153" width="19" height="8" fill="rgb(0,120,206)" /><rect x="53" y="153" width="19" height="8" fill="rgb(0,120,206)" /><rect x="71" y="153" width="19" height="8" fill="rgb(0,120,206)" /><rect x="89" y="153" width="19" height="8" fill="rgb(0,120,206)" /><rect x="107" y="153" width="19" height="8" fill="rgb(0,120,206)" /><rect x="125" y="153" width="19" height="8" fill="rgb(2,121,207)" /><rect x="143" y="153" width="19" height="8" fill="rgb(3,121,207)" /><rect x="161" y="153" width="19" height="8" fill="rgb(0,120,206)" /><rect x="179" y="153" width="19" height="8" fill="rgb(0,120,206)" /><rect x="197" y="153" width="19" height="8" fill="rgb(0,120,206)" /><rect x="287" y="153" width="19" height="8" fill="rgb(0,190,214)" /><rect x="305" y="153" width="19" height="8" fill="rgb(0,190,214)" /><rect x="323" y="153" width="19" height="8" fill="rgb(0,190,214)" /><rect x="395" y="153" width="19" height="8" fill="rgb(0,190,214)" /><rect x="413" y="153" width="19" height="8" fill="rgb(0,190,214)" /><rect x="431" y="153" width="19" height="8" fill="rgb(0,190,214)" /><rect x="539" y="153" width="19" height="8" fill="rgb(0,190,214)" /><rect x="557" y="153" width="19" height="8" fill="rgb(0,190,214)" /><rect x="575" y="153" width="19" height="8" fill="rgb(0,190,214)" /><rect x="665" y="153" width="19" height="8" fill="rgb(0,190,214)" /><rect x="683" y="153" width="19" height="8" fill="rgb(0,190,214)" /><rect x="701" y="153" width="19" height="8" fill="rgb(0,190,214)" /><rect x="719" y="153" width="19" height="8" fill="rgb(0,190,214)" /><rect x="35" y="160" width="19" height="8" fill="rgb(0,120,206)" /><rect x="53" y="160" width="19" height="8" fill="rgb(0,120,206)" /><rect x="71" y="160" width="19" height="8" fill="rgb(0,120,206)" /><rect x="89" y="160" width="19" height="8" fill="rgb(0,120,206)" /><rect x="107" y="160" width="19" height="8" fill="rgb(0,120,206)" /><rect x="125" y="160" width="19" height="8" fill="rgb(0,120,206)" /><rect x="143" y="160" width="19" height="8" fill="rgb(0,120,206)" /><rect x="161" y="160" width="19" height="8" fill="rgb(0,120,206)" /><rect x="179" y="160" width="19" height="8" fill="rgb(0,120,206)" /><rect x="197" y="160" width="19" height="8" fill="rgb(0,120,206)" /><rect x="287" y="160" width="19" height="8" fill="rgb(0,190,214)" /><rect x="305" y="160" width="19" height="8" fill="rgb(0,190,214)" /><rect x="323" y="160" width="19" height="8" fill="rgb(0,190,214)" /><rect x="395" y="160" width="19" height="8" fill="rgb(0,190,214)" /><rect x="413" y="160" width="19" height="8" fill="rgb(0,190,214)" /><rect x="431" y="160" width="19" height="8" fill="rgb(0,190,214)" /><rect x="539" y="160" width="19" height="8" fill="rgb(0,190,214)" /><rect x="557" y="160" width="19" height="8" fill="rgb(0,190,214)" /><rect x="575" y="160" width="19" height="8" fill="rgb(0,190,214)" /><rect x="665" y="160" width="19" height="8" fill="rgb(0,190,214)" /><rect x="683" y="160" width="19" height="8" fill="rgb(0,190,214)" /><rect x="701" y="160" width="19" height="8" fill="rgb(0,190,214)" /><rect x="719" y="160" width="19" height="8" fill="rgb(0,190,214)" /><rect x="35" y="167" width="19" height="8" fill="rgb(0,120,206)" /><rect x="53" y="167" width="19" height="8" fill="rgb(0,120,206)" /><rect x="71" y="167" width="19" height="8" fill="rgb(0,120,206)" /><rect x="89" y="167" width="19" height="8" fill="rgb(0,120,206)" /><rect x="107" y="167" width="19" height="8" fill="rgb(0,120,206)" /><rect x="125" y="167" width="19" height="8" fill="rgb(0,120,206)" /><rect x="143" y="167" width="19" height="8" fill="rgb(0,120,206)" /><rect x="161" y="167" width="19" height="8" fill="rgb(0,120,206)" /><rect x="179" y="167" width="19" height="8" fill="rgb(0,120,206)" /><rect x="197" y="167" width="19" height="8" fill="rgb(0,120,206)" /><rect x="287" y="167" width="19" height="8" fill="rgb(0,190,214)" /><rect x="305" y="167" width="19" height="8" fill="rgb(0,190,214)" /><rect x="323" y="167" width="19" height="8" fill="rgb(0,190,214)" /><rect x="395" y="167" width="19" height="8" fill="rgb(0,190,214)" /><rect x="413" y="167" width="19" height="8" fill="rgb(0,190,214)" /><rect x="431" y="167" width="19" height="8" fill="rgb(0,190,214)" /><rect x="485" y="167" width="19" height="8" fill="rgb(0,189,214)" /><rect x="503" y="167" width="19" height="8" fill="rgb(0,185,212)" /><rect x="521" y="167" width="19" height="8" fill="rgb(0,190,214)" /><rect x="539" y="167" width="19" height="8" fill="rgb(0,190,214)" /><rect x="557" y="167" width="19" height="8" fill="rgb(0,190,214)" /><rect x="575" y="167" width="19" height="8" fill="rgb(0,190,214)" /><rect x="683" y="167" width="19" height="8" fill="rgb(0,190,214)" /><rect x="701" y="167" width="19" height="8" fill="rgb(0,190,214)" /><rect x="719" y="167" width="19" height="8" fill="rgb(0,190,214)" /><rect x="35" y="174" width="19" height="8" fill="rgb(0,120,206)" /><rect x="53" y="174" width="19" height="8" fill="rgb(0,120,206)" /><rect x="71" y="174" width="19" height="8" fill="rgb(0,120,206)" /><rect x="89" y="174" width="19" height="8" fill="rgb(0,120,206)" /><rect x="107" y="174" width="19" height="8" fill="rgb(0,120,206)" /><rect x="125" y="174" width="19" height="8" fill="rgb(0,120,206)" /><rect x="143" y="174" width="19" height="8" fill="rgb(0,120,206)" /><rect x="161" y="174" width="19" height="8" fill="rgb(0,120,206)" /><rect x="179" y="174" width="19" height="8" fill="rgb(0,120,206)" /><rect x="287" y="174" width="19" height="8" fill="rgb(0,190,214)" /><rect x="305" y="174" width="19" height="8" fill="rgb(0,190,214)" /><rect x="323" y="174" width="19" height="8" fill="rgb(0,190,214)" /><rect x="377" y="174" width="19" height="8" fill="rgb(0,190,214)" /><rect x="395" y="174" width="19" height="8" fill="rgb(0,190,214)" /><rect x="413" y="174" width="19" height="8" fill="rgb(0,190,214)" /><rect x="485" y="174" width="19" height="8" fill="rgb(0,190,214)" /><rect x="503" y="174" width="19" height="8" fill="rgb(0,190,214)" /><rect x="521" y="174" width="19" height="8" fill="rgb(0,190,214)" /><rect x="539" y="174" width="19" height="8" fill="rgb(0,190,214)" /><rect x="557" y="174" width="19" height="8" fill="rgb(0,190,214)" /><rect x="683" y="174" width="19" height="8" fill="rgb(0,190,214)" /><rect x="701" y="174" width="19" height="8" fill="rgb(0,190,214)" /><rect x="719" y="174" width="19" height="8" fill="rgb(0,190,214)" /><rect x="53" y="181" width="19" height="8" fill="rgb(0,120,206)" /><rect x="71" y="181" width="19" height="8" fill="rgb(0,120,206)" /><rect x="89" y="181" width="19" height="8" fill="rgb(0,120,206)" /><rect x="107" y="181" width="19" height="8" fill="rgb(0,120,206)" /><rect x="125" y="181" width="19" height="8" fill="rgb(0,120,206)" /><rect x="143" y="181" width="19" height="8" fill="rgb(0,120,206)" /><rect x="161" y="181" width="19" height="8" fill="rgb(0,120,206)" /><rect x="179" y="181" width="19" height="8" fill="rgb(0,120,206)" /><rect x="287" y="181" width="19" height="8" fill="rgb(0,190,214)" /><rect x="305" y="181" width="19" height="8" fill="rgb(0,190,214)" /><rect x="323" y="181" width="19" height="8" fill="rgb(0,190,214)" /><rect x="341" y="181" width="19" height="8" fill="rgb(0,190,214)" /><rect x="359" y="181" width="19" height="8" fill="rgb(0,190,214)" /><rect x="377" y="181" width="19" height="8" fill="rgb(0,190,214)" /><rect x="395" y="181" width="19" height="8" fill="rgb(0,190,214)" /><rect x="413" y="181" width="19" height="8" fill="rgb(0,190,214)" /><rect x="467" y="181" width="19" height="8" fill="rgb(0,189,214)" /><rect x="485" y="181" width="19" height="8" fill="rgb(0,190,214)" /><rect x="503" y="181" width="19" height="8" fill="rgb(0,190,214)" /><rect x="521" y="181" width="19" height="8" fill="rgb(0,190,214)" /><rect x="539" y="181" width="19" height="8" fill="rgb(0,190,214)" /><rect x="557" y="181" width="19" height="8" fill="rgb(0,190,214)" /><rect x="683" y="181" width="19" height="8" fill="rgb(0,190,214)" /><rect x="701" y="181" width="19" height="8" fill="rgb(0,190,214)" /><rect x="719" y="181" width="19" height="8" fill="rgb(0,189,214)" /><rect x="53" y="188" width="19" height="8" fill="rgb(0,120,206)" /><rect x="71" y="188" width="19" height="8" fill="rgb(0,120,206)" /><rect x="89" y="188" width="19" height="8" fill="rgb(0,120,206)" /><rect x="107" y="188" width="19" height="8" fill="rgb(0,120,206)" /><rect x="125" y="188" width="19" height="8" fill="rgb(0,120,206)" /><rect x="143" y="188" width="19" height="8" fill="rgb(0,120,206)" /><rect x="161" y="188" width="19" height="8" fill="rgb(0,120,206)" /><rect x="179" y="188" width="19" height="8" fill="rgb(0,120,206)" /><rect x="287" y="188" width="19" height="8" fill="rgb(0,190,214)" /><rect x="305" y="188" width="19" height="8" fill="rgb(0,190,214)" /><rect x="323" y="188" width="19" height="8" fill="rgb(0,190,214)" /><rect x="341" y="188" width="19" height="8" fill="rgb(0,190,214)" /><rect x="359" y="188" width="19" height="8" fill="rgb(0,190,214)" /><rect x="377" y="188" width="19" height="8" fill="rgb(0,190,214)" /><rect x="395" y="188" width="19" height="8" fill="rgb(0,190,214)" /><rect x="467" y="188" width="19" height="8" fill="rgb(0,190,214)" /><rect x="485" y="188" width="19" height="8" fill="rgb(0,190,214)" /><rect x="503" y="188" width="19" height="8" fill="rgb(0,190,214)" /><rect x="521" y="188" width="19" height="8" fill="rgb(0,190,214)" /><rect x="539" y="188" width="19" height="8" fill="rgb(0,190,214)" /><rect x="557" y="188" width="19" height="8" fill="rgb(0,190,214)" /><rect x="683" y="188" width="19" height="8" fill="rgb(0,190,214)" /><rect x="701" y="188" width="19" height="8" fill="rgb(0,190,214)" /><rect x="71" y="195" width="19" height="8" fill="rgb(0,120,206)" /><rect x="89" y="195" width="19" height="8" fill="rgb(0,120,206)" /><rect x="107" y="195" width="19" height="8" fill="rgb(0,120,206)" /><rect x="125" y="195" width="19" height="8" fill="rgb(0,120,206)" /><rect x="143" y="195" width="19" height="8" fill="rgb(0,120,206)" /><rect x="161" y="195" width="19" height="8" fill="rgb(0,120,206)" /><rect x="305" y="195" width="19" height="8" fill="rgb(0,190,214)" /><rect x="323" y="195" width="19" height="8" fill="rgb(0,190,214)" /><rect x="341" y="195" width="19" height="8" fill="rgb(0,190,214)" /><rect x="359" y="195" width="19" height="8" fill="rgb(0,190,214)" /><rect x="377" y="195" width="19" height="8" fill="rgb(0,190,214)" /><rect x="395" y="195" width="19" height="8" fill="rgb(0,189,214)" /><rect x="485" y="195" width="19" height="8" fill="rgb(0,190,214)" /><rect x="503" y="195" width="19" height="8" fill="rgb(0,190,214)" /><rect x="521" y="195" width="19" height="8" fill="rgb(0,190,214)" /><rect x="539" y="195" width="19" height="8" fill="rgb(0,190,214)" /><rect x="683" y="195" width="19" height="8" fill="rgb(0,190,214)" /><rect x="701" y="195" width="19" height="8" fill="rgb(0,190,214)" /><rect x="89" y="202" width="19" height="8" fill="rgb(0,120,206)" /><rect x="107" y="202" width="19" height="8" fill="rgb(0,120,206)" /><rect x="125" y="202" width="19" height="8" fill="rgb(0,120,206)" /><rect x="143" y="202" width="19" height="8" fill="rgb(0,120,206)" /><rect x="107" y="209" width="19" height="8" fill="rgb(0,120,206)" /><rect x="125" y="209" width="19" height="8" fill="rgb(0,120,206)" /><g transform="translate(0.000000,302.000000) scale(0.100000,-0.100000)" fill="#131F79" stroke="none"><path d="M310 2500 c-116 -42 -207 -125 -263 -240 -30 -62 -32 -70 -32 -185 0 -114 2 -123 32 -187 103 -219 348 -324 543 -232 65 31 190 117 190 131 0 5 -20 19 -45 32 -67 35 -168 132 -212 204 -82 130 -109 239 -100 399 l5 98 -31 0 c-18 -1 -57 -10 -87 -20z"/></g><g transform="translate(0.000000,302.000000) scale(0.100000,-0.100000)" fill="#005F99" stroke="none"><path d="M1868 2693 c6 -2 18 -2 25 0 6 3 1 5 -13 5 -14 0 -19 -2 -12 -5z"/><path d="M2240 2576 c0 -2 8 -10 18 -17 15 -13 16 -12 3 4 -13 16 -21 21 -21 13z"/><path d="M408 2523 c7 -3 16 -2 19 1 4 3 -2 6 -13 5 -11 0 -14 -3 -6 -6z"/><path d="M290 2500 c-8 -5 -10 -10 -5 -10 6 0 17 5 25 10 8 5 11 10 5 10 -5 0 -17 -5 -25 -10z"/><path d="M179 2433 c-13 -16 -12 -17 4 -4 9 7 17 15 17 17 0 8 -8 3 -21 -13z"/><path d="M129 2393 l-24 -28 28 24 c25 23 32 31 24 31 -2 0 -14 -12 -28 -27z"/><path d="M83 2338 c-15 -20 -25 -38 -20 -38 3 0 12 11 21 25 17 26 16 35 -1 13z"/><path d="M2491 2144 c0 -11 3 -14 6 -6 3 7 2 16 -1 19 -3 4 -6 -2 -5 -13z"/><path d="M4 2045 c0 -60 1 -84 3 -52 2 32 2 81 0 110 -2 29 -3 3 -3 -58z"/><path d="M2492 1970 c0 -14 2 -19 5 -12 2 6 2 18 0 25 -3 6 -5 1 -5 -13z"/><path d="M170 1431 c0 -6 4 -13 10 -16 6 -3 7 1 4 9 -7 18 -14 21 -14 7z"/><path d="M196 1387 c3 -10 9 -15 12 -12 3 3 0 11 -7 18 -10 9 -11 8 -5 -6z"/><path d="M285 1270 c10 -11 20 -20 23 -20 3 0 -3 9 -13 20 -10 11 -20 20 -23 20 -3 0 3 -9 13 -20z"/><path d="M2194 1258 l-19 -23 23 19 c21 18 27 26 19 26 -2 0 -12 -10 -23 -22z"/><path d="M2054 1118 l-19 -23 23 19 c21 18 27 26 19 26 -2 0 -12 -10 -23 -22z"/><path d="M430 1126 c0 -2 8 -10 18 -17 15 -13 16 -12 3 4 -13 16 -21 21 -21 13z"/><path d="M490 1076 c0 -2 8 -10 18 -17 15 -13 16 -12 3 4 -13 16 -21 21 -21 13z"/><path d="M998 843 c7 -3 16 -2 19 1 4 3 -2 6 -13 5 -11 0 -14 -3 -6 -6z"/><path d="M1488 843 c7 -3 16 -2 19 1 4 3 -2 6 -13 5 -11 0 -14 -3 -6 -6z"/><path d="M1138 823 c12 -2 30 -2 40 0 9 3 -1 5 -23 4 -22 0 -30 -2 -17 -4z"/><path d="M1328 823 c12 -2 30 -2 40 0 9 3 -1 5 -23 4 -22 0 -30 -2 -17 -4z"/><path d="M2842 588 l2 -53 3 47 c4 44 6 47 36 51 31 4 31 4 -5 5 l-38 2 2 -52z"/><path d="M5362 388 l3 -253 2 247 3 247 33 4 c31 4 31 4 -5 5 l-38 2 2 -252z"/><path d="M5777 633 c23 -3 33 -10 36 -26 4 -18 5 -17 6 6 1 25 -2 27 -36 25 -37 -1 -37 -1 -6 -5z"/><path d="M7162 388 l3 -253 2 247 3 247 33 4 c31 4 31 4 -5 5 l-38 2 2 -252z"/><path d="M7568 633 c12 -2 30 -2 40 0 9 3 -1 5 -23 4 -22 0 -30 -2 -17 -4z"/><path d="M5699 603 c-13 -16 -12 -17 4 -4 16 13 21 21 13 21 -2 0 -10 -8 -17 -17z"/><path d="M7495 600 c-10 -11 -16 -22 -14 -24 2 -2 12 7 22 20 22 29 17 32 -8 4z"/><path d="M3489 543 c-13 -16 -12 -17 4 -4 16 13 21 21 13 21 -2 0 -10 -8 -17 -17z"/><path d="M4365 551 c-6 -5 -19 -11 -30 -14 -19 -4 -19 -5 1 -6 12 0 27 6 34 14 14 16 10 20 -5 6z"/><path d="M5565 551 c-6 -5 -19 -11 -30 -14 -19 -4 -19 -5 1 -6 12 0 27 6 34 14 14 16 10 20 -5 6z"/><path d="M7365 551 c-6 -5 -19 -11 -30 -14 -19 -4 -19 -5 1 -6 12 0 27 6 34 14 14 16 10 20 -5 6z"/><path d="M5672 510 c0 -19 2 -27 5 -17 2 9 2 25 0 35 -3 9 -5 1 -5 -18z"/><path d="M2844 340 c0 -107 2 -151 3 -97 2 53 2 141 0 195 -1 53 -3 9 -3 -98z"/><path d="M5812 460 c0 -14 2 -19 5 -12 2 6 2 18 0 25 -3 6 -5 1 -5 -13z"/><path d="M6372 460 c0 -14 2 -19 5 -12 2 6 2 18 0 25 -3 6 -5 1 -5 -13z"/><path d="M5104 300 c0 -96 2 -136 3 -87 2 48 2 126 0 175 -1 48 -3 8 -3 -88z"/><path d="M6105 450 c10 -11 20 -20 23 -20 3 0 -3 9 -13 20 -10 11 -20 20 -23 20 -3 0 3 -9 13 -20z"/><path d="M7905 450 c10 -11 20 -20 23 -20 3 0 -3 9 -13 20 -10 11 -20 20 -23 20 -3 0 3 -9 13 -20z"/><path d="M3090 456 c0 -2 8 -10 18 -17 15 -13 16 -12 3 4 -13 16 -21 21 -21 13z"/><path d="M2948 443 c12 -2 32 -2 45 0 12 2 2 4 -23 4 -25 0 -35 -2 -22 -4z"/><path d="M3318 443 c7 -3 16 -2 19 1 4 3 -2 6 -13 5 -11 0 -14 -3 -6 -6z"/><path d="M3693 443 c9 -2 25 -2 35 0 9 3 1 5 -18 5 -19 0 -27 -2 -17 -5z"/><path d="M4088 443 c12 -2 32 -2 45 0 12 2 2 4 -23 4 -25 0 -35 -2 -22 -4z"/><path d="M4558 443 c12 -2 30 -2 40 0 9 3 -1 5 -23 4 -22 0 -30 -2 -17 -4z"/><path d="M4963 443 c9 -2 25 -2 35 0 9 3 1 5 -18 5 -19 0 -27 -2 -17 -5z"/><path d="M5983 443 c9 -2 25 -2 35 0 9 3 1 5 -18 5 -19 0 -27 -2 -17 -5z"/><path d="M6738 443 c6 -2 18 -2 25 0 6 3 1 5 -13 5 -14 0 -19 -2 -12 -5z"/><path d="M7783 443 c9 -2 23 -2 30 0 6 3 -1 5 -18 5 -16 0 -22 -2 -12 -5z"/><path d="M3432 410 c0 -19 2 -27 5 -17 2 9 2 25 0 35 -3 9 -5 1 -5 -18z"/><path d="M4160 313 c-3 -73 -1 -129 3 -124 4 4 6 64 5 132 l-3 124 -5 -132z"/><path d="M5030 313 c-3 -73 -1 -129 3 -124 4 4 6 64 5 132 l-3 124 -5 -132z"/><path d="M5674 290 c0 -85 2 -120 3 -77 2 42 2 112 0 155 -1 42 -3 7 -3 -78z"/><path d="M3126 407 c3 -10 9 -15 12 -12 3 3 0 11 -7 18 -10 9 -11 8 -5 -6z"/><path d="M3060 391 c0 -6 4 -13 10 -16 6 -3 7 1 4 9 -7 18 -14 21 -14 7z"/><path d="M3804 265 c0 -72 1 -99 3 -62 2 37 2 96 0 130 -2 34 -3 4 -3 -68z"/><path d="M7881 374 c0 -11 3 -14 6 -6 3 7 2 16 -1 19 -3 4 -6 -2 -5 -13z"/><path d="M6081 364 c0 -11 3 -14 6 -6 3 7 2 16 -1 19 -3 4 -6 -2 -5 -13z"/><path d="M3923 305 c0 -22 2 -30 4 -17 2 12 2 30 0 40 -3 9 -5 -1 -4 -23z"/><path d="M4793 305 c0 -22 2 -30 4 -17 2 12 2 30 0 40 -3 9 -5 -1 -4 -23z"/><path d="M6912 310 c0 -19 2 -27 5 -17 2 9 2 25 0 35 -3 9 -5 1 -5 -18z"/><path d="M7768 333 c7 -3 16 -2 19 1 4 3 -2 6 -13 5 -11 0 -14 -3 -6 -6z"/><path d="M3081 314 c0 -11 3 -14 6 -6 3 7 2 16 -1 19 -3 4 -6 -2 -5 -13z"/><path d="M6590 255 c0 -5 5 -17 10 -25 5 -8 10 -10 10 -5 0 6 -5 17 -10 25 -5 8 -10 11 -10 5z"/><path d="M3126 223 c-6 -14 -5 -15 5 -6 7 7 10 15 7 18 -3 3 -9 -2 -12 -12z"/><path d="M5840 231 c0 -6 4 -13 10 -16 6 -3 7 1 4 9 -7 18 -14 21 -14 7z"/><path d="M6895 219 c-4 -6 -5 -12 -2 -15 2 -3 7 2 10 11 7 17 1 20 -8 4z"/><path d="M7725 210 c10 -11 20 -20 23 -20 3 0 -3 9 -13 20 -10 11 -20 20 -23 20 -3 0 3 -9 13 -20z"/><path d="M3039 203 c-13 -16 -12 -17 4 -4 16 13 21 21 13 21 -2 0 -10 -8 -17 -17z"/><path d="M3433 180 c0 -25 2 -35 4 -22 2 12 2 32 0 45 -2 12 -4 2 -4 -23z"/><path d="M4010 216 c0 -2 8 -10 18 -17 15 -13 16 -12 3 4 -13 16 -21 21 -21 13z"/><path d="M4880 216 c0 -2 8 -10 18 -17 15 -13 16 -12 3 4 -13 16 -21 21 -21 13z"/><path d="M3089 173 l-24 -28 28 24 c15 14 27 26 27 28 0 8 -8 1 -31 -24z"/><path d="M6790 190 c-9 -6 -10 -10 -3 -10 6 0 15 5 18 10 8 12 4 12 -15 0z"/><path d="M4845 170 c10 -11 20 -20 23 -20 3 0 -3 9 -13 20 -10 11 -20 20 -23 20 -3 0 3 -9 13 -20z"/><path d="M4161 124 c0 -11 3 -14 6 -6 3 7 2 16 -1 19 -3 4 -6 -2 -5 -13z"/><path d="M4140 10 c-9 -6 -10 -10 -3 -10 6 0 15 5 18 10 8 12 4 12 -15 0z"/></g><g transform="translate(0.000000,302.000000) scale(0.100000,-0.100000)" fill="#0699C5" stroke="none"><path d="M1008 3013 c28 -2 76 -2 105 0 28 2 5 3 -53 3 -58 0 -81 -1 -52 -3z"/><path d="M1228 2993 c7 -3 16 -2 19 1 4 3 -2 6 -13 5 -11 0 -14 -3 -6 -6z"/><path d="M830 2980 c-18 -12 -2 -12 25 0 13 6 15 9 5 9 -8 0 -22 -4 -30 -9z"/><path d="M1270 2980 c20 -13 33 -13 25 0 -3 6 -14 10 -23 10 -15 0 -15 -2 -2 -10z"/><path d="M785 2960 c-3 -6 1 -7 9 -4 18 7 21 14 7 14 -6 0 -13 -4 -16 -10z"/><path d="M1310 2966 c0 -2 7 -7 16 -10 8 -3 12 -2 9 4 -6 10 -25 14 -25 6z"/><path d="M710 2920 c-59 -39 -45 -39 17 0 26 17 43 30 37 30 -5 0 -29 -14 -54 -30z"/><path d="M1351 2946 c2 -2 15 -9 29 -15 24 -11 24 -11 6 3 -16 13 -49 24 -35 12z"/><path d="M1445 2888 c16 -15 34 -28 39 -28 5 0 -4 10 -20 22 -44 33 -53 36 -19 6z"/><path d="M3502 2913 c37 -2 100 -2 140 0 40 1 10 3 -67 3 -77 0 -110 -1 -73 -3z"/><path d="M5388 2913 c28 -2 76 -2 105 0 28 2 5 3 -53 3 -58 0 -81 -1 -52 -3z"/><path d="M3343 2903 c9 -2 23 -2 30 0 6 3 -1 5 -18 5 -16 0 -22 -2 -12 -5z"/><path d="M3758 2903 c6 -2 18 -2 25 0 6 3 1 5 -13 5 -14 0 -19 -2 -12 -5z"/><path d="M5278 2903 c6 -2 18 -2 25 0 6 3 1 5 -13 5 -14 0 -19 -2 -12 -5z"/><path d="M5588 2903 c7 -3 16 -2 19 1 4 3 -2 6 -13 5 -11 0 -14 -3 -6 -6z"/><path d="M3238 2893 c12 -2 30 -2 40 0 9 3 -1 5 -23 4 -22 0 -30 -2 -17 -4z"/><path d="M3843 2893 c9 -2 25 -2 35 0 9 3 1 5 -18 5 -19 0 -27 -2 -17 -5z"/><path d="M5218 2893 c6 -2 18 -2 25 0 6 3 1 5 -13 5 -14 0 -19 -2 -12 -5z"/><path d="M5663 2893 c9 -2 23 -2 30 0 6 3 -1 5 -18 5 -16 0 -22 -2 -12 -5z"/><path d="M3178 2883 c7 -3 16 -2 19 1 4 3 -2 6 -13 5 -11 0 -14 -3 -6 -6z"/><path d="M3908 2883 c7 -3 16 -2 19 1 4 3 -2 6 -13 5 -11 0 -14 -3 -6 -6z"/><path d="M5178 2883 c7 -3 16 -2 19 1 4 3 -2 6 -13 5 -11 0 -14 -3 -6 -6z"/><path d="M645 2872 c-5 -4 -17 -16 -25 -27 -11 -15 -7 -14 13 4 24 22 32 31 25 31 -2 0 -7 -4 -13 -8z"/><path d="M3108 2873 c7 -3 16 -2 19 1 4 3 -2 6 -13 5 -11 0 -14 -3 -6 -6z"/><path d="M3968 2873 c7 -3 16 -2 19 1 4 3 -2 6 -13 5 -11 0 -14 -3 -6 -6z"/><path d="M3025 2860 c-25 -11 1 -11 35 0 20 6 21 8 5 8 -11 0 -29 -3 -40 -8z"/><path d="M4008 2863 c7 -3 16 -2 19 1 4 3 -2 6 -13 5 -11 0 -14 -3 -6 -6z"/><path d="M5090 2860 c-8 -5 -10 -10 -5 -10 6 0 17 5 25 10 8 5 11 10 5 10 -5 0 -17 -5 -25 -10z"/><path d="M5808 2863 c7 -3 16 -2 19 1 4 3 -2 6 -13 5 -11 0 -14 -3 -6 -6z"/><path d="M6757 2850 c3 -11 7 -20 9 -20 2 0 4 9 4 20 0 11 -4 20 -9 20 -5 0 -7 -9 -4 -20z"/><path d="M7991 2863 c-1 -6 -4 -20 -7 -30 -5 -17 -5 -17 6 0 6 10 9 23 6 30 -3 9 -5 9 -5 0z"/><path d="M1515 2830 c10 -11 20 -20 23 -20 3 0 -3 9 -13 20 -10 11 -20 20 -23 20 -3 0 3 -9 13 -20z"/><path d="M2968 2843 c7 -3 16 -2 19 1 4 3 -2 6 -13 5 -11 0 -14 -3 -6 -6z"/><path d="M7366 2835 c-3 -9 -6 -24 -5 -33 0 -9 5 -4 10 12 9 32 6 48 -5 21z"/><path d="M4131 2826 c10 -9 89 -46 89 -41 0 5 -75 45 -86 45 -4 0 -5 -2 -3 -4z"/><path d="M566 2792 l-19 -27 26 24 c28 26 32 31 20 31 -5 0 -17 -13 -27 -28z"/><path d="M2858 2809 c-17 -9 -18 -62 -18 -889 0 -483 3 -881 8 -883 4 -3 6 392 4 877 l-2 883 22 11 c13 6 19 11 13 11 -5 0 -18 -4 -27 -10z"/><path d="M4952 2796 c-44 -31 -55 -45 -17 -21 52 32 70 45 60 45 -6 -1 -25 -11 -43 -24z"/><path d="M5951 2817 c2 -1 13 -9 24 -17 19 -14 19 -14 6 3 -7 9 -18 17 -24 17 -6 0 -8 -1 -6 -3z"/><path d="M6771 2810 c0 -8 4 -24 9 -35 5 -13 9 -14 9 -5 0 8 -4 24 -9 35 -5 13 -9 14 -9 5z"/><path d="M1574 2757 c16 -20 30 -37 33 -37 7 0 -36 58 -49 66 -7 4 1 -9 16 -29z"/><path d="M4275 2748 c17 -12 48 -39 71 -58 29 -25 26 -21 -8 13 -27 26 -59 52 -71 58 -13 6 -10 1 8 -13z"/><path d="M528 2743 c-15 -18 -46 -73 -35 -63 9 8 57 80 53 80 -1 0 -10 -8 -18 -17z"/><path d="M4850 2717 c-20 -18 -44 -43 -55 -57 -11 -14 6 0 38 30 51 49 62 61 55 60 -2 -1 -19 -15 -38 -33z"/><path d="M6791 2734 c0 -11 3 -14 6 -6 3 7 2 16 -1 19 -3 4 -6 -2 -5 -13z"/><path d="M6130 2725 c0 -5 5 -17 10 -25 5 -8 10 -10 10 -5 0 6 -5 17 -10 25 -5 8 -10 11 -10 5z"/><path d="M7941 2723 c-1 -6 -4 -20 -7 -30 -5 -17 -5 -17 6 0 6 10 9 23 6 30 -3 9 -5 9 -5 0z"/><path d="M1627 2675 c9 -19 18 -33 21 -31 4 5 -26 66 -33 66 -3 0 3 -16 12 -35z"/><path d="M7331 2694 c0 -11 3 -14 6 -6 3 7 2 16 -1 19 -3 4 -6 -2 -5 -13z"/><path d="M5937 2681 c-4 -17 -3 -21 5 -13 5 5 8 16 6 23 -3 8 -7 3 -11 -10z"/><path d="M1938 2683 c6 -2 18 -2 25 0 6 3 1 5 -13 5 -14 0 -19 -2 -12 -5z"/><path d="M6811 2654 c0 -11 3 -14 6 -6 3 7 2 16 -1 19 -3 4 -6 -2 -5 -13z"/><path d="M7316 2645 c-3 -9 -6 -22 -5 -28 0 -7 5 -1 10 12 5 13 8 26 5 28 -2 2 -6 -3 -10 -12z"/><path d="M5917 2631 c-4 -17 -3 -21 5 -13 5 5 8 16 6 23 -3 8 -7 3 -11 -10z"/><path d="M4721 2550 c-23 -45 -41 -90 -41 -99 0 -9 11 10 24 41 13 31 33 73 45 94 12 20 20 39 17 41 -2 2 -22 -32 -45 -77z"/><path d="M6821 2620 c0 -8 4 -24 9 -35 5 -13 9 -14 9 -5 0 8 -4 24 -9 35 -5 13 -9 14 -9 5z"/><path d="M446 2585 c-3 -9 -6 -22 -5 -28 0 -7 5 -1 10 12 5 13 8 26 5 28 -2 2 -6 -3 -10 -12z"/><path d="M3518 2593 c12 -2 30 -2 40 0 9 3 -1 5 -23 4 -22 0 -30 -2 -17 -4z"/><path d="M3648 2593 c12 -2 30 -2 40 0 9 3 -1 5 -23 4 -22 0 -30 -2 -17 -4z"/><path d="M4437 2565 c9 -19 18 -33 21 -31 4 5 -26 66 -33 66 -3 0 3 -16 12 -35z"/><path d="M5897 2581 c-4 -17 -3 -21 5 -13 5 5 8 16 6 23 -3 8 -7 3 -11 -10z"/><path d="M6181 2590 c0 -8 4 -22 9 -30 12 -18 12 -2 0 25 -6 13 -9 15 -9 5z"/><path d="M3730 2580 c8 -5 20 -10 25 -10 6 0 3 5 -5 10 -8 5 -19 10 -25 10 -5 0 -3 -5 5 -10z"/><path d="M7891 2583 c-1 -6 -4 -20 -7 -30 -5 -17 -5 -17 6 0 6 10 9 23 6 30 -3 9 -5 9 -5 0z"/><path d="M3790 2557 c0 -2 15 -16 33 -33 l32 -29 -29 33 c-28 30 -36 37 -36 29z"/><path d="M6841 2544 c0 -11 3 -14 6 -6 3 7 2 16 -1 19 -3 4 -6 -2 -5 -13z"/><path d="M2270 2546 c0 -2 8 -10 18 -17 15 -13 16 -12 3 4 -13 16 -21 21 -21 13z"/><path d="M5508 2533 c12 -2 30 -2 40 0 9 3 -1 5 -23 4 -22 0 -30 -2 -17 -4z"/><path d="M5871 2509 c-6 -18 -9 -34 -7 -36 2 -2 9 10 15 28 6 18 9 34 7 36 -2 2 -9 -10 -15 -28z"/><path d="M6200 2535 c0 -5 5 -17 10 -25 5 -8 10 -10 10 -5 0 6 -5 17 -10 25 -5 8 -10 11 -10 5z"/><path d="M5428 2523 c6 -2 18 -2 25 0 6 3 1 5 -13 5 -14 0 -19 -2 -12 -5z"/><path d="M5603 2523 c9 -2 23 -2 30 0 6 3 -1 5 -18 5 -16 0 -22 -2 -12 -5z"/><path d="M5380 2510 c-8 -5 -10 -10 -5 -10 6 0 17 5 25 10 8 5 11 10 5 10 -5 0 -17 -5 -25 -10z"/><path d="M5675 2510 c11 -5 27 -9 35 -9 9 0 8 4 -5 9 -11 5 -27 9 -35 9 -9 0 -8 -4 5 -9z"/><path d="M7281 2504 c0 -11 3 -14 6 -6 3 7 2 16 -1 19 -3 4 -6 -2 -5 -13z"/><path d="M6856 2485 c8 -37 14 -45 14 -19 0 10 -5 26 -10 34 -8 11 -9 7 -4 -15z"/><path d="M5332 2484 c-12 -8 -27 -25 -33 -37 l-10 -22 18 22 c10 12 27 29 38 37 27 20 16 20 -13 0z"/><path d="M2345 2470 c10 -11 20 -20 23 -20 3 0 -3 9 -13 20 -10 11 -20 20 -23 20 -3 0 3 -9 13 -20z"/><path d="M3850 2481 c0 -6 4 -13 10 -16 6 -3 7 1 4 9 -7 18 -14 21 -14 7z"/><path d="M5810 2465 c14 -8 32 -14 40 -14 8 0 0 6 -19 14 -42 19 -54 19 -21 0z"/><path d="M7266 2465 c-3 -9 -6 -24 -5 -33 0 -9 5 -4 10 12 9 32 6 48 -5 21z"/><path d="M6230 2446 c0 -8 4 -17 9 -20 5 -4 7 3 4 14 -6 23 -13 26 -13 6z"/><path d="M3872 2430 c0 -14 2 -19 5 -12 2 6 2 18 0 25 -3 6 -5 1 -5 -13z"/><path d="M7837 2431 c-4 -17 -3 -21 5 -13 5 5 8 16 6 23 -3 8 -7 3 -11 -10z"/><path d="M6871 2430 c0 -8 4 -24 9 -35 5 -13 9 -14 9 -5 0 8 -4 24 -9 35 -5 13 -9 14 -9 5z"/><path d="M4483 2375 c0 -33 2 -45 4 -27 2 18 2 45 0 60 -2 15 -4 0 -4 -33z"/><path d="M6250 2396 c0 -8 4 -17 9 -20 5 -4 7 3 4 14 -6 23 -13 26 -13 6z"/><path d="M7246 2395 c-3 -9 -6 -24 -5 -33 0 -9 5 -4 10 12 9 32 6 48 -5 21z"/><path d="M5273 2365 c0 -22 2 -30 4 -17 2 12 2 30 0 40 -3 9 -5 -1 -4 -23z"/><path d="M3883 2345 c0 -27 2 -38 4 -22 2 15 2 37 0 50 -2 12 -4 0 -4 -28z"/><path d="M4662 2370 c0 -14 2 -19 5 -12 2 6 2 18 0 25 -3 6 -5 1 -5 -13z"/><path d="M7816 2375 c-9 -26 -7 -32 5 -12 6 10 9 21 6 23 -2 3 -7 -2 -11 -11z"/><path d="M6891 2360 c0 -8 4 -24 9 -35 5 -13 9 -14 9 -5 0 8 -4 24 -9 35 -5 13 -9 14 -9 5z"/><path d="M5290 2287 c0 -2 15 -16 33 -33 l32 -29 -29 33 c-28 30 -36 37 -36 29z"/><path d="M3871 2254 c0 -11 3 -14 6 -6 3 7 2 16 -1 19 -3 4 -6 -2 -5 -13z"/><path d="M7211 2254 c0 -11 3 -14 6 -6 3 7 2 16 -1 19 -3 4 -6 -2 -5 -13z"/><path d="M4452 2235 c-17 -37 -14 -45 4 -12 9 16 14 31 11 33 -2 2 -9 -7 -15 -21z"/><path d="M7766 2235 c-9 -26 -7 -32 5 -12 6 10 9 21 6 23 -2 3 -7 -2 -11 -11z"/><path d="M3851 2203 c-10 -26 -10 -27 4 -9 8 11 15 23 15 28 0 15 -7 8 -19 -19z"/><path d="M4662 2210 c0 -14 2 -19 5 -12 2 6 2 18 0 25 -3 6 -5 1 -5 -13z"/><path d="M5365 2220 c7 -11 65 -43 65 -36 0 2 -16 13 -36 25 -19 12 -32 16 -29 11z"/><path d="M7196 2204 c-4 -14 -5 -28 -3 -31 3 -2 8 8 11 23 4 14 5 28 3 31 -3 2 -8 -8 -11 -23z"/><path d="M6931 2204 c0 -11 3 -14 6 -6 3 7 2 16 -1 19 -3 4 -6 -2 -5 -13z"/><path d="M2481 2194 c0 -11 3 -14 6 -6 3 7 2 16 -1 19 -3 4 -6 -2 -5 -13z"/><path d="M5450 2170 c8 -5 20 -10 25 -10 6 0 3 5 -5 10 -8 5 -19 10 -25 10 -5 0 -3 -5 5 -10z"/><path d="M6941 2170 c0 -8 4 -24 9 -35 5 -13 9 -14 9 -5 0 8 -4 24 -9 35 -5 13 -9 14 -9 5z"/><path d="M3802 2146 c-46 -33 -53 -43 -14 -20 19 10 38 25 44 32 15 17 8 14 -30 -12z"/><path d="M4365 2108 c-28 -29 -39 -44 -25 -33 29 23 38 33 64 63 36 42 10 22 -39 -30z"/><path d="M7181 2144 c0 -11 3 -14 6 -6 3 7 2 16 -1 19 -3 4 -6 -2 -5 -13z"/><path d="M5520 2140 c8 -5 20 -10 25 -10 6 0 3 5 -5 10 -8 5 -19 10 -25 10 -5 0 -3 -5 5 -10z"/><path d="M2493 2060 c0 -41 2 -58 4 -37 2 20 2 54 0 75 -2 20 -4 3 -4 -38z"/><path d="M4685 2108 c4 -13 11 -27 16 -33 5 -5 4 5 -2 23 -12 36 -24 44 -14 10z"/><path d="M5570 2120 c8 -5 20 -10 25 -10 6 0 3 5 -5 10 -8 5 -19 10 -25 10 -5 0 -3 -5 5 -10z"/><path d="M6350 2125 c0 -5 5 -17 10 -25 5 -8 10 -10 10 -5 0 6 -5 17 -10 25 -5 8 -10 11 -10 5z"/><path d="M7721 2113 c-1 -6 -4 -20 -7 -30 -5 -17 -5 -17 6 0 6 10 9 23 6 30 -3 9 -5 9 -5 0z"/><path d="M6961 2094 c0 -11 3 -14 6 -6 3 7 2 16 -1 19 -3 4 -6 -2 -5 -13z"/><path d="M3678 2093 c6 -2 18 -2 25 0 6 3 1 5 -13 5 -14 0 -19 -2 -12 -5z"/><path d="M5631 2096 c10 -9 109 -56 109 -51 0 5 -95 55 -106 55 -4 0 -5 -2 -3 -4z"/><path d="M3458 2083 c7 -3 16 -2 19 1 4 3 -2 6 -13 5 -11 0 -14 -3 -6 -6z"/><path d="M3608 2083 c12 -2 30 -2 40 0 9 3 -1 5 -23 4 -22 0 -30 -2 -17 -4z"/><path d="M6370 2066 c0 -8 4 -17 9 -20 5 -4 7 3 4 14 -6 23 -13 26 -13 6z"/><path d="M7161 2064 c0 -11 3 -14 6 -6 3 7 2 16 -1 19 -3 4 -6 -2 -5 -13z"/><path d="M4710 2051 c0 -6 4 -13 10 -16 6 -3 7 1 4 9 -7 18 -14 21 -14 7z"/><path d="M4250 2025 c-14 -8 -20 -14 -14 -15 5 0 19 7 30 15 24 18 16 19 -16 0z"/><path d="M5760 2030 c8 -6 24 -15 35 -21 16 -8 15 -6 -4 10 -13 12 -28 21 -35 21 -6 0 -4 -5 4 -10z"/><path d="M7146 2014 c-4 -14 -5 -28 -3 -31 3 -2 8 8 11 23 4 14 5 28 3 31 -3 2 -8 -8 -11 -23z"/><path d="M6981 2014 c0 -11 3 -14 6 -6 3 7 2 16 -1 19 -3 4 -6 -2 -5 -13z"/><path d="M4736 2005 c4 -8 11 -15 16 -15 6 0 5 6 -2 15 -7 8 -14 15 -16 15 -2 0 -1 -7 2 -15z"/><path d="M4200 2000 c-9 -6 -10 -10 -3 -10 6 0 15 5 18 10 8 12 4 12 -15 0z"/><path d="M5820 1996 c0 -2 8 -10 18 -17 15 -13 16 -12 3 4 -13 16 -21 21 -21 13z"/><path d="M6991 1980 c0 -8 4 -24 9 -35 5 -13 9 -14 9 -5 0 8 -4 24 -9 35 -5 13 -9 14 -9 5z"/><path d="M4120 1970 c-8 -5 -10 -10 -5 -10 6 0 17 5 25 10 8 5 11 10 5 10 -5 0 -17 -5 -25 -10z"/><path d="M4795 1940 c21 -22 41 -40 44 -40 3 0 -13 18 -34 40 -21 22 -41 40 -44 40 -3 0 13 -18 34 -40z"/><path d="M7671 1973 c-1 -6 -4 -20 -7 -30 -5 -17 -5 -17 6 0 6 10 9 23 6 30 -3 9 -5 9 -5 0z"/><path d="M5890 1935 c19 -19 36 -35 39 -35 3 0 -10 16 -29 35 -19 19 -36 35 -39 35 -3 0 10 -16 29 -35z"/><path d="M7126 1944 c-4 -14 -5 -28 -3 -31 3 -2 8 8 11 23 4 14 5 28 3 31 -3 2 -8 -8 -11 -23z"/><path d="M2482 1890 c0 -19 2 -27 5 -17 2 9 2 25 0 35 -3 9 -5 1 -5 -18z"/><path d="M7011 1910 c0 -8 4 -24 9 -35 5 -13 9 -14 9 -5 0 8 -4 24 -9 35 -5 13 -9 14 -9 5z"/><path d="M4270 1900 c35 -24 54 -31 30 -11 -14 11 -29 21 -35 21 -5 0 -3 -5 5 -10z"/><path d="M4850 1896 c0 -2 8 -10 18 -17 15 -13 16 -12 3 4 -13 16 -21 21 -21 13z"/><path d="M5940 1881 c0 -6 4 -13 10 -16 6 -3 7 1 4 9 -7 18 -14 21 -14 7z"/><path d="M4369 1832 c20 -18 51 -49 70 -70 26 -29 29 -31 13 -7 -20 30 -59 67 -98 95 -11 8 -4 0 15 -18z"/><path d="M4920 1846 c0 -3 9 -10 20 -16 11 -6 20 -8 20 -6 0 3 -9 10 -20 16 -11 6 -20 8 -20 6z"/><path d="M5970 1830 c6 -11 13 -20 16 -20 2 0 0 9 -6 20 -6 11 -13 20 -16 20 -2 0 0 -9 6 -20z"/><path d="M3648 1813 c7 -3 16 -2 19 1 4 3 -2 6 -13 5 -11 0 -14 -3 -6 -6z"/><path d="M7091 1804 c0 -11 3 -14 6 -6 3 7 2 16 -1 19 -3 4 -6 -2 -5 -13z"/><path d="M3698 1803 c7 -3 16 -2 19 1 4 3 -2 6 -13 5 -11 0 -14 -3 -6 -6z"/><path d="M7601 1779 c-6 -18 -9 -34 -7 -36 2 -2 9 10 15 28 6 18 9 34 7 36 -2 2 -9 -10 -15 -28z"/><path d="M31 1784 c0 -11 3 -14 6 -6 3 7 2 16 -1 19 -3 4 -6 -2 -5 -13z"/><path d="M3760 1785 c14 -8 30 -14 35 -14 6 0 -1 6 -15 14 -14 8 -29 14 -35 14 -5 0 1 -6 15 -14z"/><path d="M5010 1794 c0 -7 52 -25 57 -20 2 2 -10 8 -26 14 -17 6 -31 9 -31 6z"/><path d="M6470 1795 c0 -5 5 -17 10 -25 5 -8 10 -10 10 -5 0 6 -5 17 -10 25 -5 8 -10 11 -10 5z"/><path d="M3830 1745 c14 -16 26 -32 28 -34 1 -2 4 -2 7 1 3 2 -10 18 -28 34 l-32 29 25 -30z"/><path d="M5087 1759 c7 -7 15 -10 18 -7 3 3 -2 9 -12 12 -14 6 -15 5 -6 -5z"/><path d="M7081 1754 c0 -11 3 -14 6 -6 3 7 2 16 -1 19 -3 4 -6 -2 -5 -13z"/><path d="M5125 1740 c3 -5 11 -10 16 -10 6 0 7 5 4 10 -3 6 -11 10 -16 10 -6 0 -7 -4 -4 -10z"/><path d="M7052 1730 c0 -14 2 -19 5 -12 2 6 2 18 0 25 -3 6 -5 1 -5 -13z"/><path d="M5164 1721 c3 -5 16 -11 28 -14 22 -6 22 -5 4 8 -22 17 -40 20 -32 6z"/><path d="M7071 1715 c-1 -11 -4 -31 -6 -45 l-6 -25 11 25 c6 13 9 33 7 45 -4 19 -4 19 -6 0z"/><path d="M6021 1704 c0 -11 3 -14 6 -6 3 7 2 16 -1 19 -3 4 -6 -2 -5 -13z"/><path d="M5220 1696 c0 -2 7 -7 16 -10 8 -3 12 -2 9 4 -6 10 -25 14 -25 6z"/><path d="M4496 1677 c3 -10 9 -15 12 -12 3 3 0 11 -7 18 -10 9 -11 8 -5 -6z"/><path d="M6510 1685 c0 -5 5 -17 10 -25 5 -8 10 -10 10 -5 0 6 -5 17 -10 25 -5 8 -10 11 -10 5z"/><path d="M5260 1677 c0 -2 15 -14 33 -27 20 -15 27 -17 18 -6 -13 16 -51 41 -51 33z"/><path d="M6031 1654 c0 -11 3 -14 6 -6 3 7 2 16 -1 19 -3 4 -6 -2 -5 -13z"/><path d="M7551 1639 c-6 -18 -9 -34 -7 -36 2 -2 9 10 15 28 6 18 9 34 7 36 -2 2 -9 -10 -15 -28z"/><path d="M3902 1610 c0 -14 2 -19 5 -12 2 6 2 18 0 25 -3 6 -5 1 -5 -13z"/><path d="M5330 1616 c0 -2 8 -10 18 -17 15 -13 16 -12 3 4 -13 16 -21 21 -21 13z"/><path d="M6043 1555 c0 -33 2 -45 4 -27 2 18 2 45 0 60 -2 15 -4 0 -4 -33z"/><path d="M4532 1570 c0 -14 2 -19 5 -12 2 6 2 18 0 25 -3 6 -5 1 -5 -13z"/><path d="M3913 1530 c0 -30 2 -43 4 -27 2 15 2 39 0 55 -2 15 -4 2 -4 -28z"/><path d="M6561 1550 c0 -8 4 -22 9 -30 12 -18 12 -2 0 25 -6 13 -9 15 -9 5z"/><path d="M2356 1503 c-6 -14 -5 -15 5 -6 7 7 10 15 7 18 -3 3 -9 -2 -12 -12z"/><path d="M5371 1494 c0 -11 3 -14 6 -6 3 7 2 16 -1 19 -3 4 -6 -2 -5 -13z"/><path d="M6031 1464 c0 -11 3 -14 6 -6 3 7 2 16 -1 19 -3 4 -6 -2 -5 -13z"/><path d="M3902 1450 c0 -14 2 -19 5 -12 2 6 2 18 0 25 -3 6 -5 1 -5 -13z"/><path d="M6590 1465 c0 -5 5 -17 10 -25 5 -8 10 -10 10 -5 0 6 -5 17 -10 25 -5 8 -10 11 -10 5z"/><path d="M7476 1435 c-9 -26 -7 -32 5 -12 6 10 9 21 6 23 -2 3 -7 -2 -11 -11z"/><path d="M4750 1432 c0 -5 6 -9 13 -9 6 0 21 -4 32 -7 13 -5 12 -2 -5 8 -29 17 -40 20 -40 8z"/><path d="M5315 1403 c-22 -19 -31 -31 -20 -25 19 9 74 63 64 62 -2 -1 -22 -17 -44 -37z"/><path d="M4532 1410 c0 -14 2 -19 5 -12 2 6 2 18 0 25 -3 6 -5 1 -5 -13z"/><path d="M6021 1414 c0 -11 3 -14 6 -6 3 7 2 16 -1 19 -3 4 -6 -2 -5 -13z"/><path d="M6610 1406 c0 -8 4 -17 9 -20 5 -4 7 3 4 14 -6 23 -13 26 -13 6z"/><path d="M4868 1383 c7 -3 16 -2 19 1 4 3 -2 6 -13 5 -11 0 -14 -3 -6 -6z"/><path d="M3854 1348 l-19 -23 23 19 c21 18 27 26 19 26 -2 0 -12 -10 -23 -22z"/><path d="M4948 1363 c7 -3 16 -2 19 1 4 3 -2 6 -13 5 -11 0 -14 -3 -6 -6z"/><path d="M4993 1353 c9 -2 23 -2 30 0 6 3 -1 5 -18 5 -16 0 -22 -2 -12 -5z"/><path d="M5208 1353 c6 -2 18 -2 25 0 6 3 1 5 -13 5 -14 0 -19 -2 -12 -5z"/><path d="M5982 1315 c-12 -25 -20 -45 -17 -45 7 0 47 81 43 86 -3 2 -14 -17 -26 -41z"/><path d="M6630 1351 c0 -6 4 -13 10 -16 6 -3 7 1 4 9 -7 18 -14 21 -14 7z"/><path d="M5078 1343 c23 -2 59 -2 80 0 20 2 1 4 -43 4 -44 0 -61 -2 -37 -4z"/><path d="M7431 1309 c-6 -18 -9 -34 -7 -36 2 -2 9 10 15 28 6 18 9 34 7 36 -2 2 -9 -10 -15 -28z"/><path d="M3800 1305 c-14 -8 -20 -14 -14 -15 5 0 19 7 30 15 24 18 16 19 -16 0z"/><path d="M260 1306 c0 -2 8 -10 18 -17 15 -13 16 -12 3 4 -13 16 -21 21 -21 13z"/><path d="M2219 1293 c-13 -16 -12 -17 4 -4 9 7 17 15 17 17 0 8 -8 3 -21 -13z"/><path d="M4487 1275 c-9 -19 -15 -35 -12 -35 7 0 37 61 33 66 -3 2 -12 -12 -21 -31z"/><path d="M3457 1279 c7 -7 15 -10 18 -7 3 3 -2 9 -12 12 -14 6 -15 5 -6 -5z"/><path d="M3740 1280 c-8 -5 -10 -10 -5 -10 6 0 17 5 25 10 8 5 11 10 5 10 -5 0 -17 -5 -25 -10z"/><path d="M6660 1275 c0 -5 5 -17 10 -25 5 -8 10 -10 10 -5 0 6 -5 17 -10 25 -5 8 -10 11 -10 5z"/><path d="M3518 1263 c12 -2 32 -2 45 0 12 2 2 4 -23 4 -25 0 -35 -2 -22 -4z"/><path d="M3648 1263 c12 -2 32 -2 45 0 12 2 2 4 -23 4 -25 0 -35 -2 -22 -4z"/><path d="M5922 1220 c-18 -22 -30 -40 -27 -40 8 0 41 37 56 63 15 27 7 20 -29 -23z"/><path d="M330 1225 c13 -14 26 -25 28 -25 3 0 -5 11 -18 25 -13 14 -26 25 -28 25 -3 0 5 -11 18 -25z"/><path d="M2125 1188 l-50 -53 53 50 c48 46 57 55 49 55 -1 0 -25 -24 -52 -52z"/><path d="M4411 1167 l-55 -62 48 45 c39 37 75 82 64 79 -2 0 -28 -28 -57 -62z"/><path d="M7386 1183 c-6 -14 -5 -15 5 -6 7 7 10 15 7 18 -3 3 -9 -2 -12 -12z"/><path d="M405 1150 c10 -11 20 -20 23 -20 3 0 -3 9 -13 20 -10 11 -20 20 -23 20 -3 0 3 -9 13 -20z"/><path d="M6710 1128 c0 -9 5 -20 10 -23 13 -8 13 5 0 25 -8 13 -10 13 -10 -2z"/><path d="M5809 1103 c-13 -17 -13 -17 6 -3 11 8 22 16 24 17 2 2 0 3 -6 3 -6 0 -17 -8 -24 -17z"/><path d="M7356 1105 c-9 -26 -7 -32 5 -12 6 10 9 21 6 23 -2 3 -7 -2 -11 -11z"/><path d="M4295 1075 c-22 -14 -36 -25 -31 -25 10 0 76 40 76 46 0 6 -2 5 -45 -21z"/><path d="M5760 1069 c-22 -18 -22 -19 -3 -10 12 6 25 16 28 21 9 15 3 12 -25 -11z"/><path d="M5710 1040 c-9 -6 -10 -10 -3 -10 6 0 15 5 18 10 8 12 4 12 -15 0z"/><path d="M4657 1019 c7 -7 15 -10 18 -7 3 3 -2 9 -12 12 -14 6 -15 5 -6 -5z"/><path d="M5670 1020 c-9 -6 -10 -10 -3 -10 6 0 15 5 18 10 8 12 4 12 -15 0z"/><path d="M6755 1008 c4 -13 11 -27 16 -33 5 -5 4 5 -2 23 -12 36 -24 44 -14 10z"/><path d="M2950 1000 c8 -5 22 -9 30 -9 10 0 8 3 -5 9 -27 12 -43 12 -25 0z"/><path d="M4110 994 l-35 -14 35 6 c19 3 39 10 45 15 13 13 -3 10 -45 -7z"/><path d="M4700 1000 c8 -5 22 -9 30 -9 10 0 8 3 -5 9 -27 12 -43 12 -25 0z"/><path d="M5625 1000 c-16 -7 -17 -9 -3 -9 9 -1 20 4 23 9 7 11 7 11 -20 0z"/><path d="M3108 963 c6 -2 18 -2 25 0 6 3 1 5 -13 5 -14 0 -19 -2 -12 -5z"/><path d="M3998 963 c6 -2 18 -2 25 0 6 3 1 5 -13 5 -14 0 -19 -2 -12 -5z"/><path d="M4828 963 c6 -2 18 -2 25 0 6 3 1 5 -13 5 -14 0 -19 -2 -12 -5z"/><path d="M5528 963 c7 -3 16 -2 19 1 4 3 -2 6 -13 5 -11 0 -14 -3 -6 -6z"/><path d="M3178 953 c6 -2 18 -2 25 0 6 3 1 5 -13 5 -14 0 -19 -2 -12 -5z"/><path d="M3900 950 c-34 -7 -34 -7 -5 -8 17 0 41 4 55 8 33 11 0 11 -50 0z"/><path d="M4900 950 c25 -8 97 -13 89 -6 -2 2 -29 6 -59 9 -36 4 -46 3 -30 -3z"/><path d="M3238 943 c12 -2 30 -2 40 0 9 3 -1 5 -23 4 -22 0 -30 -2 -17 -4z"/><path d="M5438 943 c6 -2 18 -2 25 0 6 3 1 5 -13 5 -14 0 -19 -2 -12 -5z"/><path d="M3358 933 c12 -2 32 -2 45 0 12 2 2 4 -23 4 -25 0 -35 -2 -22 -4z"/><path d="M3778 933 c12 -2 30 -2 40 0 9 3 -1 5 -23 4 -22 0 -30 -2 -17 -4z"/><path d="M5038 933 c12 -2 30 -2 40 0 9 3 -1 5 -23 4 -22 0 -30 -2 -17 -4z"/><path d="M5363 933 c9 -2 23 -2 30 0 6 3 -1 5 -18 5 -16 0 -22 -2 -12 -5z"/><path d="M3513 923 c42 -2 112 -2 155 0 42 1 7 3 -78 3 -85 0 -120 -2 -77 -3z"/><path d="M5168 923 c34 -2 88 -2 120 0 31 2 3 3 -63 3 -66 0 -92 -1 -57 -3z"/><path d="M1088 833 c7 -3 16 -2 19 1 4 3 -2 6 -13 5 -11 0 -14 -3 -6 -6z"/><path d="M1398 833 c7 -3 16 -2 19 1 4 3 -2 6 -13 5 -11 0 -14 -3 -6 -6z"/><path d="M1218 823 c17 -2 47 -2 65 0 17 2 3 4 -33 4 -36 0 -50 -2 -32 -4z"/><path d="M7224 390 c0 -135 2 -190 3 -122 2 67 2 177 0 245 -1 67 -3 12 -3 -123z"/><path d="M7610 617 c0 -8 -8 -18 -17 -20 -17 -4 -17 -5 0 -6 18 -1 35 25 23 36 -3 4 -6 -1 -6 -10z"/><path d="M5788 593 c7 -3 16 -2 19 1 4 3 -2 6 -13 5 -11 0 -14 -3 -6 -6z"/><path d="M5749 573 c-13 -16 -12 -17 4 -4 9 7 17 15 17 17 0 8 -8 3 -21 -13z"/><path d="M6433 515 c0 -22 2 -30 4 -17 2 12 2 30 0 40 -3 9 -5 -1 -4 -23z"/><path d="M3431 454 c0 -11 3 -14 6 -6 3 7 2 16 -1 19 -3 4 -6 -2 -5 -13z"/><path d="M5623 460 c2 -8 16 -16 33 -17 25 -1 26 0 4 4 -14 3 -29 10 -33 17 -6 7 -7 6 -4 -4z"/><path d="M7423 460 c2 -8 16 -16 33 -17 25 -1 26 0 4 4 -14 3 -29 10 -33 17 -6 7 -7 6 -4 -4z"/><path d="M7610 462 c0 -7 -17 -13 -37 -14 l-38 -1 34 -4 c33 -4 61 10 48 24 -4 3 -7 1 -7 -5z"/><path d="M3974 438 l-19 -23 23 19 c12 11 22 21 22 23 0 8 -8 2 -26 -19z"/><path d="M4844 438 l-19 -23 23 19 c12 11 22 21 22 23 0 8 -8 2 -26 -19z"/><path d="M5874 438 l-19 -23 23 19 c12 11 22 21 22 23 0 8 -8 2 -26 -19z"/><path d="M6865 440 c10 -11 20 -20 23 -20 3 0 -3 9 -13 20 -10 11 -20 20 -23 20 -3 0 3 -9 13 -20z"/><path d="M7679 443 c-13 -16 -12 -17 4 -4 9 7 17 15 17 17 0 8 -8 3 -21 -13z"/><path d="M3348 443 c7 -3 16 -2 19 1 4 3 -2 6 -13 5 -11 0 -14 -3 -6 -6z"/><path d="M5758 443 c12 -2 30 -2 40 0 9 3 -1 5 -23 4 -22 0 -30 -2 -17 -4z"/><path d="M6407 443 c21 -4 23 -10 26 -121 l3 -117 -1 120 0 120 -25 1 c-21 1 -22 0 -3 -3z"/><path d="M6508 443 c12 -2 30 -2 40 0 9 3 -1 5 -23 4 -22 0 -30 -2 -17 -4z"/><path d="M3864 275 c0 -77 2 -107 3 -67 2 40 2 103 0 140 -2 37 -3 4 -3 -73z"/><path d="M4734 280 c0 -74 1 -105 3 -67 2 37 2 97 0 135 -2 37 -3 6 -3 -68z"/><path d="M3433 300 c0 -47 2 -66 4 -42 2 23 2 61 0 85 -2 23 -4 4 -4 -43z"/><path d="M6141 364 c0 -11 3 -14 6 -6 3 7 2 16 -1 19 -3 4 -6 -2 -5 -13z"/><path d="M6593 315 c0 -33 2 -45 4 -27 2 18 2 45 0 60 -2 15 -4 0 -4 -33z"/><path d="M3143 315 c0 -27 2 -38 4 -22 2 15 2 37 0 50 -2 12 -4 0 -4 -28z"/><path d="M4863 310 c0 -30 2 -43 4 -27 2 15 2 39 0 55 -2 15 -4 2 -4 -28z"/><path d="M5988 333 c7 -3 16 -2 19 1 4 3 -2 6 -13 5 -11 0 -14 -3 -6 -6z"/><path d="M6652 310 c0 -19 2 -27 5 -17 2 9 2 25 0 35 -3 9 -5 1 -5 -18z"/><path d="M5898 323 c6 -2 18 -2 25 0 6 3 1 5 -13 5 -14 0 -19 -2 -12 -5z"/><path d="M7698 323 c6 -2 18 -2 25 0 6 3 1 5 -13 5 -14 0 -19 -2 -12 -5z"/><path d="M6118 313 c7 -3 16 -2 19 1 4 3 -2 6 -13 5 -11 0 -14 -3 -6 -6z"/><path d="M7918 313 c7 -3 16 -2 19 1 4 3 -2 6 -13 5 -11 0 -14 -3 -6 -6z"/><path d="M3081 284 c0 -11 3 -14 6 -6 3 7 2 16 -1 19 -3 4 -6 -2 -5 -13z"/><path d="M5948 293 c6 -2 18 -2 25 0 6 3 1 5 -13 5 -14 0 -19 -2 -12 -5z"/><path d="M7748 293 c6 -2 18 -2 25 0 6 3 1 5 -13 5 -14 0 -19 -2 -12 -5z"/><path d="M6680 206 c0 -2 8 -10 18 -17 15 -13 16 -12 3 4 -13 16 -21 21 -21 13z"/><path d="M6859 173 l-24 -28 28 24 c15 14 27 26 27 28 0 8 -8 1 -31 -24z"/><path d="M6008 173 c6 -2 18 -2 25 0 6 3 1 5 -13 5 -14 0 -19 -2 -12 -5z"/><path d="M6538 173 c7 -3 16 -2 19 1 4 3 -2 6 -13 5 -11 0 -14 -3 -6 -6z"/><path d="M7808 173 c6 -2 18 -2 25 0 6 3 1 5 -13 5 -14 0 -19 -2 -12 -5z"/><path d="M2928 133 c7 -3 16 -2 19 1 4 3 -2 6 -13 5 -11 0 -14 -3 -6 -6z"/><path d="M2988 133 c7 -3 16 -2 19 1 4 3 -2 6 -13 5 -11 0 -14 -3 -6 -6z"/><path d="M4078 133 c6 -2 18 -2 25 0 6 3 1 5 -13 5 -14 0 -19 -2 -12 -5z"/><path d="M4948 133 c6 -2 18 -2 25 0 6 3 1 5 -13 5 -14 0 -19 -2 -12 -5z"/><path d="M5978 133 c7 -3 16 -2 19 1 4 3 -2 6 -13 5 -11 0 -14 -3 -6 -6z"/><path d="M6038 133 c7 -3 16 -2 19 1 4 3 -2 6 -13 5 -11 0 -14 -3 -6 -6z"/><path d="M6518 133 c6 -2 18 -2 25 0 6 3 1 5 -13 5 -14 0 -19 -2 -12 -5z"/><path d="M6768 133 c7 -3 16 -2 19 1 4 3 -2 6 -13 5 -11 0 -14 -3 -6 -6z"/><path d="M7778 133 c7 -3 16 -2 19 1 4 3 -2 6 -13 5 -11 0 -14 -3 -6 -6z"/><path d="M7838 133 c7 -3 16 -2 19 1 4 3 -2 6 -13 5 -11 0 -14 -3 -6 -6z"/><path d="M5031 104 c0 -11 3 -14 6 -6 3 7 2 16 -1 19 -3 4 -6 -2 -5 -13z"/><path d="M4189 43 c-13 -16 -12 -17 4 -4 16 13 21 21 13 21 -2 0 -10 -8 -17 -17z"/><path d="M4038 43 c12 -2 32 -2 45 0 12 2 2 4 -23 4 -25 0 -35 -2 -22 -4z"/><path d="M4908 43 c12 -2 32 -2 45 0 12 2 2 4 -23 4 -25 0 -35 -2 -22 -4z"/><path d="M3998 3 c6 -2 18 -2 25 0 6 3 1 5 -13 5 -14 0 -19 -2 -12 -5z"/><path d="M4878 3 c7 -3 16 -2 19 1 4 3 -2 6 -13 5 -11 0 -14 -3 -6 -6z"/></g><g transform="translate(0.000000,302.000000) scale(0.100000,-0.100000)" fill="#0685CC" stroke="none"><path d="M3388 2903 c7 -3 16 -2 19 1 4 3 -2 6 -13 5 -11 0 -14 -3 -6 -6z"/><path d="M5558 2903 c7 -3 16 -2 19 1 4 3 -2 6 -13 5 -11 0 -14 -3 -6 -6z"/><path d="M1510 2825 c19 -19 36 -35 39 -35 3 0 -10 16 -29 35 -19 19 -36 35 -39 35 -3 0 10 -16 29 -35z"/><path d="M1863 2683 c15 -2 37 -2 50 0 12 2 0 4 -28 4 -27 0 -38 -2 -22 -4z"/><path d="M4370 2656 c0 -2 8 -10 18 -17 15 -13 16 -12 3 4 -13 16 -21 21 -21 13z"/><path d="M1675 2630 c-3 -6 1 -7 9 -4 18 7 21 14 7 14 -6 0 -13 -4 -16 -10z"/><path d="M3583 2603 c9 -2 25 -2 35 0 9 3 1 5 -18 5 -19 0 -27 -2 -17 -5z"/><path d="M3444 2330 c0 -140 2 -198 3 -127 2 70 2 184 0 255 -1 70 -3 12 -3 -128z"/><path d="M2300 2516 c0 -2 8 -10 18 -17 15 -13 16 -12 3 4 -13 16 -21 21 -21 13z"/><path d="M2350 2456 c0 -2 8 -10 18 -17 15 -13 16 -12 3 4 -13 16 -21 21 -21 13z"/><path d="M4663 2290 c0 -36 2 -50 4 -32 2 17 2 47 0 65 -2 17 -4 3 -4 -33z"/><path d="M2471 2214 c0 -11 3 -14 6 -6 3 7 2 16 -1 19 -3 4 -6 -2 -5 -13z"/><path d="M2482 2160 c0 -14 2 -19 5 -12 2 6 2 18 0 25 -3 6 -5 1 -5 -13z"/><path d="M3508 2073 c18 -2 45 -2 60 0 15 2 0 4 -33 4 -33 0 -45 -2 -27 -4z"/><path d="M2482 1950 c0 -19 2 -27 5 -17 2 9 2 25 0 35 -3 9 -5 1 -5 -18z"/><path d="M5850 1966 c0 -2 8 -10 18 -17 15 -13 16 -12 3 4 -13 16 -21 21 -21 13z"/><path d="M12 1935 c0 -16 2 -22 5 -12 2 9 2 23 0 30 -3 6 -5 -1 -5 -18z"/><path d="M5910 1906 c0 -2 8 -10 18 -17 15 -13 16 -12 3 4 -13 16 -21 21 -21 13z"/><path d="M2471 1864 c0 -11 3 -14 6 -6 3 7 2 16 -1 19 -3 4 -6 -2 -5 -13z"/><path d="M21 1854 c0 -11 3 -14 6 -6 3 7 2 16 -1 19 -3 4 -6 -2 -5 -13z"/><path d="M31 1814 c0 -11 3 -14 6 -6 3 7 2 16 -1 19 -3 4 -6 -2 -5 -13z"/><path d="M3503 1823 c20 -2 54 -2 75 0 20 2 3 4 -38 4 -41 0 -58 -2 -37 -4z"/><path d="M3442 1553 c-1 -149 1 -274 6 -276 4 -3 6 77 4 176 -4 339 -8 373 -10 100z"/><path d="M2451 1774 c0 -11 3 -14 6 -6 3 7 2 16 -1 19 -3 4 -6 -2 -5 -13z"/><path d="M4410 1786 c0 -2 8 -10 18 -17 15 -13 16 -12 3 4 -13 16 -21 21 -21 13z"/><path d="M7067 1661 c-4 -17 -3 -21 5 -13 5 5 8 16 6 23 -3 8 -7 3 -11 -10z"/><path d="M70 1665 c0 -5 5 -17 10 -25 5 -8 10 -10 10 -5 0 6 -5 17 -10 25 -5 8 -10 11 -10 5z"/><path d="M5325 1630 c10 -11 20 -20 23 -20 3 0 -3 9 -13 20 -10 11 -20 20 -23 20 -3 0 3 -9 13 -20z"/><path d="M3911 1594 c0 -11 3 -14 6 -6 3 7 2 16 -1 19 -3 4 -6 -2 -5 -13z"/><path d="M140 1501 c0 -6 4 -13 10 -16 6 -3 7 1 4 9 -7 18 -14 21 -14 7z"/><path d="M4531 1444 c0 -11 3 -14 6 -6 3 7 2 16 -1 19 -3 4 -6 -2 -5 -13z"/><path d="M3844 1328 l-19 -23 23 19 c21 18 27 26 19 26 -2 0 -12 -10 -23 -22z"/><path d="M250 1326 c0 -2 8 -10 18 -17 15 -13 16 -12 3 4 -13 16 -21 21 -21 13z"/><path d="M2179 1253 l-24 -28 28 24 c25 23 32 31 24 31 -2 0 -14 -12 -28 -27z"/><path d="M3593 1253 c9 -2 23 -2 30 0 6 3 -1 5 -18 5 -16 0 -22 -2 -12 -5z"/><path d="M5854 1148 l-29 -33 33 29 c17 17 32 31 32 33 0 8 -8 1 -36 -29z"/><path d="M2049 1123 l-24 -28 28 24 c15 14 27 26 27 28 0 8 -8 1 -31 -24z"/><path d="M440 1126 c0 -2 8 -10 18 -17 15 -13 16 -12 3 4 -13 16 -21 21 -21 13z"/><path d="M4349 1113 c-13 -16 -12 -17 4 -4 16 13 21 21 13 21 -2 0 -10 -8 -17 -17z"/><path d="M4620 1051 c0 -6 4 -13 10 -16 6 -3 7 1 4 9 -7 18 -14 21 -14 7z"/><path d="M3303 943 c9 -2 23 -2 30 0 6 3 -1 5 -18 5 -16 0 -22 -2 -12 -5z"/><path d="M3838 943 c6 -2 18 -2 25 0 6 3 1 5 -13 5 -14 0 -19 -2 -12 -5z"/><path d="M4998 943 c7 -3 16 -2 19 1 4 3 -2 6 -13 5 -11 0 -14 -3 -6 -6z"/><path d="M5408 943 c7 -3 16 -2 19 1 4 3 -2 6 -13 5 -11 0 -14 -3 -6 -6z"/><path d="M3438 933 c12 -2 30 -2 40 0 9 3 -1 5 -23 4 -22 0 -30 -2 -17 -4z"/><path d="M3713 933 c9 -2 25 -2 35 0 9 3 1 5 -18 5 -19 0 -27 -2 -17 -5z"/><path d="M5108 933 c12 -2 30 -2 40 0 9 3 -1 5 -23 4 -22 0 -30 -2 -17 -4z"/><path d="M5318 933 c6 -2 18 -2 25 0 6 3 1 5 -13 5 -14 0 -19 -2 -12 -5z"/><path d="M770 920 c8 -5 20 -10 25 -10 6 0 3 5 -5 10 -8 5 -19 10 -25 10 -5 0 -3 -5 5 -10z"/><path d="M1578 873 c7 -3 16 -2 19 1 4 3 -2 6 -13 5 -11 0 -14 -3 -6 -6z"/><path d="M988 853 c7 -3 16 -2 19 1 4 3 -2 6 -13 5 -11 0 -14 -3 -6 -6z"/><path d="M1498 853 c7 -3 16 -2 19 1 4 3 -2 6 -13 5 -11 0 -14 -3 -6 -6z"/><path d="M1123 833 c9 -2 23 -2 30 0 6 3 -1 5 -18 5 -16 0 -22 -2 -12 -5z"/><path d="M1353 833 c9 -2 23 -2 30 0 6 3 -1 5 -18 5 -16 0 -22 -2 -12 -5z"/><path d="M2852 398 c-1 -130 1 -239 6 -241 4 -3 6 65 4 151 -4 297 -8 326 -10 90z"/><path d="M2902 553 c-2 -73 0 -83 16 -83 11 0 13 3 5 8 -7 4 -13 39 -16 82 l-3 75 -2 -82z"/><path d="M5422 393 l-2 -242 -27 -4 -28 -4 28 -2 c15 0 30 5 33 12 2 7 3 118 1 247 l-2 235 -3 -242z"/><path d="M5758 623 c7 -3 16 -2 19 1 4 3 -2 6 -13 5 -11 0 -14 -3 -6 -6z"/><path d="M7558 623 c7 -3 16 -2 19 1 4 3 -2 6 -13 5 -11 0 -14 -3 -6 -6z"/><path d="M7300 573 c0 -6 8 -17 18 -24 16 -13 16 -13 2 6 -8 11 -16 22 -17 24 -2 2 -3 0 -3 -6z"/><path d="M5683 520 c0 -25 2 -35 4 -22 2 12 2 32 0 45 -2 12 -4 2 -4 -23z"/><path d="M7483 520 c0 -25 2 -35 4 -22 2 12 2 32 0 45 -2 12 -4 2 -4 -23z"/><path d="M5733 515 c0 -22 2 -30 4 -17 2 12 2 30 0 40 -3 9 -5 -1 -4 -23z"/><path d="M7533 515 c0 -22 2 -30 4 -17 2 12 2 30 0 40 -3 9 -5 -1 -4 -23z"/><path d="M2978 483 c6 -2 18 -2 25 0 6 3 1 5 -13 5 -14 0 -19 -2 -12 -5z"/><path d="M3305 485 c23 -8 85 -10 85 -3 0 4 -21 8 -47 7 -27 0 -43 -2 -38 -4z"/><path d="M3688 483 c12 -2 32 -2 45 0 12 2 2 4 -23 4 -25 0 -35 -2 -22 -4z"/><path d="M4098 483 c12 -2 30 -2 40 0 9 3 -1 5 -23 4 -22 0 -30 -2 -17 -4z"/><path d="M4563 483 c15 -2 37 -2 50 0 12 2 0 4 -28 4 -27 0 -38 -2 -22 -4z"/><path d="M4968 483 c12 -2 30 -2 40 0 9 3 -1 5 -23 4 -22 0 -30 -2 -17 -4z"/><path d="M5983 483 c9 -2 25 -2 35 0 9 3 1 5 -18 5 -19 0 -27 -2 -17 -5z"/><path d="M6733 483 c9 -2 25 -2 35 0 9 3 1 5 -18 5 -19 0 -27 -2 -17 -5z"/><path d="M7783 483 c9 -2 25 -2 35 0 9 3 1 5 -18 5 -19 0 -27 -2 -17 -5z"/><path d="M3248 473 c7 -3 16 -2 19 1 4 3 -2 6 -13 5 -11 0 -14 -3 -6 -6z"/><path d="M3492 318 l-2 -167 -27 -4 -28 -4 28 -2 c15 0 30 5 33 12 2 7 3 85 1 172 l-3 160 -2 -167z"/><path d="M4014 464 c-18 -14 -18 -14 6 -3 31 14 36 19 24 19 -6 0 -19 -7 -30 -16z"/><path d="M4312 312 l-2 -173 28 3 27 3 0 168 1 167 -3 -165 c-3 -156 -5 -165 -23 -165 -18 0 -20 9 -23 168 l-3 167 -2 -173z"/><path d="M4895 470 c-3 -6 1 -7 9 -4 18 7 21 14 7 14 -6 0 -13 -4 -16 -10z"/><path d="M5512 313 l-2 -173 30 0 30 0 -2 173 -2 172 -3 -168 c-3 -158 -5 -167 -23 -167 -18 0 -20 9 -23 168 l-3 167 -2 -172z"/><path d="M6381 464 c0 -11 3 -14 6 -6 3 7 2 16 -1 19 -3 4 -6 -2 -5 -13z"/><path d="M6561 464 c0 -11 3 -14 6 -6 3 7 2 16 -1 19 -3 4 -6 -2 -5 -13z"/><path d="M6675 470 c-3 -6 1 -7 9 -4 18 7 21 14 7 14 -6 0 -13 -4 -16 -10z"/><path d="M7312 312 l-2 -173 28 3 27 3 0 168 1 167 -3 -165 c-3 -156 -5 -165 -23 -165 -18 0 -20 9 -23 168 l-3 167 -2 -173z"/><path d="M7850 476 c0 -2 7 -7 16 -10 8 -3 12 -2 9 4 -6 10 -25 14 -25 6z"/><path d="M3214 457 c-2 -7 -3 -80 -2 -162 l3 -150 28 -1 c26 -1 26 -1 2 3 l-26 4 3 160 c2 87 2 159 0 159 -1 0 -5 -6 -8 -13z"/><path d="M3587 463 c-4 -3 -7 -78 -7 -165 l0 -159 28 3 27 3 3 145 c2 99 6 147 15 153 9 6 8 7 -3 4 -12 -3 -15 -30 -18 -150 -2 -140 -4 -147 -23 -147 -19 0 -20 5 -17 160 2 88 3 160 2 160 0 0 -4 -3 -7 -7z"/><path d="M4220 287 l5 -182 3 174 c1 96 -1 178 -5 182 -5 5 -6 -74 -3 -174z"/><path d="M4454 457 c-2 -7 -3 -80 -2 -162 l3 -150 28 -3 27 -3 0 150 c0 92 4 151 10 154 6 3 5 4 -2 3 -10 -2 -14 -40 -16 -149 -2 -140 -4 -147 -23 -147 -19 0 -20 5 -17 160 2 88 2 160 0 160 -1 0 -5 -6 -8 -13z"/><path d="M5090 287 l5 -182 3 174 c1 96 -1 178 -5 182 -5 5 -6 -74 -3 -174z"/><path d="M2953 453 c9 -2 25 -2 35 0 9 3 1 5 -18 5 -19 0 -27 -2 -17 -5z"/><path d="M3693 453 c9 -2 23 -2 30 0 6 3 -1 5 -18 5 -16 0 -22 -2 -12 -5z"/><path d="M4093 453 c9 -2 25 -2 35 0 9 3 1 5 -18 5 -19 0 -27 -2 -17 -5z"/><path d="M4563 453 c9 -2 23 -2 30 0 6 3 -1 5 -18 5 -16 0 -22 -2 -12 -5z"/><path d="M4963 453 c9 -2 25 -2 35 0 9 3 1 5 -18 5 -19 0 -27 -2 -17 -5z"/><path d="M5983 453 c9 -2 23 -2 30 0 6 3 -1 5 -18 5 -16 0 -22 -2 -12 -5z"/><path d="M6090 456 c0 -2 8 -10 18 -17 15 -13 16 -12 3 4 -13 16 -21 21 -21 13z"/><path d="M6639 443 c-13 -16 -12 -17 4 -4 9 7 17 15 17 17 0 8 -8 3 -21 -13z"/><path d="M6748 453 c7 -3 16 -2 19 1 4 3 -2 6 -13 5 -11 0 -14 -3 -6 -6z"/><path d="M7788 453 c6 -2 18 -2 25 0 6 3 1 5 -13 5 -14 0 -19 -2 -12 -5z"/><path d="M7890 456 c0 -2 8 -10 18 -17 15 -13 16 -12 3 4 -13 16 -21 21 -21 13z"/><path d="M2907 443 c-10 -9 -9 -261 1 -266 4 -3 7 57 7 134 0 76 0 139 -1 139 0 0 -4 -3 -7 -7z"/><path d="M4170 317 l5 -132 3 124 c1 68 -1 128 -5 132 -4 5 -6 -51 -3 -124z"/><path d="M5040 312 l5 -137 3 129 c1 71 -1 133 -5 137 -4 5 -6 -54 -3 -129z"/><path d="M5732 303 c-2 -145 -3 -153 -22 -153 -18 0 -20 8 -23 148 l-3 147 -2 -152 -2 -153 25 0 c14 0 28 6 31 13 2 7 3 78 1 157 l-3 145 -2 -152z"/><path d="M7532 303 c-2 -145 -3 -153 -22 -153 -18 0 -20 8 -23 148 l-3 147 -2 -152 -2 -153 25 0 c14 0 28 6 31 13 2 7 3 78 1 157 l-3 145 -2 -152z"/><path d="M7719 423 l-24 -28 30 25 c17 14 32 26 34 28 2 1 0 2 -6 2 -5 0 -20 -12 -34 -27z"/><path d="M7830 446 c0 -2 7 -7 16 -10 8 -3 12 -2 9 4 -6 10 -25 14 -25 6z"/><path d="M3846 427 c3 -10 9 -15 12 -12 3 3 0 11 -7 18 -10 9 -11 8 -5 -6z"/><path d="M4650 436 c0 -2 8 -10 18 -17 15 -13 16 -12 3 4 -13 16 -21 21 -21 13z"/><path d="M5914 418 l-19 -23 23 19 c12 11 22 21 22 23 0 8 -8 2 -26 -19z"/><path d="M3068 395 c5 -11 12 -27 15 -35 5 -13 6 -13 6 1 1 8 -6 24 -15 35 -15 19 -15 19 -6 -1z"/><path d="M6651 354 c0 -11 3 -14 6 -6 3 7 2 16 -1 19 -3 4 -6 -2 -5 -13z"/><path d="M6903 310 c0 -36 2 -50 4 -32 2 17 2 47 0 65 -2 17 -4 3 -4 -33z"/><path d="M3933 310 c0 -30 2 -43 4 -27 2 15 2 39 0 55 -2 15 -4 2 -4 -28z"/><path d="M7942 340 c0 -14 2 -19 5 -12 2 6 2 18 0 25 -3 6 -5 1 -5 -13z"/><path d="M6141 334 c0 -11 3 -14 6 -6 3 7 2 16 -1 19 -3 4 -6 -2 -5 -13z"/><path d="M3982 310 c0 -19 2 -27 5 -17 2 9 2 25 0 35 -3 9 -5 1 -5 -18z"/><path d="M4803 305 c0 -22 2 -30 4 -17 2 12 2 30 0 40 -3 9 -5 -1 -4 -23z"/><path d="M6018 333 c6 -2 18 -2 25 0 6 3 1 5 -13 5 -14 0 -19 -2 -12 -5z"/><path d="M6852 310 c0 -19 2 -27 5 -17 2 9 2 25 0 35 -3 9 -5 1 -5 -18z"/><path d="M7818 333 c6 -2 18 -2 25 0 6 3 1 5 -13 5 -14 0 -19 -2 -12 -5z"/><path d="M4852 305 c0 -16 2 -22 5 -12 2 9 2 23 0 30 -3 6 -5 -1 -5 -18z"/><path d="M5943 323 c9 -2 23 -2 30 0 6 3 -1 5 -18 5 -16 0 -22 -2 -12 -5z"/><path d="M7743 323 c9 -2 23 -2 30 0 6 3 -1 5 -18 5 -16 0 -22 -2 -12 -5z"/><path d="M6078 313 c6 -2 18 -2 25 0 6 3 1 5 -13 5 -14 0 -19 -2 -12 -5z"/><path d="M7878 313 c6 -2 18 -2 25 0 6 3 1 5 -13 5 -14 0 -19 -2 -12 -5z"/><path d="M5988 303 c6 -2 18 -2 25 0 6 3 1 5 -13 5 -14 0 -19 -2 -12 -5z"/><path d="M7788 303 c6 -2 18 -2 25 0 6 3 1 5 -13 5 -14 0 -19 -2 -12 -5z"/><path d="M5918 293 c7 -3 16 -2 19 1 4 3 -2 6 -13 5 -11 0 -14 -3 -6 -6z"/><path d="M7718 293 c7 -3 16 -2 19 1 4 3 -2 6 -13 5 -11 0 -14 -3 -6 -6z"/><path d="M6651 264 c0 -11 3 -14 6 -6 3 7 2 16 -1 19 -3 4 -6 -2 -5 -13z"/><path d="M6601 254 c0 -11 3 -14 6 -6 3 7 2 16 -1 19 -3 4 -6 -2 -5 -13z"/><path d="M6660 231 c0 -6 4 -13 10 -16 6 -3 7 1 4 9 -7 18 -14 21 -14 7z"/><path d="M6881 213 c-10 -26 -10 -27 4 -9 8 11 15 23 15 28 0 15 -7 8 -19 -19z"/><path d="M3044 198 l-19 -23 23 19 c12 11 22 21 22 23 0 8 -8 2 -26 -19z"/><path d="M5910 216 c0 -2 8 -10 18 -17 15 -13 16 -12 3 4 -13 16 -21 21 -21 13z"/><path d="M7710 216 c0 -2 8 -10 18 -17 15 -13 16 -12 3 4 -13 16 -21 21 -21 13z"/><path d="M3089 183 l-24 -28 28 24 c15 14 27 26 27 28 0 8 -8 1 -31 -24z"/><path d="M4010 206 c0 -2 8 -10 18 -17 15 -13 16 -12 3 4 -13 16 -21 21 -21 13z"/><path d="M4880 206 c0 -2 8 -10 18 -17 15 -13 16 -12 3 4 -13 16 -21 21 -21 13z"/><path d="M5860 206 c0 -2 8 -10 18 -17 15 -13 16 -12 3 4 -13 16 -21 21 -21 13z"/><path d="M7680 185 c13 -14 26 -25 28 -25 3 0 -5 11 -18 25 -13 14 -26 25 -28 25 -3 0 5 -11 18 -25z"/><path d="M3975 180 c10 -11 20 -20 23 -20 3 0 -3 9 -13 20 -10 11 -20 20 -23 20 -3 0 3 -9 13 -20z"/><path d="M4845 180 c10 -11 20 -20 23 -20 3 0 -3 9 -13 20 -10 11 -20 20 -23 20 -3 0 3 -9 13 -20z"/><path d="M5978 173 c7 -3 16 -2 19 1 4 3 -2 6 -13 5 -11 0 -14 -3 -6 -6z"/><path d="M6048 173 c7 -3 16 -2 19 1 4 3 -2 6 -13 5 -11 0 -14 -3 -6 -6z"/><path d="M7778 173 c7 -3 16 -2 19 1 4 3 -2 6 -13 5 -11 0 -14 -3 -6 -6z"/><path d="M7848 173 c7 -3 16 -2 19 1 4 3 -2 6 -13 5 -11 0 -14 -3 -6 -6z"/><path d="M6561 154 c0 -11 3 -14 6 -6 3 7 2 16 -1 19 -3 4 -6 -2 -5 -13z"/><path d="M6460 156 c0 -2 7 -7 16 -10 8 -3 12 -2 9 4 -6 10 -25 14 -25 6z"/><path d="M3823 143 c9 -2 23 -2 30 0 6 3 -1 5 -18 5 -16 0 -22 -2 -12 -5z"/><path d="M4138 143 c7 -3 16 -2 19 1 4 3 -2 6 -13 5 -11 0 -14 -3 -6 -6z"/><path d="M4693 143 c9 -2 23 -2 30 0 6 3 -1 5 -18 5 -16 0 -22 -2 -12 -5z"/><path d="M5042 130 c0 -14 2 -19 5 -12 2 6 2 18 0 25 -3 6 -5 1 -5 -13z"/><path d="M7183 143 c9 -2 23 -2 30 0 6 3 -1 5 -18 5 -16 0 -22 -2 -12 -5z"/><path d="M2958 133 c7 -3 16 -2 19 1 4 3 -2 6 -13 5 -11 0 -14 -3 -6 -6z"/><path d="M6008 133 c7 -3 16 -2 19 1 4 3 -2 6 -13 5 -11 0 -14 -3 -6 -6z"/><path d="M7808 133 c7 -3 16 -2 19 1 4 3 -2 6 -13 5 -11 0 -14 -3 -6 -6z"/><path d="M4139 63 c-13 -16 -12 -17 4 -4 16 13 21 21 13 21 -2 0 -10 -8 -17 -17z"/><path d="M3953 45 c-3 -9 -3 -19 1 -22 3 -4 6 1 6 10 0 8 6 18 13 20 9 4 9 6 -1 6 -7 1 -15 -6 -19 -14z"/><path d="M4058 33 c7 -3 16 -2 19 1 4 3 -2 6 -13 5 -11 0 -14 -3 -6 -6z"/><path d="M4048 3 c12 -2 32 -2 45 0 12 2 2 4 -23 4 -25 0 -35 -2 -22 -4z"/><path d="M4918 3 c12 -2 32 -2 45 0 12 2 2 4 -23 4 -25 0 -35 -2 -22 -4z"/></g><g transform="translate(0.000000,302.000000) scale(0.100000,-0.100000)" fill="#0079D2" stroke="none"><path d="M1780 2668 c-14 -6 -52 -22 -85 -36 -61 -25 -193 -111 -217 -140 -12 -14 -11 -14 12 0 37 23 80 31 96 17 8 -6 14 -9 14 -5 0 3 27 -7 60 -24 33 -17 60 -27 60 -24 0 4 19 -13 41 -37 23 -24 35 -35 28 -24 -11 16 -8 15 14 -4 15 -14 27 -28 27 -33 0 -5 9 -19 20 -30 33 -36 100 -185 100 -223 0 -11 0 -60 0 -110 1 -108 -1 -118 -34 -187 -14 -30 -26 -58 -26 -62 0 -11 -20 -34 -98 -113 -73 -73 -173 -135 -201 -125 -7 2 -17 -1 -21 -8 -9 -14 -170 -27 -197 -15 -10 5 -22 7 -27 6 -6 -1 -19 2 -30 8 -23 11 -72 22 -98 22 -9 0 -22 7 -29 15 -6 8 -18 14 -25 14 -8 0 -14 5 -14 12 0 6 -3 8 -7 5 -3 -4 -12 2 -20 13 -8 11 -19 20 -25 20 -13 0 -78 70 -78 84 0 5 -14 22 -30 38 -17 16 -28 33 -25 38 4 6 2 10 -2 10 -5 0 -17 25 -26 56 -16 51 -16 59 -2 80 8 13 15 25 15 27 0 2 -33 -27 -72 -65 -40 -37 -78 -68 -83 -68 -6 0 -15 -8 -22 -19 -18 -28 -155 -116 -218 -140 -31 -12 -79 -21 -108 -21 -62 0 -161 29 -220 63 -63 37 -144 129 -177 200 -36 76 -39 52 -10 -79 132 -606 709 -1028 1322 -966 305 30 558 150 771 365 203 206 318 455 349 751 23 235 -28 401 -170 545 -116 118 -265 182 -423 180 -46 0 -95 -5 -109 -11z"/><path d="M423 2435 c0 -22 2 -30 4 -17 2 12 2 30 0 40 -3 9 -5 -1 -4 -23z"/><path d="M422 2310 c0 -19 2 -27 5 -17 2 9 2 25 0 35 -3 9 -5 1 -5 -18z"/><path d="M436 2220 c4 -19 10 -42 15 -50 11 -18 1 34 -13 65 -5 13 -6 9 -2 -15z"/><path d="M460 2145 c0 -5 5 -17 10 -25 5 -8 10 -10 10 -5 0 6 -5 17 -10 25 -5 8 -10 11 -10 5z"/><path d="M480 2091 c0 -6 4 -13 10 -16 6 -3 7 1 4 9 -7 18 -14 21 -14 7z"/><path d="M510 2040 c6 -11 13 -20 16 -20 2 0 0 9 -6 20 -6 11 -13 20 -16 20 -2 0 0 -9 6 -20z"/><path d="M548 1985 c11 -16 42 -50 68 -75 43 -40 42 -38 -11 20 -79 87 -82 90 -57 55z"/><path d="M670 1866 c0 -2 8 -10 18 -17 15 -13 16 -12 3 4 -13 16 -21 21 -21 13z"/><path d="M2860 395 l0 -235 26 -10 c37 -14 119 -12 157 4 65 27 104 101 95 180 -7 59 -27 96 -68 124 -31 21 -43 23 -102 19 l-68 -4 0 78 c0 72 -2 79 -20 79 -19 0 -20 -7 -20 -235z m197 21 c30 -32 33 -42 33 -98 0 -68 -21 -117 -60 -138 -11 -6 -44 -10 -73 -8 l-52 3 -3 133 c-3 130 -2 133 20 142 44 19 100 4 135 -34z"/><path d="M5377 623 c-4 -3 -7 -111 -7 -240 l0 -233 25 0 25 0 0 240 c0 226 -1 240 -18 240 -10 0 -22 -3 -25 -7z"/><path d="M5753 619 c-42 -12 -63 -44 -63 -96 0 -38 -2 -42 -27 -45 -36 -4 -41 -26 -6 -30 l28 -3 3 -147 c2 -140 4 -148 22 -148 19 0 20 7 20 150 l0 150 40 0 c29 0 40 4 40 15 0 11 -11 15 -40 15 -38 0 -40 2 -40 30 0 46 20 81 52 87 15 3 28 12 28 19 0 16 -11 16 -57 3z"/><path d="M7177 623 c-4 -3 -7 -111 -7 -240 l0 -233 25 0 25 0 0 240 c0 226 -1 240 -18 240 -10 0 -22 -3 -25 -7z"/><path d="M7553 619 c-42 -12 -63 -44 -63 -96 0 -38 -2 -42 -27 -45 -36 -4 -41 -26 -6 -30 l28 -3 3 -147 c2 -140 4 -148 22 -148 19 0 20 7 20 150 l0 150 41 0 c52 0 48 24 -4 28 -33 3 -37 6 -37 32 0 46 21 81 52 87 16 3 27 10 25 16 -5 15 -17 16 -54 6z"/><path d="M3447 593 c-13 -12 -7 -41 10 -47 9 -4 23 0 31 8 13 12 13 18 2 30 -13 17 -32 21 -43 9z"/><path d="M4317 594 c-12 -13 -8 -42 8 -48 25 -9 46 5 43 28 -3 21 -37 34 -51 20z"/><path d="M5517 594 c-12 -13 -8 -42 8 -48 25 -9 46 5 43 28 -3 21 -37 34 -51 20z"/><path d="M7313 584 c-3 -8 2 -23 11 -32 15 -15 17 -15 33 0 13 14 14 20 3 32 -16 20 -39 20 -47 0z"/><path d="M6447 553 c-4 -3 -7 -21 -7 -40 0 -29 -3 -33 -25 -33 -16 0 -25 -6 -25 -15 0 -9 9 -15 25 -15 l25 0 0 -130 c0 -129 0 -131 26 -155 18 -16 39 -25 60 -25 44 0 45 23 2 35 l-33 10 -3 133 -3 132 36 0 c24 0 35 5 35 15 0 10 -11 15 -35 15 -34 0 -35 1 -35 40 0 32 -4 40 -18 40 -10 0 -22 -3 -25 -7z"/><path d="M3250 471 l-25 -7 -3 -157 -3 -157 26 0 25 0 0 149 0 150 52 3 c72 4 78 28 6 27 -29 -1 -64 -4 -78 -8z"/><path d="M3440 315 l0 -165 25 0 25 0 0 165 0 165 -25 0 -25 0 0 -165z"/><path d="M3613 470 c-22 -9 -23 -13 -23 -165 0 -148 1 -155 20 -155 18 0 20 8 22 147 l3 147 30 8 c41 11 103 0 126 -23 17 -17 19 -35 19 -149 l0 -130 25 0 25 0 0 125 c0 143 -10 176 -61 194 -38 13 -155 14 -186 1z"/><path d="M4015 457 c-52 -29 -75 -75 -75 -153 0 -112 64 -170 178 -159 l63 6 -7 -28 c-16 -71 -71 -101 -149 -83 -55 13 -65 12 -65 -4 0 -30 140 -37 197 -9 56 26 63 56 63 258 l0 175 -26 10 c-47 18 -135 12 -179 -13z m139 -7 c26 -9 26 -10 26 -133 0 -82 -4 -127 -12 -135 -7 -7 -36 -12 -65 -12 -65 0 -95 25 -113 90 -34 125 58 231 164 190z"/><path d="M4320 315 c0 -158 1 -165 20 -165 19 0 20 7 20 165 0 158 -1 165 -20 165 -19 0 -20 -7 -20 -165z"/><path d="M4483 470 c-22 -9 -23 -13 -23 -165 0 -148 1 -155 20 -155 19 0 20 7 20 145 0 129 2 146 18 153 31 12 109 6 136 -11 26 -17 26 -18 26 -152 l0 -135 25 0 25 0 0 131 c0 72 -5 139 -10 150 -18 33 -64 49 -142 48 -40 0 -83 -4 -95 -9z"/><path d="M4883 455 c-53 -32 -78 -90 -71 -170 9 -102 69 -150 177 -141 l63 5 -6 -31 c-13 -63 -68 -93 -147 -77 -61 11 -69 11 -69 -5 0 -18 31 -26 108 -26 70 0 111 16 136 54 13 21 16 55 16 211 l0 185 -26 10 c-49 19 -136 12 -181 -15z m141 -5 l26 -10 0 -129 c0 -146 3 -141 -81 -141 -60 0 -92 26 -109 89 -33 124 59 231 164 191z"/><path d="M5520 315 c0 -158 1 -165 20 -165 19 0 20 7 20 165 0 158 -1 165 -20 165 -19 0 -20 -7 -20 -165z"/><path d="M5913 460 c-77 -47 -95 -192 -33 -268 39 -47 156 -68 222 -39 38 17 23 42 -16 27 -39 -15 -102 -12 -136 5 -46 24 -77 96 -47 108 7 3 64 10 126 17 l113 13 -5 40 c-6 46 -33 86 -68 104 -37 20 -119 16 -156 -7z m144 -22 c22 -18 46 -79 36 -89 -8 -8 -102 -25 -173 -31 -34 -3 -35 -2 -31 32 4 47 16 67 54 91 35 22 86 20 114 -3z"/><path d="M6675 461 c-54 -32 -70 -67 -70 -151 0 -63 4 -81 24 -108 29 -42 69 -62 121 -62 98 0 150 60 150 171 0 112 -49 169 -145 169 -31 0 -61 -7 -80 -19z m146 -40 c32 -34 44 -100 30 -162 -20 -87 -100 -117 -163 -60 -28 25 -32 35 -36 93 -5 81 16 134 62 154 41 18 75 10 107 -25z"/><path d="M7320 315 c0 -158 1 -165 20 -165 19 0 20 7 20 165 0 158 -1 165 -20 165 -19 0 -20 -7 -20 -165z"/><path d="M7713 460 c-106 -64 -91 -257 24 -306 63 -27 205 -9 184 24 -6 10 -14 10 -35 2 -39 -15 -102 -12 -136 5 -46 24 -77 96 -47 108 7 3 63 10 125 17 108 12 112 13 112 37 0 41 -28 92 -62 113 -44 26 -122 27 -165 0z m145 -23 c22 -17 45 -78 35 -88 -5 -5 -53 -15 -107 -23 l-98 -13 5 44 c5 48 35 89 71 96 30 7 77 -1 94 -16z"/></g><g transform="translate(0.000000,302.000000) scale(0.100000,-0.100000)" fill="#00BFD8" stroke="none"><path d="M945 3004 c-101 -26 -224 -78 -212 -91 3 -2 20 2 39 10 91 38 230 27 331 -26 174 -91 261 -303 203 -496 -13 -45 -13 -51 -1 -41 8 7 15 9 15 6 0 -4 37 25 83 65 70 61 193 154 235 178 18 10 2 46 -54 127 -81 115 -189 197 -324 244 -50 18 -92 24 -180 26 -63 2 -124 1 -135 -2z"/><path d="M665 2873 c-40 -36 -25 -28 28 14 16 13 25 23 20 23 -4 -1 -26 -17 -48 -37z"/><path d="M3295 2894 c-147 -17 -254 -38 -362 -70 l-83 -25 0 -879 0 -878 48 -16 c338 -109 892 -124 1201 -31 101 30 139 48 221 101 128 84 197 195 214 349 23 208 -126 409 -367 497 -32 11 -54 24 -50 28 4 4 34 16 66 28 295 110 386 414 195 653 -39 49 -131 115 -209 151 -204 95 -541 130 -874 92z m434 -304 c91 -24 149 -102 158 -213 11 -138 -30 -224 -128 -266 -60 -26 -211 -46 -274 -37 l-45 7 0 249 c0 176 3 251 11 256 36 22 199 24 278 4z m-7 -785 c74 -19 120 -49 153 -100 37 -58 48 -109 42 -203 -4 -69 -10 -91 -34 -130 -38 -62 -106 -99 -205 -112 -68 -8 -205 1 -229 15 -5 4 -9 119 -9 275 0 247 1 269 18 274 31 9 205 -3 264 -19z"/><path d="M5258 2894 c-178 -32 -315 -99 -423 -208 -113 -114 -165 -238 -165 -396 0 -144 38 -247 124 -334 67 -69 139 -114 323 -202 173 -83 216 -112 244 -165 51 -101 -7 -205 -136 -240 -72 -20 -237 -5 -344 30 -52 18 -100 36 -106 41 -9 7 -30 -40 -80 -175 -37 -101 -65 -191 -62 -199 9 -23 180 -73 313 -92 163 -23 394 -23 506 -1 304 61 521 248 573 494 19 86 18 140 0 228 -41 193 -159 315 -405 420 -183 78 -227 99 -267 129 -145 108 -92 274 98 308 84 14 211 -2 320 -42 l80 -29 8 22 c48 123 110 285 116 298 4 12 -6 21 -43 37 -179 77 -481 111 -674 76z"/><path d="M6097 2863 c-3 -7 41 -133 309 -863 47 -129 113 -309 146 -400 32 -91 75 -205 93 -255 19 -49 55 -148 80 -220 26 -71 51 -136 57 -142 8 -10 74 -13 268 -13 l257 0 21 58 c11 31 68 188 125 347 58 160 171 472 252 695 80 223 153 423 161 445 25 63 124 344 124 350 0 3 -136 4 -301 3 l-302 -3 -53 -200 c-29 -110 -58 -213 -63 -230 -5 -16 -32 -118 -61 -225 -28 -107 -65 -241 -81 -296 -16 -56 -34 -137 -41 -180 -6 -44 -14 -83 -18 -87 -4 -4 -12 25 -19 65 -10 63 -104 437 -161 638 -10 36 -30 112 -45 170 -26 100 -44 166 -79 293 l-17 57 -324 0 c-178 0 -326 -3 -328 -7z"/><path d="M516 2708 c-71 -121 -104 -281 -86 -409 22 -152 91 -289 194 -388 61 -57 142 -111 167 -111 40 0 319 309 319 354 0 2 -26 -5 -57 -16 -44 -16 -80 -21 -151 -21 -86 1 -98 4 -170 39 -92 45 -149 100 -191 186 -56 115 -61 233 -15 350 12 32 21 58 19 58 -2 0 -15 -19 -29 -42z"/></g><g transform="translate(0.000000,302.000000) scale(0.100000,-0.100000)" fill="#3392DF" stroke="none"><path d="M1525 2509 c-78 -23 -300 -233 -467 -442 -45 -56 -84 -104 -88 -107 -3 -3 -16 -21 -28 -41 -22 -36 -22 -38 -5 -93 9 -31 21 -56 26 -56 4 0 6 -4 2 -10 -3 -5 8 -22 25 -38 16 -16 30 -33 30 -38 0 -14 65 -84 78 -84 6 0 17 -9 25 -20 8 -11 17 -17 20 -13 4 3 7 1 7 -5 0 -7 6 -12 14 -12 7 0 19 -6 25 -14 7 -8 20 -15 29 -15 26 0 75 -11 98 -22 11 -6 24 -9 30 -8 5 1 17 -1 27 -6 27 -12 188 1 197 15 4 7 14 10 21 8 28 -10 128 52 201 125 78 79 98 102 98 113 0 4 12 32 26 62 33 69 35 79 34 187 0 50 0 99 0 110 0 38 -67 187 -100 223 -11 11 -20 25 -20 30 0 5 -12 19 -27 33 -22 19 -25 20 -14 4 7 -11 -5 0 -28 24 -22 24 -41 41 -41 37 0 -3 -27 7 -60 24 -33 17 -60 27 -60 23 0 -4 -5 -2 -12 5 -14 14 -21 14 -63 1z m-145 -349 c10 0 20 6 23 13 3 10 11 10 39 0 19 -7 40 -13 47 -13 15 0 35 -19 44 -42 3 -10 13 -18 22 -18 8 0 15 -6 15 -12 0 -9 3 -9 9 1 12 19 11 -149 -1 -172 -5 -10 -12 -16 -15 -13 -10 10 -42 -14 -37 -28 3 -7 -2 -19 -11 -26 -10 -8 -15 -9 -15 -2 0 6 -7 9 -16 5 -9 -3 -20 0 -26 8 -7 11 -11 11 -15 2 -3 -8 -23 -13 -49 -13 -38 0 -46 4 -54 25 -8 22 -22 31 -33 23 -10 -7 -37 27 -32 40 3 8 0 21 -6 28 -9 11 -8 14 1 14 8 0 10 11 6 38 -5 27 -1 45 14 70 11 17 24 32 30 32 5 0 10 7 10 15 0 19 24 47 28 34 2 -5 12 -9 22 -9z"/></g><g transform="translate(0.000000,302.000000) scale(0.100000,-0.100000)" fill="#3FBFDF" stroke="none"><path d="M830 2940 c-19 -4 -48 -12 -64 -19 -16 -6 -31 -9 -33 -7 -3 3 -17 -6 -31 -19 -14 -13 -30 -21 -35 -18 -6 3 -7 1 -3 -5 4 -7 3 -12 -2 -12 -6 0 -32 -22 -60 -49 -36 -36 -56 -66 -75 -117 -48 -130 -44 -235 14 -352 42 -86 99 -141 191 -186 72 -35 84 -38 170 -39 71 0 107 5 151 21 53 19 58 19 53 4 -4 -9 43 35 103 98 61 63 110 119 110 124 1 5 -6 3 -14 -4 -12 -10 -12 -4 1 41 73 243 -81 496 -327 538 -72 12 -97 12 -149 1z m232 -141 c50 -26 106 -85 131 -139 16 -36 21 -65 20 -139 0 -63 -4 -96 -11 -99 -7 -2 -12 -11 -12 -21 0 -9 -9 -27 -20 -39 -11 -12 -20 -24 -20 -28 0 -3 -15 -19 -32 -35 -31 -26 -46 -35 -120 -69 -18 -9 -53 -11 -107 -7 -66 4 -90 11 -136 37 -31 18 -63 44 -73 58 -9 15 -19 29 -23 32 -3 3 -18 28 -33 57 -20 40 -26 67 -26 115 0 64 17 129 38 150 7 7 12 17 12 24 0 18 99 104 140 122 19 8 64 18 100 21 67 7 92 1 172 -40z"/><path d="M1343 2164 c-7 -7 -13 -20 -13 -29 0 -8 -5 -15 -10 -15 -6 0 -19 -15 -30 -32 -15 -25 -19 -43 -14 -70 4 -27 2 -38 -6 -38 -9 0 -10 -3 -1 -14 6 -7 9 -20 6 -28 -5 -13 22 -47 32 -40 11 8 25 -1 33 -23 8 -21 16 -25 54 -25 26 0 46 5 49 13 4 9 8 9 15 -2 6 -8 17 -11 26 -8 9 4 16 1 16 -5 0 -7 5 -6 15 2 9 7 14 19 11 26 -5 14 27 38 37 28 3 -3 10 3 15 13 12 23 13 191 1 172 -6 -10 -9 -10 -9 -1 0 6 -7 12 -15 12 -9 0 -19 8 -22 18 -9 23 -29 42 -44 42 -7 0 -28 6 -47 13 -28 10 -36 10 -39 0 -5 -15 -40 -18 -45 -4 -1 5 -9 3 -15 -5z m182 -58 c36 -38 61 -146 34 -146 -5 0 -7 -4 -4 -10 3 -5 2 -10 -4 -10 -5 0 -13 -9 -16 -21 -4 -11 -9 -18 -12 -15 -3 3 -12 -2 -21 -11 -13 -12 -29 -14 -81 -9 -76 7 -105 31 -116 98 -7 41 17 118 38 118 5 0 6 7 3 16 -3 8 -2 12 4 9 6 -3 10 -1 10 6 0 8 20 10 70 7 59 -5 74 -9 95 -32z"/></g><g transform="translate(0.000000,302.000000) scale(0.100000,-0.100000)" fill="#79CCE5" stroke="none"><path d="M890 2839 c-36 -3 -81 -13 -100 -21 -41 -18 -140 -104 -140 -122 0 -7 -5 -17 -12 -24 -21 -21 -38 -86 -38 -150 0 -48 6 -75 26 -115 15 -29 30 -54 33 -57 4 -3 14 -17 23 -32 10 -14 42 -40 73 -58 46 -26 70 -33 136 -37 54 -4 89 -2 107 7 74 34 89 43 120 69 17 16 32 32 32 35 0 4 9 16 20 28 11 12 20 30 20 39 0 10 5 19 12 21 7 3 11 36 11 99 1 109 -17 160 -77 222 -69 70 -158 105 -246 96z"/><path d="M1355 2121 c-3 -11 -10 -21 -14 -21 -19 0 -43 -78 -36 -118 11 -67 40 -91 116 -98 52 -5 68 -3 81 9 9 9 18 14 20 11 3 -2 11 9 18 26 7 16 16 30 21 30 25 0 -2 109 -36 146 -21 23 -36 27 -94 32 -64 4 -69 3 -76 -17z"/></g></svg>