<svg version="1.0" xmlns="http://www.w3.org/2000/svg" width="384.000000" height="83.000000" viewBox="0 0 384.000000 83.000000" preserveAspectRatio="xMidYMid meet"><rect x="299" y="7" width="21" height="5" fill="rgb(88,32,206)" /><rect x="339" y="7" width="21" height="5" fill="rgb(88,32,206)" /><rect x="299" y="11" width="21" height="5" fill="rgb(88,32,206)" /><rect x="339" y="11" width="21" height="5" fill="rgb(88,32,206)" /><rect x="299" y="15" width="21" height="5" fill="rgb(88,32,206)" /><rect x="339" y="15" width="21" height="5" fill="rgb(88,32,206)" /><rect x="299" y="19" width="21" height="5" fill="rgb(88,32,206)" /><rect x="299" y="23" width="21" height="5" fill="rgb(88,32,206)" /><rect x="299" y="27" width="21" height="5" fill="rgb(88,32,206)" /><rect x="299" y="31" width="21" height="5" fill="rgb(88,32,206)" /><rect x="299" y="35" width="21" height="5" fill="rgb(88,32,206)" /><rect x="299" y="39" width="21" height="5" fill="rgb(88,32,206)" /><rect x="299" y="43" width="21" height="5" fill="rgb(88,32,206)" /><g transform="translate(0.000000,83.000000) scale(0.100000,-0.100000)" fill="#000059" stroke="none"><path d="M1593 543 c9 -2 23 -2 30 0 6 3 -1 5 -18 5 -16 0 -22 -2 -12 -5z"/><path d="M1938 543 c6 -2 18 -2 25 0 6 3 1 5 -13 5 -14 0 -19 -2 -12 -5z"/><path d="M93 533 c9 -2 23 -2 30 0 6 3 -1 5 -18 5 -16 0 -22 -2 -12 -5z"/><path d="M3325 489 c-4 -6 -5 -12 -2 -15 2 -3 7 2 10 11 7 17 1 20 -8 4z"/><path d="M811 394 c0 -11 3 -14 6 -6 3 7 2 16 -1 19 -3 4 -6 -2 -5 -13z"/><path d="M1021 394 c0 -11 3 -14 6 -6 3 7 2 16 -1 19 -3 4 -6 -2 -5 -13z"/><path d="M1070 385 c-7 -9 -11 -17 -9 -20 3 -2 10 5 17 15 14 24 10 26 -8 5z"/><path d="M2401 304 c0 -11 3 -14 6 -6 3 7 2 16 -1 19 -3 4 -6 -2 -5 -13z"/><path d="M1782 255 c0 -16 2 -22 5 -12 2 9 2 23 0 30 -3 6 -5 -1 -5 -18z"/><path d="M813 165 c0 -27 2 -38 4 -22 2 15 2 37 0 50 -2 12 -4 0 -4 -28z"/><path d="M1661 164 c0 -11 3 -14 6 -6 3 7 2 16 -1 19 -3 4 -6 -2 -5 -13z"/><path d="M3065 160 c10 -11 20 -20 23 -20 3 0 -3 9 -13 20 -10 11 -20 20 -23 20 -3 0 3 -9 13 -20z"/><path d="M1040 146 c0 -2 8 -10 18 -17 15 -13 16 -12 3 4 -13 16 -21 21 -21 13z"/><path d="M1279 133 c-13 -16 -12 -17 4 -4 16 13 21 21 13 21 -2 0 -10 -8 -17 -17z"/><path d="M3130 96 c0 -2 8 -10 18 -17 15 -13 16 -12 3 4 -13 16 -21 21 -21 13z"/></g><g transform="translate(0.000000,83.000000) scale(0.100000,-0.100000)" fill="#000085" stroke="none"><path d="M3396 822 c-3 -5 1 -9 9 -9 8 0 12 4 9 9 -3 4 -7 8 -9 8 -2 0 -6 -4 -9 -8z"/><path d="M2978 813 c7 -3 16 -2 19 1 4 3 -2 6 -13 5 -11 0 -14 -3 -6 -6z"/><path d="M3355 769 c-4 -6 -5 -12 -2 -15 2 -3 7 2 10 11 7 17 1 20 -8 4z"/><path d="M3245 750 c10 -11 20 -20 23 -20 3 0 -3 9 -13 20 -10 11 -20 20 -23 20 -3 0 3 -9 13 -20z"/><path d="M2876 748 c3 -5 10 -6 15 -3 13 9 11 12 -6 12 -8 0 -12 -4 -9 -9z"/><path d="M3786 752 c-2 -4 4 -8 14 -8 10 0 16 4 14 8 -3 4 -9 8 -14 8 -5 0 -11 -4 -14 -8z"/><path d="M3819 603 c-13 -16 -12 -17 4 -4 16 13 21 21 13 21 -2 0 -10 -8 -17 -17z"/><path d="M3387 589 c12 -12 24 -21 27 -18 2 2 -8 13 -22 23 l-27 19 22 -24z"/><path d="M3725 580 c-3 -5 -1 -10 4 -10 6 0 11 5 11 10 0 6 -2 10 -4 10 -3 0 -8 -4 -11 -10z"/><path d="M3765 550 c10 -11 20 -20 23 -20 3 0 -3 9 -13 20 -10 11 -20 20 -23 20 -3 0 3 -9 13 -20z"/><path d="M18 533 c12 -2 30 -2 40 0 9 3 -1 5 -23 4 -22 0 -30 -2 -17 -4z"/><path d="M773 533 c26 -2 67 -2 90 0 23 2 2 3 -48 3 -49 0 -68 -1 -42 -3z"/><path d="M2003 455 c0 -38 2 -53 4 -32 2 20 2 52 0 70 -2 17 -4 1 -4 -38z"/><path d="M848 423 c6 -2 18 -2 25 0 6 3 1 5 -13 5 -14 0 -19 -2 -12 -5z"/><path d="M2356 415 c-9 -26 -7 -32 5 -12 6 10 9 21 6 23 -2 3 -7 -2 -11 -11z"/><path d="M465 400 c-3 -6 1 -7 9 -4 18 7 21 14 7 14 -6 0 -13 -4 -16 -10z"/><path d="M2455 400 c-3 -5 -2 -10 4 -10 5 0 13 5 16 10 3 6 2 10 -4 10 -5 0 -13 -4 -16 -10z"/><path d="M1719 373 c-13 -17 -13 -17 6 -3 11 8 22 16 24 17 2 2 0 3 -6 3 -6 0 -17 -8 -24 -17z"/><path d="M2126 377 c3 -10 9 -15 12 -12 3 3 0 11 -7 18 -10 9 -11 8 -5 -6z"/><path d="M353 320 c0 -36 2 -50 4 -32 2 17 2 47 0 65 -2 17 -4 3 -4 -33z"/><path d="M810 371 c0 -10 19 -25 25 -20 1 2 -3 10 -11 17 -8 7 -14 8 -14 3z"/><path d="M1664 280 c0 -58 1 -81 3 -52 2 28 2 76 0 105 -2 28 -3 5 -3 -53z"/><path d="M3367 369 c7 -7 15 -10 18 -7 3 3 -2 9 -12 12 -14 6 -15 5 -6 -5z"/><path d="M2002 248 c2 -125 5 -110 10 40 2 45 0 82 -4 82 -5 0 -7 -55 -6 -122z"/><path d="M2415 359 c-4 -6 -5 -12 -2 -15 2 -3 7 2 10 11 7 17 1 20 -8 4z"/><path d="M1010 340 c0 -5 5 -10 11 -10 5 0 7 5 4 10 -3 6 -8 10 -11 10 -2 0 -4 -4 -4 -10z"/><path d="M2510 328 c0 -4 4 -8 9 -8 6 0 12 4 15 8 3 5 -1 9 -9 9 -8 0 -15 -4 -15 -9z"/><path d="M1140 315 c0 -8 4 -15 10 -15 5 0 7 7 4 15 -4 8 -8 15 -10 15 -2 0 -4 -7 -4 -15z"/><path d="M3590 306 c0 -2 8 -10 18 -17 15 -13 16 -12 3 4 -13 16 -21 21 -21 13z"/><path d="M1333 250 c0 -30 2 -43 4 -27 2 15 2 39 0 55 -2 15 -4 2 -4 -28z"/><path d="M463 210 c0 -41 2 -58 4 -37 2 20 2 54 0 75 -2 20 -4 3 -4 -38z"/><path d="M3653 273 c9 -2 25 -2 35 0 9 3 1 5 -18 5 -19 0 -27 -2 -17 -5z"/><path d="M353 180 c0 -36 2 -50 4 -32 2 17 2 47 0 65 -2 17 -4 3 -4 -33z"/><path d="M3000 226 c0 -2 8 -10 18 -17 15 -13 16 -12 3 4 -13 16 -21 21 -21 13z"/><path d="M1170 190 l-35 -7 32 -2 c17 0 35 4 38 9 3 6 5 9 3 9 -2 -1 -19 -5 -38 -9z"/><path d="M1485 180 c-3 -6 1 -7 9 -4 18 7 21 14 7 14 -6 0 -13 -4 -16 -10z"/><path d="M2246 175 c-9 -26 -7 -32 5 -12 6 10 9 21 6 23 -2 3 -7 -2 -11 -11z"/><path d="M3554 128 l-19 -23 23 19 c12 11 22 21 22 23 0 8 -8 2 -26 -19z"/><path d="M230 120 c-9 -6 -10 -10 -3 -10 6 0 15 5 18 10 8 12 4 12 -15 0z"/><path d="M3402 114 c10 -10 20 -16 22 -13 3 3 -5 11 -17 18 -21 13 -21 12 -5 -5z"/></g><g transform="translate(0.000000,83.000000) scale(0.100000,-0.100000)" fill="#460085" stroke="none"><path d="M3313 570 c0 -25 2 -35 4 -22 2 12 2 32 0 45 -2 12 -4 2 -4 -23z"/><path d="M1903 455 c0 -33 2 -45 4 -27 2 18 2 45 0 60 -2 15 -4 0 -4 -33z"/><path d="M98 423 c7 -3 16 -2 19 1 4 3 -2 6 -13 5 -11 0 -14 -3 -6 -6z"/><path d="M333 310 c0 -25 2 -35 4 -22 2 12 2 32 0 45 -2 12 -4 2 -4 -23z"/><path d="M1865 310 c-3 -5 -1 -10 4 -10 6 0 11 5 11 10 0 6 -2 10 -4 10 -3 0 -8 -4 -11 -10z"/><path d="M1672 270 c0 -14 2 -19 5 -12 2 6 2 18 0 25 -3 6 -5 1 -5 -13z"/><path d="M1148 213 c12 -2 30 -2 40 0 9 3 -1 5 -23 4 -22 0 -30 -2 -17 -4z"/></g><g transform="translate(0.000000,83.000000) scale(0.100000,-0.100000)" fill="#521FB8" stroke="none"><path d="M2387 539 c7 -7 15 -10 18 -7 3 3 -2 9 -12 12 -14 6 -15 5 -6 -5z"/><path d="M3312 510 c0 -14 2 -19 5 -12 2 6 2 18 0 25 -3 6 -5 1 -5 -13z"/><path d="M1643 445 c0 -38 2 -53 4 -32 2 20 2 52 0 70 -2 17 -4 1 -4 -38z"/><path d="M711 474 c0 -11 3 -14 6 -6 3 7 2 16 -1 19 -3 4 -6 -2 -5 -13z"/><path d="M3312 450 c0 -19 2 -27 5 -17 2 9 2 25 0 35 -3 9 -5 1 -5 -18z"/><path d="M3331 454 c0 -11 3 -14 6 -6 3 7 2 16 -1 19 -3 4 -6 -2 -5 -13z"/><path d="M1120 416 c0 -2 7 -7 16 -10 8 -3 12 -2 9 4 -6 10 -25 14 -25 6z"/><path d="M1478 413 c7 -3 16 -2 19 1 4 3 -2 6 -13 5 -11 0 -14 -3 -6 -6z"/><path d="M3311 394 c0 -11 3 -14 6 -6 3 7 2 16 -1 19 -3 4 -6 -2 -5 -13z"/><path d="M2038 393 c12 -2 30 -2 40 0 9 3 -1 5 -23 4 -22 0 -30 -2 -17 -4z"/><path d="M542 355 c0 -16 2 -22 5 -12 2 9 2 23 0 30 -3 6 -5 -1 -5 -18z"/><path d="M713 300 c0 -47 2 -66 4 -42 2 23 2 61 0 85 -2 23 -4 4 -4 -43z"/><path d="M885 350 c3 -5 8 -10 11 -10 2 0 4 5 4 10 0 6 -5 10 -11 10 -5 0 -7 -4 -4 -10z"/><path d="M1641 254 c0 -11 3 -14 6 -6 3 7 2 16 -1 19 -3 4 -6 -2 -5 -13z"/><path d="M1671 234 c0 -11 3 -14 6 -6 3 7 2 16 -1 19 -3 4 -6 -2 -5 -13z"/><path d="M1201 216 c2 -2 20 -6 39 -10 25 -4 31 -3 20 4 -14 9 -69 15 -59 6z"/><path d="M2546 201 c-4 -5 -2 -12 3 -15 5 -4 12 -2 15 3 4 5 2 12 -3 15 -5 4 -12 2 -15 -3z"/><path d="M3313 130 c0 -36 2 -50 4 -32 2 17 2 47 0 65 -2 17 -4 3 -4 -33z"/><path d="M118 103 c7 -3 16 -2 19 1 4 3 -2 6 -13 5 -11 0 -14 -3 -6 -6z"/><path d="M743 103 c9 -2 23 -2 30 0 6 3 -1 5 -18 5 -16 0 -22 -2 -12 -5z"/><path d="M968 103 c7 -3 16 -2 19 1 4 3 -2 6 -13 5 -11 0 -14 -3 -6 -6z"/><path d="M2520 90 c-9 -6 -10 -10 -3 -10 6 0 15 5 18 10 8 12 4 12 -15 0z"/><path d="M3311 44 c0 -11 3 -14 6 -6 3 7 2 16 -1 19 -3 4 -6 -2 -5 -13z"/></g><g transform="translate(0.000000,83.000000) scale(0.100000,-0.100000)" fill="#0000BF" stroke="none"><path d="M880 426 c0 -2 7 -7 16 -10 8 -3 12 -2 9 4 -6 10 -25 14 -25 6z"/><path d="M3313 330 c0 -30 2 -43 4 -27 2 15 2 39 0 55 -2 15 -4 2 -4 -28z"/><path d="M3763 315 c0 -8 4 -12 9 -9 5 3 6 10 3 15 -9 13 -12 11 -12 -6z"/><path d="M3313 230 c0 -25 2 -35 4 -22 2 12 2 32 0 45 -2 12 -4 2 -4 -23z"/><path d="M811 224 c0 -11 3 -14 6 -6 3 7 2 16 -1 19 -3 4 -6 -2 -5 -13z"/><path d="M2111 144 c0 -11 3 -14 6 -6 3 7 2 16 -1 19 -3 4 -6 -2 -5 -13z"/></g><g transform="translate(0.000000,83.000000) scale(0.100000,-0.100000)" fill="#591FCC" stroke="none"><path d="M3389 793 c-13 -16 -12 -17 4 -4 9 7 17 15 17 17 0 8 -8 3 -21 -13z"/><path d="M3570 806 c0 -2 8 -10 18 -17 15 -13 16 -12 3 4 -13 16 -21 21 -21 13z"/><path d="M3815 720 c10 -11 20 -20 23 -20 3 0 -3 9 -13 20 -10 11 -20 20 -23 20 -3 0 3 -9 13 -20z"/><path d="M3380 616 c0 -2 8 -10 18 -17 15 -13 16 -12 3 4 -13 16 -21 21 -21 13z"/><path d="M3579 603 c-13 -16 -12 -17 4 -4 16 13 21 21 13 21 -2 0 -10 -8 -17 -17z"/><path d="M2803 555 c0 -22 2 -30 4 -17 2 12 2 30 0 40 -3 9 -5 -1 -4 -23z"/><path d="M3765 530 c10 -11 20 -20 23 -20 3 0 -3 9 -13 20 -10 11 -20 20 -23 20 -3 0 3 -9 13 -20z"/><path d="M98 513 c12 -2 32 -2 45 0 12 2 2 4 -23 4 -25 0 -35 -2 -22 -4z"/><path d="M1562 485 c0 -16 2 -22 5 -12 2 9 2 23 0 30 -3 6 -5 -1 -5 -18z"/><path d="M1984 315 c0 -110 2 -156 3 -103 2 53 2 143 0 200 -1 57 -3 13 -3 -97z"/><path d="M3492 450 c0 -14 2 -19 5 -12 2 6 2 18 0 25 -3 6 -5 1 -5 -13z"/><path d="M74 437 c-2 -7 -3 -67 -2 -133 l3 -119 30 -1 c28 -1 28 -1 3 3 l-28 4 0 124 c0 109 2 124 18 128 16 4 16 5 -1 6 -10 0 -20 -5 -23 -12z"/><path d="M843 443 c9 -2 25 -2 35 0 9 3 1 5 -18 5 -19 0 -27 -2 -17 -5z"/><path d="M1561 434 c0 -11 3 -14 6 -6 3 7 2 16 -1 19 -3 4 -6 -2 -5 -13z"/><path d="M3532 425 c0 -16 2 -22 5 -12 2 9 2 23 0 30 -3 6 -5 -1 -5 -18z"/><path d="M922 390 c0 -14 2 -19 5 -12 2 6 2 18 0 25 -3 6 -5 1 -5 -13z"/><path d="M1158 403 c7 -3 16 -2 19 1 4 3 -2 6 -13 5 -11 0 -14 -3 -6 -6z"/><path d="M398 393 c7 -3 16 -2 19 1 4 3 -2 6 -13 5 -11 0 -14 -3 -6 -6z"/><path d="M508 393 c6 -2 18 -2 25 0 6 3 1 5 -13 5 -14 0 -19 -2 -12 -5z"/><path d="M430 386 c0 -2 8 -10 18 -17 15 -13 16 -12 3 4 -13 16 -21 21 -21 13z"/><path d="M2444 368 l-19 -23 23 19 c21 18 27 26 19 26 -2 0 -12 -10 -23 -22z"/><path d="M311 364 c0 -11 3 -14 6 -6 3 7 2 16 -1 19 -3 4 -6 -2 -5 -13z"/><path d="M1250 376 c0 -2 8 -10 18 -17 15 -13 16 -12 3 4 -13 16 -21 21 -21 13z"/><path d="M1643 325 c0 -33 2 -45 4 -27 2 18 2 45 0 60 -2 15 -4 0 -4 -33z"/><path d="M3565 340 c10 -11 20 -20 23 -20 3 0 -3 9 -13 20 -10 11 -20 20 -23 20 -3 0 3 -9 13 -20z"/><path d="M818 333 c6 -2 18 -2 25 0 6 3 1 5 -13 5 -14 0 -19 -2 -12 -5z"/><path d="M2544 328 c-4 -7 -4 -10 1 -6 4 4 15 2 24 -5 14 -11 14 -10 2 6 -16 20 -18 21 -27 5z"/><path d="M2930 317 c0 -2 15 -16 33 -33 l32 -29 -29 33 c-28 30 -36 37 -36 29z"/><path d="M1107 288 c2 -5 31 -8 64 -8 32 0 59 3 59 8 0 4 -29 7 -64 7 -35 0 -62 -3 -59 -7z"/><path d="M3688 293 c7 -3 16 -2 19 1 4 3 -2 6 -13 5 -11 0 -14 -3 -6 -6z"/><path d="M3231 257 c-13 -21 -12 -21 5 -5 10 10 16 20 13 22 -3 3 -11 -5 -18 -17z"/><path d="M1562 250 c0 -14 2 -19 5 -12 2 6 2 18 0 25 -3 6 -5 1 -5 -13z"/><path d="M2610 256 c0 -2 8 -10 18 -17 15 -13 16 -12 3 4 -13 16 -21 21 -21 13z"/><path d="M1643 180 c0 -36 2 -50 4 -32 2 17 2 47 0 65 -2 17 -4 3 -4 -33z"/><path d="M1691 224 c0 -11 3 -14 6 -6 3 7 2 16 -1 19 -3 4 -6 -2 -5 -13z"/><path d="M2642 190 c0 -14 2 -19 5 -12 2 6 2 18 0 25 -3 6 -5 1 -5 -13z"/><path d="M712 160 c0 -19 2 -27 5 -17 2 9 2 25 0 35 -3 9 -5 1 -5 -18z"/><path d="M1050 156 c0 -2 8 -10 18 -17 15 -13 16 -12 3 4 -13 16 -21 21 -21 13z"/><path d="M2131 144 c0 -11 3 -14 6 -6 3 7 2 16 -1 19 -3 4 -6 -2 -5 -13z"/><path d="M3395 140 c10 -11 20 -20 23 -20 3 0 -3 9 -13 20 -10 11 -20 20 -23 20 -3 0 3 -9 13 -20z"/><path d="M1259 133 c-13 -16 -12 -17 4 -4 16 13 21 21 13 21 -2 0 -10 -8 -17 -17z"/><path d="M2609 123 c-13 -16 -12 -17 4 -4 9 7 17 15 17 17 0 8 -8 3 -21 -13z"/><path d="M3110 137 c0 -2 15 -16 33 -33 l32 -29 -29 33 c-28 30 -36 37 -36 29z"/><path d="M33 103 c15 -2 39 -2 55 0 15 2 2 4 -28 4 -30 0 -43 -2 -27 -4z"/><path d="M1598 103 c6 -2 18 -2 25 0 6 3 1 5 -13 5 -14 0 -19 -2 -12 -5z"/><path d="M3401 44 c0 -11 3 -14 6 -6 3 7 2 16 -1 19 -3 4 -6 -2 -5 -13z"/><path d="M3230 26 c0 -2 8 -10 18 -17 15 -13 16 -12 3 4 -13 16 -21 21 -21 13z"/></g><g transform="translate(0.000000,83.000000) scale(0.100000,-0.100000)" fill="#591FD2" stroke="none"><path d="M3518 823 c7 -3 16 -2 19 1 4 3 -2 6 -13 5 -11 0 -14 -3 -6 -6z"/><path d="M3399 793 l-24 -28 30 25 c17 14 32 26 34 28 2 1 0 2 -6 2 -5 0 -20 -12 -34 -27z"/><path d="M3550 816 c0 -2 8 -10 18 -17 15 -13 16 -12 3 4 -13 16 -21 21 -21 13z"/><path d="M3043 803 c15 -2 39 -2 55 0 15 2 2 4 -28 4 -30 0 -43 -2 -27 -4z"/><path d="M2934 774 c-18 -14 -18 -14 6 -3 31 14 36 19 24 19 -6 0 -19 -7 -30 -16z"/><path d="M3160 786 c0 -2 7 -7 16 -10 8 -3 12 -2 9 4 -6 10 -25 14 -25 6z"/><path d="M3596 767 c3 -10 9 -15 12 -12 3 3 0 11 -7 18 -10 9 -11 8 -5 -6z"/><path d="M3200 767 c0 -2 15 -16 33 -33 l32 -29 -29 33 c-28 30 -36 37 -36 29z"/><path d="M2874 728 l-29 -33 33 29 c30 28 37 36 29 36 -2 0 -16 -15 -33 -32z"/><path d="M3363 700 c0 -25 2 -35 4 -22 2 12 2 32 0 45 -2 12 -4 2 -4 -23z"/><path d="M3611 724 c0 -11 3 -14 6 -6 3 7 2 16 -1 19 -3 4 -6 -2 -5 -13z"/><path d="M3825 670 c0 -21 3 -36 8 -33 4 2 7 17 7 33 0 16 -3 31 -7 33 -5 3 -8 -12 -8 -33z"/><path d="M3266 687 c3 -10 9 -15 12 -12 3 3 0 11 -7 18 -10 9 -11 8 -5 -6z"/><path d="M3702 670 c0 -19 2 -27 5 -17 2 9 2 25 0 35 -3 9 -5 1 -5 -18z"/><path d="M3611 674 c0 -11 3 -14 6 -6 3 7 2 16 -1 19 -3 4 -6 -2 -5 -13z"/><path d="M3573 613 c-17 -18 -28 -33 -24 -33 9 0 66 59 60 63 -2 1 -18 -12 -36 -30z"/><path d="M3402 605 c15 -16 29 -27 31 -24 3 2 -10 15 -27 28 l-31 24 27 -28z"/><path d="M2811 604 c0 -11 3 -14 6 -6 3 7 2 16 -1 19 -3 4 -6 -2 -5 -13z"/><path d="M3770 610 l-35 -7 32 -2 c17 0 35 4 38 9 3 6 5 9 3 9 -2 -1 -19 -5 -38 -9z"/><path d="M3294 320 c0 -162 2 -229 3 -147 2 81 2 213 0 295 -1 81 -3 14 -3 -148z"/><path d="M3658 563 c12 -2 30 -2 40 0 9 3 -1 5 -23 4 -22 0 -30 -2 -17 -4z"/><path d="M3720 556 c0 -2 7 -7 16 -10 8 -3 12 -2 9 4 -6 10 -25 14 -25 6z"/><path d="M3569 523 c-13 -16 -12 -17 4 -4 16 13 21 21 13 21 -2 0 -10 -8 -17 -17z"/><path d="M1576 522 c-3 -4 8 -6 24 -4 l29 4 4 -68 3 -69 0 70 c-1 68 -2 70 -28 73 -14 2 -29 -1 -32 -6z"/><path d="M1916 522 c-3 -5 8 -6 25 -4 16 2 29 6 29 8 0 8 -49 4 -54 -4z"/><path d="M2372 518 c-7 -7 -12 -16 -12 -22 0 -5 6 -3 13 6 6 9 21 18 32 21 20 5 20 5 0 6 -12 0 -26 -4 -33 -11z"/><path d="M3403 523 c9 -2 23 -2 30 0 6 3 -1 5 -18 5 -16 0 -22 -2 -12 -5z"/><path d="M6 512 c-2 -4 13 -6 35 -4 21 2 39 6 39 8 0 7 -69 4 -74 -4z"/><path d="M727 513 c-3 -5 23 -7 56 -5 111 5 124 9 35 10 -48 1 -89 -1 -91 -5z"/><path d="M2811 504 c0 -11 3 -14 6 -6 3 7 2 16 -1 19 -3 4 -6 -2 -5 -13z"/><path d="M3359 503 c-13 -16 -12 -17 4 -4 16 13 21 21 13 21 -2 0 -10 -8 -17 -17z"/><path d="M168 503 c7 -3 16 -2 19 1 4 3 -2 6 -13 5 -11 0 -14 -3 -6 -6z"/><path d="M920 506 c0 -2 7 -7 16 -10 8 -3 12 -2 9 4 -6 10 -25 14 -25 6z"/><path d="M3786 497 c3 -10 9 -15 12 -12 3 3 0 11 -7 18 -10 9 -11 8 -5 -6z"/><path d="M215 488 c11 -6 31 -20 45 -32 14 -11 11 -6 -7 12 -18 17 -38 32 -45 32 -7 0 -4 -6 7 -12z"/><path d="M2430 463 c-23 -58 -23 -61 0 -20 12 21 20 43 18 48 -2 6 -10 -7 -18 -28z"/><path d="M3476 487 c3 -10 9 -15 12 -12 3 3 0 11 -7 18 -10 9 -11 8 -5 -6z"/><path d="M3342 450 c0 -19 2 -27 5 -17 2 9 2 25 0 35 -3 9 -5 1 -5 -18z"/><path d="M2360 466 c0 -2 8 -10 18 -17 15 -13 16 -12 3 4 -13 16 -21 21 -21 13z"/><path d="M3803 430 c0 -25 2 -35 4 -22 2 12 2 32 0 45 -2 12 -4 2 -4 -23z"/><path d="M828 453 c7 -3 16 -2 19 1 4 3 -2 6 -13 5 -11 0 -14 -3 -6 -6z"/><path d="M986 447 c3 -10 9 -15 12 -12 3 3 0 11 -7 18 -10 9 -11 8 -5 -6z"/><path d="M1572 417 c-1 -34 -6 -46 -14 -41 -7 5 -8 3 -3 -5 14 -23 26 5 22 50 l-4 44 -1 -48z"/><path d="M118 443 c6 -2 18 -2 25 0 6 3 1 5 -13 5 -14 0 -19 -2 -12 -5z"/><path d="M722 425 c0 -16 2 -22 5 -12 2 9 2 23 0 30 -3 6 -5 -1 -5 -18z"/><path d="M797 443 c-9 -9 -9 -101 1 -106 4 -3 7 21 7 54 0 32 0 59 -1 59 0 0 -4 -3 -7 -7z"/><path d="M908 432 c9 -10 19 -17 21 -16 6 5 -20 34 -30 34 -5 0 -1 -8 9 -18z"/><path d="M2840 431 c5 -11 15 -23 21 -27 6 -3 3 5 -6 20 -20 30 -30 35 -15 7z"/><path d="M205 410 c10 -11 20 -20 23 -20 3 0 -3 9 -13 20 -10 11 -20 20 -23 20 -3 0 3 -9 13 -20z"/><path d="M3466 402 l-19 -27 24 22 c12 12 21 24 18 27 -2 2 -13 -8 -23 -22z"/><path d="M1002 390 c0 -14 2 -19 5 -12 2 6 2 18 0 25 -3 6 -5 1 -5 -13z"/><path d="M3362 394 c10 -10 20 -16 22 -13 3 3 -5 11 -17 18 -21 13 -21 12 -5 -5z"/><path d="M301 384 c0 -11 3 -14 6 -6 3 7 2 16 -1 19 -3 4 -6 -2 -5 -13z"/><path d="M1148 393 c12 -2 32 -2 45 0 12 2 2 4 -23 4 -25 0 -35 -2 -22 -4z"/><path d="M1473 393 c9 -2 23 -2 30 0 6 3 -1 5 -18 5 -16 0 -22 -2 -12 -5z"/><path d="M1808 393 c12 -2 30 -2 40 0 9 3 -1 5 -23 4 -22 0 -30 -2 -17 -4z"/><path d="M2288 393 c6 -2 18 -2 25 0 6 3 1 5 -13 5 -14 0 -19 -2 -12 -5z"/><path d="M2508 393 c12 -2 32 -2 45 0 12 2 2 4 -23 4 -25 0 -35 -2 -22 -4z"/><path d="M1887 379 c7 -7 15 -10 18 -7 3 3 -2 9 -12 12 -14 6 -15 5 -6 -5z"/><path d="M375 248 l0 -133 35 0 35 0 1 85 0 85 -3 -82 -4 -83 -29 0 -29 0 -4 130 -3 130 1 -132z"/><path d="M1389 353 l-24 -28 28 24 c15 14 27 26 27 28 0 8 -8 1 -31 -24z"/><path d="M1734 358 l-19 -23 23 19 c21 18 27 26 19 26 -2 0 -12 -10 -23 -22z"/><path d="M2615 358 c14 -23 15 -29 4 -32 -41 -13 -43 -14 -23 -15 36 -2 48 23 24 50 l-21 24 16 -27z"/><path d="M2915 340 c21 -22 41 -40 44 -40 3 0 -13 18 -34 40 -21 22 -41 40 -44 40 -3 0 13 -18 34 -40z"/><path d="M3408 373 c6 -2 18 -2 25 0 6 3 1 5 -13 5 -14 0 -19 -2 -12 -5z"/><path d="M1059 353 c-13 -16 -12 -17 4 -4 16 13 21 21 13 21 -2 0 -10 -8 -17 -17z"/><path d="M3764 338 l-19 -23 23 19 c12 11 22 21 22 23 0 8 -8 2 -26 -19z"/><path d="M313 305 c0 -27 2 -38 4 -22 2 15 2 37 0 50 -2 12 -4 0 -4 -28z"/><path d="M875 340 l-30 -8 27 -1 c15 0 30 4 33 9 3 6 5 9 3 9 -2 -1 -16 -5 -33 -9z"/><path d="M1158 343 c6 -2 18 -2 25 0 6 3 1 5 -13 5 -14 0 -19 -2 -12 -5z"/><path d="M1276 337 c3 -10 9 -15 12 -12 3 3 0 11 -7 18 -10 9 -11 8 -5 -6z"/><path d="M2502 338 c-7 -7 -12 -19 -11 -27 0 -11 3 -10 8 4 4 11 19 23 32 26 21 6 21 7 4 8 -12 1 -26 -4 -33 -11z"/><path d="M1488 333 c6 -2 18 -2 25 0 6 3 1 5 -13 5 -14 0 -19 -2 -12 -5z"/><path d="M1828 333 c7 -3 16 -2 19 1 4 3 -2 6 -13 5 -11 0 -14 -3 -6 -6z"/><path d="M2051 335 c0 -5 11 -30 24 -55 13 -25 24 -40 24 -35 0 6 -11 30 -24 55 -13 25 -24 41 -24 35z"/><path d="M508 323 c6 -2 18 -2 25 0 6 3 1 5 -13 5 -14 0 -19 -2 -12 -5z"/><path d="M964 308 l-19 -23 23 19 c21 18 27 26 19 26 -2 0 -12 -10 -23 -22z"/><path d="M1434 305 c-9 -13 -14 -28 -12 -33 1 -5 10 6 19 24 19 40 16 44 -7 9z"/><path d="M1530 326 c0 -2 8 -10 18 -17 15 -13 16 -12 3 4 -13 16 -21 21 -21 13z"/><path d="M1785 320 c-3 -6 1 -7 9 -4 18 7 21 14 7 14 -6 0 -13 -4 -16 -10z"/><path d="M1870 326 c0 -2 8 -10 18 -17 15 -13 16 -12 3 4 -13 16 -21 21 -21 13z"/><path d="M2286 315 c-9 -26 -7 -32 5 -12 6 10 9 21 6 23 -2 3 -7 -2 -11 -11z"/><path d="M3172 318 c-18 -18 -15 -54 6 -69 14 -11 15 -11 5 1 -19 20 -16 57 5 69 9 6 12 11 7 11 -6 0 -16 -5 -23 -12z"/><path d="M2421 304 c0 -11 3 -14 6 -6 3 7 2 16 -1 19 -3 4 -6 -2 -5 -13z"/><path d="M3468 313 c7 -3 16 -2 19 1 4 3 -2 6 -13 5 -11 0 -14 -3 -6 -6z"/><path d="M1291 294 c0 -11 3 -14 6 -6 3 7 2 16 -1 19 -3 4 -6 -2 -5 -13z"/><path d="M2140 305 c0 -5 5 -17 10 -25 5 -8 10 -10 10 -5 0 6 -5 17 -10 25 -5 8 -10 11 -10 5z"/><path d="M3399 283 c-13 -16 -12 -17 4 -4 16 13 21 21 13 21 -2 0 -10 -8 -17 -17z"/><path d="M3530 296 c0 -2 8 -10 18 -17 15 -13 16 -12 3 4 -13 16 -21 21 -21 13z"/><path d="M1353 250 c0 -25 2 -35 4 -22 2 12 2 32 0 45 -2 12 -4 2 -4 -23z"/><path d="M230 266 c0 -8 -12 -29 -26 -48 l-26 -33 31 33 c27 28 41 62 26 62 -3 0 -5 -6 -5 -14z"/><path d="M1762 250 c0 -19 2 -27 5 -17 2 9 2 25 0 35 -3 9 -5 1 -5 -18z"/><path d="M2200 272 c0 -6 -7 -18 -16 -26 -8 -9 -11 -16 -5 -16 13 0 35 39 27 48 -3 3 -6 0 -6 -6z"/><path d="M793 200 c0 -41 2 -58 4 -37 2 20 2 54 0 75 -2 20 -4 3 -4 -38z"/><path d="M830 266 c0 -2 8 -10 18 -17 15 -13 16 -12 3 4 -13 16 -21 21 -21 13z"/><path d="M1021 254 c0 -11 3 -14 6 -6 3 7 2 16 -1 19 -3 4 -6 -2 -5 -13z"/><path d="M1691 254 c0 -11 3 -14 6 -6 3 7 2 16 -1 19 -3 4 -6 -2 -5 -13z"/><path d="M2580 266 c0 -2 7 -7 16 -10 8 -3 12 -2 9 4 -6 10 -25 14 -25 6z"/><path d="M935 230 c9 -16 18 -30 21 -30 2 0 -2 14 -11 30 -9 17 -18 30 -21 30 -2 0 2 -13 11 -30z"/><path d="M3045 200 c33 -33 62 -60 64 -60 3 0 -21 27 -54 60 -33 33 -62 60 -64 60 -3 0 21 -27 54 -60z"/><path d="M1421 234 c0 -11 3 -14 6 -6 3 7 2 16 -1 19 -3 4 -6 -2 -5 -13z"/><path d="M1148 233 c29 -2 74 -2 100 0 26 2 2 3 -53 3 -55 0 -76 -1 -47 -3z"/><path d="M3372 215 c0 -16 2 -22 5 -12 2 9 2 23 0 30 -3 6 -5 -1 -5 -18z"/><path d="M3572 210 c0 -14 2 -19 5 -12 2 6 2 18 0 25 -3 6 -5 1 -5 -13z"/><path d="M1031 209 c-1 -8 6 -24 15 -35 15 -19 15 -19 6 1 -5 11 -12 27 -15 35 -5 13 -6 13 -6 -1z"/><path d="M2558 202 c9 -10 19 -17 21 -16 6 5 -20 34 -30 34 -5 0 -1 -8 9 -18z"/><path d="M568 203 c6 -2 18 -2 25 0 6 3 1 5 -13 5 -14 0 -19 -2 -12 -5z"/><path d="M1258 193 c18 -4 23 -9 19 -25 -4 -15 -3 -18 5 -10 16 16 1 42 -24 41 l-23 -2 23 -4z"/><path d="M1360 193 c0 -7 12 -25 28 -41 15 -15 20 -19 11 -7 -9 11 -21 29 -27 40 -6 11 -12 14 -12 8z"/><path d="M1545 190 c-3 -5 -20 -14 -38 -19 -23 -7 -26 -9 -11 -10 12 -1 32 8 45 19 13 10 21 19 17 20 -4 0 -10 -4 -13 -10z"/><path d="M1885 190 c-3 -5 -20 -14 -38 -19 -23 -7 -26 -9 -11 -10 12 -1 32 8 45 19 13 10 21 19 17 20 -4 0 -10 -4 -13 -10z"/><path d="M2450 196 c0 -2 9 -6 20 -9 11 -3 18 -1 14 4 -5 9 -34 13 -34 5z"/><path d="M148 183 c7 -3 16 -2 19 1 4 3 -2 6 -13 5 -11 0 -14 -3 -6 -6z"/><path d="M2425 179 c-4 -6 -5 -12 -2 -15 2 -3 7 2 10 11 7 17 1 20 -8 4z"/><path d="M259 163 c-13 -16 -12 -17 4 -4 16 13 21 21 13 21 -2 0 -10 -8 -17 -17z"/><path d="M532 160 c0 -14 2 -19 5 -12 2 6 2 18 0 25 -3 6 -5 1 -5 -13z"/><path d="M3541 146 l-24 -31 28 27 c16 15 27 29 24 31 -2 3 -15 -10 -28 -27z"/><path d="M2626 153 c-6 -14 -5 -15 5 -6 7 7 10 15 7 18 -3 3 -9 -2 -12 -12z"/><path d="M2518 153 c6 -2 18 -2 25 0 6 3 1 5 -13 5 -14 0 -19 -2 -12 -5z"/><path d="M611 127 c-13 -21 -12 -21 5 -5 10 10 16 20 13 22 -3 3 -11 -5 -18 -17z"/><path d="M980 145 c0 -5 5 -17 10 -25 5 -8 10 -10 10 -5 0 6 -5 17 -10 25 -5 8 -10 11 -10 5z"/><path d="M2430 146 c0 -2 8 -10 18 -17 15 -13 16 -12 3 4 -13 16 -21 21 -21 13z"/><path d="M1910 125 c7 -8 26 -14 44 -13 l31 1 -32 4 c-18 2 -33 8 -33 14 0 5 -5 9 -11 9 -8 0 -8 -5 1 -15z"/><path d="M547 119 c7 -7 15 -10 18 -7 3 3 -2 9 -12 12 -14 6 -15 5 -6 -5z"/><path d="M1230 120 c-9 -6 -10 -10 -3 -10 6 0 15 5 18 10 8 12 4 12 -15 0z"/><path d="M1767 119 c7 -7 15 -10 18 -7 3 3 -2 9 -12 12 -14 6 -15 5 -6 -5z"/><path d="M2590 120 c-9 -6 -10 -10 -3 -10 6 0 15 5 18 10 8 12 4 12 -15 0z"/><path d="M148 113 c6 -2 18 -2 25 0 6 3 1 5 -13 5 -14 0 -19 -2 -12 -5z"/><path d="M3458 113 c12 -2 30 -2 40 0 9 3 -1 5 -23 4 -22 0 -30 -2 -17 -4z"/><path d="M1148 103 c12 -2 32 -2 45 0 12 2 2 4 -23 4 -25 0 -35 -2 -22 -4z"/><path d="M1468 103 c6 -2 18 -2 25 0 6 3 1 5 -13 5 -14 0 -19 -2 -12 -5z"/><path d="M2513 103 c9 -2 25 -2 35 0 9 3 1 5 -18 5 -19 0 -27 -2 -17 -5z"/><path d="M3190 65 c19 -19 36 -35 39 -35 3 0 -10 16 -29 35 -19 19 -36 35 -39 35 -3 0 10 -16 29 -35z"/><path d="M3346 71 c-4 -5 3 -7 14 -4 23 6 26 13 6 13 -8 0 -17 -4 -20 -9z"/><path d="M2149 13 c-13 -16 -12 -17 4 -4 16 13 21 21 13 21 -2 0 -10 -8 -17 -17z"/><path d="M3347 18 c6 -10 40 -10 46 -1 3 5 -8 8 -23 8 -15 0 -26 -3 -23 -7z"/><path d="M3270 10 c-9 -6 -10 -10 -3 -10 6 0 15 5 18 10 8 12 4 12 -15 0z"/></g><g transform="translate(0.000000,83.000000) scale(0.100000,-0.100000)" fill="#5926D2" stroke="none"><path d="M3444 816 c-49 -22 -74 -61 -74 -117 0 -59 33 -103 90 -120 32 -10 44 -9 76 7 69 35 95 101 65 170 -24 57 -99 86 -157 60z"/><path d="M2960 779 c-56 -25 -96 -62 -123 -114 -28 -54 -29 -155 -2 -209 42 -86 409 -454 440 -442 13 5 15 48 15 311 0 333 -2 350 -58 408 -65 69 -179 88 -272 46z m285 -473 c30 -45 -20 -91 -64 -59 -23 16 -28 52 -9 71 20 20 56 14 73 -12z"/><path d="M3740 727 c-19 -9 -26 -22 -28 -50 -4 -48 11 -67 54 -67 40 0 64 22 64 59 0 52 -45 81 -90 58z"/><path d="M3620 553 c-50 -18 -87 -90 -76 -148 13 -68 94 -118 163 -101 14 4 41 22 60 41 28 28 33 40 33 79 0 58 -21 101 -60 121 -28 15 -90 19 -120 8z"/><path d="M1576 513 c-3 -4 -4 -33 0 -64 4 -32 4 -65 0 -74 -5 -15 -8 -15 -28 -1 -12 9 -42 16 -65 16 -62 0 -113 -47 -120 -112 -7 -60 1 -89 33 -127 30 -37 83 -49 131 -32 26 10 37 10 48 1 8 -6 24 -10 37 -8 21 3 23 9 26 63 2 33 1 124 -3 203 -7 138 -8 142 -29 142 -13 0 -26 -3 -30 -7z m-31 -198 c50 -49 18 -155 -45 -155 -33 0 -80 53 -80 90 0 79 74 117 125 65z"/><path d="M1917 513 c-4 -3 -7 -37 -7 -75 0 -62 -9 -84 -25 -58 -3 6 -29 10 -57 10 -43 0 -54 -4 -83 -33 -57 -57 -59 -154 -6 -208 39 -39 76 -46 131 -26 26 10 46 12 48 7 2 -6 17 -10 33 -10 l29 0 0 200 0 200 -28 0 c-16 0 -32 -3 -35 -7z m-24 -205 c26 -31 22 -93 -8 -123 -27 -28 -42 -30 -78 -14 -45 20 -59 77 -32 129 23 45 83 49 118 8z"/><path d="M2370 499 c-9 -16 -8 -24 5 -39 12 -14 15 -27 10 -52 -6 -29 -5 -31 7 -18 23 24 51 97 45 114 -9 23 -54 20 -67 -5z"/><path d="M3367 502 c-26 -29 -22 -88 7 -107 74 -49 152 47 90 109 -21 22 -77 20 -97 -2z"/><path d="M4 497 c-2 -7 -3 -96 -2 -197 l3 -185 53 -3 c70 -4 154 14 188 40 55 44 79 149 54 240 -13 44 -66 93 -117 107 -55 16 -172 14 -179 -2z m171 -61 c54 -23 71 -61 67 -154 -2 -24 -12 -44 -36 -68 -30 -30 -40 -34 -85 -34 l-51 0 0 135 0 135 35 0 c20 0 51 -6 70 -14z"/><path d="M726 498 c-2 -7 -3 -96 -3 -198 l2 -185 30 0 30 0 3 75 c5 115 39 115 97 0 29 -57 39 -69 65 -75 17 -4 34 -4 37 -1 4 3 -11 39 -32 80 l-38 74 42 39 c34 33 41 47 41 77 0 49 -23 92 -60 111 -37 19 -209 21 -214 3z m192 -61 c19 -15 15 -71 -7 -91 -14 -12 -32 -16 -67 -14 l-49 3 -3 50 c-4 62 13 78 72 68 23 -3 47 -10 54 -16z"/><path d="M380 255 l0 -135 30 0 30 0 0 80 c0 89 14 115 70 127 23 4 30 11 30 30 0 32 -27 40 -64 19 -27 -16 -31 -16 -42 -2 -6 9 -21 16 -33 16 -20 0 -21 -4 -21 -135z"/><path d="M1086 368 c-32 -24 -56 -74 -56 -115 1 -45 35 -110 69 -127 73 -38 181 -5 181 55 0 14 -43 10 -64 -6 -43 -33 -116 -4 -116 45 0 19 7 20 101 20 l101 0 -7 36 c-10 54 -24 79 -55 97 -41 24 -118 22 -154 -5z m124 -38 c38 -38 27 -50 -45 -50 -45 0 -65 4 -65 13 0 17 12 32 35 45 30 17 53 14 75 -8z"/><path d="M2040 381 c0 -4 23 -56 50 -115 28 -59 50 -115 50 -124 0 -9 -11 -41 -25 -70 -14 -30 -25 -58 -25 -63 0 -16 46 -10 62 9 12 14 93 190 153 335 l16 38 -33 -3 c-30 -3 -35 -8 -63 -77 -17 -41 -36 -76 -42 -78 -6 -2 -23 26 -39 63 -15 37 -34 73 -42 80 -15 15 -62 19 -62 5z"/><path d="M2455 364 c-49 -53 -25 -113 52 -134 73 -20 87 -35 57 -64 -21 -22 -51 -20 -71 4 -21 24 -51 26 -60 3 -11 -28 41 -63 92 -63 57 0 91 16 105 50 23 57 -1 91 -85 115 -47 14 -65 36 -46 59 17 20 45 20 65 1 17 -17 52 -20 61 -5 3 5 -5 21 -19 35 -20 20 -35 25 -76 25 -42 0 -55 -5 -75 -26z"/><path d="M3409 281 c-23 -23 -29 -38 -29 -71 0 -58 33 -90 94 -90 37 0 48 5 70 31 36 43 35 91 -3 130 -22 21 -39 29 -66 29 -27 0 -44 -8 -66 -29z"/><path d="M547 193 c-15 -14 -7 -63 12 -73 29 -15 39 -13 56 14 22 33 5 66 -34 66 -15 0 -31 -3 -34 -7z"/><path d="M3344 55 c-4 -9 -2 -21 4 -27 16 -16 47 -5 47 17 0 26 -42 34 -51 10z"/></g></svg>