<svg version="1.0" xmlns="http://www.w3.org/2000/svg" width="150.000000" height="150.000000" viewBox="0 0 150.000000 150.000000" preserveAspectRatio="xMidYMid meet"><rect x="71" y="11" width="13" height="13" fill="rgb(182,20,26)" /><rect x="35" y="23" width="13" height="13" fill="rgb(182,20,26)" /><rect x="71" y="23" width="13" height="13" fill="rgb(182,20,26)" /><rect x="83" y="23" width="13" height="13" fill="rgb(182,20,26)" /><rect x="95" y="23" width="13" height="13" fill="rgb(182,20,26)" /><rect x="23" y="35" width="13" height="13" fill="rgb(182,20,26)" /><rect x="35" y="35" width="13" height="13" fill="rgb(182,20,26)" /><rect x="23" y="47" width="13" height="13" fill="rgb(182,20,26)" /><rect x="35" y="47" width="13" height="13" fill="rgb(182,20,26)" /><rect x="95" y="47" width="13" height="13" fill="rgb(182,20,26)" /><rect x="11" y="59" width="13" height="13" fill="rgb(182,20,26)" /><rect x="23" y="59" width="13" height="13" fill="rgb(182,20,26)" /><rect x="35" y="59" width="13" height="13" fill="rgb(182,20,26)" /><rect x="11" y="71" width="13" height="13" fill="rgb(182,20,26)" /><rect x="23" y="71" width="13" height="13" fill="rgb(182,20,26)" /><rect x="35" y="71" width="13" height="13" fill="rgb(182,20,26)" /><rect x="23" y="83" width="13" height="13" fill="rgb(182,20,26)" /><rect x="35" y="83" width="13" height="13" fill="rgb(182,20,26)" /><rect x="95" y="83" width="13" height="13" fill="rgb(182,20,26)" /><rect x="95" y="95" width="13" height="13" fill="rgb(182,20,26)" /><rect x="59" y="107" width="13" height="13" fill="rgb(182,20,26)" /><rect x="47" y="119" width="13" height="13" fill="rgb(182,20,26)" /><rect x="59" y="119" width="13" height="13" fill="rgb(182,20,26)" /><rect x="95" y="119" width="13" height="13" fill="rgb(182,20,26)" /><g transform="translate(0.000000,150.000000) scale(0.100000,-0.100000)" fill="#B81319" stroke="none"><path d="M1220 1255 c13 -14 26 -25 28 -25 3 0 -5 11 -18 25 -13 14 -26 25 -28 25 -3 0 5 -11 18 -25z"/><path d="M910 760 c-12 -8 -10 -10 8 -10 13 0 20 4 17 10 -7 12 -6 12 -25 0z"/><path d="M1401 734 c0 -11 3 -14 6 -6 3 7 2 16 -1 19 -3 4 -6 -2 -5 -13z"/><path d="M91 724 c0 -11 3 -14 6 -6 3 7 2 16 -1 19 -3 4 -6 -2 -5 -13z"/><path d="M1110 695 c13 -14 26 -25 28 -25 3 0 -5 11 -18 25 -13 14 -26 25 -28 25 -3 0 5 -11 18 -25z"/><path d="M1225 700 c10 -11 20 -20 23 -20 3 0 -3 9 -13 20 -10 11 -20 20 -23 20 -3 0 3 -9 13 -20z"/><path d="M1224 448 l-19 -23 23 19 c21 18 27 26 19 26 -2 0 -12 -10 -23 -22z"/><path d="M360 421 c0 -6 4 -13 10 -16 6 -3 7 1 4 9 -7 18 -14 21 -14 7z"/><path d="M180 346 c0 -2 8 -10 18 -17 15 -13 16 -12 3 4 -13 16 -21 21 -21 13z"/><path d="M265 250 c27 -27 51 -50 54 -50 3 0 -17 23 -44 50 -27 28 -51 50 -54 50 -3 0 17 -22 44 -50z"/><path d="M270 296 c0 -2 8 -10 18 -17 15 -13 16 -12 3 4 -13 16 -21 21 -21 13z"/><path d="M751 274 c0 -11 3 -14 6 -6 3 7 2 16 -1 19 -3 4 -6 -2 -5 -13z"/><path d="M628 103 c7 -3 16 -2 19 1 4 3 -2 6 -13 5 -11 0 -14 -3 -6 -6z"/><path d="M770 100 c0 -5 5 -10 11 -10 5 0 7 5 4 10 -3 6 -8 10 -11 10 -2 0 -4 -4 -4 -10z"/></g><g transform="translate(0.000000,150.000000) scale(0.100000,-0.100000)" fill="#B8131F" stroke="none"><path d="M703 1493 c20 -2 54 -2 75 0 20 2 3 4 -38 4 -41 0 -58 -2 -37 -4z"/><path d="M456 1441 c-4 -5 3 -7 14 -4 23 6 26 13 6 13 -8 0 -17 -4 -20 -9z"/><path d="M668 1443 c6 -2 18 -2 25 0 6 3 1 5 -13 5 -14 0 -19 -2 -12 -5z"/><path d="M974 1439 c-3 -6 2 -18 12 -27 17 -16 17 -16 5 0 -7 9 -10 22 -6 28 3 5 4 10 1 10 -3 0 -8 -5 -12 -11z"/><path d="M1040 1433 c8 -3 24 -10 35 -15 20 -9 20 -9 1 6 -11 9 -27 16 -35 15 -14 0 -14 -1 -1 -6z"/><path d="M355 1390 c-39 -26 -25 -26 17 0 18 11 29 20 23 20 -5 0 -23 -9 -40 -20z"/><path d="M490 1400 c-9 -6 -10 -10 -3 -10 6 0 15 5 18 10 8 12 4 12 -15 0z"/><path d="M803 1393 c9 -2 23 -2 30 0 6 3 -1 5 -18 5 -16 0 -22 -2 -12 -5z"/><path d="M907 1379 c7 -7 15 -10 18 -7 3 3 -2 9 -12 12 -14 6 -15 5 -6 -5z"/><path d="M1185 1350 c3 -5 8 -10 11 -10 2 0 4 5 4 10 0 6 -5 10 -11 10 -5 0 -7 -4 -4 -10z"/><path d="M1230 1315 c13 -14 26 -25 28 -25 3 0 -5 11 -18 25 -13 14 -26 25 -28 25 -3 0 5 -11 18 -25z"/><path d="M450 1316 c0 -2 7 -7 16 -10 8 -3 12 -2 9 4 -6 10 -25 14 -25 6z"/><path d="M229 1293 c-13 -16 -12 -17 4 -4 9 7 17 15 17 17 0 8 -8 3 -21 -13z"/><path d="M271 1260 c-30 -28 -53 -52 -50 -54 2 -3 30 20 61 50 70 67 62 70 -11 4z"/><path d="M1085 1300 c3 -5 8 -10 11 -10 2 0 4 5 4 10 0 6 -5 10 -11 10 -5 0 -7 -4 -4 -10z"/><path d="M505 935 c0 -198 1 -280 2 -183 2 97 2 259 0 360 -1 101 -2 21 -2 -177z"/><path d="M654 1120 c0 -91 2 -128 3 -82 2 45 2 119 0 165 -1 45 -3 8 -3 -83z"/><path d="M1140 1266 c0 -2 8 -10 18 -17 15 -13 16 -12 3 4 -13 16 -21 21 -21 13z"/><path d="M1220 1266 c0 -2 8 -10 18 -17 15 -13 16 -12 3 4 -13 16 -21 21 -21 13z"/><path d="M195 1179 c-4 -6 -5 -12 -2 -15 2 -3 7 2 10 11 7 17 1 20 -8 4z"/><path d="M1325 1180 c-3 -6 1 -7 9 -4 18 7 21 14 7 14 -6 0 -13 -4 -16 -10z"/><path d="M125 1169 c-4 -6 -5 -12 -2 -15 2 -3 7 2 10 11 7 17 1 20 -8 4z"/><path d="M1245 1160 c21 -24 26 -25 19 -6 -3 8 -13 17 -22 21 -13 5 -13 2 3 -15z"/><path d="M160 1130 c-6 -11 -8 -20 -6 -20 3 0 10 9 16 20 6 11 8 20 6 20 -3 0 -10 -9 -16 -20z"/><path d="M860 1124 c38 -8 90 -9 90 -2 0 4 -24 7 -52 7 -29 -1 -46 -3 -38 -5z"/><path d="M978 1123 c12 -2 30 -2 40 0 9 3 -1 5 -23 4 -22 0 -30 -2 -17 -4z"/><path d="M1287 1106 c10 -13 19 -23 21 -21 5 5 -22 45 -31 45 -4 0 0 -11 10 -24z"/><path d="M788 1093 c-18 -21 -31 -43 -25 -43 2 0 13 14 25 30 25 33 24 41 0 13z"/><path d="M1080 1047 c8 -10 20 -31 27 -45 8 -19 12 -22 12 -10 1 10 -11 30 -26 46 -16 15 -21 20 -13 9z"/><path d="M1325 1040 c22 -45 29 -52 20 -20 -4 14 -14 32 -22 40 -12 12 -11 7 2 -20z"/><path d="M1390 1016 c0 -8 4 -17 9 -20 5 -4 7 3 4 14 -6 23 -13 26 -13 6z"/><path d="M755 650 c0 -195 1 -275 2 -178 2 98 2 258 0 355 -1 98 -2 18 -2 -177z"/><path d="M1241 964 c0 -11 3 -14 6 -6 3 7 2 16 -1 19 -3 4 -6 -2 -5 -13z"/><path d="M1241 914 c0 -11 3 -14 6 -6 3 7 2 16 -1 19 -3 4 -6 -2 -5 -13z"/><path d="M1370 921 c0 -6 4 -13 10 -16 6 -3 7 1 4 9 -7 18 -14 21 -14 7z"/><path d="M1426 897 c3 -10 9 -15 12 -12 3 3 0 11 -7 18 -10 9 -11 8 -5 -6z"/><path d="M1380 885 c0 -5 5 -17 10 -25 5 -8 10 -10 10 -5 0 6 -5 17 -10 25 -5 8 -10 11 -10 5z"/><path d="M1225 869 c-4 -6 -5 -12 -2 -15 2 -3 7 2 10 11 7 17 1 20 -8 4z"/><path d="M1092 850 c-18 -29 -15 -38 4 -12 9 13 14 25 12 27 -2 2 -9 -5 -16 -15z"/><path d="M52 830 c0 -14 2 -19 5 -12 2 6 2 18 0 25 -3 6 -5 1 -5 -13z"/><path d="M1442 825 c0 -16 2 -22 5 -12 2 9 2 23 0 30 -3 6 -5 -1 -5 -18z"/><path d="M102 815 c0 -16 2 -22 5 -12 2 9 2 23 0 30 -3 6 -5 -1 -5 -18z"/><path d="M1391 814 c0 -11 3 -14 6 -6 3 7 2 16 -1 19 -3 4 -6 -2 -5 -13z"/><path d="M2 790 c0 -19 2 -27 5 -17 2 9 2 25 0 35 -3 9 -5 1 -5 -18z"/><path d="M1492 785 c0 -16 2 -22 5 -12 2 9 2 23 0 30 -3 6 -5 -1 -5 -18z"/><path d="M985 780 c-3 -6 1 -7 9 -4 18 7 21 14 7 14 -6 0 -13 -4 -16 -10z"/><path d="M51 764 c0 -11 3 -14 6 -6 3 7 2 16 -1 19 -3 4 -6 -2 -5 -13z"/><path d="M948 773 c7 -3 16 -2 19 1 4 3 -2 6 -13 5 -11 0 -14 -3 -6 -6z"/><path d="M1441 754 c0 -11 3 -14 6 -6 3 7 2 16 -1 19 -3 4 -6 -2 -5 -13z"/><path d="M1493 715 c0 -22 2 -30 4 -17 2 12 2 30 0 40 -3 9 -5 -1 -4 -23z"/><path d="M3 705 c0 -22 2 -30 4 -17 2 12 2 30 0 40 -3 9 -5 -1 -4 -23z"/><path d="M1240 693 c13 -18 25 -33 27 -33 8 0 -17 38 -33 51 -11 9 -9 2 6 -18z"/><path d="M51 674 c0 -11 3 -14 6 -6 3 7 2 16 -1 19 -3 4 -6 -2 -5 -13z"/><path d="M101 674 c0 -11 3 -14 6 -6 3 7 2 16 -1 19 -3 4 -6 -2 -5 -13z"/><path d="M1391 674 c0 -11 3 -14 6 -6 3 7 2 16 -1 19 -3 4 -6 -2 -5 -13z"/><path d="M1441 674 c0 -11 3 -14 6 -6 3 7 2 16 -1 19 -3 4 -6 -2 -5 -13z"/><path d="M7 629 c4 -13 8 -18 11 -10 2 7 -1 18 -6 23 -8 8 -9 4 -5 -13z"/><path d="M1270 645 c0 -5 5 -17 10 -25 5 -8 10 -10 10 -5 0 6 -5 17 -10 25 -5 8 -10 11 -10 5z"/><path d="M1371 564 c0 -11 3 -14 6 -6 3 7 2 16 -1 19 -3 4 -6 -2 -5 -13z"/><path d="M309 529 l-24 -20 28 17 c15 9 27 18 27 20 0 8 -8 4 -31 -17z"/><path d="M1265 499 c-4 -6 -5 -12 -2 -15 2 -3 7 2 10 11 7 17 1 20 -8 4z"/><path d="M50 476 c0 -8 4 -17 9 -20 5 -4 7 3 4 14 -6 23 -13 26 -13 6z"/><path d="M281 470 c0 -8 4 -22 9 -30 12 -18 12 -2 0 25 -6 13 -9 15 -9 5z"/><path d="M1126 463 c-6 -14 -5 -15 5 -6 7 7 10 15 7 18 -3 3 -9 -2 -12 -12z"/><path d="M1296 403 c-6 -14 -5 -15 5 -6 7 7 10 15 7 18 -3 3 -9 -2 -12 -12z"/><path d="M919 397 c5 -5 26 -7 47 -5 l39 3 -47 5 c-26 3 -43 1 -39 -3z"/><path d="M388 383 c12 -2 30 -2 40 0 9 3 -1 5 -23 4 -22 0 -30 -2 -17 -4z"/><path d="M100 373 c0 -6 8 -17 18 -24 16 -13 16 -13 2 6 -8 11 -16 22 -17 24 -2 2 -3 0 -3 -6z"/><path d="M943 373 c26 -2 67 -2 90 0 23 2 2 3 -48 3 -49 0 -68 -1 -42 -3z"/><path d="M1273 368 c-15 -20 -25 -38 -20 -38 3 0 12 11 21 25 17 26 16 35 -1 13z"/><path d="M1355 319 c-4 -6 -5 -12 -2 -15 2 -3 7 2 10 11 7 17 1 20 -8 4z"/><path d="M1204 288 l-29 -33 33 29 c17 17 32 31 32 33 0 8 -8 1 -36 -29z"/><path d="M166 276 c3 -8 13 -17 22 -21 13 -5 13 -2 -3 15 -21 24 -26 25 -19 6z"/><path d="M250 255 c19 -19 36 -35 39 -35 3 0 -10 16 -29 35 -19 19 -36 35 -39 35 -3 0 10 -16 29 -35z"/><path d="M1315 263 l-17 -28 23 22 c12 12 20 25 17 28 -3 3 -13 -7 -23 -22z"/><path d="M1234 248 l-19 -23 23 19 c21 18 27 26 19 26 -2 0 -12 -10 -23 -22z"/><path d="M1135 230 c-3 -6 1 -7 9 -4 18 7 21 14 7 14 -6 0 -13 -4 -16 -10z"/><path d="M742 200 c0 -14 2 -19 5 -12 2 6 2 18 0 25 -3 6 -5 1 -5 -13z"/><path d="M256 185 c4 -8 11 -15 16 -15 6 0 5 6 -2 15 -7 8 -14 15 -16 15 -2 0 -1 -7 2 -15z"/><path d="M1137 175 c-20 -14 -37 -28 -37 -31 0 -2 18 8 40 22 35 23 47 34 37 34 -1 0 -19 -11 -40 -25z"/><path d="M1220 169 l-35 -30 38 26 c33 24 43 35 34 35 -1 0 -18 -14 -37 -31z"/><path d="M713 143 c-12 -13 -19 -23 -14 -23 10 0 46 39 40 43 -2 2 -14 -7 -26 -20z"/><path d="M854 148 l-19 -23 23 19 c21 18 27 26 19 26 -2 0 -12 -10 -23 -22z"/><path d="M410 133 c8 -3 24 -10 35 -15 20 -9 20 -9 1 6 -11 9 -27 16 -35 15 -14 0 -14 -1 -1 -6z"/><path d="M817 123 c-13 -12 -7 -23 11 -22 10 0 12 3 4 6 -6 2 -10 9 -6 14 6 10 0 12 -9 2z"/><path d="M1080 80 c-9 -6 -10 -10 -3 -10 6 0 15 5 18 10 8 12 4 12 -15 0z"/><path d="M588 68 c5 -5 16 -8 23 -6 8 3 3 7 -10 11 -17 4 -21 3 -13 -5z"/><path d="M648 58 c6 -6 18 -8 28 -6 14 3 12 5 -9 10 -19 3 -25 2 -19 -4z"/><path d="M700 56 c0 -2 8 -10 18 -17 15 -13 16 -12 3 4 -13 16 -21 21 -21 13z"/><path d="M1010 50 c-9 -6 -10 -10 -3 -10 6 0 15 5 18 10 8 12 4 12 -15 0z"/><path d="M678 3 c6 -2 18 -2 25 0 6 3 1 5 -13 5 -14 0 -19 -2 -12 -5z"/></g><g transform="translate(0.000000,150.000000) scale(0.100000,-0.100000)" fill="#B8191F" stroke="none"><path d="M634 1487 c-8 -4 -19 -5 -25 -2 -5 4 -17 1 -25 -6 -8 -6 -17 -9 -21 -6 -3 4 -12 2 -20 -4 -7 -6 -13 -8 -13 -4 0 4 -7 2 -15 -5 -8 -7 -15 -9 -15 -4 0 5 -4 3 -9 -4 -4 -7 -18 -14 -29 -15 -12 -1 -22 -5 -22 -10 0 -4 -4 -5 -10 -2 -5 3 -10 1 -10 -5 0 -6 -4 -8 -10 -5 -5 3 -10 2 -10 -3 0 -5 -18 -17 -40 -28 -22 -10 -40 -22 -40 -26 0 -5 -4 -8 -9 -8 -27 0 -150 -125 -173 -176 -6 -13 -15 -24 -20 -24 -4 0 -8 -7 -8 -15 0 -8 -4 -15 -8 -15 -8 0 -45 -71 -48 -92 -1 -4 -3 -10 -4 -13 -1 -3 -3 -8 -4 -12 -1 -5 -5 -14 -9 -20 -5 -7 -6 -13 -2 -13 3 0 1 -8 -4 -19 -6 -10 -13 -38 -17 -62 -7 -55 -8 -229 -1 -249 3 -8 6 -23 6 -32 3 -47 6 -58 14 -58 5 0 7 -6 4 -14 -3 -7 0 -19 6 -25 6 -6 7 -11 1 -11 -5 0 -3 -4 4 -9 7 -4 14 -18 15 -29 1 -12 5 -22 10 -22 4 0 5 -5 2 -10 -3 -6 -1 -10 5 -10 6 0 8 -5 5 -10 -3 -6 -1 -10 6 -10 7 0 10 -3 6 -6 -3 -3 3 -15 13 -27 11 -11 17 -23 15 -27 -3 -5 2 -11 10 -14 8 -3 14 -9 13 -14 -2 -5 11 -21 27 -36 17 -15 23 -24 15 -20 -8 4 3 -12 25 -35 41 -43 51 -50 40 -28 -4 6 3 1 15 -12 20 -23 22 -23 38 -8 15 16 13 20 -36 63 -28 25 -52 52 -52 59 0 8 -9 19 -20 25 -11 6 -20 17 -20 25 0 8 -4 15 -10 15 -5 0 -10 6 -10 14 0 8 -7 22 -16 30 -8 9 -12 16 -7 16 4 0 2 4 -5 8 -7 5 -14 19 -17 31 -2 13 -9 29 -16 37 -6 8 -8 14 -4 14 4 0 3 6 -3 13 -6 6 -11 15 -11 20 -1 4 -1 8 -2 10 -16 51 -21 104 -21 202 1 123 2 137 14 152 5 7 7 17 4 22 -4 5 -2 12 4 16 6 4 8 10 5 15 -3 5 -1 11 5 15 6 4 8 10 5 15 -3 5 -1 11 5 15 6 4 8 11 5 16 -4 5 -1 9 5 9 6 0 8 5 5 10 -3 6 -1 10 5 10 6 0 8 5 5 10 -3 6 -2 10 4 10 5 0 15 16 21 36 7 19 18 38 26 41 8 3 14 12 14 19 0 8 7 17 15 20 8 4 15 11 15 18 0 13 104 106 119 106 6 0 11 4 11 9 0 5 18 17 40 27 22 10 40 21 40 26 0 4 8 8 18 8 10 0 23 5 29 11 6 6 19 12 29 14 11 2 19 4 19 5 0 1 8 3 18 6 9 2 25 6 35 8 9 3 17 5 17 7 0 5 68 10 136 10 79 -1 110 13 92 41 -9 15 -164 19 -189 5z"/><path d="M990 1445 c-13 -15 -11 -20 14 -41 15 -13 32 -22 37 -19 5 4 9 1 9 -5 0 -6 5 -8 10 -5 6 3 10 1 10 -5 0 -6 5 -8 10 -5 6 3 10 2 10 -4 0 -6 11 -13 24 -17 14 -3 27 -12 30 -20 3 -8 10 -14 16 -14 10 0 22 -9 74 -56 14 -13 33 -21 40 -18 20 8 16 41 -8 62 -15 13 -18 13 -12 2 4 -8 -6 -1 -22 17 -17 17 -33 29 -35 26 -3 -2 -10 5 -17 16 -6 12 -15 19 -21 16 -5 -4 -12 1 -15 9 -3 9 -10 13 -15 10 -5 -3 -9 0 -9 6 0 6 -4 8 -10 5 -5 -3 -10 -1 -10 4 0 6 -3 10 -7 9 -16 -3 -63 15 -63 24 0 5 -4 7 -9 4 -5 -4 -11 -1 -13 5 -2 7 -9 5 -18 -6z"/><path d="M697 1366 c-18 -17 -33 -40 -34 -51 -1 -11 -4 -186 -8 -390 -3 -203 -6 -374 -6 -380 -1 -5 -1 -13 0 -18 0 -4 -4 -7 -9 -7 -5 0 -9 -4 -7 -8 3 -10 -60 -72 -73 -72 -6 0 -10 -3 -10 -8 0 -22 -144 -60 -177 -47 -10 3 -19 5 -19 3 -1 -2 -11 5 -21 15 -11 9 -23 15 -26 12 -4 -3 -5 -2 -2 1 2 4 -3 13 -11 22 -10 9 -13 23 -9 36 3 12 7 27 9 34 4 23 26 36 63 37 36 2 69 -19 74 -47 5 -26 -13 -58 -36 -64 -37 -9 -20 -32 22 -29 24 1 42 10 54 26 9 13 17 26 17 29 0 3 1 7 2 10 1 3 3 16 6 30 5 35 4 792 -1 801 -3 4 -25 6 -49 5 -42 -2 -72 -16 -89 -43 -4 -7 -14 -13 -21 -13 -7 0 -28 -19 -47 -41 -19 -23 -42 -50 -51 -60 -10 -11 -18 -23 -18 -29 0 -5 -4 -10 -10 -10 -5 0 -10 -7 -10 -15 0 -8 -3 -15 -8 -15 -8 0 -38 -61 -34 -72 1 -5 -3 -8 -10 -8 -6 0 -8 -3 -5 -7 4 -3 2 -12 -4 -20 -6 -7 -8 -13 -4 -13 4 0 2 -7 -5 -15 -7 -8 -9 -15 -5 -15 4 0 2 -7 -5 -15 -6 -8 -9 -19 -5 -25 4 -6 3 -16 -3 -23 -10 -13 -8 -217 2 -257 4 -14 9 -32 11 -40 2 -8 4 -16 5 -17 2 -2 4 -7 5 -13 1 -5 4 -12 5 -15 1 -3 3 -8 4 -12 1 -5 13 -28 26 -53 13 -25 23 -48 22 -53 -1 -4 3 -7 8 -7 6 0 10 -7 10 -15 0 -9 7 -18 15 -21 8 -4 15 -11 15 -18 0 -21 152 -153 171 -149 5 2 9 -1 9 -5 0 -7 70 -43 93 -48 4 -1 9 -3 12 -4 3 -1 10 -4 15 -5 6 -1 12 -4 15 -5 3 -1 10 -4 15 -5 6 -1 11 -4 13 -5 1 -1 25 -3 53 -4 44 -2 54 1 80 28 35 37 31 -9 34 493 1 401 1 402 24 435 13 18 28 32 34 31 7 -2 12 2 12 8 0 5 4 8 9 4 5 -3 12 -1 16 5 8 13 105 13 105 0 0 -10 -3 -11 -32 -14 -10 -1 -14 -44 -16 -169 l-3 -167 39 3 c21 2 44 7 51 11 6 4 16 4 21 1 6 -3 10 -1 10 5 0 6 4 9 9 5 9 -5 36 18 76 66 10 13 18 24 16 24 -2 0 -1 11 4 23 4 15 0 41 -11 70 -18 50 -58 105 -68 95 -3 -3 -8 1 -12 10 -3 9 -12 13 -20 10 -8 -3 -14 0 -14 6 0 6 -6 8 -14 5 -7 -3 -16 2 -20 12 -6 15 -1 16 41 10 27 -4 56 -7 65 -7 10 0 20 -4 23 -9 3 -5 12 -7 20 -3 8 3 15 0 15 -7 0 -6 5 -8 10 -5 5 3 10 1 10 -6 0 -7 2 -10 5 -7 7 7 84 -71 86 -86 6 -40 6 -93 1 -101 -4 -5 -7 -16 -8 -23 -2 -13 -72 -81 -86 -83 -4 -1 -13 -2 -20 -3 -15 -1 -23 -26 -9 -27 11 -2 26 -5 39 -9 4 -1 10 -2 15 -1 4 0 7 -4 7 -10 0 -5 5 -7 10 -4 5 3 10 2 10 -2 0 -5 10 -13 22 -18 37 -16 64 -77 62 -137 -1 -29 -3 -53 -4 -53 -1 0 -3 -9 -5 -19 -2 -10 -8 -22 -13 -25 -4 -3 -11 -13 -14 -21 -7 -18 -98 -70 -136 -77 -15 -3 -69 -7 -119 -10 l-93 -5 -1 -76 c-1 -43 -1 -83 0 -89 1 -7 -3 -13 -9 -13 -5 0 -10 -7 -10 -15 0 -8 -14 -24 -30 -37 -25 -18 -28 -24 -15 -30 8 -5 23 -5 34 1 10 6 21 8 24 4 4 -3 13 0 22 7 8 7 15 9 15 5 0 -4 7 -2 15 5 8 7 15 9 15 5 0 -4 7 -2 15 5 8 7 15 9 15 6 0 -9 84 36 88 47 2 4 8 5 13 1 5 -3 9 0 9 5 0 6 6 11 14 11 8 0 16 7 20 15 3 8 10 15 16 15 14 0 92 82 127 134 15 22 30 43 33 46 5 5 42 79 45 90 1 3 5 19 10 35 4 17 10 34 13 40 11 18 14 50 14 160 0 115 -3 142 -16 163 -4 6 -5 16 -1 21 3 5 1 12 -5 16 -6 4 -8 10 -5 15 3 5 1 11 -5 15 -6 4 -8 11 -5 16 4 5 2 9 -3 9 -8 0 -32 45 -35 67 -1 4 -11 18 -22 31 -11 13 -19 26 -17 28 1 3 -10 16 -25 30 -16 14 -21 22 -13 18 8 -4 -3 12 -24 34 -22 23 -43 39 -47 36 -5 -3 -14 4 -21 16 -7 11 -18 20 -25 20 -7 0 -13 5 -13 11 0 5 -5 7 -10 4 -6 -3 -13 1 -16 9 -3 9 -10 13 -15 10 -5 -3 -9 0 -9 6 0 6 -4 8 -10 5 -5 -3 -10 -1 -10 5 0 6 -4 8 -10 5 -5 -3 -10 -1 -10 5 0 6 -4 8 -10 5 -5 -3 -10 -1 -10 5 0 6 -4 9 -9 5 -5 -3 -12 -1 -16 5 -4 6 -10 8 -15 5 -5 -3 -11 -1 -15 5 -4 6 -11 8 -16 5 -5 -4 -15 -3 -21 1 -16 10 -36 13 -116 17 -59 3 -66 1 -95 -27z"/><path d="M1340 1180 c-16 -10 -23 -40 -9 -40 6 0 8 -4 5 -9 -3 -5 1 -12 10 -15 8 -3 12 -10 9 -16 -3 -5 -1 -10 5 -10 6 0 8 -4 5 -10 -3 -5 -1 -10 5 -10 6 0 8 -4 5 -10 -3 -5 -1 -10 5 -10 6 0 9 -4 6 -9 -4 -5 -1 -11 4 -13 6 -2 12 -13 13 -26 0 -12 5 -22 10 -22 5 0 7 -7 4 -15 -4 -8 -2 -17 4 -21 6 -3 8 -12 5 -20 -3 -7 -1 -16 4 -19 11 -6 11 -11 12 -145 0 -58 -3 -121 -7 -140 -11 -54 -13 -65 -15 -67 -2 -2 -4 -7 -5 -13 -1 -5 -4 -12 -5 -15 -1 -3 -4 -9 -5 -15 -1 -5 -4 -13 -5 -17 -1 -5 -2 -11 -1 -15 0 -5 -4 -8 -10 -8 -5 0 -7 -4 -4 -10 3 -5 1 -10 -5 -10 -6 0 -8 -4 -5 -10 3 -5 1 -10 -5 -10 -6 0 -8 -4 -5 -10 3 -5 1 -10 -5 -10 -6 0 -8 -4 -5 -10 3 -5 1 -10 -4 -10 -6 0 -11 -5 -11 -11 0 -6 -6 -16 -12 -24 -7 -7 -24 -28 -38 -47 -52 -69 -179 -175 -194 -161 -3 3 -6 1 -6 -6 0 -7 -4 -9 -10 -6 -5 3 -10 1 -10 -5 0 -6 -4 -8 -10 -5 -5 3 -10 1 -10 -5 0 -6 -4 -8 -10 -5 -5 3 -10 1 -10 -5 0 -6 -4 -9 -9 -5 -5 3 -12 1 -16 -5 -4 -6 -10 -8 -15 -5 -5 3 -11 1 -15 -5 -4 -6 -11 -8 -16 -5 -5 4 -9 1 -9 -4 0 -6 -6 -11 -13 -11 -20 0 -17 -29 4 -35 10 -3 34 1 53 9 20 8 39 15 41 15 34 3 211 123 255 175 14 16 33 37 43 47 9 11 17 24 17 29 0 6 7 13 15 16 8 4 15 12 15 20 0 8 5 14 11 14 5 0 7 5 4 10 -3 6 -1 10 5 10 6 0 8 5 5 10 -3 6 -2 10 4 10 8 0 22 27 26 50 0 3 6 15 13 27 7 13 10 23 6 23 -3 0 -1 7 6 15 7 8 9 15 5 15 -4 0 -2 6 4 13 6 8 8 17 5 20 -3 3 -2 12 2 19 11 17 14 42 15 163 1 95 -2 127 -16 185 -3 14 -7 30 -8 35 -2 6 -6 16 -10 23 -5 6 -6 12 -2 12 3 0 0 10 -7 23 -7 12 -11 25 -10 30 1 4 -3 7 -9 7 -5 0 -8 4 -4 9 3 5 -1 16 -9 23 -7 8 -17 24 -20 36 -4 12 -12 22 -17 22 -6 0 -8 4 -5 9 9 14 -18 31 -34 21z"/><path d="M900 581 c2 -189 -2 -179 75 -181 22 -1 47 1 55 3 51 16 60 20 60 28 0 5 6 9 14 9 8 0 18 9 21 20 3 11 11 20 16 20 6 0 7 5 4 10 -3 6 -2 10 3 10 5 0 9 6 10 13 0 6 3 27 6 46 3 19 2 39 -2 45 -3 6 -7 17 -9 25 -1 8 -8 18 -15 22 -7 5 -10 9 -6 9 4 0 -5 12 -19 28 -14 15 -29 26 -34 24 -5 -1 -9 3 -9 9 0 5 -4 7 -10 4 -5 -3 -10 -2 -10 3 0 5 -6 9 -12 10 -7 1 -41 4 -76 8 l-63 6 1 -171z"/><path d="M377 127 c-3 -8 -2 -18 1 -24 7 -10 94 -58 100 -54 1 0 4 0 7 0 3 -1 10 -3 15 -4 6 -1 12 -4 15 -5 3 -1 10 -4 15 -5 6 -1 11 -3 13 -5 3 -2 32 -9 72 -16 41 -8 105 -10 106 -4 0 3 2 13 4 23 2 9 -1 15 -5 12 -5 -3 -11 -1 -14 4 -3 5 -15 7 -26 4 -11 -3 -26 0 -34 6 -7 6 -21 9 -30 5 -9 -3 -23 -1 -31 6 -8 7 -15 9 -15 5 0 -4 -7 -2 -15 5 -8 7 -15 9 -15 5 0 -4 -7 -2 -15 5 -8 7 -15 9 -15 5 0 -4 -6 -2 -13 4 -8 6 -17 8 -20 4 -4 -3 -7 0 -7 7 0 7 -3 11 -6 8 -3 -4 -21 0 -39 8 -42 17 -42 17 -48 1z"/><path d="M788 103 c7 -3 16 -2 19 1 4 3 -2 6 -13 5 -11 0 -14 -3 -6 -6z"/></g></svg>