<svg version="1.0" xmlns="http://www.w3.org/2000/svg" width="287.000000" height="349.000000" viewBox="0 0 287.000000 349.000000" preserveAspectRatio="xMidYMid meet"><rect x="59" y="284" width="16" height="20" fill="rgb(0,182,66)" /><rect x="134" y="284" width="16" height="20" fill="rgb(0,182,66)" /><rect x="194" y="284" width="16" height="20" fill="rgb(0,182,66)" /><rect x="224" y="284" width="16" height="20" fill="rgb(0,182,66)" /><rect x="59" y="303" width="16" height="20" fill="rgb(0,182,66)" /><rect x="134" y="303" width="16" height="20" fill="rgb(0,182,66)" /><rect x="194" y="303" width="16" height="20" fill="rgb(0,182,66)" /><rect x="224" y="303" width="16" height="20" fill="rgb(0,182,66)" /><g transform="translate(0.000000,349.000000) scale(0.100000,-0.100000)" fill="#00B83F" stroke="none"><path d="M1278 3053 c7 -3 16 -2 19 1 4 3 -2 6 -13 5 -11 0 -14 -3 -6 -6z"/><path d="M1191 2594 c0 -11 3 -14 6 -6 3 7 2 16 -1 19 -3 4 -6 -2 -5 -13z"/><path d="M1191 2314 c0 -11 3 -14 6 -6 3 7 2 16 -1 19 -3 4 -6 -2 -5 -13z"/><path d="M1278 2223 c7 -3 16 -2 19 1 4 3 -2 6 -13 5 -11 0 -14 -3 -6 -6z"/><path d="M1442 2180 c0 -19 2 -27 5 -17 2 9 2 25 0 35 -3 9 -5 1 -5 -18z"/><path d="M1369 2023 c-13 -16 -12 -17 4 -4 9 7 17 15 17 17 0 8 -8 3 -21 -13z"/><path d="M1443 1960 c0 -47 2 -66 4 -42 2 23 2 61 0 85 -2 23 -4 4 -4 -43z"/><path d="M1558 1973 c7 -3 16 -2 19 1 4 3 -2 6 -13 5 -11 0 -14 -3 -6 -6z"/><path d="M1989 1863 c-13 -16 -12 -17 4 -4 9 7 17 15 17 17 0 8 -8 3 -21 -13z"/><path d="M1906 1763 c-6 -14 -5 -15 5 -6 7 7 10 15 7 18 -3 3 -9 -2 -12 -12z"/><path d="M1369 1743 c-13 -16 -12 -17 4 -4 9 7 17 15 17 17 0 8 -8 3 -21 -13z"/><path d="M1881 1714 c0 -11 3 -14 6 -6 3 7 2 16 -1 19 -3 4 -6 -2 -5 -13z"/><path d="M1569 1503 l-24 -28 28 24 c25 23 32 31 24 31 -2 0 -14 -12 -28 -27z"/><path d="M1250 1516 c0 -2 8 -10 18 -17 15 -13 16 -12 3 4 -13 16 -21 21 -21 13z"/><path d="M1519 953 c-13 -16 -12 -17 4 -4 16 13 21 21 13 21 -2 0 -10 -8 -17 -17z"/><path d="M1017 843 c215 -2 571 -2 790 0 219 1 43 2 -392 2 -434 0 -614 -1 -398 -2z"/><path d="M2134 385 c0 -176 2 -247 3 -157 2 90 2 234 0 320 -1 86 -3 13 -3 -163z"/><path d="M2844 385 c0 -176 2 -247 3 -157 2 90 2 234 0 320 -1 86 -3 13 -3 -163z"/><path d="M2462 165 c0 -16 2 -22 5 -12 2 9 2 23 0 30 -3 6 -5 -1 -5 -18z"/></g><g transform="translate(0.000000,349.000000) scale(0.100000,-0.100000)" fill="#00AC46" stroke="none"><path d="M1441 2784 c0 -11 3 -14 6 -6 3 7 2 16 -1 19 -3 4 -6 -2 -5 -13z"/><path d="M1442 2740 c0 -14 2 -19 5 -12 2 6 2 18 0 25 -3 6 -5 1 -5 -13z"/><path d="M1915 383 l0 -318 108 -1 107 0 -105 3 -105 4 -2 314 -3 315 0 -317z"/></g><g transform="translate(0.000000,349.000000) scale(0.100000,-0.100000)" fill="#00B846" stroke="none"><path d="M630 2130 l0 -1280 790 0 790 0 -2 1278 -3 1277 -787 2 -788 3 0 -1280z m1542 202 c2 -576 2 -1138 0 -1249 l-2 -203 -755 0 -755 0 2 1248 3 1247 295 5 c162 3 501 4 752 2 l458 -2 2 -1048z"/><path d="M1400 3259 l0 -51 -31 26 c-37 31 -58 33 -92 6 -24 -19 -29 -41 -14 -56 4 -4 4 -23 1 -44 -4 -26 -2 -40 10 -49 21 -18 73 -7 103 21 l23 21 0 -77 0 -78 -35 31 c-57 50 -113 53 -155 9 -24 -26 -25 -46 -5 -76 14 -19 14 -24 1 -44 -19 -30 -6 -62 33 -83 28 -14 34 -14 68 0 21 9 50 28 66 42 l27 27 0 -87 c0 -48 -3 -87 -7 -87 -4 0 -21 14 -39 31 -49 47 -124 39 -154 -16 -10 -18 -9 -28 3 -52 10 -19 12 -34 6 -44 -25 -40 9 -98 58 -99 31 0 73 19 106 49 l27 25 0 -87 c0 -88 -6 -101 -31 -70 -44 53 -110 60 -154 16 -29 -30 -30 -35 -11 -72 9 -17 11 -32 5 -42 -5 -8 -9 -26 -9 -40 0 -29 35 -59 70 -59 25 0 92 33 109 54 25 30 31 16 31 -69 0 -47 -3 -85 -6 -85 -4 0 -22 13 -40 30 -56 49 -113 52 -154 8 -24 -26 -25 -46 -5 -76 14 -19 14 -24 1 -44 -18 -30 -6 -62 31 -82 24 -12 34 -12 67 -1 21 7 51 26 67 41 16 15 32 25 35 21 3 -3 3 -44 -1 -91 l-7 -86 -34 30 c-56 49 -113 52 -154 8 -24 -26 -25 -46 -4 -76 13 -19 13 -25 1 -43 -19 -27 -11 -55 23 -79 39 -28 85 -15 143 38 l27 26 0 -52 c0 -40 -3 -52 -15 -52 -48 0 -95 -54 -95 -110 0 -9 27 -62 61 -119 33 -56 58 -105 55 -109 -3 -3 -7 -3 -9 -1 -2 2 -31 40 -64 84 -63 83 -107 129 -133 137 -22 8 -82 -19 -103 -45 -24 -30 -47 -85 -47 -113 0 -12 11 -36 24 -51 24 -28 25 -28 167 -31 101 -3 149 0 166 9 33 18 143 216 143 258 0 34 -28 69 -66 81 -32 11 -34 14 -34 58 l0 45 23 -20 c55 -50 119 -60 149 -22 21 25 23 52 6 79 -10 15 -9 22 4 37 24 29 6 77 -37 98 -35 16 -37 16 -80 -9 -24 -15 -47 -31 -50 -36 -16 -27 -25 -3 -25 70 0 44 4 80 8 80 5 0 17 -9 26 -19 45 -49 130 -54 156 -9 12 23 13 33 2 60 -9 26 -9 35 2 47 22 27 2 76 -39 95 -31 15 -38 15 -64 2 -16 -9 -43 -27 -60 -42 l-31 -26 0 81 c0 45 4 81 8 81 5 0 19 -11 31 -24 40 -42 126 -43 153 -2 12 17 9 61 -4 74 -9 9 -9 15 0 24 7 7 12 27 12 44 0 25 -7 38 -30 54 -39 28 -79 20 -131 -27 l-39 -35 0 91 0 92 38 -30 c58 -47 125 -50 154 -7 12 17 9 61 -4 74 -9 9 -9 15 0 24 7 7 12 27 12 44 0 25 -7 38 -30 54 -39 28 -79 20 -131 -27 l-39 -35 0 93 1 94 22 -25 c45 -51 122 -65 157 -30 21 21 26 60 10 76 -6 6 -4 23 4 49 10 28 11 44 3 56 -13 21 -57 45 -77 43 -8 -1 -21 -2 -27 -3 -7 0 -31 -17 -53 -37 l-40 -36 0 78 0 79 25 -28 c29 -31 60 -34 94 -11 18 13 22 23 17 46 -3 16 -1 38 4 48 7 13 4 24 -11 44 -26 33 -59 33 -98 0 l-31 -26 0 51 c0 44 -3 51 -20 51 -17 0 -20 -7 -20 -51z"/><path d="M896 1953 c-39 -21 -38 -54 5 -130 34 -61 26 -71 -11 -16 -56 84 -98 102 -138 60 -31 -33 -39 -83 -17 -107 15 -17 31 -20 106 -20 60 0 89 4 93 13 5 10 7 10 12 0 9 -20 188 -18 208 3 48 47 -27 162 -83 127 -9 -5 -36 -35 -61 -66 -25 -30 -47 -54 -49 -52 -2 2 10 26 27 53 43 70 46 114 10 133 -32 17 -71 18 -102 2z"/><path d="M1845 1953 c-36 -19 -36 -53 -1 -118 53 -98 48 -95 151 -95 72 0 97 4 109 16 39 38 -4 134 -59 134 -22 0 -40 -17 -125 -120 -11 -14 -2 9 20 50 46 88 45 129 -3 121 -5 -1 -6 3 -2 9 3 5 3 11 -2 11 -35 6 -66 3 -88 -8z"/><path d="M1705 1874 c-19 -20 -35 -57 -35 -84 0 -39 26 -50 121 -50 49 0 89 2 89 5 0 3 -4 11 -10 18 -5 7 -29 37 -53 67 -47 60 -82 74 -112 44z"/><path d="M765 1723 c-37 -9 -47 -25 -42 -66 6 -47 47 -86 83 -79 24 4 124 118 124 141 0 11 -123 14 -165 4z"/><path d="M943 1708 c-11 -13 -23 -30 -27 -38 -4 -8 -17 -35 -30 -60 -13 -24 -21 -53 -18 -63 8 -32 48 -50 94 -44 76 10 81 47 22 150 -18 31 -29 57 -24 57 6 0 10 -4 10 -10 0 -5 25 -36 56 -69 52 -56 57 -59 84 -50 35 13 60 49 60 88 0 46 -30 61 -125 61 -72 0 -84 -3 -102 -22z"/><path d="M1715 1723 c-56 -14 -63 -76 -14 -123 38 -36 48 -37 82 -7 27 23 97 116 97 129 0 9 -132 9 -165 1z"/><path d="M1893 1708 c-36 -39 -81 -135 -76 -162 9 -48 117 -61 148 -19 17 23 10 53 -27 123 -30 54 -30 55 -4 26 14 -16 26 -33 26 -39 0 -5 7 -6 16 -3 8 3 12 2 9 -4 -3 -6 6 -21 21 -34 35 -29 71 -20 97 23 45 76 11 111 -108 111 -72 0 -84 -3 -102 -22z"/><path d="M1624 1541 c-47 -29 -184 -193 -184 -221 0 -8 45 -10 151 -8 150 3 151 3 174 30 19 22 23 35 18 65 -10 68 -49 121 -104 142 -20 7 -33 5 -55 -8z"/><path d="M1098 1274 c-38 -20 -50 -47 -42 -92 24 -131 120 -175 204 -92 41 41 148 190 140 195 -20 13 -275 3 -302 -11z"/><path d="M1440 1277 c0 -8 8 -23 18 -35 9 -11 24 -31 32 -43 8 -13 45 -54 81 -91 62 -64 67 -68 100 -62 19 4 44 16 56 27 56 50 73 151 34 191 -20 19 -34 21 -171 24 -124 3 -150 1 -150 -11z"/><path d="M1361 1171 c-64 -109 -76 -146 -62 -183 15 -41 54 -61 119 -62 65 -1 105 18 124 60 14 30 -7 101 -47 160 -13 19 -32 53 -42 74 -10 22 -23 40 -28 40 -6 0 -34 -40 -64 -89z"/><path d="M67 693 c-4 -3 -7 -145 -7 -315 l0 -308 245 0 245 0 0 80 0 80 -130 0 -130 0 0 235 0 235 -108 0 c-60 0 -112 -3 -115 -7z"/><path d="M581 483 c1 -120 5 -232 10 -249 5 -18 24 -54 41 -80 29 -43 41 -52 98 -71 115 -39 265 -27 340 28 17 13 43 48 58 79 27 54 27 58 30 283 l3 227 -110 0 -111 0 0 -182 c-1 -244 -9 -277 -71 -278 -55 0 -59 16 -59 248 l0 212 -115 0 -116 0 2 -217z"/><path d="M1277 693 c-4 -3 -7 -145 -7 -315 l0 -308 115 0 115 0 0 100 0 100 78 2 c106 2 127 7 175 40 35 25 87 114 87 151 0 102 -73 204 -162 226 -50 12 -390 16 -401 4z m337 -195 c15 -41 -6 -58 -70 -58 l-54 0 0 38 c0 21 3 42 7 46 4 4 30 6 57 4 45 -3 52 -6 60 -30z"/><path d="M1920 385 l0 -315 105 0 105 0 0 315 0 315 -105 0 -105 0 0 -315z"/><path d="M2230 385 l0 -315 113 0 114 0 6 84 c3 47 3 101 0 120 -7 45 8 47 36 4 11 -18 31 -47 43 -64 13 -17 32 -44 43 -60 11 -16 28 -38 37 -48 10 -11 18 -23 18 -28 0 -4 45 -8 100 -8 l100 0 0 315 0 315 -100 0 -99 0 -3 -137 -3 -137 -54 79 c-30 44 -72 106 -94 138 l-39 57 -108 0 -109 0 -1 -315z"/></g><g transform="translate(0.000000,349.000000) scale(0.100000,-0.100000)" fill="#00BF46" stroke="none"><path d="M1043 3373 c207 -2 547 -2 755 0 207 1 37 2 -378 2 -415 0 -585 -1 -377 -2z"/><path d="M1408 3313 c6 -2 18 -2 25 0 6 3 1 5 -13 5 -14 0 -19 -2 -12 -5z"/><path d="M1370 3236 c0 -2 8 -10 18 -17 15 -13 16 -12 3 4 -13 16 -21 21 -21 13z"/><path d="M1440 3126 c0 -2 8 -10 18 -17 15 -13 16 -12 3 4 -13 16 -21 21 -21 13z"/><path d="M1455 2860 c10 -11 20 -20 23 -20 3 0 -3 9 -13 20 -10 11 -20 20 -23 20 -3 0 3 -9 13 -20z"/><path d="M1365 2730 c10 -11 20 -20 23 -20 3 0 -3 9 -13 20 -10 11 -20 20 -23 20 -3 0 3 -9 13 -20z"/><path d="M1641 2704 c0 -11 3 -14 6 -6 3 7 2 16 -1 19 -3 4 -6 -2 -5 -13z"/><path d="M1268 2493 c7 -3 16 -2 19 1 4 3 -2 6 -13 5 -11 0 -14 -3 -6 -6z"/><path d="M1365 2450 c10 -11 20 -20 23 -20 3 0 -3 9 -13 20 -10 11 -20 20 -23 20 -3 0 3 -9 13 -20z"/><path d="M1641 2424 c0 -11 3 -14 6 -6 3 7 2 16 -1 19 -3 4 -6 -2 -5 -13z"/><path d="M1398 2235 c-2 -47 0 -85 5 -85 4 0 7 38 7 85 0 47 -2 85 -4 85 -3 0 -6 -38 -8 -85z"/><path d="M1398 2013 c5 -59 10 -63 11 -10 1 26 -3 47 -7 47 -4 0 -6 -17 -4 -37z"/><path d="M1465 2020 c10 -11 20 -20 23 -20 3 0 -3 9 -13 20 -10 11 -20 20 -23 20 -3 0 3 -9 13 -20z"/><path d="M1465 1740 c10 -11 20 -20 23 -20 3 0 -3 9 -13 20 -10 11 -20 20 -23 20 -3 0 3 -9 13 -20z"/><path d="M1040 1605 c13 -14 26 -25 28 -25 3 0 -5 11 -18 25 -13 14 -26 25 -28 25 -3 0 5 -11 18 -25z"/><path d="M1990 1606 c0 -2 8 -10 18 -17 15 -13 16 -12 3 4 -13 16 -21 21 -21 13z"/><path d="M1725 1520 c10 -11 20 -20 23 -20 3 0 -3 9 -13 20 -10 11 -20 20 -23 20 -3 0 3 -9 13 -20z"/><path d="M1550 1117 c0 -2 15 -16 33 -33 l32 -29 -29 33 c-28 30 -36 37 -36 29z"/><path d="M934 510 c0 -107 2 -151 3 -97 2 53 2 141 0 195 -1 53 -3 9 -3 -98z"/><path d="M1493 480 c0 -25 2 -35 4 -22 2 12 2 32 0 45 -2 12 -4 2 -4 -23z"/><path d="M2462 285 c0 -16 2 -22 5 -12 2 9 2 23 0 30 -3 6 -5 -1 -5 -18z"/></g><g transform="translate(0.000000,349.000000) scale(0.100000,-0.100000)" fill="#00B84C" stroke="none"><path d="M665 2615 c0 -418 1 -588 2 -377 2 211 2 553 0 760 -1 207 -2 35 -2 -383z"/><path d="M1459 3233 c-13 -16 -12 -17 4 -4 9 7 17 15 17 17 0 8 -8 3 -21 -13z"/><path d="M1200 2836 c0 -2 8 -10 18 -17 15 -13 16 -12 3 4 -13 16 -21 21 -21 13z"/><path d="M1469 2733 c-13 -16 -12 -17 4 -4 16 13 21 21 13 21 -2 0 -10 -8 -17 -17z"/><path d="M1441 2587 c2 -1 15 -11 29 -22 l25 -20 -19 23 c-11 12 -24 22 -29 22 -6 0 -8 -1 -6 -3z"/><path d="M1442 2503 c-1 -40 2 -73 6 -73 5 0 17 10 28 23 l19 22 -22 -19 -22 -18 -4 68 -3 69 -2 -72z"/><path d="M1441 2258 c1 -55 5 -50 11 15 2 20 0 37 -4 37 -4 0 -7 -24 -7 -52z"/><path d="M1350 2196 c0 -2 8 -10 18 -17 15 -13 16 -12 3 4 -13 16 -21 21 -21 13z"/><path d="M1200 2006 c0 -2 8 -10 18 -17 15 -13 16 -12 3 4 -13 16 -21 21 -21 13z"/><path d="M1278 1943 c7 -3 16 -2 19 1 4 3 -2 6 -13 5 -11 0 -14 -3 -6 -6z"/><path d="M1350 1916 c0 -2 8 -10 18 -17 15 -13 16 -12 3 4 -13 16 -21 21 -21 13z"/><path d="M1817 1839 c12 -12 24 -21 27 -18 2 2 -8 13 -22 23 l-27 19 22 -24z"/><path d="M665 1365 c0 -269 1 -378 2 -242 2 137 2 357 0 490 -1 133 -2 22 -2 -248z"/><path d="M872 1834 c10 -10 20 -16 22 -13 3 3 -5 11 -17 18 -21 13 -21 12 -5 -5z"/><path d="M900 1803 c0 -6 8 -17 18 -24 16 -13 16 -13 2 6 -8 11 -16 22 -17 24 -2 2 -3 0 -3 -6z"/><path d="M1845 1800 c3 -5 8 -10 11 -10 2 0 4 5 4 10 0 6 -5 10 -11 10 -5 0 -7 -4 -4 -10z"/><path d="M2121 1794 c0 -11 3 -14 6 -6 3 7 2 16 -1 19 -3 4 -6 -2 -5 -13z"/><path d="M818 1733 c12 -2 30 -2 40 0 9 3 -1 5 -23 4 -22 0 -30 -2 -17 -4z"/><path d="M1038 1733 c12 -2 30 -2 40 0 9 3 -1 5 -23 4 -22 0 -30 -2 -17 -4z"/><path d="M1768 1733 c12 -2 30 -2 40 0 9 3 -1 5 -23 4 -22 0 -30 -2 -17 -4z"/><path d="M1988 1733 c12 -2 30 -2 40 0 9 3 -1 5 -23 4 -22 0 -30 -2 -17 -4z"/><path d="M1200 1726 c0 -2 8 -10 18 -17 15 -13 16 -12 3 4 -13 16 -21 21 -21 13z"/><path d="M1060 1346 c0 -2 8 -10 18 -17 15 -13 16 -12 3 4 -13 16 -21 21 -21 13z"/><path d="M1203 1303 c32 -2 81 -2 110 0 29 2 3 3 -58 3 -60 0 -84 -1 -52 -3z"/><path d="M1523 1303 c32 -2 81 -2 110 0 29 2 3 3 -58 3 -60 0 -84 -1 -52 -3z"/><path d="M1436 1257 c3 -10 9 -15 12 -12 3 3 0 11 -7 18 -10 9 -11 8 -5 -6z"/><path d="M1460 1223 c5 -2 8 -9 5 -13 -3 -5 -1 -11 4 -14 5 -4 8 2 7 11 -2 9 -8 18 -15 19 -6 1 -7 0 -1 -3z"/><path d="M1486 1182 c-3 -5 1 -9 9 -9 8 0 12 4 9 9 -3 4 -7 8 -9 8 -2 0 -6 -4 -9 -8z"/><path d="M1105 1070 c10 -11 20 -20 23 -20 3 0 -3 9 -13 20 -10 11 -20 20 -23 20 -3 0 3 -9 13 -20z"/><path d="M1164 525 c0 -99 2 -138 3 -87 2 51 2 132 0 180 -1 48 -3 6 -3 -93z"/><path d="M1518 523 c12 -2 32 -2 45 0 12 2 2 4 -23 4 -25 0 -35 -2 -22 -4z"/><path d="M353 233 c37 -2 97 -2 135 0 37 2 6 3 -68 3 -74 0 -105 -1 -67 -3z"/><path d="M2462 110 c0 -19 2 -27 5 -17 2 9 2 25 0 35 -3 9 -5 1 -5 -18z"/><path d="M183 63 c71 -2 183 -2 250 0 67 1 10 3 -128 3 -137 0 -192 -2 -122 -3z"/></g></svg>