<svg version="1.0" xmlns="http://www.w3.org/2000/svg" width="200.000000" height="77.000000" viewBox="0 0 200.000000 77.000000" preserveAspectRatio="xMidYMid meet"><rect x="0" y="0" width="15" height="6" fill="rgb(254,254,254)" /><rect x="13" y="0" width="15" height="6" fill="rgb(254,254,254)" /><rect x="27" y="0" width="15" height="6" fill="rgb(254,254,254)" /><rect x="41" y="0" width="15" height="6" fill="rgb(254,254,254)" /><rect x="55" y="0" width="15" height="6" fill="rgb(254,254,254)" /><rect x="69" y="0" width="15" height="6" fill="rgb(254,254,254)" /><rect x="83" y="0" width="15" height="6" fill="rgb(254,254,254)" /><rect x="97" y="0" width="15" height="6" fill="rgb(254,254,254)" /><rect x="111" y="0" width="15" height="6" fill="rgb(254,254,254)" /><rect x="125" y="0" width="15" height="6" fill="rgb(254,254,254)" /><rect x="139" y="0" width="15" height="6" fill="rgb(254,254,254)" /><rect x="153" y="0" width="15" height="6" fill="rgb(254,254,254)" /><rect x="167" y="0" width="15" height="6" fill="rgb(254,254,254)" /><rect x="181" y="0" width="19" height="6" fill="rgb(254,254,254)" /><rect x="0" y="4" width="15" height="6" fill="rgb(254,254,254)" /><rect x="13" y="4" width="15" height="6" fill="rgb(254,254,254)" /><rect x="27" y="4" width="15" height="6" fill="rgb(254,254,254)" /><rect x="41" y="4" width="15" height="6" fill="rgb(254,254,254)" /><rect x="55" y="4" width="15" height="6" fill="rgb(254,254,254)" /><rect x="69" y="4" width="15" height="6" fill="rgb(254,254,254)" /><rect x="83" y="4" width="15" height="6" fill="rgb(254,254,254)" /><rect x="97" y="4" width="15" height="6" fill="rgb(254,254,254)" /><rect x="111" y="4" width="15" height="6" fill="rgb(254,254,254)" /><rect x="125" y="4" width="15" height="6" fill="rgb(254,254,254)" /><rect x="139" y="4" width="15" height="6" fill="rgb(254,254,254)" /><rect x="153" y="4" width="15" height="6" fill="rgb(254,254,254)" /><rect x="167" y="4" width="15" height="6" fill="rgb(254,254,254)" /><rect x="181" y="4" width="19" height="6" fill="rgb(254,254,254)" /><rect x="0" y="9" width="15" height="6" fill="rgb(254,254,254)" /><rect x="13" y="9" width="15" height="6" fill="rgb(254,254,254)" /><rect x="27" y="9" width="15" height="6" fill="rgb(254,254,254)" /><rect x="41" y="9" width="15" height="6" fill="rgb(254,254,254)" /><rect x="55" y="9" width="15" height="6" fill="rgb(254,254,254)" /><rect x="69" y="9" width="15" height="6" fill="rgb(254,254,254)" /><rect x="83" y="9" width="15" height="6" fill="rgb(254,254,254)" /><rect x="97" y="9" width="15" height="6" fill="rgb(254,254,254)" /><rect x="111" y="9" width="15" height="6" fill="rgb(254,254,254)" /><rect x="125" y="9" width="15" height="6" fill="rgb(254,254,254)" /><rect x="139" y="9" width="15" height="6" fill="rgb(254,254,254)" /><rect x="153" y="9" width="15" height="6" fill="rgb(254,254,254)" /><rect x="167" y="9" width="15" height="6" fill="rgb(254,254,254)" /><rect x="181" y="9" width="19" height="6" fill="rgb(254,254,254)" /><rect x="0" y="14" width="15" height="6" fill="rgb(242,241,240)" /><rect x="13" y="14" width="15" height="6" fill="rgb(249,249,248)" /><rect x="27" y="14" width="15" height="6" fill="rgb(242,242,240)" /><rect x="41" y="14" width="15" height="6" fill="rgb(254,254,254)" /><rect x="55" y="14" width="15" height="6" fill="rgb(254,254,254)" /><rect x="69" y="14" width="15" height="6" fill="rgb(239,238,237)" /><rect x="83" y="14" width="15" height="6" fill="rgb(252,252,251)" /><rect x="97" y="14" width="15" height="6" fill="rgb(254,254,254)" /><rect x="111" y="14" width="15" height="6" fill="rgb(254,254,254)" /><rect x="125" y="14" width="15" height="6" fill="rgb(254,254,254)" /><rect x="139" y="14" width="15" height="6" fill="rgb(254,254,254)" /><rect x="153" y="14" width="15" height="6" fill="rgb(254,254,254)" /><rect x="167" y="14" width="15" height="6" fill="rgb(254,254,254)" /><rect x="181" y="14" width="19" height="6" fill="rgb(254,254,253)" /><rect x="0" y="19" width="15" height="6" fill="rgb(162,159,156)" /><rect x="13" y="19" width="15" height="6" fill="rgb(196,194,191)" /><rect x="27" y="19" width="15" height="6" fill="rgb(159,155,152)" /><rect x="41" y="19" width="15" height="6" fill="rgb(252,252,250)" /><rect x="55" y="19" width="15" height="6" fill="rgb(254,254,253)" /><rect x="69" y="19" width="15" height="6" fill="rgb(146,142,138)" /><rect x="83" y="19" width="15" height="6" fill="rgb(237,237,235)" /><rect x="97" y="19" width="15" height="6" fill="rgb(253,253,252)" /><rect x="111" y="19" width="15" height="6" fill="rgb(254,254,252)" /><rect x="125" y="19" width="15" height="6" fill="rgb(253,253,251)" /><rect x="139" y="19" width="15" height="6" fill="rgb(254,254,253)" /><rect x="153" y="19" width="15" height="6" fill="rgb(254,254,253)" /><rect x="167" y="19" width="15" height="6" fill="rgb(254,254,253)" /><rect x="181" y="19" width="19" height="6" fill="rgb(254,254,253)" /><rect x="0" y="24" width="15" height="6" fill="rgb(167,164,160)" /><rect x="13" y="24" width="15" height="6" fill="rgb(151,147,143)" /><rect x="27" y="24" width="15" height="6" fill="rgb(136,132,128)" /><rect x="41" y="24" width="15" height="6" fill="rgb(126,122,117)" /><rect x="55" y="24" width="15" height="6" fill="rgb(151,148,144)" /><rect x="69" y="24" width="15" height="6" fill="rgb(114,109,105)" /><rect x="83" y="24" width="15" height="6" fill="rgb(137,133,129)" /><rect x="97" y="24" width="15" height="6" fill="rgb(147,142,138)" /><rect x="111" y="24" width="15" height="6" fill="rgb(157,153,149)" /><rect x="125" y="24" width="15" height="6" fill="rgb(151,147,143)" /><rect x="139" y="24" width="15" height="6" fill="rgb(134,129,125)" /><rect x="153" y="24" width="15" height="6" fill="rgb(193,191,187)" /><rect x="167" y="24" width="15" height="6" fill="rgb(215,214,212)" /><rect x="181" y="24" width="19" height="6" fill="rgb(254,253,252)" /><rect x="0" y="29" width="15" height="6" fill="rgb(182,180,177)" /><rect x="13" y="29" width="15" height="6" fill="rgb(134,130,126)" /><rect x="27" y="29" width="15" height="6" fill="rgb(114,109,104)" /><rect x="41" y="29" width="15" height="6" fill="rgb(107,102,97)" /><rect x="55" y="29" width="15" height="6" fill="rgb(164,161,157)" /><rect x="69" y="29" width="15" height="6" fill="rgb(117,112,108)" /><rect x="83" y="29" width="15" height="6" fill="rgb(120,116,111)" /><rect x="97" y="29" width="15" height="6" fill="rgb(150,146,142)" /><rect x="111" y="29" width="15" height="6" fill="rgb(140,136,131)" /><rect x="125" y="29" width="15" height="6" fill="rgb(117,112,107)" /><rect x="139" y="29" width="15" height="6" fill="rgb(148,144,140)" /><rect x="153" y="29" width="15" height="6" fill="rgb(141,137,133)" /><rect x="167" y="29" width="15" height="6" fill="rgb(212,210,208)" /><rect x="181" y="29" width="19" height="6" fill="rgb(254,254,253)" /><rect x="0" y="34" width="15" height="6" fill="rgb(185,183,180)" /><rect x="13" y="34" width="15" height="6" fill="rgb(134,129,125)" /><rect x="27" y="34" width="15" height="6" fill="rgb(115,110,106)" /><rect x="41" y="34" width="15" height="6" fill="rgb(120,115,110)" /><rect x="55" y="34" width="15" height="6" fill="rgb(174,171,167)" /><rect x="69" y="34" width="15" height="6" fill="rgb(125,121,117)" /><rect x="83" y="34" width="15" height="6" fill="rgb(135,131,126)" /><rect x="97" y="34" width="15" height="6" fill="rgb(149,145,141)" /><rect x="111" y="34" width="15" height="6" fill="rgb(151,147,142)" /><rect x="125" y="34" width="15" height="6" fill="rgb(138,134,130)" /><rect x="139" y="34" width="15" height="6" fill="rgb(184,182,178)" /><rect x="153" y="34" width="15" height="6" fill="rgb(125,120,116)" /><rect x="167" y="34" width="15" height="6" fill="rgb(239,239,237)" /><rect x="181" y="34" width="19" height="6" fill="rgb(254,254,254)" /><rect x="0" y="39" width="15" height="6" fill="rgb(189,187,185)" /><rect x="13" y="39" width="15" height="6" fill="rgb(174,170,166)" /><rect x="27" y="39" width="15" height="6" fill="rgb(156,152,148)" /><rect x="41" y="39" width="15" height="6" fill="rgb(109,104,99)" /><rect x="55" y="39" width="15" height="6" fill="rgb(138,133,129)" /><rect x="69" y="39" width="15" height="6" fill="rgb(104,99,94)" /><rect x="83" y="39" width="15" height="6" fill="rgb(103,98,93)" /><rect x="97" y="39" width="15" height="6" fill="rgb(105,100,95)" /><rect x="111" y="39" width="15" height="6" fill="rgb(121,116,112)" /><rect x="125" y="39" width="15" height="6" fill="rgb(147,143,139)" /><rect x="139" y="39" width="15" height="6" fill="rgb(100,95,90)" /><rect x="153" y="39" width="15" height="6" fill="rgb(162,159,155)" /><rect x="167" y="39" width="15" height="6" fill="rgb(253,253,252)" /><rect x="181" y="39" width="19" height="6" fill="rgb(254,254,254)" /><rect x="0" y="44" width="15" height="6" fill="rgb(248,247,246)" /><rect x="13" y="44" width="15" height="6" fill="rgb(247,247,245)" /><rect x="27" y="44" width="15" height="6" fill="rgb(247,246,244)" /><rect x="41" y="44" width="15" height="6" fill="rgb(238,237,235)" /><rect x="55" y="44" width="15" height="6" fill="rgb(238,237,235)" /><rect x="69" y="44" width="15" height="6" fill="rgb(237,236,233)" /><rect x="83" y="44" width="15" height="6" fill="rgb(231,229,227)" /><rect x="97" y="44" width="15" height="6" fill="rgb(176,174,170)" /><rect x="111" y="44" width="15" height="6" fill="rgb(229,228,225)" /><rect x="125" y="44" width="15" height="6" fill="rgb(238,237,235)" /><rect x="139" y="44" width="15" height="6" fill="rgb(215,213,210)" /><rect x="153" y="44" width="15" height="6" fill="rgb(180,178,174)" /><rect x="167" y="44" width="15" height="6" fill="rgb(254,254,253)" /><rect x="181" y="44" width="19" height="6" fill="rgb(254,254,254)" /><rect x="0" y="49" width="15" height="6" fill="rgb(254,254,253)" /><rect x="13" y="49" width="15" height="6" fill="rgb(254,254,253)" /><rect x="27" y="49" width="15" height="6" fill="rgb(254,254,254)" /><rect x="41" y="49" width="15" height="6" fill="rgb(254,254,254)" /><rect x="55" y="49" width="15" height="6" fill="rgb(254,254,254)" /><rect x="69" y="49" width="15" height="6" fill="rgb(254,254,254)" /><rect x="83" y="49" width="15" height="6" fill="rgb(254,254,253)" /><rect x="97" y="49" width="15" height="6" fill="rgb(230,229,227)" /><rect x="111" y="49" width="15" height="6" fill="rgb(253,253,252)" /><rect x="125" y="49" width="15" height="6" fill="rgb(254,254,253)" /><rect x="139" y="49" width="15" height="6" fill="rgb(254,254,254)" /><rect x="153" y="49" width="15" height="6" fill="rgb(222,220,217)" /><rect x="167" y="49" width="15" height="6" fill="rgb(254,254,254)" /><rect x="181" y="49" width="19" height="6" fill="rgb(254,254,254)" /><rect x="0" y="54" width="15" height="6" fill="rgb(235,234,232)" /><rect x="13" y="54" width="15" height="6" fill="rgb(217,216,213)" /><rect x="27" y="54" width="15" height="6" fill="rgb(221,219,217)" /><rect x="41" y="54" width="15" height="6" fill="rgb(230,228,226)" /><rect x="55" y="54" width="15" height="6" fill="rgb(206,204,202)" /><rect x="69" y="54" width="15" height="6" fill="rgb(231,230,227)" /><rect x="83" y="54" width="15" height="6" fill="rgb(223,221,218)" /><rect x="97" y="54" width="15" height="6" fill="rgb(238,237,235)" /><rect x="111" y="54" width="15" height="6" fill="rgb(200,198,195)" /><rect x="125" y="54" width="15" height="6" fill="rgb(230,229,227)" /><rect x="139" y="54" width="15" height="6" fill="rgb(237,236,234)" /><rect x="153" y="54" width="15" height="6" fill="rgb(225,223,220)" /><rect x="167" y="54" width="15" height="6" fill="rgb(238,238,236)" /><rect x="181" y="54" width="19" height="6" fill="rgb(254,254,254)" /><rect x="0" y="59" width="15" height="6" fill="rgb(218,217,215)" /><rect x="13" y="59" width="15" height="6" fill="rgb(144,141,137)" /><rect x="27" y="59" width="15" height="6" fill="rgb(146,142,138)" /><rect x="41" y="59" width="15" height="6" fill="rgb(150,146,142)" /><rect x="55" y="59" width="15" height="6" fill="rgb(142,138,135)" /><rect x="69" y="59" width="15" height="6" fill="rgb(150,146,142)" /><rect x="83" y="59" width="15" height="6" fill="rgb(130,125,121)" /><rect x="97" y="59" width="15" height="6" fill="rgb(164,160,156)" /><rect x="111" y="59" width="15" height="6" fill="rgb(163,159,155)" /><rect x="125" y="59" width="15" height="6" fill="rgb(179,176,172)" /><rect x="139" y="59" width="15" height="6" fill="rgb(223,222,219)" /><rect x="153" y="59" width="15" height="6" fill="rgb(159,155,151)" /><rect x="167" y="59" width="15" height="6" fill="rgb(222,221,219)" /><rect x="181" y="59" width="19" height="6" fill="rgb(254,254,254)" /><rect x="0" y="64" width="15" height="13" fill="rgb(231,230,229)" /><rect x="13" y="64" width="15" height="13" fill="rgb(211,209,206)" /><rect x="27" y="64" width="15" height="13" fill="rgb(213,212,209)" /><rect x="41" y="64" width="15" height="13" fill="rgb(219,217,215)" /><rect x="55" y="64" width="15" height="13" fill="rgb(215,213,211)" /><rect x="69" y="64" width="15" height="13" fill="rgb(216,215,212)" /><rect x="83" y="64" width="15" height="13" fill="rgb(216,214,212)" /><rect x="97" y="64" width="15" height="13" fill="rgb(223,221,219)" /><rect x="111" y="64" width="15" height="13" fill="rgb(237,236,233)" /><rect x="125" y="64" width="15" height="13" fill="rgb(224,222,220)" /><rect x="139" y="64" width="15" height="13" fill="rgb(232,231,228)" /><rect x="153" y="64" width="15" height="13" fill="rgb(215,214,211)" /><rect x="167" y="64" width="15" height="13" fill="rgb(237,236,234)" /><rect x="181" y="64" width="19" height="13" fill="rgb(254,254,254)" /><g transform="translate(0.000000,77.000000) scale(0.100000,-0.100000)" fill="#130C0C" stroke="none"><path d="M90 451 c0 -101 2 -121 15 -121 8 0 15 8 15 18 0 14 -2 15 -10 2 -8 -13 -10 -13 -10 2 0 9 8 19 18 21 16 4 16 5 0 6 -16 1 -18 12 -18 91 0 82 2 90 19 90 11 0 22 -5 24 -10 3 -6 4 -5 3 2 -1 7 -15 14 -29 16 l-27 3 0 -120z"/><path d="M273 548 c-4 -13 -8 -27 -9 -33 0 -5 -8 -27 -17 -49 -9 -21 -17 -44 -17 -52 0 -7 -5 -16 -10 -19 -12 -7 -38 16 -33 30 2 6 -6 33 -17 60 -17 45 -19 47 -20 19 0 -29 37 -154 47 -154 2 0 2 8 -1 18 -4 13 -1 18 14 18 25 0 26 -24 3 -42 -10 -7 -13 -14 -7 -14 6 0 16 6 21 13 15 19 35 96 28 107 -3 6 -1 10 5 10 6 0 8 5 5 10 -3 6 -1 10 5 10 5 0 9 13 8 28 -2 32 8 52 27 52 9 0 15 -15 18 -42 l4 -43 1 48 c2 44 0 47 -22 47 -17 0 -27 -8 -33 -22z"/><path d="M731 538 c1 -31 1 -32 9 -8 5 16 8 -7 7 -65 0 -49 -2 -74 -4 -55 -3 19 -8 38 -12 42 -4 5 -5 -8 -3 -27 5 -44 -11 -65 -52 -65 -41 0 -56 16 -56 58 0 19 -4 31 -10 27 -15 -9 -12 21 3 34 10 8 17 7 25 -1 9 -9 12 -8 12 5 0 9 7 17 16 17 8 0 13 -4 10 -9 -3 -5 3 -11 15 -14 15 -4 19 -1 17 11 -5 28 -69 28 -95 0 -22 -25 -42 -75 -25 -64 5 3 13 -1 16 -10 8 -22 8 -26 -4 -19 -16 10 -11 -11 8 -32 9 -10 14 -14 10 -9 -15 20 -8 29 10 13 10 -10 29 -17 43 -18 13 0 18 -3 12 -6 -21 -8 -14 -22 8 -16 11 3 25 16 29 29 6 16 15 22 25 18 13 -5 15 8 15 95 0 83 -3 101 -15 101 -10 0 -15 -10 -14 -32z"/><path d="M810 555 c0 -8 7 -15 15 -15 8 0 15 7 15 15 0 8 -7 15 -15 15 -8 0 -15 -7 -15 -15z"/><path d="M468 503 c7 -3 16 -2 19 1 4 3 -2 6 -13 5 -11 0 -14 -3 -6 -6z"/><path d="M812 418 l2 -93 6 85 6 85 5 -85 5 -85 2 93 c2 76 -1 92 -13 92 -12 0 -15 -16 -13 -92z"/><path d="M896 494 c-19 -18 -21 -50 -4 -60 7 -4 8 -3 4 5 -4 6 -2 18 4 26 7 8 9 15 4 15 -5 0 -2 4 6 10 9 5 19 5 25 0 8 -7 12 -5 12 5 0 20 -31 19 -51 -1z"/><path d="M1084 498 c-5 -8 -2 -9 9 -5 10 4 17 1 17 -6 0 -8 3 -9 8 -1 4 6 14 14 22 17 8 3 1 6 -17 6 -17 1 -35 -4 -39 -11z"/><path d="M1295 501 c-3 -5 -1 -12 5 -16 5 -3 10 1 10 9 0 18 -6 21 -15 7z"/><path d="M302 418 c-2 -69 1 -88 12 -88 15 0 29 37 16 45 -5 3 -11 -5 -13 -17 -2 -13 -5 -1 -6 25 0 30 3 46 9 42 6 -3 10 4 10 17 0 18 -2 20 -9 9 -7 -11 -11 -6 -14 20 -2 19 -5 -5 -5 -53z"/><path d="M396 478 c-29 -42 -17 -119 21 -132 15 -5 15 -4 -1 9 -11 8 -14 15 -7 15 7 0 9 5 6 10 -4 6 -11 8 -16 5 -5 -4 -9 12 -9 34 0 29 4 41 14 41 8 0 18 5 22 12 5 7 3 8 -6 3 -10 -6 -12 -4 -7 8 9 24 1 21 -17 -5z"/><path d="M510 483 c0 -14 6 -23 15 -23 8 0 15 -5 15 -11 0 -5 -6 -7 -12 -3 -10 6 -10 4 -2 -7 6 -8 14 -21 17 -29 3 -8 6 -1 6 15 0 17 -8 41 -19 55 l-20 25 0 -22z"/><path d="M960 485 c0 -8 7 -15 16 -15 14 0 14 3 4 15 -7 8 -14 15 -16 15 -2 0 -4 -7 -4 -15z"/><path d="M1031 458 c1 -41 1 -41 9 -14 5 16 7 33 5 37 -3 4 1 10 7 12 8 3 6 6 -4 6 -15 1 -18 -7 -17 -41z"/><path d="M1157 493 c-4 -6 -1 -13 6 -16 8 -3 11 -20 9 -51 -3 -37 -10 -50 -29 -63 -24 -16 -28 -16 -57 1 l-31 17 22 -22 c28 -29 86 -35 104 -12 11 15 11 16 -1 6 -8 -7 -21 -13 -29 -13 -11 0 -9 5 7 20 21 20 27 38 22 69 -1 8 4 17 10 21 7 5 5 14 -8 30 -11 14 -21 19 -25 13z"/><path d="M1241 473 c2 -25 2 -26 6 -5 3 16 10 22 19 18 9 -3 12 -1 9 4 -13 21 -35 10 -34 -17z"/><path d="M1361 474 c-25 -32 -28 -84 -6 -84 8 0 15 -5 15 -11 0 -5 -4 -7 -10 -4 -5 3 -10 2 -10 -4 0 -5 5 -13 10 -16 6 -3 10 -1 10 6 0 8 4 8 15 -1 13 -11 12 -7 -2 18 -10 17 -21 28 -25 26 -5 -3 -8 6 -8 20 0 25 13 39 38 42 8 2 17 6 20 10 4 4 -1 4 -10 1 -10 -4 -18 -2 -18 3 0 6 17 10 38 10 31 0 41 -5 55 -29 21 -36 21 -55 1 -90 -12 -20 -22 -27 -39 -23 -14 2 -24 -2 -28 -12 -7 -18 8 -22 18 -6 4 6 15 8 26 5 13 -5 19 -2 19 10 0 9 5 13 10 10 6 -4 10 -3 9 2 -1 4 2 24 7 43 7 34 8 34 15 10 6 -22 7 -23 8 -4 1 12 -14 38 -32 58 -43 46 -94 50 -126 10z"/><path d="M1496 492 c7 -4 14 -16 17 -27 4 -15 5 -14 6 8 1 20 -4 27 -16 27 -12 0 -14 -3 -7 -8z"/><path d="M1550 493 c0 -5 5 -15 11 -23 9 -13 10 -12 5 3 -7 22 10 22 19 0 3 -10 1 -19 -5 -21 -7 -3 -4 -10 7 -19 10 -8 12 -12 6 -8 -18 8 -16 -6 4 -45 15 -31 15 -38 1 -77 -15 -41 -15 -43 3 -43 11 0 19 2 19 4 0 2 7 20 15 40 8 20 13 36 10 36 -2 0 -12 -16 -20 -37 -18 -44 -30 -39 -14 6 6 18 8 43 3 59 -4 15 -7 30 -6 35 1 4 -3 28 -9 52 -8 33 -16 45 -30 45 -11 0 -19 -3 -19 -7z"/><path d="M1663 463 c-8 -21 -16 -42 -17 -48 -1 -5 -6 -17 -11 -25 -8 -13 -7 -13 9 -1 16 13 17 12 11 -15 l-6 -29 14 31 c24 50 31 77 18 70 -14 -9 -14 14 -1 34 8 12 10 12 10 -5 0 -17 2 -17 10 -5 14 21 12 30 -6 30 -8 0 -22 -17 -31 -37z m4 -45 c-3 -8 -6 -5 -6 6 -1 11 2 17 5 13 3 -3 4 -12 1 -19z"/><path d="M1056 445 c-3 -9 -6 -26 -5 -38 1 -14 4 -9 9 13 9 37 7 52 -4 25z"/><path d="M1267 443 c-5 -13 -5 -28 -1 -34 4 -8 3 -9 -4 -5 -7 4 -12 1 -12 -8 0 -20 19 -21 26 -2 3 8 4 27 2 43 -3 27 -4 27 -11 6z"/><path d="M435 420 c3 -5 27 -10 53 -10 34 0 43 3 32 10 -20 13 -93 13 -85 0z"/><path d="M935 421 c17 -3 29 -10 28 -14 -2 -4 -1 -7 2 -7 26 0 28 2 11 15 -11 8 -31 14 -45 14 -24 -1 -24 -2 4 -8z"/><path d="M1196 404 c-4 -14 -5 -29 -2 -31 3 -3 8 7 12 21 3 15 4 29 1 32 -2 3 -8 -7 -11 -22z"/><path d="M981 373 c-1 -12 -7 -24 -13 -26 -10 -4 -10 -6 0 -6 15 -1 26 23 19 41 -3 7 -6 3 -6 -9z"/><path d="M1031 333 c-1 -50 2 -63 14 -63 10 0 15 10 14 33 l-1 32 -8 -30 -8 -30 -1 33 c-1 19 4 32 12 32 8 0 9 2 1 8 -7 4 -14 16 -17 27 -2 11 -5 -8 -6 -42z"/><path d="M881 364 c0 -11 3 -14 6 -6 3 7 2 16 -1 19 -3 4 -6 -2 -5 -13z"/><path d="M1511 357 c-1 -19 -5 -26 -13 -21 -10 5 -10 4 -1 -6 17 -19 25 -8 20 27 l-4 28 -2 -28z"/><path d="M473 363 c-18 -2 -33 -8 -33 -13 0 -5 7 -7 15 -4 8 4 15 1 15 -5 0 -18 36 -12 55 9 20 22 22 22 -52 13z"/><path d="M1250 360 c-11 -7 -12 -10 -2 -10 7 0 10 -4 7 -10 -3 -5 1 -10 9 -10 17 0 20 8 8 27 -5 8 -13 9 -22 3z"/><path d="M748 333 c7 -3 16 -2 19 1 4 3 -2 6 -13 5 -11 0 -14 -3 -6 -6z"/><path d="M81 148 c0 -32 2 -58 7 -58 4 0 6 19 4 43 -5 70 -10 76 -11 15z"/><path d="M273 145 c0 -36 2 -46 4 -25 3 19 10 38 16 42 9 6 9 8 0 8 -6 0 -14 8 -16 18 -3 9 -4 -10 -4 -43z"/><path d="M669 188 c-3 -7 -2 -33 1 -58 l6 -45 5 48 c4 47 -4 83 -12 55z"/><path d="M1150 189 c0 -5 5 -7 10 -4 6 3 10 8 10 11 0 2 -4 4 -10 4 -5 0 -10 -5 -10 -11z"/><path d="M1198 173 c5 -21 7 -23 10 -9 2 10 0 22 -6 28 -6 6 -7 0 -4 -19z"/><path d="M1330 155 c0 -27 2 -46 5 -43 8 8 9 77 2 85 -4 3 -7 -15 -7 -42z"/><path d="M1483 145 c0 -33 2 -45 4 -27 2 18 2 45 0 60 -2 15 -4 0 -4 -33z"/><path d="M1558 183 c-2 -10 -1 -38 3 -63 6 -43 6 -43 7 18 2 61 -2 79 -10 45z"/><path d="M1679 183 c0 -10 -1 -35 -2 -56 -1 -20 1 -37 6 -37 4 0 7 25 7 55 0 30 -2 55 -5 55 -3 0 -5 -8 -6 -17z"/><path d="M320 170 c8 -5 20 -10 25 -10 6 0 3 5 -5 10 -8 5 -19 10 -25 10 -5 0 -3 -5 5 -10z"/><path d="M396 164 c-9 -8 -16 -23 -15 -32 0 -12 3 -10 9 6 5 12 20 27 32 32 16 6 18 9 6 9 -9 1 -24 -6 -32 -15z"/><path d="M600 166 c14 -7 29 -10 34 -8 11 6 -20 20 -44 21 -8 0 -4 -5 10 -13z"/><path d="M926 164 c-9 -8 -16 -23 -15 -32 0 -14 2 -14 6 -2 3 8 12 23 21 33 19 21 9 23 -12 1z"/><path d="M1029 163 c-13 -16 -12 -17 4 -4 16 13 21 21 13 21 -2 0 -10 -8 -17 -17z"/><path d="M154 156 c-3 -8 -4 -23 -2 -33 3 -11 6 -6 9 15 6 34 2 42 -7 18z"/><path d="M218 158 c17 -17 15 -45 -5 -57 -16 -9 -15 -10 5 -8 19 1 22 7 22 39 0 29 -4 38 -17 38 -13 0 -14 -3 -5 -12z"/><path d="M458 143 c3 -18 -1 -30 -13 -40 -11 -7 -14 -13 -9 -13 27 0 48 60 25 74 -4 3 -6 -6 -3 -21z"/><path d="M503 130 c0 -25 2 -35 4 -22 2 12 2 32 0 45 -2 12 -4 2 -4 -23z"/><path d="M555 159 c-4 -6 -5 -12 -2 -15 2 -3 7 2 10 11 7 17 1 20 -8 4z"/><path d="M715 149 c-10 -30 -2 -32 12 -3 6 13 7 24 3 24 -5 0 -12 -9 -15 -21z"/><path d="M788 145 c2 -14 -2 -33 -9 -43 -13 -15 -12 -16 4 -3 18 14 23 56 8 65 -4 3 -6 -6 -3 -19z"/><path d="M830 159 c0 -5 5 -7 10 -4 6 3 10 8 10 11 0 2 -4 4 -10 4 -5 0 -10 -5 -10 -11z"/><path d="M1610 155 c-6 -8 -10 -22 -7 -32 4 -14 5 -14 6 4 0 12 9 27 19 32 9 6 12 11 6 11 -6 0 -17 -7 -24 -15z"/><path d="M351 133 c0 -12 -9 -27 -18 -32 -10 -6 -13 -11 -7 -11 18 0 36 27 31 47 -4 14 -5 14 -6 -4z"/><path d="M882 125 c0 -16 2 -22 5 -12 2 9 2 23 0 30 -3 6 -5 -1 -5 -18z"/><path d="M1152 120 c0 -19 2 -27 5 -17 2 9 2 25 0 35 -3 9 -5 1 -5 -18z"/><path d="M628 120 c-7 -24 -3 -38 8 -28 3 4 4 17 2 30 l-3 23 -7 -25z"/><path d="M1062 110 c0 -14 2 -19 5 -12 2 6 2 18 0 25 -3 6 -5 1 -5 -13z"/><path d="M1250 123 c0 -15 18 -35 23 -27 3 5 -1 15 -9 22 -8 7 -14 9 -14 5z"/><path d="M727 99 c7 -7 15 -10 18 -7 3 3 -2 9 -12 12 -14 6 -15 5 -6 -5z"/><path d="M578 93 c6 -2 18 -2 25 0 6 3 1 5 -13 5 -14 0 -19 -2 -12 -5z"/></g><g transform="translate(0.000000,77.000000) scale(0.100000,-0.100000)" fill="#2C261F" stroke="none"><path d="M104 470 c0 -64 3 -90 12 -90 16 0 17 92 1 103 -8 5 -4 14 15 30 27 22 27 23 8 35 -16 10 -20 10 -20 0 0 -10 -2 -10 -8 -1 -4 7 -8 -28 -8 -77z"/><path d="M274 540 c0 -9 9 -23 21 -32 19 -14 20 -14 22 18 1 29 -1 33 -21 32 -13 -1 -22 -9 -22 -18z m36 0 c0 -5 -2 -10 -4 -10 -3 0 -8 5 -11 10 -3 6 -1 10 4 10 6 0 11 -4 11 -10z"/><path d="M420 499 c0 -5 -4 -7 -10 -4 -5 3 -7 0 -4 -8 3 -9 13 -13 25 -10 15 4 17 8 8 19 -14 17 -19 18 -19 3z"/><path d="M456 496 c4 -10 12 -15 20 -12 7 3 15 0 17 -7 2 -7 8 -9 12 -5 4 3 3 14 -3 24 -6 12 -11 13 -17 5 -5 -9 -10 -9 -21 0 -12 10 -13 9 -8 -5z"/><path d="M722 498 c-16 -16 -15 -35 3 -42 8 -3 15 -1 15 4 0 6 -4 10 -10 10 -5 0 -10 5 -10 11 0 6 7 9 15 5 8 -3 15 -1 15 4 0 15 -16 20 -28 8z"/><path d="M946 503 c-7 -8 -12 -9 -38 -12 -6 0 -8 -4 -5 -8 4 -3 2 -12 -5 -20 -13 -16 -11 -18 22 -28 22 -7 23 -7 7 9 -17 18 -13 47 6 43 7 -1 18 -9 25 -17 11 -13 12 -12 3 6 -6 12 -7 24 -4 28 3 3 4 6 1 6 -2 0 -8 -3 -12 -7z"/><path d="M1310 494 c0 -13 -3 -14 -14 -5 -21 17 -43 3 -50 -31 -8 -42 -8 -45 7 -51 8 -3 12 4 11 22 -1 20 6 29 28 38 15 7 28 19 28 28 0 8 -2 15 -5 15 -3 0 -5 -7 -5 -16z m-25 -14 c3 -5 -1 -10 -10 -10 -9 0 -13 5 -10 10 3 6 8 10 10 10 2 0 7 -4 10 -10z"/><path d="M1408 503 c6 -2 18 -2 25 0 6 3 1 5 -13 5 -14 0 -19 -2 -12 -5z"/><path d="M320 475 c-7 -14 -10 -28 -7 -32 4 -3 7 -1 7 6 0 7 4 10 9 7 5 -3 9 6 9 19 0 31 -1 31 -18 0z"/><path d="M660 489 c0 -5 5 -7 10 -4 6 3 10 8 10 11 0 2 -4 4 -10 4 -5 0 -10 -5 -10 -11z"/><path d="M1085 491 c-11 -5 -26 -6 -34 -3 -8 3 -12 1 -8 -5 4 -6 2 -25 -3 -44 -8 -31 -8 -32 5 -15 8 10 12 23 9 27 -3 5 2 9 11 9 9 0 13 5 10 10 -3 6 3 10 14 10 12 0 21 5 21 10 0 6 -1 10 -2 9 -2 0 -12 -4 -23 -8z"/><path d="M1120 491 c0 -5 7 -12 16 -15 21 -8 21 -8 21 9 0 8 -9 15 -19 15 -10 0 -18 -4 -18 -9z"/><path d="M611 476 c-9 -10 -9 -16 -1 -21 6 -4 14 -4 17 -1 4 3 0 6 -8 7 -8 0 -6 3 5 8 12 5 15 10 9 14 -6 4 -16 0 -22 -7z"/><path d="M821 474 c0 -11 3 -14 6 -6 3 7 2 16 -1 19 -3 4 -6 -2 -5 -13z"/><path d="M1368 465 c-19 -25 -25 -70 -8 -60 6 3 10 15 10 26 0 10 5 19 10 19 6 0 9 6 8 13 -2 6 5 11 14 11 10 -1 15 2 12 7 -9 16 -28 9 -46 -16z"/><path d="M1455 470 c10 -11 20 -18 23 -15 3 3 11 0 19 -7 7 -6 16 -8 20 -4 3 3 2 6 -4 6 -6 0 -9 9 -6 20 4 14 0 20 -11 20 -9 0 -16 -8 -16 -17 -1 -17 -1 -17 -14 0 -7 9 -17 17 -21 17 -5 0 0 -9 10 -20z"/><path d="M1667 469 c10 -10 10 -16 0 -28 -11 -14 -10 -15 8 -1 11 8 22 15 23 16 2 1 -7 8 -20 14 -19 10 -21 10 -11 -1z"/><path d="M240 466 c0 -2 8 -10 18 -17 15 -13 16 -12 3 4 -13 16 -21 21 -21 13z"/><path d="M389 456 c7 -9 10 -25 6 -38 -5 -18 -4 -20 4 -8 7 10 11 11 11 3 0 -7 7 -10 15 -7 8 4 13 10 10 14 -3 5 -2 10 2 13 5 2 2 2 -5 1 -7 -2 -15 3 -18 10 -3 8 -13 17 -21 20 -13 5 -14 4 -4 -8z"/><path d="M1565 460 c-3 -5 1 -10 9 -10 9 0 16 5 16 10 0 6 -4 10 -9 10 -6 0 -13 -4 -16 -10z"/><path d="M525 453 c3 -3 0 -12 -5 -18 -7 -9 -6 -14 3 -18 14 -5 17 28 4 38 -4 3 -5 2 -2 -2z"/><path d="M1184 425 c0 -14 4 -25 8 -25 4 0 8 7 8 15 0 8 0 18 1 22 0 4 -3 9 -8 10 -5 2 -9 -8 -9 -22z"/><path d="M742 420 c0 -14 2 -19 5 -12 2 6 2 18 0 25 -3 6 -5 1 -5 -13z"/><path d="M317 419 c7 -7 15 -10 18 -7 3 3 -2 9 -12 12 -14 6 -15 5 -6 -5z"/><path d="M371 414 c0 -11 3 -14 6 -6 3 7 2 16 -1 19 -3 4 -6 -2 -5 -13z"/><path d="M587 423 c-11 -10 -8 -20 7 -26 10 -4 12 0 9 14 -6 21 -7 22 -16 12z"/><path d="M762 410 c0 -14 2 -19 5 -12 2 6 2 18 0 25 -3 6 -5 1 -5 -13z"/><path d="M946 421 c-12 -5 -15 -10 -9 -14 6 -4 16 0 23 8 14 17 13 17 -14 6z"/><path d="M478 403 c7 -3 16 -2 19 1 4 3 -2 6 -13 5 -11 0 -14 -3 -6 -6z"/><path d="M1500 402 c0 -8 -5 -10 -12 -6 -10 5 -10 4 -1 -6 16 -17 35 -9 23 10 -7 11 -10 11 -10 2z"/><path d="M1599 394 c-8 -11 -9 -15 -2 -11 8 5 15 -1 19 -17 3 -14 11 -24 18 -23 16 3 28 49 15 62 -7 6 -10 6 -9 0 6 -29 -2 -38 -14 -17 -12 22 -13 22 -27 6z"/><path d="M320 385 c-7 -9 -10 -18 -6 -22 3 -3 6 -1 6 6 0 7 5 9 10 6 6 -3 10 1 10 9 0 20 -4 20 -20 1z"/><path d="M964 388 c-5 -7 -2 -9 9 -5 9 3 18 1 21 -6 2 -7 5 -4 5 6 1 19 -24 23 -35 5z"/><path d="M1040 375 c0 -18 5 -25 19 -25 10 0 24 -7 31 -15 11 -13 63 -18 55 -5 -2 3 10 12 27 19 22 10 27 16 17 22 -9 5 -16 2 -21 -9 -4 -9 -7 -13 -7 -8 -1 5 -10 1 -20 -8 -16 -14 -23 -15 -40 -6 -12 6 -19 15 -16 20 3 5 -4 7 -16 5 -16 -3 -18 -1 -10 9 9 10 8 15 -4 20 -11 4 -15 -1 -15 -19z"/><path d="M1240 381 c0 -16 4 -21 14 -18 8 3 17 1 20 -6 2 -7 5 -2 5 11 1 15 -3 21 -10 16 -6 -3 -15 0 -20 7 -6 10 -9 8 -9 -10z"/><path d="M220 379 c0 -6 -7 -9 -15 -6 -8 4 -17 1 -21 -5 -5 -7 -2 -8 6 -3 10 6 12 3 8 -13 -5 -18 -4 -19 13 -9 17 10 27 47 14 47 -3 0 -5 -5 -5 -11z"/><path d="M615 380 c-3 -5 0 -19 8 -30 14 -21 14 -21 20 -1 3 12 0 19 -7 18 -6 -1 -10 4 -8 11 2 14 -4 16 -13 2z"/><path d="M723 368 c-1 -10 3 -18 8 -18 6 0 7 -5 3 -11 -4 -8 0 -8 15 0 28 16 27 34 -1 25 -19 -6 -21 -5 -11 8 10 12 10 15 0 15 -7 0 -14 -9 -14 -19z"/><path d="M1355 380 c3 -5 8 -10 11 -10 2 0 4 5 4 10 0 6 -5 10 -11 10 -5 0 -7 -4 -4 -10z"/><path d="M891 365 c-1 -14 8 -24 27 -31 31 -12 55 -7 45 9 -4 7 0 8 12 3 15 -5 16 -4 5 9 -9 11 -17 12 -23 6 -7 -7 -16 -7 -29 0 -13 7 -18 6 -19 -3 0 -7 -4 -4 -9 7 -9 20 -9 20 -9 0z"/><path d="M100 353 c0 -15 2 -15 9 -4 7 11 10 10 14 -5 4 -16 5 -16 6 4 1 13 -5 22 -14 22 -8 0 -15 -8 -15 -17z"/><path d="M408 363 c6 -3 10 -9 7 -14 -4 -5 1 -6 9 -3 23 9 19 20 -6 21 -13 0 -17 -1 -10 -4z"/><path d="M331 344 c0 -11 3 -14 6 -6 3 7 2 16 -1 19 -3 4 -6 -2 -5 -13z"/><path d="M1385 343 c3 -8 5 -18 5 -21 0 -8 20 20 20 29 0 3 -7 6 -15 6 -10 0 -14 -6 -10 -14z"/><path d="M1470 349 c0 -5 7 -9 16 -9 9 0 12 -5 8 -12 -4 -7 -3 -8 4 -4 18 11 14 23 -8 29 -11 3 -20 1 -20 -4z"/><path d="M445 340 c-3 -5 -2 -10 4 -10 5 0 13 5 16 10 3 6 2 10 -4 10 -5 0 -13 -4 -16 -10z"/><path d="M655 339 c-12 -18 3 -22 20 -5 14 14 14 16 1 16 -8 0 -18 -5 -21 -11z"/><path d="M1240 339 c0 -5 5 -7 10 -4 6 3 10 8 10 11 0 2 -4 4 -10 4 -5 0 -10 -5 -10 -11z"/><path d="M1041 308 c2 -28 2 -29 6 -8 3 14 10 28 17 32 7 5 5 8 -6 8 -14 0 -18 -8 -17 -32z"/><path d="M1610 305 c0 -9 -4 -13 -10 -10 -6 3 -7 -1 -4 -9 8 -21 11 -20 24 3 7 13 7 22 0 26 -5 3 -10 -1 -10 -10z"/><path d="M770 171 c0 -6 4 -13 10 -16 6 -3 7 1 4 9 -7 18 -14 21 -14 7z"/><path d="M820 135 c0 -8 2 -15 4 -15 2 0 6 7 10 15 3 8 1 15 -4 15 -6 0 -10 -7 -10 -15z"/><path d="M1025 140 c3 -5 8 -10 11 -10 2 0 4 5 4 10 0 6 -5 10 -11 10 -5 0 -7 -4 -4 -10z"/><path d="M1178 143 c7 -3 16 -2 19 1 4 3 -2 6 -13 5 -11 0 -14 -3 -6 -6z"/><path d="M958 133 c6 -2 18 -2 25 0 6 3 1 5 -13 5 -14 0 -19 -2 -12 -5z"/><path d="M1600 106 c0 -2 8 -10 18 -17 15 -13 16 -12 3 4 -13 16 -21 21 -21 13z"/></g><g transform="translate(0.000000,77.000000) scale(0.100000,-0.100000)" fill="#3F3933" stroke="none"><path d="M761 554 c0 -11 3 -14 6 -6 3 7 2 16 -1 19 -3 4 -6 -2 -5 -13z"/><path d="M801 554 c0 -11 3 -14 6 -6 3 7 2 16 -1 19 -3 4 -6 -2 -5 -13z"/><path d="M303 526 c7 -14 13 -23 15 -21 7 6 -9 45 -18 45 -4 0 -3 -11 3 -24z"/><path d="M762 500 c0 -19 2 -27 5 -17 2 9 2 25 0 35 -3 9 -5 1 -5 -18z"/><path d="M123 505 c-3 -9 -3 -19 1 -22 3 -4 6 2 7 13 0 18 1 18 9 -1 8 -19 9 -19 9 3 1 25 -17 30 -26 7z"/><path d="M712 490 c7 -11 16 -20 20 -20 3 0 9 -8 11 -17 4 -14 5 -14 6 3 1 13 -9 28 -24 38 -25 17 -25 16 -13 -4z"/><path d="M1418 483 c7 -3 16 -2 19 1 4 3 -2 6 -13 5 -11 0 -14 -3 -6 -6z"/><path d="M102 460 c0 -14 2 -19 5 -12 2 6 2 18 0 25 -3 6 -5 1 -5 -13z"/><path d="M1078 473 c6 -2 18 -2 25 0 6 3 1 5 -13 5 -14 0 -19 -2 -12 -5z"/><path d="M1155 470 c-3 -5 -1 -10 4 -10 6 0 11 5 11 10 0 6 -2 10 -4 10 -3 0 -8 -4 -11 -10z"/><path d="M1268 473 c7 -3 16 -2 19 1 4 3 -2 6 -13 5 -11 0 -14 -3 -6 -6z"/><path d="M605 459 c-4 -6 -5 -12 -2 -15 2 -3 7 2 10 11 7 17 1 20 -8 4z"/><path d="M410 451 c0 -6 4 -13 10 -16 6 -3 7 1 4 9 -7 18 -14 21 -14 7z"/><path d="M761 444 c0 -11 3 -14 6 -6 3 7 2 16 -1 19 -3 4 -6 -2 -5 -13z"/><path d="M822 440 c0 -14 2 -19 5 -12 2 6 2 18 0 25 -3 6 -5 1 -5 -13z"/><path d="M331 434 c0 -11 3 -14 6 -6 3 7 2 16 -1 19 -3 4 -6 -2 -5 -13z"/><path d="M393 423 c1 -18 5 -33 10 -33 9 0 8 19 -3 45 -7 16 -8 14 -7 -12z"/><path d="M488 433 c6 -2 18 -2 25 0 6 3 1 5 -13 5 -14 0 -19 -2 -12 -5z"/><path d="M895 430 c-3 -6 1 -7 9 -4 18 7 21 14 7 14 -6 0 -13 -4 -16 -10z"/><path d="M312 400 c0 -14 2 -19 5 -12 2 6 2 18 0 25 -3 6 -5 1 -5 -13z"/><path d="M448 403 c7 -3 16 -2 19 1 4 3 -2 6 -13 5 -11 0 -14 -3 -6 -6z"/><path d="M508 403 c6 -2 18 -2 25 0 6 3 1 5 -13 5 -14 0 -19 -2 -12 -5z"/><path d="M821 394 c0 -11 3 -14 6 -6 3 7 2 16 -1 19 -3 4 -6 -2 -5 -13z"/><path d="M195 391 c-6 -11 13 -26 22 -17 4 3 1 6 -6 6 -7 0 -9 5 -6 10 3 6 4 10 1 10 -3 0 -7 -4 -11 -9z"/><path d="M1181 384 c0 -11 3 -14 6 -6 3 7 2 16 -1 19 -3 4 -6 -2 -5 -13z"/><path d="M528 373 c7 -3 16 -2 19 1 4 3 -2 6 -13 5 -11 0 -14 -3 -6 -6z"/><path d="M1482 363 c14 -17 28 -16 28 1 0 8 -9 14 -19 13 -15 -1 -17 -4 -9 -14z"/><path d="M1372 350 c0 -14 2 -19 5 -12 2 6 2 18 0 25 -3 6 -5 1 -5 -13z"/><path d="M425 340 c-3 -5 -1 -10 4 -10 6 0 11 5 11 10 0 6 -2 10 -4 10 -3 0 -8 -4 -11 -10z"/><path d="M1060 346 c0 -2 7 -7 16 -10 8 -3 12 -2 9 4 -6 10 -25 14 -25 6z"/><path d="M1623 335 c-3 -9 -3 -19 1 -22 3 -4 6 -1 6 6 0 7 4 9 10 6 6 -3 7 1 4 9 -8 20 -13 20 -21 1z"/><path d="M918 323 c7 -3 16 -2 19 1 4 3 -2 6 -13 5 -11 0 -14 -3 -6 -6z"/><path d="M1248 323 c7 -3 16 -2 19 1 4 3 -2 6 -13 5 -11 0 -14 -3 -6 -6z"/><path d="M1025 171 c-3 -5 -2 -12 3 -15 5 -3 9 1 9 9 0 17 -3 19 -12 6z"/><path d="M492 135 c0 -16 2 -22 5 -12 2 9 2 23 0 30 -3 6 -5 -1 -5 -18z"/><path d="M918 135 c5 -29 8 -31 15 -11 3 8 0 19 -7 25 -10 9 -12 6 -8 -14z"/><path d="M1160 140 c0 -5 5 -10 11 -10 5 0 7 5 4 10 -3 6 -8 10 -11 10 -2 0 -4 -4 -4 -10z"/><path d="M832 115 c0 -16 2 -22 5 -12 2 9 2 23 0 30 -3 6 -5 -1 -5 -18z"/><path d="M950 90 c0 -5 5 -10 11 -10 5 0 7 5 4 10 -3 6 -8 10 -11 10 -2 0 -4 -4 -4 -10z"/><path d="M1497 89 c7 -7 15 -10 18 -7 3 3 -2 9 -12 12 -14 6 -15 5 -6 -5z"/><path d="M1660 90 c0 -5 5 -10 11 -10 5 0 7 5 4 10 -3 6 -8 10 -11 10 -2 0 -4 -4 -4 -10z"/></g><g transform="translate(0.000000,77.000000) scale(0.100000,-0.100000)" fill="#5F5959" stroke="none"><path d="M108 573 c7 -3 16 -2 19 1 4 3 -2 6 -13 5 -11 0 -14 -3 -6 -6z"/><path d="M276 571 c-3 -4 6 -6 19 -3 14 2 25 6 25 8 0 8 -39 4 -44 -5z"/><path d="M725 569 c-4 -6 -4 -13 -1 -16 3 -4 6 -1 6 5 0 6 8 13 18 15 15 4 15 5 0 6 -9 0 -20 -4 -23 -10z"/><path d="M291 494 c0 -11 3 -14 6 -6 3 7 2 16 -1 19 -3 4 -6 -2 -5 -13z"/><path d="M1022 490 c0 -14 2 -19 5 -12 2 6 2 18 0 25 -3 6 -5 1 -5 -13z"/><path d="M1485 500 c-3 -6 1 -7 9 -4 18 7 21 14 7 14 -6 0 -13 -4 -16 -10z"/><path d="M802 460 c0 -19 2 -27 5 -17 2 9 2 25 0 35 -3 9 -5 1 -5 -18z"/><path d="M1428 473 c7 -3 16 -2 19 1 4 3 -2 6 -13 5 -11 0 -14 -3 -6 -6z"/><path d="M803 370 c0 -25 2 -35 4 -22 2 12 2 32 0 45 -2 12 -4 2 -4 -23z"/><path d="M843 370 c0 -25 2 -35 4 -22 2 12 2 32 0 45 -2 12 -4 2 -4 -23z"/><path d="M590 366 c0 -2 8 -10 18 -17 15 -13 16 -12 3 4 -13 16 -21 21 -21 13z"/><path d="M1418 353 c6 -2 18 -2 25 0 6 3 1 5 -13 5 -14 0 -19 -2 -12 -5z"/><path d="M448 323 c6 -2 18 -2 25 0 6 3 1 5 -13 5 -14 0 -19 -2 -12 -5z"/><path d="M1061 274 c0 -11 3 -14 6 -6 3 7 2 16 -1 19 -3 4 -6 -2 -5 -13z"/><path d="M875 200 c-3 -5 -1 -10 4 -10 6 0 11 5 11 10 0 6 -2 10 -4 10 -3 0 -8 -4 -11 -10z"/><path d="M1168 203 c7 -3 16 -2 19 1 4 3 -2 6 -13 5 -11 0 -14 -3 -6 -6z"/><path d="M71 184 c0 -11 3 -14 6 -6 3 7 2 16 -1 19 -3 4 -6 -2 -5 -13z"/><path d="M261 184 c0 -11 3 -14 6 -6 3 7 2 16 -1 19 -3 4 -6 -2 -5 -13z"/><path d="M830 176 c0 -2 7 -6 15 -10 8 -3 15 -1 15 4 0 6 -7 10 -15 10 -8 0 -15 -2 -15 -4z"/><path d="M1471 164 c0 -11 3 -14 6 -6 3 7 2 16 -1 19 -3 4 -6 -2 -5 -13z"/><path d="M1605 161 c-3 -5 -2 -12 3 -15 5 -3 9 1 9 9 0 17 -3 19 -12 6z"/><path d="M262 130 c0 -14 2 -19 5 -12 2 6 2 18 0 25 -3 6 -5 1 -5 -13z"/><path d="M872 110 c0 -14 2 -19 5 -12 2 6 2 18 0 25 -3 6 -5 1 -5 -13z"/><path d="M1141 114 c0 -11 3 -14 6 -6 3 7 2 16 -1 19 -3 4 -6 -2 -5 -13z"/><path d="M490 101 c0 -6 4 -13 10 -16 6 -3 7 1 4 9 -7 18 -14 21 -14 7z"/><path d="M1336 93 c-6 -14 -5 -15 5 -6 7 7 10 15 7 18 -3 3 -9 -2 -12 -12z"/><path d="M1508 93 c7 -3 16 -2 19 1 4 3 -2 6 -13 5 -11 0 -14 -3 -6 -6z"/></g><g transform="translate(0.000000,77.000000) scale(0.100000,-0.100000)" fill="#857F79" stroke="none"><path d="M83 525 c0 -27 2 -38 4 -22 2 15 2 37 0 50 -2 12 -4 0 -4 -28z"/><path d="M722 530 c0 -14 2 -19 5 -12 2 6 2 18 0 25 -3 6 -5 1 -5 -13z"/><path d="M825 540 c-16 -7 -17 -9 -3 -9 9 -1 20 4 23 9 7 11 7 11 -20 0z"/><path d="M510 506 c0 -2 8 -10 18 -17 15 -13 16 -12 3 4 -13 16 -21 21 -21 13z"/><path d="M841 494 c0 -11 3 -14 6 -6 3 7 2 16 -1 19 -3 4 -6 -2 -5 -13z"/><path d="M842 435 c0 -16 2 -22 5 -12 2 9 2 23 0 30 -3 6 -5 -1 -5 -18z"/><path d="M84 375 c1 -42 4 -50 21 -52 15 -1 15 0 3 3 -12 4 -18 19 -21 52 l-4 47 1 -50z"/><path d="M1331 414 c0 -11 3 -14 6 -6 3 7 2 16 -1 19 -3 4 -6 -2 -5 -13z"/><path d="M291 373 c-1 -23 3 -44 7 -47 4 -2 6 12 4 32 -5 56 -10 62 -11 15z"/><path d="M1465 330 c-3 -6 1 -7 9 -4 18 7 21 14 7 14 -6 0 -13 -4 -16 -10z"/><path d="M1408 313 c7 -3 16 -2 19 1 4 3 -2 6 -13 5 -11 0 -14 -3 -6 -6z"/><path d="M1021 284 c0 -11 3 -14 6 -6 3 7 2 16 -1 19 -3 4 -6 -2 -5 -13z"/><path d="M1600 260 c-23 -7 -23 -8 -3 -9 12 -1 25 4 28 9 3 6 5 10 3 9 -2 -1 -14 -5 -28 -9z"/><path d="M1341 190 c14 -31 19 -36 19 -24 0 6 -7 19 -16 30 -14 18 -14 18 -3 -6z"/><path d="M1475 199 c-4 -6 -5 -12 -2 -15 2 -3 7 2 10 11 7 17 1 20 -8 4z"/><path d="M1665 169 c-4 -6 -5 -12 -2 -15 2 -3 7 2 10 11 7 17 1 20 -8 4z"/><path d="M73 130 c0 -25 2 -35 4 -22 2 12 2 32 0 45 -2 12 -4 2 -4 -23z"/><path d="M471 134 c0 -11 3 -14 6 -6 3 7 2 16 -1 19 -3 4 -6 -2 -5 -13z"/><path d="M682 120 c0 -19 2 -27 5 -17 2 9 2 25 0 35 -3 9 -5 1 -5 -18z"/><path d="M1592 130 c0 -14 2 -19 5 -12 2 6 2 18 0 25 -3 6 -5 1 -5 -13z"/><path d="M1341 124 c0 -11 3 -14 6 -6 3 7 2 16 -1 19 -3 4 -6 -2 -5 -13z"/><path d="M958 123 c7 -3 16 -2 19 1 4 3 -2 6 -13 5 -11 0 -14 -3 -6 -6z"/><path d="M1552 105 c0 -16 2 -22 5 -12 2 9 2 23 0 30 -3 6 -5 -1 -5 -18z"/><path d="M241 104 c0 -11 3 -14 6 -6 3 7 2 16 -1 19 -3 4 -6 -2 -5 -13z"/><path d="M1471 104 c0 -11 3 -14 6 -6 3 7 2 16 -1 19 -3 4 -6 -2 -5 -13z"/></g><g transform="translate(0.000000,77.000000) scale(0.100000,-0.100000)" fill="#ACA59F" stroke="none"><path d="M1522 475 c0 -16 2 -22 5 -12 2 9 2 23 0 30 -3 6 -5 -1 -5 -18z"/><path d="M668 473 c7 -3 16 -2 19 1 4 3 -2 6 -13 5 -11 0 -14 -3 -6 -6z"/><path d="M621 424 c0 -11 3 -14 6 -6 3 7 2 16 -1 19 -3 4 -6 -2 -5 -13z"/><path d="M1522 400 c0 -19 2 -27 5 -17 2 9 2 25 0 35 -3 9 -5 1 -5 -18z"/><path d="M458 363 c7 -3 16 -2 19 1 4 3 -2 6 -13 5 -11 0 -14 -3 -6 -6z"/><path d="M1520 338 c0 -9 -6 -19 -12 -21 -10 -4 -10 -6 0 -6 14 -1 28 26 18 36 -3 4 -6 -1 -6 -9z"/><path d="M242 150 c0 -19 2 -27 5 -17 2 9 2 25 0 35 -3 9 -5 1 -5 -18z"/><path d="M1638 153 c7 -3 16 -2 19 1 4 3 -2 6 -13 5 -11 0 -14 -3 -6 -6z"/><path d="M280 131 c0 -11 4 -22 9 -25 4 -3 6 6 3 19 -5 30 -12 33 -12 6z"/><path d="M701 134 c0 -11 3 -14 6 -6 3 7 2 16 -1 19 -3 4 -6 -2 -5 -13z"/><path d="M1492 125 c0 -16 2 -22 5 -12 2 9 2 23 0 30 -3 6 -5 -1 -5 -18z"/><path d="M92 120 c0 -14 2 -19 5 -12 2 6 2 18 0 25 -3 6 -5 1 -5 -13z"/><path d="M661 114 c0 -11 3 -14 6 -6 3 7 2 16 -1 19 -3 4 -6 -2 -5 -13z"/><path d="M980 118 c0 -4 4 -8 9 -8 6 0 12 4 15 8 3 5 -1 9 -9 9 -8 0 -15 -4 -15 -9z"/><path d="M1571 94 c0 -11 3 -14 6 -6 3 7 2 16 -1 19 -3 4 -6 -2 -5 -13z"/><path d="M1257 89 c7 -7 15 -10 18 -7 3 3 -2 9 -12 12 -14 6 -15 5 -6 -5z"/></g><g transform="translate(0.000000,77.000000) scale(0.100000,-0.100000)" fill="#CCCCC5" stroke="none"><path d="M1408 513 c6 -2 18 -2 25 0 6 3 1 5 -13 5 -14 0 -19 -2 -12 -5z"/><path d="M1233 460 c0 -30 2 -43 4 -27 2 15 2 39 0 55 -2 15 -4 2 -4 -28z"/><path d="M948 458 c5 -5 16 -8 23 -6 8 3 3 7 -10 11 -17 4 -21 3 -13 -5z"/><path d="M1428 463 c7 -3 16 -2 19 1 4 3 -2 6 -13 5 -11 0 -14 -3 -6 -6z"/><path d="M571 424 c0 -11 3 -14 6 -6 3 7 2 16 -1 19 -3 4 -6 -2 -5 -13z"/><path d="M1280 373 c-3 -34 -1 -58 3 -54 5 4 7 32 5 62 l-3 54 -5 -62z"/><path d="M1211 404 c0 -11 3 -14 6 -6 3 7 2 16 -1 19 -3 4 -6 -2 -5 -13z"/><path d="M883 383 c9 -2 23 -2 30 0 6 3 -1 5 -18 5 -16 0 -22 -2 -12 -5z"/><path d="M1231 374 c0 -11 3 -14 6 -6 3 7 2 16 -1 19 -3 4 -6 -2 -5 -13z"/><path d="M1118 363 c7 -3 16 -2 19 1 4 3 -2 6 -13 5 -11 0 -14 -3 -6 -6z"/><path d="M590 356 c0 -2 8 -10 18 -17 15 -13 16 -12 3 4 -13 16 -21 21 -21 13z"/><path d="M1340 356 c0 -2 8 -10 18 -17 15 -13 16 -12 3 4 -13 16 -21 21 -21 13z"/><path d="M923 313 c9 -2 23 -2 30 0 6 3 -1 5 -18 5 -16 0 -22 -2 -12 -5z"/><path d="M93 175 c0 -22 2 -30 4 -17 2 12 2 30 0 40 -3 9 -5 -1 -4 -23z"/><path d="M1686 197 c3 -10 9 -15 12 -12 3 3 0 11 -7 18 -10 9 -11 8 -5 -6z"/><path d="M1316 183 c-6 -14 -5 -15 5 -6 7 7 10 15 7 18 -3 3 -9 -2 -12 -12z"/><path d="M1492 175 c0 -16 2 -22 5 -12 2 9 2 23 0 30 -3 6 -5 -1 -5 -18z"/><path d="M588 183 c7 -3 16 -2 19 1 4 3 -2 6 -13 5 -11 0 -14 -3 -6 -6z"/><path d="M748 183 c7 -3 16 -2 19 1 4 3 -2 6 -13 5 -11 0 -14 -3 -6 -6z"/><path d="M1186 177 c3 -10 9 -15 12 -12 3 3 0 11 -7 18 -10 9 -11 8 -5 -6z"/><path d="M643 135 c0 -27 2 -38 4 -22 2 15 2 37 0 50 -2 12 -4 0 -4 -28z"/><path d="M362 148 c7 -15 15 -23 17 -17 2 6 -4 18 -13 27 -15 15 -15 15 -4 -10z"/><path d="M1691 154 c0 -11 3 -14 6 -6 3 7 2 16 -1 19 -3 4 -6 -2 -5 -13z"/><path d="M661 144 c0 -11 3 -14 6 -6 3 7 2 16 -1 19 -3 4 -6 -2 -5 -13z"/><path d="M894 139 c-3 -6 -2 -15 3 -20 5 -5 9 -1 9 11 0 23 -2 24 -12 9z"/><path d="M938 143 c6 -2 18 -2 25 0 6 3 1 5 -13 5 -14 0 -19 -2 -12 -5z"/><path d="M1572 130 c0 -14 2 -19 5 -12 2 6 2 18 0 25 -3 6 -5 1 -5 -13z"/><path d="M600 110 c-9 -6 -10 -10 -3 -10 6 0 15 5 18 10 8 12 4 12 -15 0z"/><path d="M1162 100 c0 -14 2 -19 5 -12 2 6 2 18 0 25 -3 6 -5 1 -5 -13z"/><path d="M1691 104 c0 -11 3 -14 6 -6 3 7 2 16 -1 19 -3 4 -6 -2 -5 -13z"/><path d="M1375 99 c-4 -6 -5 -12 -2 -15 2 -3 7 2 10 11 7 17 1 20 -8 4z"/><path d="M1638 73 c12 -2 30 -2 40 0 9 3 -1 5 -23 4 -22 0 -30 -2 -17 -4z"/></g><g transform="translate(0.000000,77.000000) scale(0.100000,-0.100000)" fill="#F2EBEB" stroke="none"><path d="M240 566 c0 -2 7 -7 16 -10 8 -3 12 -2 9 4 -6 10 -25 14 -25 6z"/><path d="M774 445 c-1 -95 0 -101 6 -45 4 36 10 76 14 90 5 20 5 21 -3 5 -7 -17 -9 -13 -13 20 -2 22 -4 -9 -4 -70z"/><path d="M476 532 c-3 -6 3 -12 14 -15 11 -3 23 0 27 6 3 7 3 9 -2 5 -4 -4 -14 -3 -21 3 -7 6 -15 6 -18 1z"/><path d="M1009 503 c-17 -20 -18 -23 -3 -10 11 9 31 17 45 17 19 0 21 2 9 10 -21 14 -24 13 -51 -17z"/><path d="M968 513 c7 -3 16 -2 19 1 4 3 -2 6 -13 5 -11 0 -14 -3 -6 -6z"/><path d="M1175 500 c21 -24 26 -25 19 -6 -3 8 -13 17 -22 21 -13 5 -13 2 3 -15z"/><path d="M1548 513 c6 -2 18 -2 25 0 6 3 1 5 -13 5 -14 0 -19 -2 -12 -5z"/><path d="M1345 500 c-3 -5 -1 -10 4 -10 6 0 11 5 11 10 0 6 -2 10 -4 10 -3 0 -8 -4 -11 -10z"/><path d="M340 464 c0 -29 3 -35 10 -24 8 12 10 10 11 -10 0 -14 3 -19 6 -12 3 7 2 20 -3 30 -4 9 -8 23 -10 30 -6 31 -14 23 -14 -14z"/><path d="M1316 473 c-6 -14 -5 -15 5 -6 7 7 10 15 7 18 -3 3 -9 -2 -12 -12z"/><path d="M131 464 c0 -11 3 -14 6 -6 3 7 2 16 -1 19 -3 4 -6 -2 -5 -13z"/><path d="M1620 474 c0 -13 18 -39 24 -34 2 3 -2 14 -10 24 -8 11 -14 16 -14 10z"/><path d="M432 453 c-9 -9 -3 -12 28 -10 22 1 39 6 37 11 -5 14 -52 13 -65 -1z"/><path d="M936 457 c3 -10 9 -15 12 -12 3 3 0 11 -7 18 -10 9 -11 8 -5 -6z"/><path d="M1107 453 c3 -7 6 -13 8 -13 2 0 5 6 8 13 3 8 -1 14 -8 14 -7 0 -11 -6 -8 -14z"/><path d="M1446 445 c4 -8 8 -15 10 -15 2 0 4 7 4 15 0 8 -4 15 -10 15 -5 0 -7 -7 -4 -15z"/><path d="M1535 450 c3 -5 11 -10 16 -10 6 0 7 5 4 10 -3 6 -11 10 -16 10 -6 0 -7 -4 -4 -10z"/><path d="M132 415 c0 -16 2 -22 5 -12 2 9 2 23 0 30 -3 6 -5 -1 -5 -18z"/><path d="M984 428 c3 -15 26 -23 26 -8 0 6 -4 9 -9 6 -5 -4 -12 -1 -14 4 -3 6 -4 5 -3 -2z"/><path d="M1540 415 c0 -8 4 -15 10 -15 5 0 7 7 4 15 -4 8 -8 15 -10 15 -2 0 -4 -7 -4 -15z"/><path d="M1625 420 c3 -5 8 -10 11 -10 2 0 4 5 4 10 0 6 -5 10 -11 10 -5 0 -7 -4 -4 -10z"/><path d="M265 410 c4 -7 2 -15 -4 -20 -9 -5 -8 -10 4 -20 13 -11 15 -9 15 13 0 14 -5 29 -12 33 -7 5 -8 3 -3 -6z"/><path d="M342 385 c0 -16 2 -22 5 -12 2 9 2 23 0 30 -3 6 -5 -1 -5 -18z"/><path d="M907 399 c7 -7 15 -10 18 -7 3 3 -2 9 -12 12 -14 6 -15 5 -6 -5z"/><path d="M1380 399 c0 -5 5 -7 10 -4 6 3 10 8 10 11 0 2 -4 4 -10 4 -5 0 -10 -5 -10 -11z"/><path d="M445 393 c11 -3 26 -10 34 -17 11 -8 13 -8 8 0 -5 8 4 11 26 10 24 -2 32 -6 30 -20 -1 -12 2 -15 9 -8 6 6 18 8 27 5 14 -6 14 -4 -2 14 -14 16 -30 20 -85 21 -37 0 -58 -2 -47 -5z"/><path d="M630 396 c0 -2 8 -10 18 -17 15 -13 16 -12 3 4 -13 16 -21 21 -21 13z"/><path d="M1002 380 c0 -14 2 -19 5 -12 2 6 2 18 0 25 -3 6 -5 1 -5 -13z"/><path d="M1136 378 c3 -5 10 -6 15 -3 13 9 11 12 -6 12 -8 0 -12 -4 -9 -9z"/><path d="M1394 378 c-4 -7 -3 -8 4 -4 7 4 12 2 12 -3 0 -6 5 -11 10 -11 15 0 12 17 -5 23 -8 4 -17 1 -21 -5z"/><path d="M1445 379 c-4 -6 -4 -13 -1 -16 3 -4 6 -1 6 6 0 7 5 9 12 5 7 -4 8 -3 4 4 -9 15 -13 15 -21 1z"/><path d="M860 366 c0 -8 4 -17 9 -20 5 -4 7 3 4 14 -6 23 -13 26 -13 6z"/><path d="M132 345 c0 -16 2 -22 5 -12 2 9 2 23 0 30 -3 6 -5 -1 -5 -18z"/><path d="M341 334 c0 -11 3 -14 6 -6 3 7 2 16 -1 19 -3 4 -6 -2 -5 -13z"/><path d="M1231 324 c0 -11 3 -14 6 -6 3 7 2 16 -1 19 -3 4 -6 -2 -5 -13z"/><path d="M620 319 c0 -5 13 -9 29 -9 16 0 38 -3 48 -7 10 -3 15 -3 11 2 -11 11 -88 24 -88 14z"/><path d="M710 326 c0 -2 7 -7 16 -10 8 -3 12 -2 9 4 -6 10 -25 14 -25 6z"/><path d="M765 320 c-3 -5 -1 -10 4 -10 6 0 11 5 11 10 0 6 -2 10 -4 10 -3 0 -8 -4 -11 -10z"/><path d="M1466 322 c-3 -6 -1 -14 5 -17 15 -10 25 3 12 16 -7 7 -13 7 -17 1z"/><path d="M443 313 c9 -2 23 -2 30 0 6 3 -1 5 -18 5 -16 0 -22 -2 -12 -5z"/><path d="M260 216 c0 -2 7 -7 16 -10 8 -3 12 -2 9 4 -6 10 -25 14 -25 6z"/><path d="M962 194 c-7 -8 -8 -14 -3 -14 10 0 25 19 20 25 -2 1 -10 -3 -17 -11z"/><path d="M166 188 c3 -4 9 -8 15 -8 5 0 9 4 9 8 0 5 -7 9 -15 9 -8 0 -12 -4 -9 -9z"/><path d="M386 192 c-3 -5 1 -9 9 -9 8 0 12 4 9 9 -3 4 -7 8 -9 8 -2 0 -6 -4 -9 -8z"/><path d="M635 190 c-3 -5 -1 -10 4 -10 6 0 11 5 11 10 0 6 -2 10 -4 10 -3 0 -8 -4 -11 -10z"/><path d="M695 191 c-3 -5 -2 -12 3 -15 5 -3 9 1 9 9 0 17 -3 19 -12 6z"/><path d="M900 191 c0 -7 -5 -9 -12 -5 -7 5 -8 3 -3 -5 5 -9 10 -10 18 -2 6 6 8 14 4 18 -4 3 -7 1 -7 -6z"/><path d="M1062 191 c-11 -7 -11 -9 0 -14 9 -3 15 1 15 9 0 8 -1 14 -1 14 -1 0 -7 -4 -14 -9z"/><path d="M546 175 c-11 -8 -16 -15 -10 -15 5 0 18 7 28 15 11 8 16 15 10 15 -5 0 -18 -7 -28 -15z"/><path d="M990 180 c0 -5 5 -10 11 -10 5 0 7 -5 3 -12 -4 -7 -3 -8 5 -4 9 6 9 11 0 22 -14 17 -19 18 -19 4z"/><path d="M1167 183 c-13 -13 -7 -33 11 -33 13 0 14 2 3 9 -7 5 -10 14 -7 20 8 12 3 15 -7 4z"/><path d="M1577 179 c7 -7 15 -10 18 -7 3 3 -2 9 -12 12 -14 6 -15 5 -6 -5z"/><path d="M51 154 c0 -11 3 -14 6 -6 3 7 2 16 -1 19 -3 4 -6 -2 -5 -13z"/><path d="M849 153 c-13 -16 -12 -17 4 -4 16 13 21 21 13 21 -2 0 -10 -8 -17 -17z"/><path d="M405 150 c-6 -9 1 -14 18 -11 4 0 7 -4 7 -11 0 -6 2 -9 5 -6 7 7 -5 38 -15 38 -5 0 -12 -4 -15 -10z"/><path d="M1306 152 c-3 -5 1 -9 9 -9 8 0 12 4 9 9 -3 4 -7 8 -9 8 -2 0 -6 -4 -9 -8z"/><path d="M513 115 c0 -22 2 -30 4 -17 2 12 2 30 0 40 -3 9 -5 -1 -4 -23z"/><path d="M531 124 c0 -11 3 -14 6 -6 3 7 2 16 -1 19 -3 4 -6 -2 -5 -13z"/><path d="M1223 133 c-15 -5 -17 -23 -4 -23 5 0 11 7 15 15 3 8 4 15 3 14 -1 0 -8 -3 -14 -6z"/><path d="M1657 133 c-4 -3 -7 -11 -7 -17 0 -6 5 -5 12 2 6 6 9 14 7 17 -3 3 -9 2 -12 -2z"/><path d="M200 121 c0 -7 -4 -9 -10 -6 -5 3 -10 1 -10 -4 0 -6 4 -11 9 -11 13 0 25 20 17 27 -3 4 -6 1 -6 -6z"/><path d="M560 126 c0 -2 8 -10 18 -17 15 -13 16 -12 3 4 -13 16 -21 21 -21 13z"/><path d="M734 119 c-4 -7 -3 -9 4 -5 5 3 12 0 15 -6 2 -7 7 -10 11 -7 4 3 0 12 -8 18 -11 9 -16 9 -22 0z"/><path d="M354 98 l-19 -23 23 19 c21 18 27 26 19 26 -2 0 -12 -10 -23 -22z"/><path d="M810 120 c-8 -26 -7 -41 2 -32 6 6 8 16 5 24 -3 7 -6 11 -7 8z"/><path d="M891 104 c0 -11 3 -14 6 -6 3 7 2 16 -1 19 -3 4 -6 -2 -5 -13z"/><path d="M1322 100 c0 -14 2 -19 5 -12 2 6 2 18 0 25 -3 6 -5 1 -5 -13z"/><path d="M1715 100 c-3 -6 1 -7 9 -4 18 7 21 14 7 14 -6 0 -13 -4 -16 -10z"/><path d="M910 90 c0 -5 5 -10 11 -10 5 0 7 5 4 10 -3 6 -8 10 -11 10 -2 0 -4 -4 -4 -10z"/><path d="M1593 87 c0 -8 6 -14 14 -14 9 0 10 4 2 14 -6 7 -12 13 -14 13 -1 0 -2 -6 -2 -13z"/><path d="M150 80 c-9 -6 -10 -10 -3 -10 6 0 15 5 18 10 8 12 4 12 -15 0z"/><path d="M948 73 c7 -3 16 -2 19 1 4 3 -2 6 -13 5 -11 0 -14 -3 -6 -6z"/><path d="M1030 76 c0 -2 7 -7 16 -10 8 -3 12 -2 9 4 -6 10 -25 14 -25 6z"/><path d="M1508 73 c6 -2 18 -2 25 0 6 3 1 5 -13 5 -14 0 -19 -2 -12 -5z"/></g><g transform="translate(0.000000,77.000000) scale(0.100000,-0.100000)" fill="#FFFFF8" stroke="none"><path d="M90 601 c0 -15 27 -20 39 -8 8 8 11 8 11 -2 0 -7 4 -10 9 -7 10 7 33 -49 24 -58 -3 -3 2 -9 11 -12 12 -5 14 -9 6 -14 -15 -9 -2 -40 17 -40 11 0 13 -3 5 -13 -6 -7 -7 -19 -3 -26 8 -12 14 2 26 59 8 38 11 45 20 52 6 5 4 8 -5 8 -13 0 -13 1 0 10 13 8 13 10 1 10 -11 0 -9 4 5 15 10 8 15 15 9 15 -5 0 -3 5 5 11 10 7 11 9 2 7 -8 -2 -13 -7 -12 -12 1 -5 -5 -13 -14 -18 -10 -6 -16 -23 -16 -47 0 -27 -5 -41 -16 -45 -9 -4 -19 -4 -22 -1 -3 3 0 5 6 5 15 0 16 36 2 45 -6 4 -8 15 -5 24 4 12 -3 21 -22 30 -35 16 -83 23 -83 12z"/><path d="M300 594 l-25 -15 25 7 c28 7 35 12 29 18 -2 2 -15 -2 -29 -10z"/><path d="M344 570 c0 -21 3 -37 7 -34 4 2 11 0 14 -6 4 -6 1 -9 -7 -8 -8 2 -12 -5 -10 -17 2 -11 3 -31 3 -45 -2 -79 1 -115 10 -118 6 -3 6 -9 -1 -17 -15 -18 -1 -25 61 -31 28 -2 55 -6 60 -9 10 -6 69 23 81 40 9 12 44 -8 41 -23 -2 -6 14 -8 40 -5 51 6 62 13 19 13 -21 0 -41 10 -62 30 -31 31 -50 32 -50 4 0 -8 -4 -12 -10 -9 -5 3 -10 1 -10 -5 0 -6 -4 -8 -10 -5 -5 3 -10 0 -10 -8 0 -8 -7 -18 -16 -21 -14 -6 -15 -4 -4 9 12 14 10 15 -13 10 -32 -8 -85 13 -93 37 -3 10 -8 18 -12 18 -12 0 -13 70 -1 92 6 12 12 40 14 64 2 33 -3 48 -19 63 l-21 20 -1 -39z"/><path d="M736 601 c-3 -4 6 -8 20 -9 13 -1 24 0 24 2 0 7 -40 14 -44 7z"/><path d="M783 577 c-7 -14 -7 -30 -3 -37 5 -8 6 -18 4 -22 -6 -9 10 -11 19 -2 3 3 2 16 -3 28 -9 25 -3 40 20 49 11 4 9 6 -6 6 -13 1 -25 -8 -31 -22z"/><path d="M698 578 c-6 -16 2 -58 11 -58 3 0 6 16 7 35 0 34 -10 47 -18 23z"/><path d="M867 583 c-4 -3 -7 -11 -7 -17 0 -6 5 -5 12 2 6 6 9 14 7 17 -3 3 -9 2 -12 -2z"/><path d="M1825 580 c-3 -5 -1 -10 4 -10 6 0 11 5 11 10 0 6 -2 10 -4 10 -3 0 -8 -4 -11 -10z"/><path d="M52 553 c-12 -23 -15 -103 -5 -103 5 0 9 -10 9 -22 1 -120 5 -125 98 -131 42 -3 56 -1 56 9 0 8 -5 13 -11 11 -6 -1 -18 21 -26 48 -22 74 -35 80 -27 12 l7 -58 -39 3 -39 3 -1 118 c-1 120 -5 143 -22 110z m5 -85 c-3 -8 -6 -5 -6 6 -1 11 2 17 5 13 3 -3 4 -12 1 -19z"/><path d="M1830 560 c-8 -5 -12 -11 -10 -14 8 -7 60 6 60 15 0 12 -31 11 -50 -1z"/><path d="M495 530 c11 -12 27 -19 36 -17 11 3 16 0 13 -7 -6 -15 21 -68 29 -59 4 3 2 12 -4 20 -9 10 -8 13 0 13 19 0 43 28 31 35 -5 3 -10 1 -10 -6 0 -8 -6 -6 -18 4 -10 9 -28 15 -40 12 -12 -2 -22 0 -22 5 0 4 -8 11 -17 14 -14 6 -14 4 2 -14z"/><path d="M860 538 c0 -3 -8 -9 -17 -11 -15 -4 -15 -5 -2 -6 12 -1 15 -8 11 -26 -3 -16 0 -25 8 -25 7 0 10 7 6 17 -4 10 -4 14 0 10 4 -3 15 3 25 14 11 12 25 19 34 15 8 -3 15 -1 15 3 0 5 -18 11 -40 13 -22 2 -40 0 -40 -4z"/><path d="M1243 535 c-23 -7 -44 -10 -47 -7 -6 5 0 -28 9 -59 9 -28 25 -23 25 9 0 38 10 47 50 47 19 0 38 -4 42 -10 9 -13 48 -15 48 -3 0 5 4 7 8 4 4 -2 14 0 22 6 11 7 6 8 -17 4 -23 -4 -33 -2 -33 7 0 17 -56 18 -107 2z"/><path d="M675 530 c3 -5 8 -10 11 -10 2 0 4 5 4 10 0 6 -5 10 -11 10 -5 0 -7 -4 -4 -10z"/><path d="M1150 530 c8 -5 20 -10 25 -10 6 0 3 5 -5 10 -8 5 -19 10 -25 10 -5 0 -3 -5 5 -10z"/><path d="M406 519 c4 -7 44 0 44 7 0 2 -11 3 -24 2 -14 -1 -23 -5 -20 -9z"/><path d="M616 518 c3 -5 10 -6 15 -3 13 9 11 12 -6 12 -8 0 -12 -4 -9 -9z"/><path d="M958 523 c7 -3 16 -2 19 1 4 3 -2 6 -13 5 -11 0 -14 -3 -6 -6z"/><path d="M987 516 c-3 -8 1 -20 9 -26 19 -17 18 -27 -6 -35 -19 -6 -29 -26 -12 -24 22 4 34 -3 29 -16 -4 -8 -2 -17 3 -20 14 -8 10 97 -4 114 -8 11 -8 13 1 8 6 -4 14 -3 18 3 3 5 -3 10 -13 10 -11 0 -22 -6 -25 -14z"/><path d="M1446 518 c7 -11 34 -10 34 1 0 6 -9 9 -19 8 -11 0 -17 -5 -15 -9z"/><path d="M1490 520 c0 -7 6 -10 14 -7 7 3 19 0 26 -6 10 -9 11 -9 8 3 -5 18 -48 26 -48 10z"/><path d="M1570 520 c20 -13 33 -13 25 0 -3 6 -14 10 -23 10 -15 0 -15 -2 -2 -10z"/><path d="M1607 518 c-8 -22 2 -50 14 -42 5 3 9 1 9 -5 0 -5 -5 -13 -10 -16 -11 -7 -4 -25 10 -25 5 0 7 6 4 14 -3 8 -1 17 5 21 6 3 11 15 11 26 0 24 21 33 55 25 23 -6 36 -36 16 -36 -5 0 -7 -8 -4 -19 3 -11 -2 -21 -11 -24 -9 -4 -13 -13 -10 -21 3 -8 -3 -27 -13 -42 -10 -15 -16 -36 -15 -46 2 -10 -4 -21 -12 -24 -9 -3 -13 -11 -10 -16 4 -6 1 -14 -6 -18 -8 -5 -9 -10 -1 -14 14 -9 51 52 51 84 0 20 2 22 11 10 9 -12 10 -11 6 8 -3 12 -2 22 1 22 4 0 8 10 8 23 1 13 11 44 23 69 23 50 27 72 10 48 -8 -11 -12 -12 -16 -2 -3 7 -24 12 -54 12 -44 0 -49 -2 -50 -22 -1 -22 -1 -22 -8 2 -6 21 -8 22 -14 8z"/><path d="M1900 510 c0 -5 5 -10 10 -10 6 0 10 5 10 10 0 6 -4 10 -10 10 -5 0 -10 -4 -10 -10z"/><path d="M1876 493 c-3 -4 -5 -25 -5 -47 1 -23 4 -31 6 -18 2 12 11 22 19 22 18 0 18 36 0 43 -8 3 -17 3 -20 0z"/><path d="M770 473 c0 -7 4 -14 8 -17 4 -2 7 -26 6 -53 -3 -99 1 -92 -46 -87 -33 4 -40 2 -31 -7 13 -13 193 -24 193 -11 0 4 -12 24 -26 43 -25 32 -26 32 -20 8 6 -26 -17 -60 -31 -45 -3 3 0 6 8 7 8 1 3 4 -10 8 -23 6 -25 11 -22 64 2 39 -2 64 -13 79 -9 12 -16 17 -16 11z"/><path d="M1098 463 c-23 -6 -33 -45 -18 -72 13 -25 52 -28 70 -6 10 13 9 15 -8 15 -12 0 -24 5 -27 10 -4 7 3 9 18 6 19 -3 24 0 23 12 -3 20 -36 40 -58 35z"/><path d="M1314 462 c-6 -4 -12 -32 -13 -62 -3 -66 -22 -101 -51 -93 -16 4 -20 14 -20 44 0 22 -4 39 -9 39 -5 0 -7 -8 -4 -19 3 -10 0 -22 -6 -25 -6 -4 -11 -12 -11 -17 0 -6 4 -7 10 -4 5 3 7 0 4 -8 -3 -9 3 -17 18 -21 36 -9 68 -7 68 5 0 11 24 39 34 39 2 0 6 -10 8 -22 2 -17 11 -23 36 -25 37 -3 43 12 8 21 -14 3 -31 21 -42 43 -21 43 -23 59 -12 91 8 22 2 28 -18 14z"/><path d="M645 452 c-14 -9 -11 -48 5 -67 12 -15 35 -16 58 -2 15 10 16 37 1 37 -6 0 -9 -6 -6 -14 3 -8 -2 -16 -14 -19 -16 -4 -19 0 -19 24 0 26 3 29 25 23 14 -3 25 -2 25 4 0 17 -57 28 -75 14z"/><path d="M1405 450 c-11 -5 -16 -9 -11 -9 5 -1 3 -8 -4 -16 -9 -11 -9 -15 -1 -15 7 0 9 -4 6 -10 -3 -5 -1 -10 5 -10 6 0 8 -5 4 -12 -4 -7 -3 -8 4 -4 7 4 9 18 6 32 -5 21 -3 25 12 22 11 -2 19 3 19 11 0 18 -14 22 -40 11z"/><path d="M269 424 c-5 -15 -7 -29 -4 -32 3 -3 5 1 5 9 0 11 2 11 10 -1 7 -11 10 -7 10 18 0 39 -7 41 -21 6z"/><path d="M855 440 c-3 -5 -2 -10 2 -10 5 0 9 -9 10 -20 1 -11 -2 -18 -8 -15 -5 4 -9 1 -9 -5 0 -7 7 -9 16 -6 9 3 23 6 32 6 16 1 15 2 0 14 -10 7 -18 18 -18 24 0 16 -18 24 -25 12z"/><path d="M1452 430 c-15 -25 -15 -33 1 -25 6 4 4 0 -7 -9 -18 -14 -18 -15 3 -13 24 2 33 19 23 47 -7 20 -7 20 -20 0z"/><path d="M1533 435 c0 -8 4 -12 8 -10 4 3 10 -2 13 -11 4 -11 2 -15 -7 -11 -10 4 -14 -7 -14 -45 -1 -39 2 -48 14 -44 8 3 11 1 8 -5 -4 -5 -15 -7 -26 -4 -11 4 -19 2 -19 -4 0 -6 6 -10 13 -9 8 2 13 -12 15 -39 3 -41 2 -43 -25 -44 -24 -2 -24 -2 -5 -6 19 -4 20 -6 7 -19 -15 -15 -10 -48 6 -38 5 3 9 1 9 -4 0 -6 -7 -13 -16 -16 -8 -3 -12 -10 -9 -16 4 -7 12 -7 25 0 14 8 17 18 13 50 -4 31 -2 41 11 46 10 4 22 0 29 -10 14 -19 68 -17 75 2 2 7 -1 12 -6 12 -6 0 -13 8 -17 19 -3 12 -15 19 -31 19 -14 0 -31 5 -37 11 -8 8 -7 11 4 11 12 0 12 2 -1 10 -12 7 -12 10 -1 10 9 0 11 8 7 24 -3 14 -2 27 3 30 13 8 -12 86 -31 97 -10 5 -15 4 -15 -6z"/><path d="M556 392 c-3 -5 1 -9 9 -9 8 0 15 4 15 9 0 4 -4 8 -9 8 -6 0 -12 -4 -15 -8z"/><path d="M448 379 c13 -5 30 -5 39 -1 10 6 2 9 -24 10 -33 0 -35 -1 -15 -9z"/><path d="M920 386 c0 -2 7 -7 16 -10 8 -3 12 -2 9 4 -6 10 -25 14 -25 6z"/><path d="M251 370 c3 -17 -11 -52 -23 -61 -7 -5 41 -4 71 0 2 1 -2 7 -8 14 -6 8 -9 16 -6 19 3 3 -4 13 -16 24 -16 14 -20 15 -18 4z m29 -24 c0 -3 -4 -8 -10 -11 -5 -3 -10 -1 -10 4 0 6 5 11 10 11 6 0 10 -2 10 -4z"/><path d="M1005 361 c-3 -5 -1 -12 5 -16 5 -3 10 1 10 9 0 18 -6 21 -15 7z"/><path d="M1580 330 c0 -5 5 -10 10 -10 6 0 10 5 10 10 0 6 -4 10 -10 10 -5 0 -10 -4 -10 -10z"/><path d="M974 319 c-3 -6 -21 -9 -39 -7 -23 3 -31 0 -28 -9 4 -10 30 -12 89 -4 15 2 13 31 -2 31 -7 0 -16 -5 -20 -11z"/><path d="M1175 321 c-3 -6 -3 -15 0 -21 4 -6 -1 -7 -11 -3 -11 4 -15 3 -10 -5 12 -19 44 -10 40 11 -4 25 -10 31 -19 18z"/><path d="M315 310 c-3 -5 -2 -10 4 -10 5 0 13 5 16 10 3 6 2 10 -4 10 -5 0 -13 -4 -16 -10z"/><path d="M1070 305 c0 -8 5 -15 10 -15 6 0 11 -15 11 -32 l2 -33 7 35 c6 29 8 31 10 10 l2 -25 7 25 c10 32 4 43 -20 37 -11 -3 -17 -1 -13 4 3 5 0 9 -5 9 -6 0 -11 -7 -11 -15z"/><path d="M1445 300 c-3 -5 3 -10 15 -10 12 0 18 5 15 10 -3 6 -10 10 -15 10 -5 0 -12 -4 -15 -10z"/><path d="M1000 270 c0 -11 2 -20 4 -20 2 0 6 9 9 20 3 11 1 20 -4 20 -5 0 -9 -9 -9 -20z"/><path d="M1066 253 c-5 -16 -10 -22 -14 -16 -5 8 -13 9 -22 2 -13 -8 -13 -10 0 -19 16 -10 8 -13 -27 -10 -13 1 -23 -4 -23 -12 0 -11 -2 -11 -9 0 -4 7 -12 12 -17 11 -29 -5 -54 3 -54 17 0 12 -3 14 -12 6 -7 -5 -33 -14 -57 -19 -25 -4 -47 -15 -49 -23 -3 -9 -1 -11 4 -7 5 5 14 -8 21 -30 9 -28 12 -31 12 -13 -2 45 0 47 34 44 17 -1 26 0 20 3 -7 2 -13 9 -13 15 0 14 43 5 48 -11 3 -9 0 -11 -9 -6 -12 7 -12 6 -1 -6 11 -12 15 -12 23 3 5 9 17 15 27 13 9 -2 17 -4 17 -5 0 -1 15 -3 33 -6 18 -2 32 1 32 7 0 6 9 8 19 4 11 -3 22 -1 26 5 3 5 2 10 -4 10 -7 0 -6 10 1 31 6 16 8 32 5 35 -2 3 -8 -7 -11 -23z"/><path d="M1162 252 c-13 -2 -29 -17 -38 -35 -9 -18 -28 -42 -42 -54 -14 -13 -20 -23 -15 -23 16 0 25 -31 13 -45 -5 -6 -8 -14 -5 -16 11 -12 -44 -3 -58 9 -8 7 -18 9 -21 4 -8 -13 25 -37 56 -40 14 -2 29 2 33 7 3 6 21 11 38 10 27 0 29 -2 12 -9 -16 -7 -17 -9 -3 -9 24 -1 32 17 14 34 -8 8 -13 27 -12 43 2 15 0 35 -5 44 -10 19 22 48 53 48 10 0 18 6 18 14 0 19 -9 23 -38 18z m-42 -87 c0 -8 -4 -15 -10 -15 -5 0 -7 7 -4 15 4 8 8 15 10 15 2 0 4 -7 4 -15z"/><path d="M80 231 c0 -6 4 -13 10 -16 6 -3 7 1 4 9 -7 18 -14 21 -14 7z"/><path d="M1320 230 c0 -5 9 -10 20 -10 11 0 20 5 20 10 0 6 -9 10 -20 10 -11 0 -20 -4 -20 -10z"/><path d="M690 220 c-11 -7 -11 -10 -2 -10 7 0 11 -4 8 -9 -3 -5 1 -14 9 -21 11 -9 15 -9 15 -1 0 7 4 10 9 7 4 -3 17 1 27 9 18 13 16 14 -16 12 -23 -1 -34 2 -32 11 2 14 1 15 -18 2z"/><path d="M245 210 c-4 -6 -11 -8 -16 -5 -5 4 -9 2 -9 -3 0 -20 28 -20 33 -1 6 21 2 25 -8 9z"/><path d="M610 210 c-25 -4 -35 -8 -22 -8 12 -1 22 -6 22 -12 0 -15 12 -12 40 10 14 11 21 19 15 18 -5 0 -30 -4 -55 -8z"/><path d="M111 194 c0 -11 3 -14 6 -6 3 7 2 16 -1 19 -3 4 -6 -2 -5 -13z"/><path d="M145 189 c-4 -11 -4 -23 -1 -27 4 -3 9 3 12 15 4 14 12 20 25 18 10 -2 21 0 24 6 4 5 -7 9 -24 9 -21 0 -32 -6 -36 -21z"/><path d="M357 203 c7 -2 9 -11 6 -19 -7 -19 12 -18 42 2 18 12 28 13 44 4 12 -6 21 -15 21 -21 0 -6 5 -7 11 -4 5 4 9 14 7 23 -2 12 -18 16 -73 17 -38 2 -65 1 -58 -2z"/><path d="M500 199 c0 -5 5 -7 10 -4 6 3 10 8 10 11 0 2 -4 4 -10 4 -5 0 -10 -5 -10 -11z"/><path d="M531 197 c-1 -21 21 -18 27 4 3 12 2 12 -6 0 -8 -11 -10 -11 -15 0 -4 10 -6 8 -6 -4z"/><path d="M1224 195 c11 -8 23 -15 28 -15 4 0 7 -3 7 -7 -3 -21 2 -34 11 -28 6 4 8 11 4 16 -3 6 3 13 14 16 21 5 39 33 22 33 -6 0 -10 -6 -10 -12 0 -8 -3 -9 -8 -3 -9 13 -35 18 -27 5 3 -5 1 -10 -4 -10 -6 0 -11 5 -11 10 0 6 -10 10 -22 10 -22 -1 -23 -1 -4 -15z"/><path d="M1362 171 c0 -22 -2 -44 -6 -49 -3 -6 0 -13 6 -15 10 -4 10 -6 1 -6 -19 -1 -16 -31 3 -31 8 0 13 4 10 9 -8 12 4 41 16 41 6 0 8 -15 6 -34 -3 -25 0 -32 10 -29 7 3 11 12 8 19 -3 8 -1 14 4 14 6 0 10 -5 10 -10 0 -6 6 -9 13 -8 6 2 11 -2 10 -8 -1 -6 5 -11 13 -11 12 0 12 3 1 16 -8 9 -18 23 -22 31 -7 12 -6 13 6 3 12 -10 14 -5 12 35 -4 70 -16 85 -22 28 -4 -32 -11 -51 -21 -53 -13 -4 -13 -3 0 6 13 9 13 11 -1 11 -10 0 -20 15 -28 40 -15 51 -30 51 -29 1z"/><path d="M1705 154 c0 -30 3 -54 8 -54 4 0 7 5 7 11 0 8 4 8 14 0 9 -7 13 -23 10 -39 -4 -18 -2 -24 5 -17 9 10 14 30 12 51 0 7 -10 14 -21 17 -15 4 -20 14 -20 40 0 20 -3 38 -7 40 -5 3 -8 -19 -8 -49z"/><path d="M45 180 c3 -5 8 -10 11 -10 2 0 4 5 4 10 0 6 -5 10 -11 10 -5 0 -7 -4 -4 -10z"/><path d="M112 143 c1 -18 6 -33 10 -33 15 0 16 16 2 40 l-14 25 2 -32z"/><path d="M43 135 c0 -14 3 -25 8 -25 15 0 17 15 4 33 -11 16 -12 15 -12 -8z"/><path d="M186 138 c4 -34 4 -34 15 -15 5 9 7 22 4 27 -11 18 -22 11 -19 -12z"/><path d="M302 151 c-7 -4 -8 -12 -2 -21 7 -10 10 -11 10 -2 0 6 5 12 11 12 5 0 8 -4 4 -9 -3 -5 -2 -12 3 -15 4 -2 8 4 9 14 2 20 -18 32 -35 21z"/><path d="M430 153 c0 -7 -6 -12 -12 -10 -7 1 -13 -5 -13 -13 0 -8 10 -16 23 -18 24 -4 29 12 12 38 -6 10 -10 11 -10 3z"/><path d="M522 123 c3 -38 -17 -58 -33 -32 -6 10 -11 11 -16 3 -5 -5 -19 -17 -32 -26 l-24 -17 32 1 c21 1 28 4 19 9 -10 7 -9 9 4 9 9 0 20 -5 24 -11 4 -8 9 -8 17 0 6 6 19 11 29 11 22 0 23 13 2 31 -10 8 -13 21 -9 36 3 13 1 23 -6 23 -6 0 -9 -15 -7 -37z"/><path d="M573 145 c-18 -20 11 -43 30 -23 15 15 11 38 -6 38 -7 -1 -17 -7 -24 -15z"/><path d="M739 159 c-6 -31 -7 -40 -2 -35 4 3 12 1 20 -5 10 -9 13 -8 13 4 0 12 -29 46 -31 36z"/><path d="M948 153 c7 -3 16 -2 19 1 4 3 -2 6 -13 5 -11 0 -14 -3 -6 -6z"/><path d="M1216 145 c-3 -8 -16 -15 -28 -16 -13 0 -17 -3 -10 -6 10 -4 10 -8 1 -19 -15 -19 7 -47 31 -39 10 3 29 1 43 -4 21 -8 25 -7 20 4 -3 8 -9 13 -13 10 -4 -3 -10 4 -13 15 -3 11 -12 20 -21 20 -9 0 -16 5 -16 11 0 6 6 9 14 6 10 -4 12 0 9 14 -6 23 -9 24 -17 4z"/><path d="M1640 139 c0 -5 -6 -7 -12 -3 -10 6 -10 5 -1 -8 7 -8 10 -18 6 -21 -3 -4 1 -7 10 -7 9 0 19 5 23 12 5 7 3 8 -6 3 -10 -6 -12 -3 -8 13 4 12 2 22 -3 22 -5 0 -9 -5 -9 -11z"/><path d="M841 118 c2 -13 0 -29 -4 -35 -5 -7 -5 -13 0 -13 4 0 1 -5 -7 -10 -9 -6 -10 -10 -3 -10 12 0 43 54 43 77 0 7 -7 13 -16 13 -10 0 -14 -7 -13 -22z"/><path d="M1007 126 c-4 -10 -1 -13 8 -9 8 3 12 9 9 14 -7 12 -11 11 -17 -5z"/><path d="M1300 129 c0 -5 5 -7 10 -4 6 3 10 8 10 11 0 2 -4 4 -10 4 -5 0 -10 -5 -10 -11z"/><path d="M1296 102 c-3 -5 1 -9 9 -9 8 0 15 4 15 9 0 4 -4 8 -9 8 -6 0 -12 -4 -15 -8z"/><path d="M138 88 c-5 -14 -47 -19 -68 -7 -12 5 -16 2 -17 -14 -2 -17 0 -19 7 -7 7 10 13 11 18 5 4 -6 13 -10 20 -9 6 1 21 2 33 3 11 0 18 5 15 10 -4 5 -1 11 6 13 9 3 9 6 1 11 -6 4 -13 2 -15 -5z"/><path d="M349 87 c-13 -10 -14 -15 -3 -24 10 -10 14 -10 17 0 4 9 6 9 6 0 1 -15 41 -18 41 -3 0 6 -7 13 -15 16 -8 4 -12 10 -9 15 8 13 -18 10 -37 -4z"/><path d="M685 84 c-16 -12 -17 -16 -5 -27 10 -9 12 -9 6 1 -8 13 6 17 18 5 12 -12 43 -10 43 3 0 22 -41 33 -62 18z"/><path d="M802 90 c2 -11 -4 -14 -22 -12 -18 1 -21 -1 -11 -7 11 -7 11 -9 0 -14 -8 -2 -2 -4 13 -3 14 0 24 4 22 8 -2 3 2 8 8 11 10 4 10 7 0 18 -11 12 -13 12 -10 -1z"/><path d="M1540 81 c0 -11 4 -22 9 -25 4 -3 6 6 3 19 -5 30 -12 33 -12 6z"/><path d="M637 75 c-12 -11 -17 -12 -20 -2 -4 8 -6 7 -6 -3 -1 -13 -2 -13 -12 0 -9 12 -10 12 -7 1 3 -8 18 -16 34 -18 24 -3 30 0 31 17 2 24 -1 25 -20 5z"/><path d="M896 82 c-10 -10 -6 -23 4 -17 6 4 18 1 26 -6 16 -13 30 -7 20 9 -7 12 -43 22 -50 14z"/><path d="M1580 82 c0 -5 7 -16 16 -23 14 -12 16 -11 13 5 -4 20 -29 35 -29 18z"/><path d="M167 73 c-16 -15 -5 -22 32 -20 48 3 73 24 30 25 -16 0 -29 -4 -29 -9 0 -5 -7 -9 -16 -9 -8 0 -12 5 -9 10 7 11 2 13 -8 3z"/><path d="M282 68 c7 -19 35 -21 35 -3 0 8 -9 15 -19 15 -11 0 -18 -5 -16 -12z"/><path d="M967 67 c-3 -8 3 -13 15 -14 10 -1 18 3 16 9 -6 18 -25 21 -31 5z"/><path d="M1679 64 c-24 -14 -24 -14 9 -12 36 3 50 13 29 21 -7 3 -24 -1 -38 -9z"/><path d="M1348 53 c7 -3 16 -2 19 1 4 3 -2 6 -13 5 -11 0 -14 -3 -6 -6z"/></g><g transform="translate(0.000000,77.000000) scale(0.100000,-0.100000)" fill="#FFFFFF" stroke="none"><path d="M0 385 l0 -385 1000 0 1000 0 0 385 0 385 -1000 0 -1000 0 0 -385z m153 216 c5 -1 5 -6 1 -13 -4 -6 -3 -8 4 -5 18 12 43 -4 37 -23 -3 -10 -1 -21 5 -25 5 -3 10 -14 10 -25 0 -10 6 -20 13 -23 9 -3 11 6 9 35 -4 41 15 78 25 49 5 -11 7 -11 14 0 5 8 23 14 41 14 24 0 32 4 30 15 -2 10 5 7 20 -8 13 -13 23 -35 23 -50 0 -15 4 -27 10 -27 5 0 9 3 8 8 -2 4 15 7 37 7 22 0 40 5 40 10 0 6 13 4 30 -5 18 -9 28 -21 24 -27 -4 -7 -3 -8 5 -4 6 4 9 12 6 17 -10 15 7 10 27 -8 10 -9 18 -11 18 -6 0 6 7 14 16 17 10 4 13 2 8 -7 -6 -9 -4 -9 7 -1 8 6 24 10 36 9 12 -1 20 2 17 7 -3 4 -1 8 5 8 5 0 12 -6 15 -12 3 -7 5 -2 5 12 -2 47 -1 48 46 42 30 -3 45 -1 45 7 0 6 10 11 23 10 21 0 21 -1 2 -10 -17 -8 -16 -9 7 -6 25 4 28 1 29 -27 0 -17 3 -26 5 -21 5 11 84 7 84 -4 0 -4 22 -6 50 -4 27 2 59 -1 71 -8 15 -7 19 -8 15 0 -5 7 8 9 41 6 34 -4 44 -3 33 5 -17 11 -10 13 14 4 9 -3 13 -10 10 -15 -8 -14 20 -11 34 3 10 10 17 10 35 -1 20 -13 21 -13 8 2 -12 15 -11 17 10 19 67 5 89 3 89 -8 0 -7 7 -15 16 -18 8 -3 13 -2 10 3 -3 5 19 8 49 9 34 0 55 -5 55 -12 0 -8 2 -8 8 0 8 13 90 13 110 1 7 -5 12 -3 13 5 1 7 5 2 9 -12 8 -24 8 -24 9 -2 1 20 6 22 51 22 50 0 50 0 45 -27 -3 -16 -2 -21 2 -13 7 17 33 44 33 35 0 -3 -10 -27 -21 -53 -12 -25 -22 -56 -23 -69 0 -13 -4 -23 -8 -23 -3 0 -4 -10 -1 -22 4 -19 3 -20 -6 -8 -9 12 -11 10 -11 -10 0 -31 -37 -93 -50 -85 -16 10 -11 -22 6 -39 8 -9 12 -20 9 -26 -3 -5 -1 -10 4 -10 6 0 11 7 11 15 0 9 9 15 25 15 23 0 25 -4 26 -42 1 -24 1 -46 1 -49 -1 -4 8 -5 18 -2 20 5 25 -4 20 -37 -1 -8 -6 -19 -12 -25 -8 -7 -9 -4 -4 9 6 18 5 19 -11 5 -10 -8 -31 -16 -48 -17 -23 -2 -27 -1 -15 7 12 8 6 11 -22 11 -23 0 -38 -5 -38 -12 0 -9 -3 -9 -12 0 -16 16 -51 16 -42 -1 6 -9 4 -9 -7 1 -7 6 -28 12 -46 12 -18 0 -33 5 -33 12 0 6 -3 8 -6 5 -4 -4 -2 -13 4 -20 9 -10 8 -14 -3 -14 -7 0 -13 3 -12 6 1 3 -2 7 -7 8 -5 1 -13 7 -17 15 -7 10 -9 9 -9 -3 0 -9 -7 -20 -16 -23 -8 -3 -12 -2 -9 4 6 9 -30 15 -62 11 -7 -1 -13 3 -13 9 0 6 -10 10 -23 8 -13 -2 -22 -9 -21 -20 1 -14 -3 -15 -24 -7 -14 5 -32 7 -40 4 -8 -3 -21 0 -29 7 -12 10 -17 9 -24 -5 -6 -9 -18 -17 -27 -16 -14 0 -13 2 3 9 17 7 15 9 -12 9 -17 1 -35 -4 -38 -9 -7 -12 -64 -9 -72 3 -3 5 -9 3 -13 -4 -7 -10 -12 -10 -25 1 -14 12 -18 12 -25 0 -6 -10 -12 -11 -22 -2 -8 6 -23 10 -33 8 -13 -2 -22 4 -26 18 -6 20 -7 19 -17 -6 -6 -16 -17 -28 -24 -27 -10 0 -10 2 0 6 6 2 10 9 7 13 -3 5 -12 7 -20 3 -9 -3 -15 1 -15 8 0 10 -3 10 -12 1 -7 -7 -20 -12 -31 -12 -10 0 -16 -4 -13 -8 6 -10 -30 -9 -40 1 -12 12 -26 8 -19 -5 4 -7 -1 -4 -9 6 -14 18 -21 15 -17 -7 2 -13 -61 -3 -66 11 -6 14 -59 8 -77 -8 -5 -5 -17 -3 -27 3 -14 9 -21 9 -31 -1 -6 -6 -19 -12 -28 -12 -12 0 -12 2 -2 9 11 6 10 10 -4 15 -9 4 -22 1 -28 -5 -8 -9 -8 -10 2 -5 6 4 12 2 12 -3 0 -6 -9 -11 -20 -11 -11 0 -20 6 -20 13 0 8 -4 7 -10 -3 -6 -10 -10 -11 -10 -2 0 6 -9 12 -21 12 -11 0 -17 -5 -14 -10 3 -6 -1 -10 -9 -10 -8 0 -19 6 -23 12 -10 16 -53 19 -47 4 2 -7 -12 -12 -36 -13 -22 -2 -40 1 -40 6 0 5 10 7 23 5 20 -4 20 -4 2 5 -11 4 -24 5 -30 1 -18 -14 -74 -19 -79 -7 -3 8 -8 7 -15 -3 -8 -12 -10 -11 -8 7 0 12 5 19 9 17 4 -3 8 4 8 15 0 13 -5 19 -14 15 -10 -4 -13 5 -12 35 1 49 15 55 17 9 1 -26 2 -28 6 -8 13 88 15 93 24 79 5 -8 9 -39 10 -69 2 -41 3 -46 6 -20 l5 35 13 -25 14 -25 1 27 c0 44 10 58 42 58 16 0 27 -4 24 -9 -3 -5 1 -11 9 -14 10 -4 12 -1 8 11 -3 9 -3 14 2 10 4 -4 14 -3 21 3 16 13 44 5 44 -13 0 -8 12 -13 33 -12 49 2 53 4 39 13 -9 5 -3 8 17 9 17 0 33 -4 36 -9 4 -5 12 -9 18 -9 8 0 7 3 -2 9 -9 6 -4 8 16 7 16 -2 35 -6 41 -10 7 -4 12 -2 12 3 0 6 5 11 11 11 5 0 7 -4 4 -10 -3 -5 -1 -10 4 -10 6 0 11 6 11 13 0 8 3 7 9 -3 6 -8 7 -19 4 -25 -3 -5 0 -4 8 3 7 6 24 12 39 13 l25 1 -25 8 c-23 7 -22 8 10 9 19 1 52 5 73 10 31 7 36 7 27 -4 -9 -11 -3 -13 30 -10 22 2 38 -1 34 -6 -3 -5 -1 -9 5 -9 5 0 12 4 15 9 3 4 25 11 48 15 23 4 49 12 57 19 12 10 13 8 8 -18 -3 -16 -4 -24 -1 -17 3 6 15 12 26 12 18 0 19 -2 7 -17 -12 -16 -12 -17 2 -6 9 7 20 9 24 5 5 -4 5 -1 1 6 -5 9 5 12 41 12 35 0 44 3 33 10 -13 9 -13 11 0 20 10 6 11 10 3 10 -7 0 -13 8 -14 18 0 14 -2 14 -9 -3 -8 -18 -9 -18 -9 5 l-1 25 -199 0 c-110 0 -199 4 -198 8 3 15 -33 33 -41 22 -8 -11 -66 -45 -77 -45 -3 0 -4 4 -1 8 3 5 -12 7 -32 5 -57 -4 -98 10 -94 33 3 17 1 16 -13 -3 -16 -22 -43 -33 -30 -13 3 6 1 10 -4 10 -6 0 -11 -3 -11 -8 0 -4 -18 -7 -39 -7 -23 0 -37 4 -34 10 2 5 -1 3 -9 -6 -9 -11 -27 -14 -66 -12 -90 5 -95 12 -96 131 0 12 -4 22 -9 22 -11 0 -6 80 7 105 9 19 11 18 17 -10 l7 -30 1 33 c1 23 6 32 19 33 10 0 12 3 5 6 -24 9 -13 22 15 18 15 -2 31 -4 35 -4z m119 2 c-6 -2 -9 -10 -6 -15 4 -7 2 -8 -5 -4 -13 9 -5 26 12 25 9 0 8 -2 -1 -6z m58 -3 c0 -5 -8 -10 -17 -10 -15 0 -16 2 -3 10 19 12 20 12 20 0z m450 -6 c0 -2 -11 -3 -24 -2 -14 1 -23 5 -20 9 4 7 44 0 44 -7z m92 -26 c-7 -7 -12 -8 -12 -2 0 14 12 26 19 19 2 -3 -1 -11 -7 -17z m968 12 c0 -5 -5 -10 -11 -10 -5 0 -7 5 -4 10 3 6 8 10 11 10 2 0 4 -4 4 -10z m40 -19 c0 -9 -52 -22 -60 -15 -7 7 23 24 43 24 9 0 17 -4 17 -9z m36 -63 c-3 -13 -6 -29 -6 -35 0 -7 -6 -13 -14 -13 -8 0 -17 -10 -19 -22 -3 -13 -4 -3 -3 22 1 30 5 44 14 43 6 -2 12 4 12 12 0 8 5 15 11 15 7 0 9 -9 5 -22z m-1799 -310 c-3 -8 -6 -5 -6 6 -1 11 2 17 5 13 3 -3 4 -12 1 -19z m686 -125 c3 -5 -6 -9 -20 -10 -19 -1 -22 1 -12 8 17 11 26 11 32 2z m564 -9 c-3 -3 -12 -4 -19 -1 -8 3 -5 6 6 6 11 1 17 -2 13 -5z"/><path d="M125 590 c-3 -5 -1 -10 4 -10 6 0 11 5 11 10 0 6 -2 10 -4 10 -3 0 -8 -4 -11 -10z"/><path d="M712 550 c0 -14 2 -19 5 -12 2 6 2 18 0 25 -3 6 -5 1 -5 -13z"/><path d="M908 523 c7 -3 16 -2 19 1 4 3 -2 6 -13 5 -11 0 -14 -3 -6 -6z"/><path d="M1653 505 c-3 -9 -3 -19 1 -22 3 -4 6 1 6 10 0 8 6 18 13 20 9 4 9 6 -1 6 -7 1 -15 -6 -19 -14z"/><path d="M1333 485 c0 -8 4 -12 9 -9 5 3 6 10 3 15 -9 13 -12 11 -12 -6z"/><path d="M51 474 c0 -11 3 -14 6 -6 3 7 2 16 -1 19 -3 4 -6 -2 -5 -13z"/><path d="M72 460 c0 -19 2 -27 5 -17 2 9 2 25 0 35 -3 9 -5 1 -5 -18z"/><path d="M786 455 c-9 -26 -7 -32 5 -12 6 10 9 21 6 23 -2 3 -7 -2 -11 -11z"/><path d="M850 454 c0 -8 5 -12 10 -9 6 3 10 10 10 16 0 5 -4 9 -10 9 -5 0 -10 -7 -10 -16z"/><path d="M1706 455 c-3 -8 -1 -15 4 -15 6 0 10 7 10 15 0 8 -2 15 -4 15 -2 0 -6 -7 -10 -15z"/><path d="M1221 434 c0 -11 3 -14 6 -6 3 7 2 16 -1 19 -3 4 -6 -2 -5 -13z"/><path d="M1293 395 c0 -33 2 -45 4 -27 2 18 2 45 0 60 -2 15 -4 0 -4 -33z"/><path d="M670 415 c0 -16 6 -25 15 -25 8 0 15 7 15 15 0 8 6 15 13 16 6 0 3 4 -8 9 -31 13 -35 12 -35 -15z"/><path d="M851 414 c0 -11 3 -14 6 -6 3 7 2 16 -1 19 -3 4 -6 -2 -5 -13z"/><path d="M1410 416 c0 -7 6 -19 13 -27 6 -8 11 -12 10 -10 -2 2 5 10 15 18 9 8 11 11 3 7 -10 -5 -13 -3 -9 7 4 10 -1 15 -13 16 -10 1 -19 -4 -19 -11z"/><path d="M73 375 c0 -27 2 -38 4 -22 2 15 2 37 0 50 -2 12 -4 0 -4 -28z"/><path d="M1115 410 c3 -5 11 -10 16 -10 6 0 7 5 4 10 -3 6 -11 10 -16 10 -6 0 -7 -4 -4 -10z"/><path d="M1687 401 c-4 -17 -3 -21 5 -13 5 5 8 16 6 23 -3 8 -7 3 -11 -10z"/><path d="M143 355 c0 -22 2 -30 4 -17 2 12 2 30 0 40 -3 9 -5 -1 -4 -23z"/><path d="M781 374 c0 -11 3 -14 6 -6 3 7 2 16 -1 19 -3 4 -6 -2 -5 -13z"/><path d="M1201 353 c-10 -26 -10 -27 4 -9 8 11 15 23 15 28 0 15 -7 8 -19 -19z"/><path d="M1012 315 c0 -16 2 -22 5 -12 2 9 2 23 0 30 -3 6 -5 -1 -5 -18z"/><path d="M1313 325 c-7 -8 -13 -19 -13 -25 0 -11 -33 -13 -68 -4 -14 4 -21 12 -18 20 3 8 0 11 -9 8 -7 -3 -12 -15 -10 -26 4 -17 2 -18 -12 -6 -12 9 -15 9 -9 1 4 -7 3 -13 -2 -13 -16 0 -22 13 -12 25 8 9 4 11 -16 7 -19 -3 -22 -7 -12 -13 10 -7 10 -9 1 -9 -7 0 -13 -10 -14 -22 -1 -22 -1 -22 -9 2 -7 23 -8 23 -10 -10 l-3 -35 -6 35 -6 34 -11 -42 c-6 -24 -7 -42 -2 -42 5 0 8 -7 6 -16 -6 -34 22 -24 42 15 13 27 27 41 40 41 11 0 23 1 27 3 4 1 9 -6 11 -15 2 -11 -5 -18 -20 -21 -13 -2 -2 -5 25 -6 26 0 47 -5 47 -11 0 -5 5 -10 11 -10 5 0 7 5 4 10 -8 13 18 8 27 -5 5 -6 8 -5 8 3 0 19 48 15 53 -5 4 -17 5 -17 6 0 2 31 20 18 32 -23 8 -25 18 -40 28 -40 14 0 14 -2 1 -11 -13 -9 -13 -10 0 -6 10 2 16 19 18 50 4 54 19 63 25 15 l4 -33 1 33 c2 30 4 32 38 32 35 0 35 0 32 40 -2 22 -7 40 -12 39 -5 0 -13 5 -17 13 -5 7 -9 8 -9 2 0 -7 -28 -10 -77 -10 -73 1 -78 2 -81 24 -4 25 -12 27 -29 7z m47 -95 c0 -5 -9 -10 -20 -10 -11 0 -20 5 -20 10 0 6 9 10 20 10 11 0 20 -4 20 -10z"/><path d="M1570 335 c0 -5 5 -17 10 -25 5 -8 10 -10 10 -5 0 6 -5 17 -10 25 -5 8 -10 11 -10 5z"/><path d="M1656 324 c-4 -9 -4 -19 -1 -22 2 -3 7 3 11 12 4 9 4 19 1 22 -2 3 -7 -3 -11 -12z"/><path d="M252 180 c0 -19 2 -27 5 -17 2 9 2 25 0 35 -3 9 -5 1 -5 -18z"/><path d="M1501 184 c0 -11 3 -14 6 -6 3 7 2 16 -1 19 -3 4 -6 -2 -5 -13z"/><path d="M1703 165 c0 -22 2 -30 4 -17 2 12 2 30 0 40 -3 9 -5 -1 -4 -23z"/><path d="M1110 170 c-7 -14 -7 -20 0 -20 5 0 10 8 10 18 0 14 2 15 10 2 8 -13 10 -12 10 3 0 23 -17 22 -30 -3z"/><path d="M694 156 c-3 -8 -4 -27 -2 -43 3 -23 5 -20 9 15 5 43 2 53 -7 28z"/><path d="M652 140 c0 -14 2 -19 5 -12 2 6 2 18 0 25 -3 6 -5 1 -5 -13z"/><path d="M756 153 c7 -4 14 -17 17 -28 5 -16 5 -15 4 4 -1 14 -9 26 -17 28 -10 3 -11 2 -4 -4z"/><path d="M1502 140 c0 -14 2 -19 5 -12 2 6 2 18 0 25 -3 6 -5 1 -5 -13z"/><path d="M1583 125 c0 -22 2 -30 4 -17 2 12 2 30 0 40 -3 9 -5 -1 -4 -23z"/><path d="M172 130 c0 -14 2 -19 5 -12 2 6 2 18 0 25 -3 6 -5 1 -5 -13z"/><path d="M1351 134 c0 -11 3 -14 6 -6 3 7 2 16 -1 19 -3 4 -6 -2 -5 -13z"/><path d="M252 110 c0 -19 2 -27 5 -17 2 9 2 25 0 35 -3 9 -5 1 -5 -18z"/><path d="M291 124 c0 -11 3 -14 6 -6 3 7 2 16 -1 19 -3 4 -6 -2 -5 -13z"/><path d="M1462 120 c0 -14 2 -19 5 -12 2 6 2 18 0 25 -3 6 -5 1 -5 -13z"/><path d="M310 118 c0 -4 4 -8 9 -8 6 0 12 4 15 8 3 5 -1 9 -9 9 -8 0 -15 -4 -15 -9z"/><path d="M481 114 c0 -11 3 -14 6 -6 3 7 2 16 -1 19 -3 4 -6 -2 -5 -13z"/><path d="M1300 115 c-11 -13 -10 -14 4 -9 9 3 16 10 16 15 0 13 -6 11 -20 -6z"/></g></svg>