<svg version="1.0" xmlns="http://www.w3.org/2000/svg" width="300.000000" height="112.000000" viewBox="0 0 300.000000 112.000000" preserveAspectRatio="xMidYMid meet"><g transform="translate(0.000000,112.000000) scale(0.100000,-0.100000)" fill="#262619" stroke="none"><path d="M2533 715 c0 -27 2 -38 4 -22 2 15 2 37 0 50 -2 12 -4 0 -4 -28z"/><path d="M1403 723 c9 -2 23 -2 30 0 6 3 -1 5 -18 5 -16 0 -22 -2 -12 -5z"/><path d="M2142 503 l-2 -173 33 1 c29 2 30 2 5 6 l-28 4 -3 167 -3 167 -2 -172z"/><path d="M949 643 c-13 -16 -12 -17 4 -4 9 7 17 15 17 17 0 8 -8 3 -21 -13z"/><path d="M62 483 l-2 -142 -32 -4 -33 -4 33 -1 c19 -1 35 3 38 11 2 7 3 74 1 148 l-3 134 -2 -142z"/><path d="M2534 500 c0 -69 1 -97 3 -62 2 34 2 90 0 125 -2 34 -3 6 -3 -63z"/><path d="M189 337 c5 -5 21 -7 37 -5 27 3 26 4 -8 9 -22 3 -34 1 -29 -4z"/><path d="M393 333 c9 -2 25 -2 35 0 9 3 1 5 -18 5 -19 0 -27 -2 -17 -5z"/><path d="M1163 333 c9 -2 23 -2 30 0 6 3 -1 5 -18 5 -16 0 -22 -2 -12 -5z"/><path d="M1313 333 c9 -2 25 -2 35 0 9 3 1 5 -18 5 -19 0 -27 -2 -17 -5z"/><path d="M2373 333 c9 -2 25 -2 35 0 9 3 1 5 -18 5 -19 0 -27 -2 -17 -5z"/><path d="M2733 333 c9 -2 25 -2 35 0 9 3 1 5 -18 5 -19 0 -27 -2 -17 -5z"/><path d="M2953 333 c9 -2 23 -2 30 0 6 3 -1 5 -18 5 -16 0 -22 -2 -12 -5z"/><path d="M501 103 c0 -40 2 -73 7 -73 4 0 6 24 4 52 -5 89 -9 97 -11 21z"/><path d="M2041 103 c0 -40 2 -73 7 -73 4 0 6 24 4 52 -5 89 -9 97 -11 21z"/><path d="M2522 108 c-1 -42 -7 -68 -14 -71 -10 -4 -10 -6 0 -6 19 -1 24 19 19 85 l-3 59 -2 -67z"/><path d="M2891 154 c0 -11 3 -14 6 -6 3 7 2 16 -1 19 -3 4 -6 -2 -5 -13z"/><path d="M62 98 c-1 -34 -7 -58 -14 -61 -10 -4 -10 -6 0 -6 18 -1 24 20 19 75 l-3 49 -2 -57z"/><path d="M394 118 l-19 -23 23 19 c21 18 27 26 19 26 -2 0 -12 -10 -23 -22z"/><path d="M2892 90 c0 -19 2 -27 5 -17 2 9 2 25 0 35 -3 9 -5 1 -5 -18z"/><path d="M1881 73 c0 -17 -7 -34 -13 -36 -10 -4 -10 -6 0 -6 16 -1 25 21 19 51 -3 18 -5 16 -6 -9z"/><path d="M642 44 c10 -10 20 -16 22 -13 3 3 -5 11 -17 18 -21 13 -21 12 -5 -5z"/><path d="M417 39 c7 -7 15 -10 18 -7 3 3 -2 9 -12 12 -14 6 -15 5 -6 -5z"/></g><g transform="translate(0.000000,112.000000) scale(0.100000,-0.100000)" fill="#1F1F1F" stroke="none"><path d="M1266 967 c3 -10 9 -15 12 -12 3 3 0 11 -7 18 -10 9 -11 8 -5 -6z"/><path d="M1292 870 c0 -14 2 -19 5 -12 2 6 2 18 0 25 -3 6 -5 1 -5 -13z"/><path d="M23 793 c15 -2 37 -2 50 0 12 2 0 4 -28 4 -27 0 -38 -2 -22 -4z"/><path d="M400 793 l40 -4 3 -225 3 -224 -1 227 0 228 -43 1 -42 1 40 -4z"/><path d="M1150 713 l0 -86 -22 20 c-13 11 -30 24 -38 28 -8 4 1 -6 20 -23 19 -17 38 -31 43 -32 4 0 7 38 7 85 0 78 2 85 20 85 19 0 20 -8 23 -227 l2 -228 3 233 2 232 -30 0 -30 0 0 -87z"/><path d="M1304 786 c-3 -8 -4 -25 -1 -38 3 -17 5 -15 6 10 1 27 5 32 25 32 19 0 26 -6 29 -27 4 -26 4 -26 3 2 -1 25 -6 31 -29 33 -17 2 -29 -2 -33 -12z"/><path d="M2743 793 c9 -2 23 -2 30 0 6 3 -1 5 -18 5 -16 0 -22 -2 -12 -5z"/><path d="M2593 715 c0 -27 2 -38 4 -22 2 15 2 37 0 50 -2 12 -4 0 -4 -28z"/><path d="M382 680 c0 -19 2 -27 5 -17 2 9 2 25 0 35 -3 9 -5 1 -5 -18z"/><path d="M1578 673 c7 -3 16 -2 19 1 4 3 -2 6 -13 5 -11 0 -14 -3 -6 -6z"/><path d="M2308 673 c7 -3 16 -2 19 1 4 3 -2 6 -13 5 -11 0 -14 -3 -6 -6z"/><path d="M2878 673 c7 -3 16 -2 19 1 4 3 -2 6 -13 5 -11 0 -14 -3 -6 -6z"/><path d="M2920 677 c0 -2 15 -14 33 -27 20 -15 27 -17 18 -6 -13 16 -51 41 -51 33z"/><path d="M615 660 c-3 -6 1 -7 9 -4 18 7 21 14 7 14 -6 0 -13 -4 -16 -10z"/><path d="M751 667 c2 -1 15 -11 29 -22 l25 -20 -19 23 c-11 12 -24 22 -29 22 -6 0 -8 -1 -6 -3z"/><path d="M1304 505 c0 -93 2 -133 3 -88 2 45 2 122 0 170 -1 48 -3 12 -3 -82z"/><path d="M1364 505 c0 -93 2 -133 3 -88 2 45 2 122 0 170 -1 48 -3 12 -3 -82z"/><path d="M1641 668 c2 -2 20 -16 39 -33 19 -16 28 -21 20 -10 -18 25 -42 44 -54 45 -5 0 -7 -1 -5 -2z"/><path d="M2400 631 c0 -6 4 -13 10 -16 6 -3 7 1 4 9 -7 18 -14 21 -14 7z"/><path d="M2594 520 c0 -63 1 -89 3 -57 2 31 2 83 0 115 -2 31 -3 5 -3 -58z"/><path d="M2814 614 c-18 -14 -18 -14 6 -3 31 14 36 19 24 19 -6 0 -19 -7 -30 -16z"/><path d="M555 599 c-4 -6 -5 -12 -2 -15 2 -3 7 2 10 11 7 17 1 20 -8 4z"/><path d="M915 579 c-4 -6 -5 -12 -2 -15 2 -3 7 2 10 11 7 17 1 20 -8 4z"/><path d="M1673 573 c9 -2 23 -2 30 0 6 3 -1 5 -18 5 -16 0 -22 -2 -12 -5z"/><path d="M2364 455 c0 -66 1 -92 3 -57 2 34 2 88 0 120 -2 31 -3 3 -3 -63z"/><path d="M2424 450 c0 -63 1 -89 3 -57 2 31 2 83 0 115 -2 31 -3 5 -3 -58z"/><path d="M2944 450 c0 -63 1 -89 3 -57 2 31 2 83 0 115 -2 31 -3 5 -3 -58z"/><path d="M532 505 c0 -16 2 -22 5 -12 2 9 2 23 0 30 -3 6 -5 -1 -5 -18z"/><path d="M1651 517 c2 -2 18 -11 34 -21 l30 -17 -24 20 c-13 12 -28 21 -34 21 -6 0 -8 -1 -6 -3z"/><path d="M2204 430 c0 -52 1 -74 3 -47 2 26 2 68 0 95 -2 26 -3 4 -3 -48z"/><path d="M1151 494 c0 -11 3 -14 6 -6 3 7 2 16 -1 19 -3 4 -6 -2 -5 -13z"/><path d="M961 484 c0 -11 3 -14 6 -6 3 7 2 16 -1 19 -3 4 -6 -2 -5 -13z"/><path d="M658 483 c34 -2 90 -2 125 0 34 2 6 3 -63 3 -69 0 -97 -1 -62 -3z"/><path d="M1446 442 c-3 -5 8 -6 25 -4 16 2 29 6 29 8 0 8 -49 4 -54 -4z"/><path d="M976 427 c3 -10 9 -15 12 -12 3 3 0 11 -7 18 -10 9 -11 8 -5 -6z"/><path d="M626 395 c10 -8 23 -15 28 -15 6 0 1 7 -10 15 -10 8 -23 15 -28 15 -6 0 -1 -7 10 -15z"/><path d="M1510 401 c0 -9 30 -24 36 -18 2 1 -6 8 -16 15 -11 7 -20 8 -20 3z"/><path d="M1460 380 c6 -11 13 -20 16 -20 2 0 0 9 -6 20 -6 11 -13 20 -16 20 -2 0 0 -9 6 -20z"/><path d="M2597 389 c7 -7 15 -10 18 -7 3 3 -2 9 -12 12 -14 6 -15 5 -6 -5z"/><path d="M1152 360 c0 -14 2 -19 5 -12 2 6 2 18 0 25 -3 6 -5 1 -5 -13z"/><path d="M1119 353 c-13 -16 -12 -17 4 -4 16 13 21 21 13 21 -2 0 -10 -8 -17 -17z"/><path d="M607 349 c7 -7 15 -10 18 -7 3 3 -2 9 -12 12 -14 6 -15 5 -6 -5z"/><path d="M740 344 c-24 -9 -29 -13 -14 -13 11 -1 29 6 40 14 22 17 20 17 -26 -1z"/><path d="M1660 350 c-9 -6 -10 -10 -3 -10 6 0 15 5 18 10 8 12 4 12 -15 0z"/><path d="M1078 333 c7 -3 16 -2 19 1 4 3 -2 6 -13 5 -11 0 -14 -3 -6 -6z"/><path d="M1838 253 c7 -3 16 -2 19 1 4 3 -2 6 -13 5 -11 0 -14 -3 -6 -6z"/><path d="M80 160 c-23 -7 -23 -8 -3 -9 12 -1 25 4 28 9 3 6 5 10 3 9 -2 -1 -14 -5 -28 -9z"/><path d="M592 140 c0 -19 2 -27 5 -17 2 9 2 25 0 35 -3 9 -5 1 -5 -18z"/><path d="M1688 158 c5 -5 16 -8 23 -6 8 3 3 7 -10 11 -17 4 -21 3 -13 -5z"/><path d="M1763 160 c-21 -8 -23 -16 -21 -67 l2 -58 3 58 c3 49 7 57 23 57 11 0 20 5 20 10 0 6 -1 10 -2 9 -2 0 -13 -4 -25 -9z"/><path d="M1803 105 c0 -38 2 -53 4 -32 2 20 2 52 0 70 -2 17 -4 1 -4 -38z"/><path d="M1900 160 c0 -5 5 -10 11 -10 5 0 7 5 4 10 -3 6 -8 10 -11 10 -2 0 -4 -4 -4 -10z"/><path d="M2064 105 c0 -38 1 -60 3 -49 2 12 15 32 29 45 26 24 31 39 13 39 -5 0 -8 -4 -5 -9 3 -4 -3 -16 -14 -26 -18 -16 -19 -16 -23 27 -2 24 -3 13 -3 -27z"/><path d="M2500 150 c0 -13 -5 -18 -15 -14 -8 4 -15 2 -15 -3 0 -5 9 -9 20 -10 15 -1 20 4 20 23 0 13 -2 24 -5 24 -3 0 -5 -9 -5 -20z"/><path d="M2540 160 c0 -5 5 -10 11 -10 5 0 7 5 4 10 -3 6 -8 10 -11 10 -2 0 -4 -4 -4 -10z"/><path d="M2875 159 c-4 -6 -5 -12 -2 -15 2 -3 7 2 10 11 7 17 1 20 -8 4z"/><path d="M2932 145 c0 -16 2 -22 5 -12 2 9 2 23 0 30 -3 6 -5 -1 -5 -18z"/><path d="M13 153 c9 -2 23 -2 30 0 6 3 -1 5 -18 5 -17 0 -22 -2 -12 -5z"/><path d="M2202 92 c1 -53 2 -54 5 -12 3 24 9 47 15 51 5 4 3 9 -6 12 -14 5 -16 -2 -14 -51z"/><path d="M150 130 c0 -5 7 -6 17 -3 10 4 14 2 10 -4 -3 -5 0 -10 8 -10 11 0 12 4 4 14 -13 15 -39 18 -39 3z"/><path d="M296 128 c3 -5 10 -6 15 -3 13 9 11 12 -6 12 -8 0 -12 -4 -9 -9z"/><path d="M409 120 c-10 -11 -13 -23 -8 -31 4 -7 5 -18 2 -24 -4 -5 -3 -7 2 -3 4 4 14 0 22 -10 8 -9 7 -3 -3 15 -15 26 -15 34 -4 48 18 22 9 26 -11 5z"/><path d="M665 130 c4 -6 11 -8 16 -5 14 9 11 15 -7 15 -8 0 -12 -5 -9 -10z"/><path d="M775 130 c3 -5 8 -10 11 -10 2 0 4 5 4 10 0 6 -5 10 -11 10 -5 0 -7 -4 -4 -10z"/><path d="M949 127 c6 -8 7 -18 3 -22 -4 -5 -1 -5 6 -1 10 6 10 11 1 22 -6 8 -14 14 -16 14 -3 0 0 -6 6 -13z"/><path d="M1047 129 c16 -19 7 -29 -25 -29 -19 0 -23 4 -17 18 4 12 3 14 -5 6 -18 -18 -2 -42 25 -36 36 7 49 26 28 43 -16 12 -17 12 -6 -2z"/><path d="M1120 129 c0 -5 5 -7 10 -4 6 4 17 1 25 -5 9 -7 15 -8 15 -2 0 10 -23 22 -41 22 -5 0 -9 -5 -9 -11z"/><path d="M1230 129 c0 -5 5 -7 10 -4 6 3 10 8 10 11 0 2 -4 4 -10 4 -5 0 -10 -5 -10 -11z"/><path d="M1325 130 c3 -5 8 -10 11 -10 2 0 4 5 4 10 0 6 -5 10 -11 10 -5 0 -7 -4 -4 -10z"/><path d="M1353 127 c0 -8 6 -14 14 -14 9 0 10 4 2 14 -6 7 -12 13 -14 13 -1 0 -2 -6 -2 -13z"/><path d="M1420 130 c0 -5 5 -10 11 -10 5 0 7 5 4 10 -3 6 -8 10 -11 10 -2 0 -4 -4 -4 -10z"/><path d="M1499 116 c11 -12 21 -34 24 -51 l4 -30 2 31 c0 17 -6 37 -14 44 -8 7 -13 16 -10 19 2 4 -3 8 -11 8 -11 0 -10 -5 5 -21z"/><path d="M1621 124 c0 -11 3 -14 6 -6 3 7 2 16 -1 19 -3 4 -6 -2 -5 -13z"/><path d="M1840 129 c0 -5 5 -7 10 -4 6 3 10 8 10 11 0 2 -4 4 -10 4 -5 0 -10 -5 -10 -11z"/><path d="M1904 126 c-3 -8 -4 -31 -2 -52 3 -36 4 -35 8 14 5 53 4 63 -6 38z"/><path d="M1944 126 c-3 -8 -4 -31 -1 -52 3 -37 4 -36 5 9 1 34 6 46 14 41 7 -4 8 -3 4 4 -9 16 -15 15 -22 -2z"/><path d="M2370 129 c0 -5 -4 -8 -9 -4 -5 3 -12 1 -15 -4 -4 -5 2 -8 11 -7 15 3 33 26 19 26 -3 0 -6 -5 -6 -11z"/><path d="M2397 122 c4 -16 0 -21 -18 -24 -14 -2 -24 -10 -25 -21 -1 -12 -1 -13 3 -2 2 8 13 15 24 15 23 0 36 27 21 42 -8 8 -9 5 -5 -10z"/><path d="M2544 126 c-3 -8 -4 -31 -2 -52 3 -36 4 -35 8 14 5 53 4 63 -6 38z"/><path d="M2605 130 c4 -6 11 -8 16 -5 14 9 11 15 -7 15 -8 0 -12 -5 -9 -10z"/><path d="M2675 130 c3 -5 8 -10 11 -10 2 0 4 5 4 10 0 6 -5 10 -11 10 -5 0 -7 -4 -4 -10z"/><path d="M2736 132 c-3 -5 1 -9 9 -9 8 0 12 4 9 9 -3 4 -7 8 -9 8 -2 0 -6 -4 -9 -8z"/><path d="M2790 118 c-10 -21 -10 -21 3 -6 8 10 17 15 21 11 10 -11 37 -12 30 -2 -3 5 -10 7 -15 4 -5 -4 -9 -1 -9 4 0 19 -19 12 -30 -11z"/><path d="M2954 133 c10 -11 37 -12 30 -2 -3 5 -12 9 -21 9 -9 0 -13 -3 -9 -7z"/><path d="M223 85 c0 -27 2 -38 4 -22 2 15 2 37 0 50 -2 12 -4 0 -4 -28z"/><path d="M694 119 c-4 -7 -3 -9 4 -5 5 3 13 0 15 -6 4 -9 6 -10 6 -1 1 17 -16 25 -25 12z"/><path d="M806 115 c4 -8 8 -15 10 -15 2 0 4 7 4 15 0 8 -4 15 -10 15 -5 0 -7 -7 -4 -15z"/><path d="M858 123 c-2 -5 -1 -26 3 -48 l7 -40 -1 48 c-1 47 -2 54 -9 40z"/><path d="M1256 122 c-3 -5 1 -15 8 -21 11 -10 14 -9 12 3 -3 21 -13 29 -20 18z"/><path d="M2636 122 c-3 -5 1 -9 9 -9 8 0 12 4 9 9 -3 4 -7 8 -9 8 -2 0 -6 -4 -9 -8z"/><path d="M2872 93 c-2 -42 10 -63 24 -42 4 7 3 9 -4 5 -7 -4 -12 9 -15 36 l-4 43 -1 -42z"/><path d="M793 75 c0 -22 2 -30 4 -17 2 12 2 30 0 40 -3 9 -5 -1 -4 -23z"/><path d="M1600 101 c0 -6 4 -13 10 -16 6 -3 7 1 4 9 -7 18 -14 21 -14 7z"/><path d="M2023 75 c0 -22 2 -30 4 -17 2 12 2 30 0 40 -3 9 -5 -1 -4 -23z"/><path d="M2603 94 c0 -16 13 -19 21 -5 3 5 0 11 -7 14 -8 3 -14 -1 -14 -9z"/><path d="M182 70 c0 -19 2 -27 5 -17 2 9 2 25 0 35 -3 9 -5 1 -5 -18z"/><path d="M272 70 c0 -19 2 -27 5 -17 2 9 2 25 0 35 -3 9 -5 1 -5 -18z"/><path d="M592 70 c0 -19 2 -27 5 -17 2 9 2 25 0 35 -3 9 -5 1 -5 -18z"/><path d="M898 77 c-3 -15 -2 -30 3 -32 12 -8 16 8 9 35 l-6 25 -6 -28z"/><path d="M971 84 c0 -11 3 -14 6 -6 3 7 2 16 -1 19 -3 4 -6 -2 -5 -13z"/><path d="M1163 83 c3 -13 1 -23 -4 -23 -5 0 -9 -5 -9 -11 0 -8 4 -8 14 0 15 13 16 35 1 48 -4 4 -5 -2 -2 -14z"/><path d="M1330 92 c0 -5 7 -9 15 -9 8 0 12 4 9 9 -7 10 -24 10 -24 0z"/><path d="M1862 70 c0 -19 2 -27 5 -17 2 9 2 25 0 35 -3 9 -5 1 -5 -18z"/><path d="M2501 84 c0 -11 3 -14 6 -6 3 7 2 16 -1 19 -3 4 -6 -2 -5 -13z"/><path d="M2832 70 c0 -19 2 -27 5 -17 2 9 2 25 0 35 -3 9 -5 1 -5 -18z"/><path d="M2265 80 c-3 -5 -13 -7 -23 -4 -14 5 -14 4 -3 -4 15 -11 41 -5 41 9 0 12 -7 11 -15 -1z"/><path d="M2639 88 c-8 -27 -5 -36 9 -30 10 4 12 7 4 10 -7 2 -10 8 -6 13 3 5 3 9 0 9 -3 0 -6 -1 -7 -2z"/><path d="M2932 65 c0 -16 2 -22 5 -12 2 9 2 23 0 30 -3 6 -5 -1 -5 -18z"/><path d="M1101 63 c7 -12 15 -20 18 -17 3 2 -3 12 -13 22 -17 16 -18 16 -5 -5z"/><path d="M650 60 c0 -5 5 -10 11 -10 5 0 7 5 4 10 -3 6 -8 10 -11 10 -2 0 -4 -4 -4 -10z"/><path d="M1006 57 c3 -10 9 -15 12 -12 3 3 0 11 -7 18 -10 9 -11 8 -5 -6z"/><path d="M1053 55 c0 -8 4 -12 9 -9 4 3 8 9 8 15 0 5 -4 9 -8 9 -5 0 -9 -7 -9 -15z"/><path d="M1347 63 c-10 -9 -9 -23 1 -23 5 0 9 7 9 15 0 17 -1 18 -10 8z"/><path d="M1580 60 c-9 -6 -10 -10 -3 -10 6 0 15 5 18 10 8 12 4 12 -15 0z"/><path d="M2090 59 c0 -5 5 -7 10 -4 6 3 10 8 10 11 0 2 -4 4 -10 4 -5 0 -10 -5 -10 -11z"/><path d="M2395 61 c-6 -11 9 -23 19 -14 9 9 7 23 -3 23 -6 0 -12 -4 -16 -9z"/><path d="M2582 61 c4 -13 18 -16 19 -4 0 4 -5 9 -11 12 -7 2 -11 -2 -8 -8z"/><path d="M1211 33 c0 -25 1 -26 9 -8 12 27 12 35 0 35 -5 0 -10 -12 -9 -27z"/><path d="M1557 9 c7 -7 15 -10 18 -7 3 3 -2 9 -12 12 -14 6 -15 5 -6 -5z"/></g><g transform="translate(0.000000,112.000000) scale(0.100000,-0.100000)" fill="#261F1F" stroke="none"><path d="M401 791 c-42 -6 -45 -8 -59 -51 -8 -25 -19 -46 -23 -48 -4 -2 -5 -10 -2 -18 3 -8 0 -14 -7 -14 -6 0 -9 -4 -6 -9 8 -12 -75 -241 -86 -241 -6 0 -8 7 -4 15 3 8 1 15 -5 15 -6 0 -9 7 -5 15 3 8 1 15 -5 15 -6 0 -9 7 -5 15 3 8 1 15 -5 15 -6 0 -9 7 -5 15 3 8 1 15 -5 15 -6 0 -9 7 -5 15 3 8 1 15 -5 15 -6 0 -9 7 -5 15 3 8 1 15 -5 15 -6 0 -9 7 -5 15 3 8 1 15 -5 15 -6 0 -9 6 -7 12 3 7 -2 19 -9 27 -8 7 -12 20 -9 27 3 8 1 14 -5 14 -6 0 -9 7 -5 15 3 8 1 15 -5 15 -6 0 -9 7 -5 15 3 8 1 15 -5 15 -6 0 -9 7 -5 15 4 12 -4 15 -44 15 l-50 0 0 -225 0 -225 30 0 30 0 1 193 c0 134 3 185 10 168 5 -14 11 -34 14 -45 2 -12 4 -22 6 -23 1 -2 3 -7 4 -13 1 -5 4 -12 5 -15 1 -3 4 -9 5 -15 1 -5 4 -12 5 -15 1 -3 4 -9 5 -15 1 -5 4 -13 5 -17 1 -5 2 -11 1 -15 0 -5 4 -8 10 -8 6 0 9 -7 5 -15 -3 -8 -2 -15 3 -15 4 0 18 -34 31 -75 22 -69 26 -75 51 -75 14 0 32 7 39 15 7 8 9 15 5 15 -4 0 -2 7 5 15 7 8 9 15 5 15 -4 0 -2 7 5 15 7 8 10 15 7 15 -7 0 76 250 92 277 8 13 10 -33 11 -174 l0 -193 25 0 24 0 3 230 c2 127 3 229 3 229 0 -1 -20 -5 -44 -8z"/><path d="M2728 568 l3 -228 24 0 25 0 0 114 c0 87 4 118 15 129 8 8 12 17 9 20 -16 16 66 29 118 18 16 -3 28 -82 28 -178 0 -95 1 -103 19 -103 19 0 20 9 23 134 2 98 0 137 -10 145 -7 7 -9 18 -6 24 4 7 4 9 -1 5 -4 -4 -17 -1 -29 7 -40 29 -149 12 -160 -25 -2 -8 -4 24 -5 71 -1 87 -1 87 -28 91 l-28 4 3 -228z"/><path d="M1160 704 c0 -64 -3 -85 -12 -81 -7 2 -11 11 -10 18 2 8 0 11 -3 7 -4 -4 -17 -1 -29 7 -26 19 -89 19 -125 0 -39 -20 -64 -78 -66 -152 -1 -35 2 -63 7 -63 4 0 8 -6 8 -14 0 -18 51 -80 70 -85 32 -8 100 -4 113 7 8 7 18 8 22 4 5 -4 5 -2 2 4 -4 7 0 17 8 24 13 11 15 8 15 -14 0 -19 5 -26 20 -26 19 0 20 7 20 225 0 218 -1 225 -20 225 -18 0 -20 -7 -20 -86z m-48 -88 c10 -5 15 -12 12 -17 -3 -5 0 -9 6 -9 6 0 8 -4 5 -10 -3 -5 -2 -10 3 -10 20 0 18 -125 -3 -156 -19 -30 -74 -48 -108 -35 -26 10 -60 51 -56 67 1 5 -1 17 -6 27 -9 22 3 107 16 107 6 0 8 4 4 9 -17 28 79 48 127 27z"/><path d="M1310 760 c0 -25 4 -30 25 -30 21 0 25 5 25 30 0 25 -4 30 -25 30 -21 0 -25 -5 -25 -30z"/><path d="M2540 720 c0 -43 -3 -50 -20 -50 -13 0 -20 -7 -20 -20 0 -13 7 -20 20 -20 19 0 20 -7 20 -124 0 -141 8 -160 73 -169 36 -6 37 -5 37 24 0 26 -3 29 -27 27 l-28 -3 -3 123 -3 122 31 0 c23 0 30 4 30 20 0 16 -7 20 -30 20 -29 0 -30 1 -30 50 0 47 -2 50 -25 50 -23 0 -25 -3 -25 -50z"/><path d="M1569 669 c-68 -5 -99 -22 -99 -53 0 -8 -4 -17 -9 -20 -10 -7 -9 -25 2 -43 5 -7 5 -13 0 -13 -27 0 62 -41 119 -55 37 -10 71 -22 75 -29 14 -22 12 -44 -5 -59 -22 -19 -92 -34 -92 -18 0 6 -6 8 -14 5 -17 -7 -47 22 -40 40 4 10 -5 15 -29 18 -20 2 -34 -1 -33 -7 3 -16 45 -91 46 -81 0 5 6 3 14 -3 21 -18 138 -20 154 -4 8 7 17 11 22 8 4 -3 13 2 20 10 7 8 9 15 6 15 -4 0 -1 10 6 23 6 12 13 29 14 36 4 21 -51 71 -86 78 -17 3 -30 9 -30 13 0 5 -9 6 -20 3 -11 -3 -20 0 -20 6 0 5 -7 8 -15 5 -8 -4 -15 -1 -15 5 0 6 -5 10 -11 9 -16 -4 -22 42 -8 59 7 8 18 12 25 9 7 -3 16 -1 19 3 3 5 21 5 41 1 37 -8 57 -27 48 -42 -3 -4 11 -8 31 -8 35 0 35 0 20 23 -8 13 -12 27 -8 31 5 4 1 6 -7 4 -8 -2 -14 3 -12 10 1 8 -2 11 -7 8 -5 -4 -15 -1 -23 6 -9 9 -33 11 -79 7z"/><path d="M2303 670 c-35 -4 -60 -13 -76 -28 l-24 -23 4 25 c5 23 2 26 -26 26 l-31 0 0 -165 0 -165 25 0 25 0 0 100 c0 100 14 159 41 175 34 21 128 8 114 -16 -4 -5 -1 -9 4 -9 7 0 11 -44 11 -125 l0 -125 24 0 c25 0 25 0 28 118 3 107 1 121 -21 164 -13 26 -27 45 -32 43 -4 -3 -9 -2 -11 2 -1 5 -26 6 -55 3z"/><path d="M628 659 c-10 -5 -18 -8 -18 -5 0 3 -10 -5 -23 -17 -13 -12 -22 -25 -20 -29 2 -3 -3 -13 -11 -21 -8 -8 -13 -17 -10 -20 4 -3 3 -11 -2 -18 -11 -18 -11 -82 -1 -97 6 -7 7 -15 4 -18 -6 -6 2 -19 39 -59 31 -34 94 -49 147 -34 23 6 44 11 47 12 8 1 26 21 29 32 2 6 8 16 14 24 22 26 16 41 -14 41 -19 0 -29 -5 -29 -15 0 -8 -5 -15 -11 -15 -5 0 -7 -4 -4 -10 3 -5 -1 -10 -9 -10 -9 0 -16 -5 -16 -12 0 -6 -3 -8 -6 -5 -4 3 -15 2 -26 -4 -10 -5 -24 -6 -31 -2 -6 4 -16 8 -22 8 -25 2 -44 19 -54 47 -21 59 -22 58 119 58 l130 0 -11 27 c-5 14 -8 32 -5 40 3 7 1 13 -5 13 -6 0 -9 7 -5 15 3 8 0 15 -6 15 -6 0 -8 3 -5 6 4 4 -10 20 -30 35 -29 24 -45 29 -87 29 -28 0 -59 -5 -68 -11z m114 -38 c10 -1 34 -41 43 -68 6 -23 5 -23 -94 -23 -91 0 -100 2 -95 18 12 35 27 61 34 57 5 -3 10 2 13 9 5 13 43 15 99 7z"/><path d="M1310 505 l0 -165 25 0 25 0 0 165 0 165 -25 0 -25 0 0 -165z"/><path d="M1785 649 c4 -12 9 -29 10 -38 2 -9 4 -18 5 -21 1 -3 2 -8 1 -12 0 -5 3 -8 8 -8 8 0 18 -29 26 -70 0 -3 6 -15 13 -27 6 -12 13 -30 15 -40 1 -10 6 -24 10 -30 5 -7 5 -13 0 -13 -4 0 -2 -4 4 -8 18 -11 29 -72 14 -72 -7 0 -10 -4 -7 -9 9 -14 -29 -51 -53 -51 -15 0 -21 -6 -21 -21 0 -18 5 -20 48 -17 26 2 47 8 48 13 0 6 10 30 21 55 22 46 49 111 51 120 5 23 56 148 65 159 7 8 11 16 9 18 -6 6 9 63 17 63 4 0 8 7 8 15 0 10 -10 15 -28 15 -26 0 -29 -5 -69 -127 -24 -71 -47 -132 -53 -138 -7 -7 -8 -6 -3 3 4 6 2 12 -4 12 -7 0 -10 7 -6 15 3 8 1 15 -5 15 -6 0 -9 7 -5 15 3 8 1 15 -5 15 -6 0 -9 7 -5 15 3 8 1 15 -5 15 -6 0 -9 7 -5 15 3 8 1 15 -5 15 -6 0 -9 7 -5 15 3 8 1 15 -5 15 -6 0 -9 7 -5 15 3 8 1 15 -5 15 -6 0 -9 7 -5 15 3 8 1 15 -5 15 -6 0 -9 6 -6 14 6 15 -12 26 -44 26 -16 0 -19 -4 -14 -21z"/><path d="M22 163 c26 -4 27 -8 31 -66 l3 -62 2 64 c2 62 3 63 27 59 13 -3 22 -1 19 3 -3 5 -29 8 -57 8 -29 -1 -40 -4 -25 -6z"/><path d="M123 105 c-1 -53 1 -61 6 -35 4 20 11 42 16 49 5 9 4 12 -3 7 -6 -4 -12 5 -15 21 -2 16 -4 -3 -4 -42z"/><path d="M373 105 c0 -38 2 -53 4 -32 2 20 2 52 0 70 -2 17 -4 1 -4 -38z"/><path d="M513 105 c0 -38 2 -55 4 -37 4 30 7 32 44 32 37 0 39 -2 39 -30 0 -16 5 -30 10 -30 6 0 10 28 10 65 0 37 -4 65 -10 65 -5 0 -10 -13 -10 -30 0 -28 -2 -30 -39 -30 -37 0 -40 2 -44 33 -2 17 -4 1 -4 -38z"/><path d="M1686 161 c-3 -4 5 -6 17 -4 21 4 22 2 19 -56 -3 -39 0 -61 7 -61 7 0 11 23 11 59 0 54 2 60 23 64 12 2 1 5 -25 6 -26 0 -49 -3 -52 -8z"/><path d="M1813 105 c0 -38 2 -53 4 -32 2 20 2 52 0 70 -2 17 -4 1 -4 -38z"/><path d="M2053 105 c-1 -38 1 -63 4 -55 2 8 7 21 9 29 4 11 7 12 16 3 7 -7 17 -12 23 -12 5 0 2 5 -8 11 -18 10 -18 12 0 32 15 19 14 19 -9 -2 l-27 -23 -4 43 c-2 30 -4 21 -4 -26z"/><path d="M2200 160 c0 -6 7 -10 15 -10 8 0 15 2 15 4 0 2 -7 6 -15 10 -8 3 -15 1 -15 -4z"/><path d="M2295 160 c-3 -5 -3 -14 0 -20 3 -5 1 -10 -4 -10 -6 0 -11 -5 -11 -11 0 -5 4 -8 9 -4 6 3 12 -14 14 -37 2 -31 4 -25 5 25 2 66 -1 77 -13 57z"/><path d="M2510 145 c0 -14 -6 -25 -12 -25 -9 0 -9 -3 1 -9 8 -6 12 -19 9 -35 -3 -15 -1 -29 3 -32 5 -3 9 24 9 60 0 36 -2 66 -5 66 -3 0 -5 -11 -5 -25z"/><path d="M1412 110 c-2 -58 10 -95 21 -66 4 9 2 16 -3 16 -5 0 -11 24 -13 53 l-3 52 -2 -55z"/><path d="M2881 110 c-1 -59 11 -95 22 -65 4 9 3 13 -3 10 -15 -9 -12 58 3 74 8 9 8 12 0 7 -6 -3 -13 1 -16 11 -3 10 -5 -7 -6 -37z"/><path d="M686 131 c-3 -5 1 -11 9 -14 9 -4 12 -1 8 9 -6 16 -10 17 -17 5z"/><path d="M794 127 c3 -10 6 -34 6 -53 0 -19 5 -34 10 -34 15 0 11 52 -6 80 -8 14 -13 17 -10 7z"/><path d="M820 125 c0 -8 8 -11 20 -8 11 3 20 7 20 8 0 1 -9 5 -20 8 -12 3 -20 0 -20 -8z"/><path d="M1250 131 c0 -6 4 -13 10 -16 6 -3 7 1 4 9 -7 18 -14 21 -14 7z"/><path d="M1856 132 c-3 -6 -2 -13 4 -17 5 -3 11 -23 12 -43 1 -34 2 -34 5 -7 5 36 -10 84 -21 67z"/><path d="M2634 126 c3 -10 2 -24 -4 -31 -8 -9 -7 -14 3 -18 10 -4 13 3 12 24 -1 16 -5 32 -10 37 -4 4 -5 -1 -1 -12z"/><path d="M2740 121 c-13 -25 -13 -31 2 -31 6 0 8 3 5 6 -3 4 -2 15 4 25 5 11 7 19 5 19 -3 0 -10 -9 -16 -19z"/><path d="M2820 135 c0 -5 5 -17 10 -25 5 -8 10 -10 10 -5 0 6 -5 17 -10 25 -5 8 -10 11 -10 5z"/><path d="M172 116 c7 -8 15 -12 17 -11 5 6 -10 25 -20 25 -5 0 -4 -6 3 -14z"/><path d="M310 120 c0 -5 7 -7 15 -4 8 4 15 8 15 10 0 2 -7 4 -15 4 -8 0 -15 -4 -15 -10z"/><path d="M640 109 c0 -11 5 -17 10 -14 6 4 8 10 5 15 -3 4 1 11 7 13 8 3 6 6 -4 6 -12 1 -18 -6 -18 -20z"/><path d="M742 80 c1 -40 2 -41 5 -10 2 19 11 40 20 47 13 10 13 12 -6 10 -18 -1 -21 -7 -19 -47z"/><path d="M896 111 c-19 -21 -12 -45 19 -71 13 -11 19 -10 34 4 29 26 32 61 7 76 -18 11 -19 11 -10 -1 6 -8 10 -25 10 -39 -1 -20 -6 -25 -26 -25 -19 0 -26 6 -28 24 -2 13 2 27 9 32 8 4 11 10 8 14 -3 3 -14 -4 -23 -14z"/><path d="M1000 109 c-6 -11 -9 -25 -6 -32 2 -7 5 -5 5 5 1 9 8 24 17 32 8 9 11 16 5 16 -6 0 -15 -9 -21 -21z"/><path d="M1101 121 c-8 -5 -9 -11 -3 -15 5 -3 12 1 16 9 6 17 6 18 -13 6z"/><path d="M1190 66 c0 -43 4 -63 13 -63 8 0 12 17 11 54 -1 29 2 53 7 53 18 0 8 16 -11 17 -18 2 -20 -4 -20 -61z"/><path d="M1305 121 c-3 -5 0 -13 6 -17 7 -4 9 -3 5 4 -3 5 0 13 6 15 9 4 10 6 1 6 -6 1 -14 -3 -18 -8z"/><path d="M1349 122 c8 -6 12 -21 9 -41 -2 -17 -1 -31 4 -31 16 0 4 73 -12 77 -12 4 -13 3 -1 -5z"/><path d="M1505 120 c3 -5 8 -10 11 -10 2 0 4 5 4 10 0 6 -5 10 -11 10 -5 0 -7 -4 -4 -10z"/><path d="M1910 85 c0 -25 5 -45 10 -45 6 0 10 20 10 45 0 25 -4 45 -10 45 -5 0 -10 -20 -10 -45z"/><path d="M1950 83 c0 -25 5 -43 11 -43 8 0 10 12 6 35 -3 19 -2 35 4 35 5 0 9 4 9 8 0 5 -7 9 -15 9 -11 0 -15 -12 -15 -44z"/><path d="M1995 124 c6 -2 9 -22 7 -44 -2 -23 0 -40 6 -40 16 0 20 79 4 85 -16 6 -32 5 -17 -1z"/><path d="M2218 123 c7 -3 16 -2 19 1 4 3 -2 6 -13 5 -11 0 -14 -3 -6 -6z"/><path d="M2346 108 c-8 -12 -12 -26 -8 -32 4 -7 8 -3 10 9 2 11 9 26 14 33 6 6 8 12 5 12 -3 0 -13 -10 -21 -22z"/><path d="M2451 121 c-8 -5 -9 -11 -3 -15 5 -3 12 1 16 9 6 17 6 18 -13 6z"/><path d="M2550 85 c0 -25 5 -45 10 -45 6 0 10 20 10 45 0 25 -4 45 -10 45 -5 0 -10 -20 -10 -45z"/><path d="M2597 123 c-10 -9 -9 -33 1 -33 4 0 8 9 9 20 2 21 0 24 -10 13z"/><path d="M2770 85 c0 -27 2 -46 4 -44 8 8 10 78 3 85 -4 4 -7 -14 -7 -41z"/><path d="M2976 118 c3 -5 10 -6 15 -3 13 9 11 12 -6 12 -8 0 -12 -4 -9 -9z"/><path d="M2675 110 c4 -6 11 -8 16 -5 14 9 11 15 -7 15 -8 0 -12 -5 -9 -10z"/><path d="M2931 104 c0 -11 3 -14 6 -6 3 7 2 16 -1 19 -3 4 -6 -2 -5 -13z"/><path d="M1060 99 c0 -5 5 -7 10 -4 6 3 10 8 10 11 0 2 -4 4 -10 4 -5 0 -10 -5 -10 -11z"/><path d="M1560 99 c0 -5 5 -7 10 -4 6 3 10 8 10 11 0 2 -4 4 -10 4 -5 0 -10 -5 -10 -11z"/><path d="M2410 99 c0 -5 5 -7 10 -4 6 3 10 8 10 11 0 2 -4 4 -10 4 -5 0 -10 -5 -10 -11z"/><path d="M332 70 c0 -19 2 -27 5 -17 2 9 2 25 0 35 -3 9 -5 1 -5 -18z"/><path d="M706 78 c-8 -31 -8 -43 1 -34 8 8 16 56 10 56 -3 0 -7 -10 -11 -22z"/><path d="M2228 93 c7 -3 16 -2 19 1 4 3 -2 6 -13 5 -11 0 -14 -3 -6 -6z"/><path d="M2992 70 c0 -19 2 -27 5 -17 2 9 2 25 0 35 -3 9 -5 1 -5 -18z"/><path d="M405 81 c-3 -5 -2 -12 3 -15 5 -3 9 1 9 9 0 17 -3 19 -12 6z"/><path d="M1303 83 c-9 -3 -10 -10 -3 -23 11 -20 40 -35 40 -20 0 6 -7 10 -15 10 -16 0 -16 20 0 32 12 9 -2 9 -22 1z"/><path d="M1576 81 c-13 -5 -16 -10 -9 -14 7 -4 14 -3 18 3 4 6 11 8 16 5 5 -4 9 -1 9 4 0 12 -7 13 -34 2z"/><path d="M2720 71 c0 -7 -4 -10 -8 -7 -4 3 -8 -12 -9 -32 l-1 -37 14 39 c8 22 12 42 9 44 -3 3 -5 0 -5 -7z"/><path d="M1104 59 c-3 -6 -3 -13 0 -16 3 -4 6 0 6 8 0 12 2 12 9 0 5 -7 14 -12 20 -10 6 2 3 9 -8 16 -14 9 -22 9 -27 2z"/><path d="M2236 62 c5 -4 12 -11 15 -15 3 -5 9 -2 12 5 3 9 -3 14 -15 15 -11 1 -16 -1 -12 -5z"/><path d="M1020 49 c0 -4 7 -9 15 -13 8 -3 15 -1 15 5 0 6 5 7 12 3 6 -4 8 -3 4 4 -7 11 -46 12 -46 1z"/><path d="M1583 43 c-3 -10 -8 -21 -10 -25 -10 -19 6 -5 21 17 9 14 12 25 6 25 -6 0 -13 -8 -17 -17z"/><path d="M2107 49 c7 -7 15 -10 18 -7 3 3 -2 9 -12 12 -14 6 -15 5 -6 -5z"/><path d="M2360 45 c15 -8 29 -10 36 -4 6 5 14 7 17 4 4 -3 5 -2 2 2 -3 3 -22 7 -42 9 -37 2 -37 2 -13 -11z"/><path d="M2450 54 c0 -2 10 -8 21 -15 17 -8 20 -8 17 2 -4 11 -38 23 -38 13z"/><path d="M2590 53 c0 -1 9 -7 19 -12 13 -8 22 -7 29 2 8 9 3 12 -19 12 -16 1 -29 0 -29 -2z"/><path d="M668 43 c7 -3 16 -2 19 1 4 3 -2 6 -13 5 -11 0 -14 -3 -6 -6z"/></g><g transform="translate(0.000000,112.000000) scale(0.100000,-0.100000)" fill="#26261F" stroke="none"><path d="M2724 565 c0 -126 2 -177 3 -112 2 65 2 168 0 230 -1 62 -3 9 -3 -118z"/><path d="M668 673 c7 -3 16 -2 19 1 4 3 -2 6 -13 5 -11 0 -14 -3 -6 -6z"/><path d="M2494 645 c1 -13 8 -20 24 -21 17 -1 18 -1 3 3 -11 2 -22 12 -24 21 -3 12 -4 11 -3 -3z"/><path d="M384 495 c0 -88 2 -123 3 -77 2 46 2 118 0 160 -1 42 -3 5 -3 -83z"/><path d="M579 633 c-13 -16 -12 -17 4 -4 9 7 17 15 17 17 0 8 -8 3 -21 -13z"/><path d="M2209 633 c-13 -16 -12 -17 4 -4 9 7 17 15 17 17 0 8 -8 3 -21 -13z"/><path d="M2613 623 c9 -2 23 -2 30 0 6 3 -1 5 -18 5 -16 0 -22 -2 -12 -5z"/><path d="M989 603 c-13 -16 -12 -17 4 -4 9 7 17 15 17 17 0 8 -8 3 -21 -13z"/><path d="M2229 603 c-13 -16 -12 -17 4 -4 16 13 21 21 13 21 -2 0 -10 -8 -17 -17z"/><path d="M2994 465 c0 -72 1 -99 3 -62 2 37 2 96 0 130 -2 34 -3 4 -3 -68z"/><path d="M2201 534 c0 -11 3 -14 6 -6 3 7 2 16 -1 19 -3 4 -6 -2 -5 -13z"/><path d="M961 514 c0 -11 3 -14 6 -6 3 7 2 16 -1 19 -3 4 -6 -2 -5 -13z"/><path d="M1119 403 c-13 -16 -12 -17 4 -4 16 13 21 21 13 21 -2 0 -10 -8 -17 -17z"/><path d="M1804 245 c-3 -8 -4 -20 -1 -27 3 -7 6 -3 6 9 1 12 7 24 14 26 9 4 9 6 -1 6 -7 1 -15 -6 -18 -14z"/><path d="M1828 203 c7 -3 16 -2 19 1 4 3 -2 6 -13 5 -11 0 -14 -3 -6 -6z"/><path d="M132 150 c0 -14 2 -19 5 -12 2 6 2 18 0 25 -3 6 -5 1 -5 -13z"/><path d="M363 105 c0 -38 2 -53 4 -32 2 20 2 52 0 70 -2 17 -4 1 -4 -38z"/><path d="M524 140 c1 -21 6 -25 31 -26 27 -1 27 0 3 3 -18 3 -28 11 -31 26 -3 18 -4 18 -3 -3z"/><path d="M1450 105 c0 -41 4 -65 11 -65 8 0 9 15 5 48 -5 36 -4 44 5 32 9 -13 10 -12 5 3 -3 10 -6 25 -6 33 0 8 -4 14 -10 14 -6 0 -10 -28 -10 -65z"/><path d="M2193 105 c0 -38 2 -53 4 -32 2 20 2 52 0 70 -2 17 -4 1 -4 -38z"/><path d="M2313 105 c0 -38 2 -53 4 -32 2 20 2 52 0 70 -2 17 -4 1 -4 -38z"/><path d="M2923 105 c0 -38 2 -53 4 -32 2 20 2 52 0 70 -2 17 -4 1 -4 -38z"/><path d="M43 95 c0 -33 2 -45 4 -27 2 18 2 45 0 60 -2 15 -4 0 -4 -33z"/><path d="M1398 138 c-2 -7 -1 -29 3 -48 6 -32 7 -31 6 13 0 49 -2 56 -9 35z"/><path d="M233 85 c0 -27 2 -38 4 -22 2 15 2 37 0 50 -2 12 -4 0 -4 -28z"/><path d="M262 83 l1 -48 4 43 c2 23 8 40 14 37 5 -4 9 -1 9 4 0 6 -7 11 -15 11 -11 0 -15 -11 -13 -47z"/><path d="M895 121 c-3 -5 -2 -12 3 -15 5 -3 9 1 9 9 0 17 -3 19 -12 6z"/><path d="M2079 113 c-13 -16 -12 -17 4 -4 16 13 21 21 13 21 -2 0 -10 -8 -17 -17z"/><path d="M324 106 c-3 -8 -4 -27 -2 -43 3 -23 5 -20 9 15 5 43 2 53 -7 28z"/><path d="M854 106 c-3 -8 -4 -27 -2 -43 3 -23 5 -20 9 15 5 43 2 53 -7 28z"/><path d="M1516 105 c-3 -9 -5 -29 -5 -43 1 -20 3 -17 9 13 8 43 7 57 -4 30z"/><path d="M2984 106 c-3 -8 -4 -27 -2 -43 3 -23 5 -20 9 15 5 43 2 53 -7 28z"/><path d="M193 75 c0 -22 2 -30 4 -17 2 12 2 30 0 40 -3 9 -5 -1 -4 -23z"/><path d="M1095 85 c0 -13 3 -21 8 -18 4 2 7 10 7 18 0 8 -3 16 -7 18 -5 3 -8 -5 -8 -18z"/><path d="M1263 94 c-3 -8 -1 -20 5 -26 7 -7 10 -2 9 16 -2 30 -5 32 -14 10z"/><path d="M1369 78 c-3 -22 -1 -34 4 -29 5 5 7 21 5 37 -3 27 -4 26 -9 -8z"/><path d="M2353 100 c2 -9 18 -16 36 -18 20 -2 31 1 27 6 -3 6 -15 8 -27 5 -12 -4 -25 0 -31 8 -8 12 -9 11 -5 -1z"/><path d="M2843 75 c0 -22 2 -30 4 -17 2 12 2 30 0 40 -3 9 -5 -1 -4 -23z"/><path d="M132 70 c0 -19 2 -27 5 -17 2 9 2 25 0 35 -3 9 -5 1 -5 -18z"/><path d="M522 70 c0 -19 2 -27 5 -17 2 9 2 25 0 35 -3 9 -5 1 -5 -18z"/><path d="M631 84 c0 -11 3 -14 6 -6 3 7 2 16 -1 19 -3 4 -6 -2 -5 -13z"/><path d="M752 70 c0 -19 2 -27 5 -17 2 9 2 25 0 35 -3 9 -5 1 -5 -18z"/><path d="M1033 92 c-12 -2 -27 -11 -35 -20 -11 -15 -11 -15 2 -5 8 6 29 13 45 15 17 1 26 5 20 9 -5 3 -20 3 -32 1z"/><path d="M2782 70 c0 -19 2 -27 5 -17 2 9 2 25 0 35 -3 9 -5 1 -5 -18z"/><path d="M1586 72 c-3 -5 1 -9 9 -9 8 0 12 4 9 9 -3 4 -7 8 -9 8 -2 0 -6 -4 -9 -8z"/><path d="M2440 69 c0 -5 5 -7 10 -4 6 3 10 8 10 11 0 2 -4 4 -10 4 -5 0 -10 -5 -10 -11z"/><path d="M2691 77 c2 -1 13 -9 24 -17 19 -14 19 -14 6 3 -7 9 -18 17 -24 17 -6 0 -8 -1 -6 -3z"/><path d="M953 55 c0 -8 4 -12 9 -9 5 3 6 10 3 15 -9 13 -12 11 -12 -6z"/><path d="M2700 41 c0 -6 4 -13 10 -16 6 -3 7 1 4 9 -7 18 -14 21 -14 7z"/></g><g transform="translate(0.000000,112.000000) scale(0.100000,-0.100000)" fill="#0C853F" stroke="none"><path d="M1374 1048 l-19 -23 23 19 c21 18 27 26 19 26 -2 0 -12 -10 -23 -22z"/><path d="M1123 995 c0 -22 2 -30 4 -17 2 12 2 30 0 40 -3 9 -5 -1 -4 -23z"/><path d="M1321 934 c0 -11 3 -14 6 -6 3 7 2 16 -1 19 -3 4 -6 -2 -5 -13z"/><path d="M1321 854 c0 -11 3 -14 6 -6 3 7 2 16 -1 19 -3 4 -6 -2 -5 -13z"/><path d="M1594 798 l-19 -23 23 19 c12 11 22 21 22 23 0 8 -8 2 -26 -19z"/></g><g transform="translate(0.000000,112.000000) scale(0.100000,-0.100000)" fill="#00AC46" stroke="none"><path d="M1503 1050 c0 -25 2 -35 4 -22 2 12 2 32 0 45 -2 12 -4 2 -4 -23z"/><path d="M1598 933 c12 -2 32 -2 45 0 12 2 2 4 -23 4 -25 0 -35 -2 -22 -4z"/><path d="M1429 873 l-24 -28 28 24 c15 14 27 26 27 28 0 8 -8 1 -31 -24z"/><path d="M1170 846 c0 -2 8 -10 18 -17 15 -13 16 -12 3 4 -13 16 -21 21 -21 13z"/></g><g transform="translate(0.000000,112.000000) scale(0.100000,-0.100000)" fill="#06AC46" stroke="none"><path d="M1423 1081 c-57 -41 -80 -74 -92 -132 -12 -52 -5 -129 11 -129 17 0 63 34 100 73 43 46 58 88 58 165 0 63 -15 68 -77 23z"/><path d="M1131 992 c3 -65 9 -85 32 -120 29 -44 102 -100 115 -88 4 4 7 40 7 79 0 86 -19 125 -84 174 -67 51 -74 47 -70 -45z"/><path d="M1513 905 c-53 -27 -89 -70 -118 -139 l-17 -39 61 6 c113 12 180 65 221 172 9 25 9 25 -43 25 -37 0 -69 -8 -104 -25z"/></g></svg>