<svg version="1.0" xmlns="http://www.w3.org/2000/svg" width="398.000000" height="127.000000" viewBox="0 0 398.000000 127.000000" preserveAspectRatio="xMidYMid meet"><rect x="119" y="11" width="21" height="7" fill="rgb(129,197,93)" /><g transform="translate(0.000000,127.000000) scale(0.100000,-0.100000)" fill="#72BF46" stroke="none"><path d="M1200 1158 c-339 -20 -686 -151 -842 -317 -80 -86 -102 -135 -102 -236 -1 -93 19 -143 86 -219 48 -55 143 -130 178 -141 17 -5 -2 20 -65 82 -100 98 -125 148 -125 247 0 93 68 201 177 283 26 20 50 39 53 42 17 19 181 95 270 125 325 109 733 112 1100 7 102 -30 315 -117 348 -143 15 -11 15 -11 4 3 -7 9 -43 37 -81 63 -224 150 -604 228 -1001 204z"/><path d="M557 229 c7 -7 15 -10 18 -7 3 3 -2 9 -12 12 -14 6 -15 5 -6 -5z"/></g><g transform="translate(0.000000,127.000000) scale(0.100000,-0.100000)" fill="#ACDF8C" stroke="none"><path d="M1273 1163 c9 -2 23 -2 30 0 6 3 -1 5 -18 5 -16 0 -22 -2 -12 -5z"/><path d="M1333 1163 c9 -2 23 -2 30 0 6 3 -1 5 -18 5 -16 0 -22 -2 -12 -5z"/><path d="M1046 1151 c-5 -8 84 -3 93 5 2 2 -16 4 -42 4 -25 0 -48 -4 -51 -9z"/><path d="M1283 1103 c26 -2 68 -2 95 0 26 2 4 3 -48 3 -52 0 -74 -1 -47 -3z"/><path d="M1468 1103 c6 -2 18 -2 25 0 6 3 1 5 -13 5 -14 0 -19 -2 -12 -5z"/><path d="M1148 1093 c7 -3 16 -2 19 1 4 3 -2 6 -13 5 -11 0 -14 -3 -6 -6z"/><path d="M1568 1093 c6 -2 18 -2 25 0 6 3 1 5 -13 5 -14 0 -19 -2 -12 -5z"/><path d="M1671 1079 c13 -8 88 -14 78 -5 -2 2 -24 6 -48 9 -29 4 -40 2 -30 -4z"/><path d="M1028 1073 c7 -3 16 -2 19 1 4 3 -2 6 -13 5 -11 0 -14 -3 -6 -6z"/><path d="M1858 1043 c7 -3 16 -2 19 1 4 3 -2 6 -13 5 -11 0 -14 -3 -6 -6z"/><path d="M1970 1010 c8 -5 24 -10 34 -10 26 0 18 6 -19 14 -22 5 -26 4 -15 -4z"/><path d="M2050 985 c14 -8 30 -14 35 -14 6 0 -1 6 -15 14 -14 8 -29 14 -35 14 -5 0 1 -6 15 -14z"/><path d="M710 980 c-8 -5 -10 -10 -5 -10 6 0 17 5 25 10 8 5 11 10 5 10 -5 0 -17 -5 -25 -10z"/><path d="M670 960 c-9 -6 -10 -10 -3 -10 6 0 15 5 18 10 8 12 4 12 -15 0z"/><path d="M2200 956 c0 -2 16 -14 36 -26 47 -30 36 -37 -16 -10 -23 12 -44 19 -46 17 -3 -2 20 -16 51 -31 30 -15 58 -33 62 -40 12 -19 53 -27 53 -10 0 8 -4 14 -9 14 -5 0 -28 16 -52 35 -42 36 -79 60 -79 51z"/><path d="M370 865 c-24 -25 -42 -45 -39 -45 3 0 25 20 49 45 24 25 42 45 39 45 -3 0 -25 -20 -49 -45z"/><path d="M560 899 c0 -5 5 -7 10 -4 6 3 10 8 10 11 0 2 -4 4 -10 4 -5 0 -10 -5 -10 -11z"/><path d="M500 854 c-64 -50 -73 -63 -17 -24 42 30 77 61 66 59 -2 0 -24 -16 -49 -35z"/><path d="M299 783 c-13 -16 -12 -17 4 -4 9 7 17 15 17 17 0 8 -8 3 -21 -13z"/><path d="M399 753 l-24 -28 28 24 c15 14 27 26 27 28 0 8 -8 1 -31 -24z"/><path d="M340 644 c-14 -43 -9 -152 9 -180 11 -17 12 -16 6 6 -14 55 -17 130 -5 165 7 20 10 39 7 41 -3 3 -11 -11 -17 -32z"/><path d="M360 433 c0 -6 8 -17 18 -24 16 -13 16 -13 2 6 -8 11 -16 22 -17 24 -2 2 -3 0 -3 -6z"/><path d="M330 387 c0 -2 15 -16 33 -33 l32 -29 -29 33 c-28 30 -36 37 -36 29z"/><path d="M420 355 c13 -14 26 -25 28 -25 3 0 -5 11 -18 25 -13 14 -26 25 -28 25 -3 0 5 -11 18 -25z"/><path d="M420 306 c0 -2 8 -10 18 -17 15 -13 16 -12 3 4 -13 16 -21 21 -21 13z"/><path d="M521 263 c19 -21 20 -25 6 -20 -32 12 -9 -9 32 -29 23 -10 41 -22 41 -25 0 -4 12 -9 28 -12 15 -3 35 -9 45 -12 9 -4 17 -3 17 2 0 5 -15 14 -33 21 -18 7 -43 21 -55 32 -11 11 -25 20 -29 20 -4 0 -21 11 -37 25 -38 33 -46 32 -15 -2z m54 -41 c-3 -3 -11 0 -18 7 -9 10 -8 11 6 5 10 -3 15 -9 12 -12z"/><path d="M460 276 c0 -2 8 -10 18 -17 15 -13 16 -12 3 4 -13 16 -21 21 -21 13z"/><path d="M1861 238 l-20 -43 24 28 c14 15 25 35 25 43 0 23 -7 16 -29 -28z"/></g><g transform="translate(0.000000,127.000000) scale(0.100000,-0.100000)" fill="#463F99" stroke="none"><path d="M2565 999 c-75 -18 -135 -99 -135 -183 0 -37 -6 -52 -25 -72 -14 -14 -25 -33 -24 -42 0 -14 2 -14 6 -2 3 8 17 25 30 37 17 17 23 33 23 67 0 58 11 86 55 135 27 29 48 42 83 50 89 19 152 -13 123 -61 -12 -22 -12 -22 4 -6 21 20 14 64 -13 72 -41 12 -90 14 -127 5z"/><path d="M2601 936 c2 -2 15 -9 29 -15 24 -11 24 -11 6 3 -16 13 -49 24 -35 12z"/><path d="M1345 749 c-16 -4 -46 -22 -65 -39 l-35 -31 43 30 c103 71 252 36 252 -60 0 -24 -5 -28 -32 -32 l-33 -5 35 2 c33 1 35 3 38 38 2 29 -2 43 -21 62 -40 40 -116 55 -182 35z"/><path d="M2090 732 c-53 -28 -99 -132 -58 -132 7 0 7 4 0 13 -15 18 13 72 51 99 41 29 127 36 164 14 l28 -17 -24 20 c-30 27 -112 28 -161 3z"/><path d="M2731 730 c-13 -11 -19 -20 -14 -20 6 0 18 9 28 20 23 25 17 25 -14 0z"/><path d="M2538 733 c18 -2 45 -2 60 0 15 2 0 4 -33 4 -33 0 -45 -2 -27 -4z"/><path d="M3235 720 c3 -5 8 -10 11 -10 2 0 4 5 4 10 0 6 -5 10 -11 10 -5 0 -7 -4 -4 -10z"/><path d="M3404 708 l-19 -23 25 20 c14 11 27 21 29 22 2 2 0 3 -6 3 -5 0 -18 -10 -29 -22z"/><path d="M1364 694 c-18 -14 -18 -15 4 -4 12 6 22 13 22 15 0 8 -5 6 -26 -11z"/><path d="M1438 700 c19 -22 15 -29 -25 -33 l-38 -4 43 -1 c46 -2 56 15 25 39 -15 11 -16 11 -5 -1z"/><path d="M2168 694 c31 -21 32 -90 1 -99 -11 -4 -18 -9 -16 -12 3 -2 15 0 26 7 29 15 30 94 2 110 -30 15 -38 12 -13 -6z"/><path d="M2615 700 c-3 -5 -1 -10 4 -10 6 0 11 5 11 10 0 6 -2 10 -4 10 -3 0 -8 -4 -11 -10z"/><path d="M2416 683 c16 -12 18 -206 3 -235 -11 -21 -11 -22 5 -9 14 12 16 31 14 129 -2 92 -6 116 -18 119 -9 3 -11 1 -4 -4z"/><path d="M3262 660 c0 -14 2 -19 5 -12 2 6 2 18 0 25 -3 6 -5 1 -5 -13z"/><path d="M3483 653 c15 -2 37 -2 50 0 12 2 0 4 -28 4 -27 0 -38 -2 -22 -4z"/><path d="M3528 623 c6 -2 18 -2 25 0 6 3 1 5 -13 5 -14 0 -19 -2 -12 -5z"/><path d="M1301 598 c-13 -36 -1 -84 31 -120 l29 -33 -24 35 c-29 41 -38 85 -26 117 5 13 6 23 4 23 -3 0 -9 -10 -14 -22z"/><path d="M3422 560 c0 -19 2 -27 5 -17 2 9 2 25 0 35 -3 9 -5 1 -5 -18z"/><path d="M2080 553 c-25 -10 -70 -62 -69 -80 0 -15 2 -14 9 3 4 12 25 35 46 53 39 32 40 34 14 24z"/><path d="M2165 541 c-16 -10 -41 -31 -55 -47 -18 -20 -13 -18 18 9 23 20 47 37 52 37 18 0 11 -47 -12 -75 l-21 -28 22 12 c28 15 33 29 29 75 l-3 36 -30 -19z"/><path d="M2726 488 c-11 -35 -13 -58 -6 -53 4 3 10 18 12 35 5 30 1 41 -6 18z"/><path d="M3467 459 c7 -7 15 -10 18 -7 3 3 -2 9 -12 12 -14 6 -15 5 -6 -5z"/><path d="M1720 450 c19 -13 30 -13 30 0 0 6 -10 10 -22 10 -19 0 -20 -2 -8 -10z"/><path d="M1775 450 c3 -5 12 -7 20 -3 21 7 19 13 -6 13 -11 0 -18 -4 -14 -10z"/><path d="M2280 450 c-9 -6 -10 -10 -3 -10 6 0 15 5 18 10 8 12 4 12 -15 0z"/><path d="M1516 420 c-34 -36 -94 -54 -161 -47 l-50 5 42 -10 c64 -16 129 -2 171 37 21 18 35 36 32 39 -3 3 -18 -8 -34 -24z"/><path d="M3380 426 c0 -2 8 -10 18 -17 15 -13 16 -12 3 4 -13 16 -21 21 -21 13z"/><path d="M2010 413 c0 -37 87 -57 145 -34 12 5 -8 6 -46 4 -61 -5 -67 -4 -83 18 -9 13 -16 18 -16 12z"/><path d="M2301 400 c-28 -24 -74 -26 -91 -5 -7 8 -19 15 -28 15 -10 0 -6 -7 11 -20 34 -27 80 -25 114 5 33 29 29 33 -6 5z"/><path d="M3434 386 c11 -9 27 -16 35 -15 14 0 14 1 1 6 -8 3 -24 10 -35 15 -20 9 -20 9 -1 -6z"/><path d="M828 383 c12 -2 30 -2 40 0 9 3 -1 5 -23 4 -22 0 -30 -2 -17 -4z"/><path d="M933 383 c9 -2 23 -2 30 0 6 3 -1 5 -18 5 -16 0 -22 -2 -12 -5z"/><path d="M1053 383 c15 -2 39 -2 55 0 15 2 2 4 -28 4 -30 0 -43 -2 -27 -4z"/><path d="M2383 382 c-6 -4 26 -6 70 -4 126 4 142 9 37 10 -52 1 -100 -2 -107 -6z"/><path d="M2718 383 c29 -2 74 -2 100 0 26 2 2 3 -53 3 -55 0 -76 -1 -47 -3z"/><path d="M2958 383 c23 -2 61 -2 85 0 23 2 4 4 -43 4 -47 0 -66 -2 -42 -4z"/><path d="M3183 383 c26 -2 68 -2 95 0 26 2 4 3 -48 3 -52 0 -74 -1 -47 -3z"/><path d="M3565 370 c4 -6 11 -8 16 -5 14 9 11 15 -7 15 -8 0 -12 -5 -9 -10z"/><path d="M1788 323 c7 -3 16 -2 19 1 4 3 -2 6 -13 5 -11 0 -14 -3 -6 -6z"/><path d="M1951 274 c0 -11 3 -14 6 -6 3 7 2 16 -1 19 -3 4 -6 -2 -5 -13z"/><path d="M1703 143 c15 -2 39 -2 55 0 15 2 2 4 -28 4 -30 0 -43 -2 -27 -4z"/></g><g transform="translate(0.000000,127.000000) scale(0.100000,-0.100000)" fill="#B2E599" stroke="none"><path d="M1378 1184 c-2 -2 -57 -4 -122 -6 -64 -1 -120 -6 -123 -11 -5 -8 276 0 285 8 1 1 -6 5 -17 8 -11 2 -21 3 -23 1z"/><path d="M1090 1176 c0 -2 7 -7 16 -10 8 -3 12 -2 9 4 -6 10 -25 14 -25 6z"/><path d="M1480 1171 c-17 -5 15 -11 95 -19 66 -7 160 -22 209 -32 102 -23 108 -23 83 -9 -22 13 -56 21 -84 20 -13 0 -23 3 -23 8 0 5 -10 9 -22 9 -13 0 -41 3 -63 6 -22 4 -59 6 -82 6 -23 0 -44 4 -48 10 -7 11 -27 12 -65 1z"/><path d="M1020 1150 c-23 -7 -23 -8 -3 -9 12 -1 25 4 28 9 3 6 5 10 3 9 -2 -1 -14 -5 -28 -9z"/><path d="M845 1114 c-49 -12 -94 -19 -100 -16 -5 3 -5 -1 1 -7 9 -10 38 -6 130 18 66 16 106 29 89 28 -16 0 -70 -11 -120 -23z"/><path d="M1428 1103 c6 -2 18 -2 25 0 6 3 1 5 -13 5 -14 0 -19 -2 -12 -5z"/><path d="M1178 1093 c6 -2 18 -2 25 0 6 3 1 5 -13 5 -14 0 -19 -2 -12 -5z"/><path d="M1528 1093 c6 -2 18 -2 25 0 6 3 1 5 -13 5 -14 0 -19 -2 -12 -5z"/><path d="M1940 1081 c67 -22 194 -80 264 -121 33 -20 42 -23 26 -9 -14 11 -47 32 -75 46 -27 14 -58 33 -69 42 -10 9 -19 14 -20 12 0 -2 -18 1 -39 8 -21 7 -34 17 -31 23 4 6 -2 8 -16 3 -13 -4 -20 -3 -17 2 4 6 -12 10 -36 10 l-42 1 55 -17z"/><path d="M1638 1083 c7 -3 16 -2 19 1 4 3 -2 6 -13 5 -11 0 -14 -3 -6 -6z"/><path d="M993 1063 c9 -2 23 -2 30 0 6 3 -1 5 -18 5 -16 0 -22 -2 -12 -5z"/><path d="M633 1040 c-24 -11 -43 -16 -43 -13 0 3 -9 -2 -20 -12 -11 -10 -20 -14 -20 -9 0 5 -4 4 -8 -2 -10 -16 -92 -66 -92 -57 0 5 -5 0 -11 -9 -5 -10 -16 -15 -25 -11 -9 3 -14 0 -12 -8 2 -8 -3 -13 -9 -12 -7 2 -12 -1 -10 -5 3 -13 -80 -101 -89 -94 -4 4 -4 2 0 -5 3 -6 -2 -16 -11 -22 -10 -6 -15 -11 -11 -11 4 0 -1 -22 -12 -49 -26 -67 -31 -123 -15 -184 7 -28 11 -55 9 -59 -3 -5 0 -8 6 -8 6 0 8 -4 5 -10 -3 -6 -2 -10 4 -10 6 0 17 -13 25 -29 9 -16 34 -46 58 -67 23 -22 54 -51 70 -66 15 -14 28 -23 28 -20 0 4 4 0 10 -8 5 -8 11 -12 14 -9 3 3 -23 29 -59 58 -117 95 -165 183 -165 300 1 84 29 152 93 226 59 67 112 104 247 172 103 52 127 70 43 33z"/><path d="M1888 1033 c7 -3 16 -2 19 1 4 3 -2 6 -13 5 -11 0 -14 -3 -6 -6z"/><path d="M690 959 c0 -5 5 -7 10 -4 6 3 10 8 10 11 0 2 -4 4 -10 4 -5 0 -10 -5 -10 -11z"/><path d="M2127 949 c7 -7 15 -10 18 -7 3 3 -2 9 -12 12 -14 6 -15 5 -6 -5z"/><path d="M614 924 c-18 -14 -18 -15 4 -4 12 6 22 13 22 15 0 8 -5 6 -26 -11z"/><path d="M2280 905 c13 -14 26 -25 28 -25 3 0 -5 11 -18 25 -13 14 -26 25 -28 25 -3 0 5 -11 18 -25z"/><path d="M2223 895 c0 -8 4 -12 9 -9 5 3 6 10 3 15 -9 13 -12 11 -12 -6z"/><path d="M2250 886 c0 -2 7 -7 16 -10 8 -3 12 -2 9 4 -6 10 -25 14 -25 6z"/><path d="M2342 838 c2 -6 15 -18 28 -27 l24 -16 -19 27 c-20 28 -40 38 -33 16z"/><path d="M444 798 c-19 -23 -19 -23 2 -5 11 9 24 14 29 10 4 -5 5 -2 1 5 -9 16 -10 16 -32 -10z"/><path d="M389 733 c-13 -16 -12 -17 4 -4 16 13 21 21 13 21 -2 0 -10 -8 -17 -17z"/><path d="M440 345 c30 -30 57 -55 59 -55 3 0 -19 25 -49 55 -30 30 -57 55 -59 55 -3 0 19 -25 49 -55z"/><path d="M490 246 c0 -2 7 -7 16 -10 8 -3 12 -2 9 4 -6 10 -25 14 -25 6z"/><path d="M533 215 c0 -7 7 -11 15 -7 11 4 13 1 7 -8 -5 -9 -4 -11 3 -6 16 10 15 14 -6 25 -14 7 -19 6 -19 -4z"/><path d="M690 160 c0 -5 4 -10 9 -10 5 0 18 -3 28 -6 16 -6 16 -5 -2 9 -23 19 -35 21 -35 7z"/></g><g transform="translate(0.000000,127.000000) scale(0.100000,-0.100000)" fill="#39339F" stroke="none"><path d="M2545 971 c-67 -40 -105 -110 -105 -193 0 -28 -6 -41 -27 -57 l-28 -20 28 -1 27 0 0 -136 0 -135 -30 -10 c-54 -19 -32 -29 65 -29 98 0 119 9 63 25 l-33 10 0 135 0 135 53 3 c37 2 52 7 52 18 0 10 -14 14 -55 14 l-55 0 0 75 c0 41 5 85 11 98 20 44 85 60 127 31 27 -19 62 -10 62 16 0 42 -100 55 -155 21z"/><path d="M2737 870 c-5 -19 15 -50 31 -50 19 1 33 20 30 41 -4 33 -53 40 -61 9z"/><path d="M671 726 c-13 -14 -32 -28 -43 -32 -24 -7 -23 -20 2 -27 20 -5 20 -12 18 -124 -3 -111 -4 -119 -25 -128 -13 -5 -23 -12 -23 -15 0 -3 34 -5 75 -5 41 0 75 3 75 8 0 4 -9 7 -19 7 -27 0 -31 18 -31 141 l0 109 33 20 c40 25 89 26 110 2 14 -15 17 -41 17 -140 0 -121 0 -122 -25 -128 -47 -12 -25 -19 55 -19 80 0 102 7 55 19 -17 4 -25 14 -26 29 -1 17 -1 146 1 212 0 17 56 45 88 45 21 0 37 -8 52 -27 19 -24 20 -37 18 -137 -3 -104 -4 -112 -25 -121 -38 -16 -26 -21 52 -20 41 0 75 2 75 5 0 3 -10 10 -22 15 -22 9 -23 17 -28 143 -5 126 -6 135 -29 153 -32 26 -110 26 -144 -1 -14 -11 -30 -20 -36 -20 -6 0 -20 9 -31 20 -24 24 -102 27 -140 5 -36 -21 -48 -18 -52 11 l-3 26 -24 -26z"/><path d="M1355 737 c-81 -33 -109 -73 -120 -172 -6 -52 -3 -66 17 -104 31 -58 75 -81 154 -81 64 0 102 18 125 62 16 29 6 31 -36 7 -42 -25 -107 -29 -143 -10 -38 20 -62 70 -62 128 0 28 5 55 11 58 5 4 60 6 120 6 117 -2 132 5 110 48 -28 52 -118 82 -176 58z m100 -37 c31 -34 13 -50 -59 -50 -36 0 -67 4 -70 9 -10 15 53 61 83 61 15 0 36 -9 46 -20z"/><path d="M2759 727 c-14 -12 -35 -27 -45 -34 -18 -12 -18 -12 4 -19 21 -6 22 -11 22 -123 0 -121 -6 -141 -42 -141 -10 0 -18 -4 -18 -10 0 -6 35 -10 85 -10 50 0 85 4 85 10 0 6 -6 10 -12 10 -39 1 -43 16 -48 179 l-5 159 -26 -21z"/><path d="M1690 718 c-44 -30 -63 -68 -62 -124 1 -45 25 -104 42 -104 23 0 7 -21 -25 -34 -29 -13 -35 -20 -35 -45 0 -20 7 -35 20 -43 26 -16 26 -35 0 -43 -32 -10 -53 -50 -46 -86 12 -61 88 -96 184 -85 124 15 205 97 172 175 -15 38 -42 48 -141 56 -116 9 -129 12 -129 35 0 26 29 40 82 40 93 0 153 63 145 152 -4 46 -3 47 26 50 49 5 46 28 -4 28 -30 0 -50 6 -66 22 -36 33 -118 37 -163 6z m113 -13 c42 -42 45 -149 6 -199 -28 -36 -71 -35 -99 2 -19 23 -21 37 -18 101 3 62 7 76 27 92 28 23 64 25 84 4z m21 -375 c71 0 92 -59 39 -112 -26 -26 -40 -31 -95 -35 -77 -6 -124 13 -134 54 -15 59 42 107 115 98 24 -3 58 -5 75 -5z"/><path d="M2135 733 c-56 -15 -122 -96 -93 -114 7 -5 17 -7 22 -6 10 3 13 8 36 58 16 34 54 53 80 39 21 -11 35 -67 25 -99 -4 -12 -35 -36 -76 -57 -79 -41 -109 -74 -109 -115 0 -56 65 -75 135 -39 33 17 42 18 50 7 27 -37 93 -26 114 19 8 19 8 24 -4 24 -8 0 -15 -4 -15 -10 0 -16 -27 -11 -34 6 -3 9 -6 71 -6 139 0 95 -3 125 -15 135 -16 14 -80 21 -110 13z m65 -223 c0 -46 -3 -52 -32 -70 -42 -25 -64 -25 -78 0 -14 27 9 71 52 99 50 32 58 28 58 -29z"/><path d="M2980 714 c-39 -28 -49 -44 -27 -44 22 0 27 -22 27 -126 0 -103 -9 -134 -40 -134 -11 0 -20 -4 -20 -9 0 -13 158 -12 166 0 3 5 -2 9 -10 9 -36 0 -46 28 -46 135 0 94 2 106 22 124 50 47 137 33 149 -24 9 -41 10 -155 3 -194 -5 -25 -13 -33 -35 -38 -57 -11 -27 -21 61 -21 50 0 90 4 90 9 0 5 -6 9 -14 9 -37 0 -46 28 -46 141 0 134 -12 163 -69 179 -31 8 -49 7 -83 -5 -78 -29 -78 -29 -78 -6 0 26 -6 26 -50 -5z"/><path d="M3450 718 c-85 -44 -116 -162 -67 -258 27 -54 72 -80 140 -80 51 0 78 10 115 43 32 30 29 54 -4 28 -54 -43 -137 -36 -185 15 -20 22 -24 36 -24 92 l0 67 120 5 c111 5 120 6 117 24 -14 79 -119 111 -212 64z m138 -17 c27 -34 11 -46 -71 -49 -42 -2 -77 1 -77 5 1 15 38 53 62 62 29 12 69 3 86 -18z"/></g><g transform="translate(0.000000,127.000000) scale(0.100000,-0.100000)" fill="#4C3FA5" stroke="none"><path d="M2697 956 c4 -18 0 -26 -17 -31 -12 -4 -19 -9 -17 -12 3 -2 15 0 26 7 21 11 29 44 12 54 -4 3 -6 -5 -4 -18z"/><path d="M2494 938 l-29 -33 33 29 c30 28 37 36 29 36 -2 0 -16 -15 -33 -32z"/><path d="M2573 943 c9 -2 25 -2 35 0 9 3 1 5 -18 5 -19 0 -27 -2 -17 -5z"/><path d="M2455 889 c-4 -6 -5 -12 -2 -15 2 -3 7 2 10 11 7 17 1 20 -8 4z"/><path d="M2502 860 c0 -19 2 -27 5 -17 2 9 2 25 0 35 -3 9 -5 1 -5 -18z"/><path d="M2798 863 c5 -21 7 -23 10 -9 2 10 0 22 -6 28 -6 6 -7 0 -4 -19z"/><path d="M2441 844 c0 -11 3 -14 6 -6 3 7 2 16 -1 19 -3 4 -6 -2 -5 -13z"/><path d="M2730 841 c0 -10 19 -25 25 -20 1 2 -3 10 -11 17 -8 7 -14 8 -14 3z"/><path d="M2421 737 c-13 -21 -12 -21 5 -5 10 10 16 20 13 22 -3 3 -11 -5 -18 -17z"/><path d="M702 725 c0 -16 2 -22 5 -12 2 9 2 23 0 30 -3 6 -5 -1 -5 -18z"/><path d="M1758 743 c6 -2 18 -2 25 0 6 3 1 5 -13 5 -14 0 -19 -2 -12 -5z"/><path d="M2754 728 l-19 -23 23 19 c21 18 27 26 19 26 -2 0 -12 -10 -23 -22z"/><path d="M2794 605 c0 -82 2 -115 3 -72 2 43 2 110 0 150 -1 40 -3 5 -3 -78z"/><path d="M3028 723 c5 -21 7 -23 10 -9 2 10 0 22 -6 28 -6 6 -7 0 -4 -19z"/><path d="M3538 743 c7 -3 16 -2 19 1 4 3 -2 6 -13 5 -11 0 -14 -3 -6 -6z"/><path d="M813 733 c9 -2 23 -2 30 0 6 3 -1 5 -18 5 -16 0 -22 -2 -12 -5z"/><path d="M1023 733 c9 -2 23 -2 30 0 6 3 -1 5 -18 5 -16 0 -22 -2 -12 -5z"/><path d="M2989 723 c-13 -16 -12 -17 4 -4 16 13 21 21 13 21 -2 0 -10 -8 -17 -17z"/><path d="M3118 733 c7 -3 16 -2 19 1 4 3 -2 6 -13 5 -11 0 -14 -3 -6 -6z"/><path d="M1290 709 c-22 -18 -22 -19 -3 -10 12 6 25 16 28 21 9 15 3 12 -25 -11z"/><path d="M2610 717 c0 -12 -12 -17 -52 -19 -32 -2 -52 -8 -54 -16 -1 -7 0 -8 3 -2 2 5 27 10 54 10 36 0 51 4 56 15 3 9 3 19 -1 22 -3 4 -6 -1 -6 -10z"/><path d="M3435 720 c-3 -6 1 -7 9 -4 18 7 21 14 7 14 -6 0 -13 -4 -16 -10z"/><path d="M939 703 c-13 -16 -12 -17 4 -4 9 7 17 15 17 17 0 8 -8 3 -21 -13z"/><path d="M1349 692 c-24 -22 -29 -31 -19 -37 8 -5 11 -4 6 3 -9 15 42 52 73 52 15 0 32 -5 39 -12 23 -23 13 -37 -30 -41 l-43 -4 43 -1 c50 -2 65 17 37 48 -26 29 -69 25 -106 -8z"/><path d="M1500 716 c0 -2 8 -10 18 -17 15 -13 16 -12 3 4 -13 16 -21 21 -21 13z"/><path d="M1768 713 c7 -3 16 -2 19 1 4 3 -2 6 -13 5 -11 0 -14 -3 -6 -6z"/><path d="M3480 710 c-8 -5 -10 -10 -5 -10 6 0 17 5 25 10 8 5 11 10 5 10 -5 0 -17 -5 -25 -10z"/><path d="M1709 693 c-13 -16 -12 -17 4 -4 16 13 21 21 13 21 -2 0 -10 -8 -17 -17z"/><path d="M1868 698 c6 -6 18 -8 28 -6 14 3 12 5 -9 10 -19 3 -25 2 -19 -4z"/><path d="M2059 693 c-13 -16 -12 -17 4 -4 9 7 17 15 17 17 0 8 -8 3 -21 -13z"/><path d="M3390 679 c-12 -16 -21 -32 -18 -34 2 -2 13 12 26 31 28 42 21 45 -8 3z"/><path d="M768 693 c7 -3 16 -2 19 1 4 3 -2 6 -13 5 -11 0 -14 -3 -6 -6z"/><path d="M817 690 c12 -5 26 -17 32 -27 6 -10 11 -13 11 -7 0 15 -34 44 -51 43 -8 0 -4 -4 8 -9z"/><path d="M970 696 c0 -2 18 -6 39 -8 22 -2 37 0 35 4 -5 8 -74 11 -74 4z"/><path d="M2264 575 c0 -72 1 -99 3 -62 2 37 2 96 0 130 -2 34 -3 4 -3 -68z"/><path d="M2403 693 c9 -2 23 -2 30 0 6 3 -1 5 -18 5 -16 0 -22 -2 -12 -5z"/><path d="M2695 691 c-3 -5 -2 -12 3 -15 5 -3 9 1 9 9 0 17 -3 19 -12 6z"/><path d="M2935 689 c-4 -6 -5 -12 -2 -15 2 -3 7 2 10 11 7 17 1 20 -8 4z"/><path d="M3113 693 c9 -2 23 -2 30 0 6 3 -1 5 -18 5 -16 0 -22 -2 -12 -5z"/><path d="M3065 680 c-3 -6 1 -7 9 -4 18 7 21 14 7 14 -6 0 -13 -4 -16 -10z"/><path d="M3178 672 c9 -10 19 -17 21 -16 6 5 -20 34 -30 34 -5 0 -1 -8 9 -18z"/><path d="M3590 678 c0 -9 -6 -19 -12 -21 -10 -4 -10 -6 0 -6 14 -1 28 26 18 36 -3 4 -6 -1 -6 -9z"/><path d="M709 663 c-13 -16 -12 -17 4 -4 9 7 17 15 17 17 0 8 -8 3 -21 -13z"/><path d="M3447 673 c-10 -9 -9 -23 1 -23 5 0 9 7 9 15 0 17 -1 18 -10 8z"/><path d="M637 649 c4 -13 8 -18 11 -10 2 7 -1 18 -6 23 -8 8 -9 4 -5 -13z"/><path d="M2035 659 c-4 -6 -5 -12 -2 -15 2 -3 7 2 10 11 7 17 1 20 -8 4z"/><path d="M2202 640 c0 -19 2 -27 5 -17 2 9 2 25 0 35 -3 9 -5 1 -5 -18z"/><path d="M2727 650 c3 -11 7 -20 9 -20 2 0 4 9 4 20 0 11 -4 20 -9 20 -5 0 -7 -9 -4 -20z"/><path d="M1071 634 c0 -11 3 -14 6 -6 3 7 2 16 -1 19 -3 4 -6 -2 -5 -13z"/><path d="M2973 615 c0 -22 2 -30 4 -17 2 12 2 30 0 40 -3 9 -5 -1 -4 -23z"/><path d="M3034 545 c0 -60 1 -84 3 -52 2 32 2 81 0 110 -2 29 -3 3 -3 -58z"/><path d="M1505 630 l-30 -8 27 -1 c15 0 30 4 33 9 3 6 5 9 3 9 -2 -1 -16 -5 -33 -9z"/><path d="M1621 624 c0 -11 3 -14 6 -6 3 7 2 16 -1 19 -3 4 -6 -2 -5 -13z"/><path d="M1833 605 c0 -22 2 -30 4 -17 2 12 2 30 0 40 -3 9 -5 -1 -4 -23z"/><path d="M1293 615 c-3 -9 -3 -19 1 -22 3 -4 6 1 6 10 0 8 6 18 13 20 9 4 9 6 -1 6 -7 1 -15 -6 -19 -14z"/><path d="M1232 595 c0 -16 2 -22 5 -12 2 9 2 23 0 30 -3 6 -5 -1 -5 -18z"/><path d="M3203 540 c0 -47 2 -66 4 -42 2 23 2 61 0 85 -2 23 -4 4 -4 -43z"/><path d="M1622 575 c0 -16 2 -22 5 -12 2 9 2 23 0 30 -3 6 -5 -1 -5 -18z"/><path d="M3261 574 c0 -11 3 -14 6 -6 3 7 2 16 -1 19 -3 4 -6 -2 -5 -13z"/><path d="M3353 550 c0 -25 2 -35 4 -22 2 12 2 32 0 45 -2 12 -4 2 -4 -23z"/><path d="M2105 551 c-28 -16 -57 -37 -65 -48 -14 -17 -14 -17 6 -1 11 10 45 31 75 48 30 16 50 30 44 30 -5 0 -33 -13 -60 -29z"/><path d="M2137 535 c-20 -14 -37 -28 -37 -31 0 -3 12 3 28 14 15 10 36 24 47 30 11 6 15 12 10 12 -6 0 -27 -11 -48 -25z"/><path d="M1072 530 c0 -14 2 -19 5 -12 2 6 2 18 0 25 -3 6 -5 1 -5 -13z"/><path d="M1292 530 c0 -14 2 -19 5 -12 2 6 2 18 0 25 -3 6 -5 1 -5 -13z"/><path d="M1714 503 c13 -16 29 -23 50 -22 l31 2 -30 4 c-16 3 -39 12 -50 21 -20 17 -20 17 -1 -5z"/><path d="M912 480 c0 -14 2 -19 5 -12 2 6 2 18 0 25 -3 6 -5 1 -5 -13z"/><path d="M1309 482 c15 -28 56 -56 73 -49 8 3 6 6 -5 6 -11 1 -33 16 -50 34 -21 22 -27 25 -18 9z"/><path d="M2972 470 c0 -19 2 -27 5 -17 2 9 2 25 0 35 -3 9 -5 1 -5 -18z"/><path d="M3361 489 c-1 -8 6 -24 15 -35 15 -19 15 -19 6 1 -5 11 -12 27 -15 35 -5 13 -6 13 -6 -1z"/><path d="M1072 460 c0 -19 2 -27 5 -17 2 9 2 25 0 35 -3 9 -5 1 -5 -18z"/><path d="M1662 474 c-7 -8 -8 -14 -3 -14 10 0 25 19 20 25 -2 1 -10 -3 -17 -11z"/><path d="M3450 465 c13 -14 26 -25 28 -25 3 0 -5 11 -18 25 -13 14 -26 25 -28 25 -3 0 5 -11 18 -25z"/><path d="M2500 456 c0 -14 4 -27 8 -30 5 -3 6 8 4 25 -5 35 -12 38 -12 5z"/><path d="M2731 457 c-1 -19 -8 -31 -23 -37 -16 -6 -18 -9 -7 -9 24 -1 41 24 36 51 -4 20 -4 20 -6 -5z"/><path d="M3621 453 c-19 -12 -29 -23 -24 -23 6 0 22 9 36 20 18 15 27 17 30 8 4 -9 6 -10 6 -1 2 21 -13 20 -48 -4z"/><path d="M702 450 c0 -14 2 -19 5 -12 2 6 2 18 0 25 -3 6 -5 1 -5 -13z"/><path d="M2179 453 c-13 -16 -12 -17 4 -4 16 13 21 21 13 21 -2 0 -10 -8 -17 -17z"/><path d="M2012 440 c0 -14 2 -19 5 -12 2 6 2 18 0 25 -3 6 -5 1 -5 -13z"/><path d="M2308 453 c7 -3 16 -2 19 1 4 3 -2 6 -13 5 -11 0 -14 -3 -6 -6z"/><path d="M628 428 c-10 -10 -14 -18 -9 -18 10 0 36 29 30 34 -2 1 -12 -6 -21 -16z"/><path d="M1604 436 c-3 -8 -4 -23 -2 -33 3 -11 6 -6 9 15 6 34 2 42 -7 18z"/><path d="M2422 434 c-7 -8 -8 -14 -3 -14 10 0 25 19 20 25 -2 1 -10 -3 -17 -11z"/><path d="M1140 425 c7 -8 18 -15 25 -15 8 0 16 -6 18 -12 4 -9 6 -9 6 -1 1 6 -13 18 -30 27 -26 13 -29 13 -19 1z"/><path d="M1415 430 c-25 -11 1 -11 35 0 20 6 21 8 5 8 -11 0 -29 -3 -40 -8z"/><path d="M2098 428 c6 -6 18 -8 28 -6 14 3 12 5 -9 10 -19 3 -25 2 -19 -4z"/><path d="M2278 433 c7 -3 16 -2 19 1 4 3 -2 6 -13 5 -11 0 -14 -3 -6 -6z"/><path d="M2316 423 c-6 -14 -5 -15 5 -6 7 7 10 15 7 18 -3 3 -9 -2 -12 -12z"/><path d="M2800 430 c0 -5 10 -12 23 -16 12 -4 25 -12 29 -18 6 -8 8 -8 8 1 0 6 -13 18 -30 27 -16 8 -30 11 -30 6z"/><path d="M3170 423 c-14 -7 -18 -13 -10 -13 17 0 47 17 40 23 -3 2 -16 -2 -30 -10z"/><path d="M3634 418 l-19 -23 23 19 c12 11 22 21 22 23 0 8 -8 2 -26 -19z"/><path d="M2941 421 c-14 -4 -26 -12 -27 -19 -1 -7 0 -8 3 -2 2 5 13 10 23 10 10 0 22 5 25 10 3 6 5 10 3 9 -2 -1 -14 -4 -27 -8z"/><path d="M3533 423 c9 -2 25 -2 35 0 9 3 1 5 -18 5 -19 0 -27 -2 -17 -5z"/><path d="M718 413 c7 -3 16 -2 19 1 4 3 -2 6 -13 5 -11 0 -14 -3 -6 -6z"/><path d="M805 409 c-4 -6 -4 -13 -1 -16 3 -4 6 -1 6 5 0 6 8 13 18 15 15 4 15 5 0 6 -9 0 -20 -4 -23 -10z"/><path d="M950 413 c8 -3 19 -11 23 -17 6 -7 7 -6 4 4 -2 8 -12 16 -23 17 -13 2 -15 1 -4 -4z"/><path d="M1025 409 c-4 -6 -4 -13 -1 -16 3 -4 6 -1 6 5 0 6 8 13 18 15 15 4 15 5 0 6 -9 0 -20 -4 -23 -10z"/><path d="M2180 416 c0 -2 7 -7 16 -10 8 -3 12 -2 9 4 -6 10 -25 14 -25 6z"/><path d="M2375 410 c-3 -6 1 -7 9 -4 18 7 21 14 7 14 -6 0 -13 -4 -16 -10z"/><path d="M2545 413 c11 -3 24 -10 28 -17 6 -7 7 -6 4 4 -2 8 -14 16 -28 17 -19 1 -20 1 -4 -4z"/><path d="M3073 413 c9 -2 14 -9 11 -15 -4 -7 -2 -8 5 -4 15 10 4 26 -17 25 -15 -1 -15 -2 1 -6z"/><path d="M1681 399 c13 -8 88 -14 78 -5 -2 2 -24 6 -48 9 -29 4 -40 2 -30 -4z"/><path d="M2032 394 c10 -10 20 -16 22 -13 3 3 -5 11 -17 18 -21 13 -21 12 -5 -5z"/><path d="M628 393 c6 -2 18 -2 25 0 6 3 1 5 -13 5 -14 0 -19 -2 -12 -5z"/><path d="M698 393 c7 -3 16 -2 19 1 4 3 -2 6 -13 5 -11 0 -14 -3 -6 -6z"/><path d="M868 393 c12 -2 32 -2 45 0 12 2 2 4 -23 4 -25 0 -35 -2 -22 -4z"/><path d="M1088 393 c12 -2 32 -2 45 0 12 2 2 4 -23 4 -25 0 -35 -2 -22 -4z"/><path d="M3228 393 c7 -3 16 -2 19 1 4 3 -2 6 -13 5 -11 0 -14 -3 -6 -6z"/><path d="M1828 383 c12 -2 30 -2 40 0 9 3 -1 5 -23 4 -22 0 -30 -2 -17 -4z"/><path d="M1378 373 c12 -2 30 -2 40 0 9 3 -1 5 -23 4 -22 0 -30 -2 -17 -4z"/><path d="M1890 376 c0 -2 7 -7 16 -10 8 -3 12 -2 9 4 -6 10 -25 14 -25 6z"/><path d="M3513 373 c9 -2 23 -2 30 0 6 3 -1 5 -18 5 -16 0 -22 -2 -12 -5z"/><path d="M1606 319 c-14 -11 -26 -26 -25 -32 0 -8 3 -7 6 1 3 8 19 22 37 33 17 10 26 19 20 19 -6 0 -23 -9 -38 -21z"/><path d="M1738 333 c7 -3 16 -2 19 1 4 3 -2 6 -13 5 -11 0 -14 -3 -6 -6z"/><path d="M1571 254 c0 -11 3 -14 6 -6 3 7 2 16 -1 19 -3 4 -6 -2 -5 -13z"/></g><g transform="translate(0.000000,127.000000) scale(0.100000,-0.100000)" fill="#6C6CAC" stroke="none"><path d="M2737 893 c-3 -5 12 -8 33 -8 21 0 36 3 33 8 -2 4 -17 7 -33 7 -16 0 -31 -3 -33 -7z"/><path d="M2721 854 c0 -11 3 -14 6 -6 3 7 2 16 -1 19 -3 4 -6 -2 -5 -13z"/><path d="M2503 790 c0 -25 2 -35 4 -22 2 12 2 32 0 45 -2 12 -4 2 -4 -23z"/><path d="M2758 813 c6 -2 18 -2 25 0 6 3 1 5 -13 5 -14 0 -19 -2 -12 -5z"/><path d="M2787 753 c9 -6 13 -56 16 -163 l3 -155 -1 159 c0 133 -2 160 -15 163 -11 3 -12 2 -3 -4z"/><path d="M3016 752 c-3 -5 1 -9 9 -9 8 0 12 4 9 9 -3 4 -7 8 -9 8 -2 0 -6 -4 -9 -8z"/><path d="M818 743 c7 -3 16 -2 19 1 4 3 -2 6 -13 5 -11 0 -14 -3 -6 -6z"/><path d="M2744 728 l-19 -23 23 19 c21 18 27 26 19 26 -2 0 -12 -10 -23 -22z"/><path d="M659 723 c-13 -16 -12 -17 4 -4 9 7 17 15 17 17 0 8 -8 3 -21 -13z"/><path d="M778 733 c7 -3 16 -2 19 1 4 3 -2 6 -13 5 -11 0 -14 -3 -6 -6z"/><path d="M988 733 c7 -3 16 -2 19 1 4 3 -2 6 -13 5 -11 0 -14 -3 -6 -6z"/><path d="M1060 736 c0 -2 9 -6 20 -9 11 -3 18 -1 14 4 -5 9 -34 13 -34 5z"/><path d="M1834 731 c7 -11 46 -35 46 -28 0 3 -12 12 -26 22 -15 9 -23 12 -20 6z"/><path d="M735 720 c-3 -6 1 -7 9 -4 18 7 21 14 7 14 -6 0 -13 -4 -16 -10z"/><path d="M897 710 c23 -24 23 -24 40 -5 17 18 17 18 0 6 -15 -12 -21 -11 -40 5 l-22 18 22 -24z"/><path d="M3041 714 c0 -11 3 -14 6 -6 3 7 2 16 -1 19 -3 4 -6 -2 -5 -13z"/><path d="M3635 710 c10 -11 20 -20 23 -20 3 0 -3 9 -13 20 -10 11 -20 20 -23 20 -3 0 3 -9 13 -20z"/><path d="M3550 713 c8 -3 22 -11 30 -17 13 -10 13 -9 1 7 -7 9 -21 17 -30 16 -13 0 -14 -1 -1 -6z"/><path d="M1790 706 c0 -2 8 -10 18 -17 15 -13 16 -12 3 4 -13 16 -21 21 -21 13z"/><path d="M1128 597 c4 -157 9 -175 10 -42 1 66 -2 125 -6 132 -4 6 -6 -35 -4 -90z"/><path d="M2687 693 c-9 -8 12 -33 27 -33 6 0 3 5 -7 11 -9 6 -15 14 -12 20 7 10 2 12 -8 2z"/><path d="M2925 690 c-8 -13 3 -30 20 -30 7 0 16 -6 18 -12 4 -10 6 -10 6 0 1 8 -8 16 -20 19 -12 3 -18 11 -15 19 6 16 0 19 -9 4z"/><path d="M820 686 c0 -2 8 -10 18 -17 15 -13 16 -12 3 4 -13 16 -21 21 -21 13z"/><path d="M955 680 c-3 -6 1 -7 9 -4 18 7 21 14 7 14 -6 0 -13 -4 -16 -10z"/><path d="M607 669 c7 -7 15 -10 18 -7 3 3 -2 9 -12 12 -14 6 -15 5 -6 -5z"/><path d="M2504 575 c0 -55 1 -76 3 -47 2 29 2 74 0 100 -2 26 -3 2 -3 -53z"/><path d="M3045 659 c-4 -6 -5 -12 -2 -15 2 -3 7 2 10 11 7 17 1 20 -8 4z"/><path d="M1348 653 c6 -2 18 -2 25 0 6 3 1 5 -13 5 -14 0 -19 -2 -12 -5z"/><path d="M1913 653 c9 -2 25 -2 35 0 9 3 1 5 -18 5 -19 0 -27 -2 -17 -5z"/><path d="M704 560 c0 -52 1 -74 3 -47 2 26 2 68 0 95 -2 26 -3 4 -3 -48z"/><path d="M850 538 c-3 -64 -1 -114 3 -109 4 4 6 57 5 117 l-3 109 -5 -117z"/><path d="M922 543 c-1 -61 1 -114 6 -116 4 -3 6 32 4 76 -4 141 -9 156 -10 40z"/><path d="M3194 545 c0 -60 1 -84 3 -52 2 32 2 81 0 110 -2 29 -3 3 -3 -58z"/><path d="M3262 615 c0 -16 2 -22 5 -12 2 9 2 23 0 30 -3 6 -5 -1 -5 -18z"/><path d="M644 540 c0 -52 1 -74 3 -47 2 26 2 68 0 95 -2 26 -3 4 -3 -48z"/><path d="M1338 623 c12 -2 32 -2 45 0 12 2 2 4 -23 4 -25 0 -35 -2 -22 -4z"/><path d="M1428 623 c12 -2 30 -2 40 0 9 3 -1 5 -23 4 -22 0 -30 -2 -17 -4z"/><path d="M2733 565 c0 -38 2 -53 4 -32 2 20 2 52 0 70 -2 17 -4 1 -4 -38z"/><path d="M3458 623 c12 -2 32 -2 45 0 12 2 2 4 -23 4 -25 0 -35 -2 -22 -4z"/><path d="M3568 623 c6 -2 18 -2 25 0 6 3 1 5 -13 5 -14 0 -19 -2 -12 -5z"/><path d="M1072 600 c0 -14 2 -19 5 -12 2 6 2 18 0 25 -3 6 -5 1 -5 -13z"/><path d="M3351 604 c0 -11 3 -14 6 -6 3 7 2 16 -1 19 -3 4 -6 -2 -5 -13z"/><path d="M2048 603 c7 -3 16 -2 19 1 4 3 -2 6 -13 5 -11 0 -14 -3 -6 -6z"/><path d="M1223 540 c0 -25 2 -35 4 -22 2 12 2 32 0 45 -2 12 -4 2 -4 -23z"/><path d="M2973 540 c0 -25 2 -35 4 -22 2 12 2 32 0 45 -2 12 -4 2 -4 -23z"/><path d="M3263 510 c0 -30 2 -43 4 -27 2 15 2 39 0 55 -2 15 -4 2 -4 -28z"/><path d="M2109 503 c-13 -16 -12 -17 4 -4 16 13 21 21 13 21 -2 0 -10 -8 -17 -17z"/><path d="M1790 500 c-9 -6 -10 -10 -3 -10 6 0 15 5 18 10 8 12 4 12 -15 0z"/><path d="M1854 488 l-19 -23 23 19 c12 11 22 21 22 23 0 8 -8 2 -26 -19z"/><path d="M3430 501 c0 -6 4 -13 10 -16 6 -3 7 1 4 9 -7 18 -14 21 -14 7z"/><path d="M1320 476 c0 -2 8 -10 18 -17 15 -13 16 -12 3 4 -13 16 -21 21 -21 13z"/><path d="M3629 463 c-13 -16 -12 -17 4 -4 16 13 21 21 13 21 -2 0 -10 -8 -17 -17z"/><path d="M1265 420 c10 -11 20 -20 23 -20 3 0 -3 9 -13 20 -10 11 -20 20 -23 20 -3 0 3 -9 13 -20z"/><path d="M3518 433 c7 -3 16 -2 19 1 4 3 -2 6 -13 5 -11 0 -14 -3 -6 -6z"/><path d="M3558 433 c6 -2 18 -2 25 0 6 3 1 5 -13 5 -14 0 -19 -2 -12 -5z"/><path d="M2528 423 c7 -3 16 -2 19 1 4 3 -2 6 -13 5 -11 0 -14 -3 -6 -6z"/><path d="M585 409 c-11 -16 -1 -19 13 -3 7 8 8 14 3 14 -5 0 -13 -5 -16 -11z"/><path d="M795 409 c-4 -6 -5 -12 -2 -15 2 -3 7 2 10 11 7 17 1 20 -8 4z"/><path d="M1015 409 c-4 -6 -5 -12 -2 -15 2 -3 7 2 10 11 7 17 1 20 -8 4z"/><path d="M1186 407 c3 -10 9 -15 12 -12 3 3 0 11 -7 18 -10 9 -11 8 -5 -6z"/><path d="M2675 409 c-4 -6 -5 -12 -2 -15 2 -3 7 2 10 11 7 17 1 20 -8 4z"/><path d="M2856 407 c3 -10 9 -15 12 -12 3 3 0 11 -7 18 -10 9 -11 8 -5 -6z"/><path d="M3093 405 c0 -8 4 -12 9 -9 5 3 6 10 3 15 -9 13 -12 11 -12 -6z"/><path d="M3135 409 c-4 -6 -5 -12 -2 -15 2 -3 7 2 10 11 7 17 1 20 -8 4z"/><path d="M3316 407 c3 -10 9 -15 12 -12 3 3 0 11 -7 18 -10 9 -11 8 -5 -6z"/><path d="M668 393 c7 -3 16 -2 19 1 4 3 -2 6 -13 5 -11 0 -14 -3 -6 -6z"/><path d="M1778 393 c12 -2 30 -2 40 0 9 3 -1 5 -23 4 -22 0 -30 -2 -17 -4z"/><path d="M3600 390 c-9 -6 -10 -10 -3 -10 6 0 15 5 18 10 8 12 4 12 -15 0z"/><path d="M1138 383 c7 -3 16 -2 19 1 4 3 -2 6 -13 5 -11 0 -14 -3 -6 -6z"/><path d="M1659 309 l-24 -20 30 17 c39 24 40 24 28 24 -6 0 -21 -9 -34 -21z"/><path d="M1818 323 c7 -3 16 -2 19 1 4 3 -2 6 -13 5 -11 0 -14 -3 -6 -6z"/><path d="M1632 260 c0 -14 2 -19 5 -12 2 6 2 18 0 25 -3 6 -5 1 -5 -13z"/><path d="M1595 190 c10 -11 20 -20 23 -20 3 0 -3 9 -13 20 -10 11 -20 20 -23 20 -3 0 3 -9 13 -20z"/></g><g transform="translate(0.000000,127.000000) scale(0.100000,-0.100000)" fill="#7979B8" stroke="none"><path d="M2425 909 c-4 -6 -5 -12 -2 -15 2 -3 7 2 10 11 7 17 1 20 -8 4z"/><path d="M2620 909 c0 -5 5 -7 10 -4 6 3 10 8 10 11 0 2 -4 4 -10 4 -5 0 -10 -5 -10 -11z"/><path d="M2720 885 c-7 -9 -8 -15 -2 -15 5 0 12 7 16 15 3 8 4 15 2 15 -2 0 -9 -7 -16 -15z"/><path d="M2300 829 c0 -5 5 -7 10 -4 6 3 10 8 10 11 0 2 -4 4 -10 4 -5 0 -10 -5 -10 -11z"/><path d="M671 747 c-13 -21 -12 -21 5 -5 10 10 16 20 13 22 -3 3 -11 -5 -18 -17z"/><path d="M3009 753 c-12 -16 -12 -17 2 -6 9 7 19 10 22 6 4 -3 7 -1 7 5 0 17 -16 15 -31 -5z"/><path d="M1758 753 c6 -2 18 -2 25 0 6 3 1 5 -13 5 -14 0 -19 -2 -12 -5z"/><path d="M3513 753 c9 -2 25 -2 35 0 9 3 1 5 -18 5 -19 0 -27 -2 -17 -5z"/><path d="M3108 743 c7 -3 16 -2 19 1 4 3 -2 6 -13 5 -11 0 -14 -3 -6 -6z"/><path d="M1100 731 c0 -6 4 -13 10 -16 6 -3 7 1 4 9 -7 18 -14 21 -14 7z"/><path d="M1850 730 c0 -5 5 -10 11 -10 5 0 7 5 4 10 -3 6 -8 10 -11 10 -2 0 -4 -4 -4 -10z"/><path d="M3623 729 c10 -6 27 -25 38 -42 10 -18 19 -27 19 -20 0 16 -49 73 -63 73 -7 0 -4 -5 6 -11z"/><path d="M1770 706 c0 -2 7 -7 16 -10 8 -3 12 -2 9 4 -6 10 -25 14 -25 6z"/><path d="M3490 700 c-9 -6 -10 -10 -3 -10 6 0 15 5 18 10 8 12 4 12 -15 0z"/><path d="M2890 689 c0 -6 4 -8 9 -5 5 4 11 1 13 -6 3 -8 6 -7 10 3 4 10 -1 15 -13 16 -10 1 -19 -3 -19 -8z"/><path d="M3575 691 c4 -8 2 -17 -6 -22 -9 -6 -10 -9 -2 -9 19 0 27 21 13 33 -10 9 -11 9 -5 -2z"/><path d="M1706 674 c-3 -9 -1 -23 5 -32 9 -15 10 -15 4 2 -3 11 -1 23 6 26 7 5 8 10 1 14 -5 3 -13 -1 -16 -10z"/><path d="M3118 683 c7 -3 16 -2 19 1 4 3 -2 6 -13 5 -11 0 -14 -3 -6 -6z"/><path d="M1562 668 c-15 -15 -15 -28 -1 -28 5 0 8 4 5 9 -4 5 0 11 6 14 7 2 10 7 7 10 -3 4 -11 1 -17 -5z"/><path d="M3172 658 c7 -15 15 -23 17 -17 2 6 -4 18 -13 27 -15 15 -15 15 -4 -10z"/><path d="M3460 669 c0 -5 5 -7 10 -4 6 3 10 8 10 11 0 2 -4 4 -10 4 -5 0 -10 -5 -10 -11z"/><path d="M795 651 c-3 -5 -2 -12 3 -15 5 -3 9 1 9 9 0 17 -3 19 -12 6z"/><path d="M1906 625 c3 -16 -2 -51 -9 -77 -8 -27 -11 -46 -7 -43 17 11 33 111 21 131 -9 16 -10 14 -5 -11z"/><path d="M1691 600 c0 -40 2 -42 11 -22 8 16 8 28 0 45 -9 19 -11 17 -11 -23z"/><path d="M2962 610 c0 -19 2 -27 5 -17 2 9 2 25 0 35 -3 9 -5 1 -5 -18z"/><path d="M3044 550 c0 -52 1 -74 3 -47 2 26 2 68 0 95 -2 26 -3 4 -3 -48z"/><path d="M3665 631 c-6 -5 -19 -11 -30 -14 -19 -4 -19 -5 1 -6 12 0 27 6 34 14 14 16 10 20 -5 6z"/><path d="M351 594 c0 -11 3 -14 6 -6 3 7 2 16 -1 19 -3 4 -6 -2 -5 -13z"/><path d="M3272 575 c0 -16 2 -22 5 -12 2 9 2 23 0 30 -3 6 -5 -1 -5 -18z"/><path d="M3466 577 c3 -10 9 -15 12 -12 3 3 0 11 -7 18 -10 9 -11 8 -5 -6z"/><path d="M1710 520 c6 -11 13 -20 16 -20 2 0 0 9 -6 20 -6 11 -13 20 -16 20 -2 0 0 -9 6 -20z"/><path d="M1800 529 c0 -5 5 -7 10 -4 6 3 10 8 10 11 0 2 -4 4 -10 4 -5 0 -10 -5 -10 -11z"/><path d="M3431 525 c0 -5 6 -21 14 -35 8 -14 14 -20 14 -15 0 6 -6 21 -14 35 -8 14 -14 21 -14 15z"/><path d="M1740 500 c0 -5 5 -10 11 -10 5 0 7 5 4 10 -3 6 -8 10 -11 10 -2 0 -4 -4 -4 -10z"/><path d="M2962 475 c0 -16 2 -22 5 -12 2 9 2 23 0 30 -3 6 -5 -1 -5 -18z"/><path d="M1436 473 c-6 -14 -5 -15 5 -6 7 7 10 15 7 18 -3 3 -9 -2 -12 -12z"/><path d="M780 470 c0 -5 5 -10 11 -10 5 0 7 5 4 10 -3 6 -8 10 -11 10 -2 0 -4 -4 -4 -10z"/><path d="M3670 466 c0 -9 5 -16 10 -16 6 0 10 4 10 9 0 6 -4 13 -10 16 -5 3 -10 -1 -10 -9z"/><path d="M2850 460 c0 -5 5 -10 10 -10 6 0 10 5 10 10 0 6 -4 10 -10 10 -5 0 -10 -4 -10 -10z"/><path d="M3095 460 c-3 -5 -1 -10 4 -10 6 0 11 5 11 10 0 6 -2 10 -4 10 -3 0 -8 -4 -11 -10z"/><path d="M3270 455 c0 -13 20 -35 32 -35 4 0 8 7 8 16 0 8 -5 12 -11 8 -6 -3 -15 0 -20 7 -5 8 -9 9 -9 4z"/><path d="M3360 451 c0 -6 4 -13 10 -16 6 -3 7 1 4 9 -7 18 -14 21 -14 7z"/><path d="M1758 443 c7 -3 16 -2 19 1 4 3 -2 6 -13 5 -11 0 -14 -3 -6 -6z"/><path d="M1680 429 c0 -5 5 -7 10 -4 6 3 10 8 10 11 0 2 -4 4 -10 4 -5 0 -10 -5 -10 -11z"/><path d="M3660 429 c0 -5 5 -7 10 -4 6 3 10 8 10 11 0 2 -4 4 -10 4 -5 0 -10 -5 -10 -11z"/><path d="M1270 400 c0 -5 5 -10 11 -10 5 0 7 5 4 10 -3 6 -8 10 -11 10 -2 0 -4 -4 -4 -10z"/><path d="M3624 394 c-18 -14 -18 -15 4 -4 12 6 22 13 22 15 0 8 -5 6 -26 -11z"/><path d="M2350 390 c8 -5 20 -10 25 -10 6 0 3 5 -5 10 -8 5 -19 10 -25 10 -5 0 -3 -5 5 -10z"/><path d="M3090 390 c-9 -6 -10 -10 -3 -10 6 0 15 5 18 10 8 12 4 12 -15 0z"/><path d="M578 383 c7 -3 16 -2 19 1 4 3 -2 6 -13 5 -11 0 -14 -3 -6 -6z"/><path d="M628 383 c6 -2 18 -2 25 0 6 3 1 5 -13 5 -14 0 -19 -2 -12 -5z"/><path d="M698 383 c7 -3 16 -2 19 1 4 3 -2 6 -13 5 -11 0 -14 -3 -6 -6z"/><path d="M898 383 c7 -3 16 -2 19 1 4 3 -2 6 -13 5 -11 0 -14 -3 -6 -6z"/><path d="M3125 380 c3 -5 8 -10 11 -10 2 0 4 5 4 10 0 6 -5 10 -11 10 -5 0 -7 -4 -4 -10z"/><path d="M1941 353 c7 -12 15 -20 18 -17 3 2 -3 12 -13 22 -17 16 -18 16 -5 -5z"/><path d="M1996 355 c-9 -26 -7 -32 5 -12 6 10 9 21 6 23 -2 3 -7 -2 -11 -11z"/><path d="M2826 358 c3 -5 10 -6 15 -3 13 9 11 12 -6 12 -8 0 -12 -4 -9 -9z"/><path d="M2866 359 c3 -5 12 -9 21 -9 19 0 9 13 -12 16 -8 1 -13 -2 -9 -7z"/><path d="M3065 360 c-3 -5 -1 -10 4 -10 6 0 11 5 11 10 0 6 -2 10 -4 10 -3 0 -8 -4 -11 -10z"/><path d="M3503 363 c15 -2 37 -2 50 0 12 2 0 4 -28 4 -27 0 -38 -2 -22 -4z"/><path d="M1615 351 c-3 -5 -2 -12 3 -15 5 -3 9 1 9 9 0 17 -3 19 -12 6z"/><path d="M3126 348 c3 -5 10 -6 15 -3 13 9 11 12 -6 12 -8 0 -12 -4 -9 -9z"/><path d="M1287 339 c7 -7 15 -10 18 -7 3 3 -2 9 -12 12 -14 6 -15 5 -6 -5z"/><path d="M1740 322 c0 -4 9 -8 20 -9 11 -1 18 2 15 8 -7 11 -35 12 -35 1z"/><path d="M1676 217 c3 -10 9 -15 12 -12 3 3 0 11 -7 18 -10 9 -11 8 -5 -6z"/><path d="M1595 180 c10 -11 20 -20 23 -20 3 0 -3 9 -13 20 -10 11 -20 20 -23 20 -3 0 3 -9 13 -20z"/><path d="M1748 193 c7 -3 16 -2 19 1 4 3 -2 6 -13 5 -11 0 -14 -3 -6 -6z"/><path d="M1875 180 c-3 -5 -1 -10 4 -10 6 0 11 5 11 10 0 6 -2 10 -4 10 -3 0 -8 -4 -11 -10z"/><path d="M1835 160 c-3 -6 1 -7 9 -4 18 7 21 14 7 14 -6 0 -13 -4 -16 -10z"/><path d="M1650 152 c0 -5 7 -9 15 -9 8 0 12 4 9 9 -7 10 -24 10 -24 0z"/><path d="M1788 143 c7 -3 16 -2 19 1 4 3 -2 6 -13 5 -11 0 -14 -3 -6 -6z"/></g><g transform="translate(0.000000,127.000000) scale(0.100000,-0.100000)" fill="#BFDFCC" stroke="none"><path d="M1438 1173 c12 -2 32 -2 45 0 12 2 2 4 -23 4 -25 0 -35 -2 -22 -4z"/><path d="M1025 1160 c-13 -6 -2 -7 30 -3 28 3 52 7 54 9 9 8 -65 2 -84 -6z"/><path d="M1563 1163 c9 -2 25 -2 35 0 9 3 1 5 -18 5 -19 0 -27 -2 -17 -5z"/><path d="M968 1143 c6 -2 18 -2 25 0 6 3 1 5 -13 5 -14 0 -19 -2 -12 -5z"/><path d="M1768 1133 c7 -3 16 -2 19 1 4 3 -2 6 -13 5 -11 0 -14 -3 -6 -6z"/><path d="M1888 1103 c6 -2 18 -2 25 0 6 3 1 5 -13 5 -14 0 -19 -2 -12 -5z"/><path d="M715 1081 c-22 -11 -35 -19 -30 -19 14 -1 93 36 80 37 -5 0 -28 -8 -50 -18z"/><path d="M1263 1093 c31 -2 83 -2 115 0 31 2 5 3 -58 3 -63 0 -89 -1 -57 -3z"/><path d="M1468 1093 c12 -2 30 -2 40 0 9 3 -1 5 -23 4 -22 0 -30 -2 -17 -4z"/><path d="M1090 1080 l-25 -8 25 0 c14 0 39 4 55 8 l30 8 -30 0 c-16 0 -41 -4 -55 -8z"/><path d="M1568 1083 c12 -2 32 -2 45 0 12 2 2 4 -23 4 -25 0 -35 -2 -22 -4z"/><path d="M1666 1069 c3 -5 26 -9 51 -9 26 0 44 2 42 4 -9 8 -98 13 -93 5z"/><path d="M2000 1070 c8 -5 20 -10 25 -10 6 0 3 5 -5 10 -8 5 -19 10 -25 10 -5 0 -3 -5 5 -10z"/><path d="M1038 1063 c7 -3 16 -2 19 1 4 3 -2 6 -13 5 -11 0 -14 -3 -6 -6z"/><path d="M623 1045 c-18 -8 -33 -16 -33 -19 0 -5 71 22 79 30 9 8 -15 3 -46 -11z"/><path d="M968 1053 c7 -3 16 -2 19 1 4 3 -2 6 -13 5 -11 0 -14 -3 -6 -6z"/><path d="M1810 1045 c19 -7 44 -14 55 -14 11 0 0 7 -25 15 -57 17 -77 17 -30 -1z"/><path d="M928 1043 c7 -3 16 -2 19 1 4 3 -2 6 -13 5 -11 0 -14 -3 -6 -6z"/><path d="M2090 1036 c0 -3 14 -12 30 -21 17 -9 30 -13 30 -11 0 3 -13 12 -30 21 -16 9 -30 13 -30 11z"/><path d="M795 1004 c-38 -14 -74 -30 -80 -35 -11 -11 42 5 92 27 17 8 36 14 41 14 6 0 14 5 17 10 3 6 5 10 3 9 -2 0 -34 -12 -73 -25z"/><path d="M1945 1006 c28 -13 54 -21 59 -18 9 5 -81 42 -99 41 -5 0 13 -11 40 -23z"/><path d="M2161 997 c2 -2 18 -11 34 -21 l30 -17 -24 20 c-13 12 -28 21 -34 21 -6 0 -8 -1 -6 -3z"/><path d="M494 974 c-18 -14 -18 -15 4 -4 12 6 22 13 22 15 0 8 -5 6 -26 -11z"/><path d="M2040 975 c14 -8 32 -14 40 -14 9 0 4 6 -10 14 -14 8 -32 14 -40 14 -9 0 -4 -6 10 -14z"/><path d="M675 950 c-3 -5 -1 -10 4 -10 6 0 11 5 11 10 0 6 -2 10 -4 10 -3 0 -8 -4 -11 -10z"/><path d="M2100 956 c0 -2 7 -7 16 -10 8 -3 12 -2 9 4 -6 10 -25 14 -25 6z"/><path d="M2270 923 c55 -47 79 -71 105 -103 l20 -24 -25 17 c-14 10 -36 23 -50 30 -14 6 -31 17 -38 24 -18 18 -21 16 -15 -7 3 -13 14 -20 28 -20 13 0 36 -13 52 -28 28 -28 63 -47 63 -34 0 15 -66 103 -82 108 -10 3 -26 15 -35 28 -10 13 -30 28 -43 35 -14 7 -6 -4 20 -26z"/><path d="M635 930 c-3 -6 1 -7 9 -4 18 7 21 14 7 14 -6 0 -13 -4 -16 -10z"/><path d="M2155 932 c14 -15 87 -54 91 -49 2 2 -20 16 -48 32 -29 15 -48 23 -43 17z"/><path d="M390 907 c-8 -7 -31 -31 -50 -52 -28 -32 -24 -30 18 10 47 44 57 56 50 55 -2 0 -10 -6 -18 -13z"/><path d="M577 896 c-9 -7 -29 -22 -44 -32 -93 -66 -154 -141 -178 -219 -16 -54 -20 -121 -7 -129 4 -2 6 12 4 33 -5 51 22 140 56 181 40 50 104 110 116 110 7 0 18 9 26 20 8 11 20 20 26 20 7 0 14 7 18 15 7 18 6 18 -17 1z"/><path d="M2753 903 c9 -2 25 -2 35 0 9 3 1 5 -18 5 -19 0 -27 -2 -17 -5z"/><path d="M2711 854 c0 -11 3 -14 6 -6 3 7 2 16 -1 19 -3 4 -6 -2 -5 -13z"/><path d="M289 793 c-13 -16 -12 -17 4 -4 9 7 17 15 17 17 0 8 -8 3 -21 -13z"/><path d="M635 770 c-3 -5 -1 -10 4 -10 6 0 11 5 11 10 0 6 -2 10 -4 10 -3 0 -8 -4 -11 -10z"/><path d="M696 763 c7 -4 14 -19 17 -33 4 -22 5 -21 4 4 -1 17 -9 31 -17 33 -10 3 -11 2 -4 -4z"/><path d="M2766 761 c-4 -5 3 -7 14 -4 23 6 26 13 6 13 -8 0 -17 -4 -20 -9z"/><path d="M256 735 c-9 -26 -7 -32 5 -12 6 10 9 21 6 23 -2 3 -7 -2 -11 -11z"/><path d="M778 743 c7 -3 16 -2 19 1 4 3 -2 6 -13 5 -11 0 -14 -3 -6 -6z"/><path d="M848 743 c7 -3 16 -2 19 1 4 3 -2 6 -13 5 -11 0 -14 -3 -6 -6z"/><path d="M988 743 c7 -3 16 -2 19 1 4 3 -2 6 -13 5 -11 0 -14 -3 -6 -6z"/><path d="M1058 743 c7 -3 16 -2 19 1 4 3 -2 6 -13 5 -11 0 -14 -3 -6 -6z"/><path d="M880 738 c0 -2 9 -11 20 -21 11 -9 20 -13 20 -7 0 5 -9 14 -20 20 -11 6 -20 9 -20 8z"/><path d="M635 720 c-3 -6 1 -7 9 -4 18 7 21 14 7 14 -6 0 -13 -4 -16 -10z"/><path d="M1121 710 c14 -31 19 -36 19 -24 0 6 -7 19 -16 30 -14 18 -14 18 -3 -6z"/><path d="M1879 707 c5 -5 26 -7 47 -5 l39 3 -47 5 c-26 3 -43 1 -39 -3z"/><path d="M1398 703 c7 -3 16 -2 19 1 4 3 -2 6 -13 5 -11 0 -14 -3 -6 -6z"/><path d="M1736 697 c-14 -10 -15 -14 -4 -14 7 0 19 6 26 14 7 7 9 13 4 13 -4 0 -16 -6 -26 -13z"/><path d="M585 690 c-8 -13 3 -30 18 -30 8 0 7 3 -2 9 -7 5 -10 14 -7 20 4 6 5 11 2 11 -3 0 -8 -4 -11 -10z"/><path d="M768 683 c7 -3 16 -2 19 1 4 3 -2 6 -13 5 -11 0 -14 -3 -6 -6z"/><path d="M823 667 c12 -13 24 -22 26 -20 6 4 -30 43 -40 43 -5 0 2 -10 14 -23z"/><path d="M973 682 c-6 -4 8 -7 32 -7 24 0 38 3 32 7 -7 4 -21 8 -32 8 -11 0 -25 -4 -32 -8z"/><path d="M1807 672 c3 -12 9 -25 14 -28 14 -8 11 10 -6 32 -13 18 -14 18 -8 -4z"/><path d="M2615 680 c-3 -5 -1 -10 4 -10 6 0 11 5 11 10 0 6 -2 10 -4 10 -3 0 -8 -4 -11 -10z"/><path d="M2670 681 c0 -6 4 -13 10 -16 6 -3 7 1 4 9 -7 18 -14 21 -14 7z"/><path d="M727 666 c-15 -12 -17 -28 -15 -127 2 -89 6 -113 18 -117 12 -4 13 -2 3 9 -21 21 -17 208 4 231 19 21 15 23 -10 4z"/><path d="M1340 670 c-13 -8 -12 -10 3 -10 9 0 17 5 17 10 0 12 -1 12 -20 0z"/><path d="M780 661 c0 -5 7 -11 14 -14 10 -4 13 -1 9 9 -6 15 -23 19 -23 5z"/><path d="M1142 559 c-2 -101 0 -118 16 -130 15 -12 16 -12 5 2 -8 9 -14 60 -16 130 l-3 114 -2 -116z"/><path d="M931 573 c2 -92 6 -82 11 25 2 34 0 62 -4 62 -5 0 -7 -39 -7 -87z"/><path d="M1701 634 c0 -11 3 -14 6 -6 3 7 2 16 -1 19 -3 4 -6 -2 -5 -13z"/><path d="M2111 634 c0 -11 3 -14 6 -6 3 7 2 16 -1 19 -3 4 -6 -2 -5 -13z"/><path d="M3272 625 c0 -16 2 -22 5 -12 2 9 2 23 0 30 -3 6 -5 -1 -5 -18z"/><path d="M634 555 c0 -49 1 -71 3 -48 2 23 2 64 0 90 -2 26 -3 8 -3 -42z"/><path d="M1062 538 c-2 -92 -4 -107 -19 -111 -17 -4 -17 -5 0 -6 25 -1 28 13 24 125 l-3 99 -2 -107z"/><path d="M1613 600 c0 -25 2 -35 4 -22 2 12 2 32 0 45 -2 12 -4 2 -4 -23z"/><path d="M1222 605 c0 -16 2 -22 5 -12 2 9 2 23 0 30 -3 6 -5 -1 -5 -18z"/><path d="M1902 605 c0 -16 2 -22 5 -12 2 9 2 23 0 30 -3 6 -5 -1 -5 -18z"/><path d="M2722 580 c0 -19 2 -27 5 -17 2 9 2 25 0 35 -3 9 -5 1 -5 -18z"/><path d="M3343 550 c0 -25 2 -35 4 -22 2 12 2 32 0 45 -2 12 -4 2 -4 -23z"/><path d="M232 560 c0 -14 2 -19 5 -12 2 6 2 18 0 25 -3 6 -5 1 -5 -13z"/><path d="M1700 564 c0 -10 9 -30 20 -44 l20 -25 -16 40 c-20 49 -24 54 -24 29z"/><path d="M2963 540 c0 -25 2 -35 4 -22 2 12 2 32 0 45 -2 12 -4 2 -4 -23z"/><path d="M3450 570 c0 -5 5 -10 10 -10 6 0 10 5 10 10 0 6 -4 10 -10 10 -5 0 -10 -4 -10 -10z"/><path d="M1816 553 c-6 -14 -5 -15 5 -6 7 7 10 15 7 18 -3 3 -9 -2 -12 -12z"/><path d="M3272 530 c0 -14 2 -19 5 -12 2 6 2 18 0 25 -3 6 -5 1 -5 -13z"/><path d="M241 520 c0 -8 4 -22 9 -30 12 -18 12 -2 0 25 -6 13 -9 15 -9 5z"/><path d="M1790 520 c0 -5 5 -10 11 -10 5 0 7 5 4 10 -3 6 -8 10 -11 10 -2 0 -4 -4 -4 -10z"/><path d="M2721 514 c0 -11 3 -14 6 -6 3 7 2 16 -1 19 -3 4 -6 -2 -5 -13z"/><path d="M1630 510 c0 -12 29 -45 35 -39 2 2 -5 15 -16 28 -10 13 -19 18 -19 11z"/><path d="M360 470 c5 -19 14 -38 19 -43 5 -5 4 7 -3 27 -16 46 -28 59 -16 16z"/><path d="M3272 480 c0 -14 2 -19 5 -12 2 6 2 18 0 25 -3 6 -5 1 -5 -13z"/><path d="M1516 481 c-3 -5 2 -7 13 -4 13 3 21 -1 25 -14 4 -16 5 -15 3 2 -2 21 -31 33 -41 16z"/><path d="M3658 483 c7 -3 16 -2 19 1 4 3 -2 6 -13 5 -11 0 -14 -3 -6 -6z"/><path d="M3075 470 c3 -5 11 -10 16 -10 6 0 7 5 4 10 -3 6 -11 10 -16 10 -6 0 -7 -4 -4 -10z"/><path d="M2332 445 c0 -16 2 -22 5 -12 2 9 2 23 0 30 -3 6 -5 -1 -5 -18z"/><path d="M280 430 c6 -11 13 -20 16 -20 2 0 0 9 -6 20 -6 11 -13 20 -16 20 -2 0 0 -9 6 -20z"/><path d="M840 441 c0 -5 -13 -11 -30 -14 -29 -6 -41 -29 -21 -41 5 -3 8 2 7 11 0 10 9 19 23 23 21 5 43 30 27 30 -3 0 -6 -4 -6 -9z"/><path d="M1705 440 c3 -5 8 -10 11 -10 2 0 4 5 4 10 0 6 -5 10 -11 10 -5 0 -7 -4 -4 -10z"/><path d="M937 429 c7 -7 15 -10 18 -7 3 3 -2 9 -12 12 -14 6 -15 5 -6 -5z"/><path d="M1583 433 c-7 -2 -13 -11 -13 -19 0 -9 4 -13 9 -10 5 4 12 0 14 -6 3 -7 6 -1 6 15 1 15 0 27 -1 26 -2 0 -9 -3 -15 -6z"/><path d="M983 399 c-1 -11 3 -16 12 -13 21 9 26 33 6 31 -9 0 -18 -9 -18 -18z"/><path d="M1196 407 c3 -10 9 -15 12 -12 3 3 0 11 -7 18 -10 9 -11 8 -5 -6z"/><path d="M2582 400 c0 -14 2 -19 5 -12 2 6 2 18 0 25 -3 6 -5 1 -5 -13z"/><path d="M2660 405 c0 -8 2 -15 4 -15 2 0 6 7 10 15 3 8 1 15 -4 15 -6 0 -10 -7 -10 -15z"/><path d="M2902 400 c0 -14 2 -19 5 -12 2 6 2 18 0 25 -3 6 -5 1 -5 -13z"/><path d="M3327 400 c3 -11 7 -20 9 -20 2 0 4 9 4 20 0 11 -4 20 -9 20 -5 0 -7 -9 -4 -20z"/><path d="M420 375 c19 -19 36 -35 39 -35 3 0 -10 16 -29 35 -19 19 -36 35 -39 35 -3 0 10 -16 29 -35z"/><path d="M2355 400 c3 -5 8 -10 11 -10 2 0 4 5 4 10 0 6 -5 10 -11 10 -5 0 -7 -4 -4 -10z"/><path d="M668 383 c7 -3 16 -2 19 1 4 3 -2 6 -13 5 -11 0 -14 -3 -6 -6z"/><path d="M1907 379 c7 -7 15 -10 18 -7 3 3 -2 9 -12 12 -14 6 -15 5 -6 -5z"/><path d="M1600 371 c0 -6 4 -13 10 -16 6 -3 7 1 4 9 -7 18 -14 21 -14 7z"/><path d="M780 360 c0 -5 7 -10 16 -10 8 0 12 5 9 10 -3 6 -10 10 -16 10 -5 0 -9 -4 -9 -10z"/><path d="M2620 360 c0 -5 5 -10 10 -10 6 0 10 5 10 10 0 6 -4 10 -10 10 -5 0 -10 -4 -10 -10z"/><path d="M2863 363 c-15 -5 -17 -23 -4 -23 5 0 11 7 15 15 3 8 4 15 3 14 -1 0 -8 -3 -14 -6z"/><path d="M3095 359 c-11 -17 1 -21 15 -4 8 9 8 15 2 15 -6 0 -14 -5 -17 -11z"/><path d="M355 340 c10 -11 20 -20 23 -20 3 0 -3 9 -13 20 -10 11 -20 20 -23 20 -3 0 3 -9 13 -20z"/><path d="M845 350 c4 -6 11 -8 16 -5 14 9 11 15 -7 15 -8 0 -12 -5 -9 -10z"/><path d="M1145 340 c4 -6 11 -8 16 -5 14 9 11 15 -7 15 -8 0 -12 -5 -9 -10z"/><path d="M1589 313 c-13 -16 -12 -17 4 -4 16 13 21 21 13 21 -2 0 -10 -8 -17 -17z"/><path d="M1673 310 c-25 -15 -33 -27 -33 -49 0 -16 7 -37 16 -46 22 -22 31 -10 10 14 -9 10 -16 25 -14 32 5 23 34 50 64 59 21 6 23 9 9 9 -11 1 -35 -8 -52 -19z"/><path d="M1815 310 c4 -6 11 -8 16 -5 14 9 11 15 -7 15 -8 0 -12 -5 -9 -10z"/><path d="M395 300 c3 -5 16 -15 28 -21 22 -12 22 -12 3 10 -19 21 -43 30 -31 11z"/><path d="M520 282 c19 -16 37 -28 39 -26 5 5 -24 29 -54 45 -11 6 -4 -2 15 -19z"/><path d="M1857 291 c8 -30 -17 -80 -36 -73 -13 4 -13 2 -4 -8 6 -7 16 -9 22 -5 14 8 52 87 46 93 -3 3 -5 2 -5 -3 0 -4 -6 -2 -14 4 -12 10 -13 9 -9 -8z"/><path d="M1713 246 c0 -29 1 -30 28 -16 23 13 26 35 2 26 -9 -4 -20 -2 -23 5 -4 6 -7 -1 -7 -15z"/><path d="M520 218 c30 -17 57 -34 60 -37 7 -8 68 -31 100 -37 14 -3 38 -12 54 -20 16 -8 41 -14 55 -14 24 1 25 1 8 15 -11 7 -25 11 -33 8 -10 -3 -12 0 -9 10 4 10 -2 16 -19 19 -14 3 -23 1 -20 -3 13 -22 -87 12 -173 58 -79 42 -96 43 -23 1z"/><path d="M590 233 c27 -22 110 -66 110 -59 0 4 -105 67 -125 75 -5 2 1 -5 15 -16z"/><path d="M1927 223 c-11 -13 -17 -26 -14 -29 2 -3 12 7 21 22 23 33 17 39 -7 7z"/><path d="M1760 200 c8 -5 24 -9 35 -9 l20 0 -20 9 c-11 5 -27 9 -35 9 -13 1 -13 0 0 -9z"/><path d="M1690 196 c0 -2 13 -6 29 -8 17 -2 28 -1 25 4 -5 8 -54 12 -54 4z"/></g></svg>