<?xml version="1.0" standalone="no"?>
<!DOCTYPE svg PUBLIC "-//W3C//DTD SVG 20010904//EN"
 "http://www.w3.org/TR/2001/REC-SVG-20010904/DTD/svg10.dtd">
<svg version="1.0" xmlns="http://www.w3.org/2000/svg"
 width="384.000000pt" height="136.000000pt" viewBox="0 0 384.000000 136.000000"
 preserveAspectRatio="xMidYMid meet">
<metadata>
Created by potrace 1.16, written by Peter Selinger 2001-2019
</metadata>
<g transform="translate(0.000000,136.000000) scale(0.100000,-0.100000)"
fill="#000000" stroke="none">
<path d="M1759 1247 c-69 -29 -107 -55 -149 -104 -76 -87 -105 -209 -76 -323
68 -267 386 -366 593 -185 75 66 115 152 121 259 4 78 6 83 33 99 17 9 29 24
29 37 0 26 -8 25 -32 -5 -11 -14 -23 -25 -28 -25 -5 0 -21 27 -36 60 -31 70
-97 136 -175 176 -78 40 -200 45 -280 11z m269 -36 c64 -33 127 -95 157 -154
14 -28 25 -56 25 -63 0 -16 -128 -30 -143 -15 -6 6 -11 36 -11 66 1 55 1 55
-20 40 -47 -34 -122 -75 -138 -75 -9 0 -19 -4 -22 -9 -11 -18 24 -32 73 -30
28 2 53 0 57 -4 4 -3 -14 -26 -39 -51 -35 -36 -47 -43 -56 -33 -18 23 -51 101
-51 125 0 25 -15 30 -24 7 -5 -13 -9 -13 -26 -3 -16 11 -22 10 -34 -7 -11 -16
-17 -17 -29 -7 -13 11 -28 4 -92 -38 -99 -64 -110 -65 -101 -2 15 109 103 220
209 262 72 28 202 24 265 -9z m-204 -237 c3 -9 6 -26 6 -38 0 -12 16 -46 35
-76 24 -38 35 -67 35 -94 0 -34 2 -37 16 -25 9 7 20 23 25 36 8 21 10 21 36 8
36 -19 67 -19 104 0 48 25 55 59 24 118 -14 28 -24 51 -23 52 2 1 34 5 72 8
l68 5 -4 -78 c-6 -97 -40 -172 -104 -229 -74 -65 -126 -85 -224 -85 -77 -1
-92 2 -152 32 -36 18 -81 49 -99 69 -32 37 -72 115 -83 165 -6 26 -5 26 49 30
l55 3 40 -63 c44 -70 48 -87 23 -114 -20 -22 -6 -24 25 -2 31 22 29 80 -5 145
-30 59 -38 134 -13 134 10 0 17 -16 23 -55 4 -30 21 -78 37 -107 17 -29 30
-64 30 -78 0 -30 15 -33 30 -6 18 34 11 70 -25 138 -36 69 -46 123 -21 123 8
0 17 -7 20 -16z"/>
<path d="M1395 410 c-11 -5 -14 -9 -7 -9 9 -1 12 -33 12 -125 0 -90 -3 -126
-12 -129 -7 -3 9 -6 36 -6 41 -1 47 1 37 13 -7 9 -11 41 -9 83 3 67 4 68 32
71 38 5 46 -10 46 -85 0 -49 -4 -64 -17 -72 -14 -8 -5 -10 37 -10 43 0 51 2
37 10 -14 8 -17 23 -16 85 2 87 -10 109 -56 101 -16 -3 -38 -8 -47 -12 -16 -6
-18 -1 -18 44 0 54 -9 61 -55 41z"/>
<path d="M3620 410 c-10 -6 -11 -10 -2 -10 7 0 12 -13 12 -30 0 -27 -3 -30
-30 -30 -72 0 -118 -55 -107 -128 10 -58 64 -90 107 -62 12 8 11 10 -7 10 -46
0 -69 83 -40 140 9 18 21 25 42 25 l30 0 1 -88 c1 -49 4 -91 7 -94 3 -3 21 -2
39 3 18 4 27 9 21 11 -10 3 -13 39 -13 134 0 127 0 129 -22 129 -13 0 -30 -5
-38 -10z"/>
<path d="M65 393 c23 -22 19 -228 -5 -243 -11 -7 -4 -10 24 -10 35 0 38 2 23
13 -15 10 -17 27 -15 117 l3 105 38 -113 c22 -63 44 -111 50 -109 6 2 28 52
48 113 l37 109 1 -107 c1 -92 -1 -108 -16 -117 -14 -8 -2 -10 47 -10 36 1 57
3 48 6 -16 4 -18 19 -18 128 0 89 3 125 13 128 6 3 -9 6 -35 6 l-47 1 -27 -84
c-15 -47 -31 -83 -35 -80 -4 2 -19 40 -34 84 l-27 80 -45 0 c-41 0 -43 -1 -28
-17z"/>
<path d="M383 397 c16 -11 17 -30 15 -161 -2 -99 -7 -151 -14 -153 -6 -2 -14
5 -17 17 -5 21 -31 27 -42 10 -11 -17 15 -40 46 -40 15 0 41 11 56 24 28 24
28 25 32 163 2 89 7 141 15 145 6 4 -16 8 -48 8 -51 0 -57 -2 -43 -13z"/>
<path d="M598 403 c9 -3 12 -39 12 -128 0 -89 -3 -125 -12 -128 -7 -3 22 -6
64 -6 90 -1 122 11 139 51 17 40 -1 76 -41 85 l-31 6 31 19 c26 15 31 24 28
50 -4 44 -35 58 -128 57 -41 0 -69 -3 -62 -6z"/>
<path d="M2413 399 c15 -9 17 -26 17 -124 0 -98 -2 -115 -17 -124 -14 -8 -4
-10 42 -10 46 0 56 2 43 10 -16 9 -18 26 -18 130 l0 120 33 -3 c28 -3 33 -8
41 -40 11 -45 -3 -84 -36 -99 -19 -8 -15 -9 17 -5 48 6 75 35 75 81 0 55 -36
75 -134 75 -60 -1 -76 -3 -63 -11z"/>
<path d="M3148 403 c9 -3 12 -39 12 -128 0 -89 -3 -125 -12 -129 -7 -2 32 -4
87 -3 l100 2 3 45 2 45 -23 -40 c-19 -34 -28 -40 -60 -43 l-37 -3 0 125 c0
110 2 125 18 129 9 3 -10 5 -43 5 -33 0 -54 -2 -47 -5z"/>
<path d="M2874 364 c-18 -24 -26 -28 -70 -26 -27 0 -43 -1 -36 -4 16 -7 15
-31 -4 -88 -18 -53 -23 -52 -48 17 -14 38 -15 51 -6 62 11 13 5 15 -39 15 -45
0 -50 -2 -39 -14 8 -7 29 -52 48 -100 18 -47 38 -86 45 -86 7 0 27 39 45 88
39 101 41 105 63 96 14 -5 17 -20 17 -79 0 -95 24 -122 87 -98 16 6 15 8 -7
13 -24 6 -25 10 -28 83 -3 77 -3 77 23 77 14 0 25 5 25 10 0 6 -11 10 -24 10
-19 0 -25 6 -28 26 l-3 26 -21 -28z"/>
<path d="M969 311 c-23 -24 -29 -38 -29 -73 0 -70 46 -107 115 -94 111 21 92
196 -20 196 -27 0 -44 -8 -66 -29z"/>
<path d="M1166 331 c-14 -5 -16 -10 -8 -15 17 -10 17 -242 0 -249 -7 -3 12 -6
42 -6 42 0 51 2 38 10 -11 6 -18 22 -18 39 0 27 3 30 30 30 43 0 89 26 100 56
35 91 -28 172 -103 133 -16 -9 -22 -9 -25 0 -4 12 -27 13 -56 2z"/>
<path d="M1642 329 c-27 -10 -27 -42 0 -47 12 -2 19 5 24 23 5 19 12 25 28 23
16 -2 22 -11 24 -39 3 -35 2 -37 -41 -47 -53 -14 -71 -33 -63 -67 7 -29 46
-43 79 -28 14 6 31 6 49 -1 20 -8 31 -7 40 2 9 9 9 12 0 12 -8 0 -12 23 -12
74 0 66 -3 77 -22 90 -25 18 -70 20 -106 5z"/>
<path d="M1990 331 c-21 -6 -22 -8 -7 -14 14 -5 17 -19 17 -81 0 -61 -3 -77
-17 -85 -14 -8 -5 -10 37 -10 30 0 49 3 43 6 -9 3 -13 30 -13 84 l0 79 30 0
30 0 0 -79 c0 -54 -4 -81 -12 -84 -7 -3 9 -6 36 -6 41 -1 47 1 37 13 -7 9 -11
41 -9 83 l3 68 30 0 30 0 3 -74 c2 -53 -1 -77 -10 -82 -8 -5 7 -8 37 -8 28 0
44 3 38 6 -9 3 -13 29 -13 82 0 51 -5 84 -14 96 -13 18 -18 19 -60 7 -36 -9
-50 -9 -66 0 -15 10 -27 9 -57 -1 -27 -10 -38 -11 -41 -2 -4 12 -14 13 -52 2z"/>
</g>
</svg>
