<svg version="1.0" xmlns="http://www.w3.org/2000/svg" width="250.000000" height="116.000000" viewBox="0 0 250.000000 116.000000" preserveAspectRatio="xMidYMid meet"><g transform="translate(0.000000,116.000000) scale(0.100000,-0.100000)" fill="#F8AC13" stroke="none"><path d="M1833 573 c-7 -2 -13 -15 -13 -28 0 -18 6 -24 28 -27 l27 -3 3 -97 3 -98 28 0 c42 0 50 17 53 110 l3 85 29 3 c16 2 32 -2 37 -10 5 -7 9 -52 9 -100 0 -86 1 -88 24 -88 41 0 48 21 44 124 -2 75 -7 98 -22 115 -23 26 -81 28 -114 5 -21 -15 -25 -15 -41 0 -17 15 -71 20 -98 9z"/><path d="M2202 569 c-27 -8 -33 -14 -30 -32 2 -14 9 -20 18 -17 8 2 36 5 63 5 45 0 47 1 47 28 0 24 -3 27 -32 26 -18 0 -48 -5 -66 -10z"/><path d="M2203 465 c-80 -35 -62 -145 23 -145 43 0 74 15 74 36 0 11 -6 13 -20 9 -26 -8 -57 2 -64 21 -9 24 16 53 51 60 19 4 33 12 33 20 0 18 -54 18 -97 -1z"/></g><g transform="translate(0.000000,116.000000) scale(0.100000,-0.100000)" fill="#FF3919" stroke="none"><path d="M307 1094 c-9 -28 -48 -106 -86 -173 -92 -162 -116 -238 -116 -361 1 -85 4 -102 31 -160 36 -77 73 -121 150 -180 65 -51 97 -105 93 -161 -4 -48 4 -56 36 -35 95 62 255 399 255 537 l0 39 -24 -16 c-14 -8 -33 -37 -42 -62 -50 -138 -75 -167 -146 -167 -59 0 -93 40 -93 109 0 98 58 146 179 150 64 1 79 5 101 26 14 13 25 27 25 30 0 4 -51 7 -112 6 -119 -1 -169 -16 -209 -62 -80 -91 -67 -239 26 -310 35 -26 46 -54 23 -54 -7 0 -37 26 -68 58 -65 67 -86 123 -77 203 13 107 70 181 212 275 94 62 135 111 135 162 l0 33 -29 -33 c-16 -18 -71 -58 -122 -88 -168 -99 -237 -189 -247 -321 -7 -97 16 -164 78 -232 62 -68 49 -90 -15 -27 -58 57 -92 123 -106 206 -17 97 -1 162 74 304 95 182 105 204 111 251 4 27 1 55 -7 74 l-13 29 -17 -50z"/><path d="M12 774 c3 -159 6 -186 27 -242 13 -34 25 -61 27 -59 2 1 -1 31 -6 66 -5 34 -6 118 -3 186 5 104 3 132 -11 170 -33 84 -38 66 -34 -121z"/><path d="M2442 668 c-8 -8 -12 -63 -12 -180 l0 -168 23 0 c44 0 47 14 47 192 l0 168 -23 0 c-13 0 -28 -5 -35 -12z"/><path d="M2304 459 c1 -110 2 -119 23 -130 40 -22 46 -10 44 96 -2 105 -13 138 -49 147 -19 5 -20 0 -18 -113z"/></g><g transform="translate(0.000000,116.000000) scale(0.100000,-0.100000)" fill="#FF4619" stroke="none"><path d="M351 1064 c0 -11 3 -14 6 -6 3 7 2 16 -1 19 -3 4 -6 -2 -5 -13z"/><path d="M598 955 c2 -19 6 -35 8 -35 2 0 4 16 4 35 0 19 -4 35 -8 35 -4 0 -6 -16 -4 -35z"/><path d="M0 966 c0 -2 8 -10 18 -17 15 -13 16 -12 3 4 -13 16 -21 21 -21 13z"/><path d="M4 835 c0 -60 1 -84 3 -52 2 32 2 81 0 110 -2 29 -3 3 -3 -58z"/><path d="M549 843 l-24 -28 28 24 c15 14 27 26 27 28 0 8 -8 1 -31 -24z"/><path d="M61 844 c0 -11 3 -14 6 -6 3 7 2 16 -1 19 -3 4 -6 -2 -5 -13z"/><path d="M294 758 l-29 -33 33 29 c30 28 37 36 29 36 -2 0 -16 -15 -33 -32z"/><path d="M63 725 c0 -22 2 -30 4 -17 2 12 2 30 0 40 -3 9 -5 -1 -4 -23z"/><path d="M369 713 c-13 -16 -12 -17 4 -4 9 7 17 15 17 17 0 8 -8 3 -21 -13z"/><path d="M478 683 c6 -2 18 -2 25 0 6 3 1 5 -13 5 -14 0 -19 -2 -12 -5z"/><path d="M563 683 c9 -2 23 -2 30 0 6 3 -1 5 -18 5 -16 0 -22 -2 -12 -5z"/><path d="M665 680 c3 -5 8 -10 11 -10 2 0 4 5 4 10 0 6 -5 10 -11 10 -5 0 -7 -4 -4 -10z"/><path d="M2463 683 c9 -2 23 -2 30 0 6 3 -1 5 -18 5 -16 0 -22 -2 -12 -5z"/><path d="M101 664 c0 -11 3 -14 6 -6 3 7 2 16 -1 19 -3 4 -6 -2 -5 -13z"/><path d="M319 663 c-13 -16 -12 -17 4 -4 9 7 17 15 17 17 0 8 -8 3 -21 -13z"/><path d="M2 645 c0 -16 2 -22 5 -12 2 9 2 23 0 30 -3 6 -5 -1 -5 -18z"/><path d="M2425 485 c0 -169 0 -170 23 -171 18 -1 19 -1 2 3 -18 4 -20 14 -23 171 l-3 167 1 -170z"/><path d="M344 618 l-29 -33 33 29 c30 28 37 36 29 36 -2 0 -16 -15 -33 -32z"/><path d="M161 614 c0 -11 3 -14 6 -6 3 7 2 16 -1 19 -3 4 -6 -2 -5 -13z"/><path d="M93 560 c0 -30 2 -43 4 -27 2 15 2 39 0 55 -2 15 -4 2 -4 -28z"/><path d="M558 603 c6 -2 18 -2 25 0 6 3 1 5 -13 5 -14 0 -19 -2 -12 -5z"/><path d="M656 601 c-4 -5 3 -7 14 -4 23 6 26 13 6 13 -8 0 -17 -4 -20 -9z"/><path d="M1863 583 c9 -2 23 -2 30 0 6 3 -1 5 -18 5 -16 0 -22 -2 -12 -5z"/><path d="M2013 583 c9 -2 25 -2 35 0 9 3 1 5 -18 5 -19 0 -27 -2 -17 -5z"/><path d="M2248 583 c12 -2 32 -2 45 0 12 2 2 4 -23 4 -25 0 -35 -2 -22 -4z"/><path d="M192 555 c0 -16 2 -22 5 -12 2 9 2 23 0 30 -3 6 -5 -1 -5 -18z"/><path d="M2345 560 c10 -11 20 -20 23 -20 3 0 -3 9 -13 20 -10 11 -20 20 -23 20 -3 0 3 -9 13 -20z"/><path d="M62 550 c0 -14 2 -19 5 -12 2 6 2 18 0 25 -3 6 -5 1 -5 -13z"/><path d="M672 540 c0 -14 2 -19 5 -12 2 6 2 18 0 25 -3 6 -5 1 -5 -13z"/><path d="M2228 523 c7 -3 16 -2 19 1 4 3 -2 6 -13 5 -11 0 -14 -3 -6 -6z"/><path d="M2270 526 c0 -2 7 -7 16 -10 8 -3 12 -2 9 4 -6 10 -25 14 -25 6z"/><path d="M2373 450 c0 -47 2 -66 4 -42 2 23 2 61 0 85 -2 23 -4 4 -4 -43z"/><path d="M192 475 c0 -16 2 -22 5 -12 2 9 2 23 0 30 -3 6 -5 -1 -5 -18z"/><path d="M661 484 c0 -11 3 -14 6 -6 3 7 2 16 -1 19 -3 4 -6 -2 -5 -13z"/><path d="M161 474 c0 -11 3 -14 6 -6 3 7 2 16 -1 19 -3 4 -6 -2 -5 -13z"/><path d="M2032 403 l-2 -93 28 1 c23 2 23 2 5 6 -21 4 -22 11 -26 91 l-3 87 -2 -92z"/><path d="M2248 483 c7 -3 16 -2 19 1 4 3 -2 6 -13 5 -11 0 -14 -3 -6 -6z"/><path d="M282 460 c0 -14 2 -19 5 -12 2 6 2 18 0 25 -3 6 -5 1 -5 -13z"/><path d="M361 464 c0 -11 3 -14 6 -6 3 7 2 16 -1 19 -3 4 -6 -2 -5 -13z"/><path d="M2164 448 l-19 -23 23 19 c21 18 27 26 19 26 -2 0 -12 -10 -23 -22z"/><path d="M2141 394 c0 -11 3 -14 6 -6 3 7 2 16 -1 19 -3 4 -6 -2 -5 -13z"/><path d="M210 391 c0 -6 4 -13 10 -16 6 -3 7 1 4 9 -7 18 -14 21 -14 7z"/><path d="M380 396 c0 -2 8 -10 18 -17 15 -13 16 -12 3 4 -13 16 -21 21 -21 13z"/><path d="M320 347 c0 -2 15 -16 33 -33 l32 -29 -29 33 c-28 30 -36 37 -36 29z"/><path d="M240 336 c0 -2 8 -10 18 -17 15 -13 16 -12 3 4 -13 16 -21 21 -21 13z"/><path d="M300 337 c0 -2 15 -16 33 -33 l32 -29 -29 33 c-28 30 -36 37 -36 29z"/><path d="M230 317 c0 -2 15 -16 33 -33 l32 -29 -29 33 c-28 30 -36 37 -36 29z"/><path d="M1893 313 c9 -2 23 -2 30 0 6 3 -1 5 -18 5 -16 0 -22 -2 -12 -5z"/><path d="M2338 313 c6 -2 18 -2 25 0 6 3 1 5 -13 5 -14 0 -19 -2 -12 -5z"/><path d="M180 306 c0 -2 8 -10 18 -17 15 -13 16 -12 3 4 -13 16 -21 21 -21 13z"/><path d="M290 286 c0 -2 8 -10 18 -17 15 -13 16 -12 3 4 -13 16 -21 21 -21 13z"/><path d="M240 245 c13 -14 26 -25 28 -25 3 0 -5 11 -18 25 -13 14 -26 25 -28 25 -3 0 5 -11 18 -25z"/><path d="M371 64 c0 -11 3 -14 6 -6 3 7 2 16 -1 19 -3 4 -6 -2 -5 -13z"/><path d="M444 48 l-29 -33 33 29 c30 28 37 36 29 36 -2 0 -16 -15 -33 -32z"/><path d="M378 3 c7 -3 16 -2 19 1 4 3 -2 6 -13 5 -11 0 -14 -3 -6 -6z"/></g><g transform="translate(0.000000,116.000000) scale(0.100000,-0.100000)" fill="#FF5219" stroke="none"><path d="M310 1135 c0 -8 2 -15 4 -15 2 0 6 7 10 15 3 8 1 15 -4 15 -6 0 -10 -7 -10 -15z"/><path d="M554 938 l-29 -33 33 29 c30 28 37 36 29 36 -2 0 -16 -15 -33 -32z"/><path d="M63 795 c0 -22 2 -30 4 -17 2 12 2 30 0 40 -3 9 -5 -1 -4 -23z"/><path d="M2 700 c0 -19 2 -27 5 -17 2 9 2 25 0 35 -3 9 -5 1 -5 -18z"/><path d="M339 693 c-13 -16 -12 -17 4 -4 9 7 17 15 17 17 0 8 -8 3 -21 -13z"/><path d="M518 683 c6 -2 18 -2 25 0 6 3 1 5 -13 5 -14 0 -19 -2 -12 -5z"/><path d="M618 673 c6 -2 18 -2 25 0 6 3 1 5 -13 5 -14 0 -19 -2 -12 -5z"/><path d="M53 625 c0 -27 2 -38 4 -22 2 15 2 37 0 50 -2 12 -4 0 -4 -28z"/><path d="M101 634 c0 -11 3 -14 6 -6 3 7 2 16 -1 19 -3 4 -6 -2 -5 -13z"/><path d="M639 633 c-13 -16 -12 -17 4 -4 9 7 17 15 17 17 0 8 -8 3 -21 -13z"/><path d="M518 613 c7 -3 16 -2 19 1 4 3 -2 6 -13 5 -11 0 -14 -3 -6 -6z"/><path d="M672 580 c0 -14 2 -19 5 -12 2 6 2 18 0 25 -3 6 -5 1 -5 -13z"/><path d="M153 545 c0 -27 2 -38 4 -22 2 15 2 37 0 50 -2 12 -4 0 -4 -28z"/><path d="M61 514 c0 -11 3 -14 6 -6 3 7 2 16 -1 19 -3 4 -6 -2 -5 -13z"/><path d="M191 514 c0 -11 3 -14 6 -6 3 7 2 16 -1 19 -3 4 -6 -2 -5 -13z"/><path d="M252 510 c0 -14 2 -19 5 -12 2 6 2 18 0 25 -3 6 -5 1 -5 -13z"/><path d="M291 504 c0 -11 3 -14 6 -6 3 7 2 16 -1 19 -3 4 -6 -2 -5 -13z"/><path d="M101 494 c0 -11 3 -14 6 -6 3 7 2 16 -1 19 -3 4 -6 -2 -5 -13z"/><path d="M2300 501 c0 -5 -8 -12 -17 -14 -14 -4 -12 -5 5 -6 13 -1 22 5 22 14 0 8 -2 15 -5 15 -3 0 -5 -4 -5 -9z"/><path d="M252 450 c0 -14 2 -19 5 -12 2 6 2 18 0 25 -3 6 -5 1 -5 -13z"/><path d="M2268 443 c7 -3 16 -2 19 1 4 3 -2 6 -13 5 -11 0 -14 -3 -6 -6z"/><path d="M2300 413 c-3 -23 -2 -39 3 -34 5 5 7 24 5 42 -3 33 -4 33 -8 -8z"/><path d="M2248 363 c6 -2 18 -2 25 0 6 3 1 5 -13 5 -14 0 -19 -2 -12 -5z"/><path d="M2371 354 c0 -11 3 -14 6 -6 3 7 2 16 -1 19 -3 4 -6 -2 -5 -13z"/><path d="M448 353 c6 -2 18 -2 25 0 6 3 1 5 -13 5 -14 0 -19 -2 -12 -5z"/><path d="M2218 313 c6 -2 18 -2 25 0 6 3 1 5 -13 5 -14 0 -19 -2 -12 -5z"/><path d="M300 246 c7 -7 13 -7 20 0 6 6 3 10 -10 10 -13 0 -16 -4 -10 -10z"/><path d="M325 180 c10 -11 20 -20 23 -20 3 0 -3 9 -13 20 -10 11 -20 20 -23 20 -3 0 3 -9 13 -20z"/><path d="M371 94 c0 -11 3 -14 6 -6 3 7 2 16 -1 19 -3 4 -6 -2 -5 -13z"/></g><g transform="translate(0.000000,116.000000) scale(0.100000,-0.100000)" fill="#52C56C" stroke="none"><path d="M1510 571 c-18 -5 -26 -15 -28 -35 -3 -25 -1 -28 15 -21 10 5 36 10 59 13 32 3 43 0 48 -13 9 -25 1 -32 -49 -37 -67 -8 -76 -20 -73 -92 l3 -61 42 -3 c23 -2 52 2 64 8 15 9 24 9 32 1 6 -6 21 -11 34 -11 22 0 23 3 23 89 0 103 -12 144 -46 160 -27 12 -84 13 -124 2z m100 -156 c0 -28 -5 -38 -26 -47 -53 -24 -86 43 -34 69 45 23 60 17 60 -22z"/><path d="M1737 573 c-4 -3 -7 -62 -7 -130 l0 -124 33 3 32 3 6 90 c4 50 10 104 14 120 4 17 4 27 0 23 -4 -4 -17 -1 -29 7 -22 16 -39 19 -49 8z"/></g><g transform="translate(0.000000,116.000000) scale(0.100000,-0.100000)" fill="#4C8C99" stroke="none"><path d="M852 503 c3 -187 3 -188 26 -189 18 -1 19 -1 2 3 -19 4 -20 12 -20 183 l0 179 73 4 72 3 -78 2 -77 2 2 -187z"/><path d="M1152 678 c-7 -7 -12 -21 -11 -32 1 -18 2 -17 8 4 11 38 54 35 62 -5 6 -28 7 -28 8 -4 1 28 -15 49 -39 49 -9 0 -21 -5 -28 -12z"/><path d="M1086 627 c3 -10 9 -15 12 -12 3 3 0 11 -7 18 -10 9 -11 8 -5 -6z"/><path d="M930 565 c0 -65 0 -65 28 -65 16 0 37 7 48 16 18 15 18 15 -3 5 -12 -6 -31 -11 -42 -11 -19 0 -21 6 -21 55 0 54 1 55 28 55 36 0 52 -16 53 -54 l2 -31 4 28 c6 39 -21 67 -64 67 l-33 0 0 -65z"/><path d="M1102 570 c0 -19 2 -27 5 -17 2 9 2 25 0 35 -3 9 -5 1 -5 -18z"/><path d="M1363 575 c-14 -10 -24 -12 -28 -5 -3 5 -14 10 -23 10 -12 0 -10 -4 8 -14 16 -8 30 -9 37 -4 6 5 24 13 40 18 21 6 23 8 8 9 -11 1 -30 -6 -42 -14z"/><path d="M1558 583 c12 -2 30 -2 40 0 9 3 -1 5 -23 4 -22 0 -30 -2 -17 -4z"/><path d="M1434 547 c-1 -30 -1 -30 9 -9 6 14 7 26 1 32 -5 5 -9 -4 -10 -23z"/><path d="M1508 573 c7 -3 16 -2 19 1 4 3 -2 6 -13 5 -11 0 -14 -3 -6 -6z"/><path d="M1620 576 c0 -2 7 -7 16 -10 8 -3 12 -2 9 4 -6 10 -25 14 -25 6z"/><path d="M1771 577 c2 -1 11 -8 21 -15 12 -10 18 -10 24 -1 4 7 3 9 -4 5 -6 -3 -13 -2 -17 4 -3 5 -11 10 -17 10 -6 0 -9 -1 -7 -3z"/><path d="M1471 556 c-9 -11 -10 -20 -1 -35 6 -12 13 -21 16 -21 2 0 0 9 -6 21 -9 15 -8 24 1 35 6 8 9 14 6 14 -2 0 -10 -6 -16 -14z"/><path d="M1142 438 l-2 -128 28 1 c23 2 23 2 5 6 -21 4 -23 9 -26 126 l-3 122 -2 -127z"/><path d="M1210 443 c-3 -67 -1 -119 3 -114 4 4 6 59 5 122 l-3 114 -5 -122z"/><path d="M1667 529 c4 -13 8 -18 11 -10 2 7 -1 18 -6 23 -8 8 -9 4 -5 -13z"/><path d="M1086 513 c-6 -14 -5 -15 5 -6 7 7 10 15 7 18 -3 3 -9 -2 -12 -12z"/><path d="M1528 523 c7 -3 16 -2 19 1 4 3 -2 6 -13 5 -11 0 -14 -3 -6 -6z"/><path d="M1578 523 c7 -3 16 -2 19 1 4 3 -2 6 -13 5 -11 0 -14 -3 -6 -6z"/><path d="M1352 508 c-7 -7 -12 -44 -12 -95 0 -82 0 -83 -27 -89 -45 -9 -50 -12 -22 -13 48 -2 58 16 61 109 l3 85 39 -1 c24 -1 33 2 25 7 -20 12 -53 11 -67 -3z"/><path d="M1600 502 c0 -7 -15 -13 -32 -13 -32 -2 -33 -2 -4 -6 28 -5 56 11 43 24 -4 3 -7 1 -7 -5z"/><path d="M1803 420 c0 -47 2 -66 4 -42 2 23 2 61 0 85 -2 23 -4 4 -4 -43z"/><path d="M1040 470 c-9 -6 -10 -10 -3 -10 6 0 15 5 18 10 8 12 4 12 -15 0z"/><path d="M1470 450 c-28 -28 -27 -91 3 -116 22 -19 22 -19 5 2 -25 29 -23 88 4 114 12 11 19 20 15 20 -4 0 -16 -9 -27 -20z"/><path d="M930 397 c0 -29 -6 -59 -12 -67 -11 -12 -10 -12 5 -1 12 10 17 27 17 62 0 41 3 48 23 52 19 4 18 4 -5 6 -27 1 -28 -1 -28 -52z"/><path d="M1583 443 c11 -3 17 -14 17 -34 0 -22 -6 -30 -24 -35 -14 -3 -30 -3 -35 1 -17 10 -13 43 7 54 9 6 12 11 6 11 -17 0 -36 -27 -32 -46 5 -28 33 -40 62 -26 21 9 26 19 26 47 0 30 -3 35 -22 34 -17 -1 -19 -2 -5 -6z"/><path d="M1681 334 c0 -11 3 -14 6 -6 3 7 2 16 -1 19 -3 4 -6 -2 -5 -13z"/><path d="M1591 331 c-10 -7 -7 -9 12 -8 14 1 23 5 20 10 -6 9 -15 9 -32 -2z"/><path d="M1518 313 c12 -2 30 -2 40 0 9 3 -1 5 -23 4 -22 0 -30 -2 -17 -4z"/><path d="M1648 313 c7 -3 16 -2 19 1 4 3 -2 6 -13 5 -11 0 -14 -3 -6 -6z"/><path d="M1738 313 c6 -2 18 -2 25 0 6 3 1 5 -13 5 -14 0 -19 -2 -12 -5z"/></g><g transform="translate(0.000000,116.000000) scale(0.100000,-0.100000)" fill="#465FB8" stroke="none"><path d="M860 500 l0 -180 24 0 c28 0 48 21 46 47 -1 10 -2 33 -1 51 1 29 4 32 31 32 79 0 140 51 140 119 0 79 -47 111 -164 111 l-76 0 0 -180z m152 113 c42 -37 7 -113 -52 -113 l-30 0 0 65 0 65 32 0 c17 0 40 -7 50 -17z"/><path d="M1157 674 c-13 -13 -7 -52 8 -58 27 -10 46 5 43 33 -3 26 -35 41 -51 25z"/><path d="M1168 573 c-16 -4 -18 -19 -18 -129 l0 -125 28 3 27 3 5 122 c4 97 2 124 -8 128 -8 3 -14 4 -15 4 -1 -1 -10 -3 -19 -6z"/><path d="M1283 573 c-10 -3 -13 -38 -13 -129 0 -116 1 -124 19 -124 47 0 51 8 51 95 0 93 11 111 59 102 25 -5 30 -3 35 19 4 14 4 29 1 34 -9 15 -48 12 -71 -4 -10 -8 -23 -11 -29 -7 -16 13 -39 18 -52 14z"/><path d="M1466 434 c-10 -25 -7 -82 4 -89 6 -4 10 15 10 49 0 58 -3 68 -14 40z"/></g><g transform="translate(0.000000,116.000000) scale(0.100000,-0.100000)" fill="#FFFFF8" stroke="none"><path d="M1442 244 c20 -6 25 -49 20 -162 -3 -59 -7 -72 -18 -68 -8 3 -14 1 -14 -5 0 -6 8 -9 18 -7 14 3 18 16 20 71 2 49 7 67 17 67 10 0 15 -17 18 -57 l3 -58 2 58 c2 43 -2 59 -13 63 -19 8 -20 24 -1 24 8 0 16 13 18 29 2 17 1 28 -4 25 -4 -3 -8 -13 -8 -24 0 -10 -6 -20 -14 -23 -11 -4 -16 4 -18 31 -2 28 -8 37 -23 39 -15 1 -15 0 -3 -3z"/><path d="M1632 244 c10 -3 19 -19 21 -37 4 -31 5 -31 3 3 -1 27 -5 35 -21 37 -14 1 -15 0 -3 -3z"/><path d="M857 223 c-4 -3 -7 -53 -7 -110 0 -86 3 -105 16 -110 21 -8 34 14 32 57 l-1 35 -6 -39 c-3 -22 -12 -41 -19 -44 -11 -3 -13 19 -10 107 2 61 3 111 2 111 0 0 -4 -3 -7 -7z"/><path d="M890 187 c4 -41 5 -41 8 -8 2 18 0 37 -5 42 -5 5 -6 -11 -3 -34z"/><path d="M1004 216 c-3 -8 -4 -27 -2 -43 3 -23 5 -20 9 15 5 43 2 53 -7 28z"/><path d="M1038 120 c3 -93 1 -110 -12 -110 -10 0 -16 13 -19 38 l-4 37 1 -40 c1 -33 4 -40 21 -40 19 0 20 8 23 104 1 57 -1 108 -5 112 -4 5 -7 -41 -5 -101z"/><path d="M1531 198 c-1 -24 3 -28 27 -27 22 1 23 2 5 6 -13 2 -24 13 -26 26 -4 18 -5 17 -6 -5z"/><path d="M1138 173 c6 -2 18 -2 25 0 6 3 1 5 -13 5 -14 0 -19 -2 -12 -5z"/><path d="M1268 159 l-23 -20 25 15 c15 9 45 14 72 13 l48 -2 0 -75 0 -75 -54 -2 c-49 -2 -57 0 -75 23 -12 15 -21 22 -21 17 0 -5 10 -19 23 -31 19 -18 33 -21 78 -19 l54 4 0 83 0 83 -52 4 c-40 2 -56 -2 -75 -18z"/><path d="M1688 173 c6 -2 18 -2 25 0 6 3 1 5 -13 5 -14 0 -19 -2 -12 -5z"/><path d="M1853 173 c9 -2 23 -2 30 0 6 3 -1 5 -18 5 -16 0 -22 -2 -12 -5z"/><path d="M2008 173 c6 -2 18 -2 25 0 6 3 1 5 -13 5 -14 0 -19 -2 -12 -5z"/><path d="M2134 167 c-3 -8 -4 -47 -2 -88 2 -58 6 -74 18 -74 11 0 16 15 18 60 2 33 9 63 15 68 8 6 8 7 -3 4 -11 -2 -16 -21 -18 -65 -4 -91 -22 -76 -22 19 0 69 2 80 16 75 8 -3 12 -2 9 4 -9 14 -25 12 -31 -3z"/><path d="M2213 174 c21 -7 22 -21 2 -27 -11 -4 -10 -4 2 -3 25 2 23 30 -2 33 -16 1 -16 1 -2 -3z"/><path d="M2317 170 c18 -4 39 -11 46 -16 7 -5 4 -1 -6 9 -11 9 -31 17 -46 16 -24 -1 -23 -2 6 -9z"/><path d="M1089 153 c-13 -17 -13 -17 6 -3 11 8 22 16 24 17 2 2 0 3 -6 3 -6 0 -17 -8 -24 -17z"/><path d="M1590 162 c0 -7 -14 -12 -30 -12 l-31 0 3 -57 c3 -52 5 -58 26 -59 18 -1 19 -1 2 3 -17 4 -20 12 -20 54 0 45 2 49 24 49 25 0 43 16 32 27 -3 4 -6 1 -6 -5z"/><path d="M1730 166 c0 -2 8 -10 18 -17 15 -13 16 -12 3 4 -13 16 -21 21 -21 13z"/><path d="M1804 148 l-19 -23 23 19 c12 11 22 21 22 23 0 8 -8 2 -26 -19z"/><path d="M1919 148 c18 -23 7 -35 -16 -17 -16 13 -17 12 -4 -4 8 -10 20 -16 28 -13 22 9 16 -61 -7 -84 -27 -27 -77 -26 -109 3 l-26 22 24 -28 c31 -35 82 -37 114 -5 l22 23 22 -22 c18 -18 32 -22 77 -21 31 1 56 5 56 8 0 4 -25 5 -55 3 -66 -5 -95 17 -95 71 0 23 -8 43 -22 58 -13 13 -17 16 -9 6z"/><path d="M2254 148 l-19 -23 23 19 c12 11 22 21 22 23 0 8 -8 2 -26 -19z"/><path d="M1138 143 c7 -3 16 -2 19 1 4 3 -2 6 -13 5 -11 0 -14 -3 -6 -6z"/><path d="M1286 131 c-11 -12 -16 -30 -13 -48 l4 -28 2 31 c1 34 14 49 46 57 19 4 19 5 -1 6 -11 0 -29 -8 -38 -18z"/><path d="M1688 143 c7 -3 16 -2 19 1 4 3 -2 6 -13 5 -11 0 -14 -3 -6 -6z"/><path d="M1858 143 c7 -3 16 -2 19 1 4 3 -2 6 -13 5 -11 0 -14 -3 -6 -6z"/><path d="M2018 143 c7 -3 16 -2 19 1 4 3 -2 6 -13 5 -11 0 -14 -3 -6 -6z"/><path d="M2308 143 c7 -3 16 -2 19 1 4 3 -2 6 -13 5 -11 0 -14 -3 -6 -6z"/><path d="M923 133 c15 -2 39 -2 55 0 15 2 2 4 -28 4 -30 0 -43 -2 -27 -4z"/><path d="M1355 90 c0 -26 3 -46 8 -43 4 2 7 22 7 43 0 21 -3 41 -7 43 -5 3 -8 -17 -8 -43z"/><path d="M2055 90 c0 -27 3 -50 8 -50 4 0 7 23 7 50 0 28 -3 50 -7 50 -5 0 -8 -22 -8 -50z"/><path d="M1762 71 c-2 -52 -5 -62 -17 -57 -8 3 -15 1 -15 -4 0 -15 30 -12 36 4 3 7 3 38 1 67 l-3 54 -2 -64z"/><path d="M1100 108 c0 -4 21 -8 48 -7 52 1 48 6 -10 11 -21 2 -38 0 -38 -4z"/><path d="M1222 100 c0 -14 2 -19 5 -12 2 6 2 18 0 25 -3 6 -5 1 -5 -13z"/><path d="M1652 66 c-2 -47 -5 -57 -17 -52 -8 3 -15 1 -15 -4 0 -15 30 -12 36 4 3 7 3 35 1 62 l-3 49 -2 -59z"/><path d="M1782 90 c0 -19 2 -27 5 -17 2 9 2 25 0 35 -3 9 -5 1 -5 -18z"/><path d="M2232 90 c0 -19 2 -27 5 -17 2 9 2 25 0 35 -3 9 -5 1 -5 -18z"/><path d="M2310 110 l-45 -7 48 -1 c26 -1 47 3 47 8 0 6 -1 9 -2 8 -2 0 -23 -4 -48 -8z"/><path d="M918 103 c17 -2 47 -2 65 0 17 2 3 4 -33 4 -36 0 -50 -2 -32 -4z"/><path d="M1100 74 c0 -19 38 -46 57 -41 15 4 14 5 -4 6 -12 0 -29 11 -37 23 -9 12 -16 18 -16 12z"/><path d="M1820 61 c0 -6 4 -13 10 -16 6 -3 7 1 4 9 -7 18 -14 21 -14 7z"/><path d="M1070 50 c0 -5 12 -18 26 -29 26 -20 88 -29 98 -13 2 4 -13 6 -34 4 -31 -3 -44 1 -64 22 -15 14 -26 21 -26 16z"/><path d="M2367 27 c-14 -14 -29 -18 -57 -15 -21 2 -36 0 -34 -4 10 -15 72 -8 95 11 13 11 22 21 19 23 -3 3 -13 -4 -23 -15z"/><path d="M1308 33 c6 -2 18 -2 25 0 6 3 1 5 -13 5 -14 0 -19 -2 -12 -5z"/><path d="M1596 24 c-5 -12 -16 -15 -45 -12 -22 2 -37 0 -35 -4 9 -14 71 -8 84 7 7 9 11 18 8 21 -3 3 -8 -3 -12 -12z"/><path d="M1858 33 c6 -2 18 -2 25 0 6 3 1 5 -13 5 -14 0 -19 -2 -12 -5z"/><path d="M2018 33 c7 -3 16 -2 19 1 4 3 -2 6 -13 5 -11 0 -14 -3 -6 -6z"/><path d="M2308 33 c6 -2 18 -2 25 0 6 3 1 5 -13 5 -14 0 -19 -2 -12 -5z"/></g><g transform="translate(0.000000,116.000000) scale(0.100000,-0.100000)" fill="#FFFFFF" stroke="none"><path d="M1432 128 c2 -78 7 -113 16 -116 9 -3 12 24 12 112 0 98 -2 116 -15 116 -13 0 -15 -17 -13 -112z"/><path d="M1622 128 c2 -78 7 -113 16 -116 9 -3 12 14 12 61 0 60 2 65 24 71 44 11 55 -1 58 -67 2 -37 8 -62 16 -65 9 -3 12 14 12 61 0 79 -19 103 -75 94 l-35 -6 0 40 c0 28 -4 39 -15 39 -13 0 -15 -17 -13 -112z"/><path d="M867 224 c-4 -4 -7 -54 -7 -112 0 -78 3 -103 13 -100 6 3 13 25 15 51 l3 47 60 0 59 0 0 -50 c0 -38 4 -50 15 -50 13 0 15 16 13 108 -3 110 -19 145 -28 62 l-5 -45 -55 0 -55 0 -3 40 c-3 41 -13 60 -25 49z"/><path d="M1510 195 c0 -16 -6 -25 -15 -25 -19 0 -20 -16 0 -23 10 -4 15 -25 17 -69 l3 -63 39 0 c22 0 41 5 43 12 3 7 -8 11 -29 10 l-33 -2 -3 58 -3 57 31 0 c16 0 30 5 30 10 0 6 -13 10 -30 10 -25 0 -30 4 -30 25 0 14 -4 25 -10 25 -5 0 -10 -11 -10 -25z"/><path d="M1095 145 c-68 -67 20 -171 106 -124 31 16 13 28 -26 16 -29 -9 -38 -7 -55 8 -32 29 -24 35 40 35 56 0 60 2 60 23 0 61 -80 88 -125 42z m76 -5 c36 -20 23 -40 -26 -40 -48 0 -55 9 -29 34 18 19 28 20 55 6z"/><path d="M1264 145 c-30 -30 -31 -73 -3 -109 18 -23 26 -25 75 -23 l54 2 0 75 0 75 -51 2 c-42 2 -55 -2 -75 -22z m87 -5 c14 -8 19 -21 19 -50 0 -40 -18 -60 -54 -60 -41 0 -61 67 -29 102 18 20 36 23 64 8z"/><path d="M1812 147 c-30 -32 -29 -87 1 -115 27 -25 74 -29 103 -8 26 20 13 30 -20 15 -41 -19 -76 1 -76 45 0 35 21 66 43 66 7 0 23 -7 35 -16 30 -21 41 -10 17 16 -25 28 -76 26 -103 -3z"/><path d="M1970 150 c-13 -13 -20 -33 -20 -60 0 -59 26 -81 93 -77 l52 3 0 74 0 74 -52 3 c-42 3 -56 0 -73 -17z m78 -6 c19 -5 22 -13 22 -54 0 -42 -3 -49 -24 -54 -33 -8 -56 2 -67 30 -13 37 7 79 41 83 3 0 15 -2 28 -5z"/><path d="M2140 88 c0 -93 18 -105 22 -16 3 61 4 63 36 72 46 13 40 25 -13 23 l-45 -2 0 -77z"/><path d="M2262 147 c-29 -30 -29 -86 -2 -115 24 -26 76 -29 106 -8 26 20 13 30 -20 15 -31 -14 -76 1 -76 25 0 11 15 16 58 18 54 3 57 4 54 28 -5 56 -81 79 -120 37z m82 -13 c26 -25 19 -34 -29 -34 -48 0 -62 19 -27 39 24 15 38 13 56 -5z"/></g></svg>