<svg version="1.0" xmlns="http://www.w3.org/2000/svg" width="800.000000" height="393.000000" viewBox="0 0 800.000000 393.000000" preserveAspectRatio="xMidYMid meet"><rect x="269" y="8" width="19" height="10" fill="rgb(0,108,172)" /><rect x="17" y="17" width="19" height="10" fill="rgb(0,108,172)" /><rect x="269" y="80" width="19" height="10" fill="rgb(0,108,172)" /><rect x="323" y="80" width="19" height="10" fill="rgb(0,108,172)" /><rect x="665" y="89" width="19" height="10" fill="rgb(0,108,172)" /><rect x="341" y="107" width="19" height="10" fill="rgb(0,108,172)" /><rect x="611" y="107" width="19" height="10" fill="rgb(0,108,172)" /><rect x="341" y="116" width="19" height="10" fill="rgb(0,108,172)" /><rect x="341" y="125" width="19" height="10" fill="rgb(0,108,172)" /><rect x="269" y="152" width="19" height="10" fill="rgb(0,108,172)" /><rect x="161" y="161" width="19" height="10" fill="rgb(0,108,172)" /><rect x="467" y="161" width="19" height="10" fill="rgb(0,108,172)" /><rect x="305" y="296" width="19" height="10" fill="rgb(247,175,1)" /><rect x="323" y="296" width="19" height="10" fill="rgb(250,174,0)" /><rect x="341" y="296" width="19" height="10" fill="rgb(250,174,0)" /><rect x="359" y="296" width="19" height="10" fill="rgb(250,174,0)" /><rect x="377" y="296" width="19" height="10" fill="rgb(250,174,0)" /><rect x="395" y="296" width="19" height="10" fill="rgb(250,174,0)" /><rect x="413" y="296" width="19" height="10" fill="rgb(250,174,0)" /><rect x="431" y="296" width="19" height="10" fill="rgb(250,172,1)" /><rect x="251" y="305" width="19" height="10" fill="rgb(250,174,0)" /><rect x="269" y="305" width="19" height="10" fill="rgb(250,174,0)" /><rect x="287" y="305" width="19" height="10" fill="rgb(250,174,0)" /><rect x="305" y="305" width="19" height="10" fill="rgb(250,174,0)" /><rect x="323" y="305" width="19" height="10" fill="rgb(250,174,0)" /><rect x="341" y="305" width="19" height="10" fill="rgb(248,175,1)" /><rect x="359" y="305" width="19" height="10" fill="rgb(244,177,3)" /><rect x="377" y="305" width="19" height="10" fill="rgb(244,177,3)" /><rect x="395" y="305" width="19" height="10" fill="rgb(246,176,2)" /><rect x="413" y="305" width="19" height="10" fill="rgb(250,174,0)" /><rect x="431" y="305" width="19" height="10" fill="rgb(250,174,0)" /><rect x="449" y="305" width="19" height="10" fill="rgb(247,88,22)" /><rect x="467" y="305" width="19" height="10" fill="rgb(246,48,32)" /><rect x="485" y="305" width="19" height="10" fill="rgb(246,48,32)" /><rect x="503" y="305" width="19" height="10" fill="rgb(245,48,33)" /><rect x="215" y="314" width="19" height="10" fill="rgb(250,174,0)" /><rect x="233" y="314" width="19" height="10" fill="rgb(248,175,1)" /><rect x="521" y="314" width="19" height="10" fill="rgb(246,48,32)" /><rect x="539" y="314" width="19" height="10" fill="rgb(246,48,32)" /><rect x="179" y="323" width="19" height="10" fill="rgb(190,200,30)" /><rect x="575" y="323" width="19" height="10" fill="rgb(246,48,32)" /><g transform="translate(0.000000,393.000000) scale(0.100000,-0.100000)" fill="#FFB206" stroke="none"><path d="M3560 989 c-355 -9 -742 -48 -1050 -104 -47 -9 -107 -20 -135 -25 -27 -5 -81 -16 -120 -25 -38 -8 -82 -18 -97 -21 -28 -6 -28 -7 -28 -91 0 -46 3 -82 8 -79 4 2 41 9 82 15 41 6 104 15 140 21 587 89 1219 124 1810 101 168 -6 322 -14 343 -16 l37 -5 0 95 c0 90 -1 95 -22 100 -73 17 -189 26 -388 30 -124 3 -250 7 -280 8 -30 1 -165 0 -300 -4z"/></g><g transform="translate(0.000000,393.000000) scale(0.100000,-0.100000)" fill="#BFCC1F" stroke="none"><path d="M3335 990 c-33 -3 57 -4 200 -2 143 3 262 6 264 8 7 6 -399 1 -464 -6z"/><path d="M3928 993 c57 -2 147 -2 200 0 53 1 7 3 -103 3 -110 0 -154 -2 -97 -3z"/><path d="M4273 983 c15 -2 37 -2 50 0 12 2 0 4 -28 4 -27 0 -38 -2 -22 -4z"/><path d="M3065 970 l-40 -7 45 0 c25 -1 74 3 110 7 l65 7 -70 0 c-38 0 -88 -3 -110 -7z"/><path d="M4418 973 c17 -2 47 -2 65 0 17 2 3 4 -33 4 -36 0 -50 -2 -32 -4z"/><path d="M4553 963 c9 -2 25 -2 35 0 9 3 1 5 -18 5 -19 0 -27 -2 -17 -5z"/><path d="M2973 953 c9 -2 23 -2 30 0 6 3 -1 5 -18 5 -16 0 -22 -2 -12 -5z"/><path d="M2805 940 c-18 -5 -1 -6 45 -3 41 3 77 7 79 9 8 7 -94 2 -124 -6z"/><path d="M2655 920 l-30 -8 30 0 c17 0 50 3 75 7 l45 8 -45 1 c-25 0 -58 -4 -75 -8z"/><path d="M2598 903 c7 -3 16 -2 19 1 4 3 -2 6 -13 5 -11 0 -14 -3 -6 -6z"/><path d="M2480 890 c-20 -6 -21 -8 -5 -8 11 -1 38 3 60 7 l40 9 -35 0 c-19 0 -46 -4 -60 -8z"/><path d="M2345 865 l-40 -13 50 6 c28 3 61 9 75 13 22 6 21 7 -10 7 -19 0 -53 -5 -75 -13z"/><path d="M2205 838 c-22 -5 -107 -25 -190 -43 -82 -19 -172 -41 -200 -49 -124 -36 -195 -59 -195 -63 0 -3 9 -3 20 0 19 5 20 0 20 -69 0 -72 -1 -74 -27 -80 -44 -9 -51 -15 -13 -9 36 5 77 14 195 41 39 9 93 20 120 25 28 6 70 14 95 18 25 5 85 16 135 25 49 9 91 19 94 21 7 8 -52 5 -91 -4 l-38 -9 0 82 0 83 58 13 c31 7 71 16 87 20 l30 8 -30 0 c-16 0 -48 -4 -70 -10z"/><path d="M3668 783 c72 -2 192 -2 265 0 72 1 13 3 -133 3 -146 0 -205 -2 -132 -3z"/><path d="M3337 773 c18 -2 50 -2 70 0 21 2 7 4 -32 4 -38 0 -55 -2 -38 -4z"/><path d="M4198 773 c17 -2 47 -2 65 0 17 2 3 4 -33 4 -36 0 -50 -2 -32 -4z"/><path d="M3153 763 c26 -2 68 -2 95 0 26 2 4 3 -48 3 -52 0 -74 -1 -47 -3z"/><path d="M4353 763 c20 -2 54 -2 75 0 20 2 3 4 -38 4 -41 0 -58 -2 -37 -4z"/><path d="M3023 753 c9 -2 25 -2 35 0 9 3 1 5 -18 5 -19 0 -27 -2 -17 -5z"/><path d="M4548 753 c7 -3 16 -2 19 1 4 3 -2 6 -13 5 -11 0 -14 -3 -6 -6z"/><path d="M2835 740 l-50 -7 55 -1 c30 0 78 3 105 8 l50 7 -55 0 c-30 0 -77 -3 -105 -7z"/><path d="M4638 743 c7 -3 16 -2 19 1 4 3 -2 6 -13 5 -11 0 -14 -3 -6 -6z"/><path d="M2660 720 l-45 -7 40 -1 c22 0 58 3 80 7 l40 9 -35 -1 c-19 0 -55 -3 -80 -7z"/><path d="M2558 703 c6 -2 18 -2 25 0 6 3 1 5 -13 5 -14 0 -19 -2 -12 -5z"/><path d="M2430 690 c-35 -7 -34 -7 10 -8 25 0 59 4 75 8 28 7 28 8 -10 8 -22 -1 -56 -4 -75 -8z"/><path d="M1588 673 c7 -3 16 -2 19 1 4 3 -2 6 -13 5 -11 0 -14 -3 -6 -6z"/><path d="M2295 670 c-29 -7 -28 -8 10 -8 22 0 51 4 65 8 23 7 22 8 -10 8 -19 0 -48 -4 -65 -8z"/></g><g transform="translate(0.000000,393.000000) scale(0.100000,-0.100000)" fill="#F83326" stroke="none"><path d="M4485 963 c71 -15 65 -4 65 -108 0 -108 -8 -100 115 -110 472 -38 1058 -143 1653 -298 l92 -24 0 58 c0 68 9 61 -150 117 -190 67 -413 133 -615 183 -129 32 -482 104 -580 119 -33 4 -107 15 -165 24 -164 25 -493 56 -415 39z"/><path d="M4473 763 c9 -2 25 -2 35 0 9 3 1 5 -18 5 -19 0 -27 -2 -17 -5z"/></g><g transform="translate(0.000000,393.000000) scale(0.100000,-0.100000)" fill="#AC4679" stroke="none"><path d="M4758 943 c7 -3 16 -2 19 1 4 3 -2 6 -13 5 -11 0 -14 -3 -6 -6z"/><path d="M4903 923 c9 -2 23 -2 30 0 6 3 -1 5 -18 5 -16 0 -22 -2 -12 -5z"/><path d="M5208 873 c6 -2 18 -2 25 0 6 3 1 5 -13 5 -14 0 -19 -2 -12 -5z"/><path d="M5368 843 c7 -3 16 -2 19 1 4 3 -2 6 -13 5 -11 0 -14 -3 -6 -6z"/><path d="M5458 823 c6 -2 18 -2 25 0 6 3 1 5 -13 5 -14 0 -19 -2 -12 -5z"/><path d="M5548 803 c6 -2 18 -2 25 0 6 3 1 5 -13 5 -14 0 -19 -2 -12 -5z"/><path d="M5678 773 c7 -3 16 -2 19 1 4 3 -2 6 -13 5 -11 0 -14 -3 -6 -6z"/><path d="M5758 753 c7 -3 16 -2 19 1 4 3 -2 6 -13 5 -11 0 -14 -3 -6 -6z"/><path d="M5851 726 c2 -2 18 -6 34 -10 22 -5 26 -4 15 4 -14 9 -59 15 -49 6z"/><path d="M4913 713 c9 -2 23 -2 30 0 6 3 -1 5 -18 5 -16 0 -22 -2 -12 -5z"/><path d="M5945 700 c11 -5 27 -9 35 -9 9 0 8 4 -5 9 -11 5 -27 9 -35 9 -9 0 -8 -4 5 -9z"/><path d="M5078 693 c7 -3 16 -2 19 1 4 3 -2 6 -13 5 -11 0 -14 -3 -6 -6z"/><path d="M5143 683 c9 -2 23 -2 30 0 6 3 -1 5 -18 5 -16 0 -22 -2 -12 -5z"/><path d="M6021 676 c2 -2 18 -6 34 -10 22 -5 26 -4 15 4 -14 9 -59 15 -49 6z"/><path d="M5278 663 c6 -2 18 -2 25 0 6 3 1 5 -13 5 -14 0 -19 -2 -12 -5z"/><path d="M6105 650 c11 -5 27 -9 35 -9 13 -1 13 0 0 9 -8 5 -24 9 -35 9 l-20 0 20 -9z"/><path d="M5398 643 c7 -3 16 -2 19 1 4 3 -2 6 -13 5 -11 0 -14 -3 -6 -6z"/><path d="M5448 633 c7 -3 16 -2 19 1 4 3 -2 6 -13 5 -11 0 -14 -3 -6 -6z"/><path d="M6281 591 c58 -21 111 -41 117 -45 7 -4 12 -31 12 -65 l0 -58 -67 18 c-70 19 -114 24 -78 9 11 -4 40 -13 65 -20 25 -7 63 -18 85 -25 22 -7 60 -18 85 -25 25 -7 56 -17 70 -22 14 -6 52 -18 85 -28 53 -16 168 -57 335 -118 30 -11 120 -48 200 -81 79 -33 146 -58 148 -56 3 3 -6 9 -19 14 -13 6 -107 44 -209 85 l-185 75 -3 46 c-2 25 -1 45 2 45 6 0 77 -32 215 -96 51 -24 96 -44 100 -44 19 2 -310 156 -484 226 -60 25 -119 49 -130 54 -42 18 -297 110 -386 138 -86 28 -54 7 42 -27z"/><path d="M5558 613 c6 -2 18 -2 25 0 6 3 1 5 -13 5 -14 0 -19 -2 -12 -5z"/><path d="M5668 593 c7 -3 16 -2 19 1 4 3 -2 6 -13 5 -11 0 -14 -3 -6 -6z"/><path d="M5803 563 c9 -2 23 -2 30 0 6 3 -1 5 -18 5 -16 0 -22 -2 -12 -5z"/><path d="M5858 553 c7 -3 16 -2 19 1 4 3 -2 6 -13 5 -11 0 -14 -3 -6 -6z"/><path d="M5898 543 c6 -2 18 -2 25 0 6 3 1 5 -13 5 -14 0 -19 -2 -12 -5z"/><path d="M5995 520 c11 -5 29 -8 40 -8 16 0 15 2 -5 8 -34 11 -60 11 -35 0z"/><path d="M6075 500 c19 -8 73 -14 64 -6 -2 2 -22 6 -44 9 -28 5 -34 4 -20 -3z"/><path d="M6160 481 c21 -12 90 -25 70 -13 -8 5 -31 12 -50 15 -22 4 -29 3 -20 -2z"/><path d="M7255 193 c6 -6 61 -37 123 -69 101 -52 112 -61 112 -85 l0 -28 -66 30 c-36 17 -68 28 -70 26 -4 -4 129 -67 141 -67 3 0 5 17 3 38 -3 37 -4 37 -128 101 -69 35 -120 59 -115 54z"/></g><g transform="translate(0.000000,393.000000) scale(0.100000,-0.100000)" fill="#798599" stroke="none"><path d="M1565 664 c-153 -38 -145 -32 -145 -114 0 -41 4 -70 10 -70 6 0 43 9 83 21 39 11 87 24 105 29 19 5 36 10 38 13 3 2 4 36 2 74 l-3 70 -90 -23z"/><path d="M6922 294 l3 -45 170 -68 c94 -38 190 -78 215 -89 25 -11 75 -34 113 -51 l67 -30 0 27 c0 23 -9 32 -52 56 -76 41 -275 140 -333 166 -27 13 -78 36 -113 51 -34 16 -65 29 -68 29 -3 0 -4 -21 -2 -46z"/></g><g transform="translate(0.000000,393.000000) scale(0.100000,-0.100000)" fill="#006CAC" stroke="none"><path d="M2785 3898 c-27 -11 -84 -33 -125 -48 -94 -34 -99 -50 -31 -102 34 -25 50 -45 55 -68 3 -18 6 -354 6 -746 0 -393 3 -714 6 -714 4 0 21 9 38 20 32 19 33 19 97 0 126 -39 232 -52 317 -40 102 16 153 34 229 82 146 92 232 256 233 440 0 193 -88 347 -245 424 -63 31 -86 37 -162 41 -104 6 -179 -6 -257 -42 -32 -15 -65 -24 -73 -21 -13 5 -15 56 -12 398 4 442 10 412 -76 376z m329 -808 c136 -22 223 -103 277 -256 30 -86 30 -257 -1 -349 -41 -124 -122 -198 -234 -218 -137 -23 -245 36 -280 154 -21 69 -23 569 -3 609 15 29 55 51 112 61 59 10 65 10 129 -1z"/><path d="M154 3793 c-106 -3 -124 -6 -139 -24 -25 -26 -10 -40 55 -50 62 -10 97 -30 112 -67 9 -19 13 -228 16 -725 l4 -698 91 3 92 3 3 340 c2 385 -2 365 83 365 76 0 144 -18 170 -46 13 -14 118 -168 234 -342 l210 -317 108 -3 c93 -2 107 -1 107 13 0 9 -77 132 -172 273 -206 309 -288 440 -288 463 0 12 22 30 63 51 77 41 166 127 196 192 48 103 48 248 1 348 -27 58 -105 133 -168 160 -112 50 -174 59 -422 62 -129 2 -290 1 -356 -1z m513 -78 c113 -33 202 -114 238 -216 18 -49 20 -215 4 -274 -26 -98 -100 -171 -203 -202 -51 -16 -284 -22 -306 -8 -15 9 -13 670 1 693 16 26 185 30 266 7z"/><path d="M3946 3790 c-93 -29 -114 -161 -32 -211 59 -36 150 -18 174 36 48 104 -36 208 -142 175z"/><path d="M4011 3193 c-35 -19 -92 -46 -127 -60 -37 -14 -64 -31 -64 -39 0 -8 21 -36 48 -62 l47 -47 0 -375 0 -375 81 -3 81 -3 5 493 c3 271 3 496 -1 499 -3 4 -35 -9 -70 -28z"/><path d="M7764 3211 c-113 -51 -128 -217 -25 -287 46 -31 130 -33 179 -4 65 40 96 128 67 196 -21 51 -42 73 -90 95 -51 23 -79 23 -131 0z m130 -15 c72 -30 107 -135 68 -206 -10 -19 -37 -45 -58 -57 -67 -39 -135 -26 -187 36 -98 117 34 287 177 227z"/><path d="M7780 3056 c0 -61 3 -76 15 -76 10 0 15 10 15 30 0 20 5 30 16 30 8 0 20 -13 25 -30 6 -16 17 -30 25 -30 17 0 17 10 4 45 -7 18 -6 31 3 45 20 32 -2 54 -57 58 l-46 3 0 -75z m75 44 c8 -13 -13 -40 -31 -40 -8 0 -14 10 -14 25 0 18 5 25 19 25 11 0 23 -5 26 -10z"/><path d="M6675 3164 c-60 -30 -114 -60 -120 -65 -7 -7 4 -23 33 -48 30 -26 46 -50 52 -77 5 -21 10 -198 10 -391 l0 -353 79 0 80 0 3 348 c3 335 4 349 25 392 41 83 126 118 259 107 78 -6 132 -38 160 -94 17 -35 19 -70 24 -393 l5 -355 83 -3 82 -3 0 369 c0 400 -3 430 -55 498 -15 19 -45 47 -68 61 -37 24 -52 27 -132 27 -118 0 -141 -5 -251 -59 -51 -25 -98 -45 -104 -45 -16 0 -30 45 -30 96 0 29 -4 44 -12 43 -7 0 -62 -25 -123 -55z"/><path d="M2152 3188 c-9 -9 -12 -101 -12 -380 0 -407 0 -404 -63 -452 -100 -77 -273 -74 -343 5 -45 51 -48 75 -52 457 -3 305 -6 364 -18 369 -8 3 -56 -4 -107 -16 -50 -11 -105 -22 -122 -23 -44 -4 -40 -37 8 -63 65 -35 67 -47 67 -375 0 -197 4 -306 12 -334 29 -102 93 -156 207 -176 85 -15 179 6 296 65 48 25 89 45 91 45 2 0 12 -17 22 -37 l17 -38 80 0 80 0 0 480 0 480 -75 3 c-50 2 -79 -1 -88 -10z"/><path d="M4765 3180 c-188 -40 -338 -165 -398 -328 -25 -71 -34 -220 -17 -305 28 -146 125 -264 259 -317 90 -35 185 -44 266 -25 152 35 296 132 310 208 13 67 -7 67 -78 0 -75 -70 -125 -89 -232 -87 -100 2 -172 32 -244 103 -100 98 -146 239 -122 375 32 183 139 297 296 313 73 8 136 -16 220 -83 39 -31 73 -58 77 -60 4 -3 16 4 28 16 15 15 20 33 20 71 0 64 -13 87 -58 106 -43 18 -264 27 -327 13z"/><path d="M5719 3180 c-84 -21 -155 -63 -225 -134 -115 -115 -150 -213 -142 -402 5 -102 8 -117 41 -186 39 -81 124 -171 196 -207 102 -52 257 -70 371 -42 173 43 301 169 351 346 20 70 17 235 -5 307 -37 122 -137 236 -256 291 -58 27 -77 30 -180 33 -63 2 -131 -1 -151 -6z m207 -75 c73 -30 143 -127 180 -250 26 -84 26 -287 1 -370 -25 -84 -82 -164 -137 -195 -58 -32 -164 -35 -225 -5 -211 104 -272 544 -104 757 65 81 180 107 285 63z"/><path d="M255 1837 c-51 -29 -81 -74 -95 -144 -19 -88 1 -174 54 -231 62 -68 184 -78 251 -19 24 21 25 23 10 45 l-17 23 -32 -21 c-101 -62 -196 11 -196 151 0 117 103 197 186 143 23 -16 26 -15 44 1 27 25 25 32 -12 55 -47 29 -140 27 -193 -3z"/><path d="M625 1841 c-69 -42 -95 -99 -95 -206 0 -151 67 -229 196 -228 102 1 165 60 186 173 21 110 -18 217 -93 259 -49 28 -151 29 -194 2z m160 -63 c35 -28 55 -75 55 -134 0 -104 -47 -174 -116 -174 -46 0 -68 12 -92 52 -46 74 -37 192 19 247 38 39 92 42 134 9z"/><path d="M1010 1635 l0 -225 35 0 35 0 0 173 0 172 93 -172 92 -173 43 0 42 0 0 225 0 225 -35 0 -35 0 -2 -171 -3 -172 -38 74 c-22 41 -63 118 -94 172 l-54 97 -40 0 -39 0 0 -225z"/><path d="M1506 1838 c-41 -31 -59 -79 -46 -127 13 -49 29 -63 123 -105 94 -43 114 -72 77 -111 -31 -33 -90 -33 -145 -2 l-40 23 -22 -26 -21 -26 34 -23 c78 -53 196 -47 251 13 27 29 33 44 33 80 0 61 -27 90 -131 140 -66 32 -85 46 -87 64 -8 56 75 82 140 45 28 -17 30 -17 44 1 20 28 18 34 -18 56 -47 29 -152 27 -192 -2z"/><path d="M1840 1703 c0 -183 8 -220 54 -261 59 -52 170 -51 226 3 41 39 50 86 50 259 l0 156 -34 0 -34 0 -4 -169 c-3 -164 -4 -170 -28 -196 -20 -22 -32 -25 -69 -23 -39 3 -49 8 -68 37 -22 32 -23 44 -23 192 l0 159 -35 0 -35 0 0 -157z"/><path d="M2290 1636 l0 -226 37 0 36 0 -5 173 c-4 94 -4 168 -2 162 3 -5 29 -73 58 -150 40 -107 57 -140 71 -140 13 0 30 34 72 145 30 80 56 147 58 148 2 2 1 -73 -2 -167 l-6 -171 36 0 37 0 0 226 0 225 -41 -3 -41 -3 -44 -125 c-25 -69 -50 -138 -57 -154 l-13 -29 -22 64 c-12 35 -37 105 -55 154 l-34 90 -41 3 -42 3 0 -225z"/><path d="M2800 1635 l0 -225 140 0 140 0 0 30 0 30 -100 0 -100 0 0 70 0 70 80 0 80 0 0 30 0 30 -80 0 -80 0 0 65 0 65 95 0 95 0 0 30 0 30 -135 0 -135 0 0 -225z"/><path d="M3170 1635 l0 -225 40 0 40 0 0 90 0 90 33 0 c32 0 36 -4 83 -90 l48 -90 44 0 43 0 -28 48 c-15 26 -37 64 -50 84 -13 21 -23 41 -23 44 0 4 17 21 37 39 33 28 37 37 41 91 4 53 1 63 -21 90 -34 40 -85 54 -196 54 l-91 0 0 -225z m214 144 c68 -54 4 -139 -106 -139 l-28 0 0 80 0 80 54 0 c39 0 60 -6 80 -21z"/><path d="M3720 1635 l0 -225 40 0 40 0 0 100 0 100 95 0 95 0 0 -100 0 -100 35 0 35 0 0 225 -1 225 -34 0 -35 0 0 -90 0 -90 -95 0 -95 0 0 90 0 90 -40 0 -40 0 0 -225z"/><path d="M4180 1635 l0 -225 135 0 135 0 0 30 0 29 -97 3 -98 3 -3 68 -3 67 86 0 85 0 0 30 0 29 -82 3 -83 3 0 60 0 60 93 3 92 3 0 29 0 30 -130 0 -130 0 0 -225z"/><path d="M4566 1647 c-38 -116 -71 -218 -73 -224 -3 -9 8 -13 35 -13 l39 0 17 60 17 60 79 0 79 0 11 -42 c6 -24 13 -51 16 -60 4 -13 16 -18 45 -18 37 0 40 2 33 23 -3 12 -33 103 -64 202 -32 99 -61 190 -65 203 -5 19 -13 22 -53 22 l-47 0 -69 -213z m129 110 c4 -17 15 -61 26 -96 10 -35 19 -65 19 -67 0 -2 -28 -4 -61 -4 -59 0 -61 1 -55 23 4 12 17 59 28 104 12 45 25 80 29 77 4 -2 10 -19 14 -37z"/><path d="M4930 1635 l0 -225 130 0 130 0 0 30 0 30 -90 0 -90 0 0 195 0 195 -40 0 -40 0 0 -225z"/><path d="M5150 1830 c0 -29 0 -29 68 -32 l67 -3 3 -192 2 -193 35 0 35 0 2 193 3 192 63 3 c61 3 62 3 62 32 l0 30 -170 0 -170 0 0 -30z"/><path d="M5570 1635 l0 -225 35 0 35 0 0 100 0 100 95 0 95 0 0 -100 0 -100 40 0 40 0 0 225 0 225 -40 0 -40 0 0 -90 0 -90 -95 0 -95 0 0 90 0 90 -35 0 -35 0 0 -225z"/><path d="M6088 1827 c-30 -23 -49 -49 -65 -87 -52 -127 -10 -266 97 -320 35 -18 129 -17 166 3 50 26 57 40 33 66 l-20 21 -27 -20 c-39 -31 -119 -26 -149 11 -32 38 -43 72 -43 135 0 124 100 204 186 148 23 -16 26 -15 44 1 27 24 25 30 -14 54 -25 16 -50 21 -99 21 -59 0 -70 -3 -109 -33z"/><path d="M6507 1853 c-2 -5 -35 -102 -72 -218 -37 -115 -70 -213 -72 -217 -2 -5 14 -8 36 -8 l40 0 17 60 17 60 78 0 79 0 17 -60 16 -60 39 0 c21 0 38 3 38 7 0 4 -32 105 -71 225 l-71 218 -43 0 c-24 0 -46 -3 -48 -7z m53 -68 c0 -5 36 -144 46 -178 5 -16 0 -18 -53 -15 -45 2 -57 6 -55 18 21 88 48 180 54 180 5 0 8 -2 8 -5z"/><path d="M6800 1635 l0 -225 40 0 40 0 0 90 0 90 34 0 c33 0 37 -4 84 -87 49 -87 50 -88 91 -91 22 -2 41 -1 41 3 0 3 -11 23 -25 45 -14 22 -25 42 -25 45 0 3 -12 24 -26 47 -26 40 -26 42 -8 55 43 31 53 44 65 81 9 32 9 49 -2 83 -12 36 -22 48 -59 67 -37 18 -60 22 -147 22 l-103 0 0 -225z m218 140 c27 -23 29 -28 21 -62 -10 -45 -28 -60 -85 -69 -74 -11 -82 0 -76 104 l4 52 53 0 c42 0 60 -5 83 -25z"/><path d="M7220 1635 l0 -225 135 0 135 0 0 30 0 29 -97 3 -98 3 -3 68 -3 67 81 0 80 0 0 30 0 29 -77 3 -78 3 0 60 0 60 93 3 92 3 0 29 0 30 -130 0 -129 0 -1 -225z"/></g><g transform="translate(0.000000,393.000000) scale(0.100000,-0.100000)" fill="#0072B2" stroke="none"><path d="M2775 3905 c-61 -29 -54 -32 10 -5 82 35 84 34 88 -77 l3 -98 2 103 2 102 -27 -1 c-16 0 -50 -11 -78 -24z"/><path d="M2686 3871 c-4 -5 3 -7 14 -4 23 6 26 13 6 13 -8 0 -17 -4 -20 -9z"/><path d="M303 3803 c76 -2 198 -2 270 0 73 1 11 3 -138 3 -148 0 -208 -2 -132 -3z"/><path d="M3937 3803 c-3 -5 14 -6 38 -5 24 2 53 -1 66 -8 23 -11 23 -10 5 4 -20 16 -101 22 -109 9z"/><path d="M48 3793 c12 -2 32 -2 45 0 12 2 2 4 -23 4 -25 0 -35 -2 -22 -4z"/><path d="M728 3793 c6 -2 18 -2 25 0 6 3 1 5 -13 5 -14 0 -19 -2 -12 -5z"/><path d="M2570 3793 c0 -6 8 -17 18 -24 16 -13 16 -13 2 6 -8 11 -16 22 -17 24 -2 2 -3 0 -3 -6z"/><path d="M3902 3783 c-7 -2 -17 -14 -23 -26 -9 -19 -8 -20 3 -7 8 8 20 21 28 28 15 13 13 14 -8 5z"/><path d="M828 3773 c7 -3 16 -2 19 1 4 3 -2 6 -13 5 -11 0 -14 -3 -6 -6z"/><path d="M2610 3752 c0 -5 11 -15 25 -22 13 -7 27 -22 31 -32 3 -11 8 -18 10 -15 3 2 2 11 -1 19 -7 18 -65 62 -65 50z"/><path d="M4085 3750 c3 -5 8 -10 11 -10 2 0 4 5 4 10 0 6 -5 10 -11 10 -5 0 -7 -4 -4 -10z"/><path d="M9 3717 c5 -5 21 -7 37 -5 27 3 26 4 -8 9 -22 3 -34 1 -29 -4z"/><path d="M518 3723 c12 -2 32 -2 45 0 12 2 2 4 -23 4 -25 0 -35 -2 -22 -4z"/><path d="M3857 3723 c-4 -3 -7 -26 -7 -49 0 -34 7 -51 31 -79 17 -19 35 -35 39 -35 4 0 -8 16 -27 35 -32 32 -35 39 -31 85 1 27 3 50 2 50 0 0 -4 -3 -7 -7z"/><path d="M4101 3714 c0 -11 3 -14 6 -6 3 7 2 16 -1 19 -3 4 -6 -2 -5 -13z"/><path d="M428 3713 c6 -2 18 -2 25 0 6 3 1 5 -13 5 -14 0 -19 -2 -12 -5z"/><path d="M623 3713 c9 -2 23 -2 30 0 6 3 -1 5 -18 5 -16 0 -22 -2 -12 -5z"/><path d="M680 3700 c8 -5 22 -9 30 -9 10 0 8 3 -5 9 -27 12 -43 12 -25 0z"/><path d="M1032 3669 c24 -24 52 -55 62 -69 17 -24 17 -24 0 5 -21 37 -63 83 -88 97 -10 5 1 -10 26 -33z"/><path d="M150 3683 c0 -7 5 -15 10 -18 6 -3 11 -16 11 -28 1 -17 2 -18 6 -5 2 10 -3 28 -11 40 -9 12 -16 17 -16 11z"/><path d="M780 3650 c0 -5 5 -10 11 -10 5 0 7 5 4 10 -3 6 -8 10 -11 10 -2 0 -4 -4 -4 -10z"/><path d="M820 3614 c8 -10 18 -21 21 -24 4 -3 16 -21 28 -40 11 -19 21 -30 21 -24 0 14 -54 89 -72 100 -9 5 -8 2 2 -12z"/><path d="M4068 3588 c-15 -15 -23 -28 -19 -28 9 0 56 49 50 53 -2 1 -16 -10 -31 -25z"/><path d="M182 3590 c0 -14 2 -19 5 -12 2 6 2 18 0 25 -3 6 -5 1 -5 -13z"/><path d="M3958 3553 c12 -2 32 -2 45 0 12 2 2 4 -23 4 -25 0 -35 -2 -22 -4z"/><path d="M1131 3494 c0 -11 3 -14 6 -6 3 7 2 16 -1 19 -3 4 -6 -2 -5 -13z"/><path d="M902 3470 c0 -14 2 -19 5 -12 2 6 2 18 0 25 -3 6 -5 1 -5 -13z"/><path d="M1143 3400 c0 -41 2 -58 4 -37 2 20 2 54 0 75 -2 20 -4 3 -4 -38z"/><path d="M912 3415 c0 -16 2 -22 5 -12 2 9 2 23 0 30 -3 6 -5 -1 -5 -18z"/><path d="M912 3300 c0 -14 2 -19 5 -12 2 6 2 18 0 25 -3 6 -5 1 -5 -13z"/><path d="M1131 3304 c0 -11 3 -14 6 -6 3 7 2 16 -1 19 -3 4 -6 -2 -5 -13z"/><path d="M902 3250 c0 -14 2 -19 5 -12 2 6 2 18 0 25 -3 6 -5 1 -5 -13z"/><path d="M1101 3220 c-7 -17 -31 -54 -54 -83 -22 -29 -31 -43 -19 -33 30 26 94 124 90 136 -2 6 -9 -4 -17 -20z"/><path d="M7818 3233 c6 -2 18 -2 25 0 6 3 1 5 -13 5 -14 0 -19 -2 -12 -5z"/><path d="M6820 3162 l5 -67 3 59 c2 32 -1 63 -5 67 -4 4 -6 -22 -3 -59z"/><path d="M880 3186 c-6 -20 -33 -57 -58 -83 -26 -25 -37 -41 -26 -35 42 22 116 133 101 149 -3 2 -10 -12 -17 -31z"/><path d="M2208 3213 c12 -2 32 -2 45 0 12 2 2 4 -23 4 -25 0 -35 -2 -22 -4z"/><path d="M4008 3204 c-38 -20 -36 -28 2 -9 17 9 30 18 30 20 0 7 -1 6 -32 -11z"/><path d="M6728 3204 c-39 -21 -35 -28 5 -8 37 19 44 24 31 24 -5 -1 -21 -8 -36 -16z"/><path d="M7716 3193 c-15 -15 -32 -36 -38 -48 -5 -11 4 -3 22 17 17 21 39 42 48 48 9 5 12 10 6 10 -6 0 -24 -12 -38 -27z"/><path d="M7925 3200 c16 -10 38 -30 48 -42 18 -22 18 -22 8 -1 -11 22 -62 63 -78 63 -4 0 5 -9 22 -20z"/><path d="M2308 3198 c14 -7 23 -21 23 -37 l2 -26 4 24 c5 25 -18 52 -41 50 -6 0 -1 -5 12 -11z"/><path d="M7823 3203 c9 -2 23 -2 30 0 6 3 -1 5 -18 5 -16 0 -22 -2 -12 -5z"/><path d="M1591 3191 c-8 -5 5 -7 35 -4 27 3 51 7 53 9 9 8 -75 3 -88 -5z"/><path d="M3063 3193 c9 -2 25 -2 35 0 9 3 1 5 -18 5 -19 0 -27 -2 -17 -5z"/><path d="M3223 3193 c9 -2 25 -2 35 0 9 3 1 5 -18 5 -19 0 -27 -2 -17 -5z"/><path d="M4755 3190 c-12 -5 1 -6 35 -3 30 3 57 7 59 9 9 8 -75 2 -94 -6z"/><path d="M4973 3193 c9 -2 25 -2 35 0 9 3 1 5 -18 5 -19 0 -27 -2 -17 -5z"/><path d="M5743 3193 c9 -2 25 -2 35 0 9 3 1 5 -18 5 -19 0 -27 -2 -17 -5z"/><path d="M5901 3196 c2 -2 27 -6 54 -9 32 -4 43 -3 30 3 -19 8 -93 14 -84 6z"/><path d="M7055 3185 c-24 -12 -25 -14 -5 -8 14 3 41 10 60 14 34 7 34 7 5 7 -16 1 -43 -5 -60 -13z"/><path d="M7233 3193 c9 -2 23 -2 30 0 6 3 -1 5 -18 5 -16 0 -22 -2 -12 -5z"/><path d="M7880 3196 c0 -3 9 -10 20 -16 11 -6 20 -8 20 -6 0 3 -9 10 -20 16 -11 6 -20 8 -20 6z"/><path d="M5048 3183 c7 -3 16 -2 19 1 4 3 -2 6 -13 5 -11 0 -14 -3 -6 -6z"/><path d="M7733 3164 l-28 -25 33 22 c17 13 32 24 32 26 0 8 -11 1 -37 -23z"/><path d="M1684 2855 c0 -181 2 -257 3 -168 2 89 2 237 0 330 -1 92 -3 20 -3 -162z"/><path d="M3940 3170 c-8 -5 -10 -10 -5 -10 6 0 17 5 25 10 8 5 11 10 5 10 -5 0 -17 -5 -25 -10z"/><path d="M7301 3176 c2 -2 15 -9 29 -15 24 -11 24 -11 6 3 -16 13 -49 24 -35 12z"/><path d="M1473 3163 c9 -2 25 -2 35 0 9 3 1 5 -18 5 -19 0 -27 -2 -17 -5z"/><path d="M3341 3166 c10 -9 69 -36 69 -32 0 6 -55 36 -66 36 -4 0 -5 -2 -3 -4z"/><path d="M1397 3153 c-9 -9 -9 -51 1 -56 4 -3 7 10 7 29 0 19 0 34 -1 34 0 0 -4 -3 -7 -7z"/><path d="M5604 3150 c-12 -5 -25 -13 -28 -19 -4 -5 7 -3 24 5 16 9 30 17 30 20 0 5 0 5 -26 -6z"/><path d="M7946 3135 c24 -39 24 -40 24 -28 0 6 -9 21 -21 34 l-20 24 17 -30z"/><path d="M2905 3140 c-3 -6 1 -7 9 -4 18 7 21 14 7 14 -6 0 -13 -4 -16 -10z"/><path d="M3870 3140 c-8 -5 -10 -10 -5 -10 6 0 17 5 25 10 8 5 11 10 5 10 -5 0 -17 -5 -25 -10z"/><path d="M4615 3140 c-3 -6 1 -7 9 -4 18 7 21 14 7 14 -6 0 -13 -4 -16 -10z"/><path d="M6081 3147 c2 -1 13 -9 24 -17 19 -14 19 -14 6 3 -7 9 -18 17 -24 17 -6 0 -8 -1 -6 -3z"/><path d="M6594 3134 c-18 -14 -18 -14 6 -3 31 14 36 19 24 19 -6 0 -19 -7 -30 -16z"/><path d="M6934 3134 c-18 -14 -18 -14 6 -3 31 14 36 19 24 19 -6 0 -19 -7 -30 -16z"/><path d="M7375 3130 c10 -11 20 -20 23 -20 3 0 -3 9 -13 20 -10 11 -20 20 -23 20 -3 0 3 -9 13 -20z"/><path d="M7774 3137 c-3 -8 -3 -49 -1 -93 l3 -79 2 87 2 87 38 4 37 4 -38 1 c-23 1 -40 -3 -43 -11z"/><path d="M2870 3130 c0 -5 5 -10 11 -10 5 0 7 5 4 10 -3 6 -8 10 -11 10 -2 0 -4 -4 -4 -10z"/><path d="M4090 2690 l-5 -455 -87 -3 -88 -3 -3 368 -2 368 0 -370 0 -370 92 -3 c89 -3 93 -2 98 20 3 13 4 221 3 463 l-3 440 -5 -455z"/><path d="M7873 3129 c19 -11 24 -64 7 -72 -6 -3 -5 -4 2 -3 31 6 16 87 -16 86 -6 0 -3 -5 7 -11z"/><path d="M7696 3115 c-9 -26 -7 -32 5 -12 6 10 9 21 6 23 -2 3 -7 -2 -11 -11z"/><path d="M7991 3114 c0 -11 3 -14 6 -6 3 7 2 16 -1 19 -3 4 -6 -2 -5 -13z"/><path d="M2323 3080 c0 -25 2 -35 4 -22 2 12 2 32 0 45 -2 12 -4 2 -4 -23z"/><path d="M3810 3109 c0 -5 5 -7 10 -4 6 3 10 8 10 11 0 2 -4 4 -10 4 -5 0 -10 -5 -10 -11z"/><path d="M5507 3079 c-26 -22 -56 -55 -68 -72 -17 -26 -15 -25 13 7 19 22 52 54 74 73 21 18 36 33 33 33 -3 0 -27 -18 -52 -41z"/><path d="M6142 3104 c10 -10 20 -16 22 -13 3 3 -5 11 -17 18 -21 13 -21 12 -5 -5z"/><path d="M6547 3113 c-13 -12 -7 -40 11 -54 15 -13 16 -12 3 3 -7 10 -11 27 -8 38 5 21 4 24 -6 13z"/><path d="M6860 3099 c-19 -11 -28 -19 -20 -19 8 0 29 9 45 20 37 25 22 24 -25 -1z"/><path d="M7661 3104 c0 -11 3 -14 6 -6 3 7 2 16 -1 19 -3 4 -6 -2 -5 -13z"/><path d="M4773 3103 c9 -2 23 -2 30 0 6 3 -1 5 -18 5 -16 0 -22 -2 -12 -5z"/><path d="M4863 3103 c9 -2 23 -2 30 0 6 3 -1 5 -18 5 -16 0 -22 -2 -12 -5z"/><path d="M5898 3103 c7 -3 16 -2 19 1 4 3 -2 6 -13 5 -11 0 -14 -3 -6 -6z"/><path d="M3494 3057 c21 -26 40 -47 43 -47 7 0 -56 78 -70 87 -6 4 6 -14 27 -40z"/><path d="M4508 3073 c-36 -31 -78 -77 -92 -102 -4 -9 6 1 23 21 17 20 50 53 73 72 23 20 39 36 36 36 -4 0 -21 -12 -40 -27z"/><path d="M4710 3090 c-8 -5 -10 -10 -5 -10 6 0 17 5 25 10 8 5 11 10 5 10 -5 0 -17 -5 -25 -10z"/><path d="M4911 3097 c16 -12 79 -45 79 -42 0 7 -63 45 -74 45 -5 0 -7 -1 -5 -3z"/><path d="M5700 3090 c-9 -6 -10 -10 -3 -10 6 0 15 5 18 10 8 12 4 12 -15 0z"/><path d="M965 3064 c-18 -16 -22 -22 -9 -15 18 9 53 42 43 41 -2 -1 -17 -12 -34 -26z"/><path d="M2983 3083 c9 -2 23 -2 30 0 6 3 -1 5 -18 5 -16 0 -22 -2 -12 -5z"/><path d="M3083 3083 c9 -2 25 -2 35 0 9 3 1 5 -18 5 -19 0 -27 -2 -17 -5z"/><path d="M5162 3065 c0 -16 2 -22 5 -12 2 9 2 23 0 30 -3 6 -5 -1 -5 -18z"/><path d="M2908 3064 c-28 -15 -45 -52 -35 -76 3 -7 6 -2 6 12 2 33 10 44 46 63 17 9 26 16 20 16 -5 0 -22 -6 -37 -15z"/><path d="M3160 3070 c8 -5 20 -10 25 -10 6 0 3 5 -5 10 -8 5 -19 10 -25 10 -5 0 -3 -5 5 -10z"/><path d="M3810 3071 c0 -6 4 -11 8 -11 5 0 25 -16 45 -35 21 -20 37 -32 37 -27 0 5 -20 26 -45 46 -25 21 -45 33 -45 27z"/><path d="M4653 3054 l-28 -25 33 22 c17 13 32 24 32 26 0 8 -11 1 -37 -23z"/><path d="M5960 3076 c0 -2 8 -10 18 -17 15 -13 16 -12 3 4 -13 16 -21 21 -21 13z"/><path d="M7828 3073 c7 -3 16 -2 19 1 4 3 -2 6 -13 5 -11 0 -14 -3 -6 -6z"/><path d="M1473 3054 c5 -7 12 -25 17 -41 7 -23 8 -24 9 -7 1 12 -7 30 -16 41 -10 10 -14 13 -10 7z"/><path d="M5649 3043 l-24 -28 28 24 c15 14 27 26 27 28 0 8 -8 1 -31 -24z"/><path d="M6924 3054 c-18 -9 -43 -28 -55 -42 l-24 -27 26 22 c14 13 43 32 65 43 21 10 35 19 29 19 -5 0 -24 -6 -41 -15z"/><path d="M7427 3049 c4 -13 8 -18 11 -10 2 7 -1 18 -6 23 -8 8 -9 4 -5 -13z"/><path d="M390 3046 c0 -8 4 -17 9 -20 5 -4 7 3 4 14 -6 23 -13 26 -13 6z"/><path d="M735 3045 c-25 -12 -26 -14 -5 -9 14 4 29 10 35 15 12 12 5 11 -30 -6z"/><path d="M3201 3057 c2 -2 22 -15 44 -31 l40 -27 -35 30 c-19 17 -39 31 -44 31 -5 0 -7 -1 -5 -3z"/><path d="M7160 3056 c0 -2 7 -7 16 -10 8 -3 12 -2 9 4 -6 10 -25 14 -25 6z"/><path d="M5000 3044 c0 -7 11 -16 63 -55 42 -32 32 -17 -18 24 -25 21 -45 35 -45 31z"/><path d="M6020 3010 c12 -16 24 -30 26 -30 3 0 -4 14 -16 30 -12 17 -24 30 -26 30 -3 0 4 -13 16 -30z"/><path d="M7212 3020 c7 -11 17 -20 22 -20 5 0 1 9 -9 20 -10 11 -20 20 -22 20 -2 0 2 -9 9 -20z"/><path d="M668 3023 c6 -2 18 -2 25 0 6 3 1 5 -13 5 -14 0 -19 -2 -12 -5z"/><path d="M880 3015 c-14 -8 -20 -14 -14 -15 5 0 19 7 30 15 24 18 16 19 -16 0z"/><path d="M6225 3020 c3 -5 8 -10 11 -10 2 0 4 5 4 10 0 6 -5 10 -11 10 -5 0 -7 -4 -4 -10z"/><path d="M7661 3014 c0 -11 3 -14 6 -6 3 7 2 16 -1 19 -3 4 -6 -2 -5 -13z"/><path d="M7690 3025 c0 -5 5 -17 10 -25 5 -8 10 -10 10 -5 0 6 -5 17 -10 25 -5 8 -10 11 -10 5z"/><path d="M433 3013 c9 -2 25 -2 35 0 9 3 1 5 -18 5 -19 0 -27 -2 -17 -5z"/><path d="M618 3013 c6 -2 18 -2 25 0 6 3 1 5 -13 5 -14 0 -19 -2 -12 -5z"/><path d="M7891 3004 c0 -11 3 -14 6 -6 3 7 2 16 -1 19 -3 4 -6 -2 -5 -13z"/><path d="M7947 2987 l-17 -32 20 24 c17 20 26 41 18 41 -2 0 -11 -15 -21 -33z"/><path d="M7987 3001 c-4 -17 -3 -21 5 -13 5 5 8 16 6 23 -3 8 -7 3 -11 -10z"/><path d="M4588 2993 c-18 -21 -31 -43 -25 -43 2 0 13 14 25 30 25 33 24 41 0 13z"/><path d="M841 2984 c0 -11 3 -14 6 -6 3 7 2 16 -1 19 -3 4 -6 -2 -5 -13z"/><path d="M3550 2980 c6 -11 13 -20 16 -20 2 0 0 9 -6 20 -6 11 -13 20 -16 20 -2 0 0 -9 6 -20z"/><path d="M5130 2985 c-11 -13 -10 -14 4 -9 9 3 16 10 16 15 0 13 -6 11 -20 -6z"/><path d="M6250 2991 c0 -6 4 -13 10 -16 6 -3 7 1 4 9 -7 18 -14 21 -14 7z"/><path d="M7452 2970 c0 -19 2 -27 5 -17 2 9 2 25 0 35 -3 9 -5 1 -5 -18z"/><path d="M3315 2955 c40 -56 51 -66 29 -27 -10 18 -28 41 -38 50 -12 10 -8 0 9 -23z"/><path d="M6635 2608 l0 -383 95 0 95 0 0 348 0 347 -2 -345 -3 -345 -90 0 -90 0 -3 380 -2 380 0 -382z"/><path d="M7678 2975 c6 -11 23 -31 39 -45 l28 -25 -30 35 c-47 55 -48 56 -37 35z"/><path d="M5586 2940 c-9 -22 -16 -46 -16 -53 1 -6 10 10 20 37 11 28 18 51 16 53 -2 2 -11 -14 -20 -37z"/><path d="M6836 2965 c-9 -26 -7 -32 5 -12 6 10 9 21 6 23 -2 3 -7 -2 -11 -11z"/><path d="M7720 2964 c8 -8 23 -20 34 -26 15 -8 13 -3 -7 16 -31 28 -47 35 -27 10z"/><path d="M6051 2965 c0 -5 6 -21 14 -35 8 -14 14 -20 14 -15 0 6 -6 21 -14 35 -8 14 -14 21 -14 15z"/><path d="M7250 2965 c0 -5 5 -17 10 -25 5 -8 10 -10 10 -5 0 6 -5 17 -10 25 -5 8 -10 11 -10 5z"/><path d="M7945 2938 c-24 -25 -26 -28 -8 -19 13 6 27 20 33 31 14 27 10 25 -25 -12z"/><path d="M863 2935 c9 -16 23 -39 32 -50 9 -11 7 -2 -6 20 -27 49 -47 72 -26 30z"/><path d="M6276 2947 c3 -10 9 -15 12 -12 3 3 0 11 -7 18 -10 9 -11 8 -5 -6z"/><path d="M3570 2945 c0 -5 5 -17 10 -25 5 -8 10 -10 10 -5 0 6 -5 17 -10 25 -5 8 -10 11 -10 5z"/><path d="M4387 2930 c-3 -11 -3 -20 -1 -20 2 0 8 9 14 20 6 11 7 20 2 20 -6 0 -12 -9 -15 -20z"/><path d="M5388 2935 c-3 -11 -9 -29 -13 -40 -3 -11 1 -7 10 8 9 16 15 33 12 40 -2 6 -6 3 -9 -8z"/><path d="M7880 2934 c-14 -8 -18 -14 -10 -14 8 1 24 7 34 15 24 19 10 18 -24 -1z"/><path d="M4546 2923 c-6 -14 -5 -15 5 -6 7 7 10 15 7 18 -3 3 -9 -2 -12 -12z"/><path d="M7788 2923 c7 -3 16 -2 19 1 4 3 -2 6 -13 5 -11 0 -14 -3 -6 -6z"/><path d="M395 2909 c-4 -6 -5 -12 -2 -15 2 -3 7 2 10 11 7 17 1 20 -8 4z"/><path d="M622 2891 c18 -16 58 -68 88 -115 30 -46 59 -85 63 -85 12 -1 -121 189 -147 211 -35 29 -39 20 -4 -11z"/><path d="M7760 2900 c8 -5 20 -10 25 -10 6 0 3 5 -5 10 -8 5 -19 10 -25 10 -5 0 -3 -5 5 -10z"/><path d="M3596 2870 c8 -43 14 -51 14 -19 0 13 -5 31 -10 39 -7 11 -8 5 -4 -20z"/><path d="M4531 2884 c0 -11 3 -14 6 -6 3 7 2 16 -1 19 -3 4 -6 -2 -5 -13z"/><path d="M6080 2895 c0 -5 5 -17 10 -25 5 -8 10 -10 10 -5 0 6 -5 17 -10 25 -5 8 -10 11 -10 5z"/><path d="M6301 2895 c1 -19 18 -51 18 -35 0 8 -4 22 -9 30 -5 8 -9 11 -9 5z"/><path d="M7275 2560 l0 -335 93 -3 c50 -1 92 1 92 5 0 4 -40 7 -90 5 l-90 -3 -3 333 -2 333 0 -335z"/><path d="M7823 2883 c9 -2 23 -2 30 0 6 3 -1 5 -18 5 -16 0 -22 -2 -12 -5z"/><path d="M919 2845 c5 -11 17 -29 26 -40 l16 -20 -10 20 c-5 11 -17 29 -26 40 l-16 20 10 -20z"/><path d="M4521 2844 c0 -11 3 -14 6 -6 3 7 2 16 -1 19 -3 4 -6 -2 -5 -13z"/><path d="M4346 2835 c-3 -9 -6 -24 -5 -33 0 -9 5 -4 10 12 9 32 6 48 -5 21z"/><path d="M6101 2824 c0 -11 3 -14 6 -6 3 7 2 16 -1 19 -3 4 -6 -2 -5 -13z"/><path d="M5554 2715 c0 -60 1 -84 3 -52 2 32 2 81 0 110 -2 29 -3 3 -3 -58z"/><path d="M3392 2785 c0 -16 2 -22 5 -12 2 9 2 23 0 30 -3 6 -5 -1 -5 -18z"/><path d="M5342 2780 c0 -19 2 -27 5 -17 2 9 2 25 0 35 -3 9 -5 1 -5 -18z"/><path d="M3613 2730 c0 -41 2 -58 4 -37 2 20 2 54 0 75 -2 20 -4 3 -4 -38z"/><path d="M6111 2774 c0 -11 3 -14 6 -6 3 7 2 16 -1 19 -3 4 -6 -2 -5 -13z"/><path d="M6334 2700 c0 -52 1 -74 3 -47 2 26 2 68 0 95 -2 26 -3 4 -3 -48z"/><path d="M981 2746 c12 -20 25 -39 30 -42 5 -3 0 11 -12 30 -12 20 -25 39 -30 42 -5 3 0 -11 12 -30z"/><path d="M4332 2740 c0 -14 2 -19 5 -12 2 6 2 18 0 25 -3 6 -5 1 -5 -13z"/><path d="M3402 2730 c0 -14 2 -19 5 -12 2 6 2 18 0 25 -3 6 -5 1 -5 -13z"/><path d="M6123 2665 c0 -22 2 -30 4 -17 2 12 2 30 0 40 -3 9 -5 -1 -4 -23z"/><path d="M1041 2660 c29 -45 29 -45 29 -34 0 5 -12 23 -26 39 l-26 30 23 -35z"/><path d="M780 2671 c0 -5 7 -15 17 -22 15 -13 15 -12 4 9 -12 23 -21 28 -21 13z"/><path d="M838 2586 c15 -24 29 -42 31 -40 4 4 -47 84 -54 84 -2 0 8 -20 23 -44z"/><path d="M4521 2625 c1 -19 18 -51 18 -35 0 8 -4 22 -9 30 -5 8 -9 11 -9 5z"/><path d="M3601 2603 c0 -12 -4 -30 -7 -40 -5 -17 -5 -17 6 0 6 10 9 28 7 40 -4 22 -4 22 -6 0z"/><path d="M1080 2601 c0 -6 4 -13 10 -16 6 -3 7 1 4 9 -7 18 -14 21 -14 7z"/><path d="M3402 2590 c0 -14 2 -19 5 -12 2 6 2 18 0 25 -3 6 -5 1 -5 -13z"/><path d="M4332 2590 c0 -14 2 -19 5 -12 2 6 2 18 0 25 -3 6 -5 1 -5 -13z"/><path d="M5341 2584 c0 -16 4 -38 9 -49 6 -13 7 -5 3 25 -7 53 -13 66 -12 24z"/><path d="M6321 2584 c0 -11 3 -14 6 -6 3 7 2 16 -1 19 -3 4 -6 -2 -5 -13z"/><path d="M4540 2565 c0 -5 5 -17 10 -25 5 -8 10 -10 10 -5 0 6 -5 17 -10 25 -5 8 -10 11 -10 5z"/><path d="M3392 2535 c0 -16 2 -22 5 -12 2 9 2 23 0 30 -3 6 -5 -1 -5 -18z"/><path d="M4342 2530 c0 -14 2 -19 5 -12 2 6 2 18 0 25 -3 6 -5 1 -5 -13z"/><path d="M5571 2534 c0 -11 3 -14 6 -6 3 7 2 16 -1 19 -3 4 -6 -2 -5 -13z"/><path d="M6311 2543 c-1 -6 -4 -20 -7 -30 -5 -17 -5 -17 6 0 6 10 9 23 6 30 -3 9 -5 9 -5 0z"/><path d="M1156 2488 c20 -32 39 -58 41 -58 7 0 -29 58 -55 88 -13 15 -6 1 14 -30z"/><path d="M3563 2489 c-12 -27 -20 -49 -18 -49 8 0 46 81 43 90 -2 4 -13 -14 -25 -41z"/><path d="M880 2524 c0 -5 12 -22 26 -39 l26 -30 -23 35 c-29 45 -29 45 -29 34z"/><path d="M6101 2514 c0 -11 3 -14 6 -6 3 7 2 16 -1 19 -3 4 -6 -2 -5 -13z"/><path d="M4578 2495 c6 -11 32 -40 58 -65 l48 -45 -54 60 c-29 33 -56 62 -58 65 -3 3 0 -4 6 -15z"/><path d="M5580 2505 c0 -5 5 -17 10 -25 5 -8 10 -10 10 -5 0 6 -5 17 -10 25 -5 8 -10 11 -10 5z"/><path d="M1691 2474 c0 -11 3 -14 6 -6 3 7 2 16 -1 19 -3 4 -6 -2 -5 -13z"/><path d="M2126 2459 c-8 -42 0 -50 9 -9 4 17 5 34 2 36 -2 3 -7 -10 -11 -27z"/><path d="M2872 2465 c0 -16 2 -22 5 -12 2 9 2 23 0 30 -3 6 -5 -1 -5 -18z"/><path d="M6090 2478 c0 -3 -7 -22 -15 -42 -8 -20 -13 -36 -10 -36 8 0 36 73 30 78 -3 3 -5 3 -5 0z"/><path d="M5189 2438 c4 -28 6 -29 9 -9 2 13 0 27 -5 32 -6 6 -7 -3 -4 -23z"/><path d="M6276 2453 c-6 -14 -5 -15 5 -6 7 7 10 15 7 18 -3 3 -9 -2 -12 -12z"/><path d="M5090 2413 c-25 -26 -34 -39 -20 -28 26 20 70 65 70 72 0 8 -8 0 -50 -44z"/><path d="M5600 2454 c0 -6 7 -19 16 -30 14 -18 14 -18 3 6 -14 31 -19 36 -19 24z"/><path d="M1502 2430 c0 -14 2 -19 5 -12 2 6 2 18 0 25 -3 6 -5 1 -5 -13z"/><path d="M1701 2434 c0 -11 3 -14 6 -6 3 7 2 16 -1 19 -3 4 -6 -2 -5 -13z"/><path d="M4370 2441 c0 -6 4 -13 10 -16 6 -3 7 1 4 9 -7 18 -14 21 -14 7z"/><path d="M3346 2411 c-9 -16 -39 -50 -68 -76 -34 -31 -41 -39 -18 -24 19 13 45 35 58 49 24 27 56 80 48 80 -3 0 -12 -13 -20 -29z"/><path d="M5390 2433 c0 -6 8 -17 18 -24 16 -13 16 -13 2 6 -8 11 -16 22 -17 24 -2 2 -3 0 -3 -6z"/><path d="M950 2411 c5 -11 15 -23 21 -27 6 -3 3 5 -6 20 -20 30 -30 35 -15 7z"/><path d="M3517 2408 c-8 -13 -25 -33 -36 -45 -12 -13 -18 -23 -14 -23 5 0 16 9 25 19 24 28 51 71 45 71 -2 0 -11 -10 -20 -22z"/><path d="M6251 2407 c-13 -21 -12 -21 5 -5 10 10 16 20 13 22 -3 3 -11 -5 -18 -17z"/><path d="M1718 2395 c11 -22 48 -58 72 -69 8 -4 4 1 -10 13 -14 11 -35 32 -48 48 -14 16 -19 19 -14 8z"/><path d="M2082 2380 c-18 -17 -29 -30 -24 -30 5 0 21 14 37 30 37 38 30 38 -13 0z"/><path d="M4390 2403 c0 -6 8 -17 18 -24 16 -13 16 -13 2 6 -8 11 -16 22 -17 24 -2 2 -3 0 -3 -6z"/><path d="M5652 2371 c13 -19 40 -46 59 -59 l34 -24 -30 26 c-16 14 -43 40 -59 58 l-29 33 25 -34z"/><path d="M1511 2374 c-1 -11 6 -29 15 -40 8 -10 12 -13 9 -6 -4 8 -11 26 -15 40 -7 22 -8 23 -9 6z"/><path d="M5167 2364 c-10 -13 -14 -24 -10 -24 9 0 36 40 31 45 -2 2 -11 -8 -21 -21z"/><path d="M5440 2360 c11 -16 26 -33 32 -36 7 -4 -1 9 -16 29 -34 44 -46 50 -16 7z"/><path d="M6199 2344 c-18 -20 -52 -50 -74 -67 -22 -16 -34 -28 -26 -25 28 8 157 128 138 128 -2 0 -19 -16 -38 -36z"/><path d="M995 2346 c10 -14 19 -26 22 -26 7 0 -17 39 -28 46 -6 3 -3 -5 6 -20z"/><path d="M2911 2353 c19 -24 31 -35 54 -53 11 -8 2 5 -20 28 -40 43 -59 56 -34 25z"/><path d="M4730 2360 c8 -5 20 -10 25 -10 6 0 3 5 -5 10 -8 5 -19 10 -25 10 -5 0 -3 -5 5 -10z"/><path d="M5000 2355 c-14 -8 -20 -14 -15 -14 6 0 21 6 35 14 14 8 21 14 15 14 -5 0 -21 -6 -35 -14z"/><path d="M6012 2339 c-19 -17 -32 -32 -30 -35 3 -2 20 12 38 31 42 43 37 45 -8 4z"/><path d="M1261 2330 c29 -45 29 -45 29 -34 0 5 -12 23 -26 39 l-26 30 23 -35z"/><path d="M4430 2345 c13 -22 93 -88 113 -94 6 -1 1 5 -13 14 -14 10 -45 36 -69 59 -24 23 -38 32 -31 21z"/><path d="M4823 2333 c9 -2 25 -2 35 0 9 3 1 5 -18 5 -19 0 -27 -2 -17 -5z"/><path d="M4923 2333 c9 -2 23 -2 30 0 6 3 -1 5 -18 5 -16 0 -22 -2 -12 -5z"/><path d="M3410 2298 c-32 -29 -33 -30 -5 -13 34 21 60 45 48 45 -4 -1 -24 -15 -43 -32z"/><path d="M5081 2289 c-55 -39 -63 -53 -13 -22 37 24 85 63 75 62 -4 0 -32 -18 -62 -40z"/><path d="M1823 2313 c9 -2 23 -2 30 0 6 3 -1 5 -18 5 -16 0 -22 -2 -12 -5z"/><path d="M1958 2313 c6 -2 18 -2 25 0 6 3 1 5 -13 5 -14 0 -19 -2 -12 -5z"/><path d="M1540 2301 c0 -9 79 -86 82 -80 2 2 -16 23 -39 45 -24 23 -43 39 -43 35z"/><path d="M5497 2299 c6 -8 26 -22 45 -32 l33 -19 -25 21 c-14 12 -34 27 -45 33 -17 9 -18 9 -8 -3z"/><path d="M2068 2284 c-38 -20 -36 -28 2 -9 17 9 30 18 30 20 0 7 -1 6 -32 -11z"/><path d="M2998 2283 c7 -3 16 -2 19 1 4 3 -2 6 -13 5 -11 0 -14 -3 -6 -6z"/><path d="M5758 2283 c7 -3 16 -2 19 1 4 3 -2 6 -13 5 -11 0 -14 -3 -6 -6z"/><path d="M1046 2267 c3 -10 9 -15 12 -12 3 3 0 11 -7 18 -10 9 -11 8 -5 -6z"/><path d="M1300 2268 c6 -7 10 -18 10 -26 0 -10 -24 -13 -119 -10 -66 2 -117 0 -114 -4 2 -5 56 -8 119 -8 95 0 116 3 121 16 3 8 -2 22 -11 30 -9 8 -11 9 -6 2z"/><path d="M3305 2239 c-33 -16 -49 -27 -35 -23 30 8 100 42 100 49 0 6 6 8 -65 -26z"/><path d="M2736 2235 c-11 -8 -15 -15 -9 -15 6 0 16 7 23 15 16 19 11 19 -14 0z"/><path d="M5594 2236 c11 -9 27 -16 35 -15 14 0 14 1 1 6 -8 3 -24 10 -35 15 -20 9 -20 9 -1 -6z"/><path d="M6050 2235 c-14 -8 -20 -14 -14 -15 5 0 19 7 30 15 24 18 16 19 -16 0z"/><path d="M190 2228 c0 -5 46 -7 103 -6 106 1 94 6 -31 10 -39 2 -72 0 -72 -4z"/><path d="M2149 2227 c4 -4 46 -7 92 -5 l84 3 -92 5 c-51 3 -89 1 -84 -3z"/><path d="M2820 2230 c8 -5 22 -9 30 -9 10 0 8 3 -5 9 -27 12 -43 12 -25 0z"/><path d="M4570 2232 c8 -5 26 -13 40 -16 17 -5 20 -4 10 2 -8 5 -26 13 -40 16 -17 5 -20 4 -10 -2z"/><path d="M4915 2210 c-13 -6 -15 -9 -5 -9 8 0 22 4 30 9 18 12 2 12 -25 0z"/><path d="M5980 2210 c-21 -7 -21 -8 -5 -9 11 0 27 4 35 9 18 11 5 11 -30 0z"/><path d="M1898 2203 c7 -3 16 -2 19 1 4 3 -2 6 -13 5 -11 0 -14 -3 -6 -6z"/><path d="M2918 2203 c6 -2 18 -2 25 0 6 3 1 5 -13 5 -14 0 -19 -2 -12 -5z"/><path d="M3218 2203 c7 -3 16 -2 19 1 4 3 -2 6 -13 5 -11 0 -14 -3 -6 -6z"/><path d="M4648 2203 c7 -3 16 -2 19 1 4 3 -2 6 -13 5 -11 0 -14 -3 -6 -6z"/><path d="M5678 2203 c7 -3 16 -2 19 1 4 3 -2 6 -13 5 -11 0 -14 -3 -6 -6z"/><path d="M4858 2193 c7 -3 16 -2 19 1 4 3 -2 6 -13 5 -11 0 -14 -3 -6 -6z"/><path d="M338 1873 c12 -2 30 -2 40 0 9 3 -1 5 -23 4 -22 0 -30 -2 -17 -4z"/><path d="M698 1873 c12 -2 32 -2 45 0 12 2 2 4 -23 4 -25 0 -35 -2 -22 -4z"/><path d="M1578 1873 c12 -2 32 -2 45 0 12 2 2 4 -23 4 -25 0 -35 -2 -22 -4z"/><path d="M6188 1873 c12 -2 30 -2 40 0 9 3 -1 5 -23 4 -22 0 -30 -2 -17 -4z"/><path d="M805 1853 c17 -8 43 -27 60 -42 l30 -26 -25 28 c-24 28 -70 57 -87 57 -4 -1 6 -8 22 -17z"/><path d="M1000 1635 l0 -235 50 0 50 0 -2 128 -2 127 -3 -122 -4 -123 -39 0 -40 0 0 224 0 225 48 4 47 3 -52 2 -53 2 0 -235z"/><path d="M1308 1863 l42 -4 0 -225 0 -224 -45 0 c-41 0 -46 3 -64 38 -11 20 -20 33 -21 27 0 -5 9 -25 20 -42 18 -30 24 -33 70 -33 l50 0 0 235 0 235 -47 -2 -48 -1 43 -4z"/><path d="M1867 1863 l42 -4 4 -132 3 -132 2 138 2 137 -47 -2 -48 -1 42 -4z"/><path d="M2092 1718 l2 -153 3 147 4 147 42 4 42 4 -47 1 -48 2 2 -152z"/><path d="M2327 1863 c45 -4 52 -7 58 -30 3 -14 8 -23 11 -21 2 3 0 17 -5 32 -10 24 -15 26 -63 24 l-53 -2 52 -3z"/><path d="M2613 1863 c15 -2 39 -2 55 0 15 2 2 4 -28 4 -30 0 -43 -2 -27 -4z"/><path d="M2790 1635 l0 -235 148 2 147 2 -142 3 -143 4 0 224 0 224 138 4 137 3 -142 2 -143 2 0 -235z"/><path d="M3160 1635 l0 -235 48 2 47 1 -42 4 -43 4 0 224 0 224 98 4 97 3 -102 2 -103 2 0 -235z"/><path d="M3710 1635 l0 -235 48 2 47 1 -42 4 -43 4 0 224 0 224 43 4 42 4 -47 1 -48 2 0 -235z"/><path d="M4018 1863 l42 -4 0 -224 0 -224 -42 -4 -43 -4 48 -1 47 -2 0 235 0 235 -47 -2 -48 -1 43 -4z"/><path d="M4170 1635 l0 -235 148 2 147 2 -142 3 -143 4 0 224 0 225 135 0 135 0 0 -35 0 -35 -95 0 -95 0 2 -57 2 -58 3 53 4 52 95 0 94 0 0 45 0 45 -145 0 -145 0 0 -235z"/><path d="M4640 1864 c35 -7 98 -9 94 -2 -3 5 -29 7 -57 7 -29 -1 -45 -3 -37 -5z"/><path d="M4968 1863 l42 -4 0 -190 0 -189 98 2 97 2 -92 3 -93 4 0 189 0 190 -47 -2 -48 -1 43 -4z"/><path d="M5318 1863 l172 -3 0 -35 0 -35 -65 0 -65 0 0 -190 0 -190 -40 0 -40 0 0 190 0 190 -67 -2 -68 -2 63 -3 62 -4 0 -189 0 -190 50 0 50 0 0 190 0 190 65 0 65 0 0 45 0 45 -177 -2 -178 -2 173 -3z"/><path d="M5560 1635 l0 -235 50 0 50 0 0 100 0 100 80 0 80 0 0 -100 0 -100 50 0 50 0 0 235 0 235 -50 0 -50 0 2 -97 2 -98 3 93 4 92 39 0 40 0 0 -225 0 -225 -40 0 -40 0 0 100 0 100 -90 0 -90 0 0 -100 0 -100 -40 0 -40 0 0 225 0 225 40 0 39 0 4 -92 3 -93 2 98 2 97 -50 0 -50 0 0 -235z"/><path d="M6120 1860 c-8 -5 -10 -10 -5 -10 6 0 17 5 25 10 8 5 11 10 5 10 -5 0 -17 -5 -25 -10z"/><path d="M6493 1855 c-3 -9 -3 -19 1 -22 3 -4 6 2 6 11 0 15 8 17 55 14 30 -1 55 0 55 5 0 4 -25 7 -55 7 -41 0 -57 -4 -62 -15z"/><path d="M6790 1635 l0 -235 50 0 50 0 -2 93 -2 92 -3 -87 -4 -88 -39 0 -40 0 0 225 0 224 103 4 102 3 -107 2 -108 2 0 -235z"/><path d="M7278 1863 c39 -2 105 -2 145 0 39 1 7 3 -73 3 -80 0 -112 -2 -72 -3z"/><path d="M215 1819 c-25 -23 -45 -46 -45 -51 0 -5 12 5 27 23 15 17 41 40 58 50 16 11 24 19 17 19 -7 0 -33 -19 -57 -41z"/><path d="M1500 1850 c-8 -5 -10 -10 -5 -10 6 0 17 5 25 10 8 5 11 10 5 10 -5 0 -17 -5 -25 -10z"/><path d="M1110 1830 c6 -11 13 -20 16 -20 2 0 0 9 -6 20 -6 11 -13 20 -16 20 -2 0 0 -9 6 -20z"/><path d="M6070 1829 c-22 -18 -22 -19 -3 -10 12 6 25 16 28 21 9 15 3 12 -25 -11z"/><path d="M6313 1832 c18 -20 18 -21 1 -49 l-18 -28 22 19 c28 24 28 47 0 65 -23 14 -23 14 -5 -7z"/><path d="M7074 1829 c15 -12 32 -31 36 -43 6 -15 9 -16 9 -5 1 18 -45 69 -62 69 -5 0 3 -10 17 -21z"/><path d="M564 1805 c-15 -20 -25 -37 -23 -39 2 -2 16 14 31 35 35 49 28 51 -8 4z"/><path d="M1729 1828 c11 -15 11 -21 0 -35 -12 -17 -12 -17 6 0 19 17 19 17 0 35 -18 16 -18 16 -6 0z"/><path d="M2575 1829 c-4 -6 -5 -12 -2 -15 2 -3 7 2 10 11 7 17 1 20 -8 4z"/><path d="M1455 1800 c-8 -16 -14 -44 -14 -62 1 -32 2 -32 8 7 4 22 13 50 19 63 7 12 10 22 8 22 -3 0 -12 -13 -21 -30z"/><path d="M3462 1815 c4 -6 12 -22 17 -36 6 -15 10 -18 10 -8 1 9 -7 25 -16 36 -10 10 -15 14 -11 8z"/><path d="M476 1793 c-6 -14 -5 -15 5 -6 7 7 10 15 7 18 -3 3 -9 -2 -12 -12z"/><path d="M4751 1794 c0 -11 3 -14 6 -6 3 7 2 16 -1 19 -3 4 -6 -2 -5 -13z"/><path d="M348 1793 c7 -3 16 -2 19 1 4 3 -2 6 -13 5 -11 0 -14 -3 -6 -6z"/><path d="M718 1793 c7 -3 16 -2 19 1 4 3 -2 6 -13 5 -11 0 -14 -3 -6 -6z"/><path d="M1136 1787 c3 -10 9 -15 12 -12 3 3 0 11 -7 18 -10 9 -11 8 -5 -6z"/><path d="M1598 1793 c7 -3 16 -2 19 1 4 3 -2 6 -13 5 -11 0 -14 -3 -6 -6z"/><path d="M6020 1768 c-11 -18 -20 -40 -20 -48 1 -8 7 0 16 19 8 19 19 41 26 48 6 7 8 13 4 13 -3 0 -15 -15 -26 -32z"/><path d="M6198 1793 c7 -3 16 -2 19 1 4 3 -2 6 -13 5 -11 0 -14 -3 -6 -6z"/><path d="M404 1775 c36 -19 45 -19 20 0 -10 8 -26 14 -34 15 -8 0 -2 -7 14 -15z"/><path d="M649 1763 l-24 -28 25 21 c14 12 32 24 40 27 13 5 13 6 -1 6 -8 1 -26 -11 -40 -26z"/><path d="M1538 1765 c-12 -27 -1 -48 36 -66 13 -7 10 -2 -8 13 -21 18 -27 29 -22 45 4 12 15 24 24 26 15 4 15 5 -1 6 -10 0 -22 -10 -29 -24z"/><path d="M1640 1783 c8 -3 24 -10 35 -15 20 -9 20 -9 1 6 -11 9 -27 16 -35 15 -14 0 -14 -1 -1 -6z"/><path d="M2928 1783 c29 -2 74 -2 100 0 26 2 2 3 -53 3 -55 0 -76 -1 -47 -3z"/><path d="M3358 1779 c19 -6 32 -16 33 -27 0 -13 2 -13 6 -3 7 18 -24 41 -51 40 -14 -1 -10 -4 12 -10z"/><path d="M6240 1783 c8 -3 22 -11 30 -17 13 -10 13 -9 1 7 -7 9 -21 17 -30 16 -13 0 -14 -1 -1 -6z"/><path d="M6466 1775 c-3 -9 -6 -22 -5 -28 0 -7 5 -1 10 12 5 13 8 26 5 28 -2 2 -6 -3 -10 -12z"/><path d="M6884 1720 l1 -65 53 -1 52 -1 -49 4 -50 4 -4 62 -3 62 0 -65z"/><path d="M6968 1783 c6 -2 18 -2 25 0 6 3 1 5 -13 5 -14 0 -19 -2 -12 -5z"/><path d="M7348 1783 c29 -2 74 -2 100 0 26 2 2 3 -53 3 -55 0 -76 -1 -47 -3z"/><path d="M278 1763 c-15 -18 -46 -73 -35 -63 9 8 57 80 53 80 -1 0 -10 -8 -18 -17z"/><path d="M780 1771 c0 -5 7 -12 16 -15 14 -5 15 -4 4 9 -14 17 -20 19 -20 6z"/><path d="M4670 1766 c0 -8 5 -18 10 -21 6 -3 10 1 10 9 0 8 -4 18 -10 21 -5 3 -10 -1 -10 -9z"/><path d="M6547 1773 c-4 -3 -7 -11 -7 -17 0 -6 5 -5 12 2 6 6 9 14 7 17 -3 3 -9 2 -12 -2z"/><path d="M7019 1763 c15 -30 14 -59 -4 -77 -8 -8 -15 -18 -15 -23 1 -4 10 3 20 16 24 28 26 60 4 87 -15 18 -15 18 -5 -3z"/><path d="M1160 1740 c6 -11 13 -20 16 -20 2 0 0 9 -6 20 -6 11 -13 20 -16 20 -2 0 0 -9 6 -20z"/><path d="M2418 1745 c5 -11 12 -27 15 -35 5 -13 6 -13 6 1 1 8 -6 24 -15 35 -15 19 -15 19 -6 -1z"/><path d="M4771 1734 c0 -11 3 -14 6 -6 3 7 2 16 -1 19 -3 4 -6 -2 -5 -13z"/><path d="M6106 1733 c-6 -14 -5 -15 5 -6 7 7 10 15 7 18 -3 3 -9 -2 -12 -12z"/><path d="M6562 1730 c0 -14 2 -19 5 -12 2 6 2 18 0 25 -3 6 -5 1 -5 -13z"/><path d="M6641 1745 c1 -19 18 -51 18 -35 0 8 -4 22 -9 30 -5 8 -9 11 -9 5z"/><path d="M1080 1713 c0 -18 2 -33 4 -33 9 0 13 39 5 51 -6 10 -9 4 -9 -18z"/><path d="M2601 1709 c-6 -18 -9 -34 -7 -36 2 -2 9 10 15 28 6 18 9 34 7 36 -2 2 -9 -10 -15 -28z"/><path d="M151 1714 c0 -11 3 -14 6 -6 3 7 2 16 -1 19 -3 4 -6 -2 -5 -13z"/><path d="M6446 1715 c-3 -9 -6 -22 -5 -28 0 -7 5 -1 10 12 5 13 8 26 5 28 -2 2 -6 -3 -10 -12z"/><path d="M6531 1714 c0 -11 3 -14 6 -6 3 7 2 16 -1 19 -3 4 -6 -2 -5 -13z"/><path d="M3390 1698 c0 -9 -6 -19 -12 -21 -10 -4 -10 -6 0 -6 14 -1 28 26 18 36 -3 4 -6 -1 -6 -9z"/><path d="M6091 1694 c0 -11 3 -14 6 -6 3 7 2 16 -1 19 -3 4 -6 -2 -5 -13z"/><path d="M923 1635 c0 -38 2 -53 4 -32 2 20 2 52 0 70 -2 17 -4 1 -4 -38z"/><path d="M1100 1696 c0 -11 30 -66 36 -66 2 0 -3 15 -12 33 -19 36 -24 44 -24 33z"/><path d="M1450 1694 c0 -6 7 -19 15 -30 8 -10 14 -14 14 -9 0 6 -6 19 -14 29 -8 11 -15 15 -15 10z"/><path d="M2360 1558 l0 -147 -42 -4 -43 -4 48 -1 47 -2 0 133 c0 95 3 128 11 117 8 -11 9 -9 4 10 -18 64 -25 35 -25 -102z"/><path d="M3478 1677 c-3 -19 -2 -25 4 -19 6 6 8 18 6 28 -3 14 -5 12 -10 -9z"/><path d="M4651 1684 c0 -11 3 -14 6 -6 3 7 2 16 -1 19 -3 4 -6 -2 -5 -13z"/><path d="M513 1635 c0 -27 2 -38 4 -22 2 15 2 37 0 50 -2 12 -4 0 -4 -28z"/><path d="M833 1640 c0 -25 2 -35 4 -22 2 12 2 32 0 45 -2 12 -4 2 -4 -23z"/><path d="M1200 1674 c0 -6 7 -19 16 -30 14 -18 14 -18 3 6 -14 31 -19 36 -19 24z"/><path d="M1630 1676 c0 -2 7 -7 16 -10 8 -3 12 -2 9 4 -6 10 -25 14 -25 6z"/><path d="M2447 1659 c4 -13 8 -18 11 -10 2 7 -1 18 -6 23 -8 8 -9 4 -5 -13z"/><path d="M3040 1646 c0 -30 -4 -35 -27 -39 -26 -4 -26 -4 5 -6 31 -1 32 0 32 39 0 22 -2 40 -5 40 -3 0 -5 -15 -5 -34z"/><path d="M4420 1645 l0 -35 -80 0 -80 0 0 -64 0 -65 100 -3 c55 -2 100 0 100 5 0 4 -43 7 -95 7 l-95 0 0 55 0 55 80 0 80 0 0 40 c0 22 -2 40 -5 40 -3 0 -5 -16 -5 -35z"/><path d="M4561 1664 c0 -11 3 -14 6 -6 3 7 2 16 -1 19 -3 4 -6 -2 -5 -13z"/><path d="M5993 1635 c0 -27 2 -38 4 -22 2 15 2 37 0 50 -2 12 -4 0 -4 -28z"/><path d="M233 1635 c0 -22 2 -30 4 -17 2 12 2 30 0 40 -3 9 -5 -1 -4 -23z"/><path d="M6083 1635 c0 -22 2 -30 4 -17 2 12 2 30 0 40 -3 9 -5 -1 -4 -23z"/><path d="M1671 1657 c2 -2 18 -11 34 -21 l30 -17 -24 20 c-13 12 -28 21 -34 21 -6 0 -8 -1 -6 -3z"/><path d="M2497 1613 c-9 -25 -16 -48 -14 -50 2 -2 12 17 22 42 9 26 15 48 13 50 -2 2 -12 -17 -21 -42z"/><path d="M3273 1653 c15 -2 39 -2 55 0 15 2 2 4 -28 4 -30 0 -43 -2 -27 -4z"/><path d="M1509 1631 c13 -12 28 -21 34 -21 12 0 11 0 -28 24 l-30 17 24 -20z"/><path d="M7071 1620 c-32 -28 -34 -31 -21 -55 7 -14 16 -23 19 -20 2 3 -1 11 -7 17 -18 18 -14 33 12 48 14 7 27 19 30 26 7 18 7 18 -33 -16z"/><path d="M6591 1624 c0 -11 3 -14 6 -6 3 7 2 16 -1 19 -3 4 -6 -2 -5 -13z"/><path d="M2566 1615 c-9 -26 -7 -32 5 -12 6 10 9 21 6 23 -2 3 -7 -2 -11 -11z"/><path d="M3434 1614 c-18 -14 -18 -15 4 -4 12 6 22 13 22 15 0 8 -5 6 -26 -11z"/><path d="M6501 1614 c0 -11 3 -14 6 -6 3 7 2 16 -1 19 -3 4 -6 -2 -5 -13z"/><path d="M1160 1580 c11 -22 23 -40 25 -40 3 0 -4 18 -15 40 -11 22 -23 40 -25 40 -3 0 4 -18 15 -40z"/><path d="M4541 1604 c0 -11 3 -14 6 -6 3 7 2 16 -1 19 -3 4 -6 -2 -5 -13z"/><path d="M4811 1615 c1 -19 18 -51 18 -35 0 8 -4 22 -9 30 -5 8 -9 11 -9 5z"/><path d="M1746 1585 c8 -37 14 -45 14 -19 0 10 -5 26 -10 34 -8 11 -9 7 -4 -15z"/><path d="M2903 1603 c15 -2 39 -2 55 0 15 2 2 4 -28 4 -30 0 -43 -2 -27 -4z"/><path d="M3843 1603 c26 -2 68 -2 95 0 26 2 4 3 -48 3 -52 0 -74 -1 -47 -3z"/><path d="M7338 1603 c23 -2 61 -2 85 0 23 2 4 4 -43 4 -47 0 -66 -2 -42 -4z"/><path d="M3400 1591 c0 -6 4 -13 10 -16 6 -3 7 1 4 9 -7 18 -14 21 -14 7z"/><path d="M521 1564 c0 -11 3 -14 6 -6 3 7 2 16 -1 19 -3 4 -6 -2 -5 -13z"/><path d="M1266 1563 c-4 -9 -2 -21 4 -27 7 -7 10 -2 10 17 0 31 -5 34 -14 10z"/><path d="M1637 1569 c7 -7 15 -10 18 -7 3 3 -2 9 -12 12 -14 6 -15 5 -6 -5z"/><path d="M3320 1560 c6 -11 13 -20 16 -20 2 0 0 9 -6 20 -6 11 -13 20 -16 20 -2 0 0 -9 6 -20z"/><path d="M4521 1549 c-6 -18 -11 -37 -10 -43 0 -6 7 7 15 28 8 22 12 41 10 43 -2 2 -9 -10 -15 -28z"/><path d="M6091 1564 c0 -11 3 -14 6 -6 3 7 2 16 -1 19 -3 4 -6 -2 -5 -13z"/><path d="M6396 1565 c-3 -9 -6 -22 -5 -28 0 -7 5 -1 10 12 5 13 8 26 5 28 -2 2 -6 -3 -10 -12z"/><path d="M1922 1550 c0 -14 2 -19 5 -12 2 6 2 18 0 25 -3 6 -5 1 -5 -13z"/><path d="M6701 1560 c0 -8 4 -22 9 -30 12 -18 12 -2 0 25 -6 13 -9 15 -9 5z"/><path d="M6950 1563 c0 -6 8 -17 18 -24 16 -13 16 -13 2 6 -8 11 -16 22 -17 24 -2 2 -3 0 -3 -6z"/><path d="M3430 1540 c6 -11 13 -20 16 -20 2 0 0 9 -6 20 -6 11 -13 20 -16 20 -2 0 0 -9 6 -20z"/><path d="M6000 1541 c0 -11 4 -22 9 -25 4 -3 6 6 3 19 -5 30 -12 33 -12 6z"/><path d="M256 1537 c3 -10 9 -15 12 -12 3 3 0 11 -7 18 -10 9 -11 8 -5 -6z"/><path d="M1661 1528 c0 -15 -9 -32 -18 -37 -10 -6 -13 -11 -7 -11 19 0 36 28 31 52 -4 21 -4 20 -6 -4z"/><path d="M1832 1530 c0 -14 2 -19 5 -12 2 6 2 18 0 25 -3 6 -5 1 -5 -13z"/><path d="M2076 1535 c-9 -26 -7 -32 5 -12 6 10 9 21 6 23 -2 3 -7 -2 -11 -11z"/><path d="M6105 1527 c8 -19 54 -51 63 -43 3 3 1 6 -5 6 -6 0 -22 12 -37 27 -15 14 -24 19 -21 10z"/><path d="M161 1525 c0 -5 6 -21 14 -35 8 -14 14 -20 14 -15 0 6 -6 21 -14 35 -8 14 -14 21 -14 15z"/><path d="M652 1505 c15 -16 29 -27 31 -24 3 2 -10 15 -27 28 l-31 24 27 -28z"/><path d="M890 1500 c-7 -17 -26 -42 -42 -55 -16 -14 -26 -25 -21 -25 21 0 92 95 80 106 -2 3 -10 -9 -17 -26z"/><path d="M1445 1500 c-28 -30 -29 -31 -10 -48 18 -16 18 -16 5 2 -13 16 -11 21 18 47 18 16 29 29 24 29 -5 0 -21 -14 -37 -30z"/><path d="M2528 1515 c-3 -11 -9 -29 -13 -40 -3 -11 1 -7 10 8 9 16 15 33 12 40 -2 6 -6 3 -9 -8z"/><path d="M3340 1524 c0 -6 7 -19 16 -30 14 -18 14 -18 3 6 -14 31 -19 36 -19 24z"/><path d="M4600 1513 c0 -14 2 -15 9 -5 6 10 28 13 79 10 38 -1 68 0 65 5 -2 4 -38 7 -79 7 -64 0 -74 -2 -74 -17z"/><path d="M6469 1504 c-5 -15 -7 -29 -5 -32 3 -2 8 8 12 23 6 26 7 26 80 23 41 -2 74 0 74 5 0 4 -34 7 -75 7 -72 0 -76 -1 -86 -26z"/><path d="M7080 1512 c6 -13 14 -21 18 -18 3 4 -2 14 -12 24 -18 16 -18 16 -6 -6z"/><path d="M433 1513 c-7 -2 -13 -9 -13 -15 0 -6 6 -5 15 2 13 11 20 9 43 -11 l27 -24 -24 28 c-25 28 -27 29 -48 20z"/><path d="M1936 1507 c3 -10 9 -15 12 -12 3 3 0 11 -7 18 -10 9 -11 8 -5 -6z"/><path d="M6280 1509 c-12 -8 -11 -9 6 -4 16 4 28 -1 43 -21 12 -15 21 -22 21 -17 0 9 -42 53 -51 53 -2 0 -11 -5 -19 -11z"/><path d="M6980 1511 c0 -6 4 -13 10 -16 6 -3 7 1 4 9 -7 18 -14 21 -14 7z"/><path d="M540 1504 c0 -5 14 -25 31 -44 l30 -35 -27 40 c-16 22 -29 42 -31 44 -2 2 -3 0 -3 -5z"/><path d="M780 1499 c0 -5 5 -7 10 -4 6 3 10 8 10 11 0 2 -4 4 -10 4 -5 0 -10 -5 -10 -11z"/><path d="M1747 1491 c-4 -17 -3 -21 5 -13 5 5 8 16 6 23 -3 8 -7 3 -11 -10z"/><path d="M6721 1494 c0 -11 3 -14 6 -6 3 7 2 16 -1 19 -3 4 -6 -2 -5 -13z"/><path d="M1528 1488 c5 -5 16 -8 23 -6 8 3 3 7 -10 11 -17 4 -21 3 -13 -5z"/><path d="M6027 1485 c12 -22 62 -71 65 -64 2 2 -15 22 -36 44 -22 22 -34 31 -29 20z"/><path d="M6631 1484 c0 -11 3 -14 6 -6 3 7 2 16 -1 19 -3 4 -6 -2 -5 -13z"/><path d="M2005 1480 c-28 -7 -28 -8 -5 -9 14 0 32 4 40 9 17 11 8 11 -35 0z"/><path d="M2928 1483 c28 -2 76 -2 105 0 28 2 5 3 -53 3 -58 0 -81 -1 -52 -3z"/><path d="M3479 1454 c12 -19 21 -37 21 -40 0 -2 -20 -4 -44 -4 -33 0 -47 5 -61 23 -17 22 -17 22 -2 -3 12 -21 23 -26 66 -28 29 -2 51 1 51 7 0 12 -40 81 -47 81 -3 0 4 -16 16 -36z"/><path d="M4761 1474 c0 -11 3 -14 6 -6 3 7 2 16 -1 19 -3 4 -6 -2 -5 -13z"/><path d="M7393 1483 l97 -4 0 -34 0 -34 -142 -4 -143 -3 148 -2 147 -2 0 45 0 45 -102 -2 -103 -2 98 -3z"/><path d="M343 1473 c9 -2 23 -2 30 0 6 3 -1 5 -18 5 -16 0 -22 -2 -12 -5z"/><path d="M708 1473 c6 -2 18 -2 25 0 6 3 1 5 -13 5 -14 0 -19 -2 -12 -5z"/><path d="M1583 1473 c9 -2 23 -2 30 0 6 3 -1 5 -18 5 -16 0 -22 -2 -12 -5z"/><path d="M1850 1473 c0 -5 12 -20 28 -34 l27 -24 -25 30 c-14 17 -26 32 -27 34 -2 2 -3 0 -3 -6z"/><path d="M2130 1448 c-15 -21 -17 -28 -6 -19 16 13 41 51 33 51 -2 0 -14 -15 -27 -32z"/><path d="M6193 1473 c9 -2 23 -2 30 0 6 3 -1 5 -18 5 -16 0 -22 -2 -12 -5z"/><path d="M7000 1478 c0 -4 9 -23 21 -42 20 -35 23 -36 77 -34 l57 2 -55 3 c-51 4 -56 6 -77 41 -12 20 -22 34 -23 30z"/><path d="M7106 1467 c3 -10 9 -15 12 -12 3 3 0 11 -7 18 -10 9 -11 8 -5 -6z"/><path d="M200 1456 c0 -2 8 -10 18 -17 15 -13 16 -12 3 4 -13 16 -21 21 -21 13z"/><path d="M479 1443 c-13 -16 -12 -17 4 -4 9 7 17 15 17 17 0 8 -8 3 -21 -13z"/><path d="M1714 1438 l-19 -23 23 19 c21 18 27 26 19 26 -2 0 -12 -10 -23 -22z"/><path d="M4581 1444 c0 -11 3 -14 6 -6 3 7 2 16 -1 19 -3 4 -6 -2 -5 -13z"/><path d="M2473 1443 c9 -2 23 -2 30 0 6 3 -1 5 -18 5 -16 0 -22 -2 -12 -5z"/><path d="M6451 1434 c0 -11 3 -14 6 -6 3 7 2 16 -1 19 -3 4 -6 -2 -5 -13z"/><path d="M4870 1424 c0 -13 -9 -15 -45 -12 -25 2 -45 0 -45 -4 0 -5 23 -8 50 -8 43 0 50 3 50 20 0 11 -2 20 -5 20 -3 0 -5 -7 -5 -16z"/><path d="M6305 1430 c-3 -5 -1 -10 4 -10 6 0 11 5 11 10 0 6 -2 10 -4 10 -3 0 -8 -4 -11 -10z"/><path d="M6744 1428 c5 -15 -1 -18 -38 -18 -25 0 -47 5 -49 10 -3 6 -4 5 -3 -2 3 -14 106 -25 106 -11 0 4 -5 15 -11 23 -9 13 -10 12 -5 -2z"/><path d="M420 1410 c-9 -6 -10 -10 -3 -10 6 0 15 5 18 10 8 12 4 12 -15 0z"/><path d="M790 1410 c-9 -6 -10 -10 -3 -10 6 0 15 5 18 10 8 12 4 12 -15 0z"/><path d="M1500 1410 c8 -5 20 -10 25 -10 6 0 3 5 -5 10 -8 5 -19 10 -25 10 -5 0 -3 -5 5 -10z"/><path d="M4480 1408 c0 -5 23 -8 50 -8 28 0 50 3 50 8 0 4 -22 7 -50 7 -27 0 -50 -3 -50 -7z"/><path d="M6117 1410 c8 -8 39 -15 75 -16 l63 -3 -61 8 c-33 4 -67 11 -75 16 -11 6 -12 5 -2 -5z"/><path d="M6350 1408 c0 -4 24 -7 53 -7 54 1 49 5 -15 11 -21 2 -38 0 -38 -4z"/><path d="M292 1399 c7 -5 36 -8 63 -8 60 1 50 6 -23 12 -32 2 -48 1 -40 -4z"/><path d="M662 1399 c7 -5 36 -8 63 -8 60 1 50 6 -23 12 -32 2 -48 1 -40 -4z"/><path d="M1943 1398 c7 -4 35 -8 62 -8 28 0 55 4 62 8 6 4 -22 7 -62 7 -40 0 -68 -3 -62 -7z"/><path d="M2628 1403 c12 -2 32 -2 45 0 12 2 2 4 -23 4 -25 0 -35 -2 -22 -4z"/><path d="M4992 1403 c37 -2 100 -2 140 0 40 1 10 3 -67 3 -77 0 -110 -1 -73 -3z"/><path d="M1563 1393 c15 -2 39 -2 55 0 15 2 2 4 -28 4 -30 0 -43 -2 -27 -4z"/><path d="M1480 650 c-18 -12 -2 -12 25 0 13 6 15 9 5 9 -8 0 -22 -4 -30 -9z"/><path d="M1390 620 c-18 -12 -2 -12 25 0 13 6 15 9 5 9 -8 0 -22 -4 -30 -9z"/><path d="M1330 600 c-18 -12 -2 -12 25 0 13 6 15 9 5 9 -8 0 -22 -4 -30 -9z"/><path d="M1270 580 c-18 -12 -2 -12 25 0 13 6 15 9 5 9 -8 0 -22 -4 -30 -9z"/><path d="M1145 535 c-25 -12 -26 -14 -5 -9 28 7 60 23 45 23 -5 0 -23 -6 -40 -14z"/><path d="M1588 513 c7 -3 16 -2 19 1 4 3 -2 6 -13 5 -11 0 -14 -3 -6 -6z"/><path d="M1050 500 c-8 -5 -10 -10 -5 -10 6 0 17 5 25 10 8 5 11 10 5 10 -5 0 -17 -5 -25 -10z"/><path d="M1508 493 c7 -3 16 -2 19 1 4 3 -2 6 -13 5 -11 0 -14 -3 -6 -6z"/><path d="M984 474 c-19 -15 -19 -15 1 -6 11 5 27 12 35 15 13 5 13 6 -1 6 -8 1 -24 -6 -35 -15z"/><path d="M1398 463 c7 -3 16 -2 19 1 4 3 -2 6 -13 5 -11 0 -14 -3 -6 -6z"/><path d="M920 450 c-8 -5 -10 -10 -5 -10 6 0 17 5 25 10 8 5 11 10 5 10 -5 0 -17 -5 -25 -10z"/><path d="M1318 443 c6 -2 18 -2 25 0 6 3 1 5 -13 5 -14 0 -19 -2 -12 -5z"/><path d="M860 425 c-14 -8 -20 -14 -15 -14 6 0 21 6 35 14 14 8 21 14 15 14 -5 0 -21 -6 -35 -14z"/><path d="M1158 393 c7 -3 16 -2 19 1 4 3 -2 6 -13 5 -11 0 -14 -3 -6 -6z"/><path d="M723 370 c-24 -11 -43 -21 -43 -24 0 -5 91 31 99 40 9 9 -16 2 -56 -16z"/><path d="M998 343 c7 -3 16 -2 19 1 4 3 -2 6 -13 5 -11 0 -14 -3 -6 -6z"/><path d="M636 331 c-4 -5 3 -7 14 -4 23 6 26 13 6 13 -8 0 -17 -4 -20 -9z"/><path d="M938 323 c7 -3 16 -2 19 1 4 3 -2 6 -13 5 -11 0 -14 -3 -6 -6z"/><path d="M595 310 c-3 -6 1 -7 9 -4 18 7 21 14 7 14 -6 0 -13 -4 -16 -10z"/><path d="M865 300 c-13 -6 -15 -9 -5 -9 8 0 22 4 30 9 18 12 2 12 -25 0z"/><path d="M550 290 c-8 -5 -10 -10 -5 -10 6 0 17 5 25 10 8 5 11 10 5 10 -5 0 -17 -5 -25 -10z"/><path d="M805 280 c-13 -6 -15 -9 -5 -9 8 0 22 4 30 9 18 12 2 12 -25 0z"/><path d="M485 260 c-3 -6 1 -7 9 -4 18 7 21 14 7 14 -6 0 -13 -4 -16 -10z"/><path d="M725 250 c-13 -6 -15 -9 -5 -9 8 0 22 4 30 9 18 12 2 12 -25 0z"/><path d="M425 230 c-3 -6 1 -7 9 -4 18 7 21 14 7 14 -6 0 -13 -4 -16 -10z"/><path d="M358 199 c-21 -11 -38 -22 -38 -24 0 -5 79 32 89 41 12 11 -18 1 -51 -17z"/><path d="M620 210 c-8 -5 -10 -10 -5 -10 6 0 17 5 25 10 8 5 11 10 5 10 -5 0 -17 -5 -25 -10z"/><path d="M7220 216 c0 -2 7 -7 16 -10 8 -3 12 -2 9 4 -6 10 -25 14 -25 6z"/><path d="M545 180 c-16 -7 -17 -9 -3 -9 9 -1 20 4 23 9 7 11 7 11 -20 0z"/><path d="M258 149 c-21 -11 -38 -22 -38 -24 0 -5 79 32 89 41 12 11 -18 1 -51 -17z"/><path d="M7320 166 c0 -2 7 -7 16 -10 8 -3 12 -2 9 4 -6 10 -25 14 -25 6z"/><path d="M420 130 c-8 -5 -10 -10 -5 -10 6 0 17 5 25 10 8 5 11 10 5 10 -5 0 -17 -5 -25 -10z"/><path d="M185 110 c-3 -6 1 -7 9 -4 18 7 21 14 7 14 -6 0 -13 -4 -16 -10z"/><path d="M375 110 c-16 -7 -17 -9 -3 -9 9 -1 20 4 23 9 7 11 7 11 -20 0z"/><path d="M145 90 c-3 -6 1 -7 9 -4 18 7 21 14 7 14 -6 0 -13 -4 -16 -10z"/><path d="M330 90 c-9 -6 -10 -10 -3 -10 6 0 15 5 18 10 8 12 4 12 -15 0z"/><path d="M7487 80 c6 -8 13 -31 16 -50 l4 -35 1 36 c1 24 -4 41 -15 50 -16 12 -16 12 -6 -1z"/><path d="M270 65 c-14 -8 -20 -14 -15 -14 6 0 21 6 35 14 14 8 21 14 15 14 -5 0 -21 -6 -35 -14z"/><path d="M7347 59 c7 -7 15 -10 18 -7 3 3 -2 9 -12 12 -14 6 -15 5 -6 -5z"/><path d="M190 30 c-8 -5 -10 -10 -5 -10 6 0 17 5 25 10 8 5 11 10 5 10 -5 0 -17 -5 -25 -10z"/><path d="M150 10 c-9 -6 -10 -10 -3 -10 6 0 15 5 18 10 8 12 4 12 -15 0z"/></g><g transform="translate(0.000000,393.000000) scale(0.100000,-0.100000)" fill="#0672B2" stroke="none"><path d="M2864 3470 c0 -190 2 -267 3 -172 2 94 2 250 0 345 -1 94 -3 17 -3 -173z"/><path d="M147 3793 c24 -2 62 -2 85 0 24 2 5 4 -42 4 -47 0 -66 -2 -43 -4z"/><path d="M668 3793 c12 -2 30 -2 40 0 9 3 -1 5 -23 4 -22 0 -30 -2 -17 -4z"/><path d="M3948 3793 c7 -3 16 -2 19 1 4 3 -2 6 -13 5 -11 0 -14 -3 -6 -6z"/><path d="M9 3773 c-13 -16 -12 -17 4 -4 9 7 17 15 17 17 0 8 -8 3 -21 -13z"/><path d="M7 3729 c7 -7 15 -10 18 -7 3 3 -2 9 -12 12 -14 6 -15 5 -6 -5z"/><path d="M453 3723 c9 -2 25 -2 35 0 9 3 1 5 -18 5 -19 0 -27 -2 -17 -5z"/><path d="M593 3723 c9 -2 23 -2 30 0 6 3 -1 5 -18 5 -16 0 -22 -2 -12 -5z"/><path d="M78 3713 c7 -3 16 -2 19 1 4 3 -2 6 -13 5 -11 0 -14 -3 -6 -6z"/><path d="M4102 3675 c0 -16 2 -22 5 -12 2 9 2 23 0 30 -3 6 -5 -1 -5 -18z"/><path d="M1010 3687 c0 -2 15 -16 33 -33 l32 -29 -29 33 c-28 30 -36 37 -36 29z"/><path d="M2685 2955 c0 -396 1 -557 2 -357 2 200 2 524 0 720 -1 196 -2 33 -2 -363z"/><path d="M181 3624 c0 -11 3 -14 6 -6 3 7 2 16 -1 19 -3 4 -6 -2 -5 -13z"/><path d="M825 3620 c10 -11 20 -20 23 -20 3 0 -3 9 -13 20 -10 11 -20 20 -23 20 -3 0 3 -9 13 -20z"/><path d="M195 2865 c0 -346 1 -487 2 -312 2 175 2 459 0 630 -1 172 -2 29 -2 -318z"/><path d="M1132 3455 c0 -16 2 -22 5 -12 2 9 2 23 0 30 -3 6 -5 -1 -5 -18z"/><path d="M911 3454 c0 -11 3 -14 6 -6 3 7 2 16 -1 19 -3 4 -6 -2 -5 -13z"/><path d="M1132 3340 c0 -14 2 -19 5 -12 2 6 2 18 0 25 -3 6 -5 1 -5 -13z"/><path d="M911 3264 c0 -11 3 -14 6 -6 3 7 2 16 -1 19 -3 4 -6 -2 -5 -13z"/><path d="M6797 3223 c6 -5 14 -31 16 -58 l4 -50 -1 54 c-1 39 -5 56 -16 58 -10 3 -11 2 -3 -4z"/><path d="M2198 3203 c17 -2 47 -2 65 0 17 2 3 4 -33 4 -36 0 -50 -2 -32 -4z"/><path d="M4093 3175 c0 -22 2 -30 4 -17 2 12 2 30 0 40 -3 9 -5 -1 -4 -23z"/><path d="M3133 3193 c15 -2 39 -2 55 0 15 2 2 4 -28 4 -30 0 -43 -2 -27 -4z"/><path d="M4878 3193 c18 -2 45 -2 60 0 15 2 0 4 -33 4 -33 0 -45 -2 -27 -4z"/><path d="M5818 3193 c18 -2 45 -2 60 0 15 2 0 4 -33 4 -33 0 -45 -2 -27 -4z"/><path d="M7158 3193 c12 -2 32 -2 45 0 12 2 2 4 -23 4 -25 0 -35 -2 -22 -4z"/><path d="M2323 3155 c0 -22 2 -30 4 -17 2 12 2 30 0 40 -3 9 -5 -1 -4 -23z"/><path d="M3048 3183 c6 -2 18 -2 25 0 6 3 1 5 -13 5 -14 0 -19 -2 -12 -5z"/><path d="M3258 3183 c7 -3 16 -2 19 1 4 3 -2 6 -13 5 -11 0 -14 -3 -6 -6z"/><path d="M4778 3183 c7 -3 16 -2 19 1 4 3 -2 6 -13 5 -11 0 -14 -3 -6 -6z"/><path d="M5008 3183 c6 -2 18 -2 25 0 6 3 1 5 -13 5 -14 0 -19 -2 -12 -5z"/><path d="M5728 3183 c7 -3 16 -2 19 1 4 3 -2 6 -13 5 -11 0 -14 -3 -6 -6z"/><path d="M5948 3183 c7 -3 16 -2 19 1 4 3 -2 6 -13 5 -11 0 -14 -3 -6 -6z"/><path d="M7088 3183 c7 -3 16 -2 19 1 4 3 -2 6 -13 5 -11 0 -14 -3 -6 -6z"/><path d="M7258 3183 c7 -3 16 -2 19 1 4 3 -2 6 -13 5 -11 0 -14 -3 -6 -6z"/><path d="M7925 3170 c10 -11 20 -20 23 -20 3 0 -3 9 -13 20 -10 11 -20 20 -23 20 -3 0 3 -9 13 -20z"/><path d="M7940 3186 c0 -2 8 -10 18 -17 15 -13 16 -12 3 4 -13 16 -21 21 -21 13z"/><path d="M1406 3152 c-2 -4 12 -6 32 -4 56 5 62 10 15 11 -23 1 -44 -3 -47 -7z"/><path d="M2920 3140 c-9 -6 -10 -10 -3 -10 6 0 15 5 18 10 8 12 4 12 -15 0z"/><path d="M7370 3125 c13 -14 26 -25 28 -25 3 0 -5 11 -18 25 -13 14 -26 25 -28 25 -3 0 5 -11 18 -25z"/><path d="M7976 3137 c3 -10 9 -15 12 -12 3 3 0 11 -7 18 -10 9 -11 8 -5 -6z"/><path d="M1019 3113 l-24 -28 28 24 c25 23 32 31 24 31 -2 0 -14 -12 -28 -27z"/><path d="M7798 3133 c12 -2 32 -2 45 0 12 2 2 4 -23 4 -25 0 -35 -2 -22 -4z"/><path d="M5803 3123 c9 -2 25 -2 35 0 9 3 1 5 -18 5 -19 0 -27 -2 -17 -5z"/><path d="M4803 3113 c15 -2 39 -2 55 0 15 2 2 4 -28 4 -30 0 -43 -2 -27 -4z"/><path d="M6555 3110 c-3 -6 1 -7 9 -4 18 7 21 14 7 14 -6 0 -13 -4 -16 -10z"/><path d="M829 3093 c-13 -16 -12 -17 4 -4 9 7 17 15 17 17 0 8 -8 3 -21 -13z"/><path d="M4549 3093 c-13 -16 -12 -17 4 -4 9 7 17 15 17 17 0 8 -8 3 -21 -13z"/><path d="M7811 3088 c-1 -21 4 -28 17 -28 11 0 13 3 6 8 -7 4 -14 16 -17 27 -4 15 -5 14 -6 -7z"/><path d="M7846 3097 c3 -10 9 -15 12 -12 3 3 0 11 -7 18 -10 9 -11 8 -5 -6z"/><path d="M3033 3093 c9 -2 25 -2 35 0 9 3 1 5 -18 5 -19 0 -27 -2 -17 -5z"/><path d="M3470 3075 c13 -14 26 -25 28 -25 3 0 -5 11 -18 25 -13 14 -26 25 -28 25 -3 0 5 -11 18 -25z"/><path d="M5153 3065 c0 -22 2 -30 4 -17 2 12 2 30 0 40 -3 9 -5 -1 -4 -23z"/><path d="M5485 3048 l-40 -43 43 40 c39 36 47 45 39 45 -2 0 -21 -19 -42 -42z"/><path d="M5659 3063 l-24 -28 28 24 c15 14 27 26 27 28 0 8 -8 1 -31 -24z"/><path d="M6160 3087 c0 -2 15 -16 33 -33 l32 -29 -29 33 c-28 30 -36 37 -36 29z"/><path d="M7662 3060 c0 -19 2 -27 5 -17 2 9 2 25 0 35 -3 9 -5 1 -5 -18z"/><path d="M7682 3065 c0 -16 2 -22 5 -12 2 9 2 23 0 30 -3 6 -5 -1 -5 -18z"/><path d="M4504 3058 l-19 -23 23 19 c12 11 22 21 22 23 0 8 -8 2 -26 -19z"/><path d="M6550 3076 c0 -2 8 -10 18 -17 15 -13 16 -12 3 4 -13 16 -21 21 -21 13z"/><path d="M4615 3028 l-40 -43 43 40 c39 36 47 45 39 45 -2 0 -21 -19 -42 -42z"/><path d="M5995 3050 c10 -11 20 -20 23 -20 3 0 -3 9 -13 20 -10 11 -20 20 -23 20 -3 0 3 -9 13 -20z"/><path d="M3285 3000 c21 -22 41 -40 44 -40 3 0 -13 18 -34 40 -21 22 -41 40 -44 40 -3 0 13 -18 34 -40z"/><path d="M6600 3036 c0 -2 8 -10 18 -17 15 -13 16 -12 3 4 -13 16 -21 21 -21 13z"/><path d="M7210 3036 c0 -2 8 -10 18 -17 15 -13 16 -12 3 4 -13 16 -21 21 -21 13z"/><path d="M7811 3013 c-1 -21 -7 -33 -18 -36 -17 -4 -17 -5 0 -6 21 -1 30 18 24 51 -3 18 -5 16 -6 -9z"/><path d="M397 3019 c7 -7 15 -10 18 -7 3 3 -2 9 -12 12 -14 6 -15 5 -6 -5z"/><path d="M5030 3026 c0 -2 8 -10 18 -17 15 -13 16 -12 3 4 -13 16 -21 21 -21 13z"/><path d="M658 3013 c7 -3 16 -2 19 1 4 3 -2 6 -13 5 -11 0 -14 -3 -6 -6z"/><path d="M4085 2630 c0 -217 1 -306 2 -197 2 108 2 286 0 395 -1 108 -2 19 -2 -198z"/><path d="M4444 2998 l-19 -23 23 19 c21 18 27 26 19 26 -2 0 -12 -10 -23 -22z"/><path d="M543 3003 c9 -2 23 -2 30 0 6 3 -1 5 -18 5 -16 0 -22 -2 -12 -5z"/><path d="M1504 2730 c0 -157 2 -221 3 -142 2 78 2 206 0 285 -1 78 -3 14 -3 -143z"/><path d="M2864 2735 c0 -154 2 -216 3 -137 2 79 2 205 0 280 -1 75 -3 11 -3 -143z"/><path d="M7441 2994 c0 -11 3 -14 6 -6 3 7 2 16 -1 19 -3 4 -6 -2 -5 -13z"/><path d="M7246 2987 c3 -10 9 -15 12 -12 3 3 0 11 -7 18 -10 9 -11 8 -5 -6z"/><path d="M7875 2980 c-16 -7 -17 -9 -3 -9 9 -1 20 4 23 9 7 11 7 11 -20 0z"/><path d="M7929 2953 c-13 -16 -12 -17 4 -4 9 7 17 15 17 17 0 8 -8 3 -21 -13z"/><path d="M6645 2590 c0 -201 1 -283 2 -183 2 101 2 265 0 366 -1 100 -2 18 -2 -183z"/><path d="M448 2933 c17 -2 47 -2 65 0 17 2 3 4 -33 4 -36 0 -50 -2 -32 -4z"/><path d="M7455 2590 c0 -195 1 -275 2 -178 2 98 2 258 0 355 -1 98 -2 18 -2 -177z"/><path d="M7271 2914 c0 -11 3 -14 6 -6 3 7 2 16 -1 19 -3 4 -6 -2 -5 -13z"/><path d="M610 2916 c0 -2 8 -10 18 -17 15 -13 16 -12 3 4 -13 16 -21 21 -21 13z"/><path d="M7808 2913 c12 -2 32 -2 45 0 12 2 2 4 -23 4 -25 0 -35 -2 -22 -4z"/><path d="M7808 2893 c12 -2 32 -2 45 0 12 2 2 4 -23 4 -25 0 -35 -2 -22 -4z"/><path d="M6814 2555 c0 -181 2 -257 3 -168 2 89 2 237 0 330 -1 92 -3 20 -3 -162z"/><path d="M5351 2804 c0 -11 3 -14 6 -6 3 7 2 16 -1 19 -3 4 -6 -2 -5 -13z"/><path d="M6111 2804 c0 -11 3 -14 6 -6 3 7 2 16 -1 19 -3 4 -6 -2 -5 -13z"/><path d="M6322 2785 c0 -16 2 -22 5 -12 2 9 2 23 0 30 -3 6 -5 -1 -5 -18z"/><path d="M3402 2770 c0 -14 2 -19 5 -12 2 6 2 18 0 25 -3 6 -5 1 -5 -13z"/><path d="M4503 2735 c0 -27 2 -38 4 -22 2 15 2 37 0 50 -2 12 -4 0 -4 -28z"/><path d="M5543 2710 c0 -30 2 -43 4 -27 2 15 2 39 0 55 -2 15 -4 2 -4 -28z"/><path d="M5343 2680 c0 -41 2 -58 4 -37 2 20 2 54 0 75 -2 20 -4 3 -4 -38z"/><path d="M6122 2725 c0 -16 2 -22 5 -12 2 9 2 23 0 30 -3 6 -5 -1 -5 -18z"/><path d="M4333 2665 c0 -33 2 -45 4 -27 2 18 2 45 0 60 -2 15 -4 0 -4 -33z"/><path d="M3412 2660 c0 -14 2 -19 5 -12 2 6 2 18 0 25 -3 6 -5 1 -5 -13z"/><path d="M6322 2620 c0 -14 2 -19 5 -12 2 6 2 18 0 25 -3 6 -5 1 -5 -13z"/><path d="M6122 2605 c0 -16 2 -22 5 -12 2 9 2 23 0 30 -3 6 -5 -1 -5 -18z"/><path d="M5351 2564 c0 -11 3 -14 6 -6 3 7 2 16 -1 19 -3 4 -6 -2 -5 -13z"/><path d="M3402 2550 c0 -14 2 -19 5 -12 2 6 2 18 0 25 -3 6 -5 1 -5 -13z"/><path d="M6111 2534 c0 -11 3 -14 6 -6 3 7 2 16 -1 19 -3 4 -6 -2 -5 -13z"/><path d="M1681 2514 c0 -11 3 -14 6 -6 3 7 2 16 -1 19 -3 4 -6 -2 -5 -13z"/><path d="M4620 2435 c19 -19 36 -35 39 -35 3 0 -10 16 -29 35 -19 19 -36 35 -39 35 -3 0 10 -16 29 -35z"/><path d="M5139 2453 c-13 -16 -12 -17 4 -4 16 13 21 21 13 21 -2 0 -10 -8 -17 -17z"/><path d="M2089 2373 l-24 -28 28 24 c25 23 32 31 24 31 -2 0 -14 -12 -28 -27z"/><path d="M5069 2383 c-13 -16 -12 -17 4 -4 16 13 21 21 13 21 -2 0 -10 -8 -17 -17z"/><path d="M1740 2355 c13 -14 26 -25 28 -25 3 0 -5 11 -18 25 -13 14 -26 25 -28 25 -3 0 5 -11 18 -25z"/><path d="M3314 2358 l-19 -23 23 19 c21 18 27 26 19 26 -2 0 -12 -10 -23 -22z"/><path d="M4435 2350 c10 -11 20 -20 23 -20 3 0 -3 9 -13 20 -10 11 -20 20 -23 20 -3 0 3 -9 13 -20z"/><path d="M5030 2360 c-9 -6 -10 -10 -3 -10 6 0 15 5 18 10 8 12 4 12 -15 0z"/><path d="M5450 2357 c0 -2 15 -16 33 -33 l32 -29 -29 33 c-28 30 -36 37 -36 29z"/><path d="M5660 2346 c0 -2 8 -10 18 -17 15 -13 16 -12 3 4 -13 16 -21 21 -21 13z"/><path d="M6009 2323 l-24 -28 28 24 c15 14 27 26 27 28 0 8 -8 1 -31 -24z"/><path d="M4863 2323 c15 -2 37 -2 50 0 12 2 0 4 -28 4 -27 0 -38 -2 -22 -4z"/><path d="M1863 2303 c20 -2 54 -2 75 0 20 2 3 4 -38 4 -41 0 -58 -2 -37 -4z"/><path d="M3073 2263 c15 -2 39 -2 55 0 15 2 2 4 -28 4 -30 0 -43 -2 -27 -4z"/><path d="M5833 2263 c15 -2 37 -2 50 0 12 2 0 4 -28 4 -27 0 -38 -2 -22 -4z"/><path d="M1060 2256 c0 -2 8 -10 18 -17 15 -13 16 -12 3 4 -13 16 -21 21 -21 13z"/><path d="M1301 2244 c0 -11 3 -14 6 -6 3 7 2 16 -1 19 -3 4 -6 -2 -5 -13z"/><path d="M3188 2203 c7 -3 16 -2 19 1 4 3 -2 6 -13 5 -11 0 -14 -3 -6 -6z"/><path d="M1738 2193 c7 -3 16 -2 19 1 4 3 -2 6 -13 5 -11 0 -14 -3 -6 -6z"/><path d="M3008 2193 c6 -2 18 -2 25 0 6 3 1 5 -13 5 -14 0 -19 -2 -12 -5z"/><path d="M3118 2193 c6 -2 18 -2 25 0 6 3 1 5 -13 5 -14 0 -19 -2 -12 -5z"/><path d="M4728 2193 c6 -2 18 -2 25 0 6 3 1 5 -13 5 -14 0 -19 -2 -12 -5z"/><path d="M5758 2193 c6 -2 18 -2 25 0 6 3 1 5 -13 5 -14 0 -19 -2 -12 -5z"/><path d="M5878 2193 c6 -2 18 -2 25 0 6 3 1 5 -13 5 -14 0 -19 -2 -12 -5z"/><path d="M333 1863 c15 -2 37 -2 50 0 12 2 0 4 -28 4 -27 0 -38 -2 -22 -4z"/><path d="M698 1863 c18 -2 45 -2 60 0 15 2 0 4 -33 4 -33 0 -45 -2 -27 -4z"/><path d="M1573 1863 c15 -2 39 -2 55 0 15 2 2 4 -28 4 -30 0 -43 -2 -27 -4z"/><path d="M6173 1863 c15 -2 39 -2 55 0 15 2 2 4 -28 4 -30 0 -43 -2 -27 -4z"/><path d="M1274 1720 c0 -80 2 -112 3 -72 2 39 2 105 0 145 -1 39 -3 7 -3 -73z"/><path d="M1834 1705 c0 -88 2 -123 3 -77 2 46 2 118 0 160 -1 42 -3 5 -3 -83z"/><path d="M2174 1710 c0 -85 2 -120 3 -77 2 42 2 112 0 155 -1 42 -3 7 -3 -78z"/><path d="M2284 1635 c0 -126 2 -177 3 -112 2 65 2 168 0 230 -1 62 -3 9 -3 -118z"/><path d="M2684 1635 c0 -126 2 -177 3 -112 2 65 2 168 0 230 -1 62 -3 9 -3 -118z"/><path d="M3984 1770 c0 -52 1 -74 3 -47 2 26 2 68 0 95 -2 26 -3 4 -3 -48z"/><path d="M4440 1830 l0 -29 -92 -3 -93 -3 0 -60 0 -60 80 -1 80 0 -77 3 -78 4 0 54 0 55 95 0 95 0 0 35 c0 19 -2 35 -5 35 -3 0 -5 -13 -5 -30z"/><path d="M5644 1770 c0 -52 1 -74 3 -47 2 26 2 68 0 95 -2 26 -3 4 -3 -48z"/><path d="M7214 1635 c0 -126 2 -177 3 -112 2 65 2 168 0 230 -1 62 -3 9 -3 -118z"/><path d="M7480 1830 l0 -29 -92 -3 -93 -3 0 -60 0 -60 77 -3 77 -3 4 -32 c5 -31 5 -31 3 3 l-1 35 -77 3 -78 3 0 54 0 55 95 0 95 0 0 35 c0 19 -2 35 -5 35 -3 0 -5 -13 -5 -30z"/><path d="M584 1818 l-19 -23 23 19 c21 18 27 26 19 26 -2 0 -12 -10 -23 -22z"/><path d="M1479 1823 c-13 -16 -12 -17 4 -4 9 7 17 15 17 17 0 8 -8 3 -21 -13z"/><path d="M1719 1828 c7 -9 9 -23 5 -30 -6 -10 -4 -11 7 0 11 10 10 15 -6 30 -17 15 -18 15 -6 0z"/><path d="M3445 1820 c10 -11 20 -20 23 -20 3 0 -3 9 -13 20 -10 11 -20 20 -23 20 -3 0 3 -9 13 -20z"/><path d="M860 1806 c0 -2 8 -10 18 -17 15 -13 16 -12 3 4 -13 16 -21 21 -21 13z"/><path d="M378 1793 c7 -3 16 -2 19 1 4 3 -2 6 -13 5 -11 0 -14 -3 -6 -6z"/><path d="M454 1778 l-19 -23 23 19 c12 11 22 21 22 23 0 8 -8 2 -26 -19z"/><path d="M688 1793 c7 -3 16 -2 19 1 4 3 -2 6 -13 5 -11 0 -14 -3 -6 -6z"/><path d="M1568 1793 c7 -3 16 -2 19 1 4 3 -2 6 -13 5 -11 0 -14 -3 -6 -6z"/><path d="M1628 1793 c7 -3 16 -2 19 1 4 3 -2 6 -13 5 -11 0 -14 -3 -6 -6z"/><path d="M2928 1793 c29 -2 74 -2 100 0 26 2 2 3 -53 3 -55 0 -76 -1 -47 -3z"/><path d="M3278 1793 c18 -2 45 -2 60 0 15 2 0 4 -33 4 -33 0 -45 -2 -27 -4z"/><path d="M4670 1791 c0 -5 5 -13 10 -16 6 -3 10 -2 10 4 0 5 -4 13 -10 16 -5 3 -10 2 -10 -4z"/><path d="M5217 1793 l63 -4 3 -187 3 -187 -1 190 0 190 -65 1 -65 0 62 -3z"/><path d="M5398 1793 c17 -2 47 -2 65 0 17 2 3 4 -33 4 -36 0 -50 -2 -32 -4z"/><path d="M6228 1793 c7 -3 16 -2 19 1 4 3 -2 6 -13 5 -11 0 -14 -3 -6 -6z"/><path d="M6908 1793 c18 -2 45 -2 60 0 15 2 0 4 -33 4 -33 0 -45 -2 -27 -4z"/><path d="M6540 1779 c0 -5 5 -7 10 -4 6 3 10 8 10 11 0 2 -4 4 -10 4 -5 0 -10 -5 -10 -11z"/><path d="M1700 1770 c-9 -6 -10 -10 -3 -10 6 0 15 5 18 10 8 12 4 12 -15 0z"/><path d="M6119 1763 c-13 -16 -12 -17 4 -4 16 13 21 21 13 21 -2 0 -10 -8 -17 -17z"/><path d="M6280 1766 c7 -7 13 -7 20 0 6 6 3 10 -10 10 -13 0 -16 -4 -10 -10z"/><path d="M3402 1730 c0 -19 2 -27 5 -17 2 9 2 25 0 35 -3 9 -5 1 -5 -18z"/><path d="M3482 1730 c0 -19 2 -27 5 -17 2 9 2 25 0 35 -3 9 -5 1 -5 -18z"/><path d="M4691 1744 c0 -11 3 -14 6 -6 3 7 2 16 -1 19 -3 4 -6 -2 -5 -13z"/><path d="M2351 1698 c-1 -28 1 -50 3 -47 7 7 11 88 5 94 -3 3 -7 -18 -8 -47z"/><path d="M1451 1714 c0 -11 3 -14 6 -6 3 7 2 16 -1 19 -3 4 -6 -2 -5 -13z"/><path d="M1530 1726 c0 -2 8 -10 18 -17 15 -13 16 -12 3 4 -13 16 -21 21 -21 13z"/><path d="M2609 1692 c5 -34 6 -35 9 -8 2 16 0 32 -5 37 -5 5 -7 -7 -4 -29z"/><path d="M6571 1714 c0 -11 3 -14 6 -6 3 7 2 16 -1 19 -3 4 -6 -2 -5 -13z"/><path d="M911 1694 c0 -11 3 -14 6 -6 3 7 2 16 -1 19 -3 4 -6 -2 -5 -13z"/><path d="M151 1684 c0 -11 3 -14 6 -6 3 7 2 16 -1 19 -3 4 -6 -2 -5 -13z"/><path d="M523 1640 c0 -36 2 -50 4 -32 2 17 2 47 0 65 -2 17 -4 3 -4 -33z"/><path d="M6081 1684 c0 -11 3 -14 6 -6 3 7 2 16 -1 19 -3 4 -6 -2 -5 -13z"/><path d="M4641 1674 c0 -11 3 -14 6 -6 3 7 2 16 -1 19 -3 4 -6 -2 -5 -13z"/><path d="M603 1640 c0 -25 2 -35 4 -22 2 12 2 32 0 45 -2 12 -4 2 -4 -23z"/><path d="M1084 1545 c0 -77 2 -107 3 -67 2 40 2 103 0 140 -2 37 -3 4 -3 -73z"/><path d="M2918 1673 c23 -2 61 -2 85 0 23 2 4 4 -43 4 -47 0 -66 -2 -42 -4z"/><path d="M7096 1653 c-6 -14 -5 -15 5 -6 7 7 10 15 7 18 -3 3 -9 -2 -12 -12z"/><path d="M6889 1647 c5 -5 24 -7 42 -5 33 3 33 4 -8 8 -23 3 -39 2 -34 -3z"/><path d="M3268 1643 c12 -2 30 -2 40 0 9 3 -1 5 -23 4 -22 0 -30 -2 -17 -4z"/><path d="M3449 1633 c-13 -16 -12 -17 4 -4 16 13 21 21 13 21 -2 0 -10 -8 -17 -17z"/><path d="M1715 1620 c10 -11 20 -20 23 -20 3 0 -3 9 -13 20 -10 11 -20 20 -23 20 -3 0 3 -9 13 -20z"/><path d="M4620 1608 c0 -15 9 -18 60 -18 33 0 60 3 60 8 0 4 -23 5 -51 3 -36 -2 -54 1 -60 10 -7 11 -9 10 -9 -3z"/><path d="M3984 1510 c0 -58 1 -81 3 -52 2 28 2 76 0 105 -2 28 -3 5 -3 -53z"/><path d="M4254 1540 l1 -65 97 -3 c97 -3 97 -3 101 -30 4 -25 4 -25 3 3 l-1 30 -97 3 -97 3 -4 62 -3 62 0 -65z"/><path d="M5644 1510 c0 -58 1 -81 3 -52 2 28 2 76 0 105 -2 28 -3 5 -3 -53z"/><path d="M6497 1598 c2 -5 29 -8 59 -8 30 0 54 3 54 8 0 4 -27 7 -59 7 -33 0 -57 -3 -54 -7z"/><path d="M7035 1599 c-4 -6 -5 -12 -2 -15 2 -3 7 2 10 11 7 17 1 20 -8 4z"/><path d="M7294 1540 l1 -65 98 -1 97 0 -95 3 -94 4 -4 62 -3 62 0 -65z"/><path d="M1912 1570 c0 -19 2 -27 5 -17 2 9 2 25 0 35 -3 9 -5 1 -5 -18z"/><path d="M6081 1584 c0 -11 3 -14 6 -6 3 7 2 16 -1 19 -3 4 -6 -2 -5 -13z"/><path d="M151 1574 c0 -11 3 -14 6 -6 3 7 2 16 -1 19 -3 4 -6 -2 -5 -13z"/><path d="M911 1574 c0 -11 3 -14 6 -6 3 7 2 16 -1 19 -3 4 -6 -2 -5 -13z"/><path d="M3268 1583 c12 -2 30 -2 40 0 9 3 -1 5 -23 4 -22 0 -30 -2 -17 -4z"/><path d="M6880 1586 c0 -2 18 -6 39 -8 22 -2 37 0 35 4 -5 8 -74 11 -74 4z"/><path d="M1752 1530 c0 -14 2 -19 5 -12 2 6 2 18 0 25 -3 6 -5 1 -5 -13z"/><path d="M250 1533 c0 -5 12 -20 28 -34 l27 -24 -25 30 c-14 17 -26 32 -27 34 -2 2 -3 0 -3 -6z"/><path d="M1671 1524 c0 -11 3 -14 6 -6 3 7 2 16 -1 19 -3 4 -6 -2 -5 -13z"/><path d="M1841 1514 c0 -11 3 -14 6 -6 3 7 2 16 -1 19 -3 4 -6 -2 -5 -13z"/><path d="M2076 1513 c-6 -14 -5 -15 5 -6 7 7 10 15 7 18 -3 3 -9 -2 -12 -12z"/><path d="M640 1506 c0 -2 8 -10 18 -17 15 -13 16 -12 3 4 -13 16 -21 21 -21 13z"/><path d="M1444 1488 l-19 -23 23 19 c21 18 27 26 19 26 -2 0 -12 -10 -23 -22z"/><path d="M1957 1479 c7 -7 15 -10 18 -7 3 3 -2 9 -12 12 -14 6 -15 5 -6 -5z"/><path d="M2040 1480 c-9 -6 -10 -10 -3 -10 6 0 15 5 18 10 8 12 4 12 -15 0z"/><path d="M210 1455 c13 -14 26 -25 28 -25 3 0 -5 11 -18 25 -13 14 -26 25 -28 25 -3 0 5 -11 18 -25z"/><path d="M483 1473 c4 -3 -1 -16 -10 -27 -18 -21 -18 -21 4 -2 20 16 23 36 6 36 -4 0 -3 -3 0 -7z"/><path d="M2928 1473 c28 -2 76 -2 105 0 28 2 5 3 -53 3 -58 0 -81 -1 -52 -3z"/><path d="M5097 1473 l92 -4 4 -32 c4 -31 4 -31 5 6 l2 37 -97 -2 -98 -2 92 -3z"/><path d="M6060 1455 c13 -14 26 -25 28 -25 3 0 -5 11 -18 25 -13 14 -26 25 -28 25 -3 0 5 -11 18 -25z"/><path d="M585 1450 c10 -11 20 -20 23 -20 3 0 -3 9 -13 20 -10 11 -20 20 -23 20 -3 0 3 -9 13 -20z"/><path d="M1709 1443 l-24 -28 28 24 c25 23 32 31 24 31 -2 0 -14 -12 -28 -27z"/><path d="M1880 1445 c13 -14 26 -25 28 -25 3 0 -5 11 -18 25 -13 14 -26 25 -28 25 -3 0 5 -11 18 -25z"/><path d="M2114 1438 l-19 -23 23 19 c21 18 27 26 19 26 -2 0 -12 -10 -23 -22z"/><path d="M308 1403 c7 -3 16 -2 19 1 4 3 -2 6 -13 5 -11 0 -14 -3 -6 -6z"/><path d="M388 1403 c7 -3 16 -2 19 1 4 3 -2 6 -13 5 -11 0 -14 -3 -6 -6z"/><path d="M678 1403 c7 -3 16 -2 19 1 4 3 -2 6 -13 5 -11 0 -14 -3 -6 -6z"/><path d="M748 1403 c6 -2 18 -2 25 0 6 3 1 5 -13 5 -14 0 -19 -2 -12 -5z"/><path d="M1538 1403 c6 -2 18 -2 25 0 6 3 1 5 -13 5 -14 0 -19 -2 -12 -5z"/><path d="M1618 1403 c6 -2 18 -2 25 0 6 3 1 5 -13 5 -14 0 -19 -2 -12 -5z"/><path d="M1958 1403 c7 -3 16 -2 19 1 4 3 -2 6 -13 5 -11 0 -14 -3 -6 -6z"/><path d="M2038 1403 c7 -3 16 -2 19 1 4 3 -2 6 -13 5 -11 0 -14 -3 -6 -6z"/><path d="M6158 1403 c7 -3 16 -2 19 1 4 3 -2 6 -13 5 -11 0 -14 -3 -6 -6z"/><path d="M6228 1403 c6 -2 18 -2 25 0 6 3 1 5 -13 5 -14 0 -19 -2 -12 -5z"/></g><g transform="translate(0.000000,393.000000) scale(0.100000,-0.100000)" fill="#46CCD8" stroke="none"><path d="M1255 566 c-327 -115 -660 -258 -957 -408 l-178 -90 0 -34 0 -34 32 14 c18 8 91 40 163 71 295 129 755 295 1018 366 l87 24 0 72 c0 40 -3 73 -7 72 -5 0 -75 -24 -158 -53z"/></g></svg>