<svg version="1.0" xmlns="http://www.w3.org/2000/svg" width="138.000000" height="111.000000" viewBox="0 0 138.000000 111.000000" preserveAspectRatio="xMidYMid meet"><rect x="0" y="0" width="13" height="11" fill="rgb(198,206,214)" /><rect x="11" y="0" width="13" height="11" fill="rgb(198,206,214)" /><rect x="23" y="0" width="13" height="11" fill="rgb(198,206,214)" /><rect x="35" y="0" width="13" height="11" fill="rgb(210,214,219)" /><rect x="47" y="0" width="13" height="11" fill="rgb(222,222,224)" /><rect x="59" y="0" width="13" height="11" fill="rgb(219,220,223)" /><rect x="71" y="0" width="13" height="11" fill="rgb(222,222,224)" /><rect x="83" y="0" width="13" height="11" fill="rgb(235,235,235)" /><rect x="95" y="0" width="13" height="11" fill="rgb(244,244,242)" /><rect x="107" y="0" width="13" height="11" fill="rgb(244,244,242)" /><rect x="119" y="0" width="19" height="11" fill="rgb(244,244,243)" /><rect x="0" y="9" width="13" height="11" fill="rgb(198,206,214)" /><rect x="11" y="9" width="13" height="11" fill="rgb(198,206,214)" /><rect x="23" y="9" width="13" height="11" fill="rgb(198,206,214)" /><rect x="35" y="9" width="13" height="11" fill="rgb(214,217,221)" /><rect x="47" y="9" width="13" height="11" fill="rgb(217,219,223)" /><rect x="59" y="9" width="13" height="11" fill="rgb(208,214,221)" /><rect x="71" y="9" width="13" height="11" fill="rgb(222,222,224)" /><rect x="83" y="9" width="13" height="11" fill="rgb(233,234,235)" /><rect x="95" y="9" width="13" height="11" fill="rgb(244,244,242)" /><rect x="107" y="9" width="13" height="11" fill="rgb(244,244,242)" /><rect x="119" y="9" width="19" height="11" fill="rgb(244,244,242)" /><rect x="0" y="19" width="13" height="11" fill="rgb(198,206,214)" /><rect x="11" y="19" width="13" height="11" fill="rgb(198,206,214)" /><rect x="23" y="19" width="13" height="11" fill="rgb(202,208,215)" /><rect x="35" y="19" width="13" height="11" fill="rgb(221,221,223)" /><rect x="47" y="19" width="13" height="11" fill="rgb(197,206,217)" /><rect x="59" y="19" width="13" height="11" fill="rgb(214,218,222)" /><rect x="71" y="19" width="13" height="11" fill="rgb(193,202,214)" /><rect x="83" y="19" width="13" height="11" fill="rgb(180,194,212)" /><rect x="95" y="19" width="13" height="11" fill="rgb(244,244,242)" /><rect x="107" y="19" width="13" height="11" fill="rgb(244,244,242)" /><rect x="119" y="19" width="19" height="11" fill="rgb(244,244,242)" /><rect x="0" y="29" width="13" height="11" fill="rgb(198,206,214)" /><rect x="11" y="29" width="13" height="11" fill="rgb(201,208,215)" /><rect x="23" y="29" width="13" height="11" fill="rgb(217,219,222)" /><rect x="35" y="29" width="13" height="11" fill="rgb(222,223,224)" /><rect x="47" y="29" width="13" height="11" fill="rgb(160,178,201)" /><rect x="59" y="29" width="13" height="11" fill="rgb(203,211,220)" /><rect x="71" y="29" width="13" height="11" fill="rgb(210,215,222)" /><rect x="83" y="29" width="13" height="11" fill="rgb(220,226,233)" /><rect x="95" y="29" width="13" height="11" fill="rgb(244,244,242)" /><rect x="107" y="29" width="13" height="11" fill="rgb(244,244,242)" /><rect x="119" y="29" width="19" height="11" fill="rgb(244,244,242)" /><rect x="0" y="39" width="13" height="11" fill="rgb(217,219,222)" /><rect x="11" y="39" width="13" height="11" fill="rgb(221,221,223)" /><rect x="23" y="39" width="13" height="11" fill="rgb(222,222,224)" /><rect x="35" y="39" width="13" height="11" fill="rgb(222,222,224)" /><rect x="47" y="39" width="13" height="11" fill="rgb(198,205,217)" /><rect x="59" y="39" width="13" height="11" fill="rgb(221,222,224)" /><rect x="71" y="39" width="13" height="11" fill="rgb(212,219,227)" /><rect x="83" y="39" width="13" height="11" fill="rgb(244,244,242)" /><rect x="95" y="39" width="13" height="11" fill="rgb(244,244,242)" /><rect x="107" y="39" width="13" height="11" fill="rgb(244,244,242)" /><rect x="119" y="39" width="19" height="11" fill="rgb(244,244,242)" /><rect x="0" y="49" width="13" height="11" fill="rgb(222,222,224)" /><rect x="11" y="49" width="13" height="11" fill="rgb(211,215,222)" /><rect x="23" y="49" width="13" height="11" fill="rgb(196,205,219)" /><rect x="35" y="49" width="13" height="11" fill="rgb(197,207,219)" /><rect x="47" y="49" width="13" height="11" fill="rgb(195,205,219)" /><rect x="59" y="49" width="13" height="11" fill="rgb(194,204,219)" /><rect x="71" y="49" width="13" height="11" fill="rgb(209,219,229)" /><rect x="83" y="49" width="13" height="11" fill="rgb(208,219,230)" /><rect x="95" y="49" width="13" height="11" fill="rgb(211,220,231)" /><rect x="107" y="49" width="13" height="11" fill="rgb(218,226,234)" /><rect x="119" y="49" width="19" height="11" fill="rgb(244,244,242)" /><rect x="0" y="59" width="13" height="11" fill="rgb(222,222,224)" /><rect x="11" y="59" width="13" height="11" fill="rgb(174,191,214)" /><rect x="23" y="59" width="13" height="11" fill="rgb(127,161,204)" /><rect x="35" y="59" width="13" height="11" fill="rgb(141,170,206)" /><rect x="47" y="59" width="13" height="11" fill="rgb(114,152,200)" /><rect x="59" y="59" width="13" height="11" fill="rgb(119,155,202)" /><rect x="71" y="59" width="13" height="11" fill="rgb(142,172,210)" /><rect x="83" y="59" width="13" height="11" fill="rgb(161,184,214)" /><rect x="95" y="59" width="13" height="11" fill="rgb(139,169,207)" /><rect x="107" y="59" width="13" height="11" fill="rgb(157,182,214)" /><rect x="119" y="59" width="19" height="11" fill="rgb(242,243,242)" /><rect x="23" y="69" width="13" height="11" fill="rgb(199,205,213)" /><rect x="35" y="69" width="13" height="11" fill="rgb(196,203,212)" /><rect x="47" y="69" width="13" height="11" fill="rgb(203,210,217)" /><rect x="59" y="69" width="13" height="11" fill="rgb(207,213,219)" /><rect x="71" y="69" width="13" height="11" fill="rgb(225,229,232)" /><rect x="83" y="69" width="13" height="11" fill="rgb(210,215,221)" /><rect x="95" y="69" width="13" height="11" fill="rgb(207,213,220)" /><rect x="107" y="69" width="13" height="11" fill="rgb(204,211,218)" /><rect x="35" y="79" width="13" height="11" fill="rgb(242,242,241)" /><rect x="47" y="79" width="13" height="11" fill="rgb(244,244,242)" /><rect x="59" y="79" width="13" height="11" fill="rgb(244,244,242)" /><rect x="71" y="79" width="13" height="11" fill="rgb(244,244,242)" /><rect x="83" y="79" width="13" height="11" fill="rgb(244,244,242)" /><rect x="59" y="89" width="13" height="11" fill="rgb(244,244,242)" /><rect x="71" y="89" width="13" height="11" fill="rgb(244,244,242)" /><g transform="translate(0.000000,111.000000) scale(0.100000,-0.100000)" fill="#1F335F" stroke="none"><path d="M805 900 c-18 -8 -18 -9 5 -9 43 -2 54 -15 47 -57 -4 -27 -3 -34 3 -24 14 21 12 62 -4 83 -15 19 -21 20 -51 7z"/><path d="M510 798 c-23 -50 -25 -69 -8 -86 21 -21 32 -13 13 8 -18 20 -18 22 2 70 26 61 20 67 -7 8z"/><path d="M191 364 c0 -11 3 -14 6 -6 3 7 2 16 -1 19 -3 4 -6 -2 -5 -13z"/><path d="M319 358 c-11 -20 -10 -21 3 -11 8 7 18 10 22 6 4 -4 4 0 0 10 -8 22 -11 22 -25 -5z"/><path d="M381 364 c0 -11 3 -14 6 -6 3 7 2 16 -1 19 -3 4 -6 -2 -5 -13z"/><path d="M440 365 c0 -18 36 -20 46 -3 5 8 2 9 -9 5 -10 -3 -17 -2 -17 3 0 6 -4 10 -10 10 -5 0 -10 -7 -10 -15z"/><path d="M527 373 c-11 -11 -8 -20 7 -20 8 0 12 6 9 14 -6 15 -7 15 -16 6z"/><path d="M642 368 c-17 -17 -15 -33 3 -18 12 10 15 10 15 0 0 -8 3 -11 6 -7 3 3 2 13 -3 21 -7 13 -12 13 -21 4z"/><path d="M702 360 c0 -14 2 -19 5 -12 2 6 2 18 0 25 -3 6 -5 1 -5 -13z"/><path d="M930 368 c0 -7 9 -14 20 -15 13 -1 20 4 19 15 0 11 -2 13 -6 4 -4 -10 -8 -10 -19 -1 -11 9 -14 8 -14 -3z"/><path d="M1050 365 c0 -8 2 -15 4 -15 2 0 6 7 10 15 3 8 1 15 -4 15 -6 0 -10 -7 -10 -15z"/><path d="M1100 359 c0 -11 4 -18 10 -14 5 3 7 12 3 20 -7 21 -13 19 -13 -6z"/><path d="M1161 363 c-1 -14 5 -23 13 -23 21 0 30 20 17 33 -9 9 -11 8 -6 -5 4 -10 3 -18 -3 -18 -6 0 -13 8 -15 18 -4 13 -5 11 -6 -5z"/><path d="M270 360 c0 -5 5 -10 10 -10 6 0 10 5 10 10 0 6 -4 10 -10 10 -5 0 -10 -4 -10 -10z"/><path d="M580 355 c0 -8 4 -15 10 -15 5 0 7 7 4 15 -4 8 -8 15 -10 15 -2 0 -4 -7 -4 -15z"/><path d="M1000 360 c0 -5 5 -10 10 -10 6 0 10 5 10 10 0 6 -4 10 -10 10 -5 0 -10 -4 -10 -10z"/><path d="M840 350 c0 -5 5 -10 11 -10 5 0 7 5 4 10 -3 6 -8 10 -11 10 -2 0 -4 -4 -4 -10z"/></g><g transform="translate(0.000000,111.000000) scale(0.100000,-0.100000)" fill="#4C7FB2" stroke="none"><path d="M630 985 c-13 -14 -19 -25 -14 -25 8 1 50 50 41 50 -2 0 -14 -11 -27 -25z"/><path d="M730 869 c0 -5 5 -7 10 -4 6 3 10 8 10 11 0 2 -4 4 -10 4 -5 0 -10 -5 -10 -11z"/><path d="M705 860 c-3 -5 -1 -10 4 -10 6 0 11 5 11 10 0 6 -2 10 -4 10 -3 0 -8 -4 -11 -10z"/><path d="M518 733 c7 -3 16 -2 19 1 4 3 -2 6 -13 5 -11 0 -14 -3 -6 -6z"/><path d="M558 723 c7 -3 16 -2 19 1 4 3 -2 6 -13 5 -11 0 -14 -3 -6 -6z"/><path d="M741 628 c-14 -23 -14 -23 8 -4 22 20 25 26 13 26 -4 0 -13 -10 -21 -22z"/><path d="M386 522 c-2 -4 4 -8 14 -8 10 0 16 4 14 8 -3 4 -9 8 -14 8 -5 0 -11 -4 -14 -8z"/><path d="M253 493 c0 -9 4 -10 14 -2 7 6 13 12 13 14 0 1 -6 2 -13 2 -8 0 -14 -6 -14 -14z"/><path d="M430 501 c0 -6 4 -13 10 -16 6 -3 7 1 4 9 -7 18 -14 21 -14 7z"/><path d="M497 503 c-2 -5 -1 -19 4 -33 7 -23 7 -23 8 8 1 31 -3 40 -12 25z"/><path d="M702 480 c0 -19 2 -27 5 -17 2 9 2 25 0 35 -3 9 -5 1 -5 -18z"/><path d="M841 474 c0 -11 3 -14 6 -6 3 7 2 16 -1 19 -3 4 -6 -2 -5 -13z"/><path d="M460 476 c0 -2 7 -7 16 -10 8 -3 12 -2 9 4 -6 10 -25 14 -25 6z"/><path d="M355 440 c6 -10 1 -12 -18 -8 -15 3 -24 1 -21 -3 7 -12 41 -11 49 0 3 5 0 13 -6 17 -8 5 -9 3 -4 -6z"/><path d="M439 433 c-13 -16 -12 -17 4 -4 16 13 21 21 13 21 -2 0 -10 -8 -17 -17z"/><path d="M559 427 c5 -5 21 -7 37 -5 27 3 26 4 -8 9 -22 3 -34 1 -29 -4z"/><path d="M503 423 c9 -2 23 -2 30 0 6 3 -1 5 -18 5 -16 0 -22 -2 -12 -5z"/><path d="M778 423 c6 -2 18 -2 25 0 6 3 1 5 -13 5 -14 0 -19 -2 -12 -5z"/><path d="M1018 423 c7 -3 16 -2 19 1 4 3 -2 6 -13 5 -11 0 -14 -3 -6 -6z"/><path d="M1138 423 c7 -3 16 -2 19 1 4 3 -2 6 -13 5 -11 0 -14 -3 -6 -6z"/><path d="M717 373 c-10 -9 -9 -33 1 -33 4 0 8 9 8 20 0 23 0 22 -9 13z"/><path d="M1113 355 c0 -8 4 -15 9 -15 4 0 8 4 8 9 0 6 -4 12 -8 15 -5 3 -9 -1 -9 -9z"/><path d="M195 350 c-3 -6 1 -7 9 -4 18 7 21 14 7 14 -6 0 -13 -4 -16 -10z"/></g><g transform="translate(0.000000,111.000000) scale(0.100000,-0.100000)" fill="#064CB8" stroke="none"><path d="M564 890 c-15 -22 -25 -42 -23 -44 2 -2 16 16 31 40 34 55 28 58 -8 4z"/><path d="M850 901 c0 -6 5 -13 10 -16 6 -3 11 -18 11 -33 1 -23 3 -22 8 8 4 19 5 38 3 43 -5 10 -32 9 -32 -2z"/><path d="M847 788 c-10 -17 -16 -33 -13 -35 2 -3 12 9 21 27 21 41 15 48 -8 8z"/><path d="M501 749 c0 -9 8 -24 18 -33 19 -17 23 -17 70 -1 28 9 53 21 56 25 3 5 -13 3 -35 -5 -47 -17 -97 -10 -103 14 -4 14 -5 14 -6 0z"/><path d="M791 697 c-13 -21 -12 -21 5 -5 10 10 16 20 13 22 -3 3 -11 -5 -18 -17z"/><path d="M194 515 c-8 -20 13 -45 37 -45 23 0 35 -20 18 -31 -9 -5 -22 -1 -36 13 l-23 21 0 -21 c0 -24 32 -33 68 -18 32 14 27 35 -13 52 -19 8 -35 19 -35 24 0 13 16 13 41 0 15 -8 19 -7 19 5 0 21 -68 21 -76 0z"/><path d="M310 495 c12 -20 19 -42 16 -50 -4 -10 1 -15 14 -15 13 0 18 5 14 15 -3 8 4 30 16 50 18 29 19 35 6 35 -10 0 -16 -9 -16 -21 0 -12 -5 -19 -12 -16 -7 2 -12 12 -12 21 1 11 -6 16 -23 16 l-25 0 22 -35z"/><path d="M415 480 c0 -28 5 -50 10 -50 6 0 9 18 8 43 -3 44 0 41 26 -25 9 -23 9 -22 20 7 23 59 25 61 29 32 2 -16 -2 -35 -9 -43 -9 -12 -7 -14 15 -14 19 0 25 4 20 12 -4 7 -8 24 -8 38 0 14 4 31 8 38 5 8 -1 12 -19 12 -20 0 -27 -6 -32 -30 -3 -16 -9 -30 -13 -30 -4 0 -10 14 -13 30 -4 20 -13 30 -24 30 -15 0 -18 -9 -18 -50z"/><path d="M565 480 l0 -50 41 0 c40 0 63 18 46 35 -4 4 -7 19 -7 33 0 24 -4 27 -40 30 l-40 3 0 -51z m63 23 c2 -8 -5 -13 -17 -13 -12 0 -21 6 -21 16 0 18 31 15 38 -3z m2 -48 c0 -8 -9 -15 -20 -15 -11 0 -20 7 -20 15 0 8 9 15 20 15 11 0 20 -7 20 -15z"/><path d="M675 480 c0 -46 2 -50 24 -50 20 0 21 2 11 15 -8 9 -10 29 -7 50 5 28 3 35 -11 35 -14 0 -17 -10 -17 -50z"/><path d="M744 505 c-15 -23 -15 -27 0 -50 12 -18 25 -25 50 -25 35 0 46 13 46 54 0 50 -67 65 -96 21z m71 -25 c0 -29 -4 -36 -23 -38 -26 -4 -37 17 -28 54 5 19 12 25 29 22 18 -2 22 -9 22 -38z"/><path d="M867 524 c-4 -4 -7 -12 -7 -18 0 -6 5 -5 12 2 22 22 30 12 26 -33 -2 -35 0 -45 12 -45 12 0 14 10 12 45 -4 46 4 55 27 33 11 -11 13 -10 9 2 -5 16 -78 27 -91 14z"/><path d="M985 480 l0 -50 41 0 c28 0 44 5 48 15 6 17 -9 21 -19 5 -10 -16 -45 -12 -45 6 0 10 6 14 15 10 10 -4 15 1 15 14 0 13 -5 18 -15 14 -9 -4 -15 0 -15 10 0 19 30 21 49 4 11 -11 13 -10 9 2 -3 9 -20 16 -44 18 l-39 3 0 -51z"/><path d="M1106 514 c-19 -19 -20 -44 -3 -68 16 -22 78 -19 85 4 4 12 2 13 -9 3 -33 -32 -81 6 -59 47 13 24 33 26 50 5 15 -19 23 -14 14 9 -8 21 -57 21 -78 0z"/></g><g transform="translate(0.000000,111.000000) scale(0.100000,-0.100000)" fill="#8CA5BF" stroke="none"><path d="M664 1028 l-19 -23 23 19 c21 18 27 26 19 26 -2 0 -12 -10 -23 -22z"/><path d="M884 886 c-3 -8 -4 -25 -2 -38 3 -17 5 -13 9 15 5 38 2 47 -7 23z"/><path d="M818 883 c7 -3 16 -2 19 1 4 3 -2 6 -13 5 -11 0 -14 -3 -6 -6z"/><path d="M665 840 c-33 -22 -29 -26 10 -8 14 6 25 15 25 20 0 11 -1 11 -35 -12z"/><path d="M684 764 c-18 -14 -18 -14 6 -3 31 14 36 19 24 19 -6 0 -19 -7 -30 -16z"/><path d="M510 755 c0 -8 4 -15 10 -15 5 0 7 7 4 15 -4 8 -8 15 -10 15 -2 0 -4 -7 -4 -15z"/><path d="M711 587 c-13 -21 -12 -21 5 -5 10 10 16 20 13 22 -3 3 -11 -5 -18 -17z"/><path d="M595 509 c-11 -16 -1 -19 13 -3 7 8 8 14 3 14 -5 0 -13 -5 -16 -11z"/><path d="M875 510 c-3 -6 1 -7 9 -4 18 7 21 14 7 14 -6 0 -13 -4 -16 -10z"/><path d="M921 517 c2 -1 11 -8 21 -15 12 -10 18 -10 24 -1 4 7 3 9 -4 5 -6 -3 -13 -2 -17 4 -3 5 -11 10 -17 10 -6 0 -9 -1 -7 -3z"/><path d="M983 475 c0 -22 2 -30 4 -17 2 12 2 30 0 40 -3 9 -5 -1 -4 -23z"/><path d="M1043 494 c-3 -7 -3 -19 0 -26 3 -7 6 -3 6 10 1 13 5 21 10 17 5 -3 12 -2 15 3 3 5 -2 9 -10 9 -9 0 -18 -6 -21 -13z"/><path d="M412 480 c0 -14 2 -19 5 -12 2 6 2 18 0 25 -3 6 -5 1 -5 -13z"/><path d="M562 480 c0 -14 2 -19 5 -12 2 6 2 18 0 25 -3 6 -5 1 -5 -13z"/><path d="M922 480 c0 -14 2 -19 5 -12 2 6 2 18 0 25 -3 6 -5 1 -5 -13z"/><path d="M182 360 c0 -14 2 -19 5 -12 2 6 2 18 0 25 -3 6 -5 1 -5 -13z"/><path d="M391 368 c-1 -21 15 -32 25 -17 4 7 3 9 -4 5 -6 -3 -13 2 -15 11 -4 16 -5 16 -6 1z"/><path d="M691 364 c0 -11 3 -14 6 -6 3 7 2 16 -1 19 -3 4 -6 -2 -5 -13z"/><path d="M1065 369 c-4 -6 -5 -12 -2 -15 2 -3 7 2 10 11 7 17 1 20 -8 4z"/><path d="M1115 370 c3 -5 8 -10 11 -10 2 0 4 5 4 10 0 6 -5 10 -11 10 -5 0 -7 -4 -4 -10z"/><path d="M329 353 c-13 -16 -12 -17 4 -4 16 13 21 21 13 21 -2 0 -10 -8 -17 -17z"/><path d="M371 354 c0 -11 3 -14 6 -6 3 7 2 16 -1 19 -3 4 -6 -2 -5 -13z"/></g><g transform="translate(0.000000,111.000000) scale(0.100000,-0.100000)" fill="#CCD2D8" stroke="none"><path d="M0 900 l0 -211 48 5 c95 10 161 33 195 70 9 11 20 16 23 13 7 -7 34 17 34 30 0 5 9 15 20 23 11 8 20 19 20 25 0 5 9 21 20 35 11 14 20 32 20 41 0 8 5 20 12 27 10 10 16 44 21 117 l2 30 -207 3 -208 2 0 -210z"/><path d="M679 1054 c-13 -16 -23 -51 -11 -39 4 4 7 11 7 15 0 5 9 16 20 24 11 9 15 16 9 16 -6 0 -18 -7 -25 -16z"/><path d="M636 1001 c-4 -5 -2 -12 3 -15 5 -4 12 -2 15 3 4 5 2 12 -3 15 -5 4 -12 2 -15 -3z"/><path d="M892 870 c0 -14 2 -19 5 -12 2 6 2 18 0 25 -3 6 -5 1 -5 -13z"/><path d="M630 820 c0 -6 -4 -8 -10 -5 -5 3 -10 1 -10 -4 0 -13 10 -14 29 -2 9 6 10 11 2 15 -6 4 -11 2 -11 -4z"/><path d="M734 796 c-10 -8 -16 -17 -13 -20 3 -4 17 2 30 13 27 23 13 28 -17 7z"/><path d="M522 770 c0 -14 2 -19 5 -12 2 6 2 18 0 25 -3 6 -5 1 -5 -13z"/><path d="M733 615 c0 -8 4 -12 9 -9 5 3 6 10 3 15 -9 13 -12 11 -12 -6z"/><path d="M694 565 c-10 -8 -14 -15 -8 -15 6 0 17 7 24 15 16 19 9 19 -16 0z"/><path d="M293 533 c9 -2 25 -2 35 0 9 3 1 5 -18 5 -19 0 -27 -2 -17 -5z"/><path d="M373 533 c15 -2 39 -2 55 0 15 2 2 4 -28 4 -30 0 -43 -2 -27 -4z"/><path d="M486 532 c-3 -5 8 -6 25 -4 16 2 29 6 29 8 0 8 -49 4 -54 -4z"/><path d="M568 533 c12 -2 32 -2 45 0 12 2 2 4 -23 4 -25 0 -35 -2 -22 -4z"/><path d="M665 531 c-3 -5 0 -13 6 -17 7 -4 9 -3 5 4 -4 6 5 12 21 15 l28 4 -27 2 c-15 0 -29 -3 -33 -8z"/><path d="M893 533 c9 -2 25 -2 35 0 9 3 1 5 -18 5 -19 0 -27 -2 -17 -5z"/><path d="M993 533 c15 -2 37 -2 50 0 12 2 0 4 -28 4 -27 0 -38 -2 -22 -4z"/><path d="M1015 509 c-4 -6 -4 -13 -1 -16 3 -4 6 -1 6 6 0 7 5 9 10 6 6 -3 10 -1 10 4 0 14 -17 14 -25 0z"/><path d="M893 475 c0 -22 2 -30 4 -17 2 12 2 30 0 40 -3 9 -5 -1 -4 -23z"/><path d="M431 464 c0 -11 3 -14 6 -6 3 7 2 16 -1 19 -3 4 -6 -2 -5 -13z"/><path d="M433 403 c141 -2 373 -2 515 0 141 1 25 2 -258 2 -283 0 -399 -1 -257 -2z"/><path d="M902 360 c0 -14 2 -19 5 -12 2 6 2 18 0 25 -3 6 -5 1 -5 -13z"/></g><g transform="translate(0.000000,111.000000) scale(0.100000,-0.100000)" fill="#DFDFE5" stroke="none"><path d="M413 1078 c-3 -71 -10 -109 -21 -120 -7 -7 -12 -19 -12 -27 0 -9 -9 -27 -20 -41 -11 -14 -20 -30 -20 -35 0 -6 -9 -17 -20 -25 -11 -8 -20 -18 -20 -23 0 -13 -27 -37 -34 -30 -3 3 -14 -2 -23 -13 -37 -39 -129 -70 -220 -73 -23 -1 -23 -3 -23 -145 l0 -144 118 -68 c64 -37 127 -74 140 -82 18 -12 22 -12 20 -2 -2 8 6 16 17 18 11 2 41 13 67 24 33 14 45 24 41 35 -5 12 -7 12 -14 1 -7 -11 -11 -10 -19 2 -6 10 -10 11 -10 3 0 -15 -41 -13 -53 2 -6 6 -10 5 -14 -3 -4 -10 -8 -10 -19 -1 -11 9 -14 9 -14 -1 0 -10 -3 -10 -14 -1 -8 7 -27 11 -43 9 -24 -3 -28 1 -28 22 0 24 3 25 55 26 37 1 61 -4 73 -15 15 -12 18 -13 15 -1 -2 7 5 16 16 18 12 3 16 0 11 -8 -5 -8 0 -8 16 2 22 12 13 13 -78 16 -85 2 -101 5 -96 17 3 8 0 15 -5 15 -13 0 -12 80 1 97 5 7 13 10 18 7 5 -3 9 0 9 5 0 6 7 11 15 11 8 0 15 -6 15 -12 0 -8 3 -9 8 -3 11 15 84 17 94 3 6 -10 8 -10 8 0 0 8 17 12 50 12 28 0 50 -4 50 -10 0 -5 9 -10 20 -10 11 0 20 5 20 10 0 15 47 12 53 -2 4 -10 6 -10 6 0 1 8 17 12 47 12 25 0 43 -4 40 -8 -2 -4 4 -8 14 -8 10 0 18 3 17 6 -3 11 24 50 32 46 4 -3 8 0 8 7 0 7 22 46 50 87 54 80 83 140 83 172 0 18 -4 19 -42 12 -24 -4 -51 -8 -60 -8 -9 0 -15 -3 -12 -7 5 -9 -25 -21 -37 -13 -5 3 -9 0 -9 -7 0 -7 -3 -10 -6 -6 -4 3 -13 0 -21 -8 -14 -15 -43 -20 -43 -9 0 12 43 44 51 38 5 -3 9 0 9 6 0 6 5 8 10 5 6 -3 10 -1 10 5 0 15 122 70 155 70 14 0 25 6 26 13 1 6 3 26 5 42 2 17 5 51 7 78 l4 47 -236 0 -236 0 -2 -32z m297 -18 c0 -5 -7 -13 -16 -18 -9 -5 -15 -13 -15 -18 1 -5 -14 -29 -32 -54 -18 -25 -46 -67 -62 -95 -16 -27 -35 -57 -42 -66 -8 -9 -12 -29 -10 -44 3 -22 9 -29 31 -31 16 -2 26 0 22 3 -6 7 88 44 116 46 9 1 15 4 13 8 -4 5 38 29 52 29 3 0 2 -7 -1 -16 -6 -15 -4 -15 11 -3 11 10 14 10 9 1 -9 -15 -86 -55 -86 -45 0 5 -4 3 -8 -3 -12 -19 -92 -55 -104 -48 -6 4 -8 3 -5 -3 4 -6 -13 -9 -45 -8 -36 1 -53 7 -60 19 -12 21 0 79 14 70 6 -4 8 -2 4 4 -3 6 4 28 16 49 38 65 128 183 140 183 6 0 8 3 5 7 -9 9 22 43 40 43 7 0 13 -4 13 -10z m-163 -376 c-3 -3 -12 -4 -19 -1 -8 3 -5 6 6 6 11 1 17 -2 13 -5z"/><path d="M786 658 c3 -5 10 -6 15 -3 13 9 11 12 -6 12 -8 0 -12 -4 -9 -9z"/><path d="M764 618 l-19 -23 23 19 c12 11 22 21 22 23 0 8 -8 2 -26 -19z"/><path d="M725 539 c-4 -6 -5 -12 -2 -15 2 -3 7 2 10 11 7 17 1 20 -8 4z"/><path d="M845 511 c-3 -5 -2 -12 3 -15 5 -3 9 1 9 9 0 17 -3 19 -12 6z"/><path d="M280 494 c0 -5 6 -16 12 -22 10 -10 10 -15 0 -21 -8 -5 -14 -12 -15 -17 -1 -5 -6 -8 -10 -6 -5 1 -6 -2 -2 -8 3 -5 14 -10 24 -10 14 0 17 8 16 35 -1 30 -25 77 -25 49z"/><path d="M381 482 c-12 -22 -9 -72 4 -72 6 0 11 20 13 45 3 48 -2 56 -17 27z"/><path d="M717 430 c3 -11 12 -20 19 -20 11 0 10 5 -3 20 -10 11 -18 20 -19 20 -1 0 0 -9 3 -20z"/><path d="M397 393 c-3 -5 6 -9 19 -9 13 -1 24 2 24 7 0 11 -37 12 -43 2z"/><path d="M490 392 c0 -5 7 -9 15 -9 8 0 15 4 15 9 0 4 -7 8 -15 8 -8 0 -15 -4 -15 -8z"/><path d="M545 390 c3 -5 10 -10 16 -10 5 0 9 5 9 10 0 6 -7 10 -16 10 -8 0 -12 -4 -9 -10z"/><path d="M420 329 c0 -5 5 -7 10 -4 6 3 10 8 10 11 0 2 -4 4 -10 4 -5 0 -10 -5 -10 -11z"/></g><g transform="translate(0.000000,111.000000) scale(0.100000,-0.100000)" fill="#F8F8F8" stroke="none"><path d="M889 1108 c-1 -2 -3 -23 -5 -48 -2 -25 -6 -58 -8 -75 -2 -16 -4 -36 -5 -42 -1 -7 -12 -13 -26 -13 -25 0 -155 -54 -155 -64 0 -3 31 8 69 24 75 32 110 37 129 18 23 -23 12 -66 -43 -153 -58 -92 -62 -101 -43 -89 7 5 8 3 4 -5 -5 -7 -11 -10 -14 -7 -7 8 -42 -24 -42 -37 0 -6 10 -2 23 9 l22 19 -19 -23 c-11 -12 -21 -20 -24 -17 -7 6 -32 -15 -32 -27 0 -5 5 -6 12 -2 7 4 8 3 4 -5 -4 -6 -11 -9 -16 -6 -4 3 -14 -3 -21 -12 -13 -15 -11 -16 14 -11 27 5 27 5 12 -18 -21 -32 -19 -66 6 -93 17 -18 30 -22 82 -20 128 3 390 -1 385 -6 -3 -3 -145 -5 -316 -5 -239 0 -311 -3 -315 -13 -3 -9 -8 -9 -21 2 -28 23 -29 5 -2 -22 24 -24 26 -24 26 -7 0 11 7 20 16 20 8 0 13 -4 10 -9 -4 -5 0 -11 6 -14 19 -6 5 -17 -23 -17 -13 0 -33 0 -44 -1 -11 0 -35 0 -54 1 -18 0 -40 -5 -47 -11 -10 -8 -14 -8 -14 0 0 6 4 11 10 11 5 0 9 3 9 8 -3 20 2 33 14 31 23 -3 37 1 37 10 0 12 -43 10 -51 -2 -4 -5 -16 -4 -28 3 -16 8 -26 8 -35 1 -8 -6 -21 -9 -30 -5 -9 3 -22 1 -30 -5 -7 -6 -16 -7 -20 -3 -4 4 -26 8 -49 8 -23 1 -36 -1 -29 -3 14 -5 17 -33 3 -33 -5 0 -16 -3 -25 -6 -11 -4 -16 0 -16 14 0 11 5 23 10 25 6 3 5 4 -2 3 -7 -2 -13 -14 -13 -27 0 -20 4 -24 28 -21 16 2 35 -2 43 -9 11 -9 14 -9 14 1 0 10 3 10 14 1 11 -9 15 -9 19 1 4 8 8 9 14 3 12 -15 53 -17 53 -2 0 8 4 7 10 -3 8 -12 12 -13 19 -2 7 11 9 11 14 -1 4 -11 -8 -21 -43 -36 -27 -12 -55 -21 -64 -21 -18 0 -27 -13 -18 -26 10 -15 393 -234 409 -234 7 0 136 71 286 157 150 86 301 173 337 194 l65 37 3 356 2 356 -245 0 c-135 0 -245 -1 -246 -2z m-55 -580 c-2 -4 0 -9 6 -13 6 -3 13 1 16 9 4 12 20 16 54 16 41 0 49 -3 53 -22 8 -29 2 -34 -19 -17 -16 13 -17 10 -12 -33 5 -47 5 -48 -22 -48 -27 0 -27 1 -24 48 2 26 1 41 -2 35 -3 -7 -12 -13 -20 -13 -8 0 -14 -9 -14 -19 0 -46 -65 -68 -102 -34 -25 23 -23 68 4 87 21 15 91 18 82 4z m237 -7 c12 -18 12 -18 31 1 31 31 98 13 98 -26 0 -11 -24 -6 -40 9 -15 14 -18 14 -30 0 -10 -12 -10 -21 -1 -41 11 -25 12 -25 36 -10 29 19 35 20 35 5 0 -17 -32 -38 -57 -39 -13 0 -32 9 -42 19 -19 19 -19 19 -24 0 -4 -15 -14 -19 -54 -19 l-48 0 0 60 0 60 42 0 c31 0 46 -5 54 -19z m-651 -161 c0 -12 -8 -17 -25 -17 -17 0 -25 5 -25 17 0 10 6 20 13 23 20 7 37 -4 37 -23z m320 -1 c0 -14 -7 -19 -25 -19 -18 0 -25 5 -25 19 0 11 6 21 13 24 20 7 37 -4 37 -24z m170 0 c0 -10 -4 -19 -10 -19 -5 0 -10 12 -10 26 0 14 4 23 10 19 6 -3 10 -15 10 -26z m-620 1 c0 -12 -8 -17 -25 -17 -17 0 -25 5 -25 17 0 12 8 18 25 18 17 0 25 -6 25 -18z m60 16 c0 -2 3 -11 6 -19 4 -10 -2 -14 -20 -14 -24 0 -34 15 -19 30 7 8 33 10 33 3z m320 -16 c9 -18 8 -20 -15 -20 -24 0 -34 18 -18 33 11 12 22 8 33 -13z m186 6 c19 -20 18 -26 -6 -26 -13 0 -20 7 -20 20 0 24 6 25 26 6z m124 -7 c0 -14 -7 -19 -30 -19 -18 0 -30 5 -30 13 0 19 7 25 35 25 18 0 25 -6 25 -19z m40 1 c0 -11 -4 -20 -10 -20 -5 0 -10 9 -10 20 0 11 5 20 10 20 6 0 10 -9 10 -20z m53 0 c-3 -11 -8 -20 -12 -20 -3 0 -12 9 -19 20 -11 18 -10 20 12 20 19 0 23 -4 19 -20z m67 0 c0 -15 -7 -20 -25 -20 -18 0 -25 5 -25 20 0 15 7 20 25 20 18 0 25 -5 25 -20z m60 0 c0 -15 -7 -20 -25 -20 -18 0 -25 5 -25 20 0 15 7 20 25 20 18 0 25 -5 25 -20z"/><path d="M772 478 c4 -43 33 -46 33 -3 0 21 -5 31 -18 33 -15 3 -18 -2 -15 -30z"/><path d="M1048 483 c4 -21 2 -25 -12 -20 -9 4 -16 2 -16 -3 0 -6 6 -10 13 -10 13 1 53 28 46 33 -2 1 -11 8 -20 15 -14 11 -16 9 -11 -15z"/><path d="M664 1048 l-19 -23 23 19 c21 18 27 26 19 26 -2 0 -12 -10 -23 -22z"/><path d="M642 977 c-41 -55 -108 -167 -99 -167 3 0 21 28 41 63 20 34 52 83 72 110 20 26 34 47 31 47 -2 0 -23 -24 -45 -53z"/><path d="M586 946 c-82 -110 -122 -191 -110 -223 5 -15 16 -29 24 -31 11 -4 10 -1 -3 12 -9 10 -17 25 -17 35 0 27 55 126 116 208 30 40 52 73 49 73 -3 0 -29 -33 -59 -74z"/><path d="M760 867 c-39 -15 -79 -36 -67 -37 4 0 20 6 35 14 15 7 46 17 70 21 37 6 42 5 42 -13 0 -42 -37 -111 -132 -243 l-47 -66 -53 2 c-34 2 -39 1 -13 -2 22 -2 45 -9 51 -14 17 -14 15 -81 -2 -100 -13 -14 -9 -16 33 -16 32 0 37 1 16 4 -32 4 -42 16 -24 27 12 8 11 58 -2 74 -7 9 -7 16 -1 20 19 13 132 177 157 227 24 47 31 73 28 103 -1 15 -46 15 -91 -1z"/><path d="M640 840 c-9 -6 -10 -10 -3 -10 6 0 15 5 18 10 8 12 4 12 -15 0z"/><path d="M705 793 c-27 -15 -68 -32 -90 -39 -23 -7 -31 -13 -20 -13 12 -1 57 17 100 38 44 22 76 40 70 40 -5 0 -32 -12 -60 -26z"/><path d="M748 786 c-54 -32 -60 -42 -11 -17 23 11 44 25 48 31 8 13 7 13 -37 -14z"/><path d="M542 744 c10 -10 20 -16 22 -13 3 3 -5 11 -17 18 -21 13 -21 12 -5 -5z"/><path d="M615 719 c-33 -16 -53 -29 -45 -28 8 0 40 13 70 29 71 38 53 37 -25 -1z"/><path d="M528 683 c7 -3 16 -2 19 1 4 3 -2 6 -13 5 -11 0 -14 -3 -6 -6z"/><path d="M218 543 c7 -3 16 -2 19 1 4 3 -2 6 -13 5 -11 0 -14 -3 -6 -6z"/><path d="M255 542 c12 -8 45 -58 45 -68 0 -3 -7 0 -17 7 -15 13 -15 12 -2 -8 9 -16 16 -19 21 -10 5 7 7 0 6 -18 -3 -28 -1 -30 32 -30 33 0 35 2 35 32 0 18 6 38 13 45 12 11 13 5 10 -32 l-3 -45 43 -1 c24 -1 41 1 37 4 -3 3 -21 5 -39 4 l-33 -2 5 50 c4 42 2 49 -10 45 -23 -9 -41 -50 -33 -74 5 -18 2 -21 -25 -21 -27 0 -30 3 -24 24 6 26 -39 106 -60 106 -7 0 -8 -3 -1 -8z"/><path d="M303 543 c9 -2 23 -2 30 0 6 3 -1 5 -18 5 -16 0 -22 -2 -12 -5z"/><path d="M373 543 c15 -2 39 -2 55 0 15 2 2 4 -28 4 -30 0 -43 -2 -27 -4z"/><path d="M503 543 c9 -2 23 -2 30 0 6 3 -1 5 -18 5 -16 0 -22 -2 -12 -5z"/><path d="M183 528 c-5 -7 -10 -33 -10 -58 0 -25 2 -35 4 -22 3 12 9 22 14 22 5 0 4 9 -3 19 -9 15 -9 23 1 35 8 9 11 16 8 16 -2 0 -9 -6 -14 -12z"/><path d="M342 510 c0 -14 2 -19 5 -12 2 6 2 18 0 25 -3 6 -5 1 -5 -13z"/><path d="M460 523 c0 -5 5 -15 10 -23 8 -12 10 -11 10 8 0 12 -4 22 -10 22 -5 0 -10 -3 -10 -7z"/><path d="M535 511 c-4 -13 -4 -38 -1 -56 6 -31 4 -34 -21 -37 -15 -2 4 -4 42 -4 39 0 54 1 34 3 -37 4 -37 5 -32 42 3 21 1 47 -5 56 -9 17 -10 16 -17 -4z"/><path d="M230 500 c20 -13 33 -13 25 0 -3 6 -14 10 -23 10 -15 0 -15 -2 -2 -10z"/><path d="M600 500 c0 -5 5 -10 10 -10 6 0 10 5 10 10 0 6 -4 10 -10 10 -5 0 -10 -4 -10 -10z"/><path d="M492 460 c0 -14 2 -19 5 -12 2 6 2 18 0 25 -3 6 -5 1 -5 -13z"/><path d="M218 458 c5 -5 16 -8 23 -6 8 3 3 7 -10 11 -17 4 -21 3 -13 -5z"/><path d="M600 460 c0 -5 7 -10 16 -10 8 0 12 5 9 10 -3 6 -10 10 -16 10 -5 0 -9 -4 -9 -10z"/><path d="M275 431 c-6 -5 -28 -11 -50 -14 l-40 -4 41 -1 c26 -1 46 3 54 13 14 16 10 21 -5 6z"/><path d="M497 383 c-10 -9 -9 -43 2 -43 13 0 23 32 13 42 -5 5 -11 5 -15 1z"/></g><g transform="translate(0.000000,111.000000) scale(0.100000,-0.100000)" fill="#FFFFFF" stroke="none"><path d="M30 376 c0 -3 9 -10 20 -16 11 -6 20 -8 20 -6 0 3 -9 10 -20 16 -11 6 -20 8 -20 6z"/><path d="M1288 349 c-21 -11 -38 -22 -38 -24 0 -3 18 4 40 15 22 11 40 23 40 25 0 7 0 7 -42 -16z"/><path d="M1214 304 c-18 -14 -18 -15 4 -4 12 6 22 13 22 15 0 8 -5 6 -26 -11z"/><path d="M170 296 c0 -3 14 -12 30 -21 17 -9 30 -13 30 -11 0 3 -13 12 -30 21 -16 9 -30 13 -30 11z"/><path d="M1144 264 c-18 -14 -18 -15 4 -4 12 6 22 13 22 15 0 8 -5 6 -26 -11z"/><path d="M240 256 c0 -3 9 -10 20 -16 11 -6 20 -8 20 -6 0 3 -9 10 -20 16 -11 6 -20 8 -20 6z"/><path d="M1100 240 c-9 -6 -10 -10 -3 -10 6 0 15 5 18 10 8 12 4 12 -15 0z"/><path d="M310 216 c0 -3 9 -10 20 -16 11 -6 20 -8 20 -6 0 3 -9 10 -20 16 -11 6 -20 8 -20 6z"/><path d="M1024 194 c-18 -14 -18 -15 4 -4 12 6 22 13 22 15 0 8 -5 6 -26 -11z"/><path d="M360 186 c0 -3 9 -10 20 -16 11 -6 20 -8 20 -6 0 3 -9 10 -20 16 -11 6 -20 8 -20 6z"/><path d="M430 146 c0 -3 9 -10 20 -16 11 -6 20 -8 20 -6 0 3 -9 10 -20 16 -11 6 -20 8 -20 6z"/><path d="M888 119 c-21 -11 -38 -22 -38 -24 0 -3 18 4 40 15 22 11 40 23 40 25 0 7 0 7 -42 -16z"/><path d="M500 106 c0 -3 9 -10 20 -16 11 -6 20 -8 20 -6 0 3 -9 10 -20 16 -11 6 -20 8 -20 6z"/><path d="M814 74 c-18 -14 -18 -15 4 -4 12 6 22 13 22 15 0 8 -5 6 -26 -11z"/><path d="M550 76 c0 -3 14 -12 30 -21 17 -9 30 -13 30 -11 0 3 -13 12 -30 21 -16 9 -30 13 -30 11z"/><path d="M744 34 c-18 -14 -18 -15 4 -4 12 6 22 13 22 15 0 8 -5 6 -26 -11z"/><path d="M640 21 c26 -21 65 -28 74 -12 3 4 -5 6 -18 4 -13 -3 -37 3 -52 12 l-29 17 25 -21z"/></g></svg>