<svg version="1.0" xmlns="http://www.w3.org/2000/svg" width="400.000000" height="90.000000" viewBox="0 0 400.000000 90.000000" preserveAspectRatio="xMidYMid meet"><rect x="219" y="31" width="21" height="5" fill="rgb(250,116,0)" /><rect x="319" y="31" width="21" height="5" fill="rgb(250,116,0)" /><rect x="379" y="31" width="21" height="5" fill="rgb(250,116,0)" /><rect x="379" y="35" width="21" height="5" fill="rgb(250,116,0)" /><rect x="159" y="39" width="21" height="5" fill="rgb(250,116,0)" /><rect x="359" y="39" width="21" height="5" fill="rgb(250,116,0)" /><rect x="379" y="39" width="21" height="5" fill="rgb(250,116,0)" /><rect x="159" y="43" width="21" height="5" fill="rgb(250,116,0)" /><rect x="219" y="55" width="21" height="5" fill="rgb(250,116,0)" /><rect x="319" y="55" width="21" height="5" fill="rgb(250,116,0)" /><g transform="translate(0.000000,90.000000) scale(0.100000,-0.100000)" fill="#FF7900" stroke="none"><path d="M1000 472 c0 -175 -5 -170 192 -171 141 -1 148 0 175 23 28 24 28 26 31 150 l4 126 -96 0 -95 0 -3 -110 c-4 -147 -22 -149 -26 -2 l-3 112 -89 0 -90 0 0 -128z"/><path d="M1446 593 c-3 -4 -6 -71 -6 -150 l0 -143 85 0 84 0 3 58 3 57 30 -57 30 -58 88 0 87 0 0 150 0 151 -82 -3 -83 -3 -5 -43 -5 -43 -24 45 -23 45 -88 0 c-49 0 -91 -3 -94 -6z"/><path d="M1900 450 l0 -150 90 0 91 0 -2 150 -1 150 -89 0 -89 0 0 -150z"/><path d="M2164 592 c-25 -16 -34 -56 -34 -151 0 -144 -4 -141 198 -141 153 0 159 1 180 23 15 16 22 36 22 65 l0 42 -90 0 c-89 0 -90 0 -90 -25 0 -16 -6 -25 -15 -25 -12 0 -15 14 -15 70 0 44 4 70 11 70 6 0 13 -9 16 -20 5 -18 14 -20 78 -20 41 0 80 3 89 6 23 9 21 69 -4 94 -18 18 -33 20 -177 20 -87 0 -163 -4 -169 -8z"/><path d="M2580 450 l0 -150 90 0 90 0 0 65 c0 51 3 65 15 65 11 0 15 -13 16 -52 1 -29 1 -59 0 -65 -1 -10 23 -13 94 -13 l95 0 0 150 0 151 -92 -3 -93 -3 -3 -47 c-2 -37 -7 -48 -20 -48 -14 0 -16 8 -14 50 l4 50 -91 0 -91 0 0 -150z"/><path d="M3030 450 l0 -150 196 0 195 0 -3 38 -3 37 -102 3 c-94 2 -103 4 -103 22 0 17 9 19 83 22 l82 3 3 38 3 38 -63 -1 c-94 -2 -108 -1 -108 10 0 6 42 10 105 10 l105 0 0 40 0 40 -195 0 -195 0 0 -150z"/><path d="M3470 450 l0 -150 80 0 79 0 3 67 3 67 45 -67 c25 -36 48 -67 52 -67 4 0 29 31 55 70 l48 70 3 -70 3 -70 79 0 80 0 0 150 0 150 -114 0 -113 0 -19 -47 -18 -48 -20 48 -20 47 -113 0 -113 0 0 -150z"/></g><g transform="translate(0.000000,90.000000) scale(0.100000,-0.100000)" fill="#261919" stroke="none"><path d="M656 731 c3 -3 11 -6 17 -6 7 -1 11 -7 9 -15 -2 -8 0 -12 4 -8 4 4 14 2 23 -4 9 -7 6 -1 -7 13 -12 14 -29 26 -37 26 -8 0 -12 -3 -9 -6z"/><path d="M330 699 c0 -5 5 -7 10 -4 6 3 10 8 10 11 0 2 -4 4 -10 4 -5 0 -10 -5 -10 -11z"/><path d="M654 690 c0 -13 4 -16 10 -10 7 7 7 13 0 20 -6 6 -10 3 -10 -10z"/><path d="M510 615 c13 -14 26 -25 28 -25 3 0 -5 11 -18 25 -13 14 -26 25 -28 25 -3 0 5 -11 18 -25z"/><path d="M686 567 c3 -10 9 -15 12 -12 3 3 0 11 -7 18 -10 9 -11 8 -5 -6z"/><path d="M314 370 c0 -63 1 -89 3 -57 2 31 2 83 0 115 -2 31 -3 5 -3 -58z"/><path d="M584 370 c0 -63 1 -89 3 -57 2 31 2 83 0 115 -2 31 -3 5 -3 -58z"/><path d="M61 444 c0 -11 3 -14 6 -6 3 7 2 16 -1 19 -3 4 -6 -2 -5 -13z"/><path d="M831 444 c0 -11 3 -14 6 -6 3 7 2 16 -1 19 -3 4 -6 -2 -5 -13z"/><path d="M384 436 c-3 -8 -4 -25 -2 -38 3 -17 5 -13 9 15 5 38 2 47 -7 23z"/><path d="M502 409 c-7 -12 -11 -24 -8 -27 3 -3 6 1 6 9 0 11 2 11 10 -1 8 -12 10 -9 10 13 0 33 -1 33 -18 6z"/><path d="M380 310 c0 -16 4 -30 8 -30 5 0 7 14 4 30 -2 17 -6 30 -8 30 -2 0 -4 -13 -4 -30z"/><path d="M508 305 c-3 -14 -1 -25 3 -25 5 0 9 11 9 25 0 14 -2 25 -4 25 -2 0 -6 -11 -8 -25z"/><path d="M130 216 c0 -2 8 -10 18 -17 15 -13 16 -12 3 4 -13 16 -21 21 -21 13z"/><path d="M689 183 c-13 -16 -12 -17 4 -4 16 13 21 21 13 21 -2 0 -10 -8 -17 -17z"/><path d="M532 170 c0 -14 2 -19 5 -12 2 6 2 18 0 25 -3 6 -5 1 -5 -13z"/><path d="M1834 95 c0 -55 1 -76 3 -47 2 29 2 74 0 100 -2 26 -3 2 -3 -53z"/><path d="M2944 95 c0 -55 1 -76 3 -47 2 29 2 74 0 100 -2 26 -3 2 -3 -53z"/><path d="M553 161 c1 -14 9 -26 17 -28 10 -3 11 -2 4 4 -7 4 -14 17 -17 28 -5 16 -5 15 -4 -4z"/><path d="M2994 140 c1 -11 15 -15 56 -16 l55 -1 -52 4 c-28 2 -54 9 -56 16 -2 7 -3 5 -3 -3z"/><path d="M408 133 c7 -3 16 -2 19 1 4 3 -2 6 -13 5 -11 0 -14 -3 -6 -6z"/><path d="M488 133 c7 -3 16 -2 19 1 4 3 -2 6 -13 5 -11 0 -14 -3 -6 -6z"/><path d="M2994 75 c-3 -8 -4 -20 -1 -27 3 -7 6 -3 6 9 1 19 8 22 49 26 l47 3 -48 2 c-34 1 -49 -2 -53 -13z"/><path d="M1925 60 c10 -11 20 -20 23 -20 3 0 -3 9 -13 20 -10 11 -20 20 -23 20 -3 0 3 -9 13 -20z"/><path d="M2410 61 c0 -6 4 -13 10 -16 6 -3 7 1 4 9 -7 18 -14 21 -14 7z"/><path d="M1610 36 c0 -2 8 -10 18 -17 15 -13 16 -12 3 4 -13 16 -21 21 -21 13z"/><path d="M3952 20 c0 -14 2 -19 5 -12 2 6 2 18 0 25 -3 6 -5 1 -5 -13z"/></g><g transform="translate(0.000000,90.000000) scale(0.100000,-0.100000)" fill="#1F1F19" stroke="none"><path d="M398 843 c7 -3 16 -2 19 1 4 3 -2 6 -13 5 -11 0 -14 -3 -6 -6z"/><path d="M415 779 c-4 -6 -5 -12 -2 -15 2 -3 7 2 10 11 7 17 1 20 -8 4z"/><path d="M391 764 c0 -11 3 -14 6 -6 3 7 2 16 -1 19 -3 4 -6 -2 -5 -13z"/><path d="M680 767 c0 -2 15 -16 33 -33 l32 -29 -29 33 c-28 30 -36 37 -36 29z"/><path d="M643 695 c0 -8 4 -12 9 -9 5 3 6 10 3 15 -9 13 -12 11 -12 -6z"/><path d="M434 668 c-4 -7 -3 -8 5 -4 6 4 20 2 29 -6 15 -12 16 -11 3 5 -16 20 -27 22 -37 5z"/><path d="M621 644 c23 -25 40 -34 21 -11 -6 6 -10 16 -9 21 1 5 -6 10 -17 12 -16 2 -16 0 5 -22z"/><path d="M530 606 c0 -2 8 -10 18 -17 15 -13 16 -12 3 4 -13 16 -21 21 -21 13z"/><path d="M713 585 c0 -8 4 -12 9 -9 5 3 6 10 3 15 -9 13 -12 11 -12 -6z"/><path d="M71 514 c0 -11 3 -14 6 -6 3 7 2 16 -1 19 -3 4 -6 -2 -5 -13z"/><path d="M600 506 c0 -2 8 -10 18 -17 15 -13 16 -12 3 4 -13 16 -21 21 -21 13z"/><path d="M91 484 c0 -11 3 -14 6 -6 3 7 2 16 -1 19 -3 4 -6 -2 -5 -13z"/><path d="M191 464 c0 -11 3 -14 6 -6 3 7 2 16 -1 19 -3 4 -6 -2 -5 -13z"/><path d="M701 434 c0 -11 3 -14 6 -6 3 7 2 16 -1 19 -3 4 -6 -2 -5 -13z"/><path d="M332 410 c0 -19 2 -27 5 -17 2 9 2 25 0 35 -3 9 -5 1 -5 -18z"/><path d="M562 410 c0 -19 2 -27 5 -17 2 9 2 25 0 35 -3 9 -5 1 -5 -18z"/><path d="M801 414 c0 -11 3 -14 6 -6 3 7 2 16 -1 19 -3 4 -6 -2 -5 -13z"/><path d="M821 384 c0 -11 3 -14 6 -6 3 7 2 16 -1 19 -3 4 -6 -2 -5 -13z"/><path d="M332 310 c0 -19 2 -27 5 -17 2 9 2 25 0 35 -3 9 -5 1 -5 -18z"/><path d="M562 310 c0 -19 2 -27 5 -17 2 9 2 25 0 35 -3 9 -5 1 -5 -18z"/><path d="M265 260 c10 -11 20 -20 23 -20 3 0 -3 9 -13 20 -10 11 -20 20 -23 20 -3 0 3 -9 13 -20z"/><path d="M619 253 c-13 -16 -12 -17 4 -4 9 7 17 15 17 17 0 8 -8 3 -21 -13z"/><path d="M371 245 c-1 -15 -3 -17 -10 -6 -5 7 -14 12 -21 9 -9 -3 -8 -9 5 -22 21 -20 39 -8 32 20 -4 17 -5 17 -6 -1z"/><path d="M393 234 c1 -26 4 -30 24 -26 13 2 26 8 29 13 3 5 -3 6 -12 2 -13 -5 -15 -3 -9 8 7 12 6 12 -7 1 -14 -11 -17 -10 -21 10 -3 16 -4 14 -4 -8z"/><path d="M462 240 c0 -14 2 -19 5 -12 2 6 2 18 0 25 -3 6 -5 1 -5 -13z"/><path d="M480 235 c0 -14 5 -25 10 -25 6 0 10 11 10 25 0 14 -4 25 -10 25 -5 0 -10 -11 -10 -25z"/><path d="M1008 193 c6 -2 18 -2 25 0 6 3 1 5 -13 5 -14 0 -19 -2 -12 -5z"/><path d="M1253 193 c9 -2 23 -2 30 0 6 3 -1 5 -18 5 -16 0 -22 -2 -12 -5z"/><path d="M1394 187 c-3 -8 -4 -52 -2 -98 l3 -84 60 -1 60 0 -57 3 -58 4 0 89 0 89 58 4 57 3 -58 2 c-40 1 -59 -2 -63 -11z"/><path d="M1868 193 c17 -2 47 -2 65 0 17 2 3 4 -33 4 -36 0 -50 -2 -32 -4z"/><path d="M2120 196 c0 -2 11 -6 25 -8 13 -3 22 -1 19 3 -5 9 -44 13 -44 5z"/><path d="M2273 193 c26 -2 67 -2 90 0 23 2 2 3 -48 3 -49 0 -68 -1 -42 -3z"/><path d="M2678 193 c17 -2 47 -2 65 0 17 2 3 4 -33 4 -36 0 -50 -2 -32 -4z"/><path d="M2864 187 c-3 -8 -4 -51 -2 -98 3 -72 6 -84 21 -85 12 -1 13 -1 2 3 -12 4 -15 23 -15 93 0 84 1 89 23 93 l22 4 -23 2 c-12 0 -25 -5 -28 -12z"/><path d="M3025 193 c89 -4 99 -20 18 -26 l-58 -4 60 1 c46 1 60 4 60 16 0 12 -16 15 -78 16 l-77 0 75 -3z"/><path d="M3438 193 c6 -2 18 -2 25 0 6 3 1 5 -13 5 -14 0 -19 -2 -12 -5z"/><path d="M3613 193 c26 -2 67 -2 90 0 23 2 2 3 -48 3 -49 0 -68 -1 -42 -3z"/><path d="M3793 193 c15 -2 39 -2 55 0 15 2 2 4 -28 4 -30 0 -43 -2 -27 -4z"/><path d="M410 181 c0 -10 19 -25 25 -20 1 2 -3 10 -11 17 -8 7 -14 8 -14 3z"/><path d="M471 174 c0 -11 3 -14 6 -6 3 7 2 16 -1 19 -3 4 -6 -2 -5 -13z"/><path d="M185 160 c10 -11 20 -20 23 -20 3 0 -3 9 -13 20 -10 11 -20 20 -23 20 -3 0 3 -9 13 -20z"/><path d="M1453 163 c9 -2 25 -2 35 0 9 3 1 5 -18 5 -19 0 -27 -2 -17 -5z"/><path d="M1903 163 c9 -2 25 -2 35 0 9 3 1 5 -18 5 -19 0 -27 -2 -17 -5z"/><path d="M2243 163 c9 -2 25 -2 35 0 9 3 1 5 -18 5 -19 0 -27 -2 -17 -5z"/><path d="M2337 163 c-4 -3 -7 -39 -7 -79 0 -61 -3 -73 -17 -77 -14 -3 -13 -4 2 -3 18 1 20 9 23 78 l3 77 32 4 32 4 -31 1 c-17 1 -34 -1 -37 -5z"/><path d="M2694 155 c-11 -28 4 -45 38 -43 l33 1 -32 4 c-24 3 -33 9 -33 23 0 14 9 20 33 23 l32 4 -33 1 c-21 1 -35 -3 -38 -13z"/><path d="M3583 163 c9 -2 25 -2 35 0 9 3 1 5 -18 5 -19 0 -27 -2 -17 -5z"/><path d="M3677 163 c-4 -3 -7 -39 -7 -79 0 -61 -3 -73 -17 -77 -14 -3 -13 -4 2 -3 18 1 20 9 23 78 l3 77 32 4 32 4 -31 1 c-17 1 -34 -1 -37 -5z"/><path d="M3818 163 c6 -2 18 -2 25 0 6 3 1 5 -13 5 -14 0 -19 -2 -12 -5z"/><path d="M2411 114 c0 -11 3 -14 6 -6 3 7 2 16 -1 19 -3 4 -6 -2 -5 -13z"/><path d="M1898 113 c12 -2 30 -2 40 0 9 3 -1 5 -23 4 -22 0 -30 -2 -17 -4z"/><path d="M1966 91 c-3 -4 4 -17 17 -27 22 -19 22 -19 4 2 -9 11 -14 24 -10 27 3 4 4 7 0 7 -3 0 -8 -4 -11 -9z"/><path d="M2697 83 c-4 -3 -7 -21 -7 -39 0 -26 -5 -34 -22 -37 -20 -5 -20 -5 2 -4 21 2 26 8 31 45 3 23 5 42 4 42 -1 0 -5 -3 -8 -7z"/><path d="M2730 76 c0 -2 8 -10 18 -17 15 -13 16 -12 3 4 -13 16 -21 21 -21 13z"/><path d="M488 53 c7 -3 16 -2 19 1 4 3 -2 6 -13 5 -11 0 -14 -3 -6 -6z"/><path d="M1068 33 c18 -2 45 -2 60 0 15 2 0 4 -33 4 -33 0 -45 -2 -27 -4z"/><path d="M1453 33 c9 -2 25 -2 35 0 9 3 1 5 -18 5 -19 0 -27 -2 -17 -5z"/><path d="M1688 33 c6 -2 18 -2 25 0 6 3 1 5 -13 5 -14 0 -19 -2 -12 -5z"/><path d="M3018 33 c17 -2 47 -2 65 0 17 2 3 4 -33 4 -36 0 -50 -2 -32 -4z"/><path d="M3518 33 c76 -6 64 -22 -20 -26 l-73 -4 75 1 c60 1 75 4 75 16 0 11 -13 15 -55 16 l-55 1 53 -4z"/><path d="M3823 33 c9 -2 23 -2 30 0 6 3 -1 5 -18 5 -16 0 -22 -2 -12 -5z"/><path d="M1160 9 c0 -5 9 -9 20 -9 11 0 20 2 20 4 0 2 -9 6 -20 9 -11 3 -20 1 -20 -4z"/><path d="M1340 10 l-25 -8 28 -1 c15 -1 27 4 27 9 0 6 -1 10 -2 9 -2 -1 -14 -5 -28 -9z"/><path d="M2810 10 l-25 -8 28 -1 c15 -1 27 4 27 9 0 6 -1 10 -2 9 -2 -1 -14 -5 -28 -9z"/><path d="M1038 3 c23 -2 59 -2 80 0 20 2 1 4 -43 4 -44 0 -61 -2 -37 -4z"/><path d="M1848 3 c6 -2 18 -2 25 0 6 3 1 5 -13 5 -14 0 -19 -2 -12 -5z"/><path d="M1993 3 c9 -2 23 -2 30 0 6 3 -1 5 -18 5 -16 0 -22 -2 -12 -5z"/><path d="M2048 3 c7 -3 16 -2 19 1 4 3 -2 6 -13 5 -11 0 -14 -3 -6 -6z"/><path d="M2208 3 c6 -2 18 -2 25 0 6 3 1 5 -13 5 -14 0 -19 -2 -12 -5z"/><path d="M2988 3 c23 -2 61 -2 85 0 23 2 4 4 -43 4 -47 0 -66 -2 -42 -4z"/><path d="M3798 3 c18 -2 45 -2 60 0 15 2 0 4 -33 4 -33 0 -45 -2 -27 -4z"/><path d="M3968 3 c6 -2 18 -2 25 0 6 3 1 5 -13 5 -14 0 -19 -2 -12 -5z"/></g><g transform="translate(0.000000,90.000000) scale(0.100000,-0.100000)" fill="#261F19" stroke="none"><path d="M0 450 l0 -450 450 0 450 0 0 450 0 450 -450 0 -450 0 0 -450z m870 0 l0 -420 -420 0 -420 0 0 420 0 420 420 0 420 0 0 -420z"/><path d="M366 838 c-8 -4 -22 -9 -32 -11 -47 -9 -112 -50 -158 -101 -32 -34 -78 -105 -83 -128 -1 -7 -4 -20 -5 -28 -2 -8 -6 -19 -10 -25 -3 -5 -5 -53 -4 -105 1 -86 5 -101 35 -161 33 -68 84 -129 137 -164 41 -28 74 -45 74 -38 0 3 7 0 15 -7 8 -7 15 -9 15 -5 0 4 6 3 13 -3 10 -8 166 -10 175 -2 1 1 7 4 12 5 6 1 12 4 15 5 3 1 8 4 13 5 32 10 72 31 72 37 0 4 6 8 13 8 18 0 90 80 106 118 7 17 18 32 23 32 5 0 7 4 4 8 -3 5 1 20 9 35 8 15 11 27 8 27 -3 0 -1 6 5 13 16 19 9 211 -8 232 -8 10 -13 19 -11 19 9 2 -11 46 -21 46 -6 0 -9 3 -5 6 8 8 -30 50 -117 129 -10 10 -62 36 -78 41 -5 1 -10 3 -13 4 -3 1 -8 3 -12 5 -5 1 -15 4 -23 8 -21 8 -148 4 -164 -5z m197 -39 c56 -16 76 -29 125 -77 85 -83 115 -156 115 -277 0 -114 -32 -186 -123 -273 -100 -97 -238 -121 -373 -63 -51 22 -141 104 -151 139 -4 12 -12 22 -17 22 -6 0 -8 4 -5 9 4 5 2 11 -4 13 -5 1 -11 14 -14 28 -2 14 -5 25 -6 25 -11 0 -16 148 -7 185 3 14 8 35 11 47 10 45 28 72 100 145 54 55 111 85 178 94 24 4 45 8 47 10 5 5 40 -3 124 -27z"/><path d="M410 797 c-9 -7 -14 -24 -12 -40 3 -24 7 -28 29 -25 15 2 28 9 31 17 3 9 -1 11 -16 7 -23 -8 -40 10 -24 26 6 6 12 6 16 -1 10 -16 26 -14 26 3 0 8 -7 17 -16 20 -19 7 -16 8 -34 -7z"/><path d="M523 788 c-7 -8 -15 -28 -19 -44 -5 -28 -8 -29 -57 -28 -29 1 -57 -3 -63 -8 -13 -10 -30 8 -36 37 -2 11 -11 21 -20 23 -23 4 -12 -34 15 -53 20 -14 20 -15 -9 -27 -39 -17 -84 -58 -95 -85 -5 -13 -13 -23 -19 -23 -6 0 -9 4 -5 9 8 14 -24 41 -48 40 l-22 0 23 -11 c35 -17 28 -39 -10 -32 l-33 6 30 -20 c19 -12 34 -16 42 -10 12 10 27 -5 16 -16 -19 -18 -20 -171 -3 -193 2 -2 3 -6 4 -10 4 -19 31 -59 50 -74 37 -30 46 -8 46 107 0 100 -1 104 -21 104 -21 0 -20 1 5 21 14 11 26 29 26 39 0 11 16 34 36 52 21 18 50 46 66 62 l29 29 23 -24 c13 -13 42 -40 65 -59 23 -19 41 -43 41 -54 0 -11 12 -30 28 -43 26 -22 26 -22 5 -23 -22 0 -23 -3 -23 -103 0 -115 8 -135 46 -110 13 8 24 21 24 28 0 7 7 18 15 25 8 6 14 15 13 18 0 4 1 9 2 12 12 32 20 150 11 165 -3 6 -7 19 -8 30 -2 10 -9 23 -16 27 -8 5 -7 8 5 8 9 0 18 -9 20 -21 3 -20 4 -20 35 4 23 17 29 27 21 35 -12 12 -41 5 -33 -8 3 -5 1 -11 -4 -14 -5 -4 -8 2 -7 11 2 9 8 19 14 21 16 5 15 42 0 42 -7 -1 -24 -10 -37 -21 -21 -17 -22 -22 -10 -30 11 -7 11 -9 -3 -9 -10 0 -18 4 -18 9 0 24 -101 103 -135 105 -14 1 -12 29 2 33 7 3 16 -2 19 -11 3 -9 11 -16 17 -16 6 0 7 3 4 7 -4 3 -2 12 4 20 6 7 8 13 4 13 -4 0 -1 7 6 17 13 15 11 16 -13 10 -20 -5 -27 -3 -30 10 -3 14 -4 14 -15 1z"/><path d="M634 732 c-6 -4 -16 -17 -22 -28 -10 -19 -8 -24 13 -38 26 -17 34 -9 13 13 -11 12 -10 13 6 7 16 -5 17 -4 6 9 -15 18 1 20 18 3 7 -7 12 -8 12 -2 0 17 -34 44 -46 36z"/><path d="M243 718 c1 -7 -6 -12 -15 -10 -22 4 -22 0 0 -37 12 -20 22 -27 31 -22 7 5 12 12 12 17 -1 5 3 9 8 9 22 0 23 17 3 35 -24 23 -43 26 -39 8z"/><path d="M335 413 c0 -21 5 -41 10 -45 7 -5 7 -10 0 -15 -5 -5 -10 -25 -10 -46 0 -32 3 -37 22 -37 22 0 22 3 20 88 -2 79 -4 87 -22 90 -17 2 -20 -3 -20 -35z"/><path d="M397 443 c-11 -10 -8 -41 4 -45 9 -3 9 -9 0 -25 -14 -28 -14 -76 1 -91 18 -18 95 -15 102 4 11 27 6 82 -6 87 -10 3 -10 9 0 26 24 41 16 51 -41 51 -30 0 -57 -3 -60 -7z"/><path d="M525 438 c-2 -7 -3 -47 -2 -88 2 -67 4 -75 22 -78 17 -2 20 3 20 35 0 21 -4 41 -10 46 -7 5 -7 10 0 15 6 4 10 24 10 45 0 29 -4 37 -18 37 -10 0 -19 -6 -22 -12z"/><path d="M340 253 c8 -3 18 -11 22 -17 5 -7 8 -4 8 7 0 11 -7 17 -22 16 -16 0 -18 -2 -8 -6z"/><path d="M381 243 c-1 -30 -16 -37 -36 -16 -16 16 -17 15 -13 -3 2 -13 12 -19 31 -20 33 -1 36 3 26 36 -6 23 -7 23 -8 3z"/><path d="M400 239 c0 -11 4 -18 10 -14 5 3 7 12 3 20 -7 21 -13 19 -13 -6z"/><path d="M423 240 c1 -12 7 -18 14 -16 7 3 10 -1 6 -10 -4 -10 3 -14 28 -13 32 0 33 1 12 11 -13 6 -23 20 -23 32 0 17 -2 18 -10 6 -6 -10 -10 -11 -10 -2 0 6 -4 12 -9 12 -6 0 -9 -9 -8 -20z"/><path d="M508 230 c2 -16 9 -27 14 -24 5 4 7 15 5 26 -4 12 -1 18 6 15 7 -2 11 -11 9 -20 -1 -8 2 -18 8 -22 5 -3 10 0 10 9 0 8 3 21 6 30 5 13 -1 16 -28 16 -33 0 -34 -2 -30 -30z"/><path d="M280 158 c0 -25 3 -29 10 -18 5 8 10 10 10 5 0 -6 18 -11 40 -11 31 -1 40 3 35 13 -3 8 -5 21 -5 29 0 8 -10 14 -24 14 -18 0 -26 -7 -29 -22 l-4 -23 -2 23 c-2 37 -31 27 -31 -10z"/><path d="M380 173 c0 -10 4 -22 8 -28 9 -13 82 -17 82 -4 0 5 11 4 26 -1 44 -17 54 -13 53 23 -2 30 -2 30 -6 4 -5 -30 -23 -27 -23 4 0 24 -37 26 -43 2 -4 -17 -5 -17 -6 0 -1 11 -9 17 -26 17 -24 0 -34 -13 -17 -23 4 -2 2 -2 -5 -1 -6 2 -14 -2 -17 -9 -2 -7 -5 -2 -5 11 -1 26 -21 31 -21 5z"/><path d="M560 165 c0 -14 5 -25 10 -25 6 0 10 9 10 20 0 11 5 20 10 20 6 0 10 -12 10 -26 0 -31 16 -24 22 11 5 23 2 25 -28 25 -30 0 -34 -3 -34 -25z"/><path d="M1395 100 l0 -95 69 2 c77 1 106 17 106 57 0 16 -7 27 -21 31 -16 5 -18 9 -8 15 19 12 22 55 4 70 -10 8 -44 14 -83 14 l-67 1 0 -95z m113 62 c24 -16 2 -42 -34 -42 -30 0 -34 3 -34 25 0 21 5 25 28 25 15 0 33 -4 40 -8z m12 -101 c0 -21 -19 -31 -56 -31 -19 0 -24 5 -24 25 0 23 4 25 40 25 33 0 40 -4 40 -19z"/><path d="M1634 175 c-48 -37 -42 -124 10 -158 26 -17 94 -15 124 4 47 29 46 125 -2 159 -34 24 -99 21 -132 -5z m101 -22 c28 -16 30 -64 4 -97 -26 -33 -53 -33 -77 2 -25 35 -24 61 1 89 21 23 38 25 72 6z"/><path d="M1903 193 l-63 -4 0 -89 c0 -89 0 -90 25 -90 22 0 25 4 25 39 0 33 3 38 18 34 10 -2 28 -21 41 -41 22 -35 25 -37 76 -37 46 0 55 3 59 20 4 17 12 20 56 17 40 -3 50 -8 50 -22 0 -13 6 -16 25 -12 21 3 23 7 14 23 -5 11 -7 19 -4 19 3 0 -2 15 -12 33 -9 17 -18 38 -19 45 -5 27 -34 60 -57 64 -18 4 -26 -1 -36 -23 -7 -16 -11 -30 -9 -31 1 -2 -8 -20 -20 -40 -13 -21 -21 -38 -17 -38 3 0 1 -9 -5 -20 -11 -21 -40 -28 -40 -9 0 6 -11 20 -25 31 -14 11 -22 24 -19 29 3 6 8 8 11 5 10 -10 36 25 36 50 0 22 -29 56 -43 52 -3 -1 -33 -3 -67 -5z m52 -53 c0 -21 -5 -25 -36 -28 -35 -3 -36 -2 -31 28 4 28 8 31 36 28 26 -2 31 -7 31 -28z m201 -57 c-2 -3 -13 -3 -23 -1 -17 3 -18 7 -10 38 l9 35 14 -34 c8 -19 12 -36 10 -38z"/><path d="M2443 174 c-38 -35 -38 -97 -2 -139 25 -28 34 -32 78 -31 64 2 93 29 96 92 4 63 -29 97 -97 99 -40 1 -56 -3 -75 -21z m119 -44 c15 -30 15 -36 2 -62 -8 -15 -18 -28 -22 -29 -4 0 -14 -2 -23 -4 -21 -4 -57 26 -59 50 -4 34 -1 44 20 63 30 28 62 21 82 -18z"/><path d="M2713 193 l-63 -4 0 -88 c0 -85 1 -89 23 -93 20 -4 23 -1 19 24 -2 15 -2 34 1 42 9 23 47 6 69 -30 14 -24 27 -34 44 -34 31 0 30 9 -5 47 l-28 31 23 11 c13 6 25 15 25 21 1 5 2 16 3 23 2 13 -33 58 -43 55 -3 -1 -34 -3 -68 -5z m51 -29 c9 -3 16 -14 16 -24 0 -31 -75 -44 -86 -15 -14 36 23 57 70 39z"/><path d="M2865 101 c0 -93 1 -96 23 -96 21 0 22 3 22 91 0 87 -1 92 -22 96 -23 4 -23 2 -23 -91z"/><path d="M3028 193 l-78 -4 0 -89 0 -90 80 0 c47 0 80 4 80 10 0 6 -27 10 -61 10 -60 0 -60 0 -57 28 3 25 7 27 56 30 36 2 52 7 52 17 0 10 -16 15 -52 17 -47 3 -53 6 -56 26 -4 23 -2 24 55 20 51 -3 59 -1 59 15 0 9 0 16 -1 15 0 -1 -35 -4 -77 -5z"/><path d="M3180 189 c-31 -13 -38 -24 -33 -53 5 -26 30 -43 75 -51 37 -7 51 -23 34 -40 -16 -17 -56 -12 -68 8 -5 9 -20 17 -33 17 -35 0 -21 -35 22 -55 37 -18 111 -13 119 8 22 62 2 89 -75 103 -36 7 -43 14 -31 28 11 14 60 10 60 -5 0 -5 11 -9 25 -9 37 0 30 26 -12 49 -26 13 -49 13 -83 0z"/><path d="M3760 100 l0 -95 72 3 c69 4 101 17 105 45 1 4 4 20 8 36 6 29 -5 59 -33 90 -9 9 -37 14 -83 15 l-69 1 0 -95z m110 55 c25 -13 28 -19 26 -57 -4 -45 -25 -68 -63 -68 -22 0 -23 4 -23 70 0 77 6 83 60 55z"/><path d="M1000 100 l0 -90 75 0 c43 0 75 4 75 10 0 6 -24 10 -52 10 l-53 0 3 80 4 80 -26 0 -26 0 0 -90z"/><path d="M1230 180 c0 -5 1 -11 2 -12 2 -2 -8 -20 -20 -40 -13 -21 -21 -38 -17 -38 4 0 -3 -16 -15 -35 l-22 -35 24 -9 c23 -8 42 4 32 21 -3 4 17 8 44 8 35 0 52 -4 56 -15 5 -15 37 -21 49 -9 3 4 0 19 -9 35 -8 16 -13 30 -12 31 2 2 -9 24 -24 49 -15 26 -24 49 -21 53 3 3 -10 6 -30 6 -20 0 -37 -4 -37 -10z m50 -69 c8 -30 7 -31 -21 -31 -29 0 -29 0 -13 25 9 14 13 25 10 25 -4 0 -4 5 -1 11 9 14 14 8 25 -30z"/><path d="M2230 180 c0 -5 14 -10 30 -10 l30 0 0 -79 c0 -74 1 -79 23 -83 21 -4 22 -2 22 76 l0 81 33 3 c66 7 29 22 -53 22 -50 0 -85 -4 -85 -10z"/><path d="M3420 98 l0 -93 78 0 c62 0 78 3 78 15 0 12 -11 14 -53 12 l-53 -4 0 81 c0 80 0 81 -25 81 -25 0 -25 0 -25 -92z"/><path d="M3570 180 c0 -5 14 -10 30 -10 l30 0 0 -79 c0 -74 1 -79 23 -83 21 -4 22 -2 22 76 l0 81 33 3 c66 7 29 22 -53 22 -50 0 -85 -4 -85 -10z"/><path d="M3960 25 c0 -8 9 -15 20 -15 11 0 20 7 20 15 0 8 -9 15 -20 15 -11 0 -20 -7 -20 -15z"/></g></svg>