<svg version="1.0" xmlns="http://www.w3.org/2000/svg" width="67.000000" height="60.000000" viewBox="0 0 67.000000 60.000000" preserveAspectRatio="xMidYMid meet"><rect x="23" y="0" width="9" height="8" fill="rgb(254,114,0)" /><rect x="0" y="27" width="9" height="8" fill="rgb(254,146,0)" /><g transform="translate(0.000000,60.000000) scale(0.100000,-0.100000)" fill="#FF5900" stroke="none"><path d="M249 596 c-4 -4 -19 -9 -34 -12 -15 -3 -39 -11 -54 -19 -38 -20 -104 -91 -96 -104 4 -7 1 -10 -7 -9 -7 2 -12 -3 -11 -9 2 -7 -1 -13 -5 -13 -17 0 -37 -86 -36 -155 0 -75 22 -132 63 -169 l21 -19 -19 44 c-45 101 -39 203 15 295 30 51 44 64 95 88 48 23 70 27 117 24 31 -1 59 -6 62 -10 3 -3 11 -8 19 -10 33 -8 112 -117 116 -160 4 -43 15 -27 15 21 0 89 -44 157 -127 196 -39 19 -123 32 -134 21z"/></g><g transform="translate(0.000000,60.000000) scale(0.100000,-0.100000)" fill="#FF8C00" stroke="none"><path d="M95 518 l-40 -43 43 40 c39 36 47 45 39 45 -2 0 -21 -19 -42 -42z"/><path d="M164 438 l-19 -23 23 19 c21 18 27 26 19 26 -2 0 -12 -10 -23 -22z"/><path d="M420 436 c0 -2 8 -10 18 -17 15 -13 16 -12 3 4 -13 16 -21 21 -21 13z"/><path d="M513 385 c0 -27 2 -38 4 -22 2 15 2 37 0 50 -2 12 -4 0 -4 -28z"/><path d="M490 319 c0 -5 5 -7 10 -4 6 3 10 8 10 11 0 2 -4 4 -10 4 -5 0 -10 -5 -10 -11z"/><path d="M56 170 c7 -28 12 -35 18 -29 2 2 -2 15 -10 29 l-15 25 7 -25z"/><path d="M28 145 c15 -28 71 -80 79 -72 3 4 16 -1 27 -10 21 -18 21 -18 3 4 -11 12 -25 19 -32 17 -8 -3 -12 3 -11 17 0 12 -6 24 -14 26 -12 4 -12 3 -1 -5 8 -6 9 -12 3 -16 -6 -3 -22 8 -37 26 -15 18 -22 24 -17 13z"/><path d="M170 87 c0 -2 15 -16 33 -33 l32 -29 -29 33 c-28 30 -36 37 -36 29z"/><path d="M246 12 c-3 -4 4 -9 15 -9 23 -2 25 3 4 10 -8 4 -16 3 -19 -1z"/></g><g transform="translate(0.000000,60.000000) scale(0.100000,-0.100000)" fill="#FFAC00" stroke="none"><path d="M278 493 c12 -2 30 -2 40 0 9 3 -1 5 -23 4 -22 0 -30 -2 -17 -4z"/><path d="M103 290 c0 -25 2 -35 4 -22 2 12 2 32 0 45 -2 12 -4 2 -4 -23z"/><path d="M40 225 c0 -5 5 -17 10 -25 5 -8 10 -10 10 -5 0 6 -5 17 -10 25 -5 8 -10 11 -10 5z"/></g><g transform="translate(0.000000,60.000000) scale(0.100000,-0.100000)" fill="#FFC500" stroke="none"><path d="M235 530 c-3 -5 -11 -7 -19 -4 -24 9 -108 -59 -138 -113 -42 -78 -47 -152 -15 -225 36 -81 69 -121 126 -151 27 -15 51 -27 54 -27 4 0 -16 20 -42 45 -27 25 -58 67 -69 93 -20 46 -45 195 -31 187 3 -3 9 8 12 24 13 63 111 140 179 141 65 0 128 -41 180 -119 24 -35 23 -9 -1 38 -38 74 -115 121 -198 121 -17 0 -34 -4 -38 -10z"/></g><g transform="translate(0.000000,60.000000) scale(0.100000,-0.100000)" fill="#0059C5" stroke="none"><path d="M606 470 c29 -54 26 -169 -8 -240 -29 -64 -70 -111 -114 -133 -30 -15 -160 -50 -150 -40 3 3 -17 17 -45 30 -61 31 -110 97 -117 160 -6 54 -22 38 -22 -23 0 -68 45 -143 110 -182 48 -28 63 -32 115 -31 33 1 66 7 74 13 8 6 15 9 15 7 2 -8 46 11 46 20 0 6 4 8 8 5 11 -7 94 78 86 87 -4 4 -3 7 3 7 6 0 20 22 32 49 40 94 22 245 -36 293 -13 10 -12 6 3 -22z"/></g><g transform="translate(0.000000,60.000000) scale(0.100000,-0.100000)" fill="#0066CC" stroke="none"><path d="M143 225 c0 -22 2 -30 4 -17 2 12 2 30 0 40 -3 9 -5 -1 -4 -23z"/><path d="M205 70 c10 -11 20 -20 23 -20 3 0 -3 9 -13 20 -10 11 -20 20 -23 20 -3 0 3 -9 13 -20z"/></g><g transform="translate(0.000000,60.000000) scale(0.100000,-0.100000)" fill="#008CDF" stroke="none"><path d="M465 550 c10 -11 20 -20 23 -20 3 0 -3 9 -13 20 -10 11 -20 20 -23 20 -3 0 3 -9 13 -20z"/><path d="M622 390 c0 -14 2 -19 5 -12 2 6 2 18 0 25 -3 6 -5 1 -5 -13z"/><path d="M663 320 c0 -25 2 -35 4 -22 2 12 2 32 0 45 -2 12 -4 2 -4 -23z"/><path d="M363 3 c9 -2 25 -2 35 0 9 3 1 5 -18 5 -19 0 -27 -2 -17 -5z"/></g><g transform="translate(0.000000,60.000000) scale(0.100000,-0.100000)" fill="#0099DF" stroke="none"><path d="M460 545 c30 -30 57 -55 59 -55 3 0 -16 22 -42 48 -26 27 -44 51 -41 55 4 4 -1 7 -11 7 -15 0 -6 -14 35 -55z"/><path d="M515 540 c10 -11 20 -20 23 -20 3 0 -3 9 -13 20 -10 11 -20 20 -23 20 -3 0 3 -9 13 -20z"/><path d="M564 493 c15 -18 22 -20 32 -12 8 6 11 15 8 20 -6 11 -14 12 -13 2 4 -22 -3 -24 -23 -7 l-23 19 19 -22z"/><path d="M537 445 c9 -19 18 -33 21 -31 4 5 -26 66 -33 66 -3 0 3 -16 12 -35z"/><path d="M561 384 c0 -11 3 -14 6 -6 3 7 2 16 -1 19 -3 4 -6 -2 -5 -13z"/><path d="M171 280 c14 -31 19 -36 19 -24 0 6 -7 19 -16 30 -14 18 -14 18 -3 -6z"/><path d="M561 284 c0 -11 3 -14 6 -6 3 7 2 16 -1 19 -3 4 -6 -2 -5 -13z"/><path d="M536 223 c-6 -14 -5 -15 5 -6 7 7 10 15 7 18 -3 3 -9 -2 -12 -12z"/><path d="M210 197 c0 -2 15 -16 33 -33 l32 -29 -29 33 c-28 30 -36 37 -36 29z"/><path d="M494 168 l-29 -33 33 29 c17 17 32 31 32 33 0 8 -8 1 -36 -29z"/><path d="M398 113 c7 -3 16 -2 19 1 4 3 -2 6 -13 5 -11 0 -14 -3 -6 -6z"/><path d="M569 93 l-24 -28 28 24 c15 14 27 26 27 28 0 8 -8 1 -31 -24z"/></g><g transform="translate(0.000000,60.000000) scale(0.100000,-0.100000)" fill="#00ACF2" stroke="none"><path d="M477 543 c86 -89 118 -204 81 -293 -21 -50 -69 -104 -110 -126 -37 -19 -122 -18 -161 3 -18 9 -36 16 -42 14 -5 -1 -7 1 -3 5 4 4 -4 21 -19 38 -14 17 -32 45 -40 61 l-14 30 5 -37 c9 -72 77 -145 156 -168 34 -10 102 -2 94 11 -3 5 2 6 10 3 34 -13 121 58 156 127 11 21 25 61 31 89 9 43 8 59 -8 102 -21 61 -90 141 -144 169 l-38 19 46 -47z"/></g></svg>