<svg version="1.0" xmlns="http://www.w3.org/2000/svg" width="190.000000" height="107.000000" viewBox="0 0 190.000000 107.000000" preserveAspectRatio="xMidYMid meet"><rect x="153" y="7" width="15" height="9" fill="rgb(179,81,164)" /><rect x="111" y="15" width="15" height="9" fill="rgb(203,73,164)" /><rect x="139" y="15" width="15" height="9" fill="rgb(127,101,163)" /><rect x="153" y="15" width="15" height="9" fill="rgb(3,145,158)" /><rect x="111" y="23" width="15" height="9" fill="rgb(11,143,159)" /><rect x="125" y="23" width="15" height="9" fill="rgb(81,120,163)" /><rect x="139" y="23" width="15" height="9" fill="rgb(23,144,162)" /><rect x="153" y="23" width="15" height="9" fill="rgb(5,148,160)" /><rect x="97" y="31" width="15" height="9" fill="rgb(120,183,198)" /><rect x="111" y="31" width="15" height="9" fill="rgb(40,163,174)" /><rect x="125" y="31" width="15" height="9" fill="rgb(117,196,203)" /><rect x="139" y="31" width="15" height="9" fill="rgb(168,216,222)" /><rect x="153" y="31" width="15" height="9" fill="rgb(107,191,199)" /><rect x="111" y="39" width="15" height="9" fill="rgb(48,166,177)" /><rect x="125" y="39" width="15" height="9" fill="rgb(134,203,210)" /><rect x="139" y="39" width="15" height="9" fill="rgb(171,219,223)" /><rect x="153" y="39" width="15" height="9" fill="rgb(48,167,177)" /><rect x="111" y="47" width="15" height="9" fill="rgb(57,170,180)" /><rect x="125" y="47" width="15" height="9" fill="rgb(133,203,209)" /><rect x="139" y="47" width="15" height="9" fill="rgb(56,170,180)" /><rect x="153" y="47" width="15" height="9" fill="rgb(151,210,215)" /><rect x="111" y="55" width="15" height="9" fill="rgb(190,226,230)" /><rect x="125" y="55" width="15" height="9" fill="rgb(93,186,194)" /><rect x="139" y="55" width="15" height="9" fill="rgb(165,216,221)" /><rect x="153" y="55" width="15" height="9" fill="rgb(122,198,205)" /><rect x="125" y="63" width="15" height="9" fill="rgb(0,146,158)" /><rect x="139" y="63" width="15" height="9" fill="rgb(0,146,158)" /><g transform="translate(0.000000,107.000000) scale(0.100000,-0.100000)" fill="#00999F" stroke="none"><path d="M1570 921 c-48 -15 -93 -43 -137 -84 -34 -31 -52 -40 -76 -39 -54 2 -76 6 -71 13 7 13 -98 30 -141 23 -88 -13 -165 -82 -165 -148 0 -49 27 -143 55 -191 37 -61 126 -142 192 -173 49 -22 72 -26 148 -27 81 0 95 3 143 29 115 64 206 202 239 362 16 78 13 192 -6 222 -10 16 -144 25 -181 13z m26 -172 c22 -11 29 -21 29 -44 0 -26 -3 -29 -25 -26 -63 11 -115 6 -118 -11 -2 -12 10 -20 50 -32 29 -8 54 -13 56 -11 2 2 15 -9 29 -26 38 -44 36 -94 -5 -130 -29 -26 -39 -29 -102 -29 -58 0 -73 4 -96 23 -20 18 -25 28 -19 46 5 18 12 21 28 16 42 -13 124 -17 131 -7 13 22 -7 40 -64 55 -110 31 -134 116 -49 172 36 23 110 25 155 4z m-472 -5 c12 -12 16 -38 17 -107 1 -51 1 -95 1 -99 -3 -16 30 -29 65 -26 l38 3 5 120 c5 119 5 120 30 123 49 5 55 -8 60 -138 4 -109 3 -124 -13 -141 -27 -29 -60 -39 -128 -39 -121 0 -149 37 -149 198 0 60 3 112 7 115 12 13 51 7 67 -9z"/><path d="M860 806 l0 -56 -57 0 c-102 0 -153 -53 -153 -157 0 -58 26 -105 72 -129 43 -22 133 -22 176 0 l32 17 -2 187 -3 187 -32 3 -33 3 0 -55z m-16 -112 c23 -9 23 -179 0 -188 -44 -17 -98 4 -115 45 -34 83 38 173 115 143z"/><path d="M53 744 c-7 -3 -13 -17 -13 -30 0 -23 3 -24 70 -24 39 0 70 -2 70 -5 0 -3 -34 -46 -75 -96 -41 -50 -75 -97 -75 -104 0 -29 28 -36 136 -33 109 3 109 3 109 28 0 24 -3 25 -72 28 -40 2 -73 5 -73 8 0 3 32 44 71 91 54 66 69 92 67 112 -3 26 -3 26 -103 28 -55 1 -106 -1 -112 -3z"/><path d="M325 740 c-6 -10 29 -135 45 -155 4 -5 10 -22 14 -37 3 -14 17 -40 31 -56 l25 -30 -40 -45 c-45 -51 -48 -62 -20 -77 25 -13 48 -2 85 41 59 71 139 269 133 331 -2 27 -8 34 -30 36 -19 2 -28 -2 -31 -15 -27 -99 -62 -203 -68 -203 -7 0 -19 29 -61 150 -20 56 -27 65 -50 68 -14 2 -29 -2 -33 -8z"/></g><g transform="translate(0.000000,107.000000) scale(0.100000,-0.100000)" fill="#D846A5" stroke="none"><path d="M1490 1034 c-19 -8 -60 -40 -92 -71 -61 -61 -69 -63 -161 -43 -118 24 -223 -32 -253 -136 -17 -61 -14 -93 6 -54 24 47 64 80 114 95 66 20 98 18 181 -9 83 -28 96 -25 167 39 65 58 128 79 224 73 l73 -5 -15 28 c-19 37 -70 74 -119 88 -53 14 -83 13 -125 -5z"/><path d="M430 176 c0 -9 7 -16 16 -16 9 0 14 5 12 12 -6 18 -28 21 -28 4z"/><path d="M1500 176 c0 -9 7 -16 16 -16 17 0 14 22 -4 28 -7 2 -12 -3 -12 -12z"/><path d="M1572 178 c-7 -7 -12 -40 -12 -80 0 -54 3 -68 15 -68 11 0 15 11 15 40 0 33 3 40 20 40 11 0 20 5 20 11 0 6 -9 13 -20 16 -26 7 -26 23 -1 23 26 0 35 16 15 24 -24 9 -39 7 -52 -6z"/><path d="M42 171 c-9 -5 -12 -27 -10 -72 l3 -64 38 -3 c51 -4 77 19 77 67 0 43 -13 67 -30 56 -8 -5 -11 -4 -7 2 11 18 -48 29 -71 14z m66 -33 c19 -19 15 -66 -7 -78 -34 -18 -41 -12 -41 40 0 41 3 50 18 50 10 0 23 -5 30 -12z"/><path d="M370 159 c0 -13 -5 -19 -12 -16 -45 17 -82 -46 -53 -90 13 -20 23 -24 53 -21 l37 3 3 73 c2 59 0 72 -13 72 -9 0 -15 -9 -15 -21z m0 -74 c0 -37 -18 -47 -40 -20 -16 19 -3 55 21 55 15 0 19 -7 19 -35z"/><path d="M990 162 c0 -11 -8 -18 -21 -19 -32 -3 -49 -22 -49 -58 0 -41 19 -57 62 -53 l33 3 3 73 c2 59 0 72 -13 72 -8 0 -15 -8 -15 -18z m0 -78 c0 -28 -3 -35 -17 -32 -31 6 -29 68 2 68 11 0 15 -10 15 -36z"/><path d="M722 103 c3 -66 4 -68 31 -71 15 -2 27 1 27 7 0 6 -7 11 -15 11 -10 0 -15 11 -15 35 0 24 5 35 15 35 8 0 15 5 15 10 0 6 -6 10 -14 10 -8 0 -16 7 -20 15 -3 8 -10 15 -16 15 -7 0 -10 -24 -8 -67z"/><path d="M1090 160 c0 -5 9 -10 20 -10 18 0 20 -7 20 -60 0 -47 3 -60 15 -60 12 0 15 13 15 60 0 53 2 60 20 60 11 0 20 5 20 10 0 6 -25 10 -55 10 -30 0 -55 -4 -55 -10z"/><path d="M1390 101 l0 -71 46 0 c50 0 59 22 11 28 -24 3 -26 8 -29 54 -2 30 -8 53 -15 56 -10 3 -13 -15 -13 -67z"/><path d="M210 142 c-41 -12 -53 -68 -21 -96 22 -20 72 -18 79 2 3 9 -3 11 -21 7 -14 -4 -28 -2 -32 4 -4 7 6 14 25 17 37 8 44 18 31 43 -11 20 -37 30 -61 23z m35 -32 c4 -6 -5 -10 -20 -10 -15 0 -24 4 -20 10 3 6 12 10 20 10 8 0 17 -4 20 -10z"/><path d="M520 142 c-38 -11 -53 -68 -24 -96 16 -17 83 -17 74 -1 -3 5 -12 8 -21 7 -23 -4 -42 23 -34 48 5 17 13 21 31 17 15 -2 24 0 24 8 0 14 -28 24 -50 17z"/><path d="M618 143 c-32 -8 -21 -30 12 -25 18 3 30 0 30 -7 0 -6 -11 -11 -24 -11 -32 0 -53 -26 -39 -48 7 -11 24 -17 49 -17 38 0 39 1 42 40 1 22 -1 45 -5 51 -10 14 -43 23 -65 17z m42 -78 c0 -8 -6 -15 -14 -15 -17 0 -28 14 -19 24 12 12 33 6 33 -9z"/><path d="M1240 142 c-62 -19 -47 -112 19 -112 36 0 51 17 51 56 0 41 -34 68 -70 56z m38 -51 c4 -29 -9 -44 -31 -35 -17 6 -23 44 -10 58 14 14 38 0 41 -23z"/><path d="M1672 139 c-24 -9 -37 -47 -27 -78 10 -34 83 -43 93 -12 3 10 0 12 -13 7 -10 -3 -27 -4 -38 0 -16 5 -17 8 -6 15 8 5 24 9 36 9 28 0 37 14 24 39 -13 23 -39 31 -69 20z m43 -29 c4 -6 -5 -10 -20 -10 -15 0 -24 4 -20 10 3 6 12 10 20 10 8 0 17 -4 20 -10z"/><path d="M430 85 c0 -42 3 -55 15 -55 12 0 15 13 15 55 0 42 -3 55 -15 55 -12 0 -15 -13 -15 -55z"/><path d="M810 125 c-16 -20 -16 -61 0 -80 15 -18 82 -17 78 0 -2 6 -10 9 -18 8 -8 -1 -22 0 -30 3 -13 4 -13 6 0 14 8 6 25 10 38 10 24 0 30 28 10 48 -17 17 -63 15 -78 -3z m60 -15 c0 -5 -9 -10 -20 -10 -11 0 -20 5 -20 10 0 6 9 10 20 10 11 0 20 -4 20 -10z"/><path d="M1500 85 c0 -42 3 -55 15 -55 12 0 15 13 15 55 0 42 -3 55 -15 55 -12 0 -15 -13 -15 -55z"/></g><g transform="translate(0.000000,107.000000) scale(0.100000,-0.100000)" fill="#069FA5" stroke="none"><path d="M1785 897 c22 -12 50 -40 63 -62 20 -35 22 -50 19 -120 -5 -100 -36 -171 -113 -255 -107 -115 -212 -162 -369 -164 -89 -1 -106 2 -158 26 -74 35 -166 123 -201 192 -15 30 -34 88 -42 128 l-14 73 4 -64 c9 -133 110 -273 244 -337 104 -50 266 -42 386 18 197 99 320 320 267 480 -13 41 -81 108 -109 108 -10 0 0 -10 23 -23z"/><path d="M850 817 l0 -53 -53 0 c-102 0 -157 -59 -157 -169 0 -76 24 -119 83 -145 72 -33 169 -21 207 27 18 23 20 40 20 190 0 94 -4 173 -10 184 -8 14 -21 19 -50 19 l-40 0 0 -53z m78 -149 l2 -187 -32 -17 c-43 -22 -133 -22 -176 0 -46 24 -72 71 -72 129 0 104 51 157 153 157 l57 0 0 56 0 55 33 -3 32 -3 3 -187z"/><path d="M755 678 c-31 -28 -43 -85 -25 -127 14 -35 57 -55 99 -46 l31 7 0 88 c0 71 -3 89 -16 94 -31 12 -63 6 -89 -16z m73 6 c20 -6 22 -12 22 -85 0 -75 -1 -79 -24 -85 -34 -8 -78 16 -89 50 -13 39 6 100 35 114 28 13 28 13 56 6z"/><path d="M31 742 c-6 -10 -7 -28 -4 -40 4 -17 12 -22 37 -21 30 2 30 2 4 6 -21 3 -28 10 -28 28 0 31 15 35 126 35 75 0 96 -3 100 -15 8 -21 -2 -57 -23 -80 -41 -46 -113 -133 -113 -137 0 -3 30 -6 68 -7 72 -2 86 -9 80 -37 -3 -17 -15 -19 -112 -22 -108 -3 -136 4 -136 33 0 7 34 54 75 104 41 50 75 93 75 96 0 3 -19 4 -42 4 -41 -2 -41 -2 -10 -8 l32 -6 -70 -85 c-109 -133 -99 -152 76 -148 l119 3 3 37 3 37 -70 3 -71 3 65 80 c73 89 81 105 65 135 -10 18 -20 20 -125 20 -101 0 -115 -2 -124 -18z"/><path d="M314 745 c-11 -27 49 -202 88 -257 l19 -28 -36 -45 c-42 -50 -42 -75 -2 -89 22 -8 33 -6 55 10 58 44 135 193 169 329 19 79 10 98 -46 93 -32 -3 -36 -6 -43 -43 -5 -22 -18 -69 -30 -105 l-21 -64 -36 104 -36 105 -38 3 c-27 2 -39 -1 -43 -13z m79 -22 c8 -16 17 -41 21 -56 12 -49 47 -137 55 -137 6 0 41 104 68 203 3 13 12 17 31 15 22 -2 28 -9 30 -36 6 -62 -74 -260 -133 -331 -37 -43 -60 -54 -85 -41 -28 15 -25 26 20 78 l40 45 -20 22 c-34 36 -108 234 -95 255 13 21 54 10 68 -17z"/></g><g transform="translate(0.000000,107.000000) scale(0.100000,-0.100000)" fill="#DF4CAC" stroke="none"><path d="M1598 1043 c7 -3 16 -2 19 1 4 3 -2 6 -13 5 -11 0 -14 -3 -6 -6z"/><path d="M1465 1030 c-3 -6 1 -7 9 -4 18 7 21 14 7 14 -6 0 -13 -4 -16 -10z"/><path d="M1390 963 l-55 -58 58 55 c31 30 57 56 57 57 0 8 -10 -1 -60 -54z"/><path d="M1705 990 c10 -11 20 -20 23 -20 3 0 -3 9 -13 20 -10 11 -20 20 -23 20 -3 0 3 -9 13 -20z"/><path d="M1736 947 c3 -10 9 -15 12 -12 3 3 0 11 -7 18 -10 9 -11 8 -5 -6z"/><path d="M1128 923 c7 -3 16 -2 19 1 4 3 -2 6 -13 5 -11 0 -14 -3 -6 -6z"/><path d="M1218 923 c7 -3 16 -2 19 1 4 3 -2 6 -13 5 -11 0 -14 -3 -6 -6z"/><path d="M1019 863 l-24 -28 28 24 c15 14 27 26 27 28 0 8 -8 1 -31 -24z"/><path d="M971 764 c0 -11 3 -14 6 -6 3 7 2 16 -1 19 -3 4 -6 -2 -5 -13z"/><path d="M358 165 c-3 -14 -1 -25 3 -25 5 0 9 9 9 19 0 11 8 22 18 24 13 4 13 5 -4 6 -16 1 -23 -6 -26 -24z"/><path d="M424 110 c1 -68 4 -85 16 -86 9 0 10 1 3 3 -20 7 -17 113 2 113 8 0 15 5 15 10 0 6 -6 10 -14 10 -8 0 -16 8 -19 18 -2 9 -3 -21 -3 -68z"/><path d="M1003 184 c16 -5 18 -15 15 -79 -2 -41 1 -70 5 -66 4 4 7 39 5 77 -3 60 -5 69 -23 71 -17 2 -17 1 -2 -3z"/><path d="M1492 170 c3 -80 -3 -121 -14 -114 -7 4 -4 -2 6 -14 11 -12 26 -21 35 -21 13 1 13 2 -1 6 -14 4 -18 15 -18 59 0 39 4 54 14 54 19 0 29 31 16 44 -8 8 -9 6 -5 -6 5 -12 2 -18 -8 -18 -9 0 -18 8 -20 18 -4 10 -5 8 -5 -8z"/><path d="M27 173 c-12 -11 -8 -128 5 -141 7 -7 26 -11 43 -11 30 2 30 2 -5 8 l-35 6 -3 64 c-2 45 1 67 10 72 7 5 8 9 2 9 -6 0 -14 -3 -17 -7z"/><path d="M90 176 c0 -2 9 -6 20 -9 11 -3 18 -1 14 4 -5 9 -34 13 -34 5z"/><path d="M710 112 c0 -73 10 -92 47 -92 16 0 27 8 34 26 5 15 7 29 4 32 -3 3 -5 0 -5 -6 0 -7 -10 -13 -22 -13 -17 -1 -19 -2 -5 -6 28 -7 20 -25 -10 -21 -27 3 -28 5 -31 72 -3 58 -1 68 13 63 8 -4 15 -2 15 3 0 6 -9 10 -20 10 -18 0 -20 -7 -20 -68z"/><path d="M1087 173 c-14 -13 -6 -33 12 -33 17 0 21 -8 24 -52 l3 -53 2 58 c2 51 0 57 -18 57 -11 0 -20 5 -20 10 0 6 25 10 55 10 30 0 55 -4 55 -10 0 -5 -9 -10 -20 -10 -18 0 -20 -7 -20 -59 0 -48 -3 -61 -17 -65 -14 -4 -14 -4 2 -3 17 2 20 11 23 59 2 46 6 57 22 61 11 3 20 12 20 21 0 13 -12 16 -58 16 -32 0 -62 -3 -65 -7z"/><path d="M1382 103 l2 -78 3 73 c3 60 7 73 18 68 8 -3 15 -1 15 4 0 6 -9 10 -20 10 -18 0 -20 -6 -18 -77z"/><path d="M1625 160 c-3 -5 -1 -10 4 -10 6 0 11 5 11 10 0 6 -2 10 -4 10 -3 0 -8 -4 -11 -10z"/><path d="M1554 90 c1 -50 4 -65 16 -66 8 0 10 1 3 3 -7 3 -14 30 -16 66 l-3 62 0 -65z"/><path d="M62 108 l1 -43 4 37 c3 24 10 38 21 41 12 3 11 5 -5 6 -21 1 -23 -3 -21 -41z"/><path d="M552 144 c9 -3 19 -13 22 -22 3 -12 4 -12 3 3 -1 12 -10 21 -22 22 -15 1 -15 0 -3 -3z"/><path d="M768 143 c17 -7 15 -21 -5 -26 -14 -4 -12 -5 5 -6 12 0 22 -7 22 -13 0 -7 6 -2 13 12 14 29 59 39 85 18 15 -12 16 -11 3 5 -17 21 -64 22 -82 1 -11 -14 -13 -14 -21 0 -5 9 -14 16 -21 15 -9 0 -9 -2 1 -6z"/><path d="M929 133 c-12 -16 -12 -17 1 -7 8 6 22 14 30 17 13 5 12 6 -1 6 -9 1 -23 -7 -30 -16z"/><path d="M266 127 c3 -10 9 -15 12 -12 3 3 0 11 -7 18 -10 9 -11 8 -5 -6z"/><path d="M591 124 c0 -11 3 -14 6 -6 3 7 2 16 -1 19 -3 4 -6 -2 -5 -13z"/><path d="M1626 125 c4 -8 10 -15 15 -15 4 0 6 7 3 15 -4 8 -10 15 -15 15 -4 0 -6 -7 -3 -15z"/><path d="M152 100 c0 -19 2 -27 5 -17 2 9 2 25 0 35 -3 9 -5 1 -5 -18z"/><path d="M1533 85 c0 -27 2 -38 4 -22 2 15 2 37 0 50 -2 12 -4 0 -4 -28z"/><path d="M230 110 c0 -5 5 -10 11 -10 5 0 7 5 4 10 -3 6 -8 10 -11 10 -2 0 -4 -4 -4 -10z"/><path d="M343 113 c20 -5 24 -49 5 -56 -8 -3 -6 -6 5 -6 13 -1 17 7 17 34 0 30 -3 35 -22 34 -17 -1 -19 -2 -5 -6z"/><path d="M528 113 c6 -2 18 -2 25 0 6 3 1 5 -13 5 -14 0 -19 -2 -12 -5z"/><path d="M620 110 c20 -13 40 -13 40 0 0 6 -12 10 -27 10 -22 0 -25 -2 -13 -10z"/><path d="M840 110 c19 -13 30 -13 30 0 0 6 -10 10 -22 10 -19 0 -20 -2 -8 -10z"/><path d="M956 111 c-4 -5 3 -7 14 -4 23 6 26 13 6 13 -8 0 -17 -4 -20 -9z"/><path d="M1234 106 c-3 -8 -4 -23 -1 -33 3 -11 5 -7 6 11 1 23 5 27 21 23 11 -3 18 -1 14 4 -8 14 -34 11 -40 -5z"/><path d="M1700 110 c0 -5 5 -10 11 -10 5 0 7 5 4 10 -3 6 -8 10 -11 10 -2 0 -4 -4 -4 -10z"/><path d="M901 103 c0 -5 4 -17 9 -28 8 -18 9 -17 9 8 1 15 -3 27 -9 27 -5 0 -10 -3 -9 -7z"/><path d="M1312 85 c0 -16 2 -22 5 -12 2 9 2 23 0 30 -3 6 -5 -1 -5 -18z"/><path d="M321 84 c0 -11 3 -14 6 -6 3 7 2 16 -1 19 -3 4 -6 -2 -5 -13z"/><path d="M511 84 c0 -11 3 -14 6 -6 3 7 2 16 -1 19 -3 4 -6 -2 -5 -13z"/><path d="M248 70 c30 -13 23 -33 -14 -41 -27 -6 -27 -7 -4 -8 38 -1 57 15 44 36 -6 10 -20 19 -30 20 -14 2 -13 0 4 -7z"/><path d="M627 74 c-9 -10 2 -24 19 -24 8 0 14 7 14 15 0 15 -21 21 -33 9z"/><path d="M858 73 c6 -2 18 -2 25 0 6 3 1 5 -13 5 -14 0 -19 -2 -12 -5z"/><path d="M1710 71 c34 -10 31 -34 -5 -42 -29 -6 -29 -7 -4 -8 35 -1 56 23 39 44 -7 8 -22 15 -34 14 -19 -1 -18 -2 4 -8z"/><path d="M290 63 c0 -6 8 -17 18 -24 16 -13 16 -13 2 6 -8 11 -16 22 -17 24 -2 2 -3 0 -3 -6z"/><path d="M958 58 c5 -5 16 -8 23 -6 8 3 3 7 -10 11 -17 4 -21 3 -13 -5z"/><path d="M1260 60 c-9 -6 -10 -10 -3 -10 6 0 15 5 18 10 8 12 4 12 -15 0z"/><path d="M68 53 c7 -3 16 -2 19 1 4 3 -2 6 -13 5 -11 0 -14 -3 -6 -6z"/><path d="M129 43 c-13 -16 -12 -17 4 -4 16 13 21 21 13 21 -2 0 -10 -8 -17 -17z"/><path d="M170 56 c0 -2 8 -10 18 -17 15 -13 16 -12 3 4 -13 16 -21 21 -21 13z"/><path d="M228 53 c7 -3 16 -2 19 1 4 3 -2 6 -13 5 -11 0 -14 -3 -6 -6z"/><path d="M538 53 c7 -3 16 -2 19 1 4 3 -2 6 -13 5 -11 0 -14 -3 -6 -6z"/><path d="M848 53 c7 -3 16 -2 19 1 4 3 -2 6 -13 5 -11 0 -14 -3 -6 -6z"/><path d="M1698 53 c7 -3 16 -2 19 1 4 3 -2 6 -13 5 -11 0 -14 -3 -6 -6z"/><path d="M599 38 c8 -11 25 -17 45 -17 l31 2 -30 4 c-16 3 -37 10 -45 16 -13 10 -13 10 -1 -5z"/><path d="M1229 27 c5 -5 19 -7 32 -5 20 3 19 5 -9 9 -20 3 -29 2 -23 -4z"/><path d="M343 23 c9 -2 23 -2 30 0 6 3 -1 5 -18 5 -16 0 -22 -2 -12 -5z"/><path d="M528 23 c6 -2 18 -2 25 0 6 3 1 5 -13 5 -14 0 -19 -2 -12 -5z"/><path d="M843 23 c9 -2 23 -2 30 0 6 3 -1 5 -18 5 -16 0 -22 -2 -12 -5z"/><path d="M963 23 c9 -2 23 -2 30 0 6 3 -1 5 -18 5 -16 0 -22 -2 -12 -5z"/><path d="M1418 23 c12 -2 30 -2 40 0 9 3 -1 5 -23 4 -22 0 -30 -2 -17 -4z"/></g><g transform="translate(0.000000,107.000000) scale(0.100000,-0.100000)" fill="#2CB8BF" stroke="none"><path d="M1764 839 c26 -186 -85 -422 -239 -510 -59 -34 -57 -35 20 -9 119 41 238 146 291 257 39 82 45 192 15 251 -18 35 -70 82 -91 82 -3 0 -1 -32 4 -71z"/><path d="M1073 753 c9 -2 23 -2 30 0 6 3 -1 5 -18 5 -16 0 -22 -2 -12 -5z"/><path d="M1273 753 c9 -2 23 -2 30 0 6 3 -1 5 -18 5 -16 0 -22 -2 -12 -5z"/><path d="M1600 746 c0 -2 8 -10 18 -17 15 -13 16 -12 3 4 -13 16 -21 21 -21 13z"/><path d="M1134 640 c0 -52 1 -74 3 -47 2 26 2 68 0 95 -2 26 -3 4 -3 -48z"/><path d="M1334 610 c0 -69 1 -97 3 -62 2 34 2 90 0 125 -2 34 -3 6 -3 -63z"/><path d="M1518 693 c6 -2 18 -2 25 0 6 3 1 5 -13 5 -14 0 -19 -2 -12 -5z"/><path d="M1392 665 c0 -16 2 -22 5 -12 2 9 2 23 0 30 -3 6 -5 -1 -5 -18z"/><path d="M1610 680 c-9 -6 -10 -10 -3 -10 6 0 15 5 18 10 8 12 4 12 -15 0z"/><path d="M1493 503 c9 -2 23 -2 30 0 6 3 -1 5 -18 5 -16 0 -22 -2 -12 -5z"/><path d="M1070 486 c0 -2 8 -10 18 -17 15 -13 16 -12 3 4 -13 16 -21 21 -21 13z"/></g><g transform="translate(0.000000,107.000000) scale(0.100000,-0.100000)" fill="#B2C5D8" stroke="none"><path d="M1488 753 c6 -2 18 -2 25 0 6 3 1 5 -13 5 -14 0 -19 -2 -12 -5z"/><path d="M1538 753 c6 -2 18 -2 25 0 6 3 1 5 -13 5 -14 0 -19 -2 -12 -5z"/><path d="M1054 640 c0 -63 1 -89 3 -57 2 31 2 83 0 115 -2 31 -3 5 -3 -58z"/><path d="M1254 635 c0 -66 1 -92 3 -57 2 34 2 88 0 120 -2 31 -3 3 -3 -63z"/><path d="M1415 720 c-10 -11 -16 -22 -14 -24 2 -2 12 7 22 20 22 29 17 32 -8 4z"/><path d="M1621 704 c0 -11 3 -14 6 -6 3 7 2 16 -1 19 -3 4 -6 -2 -5 -13z"/><path d="M1470 666 c0 -8 4 -17 9 -20 5 -4 7 3 4 14 -6 23 -13 26 -13 6z"/><path d="M1600 606 c0 -2 8 -10 18 -17 15 -13 16 -12 3 4 -13 16 -21 21 -21 13z"/><path d="M1540 510 c-9 -6 -10 -10 -3 -10 6 0 15 5 18 10 8 12 4 12 -15 0z"/><path d="M1218 503 c7 -3 16 -2 19 1 4 3 -2 6 -13 5 -11 0 -14 -3 -6 -6z"/><path d="M1309 473 c-13 -16 -12 -17 4 -4 16 13 21 21 13 21 -2 0 -10 -8 -17 -17z"/><path d="M1609 473 c-13 -16 -12 -17 4 -4 16 13 21 21 13 21 -2 0 -10 -8 -17 -17z"/><path d="M1148 443 c7 -3 16 -2 19 1 4 3 -2 6 -13 5 -11 0 -14 -3 -6 -6z"/></g><g transform="translate(0.000000,107.000000) scale(0.100000,-0.100000)" fill="#FFFFFF" stroke="none"><path d="M1486 749 c-46 -8 -86 -47 -86 -85 0 -36 39 -69 103 -88 58 -17 70 -30 55 -58 -11 -23 -77 -24 -119 -3 -27 14 -30 14 -36 -1 -16 -42 59 -80 136 -69 53 8 101 50 101 90 0 38 -49 83 -99 91 -56 9 -79 27 -65 51 12 19 79 25 122 10 19 -7 22 -5 22 17 0 14 -5 28 -12 32 -21 13 -83 20 -122 13z"/><path d="M1060 630 c0 -114 1 -122 24 -145 35 -35 100 -50 161 -36 81 19 85 26 85 161 0 123 -6 140 -47 140 -23 0 -23 -2 -23 -113 0 -125 -5 -137 -56 -137 -61 0 -73 22 -76 140 l-3 105 -32 3 -33 3 0 -121z"/></g></svg>