<svg version="1.0" xmlns="http://www.w3.org/2000/svg" width="540.000000" height="101.000000" viewBox="0 0 540.000000 101.000000" preserveAspectRatio="xMidYMid meet"><rect x="337" y="1" width="14" height="3" fill="rgb(0,102,166)" /><rect x="324" y="3" width="14" height="3" fill="rgb(0,102,166)" /><rect x="51" y="11" width="14" height="3" fill="rgb(8,82,137)" /><rect x="64" y="11" width="14" height="3" fill="rgb(12,75,127)" /><rect x="77" y="11" width="14" height="3" fill="rgb(12,75,127)" /><rect x="38" y="13" width="14" height="3" fill="rgb(0,102,166)" /><rect x="51" y="13" width="14" height="3" fill="rgb(13,76,126)" /><rect x="64" y="13" width="14" height="3" fill="rgb(18,66,110)" /><rect x="77" y="13" width="14" height="3" fill="rgb(18,66,110)" /><rect x="90" y="13" width="14" height="3" fill="rgb(18,66,110)" /><rect x="38" y="15" width="14" height="3" fill="rgb(0,102,166)" /><rect x="51" y="15" width="14" height="3" fill="rgb(13,76,126)" /><rect x="64" y="15" width="14" height="3" fill="rgb(18,66,110)" /><rect x="77" y="15" width="14" height="3" fill="rgb(18,66,110)" /><rect x="90" y="15" width="14" height="3" fill="rgb(18,66,110)" /><rect x="142" y="15" width="14" height="3" fill="rgb(254,134,30)" /><rect x="155" y="15" width="14" height="3" fill="rgb(254,134,30)" /><rect x="168" y="15" width="14" height="3" fill="rgb(254,134,30)" /><rect x="181" y="15" width="14" height="3" fill="rgb(254,134,30)" /><rect x="194" y="15" width="14" height="3" fill="rgb(254,134,30)" /><rect x="207" y="15" width="14" height="3" fill="rgb(254,134,30)" /><rect x="220" y="15" width="14" height="3" fill="rgb(254,134,30)" /><rect x="233" y="15" width="14" height="3" fill="rgb(254,134,30)" /><rect x="246" y="15" width="14" height="3" fill="rgb(254,134,30)" /><rect x="259" y="15" width="14" height="3" fill="rgb(254,134,30)" /><rect x="285" y="15" width="14" height="3" fill="rgb(0,102,166)" /><rect x="298" y="15" width="14" height="3" fill="rgb(0,102,166)" /><rect x="311" y="15" width="14" height="3" fill="rgb(0,102,166)" /><rect x="324" y="15" width="14" height="3" fill="rgb(0,102,166)" /><rect x="337" y="15" width="14" height="3" fill="rgb(0,102,166)" /><rect x="350" y="15" width="14" height="3" fill="rgb(0,102,166)" /><rect x="363" y="15" width="14" height="3" fill="rgb(0,102,166)" /><rect x="376" y="15" width="14" height="3" fill="rgb(0,102,166)" /><rect x="389" y="15" width="14" height="3" fill="rgb(0,102,166)" /><rect x="402" y="15" width="14" height="3" fill="rgb(0,102,166)" /><rect x="415" y="15" width="14" height="3" fill="rgb(0,102,166)" /><rect x="428" y="15" width="14" height="3" fill="rgb(0,102,166)" /><rect x="467" y="15" width="14" height="3" fill="rgb(0,102,166)" /><rect x="480" y="15" width="14" height="3" fill="rgb(0,102,166)" /><rect x="493" y="15" width="14" height="3" fill="rgb(0,102,166)" /><rect x="506" y="15" width="34" height="3" fill="rgb(0,102,166)" /><rect x="25" y="17" width="14" height="3" fill="rgb(0,107,173)" /><rect x="38" y="17" width="14" height="3" fill="rgb(0,102,166)" /><rect x="51" y="17" width="14" height="3" fill="rgb(13,76,126)" /><rect x="64" y="17" width="14" height="3" fill="rgb(18,66,110)" /><rect x="77" y="17" width="14" height="3" fill="rgb(18,66,110)" /><rect x="90" y="17" width="14" height="3" fill="rgb(18,66,110)" /><rect x="25" y="19" width="14" height="3" fill="rgb(0,107,173)" /><rect x="38" y="19" width="14" height="3" fill="rgb(0,102,166)" /><rect x="51" y="19" width="14" height="3" fill="rgb(13,76,126)" /><rect x="64" y="19" width="14" height="3" fill="rgb(18,66,110)" /><rect x="77" y="19" width="14" height="3" fill="rgb(18,66,110)" /><rect x="90" y="19" width="14" height="3" fill="rgb(18,66,110)" /><rect x="25" y="21" width="14" height="3" fill="rgb(0,108,174)" /><rect x="38" y="21" width="14" height="3" fill="rgb(0,102,166)" /><rect x="51" y="21" width="14" height="3" fill="rgb(13,76,126)" /><rect x="64" y="21" width="14" height="3" fill="rgb(18,66,110)" /><rect x="77" y="21" width="14" height="3" fill="rgb(18,66,110)" /><rect x="90" y="21" width="14" height="3" fill="rgb(18,66,110)" /><rect x="103" y="21" width="14" height="3" fill="rgb(113,94,77)" /><rect x="194" y="21" width="14" height="3" fill="rgb(254,133,30)" /><rect x="25" y="23" width="14" height="3" fill="rgb(0,108,174)" /><rect x="38" y="23" width="14" height="3" fill="rgb(0,102,166)" /><rect x="51" y="23" width="14" height="3" fill="rgb(13,76,126)" /><rect x="64" y="23" width="14" height="3" fill="rgb(18,66,110)" /><rect x="77" y="23" width="14" height="3" fill="rgb(18,66,110)" /><rect x="90" y="23" width="14" height="3" fill="rgb(18,66,110)" /><rect x="103" y="23" width="14" height="3" fill="rgb(102,90,81)" /><rect x="142" y="23" width="14" height="3" fill="rgb(254,134,30)" /><rect x="194" y="23" width="14" height="3" fill="rgb(254,133,30)" /><rect x="376" y="23" width="14" height="3" fill="rgb(0,102,166)" /><rect x="389" y="23" width="14" height="3" fill="rgb(0,102,166)" /><rect x="12" y="25" width="14" height="3" fill="rgb(0,128,199)" /><rect x="25" y="25" width="14" height="3" fill="rgb(0,108,174)" /><rect x="38" y="25" width="14" height="3" fill="rgb(0,102,166)" /><rect x="51" y="25" width="14" height="3" fill="rgb(13,76,126)" /><rect x="64" y="25" width="14" height="3" fill="rgb(18,66,110)" /><rect x="77" y="25" width="14" height="3" fill="rgb(18,66,110)" /><rect x="90" y="25" width="14" height="3" fill="rgb(18,66,110)" /><rect x="103" y="25" width="14" height="3" fill="rgb(102,90,81)" /><rect x="220" y="25" width="14" height="3" fill="rgb(254,133,30)" /><rect x="376" y="25" width="14" height="3" fill="rgb(0,102,166)" /><rect x="389" y="25" width="14" height="3" fill="rgb(0,102,167)" /><rect x="12" y="27" width="14" height="3" fill="rgb(0,128,200)" /><rect x="25" y="27" width="14" height="3" fill="rgb(0,109,175)" /><rect x="103" y="27" width="14" height="3" fill="rgb(102,90,81)" /><rect x="220" y="27" width="14" height="3" fill="rgb(254,133,30)" /><rect x="12" y="29" width="14" height="3" fill="rgb(0,128,200)" /><rect x="103" y="29" width="14" height="3" fill="rgb(108,92,79)" /><rect x="142" y="29" width="14" height="3" fill="rgb(254,134,30)" /><rect x="194" y="29" width="14" height="3" fill="rgb(254,134,30)" /><rect x="415" y="29" width="14" height="3" fill="rgb(0,102,166)" /><rect x="428" y="29" width="14" height="3" fill="rgb(0,102,166)" /><rect x="12" y="31" width="14" height="3" fill="rgb(0,128,200)" /><rect x="103" y="31" width="14" height="3" fill="rgb(118,96,77)" /><rect x="142" y="31" width="14" height="3" fill="rgb(254,133,30)" /><rect x="12" y="33" width="14" height="3" fill="rgb(0,125,195)" /><rect x="220" y="33" width="14" height="3" fill="rgb(254,134,30)" /><rect x="233" y="33" width="14" height="3" fill="rgb(254,134,30)" /><rect x="350" y="33" width="14" height="3" fill="rgb(0,102,166)" /><rect x="376" y="33" width="14" height="3" fill="rgb(0,101,166)" /><rect x="12" y="35" width="14" height="3" fill="rgb(3,113,178)" /><rect x="350" y="35" width="14" height="3" fill="rgb(0,102,166)" /><rect x="467" y="35" width="14" height="3" fill="rgb(0,102,166)" /><rect x="12" y="37" width="14" height="3" fill="rgb(7,101,160)" /><rect x="103" y="37" width="14" height="3" fill="rgb(198,118,49)" /><rect x="194" y="37" width="14" height="3" fill="rgb(254,134,30)" /><rect x="12" y="39" width="14" height="3" fill="rgb(10,91,146)" /><rect x="103" y="39" width="14" height="3" fill="rgb(242,130,34)" /><rect x="142" y="39" width="14" height="3" fill="rgb(254,134,30)" /><rect x="12" y="41" width="14" height="3" fill="rgb(12,82,133)" /><rect x="51" y="41" width="14" height="3" fill="rgb(254,134,29)" /><rect x="64" y="41" width="14" height="3" fill="rgb(254,134,29)" /><rect x="77" y="41" width="14" height="3" fill="rgb(254,134,29)" /><rect x="90" y="41" width="14" height="3" fill="rgb(254,134,30)" /><rect x="103" y="41" width="14" height="3" fill="rgb(254,134,30)" /><rect x="142" y="41" width="14" height="3" fill="rgb(254,134,30)" /><rect x="12" y="43" width="14" height="3" fill="rgb(15,75,123)" /><rect x="51" y="43" width="14" height="3" fill="rgb(254,134,30)" /><rect x="64" y="43" width="14" height="3" fill="rgb(254,134,30)" /><rect x="77" y="43" width="14" height="3" fill="rgb(254,134,30)" /><rect x="90" y="43" width="14" height="3" fill="rgb(254,134,30)" /><rect x="103" y="43" width="14" height="3" fill="rgb(254,134,30)" /><rect x="12" y="45" width="14" height="3" fill="rgb(16,70,116)" /><rect x="51" y="45" width="14" height="3" fill="rgb(254,134,30)" /><rect x="64" y="45" width="14" height="3" fill="rgb(254,134,30)" /><rect x="77" y="45" width="14" height="3" fill="rgb(254,134,30)" /><rect x="90" y="45" width="14" height="3" fill="rgb(254,134,30)" /><rect x="0" y="47" width="14" height="3" fill="rgb(4,113,177)" /><rect x="51" y="47" width="14" height="3" fill="rgb(254,134,30)" /><rect x="64" y="47" width="14" height="3" fill="rgb(254,134,30)" /><rect x="77" y="47" width="14" height="3" fill="rgb(254,134,30)" /><rect x="90" y="47" width="14" height="3" fill="rgb(254,134,30)" /><rect x="0" y="49" width="14" height="3" fill="rgb(5,108,170)" /><rect x="51" y="49" width="14" height="3" fill="rgb(254,134,30)" /><rect x="64" y="49" width="14" height="3" fill="rgb(254,134,30)" /><rect x="77" y="49" width="14" height="3" fill="rgb(254,134,30)" /><rect x="90" y="49" width="14" height="3" fill="rgb(254,134,30)" /><rect x="0" y="51" width="14" height="3" fill="rgb(7,104,165)" /><rect x="51" y="51" width="14" height="3" fill="rgb(254,134,30)" /><rect x="64" y="51" width="14" height="3" fill="rgb(254,134,30)" /><rect x="77" y="51" width="14" height="3" fill="rgb(254,134,30)" /><rect x="90" y="51" width="14" height="3" fill="rgb(254,134,30)" /><rect x="0" y="53" width="14" height="3" fill="rgb(8,99,157)" /><rect x="51" y="53" width="14" height="3" fill="rgb(254,134,30)" /><rect x="64" y="53" width="14" height="3" fill="rgb(254,134,30)" /><rect x="77" y="53" width="14" height="3" fill="rgb(254,134,30)" /><rect x="0" y="55" width="14" height="3" fill="rgb(9,95,152)" /><rect x="12" y="55" width="14" height="3" fill="rgb(16,69,114)" /><rect x="0" y="57" width="14" height="3" fill="rgb(10,92,147)" /><rect x="12" y="57" width="14" height="3" fill="rgb(17,67,111)" /><rect x="0" y="59" width="14" height="3" fill="rgb(11,89,143)" /><rect x="12" y="59" width="14" height="3" fill="rgb(18,66,110)" /><rect x="0" y="61" width="14" height="3" fill="rgb(12,85,137)" /><rect x="12" y="61" width="14" height="3" fill="rgb(18,66,110)" /><rect x="0" y="63" width="14" height="3" fill="rgb(13,82,133)" /><rect x="12" y="63" width="14" height="3" fill="rgb(18,66,110)" /><rect x="285" y="63" width="14" height="3" fill="rgb(0,102,166)" /><rect x="415" y="63" width="14" height="3" fill="rgb(0,102,166)" /><rect x="12" y="65" width="14" height="3" fill="rgb(18,66,110)" /><rect x="285" y="65" width="14" height="3" fill="rgb(0,102,166)" /><rect x="415" y="65" width="14" height="3" fill="rgb(0,102,166)" /><rect x="12" y="67" width="14" height="3" fill="rgb(18,66,110)" /><rect x="285" y="67" width="14" height="3" fill="rgb(0,102,166)" /><rect x="415" y="67" width="14" height="3" fill="rgb(0,102,166)" /><rect x="428" y="67" width="14" height="3" fill="rgb(0,102,166)" /><rect x="12" y="69" width="14" height="3" fill="rgb(18,66,110)" /><rect x="285" y="69" width="14" height="3" fill="rgb(0,98,164)" /><rect x="12" y="71" width="14" height="3" fill="rgb(18,66,110)" /><rect x="25" y="71" width="14" height="3" fill="rgb(9,84,138)" /><rect x="454" y="71" width="14" height="3" fill="rgb(0,102,166)" /><rect x="12" y="73" width="14" height="3" fill="rgb(18,66,110)" /><rect x="25" y="73" width="14" height="3" fill="rgb(9,84,138)" /><rect x="38" y="73" width="14" height="3" fill="rgb(0,103,167)" /><rect x="51" y="73" width="14" height="3" fill="rgb(0,104,168)" /><rect x="64" y="73" width="14" height="3" fill="rgb(0,120,188)" /><rect x="77" y="73" width="14" height="3" fill="rgb(0,121,189)" /><rect x="155" y="73" width="14" height="3" fill="rgb(254,134,30)" /><rect x="194" y="73" width="14" height="3" fill="rgb(254,134,30)" /><rect x="246" y="73" width="14" height="3" fill="rgb(254,134,30)" /><rect x="363" y="73" width="14" height="3" fill="rgb(0,102,167)" /><rect x="454" y="73" width="14" height="3" fill="rgb(0,102,166)" /><rect x="480" y="73" width="14" height="3" fill="rgb(0,101,166)" /><rect x="12" y="75" width="14" height="3" fill="rgb(18,66,110)" /><rect x="25" y="75" width="14" height="3" fill="rgb(8,85,139)" /><rect x="38" y="75" width="14" height="3" fill="rgb(0,102,166)" /><rect x="51" y="75" width="14" height="3" fill="rgb(0,102,167)" /><rect x="64" y="75" width="14" height="3" fill="rgb(0,127,198)" /><rect x="77" y="75" width="14" height="3" fill="rgb(0,128,200)" /><rect x="155" y="75" width="14" height="3" fill="rgb(254,134,30)" /><rect x="194" y="75" width="14" height="3" fill="rgb(254,134,30)" /><rect x="246" y="75" width="14" height="3" fill="rgb(254,133,30)" /><rect x="363" y="75" width="14" height="3" fill="rgb(0,102,166)" /><rect x="376" y="75" width="14" height="3" fill="rgb(0,102,166)" /><rect x="454" y="75" width="14" height="3" fill="rgb(0,102,166)" /><rect x="480" y="75" width="14" height="3" fill="rgb(0,102,166)" /><rect x="38" y="77" width="14" height="24" fill="rgb(0,102,166)" /><rect x="51" y="77" width="14" height="24" fill="rgb(0,104,169)" /><rect x="64" y="77" width="14" height="24" fill="rgb(0,127,198)" /><rect x="77" y="77" width="14" height="24" fill="rgb(0,127,198)" /><g transform="translate(0.000000,101.000000) scale(0.100000,-0.100000)" fill="#FF851F" stroke="none"><path d="M1689 973 c-13 -16 -12 -17 4 -4 16 13 21 21 13 21 -2 0 -10 -8 -17 -17z"/><path d="M1560 976 c0 -2 9 -6 20 -9 11 -3 18 -1 14 4 -5 9 -34 13 -34 5z"/><path d="M1828 963 c7 -3 16 -2 19 1 4 3 -2 6 -13 5 -11 0 -14 -3 -6 -6z"/><path d="M1983 923 c19 -21 18 -22 -10 -26 -27 -4 -27 -4 5 -6 38 -1 41 9 10 35 l-23 19 18 -22z"/><path d="M1575 920 c-16 -7 -17 -9 -3 -9 9 -1 20 4 23 9 7 11 7 11 -20 0z"/><path d="M1771 914 c0 -11 3 -14 6 -6 3 7 2 16 -1 19 -3 4 -6 -2 -5 -13z"/><path d="M1910 926 c0 -2 8 -10 18 -17 15 -13 16 -12 3 4 -13 16 -21 21 -21 13z"/><path d="M1398 823 c23 -2 61 -2 85 0 23 2 4 4 -43 4 -47 0 -66 -2 -42 -4z"/><path d="M1662 823 l37 -4 3 -117 3 -117 53 -3 52 -3 0 120 0 121 99 0 c86 0 100 -2 105 -17 4 -14 4 -14 3 2 -2 19 -10 20 -107 20 l-105 0 -3 -117 -3 -118 -44 0 -44 0 -3 118 -3 117 -40 1 -40 1 37 -4z"/><path d="M2158 823 c17 -2 47 -2 65 0 17 2 3 4 -33 4 -36 0 -50 -2 -32 -4z"/><path d="M2542 823 l27 -4 3 -117 3 -117 45 -1 45 -1 -42 4 -43 4 0 120 0 119 -32 -1 c-30 -2 -31 -2 -6 -6z"/><path d="M2688 823 c6 -2 18 -2 25 0 6 3 1 5 -13 5 -14 0 -19 -2 -12 -5z"/><path d="M1963 793 c9 -2 23 -2 30 0 6 3 -1 5 -18 5 -16 0 -22 -2 -12 -5z"/><path d="M1399 763 c-13 -16 -12 -17 4 -4 16 13 21 21 13 21 -2 0 -10 -8 -17 -17z"/><path d="M1984 749 c-3 -6 -1 -16 6 -22 10 -9 11 -9 5 2 -4 8 -2 17 6 22 9 6 10 9 2 9 -6 0 -15 -5 -19 -11z"/><path d="M2198 753 c12 -2 30 -2 40 0 9 3 -1 5 -23 4 -22 0 -30 -2 -17 -4z"/><path d="M1588 743 c7 -3 16 -2 19 1 4 3 -2 6 -13 5 -11 0 -14 -3 -6 -6z"/><path d="M2283 713 c9 -2 25 -2 35 0 9 3 1 5 -18 5 -19 0 -27 -2 -17 -5z"/><path d="M2399 693 c-13 -16 -12 -17 4 -4 16 13 21 21 13 21 -2 0 -10 -8 -17 -17z"/><path d="M1192 675 c0 -16 2 -22 5 -12 2 9 2 23 0 30 -3 6 -5 -1 -5 -18z"/><path d="M1546 657 c3 -10 9 -15 12 -12 3 3 0 11 -7 18 -10 9 -11 8 -5 -6z"/><path d="M1652 650 c0 -14 2 -19 5 -12 2 6 2 18 0 25 -3 6 -5 1 -5 -13z"/><path d="M2129 633 c-13 -16 -12 -17 4 -4 16 13 21 21 13 21 -2 0 -10 -8 -17 -17z"/><path d="M1459 627 c5 -5 26 -7 47 -5 l39 3 -47 5 c-26 3 -43 1 -39 -3z"/><path d="M1629 603 c-13 -16 -12 -17 4 -4 16 13 21 21 13 21 -2 0 -10 -8 -17 -17z"/><path d="M1988 593 c6 -2 18 -2 25 0 6 3 1 5 -13 5 -14 0 -19 -2 -12 -5z"/><path d="M2443 583 c15 -2 39 -2 55 0 15 2 2 4 -28 4 -30 0 -43 -2 -27 -4z"/><path d="M1500 566 c0 -2 8 -10 18 -17 15 -13 16 -12 3 4 -13 16 -21 21 -21 13z"/><path d="M1129 523 c-13 -16 -12 -17 4 -4 16 13 21 21 13 21 -2 0 -10 -8 -17 -17z"/><path d="M2053 340 c0 -41 2 -58 4 -37 2 20 2 54 0 75 -2 20 -4 3 -4 -38z"/><path d="M2154 210 c0 -113 2 -159 3 -102 2 56 2 148 0 205 -1 56 -3 10 -3 -103z"/><path d="M2203 375 c0 -22 2 -30 4 -17 2 12 2 30 0 40 -3 9 -5 -1 -4 -23z"/><path d="M1407 393 l53 -4 3 -192 2 -192 3 198 2 197 -57 -2 -58 -2 52 -3z"/><path d="M1698 313 c6 -2 18 -2 25 0 6 3 1 5 -13 5 -14 0 -19 -2 -12 -5z"/><path d="M1948 313 c6 -2 18 -2 25 0 6 3 1 5 -13 5 -14 0 -19 -2 -12 -5z"/><path d="M1611 293 c-1 -27 11 -30 30 -5 13 15 12 16 -3 4 -14 -11 -17 -10 -21 5 -4 14 -5 13 -6 -4z"/><path d="M2204 160 c0 -85 2 -120 3 -78 2 43 2 113 0 156 -1 42 -3 7 -3 -78z"/><path d="M2590 286 c0 -2 8 -10 18 -17 15 -13 16 -12 3 4 -13 16 -21 21 -21 13z"/><path d="M1804 125 c0 -66 1 -92 3 -57 2 34 2 88 0 120 -2 31 -3 3 -3 -63z"/><path d="M2458 233 c6 -2 18 -2 25 0 6 3 1 5 -13 5 -14 0 -19 -2 -12 -5z"/><path d="M2634 110 c0 -58 1 -81 3 -53 2 29 2 77 0 106 -2 28 -3 5 -3 -53z"/><path d="M1614 100 c0 -52 1 -74 3 -47 2 26 2 68 0 95 -2 26 -3 4 -3 -48z"/><path d="M1704 95 c0 -50 1 -71 3 -48 2 23 2 64 0 90 -2 26 -3 8 -3 -42z"/><path d="M2052 160 c0 -14 2 -19 5 -12 2 6 2 18 0 25 -3 6 -5 1 -5 -13z"/><path d="M2531 114 c0 -11 3 -14 6 -6 3 7 2 16 -1 19 -3 4 -6 -2 -5 -13z"/><path d="M2342 100 c0 -14 2 -19 5 -12 2 6 2 18 0 25 -3 6 -5 1 -5 -13z"/><path d="M2441 104 c0 -11 3 -14 6 -6 3 7 2 16 -1 19 -3 4 -6 -2 -5 -13z"/><path d="M2051 24 c0 -11 3 -14 6 -6 3 7 2 16 -1 19 -3 4 -6 -2 -5 -13z"/><path d="M2526 25 c4 -8 8 -15 10 -15 2 0 4 7 4 15 0 8 -4 15 -10 15 -5 0 -7 -7 -4 -15z"/><path d="M1953 3 c9 -2 23 -2 30 0 6 3 -1 5 -18 5 -16 0 -22 -2 -12 -5z"/><path d="M2433 3 c9 -2 23 -2 30 0 6 3 -1 5 -18 5 -16 0 -22 -2 -12 -5z"/></g><g transform="translate(0.000000,101.000000) scale(0.100000,-0.100000)" fill="#FF8C1F" stroke="none"><path d="M1730 998 c0 -5 -3 -7 -7 -5 -5 2 -17 -6 -28 -18 -20 -21 -26 -69 -12 -92 6 -10 -30 -13 -155 -15 -146 -3 -163 -5 -166 -20 -3 -16 6 -18 78 -18 78 0 81 -1 78 -22 -3 -19 -9 -22 -50 -21 -33 1 -48 -3 -52 -14 -3 -8 -11 -11 -17 -7 -8 4 -9 3 -5 -4 4 -7 3 -12 -1 -12 -13 0 -10 -47 4 -61 13 -13 25 -15 106 -20 54 -3 65 -12 43 -34 -21 -21 -83 -19 -95 3 -5 9 -12 16 -15 15 -3 -1 -13 0 -22 4 -9 3 -19 0 -24 -6 -4 -7 -11 -13 -16 -14 -19 -4 -4 -54 16 -53 10 1 50 -31 45 -36 -3 -2 7 -15 21 -29 19 -16 28 -20 31 -11 3 6 9 10 14 6 5 -3 9 0 9 5 0 6 3 10 8 10 21 -4 22 3 1 21 l-24 19 42 1 c23 0 45 5 48 11 4 6 12 9 19 7 18 -6 51 36 51 65 1 15 -3 27 -7 27 -4 0 -7 5 -5 12 1 7 -3 12 -10 13 -6 0 -15 3 -19 8 -4 4 -33 7 -64 7 -39 0 -57 4 -57 13 0 8 20 12 69 11 l68 -1 0 44 0 44 38 -3 37 -3 0 -120 0 -120 47 3 47 4 3 116 3 117 105 0 c90 0 105 -2 108 -17 3 -14 -4 -16 -43 -14 -25 1 -48 -1 -51 -6 -3 -5 -9 -6 -14 -3 -24 15 -35 -61 -13 -84 8 -7 37 -15 66 -18 66 -5 77 -9 77 -26 0 -10 -15 -14 -57 -13 -32 1 -64 5 -70 9 -7 5 -13 5 -13 0 0 -4 -4 -2 -9 6 -11 18 -31 5 -31 -20 0 -17 11 -24 33 -20 4 0 7 -4 7 -10 0 -6 6 -9 14 -6 8 3 17 3 21 -1 10 -10 125 -11 131 -1 2 4 11 6 19 2 8 -3 15 1 15 8 0 7 3 10 6 7 6 -7 54 39 54 52 0 6 -5 10 -11 10 -5 0 -8 4 -4 9 3 6 -4 15 -15 21 -11 6 -20 8 -20 4 0 -3 -7 -1 -14 6 -9 6 -36 10 -63 9 -37 -3 -48 0 -48 11 0 12 11 14 52 12 76 -5 93 3 93 44 l0 34 57 0 c44 0 62 -5 79 -21 l23 -22 -25 -20 c-19 -15 -35 -18 -65 -14 -33 4 -39 2 -39 -13 0 -11 5 -22 10 -25 6 -4 8 -11 5 -16 -4 -5 -1 -9 6 -9 7 0 9 -3 6 -7 -9 -9 13 -34 24 -27 5 3 9 0 9 -6 0 -6 5 -8 10 -5 6 3 10 2 10 -3 0 -10 16 -12 80 -12 64 0 80 2 80 11 0 5 4 9 8 9 4 0 6 -15 4 -32 l-4 -33 62 0 61 0 -3 123 -3 122 28 0 28 0 -3 -122 -3 -123 53 0 52 0 0 124 0 123 25 -4 c21 -4 25 -1 25 18 l0 24 -462 1 c-255 1 -466 1 -471 0 -4 -1 -13 10 -19 25 -9 20 -9 27 1 33 7 5 12 12 12 17 -1 5 2 9 7 10 4 0 16 5 26 9 13 6 21 5 24 -3 2 -7 8 -10 13 -6 5 3 9 0 9 -6 0 -6 4 -9 9 -6 5 3 12 -1 15 -10 3 -8 10 -13 16 -9 5 3 15 -3 21 -13 8 -13 20 -17 40 -14 l28 4 -21 29 c-12 16 -28 29 -35 29 -7 0 -13 5 -13 11 0 5 -4 7 -10 4 -5 -3 -10 -1 -10 5 0 6 -4 8 -10 5 -5 -3 -10 -1 -10 5 0 7 -7 10 -15 6 -8 -3 -15 -2 -15 3 0 4 -29 8 -65 8 -36 1 -65 -3 -65 -9z m682 -239 c3 -56 -9 -89 -25 -72 -4 3 -7 2 -7 -3 0 -5 -18 -9 -40 -9 -22 0 -40 3 -40 8 0 4 -5 6 -11 5 -6 -2 -13 5 -14 16 -3 16 1 18 35 13 23 -3 46 0 55 7 19 14 27 66 13 84 -8 9 -5 12 10 12 18 0 21 -7 24 -61z"/><path d="M1546 970 c-1 -3 -2 -16 -2 -29 1 -19 7 -25 28 -25 14 -1 24 2 22 6 -3 4 -1 8 4 8 5 0 9 10 8 22 -1 16 -8 22 -29 22 -16 1 -30 -1 -31 -4z"/><path d="M1068 851 c77 -75 68 -177 -20 -235 -23 -15 -55 -17 -282 -16 -221 0 -257 -2 -262 -15 -3 -8 -10 -13 -14 -10 -4 3 -11 -2 -14 -11 -3 -8 -10 -12 -16 -9 -5 3 -10 1 -10 -5 0 -6 -4 -9 -9 -6 -5 3 -14 0 -20 -8 -9 -10 -8 -16 4 -26 8 -7 15 -9 15 -4 0 5 5 1 11 -9 6 -9 14 -15 20 -12 5 4 9 1 9 -4 0 -6 7 -11 15 -11 8 0 15 -5 15 -10 0 -7 83 -9 253 -7 291 5 287 5 287 18 0 6 5 7 12 3 6 -4 17 1 25 11 7 11 13 15 13 11 0 -5 14 7 32 25 18 19 31 37 30 42 -1 4 3 7 9 7 5 0 7 5 4 10 -3 6 -1 10 5 10 7 0 10 6 7 14 -3 8 -3 17 0 20 10 9 11 106 2 106 -5 0 -6 7 -3 15 4 8 1 15 -6 15 -6 0 -8 5 -5 10 3 6 1 10 -4 10 -6 0 -10 4 -8 8 1 5 -13 23 -30 41 -18 18 -33 30 -33 26 0 -4 -7 1 -16 9 -8 9 -20 14 -25 11 -5 -4 -9 -1 -9 4 0 6 -5 11 -11 11 -6 0 7 -18 29 -39z"/><path d="M2058 343 c2 -59 0 -74 -8 -60 -6 9 -15 15 -21 12 -5 -4 -9 -1 -9 5 0 6 -4 8 -10 5 -5 -3 -10 -2 -10 2 0 5 -18 8 -40 8 -22 0 -40 -3 -40 -8 0 -4 -4 -5 -10 -2 -5 3 -10 1 -10 -6 0 -7 -3 -9 -7 -6 -9 9 -44 -23 -37 -34 3 -5 0 -9 -6 -9 -6 0 -8 -4 -5 -10 3 -5 1 -10 -5 -10 -7 0 -9 -7 -6 -16 4 -9 1 -23 -5 -30 -7 -9 -8 -24 -3 -41 4 -16 6 -34 5 -40 -1 -7 3 -13 9 -13 6 0 8 -4 5 -10 -3 -5 -1 -10 4 -10 6 0 10 -5 8 -12 -1 -6 12 -21 29 -32 36 -26 120 -29 135 -5 5 8 9 10 9 5 0 -5 8 -2 17 5 15 13 16 12 11 -9 -6 -21 -3 -22 45 -22 l52 0 0 210 0 210 -50 0 -50 0 3 -77z m-27 -140 c7 -13 16 -23 21 -23 14 0 9 -37 -7 -50 -8 -7 -12 -17 -8 -23 3 -6 1 -7 -5 -3 -7 4 -12 3 -12 -2 0 -5 -17 -6 -37 -2 -22 3 -37 11 -35 18 1 7 -1 12 -5 12 -5 0 -8 14 -8 30 0 17 3 30 8 30 4 0 6 6 5 13 -2 6 3 11 10 10 6 -2 12 0 12 5 0 18 50 6 61 -15z"/><path d="M2205 375 l0 -45 58 0 57 0 0 45 0 45 -57 0 -58 0 0 -45z"/><path d="M1360 200 l0 -190 50 0 50 0 0 190 0 190 -50 0 -50 0 0 -190z"/><path d="M1670 306 c0 -5 -3 -6 -7 -3 -3 4 -12 -2 -20 -13 -18 -26 -33 -26 -33 0 0 17 -7 20 -50 20 l-50 0 0 -150 0 -150 50 0 50 0 0 88 c0 62 4 94 15 108 8 10 15 15 15 9 0 -5 4 -4 9 4 7 10 13 11 30 2 12 -7 19 -16 16 -21 -3 -5 -1 -11 5 -15 5 -3 10 -44 10 -91 l0 -84 44 0 45 0 3 123 c2 73 -1 125 -7 129 -5 4 -6 8 -1 8 5 0 1 9 -9 20 -10 11 -22 17 -26 14 -5 -3 -9 -1 -9 3 0 5 -18 8 -40 8 -22 0 -40 -4 -40 -9z"/><path d="M2435 310 c-4 -6 -15 -8 -26 -5 -11 4 -19 2 -19 -5 0 -6 -4 -9 -9 -6 -5 3 -8 -6 -8 -19 0 -14 4 -25 9 -25 6 0 8 -7 5 -15 -7 -17 9 -30 18 -15 4 6 10 8 15 5 5 -3 18 0 28 6 12 7 27 9 38 4 11 -5 24 -9 29 -10 6 0 9 -6 8 -13 -2 -7 2 -12 7 -12 6 0 10 -4 10 -8 0 -5 -15 -7 -32 -5 -62 7 -108 2 -108 -11 0 -5 -3 -7 -6 -3 -3 3 -15 -4 -26 -15 -20 -20 -33 -98 -16 -98 5 0 7 -3 5 -7 -5 -10 30 -43 37 -36 3 4 6 2 6 -3 0 -5 20 -9 45 -9 25 0 45 4 45 8 0 5 5 5 10 2 6 -3 13 1 16 9 8 20 24 21 24 1 0 -11 12 -15 44 -15 l44 0 4 113 c2 67 -1 115 -7 119 -5 4 -7 8 -3 8 4 0 -6 13 -23 29 -17 17 -37 27 -45 24 -8 -3 -14 0 -14 6 0 14 -97 15 -105 1z m88 -179 c18 -1 25 -31 6 -31 -5 0 -7 -6 -3 -12 4 -7 4 -10 -1 -6 -4 4 -16 3 -26 -3 -19 -10 -59 6 -59 24 0 16 25 34 45 32 11 -1 28 -3 38 -4z"/><path d="M2210 160 l0 -150 55 0 55 0 0 150 0 150 -55 0 -55 0 0 -150z"/></g><g transform="translate(0.000000,101.000000) scale(0.100000,-0.100000)" fill="#134672" stroke="none"><path d="M550 811 l0 -78 223 -8 c122 -4 230 -11 239 -16 26 -14 33 -55 14 -84 -9 -14 -14 -25 -10 -25 15 0 61 34 79 58 29 39 28 126 -2 168 -42 59 -66 64 -317 64 l-226 0 0 -79z"/><path d="M265 665 c-62 -33 -118 -85 -160 -150 -37 -59 -53 -100 -65 -174 -8 -47 -7 -58 17 -104 14 -28 49 -74 77 -102 52 -50 158 -111 176 -100 5 3 8 67 8 143 l-1 137 -34 63 c-33 58 -35 68 -31 132 3 59 9 76 36 116 18 25 32 50 30 55 -2 6 -26 -2 -53 -16z"/></g><g transform="translate(0.000000,101.000000) scale(0.100000,-0.100000)" fill="#005FA5" stroke="none"><path d="M4659 953 c-13 -16 -12 -17 4 -4 16 13 21 21 13 21 -2 0 -10 -8 -17 -17z"/><path d="M533 893 c70 -2 184 -2 255 0 70 1 12 3 -128 3 -140 0 -198 -2 -127 -3z"/><path d="M4814 892 c4 -7 -10 -12 -41 -15 l-48 -3 53 -2 c49 -2 66 8 40 24 -6 4 -8 3 -4 -4z"/><path d="M4880 880 l-35 -7 32 -2 c17 0 35 4 38 9 3 6 5 9 3 9 -2 -1 -19 -5 -38 -9z"/><path d="M2842 845 c0 -16 2 -22 5 -12 2 9 2 23 0 30 -3 6 -5 -1 -5 -18z"/><path d="M4323 775 c0 -27 2 -38 4 -22 2 15 2 37 0 50 -2 12 -4 0 -4 -28z"/><path d="M3419 763 c-13 -16 -12 -17 4 -4 9 7 17 15 17 17 0 8 -8 3 -21 -13z"/><path d="M4951 704 c0 -11 3 -14 6 -6 3 7 2 16 -1 19 -3 4 -6 -2 -5 -13z"/><path d="M4323 630 c0 -30 2 -43 4 -27 2 15 2 39 0 55 -2 15 -4 2 -4 -28z"/><path d="M3058 663 c12 -2 30 -2 40 0 9 3 -1 5 -23 4 -22 0 -30 -2 -17 -4z"/><path d="M3879 643 c-13 -16 -12 -17 4 -4 16 13 21 21 13 21 -2 0 -10 -8 -17 -17z"/><path d="M4640 656 c0 -2 8 -10 18 -17 15 -13 16 -12 3 4 -13 16 -21 21 -21 13z"/><path d="M5349 643 c-13 -16 -12 -17 4 -4 16 13 21 21 13 21 -2 0 -10 -8 -17 -17z"/><path d="M4168 613 c6 -2 18 -2 25 0 6 3 1 5 -13 5 -14 0 -19 -2 -12 -5z"/><path d="M4718 613 c6 -2 18 -2 25 0 6 3 1 5 -13 5 -14 0 -19 -2 -12 -5z"/><path d="M3384 368 l1 -43 58 -1 57 -1 -54 4 -55 4 -4 40 -4 39 1 -42z"/><path d="M5094 210 c0 -113 2 -159 3 -102 2 56 2 148 0 205 -1 56 -3 10 -3 -103z"/><path d="M5202 318 c-1 -54 1 -98 6 -98 4 0 6 30 4 67 -5 119 -9 131 -10 31z"/><path d="M3042 348 l-2 -47 -102 -4 -103 -3 103 -2 c114 -2 116 -1 109 64 -3 37 -4 37 -5 -8z"/><path d="M310 345 c13 -14 26 -25 28 -25 3 0 -5 11 -18 25 -13 14 -26 25 -28 25 -3 0 5 -11 18 -25z"/><path d="M4390 366 c0 -2 8 -10 18 -17 15 -13 16 -12 3 4 -13 16 -21 21 -21 13z"/><path d="M5386 293 c-6 -14 -5 -15 5 -6 7 7 10 15 7 18 -3 3 -9 -2 -12 -12z"/><path d="M3819 283 c-13 -16 -12 -17 4 -4 9 7 17 15 17 17 0 8 -8 3 -21 -13z"/><path d="M4700 286 c0 -2 8 -10 18 -17 15 -13 16 -12 3 4 -13 16 -21 21 -21 13z"/><path d="M2883 243 c26 -2 68 -2 95 0 26 2 4 3 -48 3 -52 0 -74 -1 -47 -3z"/><path d="M5329 223 c-13 -16 -12 -17 4 -4 16 13 21 21 13 21 -2 0 -10 -8 -17 -17z"/><path d="M4415 180 c10 -11 20 -20 23 -20 3 0 -3 9 -13 20 -10 11 -20 20 -23 20 -3 0 3 -9 13 -20z"/><path d="M120 135 c13 -14 26 -25 28 -25 3 0 -5 11 -18 25 -13 14 -26 25 -28 25 -3 0 5 -11 18 -25z"/><path d="M2888 153 c29 -2 74 -2 100 0 26 2 2 3 -53 3 -55 0 -76 -1 -47 -3z"/><path d="M5203 45 c0 -22 2 -30 4 -17 2 12 2 30 0 40 -3 9 -5 -1 -4 -23z"/><path d="M4470 36 c0 -2 8 -10 18 -17 15 -13 16 -12 3 4 -13 16 -21 21 -21 13z"/></g><g transform="translate(0.000000,101.000000) scale(0.100000,-0.100000)" fill="#0666A5" stroke="none"><path d="M3338 1003 c7 -3 16 -2 19 1 4 3 -2 6 -13 5 -11 0 -14 -3 -6 -6z"/><path d="M3418 1003 c6 -2 18 -2 25 0 6 3 1 5 -13 5 -14 0 -19 -2 -12 -5z"/><path d="M3398 963 c12 -2 32 -2 45 0 12 2 2 4 -23 4 -25 0 -35 -2 -22 -4z"/><path d="M4664 948 l-19 -23 23 19 c21 18 27 26 19 26 -2 0 -12 -10 -23 -22z"/><path d="M3211 924 c0 -11 3 -14 6 -6 3 7 2 16 -1 19 -3 4 -6 -2 -5 -13z"/><path d="M378 883 c7 -3 16 -2 19 1 4 3 -2 6 -13 5 -11 0 -14 -3 -6 -6z"/><path d="M3045 870 l-200 -6 203 -2 c129 -1 202 2 202 8 0 6 -1 9 -2 8 -2 -1 -93 -5 -203 -8z"/><path d="M3413 863 c37 -2 96 -2 130 0 34 2 4 3 -68 3 -71 0 -99 -1 -62 -3z"/><path d="M4038 863 c365 -3 432 -5 432 -17 0 -8 -10 -17 -22 -19 -20 -4 -19 -4 5 -6 23 -1 27 3 27 24 l0 25 -437 -2 -438 -3 433 -2z"/><path d="M4610 845 l0 -25 98 2 97 2 -92 3 c-73 3 -93 7 -93 18 0 13 57 15 393 18 l392 2 -397 3 -398 2 0 -25z"/><path d="M2858 823 c7 -3 16 -2 19 1 4 3 -2 6 -13 5 -11 0 -14 -3 -6 -6z"/><path d="M3003 823 c9 -2 25 -2 35 0 9 3 1 5 -18 5 -19 0 -27 -2 -17 -5z"/><path d="M3150 822 c0 -5 8 -16 18 -23 15 -13 16 -12 3 4 -12 16 -10 17 27 17 l41 0 3 -117 3 -118 50 0 50 0 3 118 3 117 99 0 99 0 4 -72 4 -73 -1 75 -1 75 -105 0 -105 0 -3 -117 -3 -118 -44 0 -44 0 -3 118 -3 117 -47 3 c-27 2 -48 -1 -48 -6z"/><path d="M3657 824 c-10 -10 -9 -64 1 -64 5 0 7 14 4 30 l-4 30 140 0 c126 0 141 -2 145 -17 3 -14 4 -13 3 2 -1 19 -9 20 -142 23 -77 1 -143 -1 -147 -4z"/><path d="M4047 823 c-4 -3 -7 -57 -7 -120 l0 -113 -45 0 -44 0 -4 75 -3 75 0 -77 1 -78 50 0 50 0 3 117 3 117 57 4 57 3 -56 2 c-31 1 -59 -1 -62 -5z"/><path d="M4278 823 c12 -2 30 -2 40 0 9 3 -1 5 -23 4 -22 0 -30 -2 -17 -4z"/><path d="M4904 817 c-2 -7 -3 -62 -1 -123 l3 -109 2 117 2 117 108 4 107 3 -108 2 c-81 1 -109 -1 -113 -11z"/><path d="M5263 823 c26 -2 68 -2 95 0 26 2 4 3 -48 3 -52 0 -74 -1 -47 -3z"/><path d="M3082 770 c0 -14 2 -19 5 -12 2 6 2 18 0 25 -3 6 -5 1 -5 -13z"/><path d="M3419 753 c-13 -16 -12 -17 4 -4 9 7 17 15 17 17 0 8 -8 3 -21 -13z"/><path d="M4741 736 c-9 -10 -8 -15 3 -19 10 -4 14 0 13 14 -2 23 -1 23 -16 5z"/><path d="M5065 729 c-4 -6 -5 -12 -2 -15 2 -3 7 2 10 11 7 17 1 20 -8 4z"/><path d="M522 723 c48 -2 129 -2 180 0 51 1 12 3 -87 3 -99 0 -141 -2 -93 -3z"/><path d="M4278 723 c12 -2 30 -2 40 0 9 3 -1 5 -23 4 -22 0 -30 -2 -17 -4z"/><path d="M3028 713 c7 -3 16 -2 19 1 4 3 -2 6 -13 5 -11 0 -14 -3 -6 -6z"/><path d="M3401 704 c0 -11 3 -14 6 -6 3 7 2 16 -1 19 -3 4 -6 -2 -5 -13z"/><path d="M3652 653 l-2 -62 -47 -4 -48 -3 48 -2 c56 -2 60 3 54 79 l-3 54 -2 -62z"/><path d="M3704 687 c-4 -6 -4 -9 1 -5 4 4 14 3 22 -4 7 -6 15 -9 18 -7 2 3 -4 10 -15 17 -15 9 -21 9 -26 -1z"/><path d="M3891 684 c0 -11 3 -14 6 -6 3 7 2 16 -1 19 -3 4 -6 -2 -5 -13z"/><path d="M4790 693 c0 -5 5 -15 10 -23 7 -12 9 -10 7 8 -1 19 -17 33 -17 15z"/><path d="M3410 666 c0 -2 8 -10 18 -17 15 -13 16 -12 3 4 -13 16 -21 21 -21 13z"/><path d="M5344 648 l-19 -23 23 19 c12 11 22 21 22 23 0 8 -8 2 -26 -19z"/><path d="M4100 656 c0 -2 8 -10 18 -17 15 -13 16 -12 3 4 -13 16 -21 21 -21 13z"/><path d="M4239 643 c-13 -16 -12 -17 4 -4 16 13 21 21 13 21 -2 0 -10 -8 -17 -17z"/><path d="M4650 656 c0 -2 8 -10 18 -17 15 -13 16 -12 3 4 -13 16 -21 21 -21 13z"/><path d="M5108 620 c2 -16 6 -30 8 -30 2 0 4 14 4 30 0 17 -4 30 -8 30 -5 0 -7 -13 -4 -30z"/><path d="M3488 623 c7 -3 16 -2 19 1 4 3 -2 6 -13 5 -11 0 -14 -3 -6 -6z"/><path d="M4353 583 c15 -2 39 -2 55 0 15 2 2 4 -28 4 -30 0 -43 -2 -27 -4z"/><path d="M4828 583 c12 -2 32 -2 45 0 12 2 2 4 -23 4 -25 0 -35 -2 -22 -4z"/><path d="M3150 576 c0 -2 7 -7 16 -10 8 -3 12 -2 9 4 -6 10 -25 14 -25 6z"/><path d="M3768 523 c7 -3 16 -2 19 1 4 3 -2 6 -13 5 -11 0 -14 -3 -6 -6z"/><path d="M3493 365 c0 -22 2 -30 4 -17 2 12 2 30 0 40 -3 9 -5 -1 -4 -23z"/><path d="M2813 383 c42 -2 112 -2 155 0 42 1 7 3 -78 3 -85 0 -120 -2 -77 -3z"/><path d="M4104 377 c-2 -7 -3 -94 -1 -192 l2 -180 3 187 2 187 113 4 112 3 -113 2 c-84 1 -114 -1 -118 -11z"/><path d="M4380 366 c0 -2 8 -10 18 -17 15 -13 16 -12 3 4 -13 16 -21 21 -21 13z"/><path d="M300 346 c0 -2 8 -10 18 -17 15 -13 16 -12 3 4 -13 16 -21 21 -21 13z"/><path d="M3703 303 c9 -2 25 -2 35 0 9 3 1 5 -18 5 -19 0 -27 -2 -17 -5z"/><path d="M3883 303 c9 -2 25 -2 35 0 9 3 1 5 -18 5 -19 0 -27 -2 -17 -5z"/><path d="M4200 270 l0 -40 48 2 47 1 -42 4 c-40 4 -43 6 -43 33 0 27 3 29 48 33 l47 3 -52 2 -53 2 0 -40z"/><path d="M4588 303 c6 -2 18 -2 25 0 6 3 1 5 -13 5 -14 0 -19 -2 -12 -5z"/><path d="M4953 303 c9 -2 25 -2 35 0 9 3 1 5 -18 5 -19 0 -27 -2 -17 -5z"/><path d="M3394 155 c0 -82 2 -115 3 -72 2 43 2 110 0 150 -1 40 -3 5 -3 -78z"/><path d="M4889 273 c-13 -16 -12 -17 4 -4 16 13 21 21 13 21 -2 0 -10 -8 -17 -17z"/><path d="M4700 276 c0 -2 8 -10 18 -17 15 -13 16 -12 3 4 -13 16 -21 21 -21 13z"/><path d="M5329 233 c-13 -16 -12 -17 4 -4 16 13 21 21 13 21 -2 0 -10 -8 -17 -17z"/><path d="M5064 115 c0 -61 1 -84 3 -52 2 32 2 81 0 110 -2 29 -3 3 -3 -58z"/><path d="M4568 183 c7 -3 16 -2 19 1 4 3 -2 6 -13 5 -11 0 -14 -3 -6 -6z"/><path d="M4964 100 c0 -52 1 -74 3 -47 2 26 2 68 0 95 -2 26 -3 4 -3 -48z"/><path d="M3814 95 c0 -50 1 -71 3 -48 2 23 2 64 0 90 -2 26 -3 8 -3 -42z"/><path d="M4202 128 l1 -43 4 37 c4 37 4 37 56 41 l52 3 -57 2 -58 2 2 -42z"/><path d="M4873 90 c0 -47 2 -66 4 -42 2 23 2 61 0 85 -2 23 -4 4 -4 -43z"/><path d="M2888 93 c28 -2 76 -2 105 0 28 2 5 3 -53 3 -58 0 -81 -1 -52 -3z"/><path d="M3199 73 c-13 -16 -12 -17 4 -4 9 7 17 15 17 17 0 8 -8 3 -21 -13z"/><path d="M4426 73 c-6 -14 -5 -15 5 -6 7 7 10 15 7 18 -3 3 -9 -2 -12 -12z"/><path d="M4588 63 c7 -3 16 -2 19 1 4 3 -2 6 -13 5 -11 0 -14 -3 -6 -6z"/><path d="M4470 46 c0 -2 8 -10 18 -17 15 -13 16 -12 3 4 -13 16 -21 21 -21 13z"/><path d="M4624 28 c-4 -6 -3 -8 4 -4 5 3 13 0 15 -6 3 -8 6 -6 6 5 1 19 -14 23 -25 5z"/><path d="M4548 3 c6 -2 18 -2 25 0 6 3 1 5 -13 5 -14 0 -19 -2 -12 -5z"/></g><g transform="translate(0.000000,101.000000) scale(0.100000,-0.100000)" fill="#0066AC" stroke="none"><path d="M3320 999 c-25 -5 -56 -17 -70 -27 -30 -23 -40 -79 -16 -88 46 -18 -3 -24 -184 -24 -164 0 -200 -3 -200 -14 0 -7 9 -16 20 -19 18 -5 20 -14 20 -87 0 -73 2 -83 25 -106 31 -30 110 -68 185 -87 48 -13 56 -13 64 0 9 17 -8 33 -35 33 -26 0 -92 30 -116 53 -21 18 -23 30 -23 109 l0 88 30 0 c34 0 70 -31 70 -60 0 -24 -34 -60 -56 -60 -9 0 -14 -7 -12 -17 3 -15 14 -18 57 -18 46 1 57 5 77 29 28 32 31 72 7 98 -9 10 -14 21 -10 24 8 8 73 8 86 -1 7 -4 11 -50 11 -121 l0 -114 45 0 44 0 3 118 3 117 105 0 105 0 0 -75 c0 -65 -2 -75 -19 -78 -34 -7 -47 35 -20 63 24 23 10 45 -29 45 -71 0 -104 -87 -49 -130 22 -18 36 -21 75 -17 44 4 47 3 47 -19 0 -22 4 -24 45 -24 l45 0 0 59 c0 66 15 91 55 91 12 0 25 7 29 15 7 19 -40 33 -57 16 -19 -19 -28 -12 -25 22 l3 32 145 0 c143 0 145 0 148 -22 3 -22 1 -23 -92 -23 -89 0 -96 -1 -96 -20 0 -11 7 -20 15 -20 16 0 31 -43 20 -59 -8 -14 -58 -14 -71 -1 -8 8 -15 6 -23 -4 -28 -34 90 -70 149 -46 33 14 46 45 36 85 -6 23 -4 25 29 25 l35 0 0 -75 0 -75 45 0 44 0 3 118 3 117 58 3 57 3 0 -56 c0 -49 -2 -55 -20 -55 -12 0 -25 -11 -32 -26 -11 -24 -9 -29 15 -50 39 -34 81 -31 119 6 19 20 40 30 59 30 28 0 29 -2 29 -45 l0 -45 50 0 50 0 0 120 c0 113 1 120 20 120 11 0 20 7 20 15 0 13 -69 15 -558 15 -494 0 -560 2 -580 16 -34 24 -25 55 22 78 37 18 47 18 125 7 47 -7 114 -24 148 -37 35 -14 77 -24 95 -22 53 5 -168 89 -245 93 -33 2 -62 6 -65 9 -7 8 -36 6 -92 -5z m1010 -224 l0 -55 -35 0 -35 0 0 55 0 55 35 0 35 0 0 -55z"/><path d="M4833 988 l-33 -11 27 -48 c21 -40 31 -49 54 -49 29 0 29 -4 8 83 -6 20 -13 37 -17 36 -4 -1 -22 -6 -39 -11z"/><path d="M4677 952 c-15 -16 -13 -19 28 -45 30 -20 54 -27 77 -25 l32 3 -53 43 c-30 23 -57 42 -61 42 -4 0 -14 -8 -23 -18z"/><path d="M4937 954 c-13 -13 -7 -42 10 -48 21 -8 36 6 31 30 -3 19 -29 30 -41 18z"/><path d="M380 883 c-14 -2 -42 -9 -62 -14 l-38 -10 2 -82 c1 -45 -1 -88 -5 -94 -6 -10 -2 -11 17 -3 15 5 26 6 26 0 0 -5 21 3 46 17 32 18 66 27 115 31 l69 5 0 78 0 79 -72 -1 c-40 -1 -84 -4 -98 -6z"/><path d="M4620 845 c0 -11 19 -15 93 -17 l92 -3 2 -82 c1 -68 -2 -82 -15 -85 -30 -7 -52 3 -58 28 -8 32 2 55 26 61 34 9 16 28 -28 31 -34 3 -47 -2 -67 -22 -70 -70 19 -160 123 -123 19 7 22 5 22 -17 0 -24 3 -26 45 -26 l44 0 3 118 3 117 108 3 108 3 -3 -78 c-3 -72 -5 -78 -25 -81 -31 -4 -45 45 -18 64 25 19 12 44 -24 44 -43 0 -60 -9 -77 -41 -19 -38 -9 -76 27 -94 32 -17 85 -20 94 -5 12 20 25 9 25 -20 0 -29 1 -30 50 -30 l49 0 3 73 c3 64 5 72 23 72 25 0 35 -52 12 -61 -9 -3 -13 -13 -10 -25 4 -14 14 -19 42 -19 47 0 81 33 81 77 0 56 -76 92 -131 63 -17 -10 -19 -7 -19 25 l0 35 90 0 c73 0 90 3 90 15 0 13 -50 15 -390 15 -336 0 -390 -2 -390 -15z"/><path d="M4760 716 c0 -2 8 -10 18 -17 15 -13 16 -12 3 4 -13 16 -21 21 -21 13z"/><path d="M234 654 c-18 -14 -18 -15 4 -4 12 6 22 13 22 15 0 8 -5 6 -26 -11z"/><path d="M159 593 l-24 -28 28 24 c15 14 27 26 27 28 0 8 -8 1 -31 -24z"/><path d="M3757 574 c-4 -4 -7 -16 -7 -26 0 -13 7 -18 26 -18 21 0 25 4 22 22 -3 23 -27 35 -41 22z"/><path d="M3390 365 l0 -35 50 0 50 0 0 35 0 35 -50 0 -50 0 0 -35z"/><path d="M5100 205 l0 -195 50 0 50 0 0 39 c0 22 6 44 15 51 12 10 19 3 45 -39 31 -50 33 -51 81 -51 27 0 49 2 49 4 0 3 -22 42 -49 87 l-50 82 29 37 c16 20 36 43 45 50 26 22 17 30 -34 30 -46 0 -51 -2 -82 -45 -19 -24 -37 -45 -41 -45 -5 0 -8 43 -8 95 l0 95 -50 0 -50 0 0 -195z"/><path d="M2740 195 l0 -185 150 0 150 0 0 40 0 40 -100 0 -100 0 0 35 0 35 90 0 90 0 0 40 0 40 -90 0 -90 0 0 30 0 30 100 0 100 0 0 40 0 40 -150 0 -149 0 -1 -185z"/><path d="M4110 194 l0 -186 128 4 c138 4 168 14 190 64 24 51 9 92 -43 121 -16 9 -15 12 9 36 38 38 36 87 -5 121 -29 25 -36 26 -154 26 l-124 0 -1 -186z m204 100 c33 -33 11 -56 -58 -62 l-56 -4 0 41 0 41 49 0 c32 0 55 -6 65 -16z m7 -134 c23 -13 25 -37 5 -59 -11 -12 -29 -15 -70 -13 l-56 4 0 39 0 39 51 0 c28 0 59 -5 70 -10z"/><path d="M315 178 l0 -148 35 -10 c19 -6 92 -10 162 -10 l127 0 1 63 c2 96 0 140 -7 150 -3 6 -1 7 5 3 8 -5 11 1 10 18 l-2 26 -112 0 c-103 0 -116 2 -165 28 l-54 28 0 -148z"/><path d="M3076 288 c4 -7 24 -38 44 -68 43 -65 56 -88 45 -78 -7 7 -95 -111 -95 -127 0 -3 20 -5 45 -5 42 0 47 3 71 41 l26 42 25 -42 c23 -39 26 -41 74 -41 37 0 48 3 43 12 -4 7 -25 39 -47 71 -21 32 -36 65 -33 73 3 8 24 41 46 74 l41 60 -50 0 c-46 0 -51 -3 -71 -35 -24 -39 -33 -38 -55 6 -14 26 -20 29 -66 29 -37 0 -48 -3 -43 -12z"/><path d="M3400 155 l0 -145 45 0 45 0 0 145 0 145 -45 0 -45 0 0 -145z"/><path d="M3530 155 l0 -145 50 0 50 0 0 93 c0 99 7 117 47 117 33 0 43 -29 43 -124 l0 -86 44 0 44 0 4 95 c3 101 10 115 54 115 29 0 34 -17 34 -121 l0 -89 50 0 50 0 0 110 c0 115 -12 161 -45 174 -34 12 -100 5 -125 -13 -24 -19 -25 -19 -48 0 -33 25 -92 25 -126 -2 l-26 -20 0 20 c0 18 -6 21 -50 21 l-50 0 0 -145z"/><path d="M4513 290 c-26 -11 -26 -10 -14 -44 9 -23 13 -24 64 -19 42 4 57 2 70 -12 33 -32 21 -41 -46 -37 -56 4 -67 1 -92 -21 -62 -53 -22 -147 64 -147 20 0 46 7 57 15 25 19 34 19 34 0 0 -11 12 -15 45 -15 l45 0 0 110 c0 107 -1 111 -29 142 -27 30 -34 33 -102 35 -41 2 -84 -2 -96 -7z m135 -177 c3 -21 -29 -53 -55 -53 -13 0 -43 27 -43 40 0 41 92 54 98 13z"/><path d="M4780 155 l0 -145 45 0 45 0 0 78 c0 88 15 125 50 130 39 6 50 -21 50 -120 l0 -88 45 0 45 0 0 120 c0 115 -1 122 -25 145 -32 33 -98 35 -132 3 l-23 -21 0 21 c0 20 -5 22 -50 22 l-50 0 0 -145z"/></g><g transform="translate(0.000000,101.000000) scale(0.100000,-0.100000)" fill="#006CAC" stroke="none"><path d="M3458 1003 c7 -3 16 -2 19 1 4 3 -2 6 -13 5 -11 0 -14 -3 -6 -6z"/><path d="M4860 1006 c0 -2 7 -6 15 -10 8 -3 15 -1 15 4 0 6 -7 10 -15 10 -8 0 -15 -2 -15 -4z"/><path d="M3229 963 c-13 -16 -12 -17 4 -4 16 13 21 21 13 21 -2 0 -10 -8 -17 -17z"/><path d="M4948 963 c7 -3 16 -2 19 1 4 3 -2 6 -13 5 -11 0 -14 -3 -6 -6z"/><path d="M3210 903 c0 -6 8 -17 18 -24 16 -13 16 -13 2 6 -8 11 -16 22 -17 24 -2 2 -3 0 -3 -6z"/><path d="M3715 900 l-40 -7 48 -2 c30 0 46 3 42 9 -3 6 -7 9 -8 9 -1 -1 -20 -5 -42 -9z"/><path d="M2883 740 c0 -47 2 -66 4 -42 2 23 2 61 0 85 -2 23 -4 4 -4 -43z"/><path d="M4263 775 c0 -27 2 -38 4 -22 2 15 2 37 0 50 -2 12 -4 0 -4 -28z"/><path d="M4434 705 c0 -66 1 -92 3 -57 2 34 2 88 0 120 -2 31 -3 3 -3 -63z"/><path d="M4803 760 c0 -36 2 -50 4 -32 2 17 2 47 0 65 -2 17 -4 3 -4 -33z"/><path d="M5113 755 c0 -38 2 -53 4 -32 2 20 2 52 0 70 -2 17 -4 1 -4 -38z"/><path d="M125 758 l-40 -43 43 40 c23 21 42 40 42 42 0 8 -9 0 -45 -39z"/><path d="M3483 783 c9 -2 23 -2 30 0 6 3 -1 5 -18 5 -16 0 -22 -2 -12 -5z"/><path d="M3753 779 c-15 -15 -4 -49 16 -48 10 0 11 2 4 6 -7 2 -13 13 -13 23 0 17 10 20 93 23 l92 3 -90 2 c-55 1 -95 -2 -102 -9z"/><path d="M4723 783 c9 -2 25 -2 35 0 9 3 1 5 -18 5 -19 0 -27 -2 -17 -5z"/><path d="M5020 786 c0 -2 15 -6 34 -8 19 -2 32 0 30 4 -5 8 -64 12 -64 4z"/><path d="M5273 783 c9 -2 23 -2 30 0 6 3 -1 5 -18 5 -16 0 -22 -2 -12 -5z"/><path d="M5340 766 c0 -2 8 -10 18 -17 15 -13 16 -12 3 4 -13 16 -21 21 -21 13z"/><path d="M3526 745 c-3 -8 -1 -15 4 -15 6 0 10 7 10 15 0 8 -2 15 -4 15 -2 0 -6 -7 -10 -15z"/><path d="M4770 750 c-9 -6 -10 -10 -3 -10 6 0 15 5 18 10 8 12 4 12 -15 0z"/><path d="M5086 743 c-6 -14 -5 -15 5 -6 7 7 10 15 7 18 -3 3 -9 -2 -12 -12z"/><path d="M3688 733 c7 -3 16 -2 19 1 4 3 -2 6 -13 5 -11 0 -14 -3 -6 -6z"/><path d="M3893 733 c9 -2 25 -2 35 0 9 3 1 5 -18 5 -19 0 -27 -2 -17 -5z"/><path d="M5240 736 c0 -2 7 -7 16 -10 8 -3 12 -2 9 4 -6 10 -25 14 -25 6z"/><path d="M3012 695 c0 -16 2 -22 5 -12 2 9 2 23 0 30 -3 6 -5 -1 -5 -18z"/><path d="M3791 704 c0 -11 3 -14 6 -6 3 7 2 16 -1 19 -3 4 -6 -2 -5 -13z"/><path d="M4632 700 c0 -14 2 -19 5 -12 2 6 2 18 0 25 -3 6 -5 1 -5 -13z"/><path d="M4766 711 c-4 -5 -2 -12 3 -15 5 -4 12 -2 15 3 4 5 2 12 -3 15 -5 4 -12 2 -15 -3z"/><path d="M309 653 l-24 -28 28 24 c15 14 27 26 27 28 0 8 -8 1 -31 -24z"/><path d="M3686 671 c-3 -5 2 -15 12 -22 15 -12 16 -12 5 2 -7 9 -10 19 -6 22 3 4 4 7 0 7 -3 0 -8 -4 -11 -9z"/><path d="M2990 656 c0 -2 8 -10 18 -17 15 -13 16 -12 3 4 -13 16 -21 21 -21 13z"/><path d="M2905 630 c10 -11 20 -20 23 -20 3 0 -3 9 -13 20 -10 11 -20 20 -23 20 -3 0 3 -9 13 -20z"/><path d="M5243 640 c2 -10 17 -15 43 -16 37 -1 38 -1 4 3 -19 3 -39 10 -43 16 -6 8 -7 7 -4 -3z"/><path d="M3548 610 c2 -16 6 -30 8 -30 2 0 4 14 4 30 0 17 -4 30 -8 30 -5 0 -7 -13 -4 -30z"/><path d="M4802 605 c0 -16 2 -22 5 -12 2 9 2 23 0 30 -3 6 -5 -1 -5 -18z"/><path d="M3788 613 c7 -3 16 -2 19 1 4 3 -2 6 -13 5 -11 0 -14 -3 -6 -6z"/><path d="M5138 583 c18 -2 45 -2 60 0 15 2 0 4 -33 4 -33 0 -45 -2 -27 -4z"/><path d="M1 524 c0 -11 3 -14 6 -6 3 7 2 16 -1 19 -3 4 -6 -2 -5 -13z"/><path d="M3418 403 c18 -2 45 -2 60 0 15 2 0 4 -33 4 -33 0 -45 -2 -27 -4z"/><path d="M5123 403 c15 -2 39 -2 55 0 15 2 2 4 -28 4 -30 0 -43 -2 -27 -4z"/><path d="M1 374 c0 -11 3 -14 6 -6 3 7 2 16 -1 19 -3 4 -6 -2 -5 -13z"/><path d="M2730 200 c0 -106 2 -191 5 -188 7 7 7 369 0 376 -3 3 -5 -82 -5 -188z"/><path d="M3060 303 c0 -5 27 -8 59 -8 33 0 57 3 54 8 -2 4 -29 7 -59 7 -30 0 -54 -3 -54 -7z"/><path d="M3283 303 c15 -2 39 -2 55 0 15 2 2 4 -28 4 -30 0 -43 -2 -27 -4z"/><path d="M3442 303 l47 -4 4 -145 3 -144 -1 147 0 148 -50 1 -50 1 47 -4z"/><path d="M3578 303 c37 -3 52 -8 52 -19 0 -19 15 -18 31 4 13 15 12 16 -2 4 -14 -10 -18 -10 -23 3 -4 11 -19 15 -58 13 l-53 -2 53 -3z"/><path d="M4558 303 c7 -3 16 -2 19 1 4 3 -2 6 -13 5 -11 0 -14 -3 -6 -6z"/><path d="M4628 303 c7 -3 16 -2 19 1 4 3 -2 6 -13 5 -11 0 -14 -3 -6 -6z"/><path d="M4774 297 c-2 -7 -3 -76 -1 -152 l3 -140 2 147 2 147 53 4 52 3 -53 2 c-35 1 -54 -2 -58 -11z"/><path d="M5269 293 c-12 -16 -12 -16 1 -6 8 6 31 13 50 16 l35 4 -36 1 c-24 1 -41 -4 -50 -15z"/><path d="M5368 303 c7 -3 16 -2 19 1 4 3 -2 6 -13 5 -11 0 -14 -3 -6 -6z"/><path d="M3785 280 c10 -11 20 -20 23 -20 3 0 -3 9 -13 20 -10 11 -20 20 -23 20 -3 0 3 -9 13 -20z"/><path d="M5020 296 c0 -2 8 -10 18 -17 15 -13 16 -12 3 4 -13 16 -21 21 -21 13z"/><path d="M4421 274 c0 -11 3 -14 6 -6 3 7 2 16 -1 19 -3 4 -6 -2 -5 -13z"/><path d="M533 273 c59 -2 154 -2 210 0 56 1 8 3 -108 3 -115 0 -161 -2 -102 -3z"/><path d="M888 273 c23 -2 59 -2 80 0 20 2 1 4 -43 4 -44 0 -61 -2 -37 -4z"/><path d="M5359 263 c-13 -16 -12 -17 4 -4 9 7 17 15 17 17 0 8 -8 3 -21 -13z"/><path d="M4389 223 l-24 -28 28 24 c15 14 27 26 27 28 0 8 -8 1 -31 -24z"/><path d="M3023 200 c0 -25 2 -35 4 -22 2 12 2 32 0 45 -2 12 -4 2 -4 -23z"/><path d="M4563 223 c9 -2 25 -2 35 0 9 3 1 5 -18 5 -19 0 -27 -2 -17 -5z"/><path d="M3668 213 c7 -3 16 -2 19 1 4 3 -2 6 -13 5 -11 0 -14 -3 -6 -6z"/><path d="M3848 213 c6 -2 18 -2 25 0 6 3 1 5 -13 5 -14 0 -19 -2 -12 -5z"/><path d="M4004 115 c0 -61 1 -84 3 -52 2 32 2 81 0 110 -2 29 -3 3 -3 -58z"/><path d="M4508 213 c7 -3 16 -2 19 1 4 3 -2 6 -13 5 -11 0 -14 -3 -6 -6z"/><path d="M4744 115 c0 -61 1 -84 3 -52 2 32 2 81 0 110 -2 29 -3 3 -3 -58z"/><path d="M4918 213 c7 -3 16 -2 19 1 4 3 -2 6 -13 5 -11 0 -14 -3 -6 -6z"/><path d="M3634 100 c0 -52 1 -74 3 -47 2 26 2 68 0 95 -2 26 -3 4 -3 -48z"/><path d="M4538 183 c7 -3 16 -2 19 1 4 3 -2 6 -13 5 -11 0 -14 -3 -6 -6z"/><path d="M4598 183 c7 -3 16 -2 19 1 4 3 -2 6 -13 5 -11 0 -14 -3 -6 -6z"/><path d="M3714 95 c0 -50 1 -71 3 -48 2 23 2 64 0 90 -2 26 -3 8 -3 -42z"/><path d="M4593 133 c9 -2 23 -2 30 0 6 3 -1 5 -18 5 -16 0 -22 -2 -12 -5z"/><path d="M4641 114 c0 -11 3 -14 6 -6 3 7 2 16 -1 19 -3 4 -6 -2 -5 -13z"/><path d="M5216 102 c-3 -5 1 -9 9 -9 8 0 12 4 9 9 -3 4 -7 8 -9 8 -2 0 -6 -4 -9 -8z"/><path d="M3043 55 c0 -27 2 -38 4 -22 2 15 2 37 0 50 -2 12 -4 0 -4 -28z"/><path d="M4220 94 c38 -8 90 -9 90 -2 0 4 -24 7 -52 7 -29 -1 -46 -3 -38 -5z"/><path d="M4409 43 c-13 -16 -12 -17 4 -4 16 13 21 21 13 21 -2 0 -10 -8 -17 -17z"/><path d="M547 3 c84 -2 222 -2 306 0 83 1 15 3 -153 3 -168 0 -236 -2 -153 -3z"/></g><g transform="translate(0.000000,101.000000) scale(0.100000,-0.100000)" fill="#0085CC" stroke="none"><path d="M215 824 c-145 -96 -225 -249 -212 -404 3 -36 10 -76 15 -90 l10 -25 6 30 c34 156 110 268 231 340 13 8 18 23 17 55 0 137 -1 138 -67 94z"/><path d="M649 268 c-1 -2 -3 -33 -4 -70 -2 -37 -4 -79 -5 -95 -1 -15 -2 -43 -1 -60 l1 -33 183 0 182 0 98 64 99 64 -101 66 -102 66 -174 0 c-96 0 -175 -1 -176 -2z"/></g></svg>