<svg version="1.0" xmlns="http://www.w3.org/2000/svg" width="281.000000" height="150.000000" viewBox="0 0 281.000000 150.000000" preserveAspectRatio="xMidYMid meet"><rect x="16" y="0" width="18" height="10" fill="rgb(114,161,209)" /><rect x="33" y="0" width="18" height="10" fill="rgb(114,161,209)" /><rect x="50" y="0" width="18" height="10" fill="rgb(114,161,209)" /><rect x="67" y="0" width="18" height="10" fill="rgb(114,161,209)" /><rect x="84" y="0" width="18" height="10" fill="rgb(114,161,209)" /><rect x="101" y="0" width="18" height="10" fill="rgb(181,197,190)" /><rect x="118" y="0" width="18" height="10" fill="rgb(252,223,107)" /><rect x="135" y="0" width="18" height="10" fill="rgb(252,223,107)" /><rect x="152" y="0" width="18" height="10" fill="rgb(252,223,107)" /><rect x="169" y="0" width="18" height="10" fill="rgb(252,223,107)" /><rect x="186" y="0" width="18" height="10" fill="rgb(252,223,107)" /><rect x="203" y="0" width="18" height="10" fill="rgb(252,223,107)" /><rect x="220" y="0" width="18" height="10" fill="rgb(252,223,107)" /><rect x="237" y="0" width="18" height="10" fill="rgb(252,223,107)" /><rect x="0" y="8" width="18" height="10" fill="rgb(68,129,194)" /><rect x="16" y="8" width="18" height="10" fill="rgb(0,84,172)" /><rect x="33" y="8" width="18" height="10" fill="rgb(13,93,176)" /><rect x="50" y="8" width="18" height="10" fill="rgb(22,100,179)" /><rect x="67" y="8" width="18" height="10" fill="rgb(6,88,174)" /><rect x="84" y="8" width="18" height="10" fill="rgb(0,84,172)" /><rect x="101" y="8" width="18" height="10" fill="rgb(122,151,140)" /><rect x="118" y="8" width="18" height="10" fill="rgb(249,200,4)" /><rect x="135" y="8" width="18" height="10" fill="rgb(240,196,9)" /><rect x="152" y="8" width="18" height="10" fill="rgb(254,202,0)" /><rect x="169" y="8" width="18" height="10" fill="rgb(253,202,0)" /><rect x="186" y="8" width="18" height="10" fill="rgb(236,194,12)" /><rect x="203" y="8" width="18" height="10" fill="rgb(254,202,0)" /><rect x="220" y="8" width="18" height="10" fill="rgb(219,186,23)" /><rect x="237" y="8" width="18" height="10" fill="rgb(228,190,18)" /><rect x="254" y="8" width="27" height="10" fill="rgb(254,212,47)" /><rect x="0" y="17" width="18" height="10" fill="rgb(68,129,194)" /><rect x="16" y="17" width="18" height="10" fill="rgb(4,86,173)" /><rect x="33" y="17" width="18" height="10" fill="rgb(16,95,177)" /><rect x="50" y="17" width="18" height="10" fill="rgb(0,84,172)" /><rect x="67" y="17" width="18" height="10" fill="rgb(18,97,178)" /><rect x="84" y="17" width="18" height="10" fill="rgb(0,84,172)" /><rect x="101" y="17" width="18" height="10" fill="rgb(122,151,140)" /><rect x="118" y="17" width="18" height="10" fill="rgb(197,176,41)" /><rect x="135" y="17" width="18" height="10" fill="rgb(114,137,94)" /><rect x="152" y="17" width="18" height="10" fill="rgb(254,202,0)" /><rect x="169" y="17" width="18" height="10" fill="rgb(246,198,5)" /><rect x="186" y="17" width="18" height="10" fill="rgb(67,115,124)" /><rect x="203" y="17" width="18" height="10" fill="rgb(237,194,11)" /><rect x="220" y="17" width="18" height="10" fill="rgb(23,95,157)" /><rect x="237" y="17" width="18" height="10" fill="rgb(43,104,142)" /><rect x="254" y="17" width="27" height="10" fill="rgb(252,211,49)" /><rect x="0" y="26" width="18" height="10" fill="rgb(68,129,194)" /><rect x="16" y="26" width="18" height="10" fill="rgb(15,95,177)" /><rect x="33" y="26" width="18" height="10" fill="rgb(83,141,199)" /><rect x="50" y="26" width="18" height="10" fill="rgb(20,98,178)" /><rect x="67" y="26" width="18" height="10" fill="rgb(86,143,200)" /><rect x="84" y="26" width="18" height="10" fill="rgb(10,91,175)" /><rect x="101" y="26" width="18" height="10" fill="rgb(122,151,140)" /><rect x="118" y="26" width="18" height="10" fill="rgb(197,176,41)" /><rect x="135" y="26" width="18" height="10" fill="rgb(114,137,94)" /><rect x="152" y="26" width="18" height="10" fill="rgb(254,202,0)" /><rect x="169" y="26" width="18" height="10" fill="rgb(246,198,5)" /><rect x="186" y="26" width="18" height="10" fill="rgb(67,115,124)" /><rect x="203" y="26" width="18" height="10" fill="rgb(182,169,48)" /><rect x="220" y="26" width="18" height="10" fill="rgb(91,126,110)" /><rect x="237" y="26" width="18" height="10" fill="rgb(67,115,126)" /><rect x="254" y="26" width="27" height="10" fill="rgb(229,200,64)" /><rect x="0" y="35" width="18" height="10" fill="rgb(68,129,194)" /><rect x="16" y="35" width="18" height="10" fill="rgb(36,109,184)" /><rect x="33" y="35" width="18" height="10" fill="rgb(165,196,226)" /><rect x="50" y="35" width="18" height="10" fill="rgb(81,140,198)" /><rect x="67" y="35" width="18" height="10" fill="rgb(154,189,222)" /><rect x="84" y="35" width="18" height="10" fill="rgb(27,102,180)" /><rect x="101" y="35" width="18" height="10" fill="rgb(122,151,140)" /><rect x="118" y="35" width="18" height="10" fill="rgb(197,176,41)" /><rect x="135" y="35" width="18" height="10" fill="rgb(114,137,94)" /><rect x="152" y="35" width="18" height="10" fill="rgb(254,202,0)" /><rect x="169" y="35" width="18" height="10" fill="rgb(246,198,5)" /><rect x="186" y="35" width="18" height="10" fill="rgb(67,115,124)" /><rect x="203" y="35" width="18" height="10" fill="rgb(158,158,64)" /><rect x="220" y="35" width="18" height="10" fill="rgb(153,155,68)" /><rect x="237" y="35" width="18" height="10" fill="rgb(147,153,74)" /><rect x="254" y="35" width="27" height="10" fill="rgb(228,200,65)" /><rect x="0" y="44" width="18" height="10" fill="rgb(68,129,194)" /><rect x="16" y="44" width="18" height="10" fill="rgb(41,112,185)" /><rect x="33" y="44" width="18" height="10" fill="rgb(195,216,235)" /><rect x="50" y="44" width="18" height="10" fill="rgb(143,181,218)" /><rect x="67" y="44" width="18" height="10" fill="rgb(179,205,230)" /><rect x="84" y="44" width="18" height="10" fill="rgb(32,106,182)" /><rect x="101" y="44" width="18" height="10" fill="rgb(122,151,140)" /><rect x="118" y="44" width="18" height="10" fill="rgb(197,176,41)" /><rect x="135" y="44" width="18" height="10" fill="rgb(114,137,94)" /><rect x="152" y="44" width="18" height="10" fill="rgb(254,202,0)" /><rect x="169" y="44" width="18" height="10" fill="rgb(246,198,5)" /><rect x="186" y="44" width="18" height="10" fill="rgb(67,115,124)" /><rect x="203" y="44" width="18" height="10" fill="rgb(154,156,69)" /><rect x="220" y="44" width="18" height="10" fill="rgb(156,157,65)" /><rect x="237" y="44" width="18" height="10" fill="rgb(254,202,0)" /><rect x="254" y="44" width="27" height="10" fill="rgb(254,212,47)" /><rect x="0" y="53" width="18" height="10" fill="rgb(68,129,194)" /><rect x="16" y="53" width="18" height="10" fill="rgb(37,109,184)" /><rect x="33" y="53" width="18" height="10" fill="rgb(195,215,235)" /><rect x="50" y="53" width="18" height="10" fill="rgb(103,154,205)" /><rect x="67" y="53" width="18" height="10" fill="rgb(173,200,228)" /><rect x="84" y="53" width="18" height="10" fill="rgb(32,106,182)" /><rect x="101" y="53" width="18" height="10" fill="rgb(122,151,140)" /><rect x="118" y="53" width="18" height="10" fill="rgb(197,176,41)" /><rect x="135" y="53" width="18" height="10" fill="rgb(114,137,94)" /><rect x="152" y="53" width="18" height="10" fill="rgb(254,202,0)" /><rect x="169" y="53" width="18" height="10" fill="rgb(246,198,5)" /><rect x="186" y="53" width="18" height="10" fill="rgb(67,115,124)" /><rect x="203" y="53" width="18" height="10" fill="rgb(154,156,70)" /><rect x="220" y="53" width="18" height="10" fill="rgb(156,157,65)" /><rect x="237" y="53" width="18" height="10" fill="rgb(254,202,0)" /><rect x="254" y="53" width="27" height="10" fill="rgb(254,212,47)" /><rect x="0" y="62" width="18" height="10" fill="rgb(68,129,194)" /><rect x="16" y="62" width="18" height="10" fill="rgb(37,109,184)" /><rect x="33" y="62" width="18" height="10" fill="rgb(129,170,213)" /><rect x="50" y="62" width="18" height="10" fill="rgb(214,228,241)" /><rect x="67" y="62" width="18" height="10" fill="rgb(98,150,204)" /><rect x="84" y="62" width="18" height="10" fill="rgb(32,106,182)" /><rect x="101" y="62" width="18" height="10" fill="rgb(122,151,140)" /><rect x="118" y="62" width="18" height="10" fill="rgb(197,176,41)" /><rect x="135" y="62" width="18" height="10" fill="rgb(114,137,94)" /><rect x="152" y="62" width="18" height="10" fill="rgb(254,202,0)" /><rect x="169" y="62" width="18" height="10" fill="rgb(246,198,5)" /><rect x="186" y="62" width="18" height="10" fill="rgb(67,115,124)" /><rect x="203" y="62" width="18" height="10" fill="rgb(154,156,69)" /><rect x="220" y="62" width="18" height="10" fill="rgb(156,157,65)" /><rect x="237" y="62" width="18" height="10" fill="rgb(211,183,31)" /><rect x="254" y="62" width="27" height="10" fill="rgb(243,207,56)" /><rect x="0" y="71" width="18" height="10" fill="rgb(68,129,194)" /><rect x="16" y="71" width="18" height="10" fill="rgb(35,108,183)" /><rect x="33" y="71" width="18" height="10" fill="rgb(75,135,196)" /><rect x="50" y="71" width="18" height="10" fill="rgb(74,134,196)" /><rect x="67" y="71" width="18" height="10" fill="rgb(77,137,197)" /><rect x="84" y="71" width="18" height="10" fill="rgb(24,100,180)" /><rect x="101" y="71" width="18" height="10" fill="rgb(122,151,140)" /><rect x="118" y="71" width="18" height="10" fill="rgb(197,176,41)" /><rect x="135" y="71" width="18" height="10" fill="rgb(114,137,94)" /><rect x="152" y="71" width="18" height="10" fill="rgb(254,202,0)" /><rect x="169" y="71" width="18" height="10" fill="rgb(246,198,5)" /><rect x="186" y="71" width="18" height="10" fill="rgb(67,115,124)" /><rect x="203" y="71" width="18" height="10" fill="rgb(160,158,63)" /><rect x="220" y="71" width="18" height="10" fill="rgb(151,154,69)" /><rect x="237" y="71" width="18" height="10" fill="rgb(108,135,98)" /><rect x="254" y="71" width="27" height="10" fill="rgb(219,196,70)" /><rect x="0" y="80" width="18" height="10" fill="rgb(68,129,194)" /><rect x="16" y="80" width="18" height="10" fill="rgb(16,95,177)" /><rect x="33" y="80" width="18" height="10" fill="rgb(80,140,198)" /><rect x="50" y="80" width="18" height="10" fill="rgb(85,143,200)" /><rect x="67" y="80" width="18" height="10" fill="rgb(73,135,196)" /><rect x="84" y="80" width="18" height="10" fill="rgb(10,91,175)" /><rect x="101" y="80" width="18" height="10" fill="rgb(122,151,140)" /><rect x="118" y="80" width="18" height="10" fill="rgb(197,176,41)" /><rect x="135" y="80" width="18" height="10" fill="rgb(58,111,132)" /><rect x="152" y="80" width="18" height="10" fill="rgb(129,144,83)" /><rect x="169" y="80" width="18" height="10" fill="rgb(225,189,18)" /><rect x="186" y="80" width="18" height="10" fill="rgb(67,115,124)" /><rect x="203" y="80" width="18" height="10" fill="rgb(188,171,44)" /><rect x="220" y="80" width="18" height="10" fill="rgb(75,119,121)" /><rect x="237" y="80" width="18" height="10" fill="rgb(52,109,136)" /><rect x="254" y="80" width="27" height="10" fill="rgb(238,205,58)" /><rect x="0" y="89" width="18" height="10" fill="rgb(68,129,194)" /><rect x="16" y="89" width="18" height="10" fill="rgb(2,85,172)" /><rect x="33" y="89" width="18" height="10" fill="rgb(24,101,180)" /><rect x="50" y="89" width="18" height="10" fill="rgb(5,88,174)" /><rect x="67" y="89" width="18" height="10" fill="rgb(19,97,178)" /><rect x="84" y="89" width="18" height="10" fill="rgb(0,84,172)" /><rect x="101" y="89" width="18" height="10" fill="rgb(122,151,140)" /><rect x="118" y="89" width="18" height="10" fill="rgb(208,181,33)" /><rect x="135" y="89" width="18" height="10" fill="rgb(51,107,137)" /><rect x="152" y="89" width="18" height="10" fill="rgb(51,107,137)" /><rect x="169" y="89" width="18" height="10" fill="rgb(213,183,26)" /><rect x="186" y="89" width="18" height="10" fill="rgb(105,133,99)" /><rect x="203" y="89" width="18" height="10" fill="rgb(244,198,7)" /><rect x="220" y="89" width="18" height="10" fill="rgb(44,105,141)" /><rect x="237" y="89" width="18" height="10" fill="rgb(76,120,119)" /><rect x="254" y="89" width="27" height="10" fill="rgb(254,212,47)" /><rect x="0" y="98" width="18" height="10" fill="rgb(69,130,194)" /><rect x="16" y="98" width="18" height="10" fill="rgb(0,84,172)" /><rect x="33" y="98" width="18" height="10" fill="rgb(9,90,175)" /><rect x="50" y="98" width="18" height="10" fill="rgb(24,101,180)" /><rect x="67" y="98" width="18" height="10" fill="rgb(3,86,173)" /><rect x="84" y="98" width="18" height="10" fill="rgb(0,84,172)" /><rect x="101" y="98" width="18" height="10" fill="rgb(122,151,140)" /><rect x="118" y="98" width="18" height="10" fill="rgb(254,202,0)" /><rect x="135" y="98" width="18" height="10" fill="rgb(254,202,0)" /><rect x="152" y="98" width="18" height="10" fill="rgb(254,202,0)" /><rect x="169" y="98" width="18" height="10" fill="rgb(254,202,0)" /><rect x="186" y="98" width="18" height="10" fill="rgb(254,202,0)" /><rect x="203" y="98" width="18" height="10" fill="rgb(254,202,0)" /><rect x="220" y="98" width="18" height="10" fill="rgb(246,199,5)" /><rect x="237" y="98" width="18" height="10" fill="rgb(248,200,3)" /><rect x="254" y="98" width="27" height="10" fill="rgb(254,212,47)" /><rect x="0" y="107" width="18" height="10" fill="rgb(207,223,239)" /><rect x="16" y="107" width="18" height="10" fill="rgb(182,207,231)" /><rect x="33" y="107" width="18" height="10" fill="rgb(181,206,231)" /><rect x="50" y="107" width="18" height="10" fill="rgb(161,193,225)" /><rect x="67" y="107" width="18" height="10" fill="rgb(182,207,231)" /><rect x="84" y="107" width="18" height="10" fill="rgb(182,207,231)" /><rect x="101" y="107" width="18" height="10" fill="rgb(198,214,217)" /><rect x="118" y="107" width="18" height="10" fill="rgb(252,239,184)" /><rect x="135" y="107" width="18" height="10" fill="rgb(252,239,184)" /><rect x="152" y="107" width="18" height="10" fill="rgb(252,239,184)" /><rect x="169" y="107" width="18" height="10" fill="rgb(235,228,178)" /><rect x="186" y="107" width="18" height="10" fill="rgb(252,239,184)" /><rect x="203" y="107" width="18" height="10" fill="rgb(252,239,184)" /><rect x="220" y="107" width="18" height="10" fill="rgb(219,218,173)" /><rect x="237" y="107" width="18" height="10" fill="rgb(252,239,184)" /><rect x="254" y="107" width="27" height="10" fill="rgb(253,243,200)" /><rect x="0" y="116" width="18" height="10" fill="rgb(180,205,230)" /><rect x="16" y="116" width="18" height="10" fill="rgb(161,193,224)" /><rect x="33" y="116" width="18" height="10" fill="rgb(163,195,225)" /><rect x="50" y="116" width="18" height="10" fill="rgb(149,185,220)" /><rect x="67" y="116" width="18" height="10" fill="rgb(185,209,232)" /><rect x="84" y="116" width="18" height="10" fill="rgb(223,234,244)" /><rect x="101" y="116" width="18" height="10" fill="rgb(140,180,218)" /><rect x="118" y="116" width="18" height="10" fill="rgb(171,200,227)" /><rect x="135" y="116" width="18" height="10" fill="rgb(174,202,228)" /><rect x="152" y="116" width="18" height="10" fill="rgb(221,233,244)" /><rect x="169" y="116" width="18" height="10" fill="rgb(147,184,220)" /><rect x="186" y="116" width="18" height="10" fill="rgb(147,183,219)" /><rect x="203" y="116" width="18" height="10" fill="rgb(235,241,248)" /><rect x="220" y="116" width="18" height="10" fill="rgb(144,182,218)" /><rect x="237" y="116" width="18" height="10" fill="rgb(162,194,224)" /><rect x="254" y="116" width="27" height="10" fill="rgb(172,200,228)" /><rect x="0" y="125" width="18" height="10" fill="rgb(225,235,245)" /><rect x="16" y="125" width="18" height="10" fill="rgb(210,226,240)" /><rect x="33" y="125" width="18" height="10" fill="rgb(214,228,241)" /><rect x="50" y="125" width="18" height="10" fill="rgb(213,227,241)" /><rect x="67" y="125" width="18" height="10" fill="rgb(212,227,241)" /><rect x="84" y="125" width="18" height="10" fill="rgb(237,243,249)" /><rect x="101" y="125" width="18" height="10" fill="rgb(202,220,238)" /><rect x="118" y="125" width="18" height="10" fill="rgb(212,227,241)" /><rect x="135" y="125" width="18" height="10" fill="rgb(231,239,246)" /><rect x="152" y="125" width="18" height="10" fill="rgb(235,242,248)" /><rect x="169" y="125" width="18" height="10" fill="rgb(203,221,238)" /><rect x="186" y="125" width="18" height="10" fill="rgb(212,226,240)" /><rect x="203" y="125" width="18" height="10" fill="rgb(246,249,252)" /><rect x="220" y="125" width="18" height="10" fill="rgb(227,237,246)" /><rect x="237" y="125" width="18" height="10" fill="rgb(223,234,244)" /><rect x="254" y="125" width="27" height="10" fill="rgb(224,235,245)" /><rect x="16" y="134" width="18" height="16" fill="rgb(190,213,234)" /><rect x="33" y="134" width="18" height="16" fill="rgb(189,212,233)" /><rect x="50" y="134" width="18" height="16" fill="rgb(187,211,233)" /><rect x="67" y="134" width="18" height="16" fill="rgb(176,203,229)" /><rect x="84" y="134" width="18" height="16" fill="rgb(180,206,230)" /><rect x="101" y="134" width="18" height="16" fill="rgb(202,221,238)" /><rect x="118" y="134" width="18" height="16" fill="rgb(183,208,231)" /><rect x="135" y="134" width="18" height="16" fill="rgb(179,205,230)" /><rect x="152" y="134" width="18" height="16" fill="rgb(181,206,230)" /><rect x="169" y="134" width="18" height="16" fill="rgb(176,203,229)" /><rect x="186" y="134" width="18" height="16" fill="rgb(190,213,234)" /><rect x="203" y="134" width="18" height="16" fill="rgb(190,212,234)" /><rect x="220" y="134" width="18" height="16" fill="rgb(196,216,236)" /><rect x="237" y="134" width="18" height="16" fill="rgb(190,213,233)" /><g transform="translate(0.000000,150.000000) scale(0.100000,-0.100000)" fill="#FFCC00" stroke="none"><path d="M1140 930 l0 -520 799 0 c658 0 800 2 810 13 12 15 16 981 5 1011 -6 14 -92 16 -810 16 l-804 0 0 -520z m1293 409 c87 -24 147 -116 147 -226 l0 -44 -67 3 -68 3 -7 55 c-10 84 -64 115 -121 70 -40 -31 -49 -98 -45 -312 3 -171 5 -189 24 -215 17 -22 30 -29 67 -31 55 -4 66 10 82 108 l11 65 64 0 64 0 -3 -54 c-4 -70 -6 -82 -29 -133 -24 -53 -55 -86 -98 -104 -39 -16 -124 -18 -176 -4 -48 14 -103 76 -122 140 -36 122 -29 471 12 563 46 103 149 149 265 116z m-983 -349 l0 -340 135 0 135 0 0 -60 0 -59 -77 -3 c-43 -2 -135 -2 -205 0 l-128 3 0 400 0 399 70 0 70 0 0 -340z m550 -60 l0 -400 -70 0 -70 0 0 400 0 400 70 0 70 0 0 -400z"/></g><g transform="translate(0.000000,150.000000) scale(0.100000,-0.100000)" fill="#EBCC39" stroke="none"><path d="M1538 1453 c221 -2 583 -2 805 0 221 1 40 2 -403 2 -443 0 -624 -1 -402 -2z"/><path d="M1315 930 c0 -223 1 -314 2 -203 2 112 2 294 0 405 -1 112 -2 21 -2 -202z"/><path d="M2477 1073 c18 -2 50 -2 70 0 21 2 7 4 -32 4 -38 0 -55 -2 -38 -4z"/><path d="M2134 920 c0 -63 1 -89 3 -57 2 31 2 83 0 115 -2 31 -3 5 -3 -58z"/><path d="M2475 814 c47 -7 113 -8 108 -1 -2 4 -32 6 -66 6 -34 -1 -53 -3 -42 -5z"/><path d="M1538 403 c222 -2 582 -2 800 0 218 1 37 2 -403 2 -440 0 -619 -1 -397 -2z"/></g><g transform="translate(0.000000,150.000000) scale(0.100000,-0.100000)" fill="#668559" stroke="none"><path d="M2343 1343 c9 -2 25 -2 35 0 9 3 1 5 -18 5 -19 0 -27 -2 -17 -5z"/><path d="M1865 930 c0 -223 1 -314 2 -203 2 112 2 294 0 405 -1 112 -2 21 -2 -202z"/><path d="M1995 930 c0 -223 1 -314 2 -203 2 112 2 294 0 405 -1 112 -2 21 -2 -202z"/><path d="M2141 1124 c0 -11 3 -14 6 -6 3 7 2 16 -1 19 -3 4 -6 -2 -5 -13z"/><path d="M2442 1105 c0 -16 2 -22 5 -12 2 9 2 23 0 30 -3 6 -5 -1 -5 -18z"/><path d="M2141 724 c0 -11 3 -14 6 -6 3 7 2 16 -1 19 -3 4 -6 -2 -5 -13z"/><path d="M2398 513 c6 -2 18 -2 25 0 6 3 1 5 -13 5 -14 0 -19 -2 -12 -5z"/></g><g transform="translate(0.000000,150.000000) scale(0.100000,-0.100000)" fill="#136699" stroke="none"><path d="M1445 988 l0 -343 138 0 137 -1 -135 3 -135 4 -3 339 -2 340 0 -342z"/><path d="M2368 1223 c7 -3 16 -2 19 1 4 3 -2 6 -13 5 -11 0 -14 -3 -6 -6z"/><path d="M2441 1144 c0 -11 3 -14 6 -6 3 7 2 16 -1 19 -3 4 -6 -2 -5 -13z"/><path d="M2572 1120 c0 -14 2 -19 5 -12 2 6 2 18 0 25 -3 6 -5 1 -5 -13z"/><path d="M2264 930 c0 -96 2 -136 3 -87 2 48 2 126 0 175 -1 48 -3 8 -3 -88z"/><path d="M2452 790 c0 -14 2 -19 5 -12 2 6 2 18 0 25 -3 6 -5 1 -5 -13z"/><path d="M2200 576 c0 -2 8 -10 18 -17 15 -13 16 -12 3 4 -13 16 -21 21 -21 13z"/><path d="M2494 558 l-19 -23 23 19 c21 18 27 26 19 26 -2 0 -12 -10 -23 -22z"/><path d="M2343 513 c9 -2 25 -2 35 0 9 3 1 5 -18 5 -19 0 -27 -2 -17 -5z"/></g><g transform="translate(0.000000,150.000000) scale(0.100000,-0.100000)" fill="#0059AC" stroke="none"><path d="M61 1437 c-15 -19 -15 -995 0 -1013 9 -12 106 -14 525 -14 l514 0 0 520 0 520 -514 0 c-413 0 -516 -3 -525 -13z m652 -101 c61 -29 124 -92 159 -158 22 -41 23 -53 23 -248 0 -203 0 -206 -27 -255 -32 -61 -97 -125 -158 -156 -37 -19 -61 -23 -140 -24 -81 0 -102 4 -140 23 -55 29 -125 95 -141 134 -6 15 -15 28 -19 28 -3 0 -7 6 -8 13 -13 102 -16 186 -12 302 4 124 8 146 30 189 33 65 128 152 188 171 71 22 177 15 245 -19z"/><path d="M463 1334 c-49 -18 -123 -80 -153 -129 -20 -32 -21 -46 -20 -276 0 -254 3 -270 49 -314 12 -11 31 -30 43 -42 55 -58 201 -80 302 -47 66 22 159 113 175 170 17 61 14 427 -3 469 -20 46 -90 121 -145 153 -56 32 -181 41 -248 16z m300 -128 c20 7 57 -113 57 -186 0 -60 -4 -71 -49 -145 -36 -59 -47 -84 -40 -97 5 -9 9 -21 9 -27 0 -12 -120 -16 -120 -3 -1 4 -9 18 -20 30 l-20 24 -26 -31 c-24 -28 -31 -31 -86 -31 -53 0 -59 2 -53 18 17 40 14 51 -31 125 -60 99 -67 149 -33 254 23 71 43 92 52 56 4 -14 5 -13 6 4 1 19 6 22 34 20 24 -2 32 -7 32 -22 0 -11 6 -25 14 -31 12 -9 12 -19 3 -57 -16 -61 -16 -75 0 -59 7 7 20 12 30 12 14 0 16 6 13 28 -3 15 3 44 13 67 l19 40 12 -24 c8 -13 13 -41 13 -62 -1 -32 3 -38 26 -44 59 -15 67 -42 23 -86 -40 -40 -88 -40 -130 0 -29 27 -31 28 -25 8 8 -24 86 -146 94 -146 6 -1 71 105 87 142 7 15 10 44 7 65 -2 20 -7 56 -10 80 -5 32 -3 42 8 42 9 0 14 9 14 22 -1 17 5 23 22 24 12 1 26 5 30 9 4 4 8 0 10 -9 2 -8 9 -13 15 -10z m57 -468 c0 -6 7 -20 17 -30 17 -20 10 -39 -8 -21 -14 14 -39 6 -33 -10 9 -25 -14 -40 -60 -39 -25 1 -51 -4 -59 -11 -25 -23 -56 -37 -62 -27 -3 5 -11 7 -18 4 -7 -2 -20 1 -30 8 -25 19 -12 58 20 58 39 0 113 21 107 31 -3 5 2 6 10 3 8 -3 34 6 58 20 48 29 58 31 58 14z m-452 -10 c7 -7 12 -9 12 -4 0 4 12 -2 26 -13 15 -12 38 -21 53 -21 14 0 33 -4 41 -10 9 -6 17 -5 22 3 13 20 25 -8 20 -48 -4 -33 -22 -51 -22 -21 0 15 -31 17 -41 2 -4 -4 -17 -2 -30 5 -13 7 -29 12 -35 11 -7 -1 -14 4 -17 13 -4 8 -13 12 -21 9 -7 -3 -23 5 -35 17 -22 24 -28 49 -10 49 5 0 7 5 4 10 -9 14 19 12 33 -2z"/><path d="M580 1045 c0 -16 30 -24 55 -14 11 4 18 8 15 8 -3 1 -20 5 -38 10 -24 7 -32 7 -32 -4z"/><path d="M506 1041 c-6 -10 33 -23 46 -15 4 3 8 9 8 15 0 12 -47 12 -54 0z"/><path d="M2262 1319 c-47 -24 -74 -56 -99 -121 -26 -66 -26 -461 0 -535 38 -109 96 -147 218 -141 73 3 80 5 114 38 40 39 70 110 80 193 l7 57 -61 0 c-33 0 -61 -3 -61 -7 0 -48 -23 -130 -41 -150 -40 -42 -105 -28 -136 30 -16 28 -18 60 -18 242 0 238 6 264 71 291 68 28 114 -12 114 -101 l0 -35 64 0 63 0 -4 53 c-3 28 -17 77 -31 107 -22 44 -36 60 -72 78 -59 30 -148 30 -208 1z"/><path d="M1320 930 l0 -400 200 0 200 0 0 55 0 54 -137 3 -138 3 -3 341 -2 342 -60 1 -60 1 0 -400z"/><path d="M1870 931 l0 -399 60 -1 60 -1 0 400 0 400 -60 0 -60 0 0 -399z"/><path d="M2243 353 c-7 -2 -13 -13 -13 -23 0 -10 -6 -21 -12 -23 -10 -4 -10 -6 0 -6 8 -1 12 -18 12 -51 0 -27 5 -50 10 -50 6 0 10 23 10 50 l0 50 75 0 c60 0 75 -3 75 -15 0 -11 -12 -15 -50 -15 -48 0 -63 -11 -38 -26 6 -4 14 -2 16 4 2 7 17 12 33 12 26 0 29 -4 29 -30 0 -16 5 -30 10 -30 6 0 10 22 10 49 0 39 4 51 18 54 10 3 6 5 -11 6 -16 0 -38 6 -49 12 -15 8 -19 8 -14 0 5 -8 -12 -11 -53 -11 -46 0 -61 4 -61 14 0 8 12 19 28 24 20 8 22 10 7 10 -11 0 -26 -2 -32 -5z"/><path d="M509 338 c-1 -7 -1 -16 0 -20 0 -5 -86 -9 -191 -9 -106 -1 -185 -3 -175 -6 9 -2 17 -13 17 -24 0 -29 -47 -26 -53 4 l-4 22 -2 -22 c0 -15 -8 -23 -18 -23 -16 -1 -16 -2 2 -16 12 -9 21 -11 23 -4 2 5 15 10 28 10 19 0 24 -5 24 -25 0 -14 5 -25 10 -25 6 0 10 23 10 50 0 49 1 50 30 50 29 0 30 -1 32 -52 l1 -53 6 50 6 50 58 3 c52 3 58 1 55 -15 -2 -12 -12 -18 -31 -18 -15 1 -27 -2 -27 -5 0 -8 41 -45 60 -54 8 -4 4 2 -10 13 -21 18 -23 22 -10 31 8 5 18 10 23 10 4 0 7 9 7 20 0 18 7 20 70 20 40 0 70 -4 70 -10 0 -5 -13 -10 -29 -10 -63 0 -81 -30 -38 -66 l22 -19 -19 22 c-26 31 -14 53 29 53 33 0 35 -2 35 -35 0 -19 5 -35 10 -35 14 0 13 97 -1 106 -6 3 -9 15 -6 25 3 11 1 19 -4 19 -5 0 -10 -6 -10 -12z"/><path d="M1071 328 c-6 -16 -5 -24 4 -26 8 -2 13 -21 13 -49 2 -64 12 -68 12 -5 0 51 1 52 29 52 29 0 30 -2 34 -52 l3 -53 2 53 2 52 71 0 70 0 -3 -32 c-3 -29 -6 -33 -33 -33 -37 0 -41 26 -5 36 14 4 18 7 8 8 -28 2 -48 -10 -48 -29 0 -20 19 -30 55 -30 13 0 26 -6 28 -12 3 -7 6 11 6 40 l1 52 75 0 c60 0 75 -3 75 -15 0 -11 -12 -15 -50 -15 -27 0 -50 -4 -50 -9 0 -13 28 -22 35 -11 4 6 17 10 31 10 20 0 24 -5 24 -30 0 -16 5 -30 10 -30 6 0 10 22 10 49 0 30 5 51 13 54 6 3 -67 6 -163 7 -250 2 -246 2 -242 23 4 24 -7 21 -17 -5z"/><path d="M1723 338 c-11 -19 -12 -38 -1 -38 5 0 8 -15 6 -32 -3 -35 -30 -50 -51 -29 -8 8 -6 15 9 26 19 15 19 15 -1 8 -46 -15 -34 -53 16 -53 16 0 30 -6 31 -12 0 -7 4 10 7 37 5 45 9 50 34 53 26 3 27 2 27 -47 0 -28 5 -51 10 -51 6 0 10 23 10 50 l0 50 35 0 c28 0 35 -4 35 -20 0 -12 -7 -20 -17 -20 -16 -1 -16 -2 2 -16 12 -9 21 -11 23 -4 2 5 16 10 32 10 24 0 29 -5 33 -27 4 -26 4 -26 6 5 1 29 -2 32 -29 32 -23 0 -30 5 -30 19 0 17 7 20 55 20 l55 0 0 -50 c0 -27 5 -49 10 -49 6 0 10 22 10 49 0 39 4 51 18 54 9 3 -41 5 -112 6 -108 1 -133 4 -150 19 -20 16 -20 16 -7 0 12 -16 10 -18 -24 -18 -32 0 -37 3 -32 20 6 23 2 26 -10 8z"/><path d="M576 330 c5 -8 9 -17 10 -20 0 -3 4 -12 7 -20 3 -8 8 -33 10 -55 3 -35 4 -33 5 13 l2 52 41 0 c32 0 42 -4 46 -20 3 -11 9 -17 14 -15 4 3 6 12 2 20 -4 11 2 15 22 15 24 0 26 -3 23 -32 -2 -27 -8 -34 -33 -40 l-30 -7 33 3 c21 2 32 -2 32 -11 0 -7 5 -13 10 -13 6 0 10 22 10 49 0 30 5 51 13 54 6 3 -33 6 -87 6 -80 1 -103 4 -119 19 -14 12 -18 12 -11 2z"/><path d="M65 299 c-11 -16 -1 -19 13 -3 7 8 8 14 3 14 -5 0 -13 -5 -16 -11z"/><path d="M2468 300 c25 -11 30 -40 6 -40 -8 0 -12 -4 -9 -10 13 -22 35 -10 35 19 0 20 6 31 18 34 9 3 -3 5 -28 5 -36 1 -41 -1 -22 -8z"/><path d="M2548 255 c5 -69 22 -73 22 -5 l0 50 36 0 c33 0 36 -2 32 -25 -3 -14 1 -30 8 -36 10 -8 14 -8 14 0 0 6 13 11 29 11 25 0 30 -5 34 -27 2 -16 5 -5 6 24 1 40 5 53 19 56 9 3 -32 5 -93 6 l-110 1 3 -55z m172 25 c0 -16 -7 -20 -30 -20 -23 0 -30 4 -30 20 0 16 7 20 30 20 23 0 30 -4 30 -20z"/><path d="M950 264 c0 -5 7 -18 15 -28 8 -11 15 -16 15 -10 0 5 -7 18 -15 28 -8 11 -15 16 -15 10z"/><path d="M1025 240 c0 -16 5 -28 10 -27 9 3 10 14 6 47 -3 24 -16 7 -16 -20z"/><path d="M660 256 c0 -2 6 -9 13 -15 10 -8 14 -7 14 4 0 8 -6 15 -14 15 -7 0 -13 -2 -13 -4z"/><path d="M52 98 c-2 -46 -1 -48 26 -47 22 1 23 2 5 6 -18 3 -23 13 -26 46 l-4 42 -1 -47z"/><path d="M133 95 c0 -27 2 -38 4 -22 2 15 2 37 0 50 -2 12 -4 0 -4 -28z"/><path d="M171 93 c1 -27 4 -38 6 -26 2 12 12 24 21 26 15 4 15 5 0 6 -26 2 -22 29 5 34 19 4 18 4 -5 6 -27 1 -28 -1 -27 -46z"/><path d="M250 95 c0 -43 1 -45 28 -44 22 1 23 3 6 6 -17 3 -22 11 -22 38 0 27 5 35 22 38 17 3 16 5 -6 6 -27 1 -28 -1 -28 -44z"/><path d="M373 95 c0 -27 2 -38 4 -22 2 15 2 37 0 50 -2 12 -4 0 -4 -28z"/><path d="M422 93 c1 -37 2 -41 5 -15 3 19 9 30 15 26 6 -4 6 2 -1 15 -17 31 -21 26 -19 -26z"/><path d="M480 109 c0 -24 -4 -30 -15 -25 -13 4 -14 2 -5 -14 18 -33 30 -23 30 25 0 25 -2 45 -5 45 -3 0 -5 -14 -5 -31z"/><path d="M520 121 c0 -11 9 -23 20 -26 27 -9 27 -39 0 -32 -11 3 -18 1 -14 -4 9 -15 41 -10 48 7 9 23 8 24 -20 34 -17 7 -24 15 -20 25 3 8 1 15 -4 15 -6 0 -10 -9 -10 -19z"/><path d="M659 105 c-3 -33 -8 -40 -26 -39 -12 0 -20 -3 -17 -8 8 -13 44 -9 50 6 3 8 4 29 2 48 l-4 33 -5 -40z"/><path d="M701 93 c1 -26 4 -38 6 -25 5 26 21 29 37 7 9 -12 11 -8 11 22 0 34 -3 38 -27 41 -27 3 -28 2 -27 -45z m49 22 c0 -8 -9 -15 -20 -15 -11 0 -20 7 -20 15 0 8 9 15 20 15 11 0 20 -7 20 -15z"/><path d="M797 98 c-9 -23 -15 -44 -12 -46 3 -3 10 9 16 26 14 41 25 41 33 0 3 -17 9 -29 12 -26 7 8 -17 88 -26 88 -4 0 -14 -19 -23 -42z"/><path d="M880 119 c0 -12 3 -19 7 -16 3 4 13 1 21 -6 13 -10 14 -9 4 10 -17 32 -32 37 -32 12z"/><path d="M942 113 c-1 -17 -6 -33 -12 -35 -6 -2 -6 -9 0 -18 14 -23 22 -6 17 41 -3 33 -4 36 -5 12z"/><path d="M981 118 c-16 -43 23 -88 51 -60 6 6 0 8 -17 4 -25 -4 -26 -3 -23 29 2 28 7 34 25 33 12 0 20 3 17 8 -11 17 -45 7 -53 -14z"/><path d="M1070 95 c0 -44 0 -45 33 -44 28 2 29 2 6 6 -23 4 -27 9 -27 38 0 29 4 34 27 38 23 4 22 4 -6 6 -33 1 -33 0 -33 -44z"/><path d="M1196 124 c-3 -9 -5 -25 -5 -37 1 -16 3 -14 8 8 5 22 12 30 28 29 12 0 20 3 17 8 -9 14 -42 9 -48 -8z"/><path d="M1281 118 c-17 -46 21 -86 54 -58 18 15 19 52 3 68 -19 19 -48 14 -57 -10z m54 -23 c0 -23 -5 -31 -22 -33 -19 -3 -23 1 -23 26 0 33 8 44 30 40 9 -2 15 -14 15 -33z"/><path d="M1381 93 c1 -27 4 -38 6 -25 5 23 33 31 34 10 0 -7 5 -2 10 11 13 34 4 51 -26 51 -23 0 -25 -3 -24 -47z m49 22 c0 -8 -9 -15 -20 -15 -11 0 -20 7 -20 15 0 8 9 15 20 15 11 0 20 -7 20 -15z"/><path d="M1472 93 l1 -48 4 43 c3 34 8 42 24 42 22 0 26 -26 4 -33 -11 -4 -10 -4 2 -3 10 1 19 11 21 24 3 19 -1 22 -27 22 -31 0 -31 -1 -29 -47z"/><path d="M1567 133 c-14 -14 -7 -74 9 -80 37 -14 70 41 44 73 -13 15 -42 19 -53 7z m48 -38 c0 -23 -5 -31 -22 -33 -19 -3 -23 1 -23 26 0 33 8 44 30 40 9 -2 15 -14 15 -33z"/><path d="M1661 93 c1 -26 4 -38 6 -25 5 24 33 31 33 8 0 -8 3 -17 8 -19 4 -3 7 14 7 36 0 38 -2 42 -27 45 -27 3 -28 2 -27 -45z m49 22 c0 -8 -9 -15 -20 -15 -11 0 -20 7 -20 15 0 8 9 15 20 15 11 0 20 -7 20 -15z"/><path d="M1761 118 c-19 -52 -23 -70 -13 -64 6 3 13 20 17 36 4 17 11 28 16 24 5 -3 9 -1 9 5 0 21 -21 21 -29 -1z"/><path d="M1828 133 c7 -2 12 -22 12 -44 0 -21 5 -39 10 -39 6 0 10 18 10 39 0 22 5 42 13 44 6 3 -4 5 -23 5 -19 0 -29 -2 -22 -5z"/><path d="M1913 95 c0 -27 2 -38 4 -22 2 15 2 37 0 50 -2 12 -4 0 -4 -28z"/><path d="M1957 133 c-14 -14 -7 -74 9 -80 37 -14 70 41 44 73 -13 15 -42 19 -53 7z m48 -38 c0 -23 -5 -31 -22 -33 -19 -3 -23 1 -23 26 0 33 8 44 30 40 9 -2 15 -14 15 -33z"/><path d="M2052 95 c1 -50 1 -50 7 -11 l6 40 20 -37 c11 -20 23 -37 27 -37 5 0 7 21 6 48 -1 40 -2 42 -5 12 l-5 -35 -29 35 -28 35 1 -50z"/><path d="M2197 133 c-14 -14 -7 -74 9 -80 37 -14 70 41 44 73 -13 15 -42 19 -53 7z m48 -38 c0 -23 -5 -31 -22 -33 -19 -3 -23 1 -23 26 0 33 8 44 30 40 9 -2 15 -14 15 -33z"/><path d="M2291 93 c1 -27 4 -39 6 -28 3 11 10 23 17 27 8 6 7 8 -1 8 -22 0 -14 28 10 33 19 4 18 4 -5 6 -27 1 -28 -1 -27 -46z"/><path d="M2413 95 c0 -27 2 -38 4 -22 2 15 2 37 0 50 -2 12 -4 0 -4 -28z"/><path d="M2452 93 c1 -45 2 -46 5 -9 4 35 5 37 19 20 14 -18 14 -18 4 3 -19 41 -30 36 -28 -14z"/><path d="M2512 113 c-1 -17 -6 -33 -12 -35 -6 -2 -6 -9 0 -18 14 -23 22 -6 17 41 -3 33 -4 36 -5 12z"/><path d="M2550 95 c0 -40 2 -45 23 -45 29 0 47 18 47 45 0 27 -18 45 -47 45 -21 0 -23 -5 -23 -45z m53 13 c8 -12 7 -21 -2 -32 -23 -28 -41 -19 -41 20 0 28 4 35 16 32 9 -2 22 -10 27 -20z"/><path d="M2653 95 c0 -27 2 -38 4 -22 2 15 2 37 0 50 -2 12 -4 0 -4 -28z"/><path d="M2702 113 c-5 -16 -13 -37 -18 -47 -5 -13 -4 -17 4 -13 6 4 13 21 17 37 8 37 20 32 29 -11 3 -18 9 -30 12 -27 7 8 -17 88 -27 88 -4 0 -12 -12 -17 -27z"/><path d="M1791 90 c0 -8 4 -22 9 -30 12 -18 12 -2 0 25 -6 13 -9 15 -9 5z"/><path d="M882 70 c0 -14 2 -19 5 -12 2 6 2 18 0 25 -3 6 -5 1 -5 -13z"/><path d="M1225 60 c-16 -7 -17 -9 -3 -9 9 -1 20 4 23 9 7 11 7 11 -20 0z"/></g><g transform="translate(0.000000,150.000000) scale(0.100000,-0.100000)" fill="#2C79BF" stroke="none"><path d="M518 1363 c7 -3 16 -2 19 1 4 3 -2 6 -13 5 -11 0 -14 -3 -6 -6z"/><path d="M725 1321 c-3 -5 -2 -12 3 -15 5 -3 9 1 9 9 0 17 -3 19 -12 6z"/><path d="M756 1302 c-3 -5 12 -26 33 -46 29 -29 41 -34 46 -24 5 7 4 10 0 5 -10 -9 -76 53 -69 65 3 4 3 8 0 8 -3 0 -7 -4 -10 -8z"/><path d="M305 1231 c-3 -5 -2 -12 3 -15 5 -3 9 1 9 9 0 17 -3 19 -12 6z"/><path d="M741 1214 c0 -11 3 -14 6 -6 3 7 2 16 -1 19 -3 4 -6 -2 -5 -13z"/><path d="M436 1211 c8 -8 43 -8 38 0 -2 4 -13 7 -24 6 -10 -1 -17 -3 -14 -6z"/><path d="M836 1198 c3 -5 10 -6 15 -3 13 9 11 12 -6 12 -8 0 -12 -4 -9 -9z"/><path d="M465 1159 c-4 -6 -5 -12 -2 -15 2 -3 7 2 10 11 7 17 1 20 -8 4z"/><path d="M865 1159 c-4 -6 -5 -12 -2 -15 2 -3 7 2 10 11 7 17 1 20 -8 4z"/><path d="M281 1124 c0 -11 3 -14 6 -6 3 7 2 16 -1 19 -3 4 -6 -2 -5 -13z"/><path d="M284 900 c0 -113 2 -159 3 -102 2 56 2 148 0 205 -1 56 -3 10 -3 -103z"/><path d="M595 1060 c-3 -5 -2 -10 4 -10 5 0 13 5 16 10 3 6 2 10 -4 10 -5 0 -13 -4 -16 -10z"/><path d="M721 1044 c0 -11 3 -14 6 -6 3 7 2 16 -1 19 -3 4 -6 -2 -5 -13z"/><path d="M762 1020 c0 -14 2 -19 5 -12 2 6 2 18 0 25 -3 6 -5 1 -5 -13z"/><path d="M332 1000 c0 -14 2 -19 5 -12 2 6 2 18 0 25 -3 6 -5 1 -5 -13z"/><path d="M490 996 c0 -2 8 -10 18 -17 15 -13 16 -12 3 4 -13 16 -21 21 -21 13z"/><path d="M530 896 c0 -2 8 -10 18 -17 15 -13 16 -12 3 4 -13 16 -21 21 -21 13z"/><path d="M575 830 c3 -5 8 -10 11 -10 2 0 4 5 4 10 0 6 -5 10 -11 10 -5 0 -7 -4 -4 -10z"/><path d="M590 786 c0 -2 8 -10 18 -17 15 -13 16 -12 3 4 -13 16 -21 21 -21 13z"/><path d="M251 744 c0 -11 3 -14 6 -6 3 7 2 16 -1 19 -3 4 -6 -2 -5 -13z"/><path d="M438 743 c17 -2 47 -2 65 0 17 2 3 4 -33 4 -36 0 -50 -2 -32 -4z"/><path d="M805 740 c3 -5 8 -10 11 -10 2 0 4 5 4 10 0 6 -5 10 -11 10 -5 0 -7 -4 -4 -10z"/><path d="M775 700 c-3 -5 -1 -10 4 -10 6 0 11 5 11 10 0 6 -2 10 -4 10 -3 0 -8 -4 -11 -10z"/><path d="M520 681 c0 -5 7 -12 16 -15 14 -5 15 -4 4 9 -14 17 -20 19 -20 6z"/><path d="M682 676 c7 -8 15 -12 17 -11 5 6 -10 25 -20 25 -5 0 -4 -6 3 -14z"/><path d="M750 660 c6 -11 13 -20 16 -20 2 0 0 9 -6 20 -6 11 -13 20 -16 20 -2 0 0 -9 6 -20z"/><path d="M405 659 c-4 -6 -5 -12 -2 -15 2 -3 7 2 10 11 7 17 1 20 -8 4z"/><path d="M776 657 c3 -10 9 -15 12 -12 3 3 0 11 -7 18 -10 9 -11 8 -5 -6z"/><path d="M481 644 c0 -11 3 -14 6 -6 3 7 2 16 -1 19 -3 4 -6 -2 -5 -13z"/><path d="M833 635 c0 -8 4 -12 9 -9 5 3 6 10 3 15 -9 13 -12 11 -12 -6z"/><path d="M601 624 c0 -11 3 -14 6 -6 3 7 2 16 -1 19 -3 4 -6 -2 -5 -13z"/><path d="M311 614 c6 -7 16 -11 21 -8 11 7 3 17 -18 20 -12 2 -13 -1 -3 -12z"/><path d="M623 614 c1 -17 4 -19 23 -10 12 6 20 14 17 19 -3 4 -11 3 -18 -3 -10 -8 -14 -7 -18 2 -3 7 -5 4 -4 -8z"/><path d="M789 593 l-24 -28 28 24 c25 23 32 31 24 31 -2 0 -14 -12 -28 -27z"/><path d="M353 585 c0 -8 10 -23 21 -32 15 -14 18 -14 8 -2 -6 9 -10 18 -7 21 3 3 -1 10 -8 16 -10 9 -14 8 -14 -3z"/><path d="M498 493 c7 -3 16 -2 19 1 4 3 -2 6 -13 5 -11 0 -14 -3 -6 -6z"/><path d="M333 403 c141 -2 373 -2 515 0 141 1 25 2 -258 2 -283 0 -399 -1 -257 -2z"/><path d="M530 350 c0 -5 5 -10 10 -10 6 0 10 5 10 10 0 6 -4 10 -10 10 -5 0 -10 -4 -10 -10z"/><path d="M2290 349 c0 -5 5 -7 10 -4 6 3 10 8 10 11 0 2 -4 4 -10 4 -5 0 -10 -5 -10 -11z"/><path d="M561 345 c-1 -6 5 -17 12 -24 10 -11 6 -13 -20 -9 -18 2 -30 1 -27 -4 7 -11 52 -10 59 2 4 6 12 7 18 3 7 -4 6 0 -2 10 -7 9 -17 15 -21 12 -5 -3 -11 1 -13 7 -3 7 -6 8 -6 3z"/><path d="M1140 331 c0 -5 7 -12 16 -15 14 -5 15 -4 4 9 -14 17 -20 19 -20 6z"/><path d="M1793 327 c0 -8 6 -14 14 -14 9 0 10 4 2 14 -6 7 -12 13 -14 13 -1 0 -2 -6 -2 -13z"/><path d="M2341 333 c-1 -17 16 -25 25 -12 4 7 3 9 -4 5 -5 -3 -13 0 -15 6 -4 9 -6 10 -6 1z"/><path d="M1670 310 l-45 -7 42 -1 c23 -1 45 3 48 8 3 6 5 9 3 8 -2 0 -23 -4 -48 -8z"/><path d="M957 303 c18 -2 50 -2 70 0 21 2 7 4 -32 4 -38 0 -55 -2 -38 -4z"/><path d="M361 284 c0 -11 3 -14 6 -6 3 7 2 16 -1 19 -3 4 -6 -2 -5 -13z"/><path d="M1080 285 c0 -8 -9 -15 -20 -15 -11 0 -20 -4 -20 -9 0 -5 9 -7 20 -4 17 4 20 0 20 -25 0 -17 5 -34 12 -38 7 -4 8 -3 4 4 -4 6 -7 32 -8 57 0 25 -2 45 -4 45 -2 0 -4 -7 -4 -15z"/><path d="M1170 248 c-3 -31 -1 -53 3 -49 5 5 7 30 5 57 l-3 49 -5 -57z"/><path d="M1299 268 c-3 -22 -1 -34 4 -29 5 5 7 21 5 37 -3 27 -4 26 -9 -8z"/><path d="M1882 280 c0 -14 2 -19 5 -12 2 6 2 18 0 25 -3 6 -5 1 -5 -13z"/><path d="M2391 284 c0 -11 3 -14 6 -6 3 7 2 16 -1 19 -3 4 -6 -2 -5 -13z"/><path d="M250 243 c-3 -29 -1 -48 3 -44 5 5 7 28 5 52 l-3 44 -5 -52z"/><path d="M591 248 c0 -26 3 -49 7 -52 4 -2 6 12 4 32 -6 62 -10 69 -11 20z"/><path d="M1740 243 c-3 -29 -1 -48 3 -44 5 5 7 28 5 52 l-3 44 -5 -52z"/><path d="M1961 274 c0 -11 3 -14 6 -6 3 7 2 16 -1 19 -3 4 -6 -2 -5 -13z"/><path d="M2481 274 c0 -11 3 -14 6 -6 3 7 2 16 -1 19 -3 4 -6 -2 -5 -13z"/><path d="M306 272 c-3 -5 1 -9 9 -9 8 0 12 4 9 9 -3 4 -7 8 -9 8 -2 0 -6 -4 -9 -8z"/><path d="M686 254 c-3 -8 -11 -12 -17 -8 -8 4 -9 3 -5 -5 4 -6 11 -9 16 -6 4 3 10 -1 13 -7 2 -7 4 -1 4 15 1 31 -2 34 -11 11z"/><path d="M955 251 c-3 -5 -2 -12 3 -15 5 -3 9 1 9 9 0 17 -3 19 -12 6z"/><path d="M1243 241 c0 -11 5 -18 9 -15 4 3 5 11 1 19 -7 21 -12 19 -10 -4z"/><path d="M1690 250 c8 -5 20 -10 25 -10 6 0 3 5 -5 10 -8 5 -19 10 -25 10 -5 0 -3 -5 5 -10z"/><path d="M340 241 c0 -6 4 -13 10 -16 6 -3 7 1 4 9 -7 18 -14 21 -14 7z"/><path d="M745 241 c-3 -5 -2 -12 3 -15 5 -3 9 1 9 9 0 17 -3 19 -12 6z"/><path d="M1950 226 c0 -14 4 -27 8 -30 5 -3 6 8 4 25 -5 35 -12 38 -12 5z"/><path d="M1300 211 c0 -6 4 -13 10 -16 6 -3 7 1 4 9 -7 18 -14 21 -14 7z"/><path d="M1688 213 c7 -3 16 -2 19 1 4 3 -2 6 -13 5 -11 0 -14 -3 -6 -6z"/><path d="M63 100 c0 -25 2 -35 4 -22 2 12 2 32 0 45 -2 12 -4 2 -4 -23z"/><path d="M383 95 c0 -27 2 -38 4 -22 2 15 2 37 0 50 -2 12 -4 0 -4 -28z"/><path d="M413 95 c0 -27 2 -38 4 -22 2 15 2 37 0 50 -2 12 -4 0 -4 -28z"/><path d="M471 118 c-1 -21 -5 -26 -18 -22 -16 5 -16 4 0 -6 24 -15 30 -9 24 27 l-4 28 -2 -27z"/><path d="M548 133 c7 -3 16 -2 19 1 4 3 -2 6 -13 5 -11 0 -14 -3 -6 -6z"/><path d="M600 102 c0 -38 7 -55 19 -47 10 5 0 85 -10 85 -5 0 -9 -17 -9 -38z"/><path d="M1333 125 c0 -8 4 -12 9 -9 5 3 6 10 3 15 -9 13 -12 11 -12 -6z"/><path d="M1613 125 c0 -8 4 -12 9 -9 5 3 6 10 3 15 -9 13 -12 11 -12 -6z"/><path d="M1653 95 c0 -27 2 -38 4 -22 2 15 2 37 0 50 -2 12 -4 0 -4 -28z"/><path d="M2003 125 c0 -8 4 -12 9 -9 5 3 6 10 3 15 -9 13 -12 11 -12 -6z"/><path d="M2063 125 c0 -8 4 -12 9 -9 5 3 6 10 3 15 -9 13 -12 11 -12 -6z"/><path d="M2243 125 c0 -8 4 -12 9 -9 5 3 6 10 3 15 -9 13 -12 11 -12 -6z"/><path d="M2403 95 c0 -27 2 -38 4 -22 2 15 2 37 0 50 -2 12 -4 0 -4 -28z"/><path d="M2463 125 c0 -8 4 -12 9 -9 5 3 6 10 3 15 -9 13 -12 11 -12 -6z"/><path d="M181 114 c0 -11 3 -14 6 -6 3 7 2 16 -1 19 -3 4 -6 -2 -5 -13z"/><path d="M2700 127 c0 -2 6 -10 14 -16 11 -9 16 -9 22 1 4 7 4 10 -1 6 -4 -4 -14 -3 -22 3 -7 6 -13 9 -13 6z"/><path d="M1777 109 c7 -7 15 -10 18 -7 3 3 -2 9 -12 12 -14 6 -15 5 -6 -5z"/><path d="M1087 99 c7 -7 15 -10 18 -7 3 3 -2 9 -12 12 -14 6 -15 5 -6 -5z"/><path d="M1941 94 c0 -11 3 -14 6 -6 3 7 2 16 -1 19 -3 4 -6 -2 -5 -13z"/><path d="M2182 90 c0 -14 2 -19 5 -12 2 6 2 18 0 25 -3 6 -5 1 -5 -13z"/><path d="M796 86 c3 -9 13 -16 22 -16 8 0 13 1 11 3 -2 1 -12 9 -22 16 -15 12 -17 12 -11 -3z"/><path d="M2696 86 c3 -9 13 -16 22 -16 8 0 13 1 11 3 -2 1 -12 9 -22 16 -15 12 -17 12 -11 -3z"/><path d="M182 70 c0 -14 2 -19 5 -12 2 6 2 18 0 25 -3 6 -5 1 -5 -13z"/><path d="M918 83 c7 -3 16 -2 19 1 4 3 -2 6 -13 5 -11 0 -14 -3 -6 -6z"/><path d="M1760 82 c0 -15 39 -22 47 -9 3 7 3 9 -2 5 -4 -4 -16 -3 -26 3 -11 5 -19 6 -19 1z"/><path d="M2488 83 c7 -3 16 -2 19 1 4 3 -2 6 -13 5 -11 0 -14 -3 -6 -6z"/><path d="M1333 65 c0 -8 4 -12 9 -9 5 3 6 10 3 15 -9 13 -12 11 -12 -6z"/><path d="M1613 65 c0 -8 4 -12 9 -9 5 3 6 10 3 15 -9 13 -12 11 -12 -6z"/><path d="M2003 65 c0 -8 4 -12 9 -9 5 3 6 10 3 15 -9 13 -12 11 -12 -6z"/><path d="M2243 65 c0 -8 4 -12 9 -9 5 3 6 10 3 15 -9 13 -12 11 -12 -6z"/><path d="M1195 60 c3 -5 8 -10 11 -10 2 0 4 5 4 10 0 6 -5 10 -11 10 -5 0 -7 -4 -4 -10z"/></g><g transform="translate(0.000000,150.000000) scale(0.100000,-0.100000)" fill="#7FACD8" stroke="none"><path d="M333 1453 c141 -2 373 -2 515 0 141 1 25 2 -258 2 -283 0 -399 -1 -257 -2z"/><path d="M536 1362 c-3 -5 16 -9 40 -11 30 -1 44 2 39 8 -7 13 -72 15 -79 3z"/><path d="M650 1351 c0 -5 12 -11 27 -14 26 -5 26 -4 8 9 -22 16 -35 18 -35 5z"/><path d="M735 1310 c3 -5 8 -10 11 -10 2 0 4 5 4 10 0 6 -5 10 -11 10 -5 0 -7 -4 -4 -10z"/><path d="M370 1290 c-6 -11 -8 -20 -6 -20 3 0 10 9 16 20 6 11 8 20 6 20 -3 0 -10 -9 -16 -20z"/><path d="M770 1291 c0 -5 15 -20 33 -32 l32 -22 -29 31 c-32 34 -36 37 -36 23z"/><path d="M410 1209 c0 -5 5 -7 10 -4 6 3 10 8 10 11 0 2 -4 4 -10 4 -5 0 -10 -5 -10 -11z"/><path d="M685 1210 c-3 -6 1 -7 9 -4 18 7 21 14 7 14 -6 0 -13 -4 -16 -10z"/><path d="M750 1200 c-8 -5 -11 -13 -6 -17 5 -4 11 -2 13 5 3 6 9 10 14 6 5 -3 9 0 9 5 0 13 -10 14 -30 1z"/><path d="M437 1181 c-4 -17 -3 -21 5 -13 5 5 8 16 6 23 -3 8 -7 3 -11 -10z"/><path d="M466 1185 c-9 -26 -7 -32 5 -12 6 10 9 21 6 23 -2 3 -7 -2 -11 -11z"/><path d="M276 1155 c4 -8 8 -15 10 -15 2 0 4 7 4 15 0 8 -4 15 -10 15 -5 0 -7 -7 -4 -15z"/><path d="M685 1161 c-3 -5 -1 -12 5 -16 5 -3 10 1 10 9 0 18 -6 21 -15 7z"/><path d="M730 1130 c11 -22 22 -40 24 -40 3 0 -3 18 -11 40 -9 22 -20 40 -25 40 -4 0 1 -18 12 -40z"/><path d="M450 1130 c0 -5 5 -10 10 -10 6 0 10 5 10 10 0 6 -4 10 -10 10 -5 0 -10 -4 -10 -10z"/><path d="M779 1086 c9 -30 17 -53 19 -51 7 7 -20 105 -28 105 -4 0 0 -24 9 -54z"/><path d="M410 1109 c-7 -11 -10 -23 -7 -25 2 -2 9 7 15 21 14 30 7 33 -8 4z"/><path d="M531 1104 c0 -11 3 -14 6 -6 3 7 2 16 -1 19 -3 4 -6 -2 -5 -13z"/><path d="M254 935 c0 -99 2 -138 3 -87 2 51 2 132 0 180 -1 48 -3 6 -3 -93z"/><path d="M361 1053 c1 -53 6 -49 11 10 2 20 0 37 -4 37 -4 0 -8 -21 -7 -47z"/><path d="M580 1075 c0 -8 4 -15 10 -15 5 0 7 7 4 15 -4 8 -8 15 -10 15 -2 0 -4 -7 -4 -15z"/><path d="M894 930 c0 -91 2 -128 3 -82 2 45 2 119 0 165 -1 45 -3 8 -3 -83z"/><path d="M757 1059 c4 -13 8 -18 11 -10 2 7 -1 18 -6 23 -8 8 -9 4 -5 -13z"/><path d="M471 1041 l-1 -34 23 20 c12 12 33 23 47 26 l25 4 -25 1 c-14 1 -32 -3 -40 -8 -11 -7 -17 -5 -22 8 -4 11 -7 5 -7 -17z"/><path d="M630 1049 c20 -8 22 -12 10 -19 -11 -7 -10 -9 8 -7 12 0 22 5 22 9 0 10 -35 28 -52 27 -7 0 -2 -5 12 -10z"/><path d="M331 1034 c0 -11 3 -14 6 -6 3 7 2 16 -1 19 -3 4 -6 -2 -5 -13z"/><path d="M392 1020 c0 -19 2 -27 5 -17 2 9 2 25 0 35 -3 9 -5 1 -5 -18z"/><path d="M430 1050 c-1 -3 -3 -18 -6 -35 -3 -28 -3 -29 7 -6 5 13 8 29 5 35 -2 6 -5 9 -6 6z"/><path d="M722 1010 c0 -14 2 -19 5 -12 2 6 2 18 0 25 -3 6 -5 1 -5 -13z"/><path d="M570 814 c0 -8 5 -12 10 -9 6 4 8 11 5 16 -9 14 -15 11 -15 -7z"/><path d="M340 731 c0 -6 4 -13 10 -16 6 -3 7 1 4 9 -7 18 -14 21 -14 7z"/><path d="M790 728 c0 -10 5 -18 11 -18 5 0 7 -5 3 -12 -4 -6 -3 -8 3 -5 6 4 19 0 29 -8 29 -22 37 -18 14 8 -12 12 -26 22 -31 22 -5 0 -14 7 -19 15 -8 13 -10 12 -10 -2z"/><path d="M771 714 c0 -11 3 -14 6 -6 3 7 2 16 -1 19 -3 4 -6 -2 -5 -13z"/><path d="M321 705 c0 -5 6 -18 13 -28 11 -15 15 -15 25 -3 13 15 -1 32 -18 22 -5 -4 -12 0 -14 6 -3 7 -6 9 -6 3z"/><path d="M860 700 c0 -5 5 -10 10 -10 6 0 10 5 10 10 0 6 -4 10 -10 10 -5 0 -10 -4 -10 -10z"/><path d="M276 691 c-3 -5 2 -15 12 -22 15 -12 16 -12 5 2 -7 9 -10 19 -6 22 3 4 4 7 0 7 -3 0 -8 -4 -11 -9z"/><path d="M396 685 c-19 -15 -19 -15 2 -15 13 0 22 6 22 15 0 18 0 18 -24 0z"/><path d="M728 683 c-16 -19 -14 -43 4 -43 7 0 6 5 -1 14 -14 16 11 42 30 30 8 -4 9 -3 5 4 -10 17 -20 15 -38 -5z"/><path d="M430 678 c0 -4 5 -8 10 -8 6 0 10 -7 10 -17 0 -13 4 -11 20 7 11 13 17 26 14 29 -4 3 -9 0 -11 -6 -3 -7 -9 -13 -14 -13 -6 0 -8 4 -5 8 3 5 -1 9 -9 9 -8 0 -15 -4 -15 -9z"/><path d="M663 655 c-35 -37 -45 -59 -15 -32 10 10 22 14 26 10 4 -5 7 -3 6 2 -5 22 1 27 18 14 15 -13 16 -12 4 3 -8 9 -11 22 -7 28 11 17 1 10 -32 -25z"/><path d="M782 685 c4 -4 3 -14 -4 -22 -8 -11 -7 -12 6 -7 19 7 21 20 4 30 -7 4 -10 4 -6 -1z"/><path d="M640 669 c0 -5 5 -7 10 -4 6 3 10 8 10 11 0 2 -4 4 -10 4 -5 0 -10 -5 -10 -11z"/><path d="M516 661 c4 -9 0 -19 -11 -28 -11 -7 -14 -13 -8 -13 7 0 15 5 19 12 5 8 10 6 15 -8 6 -14 8 -15 8 -3 1 8 -6 24 -15 35 -8 10 -12 13 -8 5z"/><path d="M563 663 c4 -3 1 -13 -5 -22 -8 -10 -4 -9 10 3 22 19 32 10 12 -10 -7 -7 -6 -11 4 -11 8 0 18 7 20 14 3 8 11 11 17 7 8 -4 9 -3 5 5 -4 6 -12 9 -17 6 -5 -4 -9 -1 -9 4 0 6 -10 11 -22 11 -12 0 -18 -3 -15 -7z"/><path d="M415 650 c3 -5 10 -10 16 -10 5 0 9 5 9 10 0 6 -7 10 -16 10 -8 0 -12 -4 -9 -10z"/><path d="M305 630 c3 -5 8 -10 11 -10 2 0 4 5 4 10 0 6 -5 10 -11 10 -5 0 -7 -4 -4 -10z"/><path d="M455 620 c3 -5 8 -10 11 -10 2 0 4 5 4 10 0 6 -5 10 -11 10 -5 0 -7 -4 -4 -10z"/><path d="M386 557 c3 -10 9 -15 12 -12 3 3 0 11 -7 18 -10 9 -11 8 -5 -6z"/><path d="M755 560 c-3 -5 -1 -10 4 -10 6 0 11 5 11 10 0 6 -2 10 -4 10 -3 0 -8 -4 -11 -10z"/><path d="M445 520 c-3 -5 -1 -10 4 -10 6 0 11 5 11 10 0 6 -2 10 -4 10 -3 0 -8 -4 -11 -10z"/><path d="M470 509 c0 -5 5 -7 10 -4 6 3 10 8 10 11 0 2 -4 4 -10 4 -5 0 -10 -5 -10 -11z"/><path d="M525 500 c-4 -6 12 -10 39 -10 25 0 46 5 46 10 0 6 -18 10 -39 10 -22 0 -43 -4 -46 -10z"/><path d="M1095 350 c4 -6 11 -8 16 -5 14 9 11 15 -7 15 -8 0 -12 -5 -9 -10z"/><path d="M1733 340 c-2 -17 0 -18 18 -2 10 9 19 17 19 17 0 0 -8 1 -18 2 -11 1 -18 -6 -19 -17z"/><path d="M1063 335 c-3 -9 -3 -18 -1 -21 3 -3 8 4 11 16 6 23 -1 27 -10 5z"/><path d="M1775 341 c-3 -5 -2 -12 3 -15 5 -3 9 1 9 9 0 17 -3 19 -12 6z"/><path d="M2268 343 c7 -3 16 -2 19 1 4 3 -2 6 -13 5 -11 0 -14 -3 -6 -6z"/><path d="M2212 325 c-11 -12 -10 -15 3 -15 8 0 15 7 15 15 0 18 -2 18 -18 0z"/><path d="M56 302 c-3 -5 1 -9 9 -9 8 0 12 4 9 9 -3 4 -7 8 -9 8 -2 0 -6 -4 -9 -8z"/><path d="M920 298 c0 -5 37 -7 83 -7 85 2 75 6 -26 11 -31 2 -57 0 -57 -4z"/><path d="M207 293 c18 -4 23 -12 26 -54 l4 -49 -1 52 c-1 49 -3 53 -26 54 -21 1 -21 0 -3 -3z"/><path d="M283 293 c15 -2 39 -2 55 0 15 2 2 4 -28 4 -30 0 -43 -2 -27 -4z"/><path d="M395 294 c46 -7 123 -8 118 -1 -2 4 -34 6 -71 6 -37 -1 -58 -3 -47 -5z"/><path d="M553 293 c9 -2 23 -2 30 0 6 3 -1 5 -18 5 -16 0 -22 -2 -12 -5z"/><path d="M613 250 c0 -30 2 -43 4 -27 2 15 2 39 0 55 -2 15 -4 2 -4 -28z"/><path d="M684 280 c0 -13 4 -16 10 -10 7 7 7 13 0 20 -6 6 -10 3 -10 -10z"/><path d="M752 275 c0 -16 2 -22 5 -12 2 9 2 23 0 30 -3 6 -5 -1 -5 -18z"/><path d="M1102 248 l2 -53 3 48 c3 38 8 47 23 47 15 0 20 -9 23 -47 l4 -48 -1 50 c-1 47 -3 50 -28 53 -28 3 -28 3 -26 -50z"/><path d="M1225 291 c28 -4 55 -9 61 -13 6 -4 11 -1 11 7 0 12 -14 15 -61 14 l-61 -2 50 -6z"/><path d="M1324 287 c-3 -8 -4 -34 -1 -58 3 -44 4 -43 5 9 l2 52 64 0 c35 0 67 -5 69 -10 3 -6 4 -5 3 2 -4 20 -134 24 -142 5z"/><path d="M1488 293 c7 -3 16 -2 19 1 4 3 -2 6 -13 5 -11 0 -14 -3 -6 -6z"/><path d="M1653 293 c15 -2 39 -2 55 0 15 2 2 4 -28 4 -30 0 -43 -2 -27 -4z"/><path d="M1763 293 c9 -2 23 -2 30 0 6 3 -1 5 -18 5 -16 0 -22 -2 -12 -5z"/><path d="M1833 293 c9 -2 25 -2 35 0 9 3 1 5 -18 5 -19 0 -27 -2 -17 -5z"/><path d="M1923 293 c9 -2 23 -2 30 0 6 3 -1 5 -18 5 -16 0 -22 -2 -12 -5z"/><path d="M1983 293 c9 -2 23 -2 30 0 6 3 -1 5 -18 5 -16 0 -22 -2 -12 -5z"/><path d="M2048 293 c7 -3 16 -2 19 1 4 3 -2 6 -13 5 -11 0 -14 -3 -6 -6z"/><path d="M2252 248 l2 -53 3 47 4 47 67 4 67 3 -72 2 -73 2 2 -52z"/><path d="M2428 293 c12 -2 30 -2 40 0 9 3 -1 5 -23 4 -22 0 -30 -2 -17 -4z"/><path d="M2502 270 c0 -19 2 -27 5 -17 2 9 2 25 0 35 -3 9 -5 1 -5 -18z"/><path d="M2543 250 c0 -30 2 -43 4 -27 2 15 2 39 0 55 -2 15 -4 2 -4 -28z"/><path d="M2588 293 c12 -2 30 -2 40 0 9 3 -1 5 -23 4 -22 0 -30 -2 -17 -4z"/><path d="M2667 294 c-17 -18 -6 -35 21 -32 16 2 27 9 27 18 0 16 -36 26 -48 14z m43 -14 c0 -5 -9 -10 -20 -10 -11 0 -20 5 -20 10 0 6 9 10 20 10 11 0 20 -4 20 -10z"/><path d="M2734 286 c-3 -7 -4 -33 -1 -57 l4 -44 1 52 c1 30 7 53 15 56 9 4 9 6 -1 6 -7 1 -15 -5 -18 -13z"/><path d="M110 278 c0 -13 7 -18 28 -17 21 1 22 2 7 6 -11 3 -23 10 -27 17 -5 7 -8 5 -8 -6z"/><path d="M70 270 c8 -5 20 -10 25 -10 6 0 3 5 -5 10 -8 5 -19 10 -25 10 -5 0 -3 -5 5 -10z"/><path d="M447 263 c-4 -3 -7 -11 -7 -17 0 -7 3 -7 8 1 4 6 23 13 42 16 l35 4 -36 1 c-20 1 -39 -1 -42 -5z"/><path d="M1691 263 c3 -21 -2 -26 -12 -13 -9 12 -10 12 -7 1 6 -23 22 -23 36 -1 10 17 10 20 -3 20 -8 0 -14 -3 -14 -7z"/><path d="M1923 263 c9 -2 23 -2 30 0 6 3 -1 5 -18 5 -16 0 -22 -2 -12 -5z"/><path d="M2456 261 c-3 -5 2 -15 12 -22 15 -13 16 -12 4 3 -10 13 -10 17 0 21 9 4 9 6 1 6 -6 1 -14 -3 -17 -8z"/><path d="M325 230 c10 -11 20 -20 23 -20 3 0 -3 9 -13 20 -10 11 -20 20 -23 20 -3 0 3 -9 13 -20z"/><path d="M970 246 c0 -2 8 -10 18 -17 15 -13 16 -12 3 4 -13 16 -21 21 -21 13z"/><path d="M2712 220 c0 -19 2 -27 5 -17 2 9 2 25 0 35 -3 9 -5 1 -5 -18z"/><path d="M105 230 c-3 -5 -1 -10 4 -10 6 0 11 5 11 10 0 6 -2 10 -4 10 -3 0 -8 -4 -11 -10z"/><path d="M350 236 c0 -2 8 -10 18 -17 15 -13 16 -12 3 4 -13 16 -21 21 -21 13z"/><path d="M1258 213 c6 -2 18 -2 25 0 6 3 1 5 -13 5 -14 0 -19 -2 -12 -5z"/><path d="M1716 207 c3 -10 9 -15 12 -12 3 3 0 11 -7 18 -10 9 -11 8 -5 -6z"/><path d="M1008 203 c7 -3 16 -2 19 1 4 3 -2 6 -13 5 -11 0 -14 -3 -6 -6z"/><path d="M122 98 l1 -53 7 50 6 50 5 -50 5 -50 2 53 c2 40 -1 52 -13 52 -12 0 -15 -12 -13 -52z"/><path d="M183 143 c9 -2 25 -2 35 0 9 3 1 5 -18 5 -19 0 -27 -2 -17 -5z"/><path d="M247 143 c-4 -3 -7 -28 -7 -55 l0 -48 38 2 c36 1 36 1 5 5 -32 4 -33 6 -33 48 0 42 1 44 33 48 l32 4 -31 1 c-17 1 -34 -1 -37 -5z"/><path d="M538 143 c7 -3 16 -2 19 1 4 3 -2 6 -13 5 -11 0 -14 -3 -6 -6z"/><path d="M670 107 c4 -41 5 -41 8 -8 2 18 0 37 -5 42 -5 5 -6 -11 -3 -34z"/><path d="M694 136 c-8 -22 0 -91 11 -89 5 1 12 11 17 22 10 28 0 27 -12 -1 -7 -19 -9 -14 -9 24 -1 41 2 47 22 51 l22 4 -23 2 c-12 0 -25 -5 -28 -13z"/><path d="M805 140 c-3 -6 1 -7 9 -4 18 7 21 14 7 14 -6 0 -13 -4 -16 -10z"/><path d="M877 143 c-9 -9 -9 -91 1 -96 4 -3 5 15 3 40 -2 31 1 48 10 54 8 5 9 9 3 9 -6 0 -14 -3 -17 -7z"/><path d="M928 120 c-3 -16 -1 -30 3 -30 4 0 10 12 12 28 2 17 5 10 6 -20 0 -25 -4 -49 -9 -51 -6 -3 -5 -4 2 -3 8 2 13 20 13 51 0 54 -20 73 -27 25z"/><path d="M1064 136 c-3 -8 -4 -31 -2 -52 3 -37 5 -39 38 -40 l35 -2 -32 5 c-32 4 -33 6 -33 48 0 42 1 44 33 48 l32 4 -33 1 c-20 1 -35 -3 -38 -12z"/><path d="M1308 143 c7 -3 16 -2 19 1 4 3 -2 6 -13 5 -11 0 -14 -3 -6 -6z"/><path d="M1377 143 c-10 -9 -9 -103 1 -103 4 0 5 22 4 49 -4 45 -2 50 20 54 20 4 21 4 2 6 -11 0 -24 -2 -27 -6z"/><path d="M1464 136 c-3 -8 -4 -31 -1 -52 3 -38 4 -37 5 8 2 40 5 47 25 51 l22 4 -23 2 c-12 0 -25 -5 -28 -13z"/><path d="M1588 143 c7 -3 16 -2 19 1 4 3 -2 6 -13 5 -11 0 -14 -3 -6 -6z"/><path d="M1658 143 c6 -2 18 -2 25 0 6 3 1 5 -13 5 -14 0 -19 -2 -12 -5z"/><path d="M1815 141 c-6 -11 13 -26 22 -17 4 3 0 7 -8 7 -8 1 4 5 26 9 l40 7 -37 2 c-20 0 -39 -3 -43 -8z"/><path d="M1902 98 l1 -53 7 50 6 50 5 -50 5 -50 2 53 c2 40 -1 52 -13 52 -12 0 -15 -12 -13 -52z"/><path d="M1978 143 c7 -3 16 -2 19 1 4 3 -2 6 -13 5 -11 0 -14 -3 -6 -6z"/><path d="M2042 98 c2 -29 8 -52 13 -50 13 3 26 51 15 57 -5 3 -11 -9 -13 -27 -3 -26 -4 -23 -5 14 -1 29 3 48 11 51 7 3 4 6 -6 6 -16 1 -18 -6 -15 -51z"/><path d="M2105 136 c-3 -9 -7 -23 -10 -31 -2 -8 0 -15 5 -15 5 0 11 12 13 28 3 15 4 4 4 -25 -1 -28 1 -49 6 -46 11 6 9 91 -3 98 -6 3 -12 -1 -15 -9z"/><path d="M2218 143 c7 -3 16 -2 19 1 4 3 -2 6 -13 5 -11 0 -14 -3 -6 -6z"/><path d="M2287 143 c-4 -3 -7 -28 -7 -55 0 -48 15 -64 27 -30 4 9 11 20 17 24 7 5 7 8 -2 8 -7 0 -17 -10 -22 -22 -7 -19 -9 -14 -9 24 -1 43 1 47 27 51 l27 4 -26 2 c-14 0 -29 -2 -32 -6z"/><path d="M2444 136 c-8 -21 0 -91 10 -91 13 0 27 54 16 60 -5 3 -11 -9 -13 -27 -3 -26 -4 -23 -5 14 -1 29 3 48 11 51 9 4 9 6 -1 6 -7 1 -15 -5 -18 -13z"/><path d="M2505 135 c-3 -8 -7 -22 -10 -30 -2 -8 -1 -15 4 -15 5 0 11 14 13 30 5 32 1 40 -7 15z"/><path d="M2558 143 c6 -2 18 -2 25 0 6 3 1 5 -13 5 -14 0 -19 -2 -12 -5z"/><path d="M2642 98 l1 -53 7 50 7 50 1 -47 c1 -27 5 -48 10 -48 4 0 5 22 4 50 -3 35 -8 50 -18 50 -10 0 -14 -13 -12 -52z"/><path d="M2705 140 c-3 -6 1 -7 9 -4 18 7 21 14 7 14 -6 0 -13 -4 -16 -10z"/><path d="M1026 131 c-4 -5 -2 -12 3 -15 5 -4 12 -2 15 3 4 5 2 12 -3 15 -5 4 -12 2 -15 -3z"/><path d="M1424 129 c-4 -7 -3 -9 4 -5 6 3 13 -2 15 -11 4 -16 5 -16 6 -1 1 21 -15 32 -25 17z"/><path d="M1717 119 c4 -13 8 -18 11 -10 2 7 -1 18 -6 23 -8 8 -9 4 -5 -13z"/><path d="M2185 129 c-4 -6 -5 -12 -2 -15 2 -3 7 2 10 11 7 17 1 20 -8 4z"/><path d="M198 123 c7 -3 16 -2 19 1 4 3 -2 6 -13 5 -11 0 -14 -3 -6 -6z"/><path d="M260 115 c0 -8 8 -15 18 -15 14 0 14 2 3 9 -11 7 -9 10 10 14 23 4 22 4 -3 6 -19 1 -28 -4 -28 -14z"/><path d="M711 114 c0 -11 3 -14 6 -6 3 7 2 16 -1 19 -3 4 -6 -2 -5 -13z"/><path d="M995 119 c-4 -6 -5 -12 -2 -15 2 -3 7 2 10 11 7 17 1 20 -8 4z"/><path d="M1082 118 c2 -6 11 -13 19 -16 12 -3 12 -2 0 6 -11 8 -9 11 10 15 22 4 22 4 -4 6 -18 0 -27 -3 -25 -11z"/><path d="M1237 119 c7 -7 15 -10 18 -7 3 3 -2 9 -12 12 -14 6 -15 5 -6 -5z"/><path d="M1295 119 c-4 -6 -5 -12 -2 -15 2 -3 7 2 10 11 7 17 1 20 -8 4z"/><path d="M1391 114 c0 -11 3 -14 6 -6 3 7 2 16 -1 19 -3 4 -6 -2 -5 -13z"/><path d="M1481 114 c0 -11 3 -14 6 -6 3 7 2 16 -1 19 -3 4 -6 -2 -5 -13z"/><path d="M1964 115 c-3 -8 -4 -20 -2 -27 3 -7 7 -1 10 15 6 29 1 36 -8 12z"/><path d="M2205 119 c-4 -6 -5 -12 -2 -15 2 -3 7 2 10 11 7 17 1 20 -8 4z"/><path d="M2300 113 c0 -11 3 -14 8 -7 4 6 14 14 22 17 10 4 8 6 -7 6 -16 1 -23 -5 -23 -16z"/><path d="M2564 116 c-8 -22 -1 -49 14 -52 7 -1 8 0 2 3 -14 7 -13 50 3 56 9 4 9 6 -1 6 -7 1 -15 -5 -18 -13z"/><path d="M1200 91 c0 -11 4 -22 9 -25 4 -3 6 6 3 19 -5 30 -12 33 -12 6z"/><path d="M1331 94 c0 -11 3 -14 6 -6 3 7 2 16 -1 19 -3 4 -6 -2 -5 -13z"/><path d="M1611 94 c0 -11 3 -14 6 -6 3 7 2 16 -1 19 -3 4 -6 -2 -5 -13z"/><path d="M1632 90 c0 -14 2 -19 5 -12 2 6 2 18 0 25 -3 6 -5 1 -5 -13z"/><path d="M1773 95 c0 -8 4 -15 9 -15 4 0 8 4 8 9 0 6 -4 12 -8 15 -5 3 -9 -1 -9 -9z"/><path d="M2001 94 c0 -11 3 -14 6 -6 3 7 2 16 -1 19 -3 4 -6 -2 -5 -13z"/><path d="M2022 90 c0 -14 2 -19 5 -12 2 6 2 18 0 25 -3 6 -5 1 -5 -13z"/><path d="M2241 94 c0 -11 3 -14 6 -6 3 7 2 16 -1 19 -3 4 -6 -2 -5 -13z"/><path d="M2262 90 c0 -14 2 -19 5 -12 2 6 2 18 0 25 -3 6 -5 1 -5 -13z"/><path d="M2621 94 c0 -11 3 -14 6 -6 3 7 2 16 -1 19 -3 4 -6 -2 -5 -13z"/><path d="M2713 95 c0 -8 4 -15 9 -15 4 0 8 4 8 9 0 6 -4 12 -8 15 -5 3 -9 -1 -9 -9z"/><path d="M260 78 c0 -12 7 -18 23 -17 15 0 17 2 7 6 -8 3 -18 11 -22 17 -5 7 -8 4 -8 -6z"/><path d="M642 74 c-7 -8 -8 -14 -3 -14 10 0 25 19 20 25 -2 1 -10 -3 -17 -11z"/><path d="M1083 80 c2 -8 14 -16 28 -17 19 -1 20 -1 4 4 -11 3 -24 10 -28 17 -6 7 -7 6 -4 -4z"/><path d="M1390 86 c0 -2 7 -7 16 -10 8 -3 12 -2 9 4 -6 10 -25 14 -25 6z"/><path d="M1483 75 c-3 -9 -3 -19 1 -22 3 -4 6 1 6 10 0 8 6 18 13 20 9 4 9 6 -1 6 -7 1 -15 -6 -19 -14z"/><path d="M1670 86 c0 -2 7 -7 16 -10 8 -3 12 -2 9 4 -6 10 -25 14 -25 6z"/><path d="M2200 81 c0 -6 4 -13 10 -16 6 -3 7 1 4 9 -7 18 -14 21 -14 7z"/><path d="M1026 72 c-3 -5 1 -9 9 -9 8 0 15 4 15 9 0 10 -17 10 -24 0z"/><path d="M1235 70 c-3 -6 1 -7 9 -4 18 7 21 14 7 14 -6 0 -13 -4 -16 -10z"/><path d="M85 61 c18 -8 18 -9 -8 -14 l-27 -4 27 1 c31 1 35 20 6 23 -15 2 -15 1 2 -6z"/><path d="M467 49 c7 -7 15 -10 18 -7 3 3 -2 9 -12 12 -14 6 -15 5 -6 -5z"/><path d="M750 46 c7 -7 14 -6 21 1 9 9 7 12 -9 10 -14 -1 -18 -5 -12 -11z"/></g><g transform="translate(0.000000,150.000000) scale(0.100000,-0.100000)" fill="#D2E5EB" stroke="none"><path d="M1105 930 c0 -294 1 -415 2 -267 2 147 2 387 0 535 -1 147 -2 26 -2 -268z"/><path d="M1135 925 c0 -291 1 -409 2 -262 2 148 2 386 0 530 -1 144 -2 24 -2 -268z"/><path d="M45 930 c0 -272 1 -384 2 -247 2 136 2 358 0 495 -1 136 -2 24 -2 -248z"/><path d="M628 1353 c7 -3 16 -2 19 1 4 3 -2 6 -13 5 -11 0 -14 -3 -6 -6z"/><path d="M389 1303 c-13 -16 -12 -17 4 -4 9 7 17 15 17 17 0 8 -8 3 -21 -13z"/><path d="M344 1268 l-19 -23 23 19 c21 18 27 26 19 26 -2 0 -12 -10 -23 -22z"/><path d="M815 1240 c10 -11 20 -20 23 -20 3 0 -3 9 -13 20 -10 11 -20 20 -23 20 -3 0 3 -9 13 -20z"/><path d="M309 1223 c-13 -16 -12 -17 4 -4 16 13 21 21 13 21 -2 0 -10 -8 -17 -17z"/><path d="M696 1195 c-9 -26 -7 -32 5 -12 6 10 9 21 6 23 -2 3 -7 -2 -11 -11z"/><path d="M860 1175 c0 -5 5 -17 10 -25 5 -8 10 -10 10 -5 0 6 -5 17 -10 25 -5 8 -10 11 -10 5z"/><path d="M663 1155 c-3 -9 -3 -18 -1 -21 3 -3 8 4 11 16 6 23 -1 27 -10 5z"/><path d="M872 933 c2 -211 6 -191 10 50 2 81 0 147 -4 147 -5 0 -7 -89 -6 -197z"/><path d="M390 1080 c0 -5 5 -10 11 -10 5 0 7 5 4 10 -3 6 -8 10 -11 10 -2 0 -4 -4 -4 -10z"/><path d="M756 1073 c-6 -14 -5 -15 5 -6 7 7 10 15 7 18 -3 3 -9 -2 -12 -12z"/><path d="M786 1074 c-9 -22 -7 -64 2 -64 4 0 7 18 7 40 0 45 0 47 -9 24z"/><path d="M813 1025 c0 -27 2 -38 4 -22 2 15 2 37 0 50 -2 12 -4 0 -4 -28z"/><path d="M563 1035 c0 -8 4 -12 9 -9 5 3 6 10 3 15 -9 13 -12 11 -12 -6z"/><path d="M381 1024 c0 -11 3 -14 6 -6 3 7 2 16 -1 19 -3 4 -6 -2 -5 -13z"/><path d="M731 1024 c0 -11 3 -14 6 -6 3 7 2 16 -1 19 -3 4 -6 -2 -5 -13z"/><path d="M427 1001 c-4 -17 -3 -21 5 -13 5 5 8 16 6 23 -3 8 -7 3 -11 -10z"/><path d="M520 996 c0 -14 4 -27 8 -30 5 -3 6 8 4 25 -5 35 -12 38 -12 5z"/><path d="M568 953 c7 -3 16 -2 19 1 4 3 -2 6 -13 5 -11 0 -14 -3 -6 -6z"/><path d="M620 748 c0 -5 28 -7 63 -7 67 1 60 6 -15 11 -27 2 -48 0 -48 -4z"/><path d="M800 730 c0 -5 5 -10 11 -10 5 0 7 5 4 10 -3 6 -8 10 -11 10 -2 0 -4 -4 -4 -10z"/><path d="M343 723 c-7 -3 -13 -12 -13 -21 0 -14 2 -13 13 2 12 16 14 16 26 2 8 -9 20 -16 28 -16 11 0 11 3 1 14 -7 8 -15 12 -17 10 -2 -2 -9 0 -15 5 -6 4 -17 6 -23 4z"/><path d="M720 692 c-19 -16 -21 -22 -11 -38 11 -19 11 -19 9 1 -2 13 2 19 12 17 8 -2 12 0 8 4 -4 4 -3 13 3 21 16 19 5 16 -21 -5z"/><path d="M766 685 c4 -8 11 -15 16 -15 6 0 5 6 -2 15 -7 8 -14 15 -16 15 -2 0 -1 -7 2 -15z"/><path d="M447 673 c-11 -10 -8 -43 3 -43 5 0 7 7 3 16 -3 9 0 20 8 25 8 5 9 9 3 9 -6 0 -14 -3 -17 -7z"/><path d="M673 662 c10 -10 14 -22 10 -27 -5 -4 -2 -5 5 -1 11 6 10 12 -4 27 -9 10 -19 19 -22 19 -3 0 2 -8 11 -18z"/><path d="M526 655 c4 -8 8 -15 10 -15 2 0 4 7 4 15 0 8 -4 15 -10 15 -5 0 -7 -7 -4 -15z"/><path d="M610 660 c18 -12 30 -13 30 -2 0 4 -10 9 -22 9 -18 2 -20 0 -8 -7z"/><path d="M835 644 c-9 -15 -12 -23 -6 -20 11 7 35 46 28 46 -3 0 -12 -12 -22 -26z"/><path d="M497 653 c-4 -3 -7 -11 -7 -17 0 -6 5 -5 12 2 6 6 9 14 7 17 -3 3 -9 2 -12 -2z"/><path d="M656 637 c3 -10 9 -15 12 -12 3 3 0 11 -7 18 -10 9 -11 8 -5 -6z"/><path d="M566 619 c3 -5 12 -9 21 -9 19 0 9 13 -12 16 -8 1 -13 -2 -9 -7z"/><path d="M350 585 c19 -19 36 -35 39 -35 3 0 -10 16 -29 35 -19 19 -36 35 -39 35 -3 0 10 -16 29 -35z"/><path d="M789 583 l-24 -28 28 24 c25 23 32 31 24 31 -2 0 -14 -12 -28 -27z"/><path d="M414 536 c11 -9 24 -16 30 -16 12 0 7 5 -24 19 -24 11 -24 11 -6 -3z"/><path d="M710 530 c-9 -6 -10 -10 -3 -10 6 0 15 5 18 10 8 12 4 12 -15 0z"/><path d="M488 503 c6 -2 18 -2 25 0 6 3 1 5 -13 5 -14 0 -19 -2 -12 -5z"/><path d="M2258 363 c6 -2 18 -2 25 0 6 3 1 5 -13 5 -14 0 -19 -2 -12 -5z"/><path d="M1154 333 c19 -22 24 -23 190 -21 l171 2 -169 3 c-143 3 -173 6 -190 21 -21 17 -21 17 -2 -5z"/><path d="M550 336 c0 -2 8 -10 18 -17 15 -13 16 -12 3 4 -13 16 -21 21 -21 13z"/><path d="M599 328 c11 -15 30 -18 106 -18 54 0 95 -4 98 -10 3 -6 4 -5 3 2 -2 9 -30 14 -96 16 -54 2 -101 8 -109 15 -14 11 -14 10 -2 -5z"/><path d="M1765 331 c3 -5 -3 -12 -12 -14 -11 -3 -6 -5 11 -6 24 -1 27 1 16 14 -14 16 -25 21 -15 6z"/><path d="M314 323 c-146 -3 -184 -6 -194 -18 -10 -12 -9 -15 8 -15 11 0 23 -6 25 -12 4 -8 6 -7 6 4 1 9 -7 19 -16 21 -10 3 66 5 170 6 117 1 187 5 187 11 0 6 -1 9 -2 8 -2 -2 -85 -4 -184 -5z"/><path d="M1115 320 c-19 -8 -19 -9 3 -9 12 -1 22 4 22 9 0 6 -1 10 -2 9 -2 0 -12 -4 -23 -9z"/><path d="M2285 320 l-40 -7 48 -2 c30 0 46 3 42 9 -3 6 -7 9 -8 9 -1 -1 -20 -5 -42 -9z"/><path d="M1883 313 c37 -2 96 -2 130 0 34 2 4 3 -68 3 -71 0 -99 -1 -62 -3z"/><path d="M2483 313 c54 -2 139 -2 190 0 51 1 7 3 -98 3 -104 0 -146 -2 -92 -3z"/><path d="M74 289 c-4 -7 -3 -9 4 -5 5 3 13 0 15 -6 4 -9 6 -10 6 -1 1 17 -16 25 -25 12z"/><path d="M633 293 c9 -2 25 -2 35 0 9 3 1 5 -18 5 -19 0 -27 -2 -17 -5z"/><path d="M728 293 c7 -3 16 -2 19 1 4 3 -2 6 -13 5 -11 0 -14 -3 -6 -6z"/><path d="M2208 293 c7 -3 16 -2 19 1 4 3 -2 6 -13 5 -11 0 -14 -3 -6 -6z"/><path d="M2518 293 c7 -3 16 -2 19 1 4 3 -2 6 -13 5 -11 0 -14 -3 -6 -6z"/><path d="M183 240 c0 -30 2 -43 4 -27 2 15 2 39 0 55 -2 15 -4 2 -4 -28z"/><path d="M1483 240 c0 -30 2 -43 4 -27 2 15 2 39 0 55 -2 15 -4 2 -4 -28z"/><path d="M1793 240 c0 -30 2 -43 4 -27 2 15 2 39 0 55 -2 15 -4 2 -4 -28z"/><path d="M1973 240 c0 -30 2 -43 4 -27 2 15 2 39 0 55 -2 15 -4 2 -4 -28z"/><path d="M2013 240 c0 -30 2 -43 4 -27 2 15 2 39 0 55 -2 15 -4 2 -4 -28z"/><path d="M1000 271 c0 -6 5 -13 12 -17 6 -4 8 -3 4 4 -4 7 7 12 31 15 l38 4 -42 1 c-24 1 -43 -2 -43 -7z"/><path d="M1364 269 c-3 -6 1 -17 10 -25 9 -8 11 -9 6 -2 -18 21 -11 27 38 31 l47 3 -47 2 c-26 1 -50 -3 -54 -9z"/><path d="M2323 273 c15 -2 37 -2 50 0 12 2 0 4 -28 4 -27 0 -38 -2 -22 -4z"/><path d="M655 260 c-3 -6 1 -7 9 -4 18 7 21 14 7 14 -6 0 -13 -4 -16 -10z"/><path d="M1268 263 c6 -2 18 -2 25 0 6 3 1 5 -13 5 -14 0 -19 -2 -12 -5z"/><path d="M1856 261 c-3 -5 2 -15 12 -22 15 -12 16 -12 5 2 -7 9 -10 19 -6 22 3 4 4 7 0 7 -3 0 -8 -4 -11 -9z"/><path d="M513 225 c0 -22 2 -30 4 -17 2 12 2 30 0 40 -3 9 -5 -1 -4 -23z"/><path d="M1423 253 c9 -2 23 -2 30 0 6 3 -1 5 -18 5 -16 0 -22 -2 -12 -5z"/><path d="M2357 253 c16 -3 23 -13 26 -36 4 -31 4 -31 5 6 2 34 0 37 -25 36 -23 -1 -24 -2 -6 -6z"/><path d="M128 243 c6 -2 18 -2 25 0 6 3 1 5 -13 5 -14 0 -19 -2 -12 -5z"/><path d="M955 230 c10 -11 20 -20 23 -20 3 0 -3 9 -13 20 -10 11 -20 20 -23 20 -3 0 3 -9 13 -20z"/><path d="M1220 236 c0 -2 8 -10 18 -17 15 -13 16 -12 3 4 -13 16 -21 21 -21 13z"/><path d="M430 216 c0 -2 8 -10 18 -17 15 -13 16 -12 3 4 -13 16 -21 21 -21 13z"/><path d="M751 204 c0 -11 3 -14 6 -6 3 7 2 16 -1 19 -3 4 -6 -2 -5 -13z"/><path d="M163 100 c0 -30 2 -43 4 -28 2 16 2 40 0 55 -2 16 -4 3 -4 -27z"/><path d="M362 98 c-2 -49 1 -58 16 -58 11 0 13 3 5 8 -6 4 -13 30 -16 57 l-3 50 -2 -57z"/><path d="M566 137 c3 -10 9 -15 12 -12 3 3 0 11 -7 18 -10 9 -11 8 -5 -6z"/><path d="M652 120 c0 -19 2 -27 5 -17 2 9 2 25 0 35 -3 9 -5 1 -5 -18z"/><path d="M740 146 c0 -2 7 -7 16 -10 8 -3 12 -2 9 4 -6 10 -25 14 -25 6z"/><path d="M1420 146 c0 -2 7 -7 16 -10 8 -3 12 -2 9 4 -6 10 -25 14 -25 6z"/><path d="M1510 146 c0 -2 7 -7 16 -10 8 -3 12 -2 9 4 -6 10 -25 14 -25 6z"/><path d="M2341 134 c0 -11 3 -14 6 -6 3 7 2 16 -1 19 -3 4 -6 -2 -5 -13z"/><path d="M2420 101 c0 -30 -5 -51 -12 -54 -8 -3 -6 -6 5 -6 14 -1 17 8 17 54 0 30 -2 55 -5 55 -3 0 -5 -22 -5 -49z"/><path d="M2523 95 c0 -33 2 -45 4 -27 2 18 2 45 0 60 -2 15 -4 0 -4 -33z"/><path d="M493 90 c0 -30 2 -43 4 -28 2 16 2 40 0 55 -2 16 -4 3 -4 -27z"/><path d="M2542 93 c-2 -52 -1 -53 26 -52 22 1 23 2 5 6 -18 4 -23 12 -26 51 l-3 47 -2 -52z"/><path d="M729 122 c9 -7 10 -11 2 -15 -7 -4 -8 -5 0 -3 15 2 13 20 -3 24 -10 3 -10 2 1 -6z"/><path d="M1400 126 c0 -2 7 -7 16 -10 8 -3 12 -2 9 4 -6 10 -25 14 -25 6z"/><path d="M1490 126 c0 -2 7 -7 16 -10 8 -3 12 -2 9 4 -6 10 -25 14 -25 6z"/><path d="M1677 123 c-10 -10 -8 -23 4 -23 5 0 8 4 5 9 -4 5 0 12 6 14 7 3 8 6 2 6 -6 1 -14 -2 -17 -6z"/><path d="M1571 94 c0 -11 3 -14 6 -6 3 7 2 16 -1 19 -3 4 -6 -2 -5 -13z"/><path d="M890 71 c0 -17 2 -31 4 -31 8 0 13 51 5 56 -5 3 -9 -9 -9 -25z"/><path d="M1392 60 c0 -14 2 -19 5 -12 2 6 2 18 0 25 -3 6 -5 1 -5 -13z"/><path d="M1672 60 c0 -14 2 -19 5 -12 2 6 2 18 0 25 -3 6 -5 1 -5 -13z"/><path d="M837 49 c7 -7 15 -10 18 -7 3 3 -2 9 -12 12 -14 6 -15 5 -6 -5z"/><path d="M1720 49 c0 -5 9 -9 20 -9 11 0 20 2 20 4 0 2 -9 6 -20 9 -11 3 -20 1 -20 -4z"/><path d="M2737 49 c7 -7 15 -10 18 -7 3 3 -2 9 -12 12 -14 6 -15 5 -6 -5z"/><path d="M128 43 c7 -3 16 -2 19 1 4 3 -2 6 -13 5 -11 0 -14 -3 -6 -6z"/><path d="M778 43 c7 -3 16 -2 19 1 4 3 -2 6 -13 5 -11 0 -14 -3 -6 -6z"/><path d="M1798 43 c7 -3 16 -2 19 1 4 3 -2 6 -13 5 -11 0 -14 -3 -6 -6z"/><path d="M1908 43 c7 -3 16 -2 19 1 4 3 -2 6 -13 5 -11 0 -14 -3 -6 -6z"/><path d="M2653 43 c9 -2 25 -2 35 0 9 3 1 5 -18 5 -19 0 -27 -2 -17 -5z"/></g><g transform="translate(0.000000,150.000000) scale(0.100000,-0.100000)" fill="#FFFFFF" stroke="none"><path d="M17 1482 c-16 -17 -17 -82 -17 -734 0 -680 1 -716 18 -731 17 -16 128 -17 1389 -17 1314 0 1371 1 1386 18 16 17 17 82 17 734 0 680 -1 716 -18 731 -17 16 -128 17 -1389 17 -1314 0 -1371 -1 -1386 -18z m1093 -552 l0 -530 -517 0 c-309 0 -524 4 -533 10 -13 8 -15 77 -18 506 -2 435 -1 500 13 520 l15 24 520 0 520 0 0 -530z m1638 518 c9 -9 12 -138 12 -520 0 -491 -1 -508 -19 -518 -13 -7 -286 -10 -815 -10 l-796 0 0 523 c0 288 3 527 7 530 3 4 365 7 803 7 606 0 799 -3 808 -12z m-392 -1109 c28 -17 52 -19 218 -19 159 0 186 -2 186 -15 0 -8 -4 -15 -10 -15 -5 0 -10 -22 -10 -50 0 -38 -4 -50 -15 -50 -10 0 -15 10 -15 30 0 23 -4 30 -20 30 -11 0 -20 -4 -20 -10 0 -5 -9 -10 -20 -10 -23 0 -41 31 -22 38 25 8 10 22 -23 22 l-35 0 0 -50 c0 -38 -4 -50 -15 -50 -11 0 -15 12 -15 50 0 38 -4 50 -15 50 -10 0 -15 -10 -15 -30 0 -30 -11 -37 -44 -24 -20 8 -21 34 -1 34 8 0 15 5 15 10 0 6 -16 10 -35 10 l-35 0 0 -50 c0 -38 -4 -50 -15 -50 -10 0 -15 10 -15 30 0 23 -5 30 -19 30 -11 0 -21 -6 -24 -12 -3 -10 -9 -10 -23 -2 -35 20 -22 39 31 45 49 6 49 6 -17 7 l-68 2 0 -50 c0 -38 -4 -50 -15 -50 -11 0 -15 12 -15 50 0 38 -4 50 -15 50 -8 0 -15 7 -15 15 0 8 5 15 10 15 6 0 10 7 10 15 0 38 76 41 136 4z m-1767 1 c22 -15 48 -20 121 -22 64 -2 95 -7 98 -15 2 -7 -3 -13 -12 -13 -12 0 -16 -11 -16 -50 0 -38 -4 -50 -15 -50 -8 0 -15 7 -15 15 0 9 -6 12 -15 9 -24 -10 -64 5 -75 27 -10 17 -8 21 9 26 33 9 24 23 -14 23 l-35 0 0 -50 c0 -38 -4 -50 -15 -50 -11 0 -15 12 -15 50 0 47 -2 50 -25 50 -23 0 -25 -3 -25 -50 0 -38 -4 -50 -15 -50 -10 0 -15 11 -15 35 0 32 -2 35 -30 35 -36 0 -40 -22 -8 -44 20 -14 20 -16 3 -22 -23 -9 -57 30 -53 60 2 17 12 22 48 27 43 6 42 6 -17 7 -35 1 -63 -2 -63 -7 0 -5 -8 -17 -17 -27 -16 -16 -16 -18 6 -35 20 -17 21 -20 6 -25 -22 -9 -100 65 -85 80 7 7 16 7 29 -1 18 -12 31 -8 31 9 0 4 -22 8 -50 8 l-50 0 0 -50 c0 -38 -4 -50 -15 -50 -11 0 -15 12 -15 50 0 43 -3 50 -20 50 -17 0 -20 -7 -20 -50 0 -38 -4 -50 -15 -50 -9 0 -15 9 -15 25 0 18 -5 25 -19 25 -11 0 -21 -5 -23 -12 -6 -16 -37 -3 -45 19 -4 10 -11 21 -16 24 -6 4 -7 15 -3 24 4 13 14 16 37 13 16 -3 32 -1 35 4 3 4 86 8 184 8 169 0 180 1 190 20 14 26 54 26 89 0z m564 0 c23 -18 40 -20 191 -20 141 0 166 -2 166 -15 0 -8 -4 -15 -10 -15 -5 0 -10 -22 -10 -50 0 -38 -4 -50 -15 -50 -10 0 -15 10 -15 30 0 25 -4 30 -24 30 -13 0 -26 -6 -29 -12 -3 -10 -9 -10 -23 -2 -35 20 -22 39 31 45 49 6 49 6 -17 7 l-68 2 0 -50 c0 -38 -4 -50 -15 -50 -8 0 -15 5 -15 10 0 6 -13 10 -28 10 -48 0 -72 47 -34 69 14 8 10 10 -20 11 l-38 0 0 -50 c0 -38 -4 -50 -15 -50 -11 0 -15 12 -15 50 0 43 -3 50 -20 50 -17 0 -20 -7 -20 -50 0 -38 -4 -50 -15 -50 -10 0 -15 11 -15 35 0 24 -5 35 -15 35 -9 0 -15 -9 -15 -25 0 -55 -100 -33 -108 24 -5 30 7 26 39 -11 20 -24 30 -30 39 -22 8 8 7 14 -5 24 -24 20 -18 29 28 33 23 2 5 4 -40 5 -102 2 -113 22 -13 22 51 0 70 4 70 13 0 39 53 48 93 17z m640 0 c22 -18 40 -20 151 -20 105 0 126 -2 126 -15 0 -8 -7 -15 -15 -15 -11 0 -15 -12 -15 -50 0 -38 -4 -50 -15 -50 -11 0 -15 12 -15 50 0 38 -4 50 -15 50 -11 0 -15 -12 -15 -50 0 -38 -4 -50 -15 -50 -10 0 -15 10 -15 30 0 23 -4 30 -20 30 -11 0 -20 -4 -20 -10 0 -15 -36 -12 -50 5 -10 12 -9 16 4 21 26 10 18 24 -14 24 -29 0 -30 -1 -30 -50 0 -38 -4 -50 -15 -50 -11 0 -15 12 -15 50 0 43 -3 50 -20 50 -17 0 -20 -7 -20 -50 0 -38 -4 -50 -15 -50 -8 0 -15 5 -15 10 0 6 -13 10 -30 10 -34 0 -53 25 -39 52 13 24 66 24 72 1 4 -14 5 -12 6 5 1 20 -3 22 -55 22 -34 0 -53 4 -49 10 3 6 23 10 45 10 32 0 39 4 44 25 8 31 43 33 79 5z m-1723 -230 c0 -33 3 -40 20 -40 11 0 20 -7 20 -15 0 -10 -10 -15 -30 -15 -30 0 -30 1 -30 55 0 30 5 55 10 55 6 0 10 -18 10 -40z m80 -15 c0 -42 -3 -55 -15 -55 -12 0 -15 13 -15 55 0 42 3 55 15 55 12 0 15 -13 15 -55z m80 40 c0 -9 -10 -15 -22 -16 -13 0 -17 -3 -10 -6 14 -6 16 -33 2 -33 -5 0 -10 -9 -10 -21 0 -12 -5 -19 -12 -17 -8 3 -14 26 -16 56 l-3 52 35 0 c25 0 36 -4 36 -15z m80 0 c0 -9 -9 -15 -22 -16 -22 0 -22 -1 -3 -9 18 -7 19 -8 3 -15 -24 -10 -23 -25 2 -25 11 0 20 -7 20 -15 0 -10 -11 -15 -35 -15 l-35 0 0 55 0 55 35 0 c24 0 35 -5 35 -15z m80 -40 c0 -42 -3 -55 -15 -55 -12 0 -15 13 -15 55 0 42 3 55 15 55 12 0 15 -13 15 -55z m60 28 l14 -28 4 28 c6 46 27 25 30 -31 3 -45 1 -52 -16 -52 -11 0 -25 12 -32 28 l-14 27 -4 -27 c-6 -49 -22 -30 -22 27 0 62 17 74 40 28z m128 8 c4 -11 -2 -12 -23 -7 -17 4 -24 3 -20 -4 3 -5 13 -10 20 -10 23 0 36 -34 21 -55 -9 -13 -20 -16 -40 -11 -33 8 -29 32 5 28 23 -2 23 -2 -3 13 -27 15 -36 43 -21 59 12 11 56 2 61 -13z m42 -21 c0 -29 4 -40 15 -40 11 0 15 11 15 40 0 29 4 40 15 40 11 0 15 -12 15 -44 0 -51 -18 -71 -55 -62 -23 6 -25 11 -25 56 0 28 5 50 10 50 6 0 10 -18 10 -40z m146 0 c1 -56 4 -58 23 -10 10 25 25 45 32 45 15 0 46 -91 35 -102 -4 -5 -13 0 -20 10 -16 21 -36 22 -36 2 0 -23 -45 -18 -63 7 l-16 23 0 -22 c-1 -14 -7 -23 -16 -23 -12 0 -15 13 -15 56 l0 55 38 -3 c35 -3 37 -5 38 -38z m148 13 l15 -28 1 28 c0 17 5 27 15 27 12 0 15 -13 15 -55 0 -61 -15 -72 -43 -33 l-16 23 0 -22 c-1 -14 -7 -23 -16 -23 -12 0 -15 13 -15 55 0 63 19 74 44 28z m124 15 c20 -20 14 -31 -13 -24 -22 6 -25 3 -25 -20 0 -23 3 -25 26 -20 29 8 30 -10 1 -28 -25 -16 -51 5 -55 45 -5 47 37 76 66 47z m92 -3 c0 -9 -10 -15 -22 -16 -17 -1 -19 -2 -5 -6 21 -5 23 -23 2 -23 -8 0 -15 -4 -15 -10 0 -5 9 -10 20 -10 11 0 20 -7 20 -15 0 -10 -11 -15 -35 -15 l-35 0 0 55 0 55 35 0 c24 0 35 -5 35 -15z m114 9 c28 -11 19 -35 -9 -28 -22 5 -25 3 -25 -21 0 -24 3 -26 25 -21 28 7 33 -5 10 -24 -12 -10 -21 -10 -40 -2 -29 14 -34 61 -9 86 17 18 24 19 48 10z m107 -18 c25 -53 -25 -110 -66 -76 -18 15 -20 71 -3 88 21 21 57 14 69 -12z m94 -33 c0 -56 -14 -69 -33 -30 l-11 22 0 -22 c-1 -14 -7 -23 -16 -23 -12 0 -15 13 -15 56 l0 55 38 -3 37 -3 0 -52z m90 27 c0 -16 -8 -28 -22 -35 -12 -5 -24 -17 -26 -27 -11 -39 -27 -16 -27 38 l0 55 38 -3 c32 -3 37 -6 37 -28z m96 6 c25 -53 -25 -110 -66 -76 -18 15 -20 71 -3 88 21 21 57 14 69 -12z m87 15 c9 -6 11 -19 7 -45 -10 -52 10 -45 25 9 7 25 18 45 25 45 7 0 20 -21 29 -47 20 -57 20 -63 1 -63 -8 0 -15 7 -15 15 0 8 -7 15 -15 15 -8 0 -15 -7 -15 -15 0 -25 -55 -19 -68 8 l-11 22 0 -22 c-1 -14 -7 -23 -16 -23 -12 0 -15 13 -15 55 0 53 1 55 28 55 15 0 33 -4 40 -9z m172 -6 c0 -8 -7 -15 -15 -15 -11 0 -15 -11 -15 -40 0 -22 -4 -40 -10 -40 -5 0 -10 18 -10 40 0 29 -4 40 -15 40 -8 0 -15 7 -15 15 0 11 11 15 40 15 29 0 40 -4 40 -15z m40 -40 c0 -42 -3 -55 -15 -55 -12 0 -15 13 -15 55 0 42 3 55 15 55 12 0 15 -13 15 -55z m91 31 c25 -53 -25 -110 -66 -76 -18 15 -20 71 -3 88 21 21 57 14 69 -12z m63 -3 l15 -28 1 28 c0 17 5 27 15 27 12 0 15 -13 15 -55 0 -61 -15 -72 -43 -33 l-16 23 0 -22 c-1 -14 -7 -23 -16 -23 -12 0 -15 13 -15 55 0 63 19 74 44 28z m177 3 c25 -53 -25 -110 -66 -76 -18 15 -20 71 -3 88 21 21 57 14 69 -12z m89 9 c0 -9 -10 -15 -22 -16 -13 0 -17 -3 -10 -6 14 -6 16 -33 2 -33 -5 0 -10 -9 -10 -20 0 -11 -7 -20 -15 -20 -12 0 -15 13 -15 55 l0 55 35 0 c24 0 35 -5 35 -15z m80 -40 c0 -42 -3 -55 -15 -55 -12 0 -15 13 -15 55 0 42 3 55 15 55 12 0 15 -13 15 -55z m54 28 l15 -28 1 28 c0 17 5 27 15 27 12 0 15 -13 15 -55 0 -61 -15 -72 -43 -33 l-16 23 0 -22 c-1 -14 -7 -23 -16 -23 -12 0 -15 13 -15 55 0 63 19 74 44 28z m128 10 c38 -34 7 -93 -49 -93 -21 0 -23 5 -23 48 0 27 3 52 7 55 12 12 46 7 65 -10z m59 -30 l0 -48 17 45 c23 58 42 57 61 -2 15 -50 8 -75 -13 -45 -16 21 -36 22 -36 2 0 -10 -10 -15 -30 -15 -30 0 -30 1 -30 55 0 42 3 55 15 55 11 0 15 -12 16 -47z"/><path d="M725 1208 c-4 -11 3 -39 19 -74 17 -37 26 -72 25 -103 l-2 -46 -6 40 c-10 58 -62 185 -74 178 -5 -3 -5 -8 0 -12 8 -6 21 -47 44 -134 6 -25 6 -44 -1 -55 -8 -14 -9 -13 -10 9 0 33 -42 158 -48 141 -2 -6 1 -41 7 -78 11 -74 8 -85 -51 -178 -21 -33 -38 -65 -38 -73 0 -8 10 -27 22 -43 19 -26 28 -30 70 -30 48 0 57 7 37 27 -8 8 3 34 40 95 48 79 51 90 51 151 0 60 -35 186 -47 173 -3 -3 4 -30 16 -61 22 -59 28 -125 11 -125 -5 0 -10 18 -10 40 0 22 -7 57 -16 78 -9 20 -20 51 -24 67 -6 24 -9 27 -15 13z"/><path d="M397 1143 c-14 -37 -28 -86 -30 -108 -3 -36 -4 -35 -5 11 -1 28 5 68 13 87 8 20 15 44 15 54 -1 10 -12 -9 -26 -42 -39 -93 -32 -158 30 -260 42 -70 47 -83 38 -107 l-10 -28 53 0 c46 0 57 4 74 26 29 37 27 53 -17 115 -66 93 -70 113 -46 237 3 17 2 32 -2 32 -11 0 -44 -109 -44 -144 0 -14 -4 -28 -10 -31 -19 -12 -10 61 16 135 18 51 22 76 15 83 -8 8 -11 6 -11 -6 0 -10 -11 -44 -25 -77 -14 -33 -25 -76 -25 -97 0 -28 -3 -34 -10 -23 -13 20 -2 72 28 138 15 34 21 57 15 63 -6 6 -19 -16 -36 -58z"/><path d="M550 1141 c-10 -32 -11 -47 -2 -67 24 -51 49 14 28 74 l-12 34 -14 -41z"/><path d="M266 1134 c-9 -24 -6 -396 4 -419 5 -12 9 71 9 208 1 125 -1 227 -3 227 -2 0 -7 -7 -10 -16z"/><path d="M882 935 c-1 -99 -5 -191 -7 -205 l-6 -25 11 24 c6 15 9 94 7 205 l-2 181 -3 -180z"/><path d="M490 1022 c0 -4 7 -16 15 -26 15 -19 15 -19 15 1 0 11 -7 23 -15 27 -8 3 -15 2 -15 -2z"/><path d="M552 1022 c-19 -3 -23 -9 -20 -30 3 -23 8 -27 40 -30 29 -3 43 2 63 22 14 14 25 29 25 33 0 8 -65 11 -108 5z"/><path d="M755 710 c-3 -5 -1 -10 4 -10 6 0 11 5 11 10 0 6 -2 10 -4 10 -3 0 -8 -4 -11 -10z"/><path d="M800 710 c-12 -7 -10 -9 7 -7 12 0 19 5 17 9 -6 10 -6 10 -24 -2z"/><path d="M757 669 c4 -13 8 -18 11 -10 2 7 -1 18 -6 23 -8 8 -9 4 -5 -13z"/><path d="M565 640 c-3 -6 1 -7 9 -4 18 7 21 14 7 14 -6 0 -13 -4 -16 -10z"/><path d="M610 635 c0 -9 6 -12 15 -9 8 4 15 7 15 9 0 2 -7 5 -15 9 -9 3 -15 0 -15 -9z"/><path d="M2250 330 c0 -5 17 -10 38 -10 27 0 33 3 22 10 -20 13 -60 13 -60 0z"/><path d="M2670 280 c0 -5 9 -10 20 -10 11 0 20 5 20 10 0 6 -9 10 -20 10 -11 0 -20 -4 -20 -10z"/><path d="M530 325 c0 -9 9 -15 21 -15 18 0 19 2 9 15 -7 8 -16 15 -21 15 -5 0 -9 -7 -9 -15z"/><path d="M120 280 c0 -5 7 -10 15 -10 8 0 15 5 15 10 0 6 -7 10 -15 10 -8 0 -15 -4 -15 -10z"/><path d="M720 275 c0 -7 -8 -19 -17 -24 -15 -9 -12 -10 15 -11 28 0 32 3 32 25 0 16 -6 25 -15 25 -8 0 -15 -7 -15 -15z"/><path d="M1090 330 c0 -5 9 -10 21 -10 11 0 17 5 14 10 -3 6 -13 10 -21 10 -8 0 -14 -4 -14 -10z"/><path d="M1250 250 c0 -5 11 -10 25 -10 14 0 25 5 25 10 0 6 -11 10 -25 10 -14 0 -25 -4 -25 -10z"/><path d="M1740 330 c0 -5 7 -10 16 -10 8 0 12 5 9 10 -3 6 -10 10 -16 10 -5 0 -9 -4 -9 -10z"/><path d="M1920 280 c0 -5 9 -10 20 -10 11 0 20 5 20 10 0 6 -9 10 -20 10 -11 0 -20 -4 -20 -10z"/><path d="M1300 95 c0 -16 6 -25 15 -25 9 0 15 9 15 25 0 16 -6 25 -15 25 -9 0 -15 -9 -15 -25z"/><path d="M1580 96 c0 -17 5 -26 16 -26 10 0 14 7 12 22 -5 32 -28 35 -28 4z"/><path d="M1970 95 c0 -16 6 -25 15 -25 9 0 15 9 15 25 0 16 -6 25 -15 25 -9 0 -15 -9 -15 -25z"/><path d="M2210 95 c0 -16 6 -25 15 -25 9 0 15 9 15 25 0 16 -6 25 -15 25 -9 0 -15 -9 -15 -25z"/><path d="M2570 95 c0 -17 5 -25 13 -22 6 2 12 12 12 22 0 10 -6 20 -12 23 -8 2 -13 -6 -13 -23z"/></g></svg>