<svg version="1.0" xmlns="http://www.w3.org/2000/svg" width="300.000000" height="62.000000" viewBox="0 0 300.000000 62.000000" preserveAspectRatio="xMidYMid meet"><rect x="0" y="0" width="18" height="4" fill="rgb(254,254,254)" /><rect x="16" y="0" width="18" height="4" fill="rgb(254,254,254)" /><rect x="33" y="0" width="18" height="4" fill="rgb(254,254,254)" /><rect x="50" y="0" width="18" height="4" fill="rgb(254,254,254)" /><rect x="67" y="0" width="18" height="4" fill="rgb(254,254,254)" /><rect x="84" y="0" width="18" height="4" fill="rgb(254,254,254)" /><rect x="101" y="0" width="18" height="4" fill="rgb(254,254,254)" /><rect x="118" y="0" width="18" height="4" fill="rgb(254,254,254)" /><rect x="135" y="0" width="18" height="4" fill="rgb(254,254,254)" /><rect x="152" y="0" width="18" height="4" fill="rgb(254,254,254)" /><rect x="169" y="0" width="18" height="4" fill="rgb(254,254,254)" /><rect x="186" y="0" width="18" height="4" fill="rgb(254,254,254)" /><rect x="203" y="0" width="18" height="4" fill="rgb(254,254,254)" /><rect x="220" y="0" width="18" height="4" fill="rgb(254,254,254)" /><rect x="237" y="0" width="18" height="4" fill="rgb(254,254,254)" /><rect x="254" y="0" width="18" height="4" fill="rgb(254,254,254)" /><rect x="271" y="0" width="29" height="4" fill="rgb(254,254,254)" /><rect x="0" y="2" width="18" height="4" fill="rgb(254,254,254)" /><rect x="16" y="2" width="18" height="4" fill="rgb(244,243,244)" /><rect x="33" y="2" width="18" height="4" fill="rgb(254,254,254)" /><rect x="50" y="2" width="18" height="4" fill="rgb(254,254,254)" /><rect x="67" y="2" width="18" height="4" fill="rgb(254,253,253)" /><rect x="84" y="2" width="18" height="4" fill="rgb(254,253,253)" /><rect x="101" y="2" width="18" height="4" fill="rgb(253,248,248)" /><rect x="118" y="2" width="18" height="4" fill="rgb(253,248,248)" /><rect x="135" y="2" width="18" height="4" fill="rgb(254,254,254)" /><rect x="152" y="2" width="18" height="4" fill="rgb(254,253,253)" /><rect x="169" y="2" width="18" height="4" fill="rgb(254,254,254)" /><rect x="186" y="2" width="18" height="4" fill="rgb(254,254,254)" /><rect x="203" y="2" width="18" height="4" fill="rgb(254,254,254)" /><rect x="220" y="2" width="18" height="4" fill="rgb(254,254,254)" /><rect x="237" y="2" width="18" height="4" fill="rgb(254,254,254)" /><rect x="254" y="2" width="18" height="4" fill="rgb(254,254,254)" /><rect x="271" y="2" width="29" height="4" fill="rgb(254,254,254)" /><rect x="0" y="5" width="18" height="4" fill="rgb(246,244,246)" /><rect x="16" y="5" width="18" height="4" fill="rgb(224,219,223)" /><rect x="33" y="5" width="18" height="4" fill="rgb(249,248,249)" /><rect x="50" y="5" width="18" height="4" fill="rgb(242,181,187)" /><rect x="67" y="5" width="18" height="4" fill="rgb(233,122,132)" /><rect x="84" y="5" width="18" height="4" fill="rgb(235,138,146)" /><rect x="101" y="5" width="18" height="4" fill="rgb(233,124,134)" /><rect x="118" y="5" width="18" height="4" fill="rgb(228,96,109)" /><rect x="135" y="5" width="18" height="4" fill="rgb(236,144,154)" /><rect x="152" y="5" width="18" height="4" fill="rgb(239,163,170)" /><rect x="169" y="5" width="18" height="4" fill="rgb(254,251,251)" /><rect x="186" y="5" width="18" height="4" fill="rgb(254,254,254)" /><rect x="203" y="5" width="18" height="4" fill="rgb(254,254,254)" /><rect x="220" y="5" width="18" height="4" fill="rgb(254,254,254)" /><rect x="237" y="5" width="18" height="4" fill="rgb(254,254,254)" /><rect x="254" y="5" width="18" height="4" fill="rgb(248,219,221)" /><rect x="271" y="5" width="29" height="4" fill="rgb(252,240,241)" /><rect x="0" y="8" width="18" height="4" fill="rgb(244,242,243)" /><rect x="16" y="8" width="18" height="4" fill="rgb(250,229,230)" /><rect x="33" y="8" width="18" height="4" fill="rgb(245,243,244)" /><rect x="50" y="8" width="18" height="4" fill="rgb(237,146,155)" /><rect x="67" y="8" width="18" height="4" fill="rgb(226,78,93)" /><rect x="84" y="8" width="18" height="4" fill="rgb(227,83,97)" /><rect x="101" y="8" width="18" height="4" fill="rgb(222,54,71)" /><rect x="118" y="8" width="18" height="4" fill="rgb(223,60,78)" /><rect x="135" y="8" width="18" height="4" fill="rgb(228,91,106)" /><rect x="152" y="8" width="18" height="4" fill="rgb(233,127,136)" /><rect x="169" y="8" width="18" height="4" fill="rgb(251,235,237)" /><rect x="186" y="8" width="18" height="4" fill="rgb(254,254,254)" /><rect x="203" y="8" width="18" height="4" fill="rgb(254,254,254)" /><rect x="220" y="8" width="18" height="4" fill="rgb(254,254,254)" /><rect x="237" y="8" width="18" height="4" fill="rgb(254,254,254)" /><rect x="254" y="8" width="18" height="4" fill="rgb(244,195,198)" /><rect x="271" y="8" width="29" height="4" fill="rgb(252,245,245)" /><rect x="0" y="11" width="18" height="4" fill="rgb(248,246,246)" /><rect x="16" y="11" width="18" height="4" fill="rgb(243,198,202)" /><rect x="33" y="11" width="18" height="4" fill="rgb(248,246,246)" /><rect x="50" y="11" width="18" height="4" fill="rgb(235,132,144)" /><rect x="67" y="11" width="18" height="4" fill="rgb(226,76,91)" /><rect x="84" y="11" width="18" height="4" fill="rgb(225,74,89)" /><rect x="101" y="11" width="18" height="4" fill="rgb(237,145,153)" /><rect x="118" y="11" width="18" height="4" fill="rgb(232,114,127)" /><rect x="135" y="11" width="18" height="4" fill="rgb(232,119,131)" /><rect x="152" y="11" width="18" height="4" fill="rgb(242,181,185)" /><rect x="169" y="11" width="18" height="4" fill="rgb(241,174,179)" /><rect x="186" y="11" width="18" height="4" fill="rgb(245,197,201)" /><rect x="203" y="11" width="18" height="4" fill="rgb(237,149,156)" /><rect x="220" y="11" width="18" height="4" fill="rgb(243,186,190)" /><rect x="237" y="11" width="18" height="4" fill="rgb(233,128,135)" /><rect x="254" y="11" width="18" height="4" fill="rgb(233,123,131)" /><rect x="271" y="11" width="29" height="4" fill="rgb(240,169,175)" /><rect x="0" y="14" width="18" height="4" fill="rgb(248,247,247)" /><rect x="16" y="14" width="18" height="4" fill="rgb(233,205,208)" /><rect x="33" y="14" width="18" height="4" fill="rgb(247,246,247)" /><rect x="50" y="14" width="18" height="4" fill="rgb(232,115,128)" /><rect x="67" y="14" width="18" height="4" fill="rgb(224,65,82)" /><rect x="84" y="14" width="18" height="4" fill="rgb(225,72,88)" /><rect x="101" y="14" width="18" height="4" fill="rgb(234,129,138)" /><rect x="118" y="14" width="18" height="4" fill="rgb(228,87,102)" /><rect x="135" y="14" width="18" height="4" fill="rgb(233,125,137)" /><rect x="152" y="14" width="18" height="4" fill="rgb(246,204,207)" /><rect x="169" y="14" width="18" height="4" fill="rgb(235,137,145)" /><rect x="186" y="14" width="18" height="4" fill="rgb(240,171,176)" /><rect x="203" y="14" width="18" height="4" fill="rgb(227,87,100)" /><rect x="220" y="14" width="18" height="4" fill="rgb(234,130,138)" /><rect x="237" y="14" width="18" height="4" fill="rgb(229,105,115)" /><rect x="254" y="14" width="18" height="4" fill="rgb(228,96,106)" /><rect x="271" y="14" width="29" height="4" fill="rgb(233,126,134)" /><rect x="0" y="17" width="18" height="4" fill="rgb(247,246,247)" /><rect x="16" y="17" width="18" height="4" fill="rgb(226,186,191)" /><rect x="33" y="17" width="18" height="4" fill="rgb(247,247,248)" /><rect x="50" y="17" width="18" height="4" fill="rgb(230,104,118)" /><rect x="67" y="17" width="18" height="4" fill="rgb(223,60,78)" /><rect x="84" y="17" width="18" height="4" fill="rgb(225,71,87)" /><rect x="101" y="17" width="18" height="4" fill="rgb(233,120,131)" /><rect x="118" y="17" width="18" height="4" fill="rgb(224,64,81)" /><rect x="135" y="17" width="18" height="4" fill="rgb(234,127,138)" /><rect x="152" y="17" width="18" height="4" fill="rgb(246,206,209)" /><rect x="169" y="17" width="18" height="4" fill="rgb(238,156,162)" /><rect x="186" y="17" width="18" height="4" fill="rgb(236,144,151)" /><rect x="203" y="17" width="18" height="4" fill="rgb(232,118,127)" /><rect x="220" y="17" width="18" height="4" fill="rgb(231,109,118)" /><rect x="237" y="17" width="18" height="4" fill="rgb(237,149,156)" /><rect x="254" y="17" width="18" height="4" fill="rgb(233,128,136)" /><rect x="271" y="17" width="29" height="4" fill="rgb(232,125,133)" /><rect x="0" y="20" width="18" height="4" fill="rgb(248,248,248)" /><rect x="16" y="20" width="18" height="4" fill="rgb(205,140,150)" /><rect x="33" y="20" width="18" height="4" fill="rgb(248,248,248)" /><rect x="50" y="20" width="18" height="4" fill="rgb(231,109,121)" /><rect x="67" y="20" width="18" height="4" fill="rgb(225,71,88)" /><rect x="84" y="20" width="18" height="4" fill="rgb(224,64,81)" /><rect x="101" y="20" width="18" height="4" fill="rgb(235,136,145)" /><rect x="118" y="20" width="18" height="4" fill="rgb(224,67,84)" /><rect x="135" y="20" width="18" height="4" fill="rgb(235,135,144)" /><rect x="152" y="20" width="18" height="4" fill="rgb(240,169,175)" /><rect x="169" y="20" width="18" height="4" fill="rgb(237,152,158)" /><rect x="186" y="20" width="18" height="4" fill="rgb(233,128,136)" /><rect x="203" y="20" width="18" height="4" fill="rgb(232,118,127)" /><rect x="220" y="20" width="18" height="4" fill="rgb(233,124,134)" /><rect x="237" y="20" width="18" height="4" fill="rgb(232,120,129)" /><rect x="254" y="20" width="18" height="4" fill="rgb(235,135,142)" /><rect x="271" y="20" width="29" height="4" fill="rgb(235,138,146)" /><rect x="0" y="23" width="18" height="4" fill="rgb(247,243,244)" /><rect x="16" y="23" width="18" height="4" fill="rgb(198,109,122)" /><rect x="33" y="23" width="18" height="4" fill="rgb(247,246,247)" /><rect x="50" y="23" width="18" height="4" fill="rgb(232,118,130)" /><rect x="67" y="23" width="18" height="4" fill="rgb(227,85,99)" /><rect x="84" y="23" width="18" height="4" fill="rgb(223,62,79)" /><rect x="101" y="23" width="18" height="4" fill="rgb(222,54,71)" /><rect x="118" y="23" width="18" height="4" fill="rgb(221,43,62)" /><rect x="135" y="23" width="18" height="4" fill="rgb(233,119,131)" /><rect x="152" y="23" width="18" height="4" fill="rgb(233,123,132)" /><rect x="169" y="23" width="18" height="4" fill="rgb(235,139,147)" /><rect x="186" y="23" width="18" height="4" fill="rgb(237,153,160)" /><rect x="203" y="23" width="18" height="4" fill="rgb(230,106,116)" /><rect x="220" y="23" width="18" height="4" fill="rgb(235,135,143)" /><rect x="237" y="23" width="18" height="4" fill="rgb(232,121,130)" /><rect x="254" y="23" width="18" height="4" fill="rgb(234,130,138)" /><rect x="271" y="23" width="29" height="4" fill="rgb(237,152,159)" /><rect x="0" y="26" width="18" height="4" fill="rgb(246,232,233)" /><rect x="16" y="26" width="18" height="4" fill="rgb(203,97,110)" /><rect x="33" y="26" width="18" height="4" fill="rgb(248,246,247)" /><rect x="50" y="26" width="18" height="4" fill="rgb(238,157,164)" /><rect x="67" y="26" width="18" height="4" fill="rgb(234,133,142)" /><rect x="84" y="26" width="18" height="4" fill="rgb(232,119,130)" /><rect x="101" y="26" width="18" height="4" fill="rgb(230,102,114)" /><rect x="118" y="26" width="18" height="4" fill="rgb(229,102,114)" /><rect x="135" y="26" width="18" height="4" fill="rgb(241,172,178)" /><rect x="152" y="26" width="18" height="4" fill="rgb(238,156,163)" /><rect x="169" y="26" width="18" height="4" fill="rgb(240,164,171)" /><rect x="186" y="26" width="18" height="4" fill="rgb(239,165,171)" /><rect x="203" y="26" width="18" height="4" fill="rgb(234,134,142)" /><rect x="220" y="26" width="18" height="4" fill="rgb(235,141,148)" /><rect x="237" y="26" width="18" height="4" fill="rgb(234,133,141)" /><rect x="254" y="26" width="18" height="4" fill="rgb(236,144,151)" /><rect x="271" y="26" width="29" height="4" fill="rgb(241,175,180)" /><rect x="0" y="29" width="18" height="4" fill="rgb(247,241,242)" /><rect x="16" y="29" width="18" height="4" fill="rgb(211,105,119)" /><rect x="33" y="29" width="18" height="4" fill="rgb(247,245,246)" /><rect x="50" y="29" width="18" height="4" fill="rgb(254,254,254)" /><rect x="67" y="29" width="18" height="4" fill="rgb(254,254,254)" /><rect x="84" y="29" width="18" height="4" fill="rgb(254,251,251)" /><rect x="101" y="29" width="18" height="4" fill="rgb(253,244,244)" /><rect x="118" y="29" width="18" height="4" fill="rgb(254,250,250)" /><rect x="135" y="29" width="18" height="4" fill="rgb(254,254,254)" /><rect x="152" y="29" width="18" height="4" fill="rgb(253,250,249)" /><rect x="169" y="29" width="18" height="4" fill="rgb(254,250,250)" /><rect x="186" y="29" width="18" height="4" fill="rgb(254,250,250)" /><rect x="203" y="29" width="18" height="4" fill="rgb(246,206,209)" /><rect x="220" y="29" width="18" height="4" fill="rgb(253,249,249)" /><rect x="237" y="29" width="18" height="4" fill="rgb(253,250,250)" /><rect x="254" y="29" width="18" height="4" fill="rgb(253,248,248)" /><rect x="271" y="29" width="29" height="4" fill="rgb(253,251,251)" /><rect x="0" y="32" width="18" height="4" fill="rgb(238,202,207)" /><rect x="16" y="32" width="18" height="4" fill="rgb(206,50,68)" /><rect x="33" y="32" width="18" height="4" fill="rgb(244,225,228)" /><rect x="50" y="32" width="18" height="4" fill="rgb(243,185,188)" /><rect x="67" y="32" width="18" height="4" fill="rgb(254,253,253)" /><rect x="84" y="32" width="18" height="4" fill="rgb(254,254,254)" /><rect x="101" y="32" width="18" height="4" fill="rgb(248,216,219)" /><rect x="118" y="32" width="18" height="4" fill="rgb(250,231,232)" /><rect x="135" y="32" width="18" height="4" fill="rgb(253,248,248)" /><rect x="152" y="32" width="18" height="4" fill="rgb(250,230,232)" /><rect x="169" y="32" width="18" height="4" fill="rgb(254,254,254)" /><rect x="186" y="32" width="18" height="4" fill="rgb(254,254,254)" /><rect x="203" y="32" width="18" height="4" fill="rgb(248,216,219)" /><rect x="220" y="32" width="18" height="4" fill="rgb(254,254,254)" /><rect x="237" y="32" width="18" height="4" fill="rgb(254,254,254)" /><rect x="254" y="32" width="18" height="4" fill="rgb(254,254,254)" /><rect x="271" y="32" width="29" height="4" fill="rgb(254,254,254)" /><rect x="0" y="35" width="18" height="4" fill="rgb(224,196,202)" /><rect x="16" y="35" width="18" height="4" fill="rgb(185,103,121)" /><rect x="33" y="35" width="18" height="4" fill="rgb(233,219,222)" /><rect x="50" y="35" width="18" height="4" fill="rgb(223,63,79)" /><rect x="67" y="35" width="18" height="4" fill="rgb(251,231,233)" /><rect x="84" y="35" width="18" height="4" fill="rgb(254,254,254)" /><rect x="101" y="35" width="18" height="4" fill="rgb(242,177,183)" /><rect x="118" y="35" width="18" height="4" fill="rgb(246,204,207)" /><rect x="135" y="35" width="18" height="4" fill="rgb(248,216,219)" /><rect x="152" y="35" width="18" height="4" fill="rgb(247,208,211)" /><rect x="169" y="35" width="18" height="4" fill="rgb(254,254,254)" /><rect x="186" y="35" width="18" height="4" fill="rgb(254,254,254)" /><rect x="203" y="35" width="18" height="4" fill="rgb(254,250,250)" /><rect x="220" y="35" width="18" height="4" fill="rgb(254,254,254)" /><rect x="237" y="35" width="18" height="4" fill="rgb(254,254,254)" /><rect x="254" y="35" width="18" height="4" fill="rgb(254,254,254)" /><rect x="271" y="35" width="29" height="4" fill="rgb(254,254,254)" /><rect x="0" y="38" width="18" height="4" fill="rgb(221,215,219)" /><rect x="16" y="38" width="18" height="4" fill="rgb(199,189,195)" /><rect x="33" y="38" width="18" height="4" fill="rgb(221,217,221)" /><rect x="50" y="38" width="18" height="4" fill="rgb(226,79,95)" /><rect x="67" y="38" width="18" height="4" fill="rgb(238,154,162)" /><rect x="84" y="38" width="18" height="4" fill="rgb(242,181,185)" /><rect x="101" y="38" width="18" height="4" fill="rgb(237,147,155)" /><rect x="118" y="38" width="18" height="4" fill="rgb(242,180,184)" /><rect x="135" y="38" width="18" height="4" fill="rgb(243,187,192)" /><rect x="152" y="38" width="18" height="4" fill="rgb(241,174,180)" /><rect x="169" y="38" width="18" height="4" fill="rgb(254,254,254)" /><rect x="186" y="38" width="18" height="4" fill="rgb(254,254,254)" /><rect x="203" y="38" width="18" height="4" fill="rgb(254,254,254)" /><rect x="220" y="38" width="18" height="4" fill="rgb(254,254,254)" /><rect x="237" y="38" width="18" height="4" fill="rgb(254,254,254)" /><rect x="254" y="38" width="18" height="4" fill="rgb(254,254,254)" /><rect x="271" y="38" width="29" height="4" fill="rgb(254,254,254)" /><rect x="0" y="41" width="18" height="4" fill="rgb(232,227,229)" /><rect x="16" y="41" width="18" height="4" fill="rgb(199,187,192)" /><rect x="33" y="41" width="18" height="4" fill="rgb(239,234,236)" /><rect x="50" y="41" width="18" height="4" fill="rgb(225,73,88)" /><rect x="67" y="41" width="18" height="4" fill="rgb(225,75,89)" /><rect x="84" y="41" width="18" height="4" fill="rgb(223,60,76)" /><rect x="101" y="41" width="18" height="4" fill="rgb(226,78,91)" /><rect x="118" y="41" width="18" height="4" fill="rgb(241,173,179)" /><rect x="135" y="41" width="18" height="4" fill="rgb(240,166,173)" /><rect x="152" y="41" width="18" height="4" fill="rgb(232,117,127)" /><rect x="169" y="41" width="18" height="4" fill="rgb(254,254,254)" /><rect x="186" y="41" width="18" height="4" fill="rgb(254,254,254)" /><rect x="203" y="41" width="18" height="4" fill="rgb(254,254,254)" /><rect x="220" y="41" width="18" height="4" fill="rgb(254,254,254)" /><rect x="237" y="41" width="18" height="4" fill="rgb(254,254,254)" /><rect x="254" y="41" width="18" height="4" fill="rgb(254,254,254)" /><rect x="271" y="41" width="29" height="4" fill="rgb(254,254,254)" /><rect x="0" y="44" width="18" height="4" fill="rgb(238,235,236)" /><rect x="16" y="44" width="18" height="4" fill="rgb(218,207,210)" /><rect x="33" y="44" width="18" height="4" fill="rgb(241,237,239)" /><rect x="50" y="44" width="18" height="4" fill="rgb(224,63,80)" /><rect x="67" y="44" width="18" height="4" fill="rgb(235,133,142)" /><rect x="84" y="44" width="18" height="4" fill="rgb(225,74,89)" /><rect x="101" y="44" width="18" height="4" fill="rgb(224,67,84)" /><rect x="118" y="44" width="18" height="4" fill="rgb(246,202,206)" /><rect x="135" y="44" width="18" height="4" fill="rgb(244,196,199)" /><rect x="152" y="44" width="18" height="4" fill="rgb(238,153,160)" /><rect x="169" y="44" width="18" height="4" fill="rgb(254,254,254)" /><rect x="186" y="44" width="18" height="4" fill="rgb(254,254,254)" /><rect x="203" y="44" width="18" height="4" fill="rgb(254,254,254)" /><rect x="220" y="44" width="18" height="4" fill="rgb(254,254,254)" /><rect x="237" y="44" width="18" height="4" fill="rgb(254,254,254)" /><rect x="254" y="44" width="18" height="4" fill="rgb(254,254,254)" /><rect x="271" y="44" width="29" height="4" fill="rgb(254,254,254)" /><rect x="0" y="47" width="18" height="15" fill="rgb(250,244,244)" /><rect x="16" y="47" width="18" height="15" fill="rgb(243,225,226)" /><rect x="33" y="47" width="18" height="15" fill="rgb(251,247,247)" /><rect x="50" y="47" width="18" height="15" fill="rgb(232,117,129)" /><rect x="67" y="47" width="18" height="15" fill="rgb(234,131,140)" /><rect x="84" y="47" width="18" height="15" fill="rgb(236,146,154)" /><rect x="101" y="47" width="18" height="15" fill="rgb(235,135,145)" /><rect x="118" y="47" width="18" height="15" fill="rgb(245,195,199)" /><rect x="135" y="47" width="18" height="15" fill="rgb(242,179,184)" /><rect x="152" y="47" width="18" height="15" fill="rgb(240,167,172)" /><rect x="169" y="47" width="18" height="15" fill="rgb(249,220,222)" /><rect x="186" y="47" width="18" height="15" fill="rgb(248,216,218)" /><rect x="203" y="47" width="18" height="15" fill="rgb(247,209,211)" /><rect x="220" y="47" width="18" height="15" fill="rgb(248,217,219)" /><rect x="237" y="47" width="18" height="15" fill="rgb(247,212,214)" /><rect x="254" y="47" width="18" height="15" fill="rgb(248,215,217)" /><rect x="271" y="47" width="29" height="15" fill="rgb(248,216,218)" /><g transform="translate(0.000000,62.000000) scale(0.100000,-0.100000)" fill="#D80013" stroke="none"><path d="M585 535 c-6 -27 -35 -190 -35 -196 0 -2 11 -4 25 -4 20 0 25 6 31 38 3 21 3 41 0 44 -3 4 -6 -3 -6 -15 0 -32 -11 -52 -27 -52 -9 0 -13 6 -10 14 3 8 11 51 18 95 11 73 15 81 35 81 19 0 23 -7 30 -52 4 -29 9 -46 11 -38 2 8 0 35 -5 59 -6 39 -10 44 -35 45 -20 1 -29 -4 -32 -19z"/><path d="M689 502 c-6 -30 -8 -56 -6 -59 3 -3 9 16 12 41 7 44 20 65 32 53 5 -5 -12 -130 -23 -169 -3 -10 -14 -18 -25 -18 -14 0 -20 9 -25 40 -4 23 -9 39 -11 36 -3 -3 -2 -22 2 -44 5 -34 10 -41 36 -44 16 -3 29 -2 29 1 0 11 31 186 35 201 3 10 -3 15 -20 15 -22 0 -26 -6 -36 -53z"/><path d="M775 455 c-10 -55 -19 -104 -21 -110 -3 -5 10 -10 26 -10 33 0 47 24 37 62 -3 10 -5 4 -6 -14 -1 -27 -5 -33 -22 -33 -20 0 -21 4 -14 48 16 108 26 142 44 142 14 0 17 -7 15 -32 -3 -30 -3 -31 5 -8 16 45 13 55 -18 55 -29 0 -29 0 -46 -100z"/><path d="M887 535 c-5 -11 -17 -31 -26 -45 -10 -15 -11 -21 -3 -16 6 4 19 20 27 37 9 16 22 29 30 29 20 0 19 -4 -10 -48 -24 -36 -24 -39 -11 -90 l14 -52 -24 0 c-20 0 -24 5 -25 33 -1 18 -3 24 -6 14 -10 -38 4 -62 37 -62 16 0 30 2 30 5 0 3 -7 29 -15 59 -14 53 -14 54 14 95 15 23 30 46 33 51 4 6 -7 10 -24 10 -20 0 -34 -7 -41 -20z"/><path d="M1001 544 c-51 -36 -70 -155 -31 -194 31 -31 85 -27 121 9 16 16 29 38 29 49 0 11 3 28 6 37 6 14 0 16 -37 13 -32 -2 -45 -8 -47 -20 -2 -10 1 -18 7 -18 6 0 10 6 9 13 -2 7 9 13 26 15 28 4 29 3 23 -35 -11 -65 -73 -94 -126 -57 -21 15 -23 22 -18 74 3 32 13 69 22 83 18 28 68 44 105 32 34 -11 17 -30 -24 -27 -34 3 -38 0 -51 -32 -20 -48 -20 -105 1 -113 19 -7 46 7 51 28 3 8 0 7 -7 -3 -6 -10 -20 -18 -30 -18 -16 0 -20 7 -20 34 0 18 5 47 11 64 10 28 14 30 54 29 54 -2 67 9 36 34 -29 23 -79 25 -110 3z"/><path d="M1182 544 c-31 -22 -30 -73 3 -104 14 -13 25 -32 25 -43 0 -16 -6 -19 -35 -15 -28 3 -36 0 -41 -15 -4 -11 0 -23 7 -29 22 -14 101 -2 116 18 22 30 16 78 -13 105 -15 14 -23 31 -21 41 3 10 1 16 -4 12 -15 -9 -10 -24 16 -56 50 -59 18 -123 -57 -116 -42 4 -39 21 4 28 43 6 48 37 14 78 -15 16 -26 39 -26 50 0 26 36 52 72 52 31 0 47 -18 27 -31 -11 -7 -11 -9 -1 -9 19 0 27 31 11 41 -22 14 -72 10 -97 -7z"/><path d="M1659 547 c14 -6 27 -19 29 -27 4 -12 2 -12 -14 1 -34 29 -59 31 -81 7 -42 -47 -56 -136 -27 -176 24 -35 81 -25 104 18 17 32 1 44 -22 15 -25 -32 -56 -32 -67 -1 -12 29 4 104 26 128 22 24 54 23 60 -2 6 -23 26 -22 31 2 4 19 -24 48 -46 48 -12 0 -10 -4 7 -13z m-39 -11 c0 -2 -8 -10 -17 -17 -16 -13 -17 -12 -4 4 13 16 21 21 21 13z m-8 -181 c15 1 24 -3 22 -7 -16 -25 -74 7 -74 40 0 12 4 9 13 -8 9 -17 21 -25 39 -25z"/><path d="M1326 533 c-2 -10 -10 -52 -16 -93 -6 -41 -13 -82 -16 -90 -3 -13 8 -14 66 -12 61 3 73 7 86 27 18 28 15 67 -6 73 -12 4 -13 2 -2 -9 17 -18 15 -44 -4 -63 -10 -11 -34 -16 -70 -16 -62 0 -61 -3 -41 115 l12 70 60 0 c56 0 60 -2 63 -24 3 -15 -3 -30 -14 -38 -10 -7 -13 -13 -8 -13 32 0 48 73 18 84 -9 3 -40 6 -69 6 -43 0 -55 -4 -59 -17z"/><path d="M2700 534 c0 -17 22 -14 28 4 2 7 -3 12 -12 12 -9 0 -16 -7 -16 -16z"/><path d="M2627 533 c-4 -3 -7 -15 -7 -25 0 -10 -4 -18 -9 -18 -5 0 -8 -17 -8 -37 1 -21 -2 -55 -7 -76 -5 -30 -4 -39 9 -43 18 -7 43 11 31 23 -4 4 -11 1 -15 -6 -6 -9 -11 -10 -15 -2 -4 6 -3 11 2 11 15 0 24 93 10 101 -10 7 -10 11 0 21 9 9 15 8 27 -8 13 -17 14 -17 15 -1 0 9 -5 17 -11 17 -7 0 -9 10 -7 25 5 24 -2 32 -15 18z"/><path d="M1401 510 c24 -20 24 -20 5 -35 -11 -8 -15 -15 -10 -15 12 0 34 21 34 31 0 11 -30 39 -42 39 -6 0 0 -9 13 -20z"/><path d="M1366 495 c-9 -26 -7 -32 5 -12 6 10 9 21 6 23 -2 3 -7 -2 -11 -11z"/><path d="M1740 463 c-26 -34 -25 -110 3 -127 46 -29 115 70 89 128 -16 36 -63 36 -92 -1z m65 -7 c14 -21 14 -28 1 -59 -8 -20 -12 -38 -9 -41 3 -3 -8 -1 -26 4 -36 10 -42 4 -8 -10 l22 -9 -22 0 c-30 -1 -33 7 -22 59 6 25 10 50 11 57 1 7 5 10 9 7 4 -2 10 0 14 6 9 15 13 13 30 -14z m19 8 c5 -14 4 -15 -9 -4 -17 14 -19 20 -6 20 5 0 12 -7 15 -16z"/><path d="M1971 469 c-21 -23 -35 -80 -26 -109 7 -22 37 -34 65 -25 37 12 62 91 44 139 -9 23 -60 20 -83 -5z m71 -24 c-5 -54 -22 -85 -48 -85 -24 0 -29 11 -24 55 1 11 8 27 16 36 8 9 12 18 9 20 -2 3 8 5 23 4 24 0 27 -4 24 -30z m-54 -96 c11 0 12 -2 4 -6 -15 -6 -42 14 -42 31 0 6 5 3 11 -6 5 -10 18 -18 27 -19z"/><path d="M2025 460 c3 -5 8 -10 11 -10 2 0 4 5 4 10 0 6 -5 10 -11 10 -5 0 -7 -4 -4 -10z"/><path d="M2104 453 c-4 -21 -12 -69 -20 -108 -7 -38 -10 -72 -8 -75 11 -10 24 27 24 70 0 43 1 44 13 20 16 -33 40 -36 65 -9 23 24 37 87 27 119 -8 25 -41 26 -68 3 -19 -17 -20 -17 -14 0 4 9 2 17 -3 17 -5 0 -12 -17 -16 -37z m90 19 c7 -12 -14 -83 -31 -103 -7 -9 -10 -19 -6 -24 5 -4 -2 -1 -14 6 -16 10 -23 23 -23 46 0 17 -3 40 -6 50 -5 15 -4 15 5 3 6 -8 11 -10 11 -4 0 6 10 16 23 22 28 13 35 14 41 4z"/><path d="M2254 465 c-9 -13 -18 -42 -21 -65 -9 -66 30 -91 78 -50 18 14 20 19 9 20 -9 0 -21 -5 -28 -12 -8 -8 -15 -8 -25 0 -8 7 -16 10 -18 8 -2 -2 -4 9 -5 24 -1 31 0 31 79 15 13 -2 17 4 17 25 0 46 -10 60 -41 60 -19 0 -34 -8 -45 -25z m71 -13 c-2 -9 -4 -20 -4 -24 -1 -5 -15 -8 -32 -8 -23 0 -30 4 -27 17 3 18 46 45 59 37 4 -2 6 -12 4 -22z m-60 -102 c3 -5 1 -10 -4 -10 -6 0 -11 5 -11 10 0 6 2 10 4 10 3 0 8 -4 11 -10z"/><path d="M2386 468 c-20 -94 -26 -132 -21 -137 10 -10 26 23 22 47 -2 12 -1 22 3 22 4 0 10 14 14 30 4 21 11 30 25 30 10 0 21 7 25 15 9 25 -21 17 -43 -11 -13 -16 -21 -21 -21 -12 0 8 5 19 12 26 9 9 9 12 0 12 -6 0 -14 -10 -16 -22z"/><path d="M2480 470 c-10 -20 3 -30 14 -11 3 5 16 11 28 13 20 4 23 0 22 -26 -1 -17 -3 -33 -4 -36 -6 -11 -7 -80 -1 -80 8 0 31 142 25 152 -3 5 -21 8 -39 8 -24 0 -38 -6 -45 -20z"/><path d="M2681 414 c-11 -66 -10 -97 3 -83 2 2 11 39 18 82 11 56 12 77 3 77 -6 0 -17 -33 -24 -76z"/><path d="M2755 418 c6 -66 17 -99 29 -87 13 13 73 159 66 159 -12 0 -46 -66 -55 -107 -3 -18 -11 -33 -17 -33 -6 0 -8 12 -4 31 7 38 -3 109 -16 109 -6 0 -7 -27 -3 -72z"/><path d="M2895 470 c-22 -25 -32 -104 -15 -125 7 -8 21 -15 31 -15 22 0 51 28 43 41 -3 6 -11 3 -19 -7 -17 -24 -41 -12 -48 26 -5 24 -2 36 16 54 35 37 52 38 54 5 2 -26 -1 -29 -30 -30 l-32 -2 35 -6 c43 -8 60 14 42 54 -14 31 -51 33 -77 5z"/><path d="M1389 432 c8 -6 12 -20 9 -37 -4 -17 -2 -23 4 -17 14 14 6 55 -12 59 -12 4 -13 3 -1 -5z"/><path d="M1354 401 c0 -21 7 -36 16 -38 10 -3 11 -2 3 4 -6 4 -13 22 -16 38 -4 27 -5 27 -3 -4z"/><path d="M1870 415 c0 -9 9 -15 24 -15 13 0 26 7 30 15 4 11 -2 15 -24 15 -20 0 -30 -5 -30 -15z m37 -1 c-3 -3 -12 -4 -19 -1 -8 3 -5 6 6 6 11 1 17 -2 13 -5z"/><path d="M2503 423 c-43 -8 -71 -77 -37 -90 16 -6 64 15 64 28 0 4 -12 2 -27 -6 -28 -15 -43 -12 -43 8 0 7 4 6 11 -3 9 -13 10 -12 5 2 -6 19 18 48 39 48 8 0 17 5 20 10 3 6 3 9 -2 9 -4 -1 -18 -4 -30 -6z"/><path d="M1635 270 c-4 -6 -6 -36 -6 -68 l-1 -57 -13 33 c-30 70 -98 17 -93 -72 3 -44 6 -51 26 -54 12 -2 29 3 37 12 19 19 20 32 0 16 -24 -20 -45 -4 -45 34 0 42 30 82 54 73 15 -6 17 -17 13 -72 -3 -36 -1 -65 3 -65 4 0 15 44 25 97 9 54 19 106 21 116 6 18 -11 24 -21 7z m-65 -74 c0 -2 -8 -10 -17 -17 -16 -13 -17 -12 -4 4 13 16 21 21 21 13z m-25 -126 c3 -5 1 -10 -4 -10 -6 0 -11 5 -11 10 0 6 2 10 4 10 3 0 8 -4 11 -10z"/><path d="M531 183 c-6 -49 -15 -99 -18 -112 -6 -23 -5 -23 62 -19 56 3 71 8 87 28 24 30 20 58 -12 78 l-25 16 23 -23 c25 -25 27 -40 8 -66 -10 -14 -30 -20 -76 -23 -57 -4 -62 -3 -57 14 3 11 11 56 18 102 l12 82 52 0 c28 0 56 -5 63 -12 17 -17 15 -45 -5 -57 -10 -6 -13 -11 -7 -11 17 0 34 23 34 47 0 30 -28 43 -92 43 l-54 0 -13 -87z"/><path d="M1064 160 l-20 -110 20 0 c14 1 27 13 38 38 17 36 17 37 -2 14 -10 -12 -20 -28 -23 -35 -2 -6 -8 -9 -12 -5 -12 11 27 198 42 198 7 0 11 -6 9 -12 -10 -32 -15 -82 -7 -68 5 8 11 32 15 53 6 34 5 37 -16 37 -21 0 -24 -8 -44 -110z"/><path d="M1314 235 c-3 -19 -4 -42 0 -50 4 -10 2 -14 -6 -9 -7 5 -9 -1 -6 -19 3 -15 2 -28 -2 -29 -4 -2 -10 -20 -13 -41 l-6 -37 60 0 c46 0 59 3 59 15 0 11 -11 15 -42 14 l-43 -2 35 -7 c34 -7 33 -7 -14 -9 -42 -1 -47 1 -36 14 7 8 10 22 6 30 -3 9 -2 14 2 11 5 -3 15 31 24 75 12 63 12 79 2 79 -7 0 -16 -16 -20 -35z"/><path d="M1470 238 c-7 -16 -16 -28 -19 -28 -3 0 -7 -36 -8 -80 -2 -74 -1 -80 17 -80 11 0 20 5 20 11 0 6 -7 8 -16 5 -12 -5 -15 -2 -9 11 3 10 10 37 14 61 7 33 5 42 -5 42 -19 0 -17 10 7 36 12 12 19 29 16 36 -3 8 -9 3 -17 -14z"/><path d="M592 228 c-17 -17 -15 -47 3 -54 21 -9 47 15 43 40 -4 24 -28 32 -46 14z m36 -20 c-4 -29 -38 -38 -38 -10 0 22 8 32 27 32 9 0 13 -8 11 -22z"/><path d="M730 190 c-9 -17 -8 -20 14 -20 14 0 27 4 30 9 4 5 -4 7 -16 3 -14 -3 -19 -2 -14 6 12 19 44 14 60 -10 9 -12 16 -18 16 -12 0 5 -5 15 -12 22 -9 9 -7 12 10 12 18 0 22 -6 22 -32 0 -63 -12 -109 -26 -104 -8 3 -14 1 -14 -4 0 -6 8 -10 18 -10 15 0 20 12 28 62 14 94 12 98 -51 98 -44 0 -56 -4 -65 -20z"/><path d="M891 148 c-7 -35 -14 -71 -17 -80 -4 -14 1 -18 19 -18 21 0 25 6 33 51 8 49 34 83 50 67 3 -4 2 -32 -3 -62 -10 -54 -9 -56 12 -56 19 0 23 8 34 70 7 38 10 74 6 80 -7 12 -65 14 -65 1 0 -4 11 -6 24 -4 34 7 39 -8 25 -77 -15 -76 -34 -80 -24 -5 5 46 4 56 -10 61 -25 10 -52 -23 -60 -72 -3 -24 -10 -44 -16 -44 -23 0 5 137 29 143 13 4 12 5 -4 6 -18 1 -23 -8 -33 -61z"/><path d="M1144 188 c-19 -23 -19 -23 2 -5 31 26 51 22 28 -5 -17 -21 -16 -21 9 1 33 30 33 31 4 31 -13 0 -32 -10 -43 -22z"/><path d="M1485 201 c-3 -5 -1 -12 4 -15 5 -3 11 1 15 9 6 16 -9 21 -19 6z"/><path d="M603 149 c9 -5 17 -18 18 -27 0 -11 2 -12 6 -4 6 15 -14 42 -31 42 -6 0 -3 -5 7 -11z"/><path d="M572 130 c0 -14 2 -19 5 -12 2 6 2 18 0 25 -3 6 -5 1 -5 -13z"/><path d="M754 143 c-59 -11 -72 -93 -16 -93 30 0 72 36 71 61 0 8 -5 4 -11 -8 -12 -26 -48 -31 -48 -8 0 8 14 21 30 30 45 24 36 30 -26 18z m-6 -32 c-9 -15 -9 -23 2 -36 13 -15 11 -17 -10 -13 -30 4 -37 30 -15 52 23 22 38 20 23 -3z"/><path d="M1165 125 c3 -16 8 -38 11 -47 3 -12 0 -18 -9 -18 -8 0 -18 12 -21 26 -9 34 -16 27 -9 -8 4 -22 11 -28 30 -28 23 0 24 3 17 33 -9 45 -26 83 -19 42z"/><path d="M595 90 c-16 -7 -17 -9 -3 -9 9 -1 20 4 23 9 7 11 7 11 -20 0z"/><path d="M1660 65 c0 -8 7 -15 15 -15 8 0 15 7 15 15 0 8 -7 15 -15 15 -8 0 -15 -7 -15 -15z"/></g><g transform="translate(0.000000,62.000000) scale(0.100000,-0.100000)" fill="#DF0C26" stroke="none"><path d="M608 553 c7 -3 16 -2 19 1 4 3 -2 6 -13 5 -11 0 -14 -3 -6 -6z"/><path d="M718 553 c7 -3 16 -2 19 1 4 3 -2 6 -13 5 -11 0 -14 -3 -6 -6z"/><path d="M808 553 c6 -2 18 -2 25 0 6 3 1 5 -13 5 -14 0 -19 -2 -12 -5z"/><path d="M918 553 c6 -2 18 -2 25 0 6 3 1 5 -13 5 -14 0 -19 -2 -12 -5z"/><path d="M1050 549 c-64 -13 -90 -54 -90 -145 0 -38 29 -64 71 -64 39 0 69 29 76 73 6 38 5 39 -23 35 -20 -2 -28 -8 -25 -18 7 -32 5 -43 -10 -53 -29 -19 -49 -1 -49 43 0 23 4 39 9 36 5 -4 7 2 5 11 -3 10 1 27 9 38 13 16 19 18 49 9 30 -10 34 -9 35 8 1 10 -3 18 -8 18 -6 0 -7 5 -4 10 3 6 5 10 3 9 -2 -1 -23 -5 -48 -10z"/><path d="M1238 551 c-72 -14 -87 -51 -42 -103 34 -42 29 -72 -15 -78 -53 -8 -49 -35 4 -35 24 0 41 3 39 6 -4 7 25 23 37 21 15 -3 -11 81 -31 103 -28 30 -22 47 18 50 20 2 29 -1 25 -8 -3 -6 -1 -7 5 -3 8 5 9 13 2 25 -5 10 -6 21 -3 25 3 3 4 5 2 5 -2 -1 -21 -5 -41 -8z"/><path d="M1358 553 c12 -2 32 -2 45 0 12 2 2 4 -23 4 -25 0 -35 -2 -22 -4z"/><path d="M589 512 c2 -20 -1 -32 -6 -29 -5 3 -7 -10 -5 -30 3 -21 1 -33 -5 -30 -5 3 -7 -7 -5 -25 3 -21 1 -29 -7 -24 -7 5 -9 1 -5 -8 7 -18 34 -22 34 -5 0 5 4 8 8 5 5 -3 6 8 4 25 -2 16 0 29 6 29 6 0 13 8 15 18 4 16 5 16 6 -1 1 -11 6 -15 12 -11 8 5 10 -3 7 -24 -2 -17 -1 -29 4 -26 4 3 8 -2 8 -10 0 -9 9 -16 20 -16 11 0 20 5 20 11 0 5 4 8 8 5 4 -2 6 11 4 31 -3 20 -1 33 5 30 5 -3 7 10 5 30 -3 21 -1 33 5 30 5 -3 8 7 5 24 -3 20 -9 28 -18 25 -7 -3 -15 0 -17 7 -3 7 -3 -6 0 -27 4 -25 3 -37 -4 -33 -6 4 -8 -3 -5 -18 3 -21 0 -25 -18 -25 -19 0 -22 4 -18 29 2 17 1 28 -4 25 -4 -3 -8 6 -8 19 0 19 -6 26 -28 29 -26 4 -27 2 -23 -30z"/><path d="M1449 546 c-2 -3 -31 -6 -65 -7 l-60 -2 4 -35 c3 -19 0 -32 -5 -29 -5 3 -7 -10 -5 -30 3 -20 1 -33 -5 -30 -5 3 -7 -9 -5 -29 4 -34 4 -34 57 -34 34 0 59 5 68 15 8 8 17 12 19 9 3 -3 3 7 0 21 -2 14 -8 28 -13 31 -15 9 -10 41 6 48 11 4 15 17 13 41 -2 37 -2 37 -9 31z m-35 -32 c19 -19 20 -28 3 -42 -15 -12 -57 -5 -57 10 0 5 4 6 10 3 6 -3 7 1 4 9 -4 10 -1 16 7 16 11 0 11 3 -1 10 -13 8 -13 10 2 10 9 0 24 -7 32 -16z m-6 -103 c2 -13 -2 -28 -9 -35 -9 -8 -10 -7 -5 4 4 8 1 7 -8 -4 -19 -24 -36 -12 -36 25 0 17 4 28 9 24 5 -3 13 -1 16 5 11 17 30 6 33 -19z"/><path d="M1656 533 c-4 -10 -4 -14 0 -10 4 4 13 2 19 -3 9 -8 15 -6 19 7 4 10 4 14 0 10 -4 -4 -13 -2 -19 3 -9 8 -15 6 -19 -7z"/><path d="M800 524 c0 -8 -4 -13 -8 -10 -5 3 -6 -9 -4 -26 3 -17 1 -28 -5 -25 -5 3 -7 -10 -5 -30 4 -27 1 -34 -8 -28 -10 6 -11 4 -4 -6 5 -8 7 -21 6 -30 -2 -10 6 -18 20 -21 22 -4 23 -1 20 30 -3 24 -1 33 7 28 6 -4 11 0 11 9 0 15 2 15 15 1 8 -8 15 -26 15 -40 0 -21 5 -26 24 -26 14 0 28 5 32 12 5 7 3 8 -6 3 -10 -6 -12 -1 -8 18 3 16 1 24 -5 20 -6 -4 -8 4 -5 20 3 15 1 24 -3 21 -16 -10 -9 11 16 48 31 45 31 48 1 46 -16 -2 -22 -7 -18 -17 3 -9 1 -12 -6 -7 -7 4 -10 2 -6 -7 6 -17 -21 -41 -37 -32 -6 4 -9 20 -7 36 4 23 1 29 -14 29 -10 0 -18 -7 -18 -16z"/><path d="M1599 523 c-12 -16 -12 -17 2 -6 9 7 20 9 24 5 5 -4 5 -1 1 6 -9 16 -11 15 -27 -5z"/><path d="M1560 486 c0 -2 8 -10 18 -17 15 -13 16 -12 3 4 -13 16 -21 21 -21 13z"/><path d="M2617 483 c-13 -12 -7 -23 13 -23 13 0 18 5 14 15 -7 16 -17 19 -27 8z"/><path d="M1800 476 c0 -2 6 -9 14 -15 11 -9 16 -9 22 0 4 8 3 9 -4 5 -7 -4 -12 -2 -12 3 0 6 -4 11 -10 11 -5 0 -10 -2 -10 -4z"/><path d="M2026 472 c5 -4 12 -11 15 -15 3 -5 9 -2 12 5 3 9 -3 14 -15 15 -11 1 -16 -1 -12 -5z"/><path d="M2120 469 c0 -5 -4 -7 -10 -4 -6 4 -7 -1 -3 -11 4 -11 8 -13 11 -6 2 7 8 10 13 7 5 -4 6 1 3 9 -7 18 -14 21 -14 5z"/><path d="M2170 469 c0 -6 5 -7 10 -4 7 4 9 -3 5 -22 -3 -15 -2 -21 1 -13 4 8 10 22 15 30 5 12 2 16 -12 17 -10 1 -19 -3 -19 -8z"/><path d="M2316 468 c3 -5 10 -6 15 -3 13 9 11 12 -6 12 -8 0 -12 -4 -9 -9z"/><path d="M2386 465 c3 -6 11 -12 18 -12 8 0 12 6 10 12 -3 6 -11 12 -18 12 -8 0 -12 -6 -10 -12z"/><path d="M2877 419 c4 -15 14 -19 47 -17 37 1 38 2 9 5 -18 2 -33 8 -33 13 0 4 -6 10 -14 13 -10 4 -12 0 -9 -14z"/><path d="M2537 423 c-4 -3 -7 -11 -7 -17 0 -6 5 -5 12 2 6 6 9 14 7 17 -3 3 -9 2 -12 -2z"/><path d="M1271 404 c0 -11 3 -14 6 -6 3 7 2 16 -1 19 -3 4 -6 -2 -5 -13z"/><path d="M1561 388 c-6 -17 -8 -29 -5 -25 4 3 13 0 21 -8 16 -16 49 -20 57 -6 3 4 -6 6 -20 3 -17 -3 -24 0 -22 9 2 8 -3 13 -11 11 -10 -2 -12 4 -7 23 9 35 0 31 -13 -7z"/><path d="M1888 413 c7 -3 16 -2 19 1 4 3 -2 6 -13 5 -11 0 -14 -3 -6 -6z"/><path d="M2240 409 c0 -5 21 -9 47 -9 25 0 44 2 42 4 -10 8 -89 13 -89 5z"/><path d="M1653 385 c0 -8 4 -12 9 -9 5 3 6 10 3 15 -9 13 -12 11 -12 -6z"/><path d="M1883 393 c9 -2 23 -2 30 0 6 3 -1 5 -18 5 -16 0 -22 -2 -12 -5z"/><path d="M2770 368 c0 -10 4 -18 9 -18 5 0 11 8 13 18 3 11 0 19 -8 19 -8 0 -14 -9 -14 -19z"/><path d="M1951 373 c-1 -6 4 -15 9 -18 6 -4 8 -10 5 -15 -3 -4 5 -5 17 -2 19 5 20 7 5 10 -9 2 -14 8 -11 14 4 6 2 8 -4 4 -5 -3 -13 0 -15 6 -4 9 -6 10 -6 1z"/><path d="M2102 360 c0 -14 2 -19 5 -12 2 6 2 18 0 25 -3 6 -5 1 -5 -13z"/><path d="M2247 374 c-8 -8 3 -34 15 -34 7 0 6 5 -1 13 -6 8 -8 17 -4 20 3 4 4 7 1 7 -2 0 -7 -3 -11 -6z"/><path d="M1732 358 c4 -10 58 -32 58 -23 0 2 -14 10 -31 19 -19 10 -29 11 -27 4z"/><path d="M2526 353 c-6 -14 -5 -15 5 -6 7 7 10 15 7 18 -3 3 -9 -2 -12 -12z"/><path d="M2881 356 c-7 -8 -8 -17 -3 -20 6 -3 15 1 21 8 7 8 8 17 3 20 -6 3 -15 -1 -21 -8z"/><path d="M2140 356 c0 -2 8 -10 18 -17 15 -13 16 -12 3 4 -13 16 -21 21 -21 13z"/><path d="M2466 348 c3 -5 10 -6 15 -3 13 9 11 12 -6 12 -8 0 -12 -4 -9 -9z"/><path d="M2605 350 c3 -5 8 -10 11 -10 2 0 4 5 4 10 0 6 -5 10 -11 10 -5 0 -7 -4 -4 -10z"/><path d="M568 333 c7 -3 16 -2 19 1 4 3 -2 6 -13 5 -11 0 -14 -3 -6 -6z"/><path d="M663 333 c9 -2 23 -2 30 0 6 3 -1 5 -18 5 -16 0 -22 -2 -12 -5z"/><path d="M768 333 c6 -2 18 -2 25 0 6 3 1 5 -13 5 -14 0 -19 -2 -12 -5z"/><path d="M878 333 c6 -2 18 -2 25 0 6 3 1 5 -13 5 -14 0 -19 -2 -12 -5z"/><path d="M1323 333 c15 -2 37 -2 50 0 12 2 0 4 -28 4 -27 0 -38 -2 -22 -4z"/><path d="M298 293 c7 -3 16 -2 19 1 4 3 -2 6 -13 5 -11 0 -14 -3 -6 -6z"/><path d="M165 281 c-7 -13 4 -18 40 -15 45 3 47 3 40 14 -4 6 -15 6 -30 0 -16 -6 -25 -6 -25 0 0 13 -17 13 -25 1z"/><path d="M327 276 c-3 -8 1 -17 9 -20 8 -3 14 1 14 9 0 20 -17 28 -23 11z"/><path d="M1098 273 c6 -2 18 -2 25 0 6 3 1 5 -13 5 -14 0 -19 -2 -12 -5z"/><path d="M280 260 c0 -5 7 -10 15 -10 8 0 15 5 15 10 0 6 -7 10 -15 10 -8 0 -15 -4 -15 -10z"/><path d="M545 200 c-4 -33 -10 -58 -14 -56 -4 3 -5 -12 -3 -32 2 -28 1 -33 -7 -22 -6 8 -11 11 -11 5 0 -23 18 -33 67 -36 40 -3 49 -1 41 9 -6 6 -16 12 -23 12 -17 0 -30 59 -17 72 6 6 18 8 27 5 25 -10 29 -36 9 -53 -11 -9 -13 -12 -5 -8 9 5 12 3 7 -5 -12 -19 25 -26 39 -8 7 9 15 14 19 10 3 -4 1 7 -5 24 -6 17 -17 34 -25 37 -14 5 -14 8 0 22 9 8 19 13 24 10 12 -7 13 45 1 60 -7 9 -32 14 -64 14 l-53 0 -7 -60z m93 14 c4 -25 -22 -49 -43 -40 -31 12 -9 70 25 64 8 -2 16 -13 18 -24z"/><path d="M1090 234 c0 -14 -4 -23 -8 -20 -5 3 -6 -9 -4 -26 3 -17 1 -28 -4 -25 -5 2 -10 -19 -11 -49 0 -30 3 -54 8 -54 5 0 9 5 9 11 0 5 6 7 13 3 9 -6 9 -5 0 7 -10 12 -8 17 6 26 21 13 47 1 36 -17 -5 -8 -4 -11 2 -7 6 4 13 0 17 -8 12 -31 24 -14 15 22 -10 45 -7 66 9 86 10 12 9 16 -9 20 -11 3 -18 3 -15 0 10 -10 -15 -33 -35 -33 -10 0 -21 5 -25 12 -5 7 -2 9 7 6 11 -4 14 4 14 33 0 25 -5 39 -12 39 -7 0 -13 -12 -13 -26z"/><path d="M1467 212 c-22 -24 -21 -32 1 -32 12 0 18 8 20 25 2 30 0 31 -21 7z"/><path d="M783 213 c9 -2 23 -2 30 0 6 3 -1 5 -18 5 -16 0 -22 -2 -12 -5z"/><path d="M988 213 c7 -3 16 -2 19 1 4 3 -2 6 -13 5 -11 0 -14 -3 -6 -6z"/><path d="M1549 208 c0 -2 -2 -11 -4 -21 -3 -15 -1 -16 11 -6 7 6 11 15 8 20 -5 9 -13 12 -15 7z"/><path d="M744 189 c-3 -6 9 -8 30 -6 35 4 58 -9 39 -22 -5 -3 -9 -22 -9 -41 1 -22 -3 -34 -11 -33 -7 2 -10 -3 -7 -10 2 -7 13 -13 24 -14 15 -1 20 5 20 23 0 14 3 23 8 21 4 -3 5 17 4 43 l-4 48 -44 0 c-24 0 -46 -4 -50 -9z"/><path d="M910 183 c0 -8 -4 -12 -8 -9 -5 3 -6 -9 -4 -26 3 -17 1 -28 -5 -25 -5 3 -7 -9 -5 -29 4 -37 22 -48 22 -13 0 11 4 18 8 15 5 -3 7 7 4 22 -4 32 28 68 53 58 14 -5 15 -15 10 -61 -5 -38 -4 -55 4 -55 6 0 11 9 11 21 0 11 4 18 8 15 5 -3 6 9 4 26 -3 20 -1 29 6 24 7 -4 8 3 3 21 -7 26 -12 28 -59 29 -39 1 -52 -2 -52 -13z"/><path d="M1615 178 c11 -36 22 -41 17 -8 -2 16 -9 30 -14 30 -5 0 -6 -10 -3 -22z"/><path d="M733 122 c-6 -4 -16 -19 -21 -32 -9 -23 -7 -25 19 -26 25 -1 28 1 17 13 -9 11 -9 19 0 34 13 20 6 24 -15 11z"/><path d="M1512 100 c0 -14 2 -19 5 -12 2 6 2 18 0 25 -3 6 -5 1 -5 -13z"/><path d="M2930 90 c-9 -6 -10 -10 -3 -10 6 0 15 5 18 10 8 12 4 12 -15 0z"/><path d="M1530 70 c-6 -11 -8 -20 -6 -20 3 0 10 9 16 20 6 11 8 20 6 20 -3 0 -10 -9 -16 -20z"/><path d="M1286 69 c3 -5 26 -9 51 -9 26 0 44 2 42 4 -9 9 -99 14 -93 5z"/><path d="M1450 69 c0 -5 5 -7 10 -4 6 3 10 8 10 11 0 2 -4 4 -10 4 -5 0 -10 -5 -10 -11z"/></g><g transform="translate(0.000000,62.000000) scale(0.100000,-0.100000)" fill="#921F39" stroke="none"><path d="M217 433 c-4 -3 -7 -11 -7 -17 0 -6 5 -5 12 2 6 6 9 14 7 17 -3 3 -9 2 -12 -2z"/><path d="M266 416 c5 -20 3 -27 -4 -22 -6 3 -15 -1 -20 -10 -5 -10 -16 -15 -24 -11 -11 4 -15 -2 -14 -24 1 -16 5 -29 9 -29 5 0 5 -5 2 -10 -4 -6 -10 -8 -15 -5 -5 3 -11 1 -15 -5 -4 -6 7 -10 25 -10 24 0 31 4 27 15 -8 18 13 32 23 15 4 -7 10 -8 13 -3 9 14 -6 31 -33 36 l-25 4 25 2 c14 0 31 10 38 21 10 17 10 24 -3 43 -16 22 -16 22 -9 -7z"/><path d="M140 258 c0 -4 32 -7 70 -6 39 1 70 5 70 9 0 4 -31 7 -70 6 -38 0 -70 -5 -70 -9z"/><path d="M318 253 c7 -3 16 -2 19 1 4 3 -2 6 -13 5 -11 0 -14 -3 -6 -6z"/></g><g transform="translate(0.000000,62.000000) scale(0.100000,-0.100000)" fill="#DF3F46" stroke="none"><path d="M1589 533 c-13 -16 -12 -17 4 -4 16 13 21 21 13 21 -2 0 -10 -8 -17 -17z"/><path d="M233 511 c-14 -23 -1 -37 22 -24 12 7 13 12 3 26 -12 16 -14 16 -25 -2z"/><path d="M1471 504 c0 -11 3 -14 6 -6 3 7 2 16 -1 19 -3 4 -6 -2 -5 -13z"/><path d="M2008 493 c7 -3 16 -2 19 1 4 3 -2 6 -13 5 -11 0 -14 -3 -6 -6z"/><path d="M2419 483 c-13 -16 -12 -17 4 -4 16 13 21 21 13 21 -2 0 -10 -8 -17 -17z"/><path d="M2518 493 c6 -2 18 -2 25 0 6 3 1 5 -13 5 -14 0 -19 -2 -12 -5z"/><path d="M2061 434 c0 -11 3 -14 6 -6 3 7 2 16 -1 19 -3 4 -6 -2 -5 -13z"/><path d="M250 405 c-11 -13 -10 -14 4 -9 9 3 16 10 16 15 0 13 -6 11 -20 -6z"/><path d="M281 383 c-7 -8 -11 -16 -8 -19 2 -2 10 2 17 11 17 20 9 27 -9 8z"/><path d="M2861 384 c0 -11 3 -14 6 -6 3 7 2 16 -1 19 -3 4 -6 -2 -5 -13z"/><path d="M2500 356 c0 -2 8 -10 18 -17 15 -13 16 -12 3 4 -13 16 -21 21 -21 13z"/><path d="M235 321 c-6 -11 9 -23 19 -14 9 9 7 23 -3 23 -6 0 -12 -4 -16 -9z"/><path d="M278 313 c6 -2 9 -10 6 -15 -4 -7 -2 -8 5 -4 13 9 5 26 -12 25 -9 0 -8 -2 1 -6z"/><path d="M159 283 c-13 -16 -12 -17 4 -4 9 7 17 15 17 17 0 8 -8 3 -21 -13z"/><path d="M190 281 c0 -5 9 -7 20 -4 11 3 20 7 20 9 0 2 -9 4 -20 4 -11 0 -20 -4 -20 -9z"/><path d="M248 278 c6 -6 18 -8 28 -6 14 3 12 5 -9 10 -19 3 -25 2 -19 -4z"/><path d="M908 213 c6 -2 18 -2 25 0 6 3 1 5 -13 5 -14 0 -19 -2 -12 -5z"/><path d="M1183 213 c16 -3 25 -9 21 -15 -4 -7 -2 -8 4 -4 22 14 12 26 -20 25 -31 -2 -31 -2 -5 -6z"/><path d="M2025 110 c-3 -6 1 -7 9 -4 18 7 21 14 7 14 -6 0 -13 -4 -16 -10z"/><path d="M2276 112 c-2 -4 4 -8 15 -8 10 0 19 4 19 8 0 10 -27 10 -34 0z"/><path d="M2768 113 c7 -3 16 -2 19 1 4 3 -2 6 -13 5 -11 0 -14 -3 -6 -6z"/><path d="M1782 86 c7 -8 15 -12 17 -11 5 6 -10 25 -20 25 -5 0 -4 -6 3 -14z"/><path d="M2325 90 c-4 -6 -11 -7 -17 -4 -7 4 -8 2 -4 -5 6 -9 11 -9 22 0 14 11 18 19 10 19 -3 0 -8 -5 -11 -10z"/><path d="M2792 74 c10 -10 20 -16 22 -13 3 3 -5 11 -17 18 -21 13 -21 12 -5 -5z"/><path d="M1741 64 c0 -11 3 -14 6 -6 3 7 2 16 -1 19 -3 4 -6 -2 -5 -13z"/><path d="M2530 70 c0 -5 5 -10 11 -10 5 0 7 5 4 10 -3 6 -8 10 -11 10 -2 0 -4 -4 -4 -10z"/><path d="M2966 63 c-6 -14 -5 -15 5 -6 7 7 10 15 7 18 -3 3 -9 -2 -12 -12z"/></g><g transform="translate(0.000000,62.000000) scale(0.100000,-0.100000)" fill="#85595F" stroke="none"><path d="M255 460 c3 -5 8 -10 11 -10 2 0 4 5 4 10 0 6 -5 10 -11 10 -5 0 -7 -4 -4 -10z"/><path d="M195 412 c-3 -3 -5 -14 -5 -25 0 -19 1 -20 20 -2 11 10 20 21 20 25 0 8 -28 9 -35 2z"/><path d="M301 374 c0 -11 3 -14 6 -6 3 7 2 16 -1 19 -3 4 -6 -2 -5 -13z"/><path d="M125 240 c-3 -6 1 -7 9 -4 18 7 21 14 7 14 -6 0 -13 -4 -16 -10z"/><path d="M328 243 c7 -3 16 -2 19 1 4 3 -2 6 -13 5 -11 0 -14 -3 -6 -6z"/><path d="M278 223 c7 -3 16 -2 19 1 4 3 -2 6 -13 5 -11 0 -14 -3 -6 -6z"/><path d="M290 180 c-23 -7 -23 -8 -3 -9 12 -1 25 4 28 9 3 6 5 10 3 9 -2 -1 -14 -5 -28 -9z"/><path d="M331 174 c0 -11 3 -14 6 -6 3 7 2 16 -1 19 -3 4 -6 -2 -5 -13z"/></g><g transform="translate(0.000000,62.000000) scale(0.100000,-0.100000)" fill="#EB5F66" stroke="none"><path d="M233 505 c0 -8 4 -12 9 -9 5 3 6 10 3 15 -9 13 -12 11 -12 -6z"/><path d="M2640 506 c0 -2 8 -10 18 -17 15 -13 16 -12 3 4 -13 16 -21 21 -21 13z"/><path d="M2105 490 c-3 -6 1 -7 9 -4 18 7 21 14 7 14 -6 0 -13 -4 -16 -10z"/><path d="M2698 493 c7 -3 16 -2 19 1 4 3 -2 6 -13 5 -11 0 -14 -3 -6 -6z"/><path d="M2762 486 c7 -8 15 -12 17 -11 5 6 -10 25 -20 25 -5 0 -4 -6 3 -14z"/><path d="M2840 496 c0 -2 7 -7 16 -10 8 -3 12 -2 9 4 -6 10 -25 14 -25 6z"/><path d="M1245 460 c10 -11 20 -20 23 -20 3 0 -3 9 -13 20 -10 11 -20 20 -23 20 -3 0 3 -9 13 -20z"/><path d="M220 453 c0 -7 6 -18 13 -25 12 -10 10 -15 -7 -29 -12 -10 -18 -20 -15 -24 9 -8 46 31 52 55 3 12 0 17 -12 15 -9 -1 -19 3 -23 9 -6 8 -8 7 -8 -1z"/><path d="M2342 440 c0 -14 2 -19 5 -12 2 6 2 18 0 25 -3 6 -5 1 -5 -13z"/><path d="M2032 430 c0 -14 2 -19 5 -12 2 6 2 18 0 25 -3 6 -5 1 -5 -13z"/><path d="M2268 428 c6 -6 18 -8 28 -6 14 3 12 5 -9 10 -19 3 -25 2 -19 -4z"/><path d="M941 414 c0 -11 3 -14 6 -6 3 7 2 16 -1 19 -3 4 -6 -2 -5 -13z"/><path d="M2913 423 c9 -2 23 -2 30 0 6 3 -1 5 -18 5 -16 0 -22 -2 -12 -5z"/><path d="M173 355 c-10 -10 -9 -16 3 -26 8 -6 17 -9 21 -5 3 3 0 6 -8 6 -12 0 -11 2 1 10 10 6 11 12 5 19 -6 6 -14 5 -22 -4z"/><path d="M273 353 c9 -2 17 -11 17 -20 0 -8 5 -13 11 -11 6 2 10 7 9 12 -1 5 4 13 12 17 8 6 -2 8 -27 8 -22 -1 -32 -3 -22 -6z"/><path d="M245 301 c-7 -12 12 -24 25 -16 11 7 4 25 -10 25 -5 0 -11 -4 -15 -9z"/><path d="M315 290 c-4 -6 -11 -8 -16 -5 -5 4 -9 1 -9 -4 0 -6 8 -11 18 -11 10 0 19 7 19 15 0 18 -3 19 -12 5z"/><path d="M573 273 c15 -2 37 -2 50 0 12 2 0 4 -28 4 -27 0 -38 -2 -22 -4z"/><path d="M168 243 c7 -3 16 -2 19 1 4 3 -2 6 -13 5 -11 0 -14 -3 -6 -6z"/><path d="M1179 173 c-13 -16 -12 -17 4 -4 16 13 21 21 13 21 -2 0 -10 -8 -17 -17z"/><path d="M2013 85 c0 -8 4 -12 9 -9 5 3 6 10 3 15 -9 13 -12 11 -12 -6z"/><path d="M2100 80 c0 -11 2 -20 4 -20 2 0 6 9 9 20 3 11 1 20 -4 20 -5 0 -9 -9 -9 -20z"/><path d="M2215 89 c-4 -6 -5 -12 -2 -15 2 -3 7 2 10 11 7 17 1 20 -8 4z"/><path d="M2516 84 c-4 -10 -13 -13 -28 -9 -20 5 -21 4 -5 -5 13 -8 22 -8 38 3 11 8 16 18 11 21 -6 3 -13 -1 -16 -10z"/><path d="M2618 93 c7 -3 16 -2 19 1 4 3 -2 6 -13 5 -11 0 -14 -3 -6 -6z"/><path d="M2897 87 c-3 -8 3 -14 16 -15 12 0 17 2 12 6 -6 4 -13 11 -16 15 -4 4 -9 2 -12 -6z"/><path d="M2970 90 c0 -5 5 -10 10 -10 6 0 10 5 10 10 0 6 -4 10 -10 10 -5 0 -10 -4 -10 -10z"/><path d="M1980 80 c0 -5 5 -10 10 -10 6 0 10 5 10 10 0 6 -4 10 -10 10 -5 0 -10 -4 -10 -10z"/><path d="M281 64 c0 -11 3 -14 6 -6 3 7 2 16 -1 19 -3 4 -6 -2 -5 -13z"/><path d="M1888 73 c7 -3 16 -2 19 1 4 3 -2 6 -13 5 -11 0 -14 -3 -6 -6z"/><path d="M1279 47 c4 -5 32 -7 62 -5 l54 3 -62 5 c-34 3 -58 1 -54 -3z"/><path d="M1590 50 c0 -6 7 -10 15 -10 8 0 15 2 15 4 0 2 -7 6 -15 10 -8 3 -15 1 -15 -4z"/></g><g transform="translate(0.000000,62.000000) scale(0.100000,-0.100000)" fill="#F29F9F" stroke="none"><path d="M1048 563 c6 -2 18 -2 25 0 6 3 1 5 -13 5 -14 0 -19 -2 -12 -5z"/><path d="M1228 563 c6 -2 18 -2 25 0 6 3 1 5 -13 5 -14 0 -19 -2 -12 -5z"/><path d="M841 484 c0 -11 3 -14 6 -6 3 7 2 16 -1 19 -3 4 -6 -2 -5 -13z"/><path d="M2130 488 c0 -4 4 -8 9 -8 6 0 12 4 15 8 3 5 -1 9 -9 9 -8 0 -15 -4 -15 -9z"/><path d="M212 470 c0 -14 2 -19 5 -12 2 6 2 18 0 25 -3 6 -5 1 -5 -13z"/><path d="M234 462 c0 -10 5 -19 12 -19 6 0 9 9 6 19 -2 10 -7 18 -11 18 -4 0 -7 -8 -7 -18z"/><path d="M1068 463 c12 -2 32 -2 45 0 12 2 2 4 -23 4 -25 0 -35 -2 -22 -4z"/><path d="M941 444 c0 -11 3 -14 6 -6 3 7 2 16 -1 19 -3 4 -6 -2 -5 -13z"/><path d="M1180 435 c13 -14 26 -25 28 -25 3 0 -5 11 -18 25 -13 14 -26 25 -28 25 -3 0 5 -11 18 -25z"/><path d="M2212 440 c0 -14 2 -19 5 -12 2 6 2 18 0 25 -3 6 -5 1 -5 -13z"/><path d="M1866 432 c-2 -4 11 -6 30 -4 19 2 34 6 34 8 0 8 -59 4 -64 -4z"/><path d="M1037 419 c7 -7 15 -10 18 -7 3 3 -2 9 -12 12 -14 6 -15 5 -6 -5z"/><path d="M1387 409 c4 -13 8 -18 11 -10 2 7 -1 18 -6 23 -8 8 -9 4 -5 -13z"/><path d="M1011 404 c0 -11 3 -14 6 -6 3 7 2 16 -1 19 -3 4 -6 -2 -5 -13z"/><path d="M1926 387 c3 -10 9 -15 12 -12 3 3 0 11 -7 18 -10 9 -11 8 -5 -6z"/><path d="M2222 380 c0 -14 2 -19 5 -12 2 6 2 18 0 25 -3 6 -5 1 -5 -13z"/><path d="M2552 350 c0 -14 2 -19 5 -12 2 6 2 18 0 25 -3 6 -5 1 -5 -13z"/><path d="M2620 366 c0 -2 7 -7 16 -10 8 -3 12 -2 9 4 -6 10 -25 14 -25 6z"/><path d="M150 351 c0 -5 8 -15 18 -22 15 -13 16 -12 4 3 -10 13 -10 17 0 21 8 4 7 6 -4 6 -10 1 -18 -3 -18 -8z"/><path d="M1649 343 c-13 -16 -12 -17 4 -4 9 7 17 15 17 17 0 8 -8 3 -21 -13z"/><path d="M280 326 c0 -2 8 -10 18 -17 15 -13 16 -12 3 4 -13 16 -21 21 -21 13z"/><path d="M1013 323 c9 -2 23 -2 30 0 6 3 -1 5 -18 5 -16 0 -22 -2 -12 -5z"/><path d="M1173 323 c9 -2 23 -2 30 0 6 3 -1 5 -18 5 -16 0 -22 -2 -12 -5z"/><path d="M1598 323 c7 -3 16 -2 19 1 4 3 -2 6 -13 5 -11 0 -14 -3 -6 -6z"/><path d="M1758 323 c7 -3 16 -2 19 1 4 3 -2 6 -13 5 -11 0 -14 -3 -6 -6z"/><path d="M1978 323 c7 -3 16 -2 19 1 4 3 -2 6 -13 5 -11 0 -14 -3 -6 -6z"/><path d="M2138 323 c7 -3 16 -2 19 1 4 3 -2 6 -13 5 -11 0 -14 -3 -6 -6z"/><path d="M2268 323 c7 -3 16 -2 19 1 4 3 -2 6 -13 5 -11 0 -14 -3 -6 -6z"/><path d="M2608 323 c7 -3 16 -2 19 1 4 3 -2 6 -13 5 -11 0 -14 -3 -6 -6z"/><path d="M2898 323 c7 -3 16 -2 19 1 4 3 -2 6 -13 5 -11 0 -14 -3 -6 -6z"/><path d="M260 290 c8 -5 20 -10 25 -10 6 0 3 5 -5 10 -8 5 -19 10 -25 10 -5 0 -3 -5 5 -10z"/><path d="M2068 268 c5 -5 16 -8 23 -6 8 3 3 7 -10 11 -17 4 -21 3 -13 -5z"/><path d="M1031 174 c0 -11 3 -14 6 -6 3 7 2 16 -1 19 -3 4 -6 -2 -5 -13z"/><path d="M1601 154 c0 -11 3 -14 6 -6 3 7 2 16 -1 19 -3 4 -6 -2 -5 -13z"/><path d="M2154 108 c-5 -7 -3 -8 6 -3 10 6 12 4 7 -8 -4 -11 -2 -14 9 -10 11 4 12 9 3 19 -14 17 -16 17 -25 2z"/><path d="M2392 95 c25 -29 27 -30 24 -9 -1 8 -9 20 -17 25 -26 16 -29 9 -7 -16z"/><path d="M2705 110 c3 -5 8 -10 11 -10 2 0 4 5 4 10 0 6 -5 10 -11 10 -5 0 -7 -4 -4 -10z"/><path d="M2756 106 c3 -9 13 -16 22 -16 8 0 13 1 11 3 -2 1 -12 9 -22 16 -15 12 -17 12 -11 -3z"/><path d="M1955 99 c-4 -6 -5 -12 -2 -15 2 -3 7 2 10 11 7 17 1 20 -8 4z"/><path d="M2113 104 c3 -3 2 -17 -3 -30 -5 -13 -6 -24 -1 -24 10 0 21 24 21 46 0 8 -5 14 -12 14 -6 0 -9 -3 -5 -6z"/><path d="M2199 98 c0 -7 -2 -21 -4 -30 -2 -10 0 -18 5 -18 4 0 10 13 12 30 3 16 1 30 -4 30 -4 0 -8 -6 -9 -12z"/><path d="M2823 103 c4 -3 -1 -12 -11 -20 -9 -8 -11 -11 -3 -7 11 5 13 3 8 -9 -3 -10 -2 -17 2 -17 10 0 21 24 21 46 0 8 -5 14 -12 14 -6 0 -8 -3 -5 -7z"/><path d="M2876 94 c-3 -8 -2 -12 3 -9 6 3 14 -2 19 -11 8 -15 10 -15 15 0 4 9 1 15 -6 13 -7 -1 -11 4 -9 11 3 17 -15 15 -22 -4z"/><path d="M1840 92 c0 -5 7 -9 15 -9 8 0 12 4 9 9 -7 10 -24 10 -24 0z"/><path d="M1900 91 c0 -10 19 -25 25 -20 1 2 -3 10 -11 17 -8 7 -14 8 -14 3z"/><path d="M2650 80 c-6 -11 -8 -20 -6 -20 3 0 10 9 16 20 6 11 8 20 6 20 -3 0 -10 -9 -16 -20z"/><path d="M2740 91 c0 -6 4 -13 10 -16 6 -3 7 1 4 9 -7 18 -14 21 -14 7z"/><path d="M1325 85 c23 -8 83 -10 79 -3 -3 4 -24 8 -47 7 -23 0 -37 -2 -32 -4z"/><path d="M2355 81 c-3 -5 -2 -12 3 -15 5 -3 9 1 9 9 0 17 -3 19 -12 6z"/><path d="M2439 87 c-6 -16 -5 -37 2 -37 5 0 9 7 9 16 0 8 4 13 9 9 5 -3 12 -2 15 3 2 4 -4 9 -15 9 -10 1 -19 1 -20 0z"/><path d="M2620 68 c0 -19 2 -20 10 -8 13 19 13 30 0 30 -5 0 -10 -10 -10 -22z"/><path d="M133 65 c-3 -9 -2 -19 2 -23 4 -4 10 -2 12 4 2 7 13 10 23 7 11 -3 20 0 20 6 0 17 40 13 46 -4 8 -21 20 -19 20 3 0 21 -50 29 -72 11 -10 -8 -14 -8 -14 0 0 17 -30 13 -37 -4z"/><path d="M295 70 c-3 -5 -1 -10 5 -10 6 0 8 -6 4 -12 -4 -7 2 -4 14 6 12 11 22 21 22 23 0 8 -39 2 -45 -7z"/><path d="M355 69 c-4 -6 -5 -12 -2 -15 2 -3 7 2 10 11 7 17 1 20 -8 4z"/><path d="M2080 65 c-7 -9 -8 -15 -2 -15 5 0 12 7 16 15 3 8 4 15 2 15 -2 0 -9 -7 -16 -15z"/><path d="M2549 64 c-8 -10 -8 -14 0 -14 6 0 11 4 11 9 0 5 12 7 27 5 15 -3 25 -3 22 1 -14 13 -48 13 -60 -1z"/><path d="M205 50 c4 -6 11 -8 16 -5 14 9 11 15 -7 15 -8 0 -12 -5 -9 -10z"/><path d="M2960 50 c-9 -6 -10 -10 -3 -10 6 0 15 5 18 10 8 12 4 12 -15 0z"/><path d="M528 43 c18 -2 45 -2 60 0 15 2 0 4 -33 4 -33 0 -45 -2 -27 -4z"/><path d="M728 43 c6 -2 18 -2 25 0 6 3 1 5 -13 5 -14 0 -19 -2 -12 -5z"/></g><g transform="translate(0.000000,62.000000) scale(0.100000,-0.100000)" fill="#9F9FAC" stroke="none"><path d="M175 557 c-26 -6 -57 -28 -91 -61 -78 -78 -93 -171 -44 -266 40 -78 113 -120 207 -120 74 0 129 25 174 79 85 99 76 227 -22 315 -67 61 -135 77 -224 53z m170 -24 c77 -39 119 -108 120 -198 0 -74 -36 -142 -97 -183 -37 -24 -51 -27 -123 -27 -72 0 -86 3 -123 27 -93 62 -126 191 -72 288 28 49 90 98 141 110 43 11 115 3 154 -17z"/><path d="M181 384 c0 -11 3 -14 6 -6 3 7 2 16 -1 19 -3 4 -6 -2 -5 -13z"/><path d="M109 229 c-6 -11 -8 -23 -5 -27 3 -3 6 -1 6 4 0 6 14 9 30 8 36 -2 39 9 5 24 -21 10 -26 9 -36 -9z"/><path d="M186 234 c-9 -22 -8 -26 6 -22 13 5 20 38 8 38 -4 0 -11 -7 -14 -16z"/><path d="M221 246 c3 -3 27 -7 53 -7 26 -1 50 -8 54 -14 9 -15 62 -29 62 -16 0 21 -37 35 -103 39 -40 2 -69 1 -66 -2z"/><path d="M220 220 c0 -11 45 -18 75 -12 41 7 28 17 -25 18 -28 1 -50 -2 -50 -6z"/><path d="M143 183 c4 -4 25 -8 45 -9 20 0 45 -5 56 -9 14 -6 18 -5 14 6 -3 9 -24 15 -64 17 -32 2 -55 0 -51 -5z"/><path d="M288 183 c12 -2 20 -8 18 -12 -3 -4 1 -8 9 -8 31 0 13 23 -17 24 -21 0 -24 -1 -10 -4z"/></g><g transform="translate(0.000000,62.000000) scale(0.100000,-0.100000)" fill="#F8E5E5" stroke="none"><path d="M1638 563 c6 -2 18 -2 25 0 6 3 1 5 -13 5 -14 0 -19 -2 -12 -5z"/><path d="M167 549 c7 -7 15 -10 18 -7 3 3 -2 9 -12 12 -14 6 -15 5 -6 -5z"/><path d="M233 553 c9 -2 23 -2 30 0 6 3 -1 5 -18 5 -16 0 -22 -2 -12 -5z"/><path d="M76 501 c-15 -16 -23 -31 -18 -35 11 -6 45 28 48 49 3 20 2 19 -30 -14z m24 6 c0 -2 -10 -12 -22 -23 l-23 -19 19 23 c18 21 26 27 26 19z"/><path d="M376 522 c-3 -5 8 -21 23 -36 16 -15 31 -23 35 -18 3 5 -8 21 -23 36 -16 15 -31 23 -35 18z m34 -27 c13 -14 21 -25 18 -25 -2 0 -15 11 -28 25 -13 14 -21 25 -18 25 2 0 15 -11 28 -25z"/><path d="M2698 513 c6 -2 18 -2 25 0 6 3 1 5 -13 5 -14 0 -19 -2 -12 -5z"/><path d="M660 481 c0 -5 5 -13 10 -16 6 -3 10 -2 10 4 0 5 -4 13 -10 16 -5 3 -10 2 -10 -4z"/><path d="M271 464 c0 -11 3 -14 6 -6 3 7 2 16 -1 19 -3 4 -6 -2 -5 -13z"/><path d="M2986 462 c-3 -5 -1 -38 3 -73 l8 -64 2 73 c1 69 -2 82 -13 64z"/><path d="M2415 450 c-3 -6 1 -7 9 -4 18 7 21 14 7 14 -6 0 -13 -4 -16 -10z"/><path d="M1582 415 c0 -16 2 -22 5 -12 2 9 2 23 0 30 -3 6 -5 -1 -5 -18z"/><path d="M2782 420 c0 -14 2 -19 5 -12 2 6 2 18 0 25 -3 6 -5 1 -5 -13z"/><path d="M2121 394 c0 -11 3 -14 6 -6 3 7 2 16 -1 19 -3 4 -6 -2 -5 -13z"/><path d="M15 335 c0 -29 3 -48 7 -42 10 15 10 69 0 84 -4 6 -7 -13 -7 -42z"/><path d="M463 335 c0 -22 2 -30 4 -17 2 12 2 30 0 40 -3 9 -5 -1 -4 -23z"/><path d="M2581 354 c0 -11 3 -14 6 -6 3 7 2 16 -1 19 -3 4 -6 -2 -5 -13z"/><path d="M321 337 c-13 -21 -12 -21 5 -5 10 10 16 20 13 22 -3 3 -11 -5 -18 -17z"/><path d="M2029 343 c-13 -16 -12 -17 4 -4 16 13 21 21 13 21 -2 0 -10 -8 -17 -17z"/><path d="M2751 347 c-1 -21 26 -34 41 -19 8 8 5 9 -10 6 -14 -4 -22 0 -25 13 -4 17 -5 17 -6 0z"/><path d="M2668 323 c7 -3 16 -2 19 1 4 3 -2 6 -13 5 -11 0 -14 -3 -6 -6z"/><path d="M1638 283 c7 -3 16 -2 19 1 4 3 -2 6 -13 5 -11 0 -14 -3 -6 -6z"/><path d="M26 263 c-6 -14 -5 -15 5 -6 7 7 10 15 7 18 -3 3 -9 -2 -12 -12z"/><path d="M350 256 c0 -2 8 -10 18 -17 15 -13 16 -12 3 4 -13 16 -21 21 -21 13z"/><path d="M300 229 c0 -5 5 -7 10 -4 6 3 10 8 10 11 0 2 -4 4 -10 4 -5 0 -10 -5 -10 -11z"/><path d="M616 217 c3 -10 9 -15 12 -12 3 3 0 11 -7 18 -10 9 -11 8 -5 -6z"/><path d="M140 209 c-25 -5 -13 -7 44 -8 44 0 77 1 74 4 -8 9 -81 11 -118 4z"/><path d="M1539 203 c-13 -16 -12 -17 4 -4 16 13 21 21 13 21 -2 0 -10 -8 -17 -17z"/><path d="M306 200 c6 -6 21 -6 39 -1 30 9 30 9 -9 10 -26 1 -37 -2 -30 -9z"/><path d="M65 191 c-6 -10 11 -24 33 -27 10 -2 8 3 -4 17 -20 22 -21 22 -29 10z"/><path d="M396 181 c-10 -11 -13 -22 -8 -25 5 -3 17 3 26 13 10 11 13 22 8 25 -5 3 -17 -3 -26 -13z m24 5 c0 -2 -8 -10 -17 -17 -16 -13 -17 -12 -4 4 13 16 21 21 21 13z"/><path d="M133 180 c2 -11 19 -15 58 -16 l54 -1 -50 4 c-27 2 -53 10 -58 16 -6 8 -7 7 -4 -3z"/><path d="M269 170 c25 -21 37 -25 45 -12 2 4 -5 9 -17 9 -12 1 -23 7 -25 13 -2 5 -9 10 -15 10 -7 -1 -1 -10 12 -20z"/><path d="M340 175 c0 -8 5 -15 10 -15 6 0 10 7 10 15 0 8 -4 15 -10 15 -5 0 -10 -7 -10 -15z"/><path d="M680 121 c0 -11 4 -22 9 -25 4 -3 6 6 3 19 -5 30 -12 33 -12 6z"/><path d="M170 120 c-8 -5 -10 -10 -5 -10 6 0 17 5 25 10 8 5 11 10 5 10 -5 0 -17 -5 -25 -10z"/><path d="M307 119 c7 -7 15 -10 18 -7 3 3 -2 9 -12 12 -14 6 -15 5 -6 -5z"/><path d="M1745 109 c-3 -4 2 -6 10 -5 21 3 28 13 10 13 -9 0 -18 -4 -20 -8z"/><path d="M2530 110 c0 -5 5 -10 11 -10 5 0 7 5 4 10 -3 6 -8 10 -11 10 -2 0 -4 -4 -4 -10z"/><path d="M223 103 c15 -2 37 -2 50 0 12 2 0 4 -28 4 -27 0 -38 -2 -22 -4z"/><path d="M2354 96 c1 -8 5 -18 8 -22 4 -3 5 1 4 10 -1 8 -5 18 -8 22 -4 3 -5 -1 -4 -10z"/><path d="M2847 89 c4 -13 8 -18 11 -10 2 7 -1 18 -6 23 -8 8 -9 4 -5 -13z"/><path d="M121 64 c0 -11 3 -14 6 -6 3 7 2 16 -1 19 -3 4 -6 -2 -5 -13z"/><path d="M1952 64 c-7 -8 -8 -14 -3 -14 10 0 25 19 20 25 -2 1 -10 -3 -17 -11z"/><path d="M2165 70 c3 -5 8 -10 11 -10 2 0 4 5 4 10 0 6 -5 10 -11 10 -5 0 -7 -4 -4 -10z"/><path d="M2783 65 c0 -8 4 -12 9 -9 5 3 6 10 3 15 -9 13 -12 11 -12 -6z"/><path d="M1806 62 c-2 -4 4 -8 14 -8 10 0 16 4 14 8 -3 4 -9 8 -14 8 -5 0 -11 -4 -14 -8z"/><path d="M2130 60 c-12 -7 -10 -9 7 -7 12 0 19 5 17 9 -6 10 -6 10 -24 -2z"/><path d="M2456 62 c-2 -4 4 -8 14 -8 10 0 16 4 14 8 -3 4 -9 8 -14 8 -5 0 -11 -4 -14 -8z"/><path d="M2510 60 c-9 -6 -10 -10 -3 -10 6 0 15 5 18 10 8 12 4 12 -15 0z"/><path d="M2940 56 c7 -7 14 -6 21 1 9 9 7 12 -9 10 -14 -1 -18 -5 -12 -11z"/><path d="M316 51 c-3 -4 7 -8 21 -9 15 -1 23 1 19 5 -9 10 -35 13 -40 4z"/><path d="M869 47 c5 -5 19 -7 32 -5 20 3 19 5 -9 9 -20 3 -29 2 -23 -4z"/><path d="M950 48 c0 -4 14 -8 30 -8 17 0 30 2 30 4 0 2 -13 6 -30 8 -16 3 -30 1 -30 -4z"/><path d="M2748 53 c7 -3 16 -2 19 1 4 3 -2 6 -13 5 -11 0 -14 -3 -6 -6z"/><path d="M2838 53 c6 -2 18 -2 25 0 6 3 1 5 -13 5 -14 0 -19 -2 -12 -5z"/><path d="M803 43 c9 -2 25 -2 35 0 9 3 1 5 -18 5 -19 0 -27 -2 -17 -5z"/><path d="M1053 43 c9 -2 25 -2 35 0 9 3 1 5 -18 5 -19 0 -27 -2 -17 -5z"/><path d="M1153 43 c9 -2 25 -2 35 0 9 3 1 5 -18 5 -19 0 -27 -2 -17 -5z"/></g><g transform="translate(0.000000,62.000000) scale(0.100000,-0.100000)" fill="#FFFFFF" stroke="none"><path d="M0 310 l0 -310 1500 0 1500 0 -1 158 c-1 130 -13 300 -18 255 0 -8 -16 -13 -41 -13 -28 0 -40 -4 -40 -14 0 -19 17 -29 25 -16 8 13 45 13 45 0 0 -17 -39 -50 -59 -50 -37 0 -54 29 -49 82 5 52 37 98 69 98 28 0 49 -11 49 -27 0 -8 5 -11 10 -8 6 3 10 40 10 81 l0 74 -1500 0 -1500 0 0 -310z m340 239 c60 -27 88 -54 116 -114 82 -173 -65 -362 -255 -330 -102 17 -191 124 -191 229 0 55 27 126 63 165 61 66 182 89 267 50z m410 -34 c-4 -22 -13 -73 -20 -112 l-12 -73 -38 0 c-37 0 -38 1 -46 48 l-7 47 -10 -47 c-9 -46 -11 -48 -43 -48 -19 0 -34 3 -34 7 0 8 28 167 36 201 4 20 10 23 42 20 33 -3 37 -6 40 -33 5 -47 19 -50 26 -6 5 34 10 40 34 43 38 5 42 -1 32 -47z m102 9 l-3 -39 23 39 c20 33 28 39 61 41 20 1 37 -1 37 -4 0 -4 -15 -29 -34 -57 l-35 -52 14 -53 c19 -72 20 -69 -24 -69 -41 0 -50 10 -52 58 -1 20 -2 22 -6 7 -2 -11 -6 -30 -9 -42 -4 -19 -11 -23 -45 -23 -34 0 -40 3 -35 18 2 9 12 58 21 107 20 116 17 110 56 109 33 -1 34 -2 31 -40z m262 25 c14 -11 26 -26 26 -34 0 -16 -42 -27 -75 -19 -20 5 -26 1 -35 -21 -15 -40 -13 -85 5 -85 17 0 20 17 4 22 -6 2 -8 14 -4 31 6 24 12 27 50 27 24 0 46 -4 49 -8 3 -5 0 -27 -6 -50 -31 -125 -188 -122 -188 3 0 120 97 195 174 134z m182 8 c3 -3 3 -19 -1 -36 -6 -27 -9 -29 -30 -21 -36 14 -42 -7 -11 -39 31 -33 34 -79 7 -112 -16 -20 -28 -24 -74 -24 -31 0 -58 3 -61 6 -3 3 -3 20 0 37 6 28 9 30 40 25 42 -7 44 7 9 49 -54 64 -12 135 73 125 24 -2 45 -7 48 -10z m394 -7 c24 -24 26 -56 3 -64 -15 -6 -27 4 -36 28 -6 16 -44 -4 -55 -30 -7 -14 -12 -43 -12 -65 0 -52 24 -63 54 -26 14 18 26 23 35 18 31 -19 -28 -91 -75 -91 -32 0 -64 45 -63 89 2 112 92 198 149 141z m-229 0 c23 -13 25 -56 4 -80 -12 -13 -13 -22 -3 -48 11 -28 10 -35 -8 -59 -19 -26 -27 -28 -98 -31 -75 -3 -77 -2 -72 20 3 13 10 52 16 88 21 131 14 120 81 120 33 0 69 -5 80 -10z m1194 -20 c-4 -19 -3 -30 4 -30 6 0 11 -9 11 -20 0 -11 -6 -20 -14 -20 -19 0 -33 -79 -16 -90 18 -11 2 -50 -19 -50 -32 0 -42 23 -32 76 5 27 7 61 4 77 -3 16 -1 27 6 27 6 0 11 6 11 14 0 12 35 46 48 46 2 0 1 -13 -3 -30z m85 21 c0 -23 -14 -41 -31 -41 -20 0 -23 8 -13 34 6 17 44 23 44 7z m-904 -76 c22 -34 11 -90 -26 -127 -51 -50 -100 -27 -100 48 0 85 86 139 126 79z m224 6 c27 -51 -5 -144 -54 -157 -32 -8 -64 11 -72 41 -5 20 -12 25 -40 25 -30 0 -34 3 -34 25 0 22 4 25 34 25 24 0 36 -5 39 -17 4 -15 5 -14 6 3 3 57 97 100 121 55z m151 -3 c34 -63 -43 -192 -88 -147 -7 7 -12 -2 -17 -30 -5 -33 -10 -41 -27 -41 -17 0 -20 5 -16 23 3 12 13 65 22 119 l17 96 49 0 c39 1 51 -3 60 -20z m129 3 c5 -11 10 -33 10 -50 0 -30 -1 -31 -45 -31 -33 0 -45 -4 -45 -14 0 -21 20 -30 33 -17 13 13 47 15 47 2 0 -14 -50 -51 -70 -51 -9 0 -25 9 -35 20 -22 24 -14 96 16 134 25 32 73 35 89 7z m123 13 c10 -10 -12 -44 -29 -44 -16 0 -34 -39 -34 -74 0 -31 -26 -64 -39 -51 -8 8 -6 34 4 89 8 43 15 80 15 82 0 7 76 5 83 -2z m105 -11 c6 -11 5 -45 -2 -87 -11 -66 -26 -90 -41 -67 -4 7 -12 7 -25 -2 -24 -15 -54 0 -58 30 -4 25 33 71 60 75 25 4 37 28 14 28 -9 0 -16 -4 -16 -10 0 -12 -27 -13 -34 -2 -3 5 2 18 10 30 19 28 79 31 92 5z m158 0 c-3 -10 -10 -49 -17 -86 -10 -63 -28 -91 -46 -73 -6 5 15 153 24 169 2 4 13 7 24 7 15 0 19 -5 15 -17z m55 -10 c1 -59 13 -65 33 -18 12 31 24 45 37 45 10 0 19 -2 19 -5 0 -2 -18 -43 -39 -90 -24 -52 -46 -85 -55 -85 -21 0 -23 6 -31 98 -7 79 -6 82 14 82 16 0 21 -6 22 -27z m-1118 -208 c-1 -11 -9 -66 -19 -122 l-17 -101 -51 0 c-29 -1 -54 4 -58 11 -15 24 -8 102 13 136 17 29 24 33 54 29 31 -3 35 -1 35 18 0 35 11 55 29 52 9 -2 15 -12 14 -23z m-985 -1 c28 -19 28 -57 2 -82 -18 -17 -19 -20 -5 -32 22 -18 19 -45 -9 -77 -21 -24 -32 -28 -95 -31 -39 -2 -71 0 -71 4 0 11 28 180 35 212 5 20 11 22 63 22 36 0 66 -6 80 -16z m462 4 c0 -7 -5 -31 -10 -53 -9 -40 -9 -40 10 -17 13 16 29 22 56 22 l38 0 -30 -32 c-30 -32 -30 -34 -18 -73 21 -67 19 -77 -18 -73 -24 2 -34 9 -36 23 -7 36 -21 40 -28 7 -6 -27 -11 -32 -35 -32 -35 0 -36 9 -13 130 21 114 19 110 54 110 17 0 30 -5 30 -12z m204 -60 c-7 -40 -16 -83 -19 -95 -5 -21 -2 -23 40 -23 45 0 50 -5 39 -34 -5 -12 -21 -16 -71 -16 -62 0 -65 1 -60 23 3 12 13 66 22 120 16 89 19 97 40 97 l23 0 -14 -72z m154 42 c-3 -20 0 -30 9 -30 19 0 16 -16 -6 -37 -20 -20 -38 -103 -21 -103 5 0 10 -9 10 -20 0 -16 -7 -20 -30 -20 l-30 0 3 85 c2 48 8 90 15 97 7 7 12 16 12 21 0 9 29 36 39 37 2 0 1 -13 -1 -30z m-640 -50 c4 -11 3 -52 -2 -90 -9 -68 -11 -70 -38 -70 -15 0 -28 5 -28 12 0 9 -3 9 -12 0 -22 -22 -67 -14 -80 13 -16 35 11 71 62 85 22 6 40 15 40 21 0 6 -7 6 -19 -1 -23 -12 -71 -14 -71 -2 0 4 7 18 16 30 12 18 25 22 70 22 46 0 56 -3 62 -20z m173 4 c9 -11 8 -30 -2 -86 -14 -72 -15 -73 -48 -76 -28 -3 -32 -1 -28 15 3 10 9 38 12 62 11 66 -17 48 -30 -20 -10 -51 -12 -54 -40 -54 -17 0 -29 5 -29 10 1 6 7 45 14 87 l13 77 63 0 c42 0 66 -5 75 -15z m769 -106 l0 -23 21 25 c14 17 22 21 26 12 2 -6 9 -10 14 -6 5 3 9 -5 9 -18 l1 -23 12 23 c7 12 16 19 20 16 4 -4 7 -2 7 4 0 7 15 11 34 10 24 -1 33 -5 29 -15 -3 -8 2 -13 15 -13 12 0 24 -4 27 -10 3 -5 11 -10 18 -10 6 0 3 6 -8 13 -10 8 -15 19 -11 26 7 11 61 13 80 2 16 -8 57 -7 62 1 3 5 11 5 17 1 7 -4 21 -7 32 -8 13 0 21 -8 23 -23 2 -12 0 -23 -5 -23 -43 -7 -211 -4 -220 3 -7 6 -21 7 -30 2 -29 -12 -117 -13 -125 0 -5 7 -8 7 -8 0 0 -15 -40 -10 -51 7 -7 12 -9 11 -9 -2 0 -18 -26 -33 -41 -23 -26 16 2 74 36 74 19 0 25 -5 25 -22z m520 11 c0 -6 -7 -8 -17 -4 -14 5 -15 4 -6 -6 10 -10 15 -9 27 1 9 7 22 10 30 7 8 -3 16 -1 18 5 3 8 11 7 26 -1 13 -7 31 -9 42 -6 10 3 21 1 24 -4 4 -6 18 -3 37 6 32 16 44 11 52 -22 5 -19 5 -19 12 2 4 13 11 20 16 17 5 -3 9 0 9 5 0 6 5 11 11 11 6 0 9 -7 5 -15 -4 -12 -2 -13 16 -2 15 9 22 9 25 1 3 -9 13 -8 34 3 37 18 44 13 32 -24 -9 -28 -53 -47 -53 -23 0 7 -5 8 -12 3 -7 -4 -65 -8 -128 -8 -107 -1 -115 1 -122 20 -6 20 -6 20 -13 -1 -6 -19 -13 -21 -63 -19 -72 3 -72 3 -72 15 0 6 12 8 28 5 25 -5 25 -5 5 4 -36 16 -28 41 14 41 13 0 23 -5 23 -11z m482 -14 c-2 -18 -1 -18 8 -3 8 14 22 17 60 14 28 -2 50 0 50 5 0 5 5 9 11 9 5 0 7 -4 4 -10 -8 -14 8 -13 22 1 28 28 44 -22 19 -56 -14 -19 -15 -19 -35 -1 -12 11 -21 14 -21 8 0 -19 -24 -9 -32 13 -6 19 -6 19 -13 -2 -6 -19 -14 -21 -71 -21 -67 0 -75 8 -58 53 10 25 60 16 56 -10z m-2542 -31 c0 -22 -3 -23 -67 -21 -54 2 -68 6 -71 19 -3 14 6 17 45 20 26 2 58 4 71 4 17 2 22 -3 22 -22z m1440 17 c0 -23 -14 -41 -31 -41 -20 0 -23 8 -13 34 6 17 44 23 44 7z m-1330 -8 c-1 -41 -99 -41 -100 0 0 4 23 7 50 7 28 0 50 -3 50 -7z"/><path d="M160 534 c-79 -34 -130 -111 -130 -196 1 -231 305 -302 411 -96 21 40 26 129 10 171 -15 38 -70 96 -112 118 -46 23 -129 25 -179 3z m108 -19 c7 -14 12 -42 12 -61 0 -22 6 -37 15 -40 8 -4 15 -17 15 -30 0 -15 6 -24 15 -24 21 0 19 -18 -4 -32 -19 -11 -18 -13 10 -30 16 -10 29 -23 29 -29 0 -6 9 -24 21 -40 l20 -29 -38 -1 c-21 -1 -30 -3 -20 -6 9 -2 17 -10 17 -18 0 -16 -59 -26 -82 -13 -10 5 -18 5 -18 1 0 -13 -123 1 -128 15 -3 9 19 12 89 12 51 0 89 3 86 7 -4 4 -55 5 -112 4 l-105 -3 11 26 c7 14 16 26 21 26 4 0 8 9 8 19 0 12 11 23 31 30 l31 11 -29 24 c-27 25 -27 25 -5 26 15 0 22 6 22 19 0 10 7 24 15 31 8 7 15 28 15 47 0 30 25 82 41 83 3 0 11 -11 17 -25z"/><path d="M165 230 c4 -6 11 -8 16 -5 14 9 11 15 -7 15 -8 0 -12 -5 -9 -10z"/><path d="M210 232 c0 -4 18 -6 40 -4 22 2 40 6 40 8 0 2 -18 4 -40 4 -22 0 -40 -3 -40 -8z"/><path d="M1386 495 c-3 -9 0 -15 9 -15 16 0 20 16 6 24 -5 3 -11 -1 -15 -9z"/><path d="M1370 399 c0 -11 5 -17 10 -14 6 3 10 13 10 21 0 8 -4 14 -10 14 -5 0 -10 -9 -10 -21z"/><path d="M1760 441 c-17 -33 -13 -71 9 -71 21 0 44 50 35 75 -8 21 -31 19 -44 -4z"/><path d="M1993 448 c-15 -19 -22 -54 -13 -68 12 -19 39 -4 46 25 11 44 -11 71 -33 43z"/><path d="M2142 448 c-14 -14 -16 -74 -3 -82 14 -9 30 17 33 54 3 35 -10 48 -30 28z"/><path d="M2277 453 c-13 -12 -7 -23 13 -23 11 0 20 7 20 15 0 15 -21 21 -33 8z"/><path d="M2491 386 c-8 -10 -9 -16 -1 -21 13 -8 30 3 30 21 0 18 -14 18 -29 0z"/><path d="M1560 161 c-15 -30 -13 -81 5 -81 19 0 35 31 35 69 0 36 -23 42 -40 12z"/><path d="M600 205 c0 -8 5 -15 10 -15 6 0 10 7 10 15 0 8 -4 15 -10 15 -5 0 -10 -7 -10 -15z"/><path d="M587 119 c-3 -13 -1 -19 6 -16 15 5 22 37 9 37 -5 0 -12 -9 -15 -21z"/><path d="M770 110 c-8 -5 -11 -12 -7 -16 4 -4 13 -2 19 4 15 15 7 24 -12 12z"/><path d="M1757 93 c-4 -3 -7 -16 -6 -27 0 -19 1 -19 10 3 10 24 8 36 -4 24z"/><path d="M2080 79 c0 -5 5 -7 10 -4 6 3 10 8 10 11 0 2 -4 4 -10 4 -5 0 -10 -5 -10 -11z"/><path d="M2330 80 c0 -5 5 -10 10 -10 6 0 10 5 10 10 0 6 -4 10 -10 10 -5 0 -10 -4 -10 -10z"/><path d="M2490 80 c0 -5 5 -10 10 -10 6 0 10 5 10 10 0 6 -4 10 -10 10 -5 0 -10 -4 -10 -10z"/><path d="M2675 80 c-3 -5 -1 -10 4 -10 6 0 11 5 11 10 0 6 -2 10 -4 10 -3 0 -8 -4 -11 -10z"/><path d="M2957 96 c-4 -10 -5 -21 -2 -24 9 -9 17 6 13 25 -3 17 -4 17 -11 -1z"/><path d="M2917 454 c-13 -13 -7 -24 14 -24 11 0 19 5 17 12 -5 14 -22 21 -31 12z"/></g></svg>