<svg version="1.0" xmlns="http://www.w3.org/2000/svg" width="300.000000" height="103.000000" viewBox="0 0 300.000000 103.000000" preserveAspectRatio="xMidYMid meet"><rect x="33" y="5" width="18" height="7" fill="rgb(0,188,254)" /><rect x="50" y="5" width="18" height="7" fill="rgb(0,188,254)" /><rect x="135" y="5" width="18" height="7" fill="rgb(40,30,132)" /><rect x="152" y="5" width="18" height="7" fill="rgb(40,30,132)" /><rect x="203" y="5" width="18" height="7" fill="rgb(40,30,132)" /><rect x="220" y="5" width="18" height="7" fill="rgb(40,30,132)" /><rect x="33" y="11" width="18" height="7" fill="rgb(0,188,254)" /><rect x="50" y="11" width="18" height="7" fill="rgb(0,188,254)" /><rect x="67" y="11" width="18" height="7" fill="rgb(0,188,254)" /><rect x="135" y="11" width="18" height="7" fill="rgb(40,30,132)" /><rect x="152" y="11" width="18" height="7" fill="rgb(40,30,132)" /><rect x="203" y="11" width="18" height="7" fill="rgb(40,30,132)" /><rect x="220" y="11" width="18" height="7" fill="rgb(40,30,132)" /><rect x="237" y="11" width="18" height="7" fill="rgb(40,30,132)" /><rect x="16" y="17" width="18" height="7" fill="rgb(0,188,254)" /><rect x="33" y="17" width="18" height="7" fill="rgb(0,188,254)" /><rect x="50" y="17" width="18" height="7" fill="rgb(0,188,254)" /><rect x="67" y="17" width="18" height="7" fill="rgb(0,188,254)" /><rect x="16" y="23" width="18" height="7" fill="rgb(0,188,254)" /><rect x="33" y="23" width="18" height="7" fill="rgb(0,188,254)" /><rect x="50" y="23" width="18" height="7" fill="rgb(0,188,254)" /><rect x="67" y="23" width="18" height="7" fill="rgb(0,188,254)" /><rect x="16" y="29" width="18" height="7" fill="rgb(0,188,254)" /><rect x="33" y="29" width="18" height="7" fill="rgb(0,188,254)" /><rect x="50" y="29" width="18" height="7" fill="rgb(0,188,254)" /><rect x="67" y="29" width="18" height="7" fill="rgb(0,188,254)" /><rect x="16" y="35" width="18" height="7" fill="rgb(0,188,254)" /><rect x="67" y="35" width="18" height="7" fill="rgb(0,188,254)" /><rect x="16" y="41" width="18" height="7" fill="rgb(0,188,254)" /><rect x="67" y="41" width="18" height="7" fill="rgb(0,188,254)" /><rect x="84" y="41" width="18" height="7" fill="rgb(0,188,254)" /><rect x="135" y="41" width="18" height="7" fill="rgb(40,30,132)" /><rect x="237" y="41" width="18" height="7" fill="rgb(40,30,132)" /><rect x="0" y="47" width="18" height="7" fill="rgb(0,188,254)" /><rect x="16" y="47" width="18" height="7" fill="rgb(0,188,254)" /><rect x="67" y="47" width="18" height="7" fill="rgb(0,188,254)" /><rect x="84" y="47" width="18" height="7" fill="rgb(0,188,254)" /><rect x="135" y="47" width="18" height="7" fill="rgb(40,30,132)" /><rect x="152" y="47" width="18" height="7" fill="rgb(40,30,132)" /><rect x="237" y="47" width="18" height="7" fill="rgb(40,30,132)" /><rect x="0" y="53" width="18" height="7" fill="rgb(0,188,254)" /><rect x="16" y="53" width="18" height="7" fill="rgb(0,188,254)" /><rect x="67" y="53" width="18" height="7" fill="rgb(0,188,254)" /><rect x="84" y="53" width="18" height="7" fill="rgb(0,188,254)" /><rect x="152" y="53" width="18" height="7" fill="rgb(40,30,132)" /><rect x="237" y="53" width="18" height="7" fill="rgb(40,30,132)" /><rect x="16" y="59" width="18" height="7" fill="rgb(0,188,254)" /><rect x="67" y="59" width="18" height="7" fill="rgb(0,188,254)" /><rect x="16" y="65" width="18" height="7" fill="rgb(0,188,254)" /><rect x="67" y="65" width="18" height="7" fill="rgb(0,188,254)" /><rect x="16" y="71" width="18" height="7" fill="rgb(0,188,254)" /><rect x="67" y="71" width="18" height="7" fill="rgb(0,188,254)" /><rect x="169" y="71" width="18" height="7" fill="rgb(40,30,132)" /><rect x="16" y="77" width="18" height="7" fill="rgb(0,188,254)" /><rect x="67" y="77" width="18" height="7" fill="rgb(0,188,254)" /><rect x="16" y="83" width="18" height="7" fill="rgb(0,188,254)" /><rect x="67" y="83" width="18" height="7" fill="rgb(0,188,254)" /><rect x="135" y="83" width="18" height="7" fill="rgb(40,30,132)" /><rect x="152" y="83" width="18" height="7" fill="rgb(40,30,132)" /><rect x="203" y="83" width="18" height="7" fill="rgb(40,30,132)" /><rect x="220" y="83" width="18" height="7" fill="rgb(40,30,132)" /><rect x="237" y="83" width="18" height="7" fill="rgb(40,30,132)" /><rect x="135" y="89" width="18" height="7" fill="rgb(40,30,132)" /><rect x="152" y="89" width="18" height="7" fill="rgb(40,30,132)" /><rect x="203" y="89" width="18" height="7" fill="rgb(40,30,132)" /><rect x="220" y="89" width="18" height="7" fill="rgb(40,30,132)" /><rect x="237" y="89" width="18" height="7" fill="rgb(40,30,132)" /><g transform="translate(0.000000,103.000000) scale(0.100000,-0.100000)" fill="#2C1F85" stroke="none"><path d="M1423 1011 c-145 -50 -236 -178 -220 -313 14 -118 71 -176 262 -268 144 -69 185 -102 185 -144 -1 -65 -99 -98 -197 -65 -41 13 -137 70 -148 89 -7 12 -125 -144 -125 -166 0 -19 71 -71 147 -107 65 -31 73 -32 193 -32 117 0 129 2 182 28 186 91 227 336 80 469 -43 39 -107 74 -226 123 -118 50 -155 107 -103 159 52 52 173 38 261 -29 l45 -34 24 42 c14 23 36 65 51 94 l26 52 -32 26 c-100 85 -282 119 -405 76z"/><path d="M1960 516 l0 -506 206 0 c231 0 312 12 387 60 85 54 127 136 127 249 0 81 -33 157 -86 198 l-35 26 20 21 c37 39 64 115 63 180 0 82 -24 137 -82 189 -77 70 -119 79 -377 85 l-223 4 0 -506z m413 293 c51 -23 64 -113 22 -154 -19 -20 -34 -25 -75 -25 l-50 0 0 -95 0 -95 33 0 c93 0 157 -50 157 -122 0 -32 -7 -47 -34 -74 l-34 -34 -106 0 -106 0 0 305 0 305 85 0 c46 0 95 -5 108 -11z"/><path d="M2770 515 l0 -505 115 0 115 0 0 505 0 504 -115 0 -115 0 0 -504z"/></g><g transform="translate(0.000000,103.000000) scale(0.100000,-0.100000)" fill="#00BFFF" stroke="none"><path d="M386 1019 c-75 -18 -170 -73 -231 -134 -253 -253 -188 -678 128 -834 46 -22 105 -43 135 -47 l52 -7 0 189 0 189 -30 17 c-31 18 -70 86 -70 123 0 11 9 38 19 61 24 53 91 89 147 78 122 -23 163 -183 64 -252 l-39 -27 -1 -189 0 -189 43 7 c170 26 330 160 398 333 29 75 36 221 14 307 -46 178 -181 315 -364 370 -60 18 -200 20 -265 5z"/></g></svg>