<svg version="1.0" xmlns="http://www.w3.org/2000/svg" width="142.000000" height="56.000000" viewBox="0 0 142.000000 56.000000" preserveAspectRatio="xMidYMid meet"><rect x="11" y="4" width="13" height="6" fill="rgb(0,118,254)" /><g transform="translate(0.000000,56.000000) scale(0.100000,-0.100000)" fill="#1FDF00" stroke="none"><path d="M278 443 c6 -2 18 -2 25 0 6 3 1 5 -13 5 -14 0 -19 -2 -12 -5z"/><path d="M210 380 c35 -24 54 -31 30 -11 -14 11 -29 21 -35 21 -5 0 -3 -5 5 -10z"/><path d="M278 343 c7 -3 16 -2 19 1 4 3 -2 6 -13 5 -11 0 -14 -3 -6 -6z"/><path d="M15 173 c15 -16 253 -173 262 -173 4 0 -42 33 -102 73 -133 89 -173 114 -160 100z"/><path d="M320 10 c-9 -6 -10 -10 -3 -10 6 0 15 5 18 10 8 12 4 12 -15 0z"/></g><g transform="translate(0.000000,56.000000) scale(0.100000,-0.100000)" fill="#26DF00" stroke="none"><path d="M232 419 l-33 -22 35 -23 c41 -28 68 -30 90 -8 19 18 20 28 6 55 -14 25 -56 24 -98 -2z"/><path d="M10 265 c-24 -63 -17 -71 140 -175 105 -69 144 -90 159 -85 26 8 43 38 35 60 -8 20 -179 137 -188 128 -3 -4 -6 -2 -6 4 0 9 -15 21 -102 77 -28 18 -28 18 -38 -9z"/></g><g transform="translate(0.000000,56.000000) scale(0.100000,-0.100000)" fill="#525259" stroke="none"><path d="M1019 403 c-1 -27 0 -59 1 -72 1 -18 -2 -22 -15 -18 -9 4 -14 3 -10 -3 3 -6 13 -10 21 -10 11 0 14 16 14 75 0 82 -9 105 -11 28z"/><path d="M1330 430 c0 -11 -6 -18 -12 -16 -7 1 -9 1 -4 -2 4 -2 3 -8 -4 -12 -8 -5 -7 -9 5 -13 9 -4 13 -3 10 3 -3 6 -2 10 4 10 5 0 12 10 14 23 2 12 5 -8 6 -45 1 -56 -2 -66 -14 -62 -8 4 -13 9 -10 14 2 4 -8 5 -23 2 l-27 -6 25 -8 c18 -6 14 -7 -15 -3 -27 3 -35 1 -25 -5 8 -5 34 -9 57 -8 l43 1 0 73 c0 59 -3 74 -15 74 -8 0 -15 -9 -15 -20z"/><path d="M495 410 c-3 -6 1 -7 9 -4 18 7 21 14 7 14 -6 0 -13 -4 -16 -10z"/><path d="M538 413 c7 -3 16 -2 19 1 4 3 -2 6 -13 5 -11 0 -14 -3 -6 -6z"/><path d="M605 411 c-3 -5 0 -13 6 -17 8 -4 9 -3 5 4 -4 7 -1 12 8 12 9 0 18 -11 22 -25 4 -14 8 -24 11 -22 2 3 1 16 -3 31 -6 26 -36 36 -49 17z"/><path d="M740 409 c0 -5 5 -7 10 -4 6 4 10 -13 10 -45 0 -32 -4 -49 -10 -45 -5 3 -10 1 -10 -4 0 -6 7 -11 15 -11 12 0 15 13 15 60 0 47 -3 60 -15 60 -8 0 -15 -5 -15 -11z"/><path d="M790 416 c0 -10 28 -13 41 -5 10 6 7 9 -13 9 -16 0 -28 -2 -28 -4z"/><path d="M919 403 c-12 -16 -12 -17 1 -7 8 6 22 14 30 17 13 5 12 6 -1 6 -9 1 -23 -7 -30 -16z"/><path d="M979 412 c7 -6 9 -11 3 -13 -6 -2 -4 -9 4 -17 12 -11 13 -9 11 10 -2 12 -10 24 -18 26 -12 3 -12 2 0 -6z"/><path d="M1111 410 c8 -6 8 -9 -2 -12 -9 -3 -8 -6 5 -11 9 -4 15 -3 12 2 -3 5 1 11 9 15 12 4 15 -4 15 -44 0 -40 -3 -48 -15 -44 -8 4 -12 10 -9 15 3 5 -2 6 -11 2 -14 -5 -14 -8 -3 -15 8 -6 -1 -8 -27 -4 -27 4 -35 2 -25 -4 8 -5 34 -9 57 -8 l43 1 0 58 0 58 -31 -1 c-17 -1 -25 -4 -18 -8z"/><path d="M1191 410 c10 -7 49 -2 49 5 0 2 -14 3 -31 3 -17 -1 -25 -4 -18 -8z"/><path d="M724 388 c24 -19 17 -50 -14 -60 l-25 -7 24 2 c46 4 54 62 10 75 -8 2 -6 -2 5 -10z"/><path d="M1232 386 c7 -8 15 -12 17 -11 5 6 -10 25 -20 25 -5 0 -4 -6 3 -14z"/><path d="M672 360 c0 -14 2 -19 5 -12 2 6 2 18 0 25 -3 6 -5 1 -5 -13z"/><path d="M808 349 c3 -20 0 -34 -9 -40 -11 -7 -10 -9 4 -9 13 0 17 9 17 40 0 22 -4 40 -8 40 -5 0 -6 -14 -4 -31z"/><path d="M497 359 c7 -7 15 -10 18 -7 3 3 -2 9 -12 12 -14 6 -15 5 -6 -5z"/><path d="M890 341 c0 -16 -6 -32 -12 -34 -8 -4 -7 -6 3 -6 18 -1 33 56 17 65 -4 3 -8 -8 -8 -25z"/><path d="M533 335 c0 -8 4 -12 9 -9 5 3 6 10 3 15 -9 13 -12 11 -12 -6z"/><path d="M561 334 c0 -11 3 -14 6 -6 3 7 2 16 -1 19 -3 4 -6 -2 -5 -13z"/><path d="M650 341 c0 -9 -8 -12 -25 -9 -31 6 -32 0 -2 -12 21 -8 21 -9 -5 -9 -14 -1 -29 4 -31 9 -3 6 -4 5 -3 -2 4 -19 55 -22 62 -4 5 14 8 14 21 1 8 -8 26 -14 41 -14 l27 2 -27 4 c-15 2 -35 14 -43 26 -8 12 -15 16 -15 8z"/><path d="M910 334 c0 -19 28 -36 52 -31 21 4 20 4 -4 6 -15 0 -32 9 -37 19 -6 9 -11 12 -11 6z"/><path d="M938 328 c6 -6 18 -8 28 -6 14 3 12 5 -9 10 -19 3 -25 2 -19 -4z"/><path d="M483 320 c2 -9 17 -16 38 -16 31 -2 31 -1 4 3 -16 3 -34 10 -38 16 -6 8 -7 7 -4 -3z"/><path d="M922 275 c-4 -9 -22 -17 -38 -18 -28 -2 -29 -4 -32 -60 -2 -46 0 -57 13 -57 11 0 15 10 14 38 l-2 37 -7 -35 c-7 -32 -7 -30 -9 19 -1 51 0 53 14 35 9 -10 14 -13 13 -5 -2 7 3 16 11 19 8 3 11 0 7 -7 -4 -6 -2 -11 3 -11 6 0 12 -15 13 -32 1 -19 4 -8 8 27 l7 60 2 -55 c3 -51 4 -53 11 -21 4 18 14 38 22 43 10 8 9 9 -4 4 -12 -3 -18 0 -18 9 0 21 -18 27 -28 10z"/><path d="M533 253 c9 -2 23 -2 30 0 6 3 -1 5 -18 5 -16 0 -22 -2 -12 -5z"/><path d="M626 251 c-3 -4 6 -6 19 -3 14 2 33 -2 43 -9 15 -13 16 -12 3 4 -14 18 -56 23 -65 8z"/><path d="M729 243 c-12 -16 -12 -17 1 -6 8 6 26 13 40 16 l25 4 -26 2 c-15 0 -33 -7 -40 -16z"/><path d="M805 250 c-3 -6 1 -7 9 -4 18 7 21 14 7 14 -6 0 -13 -4 -16 -10z"/><path d="M1009 243 c-11 -15 -11 -16 1 -5 22 19 35 14 17 -6 -21 -23 -13 -32 25 -32 31 0 40 26 12 37 -13 5 -13 7 -2 14 9 6 5 9 -13 9 -15 0 -33 -8 -40 -17z m61 -23 c0 -5 -12 -10 -26 -10 -14 0 -23 4 -19 10 3 6 15 10 26 10 10 0 19 -4 19 -10z"/><path d="M1120 256 c0 -2 7 -7 16 -10 8 -3 12 -2 9 4 -6 10 -25 14 -25 6z"/><path d="M1160 246 c0 -8 7 -17 16 -20 13 -5 14 -4 6 7 -7 8 -9 17 -5 20 3 4 1 7 -5 7 -7 0 -12 -6 -12 -14z"/><path d="M1230 253 c14 -3 32 -10 40 -16 13 -11 13 -10 1 6 -7 9 -25 16 -40 16 l-26 -2 25 -4z"/><path d="M1338 253 c6 -2 18 -2 25 0 6 3 1 5 -13 5 -14 0 -19 -2 -12 -5z"/><path d="M530 236 c0 -2 11 -6 25 -8 13 -3 22 -1 19 3 -5 9 -44 13 -44 5z"/><path d="M650 233 c8 -3 19 -11 23 -17 6 -7 7 -6 4 4 -2 8 -12 16 -23 17 -13 2 -15 1 -4 -4z"/><path d="M746 231 c-3 -4 6 -6 19 -3 17 3 27 -1 31 -12 3 -9 10 -13 16 -10 12 8 -22 33 -44 34 -9 0 -19 -4 -22 -9z"/><path d="M1207 233 c-3 -5 8 -8 23 -8 15 0 26 3 23 8 -2 4 -13 7 -23 7 -10 0 -21 -3 -23 -7z"/><path d="M1350 233 c8 -3 22 -11 30 -17 13 -10 13 -9 1 7 -7 9 -21 17 -30 16 -13 0 -14 -1 -1 -6z"/><path d="M991 198 c0 -14 -7 -29 -13 -31 -10 -4 -10 -6 0 -6 7 -1 11 -4 9 -8 -3 -5 8 -8 24 -9 28 -1 28 0 10 13 -11 7 -22 26 -24 41 l-4 27 -2 -27z"/><path d="M1280 206 c0 -8 5 -18 10 -21 6 -3 10 1 10 9 0 8 -4 18 -10 21 -5 3 -10 -1 -10 -9z"/><path d="M711 194 c-1 -20 27 -54 45 -54 4 0 -1 7 -13 15 -12 8 -24 25 -26 38 -4 21 -4 21 -6 1z"/><path d="M1213 203 c9 -2 25 -2 35 0 9 3 1 5 -18 5 -19 0 -27 -2 -17 -5z"/><path d="M1010 186 c0 -2 8 -10 18 -17 15 -13 16 -12 3 4 -13 16 -21 21 -21 13z"/><path d="M1370 170 c-13 -9 -13 -10 0 -10 12 0 12 -2 1 -9 -9 -6 -5 -8 14 -8 23 0 25 1 11 9 -9 5 -14 13 -11 19 8 11 4 11 -15 -1z"/><path d="M502 154 c9 -9 21 -15 27 -13 6 2 -2 10 -17 17 -25 11 -25 11 -10 -4z"/><path d="M1192 154 c9 -9 21 -15 27 -13 6 2 -2 10 -17 17 -25 11 -25 11 -10 -4z"/><path d="M1259 161 c9 -6 10 -10 2 -14 -8 -4 -8 -5 1 -3 20 4 21 26 1 26 -14 0 -15 -2 -4 -9z"/><path d="M1312 154 c10 -10 20 -16 22 -13 3 3 -5 11 -17 18 -21 13 -21 12 -5 -5z"/><path d="M791 150 c-9 -5 -4 -7 13 -7 29 0 32 2 13 10 -8 3 -20 2 -26 -3z"/></g><g transform="translate(0.000000,56.000000) scale(0.100000,-0.100000)" fill="#525959" stroke="none"><path d="M594 375 c1 -53 3 -60 21 -61 14 -1 15 0 3 3 -13 3 -18 18 -21 61 l-3 57 0 -60z"/><path d="M1006 408 c-3 -17 -2 -36 4 -42 7 -7 10 4 10 32 0 50 -5 54 -14 10z"/><path d="M1340 420 c0 -16 -5 -19 -30 -14 -18 4 -36 1 -45 -6 -18 -15 -20 -61 -3 -78 15 -15 55 -16 64 -1 4 8 9 7 15 -2 5 -9 9 12 9 54 0 37 -2 67 -5 67 -3 0 -5 -9 -5 -20z m-6 -42 c16 -26 -4 -53 -40 -53 -23 0 -30 5 -32 23 -2 13 -1 30 2 38 8 20 56 14 70 -8z"/><path d="M500 399 c0 -5 5 -7 10 -4 6 3 10 8 10 11 0 2 -4 4 -10 4 -5 0 -10 -5 -10 -11z"/><path d="M618 403 c7 -3 16 -2 19 1 4 3 -2 6 -13 5 -11 0 -14 -3 -6 -6z"/><path d="M676 402 c-3 -5 8 -6 25 -4 16 2 29 6 29 8 0 8 -49 4 -54 -4z"/><path d="M747 404 c-3 -4 -4 -18 -1 -33 7 -32 -14 -54 -48 -49 -16 2 -25 12 -29 33 -6 29 -7 29 -8 4 -1 -35 18 -50 63 -47 36 3 36 3 36 51 0 47 -2 52 -13 41z"/><path d="M800 391 c0 -12 3 -12 12 -3 22 22 57 14 64 -13 3 -14 4 -32 1 -40 -4 -8 -2 -17 3 -20 13 -8 13 51 -1 76 -13 24 -79 24 -79 0z"/><path d="M926 394 c-32 -32 -8 -84 39 -84 13 0 27 5 31 11 4 8 9 7 15 -2 7 -11 9 -10 9 3 0 23 -16 32 -24 13 -7 -20 -50 -19 -66 0 -18 21 2 62 32 68 22 4 22 4 1 6 -12 0 -29 -6 -37 -15z"/><path d="M1060 395 c-6 -8 -10 -20 -7 -27 4 -8 6 -7 6 4 1 9 9 22 19 27 9 6 12 11 6 11 -6 0 -17 -7 -24 -15z"/><path d="M1119 393 c37 -25 21 -73 -26 -73 -12 0 -27 8 -32 18 -6 9 -11 12 -11 7 -1 -30 60 -48 76 -24 4 8 9 7 15 -2 6 -9 9 4 9 36 0 47 -2 50 -26 51 -25 2 -25 2 -5 -13z"/><path d="M1193 360 c0 -30 2 -43 4 -27 2 15 2 39 0 55 -2 15 -4 2 -4 -28z"/><path d="M514 365 c11 -8 23 -15 28 -15 20 0 5 -29 -17 -33 -23 -4 -23 -4 2 -3 41 2 42 31 1 51 -28 14 -30 14 -14 0z"/><path d="M802 340 c0 -19 2 -27 5 -17 2 9 2 25 0 35 -3 9 -5 1 -5 -18z"/><path d="M934 220 c1 -65 1 -65 31 -67 28 -2 28 -1 5 5 -22 7 -26 15 -31 67 l-6 60 1 -65z"/><path d="M1398 248 c0 -13 -1 -30 0 -38 2 -47 -69 -73 -83 -30 -9 27 12 60 37 60 12 0 19 3 15 6 -3 4 -17 4 -31 0 -53 -13 -41 -96 14 -96 16 0 32 5 36 11 4 8 9 7 15 -2 5 -9 9 10 9 49 0 59 -8 88 -12 40z"/><path d="M504 225 c-13 -21 -14 -30 -5 -48 l11 -22 -6 22 c-9 37 13 66 46 61 16 -2 27 -1 24 4 -11 18 -54 7 -70 -17z"/><path d="M622 238 c-6 -6 -12 -19 -11 -27 0 -10 4 -7 9 7 11 26 45 29 60 5 10 -16 10 -16 8 2 -4 24 -47 32 -66 13z"/><path d="M736 234 c-9 -8 -15 -25 -15 -37 1 -20 2 -21 6 -2 7 29 21 43 46 48 l22 4 -22 2 c-12 0 -29 -6 -37 -15z"/><path d="M862 200 c1 -42 2 -46 5 -18 3 24 12 43 26 53 12 8 16 15 10 15 -7 0 -15 -5 -19 -11 -4 -8 -9 -7 -15 2 -5 9 -8 -7 -7 -41z"/><path d="M1012 238 c-25 -25 -8 -89 23 -88 5 0 2 5 -7 11 -22 12 -23 52 -2 73 8 9 12 16 7 16 -5 0 -14 -5 -21 -12z"/><path d="M1063 239 c9 -5 17 -18 18 -27 0 -11 2 -12 6 -4 6 15 -14 42 -31 42 -6 0 -3 -5 7 -11z"/><path d="M1120 228 c0 -16 5 -28 10 -28 13 0 13 20 0 40 -8 12 -10 9 -10 -12z"/><path d="M1196 228 c-19 -27 -20 -38 -4 -38 6 0 8 3 5 6 -11 12 12 42 35 47 l23 4 -22 2 c-12 0 -29 -9 -37 -21z"/><path d="M1260 235 c0 -5 5 -17 10 -25 5 -8 10 -10 10 -5 0 6 -5 17 -10 25 -5 8 -10 11 -10 5z"/><path d="M809 190 c-3 -21 -9 -25 -41 -25 -20 0 -34 -3 -31 -7 6 -11 55 -10 71 1 8 4 12 19 10 32 l-4 24 -5 -25z"/><path d="M1122 170 c0 -14 2 -19 5 -12 2 6 2 18 0 25 -3 6 -5 1 -5 -13z"/><path d="M558 153 c7 -3 16 -2 19 1 4 3 -2 6 -13 5 -11 0 -14 -3 -6 -6z"/><path d="M1058 153 c7 -3 16 -2 19 1 4 3 -2 6 -13 5 -11 0 -14 -3 -6 -6z"/><path d="M1248 153 c7 -3 16 -2 19 1 4 3 -2 6 -13 5 -11 0 -14 -3 -6 -6z"/></g><g transform="translate(0.000000,56.000000) scale(0.100000,-0.100000)" fill="#595959" stroke="none"><path d="M584 436 c-3 -7 -4 -35 -2 -62 l3 -49 5 63 c5 63 4 73 -6 48z"/><path d="M1005 439 c-4 -6 -5 -12 -2 -15 2 -3 7 2 10 11 7 17 1 20 -8 4z"/><path d="M520 410 c0 -5 5 -10 11 -10 5 0 7 5 4 10 -3 6 -8 10 -11 10 -2 0 -4 -4 -4 -10z"/><path d="M665 399 c-10 -15 3 -25 16 -12 7 7 7 13 1 17 -6 3 -14 1 -17 -5z"/><path d="M793 360 c0 -30 2 -43 4 -27 2 15 2 39 0 55 -2 15 -4 2 -4 -28z"/><path d="M986 398 c3 -5 10 -6 15 -3 13 9 11 12 -6 12 -8 0 -12 -4 -9 -9z"/><path d="M1056 401 c-4 -5 -2 -12 3 -15 5 -4 12 -2 15 3 4 5 2 12 -3 15 -5 4 -12 2 -15 -3z"/><path d="M1183 360 c0 -30 2 -43 4 -27 2 15 2 39 0 55 -2 15 -4 2 -4 -28z"/><path d="M1207 403 c-4 -3 -7 -11 -7 -17 0 -6 5 -5 12 2 6 6 9 14 7 17 -3 3 -9 2 -12 -2z"/><path d="M1256 401 c-4 -5 -2 -12 3 -15 5 -4 12 -2 15 3 4 5 2 12 -3 15 -5 4 -12 2 -15 -3z"/><path d="M494 383 c2 -10 6 -17 10 -16 15 3 16 11 2 22 -12 10 -14 9 -12 -6z"/><path d="M874 376 c-3 -8 -4 -23 -2 -33 3 -11 6 -6 9 15 6 34 2 42 -7 18z"/><path d="M1000 361 c0 -6 4 -13 10 -16 6 -3 7 1 4 9 -7 18 -14 21 -14 7z"/><path d="M1040 354 c0 -8 5 -12 10 -9 6 4 8 11 5 16 -9 14 -15 11 -15 -7z"/><path d="M1241 354 c0 -11 3 -14 6 -6 3 7 2 16 -1 19 -3 4 -6 -2 -5 -13z"/><path d="M1056 332 c-3 -5 1 -9 9 -9 8 0 12 4 9 9 -3 4 -7 8 -9 8 -2 0 -6 -4 -9 -8z"/><path d="M1256 332 c-3 -5 1 -9 9 -9 8 0 12 4 9 9 -3 4 -7 8 -9 8 -2 0 -6 -4 -9 -8z"/><path d="M600 215 c0 -42 4 -65 11 -65 8 0 9 13 5 41 -4 25 -3 38 3 35 5 -4 13 -1 17 5 4 8 3 9 -4 5 -8 -5 -12 2 -12 18 0 14 -4 26 -10 26 -6 0 -10 -28 -10 -65z"/><path d="M1390 259 c0 -12 -4 -18 -11 -13 -7 4 -10 2 -8 -5 3 -7 9 -12 14 -12 13 2 26 51 14 51 -5 0 -9 -9 -9 -21z"/><path d="M506 241 c-4 -5 -2 -12 3 -15 5 -4 12 -2 15 3 4 5 2 12 -3 15 -5 4 -12 2 -15 -3z"/><path d="M794 235 c2 -5 9 -9 16 -7 9 2 11 -9 8 -38 -2 -22 0 -40 4 -40 5 0 8 22 8 49 0 44 -2 50 -20 48 -11 -1 -18 -6 -16 -12z"/><path d="M970 240 c-9 -6 -10 -10 -3 -10 6 0 15 5 18 10 8 12 4 12 -15 0z"/><path d="M1130 240 c0 -13 18 -22 24 -11 3 5 -1 11 -9 15 -8 3 -15 1 -15 -4z"/><path d="M686 214 c-9 -25 -7 -64 4 -64 6 0 10 18 10 40 0 43 -4 50 -14 24z"/><path d="M1257 210 c-16 -19 -16 -20 1 -20 11 0 18 8 18 20 0 11 -1 20 -1 20 0 0 -8 -9 -18 -20z"/><path d="M1190 205 c8 -10 8 -14 -2 -18 -10 -3 -9 -9 5 -23 9 -10 17 -13 17 -7 0 6 -6 13 -12 16 -8 3 -5 8 9 13 l22 9 -25 12 c-21 10 -24 10 -14 -2z"/><path d="M1010 198 c0 -4 21 -8 48 -7 52 1 48 6 -10 11 -21 2 -38 0 -38 -4z"/><path d="M496 183 c-6 -14 -5 -15 5 -6 7 7 10 15 7 18 -3 3 -9 -2 -12 -12z"/><path d="M1127 180 c3 -11 7 -20 9 -20 2 0 4 9 4 20 0 11 -4 20 -9 20 -5 0 -7 -9 -4 -20z"/><path d="M1306 183 c-6 -14 -5 -15 5 -6 7 7 10 15 7 18 -3 3 -9 -2 -12 -12z"/><path d="M726 181 c-3 -5 1 -11 9 -14 9 -4 12 -1 8 9 -6 16 -10 17 -17 5z"/><path d="M540 150 c0 -5 5 -10 11 -10 5 0 7 5 4 10 -3 6 -8 10 -11 10 -2 0 -4 -4 -4 -10z"/><path d="M1040 150 c0 -5 5 -10 11 -10 5 0 7 5 4 10 -3 6 -8 10 -11 10 -2 0 -4 -4 -4 -10z"/><path d="M1230 150 c0 -5 5 -10 11 -10 5 0 7 5 4 10 -3 6 -8 10 -11 10 -2 0 -4 -4 -4 -10z"/><path d="M958 143 c7 -3 16 -2 19 1 4 3 -2 6 -13 5 -11 0 -14 -3 -6 -6z"/></g><g transform="translate(0.000000,56.000000) scale(0.100000,-0.100000)" fill="#0079FF" stroke="none"><path d="M110 515 c-36 -24 -73 -57 -82 -72 -19 -30 -24 -83 -8 -83 5 0 9 -5 7 -12 -3 -15 163 -129 176 -121 6 3 7 1 3 -5 -6 -11 6 -16 27 -13 4 0 7 -3 7 -8 0 -4 19 -21 42 -36 39 -26 42 -27 55 -9 14 19 17 62 6 90 -3 9 -52 47 -109 83 l-102 67 59 38 c36 23 62 48 65 62 7 26 -3 47 -17 38 -5 -3 -8 0 -7 8 2 8 -8 14 -27 15 -21 2 -49 -10 -95 -42z"/><path d="M12 88 c-15 -15 -15 -61 0 -76 18 -18 55 -14 93 10 19 13 35 26 35 30 0 11 -71 48 -94 48 -12 0 -27 -5 -34 -12z"/></g></svg>