<svg version="1.0" xmlns="http://www.w3.org/2000/svg" width="300.000000" height="80.000000" viewBox="0 0 300.000000 80.000000" preserveAspectRatio="xMidYMid meet"><rect x="16" y="31" width="18" height="5" fill="rgb(0,141,223)" /><rect x="0" y="35" width="18" height="5" fill="rgb(0,170,248)" /><rect x="16" y="35" width="18" height="5" fill="rgb(0,128,213)" /><rect x="0" y="39" width="18" height="5" fill="rgb(0,154,235)" /><rect x="16" y="39" width="18" height="5" fill="rgb(0,126,212)" /><g transform="translate(0.000000,80.000000) scale(0.100000,-0.100000)" fill="#0046BF" stroke="none"><path d="M2991 84 c0 -11 3 -14 6 -6 3 7 2 16 -1 19 -3 4 -6 -2 -5 -13z"/></g><g transform="translate(0.000000,80.000000) scale(0.100000,-0.100000)" fill="#007FD2" stroke="none"><path d="M608 683 c6 -2 18 -2 25 0 6 3 1 5 -13 5 -14 0 -19 -2 -12 -5z"/><path d="M758 683 c7 -3 16 -2 19 1 4 3 -2 6 -13 5 -11 0 -14 -3 -6 -6z"/><path d="M888 683 c7 -3 16 -2 19 1 4 3 -2 6 -13 5 -11 0 -14 -3 -6 -6z"/><path d="M1998 673 c6 -2 18 -2 25 0 6 3 1 5 -13 5 -14 0 -19 -2 -12 -5z"/><path d="M2918 673 c6 -2 18 -2 25 0 6 3 1 5 -13 5 -14 0 -19 -2 -12 -5z"/><path d="M1962 590 c0 -14 2 -19 5 -12 2 6 2 18 0 25 -3 6 -5 1 -5 -13z"/><path d="M1561 584 c0 -11 3 -14 6 -6 3 7 2 16 -1 19 -3 4 -6 -2 -5 -13z"/><path d="M2003 583 c9 -2 23 -2 30 0 6 3 -1 5 -18 5 -16 0 -22 -2 -12 -5z"/><path d="M2928 583 c12 -2 30 -2 40 0 9 3 -1 5 -23 4 -22 0 -30 -2 -17 -4z"/><path d="M310 510 c-21 -4 -68 -31 -115 -67 -44 -33 -99 -73 -123 -88 -23 -15 -41 -29 -40 -30 2 -1 33 3 70 9 61 10 74 17 143 75 41 35 81 73 88 85 11 18 13 13 18 -49 l5 -70 2 67 c1 37 -1 69 -5 71 -5 2 -24 1 -43 -3z"/><path d="M1998 493 c7 -3 16 -2 19 1 4 3 -2 6 -13 5 -11 0 -14 -3 -6 -6z"/><path d="M464 330 c0 -58 1 -81 3 -52 2 28 2 76 0 105 -2 28 -3 5 -3 -53z"/><path d="M1119 383 c-13 -16 -12 -17 4 -4 16 13 21 21 13 21 -2 0 -10 -8 -17 -17z"/><path d="M1022 320 c0 -19 2 -27 5 -17 2 9 2 25 0 35 -3 9 -5 1 -5 -18z"/><path d="M1451 258 c-1 -29 12 -37 25 -16 4 6 3 8 -4 4 -6 -3 -12 3 -15 16 -4 20 -4 19 -6 -4z"/><path d="M1308 233 c12 -2 32 -2 45 0 12 2 2 4 -23 4 -25 0 -35 -2 -22 -4z"/><path d="M1588 233 c12 -2 30 -2 40 0 9 3 -1 5 -23 4 -22 0 -30 -2 -17 -4z"/><path d="M2765 89 c0 -16 3 -29 8 -29 4 0 7 11 7 24 0 14 -3 27 -7 29 -5 3 -8 -8 -8 -24z"/><path d="M512 85 c0 -16 2 -22 5 -12 2 9 2 23 0 30 -3 6 -5 -1 -5 -18z"/><path d="M900 85 c0 -14 4 -25 9 -25 4 0 6 11 3 25 -2 14 -6 25 -8 25 -2 0 -4 -11 -4 -25z"/><path d="M1930 85 c0 -14 4 -25 9 -25 4 0 6 11 3 25 -2 14 -6 25 -8 25 -2 0 -4 -11 -4 -25z"/><path d="M2826 95 c-9 -26 -7 -32 5 -12 6 10 9 21 6 23 -2 3 -7 -2 -11 -11z"/><path d="M757 79 c4 -13 8 -18 11 -10 2 7 -1 18 -6 23 -8 8 -9 4 -5 -13z"/><path d="M856 87 c3 -10 9 -15 12 -12 3 3 0 11 -7 18 -10 9 -11 8 -5 -6z"/><path d="M1857 80 c-3 -11 -1 -20 4 -20 5 0 9 9 9 20 0 11 -2 20 -4 20 -2 0 -6 -9 -9 -20z"/><path d="M720 75 c0 -8 4 -15 10 -15 5 0 7 7 4 15 -4 8 -8 15 -10 15 -2 0 -4 -7 -4 -15z"/><path d="M1151 74 c0 -11 3 -14 6 -6 3 7 2 16 -1 19 -3 4 -6 -2 -5 -13z"/><path d="M1430 70 c0 -5 5 -10 11 -10 5 0 7 5 4 10 -3 6 -8 10 -11 10 -2 0 -4 -4 -4 -10z"/><path d="M1640 70 c0 -5 5 -10 11 -10 5 0 7 5 4 10 -3 6 -8 10 -11 10 -2 0 -4 -4 -4 -10z"/><path d="M2560 70 c0 -5 5 -10 11 -10 5 0 7 5 4 10 -3 6 -8 10 -11 10 -2 0 -4 -4 -4 -10z"/></g><g transform="translate(0.000000,80.000000) scale(0.100000,-0.100000)" fill="#0085D8" stroke="none"><path d="M299 693 l-24 -28 28 24 c15 14 27 26 27 28 0 8 -8 1 -31 -24z"/><path d="M487 679 c-21 -12 -21 -73 0 -91 7 -6 13 -7 13 -4 0 4 7 0 16 -8 8 -9 20 -14 25 -11 11 7 12 -25 1 -42 -6 -10 -14 -9 -37 3 -23 12 -30 12 -37 2 -11 -18 -10 -30 2 -23 6 3 10 1 10 -4 0 -6 16 -11 35 -11 39 0 75 28 75 60 0 16 -33 62 -42 59 -13 -3 -37 16 -41 32 -6 22 21 27 41 7 16 -16 37 4 29 26 -7 18 -62 21 -90 5z"/><path d="M604 660 c6 -14 15 -28 21 -32 5 -4 7 -8 3 -8 -8 0 39 -120 53 -134 15 -16 29 6 70 106 22 51 39 94 39 94 0 1 -11 -1 -25 -4 -14 -2 -22 -8 -20 -12 3 -5 1 -11 -5 -15 -6 -4 -8 -11 -5 -16 4 -5 2 -9 -4 -9 -5 0 -12 -13 -16 -30 -11 -49 -22 -43 -46 22 -20 56 -25 63 -49 63 -25 0 -27 -2 -16 -25z"/><path d="M821 661 c-38 -34 -46 -69 -28 -114 18 -41 37 -53 94 -56 45 -3 73 14 73 44 0 15 -2 15 -22 1 -38 -27 -98 -15 -105 22 -2 6 -4 15 -5 20 -1 4 4 24 10 44 12 35 15 36 54 34 22 -2 44 -9 48 -16 6 -9 10 -6 15 9 9 30 3 34 -54 37 -41 2 -55 -2 -80 -25z"/><path d="M1102 670 c-18 -11 -30 -25 -27 -30 3 -6 1 -10 -4 -10 -6 0 -11 -20 -11 -45 0 -36 6 -52 27 -73 19 -19 28 -23 31 -13 3 8 -2 19 -10 25 -8 6 -16 14 -16 19 -1 4 -2 9 -3 12 -11 54 23 110 70 117 17 3 31 1 31 -4 0 -5 5 -6 10 -3 6 3 10 1 10 -5 0 -6 5 -8 10 -5 6 3 10 11 10 16 0 6 -4 8 -9 4 -5 -3 -12 -1 -16 5 -10 17 -68 11 -103 -10z"/><path d="M1293 671 c-18 -12 -33 -24 -34 -28 0 -5 -3 -17 -5 -28 -14 -55 9 -111 47 -119 8 -2 22 -6 32 -11 9 -4 25 -4 35 0 9 5 23 9 30 11 49 10 75 85 48 141 -9 19 -20 32 -25 28 -5 -3 -11 0 -13 6 -7 21 -81 21 -115 0z m131 -61 c8 -41 -10 -83 -42 -103 -27 -15 -30 -15 -60 3 -29 18 -34 28 -47 92 -1 10 3 22 11 29 8 6 11 15 9 20 -3 4 14 12 37 17 36 7 46 6 64 -10 12 -11 24 -32 28 -48z"/><path d="M1610 668 c-11 -12 -20 -18 -20 -12 -1 5 -7 -2 -14 -14 -10 -20 -13 -61 -7 -104 2 -16 44 -46 72 -52 113 -22 180 137 79 189 -42 22 -86 19 -110 -7z m81 -2 c25 -5 52 -44 53 -76 0 -25 -34 -87 -49 -88 -58 -7 -73 -1 -91 36 -10 22 -14 46 -10 65 7 35 42 77 60 72 6 -2 23 -6 37 -9z"/><path d="M1810 591 c0 -83 3 -101 15 -101 11 0 15 12 15 45 0 38 3 45 20 45 11 0 20 5 20 11 0 6 -9 8 -20 4 -18 -6 -20 -2 -20 34 0 43 1 44 39 34 21 -5 22 -10 17 -45 -6 -37 -5 -38 14 -28 14 7 20 21 20 45 0 40 -5 44 -70 52 l-50 6 0 -102z"/><path d="M1962 592 l0 -98 49 -1 c27 0 49 4 49 9 0 6 -17 8 -37 7 l-38 -4 4 44 c3 43 3 43 37 38 20 -4 32 -2 29 4 -4 5 -19 9 -36 9 -27 0 -29 2 -29 41 l0 41 35 -6 c22 -4 35 -3 35 4 0 5 -22 10 -49 10 l-49 0 0 -98z"/><path d="M2109 688 c0 -2 -2 -47 -4 -100 -3 -93 -2 -98 17 -98 19 0 20 4 15 45 -4 27 -2 47 4 51 8 5 8 8 0 13 -13 9 -3 71 11 71 19 0 48 -21 48 -34 0 -8 -11 -21 -25 -30 -30 -20 -32 -41 -5 -58 11 -7 20 -18 20 -25 0 -14 31 -33 52 -33 8 1 5 7 -7 16 -11 8 -20 20 -20 25 0 6 -8 16 -17 23 -24 18 -23 29 5 41 29 13 31 61 3 81 -17 11 -94 21 -97 12z"/><path d="M2450 675 c0 -9 9 -15 24 -15 30 0 38 -28 30 -109 -7 -58 -6 -61 15 -61 21 0 21 3 15 64 -4 35 -4 76 0 90 5 22 11 25 31 20 19 -5 25 -2 25 10 0 13 -12 16 -70 16 -56 0 -70 -3 -70 -15z"/><path d="M2627 683 c-4 -3 -7 -48 -7 -100 0 -76 3 -93 15 -93 12 0 15 18 15 100 0 92 -5 112 -23 93z"/><path d="M2686 668 c4 -13 11 -26 16 -29 5 -3 8 -8 7 -10 -5 -7 35 -109 43 -109 4 0 7 -6 6 -12 -2 -7 3 -13 10 -13 6 0 12 4 11 9 0 5 4 12 9 15 6 3 12 15 14 26 1 11 6 22 9 25 5 4 13 23 47 109 3 9 0 12 -9 9 -8 -3 -14 -9 -14 -14 -1 -5 -6 -18 -12 -29 -6 -11 -13 -29 -14 -40 -2 -11 -8 -23 -12 -26 -4 -3 -9 -16 -10 -27 -2 -30 -15 -28 -23 3 -3 14 -9 25 -13 25 -4 0 -7 10 -8 22 -1 11 -7 24 -13 28 -7 4 -11 10 -10 14 5 18 -10 46 -25 46 -12 0 -15 -5 -9 -22z"/><path d="M2880 591 l0 -98 55 -1 c30 0 55 4 55 9 0 5 -18 9 -40 9 -40 0 -40 0 -40 39 0 39 1 40 38 44 l37 4 -37 1 c-37 2 -38 3 -38 43 l0 41 40 -7 c26 -4 40 -3 40 4 0 7 -22 11 -55 11 l-55 0 0 -99z"/><path d="M2341 662 c-9 -17 -8 -23 7 -34 21 -16 23 -53 2 -53 -10 0 -14 9 -13 28 1 15 -2 27 -7 27 -9 0 -36 -69 -32 -82 1 -5 -3 -8 -9 -8 -5 0 -7 -4 -4 -10 3 -5 1 -10 -5 -10 -6 0 -9 -4 -6 -9 4 -5 0 -12 -6 -14 -8 -4 -7 -6 4 -6 15 -1 42 51 32 62 -3 3 15 6 39 8 25 2 43 1 40 -3 -2 -5 1 -8 6 -8 6 0 10 -3 10 -7 -4 -24 3 -42 17 -47 9 -4 19 -5 21 -3 5 6 -19 60 -30 68 -5 3 -8 8 -7 10 4 11 -13 59 -22 59 -5 0 -7 4 -4 9 3 4 -1 16 -8 26 -13 18 -14 18 -25 -3z"/><path d="M1480 584 c0 -11 8 -14 27 -12 39 4 42 28 4 28 -21 0 -31 -5 -31 -16z"/><path d="M159 573 c-13 -16 -12 -17 4 -4 9 7 17 15 17 17 0 8 -8 3 -21 -13z"/><path d="M284 518 l-19 -23 23 19 c21 18 27 26 19 26 -2 0 -12 -10 -23 -22z"/><path d="M322 513 c32 -8 14 -28 -159 -174 -13 -10 -23 -14 -23 -9 0 6 -10 10 -22 9 -19 0 -20 -2 -6 -7 11 -5 14 -12 9 -20 -5 -8 -12 -12 -17 -10 -5 1 -10 -32 -12 -75 -3 -76 -2 -78 18 -67 11 6 20 15 20 21 0 6 4 7 10 4 5 -3 15 3 22 15 7 11 18 20 25 20 7 0 18 9 25 20 7 11 18 20 23 20 6 0 35 24 64 54 l53 54 1 74 c2 73 1 74 -23 75 -14 0 -17 -1 -8 -4z"/><path d="M1190 506 c-14 -8 -28 -12 -32 -10 -5 3 -8 0 -8 -6 0 -8 7 -9 18 -5 9 4 23 8 30 9 15 3 40 26 27 26 -6 -1 -21 -7 -35 -14z"/><path d="M470 330 l0 -100 47 2 c30 1 53 8 65 20 19 19 24 63 8 73 -5 3 -7 22 -4 41 8 49 -8 64 -67 64 l-49 0 0 -100z m80 53 c0 -7 -9 -17 -20 -23 -17 -9 -20 -8 -20 14 0 19 5 24 20 23 11 -1 20 -7 20 -14z m-18 -65 c26 -20 27 -50 2 -54 -18 -3 -23 2 -26 31 -4 38 0 42 24 23z"/><path d="M675 403 c-5 -15 -8 -31 -7 -35 1 -5 -2 -8 -6 -8 -9 0 -37 -70 -34 -82 1 -5 -3 -8 -9 -8 -5 0 -7 -4 -4 -10 3 -5 1 -10 -5 -10 -6 0 -8 -4 -5 -10 11 -18 35 -10 45 15 8 21 16 25 50 25 22 0 39 -3 39 -7 -5 -33 3 -43 34 -43 21 0 28 3 19 9 -8 4 -13 10 -11 12 4 8 -25 79 -33 79 -4 0 -7 3 -6 8 3 14 -14 62 -23 62 -5 0 -8 5 -6 12 1 6 -5 13 -14 15 -11 3 -19 -5 -24 -24z m31 -61 c-3 -3 -1 -11 5 -18 8 -9 5 -11 -10 -7 -11 3 -19 13 -18 23 1 10 7 16 14 13 8 -3 11 -8 9 -11z"/><path d="M811 330 c-2 -92 0 -100 17 -100 11 0 19 7 19 18 -1 9 0 35 1 57 l2 39 58 -57 c32 -31 63 -57 70 -57 9 0 12 28 12 101 0 90 -2 100 -17 97 -14 -2 -19 -15 -21 -57 l-3 -53 -59 56 c-32 31 -63 56 -68 56 -5 0 -10 -45 -11 -100z"/><path d="M1023 331 c1 -89 3 -101 18 -101 14 0 19 10 21 43 4 41 4 41 15 16 15 -34 50 -59 83 -59 l25 1 -27 24 c-16 13 -28 27 -28 31 0 4 -9 18 -21 30 -20 21 -20 23 -3 49 9 14 31 34 48 43 l31 17 -29 3 c-21 3 -37 -5 -62 -29 -22 -22 -34 -28 -35 -18 -1 7 -2 21 -3 29 0 8 -8 16 -17 18 -15 3 -17 -9 -16 -97z"/><path d="M1280 333 l0 -98 50 0 c28 0 50 3 50 8 0 4 -16 7 -35 7 l-35 0 0 90 c0 73 -3 90 -15 90 -12 0 -15 -17 -15 -97z"/><path d="M1390 420 c0 -5 15 -10 33 -10 l32 0 0 -80 c0 -52 4 -83 13 -92 7 -7 13 -8 12 -3 -2 6 -2 47 -1 93 l1 82 30 0 c17 0 30 5 30 10 0 6 -32 10 -75 10 -43 0 -75 -4 -75 -10z"/><path d="M1567 423 c-4 -3 -7 -47 -7 -97 l0 -91 60 -1 c33 -1 60 2 60 8 0 5 4 7 9 3 5 -3 19 7 30 21 22 28 30 114 10 114 -5 0 -7 5 -4 10 15 24 -136 56 -158 33z m100 -19 c38 -7 51 -37 41 -93 -5 -24 -10 -47 -13 -49 -2 -3 -27 -7 -55 -10 l-50 -5 0 82 c0 90 1 90 77 75z"/><path d="M1833 350 c0 -30 2 -43 4 -27 2 15 2 39 0 55 -2 15 -4 2 -4 -28z"/><path d="M2137 374 c-12 -13 -7 -34 8 -34 8 0 15 -5 15 -11 0 -6 -7 -9 -15 -5 -8 3 -15 1 -15 -5 0 -6 8 -9 18 -7 11 2 17 13 17 32 0 29 -14 43 -28 30z"/><path d="M2357 374 c-14 -15 -6 -34 14 -34 14 0 19 5 17 17 -3 18 -20 27 -31 17z m18 -14 c3 -5 1 -10 -4 -10 -6 0 -11 5 -11 10 0 6 2 10 4 10 3 0 8 -4 11 -10z"/><path d="M2787 373 c-4 -3 -7 -18 -7 -33 0 -26 2 -27 54 -28 47 0 55 3 61 21 7 22 7 22 15 -3 l8 -25 1 28 c1 21 -4 27 -19 27 -13 0 -20 -7 -20 -20 0 -13 -6 -20 -17 -19 -11 0 -13 3 -5 6 18 7 14 33 -5 33 -15 0 -16 -2 -3 -10 13 -9 13 -10 0 -11 -8 -1 -19 -1 -24 0 -5 1 -13 -4 -17 -11 -4 -7 -11 -9 -16 -5 -4 5 -1 12 6 16 11 7 11 10 0 15 -8 3 -3 3 11 -1 22 -5 23 -4 11 11 -14 17 -24 20 -34 9z"/><path d="M1885 350 c-3 -11 -2 -28 4 -37 8 -15 10 -11 11 20 0 41 -5 47 -15 17z"/><path d="M1911 339 c1 -19 3 -26 6 -16 5 18 5 18 19 0 11 -15 13 -16 14 -2 0 9 -9 24 -20 34 -20 18 -20 17 -19 -16z"/><path d="M1951 358 c0 -7 4 -22 9 -33 8 -18 9 -17 9 7 1 15 -3 30 -9 33 -5 3 -10 0 -9 -7z"/><path d="M2032 340 c0 -19 2 -27 5 -17 2 9 2 25 0 35 -3 9 -5 1 -5 -18z"/><path d="M2050 347 c0 -14 4 -28 9 -32 5 -3 8 6 7 20 -4 35 -16 44 -16 12z"/><path d="M2082 340 c0 -19 2 -27 5 -17 2 9 2 25 0 35 -3 9 -5 1 -5 -18z"/><path d="M2182 344 c2 -23 9 -28 34 -31 29 -4 31 -2 27 22 -6 27 -33 35 -33 10 0 -8 -5 -15 -11 -15 -6 0 -9 7 -6 15 4 8 1 17 -4 21 -7 4 -9 -4 -7 -22z"/><path d="M2250 346 c0 -14 5 -28 10 -31 6 -4 10 7 10 24 0 17 -4 31 -10 31 -5 0 -10 -11 -10 -24z"/><path d="M2440 360 c0 -5 -7 -7 -15 -4 -17 7 -32 -23 -19 -36 13 -13 52 -1 57 19 4 15 5 15 6 0 1 -17 37 -32 53 -23 4 3 8 14 8 25 0 20 -24 26 -35 9 -4 -6 -12 -4 -21 5 -17 17 -34 20 -34 5z m-6 -19 c3 -5 -1 -11 -9 -15 -9 -3 -15 0 -15 9 0 16 16 20 24 6z"/><path d="M2555 356 c-22 -16 -14 -47 12 -45 17 1 17 2 1 6 -10 2 -18 11 -18 19 0 17 16 19 23 2 3 -7 6 -3 6 10 1 26 0 26 -24 8z"/><path d="M2642 340 c0 -19 2 -27 5 -17 2 9 2 25 0 35 -3 9 -5 1 -5 -18z"/><path d="M2727 363 c-23 -6 -19 -46 6 -51 13 -3 17 3 17 27 0 17 -1 30 -2 30 -2 -1 -11 -3 -21 -6z m13 -28 c0 -8 -4 -15 -10 -15 -5 0 -10 7 -10 15 0 8 5 15 10 15 6 0 10 -7 10 -15z"/><path d="M2931 340 c0 -22 2 -30 8 -22 6 10 10 10 21 -3 20 -25 30 -17 29 23 l-2 37 -6 -35 c-4 -24 -9 -31 -14 -22 -5 7 -6 20 -3 29 4 10 2 14 -8 10 -8 -3 -17 -1 -20 6 -2 7 -5 -4 -5 -23z"/><path d="M1984 335 c1 -12 9 -21 21 -22 14 -1 15 0 3 3 -9 3 -19 13 -21 22 -3 12 -4 11 -3 -3z"/><path d="M2011 344 c0 -11 3 -14 6 -6 3 7 2 16 -1 19 -3 4 -6 -2 -5 -13z"/><path d="M2283 338 c2 -13 10 -23 18 -23 20 0 17 39 -4 43 -13 3 -16 -2 -14 -20z"/><path d="M2593 340 c1 -16 9 -26 22 -28 18 -3 18 -3 4 10 -9 7 -19 20 -23 28 -3 8 -4 4 -3 -10z"/><path d="M2621 344 c0 -11 3 -14 6 -6 3 7 2 16 -1 19 -3 4 -6 -2 -5 -13z"/><path d="M2663 344 c-7 -18 11 -39 26 -30 17 11 13 46 -4 46 -9 0 -18 -7 -22 -16z"/><path d="M58 323 c7 -3 16 -2 19 1 4 3 -2 6 -13 5 -11 0 -14 -3 -6 -6z"/><path d="M2350 318 c0 -10 27 -10 34 0 2 4 -4 8 -15 8 -10 0 -19 -4 -19 -8z"/><path d="M1832 260 c0 -19 2 -27 5 -17 2 9 2 25 0 35 -3 9 -5 1 -5 -18z"/><path d="M1910 250 c0 -12 7 -20 18 -20 14 0 15 2 2 10 -10 6 -11 10 -2 10 6 0 12 5 12 10 0 6 -7 10 -15 10 -8 0 -15 -9 -15 -20z"/><path d="M1950 260 c0 -5 4 -10 9 -10 6 0 13 5 16 10 3 6 -1 10 -9 10 -9 0 -16 -4 -16 -10z"/><path d="M1996 255 c4 -8 8 -15 10 -15 2 0 4 7 4 15 0 8 -4 15 -10 15 -5 0 -7 -7 -4 -15z"/><path d="M2020 250 c0 -15 6 -19 24 -18 20 2 23 5 15 20 -13 24 -39 23 -39 -2z m30 0 c0 -5 -4 -10 -10 -10 -5 0 -10 5 -10 10 0 6 5 10 10 10 6 0 10 -4 10 -10z"/><path d="M2080 261 c0 -6 5 -13 10 -16 6 -3 10 1 10 9 0 9 -4 16 -10 16 -5 0 -10 -4 -10 -9z"/><path d="M2110 250 c0 -12 8 -17 23 -17 15 0 23 5 23 17 0 12 -8 18 -23 18 -15 0 -23 -6 -23 -18z"/><path d="M2165 260 c-8 -14 3 -30 21 -30 8 0 14 9 14 20 0 21 -24 28 -35 10z"/><path d="M1960 240 c-13 -8 -12 -10 3 -10 9 0 17 5 17 10 0 12 -1 12 -20 0z"/><path d="M466 114 c-4 -9 -4 -19 -1 -22 2 -3 7 3 11 12 4 9 4 19 1 22 -2 3 -7 -3 -11 -12z"/><path d="M500 120 c0 -5 5 -10 10 -10 15 0 12 -47 -2 -53 -7 -3 -3 -6 9 -6 17 -1 21 3 16 16 -5 11 -3 14 6 8 10 -6 11 -3 1 15 -11 20 -10 22 4 17 10 -4 16 -1 16 8 0 10 -10 15 -30 15 -16 0 -30 -4 -30 -10z"/><path d="M888 119 c-2 -6 -26 -12 -53 -13 -44 -1 -50 -4 -53 -24 -2 -12 -8 -22 -13 -22 -6 0 -9 10 -7 23 3 21 -1 22 -63 24 l-66 1 1 -29 c1 -20 6 -29 18 -29 11 0 15 6 11 18 -3 13 1 19 12 19 11 0 15 -6 12 -19 -5 -16 2 -18 70 -17 69 1 75 3 83 25 5 13 12 24 15 24 2 0 0 -11 -5 -25 -8 -22 -7 -25 12 -25 17 0 19 3 10 12 -17 17 -15 31 3 24 9 -3 15 0 15 9 0 24 18 17 23 -7 3 -17 5 -14 6 10 1 22 -4 32 -13 32 -8 0 -16 -5 -18 -11z m-135 -39 c-6 -23 -43 -27 -43 -5 0 18 20 20 20 3 0 -7 5 -5 11 5 13 23 18 22 12 -3z"/><path d="M1030 114 c0 -9 5 -12 11 -8 8 5 10 -3 7 -25 -4 -25 -1 -31 13 -31 15 0 17 5 12 32 -5 27 -4 30 11 25 11 -5 15 -3 10 5 -5 7 -3 8 5 3 8 -4 11 -20 9 -37 -5 -28 -4 -29 39 -26 24 1 47 6 50 11 3 5 9 3 14 -4 6 -11 9 -10 15 4 10 27 -3 49 -28 45 -15 -2 -24 -11 -26 -25 -2 -13 -8 -23 -14 -23 -6 0 -8 8 -5 19 7 29 -27 51 -78 51 -34 0 -45 -4 -45 -16z m107 -46 c-3 -8 -6 -5 -6 6 -1 11 2 17 5 13 3 -3 4 -12 1 -19z"/><path d="M1286 118 c7 -11 34 -10 34 1 0 6 -9 9 -19 8 -11 0 -17 -5 -15 -9z"/><path d="M1330 105 c0 -26 -15 -34 -23 -12 -3 6 -6 2 -6 -11 -1 -13 -5 -21 -10 -18 -5 3 -7 15 -4 26 3 11 1 20 -4 20 -6 0 -10 -13 -11 -29 l-1 -28 161 -2 160 -2 -7 22 c-4 12 -3 19 2 16 5 -4 10 0 10 8 0 8 -9 15 -19 15 -13 0 -18 -8 -19 -27 l-1 -28 -7 25 c-6 21 -14 26 -49 28 -39 3 -42 1 -42 -22 0 -23 -3 -26 -35 -23 -25 1 -35 7 -35 18 0 14 -39 49 -55 49 -3 0 -5 -11 -5 -25z m38 -36 c-3 -8 -7 -3 -11 10 -4 17 -3 21 5 13 5 -5 8 -16 6 -23z m160 0 c-3 -8 -7 -3 -11 10 -4 17 -3 21 5 13 5 -5 8 -16 6 -23z"/><path d="M1760 125 c0 -6 30 -67 36 -74 1 -1 8 0 14 4 9 6 9 9 0 15 -7 4 -12 19 -12 34 0 19 -6 26 -19 26 -11 0 -19 -2 -19 -5z"/><path d="M1810 105 c0 -14 5 -25 10 -25 6 0 10 4 10 9 0 5 3 16 6 25 4 11 1 16 -10 16 -10 0 -16 -9 -16 -25z"/><path d="M1920 120 c0 -6 -8 -10 -17 -8 -13 2 -19 -5 -21 -24 -2 -18 -10 -28 -25 -31 -12 -2 35 -4 104 -4 l126 -1 -6 36 c-8 50 -32 55 -25 5 5 -36 4 -37 -10 -19 -9 11 -16 23 -16 28 0 12 -28 10 -36 -4 -5 -7 -3 -8 5 -3 9 5 9 1 -1 -14 -12 -20 -13 -20 -17 -4 -6 33 -61 71 -61 43z m20 -32 c0 -21 0 -21 15 -2 14 18 14 18 8 -3 -3 -14 -13 -23 -24 -23 -22 0 -31 13 -23 34 9 23 24 20 24 -6z"/><path d="M2132 118 c-17 -22 -9 -62 13 -66 16 -3 18 -1 8 9 -7 7 -13 24 -13 36 0 21 2 22 21 13 23 -13 35 -8 24 9 -9 15 -40 14 -53 -1z"/><path d="M2462 90 c-2 -39 -1 -41 26 -38 24 3 27 7 27 38 0 30 -4 35 -26 38 -24 3 -26 0 -27 -38z"/><path d="M2661 123 c1 -5 0 -21 -1 -38 -2 -29 -2 -29 -9 -5 -5 18 -15 26 -34 28 -23 3 -27 0 -27 -24 0 -24 -3 -26 -30 -20 -17 3 -30 1 -30 -4 0 -6 40 -10 96 -10 81 0 95 2 85 14 -6 7 -8 22 -4 31 5 14 3 17 -10 12 -11 -4 -17 -1 -17 8 0 8 -4 15 -10 15 -5 0 -9 -3 -9 -7z m-31 -49 c0 -8 -4 -12 -10 -9 -5 3 -10 10 -10 16 0 5 5 9 10 9 6 0 10 -7 10 -16z"/><path d="M2756 103 c9 -37 18 -45 12 -11 -4 19 -1 25 9 21 7 -3 13 0 13 6 0 6 -9 11 -20 11 -17 0 -19 -4 -14 -27z"/><path d="M2880 113 c-25 -28 -18 -58 13 -61 27 -3 28 -2 25 34 -3 42 -16 51 -38 27z m20 -33 c0 -5 -4 -10 -10 -10 -5 0 -10 5 -10 10 0 6 5 10 10 10 6 0 10 -4 10 -10z"/><path d="M2975 85 c0 -24 3 -41 8 -38 4 2 7 19 7 38 0 19 -3 36 -7 38 -5 3 -8 -14 -8 -38z"/><path d="M2820 105 c-9 -11 -9 -15 -1 -15 8 0 10 -8 6 -20 -4 -14 -2 -20 8 -20 10 0 14 10 13 29 -2 38 -10 46 -26 26z"/><path d="M577 103 c-9 -9 -9 -33 1 -33 4 0 13 9 20 20 10 16 10 20 -1 20 -8 0 -17 -3 -20 -7z"/><path d="M930 104 c0 -3 7 -18 15 -34 11 -22 12 -30 2 -33 -6 -3 -4 -6 7 -6 12 -1 16 4 12 14 -3 8 -1 15 3 15 5 0 12 7 15 16 5 12 2 15 -11 10 -17 -6 -17 -5 -1 7 16 13 15 14 -12 15 -17 0 -30 -2 -30 -4z"/><path d="M1405 100 c-9 -14 -4 -20 24 -25 17 -3 21 0 19 13 -4 20 -33 28 -43 12z"/><path d="M1615 100 c-9 -14 -4 -20 24 -25 17 -3 21 0 19 13 -4 20 -33 28 -43 12z"/><path d="M1674 95 c-9 -24 3 -44 25 -42 11 1 23 8 26 16 8 21 -5 28 -16 8 -6 -9 -15 -17 -21 -17 -6 0 -3 11 6 25 15 22 15 25 1 25 -9 0 -18 -7 -21 -15z"/><path d="M1846 102 c-2 -4 -1 -14 3 -21 6 -9 10 -7 14 8 5 20 -7 29 -17 13z"/><path d="M2195 92 c-31 -27 -27 -37 13 -37 28 0 38 5 40 19 2 10 -2 22 -10 27 -18 12 -20 11 -43 -9z m40 -12 c-3 -5 -10 -10 -16 -10 -5 0 -9 5 -9 10 0 6 7 10 16 10 8 0 12 -4 9 -10z"/><path d="M2310 101 c0 -5 -12 -14 -27 -19 -24 -9 -25 -11 -6 -11 12 -1 23 -7 26 -13 3 -8 9 -3 16 12 10 23 11 23 7 3 -2 -13 0 -23 4 -23 12 0 23 37 15 50 -8 13 -35 13 -35 1z"/><path d="M2360 71 c0 -45 10 -51 41 -22 28 26 21 55 -14 59 -25 3 -27 1 -27 -37z m45 9 c-3 -5 -10 -10 -16 -10 -5 0 -9 5 -9 10 0 6 7 10 16 10 8 0 12 -4 9 -10z"/><path d="M2535 100 c-9 -14 -4 -20 24 -25 17 -3 21 0 19 13 -4 20 -33 28 -43 12z"/><path d="M600 76 c0 -8 -6 -17 -12 -20 -7 -3 -4 -4 7 -3 31 3 50 37 20 37 -8 0 -15 -6 -15 -14z"/><path d="M460 75 c0 -5 5 -17 10 -25 5 -8 10 -10 10 -5 0 6 -5 17 -10 25 -5 8 -10 11 -10 5z"/><path d="M2775 65 l-30 -14 33 -1 c22 0 32 5 32 15 0 8 -1 15 -2 14 -2 0 -16 -7 -33 -14z"/><path d="M1610 60 c0 -5 12 -10 28 -9 24 0 25 1 7 9 -27 12 -35 12 -35 0z"/><path d="M2930 60 c0 -5 5 -10 10 -10 6 0 10 5 10 10 0 6 -4 10 -10 10 -5 0 -10 -4 -10 -10z"/><path d="M898 53 c6 -2 18 -2 25 0 6 3 1 5 -13 5 -14 0 -19 -2 -12 -5z"/></g><g transform="translate(0.000000,80.000000) scale(0.100000,-0.100000)" fill="#008CD8" stroke="none"><path d="M349 743 l-24 -28 28 24 27 24 0 -78 c0 -75 -2 -81 -32 -115 l-33 -35 38 34 37 35 0 83 c0 46 -4 83 -8 83 -5 0 -19 -12 -33 -27z"/><path d="M2346 682 c-3 -5 1 -9 9 -9 8 0 12 4 9 9 -3 4 -7 8 -9 8 -2 0 -6 -4 -9 -8z"/><path d="M2441 674 c0 -11 3 -14 6 -6 3 7 2 16 -1 19 -3 4 -6 -2 -5 -13z"/><path d="M1802 650 c0 -19 2 -27 5 -17 2 9 2 25 0 35 -3 9 -5 1 -5 -18z"/><path d="M1848 663 c7 -3 16 -2 19 1 4 3 -2 6 -13 5 -11 0 -14 -3 -6 -6z"/><path d="M2148 663 c7 -3 16 -2 19 1 4 3 -2 6 -13 5 -11 0 -14 -3 -6 -6z"/><path d="M2912 645 c0 -16 2 -22 5 -12 2 9 2 23 0 30 -3 6 -5 -1 -5 -18z"/><path d="M239 643 c-13 -16 -12 -17 4 -4 16 13 21 21 13 21 -2 0 -10 -8 -17 -17z"/><path d="M461 634 c0 -11 3 -14 6 -6 3 7 2 16 -1 19 -3 4 -6 -2 -5 -13z"/><path d="M2533 595 c0 -33 2 -45 4 -27 2 18 2 45 0 60 -2 15 -4 0 -4 -33z"/><path d="M2103 600 c0 -25 2 -35 4 -22 2 12 2 32 0 45 -2 12 -4 2 -4 -23z"/><path d="M2131 614 c0 -11 3 -14 6 -6 3 7 2 16 -1 19 -3 4 -6 -2 -5 -13z"/><path d="M2502 600 c0 -19 2 -27 5 -17 2 9 2 25 0 35 -3 9 -5 1 -5 -18z"/><path d="M1421 584 c0 -11 3 -14 6 -6 3 7 2 16 -1 19 -3 4 -6 -2 -5 -13z"/><path d="M1803 535 c0 -27 2 -38 4 -22 2 15 2 37 0 50 -2 12 -4 0 -4 -28z"/><path d="M1848 573 c7 -3 16 -2 19 1 4 3 -2 6 -13 5 -11 0 -14 -3 -6 -6z"/><path d="M2130 565 c0 -8 2 -15 4 -15 2 0 6 7 10 15 3 8 1 15 -4 15 -6 0 -10 -7 -10 -15z"/><path d="M2913 545 c0 -22 2 -30 4 -17 2 12 2 30 0 40 -3 9 -5 -1 -4 -23z"/><path d="M59 503 c-13 -16 -12 -17 4 -4 9 7 17 15 17 17 0 8 -8 3 -21 -13z"/><path d="M2056 493 c-6 -14 -5 -15 5 -6 7 7 10 15 7 18 -3 3 -9 -2 -12 -12z"/><path d="M508 483 c7 -3 16 -2 19 1 4 3 -2 6 -13 5 -11 0 -14 -3 -6 -6z"/><path d="M873 483 c9 -2 23 -2 30 0 6 3 -1 5 -18 5 -16 0 -22 -2 -12 -5z"/><path d="M478 433 c12 -2 30 -2 40 0 9 3 -1 5 -23 4 -22 0 -30 -2 -17 -4z"/><path d="M958 433 c6 -2 18 -2 25 0 6 3 1 5 -13 5 -14 0 -19 -2 -12 -5z"/><path d="M1016 431 c-3 -4 6 -6 19 -3 14 2 25 6 25 8 0 8 -39 4 -44 -5z"/><path d="M1143 433 c9 -2 23 -2 30 0 6 3 -1 5 -18 5 -16 0 -22 -2 -12 -5z"/><path d="M1271 414 c0 -11 3 -14 6 -6 3 7 2 16 -1 19 -3 4 -6 -2 -5 -13z"/><path d="M1134 388 l-19 -23 23 19 c21 18 27 26 19 26 -2 0 -12 -10 -23 -22z"/><path d="M1403 403 c9 -2 25 -2 35 0 9 3 1 5 -18 5 -19 0 -27 -2 -17 -5z"/><path d="M1493 403 c9 -2 25 -2 35 0 9 3 1 5 -18 5 -19 0 -27 -2 -17 -5z"/><path d="M1593 330 c0 -47 2 -66 4 -42 2 23 2 61 0 85 -2 23 -4 4 -4 -43z"/><path d="M1908 373 c7 -3 16 -2 19 1 4 3 -2 6 -13 5 -11 0 -14 -3 -6 -6z"/><path d="M2345 369 c-4 -6 -4 -13 -1 -16 3 -4 6 -1 6 6 0 7 5 9 12 5 7 -4 8 -3 4 4 -9 15 -13 15 -21 1z"/><path d="M1930 356 c0 -2 8 -10 18 -17 15 -13 16 -12 3 4 -13 16 -21 21 -21 13z"/><path d="M2535 349 c-4 -6 -4 -13 -1 -16 3 -4 6 -1 6 6 0 7 5 9 12 5 7 -4 8 -3 4 4 -9 15 -13 15 -21 1z"/><path d="M1741 334 c0 -11 3 -14 6 -6 3 7 2 16 -1 19 -3 4 -6 -2 -5 -13z"/><path d="M1987 331 c-3 -13 -1 -18 9 -14 7 2 10 11 7 19 -7 19 -10 18 -16 -5z"/><path d="M2060 341 c0 -6 5 -13 10 -16 6 -3 10 1 10 9 0 9 -4 16 -10 16 -5 0 -10 -4 -10 -9z"/><path d="M2190 340 c0 -5 5 -10 11 -10 5 0 7 5 4 10 -3 6 -8 10 -11 10 -2 0 -4 -4 -4 -10z"/><path d="M2241 334 c0 -11 3 -14 6 -6 3 7 2 16 -1 19 -3 4 -6 -2 -5 -13z"/><path d="M2600 341 c0 -6 4 -13 10 -16 6 -3 7 1 4 9 -7 18 -14 21 -14 7z"/><path d="M2825 340 c4 -6 11 -8 16 -5 14 9 11 15 -7 15 -8 0 -12 -5 -9 -10z"/><path d="M1920 331 c0 -6 4 -13 10 -16 6 -3 7 1 4 9 -7 18 -14 21 -14 7z"/><path d="M2120 328 c0 -6 3 -8 6 -5 4 3 15 2 25 -4 14 -7 17 -6 14 4 -7 16 -45 20 -45 5z"/><path d="M2340 329 c0 -5 5 -7 10 -4 6 3 10 8 10 11 0 2 -4 4 -10 4 -5 0 -10 -5 -10 -11z"/><path d="M2370 331 c0 -6 4 -13 10 -16 6 -3 7 1 4 9 -7 18 -14 21 -14 7z"/><path d="M2715 320 c-3 -6 1 -7 9 -4 18 7 21 14 7 14 -6 0 -13 -4 -16 -10z"/><path d="M1272 255 c0 -16 2 -22 5 -12 2 9 2 23 0 30 -3 6 -5 -1 -5 -18z"/><path d="M1920 276 c0 -2 7 -7 16 -10 8 -3 12 -2 9 4 -6 10 -25 14 -25 6z"/><path d="M1965 253 c-29 -25 -29 -25 -2 -9 24 14 27 15 27 1 0 -8 5 -15 10 -15 7 0 7 7 -1 22 -10 18 -9 20 5 15 10 -4 15 -3 11 3 -9 15 -17 12 -50 -17z"/><path d="M2080 240 c0 -5 5 -10 11 -10 5 0 7 5 4 10 -3 6 -8 10 -11 10 -2 0 -4 -4 -4 -10z"/><path d="M561 114 c0 -11 3 -14 6 -6 3 7 2 16 -1 19 -3 4 -6 -2 -5 -13z"/><path d="M1070 90 c0 -11 2 -20 4 -20 2 0 6 9 9 20 3 11 1 20 -4 20 -5 0 -9 -9 -9 -20z"/><path d="M2351 84 c0 -11 3 -14 6 -6 3 7 2 16 -1 19 -3 4 -6 -2 -5 -13z"/><path d="M1696 73 c-6 -14 -5 -15 5 -6 7 7 10 15 7 18 -3 3 -9 -2 -12 -12z"/><path d="M2040 81 c0 -6 4 -13 10 -16 6 -3 7 1 4 9 -7 18 -14 21 -14 7z"/><path d="M2610 81 c0 -6 4 -13 10 -16 6 -3 7 1 4 9 -7 18 -14 21 -14 7z"/><path d="M2147 69 c7 -7 15 -10 18 -7 3 3 -2 9 -12 12 -14 6 -15 5 -6 -5z"/><path d="M2516 63 c-6 -14 -5 -15 5 -6 7 7 10 15 7 18 -3 3 -9 -2 -12 -12z"/></g><g transform="translate(0.000000,80.000000) scale(0.100000,-0.100000)" fill="#0079DF" stroke="none"><path d="M1952 665 c0 -16 2 -22 5 -12 2 9 2 23 0 30 -3 6 -5 -1 -5 -18z"/><path d="M2651 654 c0 -11 3 -14 6 -6 3 7 2 16 -1 19 -3 4 -6 -2 -5 -13z"/><path d="M1772 590 c0 -14 2 -19 5 -12 2 6 2 18 0 25 -3 6 -5 1 -5 -13z"/><path d="M1471 584 c0 -11 3 -14 6 -6 3 7 2 16 -1 19 -3 4 -6 -2 -5 -13z"/><path d="M299 523 c-13 -16 -12 -17 4 -4 16 13 21 21 13 21 -2 0 -10 -8 -17 -17z"/><path d="M1100 536 c0 -2 8 -10 18 -17 15 -13 16 -12 3 4 -13 16 -21 21 -21 13z"/><path d="M2651 524 c0 -11 3 -14 6 -6 3 7 2 16 -1 19 -3 4 -6 -2 -5 -13z"/><path d="M1951 494 c0 -11 3 -14 6 -6 3 7 2 16 -1 19 -3 4 -6 -2 -5 -13z"/><path d="M2199 498 c9 -13 26 -17 55 -16 l41 1 -40 4 c-22 3 -47 10 -55 16 -13 11 -13 10 -1 -5z"/><path d="M2408 488 c6 -6 18 -8 28 -6 14 3 12 5 -9 10 -19 3 -25 2 -19 -4z"/><path d="M1808 483 c6 -2 18 -2 25 0 6 3 1 5 -13 5 -14 0 -19 -2 -12 -5z"/><path d="M2108 483 c6 -2 18 -2 25 0 6 3 1 5 -13 5 -14 0 -19 -2 -12 -5z"/><path d="M2508 483 c6 -2 18 -2 25 0 6 3 1 5 -13 5 -14 0 -19 -2 -12 -5z"/><path d="M2628 483 c7 -3 16 -2 19 1 4 3 -2 6 -13 5 -11 0 -14 -3 -6 -6z"/><path d="M2888 483 c7 -3 16 -2 19 1 4 3 -2 6 -13 5 -11 0 -14 -3 -6 -6z"/><path d="M3 390 c0 -41 2 -58 4 -37 2 20 2 54 0 75 -2 20 -4 3 -4 -38z"/><path d="M850 415 c13 -14 26 -25 28 -25 3 0 -5 11 -18 25 -13 14 -26 25 -28 25 -3 0 5 -11 18 -25z"/><path d="M1109 423 c-13 -16 -12 -17 4 -4 16 13 21 21 13 21 -2 0 -10 -8 -17 -17z"/><path d="M1613 403 c9 -2 23 -2 30 0 6 3 -1 5 -18 5 -16 0 -22 -2 -12 -5z"/><path d="M1844 315 c0 -49 1 -71 3 -48 2 23 2 64 0 90 -2 26 -3 8 -3 -42z"/><path d="M2071 364 c0 -11 3 -14 6 -6 3 7 2 16 -1 19 -3 4 -6 -2 -5 -13z"/><path d="M2583 345 c0 -22 2 -30 4 -17 2 12 2 30 0 40 -3 9 -5 -1 -4 -23z"/><path d="M2650 345 c0 -19 4 -35 8 -35 4 0 6 16 4 35 -2 19 -6 35 -8 35 -2 0 -4 -16 -4 -35z"/><path d="M2941 364 c0 -11 3 -14 6 -6 3 7 2 16 -1 19 -3 4 -6 -2 -5 -13z"/><path d="M1100 355 c-7 -9 -11 -17 -9 -20 3 -2 10 5 17 15 14 24 10 26 -8 5z"/><path d="M2272 335 c0 -16 2 -22 5 -12 2 9 2 23 0 30 -3 6 -5 -1 -5 -18z"/><path d="M304 318 l-29 -33 33 29 c30 28 37 36 29 36 -2 0 -16 -15 -33 -32z"/><path d="M2410 346 c0 -2 7 -7 16 -10 8 -3 12 -2 9 4 -6 10 -25 14 -25 6z"/><path d="M2871 334 c0 -11 3 -14 6 -6 3 7 2 16 -1 19 -3 4 -6 -2 -5 -13z"/><path d="M2940 320 c0 -5 5 -10 11 -10 5 0 7 5 4 10 -3 6 -8 10 -11 10 -2 0 -4 -4 -4 -10z"/><path d="M1271 294 c0 -11 3 -14 6 -6 3 7 2 16 -1 19 -3 4 -6 -2 -5 -13z"/><path d="M1160 255 c13 -14 26 -25 28 -25 3 0 -5 11 -18 25 -13 14 -26 25 -28 25 -3 0 5 -11 18 -25z"/><path d="M2010 276 c0 -2 11 -6 25 -8 13 -3 22 -1 19 3 -5 9 -44 13 -44 5z"/><path d="M935 250 c10 -11 20 -20 23 -20 3 0 -3 9 -13 20 -10 11 -20 20 -23 20 -3 0 3 -9 13 -20z"/><path d="M1709 253 c-13 -16 -12 -17 4 -4 16 13 21 21 13 21 -2 0 -10 -8 -17 -17z"/><path d="M1930 250 c-13 -8 -12 -10 3 -10 9 0 17 5 17 10 0 12 -1 12 -20 0z"/><path d="M2966 132 c-3 -5 1 -9 9 -9 8 0 12 4 9 9 -3 4 -7 8 -9 8 -2 0 -6 -4 -9 -8z"/><path d="M1836 113 c-6 -14 -5 -15 5 -6 7 7 10 15 7 18 -3 3 -9 -2 -12 -12z"/><path d="M621 93 c7 -12 15 -20 18 -17 3 2 -3 12 -13 22 -17 16 -18 16 -5 -5z"/><path d="M920 101 c0 -6 4 -13 10 -16 6 -3 7 1 4 9 -7 18 -14 21 -14 7z"/><path d="M1291 107 c2 -1 13 -9 24 -17 19 -14 19 -14 6 3 -7 9 -18 17 -24 17 -6 0 -8 -1 -6 -3z"/><path d="M1445 100 c3 -5 8 -10 11 -10 2 0 4 5 4 10 0 6 -5 10 -11 10 -5 0 -7 -4 -4 -10z"/><path d="M2046 102 c-2 -4 -1 -14 5 -22 7 -12 9 -10 9 8 0 23 -5 28 -14 14z"/><path d="M2289 93 c-13 -16 -12 -17 4 -4 16 13 21 21 13 21 -2 0 -10 -8 -17 -17z"/><path d="M2575 100 c3 -5 8 -10 11 -10 2 0 4 5 4 10 0 6 -5 10 -11 10 -5 0 -7 -4 -4 -10z"/><path d="M471 84 c0 -11 3 -14 6 -6 3 7 2 16 -1 19 -3 4 -6 -2 -5 -13z"/><path d="M1596 75 c-3 -8 -1 -15 4 -15 6 0 10 7 10 15 0 8 -2 15 -4 15 -2 0 -6 -7 -10 -15z"/><path d="M1661 74 c0 -11 3 -14 6 -6 3 7 2 16 -1 19 -3 4 -6 -2 -5 -13z"/><path d="M536 67 c3 -10 9 -15 12 -12 3 3 0 11 -7 18 -10 9 -11 8 -5 -6z"/><path d="M971 44 c0 -11 3 -14 6 -6 3 7 2 16 -1 19 -3 4 -6 -2 -5 -13z"/><path d="M2956 46 c7 -19 20 -21 30 -3 4 6 4 9 -1 5 -4 -4 -14 -3 -22 4 -11 8 -12 7 -7 -6z"/></g><g transform="translate(0.000000,80.000000) scale(0.100000,-0.100000)" fill="#00B8FF" stroke="none"><path d="M360 745 c-25 -31 -211 -187 -283 -239 l-67 -48 0 -69 0 -70 31 18 c48 28 228 166 287 220 l53 48 -3 79 c-3 72 -4 78 -18 61z"/></g></svg>