<svg xmlns="http://www.w3.org/2000/svg" viewBox="0 0 220 80" width="220" height="80">
  <rect width="220" height="80" fill="white"/>
  <!-- DRDO: shield emblem in dark green -->
  <g transform="translate(5, 5)">
    <!-- Shield -->
    <path d="M30 6 L54 6 L60 12 L60 36 Q60 52 30 64 Q0 52 0 36 L0 12 Z" fill="#1a6b3c" transform="translate(5,2) scale(0.85)"/>
    <path d="M30 6 L54 6 L60 12 L60 36 Q60 52 30 64 Q0 52 0 36 L0 12 Z" fill="none" stroke="#FFD700" stroke-width="2" transform="translate(5,2) scale(0.85)"/>
    <!-- Star inside -->
    <polygon points="30,22 33,31 42,31 35,37 38,46 30,40 22,46 25,37 18,31 27,31" fill="#FFD700" transform="translate(-3,-2) scale(0.85)"/>
  </g>
  <text x="68" y="37" font-family="Arial Black, sans-serif" font-size="22" font-weight="900" fill="#1a6b3c">DRDO</text>
  <text x="68" y="52" font-family="Arial, sans-serif" font-size="7" fill="#1a6b3c" letter-spacing="0.2">DEFENCE RESEARCH &amp;</text>
  <text x="68" y="62" font-family="Arial, sans-serif" font-size="7" fill="#1a6b3c" letter-spacing="0.2">DEVELOPMENT ORGANISATION</text>
</svg>
