<?xml version="1.0" encoding="UTF-8"?>
<svg version="1.1" xmlns="http://www.w3.org/2000/svg" width="646" height="386">
<path d="M0 0 C85.47 0 170.94 0 259 0 C259 85.47 259 170.94 259 259 C159.74764958 260.1540971 159.74764958 260.1540971 129.23374939 259.89864349 C125.06073305 259.86537777 120.88767273 259.84144228 116.71459961 259.81628418 C104.8513425 259.74013776 92.9881738 259.6506749 81.125 259.5625 C54.35375 259.376875 27.5825 259.19125 0 259 C0 173.53 0 88.06 0 0 Z M11 10 C11 88.54 11 167.08 11 248 C89.21 248 167.42 248 248 248 C248 169.46 248 90.92 248 10 C169.79 10 91.58 10 11 10 Z " fill="none
" transform="translate(27,64)"/>
<path d="M0 0 C4.49625 -0.0825 8.9925 -0.165 13.625 -0.25 C15.03217285 -0.28641602 16.4393457 -0.32283203 17.88916016 -0.36035156 C28.20157263 -0.45217543 28.20157263 -0.45217543 31.77734375 1.81640625 C35.19105906 5.17012656 36.89094367 8.39173616 37.09375 13.2421875 C36.81009057 17.45453009 36.39408572 19.51005559 33.6875 22.875 C31.66716836 25.80212885 31.66716836 25.80212885 32.55859375 28.53125 C33.27691932 30.44678486 34.03721837 32.34703752 34.8359375 34.23046875 C36.32305676 37.76861492 37.15411841 41.264023 38 45 C34.7 45 31.4 45 28 45 C24.65856499 38.98541697 23.1318426 33.79105559 22 27 C17.71 27 13.42 27 9 27 C9 32.94 9 38.88 9 45 C6.03 45 3.06 45 0 45 C0 30.15 0 15.3 0 0 Z M9 10 C9 12.31 9 14.62 9 17 C11.62527189 17.05382106 14.24944713 17.09358313 16.875 17.125 C17.99455078 17.15013672 17.99455078 17.15013672 19.13671875 17.17578125 C21.09194461 17.1933959 23.04742021 17.10320189 25 17 C25.66 16.34 26.32 15.68 27 15 C26.59471099 12.21762345 26.59471099 12.21762345 25 10 C22.30345146 9.92680379 19.63308542 9.90757463 16.9375 9.9375 C15.79958008 9.94426758 15.79958008 9.94426758 14.63867188 9.95117188 C12.75908129 9.9629932 10.87953101 9.98092922 9 10 Z " fill="#0E100F" transform="translate(543,169)"/>
<path d="M0 0 C11.22 0 22.44 0 34 0 C34 3.3 34 6.6 34 10 C25.75 10 17.5 10 9 10 C9 12.31 9 14.62 9 17 C17.25 17 25.5 17 34 17 C34 20.3 34 23.6 34 27 C25.75 27 17.5 27 9 27 C9 29.64 9 32.28 9 35 C17.25 35 25.5 35 34 35 C34 38.3 34 41.6 34 45 C22.78 45 11.56 45 0 45 C0 30.15 0 15.3 0 0 Z " fill="#131413" transform="translate(507,169)"/>
<path d="M0 0 C1.73540039 0.01450195 1.73540039 0.01450195 3.50585938 0.02929688 C4.70404297 0.05443359 5.90222656 0.07957031 7.13671875 0.10546875 C8.96299805 0.12577148 8.96299805 0.12577148 10.82617188 0.14648438 C13.8259722 0.18177614 16.8248685 0.23108394 19.82421875 0.29296875 C19.82421875 3.59296875 19.82421875 6.89296875 19.82421875 10.29296875 C11.90421875 10.62296875 3.98421875 10.95296875 -4.17578125 11.29296875 C-3.84578125 12.94296875 -3.51578125 14.59296875 -3.17578125 16.29296875 C-2.16257812 16.33035156 -1.149375 16.36773437 -0.10546875 16.40625 C1.24612814 16.47195263 2.59768904 16.53839846 3.94921875 16.60546875 C4.614375 16.62802734 5.27953125 16.65058594 5.96484375 16.67382812 C11.7421484 16.98534945 15.74090287 18.59342158 20.19921875 22.23046875 C22.74283912 27.02421483 22.30388188 31.96949432 21.82421875 37.29296875 C21.32921875 38.28296875 21.32921875 38.28296875 20.82421875 39.29296875 C20.16421875 39.29296875 19.50421875 39.29296875 18.82421875 39.29296875 C18.73140625 40.22109375 18.73140625 40.22109375 18.63671875 41.16796875 C17.82421875 43.29296875 17.82421875 43.29296875 15.65942383 44.41357422 C12.49799931 45.39415212 9.95456666 45.52085395 6.6484375 45.48828125 C5.49150391 45.48183594 4.33457031 45.47539062 3.14257812 45.46875 C1.94439453 45.45199219 0.74621094 45.43523437 -0.48828125 45.41796875 C-1.70580078 45.40894531 -2.92332031 45.39992187 -4.17773438 45.390625 C-7.17728399 45.36709912 -10.17643169 45.33422528 -13.17578125 45.29296875 C-13.17578125 41.99296875 -13.17578125 38.69296875 -13.17578125 35.29296875 C-0.80078125 34.79796875 -0.80078125 34.79796875 11.82421875 34.29296875 C11.16421875 32.31296875 10.50421875 30.33296875 9.82421875 28.29296875 C8.66664063 28.27878906 7.5090625 28.26460937 6.31640625 28.25 C4.77730503 28.20307618 3.23824376 28.15482893 1.69921875 28.10546875 C0.55839844 28.09676758 0.55839844 28.09676758 -0.60546875 28.08789062 C-6.44729607 27.86126801 -9.08798757 26.48900619 -13.17578125 22.29296875 C-14.60175736 19.44101653 -14.30780645 16.968357 -14.30078125 13.79296875 C-14.30335938 12.62765625 -14.3059375 11.46234375 -14.30859375 10.26171875 C-14.17578125 7.29296875 -14.17578125 7.29296875 -13.17578125 5.29296875 C-12.51578125 5.29296875 -11.85578125 5.29296875 -11.17578125 5.29296875 C-11.17578125 4.63296875 -11.17578125 3.97296875 -11.17578125 3.29296875 C-7.41617096 0.43559546 -4.66003818 -0.06886756 0 0 Z " fill="#191A19" transform="translate(596.17578125,168.70703125)"/>
<path d="M0 0 C3.05507993 1.52753997 5.44341223 2.80863905 8 5 C8 5.66 8 6.32 8 7 C10.475 7.99 10.475 7.99 13 9 C13 9.66 13 10.32 13 11 C13.66 11 14.32 11 15 11 C15 11.66 15 12.32 15 13 C15.556875 13.2475 16.11375 13.495 16.6875 13.75 C19.42410913 15.22924818 21.67650869 16.93467439 24 19 C24 19.66 24 20.32 24 21 C24.66 21 25.32 21 26 21 C26.33 14.07 26.66 7.14 27 0 C29.97 0 32.94 0 36 0 C36 14.85 36 29.7 36 45 C35.34 45 34.68 45 34 45 C34 44.34 34 43.68 34 43 C33.38125 42.9175 32.7625 42.835 32.125 42.75 C30 42 30 42 29.0625 40.0625 C28.12720697 37.73547609 28.12720697 37.73547609 25.375 36.75 C24.59125 36.5025 23.8075 36.255 23 36 C23 35.34 23 34.68 23 34 C22.4225 33.731875 21.845 33.46375 21.25 33.1875 C18.94449957 31.97070811 16.97943808 30.69666121 15 29 C15 28.34 15 27.68 15 27 C14.0409375 26.5359375 14.0409375 26.5359375 13.0625 26.0625 C11 25 11 25 10 24 C9.67 30.93 9.34 37.86 9 45 C6.03 45 3.06 45 0 45 C0 30.15 0 15.3 0 0 Z " fill="#0E100F" transform="translate(469,169)"/>
<path d="M0 0 C0.99 0.33 1.98 0.66 3 1 C3 1.66 3 2.32 3 3 C3.721875 3.226875 4.44375 3.45375 5.1875 3.6875 C8.56582327 5.26405086 10.43796738 7.30986575 13 10 C13.825 10.66 14.65 11.32 15.5 12 C18.20534785 14.16427828 20.5845922 16.51931091 23 19 C23.66 19.66 24.32 20.32 25 21 C25.33 14.07 25.66 7.14 26 0 C28.97 0 31.94 0 35 0 C35 14.85 35 29.7 35 45 C30.83553411 42.22368941 26.99175875 39.50822728 23.125 36.375 C22.15820312 35.59898437 21.19140625 34.82296875 20.1953125 34.0234375 C19.47085937 33.35570312 18.74640625 32.68796875 18 32 C18 31.34 18 30.68 18 30 C17.4225 29.731875 16.845 29.46375 16.25 29.1875 C14 28 14 28 10 25 C9.67 31.6 9.34 38.2 9 45 C6.03 45 3.06 45 0 45 C0 30.15 0 15.3 0 0 Z " fill="#131414" transform="translate(432,169)"/>
<path d="M0 0 C3.24836144 3.35314729 3.15129021 5.72509218 3.25 10.3125 C3.30607422 12.00826172 3.30607422 12.00826172 3.36328125 13.73828125 C2.85019709 17.66878839 1.68598923 19.20198844 -1.0625 22 C-4.26656462 24.13604308 -5.05850747 24.24208908 -8.73046875 24.1953125 C-9.62314453 24.18886719 -10.51582031 24.18242187 -11.43554688 24.17578125 C-12.82870117 24.15064453 -12.82870117 24.15064453 -14.25 24.125 C-15.19037109 24.11597656 -16.13074219 24.10695312 -17.09960938 24.09765625 C-19.42068157 24.07409207 -21.74162289 24.03822121 -24.0625 24 C-24.0625 29.94 -24.0625 35.88 -24.0625 42 C-27.0325 42 -30.0025 42 -33.0625 42 C-33.0625 27.15 -33.0625 12.3 -33.0625 -3 C-6.61837808 -4.3222061 -6.61837808 -4.3222061 0 0 Z M-24.0625 7 C-24.0625 9.31 -24.0625 11.62 -24.0625 14 C-18.7825 14 -13.5025 14 -8.0625 14 C-7.4025 12.68 -6.7425 11.36 -6.0625 10 C-7.07771147 8.35157312 -7.07771147 8.35157312 -9.0625 7 C-11.71246326 6.7827899 -14.11326558 6.71648446 -16.75 6.8125 C-17.45189453 6.82603516 -18.15378906 6.83957031 -18.87695312 6.85351562 C-20.60579829 6.88879818 -22.33424765 6.94260417 -24.0625 7 Z " fill="#101211" transform="translate(343.0625,172)"/>
<path d="M0 0 C3.48199023 1.16066341 3.60726596 1.57848874 5.19921875 4.69140625 C5.60003662 5.46387695 6.00085449 6.23634766 6.41381836 7.03222656 C6.8341333 7.8672168 7.25444824 8.70220703 7.6875 9.5625 C8.34407593 10.84012207 8.34407593 10.84012207 9.01391602 12.14355469 C10.35305742 14.75720102 11.67771222 17.37779397 13 20 C13.7758631 21.52483045 14.5518942 23.04957544 15.328125 24.57421875 C24 41.70884307 24 41.70884307 24 45 C20.04 45 16.08 45 12 45 C11.34 43.35 10.68 41.7 10 40 C9.37332833 38.73249369 8.72569211 37.47507408 8.0546875 36.23046875 C7.52294922 35.23950195 7.52294922 35.23950195 6.98046875 34.22851562 C6.61566406 33.55498047 6.25085938 32.88144531 5.875 32.1875 C5.50246094 31.49462891 5.12992187 30.80175781 4.74609375 30.08789062 C3.83309623 28.39065164 2.91687284 26.69514862 2 25 C1.34 25 0.68 25 0 25 C-3.3 31.6 -6.6 38.2 -10 45 C-13.63 45 -17.26 45 -21 45 C-20.66182447 39.70191665 -19.2662664 36.31029791 -16.58203125 31.76953125 C-14.61742193 28.33025221 -12.87481818 24.80210153 -11.125 21.25 C-7.57438872 14.07679986 -3.84610398 7.01913977 0 0 Z " fill="#212321" transform="translate(406,169)"/>
<path d="M0 0 C2.97 0 5.94 0 9 0 C9 11.55 9 23.1 9 35 C17.58 35 26.16 35 35 35 C35 38.3 35 41.6 35 45 C23.45 45 11.9 45 0 45 C0 30.15 0 15.3 0 0 Z " fill="#111312" transform="translate(348,169)"/>
<path d="M0 0 C0.91458984 -0.01224609 1.82917969 -0.02449219 2.77148438 -0.03710938 C4.08149414 -0.04000977 4.08149414 -0.04000977 5.41796875 -0.04296875 C6.61135864 -0.04913208 6.61135864 -0.04913208 7.82885742 -0.05541992 C9.8125 0.1875 9.8125 0.1875 11.8125 2.1875 C11.8125 3.1775 11.8125 4.1675 11.8125 5.1875 C11.11165283 5.1968457 10.41080566 5.20619141 9.6887207 5.21582031 C6.50010975 5.26964544 3.31294667 5.35326936 0.125 5.4375 C-0.97779297 5.45167969 -2.08058594 5.46585938 -3.21679688 5.48046875 C-9.61736794 5.63408644 -9.61736794 5.63408644 -15.421875 8.078125 C-17.36098829 10.06771282 -17.36098829 10.06771282 -17.75 12.6875 C-16.98780414 16.07503715 -15.96687685 17.09859727 -13.1875 19.1875 C-10.32495223 19.48272737 -7.72966733 19.5938261 -4.875 19.5625 C4.61686567 19.8293114 4.61686567 19.8293114 8.375 22.5625 C10.94696107 25.40266021 11.30655548 27.97783183 11.5 31.75 C11.25839111 35.3064828 10.86986668 37.0833901 9.125 40.25 C5.02061034 43.68881296 1.35339337 44.43927426 -3.92578125 44.3828125 C-5.52583008 44.37314453 -5.52583008 44.37314453 -7.15820312 44.36328125 C-8.26099609 44.34652344 -9.36378906 44.32976562 -10.5 44.3125 C-11.62212891 44.30347656 -12.74425781 44.29445312 -13.90039062 44.28515625 C-16.66297909 44.26164486 -19.42512932 44.22878155 -22.1875 44.1875 C-22.8475 42.8675 -23.5075 41.5475 -24.1875 40.1875 C-22.1875 38.1875 -22.1875 38.1875 -19.9284668 38.03979492 C-18.54655151 38.10324097 -18.54655151 38.10324097 -17.13671875 38.16796875 C-16.12802734 38.19697266 -15.11933594 38.22597656 -14.08007812 38.25585938 C-11.95459228 38.3348689 -9.82951674 38.4258892 -7.70507812 38.52929688 C-2.29269318 38.83471388 -2.29269318 38.83471388 2.65771484 37.06103516 C4.21358136 35.58202825 4.21358136 35.58202825 5.8125 33.1875 C4.72465032 29.93766865 4.72465032 29.93766865 2.8125 27.1875 C-0.70666756 26.77214761 -4.22356781 26.41690226 -7.75390625 26.11328125 C-13.60510697 25.51704491 -17.23804533 24.19110619 -21.4375 19.875 C-23.48867845 16.72497595 -24.1875 14.95537896 -24.1875 11.1875 C-22.80275369 7.3672293 -20.96871895 4.78843765 -17.75 2.3125 C-11.99497095 -0.21409812 -6.17977953 0.00441098 0 0 Z " fill="#262626" transform="translate(72.1875,169.8125)"/>
<path d="M0 0 C0 1.65 0 3.3 0 5 C-3.43926312 4.59056391 -5.95626383 4.02231437 -9.0625 2.4375 C-12.10018192 0.95097481 -13.68283696 0.55173472 -17 1 C-17.99 1.66 -18.98 2.32 -20 3 C-20.99 3 -21.98 3 -23 3 C-23 3.66 -23 4.32 -23 5 C-23.78375 5.763125 -24.5675 6.52625 -25.375 7.3125 C-28.01479902 10.01515138 -29.15492427 11.36617437 -30 15 C-29.69021018 19.87918971 -29.12047819 24.5469958 -27 29 C-24.7004039 30.35336433 -24.7004039 30.35336433 -22 31 C-21.2575 31.391875 -20.515 31.78375 -19.75 32.1875 C-15.70765293 33.38182982 -12.07986226 32.94551552 -8 32 C-6.32665961 31.01120795 -4.65848177 30.01351664 -3 29 C-0.1875 29.3125 -0.1875 29.3125 2 30 C1.43463006 33.27914568 0.6296988 34.93380808 -2 37 C-8.26734903 40.02294397 -15.39116542 39.84328314 -22.15625 38.60546875 C-27.39661338 36.75943165 -30.95039255 32.45077845 -34 28 C-36.76934035 21.25725827 -37.05688361 15.01235149 -34.3125 8.3125 C-30.9450632 1.53101827 -26.65705609 -1.76648991 -19.6171875 -4.3359375 C-12.18228678 -6.22240485 -6.43470445 -3.62683341 0 0 Z " fill="#282928" transform="translate(219,175)"/>
<path d="M0 0 C2.48286071 0.97966738 3.75863505 1.6009758 5.16015625 3.91796875 C5.45792969 4.66691406 5.75570312 5.41585937 6.0625 6.1875 C6.39507812 7.00089844 6.72765625 7.81429687 7.0703125 8.65234375 C7.37710938 9.42707031 7.68390625 10.20179688 8 11 C8.474375 12.0725 8.94875 13.145 9.4375 14.25 C11.32931905 18.6813805 13.01346822 23.19506671 14.72265625 27.69921875 C16.19251785 31.49748498 17.7732498 35.24235258 19.3984375 38.9765625 C20 41 20 41 19 44 C17.68 44 16.36 44 15 44 C12.36756321 39.12511706 10.3585247 34.30848355 8.5625 29.0625 C6.57180662 23.31916413 4.20674625 18.15808546 1 13 C0.608125 13.94875 0.21625 14.8975 -0.1875 15.875 C-1.49575396 18.95032685 -2.96493182 21.90689235 -4.5 24.875 C-6.16008944 28.14050527 -7.52090146 31.32006199 -8.625 34.8125 C-9.70115187 38.2032802 -10.73451728 41.19080143 -13 44 C-14.32 44 -15.64 44 -17 44 C-17.22246975 39.63323665 -16.77051902 36.83546402 -14.8125 32.9375 C-12.84134043 28.84526169 -11.09345388 24.75426892 -9.5 20.5 C-4.03448276 6.05172414 -4.03448276 6.05172414 0 0 Z " fill="#242625" transform="translate(151,170)"/>
<path d="M0 0 C1.084021 0.00523682 2.16804199 0.01047363 3.28491211 0.01586914 C5.03964844 0.02070313 5.03964844 0.02070313 6.82983398 0.02563477 C8.67738281 0.03820312 8.67738281 0.03820312 10.56225586 0.05102539 C12.41560547 0.05779297 12.41560547 0.05779297 14.30639648 0.06469727 C17.37089703 0.07652931 20.43530307 0.09301366 23.49975586 0.11352539 C23.82975586 1.76352539 24.15975586 3.41352539 24.49975586 5.11352539 C16.90975586 5.11352539 9.31975586 5.11352539 1.49975586 5.11352539 C1.49975586 16.33352539 1.49975586 27.55352539 1.49975586 39.11352539 C8.75975586 39.11352539 16.01975586 39.11352539 23.49975586 39.11352539 C23.82975586 40.76352539 24.15975586 42.41352539 24.49975586 44.11352539 C15.25975586 44.11352539 6.01975586 44.11352539 -3.50024414 44.11352539 C-3.52314967 38.00792884 -3.54307781 31.90248023 -3.55517578 25.796875 C-3.56021702 23.71809383 -3.56704988 21.63931623 -3.57568359 19.56054688 C-3.58775836 16.57949953 -3.59347438 13.5984989 -3.59790039 10.61743164 C-3.60564232 9.2143148 -3.60564232 9.2143148 -3.61354065 7.78285217 C-3.61361618 6.92203537 -3.61369171 6.06121857 -3.61376953 5.17431641 C-3.61599014 4.41264664 -3.61821075 3.65097687 -3.62049866 2.8662262 C-3.42567638 0.02670573 -2.8434651 0.12910959 0 0 Z " fill="#3C3D3D" transform="translate(237.500244140625,169.886474609375)"/>
<path d="M0 0 C19.36302411 -0.93091462 19.36302411 -0.93091462 26 5 C27.96995556 8.93991113 27.45307739 13.70507464 27 18 C24.90810677 21.66081315 22.90596394 23.52224364 19 25 C16.36675429 25.14006626 13.8742956 25.1889934 11.25 25.125 C8.8575 25.08375 6.465 25.0425 4 25 C4 30.94 4 36.88 4 43 C1.525 43.495 1.525 43.495 -1 44 C-1 36.08 -1 28.16 -1 20 C8.25 19.8125 8.25 19.8125 11.14550781 19.79223633 C16.38652396 19.59928105 16.38652396 19.59928105 20.64453125 16.6484375 C22.33194853 14.00809445 22.33194853 14.00809445 21.4375 10.8125 C20.1645271 7.75692522 20.1645271 7.75692522 17 6 C14.97457852 5.63648496 14.97457852 5.63648496 12.76953125 5.5859375 C11.96708984 5.54726562 11.16464844 5.50859375 10.33789062 5.46875 C9.08782227 5.42234375 9.08782227 5.42234375 7.8125 5.375 C6.5450293 5.31699219 6.5450293 5.31699219 5.25195312 5.2578125 C3.16832476 5.16363721 1.08419247 5.08073325 -1 5 C-0.67 3.35 -0.34 1.7 0 0 Z " fill="#0D0E0D" transform="translate(96,170)"/>
<path d="M0 0 C1.98 0 3.96 0 6 0 C6.49628906 0.99257812 6.99257813 1.98515625 7.50390625 3.0078125 C7.8292334 3.6582251 8.15456055 4.3086377 8.48974609 4.97875977 C9.21090347 6.42156689 9.93126844 7.86477033 10.65087891 9.30834961 C12.42242641 12.85962099 14.20271233 16.40523961 16.01953125 19.93359375 C16.33269287 20.54638184 16.64585449 21.15916992 16.96850586 21.79052734 C17.826586 23.46786255 18.69046547 25.14222729 19.5546875 26.81640625 C21.09095549 30.2003479 22.06745393 33.41015033 23 37 C19.04 37 15.08 37 11 37 C10.34 35.35 9.68 33.7 9 32 C7.7526825 29.730737 6.44231254 27.50811134 5.12109375 25.28125 C3.91754373 22.83221443 3.47901692 20.6766121 3 18 C2.51195573 16.55103955 1.99282546 15.11203053 1.4375 13.6875 C0.963125 12.470625 0.48875 11.25375 0 10 C-1.32 10.33 -2.64 10.66 -4 11 C-5 8 -5 8 -4.25 5.375 C-3 3 -3 3 0 2 C0 1.34 0 0.68 0 0 Z " fill="#1B1C1C" transform="translate(407,177)"/>
<path d="M0 0 C3.41995922 2.92083004 3.7136134 5.30703186 4.07421875 9.6484375 C3.9212097 14.49640861 1.65594471 18.01608293 -1 22 C-0.42689593 24.51775489 -0.42689593 24.51775489 0.75 27.1875 C2.55382573 31.77019239 3.91339946 36.20084762 5 41 C1.7 41 -1.6 41 -5 41 C-8.30199356 35.0564116 -9.95518663 29.70880162 -11 23 C-10.67 23.66 -10.34 24.32 -10 25 C-8.02 24.34 -6.04 23.68 -4 23 C-4.34444881 20.52733235 -4.34444881 20.52733235 -5 18 C-5.66 17.67 -6.32 17.34 -7 17 C-7 16.34 -7 15.68 -7 15 C-12.28 14.67 -17.56 14.34 -23 14 C-23 13.67 -23 13.34 -23 13 C-21.44539062 12.94392578 -21.44539062 12.94392578 -19.859375 12.88671875 C-18.48954816 12.82104212 -17.11975809 12.75459536 -15.75 12.6875 C-15.06808594 12.66494141 -14.38617187 12.64238281 -13.68359375 12.61914062 C-9.50366294 12.39594044 -7.08343559 11.85584868 -4 9 C-3.34 8.67 -2.68 8.34 -2 8 C-1.60828247 6.34608154 -1.27942455 4.67654729 -1 3 C-0.67 2.01 -0.34 1.02 0 0 Z M-3 16 C-2.67 16.99 -2.34 17.98 -2 19 C-1.67 18.01 -1.34 17.02 -1 16 C-1.66 16 -2.32 16 -3 16 Z " fill="#151716" transform="translate(576,173)"/>
<path d="M0 0 C0.99 0.33 1.98 0.66 3 1 C3 1.99 3 2.98 3 4 C4.64639965 5.35827971 6.31295807 6.69254251 8 8 C8 8.66 8 9.32 8 10 C8.721875 10.28875 9.44375 10.5775 10.1875 10.875 C13 12 13 12 15.25 13.1875 C19.29234707 14.38182982 22.92013774 13.94551552 27 13 C28.67334039 12.01120795 30.34151823 11.01351664 32 10 C34.8125 10.3125 34.8125 10.3125 37 11 C36.43463006 14.27914568 35.6296988 15.93380808 33 18 C26.73265097 21.02294397 19.60883458 20.84328314 12.84375 19.60546875 C7.66896257 17.78253227 3.78372744 13.58960162 1 9 C0.20697451 5.96867178 -0.05067204 3.12718883 0 0 Z " fill="#212222" transform="translate(184,194)"/>
<path d="M0 0 C0.598125 0.165 1.19625 0.33 1.8125 0.5 C4.11344336 1.1114124 4.11344336 1.1114124 7 1 C9 4 9 4 8.9375 6.5625 C7.60975428 11.43090096 5.35239539 15.53648054 3 20 C-0.63 20 -4.26 20 -8 20 C-7.64859578 14.49466729 -6.06802708 10.84268431 -3.25390625 6.11328125 C-2.06795596 4.11453013 -1.01435334 2.09003966 0 0 Z " fill="#111211" transform="translate(393,194)"/>
<path d="M0 0 C8.58 0 17.16 0 26 0 C25.01 0.495 25.01 0.495 24 1 C24.33 3.31 24.66 5.62 25 8 C16.75 8 8.5 8 0 8 C0 5.36 0 2.72 0 0 Z " fill="#040605" transform="translate(584,205)"/>
<path d="M0 0 C2.1875 1.875 2.1875 1.875 4 5 C3.44543005 9.90008074 1.51087535 14.35482216 -1 18.5625 C-2.63701411 21.37611801 -3.60273909 23.57486978 -4.5625 26.625 C-5.66066627 30.07891005 -6.69231122 33.13846591 -9 36 C-10.32 36 -11.64 36 -13 36 C-13.22246975 31.63323665 -12.77051902 28.83546402 -10.8125 24.9375 C-8.30381512 19.73535459 -6.21532222 14.45749795 -4.2109375 9.04296875 C-2.97148531 5.92834534 -1.53930884 2.97629369 0 0 Z " fill="#2D2D2D" transform="translate(147,178)"/>
<path d="M0 0 C0.33 0 0.66 0 1 0 C1 7.92 1 15.84 1 24 C8.26 24 15.52 24 23 24 C23.33 24.99 23.66 25.98 24 27 C23 28 23 28 20.59155273 28.11352539 C19.54942627 28.10828857 18.5072998 28.10305176 17.43359375 28.09765625 C16.30888672 28.09443359 15.18417969 28.09121094 14.02539062 28.08789062 C12.84138672 28.07951172 11.65738281 28.07113281 10.4375 28.0625 C9.24962891 28.05798828 8.06175781 28.05347656 6.83789062 28.04882812 C3.89187774 28.03699675 0.94596319 28.02051287 -2 28 C-2.0582462 24.27089934 -2.09367917 20.54191636 -2.125 16.8125 C-2.14175781 15.75740234 -2.15851563 14.70230469 -2.17578125 13.61523438 C-2.18222656 12.59365234 -2.18867188 11.57207031 -2.1953125 10.51953125 C-2.20578613 9.58214111 -2.21625977 8.64475098 -2.22705078 7.67895508 C-1.98166713 4.78369188 -1.20521619 2.62937303 0 0 Z " fill="#050706" transform="translate(237,186)"/>
<path d="M0 0 C1.98 0 3.96 0 6 0 C10.02302158 6.8028777 10.02302158 6.8028777 9.9375 11.25 C8.97552279 14.0717998 8.10824875 15.89175125 6 18 C5.01 18 4.02 18 3 18 C2.01 15.36 1.02 12.72 0 10 C-1.32 10.33 -2.64 10.66 -4 11 C-5 8 -5 8 -4.25 5.375 C-3 3 -3 3 0 2 C0 1.34 0 0.68 0 0 Z " fill="#0F1110" transform="translate(407,177)"/>
<path d="M0 0 C18.77162196 -0.90248183 18.77162196 -0.90248183 24.78515625 3.515625 C26.23802645 5.29083618 26.61225786 6.75971209 27 9 C26.34 9 25.68 9 25 9 C24.67 10.65 24.34 12.3 24 14 C23.5875 13.4225 23.175 12.845 22.75 12.25 C22.1725 11.5075 21.595 10.765 21 10 C20.4946875 9.3090625 19.989375 8.618125 19.46875 7.90625 C15.78317653 5.06042745 12.28987558 5.32802911 7.75 5.25 C6.90953125 5.22035156 6.0690625 5.19070312 5.203125 5.16015625 C3.1359285 5.08968364 1.06795967 5.04255061 -1 5 C-0.67 3.35 -0.34 1.7 0 0 Z " fill="#242424" transform="translate(96,170)"/>
<path d="M0 0 C0.66 0.99 1.32 1.98 2 3 C4.58380177 3.25030977 4.58380177 3.25030977 7 3 C7.33 2.01 7.66 1.02 8 0 C8.495 0.99 8.495 0.99 9 2 C8.67 2.66 8.34 3.32 8 4 C8.66 4 9.32 4 10 4 C9.67 5.65 9.34 7.3 9 9 C8.34 9 7.68 9 7 9 C6.9071875 9.928125 6.9071875 9.928125 6.8125 10.875 C6 13 6 13 3.83520508 14.12060547 C0.67378056 15.10118337 -1.86965209 15.2278852 -5.17578125 15.1953125 C-6.33271484 15.18886719 -7.48964844 15.18242187 -8.68164062 15.17578125 C-10.47891602 15.15064453 -10.47891602 15.15064453 -12.3125 15.125 C-13.53001953 15.11597656 -14.74753906 15.10695312 -16.00195312 15.09765625 C-19.00150274 15.07413037 -22.00065044 15.04125653 -25 15 C-25 11.7 -25 8.4 -25 5 C-12.625 4.505 -12.625 4.505 0 4 C0 2.68 0 1.36 0 0 Z M-24 6 C-24 8.64 -24 11.28 -24 14 C-15.75 14 -7.5 14 1 14 C0.67 11.69 0.34 9.38 0 7 C0.66 6.67 1.32 6.34 2 6 C-6.58 6 -15.16 6 -24 6 Z " fill="#4F5150" transform="translate(608,199)"/>
<path d="M0 0 C0.99 0 1.98 0 3 0 C3.27714844 0.90363281 3.55429687 1.80726563 3.83984375 2.73828125 C4.20207031 3.91777344 4.56429687 5.09726563 4.9375 6.3125 C5.29714844 7.48425781 5.65679688 8.65601563 6.02734375 9.86328125 C6.66372279 11.91553977 7.32053379 13.96160137 8 16 C4.7 16 1.4 16 -2 16 C-5.03585982 9.80684597 -5.03585982 9.80684597 -4.875 6.1875 C-4 4 -4 4 -1 2 C-0.67 1.34 -0.34 0.68 0 0 Z " fill="#1C1E1D" transform="translate(573,198)"/>
<path d="M0 0 C2.53400593 0.99133705 3.77298367 1.62238133 5.1953125 3.98828125 C5.50210938 4.75527344 5.80890625 5.52226562 6.125 6.3125 C6.45242187 7.11816406 6.77984375 7.92382812 7.1171875 8.75390625 C7.55417969 9.86572266 7.55417969 9.86572266 8 11 C8.4125 11.9075 8.825 12.815 9.25 13.75 C10.09325275 16.27975825 10.15138947 18.35068428 10 21 C9.01 20.01 8.02 19.02 7 18 C6.67 18.66 6.34 19.32 6 20 C6 19.34 6 18.68 6 18 C5.34 18 4.68 18 4 18 C3.54625 17.21625 3.0925 16.4325 2.625 15.625 C0.92348887 12.8764051 -0.04519084 12.12078968 -3 11 C-3.36923077 4.6 -3.36923077 4.6 -1.5 1.5625 C-1.005 1.046875 -0.51 0.53125 0 0 Z " fill="#212221" transform="translate(151,170)"/>
<path d="M0 0 C5.36927758 0.09142733 10.62014238 0.19366078 15.8984375 1.23046875 C16.5584375 2.22046875 17.2184375 3.21046875 17.8984375 4.23046875 C19.2184375 4.89046875 20.5384375 5.55046875 21.8984375 6.23046875 C13.9784375 6.23046875 6.0584375 6.23046875 -2.1015625 6.23046875 C-2.7615625 4.91046875 -3.4215625 3.59046875 -4.1015625 2.23046875 C-2.1015625 0.23046875 -2.1015625 0.23046875 0 0 Z " fill="#2B2C2C" transform="translate(52.1015625,207.76953125)"/>
<path d="M0 0 C0.33 0.99 0.66 1.98 1 3 C2.87387216 3.80212628 2.87387216 3.80212628 5.0625 4.1875 C5.79597656 4.34605469 6.52945312 4.50460938 7.28515625 4.66796875 C7.85105469 4.77753906 8.41695313 4.88710937 9 5 C8.125 9.75 8.125 9.75 7 12 C3.37 12 -0.26 12 -4 12 C-3.5317879 7.22423661 -2.75668002 3.95523655 0 0 Z " fill="#131413" transform="translate(389,202)"/>
<path d="M0 0 C2.97 0.495 2.97 0.495 6 1 C5.40261053 2.73151972 4.79676033 4.46012147 4.1875 6.1875 C3.68283203 7.63189453 3.68283203 7.63189453 3.16796875 9.10546875 C1.99563895 12.01080783 0.89072765 14.49581593 -1 17 C-2.32 17 -3.64 17 -5 17 C-5.27771418 12.32051602 -4.54837397 9.32416664 -2.5 5.125 C-2.0359375 4.15820312 -1.571875 3.19140625 -1.09375 2.1953125 C-0.7328125 1.47085938 -0.371875 0.74640625 0 0 Z " fill="#323333" transform="translate(139,197)"/>
<path d="M0 0 C0.33 0 0.66 0 1 0 C1.33 2.64 1.66 5.28 2 8 C2.33 7.34 2.66 6.68 3 6 C3.66 6 4.32 6 5 6 C5 11.61 5 17.22 5 23 C3.35 23.33 1.7 23.66 0 24 C0 16.08 0 8.16 0 0 Z " fill="#393939" transform="translate(95,190)"/>
<path d="M0 0 C5.28 0 10.56 0 16 0 C15.67 1.65 15.34 3.3 15 5 C10.05 5 5.1 5 0 5 C0 3.35 0 1.7 0 0 Z " fill="#161616" transform="translate(241,190)"/>
<path d="M0 0 C2.5 2.3125 2.5 2.3125 5 5 C5 5.99 5 6.98 5 8 C2.41210938 9.3671875 2.41210938 9.3671875 -0.17578125 10.734375 C-2.15135144 11.91173642 -2.15135144 11.91173642 -3.21875 14.125 C-5 16 -5 16 -8.79296875 16.390625 C-10.25832231 16.36410276 -11.72341551 16.31649117 -13.1875 16.25 C-13.93708984 16.23195312 -14.68667969 16.21390625 -15.45898438 16.1953125 C-17.3065371 16.14824109 -19.15343159 16.07649766 -21 16 C-21 15.67 -21 15.34 -21 15 C-16.05 14.67 -11.1 14.34 -6 14 C-5.67 12.35 -5.34 10.7 -5 9 C-5.66 8.67 -6.32 8.34 -7 8 C-4.69 7.34 -2.38 6.68 0 6 C0 4.02 0 2.04 0 0 Z " fill="#454946" transform="translate(341,171)"/>
<path d="M0 0 C-0.56536994 3.27914568 -1.3703012 4.93380808 -4 7 C-6.72622646 8.39806485 -8.26186748 9.11969716 -11.3125 8.625 C-11.869375 8.41875 -12.42625 8.2125 -13 8 C-12.34 8 -11.68 8 -11 8 C-11 7.01 -11 6.02 -11 5 C-11.66 4.34 -12.32 3.68 -13 3 C-4.738041 -1.77676538 -4.738041 -1.77676538 0 0 Z " fill="#343535" transform="translate(221,205)"/>
<path d="M0 0 C0.99 0.33 1.98 0.66 3 1 C4.6875 4.5625 4.6875 4.5625 6 8 C5.01 8.33 4.02 8.66 3 9 C2.34 8.67 1.68 8.34 1 8 C1 8.66 1 9.32 1 10 C-1 11.625 -1 11.625 -3 13 C-3.33 12.67 -3.66 12.34 -4 12 C-3.631726 7.21243804 -2.74997245 3.94561264 0 0 Z " fill="#1E1F1E" transform="translate(406,169)"/>
<path d="M0 0 C-0.33 0.763125 -0.66 1.52625 -1 2.3125 C-2.17436686 4.99069135 -2.17436686 4.99069135 -2 8 C-2.66 8.66 -3.32 9.32 -4 10 C-4.33 10.66 -4.66 11.32 -5 12 C-5.99 12.33 -6.98 12.66 -8 13 C-8.99 14.485 -8.99 14.485 -10 16 C-10.66 12.7 -11.32 9.4 -12 6 C-11.67 6.66 -11.34 7.32 -11 8 C-9.02 7.34 -7.04 6.68 -5 6 C-4.814375 4.7934375 -4.814375 4.7934375 -4.625 3.5625 C-4.41875 2.716875 -4.2125 1.87125 -4 1 C-2 0 -2 0 0 0 Z " fill="#2A2C2B" transform="translate(577,190)"/>
<path d="M0 0 C1.625 1.5 1.625 1.5 3 3 C3 2.34 3 1.68 3 1 C3.99 1.33 4.98 1.66 6 2 C6 4.31 6 6.62 6 9 C5.34 9 4.68 9 4 9 C4 8.01 4 7.02 4 6 C3.67 6.66 3.34 7.32 3 8 C0.4375 8.625 0.4375 8.625 -2 9 C-2.99 6.36 -3.98 3.72 -5 1 C-2 0 -2 0 0 0 Z " fill="#050605" transform="translate(612,194)"/>
<path d="M0 0 C1.79244141 0.01740234 1.79244141 0.01740234 3.62109375 0.03515625 C5.41740234 0.04869141 5.41740234 0.04869141 7.25 0.0625 C8.17683594 0.07410156 9.10367188 0.08570313 10.05859375 0.09765625 C9.68359375 2.03515625 9.68359375 2.03515625 9.05859375 4.09765625 C6.65313737 5.30038444 5.10862422 5.19837097 2.43359375 5.16015625 C1.20769531 5.14662109 1.20769531 5.14662109 -0.04296875 5.1328125 C-0.98269531 5.11541016 -0.98269531 5.11541016 -1.94140625 5.09765625 C-2.60140625 3.77765625 -3.26140625 2.45765625 -3.94140625 1.09765625 C-2.94140625 0.09765625 -2.94140625 0.09765625 0 0 Z " fill="#1B1D1C" transform="translate(200.94140625,208.90234375)"/>
<path d="M0 0 C0.66 0.33 1.32 0.66 2 1 C2.78774617 9.03501094 2.78774617 9.03501094 -0.5 13.0625 C-1.325 13.701875 -2.15 14.34125 -3 15 C-4.125 12.1875 -4.125 12.1875 -5 9 C-4.34 8.01 -3.68 7.02 -3 6 C-2.34 6 -1.68 6 -1 6 C-1.020625 5.195625 -1.04125 4.39125 -1.0625 3.5625 C-1 1 -1 1 0 0 Z " fill="#101010" transform="translate(121,178)"/>
<path d="M0 0 C3.23475448 1.61737724 4.70572021 2.47629223 7 5 C5.68 4.67 4.36 4.34 3 4 C1.41769192 7.16461615 1.75842187 10.59079367 1.68359375 14.0703125 C1.66281265 14.86654022 1.64203156 15.66276794 1.62062073 16.48312378 C1.55515851 19.03032685 1.49625585 21.57763425 1.4375 24.125 C1.3943116 25.85027127 1.35069721 27.57553193 1.30664062 29.30078125 C1.19948055 33.53374685 1.09820377 37.76681753 1 42 C0.67 42 0.34 42 0 42 C0 28.14 0 14.28 0 0 Z " fill="#5C5F5E" transform="translate(469,169)"/>
<path d="M0 0 C5.94 0 11.88 0 18 0 C18 0.33 18 0.66 18 1 C14.7 1 11.4 1 8 1 C8.33 2.32 8.66 3.64 9 5 C5.7 5 2.4 5 -1 5 C-0.67 3.35 -0.34 1.7 0 0 Z " fill="#484948" transform="translate(96,170)"/>
<path d="M0 0 C1.485 0.99 1.485 0.99 3 2 C3.99 1.67 4.98 1.34 6 1 C6.66 1.66 7.32 2.32 8 3 C6.75 5.9375 6.75 5.9375 5 9 C2.890625 9.69140625 2.890625 9.69140625 1 10 C0.63883954 8.5225254 0.28624952 7.04295325 -0.0625 5.5625 C-0.25972656 4.73878906 -0.45695312 3.91507813 -0.66015625 3.06640625 C-0.82837891 2.04353516 -0.82837891 2.04353516 -1 1 C-0.67 0.67 -0.34 0.34 0 0 Z " fill="#050605" transform="translate(409,185)"/>
<path d="M0 0 C0.928125 0.2784375 0.928125 0.2784375 1.875 0.5625 C4.04160178 1.23686176 4.04160178 1.23686176 6 0 C7.61949011 2.57213134 8.04408751 3.67669159 7.625 6.75 C7.41875 7.4925 7.2125 8.235 7 9 C5.68 9.33 4.36 9.66 3 10 C0 3.375 0 3.375 0 0 Z " fill="#313232" transform="translate(156,188)"/>
<path d="M0 0 C3.37462715 0.54723683 5.08235 1.0549 8 3 C8.1875 5.625 8.1875 5.625 8 8 C2.46153846 7.38461538 2.46153846 7.38461538 0.125 5.4375 C-0.24625 4.963125 -0.6175 4.48875 -1 4 C-0.01 3.01 0.98 2.02 2 1 C1.34 0.67 0.68 0.34 0 0 Z " fill="#454545" transform="translate(211,172)"/>
<path d="M0 0 C1.32 0.33 2.64 0.66 4 1 C5.125 5.75 5.125 5.75 4 8 C1.4375 8.625 1.4375 8.625 -1 9 C-1.33 6.69 -1.66 4.38 -2 2 C-1.34 2 -0.68 2 0 2 C0 1.34 0 0.68 0 0 Z " fill="#181919" transform="translate(610,204)"/>
<path d="M0 0 C0.66 0.33 1.32 0.66 2 1 C1 3 0 5 -1 7 C-1.66 7 -2.32 7 -3 7 C-3 6.34 -3 5.68 -3 5 C-8.28 4.67 -13.56 4.34 -19 4 C-19 3.67 -19 3.34 -19 3 C-17.96359375 2.95101562 -16.9271875 2.90203125 -15.859375 2.8515625 C-14.48955792 2.77650403 -13.11976752 2.70095753 -11.75 2.625 C-11.06808594 2.5940625 -10.38617187 2.563125 -9.68359375 2.53125 C-5.9424347 2.3133184 -3.27216419 1.79189944 0 0 Z " fill="#525352" transform="translate(572,183)"/>
<path d="M0 0 C2.31 0 4.62 0 7 0 C7 0.66 7 1.32 7 2 C7.66 2 8.32 2 9 2 C8.67 2.99 8.34 3.98 8 5 C5.69 4.67 3.38 4.34 1 4 C0.67 2.68 0.34 1.36 0 0 Z " fill="#121312" transform="translate(204,171)"/>
<path d="M0 0 C-0.99 0.33 -1.98 0.66 -3 1 C-2.67 2.32 -2.34 3.64 -2 5 C-3.98 5.66 -5.96 6.32 -8 7 C-8.33 6.01 -8.66 5.02 -9 4 C-9.66 3.34 -10.32 2.68 -11 2 C-7.17679443 0.57741188 -4.08718695 -0.24042276 0 0 Z " fill="#303131" transform="translate(207,170)"/>
<path d="M0 0 C0.33 0 0.66 0 1 0 C1 2.64 1 5.28 1 8 C-1.64 8 -4.28 8 -7 8 C-6 5 -6 5 -4.0625 4 C-3.0415625 3.505 -3.0415625 3.505 -2 3 C-1.34 2.01 -0.68 1.02 0 0 Z " fill="#040505" transform="translate(439,205)"/>
<path d="M0 0 C2 3 2 3 1.625 5.6875 C1.41875 6.450625 1.2125 7.21375 1 8 C-0.32 8 -1.64 8 -3 8 C-3.1875 5.125 -3.1875 5.125 -3 2 C-2.01 1.34 -1.02 0.68 0 0 Z " fill="#363636" transform="translate(137,206)"/>
<path d="M0 0 C0.66 0.33 1.32 0.66 2 1 C1.67 2.32 1.34 3.64 1 5 C-2.375 5.125 -2.375 5.125 -6 5 C-6.66 4.34 -7.32 3.68 -8 3 C-8 2.34 -8 1.68 -8 1 C-5.69 1.33 -3.38 1.66 -1 2 C-0.67 1.34 -0.34 0.68 0 0 Z " fill="#0D0F0E" transform="translate(76,208)"/>
<path d="M0 0 C0.99 0 1.98 0 3 0 C2.125 4.75 2.125 4.75 1 7 C-2.63 7 -6.26 7 -10 7 C-10 6.67 -10 6.34 -10 6 C-7.03 6 -4.06 6 -1 6 C-1.33 4.68 -1.66 3.36 -2 2 C-1.34 1.34 -0.68 0.68 0 0 Z " fill="#454747" transform="translate(395,207)"/>
<path d="M0 0 C2.64 0 5.28 0 8 0 C7.01 0.33 6.02 0.66 5 1 C4.26676204 3.01508358 4.26676204 3.01508358 4 5 C3.34 5 2.68 5 2 5 C1.67 5.99 1.34 6.98 1 8 C0.67 8 0.34 8 0 8 C0 5.36 0 2.72 0 0 Z " fill="#030504" transform="translate(96,191)"/>
<path d="M0 0 C-1 3 -1 3 -3 4 C-4.99960012 4.039992 -7.00047242 4.04346799 -9 4 C-8.1875 2.0625 -8.1875 2.0625 -7 0 C-3.86650268 -1.04449911 -3.01031744 -0.93423645 0 0 Z " fill="#040605" transform="translate(211,210)"/>
<path d="M0 0 C0.99 0.33 1.98 0.66 3 1 C3 1.99 3 2.98 3 4 C4.94009522 5.70532323 4.94009522 5.70532323 7 7 C6.67 7.66 6.34 8.32 6 9 C5.01 8.34 4.02 7.68 3 7 C3 7.66 3 8.32 3 9 C2.34 9 1.68 9 1 9 C0.67 6.03 0.34 3.06 0 0 Z " fill="#0D0E0D" transform="translate(184,194)"/>
<path d="M0 0 C3.3 0 6.6 0 10 0 C9.34 0.66 8.68 1.32 8 2 C7.67 2.66 7.34 3.32 7 4 C5.02 4 3.04 4 1 4 C0.67 2.68 0.34 1.36 0 0 Z " fill="#060807" transform="translate(104,171)"/>
<path d="M0 0 C0.33 0.66 0.66 1.32 1 2 C2.65 1.67 4.3 1.34 6 1 C6 5.68091299 5.00354129 6.62101604 2 10 C1.34 6.7 0.68 3.4 0 0 Z " fill="#313231" transform="translate(565,196)"/>
<path d="M0 0 C0.99 0.33 1.98 0.66 3 1 C3 1.66 3 2.32 3 3 C3.99 3.33 4.98 3.66 6 4 C3.8614515 6.1385485 2.86724686 6.42655063 0 7 C0 4.69 0 2.38 0 0 Z " fill="#333333" transform="translate(432,169)"/>
<path d="M0 0 C2.31 0.66 4.62 1.32 7 2 C5.02 2.99 5.02 2.99 3 4 C3 4.99 3 5.98 3 7 C1.35 6.67 -0.3 6.34 -2 6 C-1.34 5.34 -0.68 4.68 0 4 C-0.33 3.34 -0.66 2.68 -1 2 C-0.67 1.34 -0.34 0.68 0 0 Z " fill="#3A3B3A" transform="translate(195,206)"/>
<path d="M0 0 C0.33 0.66 0.66 1.32 1 2 C-0.65 3.65 -2.3 5.3 -4 7 C-4.66 5.02 -5.32 3.04 -6 1 C-4.7934375 1.0309375 -4.7934375 1.0309375 -3.5625 1.0625 C-1.06645115 1.29633621 -1.06645115 1.29633621 0 0 Z " fill="#202020" transform="translate(122,186)"/>
<path d="M0 0 C1.98 0.66 3.96 1.32 6 2 C6 2.99 6 3.98 6 5 C4.35 5.33 2.7 5.66 1 6 C0.67 4.02 0.34 2.04 0 0 Z " fill="#232625" transform="translate(569,169)"/>
<path d="M0 0 C1.0625 1.8125 1.0625 1.8125 2 4 C1.67 4.99 1.34 5.98 1 7 C-0.32 7 -1.64 7 -3 7 C-3.33 6.01 -3.66 5.02 -4 4 C-3.34 4 -2.68 4 -2 4 C-2 3.34 -2 2.68 -2 2 C-1.34 2 -0.68 2 0 2 C0 1.34 0 0.68 0 0 Z " fill="#303030" transform="translate(169,207)"/>
<path d="M0 0 C1.32 0 2.64 0 4 0 C2.75023244 3.65316671 2.32901247 4.78065836 -1 7 C-1.625 5.1875 -1.625 5.1875 -2 3 C-1.34 2.01 -0.68 1.02 0 0 Z " fill="#323232" transform="translate(79,205)"/>
<path d="M0 0 C-0.33 2.31 -0.66 4.62 -1 7 C-1.99 7 -2.98 7 -4 7 C-4.33 5.68 -4.66 4.36 -5 3 C-1.125 0 -1.125 0 0 0 Z " fill="#262727" transform="translate(142,202)"/>
<path d="M0 0 C1.32 0 2.64 0 4 0 C4 1.65 4 3.3 4 5 C2.35 5 0.7 5 -1 5 C-0.67 3.35 -0.34 1.7 0 0 Z " fill="#1A1C1B" transform="translate(141,193)"/>
<path d="M0 0 C0.99 1.32 1.98 2.64 3 4 C2.34 5.32 1.68 6.64 1 8 C-0.32 7.34 -1.64 6.68 -3 6 C-2.01 4.02 -1.02 2.04 0 0 Z " fill="#2F3130" transform="translate(401,178)"/>
<path d="M0 0 C1.65 0 3.3 0 5 0 C5 0.99 5 1.98 5 3 C4.34 3 3.68 3 3 3 C3 3.66 3 4.32 3 5 C2.01 5 1.02 5 0 5 C0 3.35 0 1.7 0 0 Z " fill="#0C0D0C" transform="translate(164,206)"/>
<path d="M0 0 C2 3 2 3 1.625 6.1875 C1.41875 7.115625 1.2125 8.04375 1 9 C0.01 8.01 -0.98 7.02 -2 6 C-1.34 4.02 -0.68 2.04 0 0 Z " fill="#040605" transform="translate(476,190)"/>
<path d="M0 0 C1.35432675 1.31200404 2.68733482 2.64631404 4 4 C4 4.33 4 4.66 4 5 C1.69 5 -0.62 5 -3 5 C-2.67 4.34 -2.34 3.68 -2 3 C-1.34 3 -0.68 3 0 3 C0 2.01 0 1.02 0 0 Z " fill="#050505" transform="translate(422,208)"/>
<path d="M0 0 C1.65 0.33 3.3 0.66 5 1 C4.67 1.99 4.34 2.98 4 4 C3.34 4 2.68 4 2 4 C2 4.66 2 5.32 2 6 C1.01 5.67 0.02 5.34 -1 5 C-0.01 3.68 0.98 2.36 2 1 C1.34 0.67 0.68 0.34 0 0 Z " fill="#2F2F2F" transform="translate(211,172)"/>
<path d="M0 0 C2.88437779 1.29299694 4.87219421 2.65941363 7 5 C5.68 4.67 4.36 4.34 3 4 C2.67 4.66 2.34 5.32 2 6 C2 5.01 2 4.02 2 3 C1.34 3 0.68 3 0 3 C0 2.01 0 1.02 0 0 Z " fill="#373938" transform="translate(469,169)"/>
<path d="" fill="#FFFFFF" transform="translate(0,0)"/>
<path d="" fill="#FFFFFF" transform="translate(0,0)"/>
<path d="" fill="#FFFFFF" transform="translate(0,0)"/>
<path d="" fill="#FFFFFF" transform="translate(0,0)"/>
<path d="" fill="#FFFFFF" transform="translate(0,0)"/>
<path d="" fill="#FFFFFF" transform="translate(0,0)"/>
<path d="" fill="#FFFFFF" transform="translate(0,0)"/>
<path d="" fill="#FFFFFF" transform="translate(0,0)"/>
<path d="" fill="#FFFFFF" transform="translate(0,0)"/>
<path d="" fill="#FFFFFF" transform="translate(0,0)"/>
<path d="" fill="#FFFFFF" transform="translate(0,0)"/>
<path d="" fill="#FFFFFF" transform="translate(0,0)"/>
<path d="" fill="#FFFFFF" transform="translate(0,0)"/>
<path d="" fill="#FFFFFF" transform="translate(0,0)"/>
<path d="" fill="#FFFFFF" transform="translate(0,0)"/>
<path d="" fill="#FFFFFF" transform="translate(0,0)"/>
<path d="" fill="#FFFFFF" transform="translate(0,0)"/>
<path d="" fill="#FFFFFF" transform="translate(0,0)"/>
<path d="" fill="#FFFFFF" transform="translate(0,0)"/>
<path d="" fill="#FFFFFF" transform="translate(0,0)"/>
<path d="" fill="#FFFFFF" transform="translate(0,0)"/>
<path d="" fill="#FFFFFF" transform="translate(0,0)"/>
<path d="" fill="#FFFFFF" transform="translate(0,0)"/>
<path d="" fill="#FFFFFF" transform="translate(0,0)"/>
<path d="" fill="#FFFFFF" transform="translate(0,0)"/>
<path d="" fill="#FFFFFF" transform="translate(0,0)"/>
<path d="" fill="#FFFFFF" transform="translate(0,0)"/>
<path d="" fill="#FFFFFF" transform="translate(0,0)"/>
<path d="" fill="#FFFFFF" transform="translate(0,0)"/>
<path d="" fill="#FFFFFF" transform="translate(0,0)"/>
<path d="" fill="#FFFFFF" transform="translate(0,0)"/>
<path d="" fill="#FFFFFF" transform="translate(0,0)"/>
<path d="" fill="#FFFFFF" transform="translate(0,0)"/>
<path d="" fill="#FFFFFF" transform="translate(0,0)"/>
<path d="" fill="#FFFFFF" transform="translate(0,0)"/>
<path d="" fill="#FFFFFF" transform="translate(0,0)"/>
<path d="" fill="#FFFFFF" transform="translate(0,0)"/>
<path d="" fill="#FFFFFF" transform="translate(0,0)"/>
<path d="" fill="#FFFFFF" transform="translate(0,0)"/>
<path d="" fill="#FFFFFF" transform="translate(0,0)"/>
<path d="" fill="#FFFFFF" transform="translate(0,0)"/>
<path d="" fill="#FFFFFF" transform="translate(0,0)"/>
<path d="" fill="#FFFFFF" transform="translate(0,0)"/>
<path d="" fill="#FFFFFF" transform="translate(0,0)"/>
<path d="" fill="#FFFFFF" transform="translate(0,0)"/>
<path d="" fill="#FFFFFF" transform="translate(0,0)"/>
<path d="" fill="#FFFFFF" transform="translate(0,0)"/>
<path d="" fill="#FFFFFF" transform="translate(0,0)"/>
<path d="" fill="#FFFFFF" transform="translate(0,0)"/>
<path d="" fill="#FFFFFF" transform="translate(0,0)"/>
<path d="" fill="#FFFFFF" transform="translate(0,0)"/>
<path d="" fill="#FFFFFF" transform="translate(0,0)"/>
<path d="" fill="#FFFFFF" transform="translate(0,0)"/>
<path d="" fill="#FFFFFF" transform="translate(0,0)"/>
<path d="" fill="#FFFFFF" transform="translate(0,0)"/>
<path d="" fill="#FFFFFF" transform="translate(0,0)"/>
<path d="" fill="#FFFFFF" transform="translate(0,0)"/>
<path d="" fill="#FFFFFF" transform="translate(0,0)"/>
<path d="" fill="#FFFFFF" transform="translate(0,0)"/>
<path d="" fill="#FFFFFF" transform="translate(0,0)"/>
<path d="" fill="#FFFFFF" transform="translate(0,0)"/>
<path d="" fill="#FFFFFF" transform="translate(0,0)"/>
<path d="" fill="#FFFFFF" transform="translate(0,0)"/>
<path d="" fill="#FFFFFF" transform="translate(0,0)"/>
<path d="" fill="#FFFFFF" transform="translate(0,0)"/>
<path d="" fill="#FFFFFF" transform="translate(0,0)"/>
<path d="" fill="#FFFFFF" transform="translate(0,0)"/>
<path d="" fill="#FFFFFF" transform="translate(0,0)"/>
<path d="" fill="#FFFFFF" transform="translate(0,0)"/>
<path d="" fill="#FFFFFF" transform="translate(0,0)"/>
<path d="" fill="#FFFFFF" transform="translate(0,0)"/>
<path d="" fill="#FFFFFF" transform="translate(0,0)"/>
<path d="" fill="#FFFFFF" transform="translate(0,0)"/>
<path d="" fill="#FFFFFF" transform="translate(0,0)"/>
<path d="" fill="#FFFFFF" transform="translate(0,0)"/>
<path d="" fill="#FFFFFF" transform="translate(0,0)"/>
<path d="" fill="#FFFFFF" transform="translate(0,0)"/>
</svg>
