<svg xmlns="http://www.w3.org/2000/svg" viewBox="0 0 220 80" width="220" height="80">
  <rect width="220" height="80" fill="white"/>
  <!-- ONGC: orange flame on green base -->
  <g transform="translate(8, 5)">
    <!-- Green base / earth -->
    <ellipse cx="30" cy="62" rx="26" ry="8" fill="#00813A"/>
    <!-- Flame orange -->
    <path d="M30 55 Q18 40 22 22 Q26 10 30 6 Q34 18 38 22 Q44 34 30 55Z" fill="#FF6600"/>
    <path d="M30 50 Q22 38 25 26 Q28 18 30 14 Q32 22 35 26 Q38 36 30 50Z" fill="#FFA500"/>
    <path d="M30 44 Q25 35 27 27 Q29 22 30 20 Q31 25 33 28 Q35 34 30 44Z" fill="#FFD700"/>
  </g>
  <text x="72" y="42" font-family="Arial Black, sans-serif" font-size="26" font-weight="900" fill="#00813A">ONGC</text>
  <text x="72" y="57" font-family="Arial, sans-serif" font-size="7.5" fill="#333" letter-spacing="0.3">OIL AND NATURAL GAS</text>
  <text x="72" y="68" font-family="Arial, sans-serif" font-size="7.5" fill="#333" letter-spacing="0.3">CORPORATION</text>
</svg>
