<svg version="1.0" xmlns="http://www.w3.org/2000/svg" width="250.000000" height="206.000000" viewBox="0 0 250.000000 206.000000" preserveAspectRatio="xMidYMid meet"><rect x="0" y="0" width="17" height="14" fill="rgb(254,254,254)" /><rect x="15" y="0" width="17" height="14" fill="rgb(254,254,254)" /><rect x="31" y="0" width="17" height="14" fill="rgb(192,225,206)" /><rect x="47" y="0" width="17" height="14" fill="rgb(205,231,216)" /><rect x="63" y="0" width="17" height="14" fill="rgb(254,254,254)" /><rect x="79" y="0" width="17" height="14" fill="rgb(254,254,254)" /><rect x="95" y="0" width="17" height="14" fill="rgb(254,254,254)" /><rect x="111" y="0" width="17" height="14" fill="rgb(254,254,254)" /><rect x="127" y="0" width="17" height="14" fill="rgb(254,254,254)" /><rect x="143" y="0" width="17" height="14" fill="rgb(254,254,254)" /><rect x="159" y="0" width="17" height="14" fill="rgb(254,254,254)" /><rect x="175" y="0" width="17" height="14" fill="rgb(254,254,254)" /><rect x="191" y="0" width="17" height="14" fill="rgb(238,246,241)" /><rect x="207" y="0" width="17" height="14" fill="rgb(238,246,241)" /><rect x="223" y="0" width="27" height="14" fill="rgb(254,254,254)" /><rect x="0" y="12" width="17" height="14" fill="rgb(254,254,254)" /><rect x="15" y="12" width="17" height="14" fill="rgb(234,244,238)" /><rect x="31" y="12" width="17" height="14" fill="rgb(157,209,181)" /><rect x="47" y="12" width="17" height="14" fill="rgb(87,175,125)" /><rect x="63" y="12" width="17" height="14" fill="rgb(158,209,180)" /><rect x="79" y="12" width="17" height="14" fill="rgb(254,254,254)" /><rect x="95" y="12" width="17" height="14" fill="rgb(254,254,254)" /><rect x="111" y="12" width="17" height="14" fill="rgb(254,254,254)" /><rect x="127" y="12" width="17" height="14" fill="rgb(254,254,254)" /><rect x="143" y="12" width="17" height="14" fill="rgb(254,254,254)" /><rect x="159" y="12" width="17" height="14" fill="rgb(252,253,253)" /><rect x="175" y="12" width="17" height="14" fill="rgb(177,216,193)" /><rect x="191" y="12" width="17" height="14" fill="rgb(210,232,219)" /><rect x="207" y="12" width="17" height="14" fill="rgb(220,238,228)" /><rect x="223" y="12" width="27" height="14" fill="rgb(241,248,244)" /><rect x="0" y="25" width="17" height="14" fill="rgb(211,232,219)" /><rect x="15" y="25" width="17" height="14" fill="rgb(199,226,209)" /><rect x="31" y="25" width="17" height="14" fill="rgb(157,208,179)" /><rect x="47" y="25" width="17" height="14" fill="rgb(95,179,132)" /><rect x="63" y="25" width="17" height="14" fill="rgb(46,158,95)" /><rect x="79" y="25" width="17" height="14" fill="rgb(97,181,134)" /><rect x="95" y="25" width="17" height="14" fill="rgb(239,247,242)" /><rect x="111" y="25" width="17" height="14" fill="rgb(254,254,254)" /><rect x="127" y="25" width="17" height="14" fill="rgb(254,254,254)" /><rect x="143" y="25" width="17" height="14" fill="rgb(222,239,229)" /><rect x="159" y="25" width="17" height="14" fill="rgb(154,205,175)" /><rect x="175" y="25" width="17" height="14" fill="rgb(226,240,232)" /><rect x="191" y="25" width="17" height="14" fill="rgb(216,236,224)" /><rect x="207" y="25" width="17" height="14" fill="rgb(220,238,228)" /><rect x="223" y="25" width="27" height="14" fill="rgb(192,223,205)" /><rect x="0" y="38" width="17" height="14" fill="rgb(199,227,210)" /><rect x="15" y="38" width="17" height="14" fill="rgb(199,226,209)" /><rect x="31" y="38" width="17" height="14" fill="rgb(156,208,179)" /><rect x="47" y="38" width="17" height="14" fill="rgb(75,170,116)" /><rect x="63" y="38" width="17" height="14" fill="rgb(63,165,108)" /><rect x="79" y="38" width="17" height="14" fill="rgb(75,170,117)" /><rect x="95" y="38" width="17" height="14" fill="rgb(100,181,136)" /><rect x="111" y="38" width="17" height="14" fill="rgb(206,231,217)" /><rect x="127" y="38" width="17" height="14" fill="rgb(237,246,241)" /><rect x="143" y="38" width="17" height="14" fill="rgb(192,224,205)" /><rect x="159" y="38" width="17" height="14" fill="rgb(251,252,251)" /><rect x="175" y="38" width="17" height="14" fill="rgb(154,206,176)" /><rect x="191" y="38" width="17" height="14" fill="rgb(204,229,214)" /><rect x="207" y="38" width="17" height="14" fill="rgb(220,238,228)" /><rect x="223" y="38" width="27" height="14" fill="rgb(184,220,199)" /><rect x="0" y="51" width="17" height="14" fill="rgb(199,227,210)" /><rect x="15" y="51" width="17" height="14" fill="rgb(199,226,209)" /><rect x="31" y="51" width="17" height="14" fill="rgb(154,207,177)" /><rect x="47" y="51" width="17" height="14" fill="rgb(75,170,116)" /><rect x="63" y="51" width="17" height="14" fill="rgb(12,143,71)" /><rect x="79" y="51" width="17" height="14" fill="rgb(35,153,87)" /><rect x="95" y="51" width="17" height="14" fill="rgb(118,189,149)" /><rect x="111" y="51" width="17" height="14" fill="rgb(88,178,129)" /><rect x="127" y="51" width="17" height="14" fill="rgb(195,225,208)" /><rect x="143" y="51" width="17" height="14" fill="rgb(229,242,234)" /><rect x="159" y="51" width="17" height="14" fill="rgb(144,201,168)" /><rect x="175" y="51" width="17" height="14" fill="rgb(153,205,174)" /><rect x="191" y="51" width="17" height="14" fill="rgb(200,227,211)" /><rect x="207" y="51" width="17" height="14" fill="rgb(220,238,228)" /><rect x="223" y="51" width="27" height="14" fill="rgb(185,220,199)" /><rect x="0" y="64" width="17" height="14" fill="rgb(199,227,210)" /><rect x="15" y="64" width="17" height="14" fill="rgb(199,226,209)" /><rect x="31" y="64" width="17" height="14" fill="rgb(154,207,177)" /><rect x="47" y="64" width="17" height="14" fill="rgb(85,174,124)" /><rect x="63" y="64" width="17" height="14" fill="rgb(24,148,79)" /><rect x="79" y="64" width="17" height="14" fill="rgb(66,167,111)" /><rect x="95" y="64" width="17" height="14" fill="rgb(71,169,114)" /><rect x="111" y="64" width="17" height="14" fill="rgb(88,178,129)" /><rect x="127" y="64" width="17" height="14" fill="rgb(194,225,207)" /><rect x="143" y="64" width="17" height="14" fill="rgb(155,205,176)" /><rect x="159" y="64" width="17" height="14" fill="rgb(212,234,221)" /><rect x="175" y="64" width="17" height="14" fill="rgb(106,183,139)" /><rect x="191" y="64" width="17" height="14" fill="rgb(200,227,211)" /><rect x="207" y="64" width="17" height="14" fill="rgb(220,238,228)" /><rect x="223" y="64" width="27" height="14" fill="rgb(184,220,199)" /><rect x="0" y="77" width="17" height="14" fill="rgb(199,227,210)" /><rect x="15" y="77" width="17" height="14" fill="rgb(199,226,209)" /><rect x="31" y="77" width="17" height="14" fill="rgb(211,233,221)" /><rect x="47" y="77" width="17" height="14" fill="rgb(131,195,158)" /><rect x="63" y="77" width="17" height="14" fill="rgb(109,185,142)" /><rect x="79" y="77" width="17" height="14" fill="rgb(25,149,81)" /><rect x="95" y="77" width="17" height="14" fill="rgb(71,169,114)" /><rect x="111" y="77" width="17" height="14" fill="rgb(88,178,129)" /><rect x="127" y="77" width="17" height="14" fill="rgb(194,224,206)" /><rect x="143" y="77" width="17" height="14" fill="rgb(130,194,157)" /><rect x="159" y="77" width="17" height="14" fill="rgb(170,213,188)" /><rect x="175" y="77" width="17" height="14" fill="rgb(184,220,199)" /><rect x="191" y="77" width="17" height="14" fill="rgb(200,227,211)" /><rect x="207" y="77" width="17" height="14" fill="rgb(220,238,228)" /><rect x="223" y="77" width="27" height="14" fill="rgb(184,220,199)" /><rect x="0" y="90" width="17" height="14" fill="rgb(199,227,210)" /><rect x="15" y="90" width="17" height="14" fill="rgb(199,226,209)" /><rect x="31" y="90" width="17" height="14" fill="rgb(164,212,185)" /><rect x="47" y="90" width="17" height="14" fill="rgb(101,182,137)" /><rect x="63" y="90" width="17" height="14" fill="rgb(4,140,65)" /><rect x="79" y="90" width="17" height="14" fill="rgb(39,155,91)" /><rect x="95" y="90" width="17" height="14" fill="rgb(71,169,114)" /><rect x="111" y="90" width="17" height="14" fill="rgb(88,178,129)" /><rect x="127" y="90" width="17" height="14" fill="rgb(194,224,206)" /><rect x="143" y="90" width="17" height="14" fill="rgb(237,245,240)" /><rect x="159" y="90" width="17" height="14" fill="rgb(228,241,234)" /><rect x="175" y="90" width="17" height="14" fill="rgb(150,204,172)" /><rect x="191" y="90" width="17" height="14" fill="rgb(210,232,219)" /><rect x="207" y="90" width="17" height="14" fill="rgb(220,238,228)" /><rect x="223" y="90" width="27" height="14" fill="rgb(184,220,199)" /><rect x="0" y="103" width="17" height="14" fill="rgb(199,227,210)" /><rect x="15" y="103" width="17" height="14" fill="rgb(153,206,176)" /><rect x="31" y="103" width="17" height="14" fill="rgb(147,204,172)" /><rect x="47" y="103" width="17" height="14" fill="rgb(42,156,93)" /><rect x="63" y="103" width="17" height="14" fill="rgb(68,167,112)" /><rect x="79" y="103" width="17" height="14" fill="rgb(64,165,108)" /><rect x="95" y="103" width="17" height="14" fill="rgb(71,168,114)" /><rect x="111" y="103" width="17" height="14" fill="rgb(88,178,129)" /><rect x="127" y="103" width="17" height="14" fill="rgb(193,224,206)" /><rect x="143" y="103" width="17" height="14" fill="rgb(178,217,194)" /><rect x="159" y="103" width="17" height="14" fill="rgb(165,211,184)" /><rect x="175" y="103" width="17" height="14" fill="rgb(237,246,241)" /><rect x="191" y="103" width="17" height="14" fill="rgb(152,205,174)" /><rect x="207" y="103" width="17" height="14" fill="rgb(144,202,169)" /><rect x="223" y="103" width="27" height="14" fill="rgb(175,216,192)" /><rect x="0" y="116" width="17" height="14" fill="rgb(119,190,149)" /><rect x="15" y="116" width="17" height="14" fill="rgb(124,192,154)" /><rect x="31" y="116" width="17" height="14" fill="rgb(37,154,89)" /><rect x="47" y="116" width="17" height="14" fill="rgb(102,183,137)" /><rect x="63" y="116" width="17" height="14" fill="rgb(154,206,177)" /><rect x="79" y="116" width="17" height="14" fill="rgb(43,156,93)" /><rect x="95" y="116" width="17" height="14" fill="rgb(113,187,145)" /><rect x="111" y="116" width="17" height="14" fill="rgb(88,178,129)" /><rect x="127" y="116" width="17" height="14" fill="rgb(199,227,212)" /><rect x="143" y="116" width="17" height="14" fill="rgb(169,214,189)" /><rect x="159" y="116" width="17" height="14" fill="rgb(202,229,213)" /><rect x="175" y="116" width="17" height="14" fill="rgb(134,196,160)" /><rect x="191" y="116" width="17" height="14" fill="rgb(75,171,117)" /><rect x="207" y="116" width="17" height="14" fill="rgb(50,159,98)" /><rect x="223" y="116" width="27" height="14" fill="rgb(111,187,144)" /><rect x="0" y="129" width="17" height="14" fill="rgb(193,225,207)" /><rect x="15" y="129" width="17" height="14" fill="rgb(44,157,94)" /><rect x="31" y="129" width="17" height="14" fill="rgb(87,176,126)" /><rect x="47" y="129" width="17" height="14" fill="rgb(73,170,116)" /><rect x="63" y="129" width="17" height="14" fill="rgb(49,159,98)" /><rect x="79" y="129" width="17" height="14" fill="rgb(120,191,150)" /><rect x="95" y="129" width="17" height="14" fill="rgb(25,148,80)" /><rect x="111" y="129" width="17" height="14" fill="rgb(88,178,129)" /><rect x="127" y="129" width="17" height="14" fill="rgb(244,249,246)" /><rect x="143" y="129" width="17" height="14" fill="rgb(167,212,187)" /><rect x="159" y="129" width="17" height="14" fill="rgb(150,205,173)" /><rect x="175" y="129" width="17" height="14" fill="rgb(33,152,85)" /><rect x="191" y="129" width="17" height="14" fill="rgb(83,174,122)" /><rect x="207" y="129" width="17" height="14" fill="rgb(58,163,104)" /><rect x="223" y="129" width="27" height="14" fill="rgb(130,196,159)" /><rect x="0" y="142" width="17" height="14" fill="rgb(254,254,254)" /><rect x="15" y="142" width="17" height="14" fill="rgb(238,247,242)" /><rect x="31" y="142" width="17" height="14" fill="rgb(98,181,134)" /><rect x="47" y="142" width="17" height="14" fill="rgb(45,157,95)" /><rect x="63" y="142" width="17" height="14" fill="rgb(99,181,135)" /><rect x="79" y="142" width="17" height="14" fill="rgb(25,148,79)" /><rect x="95" y="142" width="17" height="14" fill="rgb(102,183,138)" /><rect x="111" y="142" width="17" height="14" fill="rgb(148,204,173)" /><rect x="127" y="142" width="17" height="14" fill="rgb(152,204,174)" /><rect x="143" y="142" width="17" height="14" fill="rgb(85,175,124)" /><rect x="159" y="142" width="17" height="14" fill="rgb(33,152,86)" /><rect x="175" y="142" width="17" height="14" fill="rgb(91,177,128)" /><rect x="191" y="142" width="17" height="14" fill="rgb(30,150,83)" /><rect x="207" y="142" width="17" height="14" fill="rgb(140,201,167)" /><rect x="223" y="142" width="27" height="14" fill="rgb(253,253,253)" /><rect x="0" y="155" width="17" height="14" fill="rgb(254,254,254)" /><rect x="15" y="155" width="17" height="14" fill="rgb(254,254,254)" /><rect x="31" y="155" width="17" height="14" fill="rgb(254,254,254)" /><rect x="47" y="155" width="17" height="14" fill="rgb(163,211,184)" /><rect x="63" y="155" width="17" height="14" fill="rgb(27,149,81)" /><rect x="79" y="155" width="17" height="14" fill="rgb(91,177,128)" /><rect x="95" y="155" width="17" height="14" fill="rgb(50,160,99)" /><rect x="111" y="155" width="17" height="14" fill="rgb(59,164,106)" /><rect x="127" y="155" width="17" height="14" fill="rgb(38,154,90)" /><rect x="143" y="155" width="17" height="14" fill="rgb(63,165,108)" /><rect x="159" y="155" width="17" height="14" fill="rgb(68,167,111)" /><rect x="175" y="155" width="17" height="14" fill="rgb(43,157,94)" /><rect x="191" y="155" width="17" height="14" fill="rgb(200,229,213)" /><rect x="207" y="155" width="17" height="14" fill="rgb(254,254,254)" /><rect x="223" y="155" width="27" height="14" fill="rgb(254,254,254)" /><rect x="0" y="168" width="17" height="14" fill="rgb(254,254,254)" /><rect x="15" y="168" width="17" height="14" fill="rgb(254,254,254)" /><rect x="31" y="168" width="17" height="14" fill="rgb(254,254,254)" /><rect x="47" y="168" width="17" height="14" fill="rgb(254,254,254)" /><rect x="63" y="168" width="17" height="14" fill="rgb(216,236,225)" /><rect x="79" y="168" width="17" height="14" fill="rgb(60,164,106)" /><rect x="95" y="168" width="17" height="14" fill="rgb(55,162,102)" /><rect x="111" y="168" width="17" height="14" fill="rgb(84,174,123)" /><rect x="127" y="168" width="17" height="14" fill="rgb(82,173,122)" /><rect x="143" y="168" width="17" height="14" fill="rgb(33,152,86)" /><rect x="159" y="168" width="17" height="14" fill="rgb(99,182,135)" /><rect x="175" y="168" width="17" height="14" fill="rgb(239,247,242)" /><rect x="191" y="168" width="17" height="14" fill="rgb(254,254,254)" /><rect x="207" y="168" width="17" height="14" fill="rgb(254,254,254)" /><rect x="223" y="168" width="27" height="14" fill="rgb(254,254,254)" /><rect x="0" y="181" width="17" height="25" fill="rgb(254,254,254)" /><rect x="15" y="181" width="17" height="25" fill="rgb(254,254,254)" /><rect x="31" y="181" width="17" height="25" fill="rgb(254,254,254)" /><rect x="47" y="181" width="17" height="25" fill="rgb(254,254,254)" /><rect x="63" y="181" width="17" height="25" fill="rgb(254,254,254)" /><rect x="79" y="181" width="17" height="25" fill="rgb(250,252,251)" /><rect x="95" y="181" width="17" height="25" fill="rgb(180,220,197)" /><rect x="111" y="181" width="17" height="25" fill="rgb(95,180,132)" /><rect x="127" y="181" width="17" height="25" fill="rgb(110,187,144)" /><rect x="143" y="181" width="17" height="25" fill="rgb(204,230,215)" /><rect x="159" y="181" width="17" height="25" fill="rgb(254,254,254)" /><rect x="175" y="181" width="17" height="25" fill="rgb(254,254,254)" /><rect x="191" y="181" width="17" height="25" fill="rgb(254,254,254)" /><rect x="207" y="181" width="17" height="25" fill="rgb(254,254,254)" /><rect x="223" y="181" width="27" height="25" fill="rgb(254,254,254)" /><g transform="translate(0.000000,206.000000) scale(0.100000,-0.100000)" fill="#007926" stroke="none"><path d="M420 2016 c0 -3 9 -10 20 -16 11 -6 20 -8 20 -6 0 3 -9 10 -20 16 -11 6 -20 8 -20 6z"/><path d="M490 1976 c0 -3 9 -10 20 -16 11 -6 20 -8 20 -6 0 3 -9 10 -20 16 -11 6 -20 8 -20 6z"/><path d="M2065 1968 c-3 -7 -4 -229 -3 -493 l3 -480 3 487 c1 378 5 487 15 491 9 4 9 6 -1 6 -7 1 -15 -5 -17 -11z"/><path d="M538 1569 c-2 -209 0 -383 5 -386 4 -2 7 169 7 381 0 212 -2 386 -5 386 -2 0 -6 -171 -7 -381z"/><path d="M610 1835 c0 -43 2 -76 4 -74 7 7 10 139 3 146 -4 3 -7 -29 -7 -72z"/><path d="M640 1886 c0 -3 9 -10 20 -16 11 -6 20 -8 20 -6 0 3 -9 10 -20 16 -11 6 -20 8 -20 6z"/><path d="M1884 1874 c-18 -14 -18 -14 6 -3 31 14 36 19 24 19 -6 0 -19 -7 -30 -16z"/><path d="M690 1856 c0 -3 9 -10 20 -16 11 -6 20 -8 20 -6 0 3 -9 10 -20 16 -11 6 -20 8 -20 6z"/><path d="M1884 1844 c-18 -14 -18 -15 4 -4 12 6 22 13 22 15 0 8 -5 6 -26 -11z"/><path d="M245 1370 c0 -267 1 -376 2 -242 2 133 2 351 0 485 -1 133 -2 24 -2 -243z"/><path d="M2255 1837 c-3 -6 -4 -201 -2 -432 l2 -420 3 427 c1 330 5 427 15 431 9 4 9 6 -1 6 -7 1 -15 -5 -17 -12z"/><path d="M265 1415 c0 -236 1 -332 2 -212 2 120 2 314 0 430 -1 117 -2 19 -2 -218z"/><path d="M740 1826 c0 -3 9 -10 20 -16 11 -6 20 -8 20 -6 0 3 -9 10 -20 16 -11 6 -20 8 -20 6z"/><path d="M1774 1814 c-18 -14 -18 -15 4 -4 12 6 22 13 22 15 0 8 -5 6 -26 -11z"/><path d="M790 1796 c0 -3 9 -10 20 -16 11 -6 20 -8 20 -6 0 3 -9 10 -20 16 -11 6 -20 8 -20 6z"/><path d="M62 1269 c-2 -471 -1 -517 14 -523 13 -5 14 -4 6 7 -9 10 -13 162 -15 523 l-2 509 -3 -516z"/><path d="M2430 1770 c-10 -7 -11 -10 -2 -10 15 0 18 -989 2 -1008 -6 -7 -3 -6 5 1 13 11 15 79 13 520 -3 447 -5 505 -18 497z"/><path d="M1658 1754 c-38 -20 -36 -28 2 -9 17 9 30 18 30 20 0 7 -1 6 -32 -11z"/><path d="M1724 1754 c-18 -14 -18 -15 4 -4 12 6 22 13 22 15 0 8 -5 6 -26 -11z"/><path d="M422 1503 l-2 -252 23 -11 c20 -10 20 -10 5 3 -16 12 -18 41 -21 263 l-2 249 -3 -252z"/><path d="M660 1736 c0 -3 9 -10 20 -16 11 -6 20 -8 20 -6 0 3 -9 10 -20 16 -11 6 -20 8 -20 6z"/><path d="M1654 1714 c-18 -14 -18 -15 4 -4 12 6 22 13 22 15 0 8 -5 6 -26 -11z"/><path d="M940 1706 c0 -3 9 -10 20 -16 11 -6 20 -8 20 -6 0 3 -9 10 -20 16 -11 6 -20 8 -20 6z"/><path d="M1554 1694 c-18 -14 -18 -15 4 -4 12 6 22 13 22 15 0 8 -5 6 -26 -11z"/><path d="M610 1511 c0 -105 3 -192 8 -194 4 -3 6 78 4 180 -2 149 0 183 10 177 10 -6 9 -3 -1 9 -7 9 -15 17 -17 17 -2 0 -4 -85 -4 -189z"/><path d="M760 1676 c0 -3 9 -10 20 -16 11 -6 20 -8 20 -6 0 3 -9 10 -20 16 -11 6 -20 8 -20 6z"/><path d="M1564 1664 c-18 -14 -18 -15 4 -4 12 6 22 13 22 15 0 8 -5 6 -26 -11z"/><path d="M1020 1594 c0 -55 -3 -65 -15 -60 -21 8 -19 -1 4 -13 17 -9 18 -5 20 64 1 41 0 75 -3 75 -4 0 -6 -30 -6 -66z"/><path d="M1477 1653 c-10 -9 -9 -43 1 -43 5 0 17 7 28 16 18 14 18 15 -5 3 -22 -10 -23 -9 -18 10 5 22 4 25 -6 14z"/><path d="M1090 1610 c0 -5 5 -10 11 -10 5 0 7 5 4 10 -3 6 -8 10 -11 10 -2 0 -4 -4 -4 -10z"/><path d="M1844 1594 c-18 -14 -18 -15 4 -4 12 6 22 13 22 15 0 8 -5 6 -26 -11z"/><path d="M890 1596 c0 -3 9 -10 20 -16 11 -6 20 -8 20 -6 0 3 -9 10 -20 16 -11 6 -20 8 -20 6z"/><path d="M800 1576 c0 -3 9 -10 20 -16 11 -6 20 -8 20 -6 0 3 -9 10 -20 16 -11 6 -20 8 -20 6z"/><path d="M1313 1573 c-10 -4 -12 -80 -11 -341 l3 -337 2 329 c2 222 7 334 14 343 12 14 11 14 -8 6z"/><path d="M940 1566 c0 -3 9 -10 20 -16 11 -6 20 -8 20 -6 0 3 -9 10 -20 16 -11 6 -20 8 -20 6z"/><path d="M1170 1566 c0 -3 9 -10 20 -16 11 -6 20 -8 20 -6 0 3 -9 10 -20 16 -11 6 -20 8 -20 6z"/><path d="M1774 1554 c-18 -14 -18 -15 4 -4 12 6 22 13 22 15 0 8 -5 6 -26 -11z"/><path d="M1844 1554 c-18 -14 -18 -15 4 -4 12 6 22 13 22 15 0 8 -5 6 -26 -11z"/><path d="M1883 1480 c0 -41 2 -58 4 -37 2 20 2 54 0 75 -2 20 -4 3 -4 -38z"/><path d="M1654 1444 c-18 -14 -18 -15 4 -4 12 6 22 13 22 15 0 8 -5 6 -26 -11z"/><path d="M753 1415 c0 -22 2 -30 4 -17 2 12 2 30 0 40 -3 9 -5 -1 -4 -23z"/><path d="M1018 1154 c-2 -163 0 -298 5 -301 4 -2 7 131 7 296 0 166 -2 301 -5 301 -2 0 -6 -133 -7 -296z"/><path d="M1564 1434 c-18 -14 -18 -15 4 -4 12 6 22 13 22 15 0 8 -5 6 -26 -11z"/><path d="M820 1426 c0 -3 9 -10 20 -16 11 -6 20 -8 20 -6 0 3 -9 10 -20 16 -11 6 -20 8 -20 6z"/><path d="M1584 1404 c-18 -14 -18 -15 4 -4 12 6 22 13 22 15 0 8 -5 6 -26 -11z"/><path d="M1474 1377 c-2 -7 -3 -67 -2 -133 l3 -119 5 133 c3 72 4 132 2 132 -1 0 -5 -6 -8 -13z"/><path d="M1828 1374 c-38 -20 -36 -28 2 -9 17 9 30 18 30 20 0 7 -1 6 -32 -11z"/><path d="M1520 1370 c-9 -6 -10 -10 -3 -10 6 0 15 5 18 10 8 12 4 12 -15 0z"/><path d="M1493 1275 c0 -38 2 -53 4 -32 2 20 2 52 0 70 -2 17 -4 1 -4 -38z"/><path d="M1884 1235 c0 -60 1 -84 3 -52 2 32 2 81 0 110 -2 29 -3 3 -3 -58z"/><path d="M1724 1314 c-18 -14 -18 -15 4 -4 12 6 22 13 22 15 0 8 -5 6 -26 -11z"/><path d="M640 1306 c0 -3 9 -10 20 -16 11 -6 20 -8 20 -6 0 3 -9 10 -20 16 -11 6 -20 8 -20 6z"/><path d="M1724 1274 c-18 -14 -18 -15 4 -4 12 6 22 13 22 15 0 8 -5 6 -26 -11z"/><path d="M614 1145 c0 -55 1 -76 3 -47 2 29 2 74 0 100 -2 26 -3 2 -3 -53z"/><path d="M1628 1224 c-38 -20 -36 -28 2 -9 17 9 30 18 30 20 0 7 -1 6 -32 -11z"/><path d="M770 1226 c0 -3 9 -10 20 -16 11 -6 20 -8 20 -6 0 3 -9 10 -20 16 -11 6 -20 8 -20 6z"/><path d="M650 1216 c0 -3 9 -10 20 -16 11 -6 20 -8 20 -6 0 3 -9 10 -20 16 -11 6 -20 8 -20 6z"/><path d="M700 1186 c0 -3 9 -10 20 -16 11 -6 20 -8 20 -6 0 3 -9 10 -20 16 -11 6 -20 8 -20 6z"/><path d="M857 1169 c7 -7 15 -10 18 -7 3 3 -2 9 -12 12 -14 6 -15 5 -6 -5z"/><path d="M1524 1164 c-18 -14 -18 -15 4 -4 12 6 22 13 22 15 0 8 -5 6 -26 -11z"/><path d="M750 1156 c0 -3 9 -10 20 -16 11 -6 20 -8 20 -6 0 3 -9 10 -20 16 -11 6 -20 8 -20 6z"/><path d="M420 1146 c0 -3 9 -10 20 -16 11 -6 20 -8 20 -6 0 3 -9 10 -20 16 -11 6 -20 8 -20 6z"/><path d="M800 1126 c0 -3 9 -10 20 -16 11 -6 20 -8 20 -6 0 3 -9 10 -20 16 -11 6 -20 8 -20 6z"/><path d="M1824 1064 c-18 -14 -18 -15 4 -4 12 6 22 13 22 15 0 8 -5 6 -26 -11z"/><path d="M1744 1054 c-18 -14 -18 -15 4 -4 12 6 22 13 22 15 0 8 -5 6 -26 -11z"/><path d="M750 1016 c0 -3 9 -10 20 -16 11 -6 20 -8 20 -6 0 3 -9 10 -20 16 -11 6 -20 8 -20 6z"/><path d="M718 914 c-2 -53 0 -98 5 -101 4 -2 7 41 7 96 0 56 -2 101 -4 101 -3 0 -6 -43 -8 -96z"/><path d="M440 986 c0 -3 9 -10 20 -16 11 -6 20 -8 20 -6 0 3 -9 10 -20 16 -11 6 -20 8 -20 6z"/><path d="M1664 974 c-18 -14 -18 -15 4 -4 12 6 22 13 22 15 0 8 -5 6 -26 -11z"/><path d="M820 976 c0 -3 9 -10 20 -16 11 -6 20 -8 20 -6 0 3 -9 10 -20 16 -11 6 -20 8 -20 6z"/><path d="M1568 964 c-38 -20 -36 -28 2 -9 17 9 30 18 30 20 0 7 -1 6 -32 -11z"/><path d="M2044 954 c-18 -14 -18 -15 4 -4 12 6 22 13 22 15 0 8 -5 6 -26 -11z"/><path d="M320 956 c0 -3 9 -10 20 -16 11 -6 20 -8 20 -6 0 3 -9 10 -20 16 -11 6 -20 8 -20 6z"/><path d="M1964 944 c-18 -14 -18 -15 4 -4 12 6 22 13 22 15 0 8 -5 6 -26 -11z"/><path d="M500 946 c0 -2 7 -7 16 -10 8 -3 12 -2 9 4 -6 10 -25 14 -25 6z"/><path d="M1574 924 c-18 -14 -18 -15 4 -4 12 6 22 13 22 15 0 8 -5 6 -26 -11z"/><path d="M803 907 c0 -7 9 -13 19 -13 10 0 18 1 18 3 0 1 -8 7 -18 12 -13 7 -19 6 -19 -2z"/><path d="M1894 904 c-18 -14 -18 -15 4 -4 12 6 22 13 22 15 0 8 -5 6 -26 -11z"/><path d="M940 906 c0 -3 9 -10 20 -16 11 -6 20 -8 20 -6 0 3 -9 10 -20 16 -11 6 -20 8 -20 6z"/><path d="M2084 894 c-18 -14 -18 -15 4 -4 12 6 22 13 22 15 0 8 -5 6 -26 -11z"/><path d="M850 886 c0 -3 9 -10 20 -16 11 -6 20 -8 20 -6 0 3 -9 10 -20 16 -11 6 -20 8 -20 6z"/><path d="M240 871 c0 -5 7 -12 16 -15 14 -5 15 -4 4 9 -14 17 -20 19 -20 6z"/><path d="M1884 864 c-18 -14 -18 -15 4 -4 12 6 22 13 22 15 0 8 -5 6 -26 -11z"/><path d="M100 866 c0 -3 9 -10 20 -16 11 -6 20 -8 20 -6 0 3 -9 10 -20 16 -11 6 -20 8 -20 6z"/><path d="M660 856 c0 -3 9 -10 20 -16 11 -6 20 -8 20 -6 0 3 -9 10 -20 16 -11 6 -20 8 -20 6z"/><path d="M2344 834 c-18 -14 -18 -15 4 -4 12 6 22 13 22 15 0 8 -5 6 -26 -11z"/><path d="M300 836 c0 -3 9 -10 20 -16 11 -6 20 -8 20 -6 0 3 -9 10 -20 16 -11 6 -20 8 -20 6z"/><path d="M2194 824 c-18 -14 -18 -15 4 -4 12 6 22 13 22 15 0 8 -5 6 -26 -11z"/><path d="M170 826 c0 -3 14 -12 30 -21 17 -9 30 -13 30 -11 0 3 -13 12 -30 21 -16 9 -30 13 -30 11z"/><path d="M950 826 c0 -3 9 -10 20 -16 11 -6 20 -8 20 -6 0 3 -9 10 -20 16 -11 6 -20 8 -20 6z"/><path d="M570 816 c0 -3 9 -10 20 -16 11 -6 20 -8 20 -6 0 3 -9 10 -20 16 -11 6 -20 8 -20 6z"/><path d="M1714 804 c-18 -14 -18 -15 4 -4 12 6 22 13 22 15 0 8 -5 6 -26 -11z"/><path d="M1924 804 c-18 -14 -18 -15 4 -4 12 6 22 13 22 15 0 8 -5 6 -26 -11z"/><path d="M1724 774 c-18 -14 -18 -15 4 -4 12 6 22 13 22 15 0 8 -5 6 -26 -11z"/><path d="M420 766 c0 -3 9 -10 20 -16 11 -6 20 -8 20 -6 0 3 -9 10 -20 16 -11 6 -20 8 -20 6z"/><path d="M660 766 c0 -3 9 -10 20 -16 11 -6 20 -8 20 -6 0 3 -9 10 -20 16 -11 6 -20 8 -20 6z"/><path d="M1834 754 c-18 -14 -18 -15 4 -4 12 6 22 13 22 15 0 8 -5 6 -26 -11z"/><path d="M2074 754 c-18 -14 -18 -15 4 -4 12 6 22 13 22 15 0 8 -5 6 -26 -11z"/><path d="M2204 754 c-18 -14 -18 -15 4 -4 12 6 22 13 22 15 0 8 -5 6 -26 -11z"/><path d="M1660 740 c-9 -6 -10 -10 -3 -10 6 0 15 5 18 10 8 12 4 12 -15 0z"/><path d="M120 726 c0 -3 9 -10 20 -16 11 -6 20 -8 20 -6 0 3 -9 10 -20 16 -11 6 -20 8 -20 6z"/><path d="M730 726 c0 -3 14 -12 30 -21 17 -9 30 -13 30 -11 0 3 -13 12 -30 21 -16 9 -30 13 -30 11z"/><path d="M890 726 c0 -3 9 -10 20 -16 11 -6 20 -8 20 -6 0 3 -9 10 -20 16 -11 6 -20 8 -20 6z"/><path d="M2134 714 c-18 -14 -18 -15 4 -4 12 6 22 13 22 15 0 8 -5 6 -26 -11z"/><path d="M2364 714 c-18 -14 -18 -15 4 -4 12 6 22 13 22 15 0 8 -5 6 -26 -11z"/><path d="M1744 704 c-18 -14 -18 -15 4 -4 12 6 22 13 22 15 0 8 -5 6 -26 -11z"/><path d="M400 696 c0 -3 9 -10 20 -16 11 -6 20 -8 20 -6 0 3 -9 10 -20 16 -11 6 -20 8 -20 6z"/><path d="M540 696 c0 -3 9 -10 20 -16 11 -6 20 -8 20 -6 0 3 -9 10 -20 16 -11 6 -20 8 -20 6z"/><path d="M2314 684 c-18 -14 -18 -15 4 -4 12 6 22 13 22 15 0 8 -5 6 -26 -11z"/><path d="M960 686 c0 -3 9 -10 20 -16 11 -6 20 -8 20 -6 0 3 -9 10 -20 16 -11 6 -20 8 -20 6z"/><path d="M820 676 c0 -3 9 -10 20 -16 11 -6 20 -8 20 -6 0 3 -9 10 -20 16 -11 6 -20 8 -20 6z"/><path d="M1674 664 c-18 -14 -18 -15 4 -4 12 6 22 13 22 15 0 8 -5 6 -26 -11z"/><path d="M470 656 c0 -3 9 -10 20 -16 11 -6 20 -8 20 -6 0 3 -9 10 -20 16 -11 6 -20 8 -20 6z"/><path d="M1010 656 c0 -3 9 -10 20 -16 11 -6 20 -8 20 -6 0 3 -9 10 -20 16 -11 6 -20 8 -20 6z"/><path d="M1424 644 c-18 -14 -18 -15 4 -4 12 6 22 13 22 15 0 8 -5 6 -26 -11z"/><path d="M1454 624 c-18 -14 -18 -15 4 -4 12 6 22 13 22 15 0 8 -5 6 -26 -11z"/><path d="M290 626 c0 -3 9 -10 20 -16 11 -6 20 -8 20 -6 0 3 -9 10 -20 16 -11 6 -20 8 -20 6z"/><path d="M910 626 c0 -3 9 -10 20 -16 11 -6 20 -8 20 -6 0 3 -9 10 -20 16 -11 6 -20 8 -20 6z"/><path d="M540 616 c0 -3 9 -10 20 -16 11 -6 20 -8 20 -6 0 3 -9 10 -20 16 -11 6 -20 8 -20 6z"/><path d="M1924 594 c-18 -14 -18 -15 4 -4 12 6 22 13 22 15 0 8 -5 6 -26 -11z"/><path d="M2144 584 c-18 -14 -18 -15 4 -4 12 6 22 13 22 15 0 8 -5 6 -26 -11z"/><path d="M730 586 c0 -3 9 -10 20 -16 11 -6 20 -8 20 -6 0 3 -9 10 -20 16 -11 6 -20 8 -20 6z"/><path d="M1130 586 c0 -3 9 -10 20 -16 11 -6 20 -8 20 -6 0 3 -9 10 -20 16 -11 6 -20 8 -20 6z"/><path d="M1364 574 c-18 -14 -18 -15 4 -4 12 6 22 13 22 15 0 8 -5 6 -26 -11z"/><path d="M1764 574 c-18 -14 -18 -15 4 -4 12 6 22 13 22 15 0 8 -5 6 -26 -11z"/><path d="M1300 554 c0 -14 4 -23 9 -20 5 3 7 15 4 26 -7 28 -13 25 -13 -6z"/><path d="M2094 554 c-18 -14 -18 -15 4 -4 12 6 22 13 22 15 0 8 -5 6 -26 -11z"/><path d="M460 526 c0 -3 9 -10 20 -16 11 -6 20 -8 20 -6 0 3 -9 10 -20 16 -11 6 -20 8 -20 6z"/><path d="M850 516 c0 -3 9 -10 20 -16 11 -6 20 -8 20 -6 0 3 -9 10 -20 16 -11 6 -20 8 -20 6z"/><path d="M1644 504 c-18 -14 -18 -15 4 -4 12 6 22 13 22 15 0 8 -5 6 -26 -11z"/><path d="M1974 484 c-18 -14 -18 -15 4 -4 12 6 22 13 22 15 0 8 -5 6 -26 -11z"/><path d="M770 486 c0 -3 9 -10 20 -16 11 -6 20 -8 20 -6 0 3 -9 10 -20 16 -11 6 -20 8 -20 6z"/><path d="M1160 486 c0 -3 9 -10 20 -16 11 -6 20 -8 20 -6 0 3 -9 10 -20 16 -11 6 -20 8 -20 6z"/><path d="M1334 474 c-18 -14 -18 -15 4 -4 12 6 22 13 22 15 0 8 -5 6 -26 -11z"/><path d="M1714 474 c-18 -14 -18 -15 4 -4 12 6 22 13 22 15 0 8 -5 6 -26 -11z"/><path d="M1574 464 c-18 -14 -18 -15 4 -4 12 6 22 13 22 15 0 8 -5 6 -26 -11z"/><path d="M560 466 c0 -3 9 -10 20 -16 11 -6 20 -8 20 -6 0 3 -9 10 -20 16 -11 6 -20 8 -20 6z"/><path d="M970 446 c0 -3 9 -10 20 -16 11 -6 20 -8 20 -6 0 3 -9 10 -20 16 -11 6 -20 8 -20 6z"/><path d="M1524 434 c-18 -14 -18 -15 4 -4 12 6 22 13 22 15 0 8 -5 6 -26 -11z"/><path d="M1644 434 c-18 -14 -18 -15 4 -4 12 6 22 13 22 15 0 8 -5 6 -26 -11z"/><path d="M1040 406 c0 -3 9 -10 20 -16 11 -6 20 -8 20 -6 0 3 -9 10 -20 16 -11 6 -20 8 -20 6z"/><path d="M1454 394 c-18 -14 -18 -15 4 -4 12 6 22 13 22 15 0 8 -5 6 -26 -11z"/><path d="M680 396 c0 -3 9 -10 20 -16 11 -6 20 -8 20 -6 0 3 -9 10 -20 16 -11 6 -20 8 -20 6z"/><path d="M1804 384 c-18 -14 -18 -15 4 -4 12 6 22 13 22 15 0 8 -5 6 -26 -11z"/><path d="M1090 376 c0 -3 9 -10 20 -16 11 -6 20 -8 20 -6 0 3 -9 10 -20 16 -11 6 -20 8 -20 6z"/><path d="M980 366 c0 -3 9 -10 20 -16 11 -6 20 -8 20 -6 0 3 -9 10 -20 16 -11 6 -20 8 -20 6z"/><path d="M1754 354 c-18 -14 -18 -15 4 -4 12 6 22 13 22 15 0 8 -5 6 -26 -11z"/><path d="M1160 336 c0 -3 9 -10 20 -16 11 -6 20 -8 20 -6 0 3 -9 10 -20 16 -11 6 -20 8 -20 6z"/><path d="M1050 326 c0 -3 9 -10 20 -16 11 -6 20 -8 20 -6 0 3 -9 10 -20 16 -11 6 -20 8 -20 6z"/><path d="M1434 314 c-18 -14 -18 -15 4 -4 12 6 22 13 22 15 0 8 -5 6 -26 -11z"/><path d="M1210 306 c0 -3 9 -10 20 -16 11 -6 20 -8 20 -6 0 3 -9 10 -20 16 -11 6 -20 8 -20 6z"/><path d="M1270 290 c-9 -6 -10 -10 -3 -10 6 0 15 5 18 10 8 12 4 12 -15 0z"/><path d="M1634 284 c-18 -14 -18 -15 4 -4 12 6 22 13 22 15 0 8 -5 6 -26 -11z"/><path d="M1584 254 c-18 -14 -18 -15 4 -4 12 6 22 13 22 15 0 8 -5 6 -26 -11z"/><path d="M1190 246 c0 -3 9 -10 20 -16 11 -6 20 -8 20 -6 0 3 -9 10 -20 16 -11 6 -20 8 -20 6z"/><path d="M1534 224 c-18 -14 -18 -15 4 -4 12 6 22 13 22 15 0 8 -5 6 -26 -11z"/><path d="M970 226 c0 -3 9 -10 20 -16 11 -6 20 -8 20 -6 0 3 -9 10 -20 16 -11 6 -20 8 -20 6z"/><path d="M1070 166 c0 -3 9 -10 20 -16 11 -6 20 -8 20 -6 0 3 -9 10 -20 16 -11 6 -20 8 -20 6z"/><path d="M1414 154 c-18 -14 -18 -15 4 -4 12 6 22 13 22 15 0 8 -5 6 -26 -11z"/><path d="M1190 96 c0 -3 9 -10 20 -16 11 -6 20 -8 20 -6 0 3 -9 10 -20 16 -11 6 -20 8 -20 6z"/></g><g transform="translate(0.000000,206.000000) scale(0.100000,-0.100000)" fill="#008533" stroke="none"><path d="M426 1975 c-3 -9 -5 -65 -4 -123 l2 -107 5 120 c6 131 6 134 -3 110z"/><path d="M2082 1483 c-1 -270 -5 -500 -8 -510 -5 -16 -4 -16 5 -1 8 11 10 168 8 510 l-2 493 -3 -492z"/><path d="M1911 1864 c0 -11 3 -14 6 -6 3 7 2 16 -1 19 -3 4 -6 -2 -5 -13z"/><path d="M2268 1523 c1 -175 3 -397 5 -493 1 -96 4 47 5 318 1 270 -1 492 -5 492 -5 0 -7 -143 -5 -317z"/><path d="M85 1320 c0 -239 1 -337 2 -218 2 120 2 316 0 435 -1 120 -2 22 -2 -217z"/><path d="M1914 1375 c0 -143 2 -200 3 -127 2 73 2 190 0 260 -1 70 -3 10 -3 -133z"/><path d="M1095 1180 c0 -234 1 -329 2 -213 2 117 2 309 0 425 -1 117 -2 22 -2 -212z"/><path d="M1325 1190 c0 -212 1 -298 2 -193 2 106 2 280 0 385 -1 106 -2 20 -2 -192z"/><path d="M760 1466 c0 -2 7 -9 15 -16 9 -7 15 -8 15 -2 0 5 -7 12 -15 16 -8 3 -15 4 -15 2z"/><path d="M892 1345 c0 -16 2 -22 5 -12 2 9 2 23 0 30 -3 6 -5 -1 -5 -18z"/><path d="M882 1130 c0 -19 2 -27 5 -17 2 9 2 25 0 35 -3 9 -5 1 -5 -18z"/><path d="M421 1073 c0 -39 2 -74 7 -76 4 -3 6 18 4 46 -5 92 -9 104 -11 30z"/><path d="M1470 842 l5 -67 3 59 c2 32 -1 63 -5 67 -4 4 -6 -22 -3 -59z"/><path d="M1301 848 c-1 -31 3 -59 7 -62 5 -3 7 18 5 47 -6 75 -11 81 -12 15z"/><path d="M2420 885 c-7 -9 -10 -18 -7 -21 3 -3 10 4 17 15 13 25 8 27 -10 6z"/><path d="M801 838 c0 -31 2 -59 7 -61 4 -3 6 16 4 41 -5 73 -10 82 -11 20z"/><path d="M1504 877 c-2 -7 -3 -60 -2 -118 l3 -104 5 118 c3 64 4 117 2 117 -1 0 -5 -6 -8 -13z"/><path d="M1473 730 c0 -25 2 -35 4 -22 2 12 2 32 0 45 -2 12 -4 2 -4 -23z"/><path d="M1060 756 c0 -2 7 -7 16 -10 8 -3 12 -2 9 4 -6 10 -25 14 -25 6z"/><path d="M1459 663 c-13 -16 -12 -17 4 -4 16 13 21 21 13 21 -2 0 -10 -8 -17 -17z"/><path d="M1260 220 c-13 -8 -12 -10 3 -10 9 0 17 5 17 10 0 12 -1 12 -20 0z"/></g><g transform="translate(0.000000,206.000000) scale(0.100000,-0.100000)" fill="#008C3F" stroke="none"><path d="M428 2013 c-2 -5 -2 -177 0 -384 l3 -377 29 -12 c17 -7 27 -16 24 -21 -3 -5 1 -6 9 -3 8 3 18 1 22 -5 21 -36 25 15 25 359 l0 370 -30 19 c-16 10 -27 21 -22 25 4 4 3 6 -3 5 -17 -5 -56 12 -50 22 4 5 4 9 1 9 -3 0 -6 -3 -8 -7z"/><path d="M2074 1685 c0 -159 2 -223 3 -142 2 82 2 212 0 290 -1 78 -3 12 -3 -148z"/><path d="M620 1831 c0 -48 4 -63 20 -74 11 -8 17 -17 12 -22 -4 -5 -1 -5 5 -1 16 9 56 -17 45 -29 -4 -5 -2 -5 5 -1 15 8 136 -67 126 -79 -5 -4 -2 -5 4 -1 16 9 56 -17 45 -29 -4 -5 -1 -5 5 -1 16 9 56 -17 45 -29 -4 -5 -1 -5 6 -1 7 4 25 -2 41 -13 16 -12 32 -21 35 -21 3 0 6 27 6 59 0 48 -4 63 -20 74 -11 8 -17 17 -12 22 4 5 1 5 -5 1 -15 -8 -56 17 -45 28 4 4 2 6 -3 5 -17 -5 -56 12 -49 22 3 5 2 8 -3 7 -16 -4 -53 14 -47 23 3 5 2 8 -3 7 -17 -4 -53 14 -47 24 4 7 2 8 -4 4 -6 -3 -35 9 -64 27 -104 66 -98 66 -98 -2z"/><path d="M1875 1860 c-16 -11 -36 -18 -43 -15 -8 3 -10 0 -6 -7 5 -8 1 -9 -12 -4 -10 4 -15 4 -11 0 10 -10 -72 -55 -86 -47 -7 3 -9 2 -5 -2 11 -11 -90 -67 -105 -59 -7 4 -9 3 -4 -1 9 -11 -92 -67 -106 -58 -6 3 -7 1 -3 -5 4 -7 2 -12 -3 -12 -6 0 -11 -7 -11 -15 0 -14 3 -14 25 1 13 8 30 12 37 8 7 -4 10 -4 6 1 -11 11 50 47 65 39 7 -4 9 -3 4 1 -10 11 72 57 86 48 7 -3 9 -3 5 2 -11 11 50 47 65 39 7 -4 9 -3 4 1 -9 11 72 57 86 48 5 -3 7 -2 4 4 -4 6 5 15 18 21 14 7 25 16 25 22 0 13 0 13 -35 -10z"/><path d="M252 1352 c-2 -420 0 -483 13 -488 8 -4 12 -11 8 -17 -3 -6 -1 -7 5 -3 6 4 23 -1 37 -10 14 -9 25 -14 25 -10 0 3 9 -3 20 -14 11 -11 25 -20 31 -20 5 0 7 -5 3 -12 -4 -6 -3 -8 4 -4 14 8 74 -28 64 -39 -4 -5 -2 -6 4 -2 14 8 127 -57 117 -68 -4 -4 -3 -6 3 -2 14 8 127 -57 117 -68 -4 -4 -2 -5 4 -1 16 9 74 -24 66 -37 -3 -6 -1 -7 5 -3 14 8 74 -28 64 -39 -4 -5 -1 -5 5 -1 16 9 56 -17 45 -29 -4 -5 -2 -5 5 -1 15 8 76 -28 65 -39 -4 -5 -1 -5 5 -1 16 9 56 -17 45 -29 -4 -5 -2 -5 5 -1 15 8 76 -28 65 -39 -4 -5 -1 -5 5 -1 16 9 56 -17 45 -29 -4 -5 -2 -5 5 -1 15 8 76 -28 65 -39 -4 -5 -2 -5 5 -1 7 4 21 1 33 -6 16 -10 24 -10 40 0 12 7 26 10 32 6 6 -4 8 -3 4 4 -6 10 30 28 47 24 5 -1 5 3 1 9 -5 9 -2 10 12 5 10 -4 15 -4 11 0 -10 11 31 36 46 28 6 -4 9 -4 5 1 -11 11 50 47 65 39 7 -4 9 -4 5 1 -11 11 29 38 44 29 7 -4 8 -3 4 4 -4 7 -2 12 4 12 6 0 8 5 4 12 -4 7 -3 8 5 4 6 -4 18 -2 26 4 8 6 20 8 27 4 7 -4 10 -4 6 1 -11 12 29 38 45 29 6 -4 9 -4 5 1 -11 11 50 47 65 39 7 -4 9 -4 5 1 -11 12 29 38 45 29 6 -4 9 -3 4 1 -10 11 121 87 136 78 7 -3 9 -3 5 2 -11 11 100 77 115 69 7 -4 9 -4 5 1 -10 11 50 47 64 39 6 -4 8 -3 4 4 -6 11 30 28 49 23 6 -1 7 1 3 5 -11 10 51 46 64 38 6 -4 8 -3 5 3 -4 6 0 13 8 17 13 5 15 68 13 488 l-3 483 -2 -419 c-3 -376 -5 -422 -20 -438 -9 -10 -24 -16 -32 -13 -8 3 -12 3 -8 -1 10 -10 -72 -55 -86 -47 -7 3 -9 3 -5 -2 11 -11 -50 -47 -65 -39 -7 4 -9 3 -4 -1 10 -11 -72 -57 -86 -48 -7 3 -9 2 -4 -2 10 -11 -72 -57 -86 -48 -7 3 -9 3 -5 -2 10 -11 -141 -97 -156 -88 -6 3 -8 2 -3 -2 10 -11 -72 -57 -86 -48 -7 3 -9 3 -5 -2 11 -11 -50 -47 -65 -39 -7 4 -9 3 -4 -1 10 -11 -72 -57 -86 -48 -7 3 -9 2 -4 -2 10 -11 -72 -57 -86 -48 -7 3 -9 2 -5 -2 13 -14 -91 -67 -118 -61 -15 4 -22 11 -18 18 4 6 3 8 -4 4 -13 -8 -75 28 -65 38 4 4 -1 4 -11 0 -14 -5 -17 -4 -12 5 4 6 4 10 -1 9 -14 -5 -73 24 -67 33 3 5 -3 6 -12 2 -12 -4 -15 -3 -10 6 4 6 4 10 -1 9 -16 -5 -73 24 -66 35 3 5 1 7 -4 4 -14 -9 -96 37 -86 47 5 4 4 6 -2 4 -16 -5 -75 23 -69 33 3 5 -3 6 -12 2 -12 -4 -15 -3 -10 6 4 6 4 10 -1 9 -16 -5 -73 24 -66 35 3 5 1 7 -4 4 -14 -9 -96 37 -86 47 5 4 4 6 -2 4 -16 -5 -75 23 -69 33 3 5 -3 6 -12 2 -12 -4 -15 -3 -10 6 4 6 4 10 -1 9 -16 -5 -73 24 -66 35 3 5 1 7 -4 4 -14 -9 -95 37 -86 48 5 4 3 5 -4 1 -14 -8 -76 28 -66 38 4 4 0 4 -8 1 -8 -3 -23 3 -32 13 -15 16 -17 62 -20 438 l-2 419 -3 -483z"/><path d="M73 1710 c0 -30 2 -43 4 -27 2 15 2 39 0 55 -2 15 -4 2 -4 -28z"/><path d="M2426 1753 c-3 -4 -6 -205 -6 -447 1 -390 -1 -441 -14 -440 -9 1 -13 -3 -9 -9 4 -6 0 -8 -11 -4 -9 4 -15 3 -12 -1 7 -12 -124 -83 -137 -75 -5 3 -7 1 -3 -5 6 -10 -30 -28 -47 -24 -5 1 -5 -3 -1 -9 5 -9 2 -10 -10 -6 -9 4 -15 3 -12 -1 7 -12 -52 -44 -67 -36 -6 4 -9 4 -5 -1 11 -11 -50 -47 -65 -39 -7 4 -9 4 -5 -1 10 -11 -50 -47 -64 -39 -6 4 -8 3 -5 -3 8 -13 -50 -46 -66 -37 -6 4 -9 3 -4 -1 10 -11 -121 -87 -135 -79 -6 4 -8 2 -4 -4 6 -10 -30 -28 -47 -24 -5 1 -5 -3 -1 -9 5 -9 2 -10 -10 -6 -9 4 -15 3 -12 -1 7 -12 -52 -44 -67 -36 -6 4 -9 4 -5 -1 11 -11 -50 -47 -65 -39 -7 4 -9 4 -5 -1 11 -11 -50 -47 -65 -39 -7 4 -9 4 -5 -1 11 -11 -29 -38 -44 -29 -7 5 -8 3 -3 -6 6 -10 4 -12 -11 -6 -10 4 -15 4 -11 0 10 -10 -52 -46 -66 -38 -7 4 -9 4 -5 -1 9 -9 -45 -45 -67 -45 -22 0 -76 36 -67 45 4 5 2 5 -5 1 -15 -8 -76 28 -65 39 4 5 1 5 -5 1 -15 -8 -74 24 -67 36 3 4 -3 5 -12 1 -12 -4 -15 -3 -10 6 4 6 4 10 -1 9 -15 -4 -53 13 -48 22 3 4 -1 7 -8 6 -20 -2 -156 77 -150 87 3 6 1 7 -5 3 -13 -8 -75 28 -64 38 4 4 3 6 -3 4 -17 -5 -75 24 -68 35 3 6 1 7 -5 3 -14 -8 -74 28 -64 39 4 5 2 5 -5 1 -15 -8 -76 28 -65 39 4 5 2 5 -5 1 -15 -8 -76 28 -65 39 4 5 2 5 -5 1 -14 -8 -76 28 -66 38 4 4 -1 4 -11 0 -10 -4 -21 -3 -25 3 -3 5 -34 25 -68 43 -34 19 -59 38 -56 44 3 5 1 6 -5 2 -12 -7 -75 27 -67 37 3 4 2 5 -1 2 -4 -2 -24 5 -45 16 l-39 19 -3 393 -2 392 -3 -447 -2 -446 74 -43 c41 -24 72 -48 69 -53 -4 -5 -2 -6 4 -3 13 8 175 -87 166 -98 -5 -4 -2 -5 4 -1 16 9 56 -17 45 -29 -4 -5 -1 -5 5 -1 15 8 56 -17 46 -28 -4 -4 1 -4 11 0 15 6 17 4 11 -6 -5 -9 -4 -11 3 -6 15 9 55 -18 44 -29 -4 -5 -1 -5 5 -1 16 9 56 -17 45 -29 -4 -5 -2 -5 5 -2 14 8 124 -53 117 -65 -3 -5 -2 -7 3 -6 17 4 53 -14 47 -24 -4 -6 -2 -8 4 -4 13 8 125 -58 114 -68 -4 -4 -2 -6 3 -5 19 5 55 -12 49 -23 -4 -7 -2 -8 4 -4 15 9 55 -18 44 -29 -4 -5 -2 -5 5 -1 15 8 76 -28 65 -39 -4 -5 -1 -5 5 -1 16 9 56 -17 45 -29 -4 -5 -1 -5 5 -1 16 9 56 -17 45 -29 -4 -5 -2 -5 5 -1 7 4 25 -1 39 -11 23 -15 103 -28 89 -15 -9 9 35 33 47 26 6 -4 8 -3 5 3 -6 9 84 66 94 60 2 -1 3 0 2 2 -6 9 59 41 70 35 7 -4 9 -4 5 1 -11 12 29 38 45 29 6 -4 9 -4 5 1 -11 11 100 77 115 69 7 -4 9 -4 5 1 -11 11 29 38 44 29 6 -4 8 -3 5 2 -6 11 191 130 210 128 7 -1 11 2 8 6 -6 9 34 26 50 21 6 -1 7 1 3 5 -11 10 51 46 65 38 7 -4 9 -4 5 1 -11 12 29 38 45 29 6 -4 9 -3 4 1 -10 11 153 106 167 98 6 -3 8 -2 3 2 -9 11 83 66 97 58 5 -3 6 -2 3 4 -4 6 5 15 18 21 l24 11 1 501 c0 275 -1 500 -3 500 -2 0 -7 -3 -11 -7z"/><path d="M620 1502 l0 -178 49 -29 c28 -16 48 -32 45 -37 -3 -5 -2 -7 3 -6 18 5 53 -14 47 -25 -4 -7 -4 -9 1 -5 11 10 86 -33 78 -45 -3 -6 -1 -7 6 -3 18 11 41 -13 41 -43 0 -35 -13 -53 -33 -45 -9 3 -14 11 -10 17 3 6 1 7 -5 3 -14 -9 -55 18 -44 28 4 4 3 6 -3 5 -17 -5 -56 12 -49 22 3 5 2 8 -3 7 -17 -4 -53 14 -47 24 4 7 2 8 -4 4 -12 -7 -56 17 -47 26 3 2 -2 5 -10 5 -12 0 -15 -17 -15 -88 0 -70 -3 -88 -16 -93 -22 -9 -26 -8 -18 6 4 7 3 8 -4 4 -15 -9 -55 18 -44 29 4 5 2 5 -5 1 -12 -6 -77 27 -68 35 2 3 -5 5 -16 5 -18 0 -20 -6 -18 -73 1 -39 5 -71 8 -71 16 4 51 -15 45 -24 -4 -7 -2 -8 4 -4 15 9 55 -18 44 -29 -4 -5 -2 -5 4 -2 14 8 177 -87 167 -98 -5 -4 -2 -5 5 -1 8 5 12 36 12 97 0 78 2 89 18 89 14 0 15 2 2 10 -27 18 -1 10 30 -8 16 -10 27 -22 22 -27 -4 -5 -2 -5 5 -1 15 8 76 -28 65 -39 -4 -5 -2 -6 4 -2 11 6 128 -56 120 -64 -3 -3 4 -5 15 -6 19 -2 19 5 19 293 -1 181 -5 292 -11 289 -12 -8 -51 20 -41 30 4 5 2 5 -5 1 -6 -3 -86 39 -177 94 l-166 99 0 -177z m193 -75 c-3 -6 -1 -7 6 -3 12 8 74 -31 67 -43 -3 -4 -6 -26 -7 -48 -3 -36 -5 -40 -20 -30 -10 6 -15 15 -13 19 3 5 2 7 -3 6 -18 -5 -53 14 -47 25 4 7 4 9 -1 5 -4 -4 -16 -3 -26 3 -14 7 -19 21 -19 49 0 22 5 40 11 40 5 0 7 5 3 11 -4 7 7 4 24 -6 17 -10 28 -23 25 -28z m84 -94 c-3 -10 -5 -4 -5 12 0 17 2 24 5 18 2 -7 2 -21 0 -30z"/><path d="M1875 1611 c9 -8 -56 -42 -67 -35 -6 4 -8 3 -5 -3 6 -10 -155 -106 -179 -106 -8 0 -12 -3 -9 -5 9 -9 -56 -43 -67 -36 -6 4 -8 3 -5 -3 3 -5 -10 -17 -29 -28 l-34 -18 0 -113 c0 -97 2 -113 17 -118 10 -4 14 -4 10 0 -10 10 72 55 86 47 7 -3 9 -2 4 2 -9 11 72 57 86 48 6 -4 7 -1 2 7 -6 10 -4 12 9 7 9 -4 15 -3 12 1 -7 12 73 54 86 45 6 -3 8 -1 5 4 -7 11 50 40 66 35 5 -1 6 2 2 8 -3 5 -2 10 3 10 17 0 22 -29 22 -129 0 -84 -3 -100 -19 -115 -11 -10 -25 -15 -32 -10 -8 5 -10 3 -4 -6 6 -10 4 -12 -9 -7 -11 5 -15 3 -10 -5 5 -8 2 -9 -10 -5 -9 4 -15 3 -12 -1 7 -11 -133 -84 -146 -76 -7 5 -8 2 -3 -6 6 -10 4 -12 -11 -6 -10 4 -15 4 -11 0 8 -8 -130 -87 -141 -80 -4 2 -7 -53 -7 -122 l0 -126 -48 -28 c-27 -16 -53 -25 -59 -22 -6 4 -8 2 -5 -3 4 -6 -7 -16 -23 -23 -31 -13 -39 -33 -18 -46 7 -5 8 -3 3 6 -6 10 -4 12 11 6 10 -4 15 -4 11 0 -10 10 72 56 86 47 5 -3 7 -2 4 4 -3 5 9 17 28 26 l35 17 0 114 c0 83 4 117 13 125 8 6 18 7 22 3 5 -4 4 -1 0 7 -6 11 -4 13 9 8 9 -4 15 -3 12 2 -7 11 55 42 68 34 5 -4 6 -1 1 7 -6 10 -4 12 9 7 9 -4 15 -3 12 1 -7 12 52 44 66 36 6 -4 8 -3 5 3 -7 11 50 40 66 35 5 -1 5 3 1 9 -5 9 -2 10 10 6 9 -4 15 -3 12 1 -7 12 52 44 66 36 7 -5 8 -3 3 6 -6 10 -4 12 9 7 10 -4 15 -3 11 3 -3 6 -1 10 4 10 8 0 11 82 11 253 0 244 -1 253 -20 253 -10 0 -17 -2 -15 -5z m13 -129 l3 -81 -48 -31 c-26 -16 -55 -27 -63 -24 -8 3 -11 2 -7 -2 10 -10 -72 -55 -86 -47 -7 3 -9 2 -4 -2 10 -11 -72 -57 -86 -48 -7 3 -9 2 -4 -2 10 -11 -70 -56 -88 -49 -11 5 -15 24 -15 79 0 70 1 75 30 95 17 12 35 18 42 14 7 -4 10 -4 6 1 -11 11 50 47 65 39 7 -4 9 -4 5 1 -10 11 50 47 64 39 6 -4 8 -3 5 3 -7 11 105 76 117 68 3 -3 4 -2 1 2 -7 8 36 33 50 29 6 -1 11 -39 13 -84z"/><path d="M1100 1181 c0 -290 -3 -421 -11 -421 -5 0 -7 -5 -4 -10 4 -6 -4 -5 -19 1 -14 7 -23 16 -19 22 3 6 1 7 -5 3 -13 -8 -104 48 -94 58 4 4 2 6 -3 5 -19 -5 -55 12 -49 23 4 7 2 8 -4 4 -12 -7 -56 17 -47 25 2 3 -5 5 -16 5 -18 0 -20 -6 -18 -68 1 -37 6 -65 10 -62 12 7 70 -31 61 -41 -4 -5 -1 -5 5 -1 16 9 56 -17 45 -29 -4 -5 -2 -5 5 -2 15 9 124 -54 116 -66 -3 -6 -1 -7 5 -3 14 8 74 -28 64 -39 -4 -5 -1 -5 5 -1 16 9 56 -17 45 -29 -4 -5 -1 -5 6 -1 7 4 19 2 27 -4 13 -11 15 53 15 494 0 325 -4 505 -10 501 -13 -8 -52 20 -42 30 4 5 2 5 -5 1 -7 -4 -24 1 -38 10 l-25 16 0 -421z"/><path d="M1315 1180 c0 -212 1 -298 2 -193 2 106 2 280 0 385 -1 106 -2 20 -2 -192z"/><path d="M2072 1198 c-2 -166 -5 -199 -18 -213 -9 -9 -24 -13 -32 -10 -9 3 -13 3 -9 -1 10 -10 -52 -46 -65 -38 -7 5 -8 2 -3 -6 6 -10 4 -12 -9 -7 -9 4 -15 3 -12 -2 6 -9 -53 -38 -67 -33 -5 1 -5 -3 -1 -9 5 -9 2 -10 -12 -5 -10 4 -15 4 -11 0 10 -10 -72 -55 -86 -47 -7 3 -9 2 -5 -2 5 -5 -15 -21 -42 -37 -69 -39 -63 -57 6 -19 31 17 62 28 68 24 6 -3 8 -3 4 2 -10 11 141 97 155 88 5 -3 7 -1 4 4 -7 11 50 40 66 35 5 -1 6 2 3 7 -3 5 8 14 24 21 16 7 34 18 40 25 7 8 9 84 7 216 l-2 204 -3 -197z"/><path d="M1463 845 c0 -33 2 -45 4 -27 2 18 2 45 0 60 -2 15 -4 0 -4 -33z"/></g><g transform="translate(0.000000,206.000000) scale(0.100000,-0.100000)" fill="#26995F" stroke="none"><path d="M413 1075 c0 -38 2 -53 4 -32 2 20 2 52 0 70 -2 17 -4 1 -4 -38z"/><path d="M793 835 c0 -33 2 -45 4 -27 2 18 2 45 0 60 -2 15 -4 0 -4 -33z"/><path d="M1463 735 c0 -33 2 -45 4 -27 2 18 2 45 0 60 -2 15 -4 0 -4 -33z"/></g><g transform="translate(0.000000,206.000000) scale(0.100000,-0.100000)" fill="#52AC7F" stroke="none"><path d="M602 1790 c0 -14 2 -19 5 -12 2 6 2 18 0 25 -3 6 -5 1 -5 -13z"/><path d="M1461 1624 c0 -11 3 -14 6 -6 3 7 2 16 -1 19 -3 4 -6 -2 -5 -13z"/><path d="M1085 1190 c0 -239 1 -337 2 -218 2 120 2 316 0 435 -1 120 -2 22 -2 -217z"/><path d="M412 1403 c-1 -83 1 -154 6 -156 4 -3 6 43 4 101 -4 190 -8 211 -10 55z"/><path d="M1462 1248 c-1 -71 1 -128 6 -128 4 0 6 39 4 87 -4 156 -8 171 -10 41z"/><path d="M1503 1270 c0 -41 2 -58 4 -37 2 20 2 54 0 75 -2 20 -4 3 -4 -38z"/><path d="M604 1155 c0 -55 1 -76 3 -47 2 29 2 74 0 100 -2 26 -3 2 -3 -53z"/><path d="M734 915 c0 -55 1 -76 3 -47 2 29 2 74 0 100 -2 26 -3 2 -3 -53z"/><path d="M1293 845 c0 -44 2 -61 4 -37 2 23 2 59 0 80 -2 20 -4 1 -4 -43z"/></g><g transform="translate(0.000000,206.000000) scale(0.100000,-0.100000)" fill="#79BF9F" stroke="none"><path d="M2055 1485 c0 -269 1 -378 2 -242 2 137 2 357 0 490 -1 133 -2 22 -2 -248z"/><path d="M603 1855 c0 -27 2 -38 4 -22 2 15 2 37 0 50 -2 12 -4 0 -4 -28z"/><path d="M413 1820 c0 -25 2 -35 4 -22 2 12 2 32 0 45 -2 12 -4 2 -4 -23z"/><path d="M2244 1680 c0 -91 2 -128 3 -82 2 45 2 119 0 165 -1 45 -3 8 -3 -83z"/><path d="M2450 1272 l5 -517 3 509 c1 281 -1 513 -5 517 -5 5 -6 -225 -3 -509z"/><path d="M414 1660 c0 -63 1 -89 3 -57 2 31 2 83 0 115 -2 31 -3 5 -3 -58z"/><path d="M604 1510 c0 -102 2 -143 3 -92 2 50 2 134 0 185 -1 50 -3 9 -3 -93z"/><path d="M1033 1580 c0 -36 2 -50 4 -32 2 17 2 47 0 65 -2 17 -4 3 -4 -33z"/><path d="M1335 1195 c0 -220 1 -309 2 -197 2 112 2 292 0 400 -1 108 -2 17 -2 -203z"/><path d="M2244 1250 c0 -146 2 -205 3 -132 2 72 2 192 0 265 -1 72 -3 13 -3 -133z"/><path d="M1034 1145 c0 -159 2 -223 3 -142 2 82 2 212 0 290 -1 78 -3 12 -3 -148z"/><path d="M1294 1140 c0 -124 2 -174 3 -112 2 61 2 163 0 225 -1 61 -3 11 -3 -113z"/><path d="M1874 1240 c0 -52 1 -74 3 -47 2 26 2 68 0 95 -2 26 -3 4 -3 -48z"/></g><g transform="translate(0.000000,206.000000) scale(0.100000,-0.100000)" fill="#99CCB2" stroke="none"><path d="M413 1910 c0 -30 2 -43 4 -27 2 15 2 39 0 55 -2 15 -4 2 -4 -28z"/><path d="M550 1563 c-3 -216 -2 -389 3 -384 4 4 6 180 5 392 l-3 384 -5 -392z"/><path d="M235 1355 c0 -269 1 -378 2 -242 2 137 2 357 0 490 -1 133 -2 22 -2 -248z"/><path d="M95 1325 c0 -247 1 -347 2 -222 2 126 2 328 0 450 -1 122 -2 20 -2 -228z"/><path d="M1294 1460 c0 -58 1 -81 3 -52 2 28 2 76 0 105 -2 28 -3 5 -3 -53z"/><path d="M763 1415 c0 -22 2 -30 4 -17 2 12 2 30 0 40 -3 9 -5 -1 -4 -23z"/></g><g transform="translate(0.000000,206.000000) scale(0.100000,-0.100000)" fill="#BFDFCC" stroke="none"><path d="M413 1995 c0 -22 2 -30 4 -17 2 12 2 30 0 40 -3 9 -5 -1 -4 -23z"/><path d="M2095 1480 c0 -283 1 -399 2 -258 2 142 2 374 0 515 -1 142 -2 26 -2 -257z"/><path d="M2280 1358 c-3 -279 -2 -504 3 -499 4 4 6 232 5 507 l-3 499 -5 -507z"/><path d="M275 1420 c0 -234 1 -329 2 -213 2 117 2 309 0 425 -1 117 -2 22 -2 -212z"/><path d="M52 1273 c-1 -287 1 -524 6 -526 6 -5 6 388 -1 863 -1 102 -3 -50 -5 -337z"/><path d="M1873 1480 c0 -41 2 -58 4 -37 2 20 2 54 0 75 -2 20 -4 3 -4 -38z"/><path d="M872 1130 c0 -14 2 -19 5 -12 2 6 2 18 0 25 -3 6 -5 1 -5 -13z"/><path d="M1514 755 c0 -66 1 -92 3 -57 2 34 2 88 0 120 -2 31 -3 3 -3 -63z"/><path d="M1319 783 c-13 -16 -12 -17 4 -4 16 13 21 21 13 21 -2 0 -10 -8 -17 -17z"/><path d="M1290 551 c0 -11 4 -22 9 -25 4 -3 6 6 3 19 -5 30 -12 33 -12 6z"/></g><g transform="translate(0.000000,206.000000) scale(0.100000,-0.100000)" fill="#EBF2EB" stroke="none"><path d="M1922 1870 c0 -14 2 -19 5 -12 2 6 2 18 0 25 -3 6 -5 1 -5 -13z"/><path d="M2415 1320 c0 -239 1 -337 2 -218 2 120 2 316 0 435 -1 120 -2 22 -2 -217z"/><path d="M1924 1380 c0 -151 2 -213 3 -137 2 75 2 199 0 275 -1 75 -3 13 -3 -138z"/><path d="M1220 1037 l5 -522 3 514 c1 283 -1 518 -5 522 -5 5 -6 -227 -3 -514z"/><path d="M869 1352 c5 -34 6 -35 9 -8 2 16 0 32 -5 37 -5 5 -7 -7 -4 -29z"/><path d="M1453 850 c0 -36 2 -50 4 -32 2 17 2 47 0 65 -2 17 -4 3 -4 -33z"/><path d="M1641 744 c0 -11 3 -14 6 -6 3 7 2 16 -1 19 -3 4 -6 -2 -5 -13z"/></g><g transform="translate(0.000000,206.000000) scale(0.100000,-0.100000)" fill="#FFFFFF" stroke="none"><path d="M0 1030 l0 -1030 1250 0 1250 0 0 1030 0 1030 -1250 0 -1250 0 0 -1030z m495 961 l60 -38 3 -391 c1 -216 -1 -392 -4 -392 -3 0 -37 17 -75 38 l-69 37 0 393 c0 307 3 392 13 391 6 0 39 -17 72 -38z m1603 -508 l-3 -517 -215 -123 c-118 -67 -221 -122 -227 -122 -8 -1 -13 11 -13 28 0 27 12 35 205 142 l205 114 0 484 c0 449 1 485 18 497 9 7 20 14 25 14 4 0 6 -233 5 -517z m-1268 307 l209 -125 1 -82 c0 -46 -4 -83 -8 -83 -5 0 -102 58 -218 128 l-209 128 -3 83 c-2 53 1 82 7 79 6 -1 105 -59 221 -128z m1100 85 c0 -20 -33 -41 -227 -151 -125 -71 -231 -130 -235 -132 -4 -2 -8 11 -8 30 0 33 1 34 228 159 125 69 230 124 235 122 4 -2 7 -15 7 -28z m-1669 -25 c18 -10 19 -26 19 -433 l0 -423 173 -96 c94 -53 313 -175 485 -272 173 -97 317 -176 322 -176 4 0 183 98 397 218 213 120 432 242 485 272 l98 54 0 427 c0 449 -1 439 41 439 6 0 8 -198 7 -501 l-3 -501 -190 -110 c-104 -61 -335 -195 -512 -298 l-323 -188 -322 188 c-178 103 -408 237 -513 298 l-190 110 -3 501 c-1 276 0 501 4 501 3 0 14 -5 25 -10z m-173 -72 c9 -9 12 -124 12 -454 l0 -442 203 -115 c111 -63 365 -208 565 -321 200 -114 370 -210 378 -213 7 -3 272 142 589 323 l575 328 0 443 c0 427 1 443 19 453 11 5 22 10 25 10 3 0 6 -234 6 -519 l0 -519 -292 -172 c-161 -95 -417 -246 -568 -335 -151 -89 -291 -172 -310 -183 l-35 -20 -600 353 -600 354 -3 520 c-2 539 -2 547 36 509z m740 -201 l212 -128 0 -306 c0 -273 -2 -305 -16 -299 -8 3 -76 42 -150 85 l-134 80 0 -105 c0 -57 -2 -104 -6 -104 -8 0 -297 171 -312 185 -16 15 -22 175 -7 175 6 0 48 -23 95 -50 l85 -49 3 99 c3 97 7 111 28 90 5 -5 62 -41 127 -79 115 -68 118 -70 115 -44 -2 22 -25 40 -135 107 l-133 81 0 198 c0 109 3 197 8 195 4 -1 103 -61 220 -131z m1102 -196 l0 -270 -27 -19 c-16 -10 -108 -63 -205 -117 l-178 -99 0 -117 0 -117 -110 -61 c-61 -34 -113 -61 -115 -61 -3 0 -5 15 -5 33 0 30 6 35 83 77 l82 46 0 119 0 119 208 110 207 111 0 101 0 102 -152 -85 c-84 -47 -177 -98 -205 -114 l-53 -29 0 138 0 138 228 132 c125 72 230 131 235 132 4 0 7 -121 7 -269z m-771 208 l71 -41 0 -514 c0 -283 -2 -514 -6 -514 -9 0 -408 232 -423 246 -10 9 -14 33 -12 86 1 40 4 75 6 77 3 2 64 -32 136 -75 73 -44 136 -80 141 -82 4 -2 8 190 8 427 0 237 2 431 4 431 2 0 36 -18 75 -41z m181 -396 c0 -355 -2 -398 -17 -415 -9 -10 -20 -18 -25 -18 -4 0 -8 182 -8 405 0 374 1 405 18 414 9 6 20 11 25 11 4 0 7 -179 7 -397z"/><path d="M770 1412 c0 -24 8 -35 48 -61 l47 -31 3 27 c4 28 -5 39 -60 72 l-38 23 0 -30z"/><path d="M1688 1447 l-177 -102 -1 -68 0 -68 93 51 c50 28 131 72 179 98 l88 47 0 73 c0 39 -1 72 -2 71 -2 0 -83 -46 -180 -102z"/></g></svg>