<svg version="1.0" xmlns="http://www.w3.org/2000/svg" width="100.000000" height="100.000000" viewBox="0 0 100.000000 100.000000" preserveAspectRatio="xMidYMid meet"><rect x="29" y="9" width="11" height="11" fill="rgb(196,133,133)" /><rect x="39" y="9" width="11" height="11" fill="rgb(209,162,163)" /><rect x="49" y="9" width="11" height="11" fill="rgb(211,167,167)" /><rect x="59" y="9" width="11" height="11" fill="rgb(193,128,128)" /><rect x="19" y="19" width="11" height="11" fill="rgb(206,155,155)" /><rect x="29" y="19" width="11" height="11" fill="rgb(210,164,164)" /><rect x="39" y="19" width="11" height="11" fill="rgb(209,162,163)" /><rect x="49" y="19" width="11" height="11" fill="rgb(216,176,176)" /><rect x="59" y="19" width="11" height="11" fill="rgb(212,167,168)" /><rect x="69" y="19" width="11" height="11" fill="rgb(208,159,160)" /><rect x="79" y="19" width="11" height="11" fill="rgb(166,71,72)" /><rect x="9" y="29" width="11" height="11" fill="rgb(195,132,132)" /><rect x="19" y="29" width="11" height="11" fill="rgb(211,166,166)" /><rect x="29" y="29" width="11" height="11" fill="rgb(229,202,203)" /><rect x="39" y="29" width="11" height="11" fill="rgb(234,213,213)" /><rect x="49" y="29" width="11" height="11" fill="rgb(235,216,216)" /><rect x="59" y="29" width="11" height="11" fill="rgb(231,207,208)" /><rect x="69" y="29" width="11" height="11" fill="rgb(207,158,158)" /><rect x="79" y="29" width="11" height="11" fill="rgb(202,147,147)" /><rect x="9" y="39" width="11" height="11" fill="rgb(208,160,161)" /><rect x="19" y="39" width="11" height="11" fill="rgb(211,167,167)" /><rect x="29" y="39" width="11" height="11" fill="rgb(247,239,239)" /><rect x="39" y="39" width="11" height="11" fill="rgb(216,175,175)" /><rect x="49" y="39" width="11" height="11" fill="rgb(216,175,175)" /><rect x="59" y="39" width="11" height="11" fill="rgb(248,242,242)" /><rect x="69" y="39" width="11" height="11" fill="rgb(213,170,170)" /><rect x="79" y="39" width="11" height="11" fill="rgb(203,150,151)" /><rect x="9" y="49" width="11" height="11" fill="rgb(213,170,170)" /><rect x="19" y="49" width="11" height="11" fill="rgb(220,184,185)" /><rect x="29" y="49" width="11" height="11" fill="rgb(232,209,209)" /><rect x="39" y="49" width="11" height="11" fill="rgb(230,204,204)" /><rect x="49" y="49" width="11" height="11" fill="rgb(234,213,213)" /><rect x="59" y="49" width="11" height="11" fill="rgb(233,211,210)" /><rect x="69" y="49" width="11" height="11" fill="rgb(216,176,176)" /><rect x="79" y="49" width="11" height="11" fill="rgb(198,138,139)" /><rect x="9" y="59" width="11" height="11" fill="rgb(202,147,147)" /><rect x="19" y="59" width="11" height="11" fill="rgb(221,186,186)" /><rect x="29" y="59" width="11" height="11" fill="rgb(203,146,146)" /><rect x="39" y="59" width="11" height="11" fill="rgb(181,100,99)" /><rect x="49" y="59" width="11" height="11" fill="rgb(181,101,100)" /><rect x="59" y="59" width="11" height="11" fill="rgb(204,149,148)" /><rect x="69" y="59" width="11" height="11" fill="rgb(222,188,189)" /><rect x="79" y="59" width="11" height="11" fill="rgb(202,147,147)" /><rect x="19" y="69" width="11" height="11" fill="rgb(222,188,188)" /><rect x="29" y="69" width="11" height="11" fill="rgb(224,193,193)" /><rect x="39" y="69" width="11" height="11" fill="rgb(206,154,155)" /><rect x="49" y="69" width="11" height="11" fill="rgb(199,140,141)" /><rect x="59" y="69" width="11" height="11" fill="rgb(226,196,196)" /><rect x="69" y="69" width="11" height="11" fill="rgb(223,190,190)" /><rect x="79" y="69" width="11" height="11" fill="rgb(171,81,81)" /><rect x="19" y="79" width="11" height="11" fill="rgb(168,73,73)" /><rect x="29" y="79" width="11" height="11" fill="rgb(201,145,145)" /><rect x="39" y="79" width="11" height="11" fill="rgb(199,141,142)" /><rect x="49" y="79" width="11" height="11" fill="rgb(209,161,161)" /><rect x="59" y="79" width="11" height="11" fill="rgb(207,157,157)" /><rect x="69" y="79" width="11" height="11" fill="rgb(171,80,79)" /><g transform="translate(0.000000,100.000000) scale(0.100000,-0.100000)" fill="#8C0C06" stroke="none"><path d="M420 977 c0 -17 -32 -47 -50 -47 -7 0 -21 7 -30 15 -20 18 -51 10 -43 -11 3 -8 -3 -24 -13 -35 -15 -16 -25 -19 -56 -14 l-38 7 0 -36 c0 -39 -26 -62 -60 -51 -24 8 -34 -9 -20 -35 16 -29 -11 -70 -45 -70 -29 0 -30 -7 -11 -46 17 -32 6 -63 -25 -71 -25 -7 -24 -28 1 -53 25 -25 25 -42 0 -65 -25 -23 -25 -41 0 -48 29 -8 41 -47 23 -75 -17 -27 -11 -54 11 -46 21 8 59 -33 51 -54 -13 -32 -10 -47 10 -48 48 -1 65 -14 65 -49 0 -19 4 -36 9 -39 14 -9 42 5 35 16 -3 5 7 3 24 -6 20 -10 33 -26 37 -46 8 -34 16 -37 50 -14 23 15 27 15 50 0 14 -9 25 -23 25 -31 0 -21 17 -19 42 5 27 25 39 25 71 0 30 -24 47 -26 47 -5 0 8 11 22 25 31 23 15 27 15 50 0 33 -22 45 -20 45 7 0 13 9 32 20 42 17 15 24 16 46 6 32 -14 46 -6 38 24 -8 32 25 64 59 58 30 -6 42 10 26 35 -17 27 -5 51 36 68 40 16 41 20 18 46 -13 15 -14 23 -4 44 6 14 20 28 31 31 25 7 25 24 0 46 -11 9 -20 25 -20 35 0 11 9 27 20 37 26 24 25 43 -2 47 -33 5 -47 51 -23 78 21 23 17 30 -28 45 -33 10 -49 47 -29 67 18 18 2 38 -23 32 -28 -7 -70 29 -61 53 10 25 -12 44 -34 31 -28 -18 -70 4 -70 36 0 33 -17 42 -41 20 -26 -23 -73 -9 -77 24 -4 27 -16 28 -44 2 -12 -11 -30 -20 -40 -20 -10 0 -27 9 -38 20 -23 23 -40 26 -40 7z m212 -78 c98 -33 179 -98 235 -189 64 -105 71 -279 15 -392 -39 -80 -129 -169 -209 -206 -81 -37 -230 -43 -317 -13 -275 97 -373 457 -182 668 19 22 32 43 28 47 -4 4 -2 6 3 4 6 -1 27 10 49 27 94 71 257 95 378 54z"/><path d="M433 883 c9 -2 25 -2 35 0 9 3 1 5 -18 5 -19 0 -27 -2 -17 -5z"/><path d="M533 883 c9 -2 25 -2 35 0 9 3 1 5 -18 5 -19 0 -27 -2 -17 -5z"/><path d="M388 873 c7 -3 16 -2 19 1 4 3 -2 6 -13 5 -11 0 -14 -3 -6 -6z"/><path d="M642 856 c93 -38 157 -98 206 -191 12 -22 21 -35 21 -30 1 23 -60 113 -103 153 -46 42 -136 92 -166 92 -8 0 11 -11 42 -24z"/><path d="M311 847 c-79 -40 -167 -143 -185 -217 -3 -14 4 -4 16 21 47 95 118 166 207 206 14 6 22 12 16 12 -5 0 -30 -9 -54 -22z"/><path d="M428 783 c7 -3 16 -2 19 1 4 3 -2 6 -13 5 -11 0 -14 -3 -6 -6z"/><path d="M548 783 c7 -3 16 -2 19 1 4 3 -2 6 -13 5 -11 0 -14 -3 -6 -6z"/><path d="M380 770 c-8 -5 -10 -10 -5 -10 6 0 17 5 25 10 8 5 11 10 5 10 -5 0 -17 -5 -25 -10z"/><path d="M590 773 c8 -3 27 -12 43 -20 15 -7 27 -11 27 -9 0 8 -58 36 -72 35 -9 0 -8 -2 2 -6z"/><path d="M297 708 l-52 -51 55 48 c30 27 57 50 59 52 2 2 1 3 -3 3 -4 0 -31 -23 -59 -52z"/><path d="M700 705 c19 -19 36 -35 39 -35 3 0 -10 16 -29 35 -19 19 -36 35 -39 35 -3 0 10 -16 29 -35z"/><path d="M488 673 c-3 -4 6 -18 19 -30 28 -27 30 -20 4 13 -11 14 -21 21 -23 17z"/><path d="M757 625 c9 -19 18 -33 21 -31 4 5 -26 66 -33 66 -3 0 3 -16 12 -35z"/><path d="M230 629 c-7 -11 -10 -23 -7 -25 2 -2 9 7 15 21 14 30 7 33 -8 4z"/><path d="M871 604 c0 -11 3 -14 6 -6 3 7 2 16 -1 19 -3 4 -6 -2 -5 -13z"/><path d="M532 590 c0 -14 2 -19 5 -12 2 6 2 18 0 25 -3 6 -5 1 -5 -13z"/><path d="M112 580 c0 -14 2 -19 5 -12 2 6 2 18 0 25 -3 6 -5 1 -5 -13z"/><path d="M211 574 c0 -11 3 -14 6 -6 3 7 2 16 -1 19 -3 4 -6 -2 -5 -13z"/><path d="M781 564 c0 -11 3 -14 6 -6 3 7 2 16 -1 19 -3 4 -6 -2 -5 -13z"/><path d="M882 555 c0 -16 2 -22 5 -12 2 9 2 23 0 30 -3 6 -5 -1 -5 -18z"/><path d="M475 528 c8 -21 15 -62 15 -93 l0 -55 -76 0 c-61 0 -79 -4 -90 -17 -21 -28 -16 -36 19 -29 17 4 46 6 62 6 17 -1 84 -2 151 -3 l121 -2 -16 32 c-9 17 -17 27 -19 22 -2 -5 -35 -9 -73 -9 l-69 0 0 53 c0 30 7 68 16 86 9 18 13 35 10 38 -3 4 -6 2 -6 -3 0 -5 -5 -16 -10 -24 -9 -13 -13 -11 -30 10 l-20 25 15 -37z"/><path d="M103 500 c0 -30 2 -43 4 -27 2 15 2 39 0 55 -2 15 -4 2 -4 -28z"/><path d="M203 500 c0 -30 2 -43 4 -27 2 15 2 39 0 55 -2 15 -4 2 -4 -28z"/><path d="M413 513 c9 -2 25 -2 35 0 9 3 1 5 -18 5 -19 0 -27 -2 -17 -5z"/><path d="M543 513 c9 -2 23 -2 30 0 6 3 -1 5 -18 5 -16 0 -22 -2 -12 -5z"/><path d="M792 500 c0 -14 2 -19 5 -12 2 6 2 18 0 25 -3 6 -5 1 -5 -13z"/><path d="M364 474 c-8 -20 -14 -40 -12 -45 2 -5 10 11 19 36 20 54 14 60 -7 9z"/><path d="M596 502 c6 -4 18 -27 28 -52 9 -25 14 -33 11 -18 -9 46 -24 78 -37 78 -9 0 -10 -3 -2 -8z"/><path d="M877 428 c-14 -96 -81 -196 -174 -257 -25 -17 -42 -31 -36 -31 24 0 124 84 156 133 40 60 70 144 65 179 -2 15 -6 7 -11 -24z"/><path d="M781 434 c0 -11 3 -14 6 -6 3 7 2 16 -1 19 -3 4 -6 -2 -5 -13z"/><path d="M112 420 c0 -14 2 -19 5 -12 2 6 2 18 0 25 -3 6 -5 1 -5 -13z"/><path d="M120 382 c0 -24 51 -113 87 -153 35 -38 126 -99 148 -99 6 0 -10 12 -35 26 -69 39 -139 112 -171 179 -16 33 -29 54 -29 47z"/><path d="M240 351 c5 -11 15 -23 21 -27 6 -3 3 5 -6 20 -20 30 -30 35 -15 7z"/><path d="M706 302 c-49 -56 -49 -56 -7 -17 35 33 70 77 59 74 -2 0 -25 -26 -52 -57z"/><path d="M285 290 c10 -11 20 -20 23 -20 3 0 -3 9 -13 20 -10 11 -20 20 -23 20 -3 0 3 -9 13 -20z"/><path d="M364 236 c11 -9 24 -16 30 -16 12 0 7 5 -24 19 -24 11 -24 11 -6 -3z"/><path d="M575 220 c-13 -6 -15 -9 -5 -9 8 0 22 4 30 9 18 12 2 12 -25 0z"/><path d="M418 213 c7 -3 16 -2 19 1 4 3 -2 6 -13 5 -11 0 -14 -3 -6 -6z"/><path d="M473 203 c15 -2 37 -2 50 0 12 2 0 4 -28 4 -27 0 -38 -2 -22 -4z"/><path d="M590 124 c-31 -8 -37 -13 -20 -13 14 0 39 6 55 14 37 17 24 16 -35 -1z"/><path d="M385 120 c11 -5 29 -8 40 -8 16 0 15 2 -5 8 -34 11 -60 11 -35 0z"/><path d="M478 103 c12 -2 30 -2 40 0 9 3 -1 5 -23 4 -22 0 -30 -2 -17 -4z"/></g><g transform="translate(0.000000,100.000000) scale(0.100000,-0.100000)" fill="#992C2C" stroke="none"><path d="M478 888 c16 -8 28 -8 45 0 19 9 17 11 -23 11 -40 0 -42 -2 -22 -11z"/><path d="M405 880 c3 -5 8 -10 11 -10 2 0 4 5 4 10 0 6 -5 10 -11 10 -5 0 -7 -4 -4 -10z"/><path d="M575 880 c-3 -5 -2 -10 4 -10 5 0 13 5 16 10 3 6 2 10 -4 10 -5 0 -13 -4 -16 -10z"/><path d="M596 821 c-3 -5 0 -11 7 -14 8 -3 14 1 14 9 0 16 -13 19 -21 5z"/><path d="M706 818 c3 -5 10 -6 15 -3 13 9 11 12 -6 12 -8 0 -12 -4 -9 -9z"/><path d="M246 811 c-4 -5 -2 -12 3 -15 5 -4 12 -2 15 3 4 5 2 12 -3 15 -5 4 -12 2 -15 -3z"/><path d="M455 790 c-4 -6 12 -10 40 -10 28 0 44 4 40 10 -3 6 -21 10 -40 10 -19 0 -37 -4 -40 -10z"/><path d="M740 796 c0 -1 13 -15 29 -30 21 -20 29 -24 27 -12 -3 20 -21 39 -41 42 -8 1 -15 1 -15 0z m41 -23 c13 -16 12 -17 -3 -4 -10 7 -18 15 -18 17 0 8 8 3 21 -13z"/><path d="M185 751 c-3 -5 -2 -12 3 -15 5 -3 9 1 9 9 0 17 -3 19 -12 6z"/><path d="M471 734 c0 -11 3 -14 6 -6 3 7 2 16 -1 19 -3 4 -6 -2 -5 -13z"/><path d="M660 741 c0 -6 4 -13 10 -16 6 -3 7 1 4 9 -7 18 -14 21 -14 7z"/><path d="M880 731 c0 -6 4 -13 10 -16 6 -3 7 1 4 9 -7 18 -14 21 -14 7z"/><path d="M279 703 l-24 -28 28 24 c25 23 32 31 24 31 -2 0 -14 -12 -28 -27z"/><path d="M748 723 c7 -3 16 -2 19 1 4 3 -2 6 -13 5 -11 0 -14 -3 -6 -6z"/><path d="M330 686 c0 -2 8 -10 18 -17 15 -13 16 -12 3 4 -13 16 -21 21 -21 13z"/><path d="M30 676 c0 -2 8 -10 18 -17 15 -13 16 -12 3 4 -13 16 -21 21 -21 13z"/><path d="M727 669 c7 -7 15 -10 18 -7 3 3 -2 9 -12 12 -14 6 -15 5 -6 -5z"/><path d="M195 660 c3 -5 8 -10 11 -10 2 0 4 5 4 10 0 6 -5 10 -11 10 -5 0 -7 -4 -4 -10z"/><path d="M669 653 c-13 -16 -12 -17 4 -4 9 7 17 15 17 17 0 8 -8 3 -21 -13z"/><path d="M307 643 c3 -7 6 -13 8 -13 2 0 5 6 8 13 3 8 -1 14 -8 14 -7 0 -11 -6 -8 -14z"/><path d="M932 630 c0 -14 2 -19 5 -12 2 6 2 18 0 25 -3 6 -5 1 -5 -13z"/><path d="M115 600 c3 -5 8 -10 11 -10 2 0 4 5 4 10 0 6 -5 10 -11 10 -5 0 -7 -4 -4 -10z"/><path d="M265 600 c3 -5 11 -10 16 -10 6 0 7 5 4 10 -3 6 -11 10 -16 10 -6 0 -7 -4 -4 -10z"/><path d="M875 590 c-3 -5 -1 -10 4 -10 6 0 11 5 11 10 0 6 -2 10 -4 10 -3 0 -8 -4 -11 -10z"/><path d="M100 561 c0 -5 5 -13 10 -16 6 -3 10 -2 10 4 0 5 -4 13 -10 16 -5 3 -10 2 -10 -4z"/><path d="M250 556 c0 -2 7 -7 16 -10 8 -3 12 -2 9 4 -6 10 -25 14 -25 6z"/><path d="M780 541 c0 -5 5 -13 10 -16 6 -3 10 -2 10 4 0 5 -4 13 -10 16 -5 3 -10 2 -10 -4z"/><path d="M886 528 c-5 -16 -5 -40 0 -55 l8 -28 4 28 c2 15 2 39 0 55 l-4 27 -8 -27z"/><path d="M73 500 c0 -25 2 -35 4 -22 2 12 2 32 0 45 -2 12 -4 2 -4 -23z"/><path d="M390 510 c0 -5 5 -10 11 -10 5 0 7 5 4 10 -3 6 -8 10 -11 10 -2 0 -4 -4 -4 -10z"/><path d="M460 510 c0 -5 5 -10 10 -10 6 0 10 5 10 10 0 6 -4 10 -10 10 -5 0 -10 -4 -10 -10z"/><path d="M515 510 c-3 -5 -1 -10 4 -10 6 0 11 5 11 10 0 6 -2 10 -4 10 -3 0 -8 -4 -11 -10z"/><path d="M580 509 c0 -5 5 -7 10 -4 6 3 10 8 10 11 0 2 -4 4 -10 4 -5 0 -10 -5 -10 -11z"/><path d="M830 506 c0 -8 4 -17 9 -20 5 -4 7 3 4 14 -6 23 -13 26 -13 6z"/><path d="M786 471 c-4 -7 -5 -15 -2 -18 9 -9 19 4 14 18 -4 11 -6 11 -12 0z"/><path d="M107 453 c-4 -3 -7 -11 -7 -17 0 -6 5 -5 12 2 6 6 9 14 7 17 -3 3 -9 2 -12 -2z"/><path d="M820 451 c0 -5 5 -13 10 -16 6 -3 10 -2 10 4 0 5 -4 13 -10 16 -5 3 -10 2 -10 -4z"/><path d="M205 440 c3 -5 8 -10 11 -10 2 0 4 5 4 10 0 6 -5 10 -11 10 -5 0 -7 -4 -4 -10z"/><path d="M725 440 c3 -5 8 -10 11 -10 2 0 4 5 4 10 0 6 -5 10 -11 10 -5 0 -7 -4 -4 -10z"/><path d="M30 416 c0 -2 8 -10 18 -17 15 -13 16 -12 3 4 -13 16 -21 21 -21 13z"/><path d="M110 389 c0 -5 5 -7 10 -4 6 3 10 8 10 11 0 2 -4 4 -10 4 -5 0 -10 -5 -10 -11z"/><path d="M428 383 c12 -2 32 -2 45 0 12 2 2 4 -23 4 -25 0 -35 -2 -22 -4z"/><path d="M518 383 c12 -2 32 -2 45 0 12 2 2 4 -23 4 -25 0 -35 -2 -22 -4z"/><path d="M805 371 c-3 -5 -2 -12 3 -15 5 -3 9 1 9 9 0 17 -3 19 -12 6z"/><path d="M931 364 c0 -11 3 -14 6 -6 3 7 2 16 -1 19 -3 4 -6 -2 -5 -13z"/><path d="M378 333 c12 -2 32 -2 45 0 12 2 2 4 -23 4 -25 0 -35 -2 -22 -4z"/><path d="M558 333 c18 -2 45 -2 60 0 15 2 0 4 -33 4 -33 0 -45 -2 -27 -4z"/><path d="M269 312 c13 -11 33 -30 43 -43 11 -13 16 -17 12 -9 -12 24 -37 51 -59 62 -15 7 -14 5 4 -10z"/><path d="M455 299 c-4 -6 -4 -13 -1 -16 3 -4 6 -1 6 6 0 8 6 11 16 7 8 -3 12 -2 9 4 -8 13 -22 13 -30 -1z"/><path d="M505 300 c-3 -6 1 -7 9 -4 18 7 21 14 7 14 -6 0 -13 -4 -16 -10z"/><path d="M555 300 c-4 -6 -4 -14 -1 -17 3 -4 6 -1 6 5 0 21 18 13 23 -10 5 -21 5 -21 4 1 -2 27 -21 39 -32 21z"/><path d="M699 283 l-24 -28 28 24 c15 14 27 26 27 28 0 8 -8 1 -31 -24z"/><path d="M173 275 c0 -8 4 -12 9 -9 5 3 6 10 3 15 -9 13 -12 11 -12 -6z"/><path d="M421 264 c0 -11 3 -14 6 -6 3 7 2 16 -1 19 -3 4 -6 -2 -5 -13z"/><path d="M803 255 c0 -8 4 -12 9 -9 5 3 6 10 3 15 -9 13 -12 11 -12 -6z"/><path d="M170 227 c0 -2 15 -16 33 -33 l32 -29 -29 33 c-28 30 -36 37 -36 29z"/><path d="M545 210 c-3 -5 -1 -10 4 -10 6 0 11 5 11 10 0 6 -2 10 -4 10 -3 0 -8 -4 -11 -10z"/><path d="M330 198 c0 -4 7 -8 15 -8 8 0 15 4 15 8 0 5 -7 9 -15 9 -8 0 -15 -4 -15 -9z"/><path d="M736 188 c3 -5 10 -6 15 -3 13 9 11 12 -6 12 -8 0 -12 -4 -9 -9z"/><path d="M420 170 c0 -6 7 -10 15 -10 8 0 15 2 15 4 0 2 -7 6 -15 10 -8 3 -15 1 -15 -4z"/><path d="M471 164 c0 -11 3 -14 6 -6 3 7 2 16 -1 19 -3 4 -6 -2 -5 -13z"/><path d="M526 167 c3 -10 9 -15 12 -12 3 3 0 11 -7 18 -10 9 -11 8 -5 -6z"/><path d="M696 172 c-3 -5 1 -9 9 -9 8 0 12 4 9 9 -3 4 -7 8 -9 8 -2 0 -6 -4 -9 -8z"/><path d="M435 110 c-3 -5 1 -10 9 -10 8 0 18 5 21 10 3 6 -1 10 -9 10 -8 0 -18 -4 -21 -10z"/><path d="M525 110 c3 -5 13 -10 21 -10 8 0 12 5 9 10 -3 6 -13 10 -21 10 -8 0 -12 -4 -9 -10z"/></g><g transform="translate(0.000000,100.000000) scale(0.100000,-0.100000)" fill="#9F3F4C" stroke="none"><path d="M415 989 c-4 -6 -4 -13 -1 -16 3 -4 6 -1 6 6 0 8 8 11 20 8 11 -3 20 -1 20 4 0 13 -37 11 -45 -2z"/><path d="M548 993 c6 -2 18 -2 25 0 6 3 1 5 -13 5 -14 0 -19 -2 -12 -5z"/><path d="M516 965 c-11 -8 -15 -15 -9 -15 6 0 16 7 23 15 16 19 11 19 -14 0z"/><path d="M659 953 c-13 -16 -12 -17 4 -4 9 7 17 15 17 17 0 8 -8 3 -21 -13z"/><path d="M698 933 c5 -21 7 -23 10 -9 2 10 0 22 -6 28 -6 6 -7 0 -4 -19z"/><path d="M728 888 c5 -5 16 -8 23 -6 8 3 3 7 -10 11 -17 4 -21 3 -13 -5z"/><path d="M806 887 c3 -10 9 -15 12 -12 3 3 0 11 -7 18 -10 9 -11 8 -5 -6z"/><path d="M99 803 c-13 -16 -12 -17 4 -4 9 7 17 15 17 17 0 8 -8 3 -21 -13z"/><path d="M96 723 c-6 -14 -5 -15 5 -6 7 7 10 15 7 18 -3 3 -9 -2 -12 -12z"/><path d="M898 719 c13 -17 66 -33 56 -18 -3 5 -13 9 -23 9 -9 0 -23 6 -31 13 -12 10 -12 9 -2 -4z"/><path d="M48 703 c6 -2 18 -2 25 0 6 3 1 5 -13 5 -14 0 -19 -2 -12 -5z"/><path d="M949 663 c-13 -16 -12 -17 4 -4 9 7 17 15 17 17 0 8 -8 3 -21 -13z"/><path d="M28 593 c-16 -8 -28 -19 -27 -26 0 -9 2 -9 6 1 2 6 10 12 18 12 7 0 18 7 25 15 15 18 14 17 -22 -2z"/><path d="M950 595 c7 -8 18 -15 26 -15 7 0 15 -10 17 -22 4 -23 4 -23 6 -1 1 15 -9 26 -30 37 -26 13 -29 13 -19 1z"/><path d="M962 528 c-7 -7 -11 -21 -11 -32 1 -21 1 -21 6 -1 3 11 10 26 15 33 13 15 6 16 -10 0z"/><path d="M987 444 c3 -9 0 -20 -8 -26 -12 -8 -11 -9 1 -5 17 4 27 47 11 47 -6 0 -8 -7 -4 -16z"/><path d="M0 430 c0 -5 9 -14 20 -20 11 -6 20 -9 20 -8 0 2 -9 11 -20 21 -11 9 -20 13 -20 7z"/><path d="M940 346 c0 -2 8 -10 18 -17 15 -13 16 -12 3 4 -13 16 -21 21 -21 13z"/><path d="M60 296 c0 -2 7 -7 16 -10 8 -3 12 -2 9 4 -6 10 -25 14 -25 6z"/><path d="M96 223 c-4 -9 -3 -20 1 -24 4 -4 9 3 9 17 2 28 -1 31 -10 7z"/><path d="M894 222 c4 -7 2 -21 -5 -30 -12 -15 -11 -15 6 0 16 15 17 20 6 30 -11 11 -13 10 -7 0z"/><path d="M160 186 c0 -2 8 -10 18 -17 15 -13 16 -12 3 4 -13 16 -21 21 -21 13z"/><path d="M801 107 c-13 -21 -12 -21 5 -5 10 10 16 20 13 22 -3 3 -11 -5 -18 -17z"/><path d="M200 96 c4 -4 16 -4 26 2 16 9 14 10 -8 9 -15 -1 -23 -6 -18 -11z"/><path d="M710 96 c-6 -8 -10 -25 -7 -38 4 -21 4 -20 6 4 0 15 9 32 19 37 9 6 12 11 6 11 -6 0 -17 -7 -24 -14z"/><path d="M326 45 c-11 -8 -15 -15 -9 -15 6 0 16 7 23 15 16 19 11 19 -14 0z"/><path d="M592 48 c-7 -7 -12 -18 -12 -24 0 -7 -10 -15 -22 -17 -23 -4 -23 -4 -1 -6 15 -1 26 8 37 29 16 33 16 36 -2 18z"/><path d="M465 29 c-4 -6 -17 -14 -29 -19 -20 -8 -20 -9 -1 -9 11 -1 26 8 33 19 7 11 10 20 8 20 -3 0 -8 -5 -11 -11z"/></g><g transform="translate(0.000000,100.000000) scale(0.100000,-0.100000)" fill="#9F666C" stroke="none"><path d="M518 979 c-10 -11 -25 -16 -35 -13 -15 5 -15 4 -4 -4 16 -11 44 -1 56 19 12 18 1 17 -17 -2z"/><path d="M305 970 c-16 -7 -17 -9 -3 -9 9 -1 20 4 23 9 7 11 7 11 -20 0z"/><path d="M670 977 c0 -3 12 -12 26 -22 15 -9 23 -12 20 -6 -7 11 -46 35 -46 28z"/><path d="M115 820 c3 -5 16 -10 28 -9 21 0 21 1 2 9 -28 12 -37 12 -30 0z"/><path d="M827 818 c6 -10 35 -10 51 0 8 5 -1 8 -22 8 -19 -1 -32 -4 -29 -8z"/><path d="M965 670 c-3 -5 -1 -10 4 -10 6 0 11 5 11 10 0 6 -2 10 -4 10 -3 0 -8 -4 -11 -10z"/><path d="M51 624 c0 -11 3 -14 6 -6 3 7 2 16 -1 19 -3 4 -6 -2 -5 -13z"/><path d="M961 504 c0 -11 3 -14 6 -6 3 7 2 16 -1 19 -3 4 -6 -2 -5 -13z"/><path d="M58 283 c7 -3 16 -2 19 1 4 3 -2 6 -13 5 -11 0 -14 -3 -6 -6z"/><path d="M899 273 c-12 -16 -12 -17 1 -7 8 7 24 14 35 17 19 4 19 5 -1 6 -12 0 -28 -7 -35 -16z"/><path d="M122 181 c-9 -5 -4 -8 16 -7 17 1 28 4 25 9 -6 9 -25 9 -41 -2z"/><path d="M816 113 c-6 -14 -5 -15 5 -6 7 7 10 15 7 18 -3 3 -9 -2 -12 -12z"/><path d="M358 53 c6 -2 18 -2 25 0 6 3 1 5 -13 5 -14 0 -19 -2 -12 -5z"/><path d="M690 35 c-14 -8 -20 -14 -14 -15 5 0 19 7 30 15 24 18 16 19 -16 0z"/><path d="M300 30 c8 -5 20 -10 25 -10 6 0 3 5 -5 10 -8 5 -19 10 -25 10 -5 0 -3 -5 5 -10z"/><path d="M477 33 c-3 -5 8 -8 23 -8 15 0 26 3 23 8 -2 4 -13 7 -23 7 -10 0 -21 -3 -23 -7z"/></g><g transform="translate(0.000000,100.000000) scale(0.100000,-0.100000)" fill="#B86C72" stroke="none"><path d="M438 893 c7 -3 16 -2 19 1 4 3 -2 6 -13 5 -11 0 -14 -3 -6 -6z"/><path d="M428 873 c7 -3 16 -2 19 1 4 3 -2 6 -13 5 -11 0 -14 -3 -6 -6z"/><path d="M495 850 c-3 -5 1 -10 9 -10 9 0 16 -4 16 -10 0 -5 -8 -7 -17 -3 -13 4 -15 3 -8 -5 13 -14 65 -3 65 14 0 8 -5 14 -11 14 -5 0 -7 -6 -3 -12 4 -7 -2 -5 -13 5 -23 20 -29 21 -38 7z"/><path d="M390 826 c0 -21 11 -25 50 -17 l35 7 -34 12 c-44 15 -51 15 -51 -2z m30 0 c0 -3 -4 -8 -10 -11 -5 -3 -10 -1 -10 4 0 6 5 11 10 11 6 0 10 -2 10 -4z"/><path d="M634 819 c-5 -8 -3 -10 7 -5 8 4 6 1 -4 -7 -17 -14 -17 -15 2 -20 24 -6 35 17 16 33 -10 8 -15 8 -21 -1z"/><path d="M790 795 c13 -14 26 -25 28 -25 3 0 -5 11 -18 25 -13 14 -26 25 -28 25 -3 0 5 -11 18 -25z"/><path d="M355 800 c3 -5 14 -10 23 -10 15 0 15 2 2 10 -20 13 -33 13 -25 0z"/><path d="M219 763 l-24 -28 28 24 c25 23 32 31 24 31 -2 0 -14 -12 -28 -27z"/><path d="M570 780 c-9 -6 -10 -10 -3 -10 6 0 15 5 18 10 8 12 4 12 -15 0z"/><path d="M264 765 c-10 -8 -14 -15 -9 -14 22 3 24 -2 8 -21 -10 -11 -24 -20 -32 -20 -12 0 -12 -3 -3 -12 15 -15 66 37 57 60 -4 12 -3 12 9 3 8 -7 17 -8 20 -3 3 6 -1 13 -10 16 -20 8 -17 8 -40 -9z"/><path d="M706 767 c-14 -10 -16 -16 -7 -22 15 -9 35 8 30 24 -3 8 -10 7 -23 -2z"/><path d="M478 753 c6 -2 10 -9 7 -14 -4 -5 1 -6 9 -3 20 8 11 24 -12 23 -11 0 -12 -2 -4 -6z"/><path d="M315 741 c-3 -5 -2 -12 3 -15 5 -3 9 1 9 9 0 17 -3 19 -12 6z"/><path d="M423 735 c0 -8 4 -15 9 -15 4 0 8 7 8 15 0 8 -4 15 -8 15 -5 0 -9 -7 -9 -15z"/><path d="M543 735 c-3 -9 -3 -18 -1 -21 3 -3 8 4 11 16 6 23 -1 27 -10 5z"/><path d="M225 730 c-3 -5 -1 -10 4 -10 6 0 11 5 11 10 0 6 -2 10 -4 10 -3 0 -8 -4 -11 -10z"/><path d="M391 732 c-1 -8 -6 -10 -13 -6 -10 5 -10 4 -1 -6 15 -16 28 -8 20 12 -4 11 -6 11 -6 0z"/><path d="M570 720 c0 -11 7 -20 15 -20 8 0 15 9 15 20 0 11 -7 20 -15 20 -8 0 -15 -9 -15 -20z"/><path d="M730 720 c0 -6 7 -10 15 -10 8 0 15 2 15 4 0 2 -7 6 -15 10 -8 3 -15 1 -15 -4z"/><path d="M695 700 c8 -9 22 -17 30 -17 13 0 13 2 0 17 -8 9 -22 17 -30 17 -13 0 -13 -2 0 -17z"/><path d="M335 700 c-3 -5 -2 -10 4 -10 5 0 13 5 16 10 3 6 2 10 -4 10 -5 0 -13 -4 -16 -10z"/><path d="M645 700 c3 -5 11 -10 16 -10 6 0 7 5 4 10 -3 6 -11 10 -16 10 -6 0 -7 -4 -4 -10z"/><path d="M754 692 c4 -7 13 -12 21 -12 8 0 17 -5 21 -12 5 -8 2 -9 -10 -5 -9 4 -15 3 -11 -2 6 -11 45 -11 45 -1 0 4 -12 13 -27 20 -16 8 -32 16 -37 19 -5 2 -6 -1 -2 -7z"/><path d="M256 668 c3 -5 10 -6 15 -3 13 9 11 12 -6 12 -8 0 -12 -4 -9 -9z"/><path d="M625 670 c3 -5 8 -10 11 -10 2 0 4 5 4 10 0 6 -5 10 -11 10 -5 0 -7 -4 -4 -10z"/><path d="M685 659 c-9 -14 -2 -20 14 -10 8 6 9 11 3 15 -6 3 -14 1 -17 -5z"/><path d="M305 649 c-3 -4 2 -6 10 -5 21 3 28 13 10 13 -9 0 -18 -4 -20 -8z"/><path d="M174 642 c5 -8 1 -21 -9 -32 -17 -18 -17 -20 -1 -26 9 -4 20 -4 23 0 13 13 9 46 -6 59 -12 10 -13 9 -7 -1z m11 -42 c3 -5 1 -10 -4 -10 -6 0 -11 5 -11 10 0 6 2 10 4 10 3 0 8 -4 11 -10z"/><path d="M266 622 c-2 -4 3 -13 13 -19 14 -9 20 -7 31 11 12 19 12 20 -3 7 -11 -9 -17 -10 -17 -2 0 13 -16 15 -24 3z"/><path d="M701 611 c-6 -10 -7 -21 -4 -25 9 -8 33 14 33 30 0 20 -18 17 -29 -5z"/><path d="M805 600 c-4 -6 -2 -17 4 -24 6 -7 8 -16 5 -19 -3 -3 -2 -12 2 -19 5 -7 7 -23 6 -35 -3 -16 2 -21 15 -20 11 0 19 9 19 20 0 17 -1 17 -13 1 -17 -23 -17 0 -1 26 11 16 9 23 -10 40 -26 24 -28 35 -7 26 8 -3 15 -1 15 4 0 13 -27 13 -35 0z m35 -50 c0 -5 -5 -10 -11 -10 -5 0 -7 5 -4 10 3 6 8 10 11 10 2 0 4 -4 4 -10z"/><path d="M720 565 c-7 -8 -8 -15 -2 -15 5 0 15 7 22 15 7 8 8 15 2 15 -5 0 -15 -7 -22 -15z"/><path d="M153 549 c-1 -12 4 -19 15 -18 12 0 13 2 3 6 -10 4 -10 7 -1 13 9 5 8 9 -2 13 -9 3 -14 -2 -15 -14z"/><path d="M258 563 c6 -2 10 -9 7 -13 -3 -5 0 -12 7 -16 7 -4 10 -4 6 1 -4 4 -3 14 3 22 9 10 6 13 -12 12 -13 0 -18 -3 -11 -6z"/><path d="M113 500 c0 -25 2 -35 4 -22 2 12 2 32 0 45 -2 12 -4 2 -4 -23z"/><path d="M730 529 c0 -5 5 -7 10 -4 6 3 10 8 10 11 0 2 -4 4 -10 4 -5 0 -10 -5 -10 -11z"/><path d="M782 500 c0 -19 2 -27 5 -17 2 9 2 25 0 35 -3 9 -5 1 -5 -18z"/><path d="M150 515 c0 -2 6 -8 13 -14 10 -8 14 -7 14 2 0 8 -6 14 -14 14 -7 0 -13 -1 -13 -2z"/><path d="M243 505 c0 -8 4 -12 9 -9 5 3 6 10 3 15 -9 13 -12 11 -12 -6z"/><path d="M603 505 c0 -8 4 -12 9 -9 5 3 6 10 3 15 -9 13 -12 11 -12 -6z"/><path d="M423 503 c9 -2 23 -2 30 0 6 3 -1 5 -18 5 -16 0 -22 -2 -12 -5z"/><path d="M543 503 c9 -2 23 -2 30 0 6 3 -1 5 -18 5 -16 0 -22 -2 -12 -5z"/><path d="M735 490 c3 -5 8 -10 11 -10 2 0 4 5 4 10 0 6 -5 10 -11 10 -5 0 -7 -4 -4 -10z"/><path d="M145 469 c-10 -16 3 -23 18 -11 8 7 18 8 22 4 5 -4 5 -1 1 6 -9 15 -32 16 -41 1z"/><path d="M241 459 c-1 -9 5 -19 13 -22 16 -6 43 19 32 30 -3 3 -6 1 -6 -5 0 -16 -27 -15 -33 1 -4 7 -6 6 -6 -4z"/><path d="M483 430 c0 -25 2 -35 4 -22 2 12 2 32 0 45 -2 12 -4 2 -4 -23z"/><path d="M815 461 c-3 -6 -4 -15 0 -20 3 -5 1 -12 -5 -16 -5 -3 -10 -11 -10 -17 0 -6 3 -8 7 -5 3 4 11 2 18 -3 8 -7 12 -5 12 5 0 8 -3 15 -7 15 -3 0 -6 10 -7 23 -2 22 -2 22 13 2 15 -19 16 -19 12 -1 -4 22 -23 32 -33 17z"/><path d="M356 447 c3 -10 9 -15 12 -12 3 3 0 11 -7 18 -10 9 -11 8 -5 -6z"/><path d="M741 444 c0 -11 3 -14 6 -6 3 7 2 16 -1 19 -3 4 -6 -2 -5 -13z"/><path d="M166 395 c-3 -8 -1 -15 4 -15 6 0 10 7 10 15 0 8 -2 15 -4 15 -2 0 -6 -7 -10 -15z"/><path d="M797 375 c-4 -8 -3 -16 1 -19 4 -3 9 4 9 15 2 23 -3 25 -10 4z"/><path d="M821 364 c0 -11 3 -14 6 -6 3 7 2 16 -1 19 -3 4 -6 -2 -5 -13z"/><path d="M180 341 c0 -6 5 -13 10 -16 6 -3 10 1 10 9 0 9 -4 16 -10 16 -5 0 -10 -4 -10 -9z"/><path d="M765 324 c-13 -20 -14 -28 -4 -40 8 -10 15 -12 23 -4 7 7 7 13 -1 21 -13 13 -6 42 8 33 5 -3 7 -10 4 -15 -4 -5 -1 -9 4 -9 16 0 13 27 -3 33 -9 4 -21 -5 -31 -19z"/><path d="M726 331 c-4 -5 -2 -12 3 -15 5 -4 12 -2 15 3 4 5 2 12 -3 15 -5 4 -12 2 -15 -3z"/><path d="M223 305 c-7 -7 -8 -17 -2 -26 7 -11 9 -11 9 -1 0 7 5 10 10 7 12 -7 13 5 2 21 -5 9 -10 9 -19 -1z"/><path d="M405 301 c-6 -11 13 -26 22 -17 4 3 1 6 -6 6 -7 0 -9 5 -6 10 3 6 4 10 1 10 -3 0 -7 -4 -11 -9z"/><path d="M503 288 c-1 -12 5 -18 18 -18 12 0 19 7 19 18 0 24 -36 24 -37 0z"/><path d="M570 300 c-9 -6 -10 -10 -3 -10 6 0 15 5 18 10 8 12 4 12 -15 0z"/><path d="M270 296 c0 -2 8 -10 18 -17 15 -13 16 -12 3 4 -13 16 -21 21 -21 13z"/><path d="M454 263 c3 -17 26 -26 26 -10 0 4 0 12 0 17 0 6 -6 10 -14 10 -8 0 -13 -8 -12 -17z"/><path d="M554 263 c3 -17 26 -26 26 -10 0 4 0 12 0 17 0 6 -6 10 -14 10 -8 0 -13 -8 -12 -17z"/><path d="M665 271 c-3 -5 -2 -12 3 -15 5 -3 9 1 9 9 0 17 -3 19 -12 6z"/><path d="M510 250 c0 -5 4 -10 9 -10 6 0 13 5 16 10 3 6 -1 10 -9 10 -9 0 -16 -4 -16 -10z"/><path d="M764 228 l-29 -33 33 29 c17 17 32 31 32 33 0 8 -8 1 -36 -29z"/><path d="M210 215 c13 -14 26 -25 28 -25 3 0 -5 11 -18 25 -13 14 -26 25 -28 25 -3 0 5 -11 18 -25z"/><path d="M528 213 c7 -3 16 -2 19 1 4 3 -2 6 -13 5 -11 0 -14 -3 -6 -6z"/><path d="M661 204 c0 -11 3 -14 6 -6 3 7 2 16 -1 19 -3 4 -6 -2 -5 -13z"/><path d="M323 200 c2 -8 12 -16 23 -17 13 -2 15 -1 4 4 -8 3 -19 11 -23 17 -6 7 -7 6 -4 -4z"/><path d="M368 185 c5 -28 32 -34 32 -7 0 14 -2 15 -10 2 -8 -13 -10 -13 -10 2 0 9 -4 19 -9 22 -4 3 -6 -6 -3 -19z"/><path d="M624 189 c0 -10 6 -19 13 -19 7 0 13 4 13 9 0 5 -6 13 -13 19 -10 8 -13 6 -13 -9z"/><path d="M410 175 c0 -20 28 -31 43 -16 13 13 10 16 -20 25 -17 6 -23 3 -23 -9z m40 -11 c0 -2 -7 -4 -15 -4 -8 0 -15 4 -15 10 0 5 7 7 15 4 8 -4 15 -8 15 -10z"/><path d="M480 170 c0 -5 5 -10 10 -10 6 0 10 5 10 10 0 6 -4 10 -10 10 -5 0 -10 -4 -10 -10z"/><path d="M520 165 c-7 -9 -10 -18 -7 -21 3 -3 10 4 17 15 13 25 8 27 -10 6z"/><path d="M556 167 c3 -10 9 -15 12 -12 3 3 0 11 -7 18 -10 9 -11 8 -5 -6z"/><path d="M483 113 c9 -2 23 -2 30 0 6 3 -1 5 -18 5 -16 0 -22 -2 -12 -5z"/></g><g transform="translate(0.000000,100.000000) scale(0.100000,-0.100000)" fill="#D8B2B2" stroke="none"><path d="M478 913 c12 -2 32 -2 45 0 12 2 2 4 -23 4 -25 0 -35 -2 -22 -4z"/><path d="M473 873 c15 -2 39 -2 55 0 15 2 2 4 -28 4 -30 0 -43 -2 -27 -4z"/><path d="M436 851 c-4 -6 -14 -8 -24 -5 -12 4 -14 3 -4 -3 10 -8 10 -12 -3 -23 -11 -9 -15 -9 -15 0 0 6 -5 10 -11 8 -15 -5 -12 -21 4 -24 8 -1 26 9 40 22 30 28 39 30 31 9 -4 -8 -1 -15 6 -15 14 0 9 32 -7 37 -6 2 -14 0 -17 -6z"/><path d="M592 828 c-17 -17 -15 -25 11 -31 20 -5 20 -5 5 7 -13 10 -15 15 -6 24 7 7 10 12 7 12 -3 0 -10 -5 -17 -12z"/><path d="M201 796 c-13 -13 -18 -26 -13 -30 5 -3 19 5 31 18 13 13 18 26 13 30 -5 3 -19 -5 -31 -18z m29 11 c0 -2 -10 -12 -22 -23 l-23 -19 19 23 c18 21 26 27 26 19z"/><path d="M667 809 c7 -7 15 -10 18 -7 3 3 -2 9 -12 12 -14 6 -15 5 -6 -5z"/><path d="M342 793 c-19 -8 -34 -40 -17 -40 8 0 11 7 7 16 -5 14 -4 14 13 1 15 -12 17 -12 10 -1 -6 11 -4 13 10 7 15 -5 16 -4 5 9 -7 8 -13 15 -14 14 0 0 -7 -3 -14 -6z"/><path d="M695 790 c-4 -6 -10 -8 -14 -6 -4 3 -8 -1 -8 -9 0 -10 4 -12 12 -5 7 5 14 8 17 5 2 -3 5 2 5 10 0 18 -3 19 -12 5z"/><path d="M286 757 c3 -10 9 -15 12 -12 3 3 0 11 -7 18 -10 9 -11 8 -5 -6z"/><path d="M438 735 c2 -14 9 -28 15 -32 7 -4 8 0 4 11 -4 10 -7 24 -7 32 0 8 -4 14 -9 14 -4 0 -6 -11 -3 -25z"/><path d="M547 735 c8 -26 23 -45 35 -45 5 0 4 6 -2 13 -6 6 -17 21 -25 32 l-15 20 7 -20z"/><path d="M700 736 c7 -7 13 -7 20 0 6 6 3 10 -10 10 -13 0 -16 -4 -10 -10z"/><path d="M500 729 c0 -5 -4 -8 -9 -4 -5 3 -12 2 -15 -3 -2 -4 4 -9 15 -9 10 -1 19 5 19 13 0 8 -2 14 -5 14 -3 0 -5 -5 -5 -11z"/><path d="M273 715 c0 -8 4 -12 9 -9 5 3 6 10 3 15 -9 13 -12 11 -12 -6z"/><path d="M294 698 l-19 -23 23 19 c21 18 27 26 19 26 -2 0 -12 -10 -23 -22z"/><path d="M763 713 c4 -3 -1 -16 -10 -27 -18 -21 -18 -21 4 -2 20 16 23 36 6 36 -4 0 -3 -3 0 -7z"/><path d="M341 686 c-13 -15 -6 -23 18 -22 8 1 16 8 18 16 4 13 3 13 -6 0 -10 -13 -15 -8 -12 13 2 11 -5 8 -18 -7z"/><path d="M186 682 c-3 -5 1 -9 9 -9 8 0 12 4 9 9 -3 4 -7 8 -9 8 -2 0 -6 -4 -9 -8z"/><path d="M780 666 c0 -2 7 -7 16 -10 8 -3 12 -2 9 4 -6 10 -25 14 -25 6z"/><path d="M186 652 c-3 -6 -2 -13 3 -17 6 -3 8 -12 5 -20 -4 -8 -10 -12 -15 -9 -5 3 -7 9 -4 14 3 5 0 12 -7 16 -7 4 -10 4 -6 -1 4 -4 2 -15 -5 -23 -7 -10 -8 -13 -1 -9 7 4 18 -1 25 -10 12 -15 12 -16 -8 -11 -16 4 -20 2 -16 -8 3 -8 8 -14 12 -14 4 0 8 -7 8 -15 0 -21 -25 -19 -30 3 -3 11 -5 7 -6 -10 0 -15 4 -30 11 -34 6 -4 8 -3 5 3 -4 6 2 13 13 16 16 4 20 0 20 -20 0 -16 -4 -22 -12 -17 -7 4 -10 4 -6 -1 4 -4 3 -14 -3 -22 -9 -10 -8 -13 5 -13 10 0 14 5 11 10 -3 6 -1 10 4 10 13 0 15 57 2 64 -5 3 -7 15 -4 26 3 11 10 17 17 13 7 -4 7 -1 -1 8 -8 10 -9 19 -2 26 6 6 6 19 1 33 -5 14 -11 19 -16 12z"/><path d="M315 624 c-9 -15 -12 -23 -6 -20 11 7 35 46 28 46 -3 0 -12 -12 -22 -26z"/><path d="M675 632 c3 -7 5 -18 5 -23 0 -5 5 -9 11 -9 6 0 8 7 5 17 -4 9 -1 20 6 24 8 5 5 8 -10 6 -15 -1 -21 -6 -17 -15z"/><path d="M721 597 c-13 -21 -12 -21 5 -5 10 10 16 20 13 22 -3 3 -11 -5 -18 -17z"/><path d="M542 585 c0 -16 2 -22 5 -12 2 9 2 23 0 30 -3 6 -5 -1 -5 -18z"/><path d="M441 584 c0 -11 3 -14 6 -6 3 7 2 16 -1 19 -3 4 -6 -2 -5 -13z"/><path d="M839 598 c-6 -12 -5 -46 2 -43 4 3 10 -1 12 -7 4 -9 6 -10 6 -1 1 6 -3 14 -9 18 -5 3 -7 12 -3 20 4 12 -3 23 -8 13z"/><path d="M270 580 c-12 -8 -11 -10 8 -10 12 0 22 5 22 10 0 13 -11 13 -30 0z"/><path d="M121 564 c0 -11 3 -14 6 -6 3 7 2 16 -1 19 -3 4 -6 -2 -5 -13z"/><path d="M87 518 c6 -73 11 -83 12 -23 0 28 -3 56 -8 63 -5 8 -6 -8 -4 -40z"/><path d="M740 560 c-13 -8 -12 -10 3 -10 9 0 17 5 17 10 0 12 -1 12 -20 0z"/><path d="M280 547 c0 -8 -10 -18 -22 -20 l-23 -4 23 -2 c22 -1 41 23 28 36 -3 4 -6 -1 -6 -10z"/><path d="M872 540 c0 -14 2 -19 5 -12 2 6 2 18 0 25 -3 6 -5 1 -5 -13z"/><path d="M911 534 c0 -11 3 -14 6 -6 3 7 2 16 -1 19 -3 4 -6 -2 -5 -13z"/><path d="M813 525 c0 -8 4 -12 9 -9 5 3 6 10 3 15 -9 13 -12 11 -12 -6z"/><path d="M213 495 c0 -22 2 -30 4 -17 2 12 2 30 0 40 -3 9 -5 -1 -4 -23z"/><path d="M418 523 c6 -2 18 -2 25 0 6 3 1 5 -13 5 -14 0 -19 -2 -12 -5z"/><path d="M548 523 c7 -3 16 -2 19 1 4 3 -2 6 -13 5 -11 0 -14 -3 -6 -6z"/><path d="M266 491 c-17 -6 -17 -8 -4 -14 10 -3 19 0 22 9 3 8 4 14 3 13 -1 0 -11 -4 -21 -8z"/><path d="M740 480 c-13 -8 -12 -10 3 -10 9 0 17 5 17 10 0 12 -1 12 -20 0z"/><path d="M810 470 c0 -5 7 -7 15 -4 8 4 15 8 15 10 0 2 -7 4 -15 4 -8 0 -15 -4 -15 -10z"/><path d="M872 460 c0 -14 2 -19 5 -12 2 6 2 18 0 25 -3 6 -5 1 -5 -13z"/><path d="M911 464 c0 -11 3 -14 6 -6 3 7 2 16 -1 19 -3 4 -6 -2 -5 -13z"/><path d="M273 445 c0 -8 4 -12 9 -9 5 3 6 10 3 15 -9 13 -12 11 -12 -6z"/><path d="M818 428 c5 -5 16 -8 23 -6 8 3 3 7 -10 11 -17 4 -21 3 -13 -5z"/><path d="M153 409 c1 -14 4 -16 17 -6 8 6 16 12 18 13 1 1 -6 4 -17 7 -14 3 -19 0 -18 -14z"/><path d="M802 397 c-9 -10 -6 -13 13 -13 19 0 22 3 13 13 -6 7 -12 13 -13 13 -1 0 -7 -6 -13 -13z"/><path d="M180 390 c0 -5 5 -10 11 -10 5 0 7 5 4 10 -3 6 -8 10 -11 10 -2 0 -4 -4 -4 -10z"/><path d="M358 383 c6 -2 18 -2 25 0 6 3 1 5 -13 5 -14 0 -19 -2 -12 -5z"/><path d="M608 383 c6 -2 18 -2 25 0 6 3 1 5 -13 5 -14 0 -19 -2 -12 -5z"/><path d="M776 366 c6 -15 4 -17 -7 -11 -12 8 -12 6 0 -9 10 -12 17 -14 25 -6 7 7 5 15 -7 28 -17 16 -18 16 -11 -2z"/><path d="M195 361 c-3 -5 -1 -12 5 -16 5 -3 10 1 10 9 0 18 -6 21 -15 7z"/><path d="M299 343 c-13 -16 -12 -17 4 -4 16 13 21 21 13 21 -2 0 -10 -8 -17 -17z"/><path d="M328 323 c7 -3 16 -2 19 1 4 3 -2 6 -13 5 -11 0 -14 -3 -6 -6z"/><path d="M455 320 c4 -6 11 -8 16 -5 14 9 11 15 -7 15 -8 0 -12 -5 -9 -10z"/><path d="M648 323 c7 -3 16 -2 19 1 4 3 -2 6 -13 5 -11 0 -14 -3 -6 -6z"/><path d="M694 298 l-19 -23 23 19 c21 18 27 26 19 26 -2 0 -12 -10 -23 -22z"/><path d="M745 309 c-4 -6 -5 -12 -2 -15 2 -3 7 2 10 11 7 17 1 20 -8 4z"/><path d="M545 299 c-4 -6 -5 -12 -2 -15 2 -3 7 2 10 11 7 17 1 20 -8 4z"/><path d="M435 278 c-4 -13 -13 -26 -19 -30 -8 -5 -7 -8 2 -8 12 0 37 49 28 57 -2 3 -7 -6 -11 -19z"/><path d="M460 290 c0 -5 5 -10 11 -10 5 0 7 5 4 10 -3 6 -8 10 -11 10 -2 0 -4 -4 -4 -10z"/><path d="M592 280 c0 -14 2 -19 5 -12 2 6 2 18 0 25 -3 6 -5 1 -5 -13z"/><path d="M537 257 c-3 -8 0 -14 7 -14 7 0 13 6 13 14 0 17 -13 17 -20 0z"/><path d="M173 245 c0 -8 4 -12 9 -9 5 3 6 10 3 15 -9 13 -12 11 -12 -6z"/><path d="M220 235 c13 -14 26 -25 28 -25 3 0 -5 11 -18 25 -13 14 -26 25 -28 25 -3 0 5 -11 18 -25z"/><path d="M781 216 c-13 -13 -18 -26 -13 -30 5 -3 19 5 31 18 13 13 18 26 13 30 -5 3 -19 -5 -31 -18z m29 11 c0 -2 -10 -12 -22 -23 l-23 -19 19 23 c18 21 26 27 26 19z"/><path d="M639 213 c-13 -17 -13 -17 6 -3 11 8 22 16 24 17 2 2 0 3 -6 3 -6 0 -17 -8 -24 -17z"/><path d="M488 213 c6 -2 18 -2 25 0 6 3 1 5 -13 5 -14 0 -19 -2 -12 -5z"/><path d="M401 184 c0 -11 3 -14 6 -6 3 7 2 16 -1 19 -3 4 -6 -2 -5 -13z"/><path d="M476 191 c-3 -5 -14 -8 -24 -6 -9 1 -11 0 -4 -2 17 -6 15 -20 -5 -32 -16 -9 -15 -10 5 -8 13 1 22 8 22 18 0 20 33 34 51 23 8 -4 9 -3 5 4 -9 14 -42 16 -50 3z"/><path d="M555 181 c3 -5 1 -12 -5 -16 -5 -3 -10 -12 -10 -18 0 -7 7 -3 15 7 18 23 19 36 4 36 -5 0 -8 -4 -4 -9z"/><path d="M599 173 c-13 -16 -12 -17 4 -4 9 7 17 15 17 17 0 8 -8 3 -21 -13z"/><path d="M480 150 c0 -5 5 -10 11 -10 5 0 7 5 4 10 -3 6 -8 10 -11 10 -2 0 -4 -4 -4 -10z"/><path d="M395 100 c-3 -6 1 -7 9 -4 18 7 21 14 7 14 -6 0 -13 -4 -16 -10z"/><path d="M580 106 c0 -2 7 -7 16 -10 8 -3 12 -2 9 4 -6 10 -25 14 -25 6z"/><path d="M478 93 c12 -2 30 -2 40 0 9 3 -1 5 -23 4 -22 0 -30 -2 -17 -4z"/></g><g transform="translate(0.000000,100.000000) scale(0.100000,-0.100000)" fill="#BFA5B8" stroke="none"><path d="M330 960 c0 -5 5 -10 11 -10 5 0 7 5 4 10 -3 6 -8 10 -11 10 -2 0 -4 -4 -4 -10z"/><path d="M649 953 c-13 -16 -12 -17 4 -4 9 7 17 15 17 17 0 8 -8 3 -21 -13z"/><path d="M173 885 c-3 -9 -3 -18 -1 -21 3 -3 8 4 11 16 6 23 -1 27 -10 5z"/><path d="M810 859 c0 -5 5 -7 10 -4 6 3 10 8 10 11 0 2 -4 4 -10 4 -5 0 -10 -5 -10 -11z"/><path d="M166 834 c-4 -9 -4 -19 -1 -22 2 -3 7 3 11 12 4 9 4 19 1 22 -2 3 -7 -3 -11 -12z"/><path d="M96 813 c-6 -14 -5 -15 5 -6 7 7 10 15 7 18 -3 3 -9 -2 -12 -12z"/><path d="M890 811 c0 -5 5 -13 10 -16 6 -3 10 -2 10 4 0 5 -4 13 -10 16 -5 3 -10 2 -10 -4z"/><path d="M81 785 c0 -5 6 -19 14 -29 8 -11 15 -15 15 -10 0 6 -7 19 -15 30 -8 10 -14 15 -14 9z"/><path d="M894 765 c-3 -8 -4 -20 -2 -27 3 -7 7 -1 10 15 6 29 1 36 -8 12z"/><path d="M950 715 c0 -15 18 -40 24 -34 3 3 -1 14 -9 25 -8 10 -14 15 -15 9z"/><path d="M27 703 c-4 -3 -7 -16 -6 -27 0 -19 1 -19 10 3 10 24 8 36 -4 24z"/><path d="M947 653 c-4 -3 -7 -11 -7 -17 0 -6 5 -5 12 2 6 6 9 14 7 17 -3 3 -9 2 -12 -2z"/><path d="M43 385 c0 -8 4 -12 9 -9 5 3 6 10 3 15 -9 13 -12 11 -12 -6z"/><path d="M40 349 c0 -5 5 -7 10 -4 6 3 10 8 10 11 0 2 -4 4 -10 4 -5 0 -10 -5 -10 -11z"/><path d="M21 325 c0 -11 4 -27 9 -35 9 -13 10 -13 9 0 0 8 -4 24 -9 35 l-9 20 0 -20z"/><path d="M957 300 c-3 -11 -3 -20 -1 -20 2 0 8 9 14 20 6 11 7 20 2 20 -6 0 -12 -9 -15 -20z"/><path d="M890 246 c0 -8 4 -17 9 -20 5 -4 7 3 4 14 -6 23 -13 26 -13 6z"/><path d="M85 220 c-3 -5 1 -20 9 -32 9 -12 16 -17 16 -11 0 7 -5 15 -11 18 -6 4 -8 13 -5 21 6 16 0 19 -9 4z"/><path d="M889 183 c-13 -16 -12 -17 4 -4 16 13 21 21 13 21 -2 0 -10 -8 -17 -17z"/><path d="M817 173 c-4 -3 -7 -16 -6 -27 0 -19 1 -19 10 3 10 24 8 36 -4 24z"/><path d="M177 143 c-4 -3 -7 -16 -6 -27 0 -19 1 -19 10 3 10 24 8 36 -4 24z"/><path d="M281 44 c0 -11 3 -14 6 -6 3 7 2 16 -1 19 -3 4 -6 -2 -5 -13z"/><path d="M599 43 c-13 -17 -13 -17 6 -3 11 8 22 16 24 17 2 2 0 3 -6 3 -6 0 -17 -8 -24 -17z"/><path d="M392 36 c7 -8 15 -12 17 -11 5 6 -10 25 -20 25 -5 0 -4 -6 3 -14z"/><path d="M640 46 c0 -2 7 -9 15 -16 9 -7 15 -8 15 -2 0 5 -7 12 -15 16 -8 3 -15 4 -15 2z"/></g><g transform="translate(0.000000,100.000000) scale(0.100000,-0.100000)" fill="#F2E5E5" stroke="none"><path d="M405 900 c-8 -13 5 -13 25 0 13 8 13 10 -2 10 -9 0 -20 -4 -23 -10z"/><path d="M488 903 c6 -2 18 -2 25 0 6 3 1 5 -13 5 -14 0 -19 -2 -12 -5z"/><path d="M570 900 c20 -13 33 -13 25 0 -3 6 -14 10 -23 10 -15 0 -15 -2 -2 -10z"/><path d="M370 889 c0 -5 5 -7 10 -4 6 3 10 8 10 11 0 2 -4 4 -10 4 -5 0 -10 -5 -10 -11z"/><path d="M418 863 c6 -2 9 -10 6 -15 -4 -7 -2 -8 5 -4 13 9 5 26 -12 25 -9 0 -8 -2 1 -6z"/><path d="M569 868 c-5 -19 -8 -50 -4 -46 7 7 15 48 9 48 -2 0 -4 -1 -5 -2z"/><path d="M357 838 c2 -5 10 -8 18 -8 8 0 16 3 18 8 3 4 -5 7 -18 7 -13 0 -21 -3 -18 -7z"/><path d="M477 809 c7 -7 15 -10 18 -7 3 3 -2 9 -12 12 -14 6 -15 5 -6 -5z"/><path d="M297 797 c-3 -8 1 -14 8 -14 7 0 11 6 8 14 -3 7 -6 13 -8 13 -2 0 -5 -6 -8 -13z"/><path d="M386 797 c3 -10 9 -15 12 -12 3 3 0 11 -7 18 -10 9 -11 8 -5 -6z"/><path d="M227 762 c-25 -25 -32 -39 -22 -39 8 0 13 3 10 5 -9 9 17 32 28 25 5 -3 7 -1 4 4 -8 13 17 36 28 25 5 -4 5 -1 1 6 -9 16 -7 17 -49 -26z"/><path d="M779 786 c13 -16 51 -41 51 -33 0 2 -15 14 -32 27 -21 15 -28 17 -19 6z"/><path d="M453 773 c8 -7 88 -6 95 2 3 3 -19 5 -48 5 -29 0 -50 -3 -47 -7z"/><path d="M644 768 c-4 -6 -3 -8 4 -4 5 3 13 0 15 -6 3 -8 6 -6 6 5 1 19 -14 23 -25 5z"/><path d="M750 776 c0 -2 8 -10 18 -17 15 -13 16 -12 3 4 -13 16 -21 21 -21 13z"/><path d="M170 750 c-9 -6 -10 -10 -3 -10 6 0 15 5 18 10 8 12 4 12 -15 0z"/><path d="M456 743 c-4 -9 -2 -21 4 -27 7 -7 10 -2 10 17 0 31 -5 34 -14 10z"/><path d="M548 753 c6 -2 12 -12 12 -21 0 -15 2 -15 10 -2 9 15 -4 30 -25 29 -5 0 -4 -3 3 -6z"/><path d="M290 735 c-7 -8 -8 -15 -2 -15 5 0 15 7 22 15 7 8 8 15 2 15 -5 0 -15 -7 -22 -15z"/><path d="M362 738 c2 -7 -5 -12 -14 -12 -10 1 -16 -2 -13 -6 3 -5 1 -11 -5 -15 -5 -3 -10 -12 -10 -18 0 -7 5 -4 11 6 5 9 16 17 23 17 17 0 29 27 15 35 -5 4 -8 1 -7 -7z"/><path d="M236 724 c-5 -12 -2 -15 10 -10 12 5 14 1 9 -15 -5 -15 -4 -19 4 -15 15 10 14 31 -3 45 -11 9 -15 8 -20 -5z"/><path d="M721 726 c-9 -10 -8 -16 4 -26 9 -7 18 -10 22 -6 3 3 1 6 -6 6 -8 0 -11 8 -8 20 6 24 4 25 -12 6z"/><path d="M537 709 c7 -7 15 -10 18 -7 3 3 -2 9 -12 12 -14 6 -15 5 -6 -5z"/><path d="M661 704 c13 -16 2 -57 -13 -48 -7 5 -8 2 -4 -5 6 -9 13 -8 27 5 15 14 22 15 32 5 9 -9 9 -14 -2 -20 -8 -6 -9 -11 -3 -15 6 -3 13 2 16 11 9 29 7 37 -10 39 -18 3 -35 24 -29 34 2 4 -2 7 -10 7 -11 0 -12 -4 -4 -13z"/><path d="M786 706 c7 -19 20 -21 30 -3 4 6 4 9 -1 5 -4 -4 -14 -3 -22 4 -11 8 -12 7 -7 -6z"/><path d="M370 700 c-9 -6 -10 -10 -3 -10 6 0 15 5 18 10 8 12 4 12 -15 0z"/><path d="M176 689 c3 -5 9 -7 14 -4 5 3 13 -3 19 -12 6 -10 11 -13 11 -6 0 13 -17 26 -38 29 -6 1 -10 -2 -6 -7z"/><path d="M167 663 c5 -12 3 -14 -7 -8 -8 5 -11 4 -6 -3 4 -6 13 -9 22 -5 11 4 12 9 3 19 -15 19 -20 18 -12 -3z"/><path d="M757 674 c-3 -5 1 -15 9 -22 16 -14 18 -5 5 17 -5 7 -11 9 -14 5z"/><path d="M812 666 c7 -8 15 -12 17 -11 5 6 -10 25 -20 25 -5 0 -4 -6 3 -14z"/><path d="M536 627 c3 -10 9 -15 12 -12 3 3 0 11 -7 18 -10 9 -11 8 -5 -6z"/><path d="M790 626 c0 -2 7 -7 16 -10 8 -3 12 -2 9 4 -6 10 -25 14 -25 6z"/><path d="M246 607 c3 -10 9 -15 12 -12 3 3 0 11 -7 18 -10 9 -11 8 -5 -6z"/><path d="M90 599 c0 -5 5 -7 10 -4 6 3 10 8 10 11 0 2 -4 4 -10 4 -5 0 -10 -5 -10 -11z"/><path d="M303 593 c-3 -10 -8 -22 -11 -27 -3 -5 0 -6 5 -3 11 7 25 47 17 47 -3 0 -7 -8 -11 -17z"/><path d="M726 583 c-6 -14 -5 -15 5 -6 7 7 10 15 7 18 -3 3 -9 -2 -12 -12z"/><path d="M890 591 c0 -5 5 -13 10 -16 6 -3 10 -2 10 4 0 5 -4 13 -10 16 -5 3 -10 2 -10 -4z"/><path d="M221 554 c0 -11 3 -14 6 -6 3 7 2 16 -1 19 -3 4 -6 -2 -5 -13z"/><path d="M84 545 c-3 -8 -4 -20 -2 -27 3 -7 7 -1 10 15 6 29 1 36 -8 12z"/><path d="M772 535 c0 -16 2 -22 5 -12 2 9 2 23 0 30 -3 6 -5 -1 -5 -18z"/><path d="M186 535 c-9 -26 -7 -32 5 -12 6 10 9 21 6 23 -2 3 -7 -2 -11 -11z"/><path d="M453 535 c0 -8 4 -15 9 -15 4 0 8 4 8 9 0 6 -4 12 -8 15 -5 3 -9 -1 -9 -9z"/><path d="M487 539 c7 -7 15 -10 18 -7 3 3 -2 9 -12 12 -14 6 -15 5 -6 -5z"/><path d="M901 500 c0 -40 2 -42 11 -22 8 16 8 28 0 45 -9 19 -11 17 -11 -23z"/><path d="M578 523 c7 -3 16 -2 19 1 4 3 -2 6 -13 5 -11 0 -14 -3 -6 -6z"/><path d="M730 520 l-25 -8 28 -1 c15 -1 27 4 27 9 0 6 -1 10 -2 9 -2 -1 -14 -5 -28 -9z"/><path d="M872 500 c0 -14 2 -19 5 -12 2 6 2 18 0 25 -3 6 -5 1 -5 -13z"/><path d="M800 495 c0 -8 4 -15 8 -15 5 0 9 7 9 15 0 8 -4 15 -9 15 -4 0 -8 -7 -8 -15z"/><path d="M230 491 c0 -5 5 -13 10 -16 6 -3 10 -2 10 4 0 5 -4 13 -10 16 -5 3 -10 2 -10 -4z"/><path d="M385 489 c-4 -6 -5 -12 -2 -15 2 -3 7 2 10 11 7 17 1 20 -8 4z"/><path d="M772 470 c0 -19 2 -27 5 -17 2 9 2 25 0 35 -3 9 -5 1 -5 -18z"/><path d="M80 467 c0 -14 5 -29 10 -32 7 -4 8 3 4 22 -9 38 -14 42 -14 10z"/><path d="M504 440 l1 -45 40 -1 40 -1 -37 4 c-35 4 -37 6 -41 46 l-4 42 1 -45z"/><path d="M126 465 c-9 -26 -7 -32 5 -12 6 10 9 21 6 23 -2 3 -7 -2 -11 -11z"/><path d="M225 449 c-4 -6 -5 -12 -2 -15 2 -3 7 2 10 11 7 17 1 20 -8 4z"/><path d="M700 451 c0 -6 4 -13 10 -16 6 -3 7 1 4 9 -7 18 -14 21 -14 7z"/><path d="M848 437 c-3 -14 0 -24 7 -24 7 0 10 10 7 24 -2 12 -6 23 -7 23 -1 0 -5 -11 -7 -23z"/><path d="M148 443 c6 -2 18 -2 25 0 6 3 1 5 -13 5 -14 0 -19 -2 -12 -5z"/><path d="M136 414 c-4 -9 -4 -19 -1 -22 3 -3 5 0 5 7 0 7 4 9 10 6 6 -3 7 1 4 9 -8 20 -10 20 -18 0z"/><path d="M746 422 c-3 -5 1 -9 9 -9 8 0 12 4 9 9 -3 4 -7 8 -9 8 -2 0 -6 -4 -9 -8z"/><path d="M896 415 c-3 -8 -1 -15 4 -15 6 0 10 7 10 15 0 8 -2 15 -4 15 -2 0 -6 -7 -10 -15z"/><path d="M90 400 c0 -5 5 -10 11 -10 5 0 7 5 4 10 -3 6 -8 10 -11 10 -2 0 -4 -4 -4 -10z"/><path d="M418 393 c12 -2 32 -2 45 0 12 2 2 4 -23 4 -25 0 -35 -2 -22 -4z"/><path d="M840 389 c0 -5 -4 -7 -10 -4 -6 4 -7 -1 -3 -11 4 -11 8 -13 11 -6 2 7 8 10 13 7 5 -4 6 1 3 9 -7 18 -14 21 -14 5z"/><path d="M157 379 c7 -7 15 -10 18 -7 3 3 -2 9 -12 12 -14 6 -15 5 -6 -5z"/><path d="M316 373 c-6 -14 -5 -15 5 -6 7 7 10 15 7 18 -3 3 -9 -2 -12 -12z"/><path d="M216 333 c-6 -14 -5 -15 5 -6 7 7 10 15 7 18 -3 3 -9 -2 -12 -12z"/><path d="M685 341 c4 -8 2 -17 -6 -22 -9 -6 -10 -9 -2 -9 19 0 27 21 13 33 -10 9 -11 9 -5 -2z"/><path d="M807 333 c3 -7 6 -13 8 -13 2 0 5 6 8 13 3 8 -1 14 -8 14 -7 0 -11 -6 -8 -14z"/><path d="M760 334 c0 -6 6 -17 14 -23 11 -9 15 -8 20 4 4 10 2 14 -5 9 -6 -4 -15 0 -20 7 -5 8 -9 9 -9 3z"/><path d="M240 314 c0 -8 5 -12 10 -9 6 4 8 11 5 16 -9 14 -15 11 -15 -7z"/><path d="M286 322 c-3 -5 1 -15 8 -21 11 -10 14 -9 12 3 -3 21 -13 29 -20 18z"/><path d="M383 323 c29 -3 40 -10 47 -29 5 -13 12 -24 15 -24 2 0 0 11 -5 24 -6 17 -5 26 3 30 7 2 -13 4 -43 4 -41 -1 -46 -2 -17 -5z"/><path d="M510 321 c0 -8 120 -4 128 4 2 2 -26 4 -62 4 -36 0 -66 -4 -66 -8z"/><path d="M725 300 c-3 -6 1 -13 10 -16 21 -9 26 -2 10 13 -9 8 -16 9 -20 3z"/><path d="M775 270 c-3 -5 -3 -10 1 -10 4 0 -5 -15 -22 -32 l-29 -33 37 34 c21 19 35 38 32 43 -7 11 -11 10 -19 -2z"/><path d="M587 253 c-10 -9 -9 -23 1 -23 5 0 9 7 9 15 0 17 -1 18 -10 8z"/><path d="M820 250 c-9 -6 -10 -10 -3 -10 6 0 15 5 18 10 8 12 4 12 -15 0z"/><path d="M340 231 c0 -10 19 -25 25 -20 1 2 -3 10 -11 17 -8 7 -14 8 -14 3z"/><path d="M200 205 c13 -14 26 -25 28 -25 3 0 -5 11 -18 25 -13 14 -26 25 -28 25 -3 0 5 -11 18 -25z"/><path d="M438 223 c7 -3 16 -2 19 1 4 3 -2 6 -13 5 -11 0 -14 -3 -6 -6z"/><path d="M548 223 c7 -3 16 -2 19 1 4 3 -2 6 -13 5 -11 0 -14 -3 -6 -6z"/><path d="M383 194 c0 -17 2 -22 7 -13 5 6 6 18 3 26 -8 19 -10 16 -10 -13z"/><path d="M606 203 c-6 -14 -5 -15 5 -6 7 7 10 15 7 18 -3 3 -9 -2 -12 -12z"/><path d="M672 200 c0 -14 2 -19 5 -12 2 6 2 18 0 25 -3 6 -5 1 -5 -13z"/><path d="M645 200 c3 -5 8 -10 11 -10 2 0 4 5 4 10 0 6 -5 10 -11 10 -5 0 -7 -4 -4 -10z"/><path d="M357 186 c-3 -8 2 -20 11 -27 14 -11 15 -11 5 0 -6 7 -9 20 -6 27 3 8 3 14 0 14 -3 0 -7 -6 -10 -14z"/><path d="M455 190 c4 -6 11 -8 16 -5 14 9 11 15 -7 15 -8 0 -12 -5 -9 -10z"/><path d="M528 193 c7 -3 16 -2 19 1 4 3 -2 6 -13 5 -11 0 -14 -3 -6 -6z"/><path d="M745 179 c-4 -6 -5 -12 -2 -15 2 -3 7 2 10 11 7 17 1 20 -8 4z"/><path d="M256 167 c3 -10 9 -15 12 -12 3 3 0 11 -7 18 -10 9 -11 8 -5 -6z"/><path d="M568 161 c-15 -18 -15 -19 5 -25 12 -3 23 -3 26 -1 2 3 -1 5 -8 5 -8 0 -10 7 -6 20 8 25 4 25 -17 1z"/><path d="M606 172 c-3 -5 1 -9 9 -9 8 0 12 4 9 9 -3 4 -7 8 -9 8 -2 0 -6 -4 -9 -8z"/><path d="M395 160 c-3 -5 -1 -10 4 -10 6 0 11 5 11 10 0 6 -2 10 -4 10 -3 0 -8 -4 -11 -10z"/><path d="M507 137 c3 -5 -3 -7 -13 -3 -11 3 -25 2 -32 -3 -9 -5 7 -8 40 -8 29 -1 44 2 34 4 -15 4 -16 7 -5 14 10 6 8 8 -8 6 -12 0 -19 -5 -16 -10z"/><path d="M590 100 c-9 -6 -10 -10 -3 -10 6 0 15 5 18 10 8 12 4 12 -15 0z"/><path d="M447 88 c6 -10 100 -10 107 0 2 4 -22 8 -54 7 -32 0 -56 -3 -53 -7z"/></g><g transform="translate(0.000000,100.000000) scale(0.100000,-0.100000)" fill="#FFFFFF" stroke="none"><path d="M448 903 c6 -2 18 -2 25 0 6 3 1 5 -13 5 -14 0 -19 -2 -12 -5z"/><path d="M528 903 c6 -2 18 -2 25 0 6 3 1 5 -13 5 -14 0 -19 -2 -12 -5z"/><path d="M405 860 c-96 -23 -195 -103 -241 -192 -28 -55 -32 -77 -9 -58 8 7 12 16 9 21 -2 5 2 22 11 39 13 26 19 29 31 19 16 -13 19 -49 3 -49 -5 0 -7 -5 -3 -11 3 -6 14 2 25 20 23 38 23 41 4 41 -27 0 -28 29 -4 55 13 13 30 25 37 25 7 0 10 5 7 10 -3 6 1 10 9 10 9 0 16 -4 16 -10 0 -5 5 -10 12 -10 9 0 9 3 0 12 -16 16 -15 28 3 28 8 0 15 -4 15 -10 0 -5 5 -10 11 -10 6 0 8 8 4 19 -5 17 2 22 46 35 69 21 76 20 81 -8 4 -21 1 -26 -21 -29 -14 -2 -1 -3 29 -4 31 0 69 -3 85 -5 17 -3 25 -3 18 -1 -10 3 -10 9 0 24 15 24 37 25 38 2 0 -11 3 -13 6 -5 7 18 25 15 71 -15 48 -31 52 -45 20 -67 -12 -9 -17 -16 -11 -16 7 0 15 5 18 10 10 16 45 12 45 -6 0 -8 4 -13 9 -9 11 6 51 -47 51 -68 0 -20 -29 -30 -46 -16 -10 9 -11 5 -1 -20 11 -29 12 -30 19 -10 11 28 43 21 42 -9 0 -12 4 -22 9 -22 6 0 8 -36 5 -87 -3 -66 -10 -99 -28 -133 -12 -25 -26 -47 -30 -50 -3 -3 -9 -13 -13 -22 -5 -15 -9 -16 -33 -3 -25 12 -29 12 -60 -13 -22 -17 -30 -30 -24 -36 12 -12 13 -46 2 -46 -4 0 -13 5 -19 11 -9 9 -11 7 -6 -9 4 -18 1 -21 -27 -20 -18 1 -35 -4 -38 -10 -4 -5 -18 -12 -32 -15 -14 -2 -6 -3 18 -1 71 6 136 41 200 107 79 83 97 132 97 262 -1 80 -5 109 -22 147 -25 55 -92 131 -144 164 -74 47 -205 67 -294 44z m170 -10 c8 -13 -25 -40 -49 -40 -27 0 -46 18 -39 36 5 14 80 17 88 4z"/><path d="M222 803 l-49 -48 46 39 c64 55 66 56 59 56 -4 0 -29 -21 -56 -47z"/><path d="M730 837 c0 -3 18 -20 40 -37 22 -17 40 -29 40 -27 0 3 -18 20 -40 37 -22 17 -40 29 -40 27z"/><path d="M611 786 c2 -2 15 -9 29 -15 24 -11 24 -11 6 3 -16 13 -49 24 -35 12z"/><path d="M345 770 c-3 -6 1 -7 9 -4 18 7 21 14 7 14 -6 0 -13 -4 -16 -10z"/><path d="M394 754 c-104 -37 -168 -136 -168 -259 0 -56 5 -80 26 -120 57 -109 174 -169 291 -149 59 10 25 20 -63 17 -62 -1 -70 1 -70 17 0 10 -6 20 -12 23 -9 3 -7 10 7 21 19 15 17 16 -42 14 -35 -1 -65 1 -68 4 -3 3 3 21 13 39 11 19 28 59 37 89 20 64 36 80 82 80 30 0 33 2 23 19 -5 11 -10 29 -10 41 0 26 37 100 50 100 5 0 21 -16 36 -35 22 -30 26 -42 22 -80 -5 -42 -4 -45 17 -45 43 0 55 -12 75 -77 11 -36 29 -78 41 -95 12 -16 18 -33 13 -37 -5 -5 -35 -5 -66 -2 -54 7 -57 6 -42 -11 10 -10 15 -28 12 -43 -7 -32 -2 -31 54 4 79 50 119 128 119 231 0 71 -9 101 -53 167 -35 52 -131 103 -192 102 -23 0 -35 -3 -28 -6 6 -2 12 -16 12 -29 0 -14 -5 -24 -12 -23 -7 1 -26 -1 -42 -6 -28 -8 -45 4 -46 31 0 15 32 27 39 15 3 -5 12 -3 19 5 11 12 9 14 -10 13 -13 0 -42 -7 -64 -15z m208 -13 c9 -8 -1 -51 -13 -51 -4 0 -19 4 -32 9 -19 8 -23 15 -20 35 5 22 9 25 32 20 14 -4 29 -9 33 -13z m-197 -22 c9 -27 0 -35 -20 -19 -9 7 -18 10 -22 6 -3 -3 -1 -6 5 -6 20 0 14 -23 -12 -45 -26 -22 -66 -99 -66 -127 0 -10 -6 -18 -12 -18 -10 0 -10 -2 -2 -8 11 -7 18 -32 15 -59 -1 -14 -50 -18 -52 -5 0 4 -2 18 -3 32 -2 14 2 28 8 32 8 5 7 8 -1 8 -7 0 -13 5 -13 10 0 6 10 10 22 10 21 0 21 0 2 15 -18 14 -18 16 -1 29 11 8 14 15 7 18 -6 2 -8 11 -4 22 5 12 14 16 31 13 18 -3 21 -2 12 9 -6 8 -9 21 -5 29 5 13 10 14 28 4 21 -11 22 -11 8 6 -13 16 -12 20 15 41 37 29 52 30 60 3z m310 -78 c-3 -6 -1 -11 4 -11 17 0 41 -69 41 -116 0 -39 -2 -44 -23 -44 -20 0 -24 5 -25 34 -1 25 3 36 16 39 12 3 11 5 -5 6 -28 1 -29 9 -5 27 16 12 15 13 -4 8 -15 -4 -26 2 -39 22 -10 16 -18 34 -18 41 0 7 -2 11 -5 8 -3 -2 -13 0 -24 6 -19 11 -19 11 3 35 l22 24 35 -34 c19 -19 31 -39 27 -45z m41 -203 c-3 -13 -5 -24 -5 -26 -2 -6 -51 31 -51 39 0 5 13 9 30 9 26 0 29 -3 26 -22z"/><path d="M675 750 c3 -5 8 -10 11 -10 2 0 4 5 4 10 0 6 -5 10 -11 10 -5 0 -7 -4 -4 -10z"/><path d="M810 756 c0 -2 8 -10 18 -17 15 -13 16 -12 3 4 -13 16 -21 21 -21 13z"/><path d="M130 689 c-7 -11 -10 -23 -7 -25 2 -2 9 7 15 21 14 30 7 33 -8 4z"/><path d="M480 625 c-14 -35 -2 -80 20 -80 21 0 25 64 6 90 -14 19 -15 19 -26 -10z"/><path d="M91 574 c0 -11 3 -14 6 -6 3 7 2 16 -1 19 -3 4 -6 -2 -5 -13z"/><path d="M126 537 c-14 -106 28 -222 109 -302 58 -59 126 -94 193 -100 l47 -4 -50 11 c-54 12 -107 38 -112 55 -2 6 2 17 9 24 11 12 6 21 -31 54 -25 22 -41 34 -36 26 5 -9 2 -19 -10 -27 -14 -11 -20 -11 -31 1 -8 7 -14 19 -14 26 0 7 3 9 7 6 7 -8 33 11 33 25 0 5 -10 2 -22 -6 -16 -11 -25 -13 -35 -4 -19 15 -16 26 11 40 18 10 22 18 15 33 -6 15 -8 16 -8 4 -1 -19 -30 -34 -42 -22 -4 4 -10 19 -14 32 -7 22 -5 23 24 16 25 -5 31 -3 31 9 0 13 -6 15 -26 10 -17 -4 -29 -2 -35 7 -13 20 -11 27 9 32 15 4 15 5 0 6 -10 1 -15 8 -13 19 12 59 13 82 6 82 -5 0 -12 -24 -15 -53z"/><path d="M187 561 c-4 -17 -3 -21 5 -13 5 5 8 16 6 23 -3 8 -7 3 -11 -10z"/><path d="M800 539 c0 -16 4 -28 9 -25 8 5 3 56 -5 56 -2 0 -4 -14 -4 -31z"/><path d="M901 554 c0 -11 3 -14 6 -6 3 7 2 16 -1 19 -3 4 -6 -2 -5 -13z"/><path d="M386 468 c-8 -18 -17 -44 -21 -57 -7 -23 -5 -24 25 -17 18 3 46 6 62 6 29 0 29 1 26 48 -3 47 -3 47 -41 50 -34 3 -39 0 -51 -30z"/><path d="M510 451 c0 -49 1 -51 29 -51 16 0 42 -3 60 -6 l31 -6 -19 53 c-17 53 -19 54 -59 57 l-42 3 0 -50z"/><path d="M802 455 c0 -16 2 -22 5 -12 2 9 2 23 0 30 -3 6 -5 -1 -5 -18z"/><path d="M901 444 c0 -11 3 -14 6 -6 3 7 2 16 -1 19 -3 4 -6 -2 -5 -13z"/><path d="M435 310 c4 -6 11 -8 16 -5 14 9 11 15 -7 15 -8 0 -12 -5 -9 -10z"/><path d="M486 308 c3 -5 10 -6 15 -3 13 9 11 12 -6 12 -8 0 -12 -4 -9 -9z"/><path d="M538 313 c7 -3 16 -2 19 1 4 3 -2 6 -13 5 -11 0 -14 -3 -6 -6z"/><path d="M140 290 c6 -11 13 -20 16 -20 2 0 0 9 -6 20 -6 11 -13 20 -16 20 -2 0 0 -9 6 -20z"/><path d="M829 263 c-13 -16 -12 -17 4 -4 16 13 21 21 13 21 -2 0 -10 -8 -17 -17z"/><path d="M205 210 c27 -27 51 -50 54 -50 3 0 -17 23 -44 50 -27 28 -51 50 -54 50 -3 0 17 -22 44 -50z"/><path d="M779 203 l-34 -38 38 34 c20 19 37 36 37 38 0 8 -8 0 -41 -34z"/><path d="M630 220 c-9 -6 -10 -10 -3 -10 6 0 15 5 18 10 8 12 4 12 -15 0z"/><path d="M562 199 c-19 -6 -30 -14 -26 -20 4 -8 9 -7 15 2 6 10 11 11 17 3 8 -13 36 -4 40 14 2 14 -1 14 -46 1z"/><path d="M428 193 c7 -3 16 -2 19 1 4 3 -2 6 -13 5 -11 0 -14 -3 -6 -6z"/><path d="M497 170 c3 -11 7 -20 8 -20 1 0 5 9 8 20 3 12 0 20 -8 20 -8 0 -11 -8 -8 -20z"/><path d="M270 156 c0 -3 9 -10 20 -16 11 -6 20 -8 20 -6 0 3 -9 10 -20 16 -11 6 -20 8 -20 6z"/><path d="M485 130 c-3 -6 1 -7 9 -4 18 7 21 14 7 14 -6 0 -13 -4 -16 -10z"/><path d="M418 93 c7 -3 16 -2 19 1 4 3 -2 6 -13 5 -11 0 -14 -3 -6 -6z"/></g></svg>