<svg version="1.0" xmlns="http://www.w3.org/2000/svg" width="170.000000" height="93.000000" viewBox="0 0 170.000000 93.000000" preserveAspectRatio="xMidYMid meet"><rect x="142" y="27" width="14" height="8" fill="rgb(38,130,56)" /><rect x="25" y="34" width="14" height="8" fill="rgb(16,119,51)" /><rect x="25" y="41" width="14" height="8" fill="rgb(15,116,51)" /><g transform="translate(0.000000,93.000000) scale(0.100000,-0.100000)" fill="#067233" stroke="none"><path d="M1280 736 l0 -64 70 -4 70 -3 0 68 0 67 -70 0 -70 0 0 -64z"/><path d="M211 563 c0 -16 4 -36 8 -46 6 -16 9 -17 19 -5 6 8 15 29 18 46 6 29 4 32 -20 32 -22 0 -26 -4 -25 -27z"/><path d="M258 532 c-16 -50 -16 -63 -5 -106 l13 -49 27 32 c14 18 32 50 38 72 10 33 10 45 -4 74 -26 54 -49 46 -69 -23z"/><path d="M392 537 c-29 -31 -28 -37 8 -37 27 0 30 3 30 30 0 36 -9 38 -38 7z"/><path d="M160 374 c0 -52 6 -54 153 -54 84 0 107 3 107 14 0 14 -69 36 -115 36 -14 0 -43 -9 -65 -20 -49 -25 -50 -25 -50 3 0 13 -7 32 -15 43 -13 18 -14 16 -15 -22z"/><path d="M402 387 c-9 -11 -10 -17 -2 -22 15 -9 23 -1 18 21 -3 15 -4 16 -16 1z"/></g><g transform="translate(0.000000,93.000000) scale(0.100000,-0.100000)" fill="#197F39" stroke="none"><path d="M1342 662 l67 -3 4 -67 3 -67 2 67 2 67 68 3 c37 2 4 4 -73 4 -77 0 -110 -2 -73 -4z"/><path d="M153 510 c0 -47 2 -66 4 -42 2 23 2 61 0 85 -2 23 -4 4 -4 -43z"/><path d="M201 574 c0 -11 3 -14 6 -6 3 7 2 16 -1 19 -3 4 -6 -2 -5 -13z"/><path d="M325 560 c8 -16 15 -36 15 -45 0 -8 5 -15 11 -15 5 0 7 -5 4 -10 -4 -6 -11 -8 -16 -5 -5 4 -9 1 -9 -5 0 -21 25 -4 39 26 8 16 19 32 25 36 6 4 8 10 4 13 -4 4 -14 -5 -24 -20 l-17 -26 -18 41 c-10 22 -21 40 -24 40 -3 0 1 -13 10 -30z"/><path d="M255 547 c-8 -32 -35 -58 -35 -34 0 9 -4 18 -9 21 -4 3 -6 -6 -3 -19 2 -14 8 -25 13 -25 5 0 9 -9 9 -20 0 -11 4 -20 10 -20 5 0 7 7 4 15 -4 8 1 34 10 56 9 23 15 44 12 46 -3 3 -8 -6 -11 -20z"/><path d="M316 445 c-3 -8 -1 -15 3 -15 5 0 11 7 15 15 3 8 1 15 -3 15 -5 0 -11 -7 -15 -15z"/><path d="M157 414 c-9 -10 -9 -82 1 -87 4 -3 6 16 4 41 -3 45 -2 46 13 27 9 -11 15 -32 13 -46 -3 -18 0 -25 8 -22 9 3 10 13 3 36 -10 35 -32 61 -42 51z"/><path d="M240 401 c0 -10 8 -25 17 -32 15 -12 16 -12 10 4 -4 10 -7 25 -7 33 0 8 -4 14 -10 14 -5 0 -10 -8 -10 -19z"/><path d="M286 401 c-22 -24 -12 -30 53 -33 28 -1 51 -6 51 -10 0 -4 6 -8 14 -8 8 0 17 -8 19 -17 3 -10 5 6 6 36 l1 54 -23 -21 c-17 -16 -36 -22 -71 -22 -42 0 -47 2 -36 15 19 23 6 28 -14 6z m131 -38 c-3 -3 -11 -2 -17 2 -8 5 -7 11 2 22 12 15 13 14 16 -1 2 -10 1 -20 -1 -23z"/><path d="M225 350 c-3 -6 1 -7 9 -4 18 7 21 14 7 14 -6 0 -13 -4 -16 -10z"/></g><g transform="translate(0.000000,93.000000) scale(0.100000,-0.100000)" fill="#268C39" stroke="none"><path d="M1420 595 l0 -65 65 0 65 0 0 65 0 65 -65 0 -65 0 0 -65z"/><path d="M160 509 c0 -66 4 -86 20 -106 11 -14 20 -34 20 -45 0 -16 3 -17 20 -8 25 13 27 81 4 125 -8 16 -18 48 -21 72 -4 33 -10 43 -24 43 -17 0 -19 -9 -19 -81z"/><path d="M338 550 c16 -38 18 -39 32 -20 8 10 26 28 40 39 l25 20 -57 1 -57 0 17 -40z"/><path d="M327 438 l-34 -53 45 -3 c57 -4 95 26 90 73 -3 26 -8 30 -35 33 -29 3 -35 -2 -66 -50z"/></g><g transform="translate(0.000000,93.000000) scale(0.100000,-0.100000)" fill="#464646" stroke="none"><path d="M947 654 c-4 -4 -7 -81 -7 -171 l0 -163 65 0 c80 0 119 18 134 62 28 79 -23 148 -109 148 l-49 0 -3 62 c-3 57 -14 79 -31 62z m146 -185 c41 -50 8 -108 -66 -116 l-47 -6 0 78 0 78 48 -7 c30 -4 53 -13 65 -27z"/><path d="M555 516 c-40 -17 -55 -53 -55 -131 0 -48 4 -65 14 -65 9 0 15 20 19 67 6 75 27 103 77 103 45 0 70 -40 70 -111 0 -46 3 -59 15 -59 23 0 21 137 -3 166 -35 44 -82 54 -137 30z"/><path d="M781 516 c-48 -27 -64 -91 -36 -146 20 -39 43 -50 104 -50 39 0 51 4 51 15 0 11 -11 15 -39 15 -53 0 -91 31 -91 74 0 42 26 66 79 73 25 4 41 11 41 19 0 18 -76 18 -109 0z"/><path d="M1176 508 c-35 -50 -3 -98 64 -98 27 0 43 -5 46 -15 11 -27 -16 -45 -67 -45 -60 0 -69 -24 -13 -34 64 -13 124 21 124 69 0 31 -46 65 -90 65 -33 0 -40 3 -40 19 0 22 19 31 66 31 24 0 34 5 34 15 0 11 -13 15 -54 15 -45 0 -58 -4 -70 -22z"/><path d="M161 220 c0 -19 3 -29 6 -22 4 10 8 10 19 1 12 -9 14 -6 13 22 -1 19 -3 26 -6 16 -5 -18 -5 -18 -19 0 -12 16 -13 15 -13 -17z"/><path d="M442 220 c0 -19 2 -27 5 -17 2 9 2 25 0 35 -3 9 -5 1 -5 -18z"/><path d="M487 243 c-4 -3 -7 -16 -7 -29 0 -20 5 -22 50 -22 37 -1 50 3 50 14 0 20 17 18 24 -3 3 -11 4 -8 3 6 -2 21 -7 25 -33 25 -18 0 -39 -8 -49 -17 -21 -22 -37 -22 -33 1 2 9 10 16 16 15 7 -2 12 2 12 7 0 11 -23 14 -33 3z m80 -39 c-3 -3 -12 -4 -19 -1 -8 3 -5 6 6 6 11 1 17 -2 13 -5z"/><path d="M736 241 c-4 -5 -2 -20 3 -33 9 -21 10 -21 11 -3 1 18 1 19 11 3 15 -26 41 -23 37 5 -2 17 -8 21 -27 19 -15 -2 -21 0 -17 7 4 6 3 11 -3 11 -5 0 -12 -4 -15 -9z m54 -31 c0 -5 -2 -10 -4 -10 -3 0 -8 5 -11 10 -3 6 -1 10 4 10 6 0 11 -4 11 -10z"/><path d="M860 221 c0 -25 4 -31 21 -31 16 0 20 5 17 27 -2 17 -10 29 -20 31 -14 3 -18 -3 -18 -27z"/><path d="M912 220 c0 -19 2 -27 5 -17 2 9 2 25 0 35 -3 9 -5 1 -5 -18z"/><path d="M970 234 c0 -13 -3 -14 -13 -5 -16 13 -27 5 -27 -21 0 -13 7 -17 24 -16 18 2 25 9 28 30 3 15 1 28 -4 28 -4 0 -8 -7 -8 -16z"/><path d="M1192 220 c0 -19 2 -27 5 -17 2 9 2 25 0 35 -3 9 -5 1 -5 -18z"/><path d="M1239 248 c-1 -2 -3 -15 -4 -30 l-4 -26 76 0 c47 0 70 4 62 9 -11 7 -11 9 3 9 9 0 19 -6 21 -12 3 -7 6 -4 7 7 l1 20 9 -20 c8 -19 9 -19 9 2 1 25 -14 39 -24 23 -5 -8 -11 -8 -20 0 -9 7 -15 8 -19 1 -4 -7 -15 -7 -31 -1 -17 7 -28 5 -37 -4 -14 -14 -38 -10 -38 5 0 6 5 7 10 4 6 -3 10 -1 10 4 0 9 -28 16 -31 9z m76 -38 c-3 -5 -10 -10 -16 -10 -5 0 -9 5 -9 10 0 6 7 10 16 10 8 0 12 -4 9 -10z"/><path d="M223 233 c-7 -3 -13 -13 -13 -24 0 -24 37 -26 43 -1 4 16 5 16 6 0 1 -13 10 -17 39 -16 20 1 40 6 44 12 5 7 8 6 9 -4 0 -10 3 -8 9 5 7 17 9 17 9 3 1 -27 61 -25 61 1 0 26 -18 37 -26 16 -5 -13 -9 -14 -15 -4 -9 16 -39 21 -39 7 0 -7 -5 -6 -14 1 -10 8 -16 9 -21 1 -3 -6 -10 -8 -15 -5 -13 8 -63 13 -77 8z"/><path d="M620 214 c0 -17 6 -24 20 -24 11 0 20 4 20 9 0 5 2 15 5 23 3 8 -3 13 -20 14 -20 2 -25 -3 -25 -22z"/><path d="M681 226 c-15 -18 -6 -36 17 -36 13 0 14 2 3 9 -11 7 -11 9 0 14 10 3 11 8 3 16 -8 9 -14 8 -23 -3z"/><path d="M811 213 c0 -25 1 -26 9 -8 12 27 12 35 0 35 -5 0 -10 -12 -9 -27z"/><path d="M1001 230 c-17 -10 -7 -40 14 -40 8 0 15 9 15 19 0 24 -12 32 -29 21z m19 -20 c0 -5 -2 -10 -4 -10 -3 0 -8 5 -11 10 -3 6 -1 10 4 10 6 0 11 -4 11 -10z"/><path d="M1046 232 c-11 -10 -6 -42 7 -42 8 0 7 -4 -3 -10 -13 -9 -13 -10 0 -10 8 1 23 7 33 14 10 8 27 12 37 9 15 -4 20 0 20 15 0 23 -15 37 -24 23 -4 -6 -18 -6 -35 -1 -16 4 -32 6 -35 2z"/><path d="M1156 233 c-12 -12 -6 -43 9 -43 8 0 15 9 15 19 0 21 -13 34 -24 24z"/><path d="M1441 230 c-26 -15 -4 -38 36 -38 21 0 32 3 24 6 -10 3 -11 6 -1 12 7 4 9 13 5 20 -5 8 -14 5 -30 -10 -13 -13 -25 -17 -29 -12 -3 6 2 12 11 14 11 2 14 6 8 10 -6 4 -17 3 -24 -2z"/><path d="M1524 229 c-3 -6 -1 -15 6 -19 10 -6 9 -9 -1 -13 -10 -4 -9 -6 4 -6 10 -1 17 6 17 18 0 24 -16 36 -26 20z"/><path d="M703 158 c-5 -7 -7 -24 -3 -38 6 -24 7 -24 14 8 9 37 4 49 -11 30z"/><path d="M1193 135 c0 -22 2 -30 4 -17 2 12 2 30 0 40 -3 9 -5 -1 -4 -23z"/><path d="M168 130 c2 -16 8 -30 12 -30 4 0 10 14 12 30 4 23 1 30 -12 30 -13 0 -16 -7 -12 -30z"/><path d="M248 154 c-3 -2 -3 -15 -1 -28 4 -18 12 -23 34 -24 26 -1 30 3 27 21 -3 22 -33 32 -33 10 0 -6 -4 -15 -9 -20 -5 -5 -7 1 -3 14 5 22 -4 38 -15 27z"/><path d="M342 130 c0 -19 2 -27 5 -17 2 9 2 25 0 35 -3 9 -5 1 -5 -18z"/><path d="M448 154 c-4 -6 -25 -10 -48 -8 -38 3 -40 2 -39 -24 0 -24 1 -25 9 -7 6 15 9 16 9 4 1 -11 11 -16 32 -17 23 0 29 3 25 14 -3 8 -1 14 4 14 6 0 10 -7 10 -15 0 -8 7 -15 15 -15 9 0 15 9 14 23 0 21 -1 21 -9 2 -7 -18 -8 -16 -11 10 -2 17 -7 25 -11 19z"/><path d="M558 146 c-10 -7 -18 -19 -19 -27 -1 -8 -5 -3 -9 11 l-8 25 -1 -27 c-1 -21 4 -28 18 -28 11 0 22 8 24 18 4 16 5 16 6 0 1 -13 9 -18 34 -17 27 0 29 2 12 9 -17 7 -17 9 -3 9 11 1 15 6 12 16 -9 22 -25 18 -32 -7 -6 -22 -6 -22 -12 4 -4 23 -7 25 -22 14z"/><path d="M744 146 c-3 -9 -3 -23 0 -32 5 -14 8 -14 23 1 14 14 14 18 2 26 -11 7 -11 9 4 9 12 0 17 -8 17 -25 0 -20 4 -24 25 -23 14 1 25 8 25 15 0 19 18 16 23 -4 4 -14 5 -13 6 4 0 12 -3 24 -7 27 -16 9 -52 -6 -53 -23 -1 -9 -4 -5 -8 9 -8 29 -48 40 -57 16z"/><path d="M892 148 c-17 -17 -15 -48 3 -48 10 0 15 10 15 30 0 34 -1 35 -18 18z"/><path d="M1120 132 c0 -25 4 -29 31 -30 25 -1 30 3 27 20 -4 25 -28 37 -28 14 0 -8 -5 -18 -11 -22 -7 -4 -9 0 -5 14 4 11 2 23 -4 27 -6 4 -10 -5 -10 -23z"/><path d="M1230 128 c0 -25 3 -29 10 -18 9 13 11 13 20 0 7 -11 10 -7 10 18 0 25 -4 32 -20 32 -16 0 -20 -7 -20 -32z"/><path d="M1510 151 c0 -4 -13 -7 -30 -5 -16 2 -30 -1 -30 -7 0 -6 -5 -7 -12 -2 -18 11 -108 11 -115 0 -3 -5 -9 -4 -13 3 -10 17 -30 3 -30 -21 0 -11 7 -19 18 -19 14 0 15 2 2 10 -13 8 -12 10 3 10 9 0 17 -4 17 -9 0 -4 18 -8 41 -8 22 0 35 3 29 7 -8 5 -7 9 4 13 9 4 15 1 13 -6 -1 -7 10 -13 26 -15 20 -3 27 1 27 15 1 17 1 17 11 1 5 -10 21 -18 34 -18 17 0 25 6 26 18 0 14 2 14 9 -3 8 -18 9 -17 9 6 1 16 -6 29 -15 33 -21 8 -24 8 -24 -3z m0 -25 c0 -3 -4 -8 -10 -11 -5 -3 -10 -1 -10 4 0 6 5 11 10 11 6 0 10 -2 10 -4z"/><path d="M210 142 c0 -6 -3 -17 -6 -26 -4 -12 0 -16 16 -16 16 0 21 5 18 22 -3 21 -28 39 -28 20z"/><path d="M490 131 c0 -11 5 -23 10 -26 6 -4 10 5 10 19 0 14 -4 26 -10 26 -5 0 -10 -9 -10 -19z"/><path d="M653 134 c-8 -21 13 -42 28 -27 13 13 5 43 -11 43 -6 0 -13 -7 -17 -16z m27 -14 c0 -5 -2 -10 -4 -10 -3 0 -8 5 -11 10 -3 6 -1 10 4 10 6 0 11 -4 11 -10z"/><path d="M925 141 c-3 -2 1 -11 8 -19 9 -13 9 -14 0 -8 -7 4 -13 2 -13 -3 0 -19 58 -13 63 7 4 14 5 14 7 -3 l1 -20 9 20 c6 15 9 16 9 4 1 -24 81 -25 82 -1 0 14 2 14 10 -3 8 -18 8 -18 6 5 -2 20 -8 25 -32 26 -16 0 -36 -3 -42 -9 -9 -6 -13 -6 -13 0 0 10 -86 13 -95 4z"/></g><g transform="translate(0.000000,93.000000) scale(0.100000,-0.100000)" fill="#394C46" stroke="none"><path d="M1550 595 l0 -64 -72 -4 -73 -3 78 -2 77 -2 0 70 c0 39 -2 70 -5 70 -3 0 -5 -29 -5 -65z"/><path d="M405 560 c-3 -6 1 -7 9 -4 18 7 21 14 7 14 -6 0 -13 -4 -16 -10z"/><path d="M838 533 c12 -2 30 -2 40 0 9 3 -1 5 -23 4 -22 0 -30 -2 -17 -4z"/><path d="M998 533 c12 -2 32 -2 45 0 12 2 2 4 -23 4 -25 0 -35 -2 -22 -4z"/><path d="M1233 533 c15 -2 37 -2 50 0 12 2 0 4 -28 4 -27 0 -38 -2 -22 -4z"/><path d="M1115 500 c10 -11 20 -20 23 -20 3 0 -3 9 -13 20 -10 11 -20 20 -23 20 -3 0 3 -9 13 -20z"/><path d="M843 493 c9 -2 25 -2 35 0 9 3 1 5 -18 5 -19 0 -27 -2 -17 -5z"/><path d="M993 493 c9 -2 25 -2 35 0 9 3 1 5 -18 5 -19 0 -27 -2 -17 -5z"/><path d="M1238 493 c12 -2 32 -2 45 0 12 2 2 4 -23 4 -25 0 -35 -2 -22 -4z"/><path d="M673 380 c0 -36 2 -50 4 -32 2 17 2 47 0 65 -2 17 -4 3 -4 -33z"/><path d="M713 380 c0 -30 2 -43 4 -27 2 15 2 39 0 55 -2 15 -4 2 -4 -28z"/><path d="M533 375 c0 -27 2 -38 4 -22 2 15 2 37 0 50 -2 12 -4 0 -4 -28z"/><path d="M858 353 c6 -2 18 -2 25 0 6 3 1 5 -13 5 -14 0 -19 -2 -12 -5z"/><path d="M998 353 c12 -2 30 -2 40 0 9 3 -1 5 -23 4 -22 0 -30 -2 -17 -4z"/><path d="M1166 352 c-2 -4 11 -6 30 -4 19 2 34 6 34 8 0 8 -59 4 -64 -4z"/><path d="M1248 353 c7 -3 16 -2 19 1 4 3 -2 6 -13 5 -11 0 -14 -3 -6 -6z"/><path d="M848 313 c12 -2 30 -2 40 0 9 3 -1 5 -23 4 -22 0 -30 -2 -17 -4z"/><path d="M968 313 c18 -2 45 -2 60 0 15 2 0 4 -33 4 -33 0 -45 -2 -27 -4z"/><path d="M1178 313 c6 -2 18 -2 25 0 6 3 1 5 -13 5 -14 0 -19 -2 -12 -5z"/><path d="M435 249 c-4 -6 -5 -12 -2 -15 2 -3 7 2 10 11 7 17 1 20 -8 4z"/><path d="M900 250 c-9 -6 -10 -10 -3 -10 6 0 15 5 18 10 8 12 4 12 -15 0z"/><path d="M1195 220 c0 -21 3 -36 8 -33 4 2 7 17 7 33 0 16 -3 31 -7 33 -5 3 -8 -12 -8 -33z"/><path d="M153 220 c2 -30 5 -35 27 -35 22 0 25 5 27 35 1 34 1 34 -5 5 -9 -39 -35 -39 -44 0 -6 29 -6 29 -5 -5z"/><path d="M265 240 c3 -4 14 -10 25 -13 11 -3 18 -2 15 3 -3 4 -14 10 -25 13 -11 3 -18 2 -15 -3z"/><path d="M615 239 c-4 -6 -5 -12 -2 -15 2 -3 7 2 10 11 7 17 1 20 -8 4z"/><path d="M854 221 c0 -21 7 -36 16 -38 10 -3 11 -2 3 4 -6 4 -13 22 -16 38 -4 27 -5 27 -3 -4z"/><path d="M500 235 c0 -2 7 -8 15 -15 12 -10 15 -10 15 2 0 8 -7 15 -15 15 -8 0 -15 -1 -15 -2z"/><path d="M981 215 c-1 -25 3 -31 20 -32 18 -2 19 0 6 10 -8 7 -17 21 -20 32 -3 14 -5 10 -6 -10z"/><path d="M1068 233 c6 -2 18 -2 25 0 6 3 1 5 -13 5 -14 0 -19 -2 -12 -5z"/><path d="M1380 229 c0 -5 5 -7 10 -4 6 3 10 8 10 11 0 2 -4 4 -10 4 -5 0 -10 -5 -10 -11z"/><path d="M1418 215 c2 -14 8 -25 12 -25 10 0 1 38 -10 45 -4 2 -5 -7 -2 -20z"/><path d="M471 214 c0 -11 3 -14 6 -6 3 7 2 16 -1 19 -3 4 -6 -2 -5 -13z"/><path d="M900 211 c0 -11 4 -22 9 -25 4 -3 6 6 3 19 -5 30 -12 33 -12 6z"/><path d="M430 206 c0 -8 -8 -17 -17 -19 -10 -3 -6 -4 8 -4 20 1 25 5 21 19 -5 22 -12 24 -12 4z"/><path d="M577 201 c-3 -14 0 -19 13 -18 11 1 15 7 12 19 -6 24 -18 23 -25 -1z"/><path d="M1300 210 c-9 -6 -10 -10 -3 -10 6 0 15 5 18 10 8 12 4 12 -15 0z"/><path d="M1510 205 c0 -8 -5 -15 -12 -15 -6 0 -9 -3 -5 -6 3 -3 15 1 27 9 17 12 18 15 5 20 -9 4 -15 1 -15 -8z"/><path d="M1380 201 c0 -9 -7 -11 -21 -8 -15 4 -19 3 -12 -4 6 -6 20 -9 32 -7 15 2 18 7 11 18 -8 12 -10 12 -10 1z"/><path d="M285 190 c-16 -7 -17 -9 -3 -9 9 -1 20 4 23 9 7 11 7 11 -20 0z"/><path d="M677 189 c7 -7 15 -10 18 -7 3 3 -2 9 -12 12 -14 6 -15 5 -6 -5z"/><path d="M767 189 c7 -7 15 -10 18 -7 3 3 -2 9 -12 12 -14 6 -15 5 -6 -5z"/><path d="M1108 188 c5 -5 16 -8 23 -6 8 3 3 7 -10 11 -17 4 -21 3 -13 -5z"/><path d="M475 160 c3 -5 1 -10 -4 -10 -6 0 -11 -5 -11 -11 0 -5 5 -7 10 -4 6 3 10 -3 10 -14 0 -12 4 -21 9 -21 4 0 6 11 3 25 -3 17 0 25 9 25 11 0 11 2 -1 10 -20 13 -33 13 -25 0z"/><path d="M906 157 c3 -10 9 -15 12 -12 3 3 0 11 -7 18 -10 9 -11 8 -5 -6z"/><path d="M196 152 c-2 -4 -1 -14 4 -22 7 -11 9 -9 7 8 -1 24 -3 26 -11 14z"/><path d="M550 150 c-9 -6 -10 -10 -3 -10 6 0 15 5 18 10 8 12 4 12 -15 0z"/><path d="M760 146 c0 -2 7 -6 15 -10 8 -3 15 -1 15 4 0 6 -7 10 -15 10 -8 0 -15 -2 -15 -4z"/><path d="M818 143 c7 -3 16 -2 19 1 4 3 -2 6 -13 5 -11 0 -14 -3 -6 -6z"/><path d="M867 133 c3 -7 6 -13 8 -13 2 0 5 6 8 13 3 8 -1 14 -8 14 -7 0 -11 -6 -8 -14z"/><path d="M1105 140 c3 -5 8 -10 11 -10 2 0 4 5 4 10 0 6 -5 10 -11 10 -5 0 -7 -4 -4 -10z"/><path d="M1435 140 c3 -5 8 -10 11 -10 2 0 4 5 4 10 0 6 -5 10 -11 10 -5 0 -7 -4 -4 -10z"/><path d="M264 125 c1 -8 8 -21 16 -28 12 -10 12 -9 2 4 -6 9 -9 18 -6 21 3 3 1 9 -4 12 -6 3 -9 -1 -8 -9z"/><path d="M1135 129 c-4 -6 -5 -12 -2 -15 2 -3 7 2 10 11 7 17 1 20 -8 4z"/><path d="M1548 117 c-3 -19 -2 -25 4 -19 6 6 8 18 6 28 -3 14 -5 12 -10 -9z"/><path d="M371 114 c0 -11 3 -14 6 -6 3 7 2 16 -1 19 -3 4 -6 -2 -5 -13z"/><path d="M435 120 c3 -5 8 -10 11 -10 2 0 4 5 4 10 0 6 -5 10 -11 10 -5 0 -7 -4 -4 -10z"/><path d="M561 114 c0 -11 3 -14 6 -6 3 7 2 16 -1 19 -3 4 -6 -2 -5 -13z"/><path d="M660 126 c0 -2 8 -10 18 -17 15 -13 16 -12 3 4 -13 16 -21 21 -21 13z"/><path d="M840 116 c0 -8 6 -16 14 -19 10 -4 12 0 9 14 -6 22 -23 26 -23 5z"/><path d="M910 126 c0 -2 7 -7 16 -10 8 -3 12 -2 9 4 -6 10 -25 14 -25 6z"/><path d="M1395 121 c-3 -5 -2 -12 3 -15 5 -3 9 1 9 9 0 17 -3 19 -12 6z"/><path d="M1236 104 c-5 -14 -4 -15 9 -4 17 14 19 20 6 20 -5 0 -12 -7 -15 -16z"/><path d="M1290 116 c0 -2 7 -7 16 -10 8 -3 12 -2 9 4 -6 10 -25 14 -25 6z"/></g><g transform="translate(0.000000,93.000000) scale(0.100000,-0.100000)" fill="#525252" stroke="none"><path d="M492 420 c0 -14 2 -19 5 -12 2 6 2 18 0 25 -3 6 -5 1 -5 -13z"/><path d="M492 360 c0 -19 2 -27 5 -17 2 9 2 25 0 35 -3 9 -5 1 -5 -18z"/><path d="M1161 324 c0 -11 3 -14 6 -6 3 7 2 16 -1 19 -3 4 -6 -2 -5 -13z"/><path d="M175 240 c3 -5 8 -10 11 -10 2 0 4 5 4 10 0 6 -5 10 -11 10 -5 0 -7 -4 -4 -10z"/><path d="M700 210 c-9 -6 -10 -10 -3 -10 6 0 15 5 18 10 8 12 4 12 -15 0z"/><path d="M888 183 c7 -3 16 -2 19 1 4 3 -2 6 -13 5 -11 0 -14 -3 -6 -6z"/><path d="M1203 135 c0 -22 2 -30 4 -17 2 12 2 30 0 40 -3 9 -5 -1 -4 -23z"/><path d="M532 130 c0 -14 2 -19 5 -12 2 6 2 18 0 25 -3 6 -5 1 -5 -13z"/><path d="M781 114 c0 -11 3 -14 6 -6 3 7 2 16 -1 19 -3 4 -6 -2 -5 -13z"/><path d="M694 110 c2 -16 20 -14 24 2 3 10 2 10 -6 -1 -7 -9 -11 -10 -15 -2 -4 7 -5 8 -3 1z"/><path d="M1110 111 c0 -6 4 -13 10 -16 6 -3 7 1 4 9 -7 18 -14 21 -14 7z"/><path d="M955 100 l-30 -8 27 -1 c15 0 30 4 33 9 3 6 5 9 3 9 -2 -1 -16 -5 -33 -9z"/><path d="M538 93 c7 -3 16 -2 19 1 4 3 -2 6 -13 5 -11 0 -14 -3 -6 -6z"/><path d="M808 93 c6 -2 18 -2 25 0 6 3 1 5 -13 5 -14 0 -19 -2 -12 -5z"/><path d="M1423 93 c9 -2 23 -2 30 0 6 3 -1 5 -18 5 -16 0 -22 -2 -12 -5z"/></g></svg>