<svg version="1.0" xmlns="http://www.w3.org/2000/svg" width="282.000000" height="235.000000" viewBox="0 0 282.000000 235.000000" preserveAspectRatio="xMidYMid meet"><rect x="118" y="41" width="18" height="15" fill="rgb(229,206,88)" /><rect x="135" y="41" width="18" height="15" fill="rgb(229,206,84)" /><rect x="152" y="41" width="18" height="15" fill="rgb(228,206,86)" /><rect x="118" y="55" width="18" height="15" fill="rgb(238,230,157)" /><rect x="135" y="55" width="18" height="15" fill="rgb(229,213,137)" /><rect x="152" y="55" width="18" height="15" fill="rgb(217,196,128)" /><rect x="169" y="55" width="18" height="15" fill="rgb(212,185,89)" /><rect x="101" y="69" width="18" height="15" fill="rgb(246,239,156)" /><rect x="118" y="69" width="18" height="15" fill="rgb(215,212,236)" /><rect x="135" y="69" width="18" height="15" fill="rgb(208,202,219)" /><rect x="152" y="69" width="18" height="15" fill="rgb(176,173,231)" /><rect x="169" y="69" width="18" height="15" fill="rgb(209,178,114)" /><rect x="101" y="83" width="18" height="15" fill="rgb(242,229,175)" /><rect x="118" y="83" width="18" height="15" fill="rgb(224,205,165)" /><rect x="135" y="83" width="18" height="15" fill="rgb(132,105,116)" /><rect x="152" y="83" width="18" height="15" fill="rgb(122,122,231)" /><rect x="169" y="83" width="18" height="15" fill="rgb(235,222,191)" /><rect x="84" y="97" width="18" height="15" fill="rgb(235,213,125)" /><rect x="101" y="97" width="18" height="15" fill="rgb(252,251,250)" /><rect x="118" y="97" width="18" height="15" fill="rgb(169,158,188)" /><rect x="135" y="97" width="18" height="15" fill="rgb(20,18,204)" /><rect x="152" y="97" width="18" height="15" fill="rgb(120,120,230)" /><rect x="169" y="97" width="18" height="15" fill="rgb(252,252,254)" /><rect x="186" y="97" width="18" height="15" fill="rgb(229,206,137)" /><rect x="67" y="111" width="18" height="15" fill="rgb(245,236,184)" /><rect x="84" y="111" width="18" height="15" fill="rgb(252,252,253)" /><rect x="101" y="111" width="18" height="15" fill="rgb(252,252,254)" /><rect x="118" y="111" width="18" height="15" fill="rgb(153,152,231)" /><rect x="135" y="111" width="18" height="15" fill="rgb(135,134,228)" /><rect x="152" y="111" width="18" height="15" fill="rgb(186,185,240)" /><rect x="169" y="111" width="18" height="15" fill="rgb(252,252,254)" /><rect x="186" y="111" width="18" height="15" fill="rgb(252,252,254)" /><rect x="203" y="111" width="18" height="15" fill="rgb(233,218,187)" /><rect x="67" y="125" width="18" height="15" fill="rgb(238,224,182)" /><rect x="84" y="125" width="18" height="15" fill="rgb(252,252,254)" /><rect x="101" y="125" width="18" height="15" fill="rgb(211,211,245)" /><rect x="118" y="125" width="18" height="15" fill="rgb(144,143,232)" /><rect x="135" y="125" width="18" height="15" fill="rgb(168,168,236)" /><rect x="152" y="125" width="18" height="15" fill="rgb(168,168,236)" /><rect x="169" y="125" width="18" height="15" fill="rgb(223,223,247)" /><rect x="186" y="125" width="18" height="15" fill="rgb(252,252,254)" /><rect x="203" y="125" width="18" height="15" fill="rgb(237,228,212)" /><rect x="67" y="139" width="18" height="15" fill="rgb(214,188,136)" /><rect x="84" y="139" width="18" height="15" fill="rgb(252,252,254)" /><rect x="101" y="139" width="18" height="15" fill="rgb(226,226,249)" /><rect x="118" y="139" width="18" height="15" fill="rgb(115,114,229)" /><rect x="135" y="139" width="18" height="15" fill="rgb(140,139,230)" /><rect x="152" y="139" width="18" height="15" fill="rgb(149,148,232)" /><rect x="169" y="139" width="18" height="15" fill="rgb(220,219,246)" /><rect x="186" y="139" width="18" height="15" fill="rgb(252,252,254)" /><rect x="203" y="139" width="18" height="15" fill="rgb(229,211,171)" /><rect x="67" y="153" width="18" height="15" fill="rgb(188,150,79)" /><rect x="84" y="153" width="18" height="15" fill="rgb(252,252,254)" /><rect x="101" y="153" width="18" height="15" fill="rgb(227,227,249)" /><rect x="118" y="153" width="18" height="15" fill="rgb(102,101,226)" /><rect x="135" y="153" width="18" height="15" fill="rgb(135,133,229)" /><rect x="152" y="153" width="18" height="15" fill="rgb(144,143,231)" /><rect x="169" y="153" width="18" height="15" fill="rgb(191,190,241)" /><rect x="186" y="153" width="18" height="15" fill="rgb(252,252,254)" /><rect x="203" y="153" width="18" height="15" fill="rgb(212,180,111)" /><rect x="84" y="167" width="18" height="15" fill="rgb(243,235,219)" /><rect x="101" y="167" width="18" height="15" fill="rgb(249,246,239)" /><rect x="118" y="167" width="18" height="15" fill="rgb(176,170,211)" /><rect x="135" y="167" width="18" height="15" fill="rgb(242,233,208)" /><rect x="152" y="167" width="18" height="15" fill="rgb(242,233,208)" /><rect x="169" y="167" width="18" height="15" fill="rgb(249,246,238)" /><rect x="186" y="167" width="18" height="15" fill="rgb(250,248,242)" /><rect x="84" y="181" width="18" height="15" fill="rgb(193,148,55)" /><rect x="101" y="181" width="18" height="15" fill="rgb(213,180,88)" /><rect x="118" y="181" width="18" height="15" fill="rgb(207,175,80)" /><rect x="135" y="181" width="18" height="15" fill="rgb(204,170,78)" /><rect x="152" y="181" width="18" height="15" fill="rgb(209,177,79)" /><rect x="169" y="181" width="18" height="15" fill="rgb(210,178,91)" /><rect x="186" y="181" width="18" height="15" fill="rgb(199,159,73)" /><rect x="33" y="195" width="18" height="15" fill="rgb(176,123,13)" /><rect x="67" y="195" width="18" height="15" fill="rgb(209,171,47)" /><rect x="84" y="195" width="18" height="15" fill="rgb(152,101,27)" /><rect x="101" y="195" width="18" height="15" fill="rgb(161,118,47)" /><rect x="118" y="195" width="18" height="15" fill="rgb(196,164,80)" /><rect x="135" y="195" width="18" height="15" fill="rgb(195,165,91)" /><rect x="152" y="195" width="18" height="15" fill="rgb(197,163,76)" /><rect x="169" y="195" width="18" height="15" fill="rgb(161,118,47)" /><rect x="186" y="195" width="18" height="15" fill="rgb(151,100,28)" /><rect x="203" y="195" width="18" height="15" fill="rgb(211,174,49)" /><rect x="237" y="195" width="18" height="15" fill="rgb(176,122,13)" /><g transform="translate(0.000000,235.000000) scale(0.100000,-0.100000)" fill="#B87F06" stroke="none"><path d="M1366 2274 c-10 -25 -7 -84 4 -84 6 0 10 23 10 50 0 52 -4 61 -14 34z"/><path d="M1542 2235 c0 -16 2 -22 5 -12 2 9 2 23 0 30 -3 6 -5 -1 -5 -18z"/><path d="M1350 1940 c-13 -8 -13 -10 2 -10 9 0 20 5 23 10 8 13 -5 13 -25 0z"/><path d="M1540 1940 c0 -6 7 -10 15 -10 8 0 15 2 15 4 0 2 -7 6 -15 10 -8 3 -15 1 -15 -4z"/><path d="M1030 1830 c21 -13 837 -13 845 0 4 7 -141 10 -427 10 -283 0 -428 -4 -418 -10z"/><path d="M1473 1738 c1 -6 -9 -15 -23 -19 -15 -5 17 -7 80 -6 104 2 136 10 125 28 -9 14 -186 12 -182 -3z"/><path d="M1753 1724 c-10 -26 21 -164 51 -230 27 -59 66 -115 66 -94 0 7 11 23 25 36 l25 23 -30 63 c-16 35 -38 97 -49 138 -18 72 -20 75 -50 78 -22 2 -33 -2 -38 -14z"/><path d="M1380 1525 c0 -8 4 -15 10 -15 5 0 7 7 4 15 -4 8 -8 15 -10 15 -2 0 -4 -7 -4 -15z"/><path d="M1437 1526 c-4 -10 -5 -21 -2 -24 9 -9 17 6 13 25 -3 17 -4 17 -11 -1z"/><path d="M1317 1510 c3 -11 12 -20 21 -20 13 0 12 3 -3 20 -10 11 -19 20 -21 20 -1 0 0 -9 3 -20z"/><path d="M1498 1506 c-19 -14 -23 -26 -10 -26 4 0 13 9 20 20 14 23 13 24 -10 6z"/><path d="M1365 1481 c-26 -11 -51 -40 -60 -69 -7 -24 11 -82 26 -82 5 0 39 29 76 64 49 47 65 68 57 76 -15 15 -74 22 -99 11z"/><path d="M1272 1464 c14 -14 21 -15 30 -6 8 8 9 12 1 12 -6 0 -20 3 -30 6 -17 7 -17 6 -1 -12z"/><path d="M1253 1409 c14 -8 22 -8 30 0 8 8 3 11 -18 11 -26 -1 -28 -2 -12 -11z"/><path d="M1260 1360 c-12 -8 -11 -10 8 -10 12 0 22 5 22 10 0 13 -11 13 -30 0z"/><path d="M2004 1329 c-15 -16 -32 -26 -38 -23 -6 3 5 -9 24 -25 30 -27 170 -91 199 -91 5 0 12 -12 15 -26 5 -20 10 -24 19 -15 20 20 27 12 27 -32 0 -35 -6 -49 -29 -71 -21 -20 -30 -24 -35 -14 -3 7 -4 1 -1 -14 3 -15 1 -29 -4 -32 -4 -3 -11 -25 -15 -48 -18 -113 -87 -294 -151 -393 -19 -30 -33 -55 -30 -55 3 0 22 18 42 41 20 22 45 45 55 50 18 10 18 8 -2 -30 -14 -29 -17 -41 -8 -42 7 0 23 -2 34 -5 29 -5 64 41 114 150 43 90 94 254 88 283 -4 22 -47 30 -60 11 -5 -8 -7 11 -5 52 3 47 8 65 18 65 8 1 17 -4 21 -10 5 -6 8 -6 8 3 0 21 28 13 33 -10 7 -36 8 163 1 204 -6 34 -9 37 -63 52 -32 9 -80 16 -107 16 -29 0 -65 8 -86 19 l-37 18 -27 -28z"/><path d="M661 1314 c-52 -8 -97 -17 -100 -20 -3 -3 -7 -67 -8 -142 0 -75 1 -124 4 -108 4 23 8 27 28 23 l24 -4 3 116 3 116 62 7 c34 4 70 11 80 17 21 12 25 12 -96 -5z"/><path d="M1286 1311 c-17 -19 -17 -19 3 -14 12 3 21 12 21 19 0 18 -4 18 -24 -5z"/><path d="M2192 1115 c0 -16 2 -22 5 -12 2 9 2 23 0 30 -3 6 -5 -1 -5 -18z"/><path d="M615 990 c3 -34 1 -50 -4 -41 -5 8 -16 11 -25 8 -12 -5 -16 0 -16 20 0 14 -3 24 -6 20 -10 -10 15 -133 48 -236 51 -160 116 -269 152 -255 8 3 23 -3 33 -13 18 -18 18 -18 -24 -33 l-42 -15 42 -99 c23 -54 49 -103 58 -109 22 -14 74 0 61 16 -5 7 -28 56 -50 110 l-41 97 25 0 c13 0 24 -6 24 -12 0 -7 17 -51 38 -98 21 -47 36 -92 34 -99 -4 -11 9 -12 63 -6 53 5 66 4 60 -6 -5 -7 2 -5 16 4 13 9 39 17 58 17 32 0 33 -1 19 -17 -27 -31 -26 -47 1 -59 21 -9 31 -8 53 8 16 11 32 16 38 13 5 -3 7 0 4 9 -8 22 -71 56 -102 56 -19 0 -23 3 -13 9 22 14 -4 49 -43 57 -19 3 -39 3 -45 -1 -6 -3 -11 1 -11 9 0 9 -4 16 -10 16 -5 0 -10 -7 -10 -15 0 -8 -4 -15 -10 -15 -5 0 -10 11 -10 25 0 14 -5 25 -11 25 -7 0 -9 -10 -5 -24 9 -38 -9 -39 -26 -1 l-15 33 34 4 c24 3 37 -1 43 -11 8 -14 9 -14 10 2 0 9 5 17 10 17 6 0 10 -9 10 -20 0 -11 5 -20 10 -20 6 0 10 9 10 20 0 12 7 20 18 20 9 0 13 4 7 8 -5 4 -10 12 -11 17 0 6 -4 22 -8 38 l-8 27 -86 -5 c-70 -4 -82 -2 -68 8 16 12 13 20 -31 107 -56 108 -87 180 -84 195 3 10 -38 -24 -71 -59 -17 -18 -18 -18 -28 8 -15 39 -13 45 21 73 40 34 52 66 40 111 -5 21 -12 49 -15 64 l-6 27 -39 -42 c-22 -23 -42 -39 -46 -35 -3 3 -10 28 -15 55 l-9 48 4 -55z"/><path d="M2312 985 c0 -16 2 -22 5 -12 2 9 2 23 0 30 -3 6 -5 -1 -5 -18z"/><path d="M1178 633 c23 -2 59 -2 80 0 20 2 1 4 -43 4 -44 0 -61 -2 -37 -4z"/><path d="M1448 633 c56 -2 148 -2 205 0 56 1 10 3 -103 3 -113 0 -159 -2 -102 -3z"/><path d="M150 572 c0 -5 21 -9 47 -10 31 0 42 3 32 9 -18 11 -79 12 -79 1z"/><path d="M2650 573 c-49 -18 -69 -82 -31 -103 31 -16 37 -12 13 10 -43 41 -18 81 53 83 25 1 45 5 45 10 0 8 -57 8 -80 0z"/><path d="M250 553 c0 -5 7 -18 15 -29 12 -16 14 -16 15 -3 0 9 -7 22 -15 29 -8 7 -15 8 -15 3z"/><path d="M255 489 c-4 -6 -17 -14 -29 -19 -21 -9 -21 -9 0 -9 11 -1 29 8 39 19 10 11 13 20 7 20 -6 0 -14 -5 -17 -11z"/><path d="M1822 458 c-10 -26 -9 -36 3 -55 13 -20 18 -21 36 -10 17 10 22 9 35 -7 8 -11 14 -14 14 -8 0 7 5 12 10 12 6 0 10 -11 10 -24 0 -13 6 -26 13 -29 21 -7 0 -19 -22 -12 -13 4 -18 11 -14 18 4 7 -1 6 -11 -2 -14 -12 -22 -12 -36 -3 -13 8 -27 9 -45 2 -22 -8 -26 -6 -31 15 -3 14 -1 31 5 38 8 10 7 14 -4 14 -10 0 -15 -10 -15 -29 0 -16 -5 -28 -12 -28 -10 0 -10 -2 0 -9 24 -15 -12 -71 -46 -72 -27 -1 -27 -1 4 -8 17 -4 37 -11 44 -16 9 -6 11 -4 5 4 -7 13 66 10 163 -5 22 -3 32 -2 28 5 -4 6 12 56 35 111 36 87 45 100 65 100 20 0 22 -3 14 -17 -5 -10 -27 -59 -49 -110 -37 -87 -38 -93 -20 -98 40 -13 56 4 101 108 l45 103 -40 13 c-33 10 -194 29 -257 31 -9 0 -21 -14 -28 -32z"/><path d="M550 460 c-25 -4 -38 -8 -29 -8 23 -3 34 -32 12 -32 -9 0 -14 -2 -11 -5 3 -3 29 0 57 6 40 8 51 15 47 26 -3 8 -6 17 -6 19 0 4 -6 4 -70 -6z"/><path d="M2256 454 c-8 -21 -7 -22 31 -30 19 -4 35 -1 44 8 8 8 21 17 29 21 8 3 -1 6 -20 6 -19 1 -45 4 -56 7 -15 4 -23 0 -28 -12z"/><path d="M358 448 c-28 -10 -36 -23 -19 -30 11 -4 111 -165 111 -179 0 -6 7 -8 16 -5 9 3 27 9 40 12 13 3 24 9 24 13 0 11 -111 185 -124 193 -13 9 -14 9 -48 -4z"/><path d="M2473 454 c-23 -10 -138 -204 -120 -204 1 0 17 -4 34 -9 31 -9 33 -8 64 47 17 32 46 78 65 104 l33 46 -31 11 c-17 6 -31 11 -32 10 -1 0 -6 -3 -13 -5z"/><path d="M285 423 c-11 -3 -24 -8 -28 -13 -9 -8 86 -169 107 -182 13 -9 60 -10 68 -2 4 3 -11 31 -31 62 -21 31 -49 76 -62 99 -13 24 -26 42 -29 42 -3 -1 -14 -3 -25 -6z"/><path d="M1384 415 c-3 -8 -4 -20 -2 -27 3 -7 7 -1 10 15 6 29 1 36 -8 12z"/><path d="M1430 421 c19 -5 25 -14 24 -34 0 -39 16 -34 17 6 2 30 2 30 6 5 3 -18 10 -28 21 -28 11 0 13 3 6 8 -7 4 -13 16 -15 26 -3 14 -14 20 -44 22 -30 2 -34 1 -15 -5z"/><path d="M2503 330 c-64 -104 -66 -116 -11 -108 16 2 39 27 75 83 53 81 65 115 39 115 -8 0 -20 2 -28 5 -8 3 -35 -31 -75 -95z"/><path d="M1196 413 c7 -4 14 -17 17 -28 5 -16 5 -15 4 4 -1 14 -9 26 -17 28 -10 3 -11 2 -4 -4z"/><path d="M1293 388 c2 -32 18 -42 25 -16 3 9 1 9 -6 -1 -8 -12 -12 -8 -16 17 l-6 32 3 -32z"/><path d="M1337 400 c-3 -11 -1 -20 4 -20 5 0 9 9 9 20 0 11 -2 20 -4 20 -2 0 -6 -9 -9 -20z"/><path d="M1362 400 c0 -14 2 -19 5 -12 2 6 2 18 0 25 -3 6 -5 1 -5 -13z"/><path d="M2338 413 c7 -3 16 -2 19 1 4 3 -2 6 -13 5 -11 0 -14 -3 -6 -6z"/><path d="M1086 393 c-6 -14 -5 -15 5 -6 7 7 10 15 7 18 -3 3 -9 -2 -12 -12z"/><path d="M1401 394 c0 -11 3 -14 6 -6 3 7 2 16 -1 19 -3 4 -6 -2 -5 -13z"/><path d="M1566 398 c3 -5 10 -6 15 -3 13 9 11 12 -6 12 -8 0 -12 -4 -9 -9z"/><path d="M1630 396 c0 -9 30 -14 35 -6 4 6 -3 10 -14 10 -12 0 -21 -2 -21 -4z"/><path d="M1134 378 c4 -20 26 -21 26 -1 0 14 -2 15 -9 4 -6 -9 -10 -10 -14 -2 -4 8 -5 8 -3 -1z"/><path d="M1696 372 c-3 -5 1 -9 9 -9 8 0 12 4 9 9 -3 4 -7 8 -9 8 -2 0 -6 -4 -9 -8z"/><path d="M1860 365 c0 -9 5 -15 11 -13 6 2 11 8 11 13 0 5 -5 11 -11 13 -6 2 -11 -4 -11 -13z"/><path d="M250 276 c0 -2 8 -10 18 -17 15 -13 16 -12 3 4 -13 16 -21 21 -21 13z"/><path d="M541 238 c-1 -33 -44 -68 -82 -68 -30 0 -39 -17 -15 -26 20 -8 84 24 97 48 6 10 8 31 6 46 l-4 27 -2 -27z"/><path d="M1090 240 c-11 -7 -12 -12 -3 -21 8 -8 14 -6 22 10 12 22 5 27 -19 11z"/><path d="M1715 242 c-4 -4 -10 -7 -13 -7 -4 -1 -24 -10 -44 -21 -37 -19 -37 -20 -17 -32 12 -8 18 -9 15 -3 -4 5 3 12 14 16 11 3 20 11 20 16 0 26 20 -6 21 -34 1 -31 1 -31 9 7 4 21 13 41 19 46 10 5 9 9 -2 13 -8 3 -18 3 -22 -1z m8 -17 c-3 -9 -8 -14 -10 -11 -3 3 -2 9 2 15 9 16 15 13 8 -4z"/><path d="M287 211 c3 -11 17 -30 31 -43 l27 -23 -22 26 c-13 14 -23 30 -23 37 0 6 -4 13 -9 16 -5 4 -7 -3 -4 -13z"/><path d="M1027 219 c7 -7 15 -10 18 -7 3 3 -2 9 -12 12 -14 6 -15 5 -6 -5z"/><path d="M2280 216 c0 -36 81 -89 110 -71 20 12 9 25 -21 25 -20 0 -40 10 -60 29 -16 16 -29 24 -29 17z"/><path d="M1815 210 c-3 -6 1 -7 9 -4 18 7 21 14 7 14 -6 0 -13 -4 -16 -10z"/><path d="M1270 195 c0 -7 8 -16 18 -20 16 -6 16 -7 -1 -16 -9 -6 -15 -14 -12 -20 9 -13 -2 -11 -34 5 -29 16 -73 18 -65 4 3 -5 10 -5 16 -2 8 5 79 -19 98 -34 11 -8 -29 -22 -70 -23 -34 0 -40 -2 -25 -9 31 -13 67 -11 99 5 23 12 36 13 61 5 23 -8 44 -6 83 5 50 15 53 15 90 -6 34 -20 44 -21 83 -12 l44 11 -42 1 c-41 1 -93 18 -93 31 0 3 23 14 50 24 39 14 54 15 64 7 10 -9 16 -9 21 -1 4 6 3 9 -2 8 -4 -1 -20 5 -34 15 -24 16 -29 16 -62 2 -40 -16 -48 -11 -19 12 10 9 11 12 2 7 -8 -4 -25 -16 -37 -27 -28 -25 -83 -20 -170 15 -45 18 -63 22 -63 13z"/><path d="M2510 177 l-23 -32 29 27 c15 15 26 30 23 33 -3 2 -16 -10 -29 -28z"/><path d="M1092 175 c0 -16 2 -22 5 -12 2 9 2 23 0 30 -3 6 -5 -1 -5 -18z"/><path d="M1731 174 c0 -11 3 -14 6 -6 3 7 2 16 -1 19 -3 4 -6 -2 -5 -13z"/><path d="M1106 143 c-6 -14 -5 -15 5 -6 7 7 10 15 7 18 -3 3 -9 -2 -12 -12z"/><path d="M1120 126 c0 -2 8 -10 18 -17 15 -13 16 -12 3 4 -13 16 -21 21 -21 13z"/><path d="M428 113 c7 -3 16 -2 19 1 4 3 -2 6 -13 5 -11 0 -14 -3 -6 -6z"/><path d="M688 113 c7 -3 16 -2 19 1 4 3 -2 6 -13 5 -11 0 -14 -3 -6 -6z"/><path d="M1674 104 c-18 -14 -18 -15 4 -4 12 6 22 13 22 15 0 8 -5 6 -26 -11z"/><path d="M2128 113 c7 -3 16 -2 19 1 4 3 -2 6 -13 5 -11 0 -14 -3 -6 -6z"/><path d="M2388 113 c7 -3 16 -2 19 1 4 3 -2 6 -13 5 -11 0 -14 -3 -6 -6z"/><path d="M513 103 c32 -2 81 -2 110 0 29 2 3 3 -58 3 -60 0 -84 -1 -52 -3z"/><path d="M2213 103 c32 -2 81 -2 110 0 29 2 3 3 -58 3 -60 0 -84 -1 -52 -3z"/></g><g transform="translate(0.000000,235.000000) scale(0.100000,-0.100000)" fill="#7F5226" stroke="none"><path d="M1653 1738 c1 -6 -9 -15 -23 -19 -17 -5 -2 -7 46 -8 54 -1 73 3 77 13 3 8 21 16 39 19 18 2 -6 5 -54 5 -62 2 -87 -1 -85 -10z"/><path d="M1454 1438 l-19 -23 23 19 c21 18 27 26 19 26 -2 0 -12 -10 -23 -22z"/><path d="M1339 1333 c-13 -16 -12 -17 4 -4 9 7 17 15 17 17 0 8 -8 3 -21 -13z"/><path d="M2200 1145 c0 -11 -3 -45 -6 -75 l-7 -55 32 29 c25 24 31 37 31 73 0 41 -11 55 -26 32 -4 -8 -9 -7 -15 2 -7 11 -9 9 -9 -6z"/><path d="M560 1048 c0 -56 12 -96 27 -91 8 3 19 0 24 -8 5 -8 6 8 3 41 -8 74 -10 80 -34 80 -14 0 -20 -7 -20 -22z"/><path d="M2249 1068 c0 -2 -3 -32 -5 -68 -3 -42 -1 -60 5 -51 5 8 19 12 34 9 23 -4 25 -1 31 40 9 64 8 72 -9 72 -8 0 -15 -6 -15 -12 0 -8 -3 -9 -8 -3 -6 9 -31 18 -33 13z"/><path d="M740 868 c0 -9 -16 -30 -35 -47 -38 -33 -40 -37 -25 -76 l10 -25 36 34 c21 20 41 33 45 31 7 -5 -17 85 -26 93 -3 3 -5 -2 -5 -10z"/><path d="M260 510 c0 -5 5 -10 11 -10 5 0 7 5 4 10 -3 6 -8 10 -11 10 -2 0 -4 -4 -4 -10z"/><path d="M842 363 c44 -108 63 -137 77 -115 5 9 -6 46 -30 100 -21 48 -39 93 -39 100 0 6 -11 12 -24 12 l-25 0 41 -97z"/><path d="M1990 359 c-27 -67 -38 -105 -32 -111 17 -17 28 -2 67 94 21 51 43 99 48 106 7 9 3 12 -16 12 -22 0 -29 -11 -67 -101z"/><path d="M492 443 c-20 -8 -3 -23 28 -23 22 0 28 4 24 15 -6 15 -27 18 -52 8z"/><path d="M2332 435 c-11 -13 -8 -15 22 -15 38 0 56 14 30 24 -24 9 -38 7 -52 -9z"/><path d="M320 423 c0 -10 102 -172 116 -184 27 -23 14 10 -38 96 -46 73 -78 110 -78 88z"/><path d="M2496 363 c-60 -95 -81 -136 -64 -131 12 4 126 174 127 191 2 24 -25 -2 -63 -60z"/><path d="M1225 410 c4 -6 13 -9 20 -6 8 3 16 1 19 -5 2 -5 3 -4 2 3 -1 7 -13 15 -25 16 -16 3 -21 0 -16 -8z"/><path d="M1325 409 c-4 -6 -5 -12 -2 -15 2 -3 7 2 10 11 7 17 1 20 -8 4z"/><path d="M1517 399 c4 -12 0 -25 -8 -30 -11 -7 -11 -9 3 -9 22 0 31 15 23 40 -8 27 -25 26 -18 -1z"/><path d="M1619 416 c-6 -4 -4 -44 2 -40 4 2 5 12 2 21 -4 10 -2 14 5 9 6 -3 13 -3 16 2 4 7 -17 13 -25 8z"/><path d="M1107 399 c7 -7 15 -10 18 -7 3 3 -2 9 -12 12 -14 6 -15 5 -6 -5z"/><path d="M1192 390 c0 -14 2 -19 5 -12 2 6 2 18 0 25 -3 6 -5 1 -5 -13z"/><path d="M1715 401 c-3 -5 -1 -12 5 -16 5 -3 10 1 10 9 0 18 -6 21 -15 7z"/><path d="M976 392 c-3 -5 1 -9 9 -9 8 0 12 4 9 9 -3 4 -7 8 -9 8 -2 0 -6 -4 -9 -8z"/><path d="M1010 385 c0 -8 2 -15 4 -15 2 0 6 7 10 15 3 8 1 15 -4 15 -6 0 -10 -7 -10 -15z"/><path d="M1860 395 c0 -2 6 -8 13 -14 10 -8 14 -7 14 2 0 8 -6 14 -14 14 -7 0 -13 -1 -13 -2z"/><path d="M932 368 c7 -15 15 -23 17 -17 2 6 -4 18 -13 27 -15 15 -15 15 -4 -10z"/><path d="M1736 374 c-9 -24 -2 -26 12 -4 7 11 8 20 3 20 -5 0 -12 -7 -15 -16z"/><path d="M1226 363 c-6 -14 -5 -15 5 -6 7 7 10 15 7 18 -3 3 -9 -2 -12 -12z"/><path d="M1787 365 c-4 -8 -3 -16 1 -19 4 -3 9 4 9 15 2 23 -3 25 -10 4z"/><path d="M1836 364 c-3 -8 -11 -12 -17 -8 -8 4 -9 3 -5 -4 9 -15 36 -4 36 14 0 19 -6 18 -14 -2z"/><path d="M1060 362 c0 -6 -6 -9 -14 -6 -7 3 -16 -2 -20 -12 -5 -13 -3 -14 6 -7 7 6 25 9 41 7 15 -1 27 2 27 8 0 6 -3 8 -7 5 -3 -4 -12 -2 -20 4 -9 8 -13 8 -13 1z"/><path d="M1625 360 c-3 -5 1 -10 10 -10 9 0 13 5 10 10 -3 6 -8 10 -10 10 -2 0 -7 -4 -10 -10z"/><path d="M1900 359 c0 -5 -4 -8 -9 -5 -5 3 -14 0 -19 -7 -9 -10 -6 -13 11 -13 15 0 24 6 24 18 1 10 0 18 -3 18 -2 0 -4 -5 -4 -11z"/><path d="M1921 354 c0 -11 3 -14 6 -6 3 7 2 16 -1 19 -3 4 -6 -2 -5 -13z"/><path d="M981 344 c0 -11 3 -14 6 -6 3 7 2 16 -1 19 -3 4 -6 -2 -5 -13z"/><path d="M956 333 c-6 -14 -5 -15 5 -6 7 7 10 15 7 18 -3 3 -9 -2 -12 -12z"/><path d="M1930 330 c-13 -8 -12 -10 3 -10 9 0 17 5 17 10 0 12 -1 12 -20 0z"/><path d="M1698 239 c35 -58 23 -116 -29 -145 -13 -7 -18 -13 -11 -14 8 0 27 13 43 29 31 31 38 75 18 113 -6 11 -9 22 -7 24 3 2 45 -14 94 -36 85 -37 263 -94 271 -87 2 2 -43 19 -99 37 -57 17 -137 47 -178 66 -41 19 -79 33 -86 30 -6 -2 -17 1 -24 7 -7 7 -3 -4 8 -24z"/><path d="M1030 229 c-44 -23 -158 -63 -269 -95 -8 -3 -12 -7 -9 -9 9 -9 171 43 268 84 51 23 95 41 97 41 2 0 -1 -9 -7 -19 -20 -39 -12 -91 19 -122 16 -16 35 -29 43 -29 7 0 -2 9 -19 20 -49 29 -56 98 -16 143 15 16 14 17 -18 16 -19 0 -59 -14 -89 -30z"/><path d="M1235 210 c3 -5 0 -8 -7 -5 -18 6 -63 -30 -54 -43 4 -6 13 -9 20 -6 8 3 28 -2 45 -10 34 -18 45 -20 36 -7 -3 6 3 14 12 20 17 9 17 10 1 16 -10 4 -18 13 -18 20 0 7 -7 16 -16 19 -22 8 -26 8 -19 -4z"/><path d="M1578 190 c18 -4 41 -15 51 -24 12 -11 21 -13 25 -7 10 16 -36 41 -74 40 l-35 -1 33 -8z"/><path d="M715 120 c-3 -6 1 -7 9 -4 18 7 21 14 7 14 -6 0 -13 -4 -16 -10z"/><path d="M2095 120 c3 -5 11 -10 16 -10 6 0 7 5 4 10 -3 6 -11 10 -16 10 -6 0 -7 -4 -4 -10z"/><path d="M1618 73 c7 -3 16 -2 19 1 4 3 -2 6 -13 5 -11 0 -14 -3 -6 -6z"/></g><g transform="translate(0.000000,235.000000) scale(0.100000,-0.100000)" fill="#D2AC2C" stroke="none"><path d="M1376 2299 c-19 -22 -26 -41 -25 -67 l2 -37 6 42 c4 24 18 54 31 68 13 14 21 25 18 25 -4 0 -18 -14 -32 -31z"/><path d="M1510 2316 c0 -2 8 -10 18 -17 15 -13 16 -12 3 4 -13 16 -21 21 -21 13z"/><path d="M1541 2194 c0 -11 3 -14 6 -6 3 7 2 16 -1 19 -3 4 -6 -2 -5 -13z"/><path d="M1421 2054 c0 -11 3 -14 6 -6 3 7 2 16 -1 19 -3 4 -6 -2 -5 -13z"/><path d="M1389 1983 c-8 -9 -27 -24 -44 -35 -16 -10 -24 -18 -17 -18 12 0 93 69 81 70 -4 0 -13 -7 -20 -17z"/><path d="M1001 1874 c0 -11 3 -14 6 -6 3 7 2 16 -1 19 -3 4 -6 -2 -5 -13z"/><path d="M1885 1844 c-9 -15 -12 -23 -6 -20 11 7 35 46 28 46 -3 0 -12 -12 -22 -26z"/><path d="M1010 1840 c0 -5 9 -14 20 -20 11 -6 20 -9 20 -8 0 2 -9 11 -20 21 -11 9 -20 13 -20 7z"/><path d="M1960 1496 c0 -2 8 -10 18 -17 15 -13 16 -12 3 4 -13 16 -21 21 -21 13z"/><path d="M2000 1456 c0 -2 8 -10 18 -17 15 -13 16 -12 3 4 -13 16 -21 21 -21 13z"/><path d="M648 1323 c7 -3 16 -2 19 1 4 3 -2 6 -13 5 -11 0 -14 -3 -6 -6z"/><path d="M563 1313 c9 -2 23 -2 30 0 6 3 -1 5 -18 5 -16 0 -22 -2 -12 -5z"/><path d="M2321 1284 c0 -11 3 -14 6 -6 3 7 2 16 -1 19 -3 4 -6 -2 -5 -13z"/><path d="M544 1170 c0 -52 1 -74 3 -47 2 26 2 68 0 95 -2 26 -3 4 -3 -48z"/><path d="M2333 1155 c0 -38 2 -53 4 -32 2 20 2 52 0 70 -2 17 -4 1 -4 -38z"/><path d="M552 1000 c0 -14 2 -19 5 -12 2 6 2 18 0 25 -3 6 -5 1 -5 -13z"/><path d="M2322 1000 c0 -14 2 -19 5 -12 2 6 2 18 0 25 -3 6 -5 1 -5 -13z"/><path d="M2311 934 c0 -11 3 -14 6 -6 3 7 2 16 -1 19 -3 4 -6 -2 -5 -13z"/><path d="M561 924 c0 -11 3 -14 6 -6 3 7 2 16 -1 19 -3 4 -6 -2 -5 -13z"/><path d="M571 874 c0 -11 3 -14 6 -6 3 7 2 16 -1 19 -3 4 -6 -2 -5 -13z"/><path d="M178 583 c7 -3 16 -2 19 1 4 3 -2 6 -13 5 -11 0 -14 -3 -6 -6z"/><path d="M2688 583 c7 -3 16 -2 19 1 4 3 -2 6 -13 5 -11 0 -14 -3 -6 -6z"/><path d="M2730 576 c0 -2 9 -6 20 -9 11 -3 18 -1 14 4 -5 9 -34 13 -34 5z"/><path d="M97 563 c-3 -5 9 -9 26 -10 26 -1 28 0 12 7 -26 11 -33 12 -38 3z"/><path d="M263 554 c9 -11 17 -29 17 -39 0 -10 -8 -28 -17 -39 -18 -21 -18 -21 5 -2 12 11 22 29 22 41 0 12 -10 30 -22 41 -23 19 -23 19 -5 -2z"/><path d="M2605 550 c-10 -11 -16 -22 -14 -24 2 -2 12 7 22 20 22 29 17 32 -8 4z"/><path d="M2688 563 c7 -3 16 -2 19 1 4 3 -2 6 -13 5 -11 0 -14 -3 -6 -6z"/><path d="M221 557 c2 -1 13 -9 24 -17 19 -14 19 -14 6 3 -7 9 -18 17 -24 17 -6 0 -8 -1 -6 -3z"/><path d="M2629 543 c-13 -17 -13 -17 6 -3 11 8 22 16 24 17 2 2 0 3 -6 3 -6 0 -17 -8 -24 -17z"/><path d="M508 503 c6 -2 18 -2 25 0 6 3 1 5 -13 5 -14 0 -19 -2 -12 -5z"/><path d="M592 498 c9 -7 23 -26 32 -43 8 -16 15 -25 16 -20 0 17 -39 75 -52 75 -7 0 -6 -5 4 -12z"/><path d="M2260 478 c-11 -18 -20 -37 -20 -43 1 -5 8 4 16 20 9 17 23 36 32 43 10 7 11 12 4 12 -7 0 -21 -15 -32 -32z"/><path d="M2360 500 c34 -11 60 -11 35 0 -11 5 -29 8 -40 8 -16 0 -15 -2 5 -8z"/><path d="M244 489 c-3 -6 -21 -9 -39 -7 -19 2 -31 0 -29 -4 9 -14 61 -9 74 7 7 8 10 15 7 15 -3 0 -9 -5 -13 -11z"/><path d="M2670 480 l-35 -7 32 -2 c17 0 35 4 38 9 3 6 5 9 3 9 -2 -1 -19 -5 -38 -9z"/><path d="M2729 473 c-13 -16 -12 -17 4 -4 9 7 17 15 17 17 0 8 -8 3 -21 -13z"/><path d="M385 465 c-25 -12 -26 -14 -5 -9 28 7 60 23 45 23 -5 0 -23 -6 -40 -14z"/><path d="M736 467 c3 -10 9 -15 12 -12 3 3 0 11 -7 18 -10 9 -11 8 -5 -6z"/><path d="M2460 470 c8 -5 20 -10 25 -10 6 0 3 5 -5 10 -8 5 -19 10 -25 10 -5 0 -3 -5 5 -10z"/><path d="M188 453 c12 -2 30 -2 40 0 9 3 -1 5 -23 4 -22 0 -30 -2 -17 -4z"/><path d="M2648 453 c7 -3 16 -2 19 1 4 3 -2 6 -13 5 -11 0 -14 -3 -6 -6z"/><path d="M2688 453 c7 -3 16 -2 19 1 4 3 -2 6 -13 5 -11 0 -14 -3 -6 -6z"/><path d="M698 443 c6 -2 18 -2 25 0 6 3 1 5 -13 5 -14 0 -19 -2 -12 -5z"/><path d="M2158 443 c7 -3 16 -2 19 1 4 3 -2 6 -13 5 -11 0 -14 -3 -6 -6z"/><path d="M278 423 c7 -3 16 -2 19 1 4 3 -2 6 -13 5 -11 0 -14 -3 -6 -6z"/><path d="M2588 423 c7 -3 16 -2 19 1 4 3 -2 6 -13 5 -11 0 -14 -3 -6 -6z"/><path d="M198 413 c12 -2 32 -2 45 0 12 2 2 4 -23 4 -25 0 -35 -2 -22 -4z"/><path d="M2638 413 c12 -2 32 -2 45 0 12 2 2 4 -23 4 -25 0 -35 -2 -22 -4z"/><path d="M7 363 c-13 -12 -7 -31 11 -38 14 -5 15 -4 5 6 -18 18 -16 27 5 32 14 4 14 5 1 6 -9 0 -19 -2 -22 -6z"/><path d="M63 363 c9 -2 23 -2 30 0 6 3 -1 5 -18 5 -16 0 -22 -2 -12 -5z"/><path d="M2748 363 c12 -2 32 -2 45 0 12 2 2 4 -23 4 -25 0 -35 -2 -22 -4z"/><path d="M110 356 c0 -2 7 -7 16 -10 8 -3 12 -2 9 4 -6 10 -25 14 -25 6z"/><path d="M220 327 l34 -37 -34 11 c-19 7 -42 17 -51 23 -8 6 -2 -1 13 -16 16 -16 35 -28 42 -28 8 0 24 -12 35 -26 12 -15 21 -22 21 -16 0 6 -4 13 -10 17 -5 3 -7 11 -4 18 2 7 -15 30 -38 52 l-43 40 35 -38z"/><path d="M2695 350 c-3 -6 1 -7 9 -4 18 7 21 14 7 14 -6 0 -13 -4 -16 -10z"/><path d="M2640 311 c-19 -18 -30 -31 -23 -27 14 8 27 -27 18 -53 -8 -26 38 -61 79 -60 l31 2 -35 7 -35 7 35 5 35 5 -36 1 c-42 2 -54 14 -63 61 -5 27 -2 39 16 58 34 36 17 32 -22 -6z m21 -108 c13 -16 12 -17 -3 -4 -10 7 -18 15 -18 17 0 8 8 3 21 -13z"/><path d="M58 333 c12 -2 30 -2 40 0 9 3 -1 5 -23 4 -22 0 -30 -2 -17 -4z"/><path d="M2720 336 c0 -2 18 -6 39 -8 22 -2 37 0 35 4 -5 8 -74 11 -74 4z"/><path d="M2672 308 l-21 -23 32 -1 c62 -3 76 -8 82 -31 3 -13 10 -21 14 -18 5 3 12 -1 14 -7 3 -8 6 -9 6 -2 2 22 -40 63 -75 74 -27 9 -33 15 -23 21 8 5 9 9 3 9 -6 0 -20 -10 -32 -22z"/><path d="M110 304 c-66 -28 -82 -63 -44 -95 11 -9 11 -6 -1 17 -14 28 -14 29 18 46 49 26 85 23 93 -7 3 -14 3 -33 -2 -42 -4 -10 -7 -21 -6 -25 1 -3 -15 -5 -36 -3 -34 2 -35 2 -7 -5 l30 -7 -33 -2 c-41 -1 -70 14 -82 42 -6 16 -9 18 -9 5 -1 -9 11 -26 25 -37 58 -45 144 -11 144 56 0 20 -3 34 -6 30 -3 -3 -16 5 -28 18 -20 22 -23 22 -56 9z"/><path d="M554 256 c-3 -8 -4 -23 -1 -33 3 -12 5 -9 6 9 1 16 8 28 19 31 16 4 16 5 -1 6 -10 0 -20 -5 -23 -13z"/><path d="M485 239 c-15 -7 -12 -8 13 -3 37 6 42 -7 15 -40 -16 -19 -15 -19 6 1 39 36 15 65 -34 42z"/><path d="M2586 233 c-6 -14 -5 -15 5 -6 7 7 10 15 7 18 -3 3 -9 -2 -12 -12z"/><path d="M893 233 c9 -2 23 -2 30 0 6 3 -1 5 -18 5 -16 0 -22 -2 -12 -5z"/><path d="M1963 233 c9 -2 23 -2 30 0 6 3 -1 5 -18 5 -16 0 -22 -2 -12 -5z"/><path d="M2289 222 c5 -10 18 -25 27 -33 11 -9 9 -2 -6 19 -26 35 -36 42 -21 14z"/><path d="M2388 233 c7 -3 16 -2 19 1 4 3 -2 6 -13 5 -11 0 -14 -3 -6 -6z"/><path d="M438 223 c7 -3 16 -2 19 1 4 3 -2 6 -13 5 -11 0 -14 -3 -6 -6z"/><path d="M828 223 c6 -2 18 -2 25 0 6 3 1 5 -13 5 -14 0 -19 -2 -12 -5z"/><path d="M966 217 c3 -10 9 -15 12 -12 3 3 0 11 -7 18 -10 9 -11 8 -5 -6z"/><path d="M2028 223 c6 -2 18 -2 25 0 6 3 1 5 -13 5 -14 0 -19 -2 -12 -5z"/><path d="M2428 223 c7 -3 16 -2 19 1 4 3 -2 6 -13 5 -11 0 -14 -3 -6 -6z"/><path d="M281 209 c-1 -21 54 -70 98 -88 26 -11 34 -11 44 -1 10 10 7 11 -12 5 -17 -5 -22 -4 -16 5 5 8 3 11 -6 8 -7 -2 -30 12 -51 33 -21 21 -38 32 -39 26 0 -7 -4 -3 -9 8 -7 16 -9 16 -9 4z m44 -39 c10 -11 16 -20 13 -20 -3 0 -13 9 -23 20 -10 11 -16 20 -13 20 3 0 13 -9 23 -20z"/><path d="M353 213 c15 -2 37 -2 50 0 12 2 0 4 -28 4 -27 0 -38 -2 -22 -4z"/><path d="M768 213 c6 -2 18 -2 25 0 6 3 1 5 -13 5 -14 0 -19 -2 -12 -5z"/><path d="M2088 213 c6 -2 18 -2 25 0 6 3 1 5 -13 5 -14 0 -19 -2 -12 -5z"/><path d="M2270 213 c0 -6 9 -21 21 -34 l20 -24 -17 30 c-24 39 -24 40 -24 28z"/><path d="M2460 216 c0 -2 16 -6 35 -8 19 -2 35 0 35 4 0 4 -16 8 -35 8 -19 0 -35 -2 -35 -4z"/><path d="M2766 195 c-11 -8 -15 -15 -9 -15 6 0 16 7 23 15 16 19 11 19 -14 0z"/><path d="M990 196 c0 -2 7 -7 16 -10 8 -3 12 -2 9 4 -6 10 -25 14 -25 6z"/><path d="M2500 174 c-6 -6 -24 -17 -41 -24 -19 -8 -27 -16 -21 -22 11 -11 59 11 85 39 14 17 15 20 2 20 -8 0 -20 -6 -25 -13z m20 2 c0 -2 -8 -10 -17 -17 -16 -13 -17 -12 -4 4 13 16 21 21 21 13z"/><path d="M453 173 c9 -2 23 -2 30 0 6 3 -1 5 -18 5 -16 0 -22 -2 -12 -5z"/><path d="M2353 173 c9 -2 23 -2 30 0 6 3 -1 5 -18 5 -16 0 -22 -2 -12 -5z"/><path d="M420 161 c0 -6 4 -13 10 -16 6 -3 7 1 4 9 -7 18 -14 21 -14 7z"/><path d="M2396 153 c-6 -14 -5 -15 5 -6 7 7 10 15 7 18 -3 3 -9 -2 -12 -12z"/><path d="M2328 148 c5 -5 16 -8 23 -6 8 3 3 7 -10 11 -17 4 -21 3 -13 -5z"/><path d="M2010 140 c-8 -5 -10 -10 -5 -10 6 0 17 5 25 10 8 5 11 10 5 10 -5 0 -17 -5 -25 -10z"/><path d="M1110 115 c13 -14 26 -25 28 -25 3 0 -5 11 -18 25 -13 14 -26 25 -28 25 -3 0 5 -11 18 -25z"/><path d="M2050 130 c-18 -12 -2 -12 25 0 13 6 15 9 5 9 -8 0 -22 -4 -30 -9z"/><path d="M705 120 c27 -12 43 -12 25 0 -8 5 -22 9 -30 9 -10 0 -8 -3 5 -9z"/><path d="M1704 108 l-19 -23 23 19 c12 11 22 21 22 23 0 8 -8 2 -26 -19z"/><path d="M2118 123 c7 -3 16 -2 19 1 4 3 -2 6 -13 5 -11 0 -14 -3 -6 -6z"/><path d="M2405 120 c3 -5 11 -10 16 -10 6 0 7 5 4 10 -3 6 -11 10 -16 10 -6 0 -7 -4 -4 -10z"/><path d="M440 110 c-13 -9 -13 -10 0 -9 8 0 24 4 35 9 l20 9 -20 0 c-11 0 -27 -4 -35 -9z"/><path d="M611 116 c2 -2 24 -6 49 -9 30 -4 38 -3 25 3 -19 8 -83 14 -74 6z"/><path d="M2140 110 c-17 -6 -9 -7 25 -3 28 3 52 7 54 9 8 7 -54 2 -79 -6z"/><path d="M2355 110 c11 -5 27 -9 35 -9 13 -1 13 0 0 9 -8 5 -24 9 -35 9 l-20 0 20 -9z"/><path d="M518 93 c23 -2 61 -2 85 0 23 2 4 4 -43 4 -47 0 -66 -2 -42 -4z"/><path d="M2228 93 c23 -2 61 -2 85 0 23 2 4 4 -43 4 -47 0 -66 -2 -42 -4z"/></g><g transform="translate(0.000000,235.000000) scale(0.100000,-0.100000)" fill="#DFB82C" stroke="none"><path d="M1397 2312 c-26 -29 -25 -148 2 -192 l21 -35 0 123 c0 67 -2 122 -3 122 -2 0 -11 -8 -20 -18z"/><path d="M1497 2313 c-11 -10 -8 -193 3 -193 37 0 55 153 22 183 -10 10 -22 14 -25 10z"/><path d="M1395 1982 c-27 -38 -27 -52 1 -52 21 0 24 4 24 40 0 22 -1 40 -2 40 -2 0 -12 -13 -23 -28z"/><path d="M1494 1967 c1 -25 6 -33 24 -35 28 -4 28 10 -1 42 l-24 26 1 -33z"/><path d="M1452 1872 c-348 -2 -443 -5 -439 -15 3 -9 104 -13 439 -15 398 -2 436 -1 442 14 4 9 5 17 4 18 -2 1 -202 0 -446 -2z"/><path d="M1242 1813 c108 -2 288 -2 400 0 112 1 23 2 -197 2 -220 0 -311 -1 -203 -2z"/><path d="M1381 1753 c-54 -3 -81 -9 -99 -23 l-25 -20 84 1 c93 1 135 10 132 27 -4 16 343 17 350 2 3 -6 4 -5 3 2 -2 10 -46 13 -187 14 -101 0 -217 -1 -258 -3z"/><path d="M1628 1703 c23 -2 61 -2 85 0 23 2 4 4 -43 4 -47 0 -66 -2 -42 -4z"/><path d="M1105 1557 c-26 -28 -353 -339 -369 -350 -25 -19 53 6 121 38 117 55 213 158 258 278 21 55 18 64 -10 34z"/><path d="M956 1543 c-156 -174 -202 -205 -330 -224 -73 -11 -76 -12 -75 -38 2 -23 2 -24 6 -3 2 12 6 22 8 22 10 0 163 21 185 26 20 4 22 2 10 -7 -13 -9 -12 -10 3 -5 10 3 21 6 23 6 3 0 2 4 -1 10 -3 5 0 7 7 5 22 -9 107 54 148 109 35 47 70 107 70 121 0 15 -32 2 -54 -22z"/><path d="M1870 1563 c0 -2 11 -26 25 -54 l26 -49 -24 -23 c-40 -38 -39 -51 8 -97 27 -27 48 -40 56 -35 7 5 10 4 6 -2 -4 -6 1 -17 11 -24 14 -11 15 -11 4 1 -10 11 -6 20 19 46 l30 31 37 -18 c21 -11 57 -19 88 -19 28 0 73 -7 100 -15 85 -26 73 -15 -21 18 -49 18 -112 45 -139 61 -46 27 -125 100 -171 157 -17 21 -55 36 -55 22z"/><path d="M1370 1531 c0 -23 5 -31 18 -31 14 0 14 2 3 9 -8 5 -11 16 -8 25 3 8 2 18 -3 21 -6 4 -10 -7 -10 -24z"/><path d="M1446 1552 c-2 -4 -1 -14 5 -22 7 -12 9 -10 9 8 0 23 -5 28 -14 14z"/><path d="M1495 1511 c-3 -5 -2 -12 3 -15 5 -3 9 1 9 9 0 17 -3 19 -12 6z"/><path d="M1465 1481 c-3 -5 -2 -12 3 -15 5 -3 9 1 9 9 0 17 -3 19 -12 6z"/><path d="M1325 1460 c-4 -6 -10 -8 -15 -5 -5 3 -11 1 -14 -4 -8 -13 22 -7 36 7 7 7 9 12 6 12 -4 0 -10 -5 -13 -10z"/><path d="M718 1303 c7 -3 16 -2 19 1 4 3 -2 6 -13 5 -11 0 -14 -3 -6 -6z"/><path d="M613 1285 c-3 -9 -3 -19 1 -22 3 -4 6 1 6 10 0 11 12 17 43 20 l42 4 -43 1 c-30 1 -44 -2 -49 -13z"/><path d="M2321 1254 c0 -11 3 -14 6 -6 3 7 2 16 -1 19 -3 4 -6 -2 -5 -13z"/><path d="M2192 1165 c0 -16 2 -22 5 -12 2 9 2 23 0 30 -3 6 -5 -1 -5 -18z"/><path d="M663 1137 c-32 -35 -43 -42 -46 -29 -3 10 -5 4 -6 -13 -1 -36 16 -145 24 -154 4 -3 24 13 46 36 21 23 39 37 39 31 0 -6 2 -9 3 -7 2 2 -1 44 -7 93 l-11 88 -42 -45z"/><path d="M1130 635 c0 -12 15 -15 83 -13 l82 2 -80 6 -80 6 80 5 80 5 -82 2 c-68 2 -83 -1 -83 -13z"/><path d="M1448 643 c56 -2 148 -2 205 0 56 1 10 3 -103 3 -113 0 -159 -2 -102 -3z"/><path d="M1448 623 c56 -2 148 -2 205 0 56 1 10 3 -103 3 -113 0 -159 -2 -102 -3z"/><path d="M2046 550 c-23 -22 -46 -37 -50 -33 -4 4 -4 0 -1 -9 4 -11 0 -18 -12 -20 -10 -3 9 -8 43 -12 33 -4 66 -11 74 -16 9 -6 17 -2 25 13 6 12 19 36 30 52 l18 30 -24 -27 c-15 -18 -31 -26 -44 -24 -11 3 -26 5 -33 5 -9 1 -7 12 8 41 11 22 18 40 15 40 -3 0 -25 -18 -49 -40z"/><path d="M107 555 c-8 -8 -18 -11 -22 -7 -5 4 -5 1 -1 -6 7 -11 11 -11 24 1 10 8 24 17 32 20 12 4 12 6 -2 6 -9 1 -23 -6 -31 -14z"/><path d="M2750 555 c14 -7 27 -11 30 -9 6 7 -22 24 -40 23 -9 0 -5 -6 10 -14z"/><path d="M710 525 c13 -22 28 -47 33 -56 8 -13 16 -14 42 -6 32 9 32 10 13 29 -11 11 -26 17 -35 14 -9 -4 -27 7 -46 26 l-31 33 24 -40z"/><path d="M143 523 c-35 -12 3 -63 45 -62 26 0 26 1 5 9 -13 5 -24 14 -24 20 -3 25 -4 29 -9 33 -3 2 -11 2 -17 0z"/><path d="M906 518 c4 -6 -1 -17 -11 -24 -16 -12 -15 -13 12 -11 29 2 30 3 15 25 -14 22 -29 32 -16 10z"/><path d="M2715 517 c-3 -9 -7 -24 -10 -32 -2 -9 -16 -15 -32 -15 -19 0 -24 -3 -15 -9 19 -12 58 -2 78 20 16 18 16 21 1 36 -15 15 -17 15 -22 0z"/><path d="M1163 507 l-122 -9 14 -35 c8 -19 12 -39 9 -44 -3 -5 -1 -9 4 -9 5 0 14 -10 21 -22 11 -23 11 -23 6 -1 -5 19 -2 22 23 21 16 -1 34 2 41 6 7 5 11 -2 11 -18 0 -14 5 -26 10 -26 6 0 10 11 10 24 0 21 4 24 38 23 34 -2 37 -4 40 -34 2 -19 -1 -33 -7 -33 -6 0 -11 6 -11 13 0 8 -4 7 -10 -3 -9 -13 -11 -13 -20 0 -8 12 -10 12 -10 1 0 -9 -9 -12 -30 -9 -16 2 -32 0 -34 -6 -3 -7 -9 -5 -15 4 -8 12 -11 12 -11 1 0 -10 -9 -12 -32 -8 l-33 6 31 -14 c35 -16 51 -44 32 -57 -8 -5 -2 -8 18 -8 16 0 36 -6 43 -12 8 -7 11 -8 8 -2 -8 14 238 27 360 19 114 -8 202 -11 198 -6 -2 2 3 17 11 34 10 17 12 32 6 36 -5 3 -12 13 -15 21 -4 12 -6 11 -6 -2 -1 -17 -21 -27 -21 -10 0 4 -24 7 -52 7 -52 0 -53 0 -53 30 0 23 5 31 23 33 12 2 22 -2 22 -9 0 -8 4 -8 13 -1 15 12 58 5 69 -12 5 -7 8 -7 8 2 0 7 8 12 18 11 33 -3 53 1 48 10 -3 5 1 24 9 43 l14 35 -152 12 c-173 13 -346 12 -524 -2z m247 -89 c0 9 12 11 38 9 29 -3 38 -9 40 -26 4 -26 22 -28 22 -2 0 16 7 19 38 18 21 -1 35 -6 32 -12 -2 -5 -10 -9 -17 -7 -7 2 -13 -2 -13 -8 0 -5 10 -10 22 -10 21 0 21 -1 5 -17 -13 -13 -20 -14 -28 -6 -7 7 -20 8 -33 4 -27 -10 -106 -2 -106 11 0 5 -7 3 -15 -6 -16 -15 -45 -12 -45 5 0 15 -28 10 -34 -7 -9 -24 -26 -6 -26 27 0 27 2 29 40 29 37 0 40 -2 41 -27 1 -21 3 -23 6 -8 10 46 13 51 23 35 7 -11 10 -11 10 -2z"/><path d="M492 494 c-29 -7 -62 -18 -72 -24 -18 -10 -19 -11 -2 -30 9 -12 40 -58 67 -104 47 -76 53 -82 73 -73 12 6 22 15 22 22 0 15 -54 96 -80 120 -38 34 -18 54 55 55 17 0 37 5 45 10 13 9 12 12 -4 25 -24 18 -35 18 -104 -1z"/><path d="M2284 495 c-16 -13 -17 -16 -4 -25 8 -5 29 -10 45 -10 39 0 75 -10 75 -20 0 -5 -16 -27 -36 -51 -19 -23 -44 -59 -54 -80 l-19 -37 29 -11 c21 -7 30 -7 30 1 0 18 111 188 123 188 29 0 -17 24 -79 41 -82 23 -85 23 -110 4z"/><path d="M675 422 c2 -11 19 -57 38 -103 35 -85 62 -111 100 -96 12 4 10 15 -14 64 -16 32 -36 79 -46 106 -15 43 -20 47 -49 47 -27 0 -32 -4 -29 -18z"/><path d="M2105 349 c-21 -50 -45 -97 -52 -105 -12 -11 -10 -14 11 -20 47 -11 61 3 99 96 45 109 46 120 8 120 -26 0 -31 -6 -66 -91z"/><path d="M608 423 c7 -3 16 -2 19 1 4 3 -2 6 -13 5 -11 0 -14 -3 -6 -6z"/><path d="M2258 423 c7 -3 16 -2 19 1 4 3 -2 6 -13 5 -11 0 -14 -3 -6 -6z"/><path d="M168 412 c8 -5 14 -13 13 -18 0 -5 19 -31 42 -58 23 -27 47 -63 53 -80 9 -27 16 -31 54 -34 39 -3 41 -2 27 13 -9 9 -38 52 -64 95 -41 68 -52 80 -75 80 -14 0 -35 3 -45 6 -13 4 -14 3 -5 -4z"/><path d="M558 413 c7 -3 16 -2 19 1 4 3 -2 6 -13 5 -11 0 -14 -3 -6 -6z"/><path d="M2308 413 c7 -3 16 -2 19 1 4 3 -2 6 -13 5 -11 0 -14 -3 -6 -6z"/><path d="M2620 397 c0 -6 -24 -49 -54 -94 -29 -45 -49 -84 -43 -86 27 -9 56 8 76 41 12 21 40 58 62 84 23 26 38 51 34 57 -9 16 -75 14 -75 -2z"/><path d="M1141 384 c0 -11 3 -14 6 -6 3 7 2 16 -1 19 -3 4 -6 -2 -5 -13z"/><path d="M1686 393 c-12 -12 -5 -22 14 -20 11 1 20 4 20 8 0 10 -27 19 -34 12z"/><path d="M1800 369 c0 -5 5 -7 10 -4 6 3 10 8 10 11 0 2 -4 4 -10 4 -5 0 -10 -5 -10 -11z"/><path d="M13 348 c2 -9 18 -12 45 -10 45 4 76 -9 110 -45 14 -15 22 -19 22 -10 0 15 -34 49 -67 66 -31 16 -116 15 -110 -1z"/><path d="M2695 342 c-32 -20 -63 -52 -49 -52 4 0 18 10 32 23 18 17 36 22 80 23 33 0 57 5 60 12 6 20 -89 15 -123 -6z"/><path d="M2634 265 c-3 -8 -4 -20 -2 -27 3 -7 7 -1 10 15 6 29 1 36 -8 12z"/><path d="M47 253 c-14 -13 -6 -42 15 -57 31 -22 81 -20 109 5 l24 21 -25 -16 c-13 -9 -36 -16 -50 -16 -36 0 -73 28 -67 51 5 20 4 23 -6 12z"/><path d="M1760 256 c0 -3 22 -16 48 -29 l49 -24 27 24 27 23 -29 0 c-16 0 -50 3 -76 6 -25 4 -46 4 -46 0z"/><path d="M972 243 c-22 -4 -22 -5 -6 -18 13 -9 26 -10 46 -3 60 21 33 35 -40 21z"/><path d="M1719 237 c8 -10 14 -37 14 -61 l0 -43 44 24 c23 14 45 28 48 33 2 4 -17 15 -43 25 -26 10 -54 23 -62 29 -13 10 -13 9 -1 -7z"/><path d="M2769 220 c-9 -14 -30 -25 -54 -30 l-40 -8 36 -1 c40 -1 85 27 77 49 -2 8 -9 5 -19 -10z"/><path d="M1043 214 c-18 -8 -33 -16 -33 -19 0 -5 72 -55 80 -55 9 0 3 71 -6 79 -5 5 -24 2 -41 -5z"/><path d="M1690 211 c0 -5 -9 -13 -20 -16 -11 -4 -18 -11 -14 -16 3 -6 3 -17 0 -26 -5 -12 -9 -13 -21 -3 -12 10 -25 8 -65 -6 -27 -10 -50 -21 -50 -24 0 -14 52 -30 94 -30 57 0 96 34 96 84 0 19 -4 38 -10 41 -5 3 -10 2 -10 -4z"/><path d="M2640 216 c0 -2 8 -10 18 -17 15 -13 16 -12 3 4 -13 16 -21 21 -21 13z"/><path d="M1539 188 c11 -15 41 -15 41 -1 0 3 -6 3 -14 0 -7 -3 -20 0 -27 6 -11 10 -11 9 0 -5z"/><path d="M1114 163 c11 -46 50 -73 104 -73 42 0 84 13 72 22 -15 12 -88 39 -96 36 -5 -2 -19 7 -31 20 -33 32 -57 30 -49 -5z"/><path d="M1494 167 l-19 -22 21 18 c17 14 23 15 27 5 4 -9 6 -9 6 -1 2 22 -16 23 -35 0z"/><path d="M1430 94 c-33 -10 -53 -11 -76 -4 -24 8 -37 7 -60 -5 -16 -8 -38 -15 -48 -15 -30 0 -16 -8 70 -39 l80 -29 99 33 c55 18 91 34 80 34 -11 1 -33 10 -50 21 -34 23 -35 23 -95 4z"/></g><g transform="translate(0.000000,235.000000) scale(0.100000,-0.100000)" fill="#F8F285" stroke="none"><path d="M1430 2335 c-8 -10 -11 -57 -10 -152 1 -76 1 -164 1 -195 l-1 -58 -189 0 c-159 0 -192 -3 -205 -16 -9 -8 -16 -22 -16 -30 0 -12 65 -14 439 -14 300 0 442 3 446 11 4 5 -1 19 -10 29 -16 18 -35 20 -204 22 l-186 3 -4 40 c-5 54 -5 89 0 232 4 119 3 122 -19 133 -29 13 -27 13 -42 -5z"/><path d="M1448 1812 l-397 -2 -11 -43 c-8 -34 -45 -131 -77 -205 -5 -12 -2 -12 15 -1 34 21 36 4 5 -52 -62 -116 -187 -204 -307 -216 -44 -5 -55 -9 -60 -27 -7 -27 -7 -125 0 -153 5 -20 8 -18 42 19 21 23 51 47 67 54 17 7 25 13 19 14 -10 0 65 77 161 165 12 11 67 64 122 118 59 56 103 92 106 85 2 -7 10 20 17 60 l13 72 216 2 c214 2 215 3 47 5 l-168 3 26 21 c25 20 40 21 282 22 l256 2 18 -70 c25 -96 38 -127 51 -120 6 4 17 -1 24 -11 12 -16 12 -11 0 31 -9 28 -25 88 -37 135 -11 47 -24 87 -27 90 -3 3 -185 4 -403 2z"/><path d="M1080 1450 c-6 -11 -8 -20 -6 -20 3 0 10 9 16 20 6 11 8 20 6 20 -3 0 -10 -9 -16 -20z"/><path d="M1258 1423 c6 -2 18 -2 25 0 6 3 1 5 -13 5 -14 0 -19 -2 -12 -5z"/><path d="M1000 1345 c-24 -25 -42 -45 -39 -45 3 0 25 20 49 45 24 25 42 45 39 45 -3 0 -25 -20 -49 -45z"/><path d="M1895 1340 c10 -11 20 -20 23 -20 3 0 -3 9 -13 20 -10 11 -20 20 -23 20 -3 0 3 -9 13 -20z"/><path d="M1258 1343 c6 -2 18 -2 25 0 6 3 1 5 -13 5 -14 0 -19 -2 -12 -5z"/><path d="M860 1245 c-14 -8 -20 -14 -14 -15 5 0 19 7 30 15 24 18 16 19 -16 0z"/><path d="M712 1120 c0 -19 2 -27 5 -17 2 9 2 25 0 35 -3 9 -5 1 -5 -18z"/><path d="M2181 1074 c0 -11 3 -14 6 -6 3 7 2 16 -1 19 -3 4 -6 -2 -5 -13z"/><path d="M721 1034 c0 -11 3 -14 6 -6 3 7 2 16 -1 19 -3 4 -6 -2 -5 -13z"/><path d="M78 539 c-20 -11 -23 -50 -8 -80 6 -10 34 -36 63 -57 72 -53 86 -60 58 -29 -14 15 -20 27 -15 27 5 0 -10 11 -32 25 -49 29 -71 72 -54 104 12 24 12 24 -12 10z"/><path d="M2784 535 c3 -8 9 -22 12 -30 7 -18 -68 -95 -92 -95 -8 0 -12 -5 -9 -11 4 -5 -1 -20 -12 -31 -22 -26 -7 -18 63 33 60 44 83 87 66 124 -12 26 -38 36 -28 10z"/><path d="M1218 513 c12 -2 32 -2 45 0 12 2 2 4 -23 4 -25 0 -35 -2 -22 -4z"/><path d="M1618 513 c12 -2 32 -2 45 0 12 2 2 4 -23 4 -25 0 -35 -2 -22 -4z"/><path d="M1103 503 c9 -2 25 -2 35 0 9 3 1 5 -18 5 -19 0 -27 -2 -17 -5z"/><path d="M1743 503 c9 -2 25 -2 35 0 9 3 1 5 -18 5 -19 0 -27 -2 -17 -5z"/><path d="M1018 493 c7 -3 16 -2 19 1 4 3 -2 6 -13 5 -11 0 -14 -3 -6 -6z"/><path d="M1848 493 c7 -3 16 -2 19 1 4 3 -2 6 -13 5 -11 0 -14 -3 -6 -6z"/><path d="M1928 483 c7 -3 16 -2 19 1 4 3 -2 6 -13 5 -11 0 -14 -3 -6 -6z"/><path d="M595 418 c-22 -5 -54 -8 -71 -6 l-31 4 38 -48 c20 -26 45 -70 54 -98 20 -61 46 -75 119 -65 61 8 71 13 53 28 -17 15 -88 183 -80 191 9 9 -36 6 -82 -6z"/><path d="M2166 330 c-21 -55 -43 -100 -48 -100 -5 0 -7 -4 -3 -9 9 -15 107 -24 137 -12 17 6 30 20 34 38 10 42 41 98 73 135 l29 33 -47 0 c-25 0 -66 4 -91 8 l-45 8 -39 -101z"/><path d="M1393 273 c26 -2 68 -2 95 0 26 2 4 3 -48 3 -52 0 -74 -1 -47 -3z"/><path d="M1193 263 c9 -2 23 -2 30 0 6 3 -1 5 -18 5 -16 0 -22 -2 -12 -5z"/><path d="M1540 180 c-9 -6 -10 -10 -3 -10 6 0 15 5 18 10 8 12 4 12 -15 0z"/></g><g transform="translate(0.000000,235.000000) scale(0.100000,-0.100000)" fill="#EBDFA5" stroke="none"><path d="M1461 2346 c2 -2 15 -9 29 -15 24 -11 24 -11 6 3 -16 13 -49 24 -35 12z"/><path d="M1379 2313 c-13 -16 -12 -17 4 -4 9 7 17 15 17 17 0 8 -8 3 -21 -13z"/><path d="M1406 2087 c3 -10 9 -15 12 -12 3 3 0 11 -7 18 -10 9 -11 8 -5 -6z"/><path d="M1484 2075 c-3 -8 -4 -20 -2 -27 3 -7 7 -1 10 15 6 29 1 36 -8 12z"/><path d="M1515 1980 c10 -11 20 -20 23 -20 3 0 -3 9 -13 20 -10 11 -20 20 -23 20 -3 0 3 -9 13 -20z"/><path d="M1112 1933 c37 -2 100 -2 140 0 40 1 10 3 -67 3 -77 0 -110 -1 -73 -3z"/><path d="M1652 1933 c37 -2 100 -2 140 0 40 1 10 3 -67 3 -77 0 -110 -1 -73 -3z"/><path d="M1007 1910 c-9 -11 -13 -20 -9 -20 4 0 15 9 25 20 9 11 13 20 9 20 -4 0 -15 -9 -25 -20z"/><path d="M1881 1915 c9 -11 19 -27 22 -35 5 -13 6 -13 6 1 1 9 -9 24 -21 35 -23 19 -23 19 -7 -1z"/><path d="M1861 1799 c0 -13 4 -33 9 -44 7 -14 8 -8 3 20 -7 46 -13 59 -12 24z"/><path d="M1034 1795 c-3 -8 -4 -20 -2 -27 3 -7 7 -1 10 15 6 29 1 36 -8 12z"/><path d="M1017 1720 c-4 -14 -6 -25 -5 -25 0 0 -9 -20 -21 -43 -12 -24 -20 -46 -18 -48 7 -7 59 116 54 129 -2 6 -6 0 -10 -13z"/><path d="M1891 1674 c0 -11 3 -14 6 -6 3 7 2 16 -1 19 -3 4 -6 -2 -5 -13z"/><path d="M1904 1625 c4 -16 12 -34 17 -40 5 -5 4 6 -2 25 -15 45 -24 54 -15 15z"/><path d="M1930 1564 c0 -11 38 -74 45 -74 2 0 -5 17 -17 38 -27 46 -28 48 -28 36z"/><path d="M835 1427 c-46 -46 -47 -48 -10 -20 44 34 83 74 69 71 -5 -1 -31 -24 -59 -51z"/><path d="M2150 1360 c8 -5 20 -10 25 -10 6 0 3 5 -5 10 -8 5 -19 10 -25 10 -5 0 -3 -5 5 -10z"/><path d="M668 1333 c7 -3 16 -2 19 1 4 3 -2 6 -13 5 -11 0 -14 -3 -6 -6z"/><path d="M544 1316 c-3 -8 -4 -25 -1 -38 3 -18 5 -16 6 9 1 31 3 32 49 36 l47 3 -48 2 c-33 1 -49 -2 -53 -12z"/><path d="M2333 1255 c0 -22 2 -30 4 -17 2 12 2 30 0 40 -3 9 -5 -1 -4 -23z"/><path d="M2333 1055 c0 -22 2 -30 4 -17 2 12 2 30 0 40 -3 9 -5 -1 -4 -23z"/><path d="M543 1045 c0 -22 2 -30 4 -17 2 12 2 30 0 40 -3 9 -5 -1 -4 -23z"/><path d="M548 955 c-3 -14 -1 -25 3 -25 5 0 9 11 9 25 0 14 -2 25 -4 25 -2 0 -6 -11 -8 -25z"/><path d="M2322 960 c0 -14 2 -19 5 -12 2 6 2 18 0 25 -3 6 -5 1 -5 -13z"/><path d="M2311 904 c0 -11 3 -14 6 -6 3 7 2 16 -1 19 -3 4 -6 -2 -5 -13z"/><path d="M561 894 c0 -11 3 -14 6 -6 3 7 2 16 -1 19 -3 4 -6 -2 -5 -13z"/><path d="M2301 864 c0 -11 3 -14 6 -6 3 7 2 16 -1 19 -3 4 -6 -2 -5 -13z"/><path d="M2291 824 c0 -11 3 -14 6 -6 3 7 2 16 -1 19 -3 4 -6 -2 -5 -13z"/><path d="M595 740 c-3 -5 -1 -10 4 -10 6 0 11 5 11 10 0 6 -2 10 -4 10 -3 0 -8 -4 -11 -10z"/><path d="M605 710 c3 -5 8 -10 11 -10 2 0 4 5 4 10 0 6 -5 10 -11 10 -5 0 -7 -4 -4 -10z"/><path d="M67 546 c-13 -10 -17 -25 -16 -54 2 -23 6 -39 9 -37 4 2 5 18 2 35 -3 20 2 37 13 50 21 23 18 25 -8 6z"/><path d="M2170 540 c-6 -11 -8 -20 -6 -20 3 0 10 9 16 20 6 11 8 20 6 20 -3 0 -10 -9 -16 -20z"/><path d="M2801 543 c7 -12 15 -20 18 -17 3 2 -3 12 -13 22 -17 16 -18 16 -5 -5z"/><path d="M99 533 c-13 -17 -13 -17 6 -3 11 8 22 16 24 17 2 2 0 3 -6 3 -6 0 -17 -8 -24 -17z"/><path d="M132 528 c-6 -6 -12 -19 -11 -27 0 -10 4 -7 9 7 10 23 34 30 43 12 3 -6 4 -5 3 2 -4 18 -29 21 -44 6z"/><path d="M2705 525 c-3 -8 -7 -22 -10 -31 -3 -8 0 -12 5 -9 6 3 10 15 10 26 0 26 29 24 40 -3 5 -14 9 -17 9 -7 2 33 -45 54 -54 24z"/><path d="M548 513 c6 -2 18 -2 25 0 6 3 1 5 -13 5 -14 0 -19 -2 -12 -5z"/><path d="M2308 513 c6 -2 18 -2 25 0 6 3 1 5 -13 5 -14 0 -19 -2 -12 -5z"/><path d="M2784 494 c-4 -10 -16 -30 -28 -44 l-21 -25 23 20 c27 23 46 54 38 62 -3 3 -9 -3 -12 -13z"/><path d="M2595 480 c11 -14 20 -26 20 -26 0 -1 11 -5 25 -8 23 -6 23 -6 5 5 -11 6 -31 21 -45 33 l-25 21 20 -25z"/><path d="M269 473 c-13 -16 -12 -17 4 -4 9 7 17 15 17 17 0 8 -8 3 -21 -13z"/><path d="M96 467 c4 -10 16 -22 28 -29 18 -9 19 -8 6 3 -8 8 -20 21 -27 29 -11 13 -12 13 -7 -3z"/><path d="M2792 442 l-23 -37 26 28 c14 15 25 32 25 38 0 14 -3 11 -28 -29z"/><path d="M70 442 c0 -5 18 -21 40 -36 51 -34 51 -28 0 13 -22 17 -40 28 -40 23z"/><path d="M158 423 c7 -3 16 -2 19 1 4 3 -2 6 -13 5 -11 0 -14 -3 -6 -6z"/><path d="M2708 423 c7 -3 16 -2 19 1 4 3 -2 6 -13 5 -11 0 -14 -3 -6 -6z"/><path d="M2713 378 c-18 -13 -33 -27 -33 -32 0 -5 8 -2 18 7 10 10 23 14 28 10 5 -5 6 -4 2 1 -4 5 0 15 10 22 29 22 9 15 -25 -8z"/><path d="M170 366 c0 -2 8 -10 18 -17 15 -13 16 -12 3 4 -13 16 -21 21 -21 13z"/><path d="M2649 323 c-13 -16 -12 -17 4 -4 9 7 17 15 17 17 0 8 -8 3 -21 -13z"/><path d="M2605 269 c-4 -5 -4 -13 -1 -16 3 -4 6 0 6 8 0 11 2 11 10 -1 6 -9 10 -10 10 -3 0 17 -17 25 -25 12z"/><path d="M201 244 c0 -11 3 -14 6 -6 3 7 2 16 -1 19 -3 4 -6 -2 -5 -13z"/><path d="M593 221 c1 -16 8 -21 27 -20 15 0 19 3 10 6 -8 3 -20 12 -27 20 -10 13 -12 12 -10 -6z"/><path d="M931 237 c2 -1 13 -9 24 -17 19 -14 19 -14 6 3 -7 9 -18 17 -24 17 -6 0 -8 -1 -6 -3z"/><path d="M2000 226 c0 -2 7 -7 16 -10 8 -3 12 -2 9 4 -6 10 -25 14 -25 6z"/><path d="M308 213 c7 -3 16 -2 19 1 4 3 -2 6 -13 5 -11 0 -14 -3 -6 -6z"/><path d="M2558 213 c7 -3 16 -2 19 1 4 3 -2 6 -13 5 -11 0 -14 -3 -6 -6z"/><path d="M714 201 c7 -10 31 -9 42 2 4 4 -5 7 -20 7 -15 0 -25 -4 -22 -9z"/><path d="M2133 199 c14 -8 22 -8 30 0 8 8 3 11 -18 11 -26 -1 -28 -2 -12 -11z"/><path d="M2248 203 c7 -3 16 -2 19 1 4 3 -2 6 -13 5 -11 0 -14 -3 -6 -6z"/><path d="M668 193 c7 -3 16 -2 19 1 4 3 -2 6 -13 5 -11 0 -14 -3 -6 -6z"/><path d="M2198 193 c7 -3 16 -2 19 1 4 3 -2 6 -13 5 -11 0 -14 -3 -6 -6z"/><path d="M1037 162 c12 -11 19 -23 15 -27 -4 -5 -1 -5 6 -1 17 10 16 11 -15 30 l-28 17 22 -19z"/><path d="M1764 144 c-18 -15 -18 -15 2 -5 12 6 25 7 29 3 5 -4 5 -1 1 6 -9 15 -8 15 -32 -4z"/><path d="M435 130 c-3 -6 1 -7 9 -4 18 7 21 14 7 14 -6 0 -13 -4 -16 -10z"/><path d="M2360 136 c0 -2 9 -6 20 -9 11 -3 18 -1 14 4 -5 9 -34 13 -34 5z"/><path d="M2058 113 c7 -3 16 -2 19 1 4 3 -2 6 -13 5 -11 0 -14 -3 -6 -6z"/><path d="M548 83 c7 -3 16 -2 19 1 4 3 -2 6 -13 5 -11 0 -14 -3 -6 -6z"/><path d="M1250 39 c0 -5 9 -9 20 -9 11 0 20 2 20 4 0 2 -9 6 -20 9 -11 3 -20 1 -20 -4z"/><path d="M1330 10 c8 -5 22 -9 30 -9 10 0 8 3 -5 9 -27 12 -43 12 -25 0z"/><path d="M1450 16 c0 -2 7 -7 16 -10 8 -3 12 -2 9 4 -6 10 -25 14 -25 6z"/></g><g transform="translate(0.000000,235.000000) scale(0.100000,-0.100000)" fill="#BFB2D2" stroke="none"><path d="M1190 1661 c0 -5 9 -7 20 -4 17 5 18 2 10 -26 -5 -19 -5 -31 1 -31 5 0 9 9 9 19 0 11 3 26 6 35 5 12 0 16 -20 16 -14 0 -26 -4 -26 -9z"/><path d="M1267 1663 c-9 -9 -9 -63 1 -63 4 0 7 16 7 35 0 19 0 35 -1 35 0 0 -4 -3 -7 -7z"/><path d="M1305 1635 c0 -18 3 -31 8 -28 4 2 7 15 7 28 0 13 -3 26 -7 28 -5 3 -8 -10 -8 -28z"/><path d="M1356 1662 c-3 -5 1 -9 9 -9 8 0 12 4 9 9 -3 4 -7 8 -9 8 -2 0 -6 -4 -9 -8z"/><path d="M1441 1656 c-10 -12 -9 -14 5 -12 10 2 20 8 22 14 5 17 -13 15 -27 -2z"/><path d="M1490 1641 c0 -34 13 -47 27 -28 14 17 23 58 12 51 -5 -3 -9 -14 -9 -24 0 -10 -5 -22 -11 -26 -8 -5 -10 3 -7 25 2 17 1 31 -4 31 -4 0 -8 -13 -8 -29z"/><path d="M1570 1666 c0 -2 11 -6 25 -8 13 -3 22 -1 19 3 -5 9 -44 13 -44 5z"/><path d="M1340 1631 c0 -10 19 -25 25 -20 1 2 -3 10 -11 17 -8 7 -14 8 -14 3z"/><path d="M1441 1614 c14 -17 32 -19 27 -2 -2 6 -12 12 -22 14 -14 2 -15 0 -5 -12z"/><path d="M1576 1615 c-3 -8 -1 -15 4 -15 6 0 10 7 10 15 0 8 -2 15 -4 15 -2 0 -6 -7 -10 -15z"/><path d="M1605 1610 c-3 -5 -1 -10 4 -10 6 0 11 5 11 10 0 6 -2 10 -4 10 -3 0 -8 -4 -11 -10z"/><path d="M1661 1611 c-11 -7 -11 -9 0 -14 8 -3 4 -6 -8 -6 -25 -1 -32 -32 -10 -48 31 -24 82 -4 75 28 -2 11 -36 50 -42 49 -1 0 -7 -4 -15 -9z m37 -43 c10 -12 10 -18 1 -24 -8 -5 -9 -3 -4 6 6 10 4 12 -7 7 -12 -4 -14 -1 -11 14 3 11 6 18 7 17 1 -2 7 -10 14 -20z"/><path d="M1190 1379 c1 -136 5 -207 11 -203 6 3 8 9 5 12 -4 3 4 17 16 31 13 14 15 19 6 12 -17 -13 -18 -3 -18 168 l0 181 196 0 c145 0 193 -3 188 -12 -4 -7 -3 -8 4 -4 36 22 -1 27 -198 26 l-211 -1 1 -210z"/><path d="M1509 1493 c-13 -16 -12 -17 4 -4 9 7 17 15 17 17 0 8 -8 3 -21 -13z"/><path d="M1436 1182 c-2 -4 7 -17 20 -29 13 -12 24 -18 24 -13 0 5 -9 15 -21 23 -15 11 -17 16 -7 20 9 4 9 6 1 6 -6 1 -14 -2 -17 -7z"/><path d="M1509 1183 c-3 -20 4 -59 11 -67 5 -5 5 8 0 27 -4 20 -5 38 -2 41 3 4 2 6 -1 6 -4 0 -7 -3 -8 -7z"/><path d="M1533 1175 c0 -8 4 -12 9 -9 5 3 6 10 3 15 -9 13 -12 11 -12 -6z"/><path d="M1360 1155 c0 -14 0 -28 -1 -32 0 -4 4 -8 11 -9 6 -2 7 0 2 2 -5 2 -6 18 -4 34 2 17 2 30 -2 30 -3 0 -6 -11 -6 -25z"/><path d="M1380 1163 c0 -10 5 -25 10 -33 7 -11 10 -7 10 18 0 17 -4 32 -10 32 -5 0 -10 -8 -10 -17z"/><path d="M1592 1155 c-12 -12 -22 -27 -22 -31 0 -5 4 -3 9 5 5 7 14 10 21 6 9 -6 9 -9 -1 -16 -10 -6 -10 -9 -2 -9 17 0 25 17 13 25 -8 5 -7 11 1 21 20 25 5 24 -19 -1z"/><path d="M1219 1142 c-3 -20 -2 -29 4 -23 5 5 7 19 5 32 -3 20 -5 19 -9 -9z"/><path d="M1280 1160 c0 -5 5 -10 11 -10 5 0 7 5 4 10 -3 6 -8 10 -11 10 -2 0 -4 -4 -4 -10z"/><path d="M1276 1124 c-5 -14 -4 -15 9 -4 17 14 19 20 6 20 -5 0 -12 -7 -15 -16z"/><path d="M1183 1083 c9 -2 25 -2 35 0 9 3 1 5 -18 5 -19 0 -27 -2 -17 -5z"/><path d="M1751 998 l-1 -28 -232 -3 -233 -2 233 -3 c247 -2 251 -1 239 45 -3 12 -5 9 -6 -9z"/><path d="M1138 963 c6 -2 18 -2 25 0 6 3 1 5 -13 5 -14 0 -19 -2 -12 -5z"/><path d="M1238 963 c6 -2 18 -2 25 0 6 3 1 5 -13 5 -14 0 -19 -2 -12 -5z"/><path d="M1408 933 c12 -2 32 -2 45 0 12 2 2 4 -23 4 -25 0 -35 -2 -22 -4z"/><path d="M1650 936 c0 -2 15 -6 34 -8 19 -2 32 0 30 4 -5 8 -64 12 -64 4z"/><path d="M1515 900 c10 -11 20 -20 23 -20 3 0 -3 9 -13 20 -10 11 -20 20 -23 20 -3 0 3 -9 13 -20z"/><path d="M1686 876 c4 -10 17 -16 38 -15 27 2 28 2 6 6 -14 3 -31 10 -38 15 -9 8 -11 7 -6 -6z"/><path d="M1386 872 c-2 -4 11 -6 30 -4 19 2 34 6 34 8 0 8 -59 4 -64 -4z"/><path d="M1592 860 c0 -14 2 -19 5 -12 2 6 2 18 0 25 -3 6 -5 1 -5 -13z"/><path d="M1352 805 c0 -16 2 -22 5 -12 2 9 2 23 0 30 -3 6 -5 -1 -5 -18z"/><path d="M1492 805 c0 -16 2 -22 5 -12 2 9 2 23 0 30 -3 6 -5 -1 -5 -18z"/><path d="M1600 826 c0 -2 8 -10 18 -17 15 -13 16 -12 3 4 -13 16 -21 21 -21 13z"/><path d="M1752 755 c0 -16 2 -22 5 -12 2 9 2 23 0 30 -3 6 -5 -1 -5 -18z"/><path d="M1360 766 c0 -2 8 -10 18 -17 15 -13 16 -12 3 4 -13 16 -21 21 -21 13z"/><path d="M1466 755 c-11 -8 -15 -15 -9 -15 6 0 16 7 23 15 16 19 11 19 -14 0z"/><path d="M1580 753 c0 -12 3 -14 8 -7 4 7 18 14 32 17 21 4 20 4 -7 6 -25 1 -33 -3 -33 -16z"/><path d="M1418 733 c7 -3 16 -2 19 1 4 3 -2 6 -13 5 -11 0 -14 -3 -6 -6z"/><path d="M1519 713 c-13 -16 -12 -17 4 -4 16 13 21 21 13 21 -2 0 -10 -8 -17 -17z"/><path d="M1721 700 c-13 -11 -19 -20 -14 -20 6 0 18 9 28 20 23 25 17 25 -14 0z"/><path d="M1188 673 c6 -2 18 -2 25 0 6 3 1 5 -13 5 -14 0 -19 -2 -12 -5z"/><path d="M1418 673 c6 -2 18 -2 25 0 6 3 1 5 -13 5 -14 0 -19 -2 -12 -5z"/><path d="M1658 673 c6 -2 18 -2 25 0 6 3 1 5 -13 5 -14 0 -19 -2 -12 -5z"/></g><g transform="translate(0.000000,235.000000) scale(0.100000,-0.100000)" fill="#1313D8" stroke="none"><path d="M1208 1635 c2 -14 6 -25 7 -25 1 0 5 11 7 25 3 16 1 25 -7 25 -8 0 -10 -9 -7 -25z"/><path d="M1270 1635 c0 -23 3 -27 10 -15 9 13 11 13 20 0 7 -12 10 -8 10 15 0 23 -3 27 -10 15 -9 -13 -11 -13 -20 0 -7 12 -10 8 -10 -15z"/><path d="M1350 1636 c-12 -33 -13 -46 -1 -27 8 13 12 13 27 0 15 -13 16 -12 9 11 -12 40 -23 46 -35 16z"/><path d="M1422 1635 c0 -16 2 -24 5 -17 3 8 9 10 16 3 9 -6 12 -2 12 14 0 16 -3 20 -12 14 -7 -7 -13 -5 -16 3 -3 7 -5 0 -5 -17z"/><path d="M1503 1635 c1 -19 7 -30 17 -30 10 0 16 11 17 30 1 17 0 23 -3 15 -16 -44 -17 -44 -25 -15 l-8 30 2 -30z"/><path d="M1570 1633 c0 -20 3 -24 9 -14 7 11 10 11 16 0 6 -9 10 -8 15 7 9 24 4 34 -21 34 -14 0 -19 -7 -19 -27z"/><path d="M1648 1593 c7 -3 16 -2 19 1 4 3 -2 6 -13 5 -11 0 -14 -3 -6 -6z"/><path d="M1610 1584 c-3 -5 -96 -95 -208 -200 l-203 -189 207 -3 c114 -1 209 -1 211 1 2 2 2 94 1 203 -2 109 -5 194 -8 188z"/><path d="M1681 1574 c0 -11 3 -14 6 -6 3 7 2 16 -1 19 -3 4 -6 -2 -5 -13z"/><path d="M1209 1148 c5 -30 6 -31 9 -8 2 14 9 28 16 32 7 5 3 8 -10 8 -18 0 -20 -5 -15 -32z"/><path d="M1270 1148 c0 -26 3 -30 11 -18 8 11 12 12 16 3 9 -22 19 -14 18 15 -1 20 -7 28 -23 30 -19 3 -22 -1 -22 -30z m30 12 c0 -5 -4 -10 -10 -10 -5 0 -10 5 -10 10 0 6 5 10 10 10 6 0 10 -4 10 -10z"/><path d="M1354 1150 c1 -24 36 -44 36 -21 0 6 -6 8 -14 5 -10 -4 -16 3 -19 18 -4 22 -4 21 -3 -2z"/><path d="M1435 1169 c-4 -6 1 -17 11 -25 17 -14 17 -15 2 -10 -10 3 -18 1 -18 -4 0 -6 9 -10 19 -10 15 0 19 7 19 30 -1 30 -20 41 -33 19z"/><path d="M1518 1150 c2 -16 5 -30 7 -30 2 0 5 14 7 30 3 19 0 30 -7 30 -7 0 -10 -11 -7 -30z"/><path d="M1580 1169 c0 -7 8 -18 18 -26 16 -14 16 -14 0 -9 -10 3 -18 1 -18 -4 0 -14 27 -12 36 1 4 7 -1 16 -11 21 -14 8 -15 12 -4 19 11 7 10 9 -3 9 -10 0 -18 -5 -18 -11z"/><path d="M1170 1051 c0 -20 -6 -30 -20 -34 -12 -3 -20 -14 -20 -26 0 -14 6 -21 20 -21 19 0 20 -7 20 -145 l0 -145 30 0 30 0 0 145 c0 138 1 145 20 145 14 0 20 7 20 21 0 12 -8 23 -20 26 -14 4 -20 14 -20 34 0 26 -4 29 -30 29 -26 0 -30 -3 -30 -29z"/><path d="M1297 1013 c-4 -3 -7 -15 -7 -25 0 -17 14 -18 230 -18 l230 0 0 25 0 25 -223 0 c-123 0 -227 -3 -230 -7z"/><path d="M1290 740 l0 -190 30 0 30 0 0 75 0 75 26 -10 c112 -43 222 67 169 170 -24 46 -62 70 -112 70 -24 0 -53 -5 -64 -10 -13 -7 -19 -7 -19 0 0 5 -13 10 -30 10 l-30 0 0 -190z m185 115 c49 -48 19 -119 -50 -119 -67 0 -96 64 -54 118 27 34 71 35 104 1z"/><path d="M1620 910 c-11 -11 -20 -33 -20 -48 0 -31 17 -51 68 -76 34 -18 41 -36 18 -55 -12 -10 -19 -8 -35 8 -25 25 -61 28 -61 6 0 -27 47 -65 78 -65 42 0 82 35 82 71 0 44 -14 63 -59 84 -23 10 -41 24 -41 32 0 19 29 28 43 14 14 -14 57 -15 57 -1 0 23 -41 50 -75 50 -22 0 -43 -8 -55 -20z"/><path d="M1300 390 l0 -31 21 20 c22 20 19 41 -7 41 -9 0 -14 -11 -14 -30z m30 10 c0 -5 -4 -10 -10 -10 -5 0 -10 5 -10 10 0 6 5 10 10 10 6 0 10 -4 10 -10z"/><path d="M1354 390 c1 -18 7 -25 21 -25 14 0 20 7 21 25 1 22 0 22 -3 3 -2 -13 -10 -23 -18 -23 -8 0 -16 10 -18 23 -3 19 -4 19 -3 -3z"/><path d="M1417 413 c-12 -12 -7 -44 8 -49 22 -9 33 3 27 31 -4 24 -21 33 -35 18z m28 -33 c3 -5 1 -10 -4 -10 -6 0 -11 5 -11 10 0 6 2 10 4 10 3 0 8 -4 11 -10z"/><path d="M1471 393 c-1 -25 3 -33 17 -33 11 0 13 3 6 8 -7 4 -14 18 -17 32 -4 21 -4 20 -6 -7z"/><path d="M1547 413 c-4 -3 -7 -17 -7 -30 0 -16 6 -23 20 -23 11 0 20 4 20 10 0 5 -7 7 -15 4 -11 -4 -15 0 -15 16 0 16 4 20 16 16 8 -3 12 -2 9 4 -7 12 -19 13 -28 3z"/><path d="M1625 410 c-6 -10 16 -50 27 -50 14 0 8 20 -7 26 -8 4 -15 10 -15 15 0 4 7 6 15 3 8 -4 15 -4 15 -1 0 10 -30 16 -35 7z"/><path d="M1130 399 c0 -6 -7 -9 -15 -5 -11 4 -15 -1 -15 -19 0 -14 5 -25 11 -25 5 0 7 5 4 10 -3 6 -1 10 4 10 6 0 11 -4 11 -10 0 -5 5 -10 11 -10 8 0 8 4 0 14 -6 7 -9 21 -5 30 3 9 3 16 0 16 -3 0 -6 -5 -6 -11z"/><path d="M1164 380 c1 -18 7 -25 21 -25 15 0 20 7 22 30 2 27 1 28 -5 6 -10 -33 -30 -38 -35 -9 -4 21 -4 21 -3 -2z"/><path d="M1220 385 c0 -24 2 -27 11 -15 8 11 12 12 16 3 9 -23 20 -13 15 13 -3 19 -7 22 -13 12 -7 -11 -11 -10 -19 2 -7 12 -10 8 -10 -15z"/><path d="M1512 390 c0 -14 2 -19 5 -12 2 6 2 18 0 25 -3 6 -5 1 -5 -13z"/><path d="M1677 403 c-11 -10 -8 -41 4 -49 6 -3 16 -1 22 5 9 9 8 11 -5 6 -14 -6 -18 -2 -18 15 0 16 4 20 15 16 8 -3 15 -1 15 4 0 11 -23 13 -33 3z"/><path d="M1726 384 c-4 -14 -5 -29 -2 -31 3 -3 8 7 12 21 3 15 4 29 1 32 -2 3 -8 -7 -11 -22z"/><path d="M1056 388 c-3 -10 -8 -25 -11 -34 -3 -8 0 -12 5 -9 6 3 10 14 10 23 0 13 2 13 15 -4 8 -10 15 -14 15 -8 0 5 -6 19 -14 30 -14 18 -15 18 -20 2z"/><path d="M1757 387 c-3 -8 -1 -20 4 -28 6 -10 9 -7 9 14 0 29 -5 35 -13 14z"/><path d="M1783 384 c-3 -8 2 -23 11 -32 15 -15 17 -15 32 0 21 21 11 48 -16 48 -11 0 -23 -7 -27 -16z m41 -2 c2 -4 1 -14 -4 -22 -7 -11 -12 -12 -21 -3 -6 6 -8 16 -5 22 8 13 23 14 30 3z"/><path d="M1863 393 c-17 -6 -16 -50 1 -56 17 -7 36 11 36 34 0 18 -18 29 -37 22z m23 -39 c-5 -13 -10 -14 -18 -6 -6 6 -8 18 -4 28 5 13 10 14 18 6 6 -6 8 -18 4 -28z"/><path d="M938 378 c5 -7 12 -22 14 -33 3 -14 6 -11 9 13 5 27 2 32 -14 32 -14 0 -17 -3 -9 -12z"/><path d="M981 379 c0 -8 4 -23 9 -34 7 -17 9 -17 9 -2 1 20 17 23 24 5 3 -7 6 1 6 17 1 22 -2 26 -8 16 -8 -12 -12 -12 -25 -2 -13 11 -16 11 -15 0z"/><path d="M1910 360 c0 -22 5 -30 18 -30 13 0 14 2 3 9 -8 5 -11 16 -6 30 4 12 2 21 -4 21 -6 0 -11 -13 -11 -30z"/></g><g transform="translate(0.000000,235.000000) scale(0.100000,-0.100000)" fill="#FFFFFF" stroke="none"><path d="M1148 1621 c-42 -202 -160 -339 -353 -410 -41 -15 -76 -29 -79 -31 -9 -9 15 -176 39 -276 31 -129 74 -239 133 -338 l47 -78 60 6 c33 4 107 11 165 17 131 14 578 5 710 -15 52 -7 96 -13 96 -12 13 11 85 138 110 191 59 127 114 358 114 476 0 34 -3 37 -35 43 -59 11 -189 83 -242 134 -84 81 -133 175 -157 302 l-12 65 -290 3 -289 2 -17 -79z m88 33 c-3 -9 -6 -24 -6 -35 0 -10 -4 -19 -10 -19 -5 0 -10 11 -10 25 0 14 -4 25 -10 25 -5 0 -10 5 -10 10 0 6 12 10 26 10 20 0 25 -4 20 -16z m59 -2 c9 24 25 13 25 -17 0 -27 -15 -41 -24 -23 -5 10 -7 10 -12 1 -10 -23 -24 -14 -24 15 0 35 12 49 21 25 6 -17 7 -17 14 -1z m95 -31 c0 -10 -9 -16 -25 -16 -27 0 -31 14 -14 47 11 21 12 21 25 3 8 -10 14 -26 14 -34z m56 40 c18 15 32 3 16 -13 -9 -9 -9 -15 0 -25 15 -18 2 -29 -17 -13 -11 9 -15 9 -15 1 0 -7 -4 -10 -8 -7 -4 2 -7 17 -6 33 3 37 5 41 11 25 4 -10 8 -10 19 -1z m65 -18 c1 -21 2 -23 6 -8 9 39 23 40 23 1 0 -33 -3 -37 -22 -34 -18 2 -24 11 -26 36 -2 18 1 32 7 32 6 0 12 -12 12 -27z m106 -10 c1 -18 -3 -33 -8 -33 -5 0 -9 6 -10 13 0 10 -2 10 -6 0 -10 -25 -23 -12 -23 23 0 31 3 35 23 32 17 -2 22 -10 24 -35z m101 -57 c5 -23 -16 -46 -42 -46 -46 0 -62 48 -24 74 19 13 25 14 43 2 11 -7 21 -21 23 -30z m-98 -186 c0 -153 -3 -200 -12 -200 -9 0 -9 -3 -3 -8 14 -9 18 -59 6 -67 -29 -17 -49 28 -27 63 5 8 -1 12 -19 12 -14 0 -24 -4 -20 -9 3 -5 1 -12 -5 -16 -5 -3 -10 -18 -10 -33 0 -37 -19 -15 -22 26 -2 26 -7 32 -25 32 -20 0 -22 -3 -12 -27 7 -20 6 -30 -5 -41 -8 -8 -19 -11 -25 -8 -18 11 -13 26 7 19 14 -5 14 -3 -2 9 -12 9 -17 21 -13 32 6 14 -3 16 -66 16 -40 0 -67 -4 -61 -8 6 -4 11 -22 12 -41 1 -25 -2 -31 -10 -23 -9 9 -15 8 -26 -1 -12 -10 -14 -5 -11 31 4 35 2 42 -13 42 -11 0 -20 -10 -24 -27 -11 -51 -18 -59 -22 -25 -2 17 -7 32 -12 32 -5 0 -9 95 -10 210 l-1 210 216 0 215 0 0 -200z m-249 -237 l2 -28 4 28 c6 36 23 35 23 -2 0 -28 -22 -47 -41 -35 -12 7 -11 64 1 64 6 0 11 -12 11 -27z m-141 -98 c0 -28 4 -35 20 -35 16 0 20 -7 20 -30 0 -23 -4 -30 -20 -30 -18 0 -20 -8 -22 -142 l-3 -143 -25 0 -25 0 -3 143 c-2 134 -4 142 -22 142 -16 0 -20 7 -20 30 0 23 4 30 20 30 16 0 20 7 20 35 0 32 2 35 30 35 28 0 30 -3 30 -35z m528 -62 l-3 -28 -232 -3 -233 -2 0 30 0 30 236 0 235 0 -3 -27z m-267 -68 c62 -33 87 -121 53 -186 -10 -20 -32 -38 -61 -51 -42 -19 -58 -19 -115 -2 -13 4 -18 0 -18 -15 0 -20 6 -21 200 -23 125 -2 200 -7 200 -13 0 -6 -75 -11 -200 -13 l-200 -2 0 -35 c0 -32 -2 -35 -30 -35 -28 0 -30 3 -30 35 l0 35 -80 0 c-64 0 -80 3 -80 15 0 12 16 15 80 15 l80 0 0 141 0 142 39 -6 c21 -2 45 -1 52 4 22 14 77 10 110 -6z m236 -7 c33 -31 30 -58 -6 -58 -16 0 -31 6 -35 15 -5 15 -36 10 -36 -6 0 -5 18 -18 39 -29 70 -35 89 -85 51 -133 -25 -31 -65 -42 -102 -26 -27 11 -58 53 -58 79 0 19 55 11 68 -10 14 -23 37 -26 45 -6 7 16 -4 26 -51 50 -44 22 -59 56 -43 94 22 52 88 68 128 30z"/><path d="M1210 1399 l0 -180 28 20 c16 11 35 27 42 36 11 13 10 14 -5 9 -17 -7 -17 -6 0 20 10 15 24 25 31 22 16 -6 19 10 4 19 -5 3 -10 24 -10 46 0 57 42 99 100 99 23 0 51 -5 62 -11 15 -8 19 -8 13 0 -3 6 4 20 17 31 25 21 43 26 33 10 -14 -23 13 -8 45 25 l34 35 -197 0 -197 0 0 -181z m184 139 c9 -34 8 -38 -9 -38 -10 0 -15 10 -15 30 0 35 15 40 24 8z m66 -8 c0 -23 -4 -30 -20 -30 -24 0 -25 4 -4 35 21 32 24 31 24 -5z m-113 -33 c-7 -23 -25 -16 -35 12 l-11 31 25 -17 c14 -8 23 -21 21 -26z m-42 -28 c5 -6 5 -13 -1 -19 -7 -7 -18 -2 -35 16 l-24 26 25 -7 c14 -4 29 -11 35 -16z m-15 -60 c0 -16 -4 -19 -17 -14 -10 4 -27 10 -37 13 -20 5 -20 5 0 13 36 14 54 10 54 -12z m0 -49 c0 -16 -7 -20 -30 -20 -36 0 -39 13 -7 28 32 15 37 14 37 -8z"/><path d="M1376 854 c-22 -21 -20 -77 2 -97 42 -39 112 -8 112 48 0 43 -22 65 -65 65 -18 0 -41 -7 -49 -16z"/><path d="M1211 262 c-21 -7 -14 -12 55 -44 69 -32 172 -68 195 -68 4 0 22 12 40 27 23 20 44 28 79 29 60 3 118 30 101 47 -13 13 -428 21 -470 9z"/></g></svg>