<?xml version="1.0" encoding="UTF-8"?>
<svg version="1.1" xmlns="http://www.w3.org/2000/svg" width="200" height="233">
<path d="M0 0 C66 0 132 0 200 0 C200 76.89 200 153.78 200 233 C134 233 68 233 0 233 C0 156.11 0 79.22 0 0 Z " fill="#0A529F" transform="translate(0,0)"/>
<path d="M0 0 C66 0 132 0 200 0 C200 76.89 200 153.78 200 233 C134 233 68 233 0 233 C0 156.11 0 79.22 0 0 Z M11 10 C11 68.74 11 127.48 11 188 C69.74 188 128.48 188 189 188 C189 129.26 189 70.52 189 10 C130.26 10 71.52 10 11 10 Z " fill="#F8F9FB" transform="translate(0,0)"/>
<path d="M0 0 C58.74 0 117.48 0 178 0 C178 58.74 178 117.48 178 178 C119.26 178 60.52 178 0 178 C0 119.26 0 60.52 0 0 Z M1 2 C1 59.75 1 117.5 1 177 C59.08 177 117.16 177 177 177 C177 119.25 177 61.5 177 2 C175.68 2.33 174.36 2.66 173 3 C173 3.33 173 3.66 173 4 C117.89 3.67 62.78 3.34 6 3 C6 2.67 6 2.34 6 2 C4.35 2 2.7 2 1 2 Z " fill="#064599" transform="translate(11,10)"/>
<path d="M0 0 C4.19983831 -0.06897545 8.39770223 -0.12867146 12.59765625 -0.16479492 C14.02545846 -0.17985681 15.4532146 -0.20031062 16.88085938 -0.22631836 C18.93631373 -0.26281842 20.99115505 -0.27975166 23.046875 -0.29296875 C24.90070801 -0.31653442 24.90070801 -0.31653442 26.79199219 -0.34057617 C30.23078629 0.02450128 31.63062733 0.51695264 34 3 C34.4375 6 34.4375 6 34 9 C32.5 10.875 32.5 10.875 31 12 C31.7425 12.5259375 31.7425 12.5259375 32.5 13.0625 C34 15 34 15 34.5 18.5 C34 22 34 22 31.89575195 23.70043945 C28.42312789 25.25888966 25.96667228 25.34317188 22.16796875 25.29296875 C20.87568359 25.28330078 19.58339844 25.27363281 18.25195312 25.26367188 C16.8971293 25.23860985 15.54231159 25.21321506 14.1875 25.1875 C12.81316555 25.17244013 11.43881532 25.15875401 10.06445312 25.14648438 C6.70946596 25.11116872 3.35468262 25.05736316 0 25 C0 16.75 0 8.5 0 0 Z " fill="#F7F8FA" transform="translate(16,125)"/>
<path d="M0 0 C2.31 0.33 4.62 0.66 7 1 C7 9.58 7 18.16 7 27 C5.02 27 3.04 27 1 27 C0.67 27.66 0.34 28.32 0 29 C-0.33 28.67 -0.66 28.34 -1 28 C-2.70563778 27.84259395 -4.41727244 27.74906608 -6.12890625 27.68359375 C-7.06033447 27.64548584 -7.9917627 27.60737793 -8.95141602 27.56811523 C-10.73890259 27.50346069 -10.73890259 27.50346069 -12.5625 27.4375 C-16.336875 27.293125 -20.11125 27.14875 -24 27 C-24 18.75 -24 10.5 -24 2 C-12.5625 1.5625 -12.5625 1.5625 -8.95141602 1.43188477 C-8.01998779 1.39377686 -7.08855957 1.35566895 -6.12890625 1.31640625 C-5.17056885 1.27974854 -4.21223145 1.24309082 -3.22485352 1.20532227 C-1.02861075 1.24165576 -1.02861075 1.24165576 0 0 Z " fill="#F0F4F7" transform="translate(34,193)"/>
<path d="M0 0 C1.42350996 0.85326911 2.83989197 1.71851053 4.25 2.59375 C4.99241943 3.04282715 5.73483887 3.4919043 6.49975586 3.95458984 C8.75670419 5.32341969 11.00391701 6.70718071 13.25 8.09375 C14.58427718 8.90944044 15.91889163 9.72457956 17.25390625 10.5390625 C20.26064656 12.37776282 23.25810283 14.23096881 26.25 16.09375 C26.05957031 17.89819336 26.05957031 17.89819336 25.25 20.09375 C23.10449219 21.69360352 23.10449219 21.69360352 20.296875 23.22265625 C19.28496094 23.78275391 18.27304688 24.34285156 17.23046875 24.91992188 C16.16441406 25.49291016 15.09835938 26.06589844 14 26.65625 C11.91130666 27.80310923 9.82275998 28.95023561 7.734375 30.09765625 C6.80334961 30.60111572 5.87232422 31.1045752 4.91308594 31.62329102 C3.09652805 32.62632807 1.30435979 33.67452418 -0.46386719 34.76049805 C-2.8553838 36.15520888 -4.02965188 36.45344146 -6.75 36.34375 C-7.7709375 36.30507812 -7.7709375 36.30507812 -8.8125 36.265625 C-11.17582941 36.05597481 -13.44847963 35.66913009 -15.75 35.09375 C-15.75 34.43375 -15.75 33.77375 -15.75 33.09375 C-13.57861328 31.58154297 -13.57861328 31.58154297 -10.5703125 29.8359375 C-9.49652344 29.21074219 -8.42273438 28.58554688 -7.31640625 27.94140625 C-6.18074219 27.29042969 -5.04507813 26.63945313 -3.875 25.96875 C-2.74707031 25.31003906 -1.61914062 24.65132812 -0.45703125 23.97265625 C7.97751682 19.09375 7.97751682 19.09375 10.25 19.09375 C8.92112365 15.10712094 7.32695279 14.73388997 3.68359375 12.73828125 C2.55888672 12.11630859 1.43417969 11.49433594 0.27539062 10.85351562 C-0.92046342 10.20422537 -2.11642842 9.55513945 -3.3125 8.90625 C-4.51284016 8.24629751 -5.71271623 7.58550016 -6.91210938 6.92382812 C-9.85360354 5.30541567 -12.79959794 3.69584834 -15.75 2.09375 C-15.75 1.43375 -15.75 0.77375 -15.75 0.09375 C-5.57503677 -3.09839533 -5.57503677 -3.09839533 0 0 Z " fill="#F5F7FA" transform="translate(99.75,49.90625)"/>
<path d="M0 0 C3.91998576 0.33118487 5.54414629 0.8265811 8.34716797 3.62329102 C10.43018208 6.75508637 12.14528946 9.92188549 13.8203125 13.2890625 C14.74070312 14.99352539 14.74070312 14.99352539 15.6796875 16.73242188 C20.0703125 24.94034249 20.0703125 24.94034249 20.0703125 26.3515625 C16.7703125 26.3515625 13.4703125 26.3515625 10.0703125 26.3515625 C9.7403125 25.0315625 9.4103125 23.7115625 9.0703125 22.3515625 C4.4503125 22.3515625 -0.1696875 22.3515625 -4.9296875 22.3515625 C-3.9296875 18.3515625 -3.9296875 18.3515625 -1.9296875 16.3515625 C0.05852563 15.95391987 2.05975589 15.61380901 4.0703125 15.3515625 C3.5753125 14.5678125 3.0803125 13.7840625 2.5703125 12.9765625 C1.0703125 10.3515625 1.0703125 10.3515625 1.0703125 8.3515625 C-2.19907184 11.12745486 -4.01519289 14.77857777 -6.0546875 18.4765625 C-9.82495777 25.24683277 -9.82495777 25.24683277 -10.9296875 26.3515625 C-12.44896788 26.42336214 -13.97136232 26.43548257 -15.4921875 26.4140625 C-16.31847656 26.40503906 -17.14476563 26.39601562 -17.99609375 26.38671875 C-18.95322266 26.36931641 -18.95322266 26.36931641 -19.9296875 26.3515625 C-17.8621873 21.01061928 -15.31139645 16.0528712 -12.5546875 11.0390625 C-12.09191406 10.10771484 -11.62914063 9.17636719 -11.15234375 8.21679688 C-8.24854371 3.0422707 -6.07724637 0.64234549 0 0 Z " fill="#F3F6F9" transform="translate(136.9296875,123.6484375)"/>
<path d="M0 0 C3.81881833 0.03583424 5.34699507 0.22523232 8.13427734 2.90136719 C10.16816529 5.90177855 11.91052691 8.94456088 13.60546875 12.1484375 C14.22357422 13.22867188 14.84167969 14.30890625 15.47851562 15.421875 C19.91796875 23.28801564 19.91796875 23.28801564 19.91796875 25.7734375 C18.46054412 25.85440553 17.00184068 25.91261524 15.54296875 25.9609375 C14.73085937 25.99574219 13.91875 26.03054687 13.08203125 26.06640625 C12.36789063 25.96972656 11.65375 25.87304688 10.91796875 25.7734375 C10.25796875 24.7834375 9.59796875 23.7934375 8.91796875 22.7734375 C5.57183363 22.18655966 5.57183363 22.18655966 1.79296875 22.0859375 C0.51164062 22.02019531 -0.7696875 21.95445312 -2.08984375 21.88671875 C-3.07726562 21.84933594 -4.0646875 21.81195313 -5.08203125 21.7734375 C-4.30859375 19.35546875 -4.30859375 19.35546875 -3.08203125 16.7734375 C0.54296875 15.4609375 0.54296875 15.4609375 3.91796875 14.7734375 C2.22988967 10.54258847 2.22988967 10.54258847 -1.08203125 7.7734375 C-1.46488281 8.80017578 -1.46488281 8.80017578 -1.85546875 9.84765625 C-3.27052233 13.22305476 -4.95461691 16.37317788 -6.70703125 19.5859375 C-7.031875 20.18341797 -7.35671875 20.78089844 -7.69140625 21.39648438 C-8.48582276 22.85680885 -9.28358501 24.31531241 -10.08203125 25.7734375 C-13.38203125 25.7734375 -16.68203125 25.7734375 -20.08203125 25.7734375 C-8.3564805 0.8093617 -8.3564805 0.8093617 0 0 Z " fill="#F6F8FA" transform="translate(70.08203125,124.2265625)"/>
<path d="M0 0 C6.93 0 13.86 0 21 0 C21 1.32 21 2.64 21 4 C16.05 4 11.1 4 6 4 C6 5.98 6 7.96 6 10 C10.29 10 14.58 10 19 10 C19 11.32 19 12.64 19 14 C14.71 14 10.42 14 6 14 C6 15.98 6 17.96 6 20 C11.28 20 16.56 20 22 20 C22 21.65 22 23.3 22 25 C14.74 25 7.48 25 0 25 C0 16.75 0 8.5 0 0 Z " fill="#1D5CA5" transform="translate(10,195)"/>
<path d="M0 0 C4.99503071 0.4913145 6.31841769 1.88091769 9.8125 5.375 C11.56829061 8.88658123 10.7639506 12.66169974 9.8125 16.375 C7.14032273 19.51873796 5.28709631 20.24787599 1.3125 21.3125 C-2.64038943 21.38308731 -4.13481599 20.8171472 -7.1875 18.375 C-9.85289031 14.37691454 -10.02899704 11.07748347 -9.1875 6.375 C-6.75 3.375 -6.75 3.375 -4.1875 1.375 C-3.1875 0.375 -3.1875 0.375 0 0 Z " fill="#F5F8FA" transform="translate(83.1875,56.625)"/>
<path d="M0 0 C2.64 0 5.28 0 8 0 C8.11632513 3.41637953 8.18728897 6.83224897 8.25 10.25 C8.30027344 11.70212891 8.30027344 11.70212891 8.3515625 13.18359375 C8.44763518 20.1488627 8.44763518 20.1488627 6.61328125 23.63671875 C2.4823033 25.79174312 -1.47282252 25.61795453 -6.0625 25.5625 C-7.42858398 25.59827148 -7.42858398 25.59827148 -8.82226562 25.63476562 C-11.3264169 25.62922955 -13.55976692 25.56562461 -16 25 C-18.12109375 22.46484375 -18.12109375 22.46484375 -19 20 C-17.17662109 19.90912109 -17.17662109 19.90912109 -15.31640625 19.81640625 C-13.73175772 19.73201668 -12.14712298 19.6473679 -10.5625 19.5625 C-9.35883789 19.50352539 -9.35883789 19.50352539 -8.13085938 19.44335938 C-4.24760439 19.5945704 -4.24760439 19.5945704 -1 18 C-0.84417697 16.65984779 -0.74955858 15.31241097 -0.68359375 13.96484375 C-0.64169922 13.15595703 -0.59980469 12.34707031 -0.55664062 11.51367188 C-0.51732422 10.66353516 -0.47800781 9.81339844 -0.4375 8.9375 C-0.39431641 8.08349609 -0.35113281 7.22949219 -0.30664062 6.34960938 C-0.20023298 4.23327963 -0.09958269 2.11666187 0 0 Z " fill="#F8FAFB" transform="translate(176,125)"/>
<path d="M0 0 C2.64 0 5.28 0 8 0 C8.11601004 3.60389664 8.18718408 7.20731467 8.25 10.8125 C8.28351563 11.83666016 8.31703125 12.86082031 8.3515625 13.91601562 C8.36445312 14.89892578 8.37734375 15.88183594 8.390625 16.89453125 C8.41157227 17.80050049 8.43251953 18.70646973 8.45410156 19.63989258 C8 22 8 22 6.2734375 23.80078125 C3.6812123 25.16815777 2.14771548 25.34899453 -0.765625 25.29296875 C-1.65507813 25.28330078 -2.54453125 25.27363281 -3.4609375 25.26367188 C-4.38132812 25.23853516 -5.30171875 25.21339844 -6.25 25.1875 C-7.18585938 25.17396484 -8.12171875 25.16042969 -9.0859375 25.14648438 C-11.39121327 25.11119954 -13.6953106 25.06190281 -16 25 C-16.66 23.35 -17.32 21.7 -18 20 C-9.585 19.505 -9.585 19.505 -1 19 C-0.67 12.73 -0.34 6.46 0 0 Z " fill="#FAFBFC" transform="translate(109,125)"/>
<path d="M0 0 C2.9375 1.5625 2.9375 1.5625 5 4 C5.8125 7.75 5.8125 7.75 6 11 C-0.435 11.495 -0.435 11.495 -7 12 C-6.67 12.66 -6.34 13.32 -6 14 C-2.37 14 1.26 14 5 14 C2.90050565 16.70902496 1.2529027 18.73024693 -2.1953125 19.47265625 C-5.81231451 19.6099352 -8.32091549 19.34782377 -11.5625 17.6875 C-13.92128671 13.27759442 -13.835518 8.87262268 -13 4 C-9.6375141 -0.51834043 -5.29239012 -1.03709463 0 0 Z " fill="#2861A6" transform="translate(57,201)"/>
<path d="M0 0 C0.85464844 -0.01675781 1.70929688 -0.03351563 2.58984375 -0.05078125 C5.73866798 0.41184221 6.95979362 0.89177708 9.0625 3.3125 C9.51968128 6.15816041 9.75771446 8.64866173 9.8125 11.5 C9.84214844 12.24958984 9.87179688 12.99917969 9.90234375 13.77148438 C9.9729079 15.61791307 10.01998476 17.46521261 10.0625 19.3125 C8.0825 19.3125 6.1025 19.3125 4.0625 19.3125 C4.0625 18.6525 4.0625 17.9925 4.0625 17.3125 C3.0725 17.9725 2.0825 18.6325 1.0625 19.3125 C-1.69770996 19.68417184 -4.12602476 19.49100636 -6.9375 19.3125 C-8.9375 17.3125 -8.9375 17.3125 -9.0625 14.6875 C-9.02125 13.90375 -8.98 13.12 -8.9375 12.3125 C-7.2875 11.6525 -5.6375 10.9925 -3.9375 10.3125 C-3.6075 10.9725 -3.2775 11.6325 -2.9375 12.3125 C-3.2675 13.3025 -3.5975 14.2925 -3.9375 15.3125 C-1.9575 14.9825 0.0225 14.6525 2.0625 14.3125 C2.3925 12.9925 2.7225 11.6725 3.0625 10.3125 C1.7425 9.9825 0.4225 9.6525 -0.9375 9.3125 C-0.9375 8.6525 -0.9375 7.9925 -0.9375 7.3125 C0.3825 7.3125 1.7025 7.3125 3.0625 7.3125 C2.7325 6.6525 2.4025 5.9925 2.0625 5.3125 C0.39638095 5.269779 -1.27132885 5.27186168 -2.9375 5.3125 C-3.2675 5.6425 -3.5975 5.9725 -3.9375 6.3125 C-5.60367115 6.35313832 -7.27138095 6.355221 -8.9375 6.3125 C-8.625 4.4375 -8.625 4.4375 -7.9375 2.3125 C-4.73125113 0.17500075 -3.71291897 0.01675001 0 0 Z " fill="#1A55A1" transform="translate(149.9375,200.6875)"/>
<path d="M0 0 C3.07334616 0.63201877 4.82652849 2.15553027 6.9375 4.3984375 C6.9375 5.0584375 6.9375 5.7184375 6.9375 6.3984375 C4.9575 6.3984375 2.9775 6.3984375 0.9375 6.3984375 C0.9375 5.7384375 0.9375 5.0784375 0.9375 4.3984375 C-1.0425 4.3984375 -3.0225 4.3984375 -5.0625 4.3984375 C-4.21716897 6.66291172 -4.21716897 6.66291172 -1.59375 7.29296875 C0.42492887 7.90429547 2.4457831 8.50848496 4.46875 9.10546875 C6.9375 10.3984375 6.9375 10.3984375 7.78125 13.03515625 C7.85859375 14.20498047 7.85859375 14.20498047 7.9375 15.3984375 C5.59057389 17.98814907 3.75220928 19.28544862 0.26171875 19.76953125 C-7.32007852 19.94024722 -7.32007852 19.94024722 -9.8984375 18.05859375 C-11.0625 16.3984375 -11.0625 16.3984375 -11.0625 13.3984375 C-9.39638095 13.3557165 -7.72867115 13.35779918 -6.0625 13.3984375 C-5.7325 13.7284375 -5.4025 14.0584375 -5.0625 14.3984375 C-2.73432036 14.76604481 -0.4006615 15.10085331 1.9375 15.3984375 C1.09216897 13.13396328 1.09216897 13.13396328 -1.53125 12.50390625 C-3.54992887 11.89257953 -5.5707831 11.28839004 -7.59375 10.69140625 C-10.0625 9.3984375 -10.0625 9.3984375 -10.90625 6.76171875 C-10.9578125 5.98183594 -11.009375 5.20195312 -11.0625 4.3984375 C-7.47330144 0.80923894 -4.93714323 -0.2431169 0 0 Z " fill="#15509E" transform="translate(182.0625,200.6015625)"/>
<path d="M0 0 C3 1.8125 3 1.8125 5 4 C5 4.99 5 5.98 5 7 C3.02 7 1.04 7 -1 7 C-1.33 6.34 -1.66 5.68 -2 5 C-3.65 5.33 -5.3 5.66 -7 6 C-7 8.64 -7 11.28 -7 14 C-5.35 14 -3.7 14 -2 14 C-1.67 13.34 -1.34 12.68 -1 12 C0.98 12 2.96 12 5 12 C4.65557106 14.49710982 4.15296001 15.82154665 2.5 17.75 C-1.32177579 19.6608879 -4.81892385 19.76628264 -9 19 C-12.20879247 16.96994762 -13.62927537 15.57700553 -14.5078125 11.83984375 C-14.85371888 7.33554105 -14.42003298 5.5145404 -11.5 1.9375 C-7.61110865 -0.71025581 -4.59738237 -0.65676891 0 0 Z " fill="#094A9A" transform="translate(78,201)"/>
<path d="M0 0 C2.875 1.25 2.875 1.25 5 3 C5.8125 5.1875 5.8125 5.1875 6 7 C4.02 7 2.04 7 0 7 C-0.33 6.34 -0.66 5.68 -1 5 C-2.65 5.33 -4.3 5.66 -6 6 C-6 8.64 -6 11.28 -6 14 C-4.35 14 -2.7 14 -1 14 C-0.67 13.34 -0.34 12.68 0 12 C1.98 12 3.96 12 6 12 C4.75023244 15.65316671 4.32901247 16.78065836 1 19 C-3.66488876 19.82989594 -7.03294265 19.61181179 -11.0625 17.0625 C-13.31003311 13.50994766 -13.7961723 11.3081864 -13.546875 7.16015625 C-13 5 -13 5 -10.4375 1.9375 C-6.4689849 -0.29929942 -4.48262803 -0.65201862 0 0 Z " fill="#16509E" transform="translate(133,201)"/>
<path d="M0 0 C5.28 0 10.56 0 16 0 C16.33 1.32 16.66 2.64 17 4 C16.08476563 4.02578125 15.16953125 4.0515625 14.2265625 4.078125 C12.44378906 4.16320312 12.44378906 4.16320312 10.625 4.25 C9.44164062 4.29640625 8.25828125 4.3428125 7.0390625 4.390625 C6.03617188 4.59171875 5.03328125 4.7928125 4 5 C3.34 6.32 2.68 7.64 2 9 C6.62 9 11.24 9 16 9 C16.33 10.65 16.66 12.3 17 14 C14.7993761 16.2006239 9.76509258 15.38847018 6.78515625 15.5234375 C5.86605469 15.68070313 4.94695313 15.83796875 4 16 C3.34 16.99 2.68 17.98 2 19 C1.34 19 0.68 19 0 19 C0 12.73 0 6.46 0 0 Z " fill="#3768AC" transform="translate(24,130)"/>
<path d="M0 0 C1.98 0 3.96 0 6 0 C6 1.65 6 3.3 6 5 C6.99 5 7.98 5 9 5 C9 5.99 9 6.98 9 8 C8.01 8 7.02 8 6 8 C6.11351517 9.81325551 6.24112961 11.62563357 6.375 13.4375 C6.44460937 14.44683594 6.51421875 15.45617187 6.5859375 16.49609375 C6.72257812 17.32238281 6.85921875 18.14867187 7 19 C7.66 19.33 8.32 19.66 9 20 C9 20.99 9 21.98 9 23 C5.625 23.1875 5.625 23.1875 2 23 C-0.35119399 19.47320901 -0.21443452 17.97120515 -0.125 13.8125 C-0.10695313 12.72582031 -0.08890625 11.63914063 -0.0703125 10.51953125 C-0.04710938 9.68808594 -0.02390625 8.85664063 0 8 C-0.66 8 -1.32 8 -2 8 C-2 6.68 -2 5.36 -2 4 C-1.34 4 -0.68 4 0 4 C0 2.68 0 1.36 0 0 Z " fill="#1959A4" transform="translate(86,197)"/>
<path d="M0 0 C1.98 0 3.96 0 6 0 C6 8.25 6 16.5 6 25 C4.02 25 2.04 25 0 25 C0 16.75 0 8.5 0 0 Z " fill="#1A54A0" transform="translate(162,195)"/>
<path d="M0 0 C1.98 0 3.96 0 6 0 C6 8.25 6 16.5 6 25 C4.02 25 2.04 25 0 25 C0 16.75 0 8.5 0 0 Z " fill="#1B57A2" transform="translate(35,195)"/>
<path d="M0 0 C1.2065625 0.0309375 1.2065625 0.0309375 2.4375 0.0625 C2.7675 1.0525 3.0975 2.0425 3.4375 3.0625 C2.1175 3.0625 0.7975 3.0625 -0.5625 3.0625 C-0.2325 3.7225 0.0975 4.3825 0.4375 5.0625 C1.4275 5.3925 2.4175 5.7225 3.4375 6.0625 C3.1075 7.7125 2.7775 9.3625 2.4375 11.0625 C0.4575 11.0625 -1.5225 11.0625 -3.5625 11.0625 C-3.5625 9.7425 -3.5625 8.4225 -3.5625 7.0625 C-4.8825 7.3925 -6.2025 7.7225 -7.5625 8.0625 C-7.5625 10.0425 -7.5625 12.0225 -7.5625 14.0625 C-10.5625 14.0625 -10.5625 14.0625 -13.5625 13.0625 C-12.5725 11.4125 -11.5825 9.7625 -10.5625 8.0625 C-11.8825 8.0625 -13.2025 8.0625 -14.5625 8.0625 C-14.5625 6.7425 -14.5625 5.4225 -14.5625 4.0625 C-13.78003906 3.85753906 -12.99757812 3.65257812 -12.19140625 3.44140625 C-11.17949219 3.17199219 -10.16757813 2.90257812 -9.125 2.625 C-8.11566406 2.35816406 -7.10632813 2.09132812 -6.06640625 1.81640625 C-0.03664741 0.00089384 -0.03664741 0.00089384 0 0 Z " fill="#F5F8F9" transform="translate(149.5625,204.9375)"/>
<path d="M0 0 C6.6 0 13.2 0 20 0 C20 1.32 20 2.64 20 4 C17.58303128 4.05411124 15.16728213 4.09372278 12.75 4.125 C12.06808594 4.14175781 11.38617188 4.15851563 10.68359375 4.17578125 C6.61462923 4.21528576 4.75100679 3.87550339 1 2 C1 8.93 1 15.86 1 23 C2.32 22.34 3.64 21.68 5 21 C7.62426505 20.86041143 10.13292747 20.81068631 12.75 20.875 C13.79607422 20.88853516 13.79607422 20.88853516 14.86328125 20.90234375 C16.57566958 20.92580112 18.28788004 20.96166896 20 21 C20 21.99 20 22.98 20 24 C13.4 24 6.8 24 0 24 C0 16.08 0 8.16 0 0 Z " fill="#043F96" transform="translate(11,195)"/>
<path d="M0 0 C1.32 0 2.64 0 4 0 C4 1.65 4 3.3 4 5 C2.02 5.66 0.04 6.32 -2 7 C-2.33 10.96 -2.66 14.92 -3 19 C-4.65 19 -6.3 19 -8 19 C-8 13.06 -8 7.12 -8 1 C-5.66666667 1 -3.33333333 1 -1 1 C-0.67 0.67 -0.34 0.34 0 0 Z " fill="#084698" transform="translate(106,201)"/>
<path d="M0 0 C0.33 0 0.66 0 1 0 C1.33 2.31 1.66 4.62 2 7 C2.99 7 3.98 7 5 7 C5 5.35 5 3.7 5 2 C5.33 2 5.66 2 6 2 C6.33 4.31 6.66 6.62 7 9 C8.65 9 10.3 9 12 9 C12.33 8.34 12.66 7.68 13 7 C14.98 7 16.96 7 19 7 C18.65557106 9.49710982 18.15296001 10.82154665 16.5 12.75 C12.67822421 14.6608879 9.18107615 14.76628264 5 14 C1.9375 12.0625 1.9375 12.0625 0 9 C-0.38759905 5.95020747 -0.29945463 3.05443727 0 0 Z " fill="#1F54A0" transform="translate(64,206)"/>
<path d="M0 0 C3.63 0 7.26 0 11 0 C11 0.33 11 0.66 11 1 C9.35 1 7.7 1 6 1 C6 6.94 6 12.88 6 19 C5.34 17.68 4.68 16.36 4 15 C2.68 15 1.36 15 0 15 C0 11.37 0 7.74 0 4 C0.99 4 1.98 4 3 4 C3 3.01 3 2.02 3 1 C2.01 0.67 1.02 0.34 0 0 Z " fill="#DBE4EF" transform="translate(92,201)"/>
<path d="M0 0 C0.33 0 0.66 0 1 0 C1.33 2.31 1.66 4.62 2 7 C3.65 7 5.3 7 7 7 C7.33 6.34 7.66 5.68 8 5 C9.98 5 11.96 5 14 5 C12.75023244 8.65316671 12.32901247 9.78065836 9 12 C5.93436028 12.54538534 3.06634798 12.54238379 0 12 C-3.0625 9.625 -3.0625 9.625 -5 7 C-5 6.34 -5 5.68 -5 5 C-3.68 5 -2.36 5 -1 5 C-0.67 3.35 -0.34 1.7 0 0 Z " fill="#2057A1" transform="translate(125,208)"/>
<path d="M0 0 C1.65 0 3.3 0 5 0 C5 5.94 5 11.88 5 18 C3.35 18 1.7 18 0 18 C0 12.06 0 6.12 0 0 Z " fill="#064396" transform="translate(112,202)"/>
<path d="M0 0 C7.11008111 -0.4820394 7.11008111 -0.4820394 11 1.625 C13 4 13 4 13 10 C9.04 10 5.08 10 1 10 C1 9.34 1 8.68 1 8 C3.31 8 5.62 8 8 8 C6.39519216 4.87393036 6.39519216 4.87393036 4.0546875 4.48828125 C2.97574219 4.40126953 2.97574219 4.40126953 1.875 4.3125 C0.59625 4.209375 -0.6825 4.10625 -2 4 C-1.34 3.67 -0.68 3.34 0 3 C0 2.01 0 1.02 0 0 Z " fill="#0F4A9B" transform="translate(49,201)"/>
<path d="M0 0 C0.33 0.99 0.66 1.98 1 3 C2.32 2.01 3.64 1.02 5 0 C5 1.32 5 2.64 5 4 C6.65 3.67 8.3 3.34 10 3 C8.02 6.63 6.04 10.26 4 14 C3.34 13.67 2.68 13.34 2 13 C1.34 13.66 0.68 14.32 0 15 C-0.433125 13.576875 -0.433125 13.576875 -0.875 12.125 C-1.76825109 8.94788422 -1.76825109 8.94788422 -4 7 C-3.525625 6.5875 -3.05125 6.175 -2.5625 5.75 C-0.83733482 3.817815 -0.43415125 2.51807725 0 0 Z " fill="#1A5BA4" transform="translate(50,130)"/>
<path d="M0 0 C5.28 0 10.56 0 16 0 C15.67 1.65 15.34 3.3 15 5 C13.75283203 5.07347656 13.75283203 5.07347656 12.48046875 5.1484375 C11.39378906 5.22320312 10.30710937 5.29796875 9.1875 5.375 C8.10855469 5.44460937 7.02960937 5.51421875 5.91796875 5.5859375 C2.81373814 5.81195733 2.81373814 5.81195733 0 8 C0 5.36 0 2.72 0 0 Z " fill="#074297" transform="translate(25,140)"/>
<path d="M0 0 C0.66 0 1.32 0 2 0 C3.32 2.64 4.64 5.28 6 8 C4.96875 8 3.9375 8 2.875 8 C0.12245391 8.35317801 -0.83284919 8.8284982 -2.80078125 10.84765625 C-4.28476725 12.85581869 -5.68159254 14.87992354 -7 17 C-8 14 -8 14 -6.34765625 10.64453125 C-5.59622298 9.36110983 -4.83403499 8.08393866 -4.0625 6.8125 C-3.48338867 5.83120117 -3.48338867 5.83120117 -2.89257812 4.83007812 C-1.93746912 3.21464684 -0.96989934 1.60659475 0 0 Z " fill="#154999" transform="translate(136,132)"/>
<path d="M0 0 C0.99 0 1.98 0 3 0 C3.02578125 0.61488281 3.0515625 1.22976562 3.078125 1.86328125 C3.2336047 6.95235826 3.2336047 6.95235826 6.0625 10.875 C6.701875 11.24625 7.34125 11.6175 8 12 C8 12.99 8 13.98 8 15 C5.66705225 15.04241723 3.33297433 15.04092937 1 15 C0 14 0 14 -0.09765625 10.83984375 C-0.08025391 8.90818359 -0.08025391 8.90818359 -0.0625 6.9375 C-0.05347656 5.64714844 -0.04445313 4.35679687 -0.03515625 3.02734375 C-0.02355469 2.02832031 -0.01195313 1.02929688 0 0 Z " fill="#0A4A9B" transform="translate(87,205)"/>
<path d="M0 0 C1.48831242 0.00667405 2.97660807 0.01863442 4.46484375 0.03515625 C5.22345703 0.03966797 5.98207031 0.04417969 6.76367188 0.04882812 C8.64326246 0.06064945 10.52281274 0.07858547 12.40234375 0.09765625 C12.73234375 1.08765625 13.06234375 2.07765625 13.40234375 3.09765625 C5.15234375 3.09765625 -3.09765625 3.09765625 -11.59765625 3.09765625 C-11.59765625 2.76765625 -11.59765625 2.43765625 -11.59765625 2.09765625 C-10.46328125 1.95328125 -9.32890625 1.80890625 -8.16015625 1.66015625 C-4.17746896 1.03131089 -4.03801477 0.10960952 0 0 Z " fill="#05499B" transform="translate(27.59765625,120.90234375)"/>
<path d="M0 0 C2.3125 1 2.3125 1 4 2 C3.67 3.65 3.34 5.3 3 7 C1.02 7 -0.96 7 -3 7 C-3 5.68 -3 4.36 -3 3 C-4.94999129 3.19471111 -4.94999129 3.19471111 -7 4 C-8.28436734 5.9837767 -8.28436734 5.9837767 -9 8 C-9.25 5.6875 -9.25 5.6875 -9 3 C-6.22043988 0.01454654 -3.99014184 -0.49876773 0 0 Z " fill="#2D5EA6" transform="translate(149,209)"/>
<path d="M0 0 C0.99 0.33 1.98 0.66 3 1 C4.6875 4.5625 4.6875 4.5625 6 8 C4.3603125 8.185625 4.3603125 8.185625 2.6875 8.375 C-1.07381802 8.75464801 -1.07381802 8.75464801 -4 11 C-3.48964169 6.6109185 -2.47785723 3.66291938 0 0 Z " fill="#104798" transform="translate(69,132)"/>
<path d="M0 0 C1.134375 0.020625 2.26875 0.04125 3.4375 0.0625 C2.7775 1.3825 2.1175 2.7025 1.4375 4.0625 C4.4075 4.5575 4.4075 4.5575 7.4375 5.0625 C7.4375 5.3925 7.4375 5.7225 7.4375 6.0625 C2.8175 6.0625 -1.8025 6.0625 -6.5625 6.0625 C-4.16674028 0.07310071 -4.16674028 0.07310071 0 0 Z " fill="#DAE2EE" transform="translate(71.5625,139.9375)"/>
<path d="M0 0 C4.62 0 9.24 0 14 0 C14 1.32 14 2.64 14 4 C10.04 4 6.08 4 2 4 C1.34 2.68 0.68 1.36 0 0 Z " fill="#E9EEF4" transform="translate(49,212)"/>
<path d="M0 0 C1.32 0 2.64 0 4 0 C4 1.65 4 3.3 4 5 C2.88625 5.12375 1.7725 5.2475 0.625 5.375 C-3.03103677 5.6465813 -3.03103677 5.6465813 -5 8 C-5.66 7.67 -6.32 7.34 -7 7 C-7 5.35 -7 3.7 -7 2 C-6.21625 2.04125 -5.4325 2.0825 -4.625 2.125 C-1.83883881 2.28728734 -1.83883881 2.28728734 0 0 Z " fill="#17509E" transform="translate(106,201)"/>
<path d="M0 0 C3.03703704 4.55555556 3.03703704 4.55555556 2.75 8 C2 11 2 11 -1 13 C-1 12.01 -1 11.02 -1 10 C-1.66 10 -2.32 10 -3 10 C-3.36923077 3.47692308 -3.36923077 3.47692308 -1.5 1.0625 C-1.005 0.711875 -0.51 0.36125 0 0 Z " fill="#09499A" transform="translate(123,203)"/>
<path d="M0 0 C7.19285339 -0.48765108 7.19285339 -0.48765108 11 1.8125 C13 4 13 4 13 7 C11.02 7 9.04 7 7 7 C6.773125 6.195625 6.54625 5.39125 6.3125 4.5625 C5.879375 3.716875 5.44625 2.87125 5 2 C2.45224694 1.10613836 2.45224694 1.10613836 0 1 C0 0.67 0 0.34 0 0 Z " fill="#1C55A0" transform="translate(70,201)"/>
<path d="M0 0 C0.66 0 1.32 0 2 0 C2 0.66 2 1.32 2 2 C3.134375 2.268125 4.26875 2.53625 5.4375 2.8125 C6.613125 3.204375 7.78875 3.59625 9 4 C9.33 4.99 9.66 5.98 10 7 C3.9453125 7.1953125 3.9453125 7.1953125 2 7 C1.34 6.34 0.68 5.68 0 5 C-0.99 5 -1.98 5 -3 5 C-1.125 1.125 -1.125 1.125 0 0 Z " fill="#85A3CB" transform="translate(47,202)"/>
<path d="M0 0 C1.98 0 3.96 0 6 0 C4.75023244 3.65316671 4.32901247 4.78065836 1 7 C-2.1875 6.625 -2.1875 6.625 -5 6 C-4.360625 5.566875 -3.72125 5.13375 -3.0625 4.6875 C-0.73253997 3.08760823 -0.73253997 3.08760823 0 0 Z " fill="#1557A3" transform="translate(133,213)"/>
<path d="M0 0 C0 0.66 0 1.32 0 2 C-4.82360189 2.19294408 -8.49646738 1.75747614 -13 0 C-13.33 0.66 -13.66 1.32 -14 2 C-14 1.01 -14 0.02 -14 -1 C-8.93094113 -4.10684253 -5.07767373 -2.05761942 0 0 Z " fill="#E3EAF2" transform="translate(184,214)"/>
<path d="M0 0 C0.99 0 1.98 0 3 0 C2.67 4.95 2.34 9.9 2 15 C1.34 15 0.68 15 0 15 C0 10.05 0 5.1 0 0 Z " fill="#0952A1" transform="translate(113,203)"/>
<path d="M0 0 C1.22589844 0.01353516 1.22589844 0.01353516 2.4765625 0.02734375 C3.41628906 0.04474609 3.41628906 0.04474609 4.375 0.0625 C3.055 0.3925 1.735 0.7225 0.375 1.0625 C0.375 1.7225 0.375 2.3825 0.375 3.0625 C-2.85291555 5.2144437 -3.90900809 5.26336443 -7.625 5.0625 C-7.25 3.125 -7.25 3.125 -6.625 1.0625 C-4.21954362 -0.14022819 -2.67503047 -0.03821472 0 0 Z " fill="#0A4396" transform="translate(148.625,201.9375)"/>
<path d="M0 0 C0.66 0.33 1.32 0.66 2 1 C-0.97 5.95 -0.97 5.95 -4 11 C-4.66 10.67 -5.32 10.34 -6 10 C-6.66 10.66 -7.32 11.32 -8 12 C-7.67 10.02 -7.34 8.04 -7 6 C-5.68 5.67 -4.36 5.34 -3 5 C-3 4.01 -3 3.02 -3 2 C-2.01 2 -1.02 2 0 2 C0 1.34 0 0.68 0 0 Z " fill="#2156A2" transform="translate(58,133)"/>
<path d="M0 0 C-4.18461538 4.92307692 -4.18461538 4.92307692 -8.3125 5.3125 C-9.199375 5.209375 -10.08625 5.10625 -11 5 C-10 2 -10 2 -8.3125 0.8125 C-5.45030907 -0.19313465 -3.01172092 -0.13689641 0 0 Z " fill="#074194" transform="translate(62,215)"/>
<path d="M0 0 C0.33 0.99 0.66 1.98 1 3 C-2.3 3.66 -5.6 4.32 -9 5 C-9 4.34 -9 3.68 -9 3 C-9.66 2.67 -10.32 2.34 -11 2 C-7.17679443 0.57741188 -4.08718695 -0.24042276 0 0 Z " fill="#DCE5EF" transform="translate(152,205)"/>
<path d="M0 0 C0.99 0.33 1.98 0.66 3 1 C3 4.3 3 7.6 3 11 C2.67 11 2.34 11 2 11 C2 9.35 2 7.7 2 6 C1.34 6 0.68 6 0 6 C0 5.34 0 4.68 0 4 C-1.65 3.67 -3.3 3.34 -5 3 C-5 2.67 -5 2.34 -5 2 C-3.35 2 -1.7 2 0 2 C0 1.34 0 0.68 0 0 Z " fill="#074799" transform="translate(154,207)"/>
<path d="M0 0 C1.98 0 3.96 0 6 0 C6 0.66 6 1.32 6 2 C7.98 2 9.96 2 12 2 C11.01 2.99 10.02 3.98 9 5 C6.03 4.01 3.06 3.02 0 2 C0 1.34 0 0.68 0 0 Z " fill="#DFE9F1" transform="translate(177,205)"/>
<path d="M0 0 C0.5625 1.9375 0.5625 1.9375 1 4 C0 5 0 5 -3.0625 5.0625 C-4.5165625 5.0315625 -4.5165625 5.0315625 -6 5 C-5.67 3.68 -5.34 2.36 -5 1 C-3.35 0.67 -1.7 0.34 0 0 Z " fill="#ECF2F7" transform="translate(152,211)"/>
<path d="M0 0 C0.33 0.99 0.66 1.98 1 3 C0 4 0 4 -2.9375 4.25 C-3.948125 4.1675 -4.95875 4.085 -6 4 C-6.66 3.01 -7.32 2.02 -8 1 C-5.29120665 -0.35439668 -2.99066732 -0.06501451 0 0 Z " fill="#074898" transform="translate(87,78)"/>
<path d="M0 0 C1.65 0 3.3 0 5 0 C5.66 1.32 6.32 2.64 7 4 C4.625 4.625 4.625 4.625 2 5 C1.34 4.34 0.68 3.68 0 3 C0 2.01 0 1.02 0 0 Z " fill="#094698" transform="translate(171,214)"/>
<path d="M0 0 C1.65 0 3.3 0 5 0 C4.67 1.32 4.34 2.64 4 4 C4 3.01 4 2.02 4 1 C3.34 1 2.68 1 2 1 C2 2.65 2 4.3 2 6 C0.68 6.33 -0.64 6.66 -2 7 C-2 6.01 -2 5.02 -2 4 C-1.34 4 -0.68 4 0 4 C0 2.68 0 1.36 0 0 Z " fill="#21539F" transform="translate(86,197)"/>
<path d="M0 0 C0.33 0.99 0.66 1.98 1 3 C1.99 3.33 2.98 3.66 4 4 C3.01 4.33 2.02 4.66 1 5 C0.34 5.66 -0.32 6.32 -1 7 C-2.32 5.68 -3.64 4.36 -5 3 C-3.35 2.01 -1.7 1.02 0 0 Z " fill="#094B9B" transform="translate(51,134)"/>
<path d="M0 0 C3.465 1.485 3.465 1.485 7 3 C7 3.99 7 4.98 7 6 C5.68 6 4.36 6 3 6 C3 5.34 3 4.68 3 4 C1.35 3.67 -0.3 3.34 -2 3 C-1.34 2.67 -0.68 2.34 0 2 C0 1.34 0 0.68 0 0 Z " fill="#054899" transform="translate(69,214)"/>
<path d="M0 0 C2.0245738 1.93254772 3.42105792 3.63158688 5 6 C5 6.99 5 7.98 5 9 C3.125 8.75 3.125 8.75 1 8 C-0.3125 6.1875 -0.3125 6.1875 -1 4 C-0.625 1.75 -0.625 1.75 0 0 Z " fill="#0D4C9B" transform="translate(45,210)"/>
<path d="M0 0 C0.99 0.33 1.98 0.66 3 1 C2.525625 1.886875 2.05125 2.77375 1.5625 3.6875 C0.20262851 6.57042756 -0.54060386 8.87610623 -1 12 C-1.33 12 -1.66 12 -2 12 C-2 8.7 -2 5.4 -2 2 C-1.34 2 -0.68 2 0 2 C0 1.34 0 0.68 0 0 Z " fill="#F2F5F9" transform="translate(120,202)"/>
<path d="M0 0 C0.99 0 1.98 0 3 0 C3 0.66 3 1.32 3 2 C6.63 2.33 10.26 2.66 14 3 C14 3.33 14 3.66 14 4 C7.565 4.495 7.565 4.495 1 5 C0.67 3.35 0.34 1.7 0 0 Z " fill="#1E59A4" transform="translate(26,141)"/>
<path d="M0 0 C0.99 0.33 1.98 0.66 3 1 C2.01 1.495 2.01 1.495 1 2 C3.97 2.33 6.94 2.66 10 3 C10 3.33 10 3.66 10 4 C8.95199219 4.09087891 8.95199219 4.09087891 7.8828125 4.18359375 C6.97273438 4.26738281 6.06265625 4.35117188 5.125 4.4375 C4.22007813 4.51871094 3.31515625 4.59992188 2.3828125 4.68359375 C-0.01110861 4.86989285 -0.01110861 4.86989285 -2 6 C-2 4.35 -2 2.7 -2 1 C-1.34 0.67 -0.68 0.34 0 0 Z " fill="#2762A5" transform="translate(65,121)"/>
<path d="M0 0 C1.65 0 3.3 0 5 0 C5 1.32 5 2.64 5 4 C3.35 4 1.7 4 0 4 C0 2.68 0 1.36 0 0 Z " fill="#033E95" transform="translate(112,195)"/>
<path d="M0 0 C3.14511099 1.57255549 3.92649924 2.79583121 5.125 6.125 C5.41375 7.07375 5.7025 8.0225 6 9 C5.01 9.495 5.01 9.495 4 10 C0 3.375 0 3.375 0 0 Z " fill="#14499C" transform="translate(151,137)"/>
<path d="M0 0 C0.99 0.33 1.98 0.66 3 1 C2.67 2.32 2.34 3.64 2 5 C-1.3 5 -4.6 5 -8 5 C-8 4.67 -8 4.34 -8 4 C-5.36 3.67 -2.72 3.34 0 3 C0 2.01 0 1.02 0 0 Z " fill="#416CAE" transform="translate(156,146)"/>
<path d="M0 0 C2 3.75 2 3.75 2 6 C-0.31 6.33 -2.62 6.66 -5 7 C-4.0409375 6.1028125 -4.0409375 6.1028125 -3.0625 5.1875 C-0.79689611 3.09189663 -0.79689611 3.09189663 0 0 Z " fill="#1D55A2" transform="translate(93,70)"/>
<path d="M0 0 C0.66 0.66 1.32 1.32 2 2 C1.625 4.625 1.625 4.625 1 7 C0.34 7 -0.32 7 -1 7 C-1 6.01 -1 5.02 -1 4 C-2.32 3.67 -3.64 3.34 -5 3 C-4.360625 2.87625 -3.72125 2.7525 -3.0625 2.625 C-2.0415625 2.315625 -2.0415625 2.315625 -1 2 C-0.67 1.34 -0.34 0.68 0 0 Z " fill="#2D64AB" transform="translate(77,213)"/>
<path d="M0 0 C1.65 0 3.3 0 5 0 C4.25 2.4375 4.25 2.4375 3 5 C0.875 5.8125 0.875 5.8125 -1 6 C-0.01 5.01 0.98 4.02 2 3 C1.34 2.67 0.68 2.34 0 2 C0 1.34 0 0.68 0 0 Z " fill="#104497" transform="translate(134,213)"/>
<path d="M0 0 C1.32 0 2.64 0 4 0 C3.67 1.98 3.34 3.96 3 6 C2.01 5.67 1.02 5.34 0 5 C0 3.35 0 1.7 0 0 Z " fill="#0C54A3" transform="translate(99,203)"/>
<path d="M0 0 C1.65 0.99 3.3 1.98 5 3 C4.6875 4.9375 4.6875 4.9375 4 7 C3.01 7.33 2.02 7.66 1 8 C1.20625 7.4225 1.4125 6.845 1.625 6.25 C2.08661261 3.48032433 1.42944945 2.35438733 0 0 Z " fill="#EBF0F4" transform="translate(121,63)"/>
<path d="M0 0 C2.475 0.99 2.475 0.99 5 2 C5 2.99 5 3.98 5 5 C3.35 5 1.7 5 0 5 C0 3.35 0 1.7 0 0 Z " fill="#054297" transform="translate(90,215)"/>
</svg>
