<?xml version="1.0" encoding="UTF-8"?>
<svg version="1.1" xmlns="http://www.w3.org/2000/svg" width="376" height="168">
<path d="M0 0 C0.99 0.99 0.99 0.99 2 2 C1.79296875 4.09375 1.79296875 4.09375 1.1875 6.5 C0.99542969 7.2940625 0.80335938 8.088125 0.60546875 8.90625 C0 11 0 11 -1 13 C6.80972953 9.33885079 13.63532979 5.93071542 20 0 C20.66 0 21.32 0 22 0 C19.69850749 8.18308448 12.52477238 13.89236346 5.76171875 18.48046875 C1.90154117 20.60438541 -2.0687044 21.74368115 -6.3359375 22.78515625 C-9.95016518 24.43328647 -10.95257244 26.6375251 -13 30 C-14.72093891 32.00419904 -16.44557845 33.95097794 -18.25 35.875 C-18.98549072 36.6630603 -18.98549072 36.6630603 -19.73583984 37.46704102 C-20.71514184 38.51258143 -21.69668555 39.55602751 -22.68066406 40.59716797 C-23.76647981 41.75170114 -24.83492775 42.92254362 -25.8984375 44.09765625 C-29.05206058 47.45819126 -32.32848835 50.27678563 -36.09765625 52.921875 C-45.39248312 59.49409592 -51.89139898 64.19515494 -54 76 C-54 77.32 -54 78.64 -54 80 C-51.40801514 79.62931603 -50.23727446 79.25266762 -48.41943359 77.31689453 C-47.91750488 76.59614746 -47.41557617 75.87540039 -46.8984375 75.1328125 C-46.3307666 74.33439941 -45.7630957 73.53598633 -45.17822266 72.71337891 C-44.58315918 71.85921387 -43.9880957 71.00504883 -43.375 70.125 C-27.06089148 47.39556454 -27.06089148 47.39556454 -18 44 C-14.09090532 43.41539665 -10.77236037 43.74254654 -7 45 C-5.10529184 45.0685495 -3.2083166 45.08480372 -1.3125 45.0625 C0.17830078 45.04896484 0.17830078 45.04896484 1.69921875 45.03515625 C2.83810547 45.01775391 2.83810547 45.01775391 4 45 C2.63005818 48.69277829 0.94882822 51.92319076 -1.1171875 55.2734375 C-1.72433594 56.2634375 -2.33148438 57.2534375 -2.95703125 58.2734375 C-3.58996094 59.29695313 -4.22289062 60.32046875 -4.875 61.375 C-10.56460952 70.61234759 -10.56460952 70.61234759 -16 80 C-10.89735236 78.06770486 -8.47560819 73.65868295 -5.31640625 69.43359375 C-2.79720788 66.78694858 -1.5793343 66.25882311 2 66 C-1.28599974 75.53111966 -9.49313955 83.79963823 -18 89 C-21.63027935 90.6251832 -24.10762654 91.29745782 -28 90 C-29.1875 87.4375 -29.1875 87.4375 -30 85 C-30.49628906 85.3609375 -30.99257813 85.721875 -31.50390625 86.09375 C-36.12193399 89.24837996 -39.21926054 90.80930352 -45 90 C-47.1385485 87.8614515 -47.42655063 86.86724686 -48 84 C-48.4846875 84.433125 -48.969375 84.86625 -49.46875 85.3125 C-52.93888305 88.19537976 -55.68354342 90.436063 -60.3125 90.625 C-64 90 -64 90 -66 88.5 C-69.11903194 80.70242015 -65.77105806 73.42247695 -63 66 C-65.45224694 66.10613836 -65.45224694 66.10613836 -68 67 C-69.16361947 69.29283209 -69.16361947 69.29283209 -70 72 C-75.14451939 79.62016839 -81.42322447 86.33371878 -90 90 C-93.40095595 90.50263648 -96.84196186 90.85273718 -99.71875 88.734375 C-102.13848942 85.45887407 -101.52877404 81.88168212 -101 78 C-97.69157937 65.59342262 -88.38862066 53.62705705 -77.79296875 46.51953125 C-74.00793662 44.51483928 -70.31892043 43.19631456 -66 43 C-63.25045672 43.96605575 -62.30992243 44.38015514 -61 47 C-61.120296 52.22824939 -61.63727444 57.27454887 -64 62 C-60.48654468 60.82884823 -60.31283473 60.29121428 -58.6171875 57.16796875 C-58.17681152 56.37511475 -57.73643555 55.58226074 -57.28271484 54.76538086 C-56.81816895 53.91468018 -56.35362305 53.06397949 -55.875 52.1875 C-49.17227966 40.27957004 -41.42059727 29.93307776 -32 20 C-31.54222168 19.50967285 -31.08444336 19.0193457 -30.61279297 18.51416016 C-12.61433724 -0.67576807 -12.61433724 -0.67576807 0 0 Z M-11.4375 10.3125 C-12.31631836 11.06176758 -12.31631836 11.06176758 -13.21289062 11.82617188 C-15.90719658 14.13514009 -18.51159524 16.46794716 -21 19 C-20.67 19.66 -20.34 20.32 -20 21 C-19.071875 19.824375 -19.071875 19.824375 -18.125 18.625 C-14.52998931 14.94662674 -9.90939462 14.63869794 -5 14 C-4.34 11.03 -3.68 8.06 -3 5 C-6.51685207 5 -8.87944936 8.09552278 -11.4375 10.3125 Z M-23 22 C-31.22064942 31.23785099 -37.57258261 41.47749774 -44 52 C-39.83048082 52 -38.80585535 50.27042164 -35.8125 47.4375 C-32.51506676 44.34384072 -29.20718133 41.29093963 -25.75 38.375 C-21.80502679 34.94352537 -18.10401009 31.21951371 -15 27 C-15 26.34 -15 25.68 -15 25 C-13.68 24.67 -12.36 24.34 -11 24 C-11.69867188 23.93941406 -12.39734375 23.87882812 -13.1171875 23.81640625 C-14.02726562 23.73261719 -14.93734375 23.64882813 -15.875 23.5625 C-16.77992188 23.48128906 -17.68484375 23.40007813 -18.6171875 23.31640625 C-21 23 -21 23 -23 22 Z M-72.8125 51.1875 C-75.26859902 53.75150023 -75.26859902 53.75150023 -75 56.625 C-73.97818776 59.05180407 -73.01459133 60.33577238 -71 62 C-67.66624167 61.26950539 -67.66624167 61.26950539 -66.25 57.75 C-65.02639358 54.07918075 -64.80536321 52.58391038 -66 49 C-70.06760656 48.59070626 -70.06760656 48.59070626 -72.8125 51.1875 Z M-12 49 C-21.6877884 55.33828709 -29.9729716 65.03098122 -34 76 C-33.7422922 78.74568362 -33.7422922 78.74568362 -33 81 C-26.66963835 77.64578081 -23.61718283 72.55332117 -19.8125 66.625 C-19.19697266 65.69171875 -18.58144531 64.7584375 -17.94726562 63.796875 C-15.01391366 59.30945032 -12.24111143 54.87339867 -10 50 C-10.66 49.67 -11.32 49.34 -12 49 Z M-80 60 C-85.11277805 66.3171738 -87.86686413 71.87871223 -88 80 C-87.34 80.33 -86.68 80.66 -86 81 C-80.22124475 78.18871366 -75.53972653 73.30958979 -72 68 C-71.76098289 65.87092681 -71.76098289 65.87092681 -73 64 C-76.03626074 60.94097032 -76.03626074 60.94097032 -80 60 Z " fill="#000000" transform="translate(318,1)"/>
<path d="M0 0 C2.63743546 1.58246127 2.94008314 2.79720448 3.8125 5.75 C4.03226627 9.55928204 3.22126982 12.40802993 2 16 C7.73816415 13.06716054 12.37441828 9.32071111 17.25390625 5.12109375 C21.23523516 2.04589944 24.61016919 0.1677382 29.625 -0.4375 C33 0 33 0 35.5 1.4375 C37.47435483 4.81035617 37.29693709 7.00482891 36.67578125 10.80078125 C35.60496465 14.28557747 33.97447988 15.97194554 31 18 C28.1875 17.8125 28.1875 17.8125 26 17 C25.62745431 13.64708882 25.68949802 12.3961577 27.8125 9.6875 C30 8 30 8 33 8 C33 7.34 33 6.68 33 6 C21.71602528 10.28791039 16.15197579 18.03337439 11.0625 28.8125 C9.97218466 32.08344601 9.74957272 34.57749382 10 38 C17.01558903 37.85073215 21.07665904 34.85244485 26 30 C28.34022005 27.2470097 30.5118792 24.36751047 32.69555664 21.48999023 C39.08295101 13.14168021 46.69431303 3.26346754 57 0 C60.8125 0.25 60.8125 0.25 62.76953125 0.63671875 C67.13418052 1.34759858 71.58957825 1.07296654 76 1 C74.723954 4.3818197 73.26522727 7.42341462 71.390625 10.51171875 C70.88273437 11.35283203 70.37484375 12.19394531 69.8515625 13.06054688 C69.32304687 13.92744141 68.79453125 14.79433594 68.25 15.6875 C67.73695313 16.53505859 67.22390625 17.38261719 66.6953125 18.25585938 C65.66083101 19.96483319 64.62502817 21.67300787 63.58789062 23.38037109 C61.04356049 27.57788991 58.52163694 31.78882123 56 36 C60.76806903 33.2089352 63.81067224 30.07685291 67.19140625 25.70703125 C69.40154701 23.62100207 71.02448805 23.34078513 74 23 C72.50341631 27.81236793 69.81612458 30.840714 66.4375 34.4375 C65.6338501 35.29637817 65.6338501 35.29637817 64.81396484 36.17260742 C59.81004723 41.39651844 54.90083324 46.20538582 47.625 47.6875 C45 47 45 47 43.125 44.5 C42.568125 43.2625 42.568125 43.2625 42 42 C41.23816406 42.54140625 41.23816406 42.54140625 40.4609375 43.09375 C36.22287423 45.9508713 33.29452465 47.86189936 28 47 C27.01 46.34 26.02 45.68 25 45 C24.3125 41.375 24.3125 41.375 24 38 C23.40832031 38.48210938 22.81664062 38.96421875 22.20703125 39.4609375 C21.41683594 40.09257813 20.62664062 40.72421875 19.8125 41.375 C19.03519531 42.00148437 18.25789063 42.62796875 17.45703125 43.2734375 C12.5454461 46.72482166 7.91168497 47.91959544 2 47 C-1.08876119 45.48847857 -2.52523582 44.37123068 -3.6640625 41.08203125 C-4.69478829 35.37261878 -3.30519441 31.25430247 -0.91015625 26.06640625 C0.13436215 24.07127402 0.13436215 24.07127402 0 22 C-2.68350663 24.47708304 -4.62059946 27.24817285 -6.6875 30.25 C-12.05144789 37.67323319 -18.18769267 43.91020759 -27 47 C-30.64848732 47.56130574 -32.19321977 47.46708329 -35.375 45.625 C-38.00391554 41.37829027 -37.92933524 37.85036612 -37 33 C-32.22654375 20.04347588 -23.66026781 9.48980706 -12 2 C-7.81713207 0.07588075 -4.63001681 -0.42870526 0 0 Z M-6.625 6 C-9.37002592 7.90000388 -9.37002592 7.90000388 -9.8125 11.6875 C-9.874375 12.780625 -9.93625 13.87375 -10 15 C-7.04622502 17.36980013 -7.04622502 17.36980013 -3 17 C-0.67409146 13.36576791 -0.83734167 10.22911669 -1 6 C-3.95162767 4.66432534 -3.95162767 4.66432534 -6.625 6 Z M53 11 C51.22561903 13.05988287 49.56172468 15.08211391 47.9375 17.25 C47.50775879 17.81775146 47.07801758 18.38550293 46.63525391 18.97045898 C40.24259483 27.19966785 40.24259483 27.19966785 38 37 C43.77067726 36.06353045 46.70984169 31.48782578 50 27 C57.84621057 17.13556778 57.84621057 17.13556778 62 6 C57.81703387 6 55.86268628 8.22132439 53 11 Z M-15 16 C-21.91703255 24.53364012 -21.91703255 24.53364012 -23.625 34.875 C-23.41875 35.57625 -23.2125 36.2775 -23 37 C-16.8087671 36.24628469 -13.88629981 32.59216219 -10 28 C-8.46122614 25.71112746 -7.23684432 23.47368865 -6 21 C-8.97 19.35 -11.94 17.7 -15 16 Z " fill="#000000" transform="translate(100,22)"/>
<path d="M0 0 C2.79717815 0.45535458 4.00368855 0.120652 6.6875 -0.5625 C20.80307898 -1.95804347 31.78557083 4.81996313 43.6875 11.4375 C42.78265208 12.59268918 41.8630794 13.73635406 40.9375 14.875 C40.42703125 15.51308594 39.9165625 16.15117187 39.390625 16.80859375 C37.34376166 18.76625892 36.53361164 19.37737088 33.6875 19.4375 C31.29875596 18.29902224 29.17233665 17.13635731 26.9375 15.75 C25.67909699 15.0027067 24.41998704 14.25660249 23.16015625 13.51171875 C22.5583252 13.15126465 21.95649414 12.79081055 21.33642578 12.41943359 C15.24390108 8.79134145 9.68732315 6.66895037 2.6875 5.4375 C2.64625 6.675 2.605 7.9125 2.5625 9.1875 C1.40384222 19.1456939 -4.04296975 26.85966842 -11.06640625 33.6953125 C-14.53914105 36.3889468 -17.09639217 37.53288101 -21.5 37.1875 C-24.3125 36.4375 -24.3125 36.4375 -26.3125 34.4375 C-26.3125 25.70413855 -23.11723457 19.32001449 -17.01953125 13.09765625 C-13.90764364 10.29035797 -10.8009544 7.76313627 -7.3125 5.4375 C-28.58201805 11.91757183 -44.72542965 32.80489807 -55.25537109 51.44580078 C-59.57800802 59.58992828 -63.29442447 69.10593896 -61.3125 78.4375 C-60.07495242 80.26912366 -60.07495242 80.26912366 -58.3125 81.4375 C-53.64568231 82.06572546 -50.21669343 81.51336353 -46.20703125 78.9609375 C-39.15237886 73.28812424 -32.38573326 65.87689953 -30.859375 56.71875 C-30.59995532 54.28839718 -30.41256483 51.87908173 -30.3125 49.4375 C-36.52152632 52.30320446 -38.88485761 55.08125353 -41.3125 61.4375 C-41.6425 62.4275 -41.9725 63.4175 -42.3125 64.4375 C-44.78125 66.19140625 -44.78125 66.19140625 -47.8125 68 C-51.72130837 70.09165979 -51.72130837 70.09165979 -54.3125 73.4375 C-54.9725 73.4375 -55.6325 73.4375 -56.3125 73.4375 C-55.99226011 65.1112629 -52.8983533 57.40878091 -47.27734375 51.18359375 C-41.8695976 46.34189206 -37.72322298 43.91526642 -30.375 44.1328125 C-28.3125 44.4375 -28.3125 44.4375 -26.25 45.9375 C-23.59046306 53.02959849 -25.7266866 58.72201064 -28.703125 65.34375 C-33.29365133 74.16825693 -38.96844823 81.00279017 -47.3125 86.4375 C-47.94800781 86.870625 -48.58351562 87.30375 -49.23828125 87.75 C-54.92066665 91.13825465 -60.84666626 91.33780596 -67.3125 90.4375 C-72.48220799 87.98869095 -74.990961 84.92155737 -77 79.625 C-79.12278894 64.76547745 -71.66890791 50.1701164 -63.125 38.4375 C-48.3619221 19.48121174 -26.44230265 -4.49020234 0 0 Z M-13.3125 15.4375 C-16.8319994 19.38039783 -20.28013333 23.51330811 -22.3125 28.4375 C-22.00871948 31.12743053 -22.00871948 31.12743053 -21.3125 33.4375 C-12.68452357 31.02969262 -8.64154418 25.96572053 -4.3125 18.4375 C-2.71966069 14.87891586 -2.08900668 12.3486331 -2.3125 8.4375 C-6.57914408 8.4375 -10.27774981 12.72010931 -13.3125 15.4375 Z " fill="#000000" transform="translate(249.3125,0.5625)"/>
<path d="M0 0 C1.82455951 3.38846767 1.77910813 5.63797663 1.3125 9.4375 C-0.17561367 12.55545244 -1.87373176 15.38128475 -4.6875 17.4375 C-7.375 17.625 -7.375 17.625 -9.6875 17.4375 C-10.43528098 14.74548849 -10.8383614 12.9655149 -10.0625 10.25 C-8.26437243 7.87974093 -6.48157853 7.31984059 -3.6875 6.4375 C-3.6875 5.7775 -3.6875 5.1175 -3.6875 4.4375 C-15.55339558 4.66138482 -23.71034676 12.86874019 -31.61767578 20.89477539 C-40.18636611 29.90078891 -46.67244701 40.05718744 -51.6875 51.4375 C-52.0278125 52.20578125 -52.368125 52.9740625 -52.71875 53.765625 C-55.27074125 60.33463952 -56.12159559 67.84353276 -53.99609375 74.65234375 C-51.78470454 79.0288588 -49.10885958 80.65450559 -44.6875 82.4375 C-42.01940887 82.75437841 -39.66667965 82.91073323 -37.0078125 82.87109375 C-36.27273468 82.86476425 -35.53765686 82.85843475 -34.78030396 82.85191345 C-25.81339668 82.60693437 -17.25457594 80.56423644 -8.5625 78.5 C-6.11044304 77.93564921 -3.65726279 77.37647145 -1.2036438 76.81895447 C0.30350249 76.47462446 1.80956519 76.12549957 3.3142395 75.77052307 C19.0175167 72.10250241 36.60752079 70.80373016 50.859375 79.53125 C56.10524845 82.95303429 60.57014242 86.34897063 64.3125 91.4375 C58.3125 89.4375 58.3125 89.4375 56.40234375 88.63671875 C49.45820297 85.89800154 40.25440054 84.33900914 33.1875 87.33984375 C31.44875262 88.52223017 31.44875262 88.52223017 29.3125 90.4375 C26.3125 90.4375 26.3125 90.4375 24.8046875 89.1953125 C24.27101563 88.65648438 23.73734375 88.11765625 23.1875 87.5625 C16.25459832 81.42565175 7.13467483 81.92090001 -1.6875 82.4375 C-7.04540403 83.2119209 -12.32647478 84.2728917 -17.625 85.375 C-19.02127139 85.65665688 -20.41775546 85.93726152 -21.81445312 86.21679688 C-26.34338051 87.12628062 -30.86875197 88.05293558 -35.38818359 89.00854492 C-44.35330012 90.68105604 -53.83230598 90.62062756 -61.76953125 85.84765625 C-67.20159211 81.85381925 -69.19328849 76.8366232 -70.6875 70.4375 C-72.10700806 56.24241944 -65.74025458 41.81997581 -57.3125 30.6875 C-56.11840888 29.25880819 -54.90961792 27.84229239 -53.6875 26.4375 C-53.04425781 25.65117187 -52.40101562 24.86484375 -51.73828125 24.0546875 C-41.47893212 11.95586173 -17.29603979 -10.05583709 0 0 Z " fill="#000000" transform="translate(100.6875,1.5625)"/>
<path d="M0 0 C3.58875 -0.061875 3.58875 -0.061875 7.25 -0.125 C7.99668945 -0.14320801 8.74337891 -0.16141602 9.51269531 -0.18017578 C13.17143856 -0.21068171 15.96432456 -0.14901776 19 2 C20.26026798 4.52053595 19.91874445 5.8542098 19.5625 8.625 C19.46066406 9.44226563 19.35882813 10.25953125 19.25390625 11.1015625 C19.17011719 11.72804687 19.08632812 12.35453125 19 13 C19.99 13.33 20.98 13.66 22 14 C22.4813154 20.25710015 22.4813154 20.25710015 20.5625 23.21875 C16.73158131 25.88170567 13.28848288 25.43296417 8.75 25.25 C5.8625 25.1675 2.975 25.085 0 25 C0 16.75 0 8.5 0 0 Z M4 4 C4 6.31 4 8.62 4 11 C5.4370809 11.05422947 6.87475462 11.09289723 8.3125 11.125 C9.51326172 11.15980469 9.51326172 11.15980469 10.73828125 11.1953125 C13.28388576 11.15817322 13.28388576 11.15817322 16 9 C15.50243908 6.24358584 15.50243908 6.24358584 14 4 C12.31391034 3.92794489 10.62499341 3.91613932 8.9375 3.9375 C8.01839844 3.94652344 7.09929687 3.95554688 6.15234375 3.96484375 C5.44207031 3.97644531 4.73179688 3.98804688 4 4 Z M4 14 C4 16.31 4 18.62 4 21 C5.95803507 21.05389087 7.91648909 21.09274217 9.875 21.125 C10.96554688 21.14820313 12.05609375 21.17140625 13.1796875 21.1953125 C16.1371051 21.30060534 16.1371051 21.30060534 18 19 C17.83333333 16.91666667 17.83333333 16.91666667 17 15 C14.35541621 13.67770811 12.32238699 13.90322806 9.375 13.9375 C7.87066406 13.95103516 7.87066406 13.95103516 6.3359375 13.96484375 C5.17964844 13.98224609 5.17964844 13.98224609 4 14 Z " fill="#000000" transform="translate(93,137)"/>
<path d="M0 0 C0.99 0 1.98 0 3 0 C4.32 0 5.64 0 7 0 C7.08115993 3.06303578 7.14057409 6.12390815 7.1875 9.1875 C7.21263672 10.05181641 7.23777344 10.91613281 7.26367188 11.80664062 C7.3197835 16.68835222 7.25490183 20.067322 4 24 C1.26922124 25.36538938 -0.95560367 25.13231826 -4 25.125 C-5.60875 25.12886719 -5.60875 25.12886719 -7.25 25.1328125 C-10 25 -10 25 -12 24 C-11.34 22.68 -10.68 21.36 -10 20 C-8.01432292 20.29296875 -6.02864583 20.5859375 -4.04296875 20.87890625 C-1.7974658 21.13904799 -1.7974658 21.13904799 1 20 C1 19.34 1 18.68 1 18 C0.40832031 18.04640625 -0.18335938 18.0928125 -0.79296875 18.140625 C-5.01985618 18.33369653 -7.3248392 18.4219755 -11 16.125 C-13.37317421 13.6035024 -13.93025694 12.62768757 -14.3125 9.1875 C-13.92835642 5.2692355 -12.70743683 3.78706733 -10 1 C-6.83598119 -0.58200941 -3.46125163 -0.06168567 0 0 Z M-9 6 C-10.1576585 7.87957244 -10.1576585 7.87957244 -10 10 C-8.66878614 12.45223606 -7.6263908 13.6868046 -5.125 14.9375 C-1.98203237 15.02994022 -0.43802132 13.91088157 2 12 C3.1576585 10.12042756 3.1576585 10.12042756 3 8 C1.66878614 5.54776394 0.6263908 4.3131954 -1.875 3.0625 C-5.01796763 2.97005978 -6.56197868 4.08911843 -9 6 Z " fill="#000000" transform="translate(232,143)"/>
<path d="M0 0 C1.32 0 2.64 0 4 0 C4 8.58 4 17.16 4 26 C2.35 25.67 0.7 25.34 -1 25 C-1.66 25.33 -2.32 25.66 -3 26 C-10.08958838 26.5811138 -10.08958838 26.5811138 -13.9375 24.125 C-16.60446101 21.37722199 -16.95824498 20.553254 -17.25 16.6875 C-16.97743907 12.66722631 -16.71202334 10.96627553 -14 8 C-10.13098393 6.24135633 -7.10110934 5.67884311 -3 6.875 C-2.34 7.24625 -1.68 7.6175 -1 8 C-0.67 5.36 -0.34 2.72 0 0 Z M-12 12 C-13.08333333 15.41666667 -13.08333333 15.41666667 -13 19 C-11.60655493 21.20017642 -10.45507341 21.78763241 -8.125 22.875 C-4.92836418 23.0630374 -3.44946754 21.98605476 -1 20 C0.33333333 17.66666667 0.33333333 17.66666667 0 15 C-2.14606522 12.10387764 -2.14606522 12.10387764 -5 10 C-8.21812786 10 -9.4664092 10.05758039 -12 12 Z " fill="#000000" transform="translate(76,103)"/>
<path d="M0 0 C1.32 0 2.64 0 4 0 C4 3.3 4 6.6 4 10 C8.95 10 13.9 10 19 10 C19 6.7 19 3.4 19 0 C20.32 0 21.64 0 23 0 C23 8.25 23 16.5 23 25 C21.68 25 20.36 25 19 25 C19 21.37 19 17.74 19 14 C14.05 14 9.1 14 4 14 C4 17.63 4 21.26 4 25 C2.68 25 1.36 25 0 25 C0 16.75 0 8.5 0 0 Z " fill="#000000" transform="translate(0,104)"/>
<path d="M0 0 C3.0625 1.8125 3.0625 1.8125 5 5 C5.3956155 8.70629256 5.29246282 12.28897176 5 16 C5.66 16 6.32 16 7 16 C7 16.99 7 17.98 7 19 C4.33333333 19 1.66666667 19 -1 19 C-1.928125 19.20625 -2.85625 19.4125 -3.8125 19.625 C-7.45048698 20.05299847 -9.63865849 19.36054299 -13 18 C-13.6875 14.6875 -13.6875 14.6875 -14 11 C-12.23468433 8.3520265 -11.06900421 8.0230014 -8 7 C-6.60560336 6.93334624 -5.20830125 6.91461801 -3.8125 6.9375 C-1.9253125 6.9684375 -1.9253125 6.9684375 0 7 C-0.79068247 4.86897681 -0.79068247 4.86897681 -2.6875 4.3125 C-5.62480602 3.91556675 -8.11159734 4.40919037 -11 5 C-11.66 4.01 -12.32 3.02 -13 2 C-8.67103025 -0.44424823 -4.88328358 -0.79939874 0 0 Z M-10 12 C-10 12.99 -10 13.98 -10 15 C-5.68126188 16.142042 -5.68126188 16.142042 -1.625 14.6875 C0.2312139 13.15034461 0.2312139 13.15034461 0 11 C-1.27875 10.979375 -2.5575 10.95875 -3.875 10.9375 C-4.59429687 10.92589844 -5.31359375 10.91429687 -6.0546875 10.90234375 C-8.08185404 10.87350758 -8.08185404 10.87350758 -10 12 Z " fill="#000000" transform="translate(210,143)"/>
<path d="M0 0 C2.6875 1.3125 2.6875 1.3125 4 4 C4.30282769 7.69237268 4.22933145 11.30521553 4 15 C4.66 15 5.32 15 6 15 C6 16.32 6 17.64 6 19 C4.88625 18.814375 3.7725 18.62875 2.625 18.4375 C-0.82568861 17.68319343 -0.82568861 17.68319343 -3 19 C-10.22330097 19.46601942 -10.22330097 19.46601942 -13.5 17.5 C-13.995 17.005 -14.49 16.51 -15 16 C-14.75 12.625 -14.75 12.625 -14 9 C-11.19625055 7.09745573 -8.58299564 6.66908785 -5.25 6.375 C-4.45078125 6.30023438 -3.6515625 6.22546875 -2.828125 6.1484375 C-2.22484375 6.09945312 -1.6215625 6.05046875 -1 6 C-1 5.34 -1 4.68 -1 4 C-4.63 4.33 -8.26 4.66 -12 5 C-12.33 3.68 -12.66 2.36 -13 1 C-9.04762114 -0.97618943 -4.30927604 -0.42010667 0 0 Z M-10 11 C-10 12.32 -10 13.64 -10 15 C-7.6984589 15.77802187 -7.6984589 15.77802187 -5 16 C-2.6549514 14.80453646 -2.6549514 14.80453646 -1 13 C-1 12.34 -1 11.68 -1 11 C-3.97 11 -6.94 11 -10 11 Z " fill="#000000" transform="translate(281,110)"/>
<path d="M0 0 C2.6875 1.875 2.6875 1.875 4 5 C4.29268695 8.36333245 4.235234 11.63484696 4 15 C4.66 15 5.32 15 6 15 C6 16.32 6 17.64 6 19 C4.88625 18.814375 3.7725 18.62875 2.625 18.4375 C-0.82568861 17.68319343 -0.82568861 17.68319343 -3 19 C-5.05859375 19.203125 -5.05859375 19.203125 -7.4375 19.25 C-8.21996094 19.27578125 -9.00242188 19.3015625 -9.80859375 19.328125 C-12 19 -12 19 -13.7890625 17.70703125 C-15 16 -15 16 -14.9375 12.4375 C-14 9 -14 9 -12.23828125 7.82421875 C-9.8539157 6.94620631 -7.77733786 6.5980004 -5.25 6.375 C-4.45078125 6.30023438 -3.6515625 6.22546875 -2.828125 6.1484375 C-2.22484375 6.09945312 -1.6215625 6.05046875 -1 6 C-1.66 5.34 -2.32 4.68 -3 4 C-5.22128555 3.97691403 -5.22128555 3.97691403 -7.625 4.375 C-8.44226563 4.48585938 -9.25953125 4.59671875 -10.1015625 4.7109375 C-10.72804687 4.80632812 -11.35453125 4.90171875 -12 5 C-12.33 3.68 -12.66 2.36 -13 1 C-9.03377821 -0.98311089 -4.31411808 -0.53528201 0 0 Z M-10 11 C-10 12.32 -10 13.64 -10 15 C-7.6984589 15.77802187 -7.6984589 15.77802187 -5 16 C-2.6549514 14.80453646 -2.6549514 14.80453646 -1 13 C-1 12.34 -1 11.68 -1 11 C-3.97 11 -6.94 11 -10 11 Z " fill="#000000" transform="translate(156,110)"/>
<path d="M0 0 C2.6875 1.3125 2.6875 1.3125 4 4 C4.30282769 7.69237268 4.22933145 11.30521553 4 15 C4.66 15 5.32 15 6 15 C6 16.32 6 17.64 6 19 C4.88625 18.814375 3.7725 18.62875 2.625 18.4375 C-0.82568861 17.68319343 -0.82568861 17.68319343 -3 19 C-10.22330097 19.46601942 -10.22330097 19.46601942 -13.5 17.5 C-13.995 17.005 -14.49 16.51 -15 16 C-14.75 12.625 -14.75 12.625 -14 9 C-11.19625055 7.09745573 -8.58299564 6.66908785 -5.25 6.375 C-4.45078125 6.30023438 -3.6515625 6.22546875 -2.828125 6.1484375 C-2.22484375 6.09945312 -1.6215625 6.05046875 -1 6 C-1 5.34 -1 4.68 -1 4 C-4.63 4.33 -8.26 4.66 -12 5 C-12.33 3.68 -12.66 2.36 -13 1 C-9.04762114 -0.97618943 -4.30927604 -0.42010667 0 0 Z M-10 11 C-10 12.32 -10 13.64 -10 15 C-7.760165 15.95020416 -7.760165 15.95020416 -5 16 C-2.16588845 13.666508 -2.16588845 13.666508 0 11 C-3.3 11 -6.6 11 -10 11 Z " fill="#000000" transform="translate(370,110)"/>
<path d="M0 0 C0.9384375 -0.00515625 1.876875 -0.0103125 2.84375 -0.015625 C5.54047676 0.25404768 7.18949293 0.8767741 9.5 2.25 C9.17 3.57 8.84 4.89 8.5 6.25 C7.93410156 6.08757812 7.36820313 5.92515625 6.78515625 5.7578125 C4.42825745 5.23405721 2.34837338 5.11684138 -0.0625 5.125 C-0.82691406 5.12242188 -1.59132812 5.11984375 -2.37890625 5.1171875 C-4.68998495 5.17092616 -4.68998495 5.17092616 -7.5 6.25 C-8.99084832 10.72254497 -8.99084832 14.77745503 -7.5 19.25 C-4.70251159 20.18249614 -2.95679119 20.38476152 -0.0625 20.375 C0.69933594 20.37757812 1.46117187 20.38015625 2.24609375 20.3828125 C4.45315859 20.25276015 6.37969276 19.85856199 8.5 19.25 C8.83 20.57 9.16 21.89 9.5 23.25 C4.70676632 26.06293056 -0.09021415 25.87722155 -5.5 25.25 C-9.35314485 23.46103989 -11.00837224 21.94779425 -13.4375 18.5 C-14.77927006 14.39576215 -14.7572166 11.36993277 -13.5 7.25 C-9.95844521 1.63236137 -6.5355063 -0.03590938 0 0 Z " fill="#000000" transform="translate(211.5,103.75)"/>
<path d="M0 0 C2.6875 2 2.6875 2 4 4 C2.125 5.0625 2.125 5.0625 0 6 C-0.66 5.67 -1.32 5.34 -2 5 C-7.56243657 4.45715654 -7.56243657 4.45715654 -12.5 6.5625 C-14.58392818 9.94888329 -14.55802097 12.09385318 -14 16 C-12.71107713 18.62283334 -12.71107713 18.62283334 -10 20 C-6.96833975 20.33932344 -4.03781887 20.19253782 -1 20 C0.32 20 1.64 20 3 20 C3.33 20.99 3.66 21.98 4 23 C-0.78958032 25.81078657 -5.59376282 25.63464523 -11 25 C-15.43793873 22.86027954 -18.08717799 20.56951925 -20 16 C-20.53952431 10.96443974 -20.04234376 8.05645834 -17 4 C-12.62303764 -1.10645608 -6.27995652 -0.7238872 0 0 Z " fill="#000000" transform="translate(316,104)"/>
<path d="M0 0 C3.25058956 2.37022156 4.6569868 3.92195851 5.875 7.75 C5.91625 8.4925 5.9575 9.235 6 10 C5 11 5 11 1.62109375 11.09765625 C0.22652923 11.09098369 -1.16801743 11.07902532 -2.5625 11.0625 C-3.27341797 11.05798828 -3.98433594 11.05347656 -4.71679688 11.04882812 C-6.47790013 11.03700864 -8.23896036 11.01907263 -10 11 C-8.30316888 13.11452022 -8.30316888 13.11452022 -6 15 C-3.62537209 15.26978939 -3.62537209 15.26978939 -1.25 14.75 C-0.45078125 14.62109375 0.3484375 14.4921875 1.171875 14.359375 C1.77515625 14.24078125 2.3784375 14.1221875 3 14 C3 15.32 3 16.64 3 18 C-1.33782222 20.23463569 -4.29003174 20.17749207 -9 19 C-11.70567626 17.17660948 -13.53728718 15.92542564 -15 13 C-15.39447548 8.81855989 -15.45035186 6.69053952 -13.125 3.125 C-9.26848573 -0.73151427 -5.24779417 -0.80665575 0 0 Z M-10 6 C-10 6.66 -10 7.32 -10 8 C-6.37 8 -2.74 8 1 8 C-0.49005926 4.03823842 -0.49005926 4.03823842 -2.8125 3.0625 C-5.93380429 2.97331988 -7.54548299 4.15911224 -10 6 Z " fill="#000000" transform="translate(257,143)"/>
<path d="M0 0 C3 1.5625 3 1.5625 5 4 C5.33 6.31 5.66 8.62 6 11 C0.72 11 -4.56 11 -10 11 C-6.66152549 15.21029189 -6.66152549 15.21029189 -3.640625 15.171875 C-2.85171875 15.03265625 -2.0628125 14.8934375 -1.25 14.75 C-0.45078125 14.62109375 0.3484375 14.4921875 1.171875 14.359375 C1.77515625 14.24078125 2.3784375 14.1221875 3 14 C3.99 15.485 3.99 15.485 5 17 C-0.16591203 19.85773857 -3.32016385 20.39412097 -9.046875 18.796875 C-11.72940074 17.7024045 -12.79629412 16.63310661 -14 14 C-15.35824036 10.41036478 -15.00861317 9.02540885 -13.75 5.3125 C-10.53544294 -0.77219729 -6.26682909 -0.86856052 0 0 Z M-10 6 C-10 6.66 -10 7.32 -10 8 C-6.04 8 -2.08 8 2 8 C0.37660195 6.29115995 -1.29319053 4.62553283 -3 3 C-5.94271444 3 -7.61500243 4.36815955 -10 6 Z " fill="#000000" transform="translate(132,143)"/>
<path d="M0 0 C2.9375 1.5625 2.9375 1.5625 5 4 C5.33 6.31 5.66 8.62 6 11 C1.05 11.33 -3.9 11.66 -9 12 C-6.41433359 15.27130881 -6.41433359 15.27130881 -3.51953125 15.07421875 C-2.62621094 14.94660156 -1.73289063 14.81898438 -0.8125 14.6875 C0.08855469 14.56761719 0.98960937 14.44773438 1.91796875 14.32421875 C2.94857422 14.16373047 2.94857422 14.16373047 4 14 C4 15.32 4 16.64 4 18 C-4.43036846 20.65719097 -4.43036846 20.65719097 -8.9375 18.8125 C-12 17 -12 17 -14 14 C-14.67226891 7.05322129 -14.67226891 7.05322129 -12.125 3.0625 C-8.47172965 -0.48332122 -4.92504018 -0.660446 0 0 Z M-9 5 C-9.33 5.99 -9.66 6.98 -10 8 C-6.04 8 -2.08 8 2 8 C0.51074581 3.88036585 0.51074581 3.88036585 -2.375 3.125 C-5.31829582 2.98484306 -6.61493049 3.29637892 -9 5 Z " fill="#000000" transform="translate(174,143)"/>
<path d="M0 0 C1.78100875 3.14295661 2.3038394 6.32194766 2.0625 9.875 C-0.80169753 15.30709877 -0.80169753 15.30709877 -3.9375 16.875 C-8.15175336 17.30553276 -11.87503888 17.25929445 -15.875 15.8125 C-18.84889603 13.01884009 -19.40125818 10.89681367 -19.9375 6.875 C-18.77340075 2.21860299 -17.79862199 0.43219658 -13.75 -2.1875 C-8.45363364 -3.48988517 -4.80949886 -2.79261224 0 0 Z M-13.9375 2.875 C-15.02083333 6.29166667 -15.02083333 6.29166667 -14.9375 9.875 C-13.54405493 12.07517642 -12.39257341 12.66263241 -10.0625 13.75 C-7.78406461 14.02488171 -7.78406461 14.02488171 -5.1875 12.875 C-2.57553059 10.9778577 -2.57553059 10.9778577 -2.375 7.375 C-2.60404335 3.86987323 -2.60404335 3.86987323 -4.75 1.9375 C-8.24955251 0.23771735 -10.89579542 0.54302649 -13.9375 2.875 Z " fill="#000000" transform="translate(340.9375,112.125)"/>
<path d="M0 0 C3.18559766 2.78739795 3.90081784 4.30572485 4.5 8.5 C3.9231981 12.53761333 2.85349783 14.14650217 0 17 C-3.45739557 18.72869779 -7.21975568 18.48966895 -11 18 C-13.87029869 16.20606332 -15.49131638 15.01736724 -17 12 C-17.44570136 3.97737557 -17.44570136 3.97737557 -15 1 C-9.65734598 -2.20559241 -5.71592887 -2.71537619 0 0 Z M-13 6 C-12.75068619 9.73970715 -12.60919479 11.45849352 -9.75 14 C-7.04283724 15.26762693 -7.04283724 15.26762693 -4.3125 14.375 C-1.73221128 13.06597401 -1.73221128 13.06597401 0 10 C-0.16065469 6.78690612 -0.54321084 5.44156286 -2.875 3.1875 C-7.44673799 0.63270524 -9.45363577 2.93287418 -13 6 Z " fill="#000000" transform="translate(240,111)"/>
<path d="M0 0 C1.65 0 3.3 0 5 0 C5.33 4.62 5.66 9.24 6 14 C8.31 14 10.62 14 13 14 C14.00259507 10.99221479 14.30314642 8.46179353 14.5625 5.3125 C14.64628906 4.31863281 14.73007813 3.32476562 14.81640625 2.30078125 C14.87699219 1.54152344 14.93757813 0.78226562 15 0 C16.32 0 17.64 0 19 0 C19 6.27 19 12.54 19 19 C17.35 18.67 15.7 18.34 14 18 C13.67 18.33 13.34 18.66 13 19 C11.07421875 19.2734375 11.07421875 19.2734375 8.6875 19.375 C7.51767578 19.44847656 7.51767578 19.44847656 6.32421875 19.5234375 C4 19 4 19 1.72265625 16.93359375 C-0.43568946 13.25804357 -0.40815524 10.91815275 -0.25 6.6875 C-0.21390625 5.43324219 -0.1778125 4.17898437 -0.140625 2.88671875 C-0.07101563 1.45779297 -0.07101563 1.45779297 0 0 Z " fill="#000000" transform="translate(84,110)"/>
<path d="M0 0 C1.45212891 -0.03867188 1.45212891 -0.03867188 2.93359375 -0.078125 C5.5625 0.25 5.5625 0.25 7.41015625 1.765625 C7.79042969 2.25546875 8.17070313 2.7453125 8.5625 3.25 C4.77993805 5.82214212 1.90543039 5.05424637 -2.4375 4.25 C-3.0975 4.25 -3.7575 4.25 -4.4375 4.25 C-4.1075 4.91 -3.7775 5.57 -3.4375 6.25 C-0.89558722 7.12618584 -0.89558722 7.12618584 2.0625 7.8125 C7.46987564 9.15737564 7.46987564 9.15737564 8.5625 10.25 C8.875 13.125 8.875 13.125 8.5625 16.25 C6.44240074 18.33128737 5.07788323 19.17318808 2.125 19.61328125 C1.279375 19.59652344 0.43375 19.57976562 -0.4375 19.5625 C-1.283125 19.55863281 -2.12875 19.55476563 -3 19.55078125 C-5.55287729 19.23576274 -7.22763935 18.53396996 -9.4375 17.25 C-8.7775 15.93 -8.1175 14.61 -7.4375 13.25 C-5.45182292 13.8359375 -3.46614583 14.421875 -1.48046875 15.0078125 C0.87395413 15.51093748 0.87395413 15.51093748 3.5625 13.25 C2.86382812 13.05664062 2.16515625 12.86328125 1.4453125 12.6640625 C0.53523438 12.40367188 -0.37484375 12.14328125 -1.3125 11.875 C-2.21742187 11.61976562 -3.12234375 11.36453125 -4.0546875 11.1015625 C-6.4375 10.25 -6.4375 10.25 -8.4375 8.25 C-8.1875 4.6875 -8.1875 4.6875 -7.4375 1.25 C-4.85741408 -0.04004296 -2.88008426 0.04589776 0 0 Z " fill="#000000" transform="translate(115.4375,109.75)"/>
<path d="M0 0 C2.54860429 3.5190993 2.20308068 7.03364334 2.125 11.25 C2.10695313 12.51328125 2.08890625 13.7765625 2.0703125 15.078125 C2.04710938 16.04234375 2.02390625 17.0065625 2 18 C0.35 18 -1.3 18 -3 18 C-3.33 13.38 -3.66 8.76 -4 4 C-8.605626 2.49882024 -8.605626 2.49882024 -10.76953125 4.05078125 C-12.48080291 6.76165286 -12.5163915 9.00488184 -12.6875 12.1875 C-12.75324219 13.27417969 -12.81898437 14.36085938 -12.88671875 15.48046875 C-12.92410156 16.31191406 -12.96148437 17.14335937 -13 18 C-14.32 18 -15.64 18 -17 18 C-17 11.73 -17 5.46 -17 -1 C-5.79433681 -2.53502235 -5.79433681 -2.53502235 0 0 Z " fill="#000000" transform="translate(54,111)"/>
<path d="M0 0 C1.28197266 -0.01160156 1.28197266 -0.01160156 2.58984375 -0.0234375 C5.4850126 0.4430826 6.88197953 1.46261778 9.0625 3.375 C8.7325 4.035 8.4025 4.695 8.0625 5.375 C4.1025 5.045 0.1425 4.715 -3.9375 4.375 C-3.11390092 6.60113754 -3.11390092 6.60113754 -0.72265625 7.15625 C0.17582031 7.3934375 1.07429688 7.630625 2 7.875 C6.84527886 9.15777886 6.84527886 9.15777886 9.0625 11.375 C9.41521324 14.12616324 9.52993337 15.704959 7.91796875 18.015625 C5.27640107 19.9509209 3.30175737 19.73910582 0.0625 19.6875 C-1.5153125 19.68169922 -1.5153125 19.68169922 -3.125 19.67578125 C-5.9375 19.375 -5.9375 19.375 -8.9375 17.375 C-8.4425 15.89 -8.4425 15.89 -7.9375 14.375 C-4.3075 14.705 -0.6775 15.035 3.0625 15.375 C3.3925 14.715 3.7225 14.055 4.0625 13.375 C3.28003906 13.17003906 2.49757813 12.96507812 1.69140625 12.75390625 C0.67949219 12.48449219 -0.33242188 12.21507812 -1.375 11.9375 C-2.38433594 11.67066406 -3.39367187 11.40382812 -4.43359375 11.12890625 C-6.9375 10.375 -6.9375 10.375 -7.9375 9.375 C-8.40315365 4.01998305 -8.40315365 4.01998305 -6.73046875 1.703125 C-4.37939848 -0.03840853 -2.90390575 -0.02620065 0 0 Z " fill="#000000" transform="translate(272.9375,142.625)"/>
<path d="M0 0 C2 2 2 2 2.1953125 5.6953125 C2.182009 7.17200108 2.15814835 8.64862358 2.125 10.125 C2.11597656 10.87910156 2.10695312 11.63320312 2.09765625 12.41015625 C2.0740687 14.27357254 2.03819719 16.13682593 2 18 C0.68 18 -0.64 18 -2 18 C-2.33 13.38 -2.66 8.76 -3 4 C-7.88214887 2.41074435 -7.88214887 2.41074435 -11 5 C-11.58592634 8.11610554 -11.58592634 8.11610554 -11.6875 11.625 C-11.75324219 12.81351563 -11.81898438 14.00203125 -11.88671875 15.2265625 C-11.92410156 16.14179687 -11.96148437 17.05703125 -12 18 C-13.32 18 -14.64 18 -16 18 C-16 11.73 -16 5.46 -16 -1 C-5.56818182 -2.15909091 -5.56818182 -2.15909091 0 0 Z " fill="#000000" transform="translate(181,111)"/>
<path d="M0 0 C0 0.99 0 1.98 0 3 C-3 4 -3 4 -5.9375 3.3125 C-9.05883187 2.66583735 -9.05883187 2.66583735 -11.4375 4.625 C-13.29584358 6.91260911 -13.29584358 6.91260911 -12.75 9.75 C-12.5025 10.4925 -12.255 11.235 -12 12 C-7.53763531 13.80619523 -4.68965706 14.11658501 0 13 C0.33 13.99 0.66 14.98 1 16 C-3.23552856 18.82368571 -7.02477314 18.66653757 -12 18 C-14.93423195 16.20353146 -16.47205355 15.0558929 -18 12 C-18.37387586 8.03691587 -18.38935825 5.70084485 -16.4375 2.1875 C-11.04379706 -2.65300264 -6.34248266 -2.32989159 0 0 Z " fill="#000000" transform="translate(264,111)"/>
<path d="M0 0 C1.65 0 3.3 0 5 0 C5.83790789 1.78953185 6.67019396 3.58169695 7.5 5.375 C7.9640625 6.37273437 8.428125 7.37046875 8.90625 8.3984375 C10 11 10 11 10 13 C10.66 13 11.32 13 12 13 C12.19335938 12.39671875 12.38671875 11.7934375 12.5859375 11.171875 C12.84632813 10.37265625 13.10671875 9.5734375 13.375 8.75 C13.63023437 7.96109375 13.88546875 7.1721875 14.1484375 6.359375 C14.95173667 4.13372042 15.89711662 2.09068328 17 0 C18.32 0 19.64 0 21 0 C20.38188466 4.55315948 18.53234107 8.28459767 16.4375 12.3125 C16.10814453 12.95767578 15.77878906 13.60285156 15.43945312 14.26757812 C14.63175745 15.84785228 13.81662387 17.42432105 13 19 C11.35 19 9.7 19 8 19 C6.66042079 16.21128823 5.32941565 13.41856938 4 10.625 C3.6184375 9.8309375 3.236875 9.036875 2.84375 8.21875 C2.4828125 7.45820313 2.121875 6.69765625 1.75 5.9140625 C1.41484375 5.2123291 1.0796875 4.5105957 0.734375 3.78759766 C0 2 0 2 0 0 Z " fill="#000000" transform="translate(138,143)"/>
<path d="M0 0 C0 1.98 0 3.96 0 6 C1.98 6 3.96 6 6 6 C6 6.99 6 7.98 6 9 C4.02 9 2.04 9 0 9 C0.33 12.63 0.66 16.26 1 20 C2.98 20.33 4.96 20.66 7 21 C6.67 22.32 6.34 23.64 6 25 C-0.625 25.25 -0.625 25.25 -4 23 C-4.29296875 19.7421875 -4.29296875 19.7421875 -4.1875 15.875 C-4.16042969 14.59367187 -4.13335937 13.31234375 -4.10546875 11.9921875 C-4.07066406 11.00476563 -4.03585938 10.01734375 -4 9 C-5.32 9 -6.64 9 -8 9 C-8 8.01 -8 7.02 -8 6 C-6.68 6 -5.36 6 -4 6 C-4 4.35 -4 2.7 -4 1 C-2 0 -2 0 0 0 Z " fill="#000000" transform="translate(133,104)"/>
<path d="M0 0 C1.32 0 2.64 0 4 0 C4 7.26 4 14.52 4 22 C5.32 22 6.64 22 8 22 C8 23.32 8 24.64 8 26 C5.125 26.125 5.125 26.125 2 26 C0 24 0 24 -0.22705078 21.56982422 C-0.21657715 20.5748291 -0.20610352 19.57983398 -0.1953125 18.5546875 C-0.18886719 17.47832031 -0.18242187 16.40195313 -0.17578125 15.29296875 C-0.15902344 14.16503906 -0.14226562 13.03710938 -0.125 11.875 C-0.11597656 10.73933594 -0.10695313 9.60367188 -0.09765625 8.43359375 C-0.07403098 5.62218701 -0.04109013 2.81119702 0 0 Z " fill="#000000" transform="translate(346,103)"/>
<path d="M0 0 C2.475 0.495 2.475 0.495 5 1 C5.66 0.67 6.32 0.34 7 0 C8.99960012 -0.039992 11.00047242 -0.04346799 13 0 C13 1.32 13 2.64 13 4 C11.865625 4.28875 10.73125 4.5775 9.5625 4.875 C8.386875 5.24625 7.21125 5.6175 6 6 C4.71553081 8.56893838 4.67022856 10.76576337 4.4375 13.625 C4.31181641 15.12933594 4.31181641 15.12933594 4.18359375 16.6640625 C4.12300781 17.43492187 4.06242188 18.20578125 4 19 C2.68 19 1.36 19 0 19 C0 12.73 0 6.46 0 0 Z " fill="#000000" transform="translate(183,143)"/>
<path d="M0 0 C3.63 0 7.26 0 11 0 C8.525 4.455 8.525 4.455 6 9 C2.37 9 -1.26 9 -5 9 C-3.35 6.03 -1.7 3.06 0 0 Z " fill="#000000" transform="translate(182,23)"/>
<path d="M0 0 C1.65 0 3.3 0 5 0 C5 6.27 5 12.54 5 19 C3.35 19 1.7 19 0 19 C0 12.73 0 6.46 0 0 Z " fill="#000000" transform="translate(28,110)"/>
<path d="M0 0 C2.31 0 4.62 0 7 0 C6.67 1.32 6.34 2.64 6 4 C4.02 4 2.04 4 0 4 C0 2.68 0 1.36 0 0 Z " fill="#000000" transform="translate(287,115)"/>
<path d="M0 0 C1.98 0.495 1.98 0.495 4 1 C3.67 2.32 3.34 3.64 3 5 C1.68 4.67 0.36 4.34 -1 4 C-0.67 2.68 -0.34 1.36 0 0 Z " fill="#000000" transform="translate(29,103)"/>
</svg>
