<?xml version="1.0" encoding="UTF-8"?><svg id="Layer_1" xmlns="http://www.w3.org/2000/svg" viewBox="0 0 544.89 244.99"><defs><style>.cls-1{fill:#f58220;}.cls-1,.cls-2,.cls-3,.cls-4{fill-rule:evenodd;}.cls-2{fill:#58ab40;}.cls-3{fill:#636467;}</style></defs><path class="cls-2" d="M363.26,96.7c-10.69,27.82,6.05,14.25,60.43-17.31,49.47-28.72,80.82-50.25,96.23-79.39,2.17,47.64-22.94,74.29-112.19,129.22-53.75,33.08-72.78,40.1-67.23,19.59,3.16-11.67,5.88-19.65,8.44-26.88-.14,.41,.15-.44,.02-.01,7.29-13.18,10.03-17.25,14.3-25.22"/><path class="cls-1" d="M321.57,60.32c9.04-2.94,21.11-5.72,32.96-8.36,33.22-7.4,21.8,18.22,8.53,45.34-4.11,8.4-6.83,11.47-14.12,24.65,5.18-16.17,11.35-25.29-.73-23.32-12.43,2.03-25.88,5.95-36.68,9.31l10.05-47.62Z"/><path class="cls-4" d="M108.99,200.11c-3.45-1.43-7.17-2.15-10.94-2.15-7.49,0-15.05,4.69-15.05,12.96,0,12.64,15.51,11.01,15.51,20.26,0,3.78-2.93,8.08-9.84,8.08-3.19,0-6.91-1.17-9.57-2.87l-2.09,5.99c3.65,1.43,7.43,2.61,12.7,2.61,10.94,0,15.7-7.75,15.7-14.59,0-11.92-15.5-11.98-15.5-19.61,0-5.4,4.69-7.1,8.99-7.1,3.45,0,6.13,.91,8.27,2.21l1.83-5.8Z"/><polygon class="cls-4" points="149.24 198.74 114.39 198.74 113.16 204.47 127.29 204.47 118.76 244.21 125.33 244.21 133.87 204.47 148.01 204.47 149.24 198.74"/><polygon class="cls-4" points="145.83 244.21 171.5 244.21 172.73 238.48 153.65 238.48 156.97 223.49 174.03 223.49 175.14 217.76 158.27 217.76 161.2 204.47 179.18 204.47 180.48 198.74 155.8 198.74 145.83 244.21"/><polygon class="cls-4" points="181.76 244.21 207.43 244.21 208.66 238.48 189.58 238.48 192.9 223.49 209.97 223.49 211.07 217.76 194.2 217.76 197.13 204.47 215.11 204.47 216.42 198.74 191.73 198.74 181.76 244.21"/><polygon class="cls-4" points="217.43 244.21 242.97 244.21 244.14 238.48 225.25 238.48 233.85 198.74 227.27 198.74 217.43 244.21"/><path class="cls-4" d="M282.57,221.09c6.19-2.34,12.83-5.47,12.83-13.09,0-7.17-5.93-10.03-12.25-10.03-5.99,0-12.64,4.11-12.64,10.81,0,3.78,1.24,6.85,3.52,9.84-6.64,1.5-13.03,6-13.03,13.62,0,8.2,5.93,12.76,15.5,12.76,4.36,0,8.92-1.7,11.98-4.23l2.22,3.45h7.23l-4.95-7.62c4.95-4.62,7.04-10.74,8.08-17h-5.8c-.91,4.3-2.28,8.73-5.47,12.25l-7.23-10.75Zm2.93,15.18c-3.19,2.8-6.84,3.78-9.31,3.78-4.69,0-8.66-3.06-8.66-8.14,0-5.4,5.02-7.82,9.31-8.92l8.66,13.29Zm-5.8-19.41c-1.56-2.21-3.06-4.49-3.06-7.36,0-4.17,3.13-6.58,6.77-6.58,3.39,0,6.25,1.63,6.25,5.54,0,4.82-6.12,7.36-9.97,8.4"/><path class="cls-4" d="M323.56,244.21h6.51l3.97-18.17h6.51c12.25,0,18.83-6.45,18.83-15.44s-7.82-11.85-14.59-11.85h-11.33l-9.9,45.46Zm15.24-39.74h3.39c5.48,0,10.3,.79,10.3,7.1,0,7.36-6.97,8.73-13.68,8.73h-3.45l3.45-15.83Z"/><path class="cls-4" d="M361.84,225.71c0,12.57,6.58,19.28,19.08,19.28,16.48,0,25.01-14.2,25.01-28.6,0-11.59-6.84-18.43-18.43-18.43-16.67,0-25.66,14.85-25.66,27.75m6.9,.19c0-11.59,7.43-22.21,18.57-22.21,7.82,0,11.72,4.89,11.72,13.61,0,9.9-6.64,21.95-17.85,21.95-8.21,0-12.44-5.27-12.44-13.35"/><polygon class="cls-4" points="416.72 244.21 425.32 244.21 443.43 204.86 443.55 204.86 444.53 244.21 453.03 244.21 476.8 198.74 469.83 198.74 450.16 237.69 450.03 237.69 448.86 198.74 440.24 198.74 422.13 237.63 422 237.63 419.52 198.74 413.01 198.74 416.72 244.21"/><polygon class="cls-4" points="473.33 244.21 499 244.21 500.23 238.48 481.15 238.48 484.47 223.49 501.53 223.49 502.64 217.76 485.77 217.76 488.71 204.47 506.68 204.47 507.98 198.74 483.3 198.74 473.33 244.21"/><path class="cls-4" d="M509.26,244.21h6.51l4.24-20.19h5.8c3.38,0,4.49,.98,6.18,8.28l2.74,11.92h6.91l-2.47-9.58c-.91-3.52-1.89-10.36-5.34-12.5,6.06-.92,11.07-6.06,11.07-12.31,0-11.07-10.62-11.07-17-11.07h-8.93l-9.7,45.46Zm14.98-39.74h6.06c5.01,0,7.68,1.5,7.68,6.25,0,6.06-6.91,7.56-11.53,7.56h-5.15l2.93-13.81Z"/><polygon class="cls-3" points="93.75 181.62 105.63 125.19 120.85 125.19 144.36 155.7 144.76 155.7 151.23 125.19 168.07 125.19 156.17 181.62 140.31 181.62 117.1 151.97 116.85 151.97 110.57 181.62 93.75 181.62"/><path class="cls-3" d="M166.56,181.62l11.83-56.43h29.78c18.46,0,28.05,11.53,24.22,29.69-4.35,20.62-19.33,26.74-39.83,26.74h-26Zm28.56-43.78l-6.58,31.14h3.07c12.96-.24,18.56-3.8,20.97-15.31,2.53-12.03-2.84-15.83-14.46-15.83h-3.01Z"/><polygon class="cls-3" points="223.82 181.62 261.6 125.19 282.44 125.19 292.64 181.58 271.2 181.62 266.26 147.23 266.07 147.16 244.73 181.62 223.82 181.62"/><polygon class="cls-3" points="295.8 181.62 307.72 125.19 327.06 125.19 317.81 168.97 340.54 168.97 337.87 181.62 295.8 181.62"/><polygon class="cls-3" points="64.05 181.62 75.97 125.19 95.3 125.19 83.39 181.62 64.05 181.62"/><polygon class="cls-3" points="223.82 181.62 261.6 125.19 282.44 125.19 292.64 181.58 271.2 181.62 266.26 147.23 266.07 147.16 244.73 181.62 223.82 181.62"/><path class="cls-3" d="M4.41,177c28.01,6.02,30.07-9.4,31.87-16.85,1.81-7.5,10.52-48.94,10.52-48.94h21.8s-5.79,27.4-11.03,52.25c-3.82,17.34-16.99,30.33-40.44,28.65-6.87-.49-12.58-2.84-15.34-4.88,0,0-1.57-1.11-1.79-1.29l2.77-9.32c.21,.07,1.23,.3,1.65,.39"/></svg>