<svg width="341" height="156" xmlns="http://www.w3.org/2000/svg" xmlns:xlink="http://www.w3.org/1999/xlink" overflow="hidden"><defs><clipPath id="clip0"><rect x="212" y="122" width="341" height="156"/></clipPath></defs><g clip-path="url(#clip0)" transform="translate(-212 -122)"><path d="M384.278 243.316 384.278 277 373.277 277 373.277 254.007C373.291 252.138 374.153 250.412 375.561 249.427ZM488.257 242.926 513.14 242.926 508.841 249.817C508.212 250.864 507.172 251.65 505.987 251.737L497.79 251.737C496.035 251.737 494.804 253.355 494.809 255.306L494.809 277 483.731 277 483.731 247.896C483.731 247.85 483.731 247.804 483.731 247.758 483.799 245.016 485.823 242.854 488.257 242.926ZM422.792 242.926C426.398 242.926 429.324 246.228 429.324 250.284L429.324 276.995 418.283 276.995 418.283 255.244C418.283 255.239 418.283 255.239 418.283 255.234 418.278 253.313 416.888 251.758 415.183 251.763L402.582 251.763 402.582 276.995 391.518 276.995 391.518 242.946ZM520.033 242.916 545.463 242.916 545.463 242.921C549.073 242.921 552 246.217 552 250.284L552 276.995 515.679 276.995C513.997 277.026 512.552 275.655 512.287 273.78 512.26 273.703 512.242 273.632 512.242 273.58L512.242 261.226C512.242 258.664 514.088 256.584 516.363 256.584L534.986 256.584C535.907 256.584 536.591 257.267 536.591 258.499L536.591 263.506 523.156 263.506C522.472 263.506 521.916 264.127 521.916 264.898L521.916 268.79 541.145 268.79 541.155 255.249C541.15 253.411 539.878 251.891 538.25 251.773L512.616 251.773 516.919 244.687C517.649 243.573 518.802 242.916 520.033 242.916ZM345.008 242.916 359.478 242.916C363.093 242.916 366.01 246.217 366.01 250.274L366.01 276.99 355.014 276.99 355.014 255.249C355.01 253.385 353.706 251.85 352.051 251.768L338.101 251.768 338.101 251.761 342.418 244.774C343.093 243.65 343.713 242.916 345.008 242.916ZM288.29 242.916 313.729 242.916 313.729 242.921C317.34 242.921 320.257 246.217 320.257 250.284L320.257 276.995 283.937 276.995C282.254 277.02 280.809 275.65 280.545 273.78 280.517 273.703 280.499 273.632 280.499 273.58L280.499 261.226C280.504 258.664 282.35 256.584 284.625 256.584L303.253 256.584C304.174 256.584 304.848 257.267 304.848 258.499L304.848 263.506 291.418 263.506C290.738 263.506 290.182 264.127 290.182 264.898L290.182 268.79 309.412 268.79 309.412 255.249C309.412 253.411 308.14 251.891 306.512 251.773L280.882 251.773 285.181 244.687C285.91 243.573 287.064 242.916 288.29 242.916ZM465.39 230.531 476.468 230.531 476.468 276.995 441.843 276.995C439.29 276.995 436.486 274.818 436.486 270.905L436.486 250.351 436.482 250.284C436.482 246.222 439.413 242.931 443.015 242.931L465.39 242.926 461.674 250.048C461.168 251.003 459.933 251.773 458.725 251.773L450.656 251.773C448.946 251.773 447.565 253.324 447.565 255.249L447.565 266.479C447.624 267.598 448.44 268.476 449.434 268.502L465.39 268.502 465.39 242.926ZM327.096 230.531 338.101 230.531 338.101 251.761 338.096 251.768 338.101 251.768 338.101 276.99 327.096 276.99ZM213 230.531 265.929 230.531C270.118 230.531 273.52 234.361 273.52 239.075L273.52 276.995 262.523 276.995 262.523 244.774C262.523 244.769 262.523 244.769 262.523 244.764 262.519 242.885 261.169 241.365 259.501 241.37L250.825 241.37C249.685 241.37 248.76 242.407 248.76 243.691L248.76 276.995 237.76 276.995 237.76 243.686 237.75 243.686C237.755 242.428 236.861 241.396 235.744 241.375L223.996 241.375 223.996 276.995 213 276.995ZM373.277 230.5 384.278 230.5 384.278 239.085 373.277 247.311ZM428.716 131.624C421.559 142.127 416.049 153.634 409.992 164.796 406.728 171.508 402.843 177.906 399.948 184.793 399.07 187.527 397.63 190.822 399.474 193.478 401.403 195.148 404.105 194.826 406.438 194.515 415.337 193.19 423.953 190.474 432.376 187.353 440.758 184.22 448.556 179.418 455.02 173.194 458.879 169.607 461.088 164.487 461.687 159.289 461.89 153.13 458.284 147.536 453.505 143.949 446.211 138.218 437.653 133.998 428.716 131.624ZM390.629 126.366C381.737 126.251 372.829 126.631 363.977 127.253 349.958 129.306 336.004 132.364 322.674 137.23 313.373 140.721 304.281 146.828 300.237 156.282 298.021 160.949 298.658 166.58 301.164 170.994 302.939 174.679 306.686 177.675 310.941 177.199 315.457 176.472 319.421 173.922 323.453 171.895 330.042 167.997 337.056 164.915 343.833 161.355 365.658 150.553 387.647 139.964 410.475 131.42 412.77 130.586 415.232 130.007 417.187 128.453 408.398 127.092 399.521 126.481 390.629 126.366ZM383.407 122.004C387.222 121.982 391.038 122.046 394.845 122.169 407.272 123.064 419.815 123.723 431.943 126.824 445.032 130.162 457.643 136.104 467.891 145.037 471.442 148.033 474.519 151.696 476.227 156.071 479.703 164.226 477.645 173.99 472.213 180.778 468.161 185.782 463.233 190.153 457.635 193.326 447.313 198.785 436.13 202.41 424.733 204.804 406.71 208.956 388.143 210.864 369.661 210.353 370.645 206.911 372.823 204.039 374.636 201.015 379.687 192.589 385.426 184.607 390.666 176.308 401.286 160.752 413.445 146.362 424.83 131.381 415.625 137.722 408.039 146.074 400.101 153.868 393.287 161.247 386.014 168.229 379.779 176.122 371.337 187.128 362.875 198.133 354.81 209.409 347.918 208.857 341.085 207.722 334.383 206.015 339.014 198.349 345.682 192.258 351.77 185.781 357.001 180.38 362.574 175.327 367.971 170.091 380.33 159.055 393.74 149.302 407.198 139.683 411.118 136.861 415.324 134.396 418.98 131.226 407.847 136.067 397.332 142.241 386.744 148.188 372.592 156.058 359.616 165.903 347.292 176.384 337.677 184.141 328.711 192.663 319.873 201.285 318.696 202.516 316.94 201.508 315.587 201.207 305.015 197.455 295.454 190.58 288.861 181.425 284.339 175.413 284.03 166.941 286.77 160.114 291.41 150.127 300.335 142.854 309.859 137.783 322.247 131.555 335.784 128.025 349.301 125.252L349.302 125.253C360.518 122.911 371.961 122.07 383.407 122.004Z" fill="#E51636" fill-rule="evenodd"/></g></svg>