<?xml version="1.0" standalone="no"?>
<!DOCTYPE svg PUBLIC "-//W3C//DTD SVG 20010904//EN"
 "http://www.w3.org/TR/2001/REC-SVG-20010904/DTD/svg10.dtd">
<svg version="1.0" xmlns="http://www.w3.org/2000/svg"
 width="918.000000pt" height="248.000000pt" viewBox="0 0 918.000000 248.000000"
 preserveAspectRatio="xMidYMid meet">
<metadata>
Created by potrace 1.16, written by Peter Selinger 2001-2019
</metadata>
<g transform="translate(0.000000,248.000000) scale(0.100000,-0.100000)"
fill="#000000" stroke="none">
<path d="M31 2454 l-31 -26 0 -1188 0 -1188 31 -26 31 -26 4528 0 4528 0 31
26 31 26 0 1188 0 1188 -31 26 -31 26 -4528 0 -4528 0 -31 -26z m6345 -489
c-7 -33 -4 -36 65 -92 157 -126 212 -179 243 -233 l31 -55 3 -260 c2 -143 1
-279 -3 -302 -9 -63 -44 -97 -133 -132 -201 -77 -276 -54 -324 102 -17 58 -20
86 -15 180 8 197 48 278 178 363 38 25 69 51 69 57 0 7 -32 39 -71 72 -125
106 -239 217 -239 234 0 18 149 99 184 100 15 1 17 -4 12 -34z m-3817 -210
c16 -14 33 -35 36 -45 4 -11 11 -20 16 -20 5 0 40 20 77 45 37 25 77 45 89 45
76 0 173 -184 173 -328 0 -74 -20 -110 -90 -159 -45 -32 -60 -49 -60 -67 0
-31 45 -116 115 -218 34 -50 54 -87 50 -97 -7 -25 -77 -61 -115 -61 -50 0
-122 85 -197 231 l-38 74 -5 -117 c-3 -64 -7 -118 -10 -121 -10 -9 -139 -57
-153 -57 -18 0 -27 160 -27 500 0 135 -4 251 -9 259 -5 8 -26 17 -47 20 -22 4
-39 11 -38 16 1 22 158 124 191 125 6 0 25 -11 42 -25z m3512 2 c18 -12 47
-42 63 -65 26 -37 31 -54 35 -120 2 -42 -2 -129 -8 -192 -37 -390 -36 -371
-11 -392 22 -18 22 -19 4 -39 -23 -25 -129 -85 -168 -95 l-29 -7 7 109 c4 60
11 154 16 209 30 325 33 392 20 425 -26 62 -99 41 -140 -40 -19 -36 -20 -60
-20 -324 0 -326 8 -297 -99 -358 -43 -25 -55 -28 -62 -17 -5 8 -9 169 -9 359
0 258 -3 351 -13 370 -9 19 -25 28 -62 36 -32 6 -50 15 -50 25 0 15 116 81
177 100 46 15 59 6 94 -64 l25 -49 79 76 c43 42 86 76 97 76 11 0 35 -10 54
-23z m-2728 1 c10 -8 26 -57 42 -133 15 -66 40 -178 56 -250 16 -71 40 -180
53 -242 14 -67 34 -130 50 -157 14 -24 26 -49 26 -55 0 -27 -149 -90 -150 -63
-1 4 -12 20 -25 37 l-24 30 -41 -40 c-37 -36 -44 -39 -94 -38 -147 4 -278 138
-278 285 0 97 32 133 206 232 53 30 86 55 86 65 0 9 -8 45 -18 81 l-19 65
-112 6 c-61 3 -114 9 -118 12 -12 13 98 154 130 167 35 14 211 12 230 -2z
m765 0 c10 -13 -14 -116 -109 -473 -22 -82 -58 -217 -79 -300 -21 -82 -48
-184 -58 -225 -11 -41 -31 -101 -45 -132 -76 -171 -298 -148 -348 34 -13 51 1
74 64 104 84 39 102 34 135 -33 45 -95 87 -83 116 32 16 63 16 67 -2 93 -26
37 -68 150 -232 615 -20 59 -40 111 -44 114 -3 4 -25 9 -49 12 -34 5 -43 10
-45 28 -3 20 11 30 109 78 62 30 116 52 121 47 9 -9 44 -104 148 -406 38 -109
71 -201 74 -204 12 -11 8 -29 86 343 46 215 57 246 100 267 42 21 45 22 58 6z
m462 -3 c16 -8 43 -35 61 -60 18 -25 35 -45 37 -45 3 0 31 22 61 48 105 91
125 93 197 18 85 -87 86 -106 43 -531 -10 -104 -19 -193 -19 -198 0 -4 11 -12
25 -17 14 -5 25 -14 25 -20 0 -13 -154 -87 -201 -97 l-32 -6 7 94 c6 95 17
212 36 391 13 126 13 192 -2 240 -20 67 -65 74 -113 17 l-25 -31 0 -288 c0
-197 -4 -297 -11 -314 -11 -23 -144 -114 -153 -105 -2 2 -6 162 -8 355 -4 311
-6 354 -21 378 -21 32 -29 32 -64 2 l-28 -24 -5 -318 -5 -318 -65 -38 c-109
-63 -100 -91 -100 317 l0 356 -25 24 c-13 14 -33 25 -43 25 -35 0 -45 24 -19
47 32 30 167 95 183 89 8 -3 27 -26 42 -50 15 -25 31 -46 35 -46 5 0 32 22 60
49 44 40 83 69 95 71 2 0 16 -7 32 -15z m848 -9 c40 -21 78 -65 101 -116 28
-63 45 -300 32 -435 -12 -126 -33 -193 -68 -227 -38 -36 -217 -128 -249 -128
-47 0 -89 28 -121 83 -50 83 -58 124 -57 312 0 239 27 330 122 421 52 49 152
104 189 104 13 0 36 -6 51 -14z"/>
<path d="M6491 1473 c-39 -40 -63 -145 -69 -308 -3 -103 -1 -138 11 -167 19
-46 57 -60 87 -33 19 17 20 33 20 271 0 160 -4 255 -10 259 -6 4 -23 -7 -39
-22z"/>
<path d="M2657 1622 c-35 -38 -47 -89 -47 -196 0 -122 8 -136 74 -136 73 0 79
11 79 136 0 115 -8 145 -53 192 -25 27 -32 27 -53 4z"/>
<path d="M3215 1288 c-87 -45 -105 -80 -80 -163 17 -61 104 -165 136 -165 11
0 28 14 40 33 16 25 19 42 14 82 -8 73 -48 228 -60 231 -5 2 -28 -6 -50 -18z"/>
<path d="M5286 1621 c-35 -38 -48 -111 -53 -279 -7 -201 14 -339 55 -380 24
-25 25 -25 38 -7 56 76 80 276 58 475 -12 114 -24 159 -52 193 -19 22 -25 21
-46 -2z"/>
</g>
</svg>
