<svg width="160" height="44" viewBox="0 0 160 44" fill="none" xmlns="http://www.w3.org/2000/svg">
<g>
<mask id="mask0_5087_4383" style="mask-type:luminance" maskUnits="userSpaceOnUse" x="15" y="16" width="11" height="20">
<path d="M22.1472 16.3438H22.0128C20.5519 16.3521 18.4696 16.6531 15.6484 17.3721C15.6484 17.3721 19.6703 24.6795 18.7719 35.9835C18.7719 35.9835 22.5082 28.8182 24.0615 24.2866C25.6149 19.755 25.4637 17.7651 24.6325 16.9625C24.2379 16.5862 23.4486 16.3521 22.1472 16.3438Z" fill="white"/>
</mask>
<g mask="url(#mask0_5087_4383)">
<path d="M25.6149 16.3438H15.6484V35.9835H25.6149V16.3438Z" fill="url(#paint0_linear_5087_4383)"/>
</g>
<mask id="mask1_5087_4383" style="mask-type:luminance" maskUnits="userSpaceOnUse" x="0" y="8" width="23" height="8">
<path d="M0 14.8137C0 14.8137 11.5701 15.6665 16.1461 15.215C20.7137 14.7635 22.3594 14.0779 22.6784 13.3505C23.0059 12.6148 21.7296 11.1265 18.1444 8.33398C18.1444 8.33398 10.0924 11.9375 0.00839631 14.8137H0Z" fill="white"/>
</mask>
<g mask="url(#mask1_5087_4383)">
<path d="M23.0059 8.33398H0V15.6665H23.0059V8.33398Z" fill="url(#paint1_linear_5087_4383)"/>
</g>
<mask id="mask2_5087_4383" style="mask-type:luminance" maskUnits="userSpaceOnUse" x="27" y="18" width="16" height="13">
<path d="M29.3099 18.3594H29.2847C28.9908 18.3594 28.7557 18.4263 28.571 18.5266C27.723 19.0032 27.6558 21.7372 27.4375 24.6217C27.4375 24.6217 33.1722 24.7722 42.5509 30.2235C42.4669 30.1148 37.6054 24.1033 34.5072 21.3024C32.0807 19.1035 30.351 18.3594 29.3099 18.3594Z" fill="white"/>
</mask>
<g mask="url(#mask2_5087_4383)">
<path d="M42.5509 18.3594H27.4375V30.2235H42.5509V18.3594Z" fill="url(#paint2_linear_5087_4383)"/>
</g>
<mask id="mask3_5087_4383" style="mask-type:luminance" maskUnits="userSpaceOnUse" x="31" y="14" width="14" height="8">
<path d="M35.0307 14.313C31.9492 14.5722 31.7309 15.1407 31.6385 15.8347C31.5378 16.5453 35.6268 20.3245 37.6923 21.2943C37.6923 21.2943 38.2548 16.6958 44.0987 14.6558C44.0987 14.6558 40.3035 14.2461 37.0794 14.2461C36.3489 14.2461 35.6436 14.2712 35.0223 14.3213L35.0307 14.313Z" fill="white"/>
</mask>
<g mask="url(#mask3_5087_4383)">
<path d="M44.1083 14.2383H31.5391V21.2949H44.1083V14.2383Z" fill="url(#paint3_linear_5087_4383)"/>
</g>
<mask id="mask4_5087_4383" style="mask-type:luminance" maskUnits="userSpaceOnUse" x="31" y="14" width="15" height="12">
<path d="M33.1049 14.5875C31.644 14.8968 31.644 15.6242 31.6272 15.7915C31.5768 16.4938 32.3912 17.7061 35.0109 19.7211C38 22.0119 45.0277 25.7493 45.0277 25.7493C40.7372 21.5605 36.984 14.2363 36.984 14.2363C36.8161 14.2363 36.665 14.2363 36.5054 14.2363C35.204 14.2363 34.1545 14.3367 33.1049 14.5875Z" fill="white"/>
</mask>
<g mask="url(#mask4_5087_4383)">
<path d="M45.029 14.2285H31.5781V25.7498H45.029V14.2285Z" fill="url(#paint4_linear_5087_4383)"/>
</g>
<mask id="mask5_5087_4383" style="mask-type:luminance" maskUnits="userSpaceOnUse" x="29" y="3" width="8" height="10">
<path d="M29.2531 8.95301C28.7745 11.1686 29.505 12.2221 30.0423 12.4729C30.5797 12.7321 34.9794 11.0516 36.4403 9.9396C36.4403 9.9396 32.4101 8.41792 31.9651 3.05859C31.9651 3.05859 29.9416 5.68391 29.2531 8.95301Z" fill="white"/>
</mask>
<g mask="url(#mask5_5087_4383)">
<path d="M36.4315 3.06641H28.7656V12.7399H36.4315V3.06641Z" fill="url(#paint5_linear_5087_4383)"/>
</g>
<mask id="mask6_5087_4383" style="mask-type:luminance" maskUnits="userSpaceOnUse" x="7" y="2" width="16" height="14">
<path d="M14.8859 15.3078C14.9699 15.3078 15.4904 15.2827 15.5744 15.2827C19.5123 14.965 22.1403 14.2961 22.6693 13.4851C23.2067 12.6574 22.5433 11.5203 19.0253 8.86153C15.3729 6.1108 7.875 2.51562 7.875 2.51562C13.6265 8.5271 14.8775 15.3078 14.8775 15.3078" fill="white"/>
</mask>
<g mask="url(#mask6_5087_4383)">
<path d="M23.2145 2.51562H7.88281V15.3078H23.2145V2.51562Z" fill="url(#paint6_linear_5087_4383)"/>
</g>
<mask id="mask7_5087_4383" style="mask-type:luminance" maskUnits="userSpaceOnUse" x="13" y="0" width="14" height="12">
<path d="M13.332 0.5C13.3992 0.583609 16.6234 4.7306 20.301 7.98299C23.7351 11.018 25.2464 11.3691 26.1112 11.018C26.9676 10.6752 27.0516 8.70202 26.7913 4.17043C26.7913 4.17043 22.1482 6.17704 13.332 0.5Z" fill="white"/>
</mask>
<g mask="url(#mask7_5087_4383)">
<path d="M27.0432 0.5H13.332V11.3691H27.0432V0.5Z" fill="url(#paint7_linear_5087_4383)"/>
</g>
<mask id="mask8_5087_4383" style="mask-type:luminance" maskUnits="userSpaceOnUse" x="19" y="1" width="9" height="11">
<path d="M19.1953 6.97066C23.3599 10.9588 25.0727 11.2849 25.9291 11.0926C26.8947 10.8668 27.8015 9.20301 27.4825 4.91388C27.2642 2.0461 27.0459 1.13477 27.0459 1.13477C24.2247 5.18979 19.1953 6.97066 19.1953 6.97066Z" fill="white"/>
</mask>
<g mask="url(#mask8_5087_4383)">
<path d="M27.8015 1.12695H19.1953V11.2854H27.8015V1.12695Z" fill="url(#paint8_linear_5087_4383)"/>
</g>
<mask id="mask9_5087_4383" style="mask-type:luminance" maskUnits="userSpaceOnUse" x="29" y="7" width="13" height="6">
<path d="M30.0019 12.464C30.4972 12.765 32.2857 13.2833 34.9893 12.7315C37.6089 12.1964 41.2613 10.5995 41.2613 10.5995C32.5711 9.3788 29.6912 7.35547 29.6912 7.35547C28.9439 9.31191 28.6585 11.6446 30.0019 12.464Z" fill="white"/>
</mask>
<g mask="url(#mask9_5087_4383)">
<path d="M41.2591 7.35547H28.6562V13.2833H41.2591V7.35547Z" fill="url(#paint9_linear_5087_4383)"/>
</g>
<mask id="mask10_5087_4383" style="mask-type:luminance" maskUnits="userSpaceOnUse" x="1" y="16" width="25" height="9">
<path d="M15.7114 17.2725C10.1783 18.6353 1.54688 22.0465 1.54688 22.0465C16.0053 20.7673 24.1329 24.1535 24.1329 24.1535C25.3252 20.6921 25.7198 18.0082 24.8634 16.938C24.4604 16.4447 23.6711 16.1855 22.3781 16.1855C20.8752 16.1855 18.7005 16.5367 15.7114 17.2725Z" fill="white"/>
</mask>
<g mask="url(#mask10_5087_4383)">
<path d="M25.7282 16.1855H1.54688V24.1451H25.7282V16.1855Z" fill="url(#paint10_linear_5087_4383)"/>
</g>
<mask id="mask11_5087_4383" style="mask-type:luminance" maskUnits="userSpaceOnUse" x="27" y="18" width="9" height="20">
<path d="M28.5894 18.5174C27.7497 18.9856 27.1872 20.8919 27.1284 25.3817C27.0696 29.8714 27.7917 37.1872 27.7917 37.1872C30.9067 26.1258 35.6674 22.4135 35.6674 22.4135C33.0142 19.6963 30.7304 18.3418 29.3366 18.3418C29.0512 18.3418 28.7993 18.4003 28.5978 18.5174H28.5894Z" fill="white"/>
</mask>
<g mask="url(#mask11_5087_4383)">
<path d="M35.6681 18.3418H27.0703V37.1872H35.6681V18.3418Z" fill="url(#paint11_linear_5087_4383)"/>
</g>
<path d="M49.841 15.3325V7.49001C49.841 7.23918 49.9334 7.0218 50.1097 6.83786C50.286 6.66228 50.5043 6.57031 50.7562 6.57031H54.1063C55.0635 6.57031 55.7688 6.77097 56.2306 7.18066C56.7092 7.5987 56.9443 8.22577 56.9443 9.03677C56.9443 9.58023 56.8183 10.0317 56.5832 10.3829C56.3817 10.7257 56.0543 10.9765 55.6093 11.1186C56.0039 11.2524 56.2726 11.4614 56.4321 11.729C56.5832 11.9798 56.6756 12.4146 56.7176 13.0249L56.768 14.07V14.3961C56.768 14.5215 56.768 14.6218 56.7932 14.7305C56.8435 15.0399 56.9443 15.2322 57.0954 15.3158H55.1055C55.0131 15.1486 54.9712 14.973 54.9544 14.7807C54.9208 14.5131 54.904 14.3208 54.904 14.2205L54.8704 13.2757C54.8368 12.7657 54.7361 12.3978 54.5681 12.1805C54.375 11.9965 54.0476 11.8962 53.569 11.8962H51.6462V15.3074H49.8242L49.841 15.3325ZM51.6546 10.3912H53.7705C54.2323 10.3912 54.5765 10.2993 54.7948 10.1153C55.0131 9.93139 55.1307 9.63875 55.1307 9.24579C55.1307 8.85283 55.0131 8.56856 54.7948 8.37626C54.5849 8.1756 54.2827 8.06691 53.8712 8.06691H51.6462V10.3829L51.6546 10.3912Z" fill="#833187"/>
<path d="M59.9347 12.205V15.3403H58.1211V7.49782C58.1211 7.247 58.2051 7.02961 58.3898 6.84567C58.5661 6.67009 58.7844 6.57812 59.0363 6.57812H62.0338C62.9658 6.57812 63.671 6.82059 64.1328 7.29716C64.6114 7.77373 64.8549 8.47604 64.8549 9.4041C64.8549 10.3322 64.6198 10.9843 64.158 11.4943C63.6962 11.9709 63.0329 12.2134 62.1597 12.2134H59.9347V12.205ZM59.9347 10.6164H61.6979C62.1765 10.6164 62.5208 10.5161 62.7139 10.3154C62.9406 10.1315 63.0497 9.80542 63.0497 9.34558C63.0497 8.96098 62.949 8.64326 62.7391 8.4008C62.504 8.20014 62.1849 8.09981 61.7903 8.09981H59.9263V10.6164H59.9347Z" fill="#833187"/>
<path d="M69.4297 12.6577V11.9219C69.4297 11.4621 69.6564 11.2363 70.1182 11.2363H72.9561V12.6577H69.4297Z" fill="#833187"/>
<path d="M77.3633 12.6155H79.1517C79.2189 13.1255 79.412 13.4767 79.7394 13.6857C80.0837 13.9282 80.5455 14.0452 81.1416 14.0452C81.6706 14.0452 82.0736 13.9532 82.3507 13.7609C82.6278 13.577 82.7621 13.3095 82.7621 12.9416C82.7621 12.3981 81.998 11.9634 80.4615 11.6206L80.4111 11.5871L80.2096 11.537C79.3364 11.353 78.7571 11.1524 78.4716 10.9517C78.1273 10.7678 77.8922 10.5002 77.7495 10.1407C77.5816 9.83969 77.4976 9.44673 77.4976 8.97016C77.4976 8.14244 77.7831 7.48193 78.3708 7.01372C78.9502 6.55387 79.7982 6.32812 80.8981 6.32812C81.9393 6.32812 82.7453 6.57059 83.3079 7.04716C83.8872 7.5739 84.1895 8.25949 84.2231 9.1123H83.1987C82.8041 9.1123 82.527 8.93672 82.3591 8.5772C82.2751 8.40162 82.1492 8.25949 82.0064 8.14244C81.6958 7.91669 81.276 7.808 80.747 7.808C80.218 7.808 79.8738 7.89997 79.6555 8.08391C79.3952 8.27621 79.2692 8.5354 79.2692 8.87819C79.2692 9.33804 79.7646 9.67248 80.747 9.88986C81.0409 9.97347 81.2508 10.0236 81.3851 10.0404C81.6958 10.1407 81.9645 10.2243 82.1912 10.2828C82.4179 10.3413 82.6026 10.3832 82.7453 10.425C82.9804 10.5253 83.2239 10.6256 83.459 10.7259C83.8032 10.935 84.0635 11.1942 84.2566 11.5119C84.4414 11.8714 84.5421 12.2643 84.5421 12.6824C84.5421 13.6021 84.2315 14.3128 83.6185 14.8144C83.0056 15.291 82.1324 15.5335 81.0073 15.5335C79.8822 15.5335 78.9754 15.291 78.396 14.7977C77.7663 14.3044 77.4221 13.577 77.3717 12.6071" fill="#833187"/>
<path d="M98.6973 15.333H97.8073C97.547 15.333 97.3371 15.2577 97.1776 15.0905C97.0181 14.9316 96.9341 14.7226 96.9341 14.4634V11.002C96.9341 10.5923 96.8082 10.2997 96.5647 10.1158C96.3212 9.93184 96.0357 9.83151 95.7334 9.83151C95.4312 9.83151 95.1457 9.93184 94.919 10.1158C94.6839 10.2997 94.5579 10.6007 94.5579 11.002V15.333H92.7695V11.3615C92.7695 10.2077 93.0718 9.43018 93.6763 9.04558C94.2809 8.65262 94.9526 8.4436 95.6831 8.41016C96.4303 8.41016 97.1188 8.61082 97.7569 8.99542C98.3867 9.38838 98.7057 10.1743 98.7057 11.3699V15.3413L98.6973 15.333Z" fill="#833187"/>
<path d="M99.0436 18.1585V16.687H99.371C99.5305 16.687 99.6313 16.6452 99.6817 16.5616C99.7488 16.5114 99.7824 16.4027 99.7824 16.2271V8.5602H100.698C100.941 8.5602 101.143 8.64381 101.311 8.81103C101.478 8.98661 101.562 9.18727 101.562 9.42137V16.503C101.562 17.0799 101.395 17.5063 101.05 17.7822C100.706 18.0331 100.143 18.1668 99.3626 18.1668H99.0352L99.0436 18.1585ZM99.7824 6.57031H100.698C100.941 6.57031 101.143 6.65392 101.311 6.8295C101.478 6.99672 101.562 7.20574 101.562 7.43984V7.97494H99.774V6.57031H99.7824Z" fill="#833187"/>
<path d="M102.77 6.57031H103.685C103.929 6.57031 104.13 6.65392 104.298 6.8295C104.466 6.99672 104.55 7.20574 104.55 7.43984V7.97494H102.762V6.57031H102.77ZM102.77 8.5602H103.685C103.929 8.5602 104.13 8.64381 104.298 8.81103C104.466 8.98661 104.55 9.18727 104.55 9.42137V15.3325H102.762V8.55184L102.77 8.5602Z" fill="#833187"/>
<path d="M109.487 15.3329H107.674L105.289 8.56055H107.187L108.547 13.3262L109.739 9.17089C109.882 8.76121 110.151 8.56055 110.562 8.56055H111.889L109.487 15.3329Z" fill="#833187"/>
<path d="M122.964 14.2946C122.653 14.7294 122.292 15.0638 121.864 15.2645C121.419 15.4484 120.932 15.5404 120.411 15.5404C119.152 15.5404 118.152 15.1224 117.422 14.2946C116.675 13.4753 116.297 12.3549 116.297 10.9336C116.297 9.51221 116.666 8.40858 117.397 7.59757C118.161 6.75312 119.177 6.31836 120.436 6.31836C121.528 6.31836 122.435 6.58591 123.148 7.10428C123.845 7.66446 124.265 8.40022 124.399 9.29483H123.173C122.821 9.29483 122.552 9.13597 122.384 8.8099C122.267 8.60924 122.099 8.4253 121.872 8.24972C121.528 8.01562 121.083 7.89857 120.52 7.89857C119.79 7.89857 119.21 8.15775 118.782 8.68449C118.362 9.24467 118.144 9.98879 118.144 10.9252C118.144 11.8616 118.362 12.6225 118.807 13.1659C119.227 13.6927 119.84 13.9518 120.621 13.9518C121.2 13.9518 121.679 13.793 122.057 13.4669C122.435 13.1325 122.67 12.6643 122.77 12.0706H121.696C121.444 12.0706 121.226 11.9787 121.041 11.8031C120.864 11.6275 120.772 11.4101 120.772 11.1509V10.5657H124.425V15.323H123.938C123.467 15.323 123.165 15.0806 123.048 14.6123L122.972 14.2863L122.964 14.2946Z" fill="#833187"/>
<path d="M126.304 14.7227C125.943 14.4134 125.691 14.0037 125.531 13.4853C125.38 12.967 125.305 12.4319 125.305 11.8717C125.305 11.4118 125.372 10.952 125.498 10.5005C125.624 10.0407 125.825 9.65605 126.094 9.35506C126.539 8.84505 127.11 8.54406 127.815 8.45209C128.512 8.35176 129.142 8.41028 129.713 8.61931C130.359 8.87849 130.829 9.31326 131.149 9.94032C131.434 10.5005 131.577 11.1527 131.577 11.8968C131.577 12.4402 131.518 12.9084 131.4 13.3014C131.283 13.686 131.132 14.0204 130.939 14.2963C130.527 14.8565 130.007 15.2077 129.377 15.3415C128.814 15.4919 128.252 15.5087 127.672 15.3833C127.101 15.2578 126.648 15.0405 126.304 14.7311M127.538 10.2413C127.177 10.6259 127.018 11.2112 127.051 11.9887C127.085 12.7579 127.227 13.3014 127.488 13.6024C127.597 13.7362 127.773 13.8532 128.025 13.9452C128.285 14.0455 128.546 14.0539 128.806 13.9786C129.066 13.9034 129.31 13.7111 129.503 13.4017C129.713 13.0924 129.822 12.5991 129.839 11.9219C129.839 11.3115 129.738 10.8517 129.545 10.5423C129.343 10.2413 129.117 10.0407 128.865 9.95705C128.604 9.87344 128.353 9.87344 128.092 9.94032C127.832 10.0156 127.656 10.1159 127.53 10.233L127.538 10.2413Z" fill="#833187"/>
<path d="M137.246 13.2497H138.522C138.346 13.9604 137.977 14.5038 137.448 14.8801C136.919 15.273 136.255 15.4653 135.449 15.4653C134.475 15.4653 133.72 15.1476 133.174 14.5206C132.628 13.9102 132.359 13.0323 132.359 11.8952C132.359 10.7582 132.62 9.96387 133.149 9.34517C133.694 8.7181 134.458 8.40039 135.424 8.40039C136.448 8.40039 137.246 8.70974 137.8 9.32009C138.346 9.94715 138.615 10.825 138.615 11.9454V12.2213C138.615 12.3049 138.615 12.3634 138.589 12.4053H134.165C134.181 12.932 134.307 13.3249 134.551 13.5758C134.778 13.8433 135.105 13.9855 135.55 13.9855C135.844 13.9855 136.087 13.9269 136.289 13.8015C136.339 13.7848 136.39 13.7597 136.432 13.7095C136.474 13.6677 136.516 13.6176 136.574 13.5674C136.591 13.5172 136.65 13.4504 136.759 13.3584C136.868 13.2748 137.036 13.233 137.238 13.233M134.173 11.2598H136.784C136.751 10.8 136.633 10.4655 136.423 10.2398C136.205 10.0057 135.886 9.88027 135.474 9.88027C135.105 9.88027 134.794 9.99732 134.551 10.2398C134.316 10.4739 134.181 10.8167 134.165 11.2598H134.173Z" fill="#833187"/>
<path d="M145.498 15.333H144.6C144.339 15.333 144.138 15.2577 143.978 15.0905C143.81 14.9316 143.735 14.7226 143.735 14.4634V11.002C143.735 10.5923 143.609 10.2997 143.365 10.1158C143.122 9.93184 142.836 9.83151 142.534 9.83151C142.232 9.83151 141.955 9.93184 141.711 10.1158C141.476 10.2997 141.359 10.6007 141.359 11.002V15.333H139.57V11.3615C139.57 10.2077 139.873 9.43018 140.477 9.04558C141.082 8.65262 141.745 8.4436 142.484 8.41016C143.231 8.41016 143.92 8.61082 144.549 8.99542C145.179 9.38838 145.498 10.1743 145.498 11.3699V15.3413V15.333Z" fill="#833187"/>
<path d="M148.218 8.5602V11.0601L150.393 8.5602H152.542L150.107 11.1604L152.567 15.3409H150.418L149.167 13.05C148.915 12.5901 148.68 12.3978 148.504 12.4647C148.319 12.5316 148.218 12.632 148.218 12.7741V15.3409H146.43V6.57031H147.353C147.588 6.57031 147.798 6.65392 147.966 6.8295C148.134 6.99672 148.218 7.18902 148.218 7.41476V8.5602Z" fill="#833187"/>
<path d="M56.3631 25.6671C56.0609 26.1103 55.6914 26.4363 55.2632 26.637C54.8182 26.8209 54.3312 26.9129 53.8023 26.9129C52.5428 26.9129 51.5437 26.5032 50.8048 25.6671C50.0575 24.8561 49.6797 23.7358 49.6797 22.3061C49.6797 20.8764 50.0407 19.7894 50.7796 18.9701C51.5437 18.1256 52.5596 17.6992 53.8275 17.6992C54.9106 17.6992 55.8174 17.9668 56.5311 18.4851C57.228 19.0537 57.6478 19.7811 57.7905 20.6757H56.5563C56.2036 20.6757 55.9349 20.5168 55.7586 20.1908C55.6411 19.9817 55.4731 19.7978 55.2464 19.6306C54.9022 19.3965 54.4572 19.2794 53.8946 19.2794C53.1558 19.2794 52.5764 19.547 52.1566 20.0737C51.7284 20.6339 51.5185 21.378 51.5185 22.3144C51.5185 23.2508 51.7368 24.02 52.1818 24.5551C52.6016 25.0819 53.2145 25.3411 53.9954 25.3411C54.5747 25.3411 55.0533 25.1822 55.4312 24.8645C55.809 24.5217 56.0441 24.0535 56.1448 23.4599H55.0701C54.8182 23.4599 54.5999 23.3679 54.4152 23.1923C54.2389 23.0167 54.1465 22.7994 54.1465 22.5485V21.9633H57.7989V26.729H57.3119C56.8333 26.729 56.5395 26.4865 56.4135 26.0183L56.338 25.6839L56.3631 25.6671Z" fill="#833187"/>
<path d="M58.86 26.7207V23.4348C58.86 22.7743 58.9607 22.2142 59.1538 21.7627C59.3469 21.3195 59.6156 20.9517 59.9599 20.6758C60.2789 20.4249 60.6652 20.241 61.0934 20.1156C61.53 19.9985 61.975 19.9316 62.4368 19.9316H62.6887V21.746H62.1009C61.6056 21.746 61.2361 21.863 61.001 22.1055C60.7659 22.3396 60.64 22.7158 60.64 23.2258V26.7123H58.8516L58.86 26.7207Z" fill="#833187"/>
<path d="M64.3742 26.1017C64.0131 25.8007 63.7612 25.3826 63.6017 24.8642C63.4506 24.3459 63.375 23.8024 63.375 23.2506C63.375 22.7907 63.4338 22.3309 63.5681 21.8794C63.6941 21.4196 63.8956 21.035 64.1642 20.734C64.6093 20.224 65.1802 19.923 65.8771 19.831C66.574 19.7307 67.2037 19.7892 67.7663 19.9982C68.4128 20.2574 68.8914 20.7005 69.202 21.3276C69.4959 21.8878 69.6386 22.5399 69.6386 23.284C69.6386 23.8275 69.5799 24.2957 69.4623 24.6887C69.3448 25.0816 69.1852 25.4077 69.0005 25.6836C68.5975 26.2438 68.0769 26.5949 67.4388 26.7287C66.8763 26.8792 66.3137 26.8959 65.7428 26.7622C65.1718 26.6367 64.7184 26.4194 64.3742 26.11M65.6 21.6202C65.239 22.0132 65.0794 22.5901 65.113 23.3676C65.1466 24.1368 65.2894 24.6803 65.5496 24.9813C65.6504 25.1234 65.8267 25.2321 66.0786 25.3241C66.3389 25.4161 66.5992 25.4244 66.8595 25.3492C67.1197 25.2739 67.3548 25.0816 67.5648 24.7723C67.7663 24.4629 67.8754 23.978 67.9006 23.3008C67.9006 22.6904 67.7915 22.2306 67.6067 21.9212C67.4052 21.6119 67.1869 21.4196 66.9266 21.336C66.6747 21.2523 66.4145 21.2523 66.1626 21.3276C65.9023 21.4028 65.7176 21.5032 65.6 21.6202Z" fill="#833187"/>
<path d="M76.5143 19.9395V23.9192C76.5143 25.1232 76.1953 25.9175 75.5655 26.2937C74.9358 26.6616 74.2389 26.8539 73.4916 26.8539C72.7528 26.8121 72.0895 26.6114 71.4849 26.2436C70.872 25.8673 70.5781 25.0981 70.5781 23.9276V19.9478H72.3665V24.2787C72.3665 24.6884 72.4925 24.9811 72.7276 25.1734C72.9711 25.3573 73.2398 25.4493 73.5504 25.4493C73.8611 25.4493 74.1382 25.3573 74.3817 25.1734C74.6251 24.9811 74.7511 24.6884 74.7511 24.2787V20.809C74.7511 20.5749 74.8351 20.3742 74.9946 20.1986C75.1541 20.0314 75.364 19.9395 75.6159 19.9395H76.5143Z" fill="#833187"/>
<path d="M79.1833 28.3422C79.1833 28.5847 79.0994 28.7854 78.9315 28.9609C78.7635 29.1282 78.562 29.2118 78.3185 29.2118H77.4453V22.8742C77.4453 21.687 77.798 20.8676 78.4949 20.4412C79.1917 20.0064 79.9558 19.7891 80.7702 19.7891C81.1985 19.7891 81.6267 19.8727 82.0633 20.0315C82.4999 20.1904 82.8441 20.4329 83.096 20.7338C83.6166 21.3944 83.8685 22.2472 83.8685 23.2755C83.8685 24.3039 83.6166 25.2069 83.096 25.8758C82.5839 26.5196 81.9289 26.8456 81.1313 26.8456C80.7031 26.8456 80.3252 26.7704 80.0062 26.6115C79.6619 26.436 79.3933 26.1768 79.1833 25.8173V28.3339V28.3422ZM82.0969 23.3508C82.0969 22.6903 81.9709 22.1719 81.7106 21.8208C81.4587 21.4696 81.0893 21.2857 80.6107 21.2857C80.1321 21.2857 79.7963 21.4696 79.536 21.8208C79.2925 22.1468 79.175 22.6485 79.175 23.3508C79.175 23.9946 79.3093 24.4795 79.5612 24.7972C79.8215 25.1567 80.1825 25.3323 80.6611 25.3323C81.1061 25.3323 81.4587 25.1567 81.7106 24.7972C81.9709 24.4461 82.0969 23.9611 82.0969 23.3508Z" fill="#833187"/>
<path d="M159.318 14.1114C159.176 13.9191 159.167 13.4844 159.15 13.1416V10.3072C159.15 9.68851 158.907 9.22031 158.412 8.87751C157.933 8.5598 157.211 8.39258 156.254 8.39258C155.406 8.39258 154.742 8.59324 154.281 8.97784C153.869 9.32064 153.634 9.7554 153.559 10.2821H155.28C155.364 10.0898 155.498 9.96442 155.691 9.89754C155.876 9.83065 156.094 9.79721 156.338 9.79721C156.556 9.79721 156.8 9.83065 157.068 9.91426C157.337 9.98951 157.463 10.1567 157.463 10.4076C157.463 10.7503 157.085 10.9677 156.338 11.0681C156.178 11.0848 156.044 11.1015 155.926 11.1266C155.809 11.16 155.708 11.1684 155.624 11.1684C154.969 11.2687 154.44 11.4777 154.02 11.7787C153.609 12.0881 153.391 12.5981 153.391 13.3171C153.391 14.078 153.626 14.6298 154.079 14.9642C154.541 15.2987 155.078 15.4659 155.7 15.4659C156.01 15.4659 156.363 15.4408 156.766 15.399C157.169 15.3572 157.547 15.2401 157.908 15.0562C158.042 14.9893 158.168 14.8973 158.286 14.797C158.462 15.0395 158.714 15.2903 159.142 15.2736C159.789 15.2569 160.007 14.3037 160.007 14.3037C160.007 14.3037 159.537 14.3957 159.327 14.1031M157.488 12.5563C157.488 13.0329 157.345 13.4091 157.077 13.6767C156.8 13.9526 156.422 14.0863 155.952 14.0863C155.658 14.0863 155.439 14.0195 155.288 13.8857C155.137 13.7352 155.061 13.5262 155.061 13.2753C155.061 13.0914 155.12 12.8991 155.246 12.7152C155.381 12.5814 155.607 12.4727 155.91 12.3807L156.506 12.2469C156.934 12.1466 157.27 12.0379 157.505 11.9125V12.5479L157.488 12.5563Z" fill="#833187"/>
<path d="M91.3022 14.1114C91.1595 13.9191 91.1511 13.4844 91.1427 13.1416C91.1427 11.6282 91.1427 10.3072 91.1427 10.3072C91.1427 9.68851 90.8992 9.22031 90.4038 8.87751C89.9252 8.5598 89.2031 8.39258 88.2459 8.39258C87.3895 8.39258 86.7346 8.59324 86.2728 8.97784C85.8614 9.32064 85.6263 9.7554 85.5591 10.2821H87.2804C87.3643 10.0898 87.4987 9.96442 87.6918 9.89754C87.8765 9.83065 88.0948 9.79721 88.3299 9.79721C88.5482 9.79721 88.7917 9.83065 89.0604 9.91426C89.3207 9.98951 89.455 10.1567 89.455 10.4076C89.455 10.7503 89.0772 10.9677 88.3299 11.0681C88.1788 11.0848 88.036 11.1015 87.9269 11.1266C87.8093 11.16 87.7002 11.1684 87.6162 11.1684C86.9613 11.2687 86.4324 11.4777 86.0125 11.7787C85.5927 12.0881 85.3828 12.5981 85.3828 13.3171C85.3828 14.078 85.6179 14.6298 86.0713 14.9642C86.5331 15.2987 87.0705 15.4659 87.6918 15.4659C88.0025 15.4659 88.3551 15.4408 88.7497 15.399C89.1527 15.3572 89.5306 15.2401 89.8916 15.0562C90.026 14.9893 90.1603 14.8973 90.2695 14.797C90.4458 15.0395 90.6977 15.2903 91.1259 15.2736C91.764 15.2569 91.9823 14.3037 91.9823 14.3037C91.9823 14.3037 91.5205 14.3957 91.3022 14.1031M89.4718 12.5563C89.4718 13.0329 89.3375 13.4091 89.0604 13.6767C88.7833 13.9526 88.4055 14.0863 87.9269 14.0863C87.6414 14.0863 87.4147 14.0195 87.2636 13.8857C87.1124 13.7352 87.0285 13.5262 87.0285 13.2753C87.0285 13.0914 87.0873 12.8991 87.2048 12.7152C87.3475 12.5814 87.5659 12.4727 87.8765 12.3807L88.4643 12.2469C88.8925 12.1466 89.2283 12.0379 89.4634 11.9125V12.5479L89.4718 12.5563Z" fill="#833187"/>
<path d="M53.7954 40.9247C53.5939 41.2173 53.3504 41.4347 53.0733 41.5601C52.7794 41.6855 52.452 41.7441 52.1077 41.7441C51.2765 41.7441 50.6132 41.4682 50.1262 40.9163C49.6308 40.3812 49.3789 39.6371 49.3789 38.6923C49.3789 37.7476 49.6224 37.0285 50.1094 36.4851C50.6216 35.9249 51.2849 35.6406 52.1161 35.6406C52.8382 35.6406 53.4343 35.8162 53.9045 36.1674C54.3663 36.5352 54.6434 37.0202 54.7358 37.6138H53.9213C53.6862 37.6138 53.5099 37.5051 53.4007 37.2961C53.3168 37.1623 53.216 37.0369 53.0649 36.9198C52.8382 36.761 52.5359 36.6857 52.1665 36.6857C51.6795 36.6857 51.2933 36.8613 51.0162 37.2041C50.7307 37.5804 50.5964 38.0736 50.5964 38.684C50.5964 39.2943 50.7391 39.8043 51.033 40.1639C51.3185 40.515 51.7131 40.6906 52.2336 40.6906C52.6199 40.6906 52.9305 40.5819 53.1824 40.3645C53.4259 40.1388 53.5855 39.8294 53.6526 39.4365H52.9389C52.771 39.4365 52.6283 39.3779 52.5107 39.2609C52.3932 39.1438 52.3344 39.0017 52.3344 38.8345V38.4499H54.7525V41.5936H54.4251C54.1144 41.5936 53.9129 41.4347 53.8373 41.117L53.787 40.8996L53.7954 40.9247Z" fill="#808080"/>
<path d="M56.1217 41.6098V39.436C56.1217 39.0012 56.1888 38.6333 56.3148 38.3407C56.4491 38.0397 56.6255 37.8056 56.8438 37.6217C57.0537 37.4544 57.3056 37.329 57.591 37.2538C57.8849 37.1785 58.1788 37.1367 58.481 37.1367H58.649V38.3323H58.2627C57.9353 38.3323 57.7002 38.4159 57.5323 38.5664C57.3727 38.7253 57.2972 38.9678 57.2972 39.3022V41.6098H56.1133H56.1217Z" fill="#808080"/>
<path d="M60.4283 41.2084C60.1933 41.0078 60.0253 40.7402 59.9246 40.389C59.8238 40.0463 59.7734 39.6867 59.7734 39.3189C59.7734 39.0179 59.8154 38.7085 59.8994 38.4159C59.9833 38.1065 60.1177 37.8557 60.294 37.655C60.5879 37.3122 60.9657 37.1199 61.4275 37.0531C61.8893 36.9945 62.3091 37.028 62.6786 37.1617C63.1068 37.3373 63.4174 37.6216 63.6189 38.0396C63.8121 38.4159 63.9128 38.8423 63.9128 39.3356C63.9128 39.6867 63.8708 40.0044 63.7869 40.2553C63.7113 40.5145 63.6105 40.7318 63.4846 40.9158C63.2075 41.2837 62.8717 41.5178 62.4519 41.6097C62.0824 41.7101 61.7046 41.7184 61.3268 41.6348C60.9489 41.5429 60.6467 41.4007 60.42 41.2001M61.2428 38.2487C61.0077 38.5079 60.8985 38.8925 60.9237 39.4025C60.9489 39.9208 61.0413 40.272 61.2092 40.4727C61.2764 40.5646 61.3939 40.6399 61.5618 40.6984C61.7298 40.7653 61.9061 40.7653 62.0824 40.7151C62.2587 40.665 62.4099 40.5395 62.5442 40.3389C62.6786 40.1382 62.7541 39.8121 62.7625 39.3607C62.7625 38.9593 62.6954 38.6583 62.561 38.4577C62.4351 38.2487 62.2839 38.1233 62.116 38.0647C61.9397 38.0146 61.7802 38.0062 61.6038 38.0647C61.4359 38.1149 61.31 38.1818 61.2344 38.257L61.2428 38.2487Z" fill="#808080"/>
<path d="M69.4718 41.6098H68.2879L67.5994 38.4159L66.9025 41.6098H65.7186L64.4844 37.1367H65.6347L66.34 40.2386L66.9781 37.1367H68.1787L68.7833 40.2386L69.413 37.5464C69.4802 37.2705 69.6565 37.1367 69.9504 37.1367H70.6892L69.455 41.6098H69.4718Z" fill="#808080"/>
<path d="M71.7383 35.8242H72.3512C72.5023 35.8242 72.6367 35.8827 72.7542 35.9914C72.8634 36.1001 72.9222 36.2339 72.9222 36.3928V36.7523H71.7383V35.8242ZM71.7383 37.1369H72.3512C72.5023 37.1369 72.6367 37.1954 72.7542 37.3041C72.8634 37.4128 72.9222 37.5466 72.9222 37.7054V41.6099H71.7383V37.1369Z" fill="#808080"/>
<path d="M77.9914 41.6105H77.4036C77.2357 41.6105 77.093 41.5603 76.9838 41.4517C76.8747 41.343 76.8243 41.2092 76.8243 41.042V38.7511C76.8243 38.4835 76.7403 38.2912 76.5808 38.1575C76.4129 38.0321 76.2366 37.9735 76.035 37.9735C75.8335 37.9735 75.6488 38.0404 75.4893 38.1575C75.3298 38.2829 75.2542 38.4752 75.2542 38.7511V41.6105H74.0703V38.9852C74.0703 38.2244 74.2718 37.7143 74.6664 37.4552C75.0695 37.196 75.5145 37.0538 75.9931 37.0371C76.4884 37.0371 76.9418 37.1625 77.3617 37.4217C77.7731 37.6809 77.983 38.1993 77.983 38.9852V41.6105H77.9914Z" fill="#808080"/>
<path d="M82.2656 41.3424V41.0581C82.0557 41.3759 81.787 41.5682 81.4428 41.6518C81.0985 41.727 80.7543 41.7019 80.4184 41.5682C80.0742 41.4344 79.7887 41.1836 79.5452 40.8157C79.3017 40.4478 79.1758 39.9712 79.1758 39.3776C79.1758 38.6837 79.3353 38.1151 79.6628 37.6887C79.9818 37.2623 80.5024 37.0449 81.2077 37.0449C81.745 37.0449 82.2488 37.1871 82.7106 37.4881C83.1724 37.7807 83.4075 38.3158 83.4075 39.1017V41.4762C83.4075 42.2621 83.1724 42.7972 82.7106 43.0815C82.2404 43.3657 81.745 43.5079 81.2077 43.5079C80.1749 43.5079 79.5284 43.023 79.2849 42.0614H80.5192C80.6115 42.2119 80.7459 42.3374 80.9306 42.421C81.1153 42.5046 81.3 42.5297 81.4848 42.4879C81.6695 42.4461 81.8374 42.3374 81.9885 42.1618C82.1397 41.9862 82.2236 41.7187 82.2488 41.3591M80.3345 39.4111C80.3345 40.1886 80.5612 40.615 81.0146 40.6986C81.468 40.7822 81.7954 40.6819 82.0137 40.3893C82.1145 40.2639 82.1901 40.0716 82.232 39.804C82.274 39.5365 82.274 39.2856 82.232 39.0265C82.1901 38.7673 82.0977 38.5415 81.955 38.3325C81.8122 38.1318 81.5939 38.0315 81.3168 38.0315C80.9306 38.0315 80.6703 38.1736 80.536 38.4495C80.4016 38.7338 80.3261 39.0515 80.3261 39.4111H80.3345Z" fill="#808080"/>
<path d="M87.2896 41.6099V36.4262C87.2896 36.259 87.3484 36.1168 87.466 35.9998C87.5835 35.8827 87.7263 35.8242 87.8942 35.8242H88.4819V40.5398H91.3199V41.6183H87.2812L87.2896 41.6099Z" fill="#808080"/>
<path d="M95.5015 40.231H96.3412C96.2152 40.7075 95.9885 41.0671 95.6359 41.3095C95.2832 41.5687 94.8466 41.6941 94.3176 41.6941C93.6795 41.6941 93.1757 41.4851 92.8147 41.0754C92.4537 40.6741 92.2773 40.0888 92.2773 39.3447C92.2773 38.6006 92.4453 38.0655 92.7979 37.6558C93.159 37.2461 93.6627 37.0371 94.3009 37.0371C94.9726 37.0371 95.5015 37.2378 95.871 37.6475C96.232 38.0655 96.4167 38.6424 96.4167 39.3782V39.5621C96.4167 39.6206 96.4167 39.6541 96.3999 39.6875H93.478C93.4864 40.0303 93.5788 40.2895 93.7299 40.4567C93.881 40.6323 94.0993 40.7326 94.3932 40.7326C94.5863 40.7326 94.7459 40.6908 94.8886 40.6156C94.9222 40.6072 94.9474 40.5821 94.981 40.557C95.0061 40.532 95.0397 40.4985 95.0733 40.4567C95.0817 40.4233 95.1237 40.3815 95.1993 40.3229C95.2664 40.2644 95.3756 40.2393 95.5099 40.2393M93.478 38.9183H95.1993C95.1741 38.6173 95.0985 38.3916 94.9558 38.2411C94.813 38.0822 94.6031 38.007 94.3344 38.007C94.0825 38.007 93.881 38.0822 93.7215 38.2411C93.5704 38.3999 93.4864 38.6257 93.4696 38.9183H93.478Z" fill="#808080"/>
<path d="M100.445 41.3424V41.0581C100.235 41.3759 99.9661 41.5682 99.6219 41.6518C99.2776 41.727 98.9418 41.7019 98.5975 41.5682C98.2617 41.4344 97.9678 41.1836 97.7243 40.8157C97.4808 40.4478 97.3633 39.9712 97.3633 39.3776C97.3633 38.6837 97.5228 38.1151 97.8419 37.6887C98.1609 37.2623 98.6815 37.0449 99.3952 37.0449C99.9325 37.0449 100.428 37.1871 100.898 37.4881C101.36 37.7807 101.595 38.3158 101.595 39.1017V41.4762C101.595 42.2621 101.368 42.7972 100.898 43.0815C100.436 43.3657 99.9325 43.5079 99.3952 43.5079C98.354 43.5079 97.7159 43.023 97.464 42.0614H98.6983C98.7907 42.2119 98.925 42.3374 99.1097 42.421C99.2944 42.5046 99.4791 42.5297 99.6639 42.4879C99.8486 42.4461 100.017 42.3374 100.176 42.1618C100.327 41.9862 100.42 41.7187 100.436 41.3591M98.5136 39.4111C98.5136 40.1886 98.7403 40.615 99.1937 40.6986C99.6387 40.7822 99.9661 40.6819 100.184 40.3893C100.285 40.2639 100.361 40.0716 100.403 39.804C100.445 39.5365 100.445 39.2856 100.403 39.0265C100.369 38.7673 100.277 38.5415 100.126 38.3325C99.9829 38.1318 99.7646 38.0315 99.4875 38.0315C99.1013 38.0315 98.841 38.1736 98.7151 38.4495C98.5807 38.7338 98.5136 39.0515 98.5136 39.4111Z" fill="#808080"/>
<path d="M110.522 40.231H111.37C111.244 40.7075 111.009 41.0587 110.656 41.3095C110.312 41.5687 109.867 41.6941 109.338 41.6941C108.7 41.6941 108.196 41.4851 107.835 41.0754C107.474 40.6741 107.289 40.0888 107.289 39.3447C107.289 38.6006 107.465 38.0655 107.81 37.6642C108.171 37.2461 108.666 37.0371 109.313 37.0371C109.959 37.0371 110.513 37.2378 110.883 37.6475C111.084 37.8983 111.227 38.1742 111.319 38.5003H110.135C110.077 38.3916 110.026 38.308 109.967 38.2494C109.825 38.0906 109.615 38.0153 109.346 38.0153C109.103 38.0153 108.893 38.0906 108.733 38.2494C108.532 38.4752 108.431 38.8431 108.431 39.3614C108.431 39.8798 108.532 40.2393 108.733 40.4567C108.884 40.6323 109.103 40.7243 109.397 40.7243C109.581 40.7243 109.749 40.6908 109.884 40.6072C109.917 40.5988 109.951 40.5738 109.976 40.5487C110.001 40.5236 110.035 40.4902 110.068 40.4483C110.085 40.4149 110.135 40.3731 110.203 40.3146C110.27 40.256 110.371 40.231 110.505 40.231" fill="#808080"/>
<path d="M112.52 35.8242H113.132C113.292 35.8242 113.418 35.8827 113.535 35.9914C113.645 36.1001 113.703 36.2339 113.703 36.3928V36.7523H112.52V35.8242ZM112.52 37.1369H113.132C113.292 37.1369 113.418 37.1954 113.535 37.3041C113.645 37.4128 113.703 37.5466 113.703 37.7054V41.6099H112.52V37.1369Z" fill="#808080"/>
<path d="M117.74 40.231H118.588C118.47 40.7075 118.227 41.0671 117.883 41.3095C117.53 41.5687 117.093 41.6941 116.564 41.6941C115.926 41.6941 115.422 41.4851 115.061 41.0754C114.7 40.6741 114.516 40.0888 114.516 39.3447C114.516 38.6006 114.692 38.0655 115.045 37.6558C115.397 37.2461 115.909 37.0371 116.548 37.0371C117.219 37.0371 117.748 37.2378 118.118 37.6475C118.479 38.0655 118.655 38.6424 118.655 39.3782V39.5621C118.655 39.6206 118.655 39.6541 118.638 39.6875H115.716C115.725 40.0303 115.809 40.2895 115.968 40.4567C116.111 40.6323 116.329 40.7326 116.631 40.7326C116.825 40.7326 116.993 40.6908 117.118 40.6156C117.152 40.6072 117.186 40.5821 117.211 40.557C117.244 40.532 117.27 40.4985 117.303 40.4567C117.32 40.4233 117.362 40.3815 117.429 40.3229C117.496 40.2644 117.605 40.2393 117.74 40.2393M115.716 38.9183H117.438C117.412 38.6173 117.337 38.3916 117.194 38.2411C117.051 38.0822 116.841 38.007 116.573 38.007C116.329 38.007 116.119 38.0822 115.968 38.2411C115.809 38.3999 115.725 38.6257 115.716 38.9183Z" fill="#808080"/>
<path d="M119.605 40.1306H120.756C120.773 40.348 120.857 40.5236 121.008 40.6323C121.176 40.741 121.402 40.7995 121.688 40.7995C121.889 40.7995 122.066 40.7577 122.208 40.6825C122.351 40.6072 122.41 40.4985 122.41 40.3647C122.41 40.1641 122.175 40.0136 121.705 39.9133C121.495 39.8798 121.344 39.8464 121.251 39.8129C120.647 39.6708 120.252 39.4952 120.05 39.2862C119.824 39.0855 119.715 38.818 119.715 38.4835C119.715 38.0571 119.883 37.706 120.202 37.4217C120.537 37.1625 120.982 37.0371 121.52 37.0371C122.108 37.0371 122.578 37.1625 122.922 37.4217C123.249 37.706 123.426 38.0655 123.451 38.517H122.721C122.511 38.517 122.343 38.4167 122.225 38.2244C122.183 38.1825 122.133 38.1324 122.091 38.0906C121.956 37.9902 121.772 37.9401 121.537 37.9401C121.302 37.9401 121.142 37.9735 121.033 38.0404C120.924 38.1073 120.882 38.2076 120.882 38.3498C120.882 38.5253 121.176 38.6758 121.763 38.8013C121.83 38.8263 121.889 38.8431 121.94 38.8514C121.99 38.8681 122.04 38.8681 122.082 38.8681C122.653 39.0103 123.056 39.1859 123.283 39.3698C123.493 39.5705 123.602 39.838 123.602 40.1808C123.602 40.6741 123.417 41.0587 123.056 41.3262C122.72 41.5687 122.217 41.6941 121.537 41.6941C120.857 41.6941 120.412 41.5687 120.092 41.3095C119.765 41.0503 119.605 40.6741 119.605 40.1808V40.1306Z" fill="#808080"/>
<path d="M106.484 40.8079C106.391 40.6825 106.383 40.3898 106.383 40.1641C106.383 39.1691 106.383 38.2996 106.383 38.2996C106.383 37.8983 106.223 37.5889 105.887 37.3548C105.568 37.1458 105.09 37.0371 104.468 37.0371C103.906 37.0371 103.469 37.1709 103.167 37.4217C102.898 37.6475 102.739 37.9317 102.688 38.2829H103.822C103.881 38.1658 103.973 38.0822 104.091 38.0321C104.208 37.9902 104.351 37.9652 104.51 37.9652C104.653 37.9652 104.821 37.9903 104.989 38.0404C105.165 38.0906 105.249 38.1993 105.249 38.3665C105.249 38.5922 105.006 38.7344 104.51 38.8013C104.401 38.8096 104.317 38.8263 104.233 38.8431C104.158 38.8598 104.091 38.8681 104.032 38.8681C103.604 38.935 103.251 39.0772 102.974 39.2695C102.697 39.4701 102.562 39.8129 102.562 40.2811C102.562 40.7828 102.714 41.1507 103.016 41.368C103.318 41.5854 103.679 41.6941 104.082 41.6941C104.284 41.6941 104.519 41.6774 104.788 41.6523C105.056 41.6272 105.3 41.5436 105.543 41.4266C105.636 41.3764 105.72 41.3179 105.795 41.2594C105.913 41.4182 106.081 41.5854 106.366 41.5687C106.786 41.5603 106.929 40.9333 106.929 40.9333C106.929 40.9333 106.618 41.0002 106.475 40.8079M105.283 39.7795C105.283 40.0972 105.191 40.3397 105.006 40.5152C104.829 40.6992 104.586 40.7828 104.267 40.7828C104.074 40.7828 103.923 40.7326 103.822 40.649C103.713 40.5487 103.671 40.4149 103.671 40.2393C103.671 40.1139 103.713 39.9885 103.788 39.8714C103.881 39.7795 104.023 39.7042 104.225 39.6541L104.611 39.5705C104.888 39.5036 105.107 39.4283 105.266 39.3531V39.7711L105.283 39.7795Z" fill="#808080"/>
</g>
<defs>
<linearGradient id="paint0_linear_5087_4383" x1="26.8911" y1="23.81" x2="15.8449" y2="28.0046" gradientUnits="userSpaceOnUse">
<stop offset="0" stop-color="#5F1347"/>
<stop offset="0.69" stop-color="#A23089"/>
<stop offset="1" stop-color="#A23089"/>
</linearGradient>
<linearGradient id="paint1_linear_5087_4383" x1="18.4131" y1="11.8288" x2="6.18814" y2="12.1324" gradientUnits="userSpaceOnUse">
<stop offset="0" stop-color="#5F1347"/>
<stop offset="0.69" stop-color="#A23089"/>
<stop offset="1" stop-color="#A23089"/>
</linearGradient>
<linearGradient id="paint2_linear_5087_4383" x1="32.7608" y1="21.8542" x2="40.1656" y2="30.0038" gradientUnits="userSpaceOnUse">
<stop offset="0" stop-color="#A41E27"/>
<stop offset="0.42" stop-color="#A41E27"/>
<stop offset="0.64" stop-color="#C71A78"/>
<stop offset="1" stop-color="#C71A78"/>
</linearGradient>
<linearGradient id="paint3_linear_5087_4383" x1="35.4266" y1="17.1144" x2="42.5089" y2="19.0526" gradientUnits="userSpaceOnUse">
<stop offset="0" stop-color="#A41E27"/>
<stop offset="0.42" stop-color="#A41E27"/>
<stop offset="0.64" stop-color="#C71A78"/>
<stop offset="1" stop-color="#C71A78"/>
</linearGradient>
<linearGradient id="paint4_linear_5087_4383" x1="35.3313" y1="15.4576" x2="40.5813" y2="23.5378" gradientUnits="userSpaceOnUse">
<stop offset="0" stop-color="#F09C23"/>
<stop offset="0.64" stop-color="#EA692B"/>
<stop offset="1" stop-color="#EA692B"/>
</linearGradient>
<linearGradient id="paint5_linear_5087_4383" x1="34.0805" y1="3.78544" x2="30.9804" y2="12.4974" gradientUnits="userSpaceOnUse">
<stop offset="0" stop-color="#F5CD1A"/>
<stop offset="0.19" stop-color="#F5CD1A"/>
<stop offset="0.47" stop-color="#EC894C"/>
<stop offset="0.68" stop-color="#E64780"/>
<stop offset="1" stop-color="#E64780"/>
</linearGradient>
<linearGradient id="paint6_linear_5087_4383" x1="10.4353" y1="2.79153" x2="17.1355" y2="10.8793" gradientUnits="userSpaceOnUse">
<stop offset="0" stop-color="#D81280"/>
<stop offset="0.62" stop-color="#E35552"/>
<stop offset="0.95" stop-color="#EF9523"/>
<stop offset="1" stop-color="#EF9523"/>
</linearGradient>
<linearGradient id="paint7_linear_5087_4383" x1="21.6696" y1="6.94624" x2="16.4864" y2="3.37241" gradientUnits="userSpaceOnUse">
<stop offset="0" stop-color="#842B7C"/>
<stop offset="0.79" stop-color="#C71A78"/>
<stop offset="1" stop-color="#C71A78"/>
</linearGradient>
<linearGradient id="paint8_linear_5087_4383" x1="22.7889" y1="8.01632" x2="25.3894" y2="1.31182" gradientUnits="userSpaceOnUse">
<stop offset="0" stop-color="#F5CD1A"/>
<stop offset="1" stop-color="#DA1081"/>
</linearGradient>
<linearGradient id="paint9_linear_5087_4383" x1="29.4539" y1="10.3152" x2="41.2591" y2="10.3152" gradientUnits="userSpaceOnUse">
<stop offset="0" stop-color="#EEDA11"/>
<stop offset="1" stop-color="#EF9123"/>
</linearGradient>
<linearGradient id="paint10_linear_5087_4383" x1="7.23117" y1="21.9211" x2="22.8306" y2="17.6234" gradientUnits="userSpaceOnUse">
<stop offset="0" stop-color="#AF2480"/>
<stop offset="0.62" stop-color="#CF5C52"/>
<stop offset="0.95" stop-color="#EF9523"/>
<stop offset="1" stop-color="#EF9523"/>
</linearGradient>
<linearGradient id="paint11_linear_5087_4383" x1="34.2743" y1="23.467" x2="28.3225" y2="32.3361" gradientUnits="userSpaceOnUse">
<stop offset="0" stop-color="#E87726"/>
<stop offset="0.68" stop-color="#E02B2D"/>
<stop offset="1" stop-color="#E02B2D"/>
</linearGradient>
<clipPath id="clip0_5087_4383">
<rect width="160" height="43" fill="white" transform="translate(0 0.5)"/>
</clipPath>
</defs>
</svg>
