<?xml version="1.0" encoding="UTF-8"?>
<svg version="1.1" xmlns="http://www.w3.org/2000/svg" width="61" height="54">
<path d="M0 0 C20.13 0 40.26 0 61 0 C61 17.82 61 35.64 61 54 C40.87 54 20.74 54 0 54 C0 36.18 0 18.36 0 0 Z " fill="#FBFCFD" transform="translate(0,0)"/>
<path d="M0 0 C9.33333333 0 18.66666667 0 28 0 C27.67 1.65 27.34 3.3 27 5 C26.67 3.68 26.34 2.36 26 1 C24.68 1 23.36 1 22 1 C22 1.99 22 2.98 22 4 C22.66 4 23.32 4 24 4 C24 4.66 24 5.32 24 6 C18.33333333 6 12.66666667 6 7 6 C7 5.34 7 4.68 7 4 C6.01 4.33 5.02 4.66 4 5 C2.68 5 1.36 5 0 5 C0 3.35 0 1.7 0 0 Z " fill="#A0BCDA" transform="translate(26,36)"/>
<path d="M0 0 C3.11691585 0.46622775 4.02994231 0.65494231 6.3125 2.9375 C6.4375 5.5625 6.4375 5.5625 6.3125 7.9375 C4.6625 8.5975 3.0125 9.2575 1.3125 9.9375 C0.9825 9.6075 0.6525 9.2775 0.3125 8.9375 C0.3125 7.27083333 0.3125 5.60416667 0.3125 3.9375 C-0.0175 3.6075 -0.3475 3.2775 -0.6875 2.9375 C-0.6875 5.5775 -0.6875 8.2175 -0.6875 10.9375 C-1.0175 10.9375 -1.3475 10.9375 -1.6875 10.9375 C-1.6875 8.2975 -1.6875 5.6575 -1.6875 2.9375 C-2.3475 5.2475 -3.0075 7.5575 -3.6875 9.9375 C-5.5625 9.6875 -5.5625 9.6875 -7.6875 8.9375 C-8.9375 6.875 -8.9375 6.875 -9.6875 4.9375 C-6.70028221 0.98666357 -4.89656188 -0.48965619 0 0 Z " fill="#467DB9" transform="translate(31.6875,13.0625)"/>
<path d="M0 0 C4.29 0 8.58 0 13 0 C13.66 1.65 14.32 3.3 15 5 C12.07924603 5.83830296 9.47335217 6.13527361 6.4375 6.125 C5.29087891 6.12886719 5.29087891 6.12886719 4.12109375 6.1328125 C2 6 2 6 -1 5 C-0.67 3.35 -0.34 1.7 0 0 Z " fill="#9CBAD9" transform="translate(26,26)"/>
<path d="M0 0 C3.96 0 7.92 0 12 0 C12.33 1.32 12.66 2.64 13 4 C12.34 3.34 11.68 2.68 11 2 C10.01 3.485 10.01 3.485 9 5 C8.01 5.495 8.01 5.495 7 6 C7 5.34 7 4.68 7 4 C6.01 4.33 5.02 4.66 4 5 C2.68 5 1.36 5 0 5 C0 3.35 0 1.7 0 0 Z " fill="#81A6CE" transform="translate(26,36)"/>
<path d="M0 0 C-0.33 1.98 -0.66 3.96 -1 6 C-2.875 5.75 -2.875 5.75 -5 5 C-6.25 2.9375 -6.25 2.9375 -7 1 C-4.53721199 -0.231394 -2.7204945 -0.07159196 0 0 Z " fill="#3471B3" transform="translate(29,17)"/>
<path d="M0 0 C2.97 0.495 2.97 0.495 6 1 C5.67 2.32 5.34 3.64 5 5 C3.0625 5.5625 3.0625 5.5625 1 6 C0 5 0 5 -0.0625 2.4375 C-0.041875 1.633125 -0.02125 0.82875 0 0 Z " fill="#2F6CB1" transform="translate(32,17)"/>
<path d="M0 0 C2.31 0 4.62 0 7 0 C7 0.66 7 1.32 7 2 C3.535 3.485 3.535 3.485 0 5 C0 3.35 0 1.7 0 0 Z " fill="#90B1D4" transform="translate(26,36)"/>
<path d="M0 0 C1.65 0 3.3 0 5 0 C4.67 1.65 4.34 3.3 4 5 C3.01 5 2.02 5 1 5 C0.67 3.35 0.34 1.7 0 0 Z " fill="#5F8EC3" transform="translate(3,36)"/>
<path d="M0 0 C0.99 0 1.98 0 3 0 C3.66 1.65 4.32 3.3 5 5 C3.02 5 1.04 5 -1 5 C-0.67 3.35 -0.34 1.7 0 0 Z " fill="#447BB8" transform="translate(36,26)"/>
<path d="M0 0 C0.99 0 1.98 0 3 0 C3.33 1.65 3.66 3.3 4 5 C2.35 5 0.7 5 -1 5 C-0.67 3.35 -0.34 1.7 0 0 Z " fill="#457CB9" transform="translate(26,26)"/>
<path d="M0 0 C1.65 0 3.3 0 5 0 C4.67 1.65 4.34 3.3 4 5 C3.01 5 2.02 5 1 5 C0.67 3.35 0.34 1.7 0 0 Z " fill="#598AC1" transform="translate(20,26)"/>
<path d="M0 0 C0.99 0 1.98 0 3 0 C3.33 1.65 3.66 3.3 4 5 C2.35 5 0.7 5 -1 5 C-0.67 3.35 -0.34 1.7 0 0 Z " fill="#497FBA" transform="translate(19,36)"/>
<path d="M0 0 C0.99 0 1.98 0 3 0 C3.33 1.65 3.66 3.3 4 5 C2.35 5 0.7 5 -1 5 C-0.67 3.35 -0.34 1.7 0 0 Z " fill="#487EBA" transform="translate(9,36)"/>
</svg>
