<?xml version="1.0" encoding="UTF-8"?>
<svg version="1.1" xmlns="http://www.w3.org/2000/svg" width="1058" height="240">
<path d="M0 0 C7.22652202 6.31282383 7.22652202 6.31282383 9.09375 10.75 C8.43890625 10.62882812 7.7840625 10.50765625 7.109375 10.3828125 C5.15978568 10.02483706 3.20915751 9.67249678 1.2578125 9.32421875 C-0.68847459 8.97100369 -2.63208101 8.6020667 -4.5703125 8.20703125 C-14.82587181 6.24162867 -24.11305987 6.26396143 -34.90625 5.75 C-35.23625 23.9 -35.56625 42.05 -35.90625 60.75 C-37.88625 60.75 -39.86625 60.75 -41.90625 60.75 C-41.90625 42.6 -41.90625 24.45 -41.90625 5.75 C-59.02929162 6.4375728 -59.02929162 6.4375728 -75.71875 8.8125 C-76.72099609 8.99876953 -77.72324219 9.18503906 -78.75585938 9.37695312 C-81.14199553 9.82221298 -83.52498827 10.27950218 -85.90625 10.75 C-83.50732728 3.65164918 -78.22875876 -0.35989935 -71.84375 -3.9921875 C-68.57519008 -5.57146765 -65.29728078 -6.95568266 -61.90625 -8.25 C-61.01808594 -8.59160156 -60.12992187 -8.93320312 -59.21484375 -9.28515625 C-40.08765652 -15.27110276 -15.91991431 -12.32509495 0 0 Z " fill="#2874B8" transform="translate(564.90625,40.25)"/>
<path d="M0 0 C0.87076172 -0.00386719 1.74152344 -0.00773437 2.63867188 -0.01171875 C3.46560547 -0.01042969 4.29253906 -0.00914063 5.14453125 -0.0078125 C5.89710205 -0.00668457 6.64967285 -0.00555664 7.42504883 -0.00439453 C9.1875 0.125 9.1875 0.125 10.1875 1.125 C10.04410771 10.91180576 8.13287949 20.72331206 6.625 30.375 C6.38829443 31.9100981 6.15196385 33.44525406 5.91601562 34.98046875 C5.34415437 38.69599225 4.76726026 42.4107012 4.1875 46.125 C-8.78791243 43.18314855 -20.80794415 37.46728382 -28.2109375 25.94921875 C-31.34497827 20.04788666 -32.05993206 14.80566562 -31.8125 8.125 C-31.4825 7.135 -31.1525 6.145 -30.8125 5.125 C-28.38856463 4.25824136 -26.1163533 3.59036808 -23.625 3 C-22.6340332 2.74669922 -22.6340332 2.74669922 -21.62304688 2.48828125 C-14.2801997 0.647133 -7.53363891 -0.03421789 0 0 Z " fill="#1E6FB6" transform="translate(505.8125,52.875)"/>
<path d="M0 0 C6.408657 0.08392885 12.51411887 0.93684435 18.79101562 2.20068359 C19.65702393 2.3743042 20.52303223 2.5479248 21.4152832 2.72680664 C27.51429312 4.04896109 27.51429312 4.04896109 29.79101562 6.32568359 C31.22229406 15.84745169 28.68383022 22.46272502 23.50976562 30.25537109 C17.05382592 38.70064106 6.80056231 43.48346663 -3.20898438 46.32568359 C-3.86898437 46.32568359 -4.52898438 46.32568359 -5.20898438 46.32568359 C-6.88373431 37.15613074 -8.46915819 27.97474785 -9.89648438 18.76318359 C-10.02772705 17.94366211 -10.15896973 17.12414062 -10.29418945 16.27978516 C-11.06058357 11.2362848 -11.42138535 6.42904745 -11.20898438 1.32568359 C-8.93040967 -0.95289111 -3.15817383 0.01737382 0 0 Z " fill="#1E6FB6" transform="translate(548.208984375,52.67431640625)"/>
<path d="M0 0 C3.63 0 7.26 0 11 0 C13.46937673 6.2322365 15.3186083 12.51292846 17 19 C17.176521 18.45996338 17.35304199 17.91992676 17.53491211 17.36352539 C18.33266495 14.92881836 19.13501879 12.49565242 19.9375 10.0625 C20.21529297 9.21236328 20.49308594 8.36222656 20.77929688 7.48632812 C21.04677734 6.67744141 21.31425781 5.86855469 21.58984375 5.03515625 C21.83597412 4.2862915 22.08210449 3.53742676 22.33569336 2.76586914 C23 1 23 1 24 0 C27.63 0 31.26 0 35 0 C35.66 11.55 36.32 23.1 37 35 C34.03 35 31.06 35 28 35 C27.93941406 33.86820313 27.87882813 32.73640625 27.81640625 31.5703125 C27.73200083 30.08852855 27.64735283 28.6067584 27.5625 27.125 C27.52318359 26.37863281 27.48386719 25.63226563 27.44335938 24.86328125 C27.28426376 20.80013136 27.28426376 20.80013136 26 17 C25.65066406 18.14339844 25.30132813 19.28679687 24.94140625 20.46484375 C24.48193537 21.95577988 24.02229099 23.44666255 23.5625 24.9375 C23.33240234 25.69224609 23.10230469 26.44699219 22.86523438 27.22460938 C21.11328125 32.88671875 21.11328125 32.88671875 20 34 C17.69 34 15.38 34 13 34 C11.35 28.72 9.7 23.44 8 18 C7.07848349 21.68606605 6.70191021 24.9727113 6.4375 28.75 C6.35371094 29.92046875 6.26992188 31.0909375 6.18359375 32.296875 C6.12300781 33.18890625 6.06242188 34.0809375 6 35 C3.36 35 0.72 35 -2 35 C-2.3565309 23.21467287 -1.24852177 11.70489163 0 0 Z " fill="#3179BB" transform="translate(903,174)"/>
<path d="M0 0 C5.28 0 10.56 0 16 0 C30 32.30065359 30 32.30065359 30 36 C25.38 36 20.76 36 16 36 C12.535 26.1 12.535 26.1 9 16 C6.36 22.6 3.72 29.2 1 36 C-3.29 36 -7.58 36 -12 36 C-10.49163573 27.9640593 -7.7718177 20.56903235 -4.875 12.9375 C-4.40179368 11.67794089 -3.92913331 10.41817654 -3.45703125 9.15820312 C-2.31003754 6.10345457 -1.15575349 3.05144509 0 0 Z " fill="#2875B9" transform="translate(119,174)"/>
<path d="M0 0 C5.28 0 10.56 0 16 0 C19.48305801 7.41554286 22.68295612 14.92929683 25.8125 22.5 C26.42629517 23.96977295 26.42629517 23.96977295 27.05249023 25.46923828 C27.43348877 26.39720215 27.8144873 27.32516602 28.20703125 28.28125 C28.5522583 29.11720703 28.89748535 29.95316406 29.25317383 30.81445312 C30 33 30 33 30 36 C25.71 36 21.42 36 17 36 C13.98425842 29.42999156 11.41527185 22.81451701 9 16 C6.36 22.6 3.72 29.2 1 36 C-3.29 36 -7.58 36 -12 36 C-11.1917255 31.15035298 -10.18647617 27.39810831 -8.49609375 22.8515625 C-8.2533522 22.19417084 -8.01061066 21.53677917 -7.76051331 20.85946655 C-6.99116304 18.77942125 -6.21446646 16.7022108 -5.4375 14.625 C-4.91161981 13.20721274 -4.38622425 11.78924563 -3.86132812 10.37109375 C-2.58070394 6.91158766 -1.29016233 3.45601969 0 0 Z " fill="#2874B9" transform="translate(50,174)"/>
<path d="M0 0 C10 0 10 0 12.11328125 1.6171875 C12.70689453 2.73480469 12.70689453 2.73480469 13.3125 3.875 C13.99119141 5.09123047 13.99119141 5.09123047 14.68359375 6.33203125 C15.11800781 7.21246094 15.55242187 8.09289062 16 9 C16.48597656 9.93199219 16.97195313 10.86398438 17.47265625 11.82421875 C18.68756738 14.1965104 19.84884761 16.59612295 21 19 C21.33 12.73 21.66 6.46 22 0 C24.64 0 27.28 0 30 0 C30 11.55 30 23.1 30 35 C26.7 35 23.4 35 20 35 C14.555 25.1 14.555 25.1 9 15 C8.67 21.6 8.34 28.2 8 35 C5.36 35 2.72 35 0 35 C0 23.45 0 11.9 0 0 Z " fill="#2F78BA" transform="translate(277,174)"/>
<path d="M0 0 C4.95 0 9.9 0 15 0 C16.85360979 4.53808271 18.70496419 9.0770762 20.55419922 13.61694336 C21.18410737 15.16244593 21.81464008 16.70769408 22.44580078 18.25268555 C23.35091359 20.4685779 24.25380424 22.68536411 25.15625 24.90234375 C25.44060913 25.5971434 25.72496826 26.29194305 26.01794434 27.00779724 C28 31.88612829 28 31.88612829 28 33 C23.71 33 19.42 33 15 33 C9.77678571 20.94642857 9.77678571 20.94642857 9 15 C8.34 15 7.68 15 7 15 C6.88785156 15.85851562 6.77570313 16.71703125 6.66015625 17.6015625 C5.97351836 21.1363256 4.86705313 24.07603124 3.4375 27.375 C2.98246094 28.43460938 2.52742188 29.49421875 2.05859375 30.5859375 C1.70925781 31.38257813 1.35992187 32.17921875 1 33 C-2.96 33 -6.92 33 -11 33 C-10.39092779 28.5762124 -9.28583066 24.68385366 -7.71484375 20.5078125 C-7.04291992 18.70957031 -7.04291992 18.70957031 -6.35742188 16.875 C-5.88423277 15.62495526 -5.410924 14.3749558 -4.9375 13.125 C-4.45978804 11.85174939 -3.98256966 10.57831348 -3.50585938 9.3046875 C-2.34208976 6.20130186 -1.17168914 3.10040428 0 0 Z " fill="#2774B8" transform="translate(501,112)"/>
<path d="M0 0 C4.62 0 9.24 0 14 0 C15.41822262 3.29100378 16.83461068 6.58277782 18.25 9.875 C18.64574219 10.7928125 19.04148437 11.710625 19.44921875 12.65625 C21.43517295 17.27929092 23.39585168 21.9116319 25.296875 26.5703125 C25.62526367 27.37484863 25.95365234 28.17938477 26.29199219 29.00830078 C27 31 27 31 27 33 C22.71 33 18.42 33 14 33 C12.02 27.39 10.04 21.78 8 16 C5.45768754 21.6106206 3.10490019 27.21152449 1 33 C-3.29 33 -7.58 33 -12 33 C-8.36740803 21.81957284 -4.73805183 10.76829962 0 0 Z " fill="#2773B8" transform="translate(565,112)"/>
<path d="M0 0 C0.76441406 -0.020625 1.52882812 -0.04125 2.31640625 -0.0625 C8.06173013 -0.10219136 11.39881855 0.97719126 15.625 5.0625 C17.21257203 8.14944561 16.64283391 9.95338249 15.75 13.25 C14.6875 15.625 14.6875 15.625 13.75 17.25 C14.7709375 18.24 14.7709375 18.24 15.8125 19.25 C18.09549566 22.78496102 18.16952541 24.3617426 17.43359375 28.3828125 C16.32892753 31.40012938 14.4450871 32.64578149 11.75 34.25 C8.98434618 35.17188461 7.36716298 35.36785222 4.51953125 35.34765625 C3.71708984 35.34443359 2.91464844 35.34121094 2.08789062 35.33789062 C1.25451172 35.32951172 0.42113281 35.32113281 -0.4375 35.3125 C-1.7049707 35.30573242 -1.7049707 35.30573242 -2.99804688 35.29882812 C-5.08206155 35.28705403 -7.16603977 35.2691189 -9.25 35.25 C-9.2746519 30.42619198 -9.29283693 25.60242033 -9.30493164 20.77856445 C-9.30997174 19.13630536 -9.31680378 17.49405077 -9.32543945 15.85180664 C-9.33751926 13.49624521 -9.34323139 11.14074291 -9.34765625 8.78515625 C-9.35281754 8.04660904 -9.35797882 7.30806183 -9.36329651 6.5471344 C-9.3634925 4.78101912 -9.31194719 3.01502854 -9.25 1.25 C-7.16321478 -0.83678522 -2.86669969 0.01895339 0 0 Z M-0.25 7.25 C-0.25 9.56 -0.25 11.87 -0.25 14.25 C2.69091587 14.06584568 2.69091587 14.06584568 5.75 13.25 C7.29400659 11.41427296 7.29400659 11.41427296 7.75 9.25 C7.42 8.59 7.09 7.93 6.75 7.25 C4.44 7.25 2.13 7.25 -0.25 7.25 Z M-0.25 20.25 C-0.25 23.22 -0.25 26.19 -0.25 29.25 C3.18793339 29.06870185 3.18793339 29.06870185 6.75 28.25 C8.26294288 26.31402968 8.26294288 26.31402968 8.75 24.25 C6.02393696 20.96185401 6.02393696 20.96185401 2 20 C0.88625 20.12375 0.88625 20.12375 -0.25 20.25 Z " fill="#2F78BA" transform="translate(178.25,173.75)"/>
<path d="M0 0 C5.89542759 0.09617843 9.7119873 0.78362007 14.58520508 4.3190918 C19.46475874 9.57399574 20.00549049 13.16728855 19.92114258 20.2019043 C19.4265234 24.7915102 18.00577492 28.18356944 14.58520508 31.3190918 C8.83140779 35.16981549 3.89203646 35.85732896 -2.91479492 35.5690918 C-3.7372168 35.55104492 -4.55963867 35.53299805 -5.40698242 35.5144043 C-7.41010297 35.4678201 -9.41261313 35.39609879 -11.41479492 35.3190918 C-11.43944682 30.49528378 -11.45763185 25.67151213 -11.46972656 20.84765625 C-11.47476666 19.20539715 -11.4815987 17.56314256 -11.49023438 15.92089844 C-11.50231418 13.56533701 -11.50802631 11.20983471 -11.51245117 8.85424805 C-11.51761246 8.11570084 -11.52277374 7.37715363 -11.52809143 6.6162262 C-11.52828742 4.85011092 -11.47674211 3.08412034 -11.41479492 1.3190918 C-9.11975784 -0.97594528 -3.20241699 0.00897408 0 0 Z M-2.41479492 7.3190918 C-2.41479492 14.2490918 -2.41479492 21.1790918 -2.41479492 28.3190918 C4.30726778 29.06212015 4.30726778 29.06212015 7.46020508 25.9440918 C10.75916928 21.86890072 10.94135674 19.57232886 10.58520508 14.3190918 C8.93381202 10.78039239 7.86915278 9.50839027 4.58520508 7.3190918 C2.27520508 7.3190918 -0.03479492 7.3190918 -2.41479492 7.3190918 Z " fill="#2B76B9" transform="translate(1026.414794921875,173.680908203125)"/>
<path d="M0 0 C4.47870656 2.15937638 7.18198188 4.92952939 10 9 C11.88042493 14.6412748 11.780465 20.78183631 9.8125 26.375 C6.91174188 30.57609797 4.51748187 33.35798844 -0.25 35.375 C-6.18269776 36.36378296 -10.84787433 36.01515362 -16.3125 33.4375 C-20.52566835 29.61625429 -22.58529733 25.94523529 -23.3828125 20.28125 C-23.64320912 13.96229208 -22.8161344 10.05379961 -19 5 C-12.92981281 -0.49207412 -8.02838185 -0.75660143 0 0 Z M-13 11 C-14.61969096 15.85907289 -14.57651544 19.646442 -12.5625 24.375 C-11.23945813 26.84252124 -11.23945813 26.84252124 -10 28 C-4.68016798 28.62219811 -4.68016798 28.62219811 -0.0625 26.5625 C1.89499588 21.84148051 2.54623225 17.09389031 1.25 12.125 C-0.45967253 9.17869364 -0.45967253 9.17869364 -3 7 C-7.90808628 6.26900843 -9.97954519 7.08459561 -13 11 Z " fill="#2E77BA" transform="translate(549,174)"/>
<path d="M0 0 C1.31613281 -0.01417969 2.63226562 -0.02835938 3.98828125 -0.04296875 C8.8246515 0.25834682 11.52773282 1.05907788 15 4.4375 C17.05217612 7.78178701 17.31799253 9.32573325 16.6875 13.1875 C14.6875 16.5625 14.6875 16.5625 12.6875 19.1875 C13.14125 19.97125 13.595 20.755 14.0625 21.5625 C16.06182349 26.02252931 16.88163664 30.39024285 17.6875 35.1875 C14.7175 35.1875 11.7475 35.1875 8.6875 35.1875 C7.3675 31.2275 6.0475 27.2675 4.6875 23.1875 C3.0375 22.8575 1.3875 22.5275 -0.3125 22.1875 C-0.3125 26.4775 -0.3125 30.7675 -0.3125 35.1875 C-3.2825 35.1875 -6.2525 35.1875 -9.3125 35.1875 C-9.3125 23.9675 -9.3125 12.7475 -9.3125 1.1875 C-6.32512272 -0.30618864 -3.27289093 0.00312001 0 0 Z M-0.3125 7.1875 C-0.3125 9.8275 -0.3125 12.4675 -0.3125 15.1875 C2.60402174 15.35431109 2.60402174 15.35431109 5.6875 15.1875 C6.3475 14.5275 7.0075 13.8675 7.6875 13.1875 C7.39766731 9.88066534 7.39766731 9.88066534 5.6875 7.1875 C3.68791636 7.14669217 1.68704746 7.14495644 -0.3125 7.1875 Z " fill="#337ABB" transform="translate(573.3125,173.8125)"/>
<path d="M0 0 C0.70833984 -0.020625 1.41667969 -0.04125 2.14648438 -0.0625 C6.94590833 -0.09795281 10.12832016 0.66546913 14.3125 3.25 C16.97303508 5.91053508 17.09733954 7.52055195 17.3125 11.25 C15.98757024 14.53077846 14.812464 16.750036 12.3125 19.25 C12.77269531 19.78109375 13.23289062 20.3121875 13.70703125 20.859375 C15.61498355 23.70041347 16.24037155 26.17210393 17 29.5 C17.25136719 30.57765625 17.50273438 31.6553125 17.76171875 32.765625 C17.94347656 33.58546875 18.12523437 34.4053125 18.3125 35.25 C15.3425 35.25 12.3725 35.25 9.3125 35.25 C8.85875 34.0125 8.405 32.775 7.9375 31.5 C6.43925712 27.21616018 6.43925712 27.21616018 4.3125 23.25 C2.9925 22.92 1.6725 22.59 0.3125 22.25 C0.3125 26.54 0.3125 30.83 0.3125 35.25 C-2.6575 35.25 -5.6275 35.25 -8.6875 35.25 C-8.7121519 30.42619198 -8.73033693 25.60242033 -8.74243164 20.77856445 C-8.74747174 19.13630536 -8.75430378 17.49405077 -8.76293945 15.85180664 C-8.77501926 13.49624521 -8.78073139 11.14074291 -8.78515625 8.78515625 C-8.79031754 8.04660904 -8.79547882 7.30806183 -8.80079651 6.5471344 C-8.8009925 4.78101912 -8.74944719 3.01502854 -8.6875 1.25 C-6.66913658 -0.76836342 -2.75741767 0.01953883 0 0 Z M0.3125 7.25 C0.3125 9.89 0.3125 12.53 0.3125 15.25 C3.7775 14.755 3.7775 14.755 7.3125 14.25 C7.99208603 11.85280568 7.99208603 11.85280568 8.3125 9.25 C6.41494856 6.90026182 6.41494856 6.90026182 3.1875 7.125 C2.23875 7.16625 1.29 7.2075 0.3125 7.25 Z " fill="#3279BB" transform="translate(696.6875,173.75)"/>
<path d="M0 0 C2.97 0 5.94 0 9 0 C9.02505615 0.7113208 9.0501123 1.4226416 9.07592773 2.15551758 C9.19188439 5.37469517 9.31461245 8.59357985 9.4375 11.8125 C9.47681641 12.93205078 9.51613281 14.05160156 9.55664062 15.20507812 C9.61948242 16.81479492 9.61948242 16.81479492 9.68359375 18.45703125 C9.72025146 19.44678955 9.75690918 20.43654785 9.79467773 21.45629883 C9.90790331 24.1218351 9.90790331 24.1218351 11 27 C13.31 27 15.62 27 18 27 C19.31361698 24.37276604 19.21253909 22.27389439 19.31640625 19.3359375 C19.35830078 18.21445313 19.40019531 17.09296875 19.44335938 15.9375 C19.48267578 14.761875 19.52199219 13.58625 19.5625 12.375 C19.60568359 11.19164062 19.64886719 10.00828125 19.69335938 8.7890625 C19.79967426 5.85949672 19.90170642 2.92984412 20 0 C22.97 0 25.94 0 29 0 C29.08742801 4.20820145 29.14053641 8.41616776 29.1875 12.625 C29.21263672 13.81480469 29.23777344 15.00460938 29.26367188 16.23046875 C29.35630757 27.28499443 29.35630757 27.28499443 26 32 C21.94727357 35.45673725 17.2037815 36.1428139 12 36 C6.77265207 34.45750389 3.97055688 32.5700875 1 28 C-0.0592918 24.82212459 -0.11458939 22.57411057 -0.09765625 19.23828125 C-0.09443359 18.12001953 -0.09121094 17.00175781 -0.08789062 15.84960938 C-0.07951172 14.68236328 -0.07113281 13.51511719 -0.0625 12.3125 C-0.05573242 10.54422852 -0.05573242 10.54422852 -0.04882812 8.74023438 C-0.03703273 5.82677211 -0.0205727 2.91341137 0 0 Z " fill="#337ABB" transform="translate(200,174)"/>
<path d="M0 0 C2.97 0 5.94 0 9 0 C9.02505615 0.74685059 9.0501123 1.49370117 9.07592773 2.26318359 C9.19168213 5.63397267 9.31450128 9.00446783 9.4375 12.375 C9.47681641 13.550625 9.51613281 14.72625 9.55664062 15.9375 C9.61948242 17.61972656 9.61948242 17.61972656 9.68359375 19.3359375 C9.73858032 20.89127197 9.73858032 20.89127197 9.79467773 22.47802734 C9.84164223 24.99425166 9.84164223 24.99425166 11 27 C13.31 27 15.62 27 18 27 C19.31361698 24.37276604 19.21253909 22.27389439 19.31640625 19.3359375 C19.35830078 18.21445313 19.40019531 17.09296875 19.44335938 15.9375 C19.48267578 14.761875 19.52199219 13.58625 19.5625 12.375 C19.60568359 11.19164062 19.64886719 10.00828125 19.69335938 8.7890625 C19.79967426 5.85949672 19.90170642 2.92984412 20 0 C22.97 0 25.94 0 29 0 C29.08725659 4.2290362 29.1404789 8.45784012 29.1875 12.6875 C29.21263672 13.88568359 29.23777344 15.08386719 29.26367188 16.31835938 C29.27333984 17.47529297 29.28300781 18.63222656 29.29296875 19.82421875 C29.3086792 20.88729248 29.32438965 21.95036621 29.34057617 23.0456543 C28.82878769 27.48519011 26.89017095 30.05746606 23.875 33.25 C19.95542901 35.63582582 16.56315353 36.19567554 12 36 C6.77265207 34.45750389 3.97055688 32.5700875 1 28 C-0.0592918 24.82212459 -0.11458939 22.57411057 -0.09765625 19.23828125 C-0.09443359 18.12001953 -0.09121094 17.00175781 -0.08789062 15.84960938 C-0.07951172 14.68236328 -0.07113281 13.51511719 -0.0625 12.3125 C-0.05573242 10.54422852 -0.05573242 10.54422852 -0.04882812 8.74023438 C-0.03703273 5.82677211 -0.0205727 2.91341137 0 0 Z " fill="#357BBC" transform="translate(433,174)"/>
<path d="M0 0 C10.23 0 20.46 0 31 0 C31 2.97 31 5.94 31 9 C27.7 9 24.4 9 21 9 C21 17.91 21 26.82 21 36 C17.04 36 13.08 36 9 36 C9 27.09 9 18.18 9 9 C6.03 9 3.06 9 0 9 C0 6.03 0 3.06 0 0 Z " fill="#1F70B6" transform="translate(78,174)"/>
<path d="M0 0 C10.23 0 20.46 0 31 0 C31 2.97 31 5.94 31 9 C27.7 9 24.4 9 21 9 C21 17.91 21 26.82 21 36 C17.04 36 13.08 36 9 36 C9 27.09 9 18.18 9 9 C6.03 9 3.06 9 0 9 C0 6.03 0 3.06 0 0 Z " fill="#2070B6" transform="translate(9,174)"/>
<path d="M0 0 C7.59 0 15.18 0 23 0 C23 2.31 23 4.62 23 7 C18.38 7 13.76 7 9 7 C9 9.31 9 11.62 9 14 C13.29 14 17.58 14 22 14 C22 16.31 22 18.62 22 21 C17.71 21 13.42 21 9 21 C9 23.31 9 25.62 9 28 C13.62 28 18.24 28 23 28 C23 30.31 23 32.62 23 35 C15.41 35 7.82 35 0 35 C0 23.45 0 11.9 0 0 Z " fill="#337BBC" transform="translate(987,174)"/>
<path d="M0 0 C7.59 0 15.18 0 23 0 C23 2.31 23 4.62 23 7 C18.38 7 13.76 7 9 7 C9 9.31 9 11.62 9 14 C13.29 14 17.58 14 22 14 C22 16.31 22 18.62 22 21 C17.71 21 13.42 21 9 21 C9 23.31 9 25.62 9 28 C13.62 28 18.24 28 23 28 C23 30.31 23 32.62 23 35 C15.41 35 7.82 35 0 35 C0 23.45 0 11.9 0 0 Z " fill="#337BBC" transform="translate(795,174)"/>
<path d="M0 0 C7.59 0 15.18 0 23 0 C23 2.31 23 4.62 23 7 C18.38 7 13.76 7 9 7 C9 9.31 9 11.62 9 14 C13.29 14 17.58 14 22 14 C22 16.31 22 18.62 22 21 C17.71 21 13.42 21 9 21 C9 23.31 9 25.62 9 28 C13.62 28 18.24 28 23 28 C23 30.31 23 32.62 23 35 C15.41 35 7.82 35 0 35 C0 23.45 0 11.9 0 0 Z " fill="#3079BB" transform="translate(660,174)"/>
<path d="M0 0 C2.97 0 5.94 0 9 0 C12.20628019 6.73318839 14.04022409 13.82741912 16 21 C18.70284626 14.10774203 20.87128982 7.08849683 23 0 C26.3 0 29.6 0 33 0 C30.76855142 7.57148749 28.36968134 15.07388698 25.875 22.5625 C25.51535156 23.65369141 25.15570312 24.74488281 24.78515625 25.86914062 C24.44097656 26.90361328 24.09679687 27.93808594 23.7421875 29.00390625 C23.4313623 29.94049072 23.12053711 30.8770752 22.80029297 31.84204102 C22 34 22 34 21 35 C19.31391034 35.07205511 17.62499341 35.08386068 15.9375 35.0625 C15.01839844 35.05347656 14.09929688 35.04445312 13.15234375 35.03515625 C12.44207031 35.02355469 11.73179687 35.01195312 11 35 C9.42752789 30.49967304 7.86111648 25.99730019 6.30029297 21.49291992 C5.76842799 19.96076587 5.23490915 18.4291849 4.69970703 16.89819336 C3.93086565 14.69793764 3.16798853 12.49569199 2.40625 10.29296875 C2.16563843 9.60849167 1.92502686 8.92401459 1.67712402 8.21879578 C0.68774761 5.34162782 0 3.06690063 0 0 Z " fill="#327ABB" transform="translate(715,174)"/>
<path d="M0 0 C0.70833984 -0.020625 1.41667969 -0.04125 2.14648438 -0.0625 C6.94251042 -0.09792771 10.13700738 0.65442351 14.3125 3.25 C17.10861547 6.31670728 17.54889043 8.72376782 17.375 12.75 C16.86359365 16.23686147 16.07543399 17.9731635 13.375 20.25 C8.48730024 23.44196719 6.0716157 23.34288896 0.3125 23.25 C0.3125 27.21 0.3125 31.17 0.3125 35.25 C-2.6575 35.25 -5.6275 35.25 -8.6875 35.25 C-8.7121519 30.42619198 -8.73033693 25.60242033 -8.74243164 20.77856445 C-8.74747174 19.13630536 -8.75430378 17.49405077 -8.76293945 15.85180664 C-8.77501926 13.49624521 -8.78073139 11.14074291 -8.78515625 8.78515625 C-8.79031754 8.04660904 -8.79547882 7.30806183 -8.80079651 6.5471344 C-8.8009925 4.78101912 -8.74944719 3.01502854 -8.6875 1.25 C-6.66913658 -0.76836342 -2.75741767 0.01953883 0 0 Z M0.3125 7.25 C0.3125 10.22 0.3125 13.19 0.3125 16.25 C3.7775 15.755 3.7775 15.755 7.3125 15.25 C7.99051034 12.34926819 7.99051034 12.34926819 8.3125 9.25 C6.41494856 6.90026182 6.41494856 6.90026182 3.1875 7.125 C2.23875 7.16625 1.29 7.2075 0.3125 7.25 Z " fill="#337ABB" transform="translate(476.6875,173.75)"/>
<path d="M0 0 C7.26 0 14.52 0 22 0 C22 2.31 22 4.62 22 7 C17.38 7 12.76 7 8 7 C8 9.31 8 11.62 8 14 C12.29 14 16.58 14 21 14 C21 16.31 21 18.62 21 21 C16.71 21 12.42 21 8 21 C8 23.31 8 25.62 8 28 C12.95 28 17.9 28 23 28 C23 30.31 23 32.62 23 35 C15.41 35 7.82 35 0 35 C0 23.45 0 11.9 0 0 Z " fill="#2874B8" transform="translate(313,174)"/>
<path d="M0 0 C0.71671875 -0.020625 1.4334375 -0.04125 2.171875 -0.0625 C7.84836391 -0.10423889 10.67851499 1.25808382 15.03515625 4.6328125 C17.16561132 7.46885237 16.71121295 10.38558713 16.6015625 13.8046875 C16.09879825 17.30169217 14.90144583 18.95685766 12.25 21.25 C8.00022527 23.72903526 4.03560862 23.41222402 -0.75 23.25 C-0.75 27.21 -0.75 31.17 -0.75 35.25 C-3.39 35.25 -6.03 35.25 -8.75 35.25 C-8.7746519 30.42619198 -8.79283693 25.60242033 -8.80493164 20.77856445 C-8.80997174 19.13630536 -8.81680378 17.49405077 -8.82543945 15.85180664 C-8.83751926 13.49624521 -8.84323139 11.14074291 -8.84765625 8.78515625 C-8.85281754 8.04660904 -8.85797882 7.30806183 -8.86329651 6.5471344 C-8.8634925 4.78101912 -8.81194719 3.01502854 -8.75 1.25 C-6.72363933 -0.77636067 -2.77022651 0.01950864 0 0 Z M-0.75 7.25 C-0.75 10.22 -0.75 13.19 -0.75 16.25 C3.41938808 16.58467338 3.41938808 16.58467338 7.1875 15.0625 C8.50545189 13.21944566 8.50545189 13.21944566 8 10.625 C7.47254355 8.3187593 7.47254355 8.3187593 6.25 7.25 C3.91702567 7.20907063 1.58294775 7.20758277 -0.75 7.25 Z " fill="#2472B7" transform="translate(506.75,173.75)"/>
<path d="M0 0 C1.74796875 -0.00386719 1.74796875 -0.00386719 3.53125 -0.0078125 C6.5 0.125 6.5 0.125 8.5 1.125 C8.17 3.435 7.84 5.745 7.5 8.125 C3.87 8.125 0.24 8.125 -3.5 8.125 C-3.83 9.445 -4.16 10.765 -4.5 12.125 C-3.90832031 12.29515625 -3.31664062 12.4653125 -2.70703125 12.640625 C6.27407741 15.395027 6.27407741 15.395027 9.5 19.125 C10.82463462 23.065788 10.92167334 26.07081665 9.375 29.9375 C5.77670966 34.1355054 2.22044376 35.59310482 -3.296875 36.140625 C-7.16179931 36.11321419 -10.79543891 35.16262012 -14.5 34.125 C-14.24438677 31.7818787 -13.90729228 29.44656597 -13.5 27.125 C-12.84 26.795 -12.18 26.465 -11.5 26.125 C-10.51 26.455 -9.52 26.785 -8.5 27.125 C-7.10560336 27.19165376 -5.70830125 27.21038199 -4.3125 27.1875 C-3.054375 27.166875 -1.79625 27.14625 -0.5 27.125 C-0.5 25.805 -0.5 24.485 -0.5 23.125 C-1.18707031 22.81046875 -1.87414062 22.4959375 -2.58203125 22.171875 C-3.48308594 21.74390625 -4.38414062 21.3159375 -5.3125 20.875 C-6.20582031 20.45734375 -7.09914063 20.0396875 -8.01953125 19.609375 C-10.67174359 18.02222431 -11.95307548 16.78330718 -13.5 14.125 C-14.14221857 9.06752874 -14.14221857 9.06752874 -13.5 6.125 C-9.20578503 0.81373412 -6.63427095 -0.01467759 0 0 Z " fill="#327ABB" transform="translate(380.5,173.875)"/>
<path d="M0 0 C1.74796875 -0.00386719 1.74796875 -0.00386719 3.53125 -0.0078125 C6.5 0.125 6.5 0.125 8.5 1.125 C8.17 3.435 7.84 5.745 7.5 8.125 C3.87 8.125 0.24 8.125 -3.5 8.125 C-3.83 9.445 -4.16 10.765 -4.5 12.125 C-3.90832031 12.29515625 -3.31664062 12.4653125 -2.70703125 12.640625 C6.27407741 15.395027 6.27407741 15.395027 9.5 19.125 C10.82463462 23.065788 10.92167334 26.07081665 9.375 29.9375 C5.77670966 34.1355054 2.22044376 35.59310482 -3.296875 36.140625 C-7.16179931 36.11321419 -10.79543891 35.16262012 -14.5 34.125 C-14.24438677 31.7818787 -13.90729228 29.44656597 -13.5 27.125 C-12.84 26.795 -12.18 26.465 -11.5 26.125 C-10.51 26.455 -9.52 26.785 -8.5 27.125 C-7.10560336 27.19165376 -5.70830125 27.21038199 -4.3125 27.1875 C-3.054375 27.166875 -1.79625 27.14625 -0.5 27.125 C-0.5 25.805 -0.5 24.485 -0.5 23.125 C-1.18707031 22.81046875 -1.87414062 22.4959375 -2.58203125 22.171875 C-3.48308594 21.74390625 -4.38414062 21.3159375 -5.3125 20.875 C-6.20582031 20.45734375 -7.09914063 20.0396875 -8.01953125 19.609375 C-10.67174359 18.02222431 -11.95307548 16.78330718 -13.5 14.125 C-14.14221857 9.06752874 -14.14221857 9.06752874 -13.5 6.125 C-9.20578503 0.81373412 -6.63427095 -0.01467759 0 0 Z " fill="#3179BB" transform="translate(418.5,173.875)"/>
<path d="M0 0 C1.051875 -0.00257813 2.10375 -0.00515625 3.1875 -0.0078125 C6 0.125 6 0.125 9 1.125 C8.34 3.765 7.68 6.405 7 9.125 C6.30132813 9.0528125 5.60265625 8.980625 4.8828125 8.90625 C3.51769531 8.76703125 3.51769531 8.76703125 2.125 8.625 C0.76761719 8.48578125 0.76761719 8.48578125 -0.6171875 8.34375 C-2.93313211 8.09452705 -2.93313211 8.09452705 -5 8.125 C-3.9723024 10.86552692 -3.28231699 11.95841845 -0.72265625 13.46875 C0.15519531 13.8503125 1.03304687 14.231875 1.9375 14.625 C5.68728373 16.25966271 7.91567282 17.53942109 10 21.125 C10.62171765 26.02102649 10.8292129 27.96912747 7.9375 32 C2.08477462 36.23388645 -2.95093763 36.32680368 -9.86328125 35.51171875 C-12 35.125 -12 35.125 -14 34.125 C-13.67 31.485 -13.34 28.845 -13 26.125 C-12.43796875 26.28871094 -11.8759375 26.45242187 -11.296875 26.62109375 C-8.86940944 27.15364997 -6.73110319 27.22398681 -4.25 27.1875 C-3.05117188 27.17396484 -3.05117188 27.17396484 -1.828125 27.16015625 C-1.22484375 27.14855469 -0.6215625 27.13695312 0 27.125 C0.33 25.805 0.66 24.485 1 23.125 C0.40832031 22.96644531 -0.18335938 22.80789062 -0.79296875 22.64453125 C-6.11484464 21.07314538 -9.32707812 19.48659473 -13 15.125 C-13.33 14.795 -13.66 14.465 -14 14.125 C-14.38144737 10.88269737 -14.65935301 8.2731398 -12.98828125 5.36328125 C-9.03800692 0.46399206 -6.03152454 -0.01478315 0 0 Z " fill="#3279BB" transform="translate(646,173.875)"/>
<path d="M0 0 C1.051875 -0.00257813 2.10375 -0.00515625 3.1875 -0.0078125 C6 0.125 6 0.125 9 1.125 C8.34 3.765 7.68 6.405 7 9.125 C6.30132812 9.0528125 5.60265625 8.980625 4.8828125 8.90625 C3.51769531 8.76703125 3.51769531 8.76703125 2.125 8.625 C0.76761719 8.48578125 0.76761719 8.48578125 -0.6171875 8.34375 C-2.93313211 8.09452705 -2.93313211 8.09452705 -5 8.125 C-3.9723024 10.86552692 -3.28231699 11.95841845 -0.72265625 13.46875 C0.15519531 13.8503125 1.03304688 14.231875 1.9375 14.625 C5.68728373 16.25966271 7.91567282 17.53942109 10 21.125 C10.62171765 26.02102649 10.8292129 27.96912747 7.9375 32 C2.08477462 36.23388645 -2.95093763 36.32680368 -9.86328125 35.51171875 C-12 35.125 -12 35.125 -14 34.125 C-13.67 31.485 -13.34 28.845 -13 26.125 C-12.43796875 26.28871094 -11.8759375 26.45242187 -11.296875 26.62109375 C-8.86940944 27.15364997 -6.73110319 27.22398681 -4.25 27.1875 C-3.05117188 27.17396484 -3.05117188 27.17396484 -1.828125 27.16015625 C-1.22484375 27.14855469 -0.6215625 27.13695312 0 27.125 C0.33 25.805 0.66 24.485 1 23.125 C0.40832031 22.96644531 -0.18335938 22.80789062 -0.79296875 22.64453125 C-6.11484464 21.07314538 -9.32707812 19.48659473 -13 15.125 C-13.33 14.795 -13.66 14.465 -14 14.125 C-14.38144737 10.88269737 -14.65935301 8.2731398 -12.98828125 5.36328125 C-9.03800692 0.46399206 -6.03152454 -0.01478315 0 0 Z " fill="#3279BB" transform="translate(353,173.875)"/>
<path d="M0 0 C1.051875 -0.00257813 2.10375 -0.00515625 3.1875 -0.0078125 C6 0.125 6 0.125 9 1.125 C8.25 6.875 8.25 6.875 6 9.125 C5.34 8.795 4.68 8.465 4 8.125 C2.45976004 8.05549459 0.91665012 8.04047643 -0.625 8.0625 C-1.44226563 8.07152344 -2.25953125 8.08054688 -3.1015625 8.08984375 C-3.72804687 8.10144531 -4.35453125 8.11304688 -5 8.125 C-4.32498041 11.25237709 -4.32498041 11.25237709 -1.85546875 12.37109375 C-0.97503906 12.76425781 -0.09460938 13.15742188 0.8125 13.5625 C8.1702389 17.13084548 8.1702389 17.13084548 10 20.125 C10.607778 23.25830212 10.63724144 25.99469119 10 29.125 C7.58336752 32.56687051 5.65445484 33.84268615 1.8125 35.5 C-3.34190125 36.34498381 -9.21559219 36.5172039 -14 34.125 C-13.67 31.485 -13.34 28.845 -13 26.125 C-12.43796875 26.28871094 -11.8759375 26.45242187 -11.296875 26.62109375 C-8.86940944 27.15364997 -6.73110319 27.22398681 -4.25 27.1875 C-3.05117187 27.17396484 -3.05117187 27.17396484 -1.828125 27.16015625 C-1.22484375 27.14855469 -0.6215625 27.13695312 0 27.125 C0 25.805 0 24.485 0 23.125 C-1.01320312 22.67060547 -1.01320312 22.67060547 -2.046875 22.20703125 C-11.51201583 17.76169777 -11.51201583 17.76169777 -14 13.125 C-14.59272341 10.02966662 -14.64005599 8.17547357 -12.9765625 5.4453125 C-9.04547958 0.4659408 -6.07621492 -0.01489268 0 0 Z " fill="#3179BB" transform="translate(248,173.875)"/>
<path d="M0 0 C1.051875 -0.02578125 2.10375 -0.0515625 3.1875 -0.078125 C6 0.25 6 0.25 7.875 1.765625 C8.24625 2.25546875 8.6175 2.7453125 9 3.25 C8.34 4.9 7.68 6.55 7 8.25 C3.37 8.25 -0.26 8.25 -4 8.25 C-3.48145171 12.3034061 -3.48145171 12.3034061 -0.8203125 13.59375 C0.06914063 13.9753125 0.95859375 14.356875 1.875 14.75 C5.65877349 16.38264862 7.87963721 17.65222314 10 21.25 C10.66028342 25.70691306 10.34327704 27.6814474 8 31.5625 C4.8333064 34.88930732 1.50611491 35.88051464 -3 36.25 C-10.89304519 36.22441476 -10.89304519 36.22441476 -13.76171875 33.69921875 C-14.37466797 32.98185547 -14.37466797 32.98185547 -15 32.25 C-14.34 30.27 -13.68 28.29 -13 26.25 C-12.43796875 26.41371094 -11.8759375 26.57742187 -11.296875 26.74609375 C-8.86940944 27.27864997 -6.73110319 27.34898681 -4.25 27.3125 C-3.05117188 27.29896484 -3.05117188 27.29896484 -1.828125 27.28515625 C-1.22484375 27.27355469 -0.6215625 27.26195312 0 27.25 C0.33 25.93 0.66 24.61 1 23.25 C0.40832031 23.07984375 -0.18335938 22.9096875 -0.79296875 22.734375 C-5.6157329 21.2552891 -9.29855998 19.83577002 -13 16.25 C-14.57455739 13.10088521 -14.34799118 10.72991184 -14 7.25 C-10.5404307 1.23916531 -6.63962061 0.09764148 0 0 Z " fill="#3078BA" transform="translate(836,173.75)"/>
<path d="M0 0 C9.24 0 18.48 0 28 0 C28 2.97 28 5.94 28 9 C25.36 9 22.72 9 20 9 C20 16.92 20 24.84 20 33 C16.04 33 12.08 33 8 33 C8 25.08 8 17.16 8 9 C5.36 9 2.72 9 0 9 C0 6.03 0 3.06 0 0 Z " fill="#2B76B9" transform="translate(463,112)"/>
<path d="M0 0 C9.57 0 19.14 0 29 0 C29 2.97 29 5.94 29 9 C26.03 9 23.06 9 20 9 C20 16.92 20 24.84 20 33 C16.37 33 12.74 33 9 33 C9 25.08 9 17.16 9 9 C6.03 9 3.06 9 0 9 C0 6.03 0 3.06 0 0 Z " fill="#2472B7" transform="translate(526,112)"/>
<path d="M0 0 C1.87365234 -0.00386719 1.87365234 -0.00386719 3.78515625 -0.0078125 C6.9375 0.125 6.9375 0.125 8.9375 1.125 C8.2775 3.435 7.6175 5.745 6.9375 8.125 C6.27363281 8.09019531 5.60976563 8.05539063 4.92578125 8.01953125 C-2.07050357 7.76077978 -2.07050357 7.76077978 -8.0625 11.125 C-9.23218953 13.46437907 -9.19614221 14.89869368 -9.1875 17.5 C-9.19007813 18.27085937 -9.19265625 19.04171875 -9.1953125 19.8359375 C-9.06639788 22.0578189 -8.67633717 23.99118508 -8.0625 26.125 C-4.75179162 27.12609515 -1.76165231 27.22856134 1.6875 27.1875 C2.67234375 27.17847656 3.6571875 27.16945312 4.671875 27.16015625 C5.41953125 27.14855469 6.1671875 27.13695312 6.9375 27.125 C7.2675 29.435 7.5975 31.745 7.9375 34.125 C1.08059511 36.60515709 -4.52865034 36.45852818 -11.375 33.875 C-15.29396363 31.32311671 -17.33550544 28.61360791 -19.375 24.4375 C-20.61499821 18.46296315 -20.12848147 13.18082141 -17.3125 7.75 C-11.97953984 1.52821314 -8.09235437 -0.01673703 0 0 Z " fill="#327ABB" transform="translate(783.0625,173.875)"/>
<path d="M0 0 C8.91 0 17.82 0 27 0 C27 2.64 27 5.28 27 8 C24.03 8 21.06 8 18 8 C18 16.91 18 25.82 18 35 C15.03 35 12.06 35 9 35 C9 26.09 9 17.18 9 8 C6.03 8 3.06 8 0 8 C0 5.36 0 2.72 0 0 Z " fill="#357BBC" transform="translate(957,174)"/>
<path d="M0 0 C8.91 0 17.82 0 27 0 C27 2.64 27 5.28 27 8 C24.03 8 21.06 8 18 8 C18 16.91 18 25.82 18 35 C15.03 35 12.06 35 9 35 C9 26.09 9 17.18 9 8 C6.03 8 3.06 8 0 8 C0 5.36 0 2.72 0 0 Z " fill="#387EBD" transform="translate(592,174)"/>
<path d="M0 0 C2.97 0 5.94 0 9 0 C9 9.24 9 18.48 9 28 C13.29 28 17.58 28 22 28 C22 30.31 22 32.62 22 35 C14.74 35 7.48 35 0 35 C0 23.45 0 11.9 0 0 Z " fill="#2975B9" transform="translate(861,174)"/>
<path d="M0 0 C2.97 0 5.94 0 9 0 C9 11.55 9 23.1 9 35 C6.03 35 3.06 35 0 35 C0 23.45 0 11.9 0 0 Z " fill="#1268B3" transform="translate(945,174)"/>
<path d="M0 0 C2.97 0 5.94 0 9 0 C9 11.55 9 23.1 9 35 C6.03 35 3.06 35 0 35 C0 23.45 0 11.9 0 0 Z " fill="#1268B3" transform="translate(887,174)"/>
<path d="M0 0 C2.97 0 5.94 0 9 0 C9 11.55 9 23.1 9 35 C6.03 35 3.06 35 0 35 C0 23.45 0 11.9 0 0 Z " fill="#1268B3" transform="translate(750,174)"/>
<path d="M0 0 C2.64 0 5.28 0 8 0 C8 11.55 8 23.1 8 35 C5.36 35 2.72 35 0 35 C0 23.45 0 11.9 0 0 Z " fill="#1268B3" transform="translate(263,174)"/>
</svg>
